<svg width="400" height="140" viewBox="0 0 400 140" xmlns="http://www.w3.org/2000/svg" xmlns:xlink="http://www.w3.org/1999/xlink"><title>Artboard</title><g id="Artboard" stroke="none" stroke-width="1" fill="none" fill-rule="evenodd"><g id="glu" transform="translate(152.000000, 20.000000)" fill-rule="nonzero"><path d="M97 20.379663 83.8536921 20.3654491 69.9214289 38.689683V20.379663H58.5537947V0H45.5501789L39.9798263 7.40543326 39.9742105 20.3923539H33.8445763C33.8445763 20.3923539 30.7576789 19.8136458 29.0446079 19.6704917 27.8691211 19.5712484 26.7122684 19.5443435 25.2815184 19.5443435 19.3974474 19.5443435 14.7399158 21.0931492 11.4391079 24.1455806 10.5461974 24.9710011 9.76305 25.8959188 9.08966579 26.9142421 9.00262105 27.0391212 3.94585789 34.2389608 3.86162105 34.365109 1.68473684 37.4642432.577660526 41.4839802.577660526 46.3702564.577660526 51.0623609 1.56476316 54.9714326 3.51191053 57.9855374 4.29658947 59.1982862 5.23519211 60.271942 6.30780789 61.1770618 5.39192368 63.51753 5.20098684 64.6279897 5.20098684 65.5612834 5.20098684 66.7313906 5.28088421 67.7796645 5.44195526 68.738594 5.37354474 68.8378374 2.70732105 72.6362439 2.62333947 72.761123.794634211 75.285864.0 78.0801612.0 81.6658671.0 86.8303294.574852632 92.1153558 4.75453158 95.7888832 8.11379474 98.7405484 13.1052105 1e2 21.4413395 1e2 28.8789421 1e2 34.0970316 98.7192276 37.8629289 95.9716331 39.2423711 94.9660009 40.4691658 93.6540087 41.5019605 92.3491234 43.76155 89.4895947 44.2064737 88.8413401 46.3006526 85.3124897 46.6174342 84.7776923 46.8982237 84.2048221 47.3661211 83.1735541 47.6770316 82.4928106 48.1906211 81.1864024 48.4231658 80.068582H52.6498132L56.4042237 75.1665689C57.9092553 77.1453446 59.8477237 78.570794 62.2997816 79.5040878 64.6377368 80.3947398 66.4079868 80.808973 69.9870316 80.808973 72.6588711 80.808973 75.4961211 80.3465142 78.4288395 79.4345413V80.0571601H91.0531342L97 72.2347017V20.379663z" id="Path" fill="#212721"/><path d="M46.0119873 67.1576129C45.2712923 65.0383491 44.0627767 63.3539617 42.4202679 62.152995 39.3943434 59.940435 35.1892203 59.4868489 29.809409 59.4868489 27.4710579 59.4868489 25.0863507 59.4683919 23.4563706 59.3399517 22.4230059 59.2592973 21.8712432 59.14628 21.5911021 59.0658784 21.5672976 58.8272021 21.554769 58.4669121 21.554769 57.9865254 21.631695 57.5556944 21.9945253 56.4267856 22.4578356 55.1310058 23.5150048 55.207362 24.549873 55.2566648 24.9460296 55.2566648 30.9194493 55.2566648 35.0418831 54.0867968 37.9222245 51.5746273 41.0320912 48.8604425 42.5430489 44.6684365 42.5430489 38.753865 42.5430489 35.8080833 41.8624915 32.2997434 41.5823504 31.4858673 41.5417575 31.3657706 41.4996612 31.2471909 41.456312 31.1298754H44.6278197V22.8222197H33.0252683C32.5827556 22.6950437 32.124958 22.5946682 31.6571374 22.521346 29.5483115 22.1921547 27.4031525 22 25.2705222 22 20.0573422 22 15.979761 23.3465997 13.1512883 25.9998513 10.1085753 28.8553709 8.56679707 33.1462354 8.56679707 38.7541179 8.56679707 43.0040231 9.4194984 46.5009853 11.1041035 49.1474103 12.0507699 50.6338278 13.2422464 51.8446551 14.6594897 52.7644692 14.6231565 52.8605466 14.5810602 52.9551069 14.5419708 53.0511842 13.3489907 55.926425 13.1051828 57.0553337 13.1051828 57.8692099 13.1051828 59.5308422 13.2773267 60.9070236 13.6374007 62.0768916 13.6962855 62.2705633 13.7606828 62.4569028 13.8278365 62.6379327 10.4363253 65.3238 8 68.1214203 8 73.9128611 8 78.5458115 8.47608949 83.2634616 11.9375107 86.3505782 14.8065763 88.9092694 19.2790612 90 26.8909804 90 33.7088325 90 38.4276311 88.8597137 41.7336968 86.4097416 43.5443403 85.0702212 44.9039516 83.3254062 45.778954 81.2286447 46.5980785 79.2547611 47 76.9969437 47 74.3280164 47.0004994 71.4105521 46.6742528 69.0650009 46.0119873 67.1576129M18.9099666 32.0641011C20.0245171 30.9478342 22.078718 30.40525 25.1900881 30.40525 28.7116469 30.40525 30.9898604 30.9561777 32.1577831 32.0936828 33.3116737 33.2170292 33.8494042 35.3335118 33.8494042 38.7541179 33.8494042 40.8764157 33.6800166 43.8588585 32.1956197 45.2547611 31.0334602 46.3454917 28.8083682 46.8541959 25.1900881 46.8541959 21.9877598 46.8541959 19.9811679 46.3540881 18.8733828 45.2815616 17.7322715 44.1794534 17.1777525 42.0432497 17.1777525 38.753865 17.1777525 35.4209927 17.7420439 33.2339691 18.9099666 32.0641011M36.1822427 79.7381818C34.462808 80.9702473 31.3652194 81.596267 26.9726674 81.596267 22.2300643 81.596267 19.3076266 81.0551999 18.044486 79.9444953 17.0236499 79.0487005 16.6092014 77.2798661 16.6092014 73.8281614 16.6092014 71.3867856 17.0291625 70.3552184 20.7035711 67.6764306 22.6512782 67.7441904 27.0508463 67.8910876 29.6485409 67.8910876 33.1044495 67.8910876 35.6542845 68.0607399 36.864053 68.8971184 37.261713 69.1699275 38.3076065 69.8905075 38.3076065 74.3282692 38.307857 77.7728946 37.1720077 79.0259453 36.1822427 79.7381818" id="Shape" fill="#fff"/><path d="M86.2548673 23V59.6836722C84.2390522 60.7535042 80.0941193 62.6037378 75.5455609 62.6037378 70.9397088 62.6037378 69.9333428 61.4717767 69.2956609 60.3117818 68.4917499 58.8439197 67.7451327 56.2526834 67.7451327 47.2906933V23H59V47.4558656C59 55.3311024 59.5125607 61.3871701 62.0149872 65.3475186 63.3517556 67.4604117 65.1792464 68.9323147 67.6058807 69.844046 69.7005709 70.6315191 72.2245789 71 75.5455609 71 79.6216386 71 83.4564659 69.8468241 86.2548673 68.7065286V70.250663H95V23H86.2548673z" id="Path" fill="#fff"/><path d="M47 2V64.7395108C47 67.6447089 49.4464941 70 52.4661458 70H56V2H47z" id="Path" fill="#fff"/></g></g></svg>