<svg width="400" height="140" viewBox="0 0 400 140" xmlns="http://www.w3.org/2000/svg" xmlns:xlink="http://www.w3.org/1999/xlink"><title>Artboard</title><g id="Artboard" stroke="none" stroke-width="1" fill="none" fill-rule="evenodd"><g id="elastic-logo" transform="translate(66.000000, 24.000000)" fill-rule="nonzero"><path d="M92 48.2258065C92 40.4940577 87.2172443 33.6994907 80.0236686 31.0831919 80.3347422 29.4431239 80.490279 27.803056 80.490279 26.1239389 80.490279 11.7147708 68.8250211.0 54.5156382.0 46.1166526.0 38.339814 4.02207131 33.4404057 10.8166384 31.0295858 8.94227504 28.0743872 7.92699491 25.0025359 7.92699491 17.3812342 7.92699491 11.1986475 14.1358234 11.1986475 21.7894737 11.1986475 23.4685908 11.509721 25.1086587 12.0540997 26.6315789 4.89940828 29.2088285.0 36.1205433.0 43.8132428.0 51.5840407 4.8216399 58.3786078 12.0152156 60.9949066 11.704142 62.5959253 11.5486052 64.2750424 11.5486052 65.9541596 11.5486052 80.3242784 23.1749789 92 37.4843618 92 45.8833474 92 53.660186 87.9388795 58.5207101 81.1443124 60.93153 83.057725 63.8867287 84.1120543 66.9585799 84.1120543 74.5798817 84.1120543 80.7624683 77.9032258 80.7624683 70.2495756 80.7624683 68.5704584 80.4513948 66.9303905 79.9070161 65.4074703 87.0617075 62.8302207 92 55.9185059 92 48.2258065" id="Path" fill="#fff"/><path d="M35.9453125 39.821089 56.1796875 49l20.390625-17.8133103C76.8828125 29.7087295 77 28.2696629 77 26.7139153 77 14.1901469 66.765625 4 54.1875 4 46.6484375 4 39.65625 7.69490061 35.3984375 13.8789974L32 31.4200519l3.9453125 8.4010371z" id="Path" fill="#fed10a"/><path d="M15.4282007 60.8141136C15.116782 62.2857143 15 63.7960413 15 65.3450947 15 77.8537005 25.2378893 88 37.8114187 88 45.3633218 88 52.4091696 84.2822719 56.6522491 78.0860585L60 60.6979346 55.5233564 52.1781411 35.2811419 43 15.4282007 60.8141136z" id="Path" fill="#24bbb1"/><path d="M14.68 25.7130435 28.88 29 32 13.2304348C30.08 11.7826087 27.68 11 25.2 11 19.04 11 14 15.8913043 14 21.9565217 14 23.2478261 14.24 24.5391304 14.68 25.7130435" id="Path" fill="#ef5098"/><path d="M14.4013333 29C8.292 31.046133 4 37.027137 4 43.5983718 4 50.0122117 7.90533333 55.7177748 13.744 58L33 40.2930801 29.4813333 32.6200814 14.4013333 29z" id="Path" fill="#17a8e0"/><path d="M60 78.7304348C61.8552339 80.1782609 64.0890869 81 66.3986637 81 72.2293987 81 77 76.1086957 77 70.0434783 77 68.7130435 76.7728285 67.4217391 76.3563474 66.2478261L62.9532294 63 60 78.7304348z" id="Path" fill="#93c83e"/><path d="M63.0551181 59.4192673 78.4094488 63C84.6692913 60.953867 89 54.972863 89 48.3622795 89 41.9877883 85.023622 36.2428765 79.0787402 34L59 51.5888738 63.0551181 59.4192673z" id="Path" fill="#0779a1"/><path d="M128.964072 64.446934 130.793413 64.2523585 130.91018 67.9882075C126.083832 68.6497642 121.958084 69 118.532934 69 113.979042 69 110.748503 67.6768868 108.841317 65.0306604 106.934132 62.384434 106 58.259434 106 52.6945755 106 41.5648585 110.437126 36 119.272455 36 123.553892 36 126.745509 37.2063679 128.847305 39.5801887 130.949102 41.9540094 132 45.7287736 132 50.8266509L131.727545 54.4457547H110.787425C110.787425 57.9481132 111.41018 60.5554245 112.694611 62.2287736 113.979042 63.9021226 116.158683 64.7582547 119.311377 64.7582547 122.502994 64.8360849 125.694611 64.7193396 128.964072 64.446934zM127.251497 50.7099057C127.251497 46.8183962 126.628743 44.0554245 125.383234 42.4599057 124.137725 40.8643868 122.113772 40.0471698 119.311377 40.0471698 116.508982 40.0471698 114.368263 40.9033019 112.967066 42.5766509 111.565868 44.25 110.826347 46.9740566 110.787425 50.7099057h16.464072z" id="Shape" fill="#000"/><path id="Path" fill="#000" d="M138 69V23h5V69z"/><path d="M173.120713 46.2346698V61.8396226C173.120713 63.4351415 177 63.7464623 177 63.7464623L176.769547 67.9492925C173.466392 67.9492925 170.739369 68.2216981 169.087791 66.6261792 165.323731 68.2995283 161.59808 69 157.834019 69 154.953361 69 152.76406 68.182783 151.266118 66.509434 149.768176 64.875 149 62.5011792 149 59.3879717 149 56.3136792 149.768176 54.0176887 151.304527 52.5778302 152.840878 51.1379717 155.260631 50.2040094 158.563786 49.8926887L168.396433 48.9587264V46.2346698C168.396433 44.0943396 167.935528 42.5377358 167.013717 41.6037736 166.091907 40.6698113 164.824417 40.2028302 163.249657 40.2028302H150.920439V36H162.942387C166.475995 36 169.049383 36.817217 170.662551 38.490566 172.314129 40.125 173.120713 42.7323113 173.120713 46.2346698zM153.839506 59.1544811C153.839506 63.0459906 155.414266 64.9917453 158.602195 64.9917453 161.444444 64.9917453 164.248285 64.5247642 166.975309 63.5518868L168.396433 63.0459906V52.5778302L159.139918 53.4728774C157.257888 53.6285377 155.91358 54.1733491 155.068587 55.1073113 154.223594 56.0412736 153.839506 57.4033019 153.839506 59.1544811z" id="Shape" fill="#000"/><path d="M191.726384 40.2077922C187.114007 40.2077922 184.76873 41.8051948 184.76873 45.038961 184.76873 46.5194805 185.315961 47.5714286 186.371336 48.1948052 187.42671 48.8181818 189.850163 49.4415584 193.641694 50.1038961 197.433225 50.7662338 200.091205 51.6623377 201.654723 52.8701299 203.218241 54.038961 204 56.2597403 204 59.5324675 204 62.8051948 202.944625 65.1818182 200.833876 66.7012987 198.723127 68.2207792 195.674267 69 191.609121 69 188.990228 69 180.19544 68.025974 180.19544 68.025974L180.469055 63.8961039C185.511401 64.3636364 189.185668 64.7532468 191.648208 64.7532468 194.110749 64.7532468 195.986971 64.3636364 197.276873 63.5844156 198.566775 62.8051948 199.23127 61.4805195 199.23127 59.6493506 199.23127 57.8181818 198.684039 56.5714286 197.589577 55.9090909 196.495114 55.2467532 194.071661 54.6233766 190.319218 54.038961 186.566775 53.4545455 183.908795 52.5974026 182.345277 51.4285714 180.781759 50.2987013 180 48.1558442 180 45.0779221 180 42 181.094463 39.7012987 183.283388 38.2207792 185.472313 36.7402597 188.208469 36 191.452769 36 194.032573 36 203.022801 36.6623377 203.022801 36.6623377V40.8311688C198.29316 40.5584416 194.423453 40.2077922 191.726384 40.2077922z" id="Path" fill="#000"/><path d="M227.566075 40.8060942H217.349112V55.9307479C217.349112 59.5373961 217.625247 61.9418283 218.138067 63.066482 218.690335 64.1911357 219.952663 64.7728532 221.964497 64.7728532L227.684418 64.3850416 228 68.3019391C225.120316 68.767313 222.95069 69 221.451677 69 218.098619 69 215.810651 68.1855956 214.508876 66.5955679 213.207101 65.0055402 212.575937 61.9418283 212.575937 57.4432133V40.8060942H208V36.6952909H212.575937V27H217.349112v9.6565097H227.566075V40.8060942z" id="Path" fill="#000"/><path d="M234 29.4373357V24h5V29.4758983L234 29.4373357v0zM234 68V36.5714286h5V68h-5z" id="Shape" fill="#000"/><path d="M259.285968 36C260.692718 36 263.076377 36.2724057 266.436945 36.7783019L267.960924 36.9728774 267.765542 40.8254717C264.365897 40.4363208 261.865009 40.2417453 260.262877 40.2417453 256.667851 40.2417453 254.206039 41.0978774 252.916519 42.8101415 251.626998 44.5224057 250.9627 47.7134434 250.9627 52.3443396 250.9627 56.9752358 251.548845 60.2051887 252.760213 62.0341981 253.971581 63.8632075 256.472469 64.7582547 260.301954 64.7582547L267.804618 64.1745283 268 68.1049528C264.053286 68.6886792 261.083481 69 259.129663 69 254.166963 69 250.728242 67.7158019 248.852575 65.1863208 246.976909 62.6568396 246 58.3761792 246 52.3443396 246 46.3125 247.015986 42.0707547 249.047957 39.6580189 251.119005 37.245283 254.51865 36 259.285968 36z" id="Path" fill="#000"/></g></g></svg>