<svg height="60" viewBox="0 0 188 60" width="188" xmlns="http://www.w3.org/2000/svg"><g fill="#5101a0" transform="matrix(0 1 -1 0 188 0)"><path d="m48.81 42.91c-1.4258087 1.2316292-3.0808005 2.1695712-4.87 2.76l-.45.16-.55.16-.34.1-.63.16-.37.08c-.35.08-.72.15-1.09.21-.1344003.0120911-.2679671.0321261-.4.06l-.65.08c-.1428905-.015934-.2871095-.015934-.43 0l-.55.05-6.75-28c-1.4496733.1644709-2.8565574.5950114-4.15 1.27-2.2615425 1.0381368-4.1624274 2.7266517-5.46 4.85-1.4874325 2.3517756-2.4556757 4.9939886-2.84 7.75l-.07.47c-.1836253 1.6616089-.1836253 3.3383911 0 5 .4768355 4.4088144 2.3555706 8.5483409 5.36 11.81 2.9304154 3.220819 6.8499379 5.3740935 11.14 6.12h.17c.28.05.55.09.86.12s.35 0 .55.06c.1530603-.0129412.3069397-.0129412.46 0 .2662999-.0197803.5337001-.0197803.8 0h1.29c2.3156663-.0650979 4.5999062-.5531254 6.74-1.44 7.4942456-3.2308024 12.3762785-10.5793403 12.45-18.74.0682645-3.3780492-.6795643-6.7226961-2.18-9.75-1.478682-2.9943367-3.6735965-5.5773974-6.39-7.52l-1.21.48c3.78 1.98 8.48 15.64-.44 23.7zm-16.61-12.74 4 16.65c-.5 0-1 0-1.47-.07h-.15c-.1598914.0083354-.3201086.0083354-.48 0l-.65-.08c-1.0403795-.1510031-2.0669946-.3850847-3.07-.7-1.8610268-.564845-3.6174316-1.4295365-5.2-2.56-1.4584539-1.0310739-2.6847815-2.3561889-3.6-3.89-.8776403-1.4681767-1.3343134-3.1495642-1.32-4.86 0-2.3866667.6666667-4.1333333 2-5.24.4646224-.4029412.9828951-.7394819 1.54-1 2.83-1.11 7.54-1.03 8.4 1.75z"/><path d="m49.22 92.88c3.82 2 8.51 15.64-.4 23.7-1.5402745 1.321746-3.3382268 2.309258-5.28 2.9-2.2019177.695362-4.5011297 1.032985-6.81 1-2.155681.014964-4.3008137-.302084-6.36-.94-1.8610268-.564845-3.6174316-1.429537-5.2-2.56-1.446631-1.012903-2.6687643-2.313335-3.59-3.82-.8771624-1.46838-1.3337985-3.149631-1.32-4.86 0-2.386667.6666667-4.133333 2-5.24 1.4416896-1.140503 3.243036-1.729132 5.08-1.66.9539574-.024371 1.9048602.117757 2.81.42l-2-8.5c-8 3.09-9.11 13.33-9.11 15.22-.26 16.22 15 25.12 27.43 19.88 7.4984776-3.234468 12.3864711-10.584097 12.47-18.75.0682645-3.378049-.6795643-6.722696-2.18-9.75-1.4783343-2.9945652-3.6733149-5.5777036-6.39-7.52z"/><path d="m49.22 56c3.82 2 8.51 15.64-.4 23.7-1.5299965 1.3078764-3.3140622 2.2850269-5.24 2.87-2.2019565.6951933-4.5011411 1.0328121-6.81 1-2.155681.0149635-4.3008137-.3020844-6.36-.94-1.8604593-.5615939-3.6168546-1.4229032-5.2-2.55-1.4593974-1.0106491-2.6950554-2.3109835-3.63-3.82-.8776403-1.4681767-1.3343134-3.1495642-1.32-4.86 0-2.38.6666667-4.1266667 2-5.24 1.4375381-1.1512502 3.2392898-1.7506518 5.08-1.69.954826-.0255674 1.9065143.1200646 2.81.43l-2-8.45c-8 3.07-9.1 13.31-9.1 15.18-.26 16.22 15 25.12 27.43 19.88 7.5181973-3.2137205 12.429005-10.5642425 12.52-18.74.0714971-3.3847806-.6764169-6.7366703-2.18-9.77-1.478682-2.9943367-3.6735965-5.5773974-6.39-7.52z"/><path d="m51 6.47h-51l2.92 12v.08h1.13c0-.42 1-4.05 3.5-4.05h43.27c5.46 0 6.25 3.86 6.42 6.47h.91v-20.97h-.91c-.17 2.6-.97 6.38-6.24 6.47z"/><path d="m0 151.52 2.91 11.88v.09h.88c0-.42 1.25-3.95 3.5-3 9.98 4.51 43.29 19.14 44.79 19.91 5 2.53 5 6.12 5.16 7.6h.91v-18.6h-.93s.08 7.06-3.61 7.06c-2.24 0-11.05-3.65-13.46-4.64l-5.91-24.23c.15-.06 15.94-6.58 19.27-6.58 3.6 0 3.71 5.79 3.71 6h.91v-24.27h-.91c.0598305 3.521595-1.9858757 6.739648-5.2 8.18-1.44.73-52.02 20.6-52.02 20.6zm32.2-3.09 5.46 22.37c-.29-.12-28.81-12.29-29.53-12.63 1.19-.51 24.07-9.73 24.07-9.73z"/></g></svg>