<svg viewBox="0 0 389.18 99.77" xmlns="http://www.w3.org/2000/svg"><path d="m273.79 86.65h11.35v1.54h-9.57v4.11h9.21v1.52h-9.21v5.61h-1.77v-12.78zm14.84 0h8.69a5.07 5.07 0 0 1 3.58 1 3.47 3.47 0 0 1 1.1 2.76c0 3.06-2.59 3.47-3.44 3.62l4.71 5.39h-2.37l-4.33-5.1h-6.17v5.1h-1.81v-12.77zm1.79 1.54v4.63h6.32c1 0 2.26 0 3-1a2.17 2.17 0 0 0 .43-1.36 2.47 2.47 0 0 0 -.38-1.36 2.44 2.44 0 0 0 -2.33-.94h-7zm30.58 5.03c0 4.36-3.58 6.55-7.69 6.55a9 9 0 0 1 -5.31-1.41 6 6 0 0 1 -2.59-5.16c0-4.72 3.89-6.86 7.71-6.86 4.51.02 7.88 2.66 7.88 6.88zm-13.72-.13a4.92 4.92 0 0 0 1.12 3.26 6.25 6.25 0 0 0 4.9 1.85c4.72 0 5.86-3 5.86-5.16 0-3.37-2.7-5.23-6.19-5.14-2.67.1-5.71 1.41-5.71 5.19zm17.45-6.44h2.5l4 8.32c.63 1.38.74 1.65 1.23 2.86a27.23 27.23 0 0 1 1.16-2.8l4-8.38h2.46v12.78h-1.7v-7.35a25.85 25.85 0 0 1 .16-3.91 19.19 19.19 0 0 1 -1 2.24l-4.36 9h-1.67l-4-8.29a26.08 26.08 0 0 1 -1.29-2.91 27.71 27.71 0 0 1 .15 3.24v8h-1.7v-12.8zm26.64 0h1.86v12.78h-1.86zm6.63 0h6.35a7 7 0 0 1 4.89 1.41 6.14 6.14 0 0 1 2.12 4.89 6.58 6.58 0 0 1 -1.79 4.65c-1.79 1.77-4.29 1.83-6.44 1.83h-5.13zm1.83 1.5v9.74h3.73c1.61 0 3.6-.05 5-1.79a5.24 5.24 0 0 0 1-3.2 4.82 4.82 0 0 0 -1.34-3.53 5 5 0 0 0 -3.8-1.21h-4.54zm27.51 9.54c-.24.22-.43.42-.71.63a8.38 8.38 0 0 1 -4.87 1.41c-4.42 0-7.31-3.06-7.31-6.71a6.7 6.7 0 0 1 1.1-3.66 7.79 7.79 0 0 1 6.52-3 8.57 8.57 0 0 1 5.54 1.83 5.28 5.28 0 0 1 1.25 1.56l-1.79.54a4.25 4.25 0 0 0 -.81-1 6.18 6.18 0 0 0 -4-1.39c-3.15 0-5.83 1.77-5.83 5a5.55 5.55 0 0 0 .87 3c1.39 2.15 4.07 2.33 4.9 2.33a5.87 5.87 0 0 0 4.22-1.68 3.74 3.74 0 0 0 1-2.32h-5.63v-1.53h7.15v6.75h-1.58v-1.76zm-365.26-85.8h9v-9.1h-31.08v9.1h8.83v56.61h-8.83v9.13h31.06v-9.13h-9v-56.61z"/><path d="m64.1 20.14c-4.67 0-9.38 2-14 6l-2.72 2.34v-7.4h-19.85v8.73h6.69v47.7h13.17v-40l.61-.51c3.46-2.78 6.94-4.19 10.35-4.19a5.72 5.72 0 0 1 5.11 2.5c.95 1.47 1.4 3.83 1.4 7.42v34.78h13.14v-36.22c0-14.23-4.53-21.15-13.9-21.15zm45.82.49h-12.44v-3.46c0-5.6 1.94-7.52 4.88-8.7 2.67-1.07 7.07-.86 10.84 1.34v-7.52a27.83 27.83 0 0 0 -10.94-2.29c-5.41 0-10 1.85-12.72 5.07a19.74 19.74 0 0 0 -4.31 13v2.55h-5.94v9.19h5.94v47.82h12.16v-47.81h12.52v-9.19zm24.78-.96a27.09 27.09 0 0 0 -19.57 7.8c-5.34 5.22-8 12.53-8 21.72s2.7 16.5 8 21.72a28.47 28.47 0 0 0 39.24-.09c5.26-5.28 7.94-12.55 7.94-21.63s-2.7-16.5-8-21.72a27.07 27.07 0 0 0 -19.61-7.8zm9.9 44a11.86 11.86 0 0 1 -10 5.14 11.18 11.18 0 0 1 -10.24-5.81c-2.09-3.51-3.14-8-3.14-13.35 0-13.42 4.51-20.23 13.42-20.23a11.61 11.61 0 0 1 10.08 5.44c2.3 3.37 3.47 8.05 3.47 13.91 0 6.65-1.19 11.65-3.59 14.88zm111.97-44a27 27 0 0 0 -19.57 7.81c-5.34 5.22-8 12.53-8 21.72s2.71 16.5 8 21.72a28.47 28.47 0 0 0 39.24-.09c5.27-5.28 7.94-12.55 7.94-21.63s-2.7-16.5-8-21.72a27 27 0 0 0 -19.61-7.81zm9.89 44a11.83 11.83 0 0 1 -9.95 5.14 11.2 11.2 0 0 1 -10.28-5.81c-2.07-3.51-3.12-8-3.12-13.35 0-13.42 4.51-20.23 13.41-20.23a11.61 11.61 0 0 1 10.09 5.44c2.29 3.37 3.44 8.05 3.44 13.91-.05 6.65-1.2 11.65-3.59 14.88zm36.21-28.25v-14.34h-18.31v8.73h5.31v47.7h13.23v-20c0-5.25.3-9.63 2-13.36 1.74-3.93 4.05-6.55 6.86-7.76a29.27 29.27 0 0 1 9.3-1.64v-14.58c-6.06 0-15.21 6.2-18.39 15.25z"/><path d="m319.91 9.92h4.79v67.71h13.4v-77.17h-18.19zm50.64-9.46v9.46h5.17v15.18a16.72 16.72 0 0 0 -12.19-5.43c-6.21 0-11.51 2.64-15.79 7.8s-6.49 12.53-6.49 21.72 2.18 16.5 6.48 21.72 9.59 7.8 15.79 7.8a17.08 17.08 0 0 0 12.19-5.4v4.19h13.45v-77h-18.61zm3.84 63.19c-2.21 3.42-5.16 5.14-8.76 5.14-4 0-7.07-1.95-9.06-5.79-1.84-3.51-2.76-8-2.76-13.35 0-13.42 4-20.23 11.82-20.23 3.73 0 6.72 1.82 8.88 5.44 2 3.37 3 8.05 3 13.91.05 6.65-1.02 11.65-3.11 14.88zm-136.57-51.13v-10h-21.58v10h6l-9.74 44-10.3-53.96v-.07h-17.54v10h6.88v.26l-9.32 43.85-10.56-44.08h6.46v-10h-25.12v10h5.28s16.59 63.67 16.9 64.72h10.82l10-44.24 9.79 44.27h11.68c.33-1.07 14.74-64.72 14.74-64.72h5.56z"/></svg>