<svg height="100" viewBox="0 0 193 100" width="193" xmlns="http://www.w3.org/2000/svg"><g fill="none"><g fill="#3d3935"><path d="m96.4566929 31.519685h17.8149611c.184597.0051876.36347-.0643741.496063-.1929133.128676-.1322369.197054-.311729.188976-.496063v-4.0590552c.008078-.184334-.0603-.3638261-.188976-.4960629-.132593-.1285393-.311466-.198101-.496063-.1929134h-11.909449c-.073771.0107131-.148271-.0140242-.200982-.0667353-.052711-.052711-.077448-.1272104-.066735-.2009813v-20.37401572c.010374-.18571433-.058876-.36705066-.190401-.49857524-.131525-.13152459-.312861-.20077521-.498575-.19040114h-4.9488191c-.1857143-.01037407-.3670506.05887655-.4985752.19040114-.1315246.13152458-.2007752.31286091-.1904012.49857524v25.38976382c-.0084922.1851544.0615615.3652924.1929134.496063.131836.1297139.3112298.1994782.496063.1929133z"/><path d="m127.724409 20.007874h-3.633858c-2.574803 0-4.543307.5354331-5.905512 1.6062992-1.362204 1.0708662-2.043307 2.5879265-2.043307 4.5511811 0 1.8635171.599738 3.2716536 1.799213 4.2244095s2.804462 1.4304462 4.814961 1.4330708c2.267716 0 3.912073-.6246719 4.93307-1.8740157.074804-.0984252.14567-.1377953.208662-.1141732.062992.023622.098425.1023622.098425.2283464v.7874016c-.010274.1849934.058455.3656541.189091.4970406.130635.1313866.310899.20115.495948.1919358h4.972441c.184598.0051875.363471-.0643742.496063-.1929134.128677-.1322368.197055-.311729.188977-.496063v-12.8307087c.003577-1.218242-.413637-2.4003473-1.181103-3.3464567-.859166-1.0561075-1.978586-1.8702313-3.248031-2.3622047-1.456308-.5896028-3.015614-.8827257-4.586614-.8622047-1.480482-.0150195-2.950265.2522138-4.330709.7874016-1.187454.441778-2.255222 1.1549714-3.11811 2.0826771-.760885.8174168-1.242082 1.8556442-1.374016 2.964567-.051181.3031496.153543.4842519.610236.535433l5.11811.6496063c.153712.0294191.312785-.004668.440945-.0944882.138088-.1141399.259948-.2465964.362205-.3937007.203278-.3550239.519156-.6321102.897638-.7874016.478285-.200123.993516-.2967289 1.511811-.2834646.682427-.0431341 1.356761.167157 1.893701.5905512.454006.4153489.699348 1.0113841.669291 1.6259843v.6496063c.00002.0702434-.031223.136852-.085248.1817459-.054024.0448938-.125227.0634155-.19428.0505375zm.267717 4.5511811c.021296.7684381-.32716 1.5004903-.937008 1.968504-.687047.5159938-1.531232.7788454-2.389764.7440944-.578649.0361043-1.150368-.1418574-1.606299-.5-.385018-.3356929-.59652-.8282328-.574803-1.3385826-.028385-.6035522.273135-1.1749337.787402-1.492126.684917-.369703 1.459219-.5414673 2.23622-.496063h2.220472c.073771-.0107131.148271.0140242.200982.0667352.052711.0527111.077448.1272105.066735.2009813z"/><path d="m140.38189 31.0787402c1.518416.5254353 3.117996.7773693 4.724409.7440944 2.650919 0 4.759843-.5419947 6.326772-1.6259842 1.538979-1.0164863 2.434811-2.7633588 2.362205-4.6062992.061222-1.2926794-.416339-2.5528698-1.318898-3.480315-1.043419-.9609787-2.29532-1.6671104-3.65748-2.0629921-1.036664-.2967113-2.087926-.5398157-3.149607-.7283465-.830157-.14582-1.647617-.3564378-2.444882-.6299212-.415603-.1230891-.701763-.5035703-.704724-.9370079.003832-.4398101.266041-.8362078.669291-1.011811.540616-.264753 1.138692-.3905926 1.740158-.3661418.656418-.0345155 1.308397.1257397 1.874016.46063.421996.2445305.683839.6934038.688976 1.1811023v.2283465c0 .1535433.228346.2283464.685039.2283464h4.551181c.174731.0082567.347813-.0370742.496063-.1299212.116019-.068703.188808-.1919998.192914-.3267717.017955-1.2365249-.363085-2.4459126-1.086614-3.4488189-.766376-1.0345318-1.804952-1.8359525-3-2.3149606-1.426681-.5740061-2.954617-.8538823-4.492126-.8228346-2.52231 0-4.555118.5800525-6.098426 1.7401574-1.508148 1.0924265-2.374378 2.863256-2.311023 4.7244095-.058362 1.2091499.366566 2.3918676 1.181102 3.2874016.867756.8858739 1.909219 1.5828636 3.059055 2.0472441 1.256924.5089929 2.564983.8812155 3.901575 1.1102362.742032.1119306 1.471261.2965456 2.177165.5511811.403087.1160893.682827.4821492.688977.9015748-.006703.4255325-.260338.8082899-.649606.9803149-.532972.2665172-1.125164.3925444-1.720473.3661418-.700736.0276831-1.395523-.1385209-2.007874-.480315-.465548-.2245049-.768625-.6882117-.787401-1.2047244v-.2559055c0-.1535433-.228347-.2283465-.688977-.2283465h-4.69685c-.185715-.010374-.367051.0588766-.498575.1904012-.131525.1315246-.200776.3128609-.190402.4985752v.1889764c-.012174 1.1348985.373698 2.2381873 1.090552 3.1181102.818537.9746841 1.888922 1.7059776 3.094488 2.1141733z"/><path d="m155.61811 16.8346457h1.862205c.073771-.0107132.14827.0140241.200981.0667352s.077449.1272104.066735.2009813v9.2755906c.023623 1.9370078.570867 3.2624671 1.641733 3.9763779s2.715223 1.0708662 4.933071 1.0708662c.482939 0 1.311023-.0249344 2.484252-.0748032.180449.003928.354113-.0687845.477933-.2001085.12382-.1313239.1862-.3089616.171673-.4888679v-4c.004361-.180897-.065582-.3556821-.193533-.4836328-.12795-.1279507-.302735-.1978934-.483632-.1935325h-1.181103c-1.181102 0-1.755905-.7244095-1.755905-2.1771654v-6.6929134c-.010426-.0729935.013831-.1466686.065581-.1991914.051751-.0525228.125058-.0778682.198198-.0685251h3.173229c.187977.0096689.370997-.0621792.502195-.197147.131197-.1349677.197833-.3199489.182844-.5075774v-3.7047244c.010374-.1857144-.058877-.3670507-.190401-.4985753-.131525-.1315246-.312861-.2007752-.498575-.1904011h-3.173229c-.07314.0093431-.146447-.0160023-.198198-.0685251-.05175-.0525228-.076007-.1261979-.065581-.1991914v-4.3307087c.010374-.18571433-.058877-.36705066-.190401-.49857525-.131525-.13152459-.312861-.2007752-.498576-.19040113h-4.704724c-.184334-.00807838-.363826.06029958-.496063.18897638-.128099.13420101-.196289.31461987-.188976.5v4.3307087c.010713.0737708-.014025.1482702-.066736.2009813-.052711.052711-.12721.0774483-.200981.0667352h-1.874016c-.185032-.0078846-.364895.0621685-.495851.193125-.130957.1309565-.20101.3108189-.193125.4958514v3.7047244c-.007885.1850325.062168.3648949.193125.4958514.130956.1309565.310819.2010096.495851.193125z"/><path d="m107.566929 54.6456693c.192535.0056103.380834-.0571561.531496-.1771654.141415-.1131865.2332-.2769885.255906-.4566929l2.090551-8.7637795c.055118-.1299213.122047-.1968504.200787-.1968504s.129922.0669291.157481.1968504l2.484252 8.8031496c.07287.3697083.411871.6256537.787401.5944882h5.366142c.37553.0311655.714531-.2247799.787401-.5944882l5.681103-18.988189c.088066-.1921045.07326-.4156748-.03937-.5944882-.14378-.1467289-.34698-.2193003-.551181-.1968504l-5.279528-.019685c-.193825-.0062061-.383563.0565748-.535433.1771654-.139849.114506-.231258.2776343-.255906.4566929l-2.562992 10.3818897c-.027559.1062992-.074803.1574804-.141732.1574804s-.122047-.0511812-.177165-.1574804l-2.586614-10.3622047c-.060136-.382495-.400889-.6568013-.787402-.6338583h-4.677165c-.192586-.0059544-.381001.0568505-.531496.1771654-.142735.1120613-.23485.2764496-.255906.4566929l-2.448819 10.2637795c-.027559.1062993-.07874.1574804-.15748.1574804s-.133858-.0511811-.15748-.1574804l-2.291339-10.3031496c-.021056-.1802433-.113171-.3446316-.255906-.4566929-.150661-.1200093-.338961-.1827757-.531496-.1771653h-5.2913382c-.4212599 0-.6299213.1732283-.6299213.515748-.0021764.0934068.0111268.1865294.0393701.2755905l5.6062994 19.0275591c.069555.3717726.410794.6294073.787401.5944882z"/><path d="m126.748031 40.7086614c-.296159 1.1575589-.441718 2.348494-.43307 3.5433071 0 2.8425197.723097 5.1850394 2.169291 7.0275591.900132 1.1665124 2.071996 2.0950828 3.413386 2.7047244 1.494631.6691427 3.118624.9998565 4.755905.9685039 1.496841.0117689 2.98279-.2552479 4.38189-.7874016 1.284686-.4681396 2.445448-1.2235777 3.393701-2.2086614.147035-.1319722.233787-.3182752.240157-.515748-.017422-.1935239-.102449-.3747286-.240157-.511811l-2.444882-2.8976378c-.109731-.1583277-.284425-.2593904-.476378-.2755906-.203517.009683-.391699.1110122-.511811.2755906-.51543.4452023-1.111513.7873483-1.755906 1.007874-.728801.2540394-1.495936.3805633-2.267716.3740157-.834845.0258916-1.662972-.1567834-2.409449-.531496-.619494-.3167512-1.108443-.8405248-1.38189-1.480315l-.23622-.7874016c-.034368-.0831618-.010404-.1790154.059055-.2362204.061239-.0499059.137544-.0776536.216535-.0787402h11.92126c.195996.0283566.393851-.0377033.533496-.1781239s.204608-.3386384.175166-.5344745c-.049869-.8661418-.128609-1.667979-.236221-2.4055118-.488189-2.9370079-1.547244-5.2217848-3.177165-6.8543307-1.629921-1.632546-3.754593-2.4488189-6.374016-2.4488189-2.120726-.0396887-4.19571.6187728-5.905512 1.8740157-1.668168 1.215383-2.871076 2.9641832-3.409449 4.9566929zm6.275591 1.3425197c.048883-.2033172.11473-.4021768.19685-.5944882.34797-1.1996066 1.477194-2.0008339 2.72441-1.9330709.646967-.0271953 1.284862.1596067 1.814961.5314961.485938.3766551.844599.8933476 1.027559 1.480315l.15748.515748c.025404.0715861.018211.1507038-.019685.2165354-.048632.0700779-.13176.1078635-.216536.0984252h-5.409448c-.18504 0-.275591-.0787401-.275591-.2362204z"/><path d="m154.811024 46.2755906h11.921259c.195997.0283566.393852-.0377033.533496-.1781239.139645-.1404206.204608-.3386385.175166-.5344746-.049869-.8661417-.128609-1.667979-.236221-2.4055118-.498687-2.9212598-1.557742-5.1981627-3.177165-6.8307086-1.619423-1.632546-3.744094-2.4488189-6.374016-2.4488189-2.120726-.0396887-4.19571.6187728-5.905512 1.8740157-1.662288 1.2179366-2.859433 2.9664337-3.3937 4.9566929-.297531 1.1573775-.444414 2.3483209-.437008 3.5433071 0 2.8425197.724409 5.1850394 2.173228 7.0275591.900132 1.1665124 2.071996 2.0950828 3.413386 2.7047244 1.494631.6691427 3.118624.9998565 4.755906.9685039 1.496785.0111275 2.982617-.2558683 4.381889-.7874016 1.284188-.4691359 2.444739-1.2244364 3.393701-2.2086614.145955-.13238.231321-.3187627.236221-.515748-.015691-.1931825-.099394-.3745378-.236221-.511811l-2.46063-2.8976378c-.110856-.157101-.284927-.257803-.476378-.2755906-.203674.0091155-.392087.1105687-.511811.2755906-.51543.4452023-1.111513.7873483-1.755905 1.007874-.730165.2540279-1.49859.380545-2.271654.3740157-.833553.0255663-1.660328-.1571088-2.405512-.531496-.619494-.3167512-1.108442-.8405248-1.381889-1.480315l-.236221-.7874016c-.034368-.0831618-.010404-.1790154.059055-.2362204.057508-.0590671.134391-.0954115.216536-.1023622zm-.196851-4.2244095c.047023-.2038429.112925-.4028647.196851-.5944882.347969-1.1996066 1.477193-2.0008339 2.724409-1.9330709.646968-.0271953 1.284862.1596067 1.814961.5314961.485938.3766551.844599.8933476 1.027559 1.480315l.15748.515748c.025404.0715861.018211.1507038-.019685.2165354-.049906.0707253-.134499.1084898-.220472.0984252h-5.405512c-.18504 0-.275591-.0787401-.275591-.2362204z"/><path d="m170.598425 54.6456693h5.11811c.191976.0103379.379297-.0614134.515241-.1973574.135945-.1359441.207696-.3232652.197358-.515241v-5.1141733c-.010676-.1304782.031931-.2597198.11811-.3582677l1.736221-2.523622c.044509-.0771377.127497-.1239126.216535-.1220473.090551 0 .149606.0551181.177165.1614174l3.472441 8.1299212c.124419.3478032.461766.573234.830709.5551181h5.326772c.421259 0 .633858-.1732283.633858-.515748l-.07874-.3149606-5.751969-12.0157481c-.076847-.125168-.060741-.2862287.03937-.3937008l4.893701-6.2992126c.101508-.1215076.157229-.2747426.15748-.4330708 0-.2913386-.19685-.4370079-.590551-.4370079h-5.842519c-.344607-.0127541-.671643.1522505-.866142.4370079l-4.106299 5.0511811c-.078741.1049869-.157481.1443569-.236221.1181102s-.11811-.1049869-.11811-.2362205v-12.9370078c.006898-.1899719-.066372-.374095-.201909-.507386-.135538-.1332909-.32086-.2034736-.51069-.1934014h-5.11811c-.19131-.0091825-.377561.0630796-.512618.1988867-.135056.135807-.206285.3224554-.196043.5137117v27.2401575c-.010242.1912562.060987.3779047.196043.5137117.135057.135807.321308.2080691.512618.1988867z"/><path d="m133.566929 58.0984252c-.085862-.3798392-.443746-.6342594-.830709-.5905512h-6.984251c-.384144-.0330851-.73574.216865-.830709.5905512l-8.287402 26.2559055c-.083867.1847734-.069068.3993552.03937.5708662.136645.1588417.342958.2398931.551181.2165354h5.56693c.375351.035184.716079-.2203621.787401-.5905512l.909449-3.2362205c.034065-.1445346.166669-.243988.314961-.2362204h8.921259c.073212-.0112223.147858.0074966.207111.0519363s.098124.1108593.10785.1842841l.909449 3.2362205c.071322.3701891.41205.6257352.787401.5905512h5.56693c.421259 0 .629921-.1692914.629921-.511811.006821-.093625-.006607-.1876207-.03937-.2755906zm-1.181102 17.8267717c-.048044.070778-.131619.1087664-.216536.0984251h-5.826771c-.065071.009351-.130743-.0125094-.177227-.0589937s-.068345-.1121565-.058994-.1772267v-.0787402l3-10.503937c.051181-.1299213.110236-.1968504.177166-.1968504.066929 0 .110236.0669291.137795.1968504l3 10.503937c.027722.0712767.020436.1514263-.019685.2165355z"/><path d="m171.062992 57.507874h-5.370079c-.192535-.0056103-.380834.0571561-.531496.1771654-.141831.1111284-.233848.2739291-.255905.4527559l-3.094488 13.9370078c-.027559.1062993-.074804.1574804-.137796.1574804s-.125984-.0511811-.177165-.1574804l-3.476378-13.9370078c-.056723-.383939-.400376-.6588615-.787402-.6299213h-4.681102c-.390801-.0414884-.742092.2395446-.787401.6299213l-3.196851 13.9370078c-.023622.1062993-.070866.1574804-.137795.1574804s-.122047-.0511811-.177165-.1574804l-3.314961-13.9370078c-.023679-.1782877-.115373-.3405161-.255906-.4527559-.150661-.1200093-.338961-.1827757-.531496-.1771654h-5.511811c-.42126 0-.629921.1850394-.629921.5511811-.005301.0807243.008175.1615788.03937.2362205l7.220473 26.2559055c.074601.3681273.41311.6220093.787401.5905512h4.893701c.182875.016352.364713-.0409662.505155-.1592328.140441-.1182666.227868-.2876978.242876-.4706885l3-14.8070866c.027559-.1299213.078741-.1968504.157481-.1968504s.133858.0669291.161417.1968504l3.314961 14.8070866c.021212.1791043.113401.3422081.255905.4527559.150662.1200093.338961.1827757.531496.1771654h5.251969c.386419.0269869.728906-.2470033.787401-.6299213l6.551181-26.2165354c.065266-.2011369.028547-.4214538-.098425-.5905512-.144126-.1436347-.344647-.2157643-.547244-.1968504z"/><path d="m191.645669 72.9645669c-.788418-.9713787-1.778435-1.7598999-2.901575-2.3110236-1.023622-.4724409-2.458005-1.0249344-4.303149-1.6574803-1.603675-.5249344-2.793963-.9527559-3.570866-1.2834646-.636488-.2398815-1.219693-.6023786-1.716536-1.0669291-.372131-.3853135-.571164-.9056423-.551181-1.4409449-.031136-.7004612.294954-1.3689458.866142-1.7755905.716432-.4592493 1.55992-.6797689 2.409449-.6299213 1.185473-.0608505 2.351749.3176283 3.27559 1.0629921.756048.5902655 1.205826 1.4898214 1.22441 2.4488189v.3543307c-.003653.1302146.075247.2485648.19685.2952756.160232.073737.335545.1087997.511811.1023622h5.011811c.191976.010338.379297-.0614133.515241-.1973574s.207696-.3232652.197358-.515241v-.3149606c.027451-1.6451558-.455295-3.2584364-1.38189-4.6181103-.957388-1.3728974-2.276556-2.4535801-3.811024-3.1220472-1.720796-.7569638-3.584887-1.1330053-5.464567-1.1023622-1.766071-.0308751-3.519407.3042426-5.149606.984252-1.4224.590129-2.650222 1.5682937-3.543307 2.8228346-.864016 1.2588542-1.311521 2.7569605-1.279528 4.2834646-.050958 1.5259675.421359 3.0234905 1.338583 4.2440945.868431 1.123391 1.975009 2.040385 3.240158 2.6850393 1.420418.7124156 2.893212 1.3152212 4.405511 1.8031496l.870079.2755906c1.197007.3358824 2.354544.799161 3.452756 1.3818897.614812.3399357.988474.9946031.968504 1.6968504-.006474.6731211-.310636 1.3088349-.830709 1.7362205-.551181.5013123-1.405512.7519685-2.562992.7519685-1.179395.0495662-2.34126-.2984387-3.299212-.988189-.853019-.6561679-1.279528-1.4068241-1.279528-2.2519685v-.4724409c-.003043-.1392063-.079391-.2664516-.200787-.3346457-.151453-.0995392-.330855-.1478398-.511811-.1377953h-5.011811c-.190729-.0094851-.376596.0620023-.511812.1968504-.134433.134141-.207149.3180695-.200787.5078741v.515748c-.029569 1.6032713.424545 3.1782653 1.30315 4.519685.911969 1.3388285 2.195652 2.3816493 3.692913 3 3.531045 1.3894134 7.456127 1.3964426 10.992126.0196851 1.473565-.5995622 2.746183-1.6059138 3.669291-2.9015748.880261-1.283304 1.336019-2.8102987 1.30315-4.3661418 0-1.7322834-.454068-3.1325459-1.362205-4.2007874z"/><rect height="13.259843" rx=".91" width="3.559055" x="102.133858" y="57.507874"/><path d="m118.153543 70.4055118v-12.5314961c.014852-.0988313-.018084-.1988459-.088752-.2695149-.070669-.0706689-.170684-.1036043-.269515-.0887528h-2.834646c-.098831-.0148515-.198846.0180839-.269515.0887528-.070669.070669-.103604.1706836-.088753.2695149l.019685 6.1023623c0 .0866141-.027559.1299212-.07874.1299212-.046662-.005687-.087713-.0335426-.110236-.0748031l-3.732284-6.2716536c-.084894-.1603194-.255981-.2558815-.437007-.2440945h-2.72441c-.099092-.0145034-.199241.0183852-.270442.0888123s-.105182.170211-.091763.2694554v12.5393701c-.013097.0995051.020828.199442.091796.2704096.070967.0709676.170904.1048929.270409.0917952h2.838583c.099505.0130977.199442-.0208276.270409-.0917952.070968-.0709676.104893-.1709045.091795-.2704096l-.03937-6.2322834c0-.0748032.023622-.1141733.06693-.1220473.043307-.007874.082677.0236221.122047.0866142l3.748031 6.3818898c.083778.1618467.255099.2590832.437008.2480315h2.728347c.099561.0113014.198645-.0248495.267537-.097611.068891-.0727616.099577-.1736718.082856-.2724678z"/></g><path d="m109.69685 81.6456693c-.149606-.4448819-1.996063-1.9685039-3.633858-.8425197-1.061366-1.9387193-2.42192-3.6978729-4.031496-5.2125984-3.2913385-2.9409449-7.6850393-4.4370079-8.2677165-4.7559055-.3816844-.2109301-.6371364-.594108-.6850393-1.0275591-.1771654-1.5748031-.0984252-5.9448819-.7874016-9.7047244-.1456693-.8267716-.1456693-1.6692913-.3149606-2.4409449-1.2401575-5.7480315-4.2716536-10.9685039-4.5-11.3897638-.0905512-.1692913-.1732284-.3307086-.2519686-.4921259-.1496104-.2962078-.2810862-.6012316-.3937007-.9133859-.1008337-.2926624-.1785008-.5927998-.2322835-.8976378-.0601647-.3251406-.0983092-.6539724-.1141732-.9842519 0-.1771654-.0196851-.3622048-.0196851-.5590551-.1134134-3.8060105-1.2577713-7.5098654-3.3110236-10.7165355-.5759054-.9246405-1.2110932-1.8110101-1.9015748-2.6535433-.6887479-.8429936-1.4234592-1.6473644-2.2007874-2.4094488-.0905512-.0905512-.1850394-.1771654-.2795276-.2637795-1.0511811-.9527559-2.3307086-1.7716536-3.2322834-2.8464567-.1631463-.1958571-.3130836-.4023497-.4488189-.6181103-.1353893-.2156059-.252592-.44211-.3503937-.6771653-.3060152-.6738767-.6477066-1.3309755-1.0236221-1.968504-.0551181-.1023622-.1141732-.2047244-.1732283-.3031496l-.5826772-1.0708661-.1141732-.2007874c-.0695166-.1165683-.1313285-.2375618-.1850394-.3622047-.0422497-.1483903-.0608506-.3025117-.0551181-.4566929 0-.0748032 0-.1535434 0-.2283465.0060041-.0773114.0060041-.154972 0-.2322835-.0629921-.3346456-.1259842-.6535433-.1850394-.9606299-.4007235-2.2283259-1.0614043-4.4019658-1.9685039-6.47637794-3.3385827-7.74409449-8.1102362-8.01181102-12.3937008-8.46062992-4.2834645-.4488189-15.9606299 2.26771653-19.8464567 4.08267716-4.2047244 1.96850394-6.9291338 5.1181102-7.5748031 6.4448819-.662338 1.4660278-1.1575807 3.0019404-1.476378 4.5787402-.0748031.3700787-.1417323.7519685-.2007874 1.1377952v.0196851c-.0551181.3937008-.1023622.7874015-.1299212 1.1811023-.1002454 1.5828083-.0646823 3.1712955.1062992 4.7480315.0708661.6811024.1496063 1.2834646.2204724 1.7519685 0 .1181103.0354331.2244095.0511811.3267717l.0787402.492126c0 .0629921.007874.1141732.023622.1535433.2489513 1.3470672.3217396 2.7207814.2165355 4.0866141 0 .1850394-.0433071.3622048-.0748032.5354331-.1979405.9665134-.6006816 1.8793933-1.1811024 2.6771654-.0944881.1456693-.1929133.2913386-.2992126.4409449-.8693411 1.2409229-1.658356 2.5362222-2.3622047 3.8779527-.7098626 1.3424629-1.3051513 2.7424449-1.7795275 4.1850394-.0708662.2125984-.1377953.4291338-.2007874.6496063-.9374514 3.0405134-1.1158787 6.2643694-.5196851 9.3897638.0433071.2204724.0944882.4409448.1496063.6614173.2007874.7874016-1.7677165 4-2.9370079 9.6259842-.6496063 3.1141733-.2244094 4.8622048.2992126 7.7007874-.0262663.7736814-.6230052 1.4075057-1.3937007 1.480315-2.1732284.2165354-6.4094489.7519685-8.6614174 1.7598425-.62204721.2795276-4.06299209 1.968504-6.015748 5.0669291-.25984252-.0866141-.45669291-.1496062-.51574803-.1614173-.74015748.0393701-1.22440945.7007874-1.61417323 1.1062992-.54715653.4955609-.88853813 1.1783241-.95669291 1.9133859-.0472441.3937008.52755905 5.4251968 2.96062992 8.1299212 1.63920974 1.7490283 3.50324496 3.2728241 5.54330709 4.5314961 1.77788906 1.2823651 3.73269936 2.2995561 5.80314956 3.019685 1.0107994.2447454 2.0347855.4314027 3.0669292.5590551.3425197.0354331.6889764.0629922 1.035433.0748032 1.5748032.0551181 3.2637796.2283465 4.7913386-.1220472 2.3622048-.5393701 6.8346457-1.3976378 9.0118111-2.468504.4488189-.2204724 8.535433 1.8779528 10.6496063 2.2244095 4.239413.6929042 8.5409107.9291632 12.8307086.7047244.8858268-.0433071 1.9330709-.1653544 3.0629921-.3385827.3779528-.0551181.7637796-.1181102 1.1574804-.1889764l.5984252-.1023622c3.6023622-.6496063 7.6811023-1.6496063 10.3622047-2.3425197l.5393701-.1417323.5787401-.1535433.7559055-.2007874c.1756053-.047729.3546056-.0819496.5354331-.1023622.1790806-.0196522.359257-.0275432.5393701-.023622.3630412.0097872.7226122.073475 1.0669291.1889764.488189.1614173 1.1220473.3700787 1.8582677.6062992l.9251969.2992126 1.007874.3149606.527559.1653543 1.0905512.3346457c1.8543307.5590551 3.8582677 1.1299213 5.6417323 1.5748032 1.4162447.3898756 2.866331.6442999 4.3307087.7598425h.7874015c.8068453-.0086911 1.6125699-.0625814 2.4133859-.1614174.7951725-.1017734 1.5838649-.248996 2.3622047-.4409448 1.2936043-.3188537 2.545046-.7893007 3.7283464-1.4015748.534617-.2829673 1.051339-.5985227 1.547244-.9448819.334646-.2322835.65748-.476378.968504-.7401575l.11811-.0944882c3.271654-2.7795276 7.397638-9.2677165 6.035433-13.3070866z" fill="#e9ec6b"/><path d="m15.1181102 72.3622047c1.453517-.2974611 2.9336867-.4452142 4.4173229-.4409449-.7252921-4.0947863-.4839718-8.3023889.7047244-12.2874015.7047244-2.2204725 1.9055118-4.2637796 2.4370079-6.5433071.027559-.1141732.047244-.1929134.0629921-.2480315.015748-.0551181 0-.0748032 0-.1220473.0203325-.4226985.0111237-.8463009-.0275591-1.2677165 0-.0433071-.1023622-.6653543-.1023622-.6771653-.1220472-.7874016-.2559055-1.6299213-.3031496-2.4488189-.2716535-4.6102363 1.968504-8.8661418 3.9370079-12.9055119-2.9523596 1.1305927-5.8341837 2.4374053-8.6299213 3.9133859-3.2447259 1.6887225-6.2196601 3.8515872-8.82677163 6.4173228-.22834645.2322835-.45669291.4685039-.68110236.7086614-2.36220472 2.5236221-4.36220472 5.7007874-4.26771653 9.1535433.07086614 2.6181103 1.33858267 5.0551181 2.81496063 7.2244095 2.21259842 3.2440945 4.94488189 6.1023622 7.74015749 8.8700787.1929134.1968504.4370079.4173229.7244094.6535433z" fill="#4298b5"/><path d="m48.6692913 13.5433071c-3.3031496 1.6338583-3.3346456 2.8976378-3.7677165 5.9055118s-.8661417 5.3149606-2.6456693 6.7992126c-1.7795275 1.484252-3.9370079 3.5748031-1.9212598 7.3976378 1.3346456 2.5314961 4.4881889 2.9685039 6.9094488 1.7874016.4200365-.1980228.8044767-.4640714 1.1377953-.7874016.496063-.503937.5748031-1.1259843 1.3779527-1.2677165.3802349-.0439679.7635931-.054507 1.1456693-.0314961.8096856-.0146652 1.6157354-.1122883 2.4055118-.2913386 1.7874016-.3543307 3.6299213-.8188976 5.0472441-1.9685039.3937008-.3070866.7165354-.6574803 1.1181103-.9330709.5417144-.3775077 1.1701396-.6118128 1.8267716-.6811024.5708661-.0629921.996063.2047245 1.5551181.2440945 1.1811024.0826772 2.488189-.0551181 3.3582677-.9370078 2.2598426-2.3031496 2.6456693-5.8503937.5275591-7.96063-2.1181102-2.1102362-8.7795276-2.1102362-11.2913386-4.8897637-2.511811-2.7795276-6.7834646-2.3858268-6.7834646-2.3858268z" fill="#4298b5"/><path d="m11.9015748 68.4488189c1.2598425 1.3503937 3.011811 4.0590551 5.0787402 3.8622047 3.7637795-.3622047 8.003937-1.3818897 11.7007874-.2874016 1.543307.456693 2.9763779 1.2007874 4.4803149 1.7598426 1.3543307.5 3.2992126 1.1377952 4.7007874.515748s1.8818898-2.2598425 1.968504-3.7401575c.1520952-2.0016585-.1479602-4.0118949-.8779528-5.8818897-.8149606-2.1811024 1.4330709-2.4409449 1.1811024-4.1929134s-1.1811024-2.0275591-1.2086614-2.2401575c-.0669292-1.8503937-1.2125985-3.1496063-.7874016-4.9330709.3464567-1.4173228.8897638-2.6299212-.976378-2.8149606-2.3315654-.313456-4.0496724-2.3374574-3.9803149-4.6889764.1338582-1.992126 1.6574803-3.7125984 3.5-4.492126 1.8425196-.7795275 3.9370078-.7480315 5.9055118-.3582677 1.9685039.3897638 3.8425197 1.1141732 5.7598425 1.6889764 2.6220472.7874016 4.7637795.2795276 7.6181102.507874 3.1496063-.5354331 6.4370079-2.0433071 8.6614174-4.3307087 2.4566929-2.5551181 4.5-5.8779527 7.8976377-6.9173228.561604-.1993722 1.1656196-.2482363 1.7519686-.1417323.7874015.1850394 1.1417322.7559055 1.4488188 1.4291339.7812411 1.7016886 1.0847327 3.5838811.8779528 5.4448819-.3700787 3.3385827-2.3622047 6.2992126-4.5787402 8.8031496-4.7007874 5.3070866-11.023622 9.4488189-18.0826771 10.3503937-1.5236221.1968504-3.1181103.2401575-4.5590551-.2913386-1.7451984-.663941-3.0957914-2.0825703-3.6732284-3.8582677-1.031496-3.1496063 1.7637795-8.8622047-4.1692913-4.5511811-.6614173.4803149-.5196851 4.1732283-.4330709 5.4055118.1149644 1.3165581.5268589 2.5899314 1.2047244 3.7244094 1.1338583 2.0236221 2.1062992 2.6889764 4.0669292 3.9370079 1.935436 1.2684116 4.2244987 1.8875617 6.535433 1.7677166 1.3861892-.0250764 2.764014-.2207751 4.1023622-.5826772 1.0984252-.3425197 1.1811024-.5984252 2.3622048-.5905512 1.3385826 0 2.7913385 1.9685039 4.1141732 2.1968504 1.7086614.2795276 1.996063 1.0905512 3.6102362 1.6968504 1.1023622.3937008 2.5511811-.3110236 3.5984252.2322835 1.2789791.7460443 2.4555108 1.6552426 3.5 2.7047244.8346457.8779527 2.1456693 1.0984252 3.3582677 1.1496063 4.1299213.1732283 8.3385827-1.0157481 12.3582677-.0590552.614302.1870866 1.2441085.3188453 1.8818898.3937008.5866142.0275591 1.3307087-.9527559 1.2992126-1.2362204-.1771654-1.5748032-.0984252-5.9448819-.7874016-9.7047244-.1456693-.8267717-.1456693-1.6692914-.3149606-2.4409449-1.2401575-5.7480315-4.2716536-10.968504-4.5-11.3897638-.6815097-1.1652986-1.0263208-2.4968417-.996063-3.8464567-.1134135-3.8060104-1.2577713-7.5098654-3.3110236-10.7165354-1.1614742-1.844636-2.5386388-3.5442844-4.1023622-5.0629922-1.4566929-1.4291338-3.5433071-2.4921259-4.3307087-4.4055118-.4566929-1.1181102-2.027559-3.6417323-2.1102362-3.9055118-.0461031-.3037442-.0724054-.610165-.0787402-.9173228-.0629921-.3346457-.1259842-.6535433-.1850393-.9606299-.5353684-.5695166-1.1671195-1.0399979-1.8661418-1.3897638-.7068138-.3479033-1.5172931-.4222206-2.2755905-.2086614-1.7480315.5629921-2.5393701 2.8740157-1.0393701 4.1417322.4063129.2845368.8434677.5222645 1.3031496.7086615 1.1811024.6181102 2.4488189 1.6062992 2.8464567 2.9330708.2011186.7777082.1792889 1.5963206-.0629921 2.3622048-.4952204 1.7515149-1.6381104 3.2490949-3.1968504 4.1889763-1.2668828.6983198-2.6681271 1.1184247-4.1102362 1.2322835-.7283465.0826772-1.46063.1102362-2.1929134.1377953-.7242821-.1035565-1.4364555-.2789621-2.1259843-.5236221-.0590551.0393701-.1220472.0708662-.1771653.1102362-.3937008.2755906-.7401575.6259843-1.1181103.9330709-1.4173228 1.1456693-3.2598425 1.6102362-5.0472441 1.9685039-.7897764.1790503-1.5958262.2766734-2.4055118.2913386-.3820762-.0230108-.7654344-.0124718-1.1456693.0314961-.7874015.1417323-.8818897.7637795-1.3779527 1.2677165-.3371684.3170473-.7242342.5764213-1.1456693.7677166-2.4251969 1.1811023-5.5787402.7401574-6.9173228-1.7992126 1.0140495 1.4405904 2.677295 2.2835661 4.4386712 2.2496327 1.7613761-.0339333 3.3909193-.9403452 4.3487303-2.4189241 0 0 2.5433071-3.5 5.1771654-4.4763779 2.6338583-.976378 6.3582677.2716535 6.3582677.2677165 1.8478435.8494967 4.0193417.562074 5.5825439-.7389136 1.5632023-1.3009877 2.2401407-3.3841994 1.7402907-5.3555746-.22812 1.7365688-1.2640923 3.2629467-2.7937024 4.1161775-1.52961.8532308-3.3726346.9327841-4.9700771.2145312 0 0-3.8307086-1.3188977-6.6299212-.2795276s-5.3976378 4.6417323-5.4015748 4.6377953c-.8423261 1.3107281-2.2000406 2.2037316-3.7371952 2.4580485s-3.1101372-.1538128-4.329734-1.1234028c-.5579083-1.0928615-.7139838-2.3470389-.4409449-3.5433071.1512921-.5348682.3936892-1.03964.7165355-1.492126.2716535-.3937008 1-.8622047.6417323-1.3700787-.1692914-.2440945-.464567-.3228347-.6417323-.5551182-.0708662-.0905511-3.7244095-4.8818897-5.4566929-7.2086614-.5433105-.8048702-1.1951326-1.5308835-1.9370079-2.1574803-.8858268-.6850394-2.2086614-1.1811023-3.2913386-.6377953l-.1259843.0669292c-.150277.0921297-.2890492.2018258-.4133858.3267716-.1610467.771639-.2728212 1.5527453-.3346456 2.3385827-.1260319 2.5035987.0351234 5.0133948.4803149 7.480315.2506089 1.3481819.3247219 2.7232431.2204725 4.0905511-.1574804 1.488189-.7007874 2.452756-1.5393701 3.6535434-1.7764656 2.4675661-3.177506 5.1847352-4.1574803 8.0629921-1.1377953 3.4291338-1.468504 7.1889764-.6023622 10.7007874.2007874.7874016-1.7677166 4-2.9370079 9.6259842-.4240216 1.9708901-.4240216 4.0094249 0 5.980315-4.2362205-4.1141732-12.17322836-12.5551181-12.87007876-13.3858268-2.00787401-2.3425197-.75984252-5.4370079-.33464567-6.527559.05118111-.1377953.11023622-.2716536.16929134-.3937008-1.63779527 2.1653543-2.83070866 4.6732283-2.75590551 7.3464567.07086614 2.6062992 1.33070866 5.031496 2.80314961 7.1889764 1.38799516 2.0039977 2.92516349 3.9004528 4.59842519 5.6732283zm97.7952752 13.1968504c-.149606-.4448819-1.996063-1.9685039-3.633858-.8425197-.257912.2355457-.50115.4866724-.728346.7519685-.098096.1192926-.246157.1860898-.400507.1806875-.154351-.0054023-.29738-.0823876-.386895-.2082465-.437008-.5708662-1.181102-1.3740158-1.838583-1.2047245-.826771.2204725-1.625984 1.3031497-2.062992 1.968504-.065422.1038704-.181941.1641939-.304524.1576562-.122582-.0065377-.232024-.0789125-.286027-.1891523-.2716534-.515748-.7677164-1.1811023-1.5118109-1.0826771-1.2165354.1299212-1.6181102 2.3622047-2.2047244 3.3661417-.2795276.4724409-1.3937008.523622-1.7322835.3622047-.4448819-.2086614-1.6299212-.3425197-1.8543307.2795276-.482765 1.0584461-1.0270007 2.0877615-1.6299213 3.0826771-.0747982.1279249-.2028705.215711-.3491635.2393312-.1462929.0236203-.2954849-.0193992-.406742-.1172839-.3055598-.2976256-.715179-.4642983-1.1417323-.4645669-.2992125.027559-1.1574803.507874-1.1181102 1.1456692.0092514.1529523-.0013353.3064588-.0314961.456693-.1023148.5128134-.5734361.8670017-1.0944881.8228346-1.3975775-.0625523-2.7808451-.3087607-4.1141733-.7322835-1.3005964-.5215718-2.5140263-1.2384779-3.5984252-2.1259842-1.2047244-.9330709-2.4094488-1.9133858-3.2559055-3.1811024-.8464567-1.2677165-1.3110236-2.8700787-.8937008-4.3307086.2736532-.8403615.7324353-1.6085861 1.3425197-2.2480315.2126128-.2109493.3906501-.4540898.5275591-.7204725.511811-1.1811023-1.3031496-1.3897638-2.0629921-1.4055118-1.1870517-.0084658-2.3462377.3595517-3.3110237 1.0511811-2.6968504 1.9212599-2.9094488 5.511811-4.4291338 8.2047244-1.6338583 2.8976378-5.2125985 4.1220473-8.2677166 4.8070866-3.8798539.8692945-7.9184874.7214735-11.7244094-.4291338-1.2107795-.3660545-2.3861307-.8404116-3.511811-1.4173229-1.9173229-.9842519-3.9173229-2.2913385-6.0433071-1.9251968-1.5984252.2716535-2.8622047 1.4370079-4.1692914 2.3897638-2.7927524 1.9594147-6.0509445 3.15137-9.4488189 3.4566929-1.3779527.1496063-2.7874015.2637795-4.1377952-.0944882-.2519685-.0629921-.5511811-.1574803-.3740158-.3464567.8700788-.9212598.2125984-1.0354331.0629921-1.9370079-.0748031-.4527559-2.3149606.0551181-2.5629921-1.1811023-.1338583-.6614174.1299213-1.9370079-.2519685-2.492126-.5944882-.8622047-1.4409449-1.6417323-2.4803149-1.7795276-.025884-.7088471-.0127408-1.4185815.03937-2.1259842.0415685-.4179135-.0463974-.8385003-.2519685-1.2047244-.4003945-.5302782-1.0837117-.7627309-1.7244094-.5866142-.3425197.0787401-1.3937008.9448819-1.6574803 1.0905512 0 0-1.03937012-1.6377953-1.76377957-2.0984252-.34645669-.2204725-.93700787-.0629921-1.38976377.1181102-.42503767.1761761-.89996224.1901857-1.33464567.0393701-.78740158-.2834646-1.996063-.7047244-2.16141733-.7362205-.74015748.0393701-1.22440945.7007874-1.61417323 1.1062992-.54715653.4955609-.88853813 1.1783241-.95669291 1.9133859-.04724409.3937007.52755906 5.4251968 2.96062992 8.1299212 4.04330709 4.5354331 10.89370076 7.4566929 11.35039366 7.5629921 1.344753.3384704 2.7181645.550677 4.1023622.6338583 1.5748032.0551181 3.2637796.2283465 4.7913386-.1220472 2.3622048-.5393701 6.8346457-1.3976378 9.0118111-2.468504.4488189-.2204724 8.535433 1.8779528 10.6496063 2.2244095 4.239413.6929042 8.5409107.9291632 12.8307086.7047244 4.7244095-.2440945 13.9173228-2.6220473 17.0551181-3.4685039.7045592-.1901807 1.4495685-.1682687 2.1417323.0629921 3.1220473 1.035433 12.2362205 3.9803149 15.3858268 4.0472441 4.2755905.0866141 8.7125985-1 11.9527555-3.7834646 3.240158-2.7834646 7.366142-9.2677165 6.003937-13.3070866z" fill="#3d3935" opacity=".13"/><path d="m66.9566929 63.6574803s5.4094488-.8503937 6.9448819-2.5551181c.9809079-1.0474004 1.790104-2.2432568 2.3976378-3.5433071.3455086-.7908839.6029627-1.6173776.7677165-2.4645669.1692914-.8346457.1377953-1.6535433.4448819-2.4606299.1496063-.3937008.3425197-1.2913386.9566929-1.0905512.2278894.1040426.3969942.3049448.46063.5472441l.3425196.9015748c.0236221.0629921.3937008.996063.3937008 1.007874l-1.535433.8503937 1.3543307 4.992126h-2.1141733s.1181103 3.5866142-.6220472 3.8149606c-.7401575.2283465-2.6181102-.3425197-2.6181102-.3425197s-.5669292 2.7795276-1.6496063 2.8937008c-1.0826772.1141732-1.9370079-1.2480315-1.9370079-1.2480315s-1.7637795.9094488-2.6181102.8503937c-.8543308-.0590551-.968504-2.1535433-.968504-2.1535433z" fill="#dc6b2f"/><path d="m43.5551181 47.6574803s-3.5433071 1.2047244-2.503937 6.1338583c1.0393701 4.9291338 4.6377953 8.3661417 6.8464567 9.2834645 1.1649715.5120644 2.3820692.8962025 3.6299213 1.1456693 0 0-1.8543308 2.0590552-3.6299213 1.996063-1.7755906-.0629921-1.8346457-2.1141732-4.3307087-2.1102362s-3.3188976-2.007874-3.4409448-3.1062992c-.1220473-1.0984252-1-3.7952756-1.968504-4.2874016-.9685039-.492126.4527559-2.8149606.4527559-2.8149606s-1.2952756-2.7795276-1.4448819-3.4015748c-.1496063-.6220473-.4881889-2.7244095 1.503937-3.1771654 1.992126-.4527559 2.3149607-2.6889763 3.7165355-1.7716535s1.1692913 2.1102362 1.1692913 2.1102362z" fill="#dc6b2f"/><path d="m109.728346 80.7086614c.610237 1.2913386.787402 9.7559055-4.165354 13.2007874-5.6023621 3.8976378-12.3188975 5.011811-14.9015747 4.3070866-2.5826771-.7047244-3.6102362-5.6850393-2.5472441-9.1102362 1.0629922-3.4251968 2.8700788.0472441 2.8700788.0472441l2.5866141-4.3818898 2.7755906-.1929133 2.2047244-3.3661418 2.1732279 1.7716536 1.992126-2.6692914 2.618111 1.2322835 2.283464-1.8582677z" fill="#dc6b2f"/><path d="m13.3464567 96.6220472s-2.5787402-.6692913-6.65354331-4.8897637c-4.07480315-4.2204725-5.48031496-6.980315-5.75590552-9.0196851-.27559055-2.0393701 1.52362205-5.1929134 3.08661418-4.2992126 1.56299212.8937008 1.57480315 1.1811024 2.85826771.8346457 1.22919447-.2277064 2.48741966.2091565 3.31102364 1.1496063.4803149.6929134 2.4409449.8385827 3.1496063.511811.7086614-.3267716.9212598 3.007874.9212598 3.007874l2.480315 1.7795276s-.7677165 3.3779527.3937008 3.3779527 2.6811023-.3188976 2.527559.964567c-.1535433 1.2834645-.9842519 6.1968504-6.3188976 6.5826771z" fill="#dc6b2f"/><path d="m111.259843 82.476378c-.314961-1.6141733-1.102363-2.8346457-2.1063-3.2637796-.910787-.3799217-1.935669-.3799217-2.846456 0-.933071-1.2244094-2.53937-3.2755905-3.074804-3.8818897l-.3937-.46063c-1.492126-1.7086614-2.574803-2.9448818-4.5511814-3.9685039-1.3134269-.668768-2.7142353-1.1498403-4.1614173-1.4291339.0621249-.2215091.1120685-.4462553.1496063-.6732283.5330538-3.4801927.4557833-7.0266424-.2283465-10.480315-.7047244-3.2795275-2.2598425-6.1692913-3.7637795-8.9685039-.8307087-1.5433071-1.6141733-3-2.2559055-4.507874-.0711735-.1702941-.1554143-.3348269-.2519685-.492126v-.019685c0-.2677166 0-.5984252-.0314961-.9055118l-.0393701-.5039371c-.0629921-.7559055-.1259842-1.535433-.2598425-2.3346456-.7598425-4.5669292-2.2519685-8.1102362-4.8385827-11.488189-1.8711253-2.5458172-4.1201615-4.7908705-6.6692913-6.6574803-.0551181-.1692914-.1181103-.3346457-.1889764-.5-.3740012-.9474107-.8422312-1.8548538-1.3976378-2.7086614-.1552762-.2323842-.3235218-.4558354-.503937-.6692914v-.019685c-.0238547-1.5077769-.2314223-3.0070236-.6181102-4.4645669-.1299213-.5039371-.2559056-1-.3740158-1.484252-.9448819-3.80708663-1.7598425-7.08661418-5.2716535-9.87795277-2.5511811-2.02755905-6.492126-2.35433071-9.6614174-2.61811023l-.511811-.03937008c-.4566929-.03937008-.9685039-.05905512-1.527559-.05905512-3.5866142 0-8.7598426.81496063-11.1614174 1.54724409-4.0147574 1.17628085-7.8623311 2.86190979-11.4488189 5.01574804-1.507874.88188976-3.6299212 3.01181102-4.7677165 5.37007877-.7277431 1.5768682-1.1804625 3.266577-1.3385827 4.996063-.0784053 1.4802905.0100783 2.9647027.2637796 4.4251968.023622.1771654.0472441.3228347.0629921.4409449.1098212 1.2331129.3975825 2.4438322.8543307 3.5944882-.0393701.2834645-.0669291.5708661-.0787402.8543307-.0254522 1.0180409.0497158 2.0361067.2244095 3.0393701.0470633.3046071.1141376.6057838.2007874.9015748l-.0472441.1299212c-.4029271 1.0804937-.9314895 2.109869-1.5748032 3.0669292-3.5108233 1.2675783-6.930872 2.7737151-10.2362204 4.507874-3.3286607 1.7337673-6.3805173 3.9536612-9.05511814 6.5866142-.2480315.2480314-.48425197.4921259-.71259843.7362204-3.22047244 3.4448819-4.80708661 6.9448819-4.72440944 10.4015748.14566929 3.3622048 1.87007874 6.2637796 3.16929133 8.1653544 1.6968504 2.4921259 3.68503937 4.8110236 6.84251968 7.9921259-.9820207.398841-1.937977.8590675-2.86220472 1.3779528-1.82677165 1.0393701-3.87007874 2.2992126-4.91732283 4.0748031l-.02755906.0393701h-.0511811c-.13075085-.0145131-.26215264-.0223972-.39370079-.023622-.23622047 0-2.36220472.0944882-3.68110236 3.3385827-.57480315 1.4015748-.39370078 2.4409448-.22834645 3.4448818.16325052.9666004.48940617 1.8984737.96456692 2.7559056.57852605 1.0763755 1.23651872 2.108108 1.96850394 3.0866141.20472441.2913386.39370079.5669292.58661418.8307087.47244094.6889764 3.56692913 3.9370079 5.24803149 4.9685039 1.91338578 1.1811024 7.00787398 3.464567 8.85039368 3.7007874.9736899.1297827 1.9547146.19685 2.9370079.2007874 2.0748222-.028765 4.1359448-.3413775 6.1259842-.9291338 2.3863728-.6910231 4.7203858-1.5514766 6.984252-2.5748032 4.6023622 1.7834646 9.980315 2.8346457 16.4409449 3.2165355 3.039236.1833253 6.0876903.1491173 9.1220472-.1023622 5.5158584-.4468497 10.9291649-1.7457245 16.0472441-3.8503937.5905512.2440944 1.1811024.507874 1.6889764.7244094 1.1102362.484252 2.2598425.984252 3.4527559 1.3858268 1.968504.6614173 3.980315 1.1811023 5.6889764 1.5748031 2.0866142.496063 4.3346457.988189 6.6141732.988189.5353342.001659 1.0703261-.0272592 1.6023622-.0866142 5.622047-.6259842 10.755906-3.2125984 13.728346-6.9251968.924443-1.10969 1.662408-2.3622357 2.18504-3.7086614 1.15748-3.1889764 1.090551-5.46063.830709-6.8031496zm-17.4055123 13.8110236c-1.7989647.147904-3.6093206.0725276-5.3897638-.2244095-3.5731217-.5202963-7.0826888-1.4095626-10.4724409-2.6535433l-.1535433-.0551181c-1.9941204-.777905-3.9410169-1.671821-5.8307087-2.6771653-.492126-.2519685-.9173228-.472441-1.1811023-.5984252-.964567-.4330709-1.4330709-.484252-1.6220473-.1889764s.0472441.6889764.8228347 1.3543307c1.15255.9952569 2.3835846 1.8958213 3.6811023 2.6929134-.515748.1692913-.9291338.2913386-1.3031496.3937008-5.6232784 1.4374873-11.4007573 2.1844611-17.2047244 2.2244094-5.776378.1388418-11.5523679-.2923794-17.2440945-1.2874016h-.0787401c-2.3230863-.4890019-4.5925151-1.205039-6.7755906-2.1377952-.1439709-.0820001-.3147063-.1031755-.4743471-.0588308s-.2949942.1505447-.3760466.2950512c-.131458.3739262.0638097.7838124.4370079.9173229.3503937.1850393.9763779.4212598 1.6535433.6771653-2.496063.6574803-7.9370079 2.0826772-11.2480315 2.0826772h-.2401575c-2.8149606-.0629921-5.7440945-1.1811024-6.2992126-1.4015748-1.7837712-.8406102-3.5093975-1.7994376-5.16535432-2.8700788-3.42125984-2.5905511-4.81102362-4.527559-6.62992126-7.8740157-.01679053-.031721-.03126401-.0646153-.04330709-.0984252l-.11811023-.3188976c-.27769668-.6074204-.44564358-1.2592143-.496063-1.9251969-.03058088-1.0826475.45446445-2.1155603 1.30708662-2.7834646.1151376-.1044436.26221201-.1668808.41732283-.1771653.1151506.001076.22587156.0445234.31102363.1220472.06483794.0638397.11811999.1384345.15748031.2204725.05645912.1029956.12235872.200527.19685039.2913386.88582678 1.035433 2 1.1574803 2.97637796.3307086l.12992126-.1259842.10629921-.1062992c.10348514-.1030805.24883079-.152498.39370079-.1338583.17455325.0185322.33181568.1137554.42913386.2598425.11811023.1850394.24409448.4251969.36220472.6574803.10740041.2232058.22972495.4389179.36614173.6456693.58267717.7874016 1.07874019.8740158 1.96850389.7874016.1105855-.0202079.2162071-.0616543.3110237-.1220473.0839217-.0603438.1769624-.1068641.2755905-.1377952l.1732284-.0196851c.3503937-.0393701.492126-.0551181.6456693.3700788.0410004.1709873.069943.3446428.0866141.519685.0787402.6220473.1929134 1.480315.6535433 1.8818898.46063.4015748 1.1377953.4881889 1.7677166.5433071l.4212598.03937c.3188977.0393701.5236221.0826772.6377953.2874016.0681555.2221807.0527535.4616112-.0433071.6732284-.019685.0826771-.0433071.1614173-.0590551.2440944-.2834646 1.2677166.0590551 2.2755906.9566929 2.8425197.5905512.3700788 1.2244095.2598426 1.7834646.1614174l.1141732-.0236221c.0459962-.014727.0935689-.0239773.1417323-.027559.0433071.023622.0433071.023622.0787401.1259842.1889764.5826772-.2677165 1.7007874-.6220472 2.3110236-.1574803.2755906-.3937008.6535433-.1023622.8543307s.5511811-.1102362.7598425-.3346456c.2086614-.2244095 1.4133858-1.6062992 1.2283465-2.7559055-.0777445-.792081-.6730618-1.4356674-1.4566929-1.5748032-.1829458-.0239621-.3682354-.0239621-.5511811 0-.1742308.0435526-.3578626.0297457-.5236221-.0393701-.1929134-.1181102-.2480315-.3031496-.2007874-.6811023.0289058-.1570561.0792449-.3093982.1496063-.4527559.0876923-.1839543.1512119-.3784829.1889764-.5787402.2563803-1.1808924-.3429531-2.3811966-1.4409449-2.8858268-.1355963-.0657007-.2802312-.1108161-.4291339-.1338582l-.2007874-.0472441c-.531762-.1139815-.9101149-.5861001-.9055118-1.1299213v-.2007874c.0398631-.7204996-.0453867-1.4424592-.2519685-2.1338583-.1711329-.5468287-.5966937-.9767919-1.1417323-1.1535433-.6811023-.2559055-1.2874015.0433071-1.8228346.3070866-.1062992.0511811-.2086614.1062993-.3149606.1535434-.2577478.1767984-.6099635.1116385-.7874016-.1456693-.1262956-.1601341-.2333293-.3345593-.3188976-.5196851-.1672717-.3885207-.42672956-.7304104-.75590556-.996063-.69148371-.4851423-1.58394638-.5803384-2.36220473-.2519685-.37010712.1832169-.70157257.4358256-.97637795.7440945l-.04330709.0433071c-.08270732.0953196-.20037172.1532416-.32635347.1606523-.12598176.0074107-.24962554-.0363168-.34293786-.1212822-.07086615-.0511811-.13385827-.1023622-.1968504-.1535433l-.07874015-.0590551c.21653543-.1811024.46062992-.3503937.63779527-.476378l.11811024-.0866142c2.75590551-1.9685039 6.0590551-3.031496 8.9330709-3.8149606 2.4727682-.7084807 5.0017071-1.2037312 7.5590551-1.480315 1.2949977-.1288087 2.5976641-.1630202 3.8976378-.1023622 1.3206303-.0006778 2.6235543.3038318 3.8070866.8897638l.992126.5472441-.6102362-.9527559c-.5393701-.8425197-1.7401575-1.1535433-2.456693-1.3385827-2.1380228-.5560423-4.3380985-.8378319-6.5472441-.8385827-.2302099-.7077244-.4013989-1.4333024-.511811-2.1692913-.3937008-3.8503937.5748032-7.2283465 1.6141733-10.8031496v-.0275591c.1102362-.3740157.2204724-.7519685.3267716-1.1299212.1062992-.3779528.2007874-.7125984.2992126-1.0866142.0590551-.2244094.1259843-.4606299.2007874-.7007874h.0354331c.1687661.0023465.3278387-.0786627.4251968-.2165354.0940161-.1528915.1100796-.3412719.0433071-.507874v-.0433071c-.023622-.1023622-.0511811-.2047244-.0748031-.3031496l-.0275591-.1181103c.1338583-.3700787.2480315-.6732283.3582677-.9488189.0669292-.1574803.2637796-.6456693-.0826771-.8188976-.1889764-.0944882-.3937008 0-.6141733.2401575-.6732283-3.511811-.492126-6.4015748.5787402-9.3543307.5202746-1.656235 1.351368-3.1981671 2.4488189-4.5433071 1.7559055-2.1259843 2.8700787-5.2677166 3.3818897-6.9606299.219933-.1234355.334608-.3750833.2834646-.6220473-.0393701-.4527559-.0905512-.9094488-.1417323-1.3503937s-.1141732-.9803149-.1496063-1.4606299c-.1114689-1.1753445-.0969507-2.3592385.0433071-3.5314961.0364905-.1592411-.0419067-.3225685-.1889764-.3937008 0-.0905511 0-.1850393 0-.2755905s0-.2322835 0-.3464567c-.1653543-5.4330709-.3031496-10.1220472 4.7244095-13.77952756 2.8188976-2.04724409 8.519685-4.27165354 12.0748031-5.06692913 2.3094965-.44867214 4.6426701-.76545797 6.988189-.9488189 3.1259843-.27559055 5.6771654-.33858268 7-.16535433 5.0393701.6496063 7.6023622 4.18110236 8.6771654 6.23228346 1.0952112 2.07753896 1.8502019 4.31725616 2.2362204 6.63385826.1102363.5472441.2362205 1.1811024.3937008 1.8228347-.1357247-.0376639-.2812475-.0100146-.3937008.0748031-.0658742.0657331-.1028939.154971-.1028939.2480315s.0370197.1822984.1028939.2480315c.7249792.9196945 1.352986 1.9118397 1.8740158 2.9606299.2204724.4370079.4330709.8897638.6338583 1.3267717.2007874.4370078.3937007.8188976.5866141 1.2244094.0853359.2235718.29276.3772193.5314961.3937008.0495215.0001455.0987315-.0078345.1456693-.023622.0363287-.0122319.0707795-.0294573.1023622-.0511811 2.2035601 2.2985242 4.1811524 4.8034744 5.9055118 7.4803149l.1023622.1535433.0236221.0275591c1.1246461 1.7869121 2.1003779 3.6633195 2.9173228 5.6102362.0936996.2358004.1751727.4762774.2440945.7204724l.0787401.2637796c.3385827 1.0551181.6102363 2.1574803.8779528 3.2322834l.2125984.8464567c.1535433.6102362.2874016 1.1811024.4330709 1.8425197 0 .0984252.0354331.1889764.0511811.2913386s.019685.1062992.031496.1614173c-.0080427.1166595-.0080427.2337343 0 .3503937.1929134 1.8307087 1.2992126 4.2716536 2.2755906 6.4251969.3622047.7874015.7047244 1.5748031.9527559 2.1850393 1.2440945 3.1496063 1.6417323 5.3385827 2.1889764 8.3700788.3310328 1.6566792.4971978 3.3420679.496063 5.031496 0 .2322835-.0314961.5590552-.0708662.9409449-.0472441.464567-.1023622 1.0354331-.1062992 1.5511811l-.4842519-.0590551c-2.6080154-.289219-5.2415281-.260134-7.8425197.0866142-.4566929.0590551-1.5118111.2519685-1.4527559.7874016.031496.3149606.3937007.4527559 1.035433.3937007.46063-.035433.8897638-.0511811 1.3228347-.047244 1.7126818.0220666 3.4222027.1535682 5.1181102.3937007 2.0630549.2302269 4.0955952.6802894 6.0629921 1.3425197 1.9015748.6968504 3.1023622 1.6929134 4.7244093 3.1259843.157481.1417323.314961.2755905.480315.4173228.393701.3188976.767717.6496063 1.248032 1.1338583.338582.3385827 1.003937 1.1377953 1.649606 1.9133858.440945.5314961.893701 1.0826772 1.23622 1.4685039l-.090551.1377953c-.027674.0374241-.071566.0593702-.11811.0590551-.044004-.0009868-.084303-.0248675-.106299-.0629921-.226463-.40432-.517734-.7687412-.862205-1.0787401-.410603-.2671693-.907326-.368484-1.389764-.2834646h-.102362c-.710797.2085525-1.302742.7035037-1.633858 1.3661417-.082677.1377953-.196851.3346457-.330709.5905512-.015428.0315546-.035317.0607249-.059055.0866142-.031496 0-.153543-.0748032-.429134-.4488189l-.031496-.0393701c-.3062728-.4112474-.7559723-.6923096-1.2598424-.7874016-.6614641-.0845801-1.3263403.1288726-1.8149606.5826772-.5741097.5335902-.9908105 1.2144739-1.2047244 1.9685039l-.0196851.0748032c-.0905512.3031496-.1811024.6141732-.3937008.6850393-.1982489.0223656-.3982035-.0234574-.5669291-.1299212-.1014004-.0474042-.2052175-.0894568-.3110236-.1259843-1.488189-.5-2.8267717.8937008-3.3031496 2.0433071-.2616425.6948315-.4426184 1.4174138-.5393701 2.1535433-.0354331.2007874-.0787402.2401575-.0787402.2401575s-.0433071 0-.1574803-.0708661l-.1141732-.0708662c-.2498097-.1747732-.5263879-.3077435-.8188977-.3937008-.9448818-.2244094-1.6771653.7204725-1.9685039 1.6929134-.1731789.6877964-.2317075 1.3994506-.1732283 2.1062992.0156861.1585689.0393381.3162484.0708661.472441.0257601.2225479.2129877.3912215.4370079.3937008.2086614 0 .488189-.1614174.5826771-.6141733.1286168-.7425133.3344586-1.4695571.6141733-2.1692913.0131621-.0150787.0313473-.0248707.0511811-.0275591.0189085-.0014882.0370896.0076024.0472441.0236221.1421498.1584398.2961366.305846.4606299.4409449.5458153.414179 1.2554517.5455932 1.9133858.3543307.6440732-.2558836 1.1337834-.7950008 1.3267717-1.4606299l.035433-.0984252c.2563016-.7574818.569531-1.4944922.9370079-2.2047244.1275303-.1691285.3573021-.2236787.5472441-.1299213 1.2913386.6181102 1.7007874.519685 1.8346457.488189.8818897-.2125985 1.3543307-1.2677166 1.6692913-1.968504l.0275591-.0669291c.0393701-.0826772.0787401-.2047244.1259842-.3425197.0944882-.2834646.3149607-.9448819.5236221-1.015748 0 0 .03937 0 .1141732.0393701.1041655.0861169.1921546.190104.2598425.3070866l.0393701.0551181c.2917977.5188501.8027101.8777914 1.3897641.9763779.519481.0195796 1.019038-.2011549 1.35433-.5984252.301189-.3607344.556423-.7574701.759843-1.1811023.090551-.1692914.188976-.3464567.283464-.507874.053339-.089791.147717-.147303.251969-.1535433.104778-.0058594.205446.0415138.267717.1259842.251968.3228347.3937.5236221.488188.6062992.277925.2955353.651936.4825409 1.055119.5275591.681102.0748031 1.303149-.3031496 1.748031-1.0629922.270954-.3747513.656513-.6511379 1.098425-.7874015.250295-.066366.517042-.0219081.732284.1220472.464567.2952756.452756 1.2559055.444882 1.8267717v.0551181c-.010067.8245051-.101055 1.6460305-.271654 2.4527559-.511811 2.3858268-2.610236 4.6181102-3.811024 5.7401575-.471127.4331528-.965284.8405692-1.480314 1.2204724-2.775049 1.9822677-6.0146547 3.2149179-9.4055123 3.5787402zm-77.3188976-35.8149607c-.7007874-.5944881-1.3897638-1.2165354-2.0511811-1.8425196v-.0275591c.1732283-1.1338583.3543307-2.3070866.5787401-3.4488189.5236221.3385827 1.0590551.7007874 1.5984252 1.0787402v.027559c-.122169 1.4006553-.1642323 2.8071456-.1259842 4.2125984zm-3.6614174-10.1811023c-.1732283.7874016-.3188976 1.5748031-.4330708 2.3622047l-.0393701-.019685-.3937008-.2007874c-.4133858-.2007874-.8543307-.3937008-1.3031496-.5984252.0826772-.5393701.1850394-1.0905512.3110236-1.6338583 0-.0669291.0314961-.1338583.0472441-.2047244.0157481-.0708661 0-.0511811 0-.0748032l.1653544.0236221c.2480315.0433071.503937.0826772.7559055.1417323l.4724409.0905512zm-.3937007 5.7716535c.027559-.1496063.0590551-.3031496.0866141-.4527559l.3622048-1.8228346c.5629921.3464567 1.0551181.6574803 1.507874.9488189v.0590551c0 .0866142-.0196851.1732283-.0275591.2598425-.1424268 1.0890308-.2226095 2.1853-.2401575 3.2834646-.6417322-.6062992-1.2637795-1.2165355-1.7874015-1.7362205zm8.1496063-10.8700787c-.1013964 1.2094659-.0948087 2.4255618.019685 3.6338583-.1614173-.1062993-.3464567-.2204725-.5393701-.3267717-.3628842-.2081274-.7390183-.392249-1.1259842-.5511811.1850393-.7440945.3937008-1.496063.5669291-2.2362205l.1338583-.4370078.0472441-.1653544h.1417322l.6377953.0511811h.0984252zm-3.2007874.4763779c.043307-.1338582.0866141-.2637795.1259842-.3937007.0393701-.1299213.0590551-.1771654.0866142-.2677166h.2598425c.3543307 0 .7401575 0 1.1811024.0472441-.0551181.1535433-.1062992.3031496-.1574803.4566929-.2125985.6456693-.4251969 1.3464567-.6456693 2.1417323l-.6062993-.2047244c-.1889763-.0590551-.3937007-.1141732-.5787401-.1653543l-.1338583-.0354331c.1614173-.5511811.3149607-1.0669291.468504-1.5787402zm1.9133858-1.3622047c-.468504-.0590551-.9488189-.0944882-1.4212599-.1102362.1692914-.5314961.3503937-1.0708661.5393701-1.6102362.3937008-.0354331.7874016-.0708662 1.2165355-.0984252l.4133858-.0354331c-.2598425.5708661-.5 1.1771654-.7480315 1.8661417zm-6.2125984 8.6220473c.0787401-.3937008.1574803-.7874016.2559055-1.1811024.0748031-.3622047.1614173-.7283465.2440945-1.0787402l.035433-.1614173c.496063.1377953.992126.2913386 1.484252.4645669-.1220472.5393701-.2362205 1.0866142-.3543307 1.6456693-.0354331.2362205-.0787402.468504-.1181102.7047244-.0393701.2362205-.0590552.3661418-.0905512.5472441-.484252-.2952756-.980315-.5826771-1.476378-.8464567zm2.1968504-2.7559056c-.5039371-.1535433-1.0078741-.2834645-1.5-.3937007.1614173-.6771654.3464566-1.4015748.5708661-2.2244095.5472441.0826772 1.0787402.1811024 1.5748031.2874016-.2244094.7795275-.4488189 1.5590551-.6456692 2.3464567zm.5905511 1.0511811c.2086615.0787402.4409449.1692914.6732284.2677166l.7165354.3149606c-.2244094 1.2007874-.3937008 2.3858268-.5354331 3.5433071-.4566929-.3464567-.9527559-.6968504-1.519685-1.0669291.2047244-1.0275591.4251969-2.0511811.6653543-3.0433071zm1.5748032-.2795275v.0511811h-.0433071c-.1653543-.0787402-.3385827-.1614173-.511811-.2362205-.2440945-.0984252-.507874-.2007874-.7874016-.3070866-.0017824-.0196447-.0017824-.0394104 0-.0590551.1771654-.7401575.3937008-1.503937.6102362-2.3385827.4448819.1062992.8937008.2322835 1.3385827.3740158-.2125984.8149606-.3937008 1.6220472-.5708661 2.4015748-.0393701.035433-.0472441.0826771-.0551182.1299212zm-2.1377953-6.5787402c.1850394-.5511811.3700787-1.0669291.5669291-1.5748031.5-.0354331 1-.0708662 1.480315-.1141732l.5433071-.0433071h.0748031c-.2677165.5511811-.503937 1.0708661-.7204724 1.5748031-.6510269.0101825-1.3006979.0627874-1.9448819.1574803zm1.6220473.6496063c0 .0393701-.0314961.0826772-.0511811.1259843l-.1299213.3267716c-.1850394.484252-.3700787 1.003937-.5787402 1.6338583-.5433071-.1062992-1.0866141-.1889764-1.6259842-.2440945l.0708661-.2559055.1653544-.5905512c.1023622-.3228346.2007874-.6456693.3031496-.9685039h.1535433c.5708661-.0196851 1.1417323-.0314961 1.7047244-.0275591zm-3.9488189 4.6102363v.027559c-.2637796-.0433071-.5984252-.0905512-.9409449-.1141732-.3425197-.0236221-.5944882-.0433071-.8937008-.0551181.1988625-.7373544.4353933-1.4640298.7086614-2.1771654.4566929.0314961.9251969.0748032 1.3937008.1259843l.2559055.031496h.0826772c-.2165355.6929134-.4212599 1.4173229-.6062992 2.1614174zm8.0748031-6.5826772c-.1732114.4934051-.3049029 1.0004173-.3937008 1.515748h-.023622l-.0905512-.023622c-.2086614-.0433071-.4330709-.0866142-.6889764-.1299213.1417323-.5.2637795-.9133858.3937008-1.2992126.0472441-.1614173.0984252-.3228346.1496063-.484252l.0590551-.1850393.8385827-.0669292c-.0551181.1535433-.1102362.3149607-.1653543.476378zm-8.7559055 10.3740157v.0511811.0944882c-.0669291.503937-.1062992 1.0157481-.1456693 1.5157481l-.0354331.4763779c0 .2559055-.019685.511811-.027559.7677165-.5590551-.5406824-1.1102362-1.0866141-1.6535433-1.6377952 0-.3464567 0-.7874016.0551181-1.2637796.019685-.3110236.0511811-.6417322.0984252-1.035433l1.0551181.6377952zm6.3267716 8.7165355c-.6220472-.4291339-1.2047244-.8897638-1.6456692-1.2440945l-.1259843-.1141732-.0984252-.0826772c.1417323-1.3818898.3031496-2.7559055.484252-4.0433071l.0826771.0590551c.0590552.0393701.1220473.0826772.1811024.1299213.6220472.4685039 1.1811024.9015748 1.6496063 1.3228346-.0393701.7125984-.0551181 1.4527559-.0511811 2.2677166-.1771654.535433-.3385827 1.1062992-.476378 1.7047244zm-.4212598-10.9094489.0472441-.2362204c.1456693-.7047244.3110236-1.4606299.511811-2.3070866.5901416.2170992 1.1672222.4681752 1.7283465.7519685-.2165355.8976378-.3937008 1.7362204-.5629921 2.5669291-.0196851.1023622-.0354331.2047244-.0511811.3070866l-.0236221.1377953c-.5379162-.3850811-1.0993785-.7361594-1.6811024-1.0511811.0118111-.0551181.0236221-.1141732.0314961-.1692914zm3.5826772 2.8779528-.2047244-.2047244c-.1653544-.1614173-.3307087-.3307087-.503937-.496063l-.5078741-.3937008c.0472441-.2637795.0984252-.5472441.1614174-.8346457.0708661-.3937007.1496063-.7874015.2362204-1.2204724.2811235.9450134.6543028 1.8601597 1.1141733 2.7322835l-.2125985.4566929-.019685.0433071zm-7.6181103-8.3031496c-.1181102.3031496-.2401574.6338583-.3661417 1.003937h-.0708661c-.1417323 0-.2913386-.019685-.4370079-.019685h-.3700788c-.3031496 0-.5905511 0-.8661417 0 .2322835-.5629922.484252-1.1141733.7480315-1.6417323.5551181-.0314961 1.1181102-.0590551 1.6732284-.0826772-.1220473.2755906-.2204725.515748-.3110237.7401575zm5.8149607 10.8031496c.03937-.3228346.0905511-.6456693.1377952-.9606299.0314961-.1732284.0590552-.3503937.0826772-.5275591.0629921-.4409449.1377953-.9133858.2322835-1.4488189l.2677165.1811024c.1574803.1141732.3110236.2362205.4606299.3543307l.3031496.2362205.1771654.1338582c-.1535433.3267717-.3110236.6496063-.4645669.968504-.4251969.8858268-.9015748 1.8858268-1.3385827 2.9094488l-.0669292-.0984252v-.1141732-.1417323l.1850394-1.492126zm-2.0787402-.2716535c-.1929134-.1771654-.3937008-.3425197-.5590551-.484252.1889764-1.1811024.3937008-2.4055118.6535433-3.6456693l.2598425.1338583c.2105783.1019003.4155918.2149206.6141732.3385826l.2165355.1299213.2401575.1456693c.1259842.0748031.2559055.1496063.3937007.2322835-.2598425 1.5748031-.4370078 3.023622-.531496 4.4212598-.3978475-.4491455-.822508-.873806-1.2716536-1.2716535zm6.5708661-19.5c-.3425196.4330708-.6535433.8267716-.9645669 1.2283464-.8463024 1.0794476-1.5111717 2.2895097-1.9685039 3.5826772-.2874016 0-.5708662 0-.8425197 0 .1456693-.4212599.2755905-.7874016.3937008-1.1062992l-.0905512-.0433071c-.2125984.3622047-.4173228.7440945-.6181102 1.1574803-.2952756 0-.5866142.0275591-.8622048.0472441-.2755905.019685-.5590551.0551181-.8661417.0944882.0314961-.0826772.0590551-.1653543.0866142-.2519685l.1771653-.5-.0866141-.0433071c-.1614174.2755905-.3110237.5511811-.46063.8346457-.3937007.0590551-.7874015.1299212-1.1299212.2125984-.4291339.0944882-.8346457.2086614-1.2165355.3307086l.0354331-.0866141.1692914-.3937008-.2559056.3582677-.0748031.1181102-.0472441.0787402c-.2770984.0933235-.5491239.2010823-.8149606.3228346l-.2244095.1062993h.2480315l.472441-.0314961h.0708661c-.3299644.5318833-.6258348 1.0841748-.8858268 1.6535433-.6271418.1091104-1.2436289.2724532-1.8425196.488189.1574803-.3070866.2992125-.5669292.4409448-.8070866l.1811024-.3188977-.2598425.2598425c-.7912824.8080246-1.4467207 1.7386672-1.9409449 2.7559056-.5083171.0525407-1.0113707.1473571-1.50393701.2834645l-.36614174.1062992h.39370079 1.29921256c-.337323.7198092-.610048 1.4681561-.8149606 2.2362205-.42495795.0046245-.84687684.0722907-1.2519685.2007874l-.39370078.1299213.39370078-.0354331c.38198242-.0278272.7657927-.0172757 1.1456693.0314961v.0551181c0 .015748-.0275591.0984252-.0354331.1496063-.0697433.2748948-.1236379.5535691-.1614173.8346456 0 .0944882-.0275591.1889764-.0433071.2795276-.01574802.0905512-.04330707.2637795-.0590551.3937008-.46456693-.1850394-.86220473-.3267717-1.24015748-.4448819l-.37007874-.1181102.32283464.2007874 1.25984252.7874015v.0551181c-.04268503.4645768-.05583484.9313948-.03937008 1.3976378 0 .2322835 0 .472441.03149607.7086615l-1.18110237-1.1614174-.3031496-.2952756.22834645.3582678c.39370079.5944882.81889764 1.2165354 1.34251969 1.8937008.0898128.6158242.2213491 1.2248373.3937008 1.8228346l.1023622.3503937v-.3661417-.6062992c0-.1968504 0-.3937008 0-.5905512l.492126.5984252c.3346456.3937008.7047244.8149606 1.1259842 1.2677165v.0669291c-.0019643.0340925-.0019643.0682698 0 .1023622v.3937008l.0944882-.3937008c-.0017902-.0209592-.0017902-.0420329 0-.0629921.4488189.484252.9291339.9645669 1.4173229 1.4370079.1732283.1653543.3464566.3228346.5511811.507874v.1811024.3622047h.0984252c0-.1102362.031496-.2244095.0511811-.3346457v-.0669291l.7519685.6417323.3937007.3031496c.3543308.2874016.7244095.5787401 1.1181103.8385827v.1299212.2125984h.0984252c0-.0551181 0-.1141732.019685-.1732283.0196851-.0590551 0-.0511811 0-.0748032.5880484.4090762 1.2066681.7723508 1.8503937 1.0866142-.0905512.4291339-.1574803.8228347-.2086614 1.1811024-.0928771.7780781-.0928771 1.5644416 0 2.3425197-.2992126-.3031496-.5551181-.5511811-.7874016-.7874016l-3.5433071-3.5433071c-1.2716535-1.2598425-2.4133858-2.4251968-3.4842519-3.5669291l-.1023622-.1102363c-1.11526763-1.1667822-2.16666929-2.3929794-3.14960633-3.6732283l-.2007874-.2677165.11417322.3149606c.6389423 1.5829024 1.50498434 3.064325 2.57086615 4.3976378 1.02669526 1.3504411 2.14760106 2.6265898 3.35433066 3.8188976.5393701.5551181 1.1220473 1.0866142 1.6850394 1.5984252l.3700788.3307087c.5590551.484252 1.1377952.984252 1.7244094 1.4527559s1.1456693.8779528 1.6811024 1.2716535c.1454879.7031541.3361723 1.3961934.5708661 2.0748032.0708661.2086614.1535433.4251968.2480315.6456693-.7244094.0629921-1.4291339.1535433-2.0984252.2677165-.3346457.0590551-.6692913.1259843-.988189.1968504-.5.1062992-1.003937.2362205-1.5472441.3937008-2.9645669-2.9409449-5.35039367-5.511811-7.35433067-8.4448819-1.12598426-1.6496063-2.62992126-4.1692913-2.70472441-6.9370079-.07874016-2.8385826 1.3031496-5.7952756 4.1023622-8.7874015.20472441-.2204725.42519685-.4527559.65748032-.6850394 2.51205986-2.4693909 5.37657616-4.5524343 8.49999996-6.1811024 2.0157481-1.0708661 4.2440945-2.1102362 6.6181103-3.0905512z" fill="#3d3935"/><path d="m40.3346457 20.2795276h.1023622c.68525-.0278613 1.2223349-.5987237 1.2084014-1.2843983-.0139336-.6856747-.5737663-1.2342467-1.2595825-1.2342467-.6858163 0-1.245649.548572-1.2595825 1.2342467-.0139335.6856746.5231513 1.256537 1.2084014 1.2843983z" fill="#3d3935"/><path d="m57.5551181 12.2047244c-.2160333.2514934-.3223722.5790172-.2952756.9094488.0570395.6494017.6000685 1.1480321 1.2519685 1.1496063h.1023622c.5639396-.0478042 1.0256779-.4679987 1.126282-1.0249474.1006042-.5569487-.1849478-1.1121296-.6965243-1.354209-.5115766-.2420795-1.1219405-.1108485-1.4888128.3201013z" fill="#3d3935"/><path d="m41.6299213 25.7244094c-.5351268.4930583-1.0276883 1.0303981-1.472441 1.6062993-.4802246.7304998-.7959122 1.556661-.9251968 2.4212598-.1172809.8532936-.0583236 1.7215737.1732283 2.5511811.7528987 2.5307559 3.0800976 4.265344 5.7204725 4.2637795h.1811023c1.7942797-.0618969 3.4649329-.9297687 4.5472441-2.3622047l.0236221-.023622.0551181-.0669292.1692913-.1968504.0787402-.0905511h.6850393c.5669292 0 1.1259843-.0669292 1.5944882-.1220473 1.0585612-.1448135 2.1038751-.3738874 3.1259843-.6850394 1.033035-.3089873 2.0296388-.7287489 2.9724409-1.2519685.4725886-.2669194.9240401-.569642 1.3503937-.9055118.1929134-.1535433.3622047-.2952756.5196851-.4370078h.0590551c1.7155029.7158978 3.6606916.6307597 5.3070866-.2322835 2.4919194-1.2984467 3.6933402-4.1974552 2.8503937-6.8779528-.4671957-1.4637704-1.4325896-2.7175287-2.7283465-3.5433071-.2090414-.1219095-.4245855-.2323102-.6456693-.3307086-.6042842-.2677034-1.228149-.48882-1.8661417-.6614173-1.0393701-.2755906-2.0826772-.3464567-3.0905512-.7480315-.9206333-.3769372-1.8037852-.8396034-2.6377952-1.3818898-1.0107128-.6301144-1.971543-1.3369169-2.8740158-2.1141732-1.1067436-1.1962917-2.647997-1.8973665-4.2770085-1.9454964s-3.2089675.5607274-4.3844088 1.6895909c-1.149024 1.0936372-1.8161239 2.5992151-1.8543307 4.1850393-.2552161 1.7265177-.7015251 3.4193231-1.3307087 5.0472441-.1838338.4798963-.4077207.9434738-.6692913 1.3858268-.1888874.2983637-.4093149.5755481-.6574803.8267716zm19.531496 2.6614174c-1.1475274-.3747207-2.3383118-.6009698-3.5433071-.6732284-.6215839-.0348104-1.2450641-.0110839-1.8622047.0708662-.6503557.0792387-1.2856621.2529864-1.8858268.515748-.5759974.2588845-1.1191784.5853217-1.6181102.9724409-.4792017.3622148-.9330206.7568399-1.3582677 1.1811024-.3740158.3622047-.7519685.7874016-1.1811024 1.2874016-.3542721.414182-.686743.8465255-.996063 1.2952756-.0388107.0408293-.0731279.0857057-.1023622.1338582-.733042 1.2726262-2.0229748 2.1253676-3.4810551 2.3012359-1.4580804.1758684-2.9137781-.345705-3.9283937-1.4075351-.5184194-.5504768-.9024491-1.2134333-1.1220472-1.9370078-.2035396-.7274542-.2278548-1.493384-.0708662-2.2322835.3107072-1.4602882 1.3144266-2.6770959 2.6889764-3.2598425.0230957-.0102626.0454582-.0221016.0669291-.0354331 1.3582678-.7244095 2.8937008-1.476378 4.8385827-2.3622047 1.8582677-.8464567 3.4330709-1.5157481 4.9566929-2.1062992 1.8346457-.7047244 3.5236221-1.2677166 5.1732284-1.7204725.7244094-.1929134 1.6850393-.4370079 2.6732283-.6220472.8635306-.188179 1.7425876-.296249 2.6259843-.3228347h.0787401c1.532942.0284891 2.9567336.799098 3.8188977 2.0669292.7769727 1.1510054 1.0032846 2.5873905.617864 3.9215386-.3854206 1.3341482-1.3428523 2.4285629-2.613927 2.9879102-1.1634625.5275571-2.4979549.5275571-3.6614173 0zm-9.019685 3.4055118c.3823947-.3472449.7889256-.6669438 1.2165354-.9566929.3943946-.2814013.8213803-.5140622 1.2716536-.6929134.6528519-.2440872 1.3465463-.3603713 2.043307-.3425197.2519686 0 .5118111 0 .7874016.0314961.5036397.040257 1.0044946.1099297 1.5.2086614-.3228346.1732283-.6614173.3425197-1.027559.519685l-.1614174.0748032c-.8385826.3937008-1.7086614.7874015-2.6062992 1.1220472-.4606299.1771654-.9488189.3582677-1.4370078.515748-.488189.1574804-.9527559.3149607-1.46063.46063-.3937008.1220472-.7874015.2283464-1.1811023.3307086l-.3188977.0826772c.4328452-.4762774.8915424-.9284029 1.3740158-1.3543307zm-1.7007874-17.6850394c.8831304.0167642 1.7422611.2903727 2.4724409.7874016.6496063.4488189 1.2047244 1.0472441 1.8267717 1.5354331.6974942.5507081 1.4242786 1.0632686 2.1771653 1.535433.2677166.1692914 1.7677166.7874016 1.476378 1.2125985-.1010769.1169858-.2407752.1938199-.3937008.2165354-1.0166956.2324393-2.045969.4059566-3.0826772.519685-2.6305959.4299665-5.1740886 1.2835589-7.531496 2.5275591-.7598425.3937008-1.492126.8622047-2.2677166 1.2204724-.0837005.0512745-.1849206.0655308-.2795275.0393701-.1259843-.0551181-.1417323-.2244094-.1299213-.3622047.0876328-.5239972.2301495-1.037321.4251969-1.5314961.2692181-.9541546.4692128-1.9264973.5984252-2.9094488.1614173-1 .3031496-1.9685039.8897637-2.8267717.8669258-1.2493288 2.2983927-1.9857226 3.8188977-1.9645669z" fill="#3d3935"/><path d="m47.9645669 21.3385827h.0866142v-.0354331c.4640484-1.273234.666251-2.6270538.5944882-3.980315.0003028-.0254569-.0181512-.0472661-.0433071-.0511811h-.0511811v.0354331c-.2989506.6455961-.5133201 1.3270794-.6377953 2.0275591-.0801379.6552337-.0615586 1.3187809.0551181 1.9685039z" fill="#3d3935"/><path d="m52.3622047 18.1102362c.4988917.4406015 1.0617222.80299 1.6692914 1.0748032h.023622c.0184482-.0005724.0357173-.0092069.0472441-.0236221l.0236221-.035433-.0236221-.0314961c-.7988795-1.1103449-1.8139565-2.0477511-2.984252-2.7559055-.0201563-.0138625-.0467728-.0138625-.0669291 0l-.0314961.0393701.0236221.035433c.3626059.6214889.8061126 1.1920901 1.3188976 1.6968504z" fill="#3d3935"/><path d="m34.5 11.8818898.0354331.019685c.0871474.0696887.1687571.1460332.2440945.2283465.3622047.4212598.7204724.8818897 1.1338582 1.4527559l.1417323.2007874.3937008.5472441c.2430893.32812.5060489.6410419.7874016.9370078.6216827.6548848 1.4623864 1.0584226 2.3622047 1.1338583h.2598425c.8333123-.0235094 1.6401358-.2979392 2.3149606-.7874016.3689334-.2630028.7058647-.5682228 1.0039371-.9094488.3215265-.3655346.5868971-.776859.7874015-1.2204724v-.0393701l-.0708661-.0551181-.0314961.0354331c-.1456693.1574803-.3188976.3385826-.5.507874-.4259814.369206-.8906222.6912866-1.3858267.9606299-.3520937.1740633-.7234001.3062008-1.1062993.3937008-.267214.0509249-.5390763.0733602-.8110236.0669291-.2667759-.0213667-.5306381-.0701812-.7874016-.1456693-.2990508-.1009066-.5867095-.2328601-.8582677-.3937008-.457824-.3310071-.8871437-.6997479-1.2834645-1.1023622l-.0236221-.023622c-.3464567-.3346457-.6181102-.5905512-.8779527-.8228347-.2944095-.2600442-.6033026-.5032153-.9251969-.7283464l-.0669291-.0472441c-.2523385-.2303534-.5702593-.3762391-.9094488-.4173229h-.0433071v.0826772h.035433c.0663222.0327118.1273676.0751782.1811024.1259843z" fill="#3d3935"/><path d="m55.1732283 12.6417323h.0866142v-.0433071c.0433071-.2244095.0984252-.4606299.1653544-.6889764.1698033-.5378706.4009851-1.0543968.6889763-1.5393701.2116915-.3369318.4642672-.64637019.7519685-.9212598.2027551-.18143137.4229914-.34232259.6574803-.48031496.2379461-.11286797.4856917-.20379588.7401575-.27165355.3125234-.06093098.6304288-.08995139.9488189-.08661417.5649375.04775865 1.1247341.14391196 1.6732284.28740158h.027559c.468504.10629921.8307087.18503937 1.1811024.2519685.3902633.07323302.7847404.1218852 1.1811024.14566929h.0826771c.338241.07035918.6901326.03034013 1.003937-.11417323l.0354331-.02755905-.0393701-.07480315h-.0354331c-.0628552.00587246-.1261211.00587246-.1889763 0h-.0393701c-.1106183-.01499044-.2198813-.03868603-.3267717-.07086614-.527559-.16929134-1.0748031-.39370079-1.7244094-.66141733l-.2362205-.1023622c-.2047244-.08661418-.3937008-.17716536-.6141732-.25984252-.386158-.15286263-.7804584-.2842961-1.1811024-.39370079-.8722848-.24113212-1.8028019-.15284511-2.6141732.2480315-.810498.4304388-1.4495013 1.12500759-1.8110236 1.96850393-.1814881.41485729-.3136268.84959339-.3937008 1.29527559-.084889.4757314-.0968369.9616161-.0354331 1.4409449z" fill="#3d3935"/><path d="m37.3149606 59.0748031-.1377952-.0826771c-.3700788-.2165354-.7165355-.4251969-1.0196851-.6456693-.9873938-.7269997-1.9276073-1.5159901-2.8149606-2.3622047-.6496063-.6259843-1.2834646-1.2952756-1.8976378-1.9409449-.3937008-.3937008-.7874016-.8503937-1.2283465-1.2795276-.6299212-.6417323-1.1811023-1.1417323-1.6732283-1.5748031-.3110236-.2677166-.5629921-.3188977-.7440945-.1456693-.3031496.2834646.0629921.8543307.3070866 1.1811023l.6968504.9055119c.8620328 1.1849424 1.8024574 2.3108213 2.8149606 3.3700787 1.0022299.9889487 2.1252789 1.8474396 3.3425197 2.5551181.6087888.350732 1.2385885.6636596 1.8858268.9370079.1611564.0783021.3367285.1225301.515748.1299212.1755604.0150035.3440917-.0723264.4330709-.2244094.0629921-.1181102.1456693-.4488189-.480315-.8228347z" fill="#3d3935"/><path d="m79.2165354 54.9173228c.3127926-.0654639.5975498-.2264136.8149607-.4606299.4606299-.5905512-.0354331-1.7677165-.0590552-1.8149606-.1377952-.3267717-1.5748031-2.4448819-1.7362204-2.6574803-.108006-.1437836-.2872821-.2151902-.464567-.1850394-.2257359.0329901-.417307.182655-.503937.3937008-.1019102.2751069-.0307585.584462.1811024.7874016.4291339.507874 1.5393701 1.9685039 1.6496063 2.3818897.0472441.1850394.023622.2952756 0 .3070866-.0323442.0148329-.0669429.024148-.1023622.0275591-.496063.1062992-1.1141732.2322835-1.4291339.7874016-.0859556.1769183-.140571.367406-.1614173.5629921-.0097166.077123-.0097166.1551605 0 .2322835.0747745.5825609.285131 1.1394663.6141732 1.6259842.1023622.1850394.2007874.3582677.2834646.5314961.2760436.509627.4258999 1.0780009.4370079 1.6574803.0063441.0404351.0063441.0816121 0 .1220472-.0548453-.0014357-.1092025-.0107162-.1614173-.027559-.0944882-.0196851-.1850394-.0511811-.2834646-.0787402-.3601313-.1360681-.746788-.1872631-1.1299213-.1496063-.2593234.0545437-.4877074.2067998-.6377952.4251969-.1577852.2571737-.2421977.5526174-.2440945.8543307-.0235861.325905-.0103795.6534299.03937.9763779.0196851.1338583.0433071.2677166.0708662.3937008.027559.1259843.0511811.2637795.0669291.3937008.0550228.2607995.0455627.5310872-.027559.7874016-.0917296.1911477-.298746.2986678-.507874.2637795-.1647785-.0477267-.3176888-.1295471-.4488189-.2401575-.205944-.1715312-.4504976-.2904302-.7125985-.3464567-.5884946-.0288236-1.1281034.3261403-1.3346456.8779528-.1202214.2843392-.2125189.5796913-.2755906.8818898-.066612.3523378-.1902851.6914413-.3661417 1.003937-.081046.1449664-.2283156.2406917-.3937008.2559055-.1645977-.0218087-.3149725-.1047256-.4212599-.2322835-.0926733-.0887497-.179471-.1834381-.2598425-.2834646-.0905512-.1062992-.1968504-.2244094-.3070866-.3346456-.2427035-.256474-.5669539-.4206866-.9173228-.464567-.4170593.0094762-.816764.1687991-1.1259843.4488189l-.1338582.0944882c-.3274868.2229337-.6739695.4165951-1.0354331.5787402-.0346523.01754-.075584.01754-.1102362 0-.1774608-.1698858-.3419619-.352811-.492126-.5472441l-.2204725-.2755906c1.9693731-.2123683 3.8641144-.8722284 5.5393701-1.9291338.9033159-.6013578 1.6925029-1.3585507 2.3307087-2.2362205.3188976-.3937008.5629921-.7598425.3031496-.992126-.2598425-.2322834-.5669291 0-1.0787402.503937-1.32466 1.2925772-2.9472298 2.2390763-4.7244094 2.7559055-1.6809909.4384438-3.4306368.5493839-5.1535433.3267717-.5917123-.087284-1.176033-.2188877-1.7480315-.3937008l-.1771654-.0472441c.6929134-.2874016 1.3818898-.5984252 2.0590551-.9212598 1.8662012-.9535747 3.6574234-2.04726 5.3582678-3.2716536l.0629921-.0433071c.7874016-.5826771 1.5748031-1.1811023 2.3622047-1.7716535.8543307-.6653543 1.6929134-1.3464567 2.511811-2.0511811.6889764-.5944882 1.3503937-1.2283465 2.0157481-1.8503937.2165354-.1968504.5629921-.6496063.1653543-.8700787-.1387965-.065968-.2966575-.079938-.4448819-.0393701-.4724409.0944882-.8149606.488189-1.1811024.7874016-.4370078.3582677-.8779527.7086614-1.3188976 1.0590551-.8897638.6981627-1.7939633 1.3753281-2.7125984 2.031496l-.2480315.1771654-.1496063.1062992c-.484252.3425197-1.0354331.7322835-1.515748 1.0511811-1.6724312 1.1487401-3.4249404 2.1763-5.2440945 3.0748032-1.3158812.603083-2.6614333 1.1392014-4.0314961 1.6062992-1.4039388.5419497-2.8531892.9582798-4.3307087 1.2440945-1.7165354.2874015-3.3385826.5551181-5.0944881.1732283-3.5866142-.7874016-6.3543308-2.7204724-8.0039371-5.6141732-1.0472441-1.8425197-1.3110236-3.8543307-.8543307-6.5275591.0782133-.3406956.2111736-.6664484.3937008-.9645669.1192277-.2076062.275326-.3917221.4606299-.5433071 1.0708662-.9133858 2.4055119-1.4015748 3.6968504-1.8740157l.2559055-.0905512c.8228347-.3031496 1.6574804-.5551181 2.464567-.7874016s1.5984252-.484252 2.4173228-.7874016c3.8073818-1.3253197 7.3915173-3.2209291 10.6299213-5.6220472.8873807-.6772796 1.6839447-1.4659044 2.3700787-2.3464567l.2716536-.3346457c.2834645-.3543307.7598425-.9488189 1.2283464-1.5472441s.7204725-1.0511811.4330709-1.3188976-1.0472441.1968504-1.4330709.5354331c-1.1141732.9803149-3.0511811 2.6653543-3.511811 3.0590551-2.0218892 1.6261544-4.2335829 3.0010268-6.5866142 4.0944882-.2874016.1456693-.5826772.2795275-.8543307.3937008l-.3543307-.0236221c-2.1771654-.1338583-4.4291339-.2716535-6.5669291-.8110236-1.6902294-.4209866-3.3144168-1.0727812-4.8267717-1.9370079-.2047816-.1304871-.4763671-.0726657-.6102362.1299213-.1741038.3130452-.0841063.7069965.2086614.9133858.5977043.4694946 1.2492913.8659978 1.9409449 1.1811024 1.7696722.6867478 3.623476 1.1329849 5.511811 1.3267716.8517413.1016433 1.7092013.1476726 2.5669291.1377953-1.8149606.7283464-3.6102362 1.3267716-5.2795275 1.8700787-.2637795.0866142-.5275591.1653544-.7874016.2480315-.8035329.2318194-1.5923644.5118546-2.3622047.8385827-.0917358-.2108173-.2137574-.407113-.3622047-.5826772-.2914051-.3281555-.644581-.595713-1.0393701-.7874015-.4816229-.2250187-1.0133573-.3213278-1.5433071-.2795276-.5230136.0735573-.9494465.4564131-1.0787402.9685039-.0564163.1662985-.14025.3219897-.2480315.46063-.1269077.172254-.3404864.2576855-.5511811.2204724-.1581318.0003226-.31603.012165-.4724409.0354331-.6543797.1164622-1.2651381.4075586-1.7677165.8425197-.7403952.6135976-1.0491345 1.6061945-.7874016 2.531496.2449239.8930626.6770639 1.7237913 1.2677165 2.4370079.1811024.2519685.3622047.507874.5314961.7677165.0265083.0350354.0452934.0752892.0551181.1181103l-.0748032.0590551-.2283464.1929134c-.413282.2932293-.7276976.7051274-.9015748 1.1811023-.2020678.6995846-.1302785 1.4498534.2007874 2.0984252.3253474.6916312.7439396 1.3354154 1.2440945 1.9133859.1753686.1957815.3620391.3811374.5590551.5551181.2614396.2163747.4884453.4712584.6732283.7559055.2253553.4331515.3054131.9273015.2283465 1.4094488v.4724409c0 .8307087.0984252 1.6811024.8622047 2.2637796.5109314.4060636 1.1563039.6043153 1.8070866.5551181.2330167-.0018654.4657142-.0176415.6968504-.0472441.7204725-.0708662 1.5393701-.1535433 1.968504.3110236.0904787.1066524.1647658.2260423.2204724.3543307.0746179.1537591.1657024.2989662.2716536.4330709.4467186.5289844 1.0825011.8624171 1.7716535.9291338.1306112.0160912.2621026.0239807.3937008.0236221.5499916-.0117512 1.0952371-.1046154 1.6181102-.2755906 1.0215661-.3548447 1.9818278-.8661874 2.8464567-1.515748h.3937008c.3543307 0 .7322835 0 1.1811024-.0354331.9435747-.0560673 1.8803164-.1957222 2.7992126-.4173228 1.6327138-.3659423 3.2387547-.8420986 4.8070866-1.4251969h.0433071c.3228346.1023623.6692913.2440945 1.03937.3937008.2440945.0984252.496063.2007874.7440945.2913386 1.1122344.4351958 2.2905443.6775149 3.484252.7165355.1619172.4088317.356784.803832.5826772 1.1811023.2073689.3254281.531329.5592428.9055118.6535433.3245838.0526406.657427.0130814.9606299-.1141732.3516141-.1261727.6831301-.3025392.984252-.5236221l.03937-.027559c.1574804-.1181102.3543307-.2598425.476378-.2244095.1220472.0354331.1811024.1535433.2598425.2677166.3937008.5669291.9645669 1.2165354 1.7716536 1.2440945h.0629921c1.2913386 0 1.8346457-1.496063 2.015748-1.968504.0669291-.1811023.2007874-.519685.3031496-.7874015.1803178.1266145.3713295.2372696.5708662.3307086.2181447.0719532.4477797.1026602.6771653.0905512.33086-.0059801.656269-.0853154.9527559-.2322835.5200758-.284076.8845017-.7873309.992126-1.3700787.053396-.8258342.0151045-1.6550424-.1141732-2.472441.7559055.1653544 1.2992126.1496063 1.6102362-.03937.3792754-.2512702.6240134-.6610977.6653543-1.1141733.0281394-.4511781-.0334137-.9034598-.1811023-1.3307086-.0814927-.2706961-.1855315-.5340853-.3110237-.7874016-.2699107-.5584139-.5116834-1.1299961-.7244094-1.7125984-.0393019-.1312911-.0251518-.2727921.0393701-.3937008.0605834-.1090299.160602-.1907352.2795275-.2283465zm-32.3149606 10.3307087c-.2156328-.1822998-.3809901-.4167819-.480315-.6811024-.0942825-.2110205-.2104012-.411589-.3464567-.5984252-.3997276-.4870201-.9565219-.8197048-1.5748031-.9409448-.3548535-.0724664-.7166315-.1054754-1.0787402-.0984252h-.3543307c-.2086614 0-.4251968 0-.6417322 0h-.0393701c-.2743729.0223408-.5490393-.0394592-.7874016-.1771654-.2269916-.1809492-.3612742-.4538461-.3661417-.7440945-.0072179-.2541876.0085947-.5085067.0472441-.7598425.0806728-.4290032.0712879-.870092-.0275591-1.2952756-.2110557-.5979497-.5604476-1.1375512-1.019685-1.5748031l-.2952756-.3267717c-.5376615-.5360142-.9963258-1.1457991-1.3622048-1.8110236-.1525387-.2689487-.1935306-.5869893-.1141732-.8858268.0472441-.1259842.1771654-.2086614.3307087-.3070866.1621824-.0944346.3061791-.2170985.4251968-.3622047 1.0196851-1.3897638.1299213-2.6377953-.6574803-3.7440945-.3503255-.4448036-.6439212-.9314847-.8740157-1.4488189-.0836039-.175596-.0836039-.3795222 0-.5551181.1338582-.3110236.3661417-.3661418.7874015-.4488189.0984252 0 .2125985-.0393701.3228347-.0669292l.2401575-.0551181c.441197-.0661012.856934-.248156 1.2047244-.527559.2407872-.2092336.4329348-.4685656.5629921-.7598425.1132385-.2293539.2547601-.4436202.4212598-.6377953.1125292-.0858876.252477-.1278719.3937008-.1181103.2484341-.006249.4886891.089.6653544.2637796.1551521.1552035.2876858.3314733.3937008.523622-.5780029.3596307-1.0894732.8164909-1.5118111 1.3503937-1.0511811 1.3464567-1.4842519 3.0196851-1.3700787 5.2677166.0962678 1.9235294.7305656 3.781408 1.8307087 5.3622047 1.589061 2.2267443 3.7582477 3.9751659 6.2716535 5.0551181.7289527.3301584 1.5000204.5580341 2.2913386.6771653-.6322811.2664251-1.2926361.4605694-1.968504.5787402-.4435393.1129928-.9131772.0583186-1.3188976-.1535433z" fill="#3d3935"/></g></svg>