<svg enable-background="new 0 0 367.308 44" height="44" viewBox="0 0 367.308 44" width="367.308" xmlns="http://www.w3.org/2000/svg"><g fill="#00aff4"><path d="m0 .962v7.584h10.796v34.567h9.354v-34.567h10.569v-7.584z"/><path d="m240.737.962v7.584h10.798v34.567h9.351v-34.567h10.568v-7.584z"/><path d="m34.156 43.113h9.471v-18.285h11.76v18.285h9.354v-42.228h-9.527v16.359h-11.646v-16.359h-9.412z"/><path d="m179.114.885h-9.412v42.228l9.441-20.288z"/></g><path d="m179.143 22.825.03 20.288 10.185-21.945v-20.283z" fill="#ff3287"/><path d="m169.702 43.113h9.471l-.03-20.288z" fill="#c87296"/><path d="m198.769.885-9.411 20.283v21.945l9.44-20.288z" fill="#00aff4"/><path d="m189.358.885v20.283l9.411-20.283z" fill="#c87296"/><path d="m209.013.885-10.215 21.94.03 20.288 19.596-42.228z" fill="#ff3287"/><path d="m189.358 43.113h9.47l-.03-20.288z" fill="#c87296"/><path d="m138.471 43.035h26.542v-7.583h-17.188v-10.624h13.106v-7.584h-13.221v-8.698h17.303v-7.584h-26.542z" fill="#ff3287"/><path d="m70.463 43.035h26.541v-7.583h-17.186v-10.624h13.106v-7.584h-13.221v-8.698h17.301v-7.584h-26.541z" fill="#00aff4"/><path d="m102.786 43.113h8.225v-19.69c0-1.098-.211-6.476-.257-7.689h.257c2.358 5.14 2.426 5.324 3.417 6.997l10.669 20.383h7.407v-42.229h-8.225v15.775c0 1.616 0 1.961.153 4.86l.204 4.271h-.249c-.166-.288-.79-1.846-.974-2.193-.433-.866-1.06-2.022-1.56-2.888l-10.465-19.824h-8.601z" fill="#ff3287"/><path d="m277.222.972-11.955 42.14h9.068l2.194-8.661h12.993l2.135 8.661h9.065l-12.241-42.14h-11.259zm10.452 26.858h-9.525l4.618-19.293h.231z" fill="#00aff4"/><path d="m300.615 27.813c0 8.662 2.194 10.979 3.888 12.587 2.589 2.492 5.919 3.6 10.722 3.6 1.809 0 6.138-.386 9.142-2.712 3.523-2.715 4.101-5.68 4.448-7.354.288-1.79.348-2.138.404-5.197h-9.355c0 4.561-1.125 7.679-4.86 7.679-5.031 0-5.031-4.444-5.031-6.754v-16.121c0-1.165.059-3.246 1.527-4.627.955-.868 2.406-1.33 3.563-1.33 4.629 0 4.743 4.619 4.801 6.706h9.355c-.116-3.416-.577-8.575-4.417-11.518-2.967-2.263-6.788-2.772-9.34-2.772-9.777 0-14.848 5.378-14.848 15.042v12.771z" fill="#00aff4"/><path d="m332.314 43.113h9.471v-42.228h-9.471zm22.635-42.228-12.814 20.374 14.03 21.855h11.144l-15.07-22.547 12.935-19.681z" fill="#00aff4"/><path d="m231.091.962c-8.844 0-13.316 4.889-13.316 11.827 0 8.296 4.889 10.134 11.278 12.597 7.014 2.454 8.931 3.137 8.931 6.285 0 3.829-4.013 4.744-6.247 4.744-4.022 0-6.995-2.174-8.361-5.716l-6.468 4.745c3.464 6.775 7.333 8.555 15.273 8.555 2.357 0 6.197-.635 8.576-2.126 5.772-3.62 5.772-9.231 5.772-11.117 0-3.944-1.779-6.688-2.282-7.373-1.606-2.292-4.484-4.003-7.024-4.917l-5.939-1.945c-2.867-.924-5.928-1.154-5.928-4.126 0-.444.117-3.552 4.792-3.851h7.382v-7.582c-.001 0-5.879 0-6.439 0z" fill="#00aff4"/></svg>