<svg height="57.244" viewBox="-.013 21.419 100 57.244" width="100" xmlns="http://www.w3.org/2000/svg"><path d="m88.97 60.745c0 .777.718 1.199 1.5 1.199 1.135.056 2.033-.657 2.033-1.621v-.593a6.495 6.495 0 0 0 -1.797-.24c-1.135 0-1.736.477-1.736 1.255zm-72.755-13.952c-1.498 0-2.695 1.197-2.695 3.054v.061c0 1.857 1.257 3.052 2.695 3.052 1.438.06 2.696-1.195 2.696-3.052 0-1.918-1.2-3.115-2.696-3.115zm82.573 8.265h-.297v.356h.297c.12 0 .24-.056.24-.176s-.059-.18-.24-.18z" fill="none"/><path d="m98.732 54.34c-.603 0-1.079.537-1.079 1.139 0 .594.477 1.135 1.079 1.135.598 0 1.074-.541 1.074-1.135.001-.602-.476-1.139-1.074-1.139zm.296 1.797-.296-.422h-.186v.422h-.296v-1.32h.537c.301 0 .542.121.542.422a.453.453 0 0 1 -.302.417l.361.481zm-31.257 1.018c-1.079 0-1.857.898-1.978 2.033h3.896c-.121-1.079-.718-2.033-1.918-2.033z" fill="none"/><path d="m61.543 61.884c-1.256 0-2.214-1.019-2.214-2.339 0-1.314.958-2.334 2.158-2.334.833 0 1.375.422 1.853.898l.602-.657c-.542-.603-1.26-1.074-2.398-1.074-1.798 0-3.112 1.436-3.112 3.167 0 1.742 1.314 3.178 3.112 3.117 1.139 0 1.856-.477 2.454-1.14l-.598-.537c-.477.537-1.08.899-1.857.899zm6.228-5.506c-1.677 0-2.876 1.436-2.876 3.167 0 1.862 1.38 3.178 2.937 3.117 1.194 0 1.917-.477 2.515-1.14l-.542-.477c-.477.477-1.074.838-1.912.838-1.02 0-1.979-.718-2.099-2.037h4.794v-.302c0-1.731-1.02-3.166-2.817-3.166zm-1.977 2.81c.12-1.135.898-2.033 1.978-2.033 1.199 0 1.797.954 1.918 2.033zm9.347-2.755c-1.02 0-1.621.538-2.038 1.2v-1.079h-.898v6.108h.898v-3.474c0-1.135.778-1.917 1.797-1.917 1.074 0 1.677.662 1.677 1.797v3.533h.898v-3.77c0-1.439-.899-2.398-2.334-2.398zm5.446-1.676h-.898v1.797h-.839v.778h.839v3.653c0 1.2.718 1.677 1.736 1.677.422 0 .778-.061 1.079-.24v-.778c-.361.181-.602.24-.898.24-.602 0-1.019-.301-1.019-1.019v-3.533h1.917v-.778h-1.917zm4.427 3.352v-1.556h-.894v5.988h.894v-2.395c0-1.797 1.084-2.756 2.399-2.756h.061v-.959c-1.14-.053-2.038.66-2.46 1.678zm5.812-1.676c-.898 0-1.561.181-2.218.482l.24.718c.603-.241 1.14-.422 1.857-.422 1.135 0 1.797.537 1.797 1.621v.236c-.542-.12-1.079-.236-1.857-.236-1.495 0-2.574.658-2.574 1.973 0 1.26 1.139 1.918 2.334 1.857 1.019 0 1.741-.477 2.158-1.019v.898h.838v-3.71c0-.723-.181-1.32-.598-1.741-.481-.416-1.138-.657-1.977-.657zm1.677 3.89c0 .964-.898 1.677-2.033 1.621-.782 0-1.5-.422-1.5-1.199 0-.778.602-1.255 1.736-1.255.778 0 1.376.12 1.797.24zm2.876-6.284h.898v8.503h-.898zm-89.702-5.329c-1.198-.419-2.277-.72-2.277-1.317v-.06c0-.419.359-.778 1.14-.778.778 0 1.915.359 2.992 1.017l1.2-2.156c-1.2-.838-2.696-1.315-4.134-1.315-2.214 0-4.071 1.258-4.071 3.532v.06c0 2.156 1.797 2.874 3.353 3.354 1.257.419 2.336.659 2.336 1.317v.06c0 .482-.419.839-1.317.839-1.079 0-2.336-.422-3.534-1.317l-1.378 2.096c1.498 1.134 3.235 1.676 4.791 1.616 2.395 0 4.251-1.14 4.251-3.592v-.061c.001-2.037-1.796-2.757-3.352-3.295zm13.174-2.934c-.778-.898-1.797-1.677-3.473-1.677-2.635 0-5.09 2.036-5.09 5.808 0 3.774 2.455 5.807 5.09 5.748 1.616 0 2.695-.778 3.473-1.797v1.62h3.173v-15.21h-3.173zm-2.636 7.184c-1.438 0-2.695-1.195-2.695-3.052v-.061c0-1.857 1.197-3.054 2.695-3.054 1.496 0 2.696 1.197 2.696 3.115 0 1.857-1.258 3.112-2.696 3.052zm9.64 2.098c.419-.361.899-.959 1.438-1.797.178-.241.298-.478.419-.598.06-.12.238-.361.419-.66.121.299.178.54.239.901.06.356.181.657.241.898.118.417.299.713.479.954.178.24.419.416.658.602.238.12.479.236.778.297.299.06.6.06.898.06.419 0 .838-.06 1.378-.181.537-.12 1.137-.361 1.855-.657l.241-.959c-.181.121-.359.181-.66.241-.238.061-.479.12-.658.12-.479 0-.838-.06-1.079-.301a2.246 2.246 0 0 1 -.537-.898c-.12-.478-.241-.898-.419-1.376-.121-.419-.359-1.199-.6-2.276.241-.359.479-.718.718-.959.181-.238.361-.419.479-.479.241.06.54.181.838.241.359.06.66.121 1.019.121.54 0 1.019-.181 1.438-.54s.597-.838.597-1.438c0-.479-.178-.838-.597-1.436-.301-.301-.72-.419-1.139-.419a2.14 2.14 0 0 0 -1.436.537c-.419.419-.898 1.019-1.438 1.857-.12.179-.238.419-.419.658-.181.241-.359.479-.479.72-.06-.241-.121-.479-.178-.778-.06-.301-.181-.6-.241-.898a2.875 2.875 0 0 0 -.479-.959c-.178-.241-.419-.419-.658-.6-.301-.118-.54-.238-.778-.299-.241-.06-.54-.06-.898-.06-.419 0-.899.121-1.438.241-.54.178-1.137.359-1.797.658l-.238.958c.181-.06.419-.12.658-.18.301-.061.479-.121.72-.121.479 0 .838.121 1.077.301.241.239.419.538.54.899.178.477.359.956.479 1.436.178.479.359 1.197.597 2.156-.238.358-.537.659-.718.898-.181.238-.359.419-.479.479-.299-.12-.597-.24-.898-.298a4.555 4.555 0 0 0 -.957-.121c-.54 0-1.019.179-1.438.54s-.6.898-.6 1.496c0 .477.181.838.479 1.134.301.306.66.422 1.079.422.597 0 1.077-.181 1.495-.537zm73.475.18c0-.301-.241-.422-.542-.422h-.537v1.32h.296v-.422h.186l.296.422h.361l-.361-.481a.452.452 0 0 0 .301-.417zm-.542.176h-.297v-.356h.297c.181 0 .24.061.24.181s-.12.175-.24.175z" fill="#58595b"/><path d="m98.732 54.22c-.723 0-1.26.537-1.26 1.259 0 .714.537 1.256 1.26 1.256.713 0 1.255-.598 1.255-1.256 0-.722-.542-1.259-1.255-1.259zm0 2.393c-.603 0-1.079-.541-1.079-1.135 0-.602.477-1.139 1.079-1.139.598 0 1.074.537 1.074 1.139.001.594-.476 1.135-1.074 1.135z" fill="#58595b"/><path d="m52.266 50.042a1.74 1.74 0 0 0 1.746 1.725c.964-.004 1.732-.787 1.728-1.746s-.787-1.732-1.746-1.725a1.734 1.734 0 0 0 -1.728 1.746zm5.572.002a2.213 2.213 0 0 0 2.228 2.202 2.212 2.212 0 0 0 2.199-2.228 2.208 2.208 0 0 0 -2.228-2.202 2.211 2.211 0 0 0 -2.199 2.228zm11.911-.09a2.871 2.871 0 1 0 -5.743.038 2.874 2.874 0 0 0 2.89 2.858 2.876 2.876 0 0 0 2.853-2.896zm4.951-3.756c-2.02.014-3.645 1.686-3.631 3.735.014 2.051 1.658 3.703 3.673 3.694 2.019-.015 3.645-1.687 3.631-3.738-.01-2.049-1.658-3.703-3.673-3.691z" fill="#0077bd"/><path d="m49.688 46.615a1.772 1.772 0 0 0 2.216-1.14 1.767 1.767 0 0 0 -1.139-2.213c-.899-.301-1.855.238-2.214 1.137a1.77 1.77 0 0 0 1.137 2.216zm1.677-5.331a2.168 2.168 0 0 0 2.813-1.436c.361-1.199-.241-2.457-1.436-2.816-1.14-.359-2.397.301-2.816 1.438-.358 1.197.242 2.455 1.439 2.814zm1.915-5.928a2.87 2.87 0 0 0 3.594-1.855c.481-1.498-.361-3.115-1.857-3.594-1.495-.479-3.112.298-3.591 1.857a2.868 2.868 0 0 0 1.854 3.592zm2.158-6.707c1.917.6 4.011-.479 4.608-2.394.597-1.978-.478-4.073-2.395-4.671-1.918-.6-4.011.479-4.613 2.395-.596 1.975.483 4.071 2.4 4.67z" fill="#fbae17"/><path d="m45.736 47.93c.54-.778.359-1.915-.419-2.455-.778-.537-1.915-.359-2.455.419-.54.838-.359 1.917.419 2.457.778.538 1.915.359 2.455-.421zm-4.49-3.233a2.217 2.217 0 0 0 -.54-3.112 2.221 2.221 0 0 0 -3.115.537 2.222 2.222 0 0 0 .54 3.115 2.22 2.22 0 0 0 3.115-.54zm-9.103-2.934c1.318.959 3.115.66 4.013-.658.898-1.257.598-3.054-.66-4.013-1.315-.959-3.112-.658-4.011.66-.899 1.258-.6 3.053.658 4.011zm-1.677-4.791c1.197-1.677.838-3.951-.838-5.148-1.677-1.199-3.951-.838-5.15.838-1.197 1.677-.838 3.951.838 5.148 1.677 1.2 3.953.839 5.15-.838z" fill="#f48120"/><path d="m43.281 51.822c-.778.6-.959 1.675-.359 2.457.597.778 1.676.959 2.455.356.778-.597.958-1.676.359-2.454-.598-.778-1.677-.955-2.455-.359zm-5.15 3.236c-1.017.718-1.197 2.098-.479 3.112.778 1.019 2.156 1.255 3.114.477 1.019-.713 1.197-2.093.479-3.112-.72-1.019-2.095-1.195-3.114-.477zm-5.868 3.588c-1.257.898-1.556 2.761-.6 4.016.898 1.255 2.695 1.557 4.013.598 1.258-.954 1.556-2.751.6-4.011-.959-1.26-2.755-1.557-4.013-.603zm-6.826 4.016c-1.616 1.199-1.975 3.534-.778 5.15s3.534 1.978 5.15.777c1.616-1.199 1.975-3.533.778-5.149s-3.534-1.977-5.15-.778z" fill="#f05a28"/><path d="m49.987 49.609c-.299-.72-1.077-1.14-1.855-.898-.72.298-1.139 1.077-.898 1.855.299.72 1.077 1.139 1.855.898a1.401 1.401 0 0 0 .898-1.855z" fill="#808083"/><path d="m50.886 56.85c.898-.296 1.378-1.315 1.079-2.214a1.753 1.753 0 0 0 -2.216-1.139c-.899.306-1.378 1.319-1.079 2.218a1.74 1.74 0 0 0 2.216 1.135zm2.033 6.234a2.269 2.269 0 0 0 1.44-2.816 2.166 2.166 0 0 0 -2.816-1.436c-1.197.356-1.794 1.611-1.435 2.812a2.17 2.17 0 0 0 2.811 1.44zm2.339 7.123c1.496-.482 2.334-2.158 1.792-3.595-.537-1.556-2.148-2.334-3.649-1.853a2.925 2.925 0 0 0 -1.797 3.65 2.925 2.925 0 0 0 3.654 1.798zm.422 1.26c-1.918.657-2.997 2.751-2.339 4.668.662 1.917 2.755 2.992 4.673 2.334 1.917-.657 2.991-2.751 2.334-4.668-.658-1.918-2.756-2.997-4.668-2.334z" fill="#cc167f"/></svg>