<svg height="140" viewBox="0 0 400 140" width="400" xmlns="http://www.w3.org/2000/svg"><path d="m71.1686893 14.4040968v36.5549349h-8.4824896v-3.8733706c-1.925104 3.1471136-5.4745145 4.962756-10.6482316 4.962756-8.6028086 0-12.8741331-4.4785847-12.8741331-11.6201117v-26.0242086h9.2645631v23.5428306c0 3.8128491 2.045423 6.0521415 6.01595 6.0521415 4.6322816 0 7.4597781-2.6629423 7.4597781-7.5651769v-22.0297952zm60.1595007 11.0148976v25.5400373h-9.264563v-22.7560522c0-4.3575419-1.744626-7.0204842-5.775312-7.0204842-4.030687 0-6.376907 3.0260708-6.376907 7.2625699v22.5139665h-9.264563v-22.7560522c0-4.660149-1.9251044-7.0204842-5.7753124-7.0204842-4.0908461 0-6.3769071 3.0260708-6.3769071 7.2625699v22.5139665h-9.2645631v-36.5549349h8.6028086v4.0549349c2.1055825-3.5102421 5.5948336-5.2653632 10.3474341-5.2653632 4.6322819 0 8.1215329 1.9366853 10.1067959 5.386406 2.46654-3.5707635 6.136269-5.386406 10.88887-5.386406 7.760575 0 12.152219 4.660149 12.152219 12.2253259zm74.357143 25.5400373h-9.264563v-50.83798887h9.264563zm100.466366 0h-9.264563v-36.5549349h9.264563zm-9.445042-42.06238366h9.565361v-8.89664804h-9.565361zm44.157074 29.59497206c-3.790049 4.0549348-6.376907 5.6284916-9.866158 5.6284916-4.151006 0-7.098821-2.4208566-8.42233-6.1731843v-10.6517691c1.383668-3.8128492 4.331484-6.2337058 8.542649-6.2337058 3.068134 0 5.534674 1.0893855 9.445041 4.7811918l5.775312-5.7495344c-4.632281-5.0837989-9.144244-6.9599628-15.220353-6.9599628-8.48249 0-15.039875 4.4785847-17.626734 11.9832402v15.009311c2.526699 7.5046555 8.963766 11.9227188 17.386096 11.9227188 6.557385 0 11.069348-2.1787709 16.122746-8.4729981zm-321.7931693-10.0465549c-2.526699-.5446928-4.331484-1.0288641-5.3541955-1.2709497-1.2633496-.3631285-2.2259016-.8472999-2.7071776-1.5130354v-2.7839851c.842233-1.3314712 2.8876561-2.178771 5.7151526-2.178771 3.9103675 0 6.6175451.9078213 10.8888696 4.2970205l4.9932386-6.0521415c-5.0533981-4.2364991-9.3848821-5.7495345-15.6414702-5.7495345-7.21914009 0-12.21237865 2.9655494-14.19764217 7.2020484v9.1992552c1.56414702 3.0865921 5.17371706 4.8417132 12.39285717 6.41527 2.5868585.6052141 4.331484 1.028864 5.3541955 1.2104283 1.3235091.4236499 2.5266991.9683426 3.1884536 1.9366853v3.207635c-.9023925 1.452514-3.0681346 2.2392924-5.8956311 2.2392924-2.045423.0605214-4.0306865-.3631285-5.8956311-1.1499069-1.804785-.726257-3.91036751-2.1182496-6.55738554-4.2970205l-5.35419556 5.9916201c5.77531207 5.1443203 10.6482316 6.8994413 17.5665742 6.8994413 7.3996186 0 12.6334951-2.8445065 14.6187587-7.3836126v-9.2597766c-1.684466-3.4497206-5.7151526-5.2653631-13.1147712-6.9599627zm136.5620663-15.3119181c-8.36217 0-14.919556 4.5391062-17.626733 11.801676v15.3724395c2.647018 7.2625698 9.264563 11.8016759 17.626733 11.8016759 8.362171 0 14.859397-4.5391061 17.506415-11.7411545v-15.4934823c-2.707178-7.2020484-9.264563-11.7411546-17.506415-11.7411546zm8.542649 24.8743017c-1.443828 3.8733706-4.511962 6.1731843-8.602808 6.1731843-4.030687 0-7.21914-2.2998137-8.662968-6.1731843v-10.7728119c1.443828-3.8733706 4.511962-6.2337058 8.662968-6.2337058 4.090846 0 7.098821 2.3603352 8.542649 6.2337058zm66.29577-24.8743017c-8.36217 0-14.919556 4.5391062-17.626734 11.801676v15.3724395c2.707178 7.2625698 9.264564 11.8016759 17.626734 11.8016759 8.362171 0 14.859397-4.5391061 17.506415-11.7411545v-15.4934823c-2.647018-7.2020484-9.204404-11.7411546-17.506415-11.7411546zm8.542649 24.8743017c-1.443828 3.8733706-4.511962 6.1731843-8.542649 6.1731843-4.030686 0-7.21914-2.2998137-8.662968-6.1731843v-10.7728119c1.443828-3.8733706 4.511963-6.2337058 8.662968-6.2337058 4.151006 0 7.098821 2.3603352 8.542649 6.2337058zm41.209258-23.603352v4.0549349c-2.34622-3.5102421-6.01595-5.2653632-11.069348-5.2653632-6.858183 0-12.392857 4.2364991-14.799237 10.9543762v15.0698324c2.34622 6.7178771 7.880895 10.8938547 14.799237 10.8938547 4.632282 0 8.121533-1.5735568 10.588072-4.6601489v2.9050279c0 6.0521415-3.489251 8.896648-8.903606 8.896648-4.030686 0-7.339459-1.2104283-12.633495-4.3575419l-4.511963 6.7178771c5.113558 3.4497207 11.129508 5.3258846 17.265777 5.386406 10.227115 0 17.747053-5.5074488 17.747053-15.7960894v-34.7998138zm-1.14303 22.2113594c-1.383669 3.4497207-4.271325 5.6284917-7.880895 5.6284917s-6.497226-2.1182496-7.880894-5.6284917v-9.9860335c1.383668-3.4497207 4.211165-5.5679702 7.880894-5.5679702 3.66973 0 6.497226 2.1182495 7.880895 5.5679702z" fill="#009" transform="translate(27 38)"/></svg>