<svg height="140" viewBox="0 0 400 140" width="400" xmlns="http://www.w3.org/2000/svg"><path d="m17.4892601 0c-3.0090692 0-5.4224343 2.3690566-5.4224343 5.27987421v18.05870019h-6.64439143c-3.00906919-.0000007-5.42243437 2.378239-5.42243437 5.2798742v39.1016772c0 2.91082 2.41336516 5.2798742 5.42243437 5.2798742h40.32458233c3.0090692 0 5.4988067-2.3690566 5.4988067-5.2798742v-6.427673h18.6348449c3.0060143.0000025 5.4224343-2.378239 5.4224343-5.2798742v-39.1016771c0-2.9046963-2.41642-5.2033543-5.4224343-5.2033543h-6.6443915v-6.42767299c0-2.91081753-2.4194749-5.27987421-5.4224343-5.27987421zm0 2.98427673h40.3245824c1.3166562 0 2.3675417 1.01618449 2.3675417 2.29559748v6.42767299h-30.6252983c-3.0029594-.0000003-5.4988067 2.2986583-5.4988067 5.2033543v6.4276729h-8.9355608v-18.05870019c0-1.27941299 1.0417184-2.29559748 2.3675417-2.29559748zm12.0668258 11.63102727h30.6252983v29.6897274c0 1.2794155-1.050883 2.3721174-2.3675417 2.3721174h-6.5680191v-18.0587002c.0000024-2.9016352-2.4897375-5.2798742-5.4988067-5.2798742h-18.6348449v-6.4276729c0-1.2763525 1.1272554-2.2955975 2.4439141-2.2955975zm33.6801909 0h6.6443915c1.3197136 0 2.3675417 1.0192453 2.3675417 2.2955975v39.1016771c0 1.2763522-1.0478281 2.2955975-2.3675417 2.2955975h-18.6348449v-8.6467505h6.5680191c3.002957-.0000025 5.4224343-2.4455765 5.4224343-5.3563942zm77.9761342 8.4937107c-3.418425 0-6.372504 1.3896017-8.630072 3.7494759-.311599-2.1701049-1.78711-3.4433965-4.124105-3.4433963-.13747 0-9.088301-.0000002-9.088306 0-2.550835 0-3.592556 1.8395388-4.047732 3.2138365l-5.880669 17.5995807h-.076372l-5.880668-17.5995807c-.446014-1.3742977-1.567158-3.2138367-4.1241051-3.2138365-2.4805728 0-4.8114559 1.4997904-4.8114559 4.3616353 0 .7988679.1710716 1.4875471.6109785 2.6016771l9.2410505 23.1090147c.892028 2.2894759 1.83294 3.672956 4.9642 3.672956 3.12821 0 4.075229-1.3834826 4.964201-3.672956l9.546539-23.4916143v22.2672956c0 2.9689728 1.903201 4.8972747 4.582339 4.8972747 2.663866 0 4.582336-1.9283019 4.582339-4.8972747v-15.533543c0-3.5903144 1.628262-6.1981132 5.422434-6.1981132 3.348162 0 5.422437 2.6077988 5.422435 6.1981132v15.533543c0 2.9689728 1.915415 4.8972747 4.582338 4.8972747 2.666922 0 4.582337-1.9283019 4.582339-4.8972747v-15.533543c0-3.5903144 2.016232-6.1981132 5.422435-6.1981132 3.345107 0 5.422429 2.6077988 5.422434 6.1981132v15.533543c0 2.9689728 1.915425 4.8972747 4.582339 4.8972747 2.669976 0 4.582339-1.9283019 4.582339-4.8972747v-17.1404612c0-7.7927883-5.04973-12.0136268-12.52506-12.0136268-3.155704 0-7.233988 1.6650734-9.775656 4.514675-2.425585-2.9720335-5.694315-4.514675-9.546539-4.514675zm37.269689.3060796c-1.918472 0-2.673031 1.3865409-2.673031 2.4486374 0 .5570649.198566 1.3345073.458234 2.1425576l9.317423 26.3228512c.763723 2.1058281 1.689353 2.8312369 3.284009 2.8312369 1.533556 0 2.437804-.7254064 3.131265-2.8312369l7.331742-22.2672956h.076373l7.331742 22.2672956c.696515 2.1058281 1.603818 2.8312369 3.131265 2.8312369 1.603818 0 2.523351-.7254064 3.284009-2.8312369l9.317423-26.3228512c.250501-.8019287.458234-1.5854927.458234-2.1425576 0-1.0590357-.751509-2.4486374-2.673031-2.4486374-1.206683 0-2.370597.4713627-3.131265 2.8312369l-7.25537 22.5733753h-.076373l-7.102625-21.7316562c-.763723-2.3598742-1.319713-3.672956-3.360382-3.672956-2.043723 0-2.508059 1.3130818-3.284009 3.672956l-7.102626 21.7316562h-.152744l-7.178998-22.5733753c-.775943-2.362935-1.91847-2.8312369-3.131265-2.8312369zm61.708831 0c-9.595425 0-14.968974 8.1386583-14.968974 16.9109015 0 8.7722407 5.373556 16.8343816 14.968974 16.8343816 3.647534 0 6.888783-1.5793711 9.317422-4.8972747h.076373v2.2955975c0 1.9129979 1.512171 2.6016772 2.673031 2.6016772 1.087541 0 2.596658-.6886793 2.596658-2.6016772v-28.4654088c0-1.906877-1.509117-2.6781971-2.596658-2.6781971-1.16086 0-2.673031.7713208-2.673031 2.6781971v1.7599581h-.076373c-2.618043-2.7669602-5.410215-4.4381552-9.317422-4.4381552zm55.369928 0c-9.525155 0-15.274463 7.9335849-15.274463 16.9109015 0 8.7600025 4.793127 16.8343816 15.656325 16.8343816 6.638281 0 13.594272-3.9882181 13.594272-6.6572327 0-1.5518264-1.038664-2.4486374-2.062053-2.4486374-2.101766 0-4.050787 4.4381552-11.532219 4.4381552-6.314463 0-10.004774-4.3677568-10.004774-10.024109h21.155132c2.425584 0 3.131265-.979455 3.131265-2.9077569 0-7.976436-5.40105-16.1457023-14.663485-16.1457023zm20.696898 0c-2.068163 0-3.742244 1.5977359-3.742244 3.5964361 0 2.001761 1.674081 3.5964361 3.742244 3.5964361 2.062052 0 3.742243-1.5946751 3.742243-3.5964361 0-1.9987002-1.680191-3.5964361-3.742243-3.5964361zm-51.169452.07652c-1.726014 0-2.825775 1.1080083-2.825775 2.9077568v27.8532494c0 1.8028093 1.099761 2.9077569 2.825775 2.9077569 1.726015 0 2.749404-1.1049476 2.749404-2.9077569v-15.6865828c0-6.3848218 4.084391-8.7753039 7.408114-9.3354297 2.364487-.4315724 3.513127-1.4324529 3.513127-2.9842768 0-1.5457023-1.084487-2.7547169-3.054893-2.7547169-3.25957 0-6.442768 3.1158909-7.713604 5.6624738h-.152744v-2.754717c0-1.7997485-1.023389-2.9077568-2.749404-2.9077568zm51.169452.6886792c1.567159 0 2.825775 1.248805 2.825775 2.8312369s-1.258616 2.8312369-2.825775 2.8312369c-1.570215 0-2.902148-1.248805-2.902148-2.8312369s1.331933-2.8312369 2.902148-2.8312369zm-1.527447.8417191c-.038198.0332868-.076372.0780503-.076372.1530398v3.5964361c0 .1989518.155799.3060796.381862.3060796.226062 0 .305513-.1071278.305489-.3060796v-1.3773585h.687351l.99284 1.5303983c.103866.1622222.177159.1530398.381861.1530398.177184 0 .381837-.0428511.381862-.1530398 0-.0703983-.033604-.1683438-.076372-.2295597l-.916468-1.3773585c.592649-.0703984 1.069212-.3672956 1.069212-1.1477988 0-.902935-.568185-1.1477987-1.603818-1.1477987h-1.374702c-.082482 0-.114546-.0332868-.152745 0zm.610979.5356394h.840095c.446015 0 .99284.0367296.99284.5356394 0 .5937946-.467398.6886792-.99284.6886792h-.840095zm-309.91885463.7651992h6.64439143v17.9821802c0 2.9108201 2.4133651 5.3563942 5.4224343 5.3563942h6.5680191v6.351153c.0000005 2.9016352 2.4958473 5.2798742 5.4988067 5.2798742h18.6348449v6.427673c0 1.2763546-1.1180907 2.2955975-2.4439141 2.2955975h-40.32458233c-1.33498807 0-2.36754177-1.0192453-2.36754177-2.2955975v-39.1016772c0-1.2732914 1.0325537-2.2955974 2.36754177-2.2955974zm9.69928403 0h8.9355608v20.3542976h-6.5680191c-1.3258233 0-2.3675417-1.0927044-2.3675417-2.3721174zm11.9904534 0h18.6348449c1.3258234 0 2.4439141 1.022306 2.4439141 2.2955974v18.0587002h-21.078759zm213.0787592 1.8364779c6.907112 0 9.393795 6.5654088 9.393795 12.1666667 0 5.6012554-2.486683 12.1666667-9.393795 12.1666667-6.90712 0-9.317423-6.5654088-9.317423-12.1666667 0-5.6012603 2.410311-12.1666667 9.317423-12.1666667zm54.147971 0c.401193-.0274835.786256-.0153039 1.221957 0 6.198377 0 9.011933 5.4420965 9.011933 10.1771489h-18.634845c.186153-4.7318006 2.383232-9.7648938 8.400955-10.1771489zm-267.2267302 21.5020965h21.078759v8.6467505h-18.6348449c-1.3166587 0-2.4439141-1.0192453-2.4439141-2.2955975z" fill="#7498bf" transform="translate(40 34)"/></svg>