<svg xmlns="http://www.w3.org/2000/svg" width="30" height="32" viewBox="0 0 30 32"><g><g><g opacity=".85"><path fill="none" stroke="#5e2ad8" stroke-miterlimit="20" stroke-width="1.17" d="M11.51 3.695a2.445 2.445 0 0 1 2.445-2.445h1.63a2.445 2.445 0 0 1 2.445 2.445v6.99a2.445 2.445 0 0 1-2.445 2.445h-1.63a2.445 2.445 0 0 1-2.445-2.445z"/></g><g><path fill="#c9d7dd" d="M25.665 15.775V28.63a1.92 1.92 0 0 1-.067.546 2.893 2.893 0 0 1-2.84 2.36h-16a2.92 2.92 0 0 1-2.853-2.36 2.533 2.533 0 0 1 0-.546V15.775a10.907 10.907 0 0 1 21.8 0z"/></g><g opacity=".85"><path fill="#5e2ad8" d="M3.917 29.173h-.454A3.4 3.4 0 0 1 .09 25.787v-2.36a4.187 4.187 0 0 1 3.76-4.147v9.333a1.92 1.92 0 0 0 .067.56z"/></g><g opacity=".85"><path fill="#5e2ad8" d="M29.427 23.423v2.36a3.413 3.413 0 0 1-3.387 3.387h-.44c.02-.182.02-.365 0-.547V19.29a4.187 4.187 0 0 1 3.827 4.133z"/></g><g opacity=".85"><path fill="#fff" d="M11.85 12.44h8.427v1.213H11.85z"/></g><g opacity=".85"><path fill="#fff" d="M9.69 13.69a.64.64 0 1 0 0-1.28.64.64 0 0 0 0 1.28z"/></g><g opacity=".85"><path fill="none" stroke="#5e2ad8" stroke-linecap="round" stroke-miterlimit="20" stroke-width=".85" d="M8.63 23.12a7.2 7.2 0 0 1 6.293-3.84 7.48 7.48 0 0 1 7.267 7.667"/></g><g opacity=".85"><path fill="#5e2ad8" d="M7.853 26.467a.773.773 0 1 0 0-1.547.773.773 0 0 0 0 1.547z"/></g></g></g></svg>