<svg xmlns="http://www.w3.org/2000/svg" width="30" height="32" viewBox="0 0 30 32"><g><g><g><path fill="#c9d7dd" d="M22.533 31.537a5.253 5.253 0 1 0 0-10.507 5.253 5.253 0 0 0 0 10.507z"/></g><g opacity=".8"><path fill="#572dd1" d="M28.68 4.467a40.547 40.547 0 0 1-9.12-1.974A39.175 39.175 0 0 1 14.853.52a.373.373 0 0 0-.373 0 39.174 39.174 0 0 1-4.707 1.973 40.547 40.547 0 0 1-9.12 1.974.4.4 0 0 0-.373.4A34.307 34.307 0 0 0 4.507 20 37.573 37.573 0 0 0 14.4 31.48a.44.44 0 0 0 .533 0A37.573 37.573 0 0 0 24.827 20a34.307 34.307 0 0 0 4.226-15.133.4.4 0 0 0-.373-.4z"/></g><g><path fill="#fff" d="M8.31 12.631a4.08 4.08 0 0 0 1.027 2.44 39.6 39.6 0 0 0 5.333 5.6 39.6 39.6 0 0 0 5.4-5.6 4.08 4.08 0 0 0 .96-2.44 2.88 2.88 0 0 0-.64-2.066 2.933 2.933 0 0 0-2.106-1.04c-.85-.077-1.701.15-2.4.64a3.84 3.84 0 0 0-1.214 1.253 3.84 3.84 0 0 0-1.213-1.253c-.7-.49-1.55-.717-2.4-.64a2.933 2.933 0 0 0-2.107 1.04 2.88 2.88 0 0 0-.64 2.066z"/></g></g></g></svg>