<svg id="Layer_1" data-name="Layer 1" xmlns="http://www.w3.org/2000/svg" viewBox="0 0 24 24"><defs><style>.cls-1{fill:#c9d7dd;}.cls-2{opacity:0.85;}.cls-3{fill:#5e2ad8;}.cls-4{fill:#fff;}</style></defs><path class="cls-1" d="M5.9,21.38a1.47,1.47,0,0,1-1.46,1.33A1.46,1.46,0,0,1,3,21.38Z"/><path class="cls-1" d="M18.58,21.38a1.47,1.47,0,0,1-1.46,1.33,1.46,1.46,0,0,1-1.45-1.33Z"/><circle class="cls-1" cx="19.91" cy="4.96" r="3.94"/><g class="cls-2"><path class="cls-3" d="M20.08,6.39H15.13V4.47A1.14,1.14,0,0,0,14,3.34H7.57A1.14,1.14,0,0,0,6.44,4.47V6.39H1.06a.91.91,0,0,0-.91.9V20.48a.9.9,0,0,0,.91.9h19a.9.9,0,0,0,.9-.9V7.29A.91.91,0,0,0,20.08,6.39ZM7.37,4.47a.2.2,0,0,1,.2-.2H14a.2.2,0,0,1,.2.2V6.39H7.37Z"/></g><rect class="cls-4" x="3.71" y="6.39" width="1.48" height="15"/><rect class="cls-4" x="16.38" y="6.39" width="1.48" height="15"/></svg>