<svg xmlns="http://www.w3.org/2000/svg" width="32" height="32" viewBox="0 0 32 32"><g><g><g><path fill="#c9d7dd" d="M31.723 10.333v11.454a3.92 3.92 0 0 1-3.906 3.906v4.88a.88.88 0 0 1-1.44.694l-7.107-5.574h-9.2a3.733 3.733 0 0 1-1.92-.52l5.08-4h8.707a5.333 5.333 0 0 0 5.333-5.333v-9.4h.547c2.152 0 3.899 1.741 3.906 3.893z"/></g><g opacity=".85"><g opacity=".85"><path fill="#5e2ad8" d="M25.84 4.423v11.454a3.92 3.92 0 0 1-3.907 3.893h-9.2l-5.68 4.48-1.426 1.08a.813.813 0 0 1-.534.187.893.893 0 0 1-.906-.88V19.77A3.92 3.92 0 0 1 .28 15.877V4.423A3.907 3.907 0 0 1 4.187.53h17.746c2.153 0 3.9 1.74 3.907 3.893z"/></g></g><g><path fill="#fff" d="M5.99 7.54c0-.43.35-.78.78-.78h12.587c.43 0 .78.35.78.78v.52c0 .43-.35.78-.78.78H6.77a.78.78 0 0 1-.78-.78z"/></g><g><path fill="#fff" d="M5.99 11.57c0-.43.35-.78.78-.78h8.493c.431 0 .78.35.78.78v.52c0 .43-.349.78-.78.78H6.77a.78.78 0 0 1-.78-.78z"/></g></g></g></svg>