<svg width="152px" height="40px" viewBox="0 0 152 40" version="1.1" xmlns="http://www.w3.org/2000/svg" xmlns:xlink="http://www.w3.org/1999/xlink">
    <title>accenture</title>
    <g id="Homepage" stroke="none" stroke-width="1" fill="none" fill-rule="evenodd">
        <g id="Artboard" transform="translate(-558.000000, -135.000000)" fill="currentColor" fill-rule="nonzero">
            <path d="M566.093023,156.767442 C570.27907,156.767442 573.348837,158.534884 573.348837,162.906977 L573.348837,174.627907 L568.604651,174.627907 L568.604651,172.581395 C567.674419,173.883721 566.093023,175 563.767442,175 C560.604651,175 558,173.418605 558,169.883721 L558,169.697674 C558,165.418605 561.72093,163.930233 566.27907,163.930233 L568.418605,163.930233 L568.418605,163.093023 C568.418605,161.325581 567.674419,160.302326 565.813953,160.302326 C564.139535,160.302326 563.302326,161.232558 563.209302,162.534884 L558.55814,162.534884 C558.930233,158.627907 562,156.767442 566.093023,156.767442 Z M584.418605,156.674419 C588.418605,156.674419 591.674419,158.72093 592.046512,163.27907 L587.395349,163.27907 C587.116279,161.604651 586.186047,160.488372 584.511628,160.488372 C582.465116,160.488372 580.976744,162.162791 580.976744,165.604651 L580.976744,166.162791 C580.976744,169.697674 582.27907,171.27907 584.511628,171.27907 C586.186047,171.27907 587.395349,170.069767 587.674419,168.116279 L592.139535,168.116279 C591.860465,172.209302 589.162791,175 584.418605,175 C579.581395,175 576.046512,172.023256 576.046512,166.069767 L576.046512,165.790698 C576.046512,159.837209 579.767442,156.674419 584.418605,156.674419 Z M602.651163,156.674419 C606.651163,156.674419 609.906977,158.72093 610.27907,163.27907 L605.627907,163.27907 C605.348837,161.604651 604.418605,160.488372 602.744186,160.488372 C600.697674,160.488372 599.209302,162.162791 599.209302,165.604651 L599.209302,166.162791 C599.209302,169.697674 600.511628,171.27907 602.744186,171.27907 C604.418605,171.27907 605.627907,170.069767 605.906977,168.116279 L610.372093,168.116279 C610.093023,172.209302 607.395349,175 602.651163,175 C597.813953,175 594.27907,172.023256 594.27907,166.069767 L594.27907,165.790698 C594.27907,159.837209 598,156.674419 602.651163,156.674419 Z M620.883721,156.674419 C625.255814,156.674419 628.883721,159.093023 628.883721,164.953488 L628.883721,167.093023 L617.44186,167.093023 C617.627907,170.255814 619.023256,171.465116 621.069767,171.465116 C622.930233,171.465116 623.953488,170.44186 624.325581,169.232558 L628.883721,169.232558 C628.325581,172.488372 625.534884,175 620.976744,175 C615.953488,175 612.511628,172.023256 612.511628,166.162791 L612.511628,165.790698 C612.511628,159.930233 616.139535,156.674419 620.883721,156.674419 Z M667.674419,157.139535 L667.674419,168.302326 C667.674419,170.348837 668.511628,171.27907 670.186047,171.27907 C671.860465,171.27907 673.255814,170.162791 673.255814,168.023256 L673.255814,157.139535 L678.186047,157.139535 L678.186047,174.627907 L673.348837,174.627907 L673.348837,172.023256 C672.511628,173.697674 670.837209,175 668.232558,175 C665.069767,175 662.744186,173.046512 662.744186,168.953488 L662.744186,157.139535 L667.674419,157.139535 Z M701.906977,156.674419 C706.27907,156.674419 709.906977,159.093023 709.906977,164.953488 L709.906977,167.093023 L698.55814,167.093023 C698.744186,170.255814 700.139535,171.465116 702.186047,171.465116 C704.046512,171.465116 705.069767,170.44186 705.44186,169.232558 L710,169.232558 C709.255814,172.488372 706.55814,175 702,175 C696.976744,175 693.534884,172.023256 693.534884,166.162791 L693.534884,165.790698 C693.534884,159.930233 697.162791,156.674419 701.906977,156.674419 Z M656.418605,151.837209 L656.418605,157.139535 L659.767442,157.139535 L659.767442,160.767442 L656.418605,160.767442 L656.418605,169.046512 C656.418605,170.348837 656.976744,171 658.186047,171 C658.930233,171 659.395349,170.906977 659.860465,170.72093 L659.860465,174.534884 C659.302326,174.72093 658.27907,174.906977 657.069767,174.906977 C653.255814,174.906977 651.488372,173.139535 651.488372,169.604651 L651.488372,160.767442 L649.44186,160.767442 L649.44186,157.139535 L651.488372,157.139535 L651.488372,153.883721 L656.418605,151.837209 Z M692.046512,156.953488 L692.046512,161.790698 C688.697674,161.790698 686.744186,162.813953 686.744186,165.697674 L686.744186,174.72093 L681.813953,174.72093 L681.813953,157.139535 L686.744186,157.139535 L686.744186,160.395349 C687.767442,158.069767 689.44186,156.953488 692.046512,156.953488 Z M642.093023,156.767442 C645.255814,156.767442 647.395349,158.72093 647.395349,162.906977 L647.395349,174.627907 L642.465116,174.627907 L642.465116,163.651163 C642.465116,161.604651 641.627907,160.674419 639.860465,160.674419 C638.186047,160.674419 636.790698,161.697674 636.790698,163.930233 L636.790698,174.627907 L631.860465,174.627907 L631.860465,157.139535 L636.790698,157.139535 L636.790698,159.744186 C637.627907,158.069767 639.395349,156.767442 642.093023,156.767442 Z M568.418605,167.186047 L566.465116,167.186047 C564.046512,167.186047 562.837209,167.837209 562.837209,169.418605 L562.837209,169.604651 C562.837209,170.813953 563.581395,171.651163 565.255814,171.651163 C566.930233,171.55814 568.418605,170.627907 568.418605,168.860465 L568.418605,167.186047 Z M620.790698,160.116279 C619.302326,160.209302 617.906977,161.046512 617.534884,163.837209 L624.046512,163.837209 C623.953488,161.232558 622.744186,160.116279 620.790698,160.116279 Z M701.813953,160.116279 C700.325581,160.209302 698.930233,161.046512 698.465116,163.837209 L705.069767,163.837209 C704.976744,161.232558 703.767442,160.116279 701.813953,160.116279 Z M646.465116,135 L661.44186,141.046512 L661.44186,144.767442 L646.465116,150.813953 L646.465116,146.162791 L655.209302,142.906977 L646.465116,139.55814 L646.465116,135 Z" id="accenture"></path>
        </g>
    </g>
</svg>