<svg xmlns="http://www.w3.org/2000/svg" width="152" height="40" viewBox="0 0 152 40">
  <path fill="#607d8b" d="M8.093 21.767c4.186 0 7.256 1.768 7.256 6.14v11.72h-4.744v-2.046C9.675 38.884 8.093 40 5.767 40 2.605 40 0 38.419 0 34.884v-.186c0-4.28 3.72-5.768 8.28-5.768h2.139v-.837c0-1.767-.745-2.79-2.605-2.79-1.674 0-2.512.93-2.605 2.232H.56c.37-3.907 3.44-5.768 7.532-5.768Zm18.326-.093c4 0 7.255 2.047 7.628 6.605h-4.652c-.279-1.674-1.209-2.79-2.883-2.79-2.047 0-3.535 1.674-3.535 5.116v.558c0 3.535 1.302 5.116 3.535 5.116 1.674 0 2.883-1.21 3.162-3.163h4.466C33.86 37.21 31.163 40 26.419 40c-4.838 0-8.372-2.977-8.372-8.93v-.28c0-5.953 3.72-9.116 8.372-9.116Zm18.232 0c4 0 7.256 2.047 7.628 6.605h-4.651c-.28-1.674-1.21-2.79-2.884-2.79-2.046 0-3.535 1.674-3.535 5.116v.558c0 3.535 1.303 5.116 3.535 5.116 1.675 0 2.884-1.21 3.163-3.163h4.465C52.093 37.21 49.395 40 44.652 40c-4.838 0-8.373-2.977-8.373-8.93v-.28c0-5.953 3.721-9.116 8.372-9.116Zm18.233 0c4.372 0 8 2.419 8 8.28v2.139H59.442c.186 3.163 1.581 4.372 3.628 4.372 1.86 0 2.883-1.023 3.256-2.232h4.558C70.326 37.488 67.534 40 62.977 40c-5.024 0-8.465-2.977-8.465-8.837v-.372c0-5.86 3.628-9.117 8.372-9.117Zm46.79.466v11.162c0 2.047.838 2.977 2.512 2.977s3.07-1.116 3.07-3.256V22.14h4.93v17.488h-4.837v-2.605c-.837 1.675-2.512 2.977-5.116 2.977-3.163 0-5.489-1.953-5.489-6.047V22.14h4.93Zm34.233-.466c4.372 0 8 2.419 8 8.28v2.139h-11.349c.186 3.163 1.582 4.372 3.628 4.372 1.86 0 2.884-1.023 3.256-2.232H152c-.744 3.255-3.442 5.767-8 5.767-5.023 0-8.465-2.977-8.465-8.837v-.372c0-5.86 3.628-9.117 8.372-9.117Zm-45.488-4.837v5.303h3.348v3.627H98.42v8.28c0 1.302.558 1.953 1.767 1.953.744 0 1.21-.093 1.674-.28v3.815c-.558.186-1.58.372-2.79.372-3.814 0-5.582-1.767-5.582-5.302v-8.838h-2.046V22.14h2.046v-3.256l4.93-2.047Zm35.628 5.116v4.838c-3.35 0-5.303 1.023-5.303 3.907v9.023h-4.93V22.14h4.93v3.255c1.023-2.325 2.698-3.442 5.303-3.442Zm-49.954-.186c3.163 0 5.302 1.954 5.302 6.14v11.72h-4.93V28.652c0-2.046-.837-2.977-2.605-2.977-1.674 0-3.07 1.024-3.07 3.256v10.698h-4.93V22.14h4.93v2.604c.838-1.674 2.605-2.977 5.303-2.977ZM10.419 32.186H8.465c-2.418 0-3.628.651-3.628 2.233v.186c0 1.209.744 2.046 2.419 2.046 1.674-.093 3.163-1.023 3.163-2.79v-1.675Zm52.372-7.07c-1.489.093-2.884.93-3.256 3.721h6.512c-.094-2.604-1.303-3.72-3.256-3.72Zm81.023 0c-1.488.093-2.884.93-3.349 3.721h6.605c-.093-2.604-1.303-3.72-3.256-3.72ZM88.465 0l14.977 6.047v3.72l-14.977 6.047v-4.651l8.744-3.256-8.744-3.349V0Z"/>
</svg>
