<svg xmlns="http://www.w3.org/2000/svg" width="93" height="46" viewBox="0 0 93 46">
  <path fill="#607d8b" d="M27.62 26.586c2.563 0 4.42.645 5.573 1.934a4.557 4.557 0 0 1 1.287 3.135c0 .08-.065.147-.147.147h-2.445a.147.147 0 0 1-.141-.118 2.583 2.583 0 0 0-1.14-1.928 4.585 4.585 0 0 0-2.84-.79c-1.6 0-2.764.462-3.493 1.388-.729.926-1.093 2.42-1.093 4.483v2.93c.016 2.02.38 3.498 1.093 4.436.714.937 1.854 1.406 3.422 1.406 2.357 0 3.674-1.248 4.057-3.205a.147.147 0 0 1 .14-.117h2.493a.147.147 0 0 1 .141.146 6.504 6.504 0 0 1-.205 1.647 5.777 5.777 0 0 1-.759 1.494C32.478 45.191 30.5 46 27.631 46c-2.379-.004-4.18-.648-5.402-1.934-1.223-1.285-1.835-3.197-1.835-5.737v-3.48c-.004-2.743.606-4.805 1.829-6.188 1.222-1.383 3.021-2.075 5.397-2.075Zm58.596.024c2.375 0 4.174.691 5.397 2.074.558.666.972 1.44 1.217 2.274.071.222.116.452.135.685.017.223.03.475.035.745v11.848a.451.451 0 0 1-.323.416 21.926 21.926 0 0 1-5.262 1.12 10.85 10.85 0 0 1-1.681.058c-2.129-.117-4.24-.516-5.245-1.29-1.14-.894-1.71-2.318-1.71-4.271-.004-2.09.593-3.615 1.793-4.577 1.2-.96 3.08-1.441 5.644-1.441.47 0 1.075.023 1.804.07.73.047 1.458.117 2.187.211v-2.074c0-.194-.029-.393-.029-.586a2.872 2.872 0 0 0-.588-1.518l-.133-.158c-.734-.82-1.854-1.23-3.359-1.23a4.608 4.608 0 0 0-2.845.79 2.483 2.483 0 0 0-1.059 1.928.147.147 0 0 1-.14.123h-2.446a.147.147 0 0 1-.147-.146 4.44 4.44 0 0 1 1.175-3.118c1.149-1.289 3.009-1.933 5.58-1.933Zm-41.683-.024c2.376 0 4.175.692 5.397 2.075.559.666.973 1.44 1.217 2.273.07.23.111.469.124.71.017.222.03.474.012.744v11.825a.451.451 0 0 1-.324.416c-1.7.588-3.468.964-5.261 1.119-.559.063-1.12.083-1.682.059-2.128-.118-4.239-.516-5.244-1.29-1.14-.894-1.71-2.318-1.71-4.271 0-2.09.599-3.616 1.798-4.577 1.2-.961 3.083-1.441 5.65-1.441.47 0 1.07.023 1.799.07.729.047 1.458.117 2.187.21v-2.66a2.924 2.924 0 0 0-.588-1.517l-.133-.159c-.734-.82-1.854-1.23-3.36-1.23a4.62 4.62 0 0 0-2.845.791 2.483 2.483 0 0 0-1.058 1.928.147.147 0 0 1-.14.123h-2.447a.147.147 0 0 1-.147-.147 4.44 4.44 0 0 1 1.176-3.117c1.157-1.29 3.016-1.934 5.58-1.934Zm16.28.48c.3-.093 3.527-.814 3.527-.345v2.444a.135.135 0 0 1-.13.134l-.646-.04a12.84 12.84 0 0 0-1.64.099 4.115 4.115 0 0 0-3.528 2.42 7.959 7.959 0 0 0-.705 3.457v10.132a.158.158 0 0 1-.153.158h-2.505a.158.158 0 0 1-.152-.158V27.284c0-.085.068-.153.152-.153h2.428a.153.153 0 0 1 .153.153v2.22a4.819 4.819 0 0 1 3.198-2.437Zm11.293-5.162a.14.14 0 0 1 .141.14v4.542h4.115a.135.135 0 0 1 .142.14v2.222a.14.14 0 0 1-.142.14h-4.085v11.316a3.42 3.42 0 0 0 .476 2.057c.4.433.982.65 1.57.586h2.045a.14.14 0 0 1 .141.14v2.18a.14.14 0 0 1-.14.14h-2.294c-1.618-.015-2.792-.398-3.521-1.148-.729-.75-1.094-1.934-1.094-3.55v-11.72h-2.733a.14.14 0 0 1-.141-.141v-2.221a.14.14 0 0 1 .14-.14h2.734v-3.78a.14.14 0 0 1 .142-.141ZM44.739 36.571c-1.814 0-3.069.282-3.762.844-.694.563-1.04 1.502-1.04 2.819-.013.497.067.991.234 1.459.236.604.73 1.072 1.347 1.277 2.255.674 4.67.59 6.872-.24a.188.188 0 0 0 .124-.176v-5.508a.176.176 0 0 0-.16-.176c-.875-.1-3.22-.299-3.615-.299Zm41.694 0c-1.814 0-3.069.282-3.762.844-.694.563-1.041 1.502-1.041 2.819-.012.497.068.991.235 1.459.236.604.73 1.072 1.346 1.277 2.256.674 4.67.59 6.873-.24a.2.2 0 0 0 .123-.176v-5.508a.182.182 0 0 0-.158-.176c-.876-.1-3.222-.299-3.616-.299ZM20.635 0c7.831 5.725 14.639 9.276 20.471 11.468.44.164.87.322 1.3.469l.881.298c.494.164.976.323 1.452.457l.706.211a45.12 45.12 0 0 0 1.505.41c.276.07.546.141.817.2.27.058 2.393.516 2.575.55l.952.165c1.288.217 2.51.369 3.675.469l.87.076s1.264.088 1.852.111h.435c2.722.1 5.044 0 7.008 0l.07.012C27.696 26.369 0 14.896 0 14.896L20.635 0ZM50.8 3.37l15.797 10.418h-1.493c-1.963 0-4.286.106-7.008 0h-.435c-.588 0-1.834-.111-1.852-.111l-.87-.076a44.778 44.778 0 0 1-3.674-.469l-.952-.164-.518-.076a94.38 94.38 0 0 1-2.028-.446c-.312-.076-.54-.129-.817-.199a45.122 45.122 0 0 1-1.505-.41l-.706-.211a34.101 34.101 0 0 1-1.452-.457l-.882-.299a49.456 49.456 0 0 1-1.299-.469L50.8 3.37Z"/>
</svg>
