<svg xmlns="http://www.w3.org/2000/svg" width="229" height="44" viewBox="0 0 229 44">
  <path fill="#607d8b" d="m19 0 19 11v22L19 44 0 33V11L19 0Zm67.157 15 4.996 12.833L95.958 15H100l-8.58 22h-3.928l1.868-4.64L82 15h4.157ZM107 15v3.105c1.294-1.72 3.098-3.105 5.882-3.105C117 15 121 18.105 121 23.643c0 5.537-3.96 8.68-8.118 8.68-2.862 0-4.666-1.384-5.882-2.918V37h-4V15h4ZM9.747 19.785l-5.026 3.743 6.816 11.916h2.742l3.236-3.017V30.9l-3.35-3.208v-5.08l-4.418-2.826Zm18.544-.038-4.38 2.864v5.08l-3.35 3.208v1.528l3.237 2.98H26.5l6.778-11.88-4.988-3.78ZM59.976 14c3.278 0 5.307 1.205 6.907 2.955l-2.459 2.643c-1.21-1.283-2.497-2.138-4.487-2.138-2.888 0-4.996 2.488-4.996 5.52 0 3.11 2.147 5.599 5.19 5.599 1.874 0 3.24-.894 4.489-2.138L67 28.812C65.283 30.64 63.293 32 59.937 32 54.785 32 51 27.996 51 23.058 51 18.121 54.824 14 59.976 14ZM80 14.01v4.205h-.232c-3.436 0-5.83 2.259-5.83 6.854V32H70V14.01h3.938v4.205c1.081-2.57 3.05-4.361 6.062-4.206ZM129.245 10v4.684H133v3.34h-3.755v8.37c0 1.498.79 2.112 2.174 2.112H133V32h-2.767c-2.925 0-5.02-1.267-5.02-4.991v-8.985H123v-3.34h2.213V10h4.032Zm15.774 4c5.176 0 8.981 4.004 8.981 8.98 0 4.899-3.805 9.02-9.057 9.02-5.138 0-8.943-4.004-8.943-8.942 0-4.976 3.844-9.058 9.019-9.058Zm46 0c5.176 0 8.981 4.004 8.981 8.98 0 4.899-3.844 9.02-9.057 9.02-5.138 0-8.943-4.004-8.943-8.942 0-4.976 3.844-9.058 9.019-9.058ZM223 14c3.73 0 6 2.366 6 6.595V31.96h-3.923V21.797c0-2.754-1.27-4.19-3.462-4.19-2.115 0-3.653 1.514-3.653 4.268V32h-3.924V21.797c0-2.676-1.307-4.19-3.461-4.19s-3.654 1.63-3.654 4.307V32H203V14.039h3.923v2.948c1.115-1.513 2.577-2.948 5.192-2.948 2.462 0 4.154 1.202 5.077 3.026C218.615 15.203 220.423 14 223 14Zm-63.901 14 1.782.893.119.178v1.858l-.119.178L159.1 32h-.238l-1.742-.893-.119-.178V29.07l.119-.178 1.74-.892h.238Zm14.05-13.998c3.27.078 5.294 1.322 6.851 3.11l-2.491 2.604c-1.168-1.283-2.453-2.216-4.438-2.255-2.88-.038-5.021 2.371-5.06 5.441-.078 3.11 2.024 5.636 5.06 5.675 1.869.039 3.27-.816 4.516-2.06l2.335 2.41c-1.752 1.826-3.776 3.147-7.162 3.07-5.139-.117-8.837-4.198-8.759-9.133.078-4.936 3.97-8.978 9.148-8.862ZM111.98 18.33c-2.705 0-5.058 2.095-5.058 5.35 0 3.255 2.392 5.35 5.058 5.35 2.745 0 4.98-2.057 4.98-5.35 0-3.292-2.274-5.35-4.98-5.35Zm32.963-.909c-3.12 0-5.1 2.488-5.1 5.52 0 3.072 2.132 5.599 5.138 5.599 3.12 0 5.1-2.488 5.1-5.52.075-3.072-2.094-5.599-5.138-5.599Zm46 0c-3.12 0-5.1 2.488-5.1 5.52 0 3.072 2.132 5.599 5.138 5.599 3.12 0 5.1-2.488 5.1-5.52.037-3.072-2.094-5.599-5.138-5.599Zm-167.107.912h-9.672l1.638 4.278-.495 4.774h7.386l-.457-4.774 1.6-4.278Zm2.627-8.823H11.499l-1.752 7.64h18.506l-1.79-7.64Z"/>
</svg>