<svg width="207" height="24" viewBox="0 0 207 24" xmlns="http://www.w3.org/2000/svg">
  <path fill="#607d8b" d="M60.046 6.822v10.573h2.636a5.03 5.03 0 0 0 3.585-1.578A5.296 5.296 0 0 0 67.71 12.1a5.206 5.206 0 0 0-1.424-3.734 4.942 4.942 0 0 0-3.605-1.546h-2.635l-.001.002Zm2.636-3.316c4.913 0 8.63 3.808 8.63 8.594s-3.717 8.614-8.63 8.614h-5.814a.422.422 0 0 1-.417-.427V3.95c0-.236.187-.429.417-.429l5.814-.016Zm21.293 14.257c2.231.007 4.246-1.365 5.105-3.477a5.761 5.761 0 0 0-1.18-6.167 5.412 5.412 0 0 0-6.009-1.24c-2.062.871-3.409 2.932-3.413 5.22 0 3.12 2.458 5.65 5.498 5.664m0-14.647c5.171 0 9.124 4.077 9.124 8.984s-3.953 8.983-9.125 8.983c-5.171 0-9.09-4.056-9.09-8.983 0-4.928 3.952-8.984 9.09-8.984m21.687 14.647c3.042-.008 5.503-2.54 5.5-5.66-.004-3.121-2.47-5.649-5.51-5.65-3.044 0-5.512 2.526-5.516 5.647 0 1.503.582 2.944 1.618 4.006a5.452 5.452 0 0 0 3.907 1.657m0-14.647c5.154 0 9.108 4.056 9.108 8.984 0 4.927-3.97 8.983-9.108 8.983s-9.125-4.056-9.125-8.983c0-4.928 3.953-8.984 9.125-8.984m21.165 3.706h-3.717v4.55h3.717a2.15 2.15 0 0 0 1.597-.609c.43-.417.675-.995.68-1.602a2.29 2.29 0 0 0-.645-1.675 2.172 2.172 0 0 0-1.632-.66v-.004Zm-7.312-2.87c0-.237.188-.43.418-.43h6.998c3.336 0 5.75 2.508 5.75 5.656.026 2.13-1.137 4.086-2.994 5.039l3.228 5.852a.437.437 0 0 1 .016.457.414.414 0 0 1-.395.21h-2.832a.417.417 0 0 1-.38-.231l-3.11-5.792h-3.117v5.56a.422.422 0 0 1-.417.43h-2.728a.422.422 0 0 1-.417-.43l-.019-16.32-.001-.002Zm22.538 2.95v10.575h2.634a5.03 5.03 0 0 0 3.587-1.573 5.295 5.295 0 0 0 1.447-3.714 5.206 5.206 0 0 0-1.42-3.74 4.942 4.942 0 0 0-3.612-1.546l-2.636-.002Zm2.634-3.32c4.913 0 8.63 3.812 8.63 8.608 0 4.795-3.717 8.606-8.63 8.606h-5.796a.422.422 0 0 1-.417-.429V4.033c0-.238.187-.43.417-.43l5.798-.02h-.002Zm19.593 4.206-2.04 5.655h4.075l-2.035-5.655Zm-3.235 8.85-1.335 3.764a.417.417 0 0 1-.417.296h-2.895a.413.413 0 0 1-.38-.18.437.437 0 0 1-.037-.427l6.256-16.32a.417.417 0 0 1 .417-.282h3.24a.417.417 0 0 1 .417.282l6.256 16.32a.437.437 0 0 1-.038.427.413.413 0 0 1-.38.179h-2.894a.417.417 0 0 1-.417-.296l-1.335-3.764h-6.458v.001Zm14.878-8.483c0-2.702 2.277-5.039 5.873-5.039a7.335 7.335 0 0 1 5.216 2.016.433.433 0 0 1 0 .629l-1.604 1.633a.411.411 0 0 1-.591 0 4.163 4.163 0 0 0-2.783-1.125c-1.438 0-2.501.856-2.501 1.844 0 3.195 8.499 1.352 8.499 7.498-.004 3.115-2.299 5.472-6.356 5.472a8.4 8.4 0 0 1-6.063-2.498.433.433 0 0 1 0-.63l1.551-1.591a.413.413 0 0 1 .605 0 5.289 5.289 0 0 0 3.666 1.533c1.797 0 2.98-.985 2.98-2.217 0-3.196-8.494-1.351-8.494-7.5m27.523-4.25v6.458h-7.194V3.93a.422.422 0 0 0-.417-.428h-2.728a.422.422 0 0 0-.417.428v16.316c0 .237.188.43.417.43h2.728a.424.424 0 0 0 .417-.43v-6.56h7.189v6.56c0 .237.188.43.417.43h2.728c.23 0 .417-.193.417-.43V3.93a.422.422 0 0 0-.417-.428h-2.728a.422.422 0 0 0-.412.428ZM41.134 5.68C39.242 2.171 35.538-.013 31.511 0H1.041C.621.002.241.255.08.643c-.16.385-.071.83.226 1.124l6.637 6.587a3.14 3.14 0 0 0 2.215.91h21.48c1.532-.016 2.783 1.197 2.8 2.706.015 1.51-1.212 2.747-2.743 2.762H15.885c-.42 0-.8.252-.965.64-.162.386-.073.832.224 1.126l6.642 6.593c.59.583 1.386.91 2.215.909H30.7c8.715 0 15.304-9.196 10.435-18.324" />
</svg>