<svg xmlns="http://www.w3.org/2000/svg" width="94" height="49" viewBox="0 0 94 49">
  <path fill="#607d8b" d="M90.164 34.3v4.96a30.814 30.814 0 0 1-.57-.55l-.288-.286-.13-.128a39.494 39.494 0 0 0-.357-.356 4.314 4.314 0 0 0-.34-.305 3.737 3.737 0 0 0-.792-.474 8.038 8.038 0 0 0-1.216-.406 4.363 4.363 0 0 0-1.116-.162 4.013 4.013 0 0 0-1.08.128 3.333 3.333 0 0 0-.928.398c-.27.166-.499.388-.673.651a.77.77 0 0 0-.068.644c.07.263.218.499.426.676a3.255 3.255 0 0 0 .994.574c.202.073.408.133.617.181 1.321.309 2.968.313 4.57 1.162.226.119.444.252.653.397l.01.007c.046.031.092.065.139.098.387.268.707.616.938 1.021.135.236.247.484.335.742.124.38.21.771.255 1.169a3.95 3.95 0 0 1-.494 2.107 4.235 4.235 0 0 1-1.32 1.388 5.44 5.44 0 0 1-1.821.762 9.134 9.134 0 0 1-2.016.228c-.401 0-.802-.022-1.2-.068a8.887 8.887 0 0 1-1.184-.22 10.28 10.28 0 0 0-1.098-.245 6.014 6.014 0 0 0-1.106-.084 4.87 4.87 0 0 0-.722.067.035.035 0 0 1-.007-.006 4.804 4.804 0 0 0-2.105.63v-5.914c.307.47.67.902 1.081 1.286.386.357.799.686 1.234.982.655.428 1.358.78 2.093 1.05a8.83 8.83 0 0 0 1.14.305c.429.089.867.123 1.303.1.402-.015.794-.12 1.15-.304a1.37 1.37 0 0 0 .68-.913.687.687 0 0 0-.136-.653 2.132 2.132 0 0 0-.664-.524 4.971 4.971 0 0 0-.988-.39 9.18 9.18 0 0 0-.555-.14l-.014-.003-.1-.022c-1.801-.41-3.359-.817-4.462-1.659-.054-.043-.109-.086-.162-.13l-.102-.085-.03-.027a4.166 4.166 0 0 1-.778-.939 3.2 3.2 0 0 1-.4-1.709 3.959 3.959 0 0 1 1.685-3.378 5.441 5.441 0 0 1 1.744-.82 7.526 7.526 0 0 1 2.018-.27 8.05 8.05 0 0 1 1.48.091c.443.075.88.144 1.31.213.422.056.845.09 1.27.101 1.515 0 1.897-.948 1.897-.948Zm-13.799.817v5.868c-.327-.895-1.086-1.515-2.023-2.128a8.367 8.367 0 0 0-2.718-1.108 13.027 13.027 0 0 0-.609-.12 2.704 2.704 0 0 0-.61-.042 2.14 2.14 0 0 0-1.134.348 2.48 2.48 0 0 0-.736.793 3.62 3.62 0 0 0-.406 1.052 11.465 11.465 0 0 0 .039 5.075c.073.361.2.718.375 1.05.175.328.424.61.728.824.357.23.777.344 1.202.324a1.69 1.69 0 0 0 .958-.219c.194-.128.343-.315.423-.534.073-.213.104-.438.092-.662a13.162 13.162 0 0 1-.017-.608c-.01-.345-.01-.687 0-1.027a3.226 3.226 0 0 0-.093-.93 1.555 1.555 0 0 0-.423-.728 1.837 1.837 0 0 0-1.007-.421h7.246c-.287.086-.55.242-.762.453a2.244 2.244 0 0 0-.475.704 3.463 3.463 0 0 0-.236.85c-.044.283-.067.57-.069.857v3.915a2.628 2.628 0 0 0-1.032-.59 3.463 3.463 0 0 0-1.1-.13c-.387.019-.77.081-1.143.186-.39.109-.776.221-1.16.34-.384.119-.765.227-1.143.325a5.094 5.094 0 0 1-1.108.16 7.433 7.433 0 0 1-2.446-.315 5.647 5.647 0 0 1-1.913-1.027 5.54 5.54 0 0 1-1.355-1.675 6.057 6.057 0 0 1-.248-.518 7.081 7.081 0 0 1-.357-1.09 9.51 9.51 0 0 1 .596-5.498l.008-.013c.238-.435.531-.838.873-1.197a6.013 6.013 0 0 1 1.455-1.117 6.886 6.886 0 0 1 1.744-.664 8.511 8.511 0 0 1 1.947-.217c.323 0 .645.015.966.048.314.032.624.086.93.161.305.076.626.17.965.284.33.111.67.193 1.016.243.316.05.636.077.956.08l.077-.004c.04-.003.08-.007.119-.012.168-.027.333-.068.494-.123a2.03 2.03 0 0 0 1.114-1.223Zm-24.38 0 5.812 8.804v-5.848a6.367 6.367 0 0 0-.077-.947 3.186 3.186 0 0 0-.287-.94 2.097 2.097 0 0 0-.574-.726 1.671 1.671 0 0 0-.937-.343h6.2c-.246.034-.48.13-.676.277a1.78 1.78 0 0 0-.465.506c-.12.2-.214.415-.278.637-.068.23-.114.465-.136.702-.023.24-.034.463-.034.67v7.482c0 .206.011.43.034.67.022.237.068.472.136.702.064.223.158.437.278.637.12.196.277.368.465.506.197.147.43.242.676.277h-6.936l-5.719-8.775v5.754c.002.4.042.799.119 1.192.07.395.244.767.506 1.078.09.098.19.189.296.27.113.089.232.17.355.245.119.071.262.15.43.236h-6.065a.432.432 0 0 0 .102-.032c.056-.022.12-.044.194-.065a2.75 2.75 0 0 0 .211-.073.929.929 0 0 0 .152-.074 1.59 1.59 0 0 0 .49-.44 2.15 2.15 0 0 0 .287-.565c.069-.204.114-.415.136-.629.022-.217.039-.43.05-.636.015-.275.022-.55.025-.824v-6.192c-.006-.256-.008-.45-.008-.58a7.067 7.067 0 0 0-.067-.932 3.653 3.653 0 0 0-.254-.947 1.971 1.971 0 0 0-.54-.743 1.52 1.52 0 0 0-.93-.334h7.029Zm-16.952-1.634a8.935 8.935 0 0 0-4.334 2.198 83.263 83.263 0 0 0-2.163 2.51c.844 1.552 1.856 3.33 2.752 4.672 1.523 2.28 3.578 4.181 5.552 4.952.046-.032.093-.063.133-.097.246-.21.449-.461.598-.742.196-.384.294-.808.287-1.236.011-.303.017-.562.017-.777v-6.78a3.724 3.724 0 0 0-.279-1.58 2.75 2.75 0 0 0-.615-.881 2.279 2.279 0 0 0-.892-.46h8.05c-.326.1-.629.26-.893.468a2.21 2.21 0 0 0-.556.67 2.895 2.895 0 0 0-.286.832 4.962 4.962 0 0 0-.078.689v7.58c.005.429.097.853.272 1.249.148.329.356.63.614.888.26.231.563.414.892.54H43.06l-.183.001-2.12.001H38.72l-.304.001H36.28l-.298.001-2.692.001h-1.61c-2.21 0-3.6-1.71-5.343-4.354a69.902 69.902 0 0 1-1.053-1.651c-.62.774-1.14 1.43-1.474 1.853a12.912 12.912 0 0 0 .088 1.515c.045.409.135.811.27 1.2.115.342.299.66.54.933.228.258.54.433.886.5h-8.43a1.926 1.926 0 0 0 1.03-.444c.264-.233.473-.516.617-.831.15-.33.254-.678.309-1.034.024-.162.043-.318.057-.473l.029-.58v-7.563a13.32 13.32 0 0 0 1.416-.17 15.778 15.778 0 0 0 2.5-.594c.197-.066.39-.136.579-.209.046-.019.093-.04.14-.058v4.144l4.355-5.049c.868-1.006.265-1.835.265-1.835ZM24.29 17.15s5.953.593 5.953 7.669c0 7.075-4.97 11.114-11.736 11.114-6.765 0-10.333-3.02-10.333-6.236 0-3.217 2.284-3.73 3.346-3.73 1.061 0 2.982.972 2.982 3.493 0 0-1.912-.476-1.912 1.199s2.26 2.717 5.36 2.717c3.098 0 7.474-1.374 7.474-7.5 0-6.535-2.987-6.827-5.064-6.827v11.21a1.045 1.045 0 0 0 1.086.986l-.015.013c-.143.111-1.263.92-3.779.92-2.702 0-3.472-.878-3.472-.878h.033c.2-.01 1.246-.104 1.246-1.137v-.558l-.013-3.82-.002-.586-.003-.881-.016-4.531v-.165a33.802 33.802 0 0 1 8.865-2.472Zm54.997 1.633v4.018a1.37 1.37 0 0 0-.184-.4 3.186 3.186 0 0 0-1.217-1.086 5.34 5.34 0 0 0-1.141-.424 7.549 7.549 0 0 0-1.226-.197c-.42-.033-.825-.049-1.216-.049l-2.518-.015v3.592c.515 0 .962-.013 1.343-.04.351-.02.695-.104 1.015-.245a2.29 2.29 0 0 0 .797-.621 4.96 4.96 0 0 0 .689-1.167v5.977a3.025 3.025 0 0 0-.546-1.241 2.23 2.23 0 0 0-.856-.653 3.402 3.402 0 0 0-1.116-.254c-.414-.027-.856-.04-1.326-.04v2.94c0 .317.032.634.093.946.057.306.162.6.31.875.146.267.34.508.57.71.25.215.55.366.874.441h-8.24a2.82 2.82 0 0 0 .696-.499c.207-.2.387-.425.537-.669.287-.466.465-.987.522-1.528v-7.64a3.78 3.78 0 0 0-.43-1.522 2.956 2.956 0 0 0-.545-.727 2.131 2.131 0 0 0-.78-.482h13.895Zm14.713 0v4.9a2.917 2.917 0 0 0-.728-1.486 3.718 3.718 0 0 0-1.207-.858 5.626 5.626 0 0 0-1.324-.392 7.18 7.18 0 0 0-1.075-.105h-.43v7.953c0 .34.047.678.14 1.005.092.327.234.639.423.923.185.282.42.528.694.727.285.205.613.342.96.4h-8.686a2.72 2.72 0 0 0 .87-.408 3.03 3.03 0 0 0 .669-.654c.188-.252.334-.534.43-.833.067-.206.112-.419.133-.634v-8.48a6.184 6.184 0 0 0-1.547.066 4.8 4.8 0 0 0-1.456.482 3.7 3.7 0 0 0-1.15.93c-.33.408-.54.896-.612 1.414v-4.95H94Zm-53.617 0c.35 0 .732.016 1.145.05a7.49 7.49 0 0 1 1.211.195c.39.096.766.239 1.12.425.342.178.637.43.863.735.14.182.261.376.365.58.17.334.269.697.291 1.069.082.85-.19 1.697-.755 2.355-.014.02-.03.037-.045.056a3.701 3.701 0 0 1-.364.398l-.088.085c-.28.247-.6.45-.945.603 1.252 2.58 2.984 5.681 4.468 6.374.108-.063.25-.153.423-.266.2-.132.394-.274.58-.425.245-.238.45-.514.606-.816.216-.381.42-.79.614-1.225.193-.436.367-.855.522-1.258.156-.403.272-.708.348-.915l1.406-3.576c.04-.093.077-.186.112-.287.117-.331.286-.78.507-1.347.092-.228.164-.463.215-.702a1.584 1.584 0 0 0 0-.719c-.064-.26-.195-.5-.381-.694a2.465 2.465 0 0 0-.539-.424 2.96 2.96 0 0 0-.706-.27h7.781l1.775 5.112.92 2.688.681 1.992c.142.381.31.752.506 1.11.183.336.4.653.647.948a4.757 4.757 0 0 0 1.285 1.053c.138.076.286.13.44.163h-9.373c.066-.033.216-.1.448-.204.257-.12.495-.277.705-.466a2.51 2.51 0 0 0 .589-.767c.16-.35.189-.743.083-1.111a14.503 14.503 0 0 0-.274-.816 23.353 23.353 0 0 1-.174-.482c-.056-.158-.1-.28-.133-.368h-3.931c-.033.097-.09.24-.166.425-.078.185-.153.378-.224.58-.072.202-.133.4-.182.596a1.974 1.974 0 0 0-.075.457c.007.5.172.985.472 1.388a2.15 2.15 0 0 0 1.253.768H43.576c-2.114 0-2.852-1.12-4.976-5.9-.234.003-.476.004-.725.004h-.542c0 .588-.006 1.186-.018 1.796-.012.6.011 1.2.069 1.796.026.366.115.724.262 1.062.109.242.26.463.449.654.155.153.335.28.534.375a5.3 5.3 0 0 0 .517.213h-8.051a2.56 2.56 0 0 0 .771-.523c.22-.216.402-.464.542-.735a3.853 3.853 0 0 0 .433-1.732v-6.696c0-.293-.006-.582-.017-.866a3.004 3.004 0 0 0-.289-1.355 2.292 2.292 0 0 0-.602-.76 2.506 2.506 0 0 0-.872-.4Zm14.773 3.055-1.394 4.247h2.853l-1.46-4.247Zm-16.641-1.157-.225.005c-.413.017-.827.025-1.246.025v3.462c.374 0 .763.005 1.17.017a4.29 4.29 0 0 0 1.119-.107c.324-.073.617-.241.838-.481a1.57 1.57 0 0 0 .33-1.095 1.892 1.892 0 0 0-.304-1.184c-.2-.253-.48-.437-.797-.523a3.58 3.58 0 0 0-1.11-.114ZM15.538 0l.1.042c.155.067.305.142.45.225 1.142.682 2.073 2.556 2.037 3.802a3.519 3.519 0 0 1 3.433.436 3.529 3.529 0 0 1-2.81 2.026l-.06.005a6.934 6.934 0 0 0 3.174 4.098 2.684 2.684 0 0 0 3.395-1.17 2.69 2.69 0 0 0 2.684 1.397 2.516 2.516 0 0 0 1.195-.396 6.945 6.945 0 0 0 2.056-2.07 3.533 3.533 0 0 1-2.346-2.359 3.521 3.521 0 0 1 3.342.402 3.564 3.564 0 0 1 2.068-3.043 3.54 3.54 0 0 1 .892-.259 45.581 45.581 0 0 0-3.05 9.163c-.346 1.589-.83 4.47-.947 5.165l-.023.144-.002.01a2.825 2.825 0 0 1-1.394 1.627.2.2 0 0 1-.239-.084c-.045-.061.046-.162.089-.22.353-.402.483-.955.345-1.473-.25-1.272-4.56-1.438-9.929-.07-5.367 1.368-9.039 3.593-8.647 4.826.127.52.506.942 1.008 1.123.065.03.192.074.183.148a.2.2 0 0 1-.17.187 2.805 2.805 0 0 1-2.001-.755l-.024-.032c-.141-.189-.882-1.188-1.698-2.241l-.275-.352a42.775 42.775 0 0 0-1.305-1.6 46.013 46.013 0 0 0-2.751-2.906A45.723 45.723 0 0 0 0 12.098a3.57 3.57 0 0 1 .906-.272c1.356-.103 2.595.944 3.269 1.53.51-.586 1.519-1.679 2.739-1.833.03.149.053.437.065.594a3.546 3.546 0 0 1-.99 2.743 6.92 6.92 0 0 0 3.18.836 2.703 2.703 0 0 0 2.454-2.683 2.682 2.682 0 0 0 3.55-.596 6.693 6.693 0 0 0 .46-.867c.01-.036.022-.07.031-.105l.005.02a6.948 6.948 0 0 0 .386-4.284l-.013.005.019.099a26.22 26.22 0 0 0-.034-.093L16 7.204a3.511 3.511 0 0 1-3.434-.415 3.53 3.53 0 0 1 2.798-2.043c-.63-1.075-.816-3.14-.142-4.29.075-.128.157-.25.247-.367l.07-.089Z"/>
</svg>