<svg xmlns="http://www.w3.org/2000/svg"  width="200" height="40" viewBox="0 0 200 40">
  <path fill="#607d8b" d="M29.9 5.9c.33 0 .683.045 1.027.134.366.088.72.214 1.073.366l.134.09c.122.104.216.235.366.31l.166.135c.07.062.137.127.203.196L32.9 7.1l.06.109c.08.131.16.211.24.291l-.012.021v.001L33.2 7.5c.1.2.2.3.4.5l-.031.124A4.25 4.25 0 0 1 34.1 10.2v12.9c0 1.274-.149 2.53-.433 3.747-1.041 4.542-3.907 8.498-8.067 10.853-2.6 1.5-5.5 2.3-8.5 2.3-.9 0-1.7-.1-2.5-.2l.053-.093-.053-.007-.023-.032-.077.132-.414-.063C10.647 39.167 7.5 37.5 5 35l-.296-.303C2.271 32.146.681 28.962.2 25.5l-.06-.49C.065 24.344 0 23.64 0 23c0-3 .8-6 2.3-8.6l.187-.316C5.529 9.067 11.024 5.9 17 5.9Zm-4.3 14.8-.013.022-.214.372-.09.162a16.5 16.5 0 0 0-.562 1.133c-2.186 4.872-1.893 10.571.879 15.311l-.016-.028-.175-.32A17.177 17.177 0 0 1 25.6 20.7ZM70.2 9.3c2.4-.2 4.7.9 6.1 2.8.9 1.4 1.4 3.1 1.4 4.8v.223c-.009.998-.121 2.391-1.7 2.577H65.2c.1 3.5 2.2 5.7 5.5 5.7 1.6 0 3.2-.6 4.4-1.6.2-.2.5-.3.8-.3.7 0 1.3.6 1.3 1.3 0 .4-.2.8-.5 1-1.7 1.5-3.9 2.3-6.1 2.2-5.5 0-8.4-3.3-8.4-9.4 0-5.9 2.9-9.3 8-9.3Zm16.5-.1c2.2-.2 4.4.8 5.9 2.5.2.3.3.6.3.9 0 .4-.1.7-.4 1-.5.5-1.4.5-1.9 0-1-1-2.5-1.6-4-1.5-1.1 0-3.1.2-3.1 2 0 1.6 1.8 2.2 4 3 2.8 1 5.9 2 6.1 5.7 0 3.2-2.5 5.2-6.7 5.2-2.5 0-4.9-1-6.6-3-.2-.3-.3-.6-.3-.9 0-.7.6-1.3 1.3-1.3.4.1.7.2 1 .5 1.2 1.2 2.9 1.9 4.6 1.8 1.4 0 3.8-.4 3.8-2.5 0-1.6-1.9-2.2-4-2.9-2.8-1-6-2.1-6-5.7 0-2.9 2.3-4.8 6-4.8Zm60.1 0c5.3 0 8.2 3.2 8.2 9.3 0 6.1-2.9 9.4-8.2 9.4-5.3 0-8.2-3.4-8.2-9.4s2.9-9.3 8.2-9.3ZM48.6 1c.8 0 1.4.6 1.5 1.4 0 .7-.6 1.3-1.4 1.3-3.2 0-3.9 2.2-3.9 4v2H48c.8 0 1.4.6 1.4 1.4 0 .8-.6 1.4-1.4 1.4h-3.2v13.9c0 .9-.6 1.5-1.5 1.5s-1.5-.7-1.5-1.5V12.6h-1c-.8 0-1.4-.6-1.4-1.4 0-.8.6-1.4 1.4-1.4h1v-2c0-3.3 1.8-6.8 6.8-6.8Zm144.2 8.2c2.2-.2 4.4.8 5.9 2.5.2.3.3.6.3.9 0 .7-.5 1.3-1.2 1.4-.4 0-.7-.1-1-.4-1-1-2.5-1.6-4-1.5-1.1 0-3.1.2-3.1 2 0 1.6 1.8 2.2 4 3l.422.15.424.152c2.545.923 5.074 2.048 5.254 5.198 0 3.2-2.5 5.2-6.7 5.2-2.6.1-5-.9-6.7-2.8-.2-.3-.3-.6-.3-.9 0-.7.6-1.3 1.3-1.3.4.1.7.2 1 .5 1.2 1.2 2.9 1.9 4.6 1.8 1.4 0 3.8-.4 3.8-2.5 0-1.6-1.9-2.2-4-2.9-2.8-1-6-2.1-6-5.7 0-2.9 2.3-4.8 6-4.8Zm-133.06.093L60 9.3c.7 0 1.4.6 1.4 1.4 0 .8-.6 1.4-1.4 1.4-3.1 0-5 2.1-5 5.7v8.5c0 .9-.6 1.5-1.5 1.5s-1.5-.7-1.5-1.5V10.9c0-.8.6-1.5 1.5-1.5s1.5.7 1.5 1.5v.8c1.2-1.6 3-2.5 5-2.4ZM98.5 0c.9 0 1.5.7 1.5 1.5v9.8c1.2-1.4 3-2.2 4.8-2.1 4.8 0 7.2 2.4 7.2 7v10.1c0 .9-.6 1.5-1.4 1.5-.9 0-1.5-.7-1.5-1.5v-9.6c0-3.4-1.1-4.8-4.3-4.8-3.2 0-4.8 1.7-4.8 5.1v9.3c0 .9-.7 1.5-1.5 1.5s-1.4-.7-1.4-1.5V1.5c0-.9.6-1.5 1.4-1.5Zm73 0c.8 0 1.4.7 1.4 1.5v15.4l8.6-7c.3-.3.6-.4 1-.4.8 0 1.4.6 1.4 1.4 0 .5-.2.9-.6 1.2l-6 4.8 6.5 8.6c.2.2.3.6.3.9 0 .8-.6 1.4-1.4 1.4-.4 0-.9-.3-1.2-.7l-6.6-8.4-2 1.6v6c0 .8-.7 1.4-1.5 1.4s-1.4-.7-1.4-1.5V1.4c0-.8.7-1.4 1.5-1.4Zm-55.9 9.5c.7-.1 1.2.3 1.4.9l4 11.9 3.4-11.8c.2-.4.5-.8.9-.9.8-.2 1.6.1 1.9.9l3.4 11.8 4.2-11.8c.2-.6.8-1 1.4-1 .8 0 1.4.6 1.6 1.4 0 .2 0 .4-.1.6l-5.6 15.3c-.2.6-.8 1-1.4 1-.6 0-1.2-.4-1.4-1L126 15.6l-3.3 11.2c-.2.6-.8 1-1.4 1-.7 0-1.2-.4-1.4-1l-5.6-15.3c-.1-.2-.1-.4-.1-.6 0-.8.6-1.4 1.4-1.4Zm50.34-.207.26.007c.8 0 1.4.6 1.4 1.4 0 .8-.6 1.4-1.4 1.4-3.1 0-5 2.1-5 5.7v8.5c0 .8-.7 1.4-1.5 1.4s-1.4-.7-1.4-1.5V10.8c0-.8.7-1.4 1.5-1.4s1.4.7 1.4 1.5v.8c1.2-1.6 3-2.5 5-2.4ZM146.8 11.8c-3.5 0-5.3 2.2-5.3 6.7s1.8 6.7 5.3 6.7c3.5.1 5.2-2.3 5.2-6.7s-1.7-6.7-5.2-6.7Zm-76.5.1c-3 0-4.8 1.8-5.1 5h9.7c-.1-3.3-1.6-5-4.6-5Z"/>
</svg>