<svg xmlns="http://www.w3.org/2000/svg" width="128" height="42" viewBox="0 0 128 42">
  <path fill="#607d8b" d="M89.302 11.607c2.511 0 4.505 1.112 5.544 2.347h.162v-1.708h4.39v18.838c0 7.75-4.585 10.916-10.006 10.916-5.103 0-8.174-3.402-9.333-6.185l4.026-1.67c.717 1.708 2.473 3.724 5.302 3.724 3.47 0 5.62-2.134 5.62-6.151v-1.51h-.16c-1.035 1.273-3.03 2.385-5.545 2.385-5.265 0-10.088-4.57-10.088-10.453 0-5.924 4.823-10.533 10.088-10.533Zm-45.088 0c5.82 0 10.562 4.41 10.562 10.496 0 6.042-4.742 10.495-10.562 10.495-5.82 0-10.562-4.453-10.562-10.495 0-6.086 4.742-10.496 10.562-10.496Zm22.786 0c5.82 0 10.562 4.41 10.562 10.496 0 6.042-4.742 10.495-10.562 10.495-5.82 0-10.562-4.453-10.562-10.495 0-6.08 4.742-10.496 10.562-10.496Zm51.51-.004c5.464 0 8.137 4.334 9.01 6.676l.48 1.193-14.075 5.81c1.078 2.106 2.753 3.18 5.103 3.18 2.355 0 3.988-1.154 5.184-2.905l3.589 2.385c-1.159 1.708-3.95 4.651-8.773 4.651-5.981 0-10.448-4.609-10.448-10.495 0-6.242 4.505-10.495 9.93-10.495ZM16.587 0c4.985 0 8.535 1.95 11.203 4.49l-3.152 3.142c-1.913-1.788-4.505-3.18-8.055-3.18-6.58 0-11.726 5.286-11.726 11.845 0 6.558 5.146 11.843 11.726 11.843 4.267 0 6.698-1.708 8.255-3.26 1.262-1.259 2.093-3.057 2.42-5.512l-10.675.004V14.92h15.052c.148.776.224 1.694.224 2.687 0 3.34-.917 7.472-3.87 10.415-2.871 2.981-6.54 4.571-11.402 4.571C7.576 32.593 0 25.278 0 16.297 0 7.315 7.576 0 16.586 0Zm90.052 1.197v30.757h-4.51V1.197h4.51ZM44.214 15.743c-3.19 0-5.938 2.583-5.938 6.36 0 3.738 2.748 6.36 5.938 6.36 3.19 0 5.939-2.627 5.939-6.36 0-3.777-2.749-6.36-5.939-6.36Zm22.786 0c-3.19 0-5.938 2.583-5.938 6.36 0 3.738 2.748 6.36 5.938 6.36 3.19 0 5.939-2.627 5.939-6.36 0-3.777-2.749-6.36-5.939-6.36Zm22.715 0c-3.19 0-5.863 2.702-5.863 6.397 0 3.658 2.673 6.322 5.863 6.322 3.147 0 5.62-2.664 5.62-6.322 0-3.695-2.473-6.397-5.62-6.397Zm28.952-.08c-2.35 0-5.62 2.067-5.502 6.118l9.41-3.895c-.518-1.31-2.075-2.224-3.908-2.224Z"/>
</svg>
