<svg xmlns="http://www.w3.org/2000/svg" width="130" height="40" viewBox="0 0 130 40">
  <path fill="#607d8b" d="M8.738 0a1.778 1.778 0 0 1 1.706 1.243l4.352 13.363H28.5l4.343-13.362A1.779 1.779 0 0 1 34.55 0a1.803 1.803 0 0 1 1.728 1.233l4.576 14.077v.003l.001.003.002.005v.001l2.302 7.084a2.584 2.584 0 0 1-.94 2.896L22.258 39.794l.007-.004.013-.01.012-.01.002-.002.023-.02-.058.047h-.001l-.005.005-.008.006-.01.005-.001.002-.008.004c-.03.022-.063.041-.096.06l-.013.008-.005.002-.01.005-.006.002-.012.005a.42.42 0 0 1-.049.02c-.018.008-.035.017-.053.023h-.002a.07.07 0 0 1-.02.008l-.004.001-.014.004h-.005c-.024.008-.048.013-.073.019l-.03.007h-.003c-.003.001-.006.003-.01.003l-.015.003-.013.001c-.05.007-.098.012-.147.012h-.001l-.073-.003-.071-.008-.016-.002-.015-.003-.01-.002-.004-.001-.029-.007c-.025-.006-.05-.011-.074-.018l-.005-.002a.035.035 0 0 1-.014-.003h-.004l-.01-.005-.011-.004-.05-.021-.054-.022-.011-.005-.011-.005-.008-.004-.014-.009a1.027 1.027 0 0 1-.096-.059l-.008-.005h-.002l-.01-.006L1.069 25.303a2.584 2.584 0 0 1-.94-2.897l2.312-7.09.001-.004v-.001l.001-.002L7.005 1.245A1.815 1.815 0 0 1 8.728 0Zm19.099 16.644H15.458l2.908 8.95 3.277 10.089 6.194-19.039Zm-24.05 1.119-1.72 5.274a.55.55 0 0 0 .2.617l14.12 10.252-12.6-16.143Zm35.72.001-12.605 16.14 14.119-10.25a.551.551 0 0 0 .199-.618l-1.713-5.272Zm-26.193-1.12H5.5L18.884 33.79l-5.57-17.146Zm24.48 0h-7.812l-5.578 17.145L36.196 18.69l1.598-2.047Zm70.017-2.398c4.15 0 5.607 2.246 5.62 5.603v10.618h-1.967l-.511-2.03c-.664 1.494-2.593 2.413-4.598 2.413-2.976 0-4.942-1.608-4.942-4.812 0-3.573 2.477-5.283 7.356-5.283.562 0 1.481.063 1.928.153V19.9c0-1.966-1.009-3.14-3.295-3.14-2.005 0-3.397.664-4.533 1.327l-.984-1.71a9.224 9.224 0 0 1 5.926-2.131ZM61.274 9.338c2.35 0 4.547.766 6.169 2.195l-1.2 2.08c-1.035-.829-2.632-1.646-5.097-1.646-4.176 0-7.024 2.693-7.011 8.245 0 5.45 2.758 8.04 6.87 8.04 1.495 0 2.593-.255 3.232-.574l-.064-6.19H59.32v-2.565h7.599v2.565l.064 8.155c-1.43.6-3.614 1.2-6.182 1.2-5.12 0-9.604-2.974-9.604-10.606 0-7.287 4.151-10.899 10.077-10.899Zm19.48.376.013 4.914h4.559V16.9h-4.56v8.295c0 1.965 1.01 3.14 3.296 3.14a7.97 7.97 0 0 0 1.264-.09v2.438a8.965 8.965 0 0 1-1.673.153c-4.15 0-5.607-2.246-5.607-5.603V13.2l-.012-3.485h2.72Zm38.99.007.013 3.548v2.68l.02-.025c.178-.209 1.5-1.672 3.812-1.672 4.087 0 6.398 2.999 6.411 7.53 0 5.73-2.503 9.048-7.701 9.048-2.03 0-3.895-.307-5.262-.88l-.013-20.229h2.72ZM91.46 9.717l.013 18.174h8.493v2.565H88.689l-.013-20.739h2.784Zm-17.624 4.914v15.825h-2.72V14.631h2.72Zm49.536 2.339c-1.495 0-2.67.574-3.615 1.366v9.584c.69.32 1.61.447 2.657.447 3.014 0 4.687-2.055 4.687-6.42 0-3.075-1.035-4.977-3.73-4.977Zm-14.629 5.852c-3.04 0-4.47.983-4.47 3.038 0 1.365.856 2.412 2.976 2.412a4.752 4.752 0 0 0 3.448-1.455h.013v-3.842c-.472-.089-1.392-.153-1.967-.153Zm-74.18-20.27-3.919 12.054h7.836L34.562 2.552Zm-25.838 0-3.91 12.054h7.836L8.725 2.552Zm65.11 7.178v2.718h-2.72V9.73h2.72Z"/>
</svg>
