<svg xmlns="http://www.w3.org/2000/svg" width="49" height="49" viewBox="0 0 49 49">
  <path fill="#607d8b" d="M24.5 49c-.244 0-.486-.004-.728-.011l5.007-13.761h6.89c1.21 0 2.538-.93 2.951-2.066l5.432-14.92c.89-2.443-.51-4.442-3.11-4.442h-9.559l-8.02 22.04h-.004l-4.547 12.495C8.024 45.77 0 36.073 0 24.5 0 13.261 7.568 3.79 17.885.904L13.193 13.8l-7.8 21.428h5.192l6.633-18.208h3.902l-6.633 18.208 5.19.001 6.182-16.987c.89-2.443-.51-4.442-3.107-4.442h-4.365L23.399.026C23.764.01 24.13 0 24.5 0 38.031 0 49 10.969 49 24.5 49 38.03 38.031 49 24.5 49Zm14.824-31.993h-3.901l-5.464 14.99h3.902l5.463-14.99Z"/>
</svg>
