<svg xmlns="http://www.w3.org/2000/svg" width="100" height="40" viewBox="0 0 100 40">
  <path fill="#607d8b" d="M0 0v2.737h19.465V0H0Zm22.223 0v2.737H49.96S47.128 0 43.375 0H22.223Zm33.18 0v2.737h16.781L71.188 0H55.403Zm28.812 0-.996 2.737h16.629V0H84.215ZM0 5.322V8.06h19.465V5.322H0Zm22.223.004v2.733H53.18s-.361-2.107-.992-2.733H22.223Zm33.18 0v2.733h18.62l-.921-2.733h-17.7Zm26.82 0-.922 2.733H99.85V5.326H82.223ZM5.594 10.644v2.74h8.43v-2.74h-8.43Zm22.222 0v2.74h8.43v-2.74h-8.43Zm16.63 0v2.74h8.43s.535-1.447.535-2.74h-8.965Zm16.55 0v2.74h14.946l-.996-2.74h-13.95Zm19.39 0-1 2.74h15.02v-2.74h-14.02ZM5.595 15.97v2.737h8.43V15.97h-8.43Zm22.222 0v2.737h21.532s1.8-1.404 2.375-2.737H27.816Zm33.18 0v2.737h8.43v-1.524l.535 1.524h15.442l.574-1.524v1.524h8.43V15.97H78.583l-.84 2.319-.844-2.319H60.996ZM5.594 21.292v2.738h8.43v-2.738h-8.43Zm22.222 0v2.738h23.907c-.574-1.329-2.375-2.738-2.375-2.738H27.816Zm33.18 0v2.738h8.43v-2.738h-8.43Zm9.962 0 1.019 2.738h11.577l.97-2.738H70.957Zm15.019 0v2.738h8.43v-2.738h-8.43ZM5.594 26.615v2.737h8.43v-2.737h-8.43Zm22.222 0v2.737h8.43v-2.737h-8.43Zm16.63 0v2.737h8.964c0-1.292-.535-2.737-.535-2.737h-8.43Zm16.55 0v2.737h8.43v-2.737h-8.43Zm11.875 0 .989 2.737h7.762l.996-2.737H72.87Zm13.106 0v2.737h8.43v-2.737h-8.43ZM.152 31.937v2.74h19.465v-2.74H.152Zm22.07 0v2.74h29.966c.63-.627.992-2.74.992-2.74H22.223Zm33.333 0v2.74h13.871v-2.74h-13.87Zm19.235 0 1.015 2.74h3.95l.953-2.74H74.79Zm11.187 0v2.74H100v-2.74H85.977ZM.152 37.263V40h19.465v-2.737H.152Zm22.07 0v2.733h21.153c3.753 0 6.586-2.733 6.586-2.733H22.223Zm33.333 0V40h13.871v-2.737h-13.87Zm21.16 0 .977 2.729.168.004.992-2.733h-2.137Zm9.262 0V40H100v-2.737H85.977Z"/>
</svg>
