<?xml version="1.0" encoding="UTF-8"?>
<svg width="189px" height="40px" viewBox="0 0 189 40" version="1.1" xmlns="http://www.w3.org/2000/svg" xmlns:xlink="http://www.w3.org/1999/xlink">
    <title>Moody’s_logo</title>
    <g id="Teleport-SSH-Page" stroke="none" stroke-width="1" fill="none" fill-rule="evenodd">
        <g id="Reusable-Blocks" transform="translate(-469.000000, -1181.000000)" fill="#607d8b" fill-rule="nonzero">
            <g id="Moody’s_logo" transform="translate(469.000000, 1181.000000)">
                <path d="M65.2846939,38.221672 C58.6233578,38.8071657 55.3719394,32.5021847 54.8644506,26.4316924 C54.170834,18.1299155 58.4619502,14.848529 62.6047458,14.484416 C68.935996,13.9309642 72.4084411,20.029129 72.9333794,26.3268278 C73.6022758,34.3984853 69.6470621,37.8327993 65.2846939,38.221672 Z M49.761934,26.5889892 C49.761934,34.0372852 55.0665736,40 64.0050659,40 C72.1336119,40 78.0271712,34.210603 78.0271712,26.2394407 C78.0271712,19.0154384 73.2925477,12.706088 64.0050659,12.706088 C55.6380439,12.706088 49.761934,18.7357996 49.761934,26.5889892 L49.761934,26.5889892 Z M174.490764,5.81998252 C174.490764,2.74978153 172.425909,0.152927469 170.044056,0.152927469 C167.804707,0.152927469 167.279769,1.68511506 167.279769,2.58520245 C167.279769,3.68919313 168.041729,4.17273522 168.831318,4.23536266 C169.936451,4.30235945 171.716297,5.29711622 171.716297,7.54733469 C171.716297,9.96067579 169.476948,11.6195747 167.33648,12.6201573 C167.05438,13.0308768 167.278315,13.6338479 167.740726,13.8610545 C171.368762,12.7468686 174.490764,9.89804835 174.490764,5.82143897 M184.313363,24.9898048 L180.742037,23.0978736 C178.434344,21.8584329 176.897337,20.5534518 176.897337,18.4488785 C176.897337,16.4360618 178.155153,14.4115934 181.556346,14.4115934 C184.960447,14.4115934 186.455285,17.432275 186.9366,19.497524 C187.207067,19.9053306 188.24531,19.8470725 188.440163,19.3839208 C188.473608,16.8438683 188.073724,14.5921934 187.611313,13.5872415 C185.656972,13.2435188 184.266831,12.706088 182.241238,12.706088 C176.434926,12.706088 173.174783,15.7136615 173.174783,20.029129 C173.174783,23.3411011 175.555181,25.6437518 178.326739,27.113312 L180.915078,28.4809205 C184.213028,30.1937081 184.960447,32.1453539 184.960447,34.0372852 C184.960447,36.7506554 183.059909,38.2959511 180.118218,38.2959511 C176.250252,38.2959511 173.718624,34.1013691 173.248943,31.9676668 C172.840334,31.4287795 171.979494,31.488494 171.751196,32.0958345 C171.751196,35.2199243 172.437542,37.3478008 172.962481,38.1692397 C173.769519,38.753277 176.085936,40 179.591826,40 C185.306528,40 189,37.1074862 189,32.5021847 C189,28.540635 186.39712,26.0544713 184.313363,24.9898048 M124.140311,37.7556073 C119.732865,37.7556073 119.168665,35.8622196 119.168665,32.0958345 L119.168665,18.0221381 C119.168665,16.7113312 119.168665,15.9598019 119.501659,15.7136615 C119.972795,15.3131372 121.070658,15.0728226 122.979921,15.0728226 C129.490028,15.0728226 134.448587,18.8552287 134.448587,26.1200117 C134.448587,33.3192543 131.051756,37.7556073 124.138857,37.7556073 L124.140311,37.7556073 Z M131.627588,14.6606467 C128.918558,13.708127 126.085927,13.3614914 122.85632,13.3614914 C118.194403,13.3614914 114.954617,13.4780076 111.720649,13.708127 C111.207343,13.8829013 111.141908,15.0101952 111.658121,15.1893388 L113.387073,15.4223711 C114.721958,15.5971454 114.774306,16.6020973 114.774306,20.4427614 L114.774306,32.9813574 C114.774306,37.0477716 114.544555,37.280804 112.065276,37.6944364 L110.964505,37.8692106 C110.567529,38.1692397 110.627148,39.1800175 111.076472,39.3475095 C113.041687,39.2417599 115.009262,39.1859114 116.977302,39.1800175 C117.845413,39.1800175 118.940368,39.2368191 120.077492,39.2936207 C121.298955,39.4203321 122.636748,39.4742208 123.903289,39.4742208 C126.782452,39.4742208 130.010604,39.0154384 132.610575,37.6347218 C137.234686,35.2199243 139.590364,30.9059132 139.590364,26.2394407 C139.590364,20.7995922 136.875517,16.4870376 131.627588,14.6606467 L131.627588,14.6606467 Z M164.372978,13.3614914 C162.738544,13.4780076 161.52726,13.5289834 160.25054,13.5289834 C158.934559,13.5289834 157.612761,13.4765511 155.886718,13.3614914 C155.30216,13.5886979 155.246904,14.5368482 155.760209,14.8281387 L156.974401,15.0101952 C158.373267,15.1893388 158.245305,15.7136615 157.381556,17.3696475 L155.073863,21.6923973 C154.099601,23.5712205 153.227127,24.9898048 152.302305,26.5889892 C151.391385,24.983032 150.528703,23.3501022 149.715421,21.6923973 L147.572044,17.4919895 C146.638497,15.6481212 146.830441,15.3131372 148.089712,15.0101952 L148.90402,14.8281387 C149.474036,14.5368482 149.308266,13.5886979 148.838585,13.3614914 C145.438111,13.5840947 142.026755,13.5840947 138.626281,13.3614914 C138.174049,13.5289834 138.059173,14.4771337 138.451786,14.8281387 L139.956803,15.1194291 C141.448733,15.4223711 142.039107,15.9598019 143.243121,18.3148849 L147.451352,26.2933294 C148.90402,29.0096126 149.065428,29.4815031 149.065428,31.3239149 L149.065428,33.5522866 C149.065428,37.0477716 148.838585,37.4060588 146.359306,37.6944364 L144.922632,37.8692106 C144.509662,38.1692397 144.563464,39.1800175 145.036054,39.3475095 C147.631663,39.2368191 149.427505,39.1800175 151.27424,39.1800175 C153.04827,39.1800175 154.960441,39.2368191 157.490615,39.3475095 C157.960297,39.1800175 158.018462,38.1692397 157.612761,37.8706671 L156.168817,37.6958928 C153.690992,37.4060588 153.449608,37.0477716 153.449608,33.5522866 L153.449608,30.364113 C153.449608,28.6586076 153.573208,28.070201 155.652604,24.7028838 L159.226838,18.7838625 C161.015408,15.8389164 161.301871,15.4806292 163.099166,15.1194291 L164.477675,14.8281387 C164.94881,14.5368482 164.822302,13.5289834 164.372978,13.3614914 M96.2720489,38.221672 C89.6121669,38.8071657 86.3578402,32.5021847 85.8518055,26.4316924 C85.158189,18.1299155 89.4507592,14.848529 93.5921007,14.484416 C99.9248051,13.9309642 103.392888,20.029129 103.916372,26.3268278 C104.591085,34.3984853 100.637325,37.8327993 96.2720489,38.221672 Z M94.9924209,12.7046315 C86.6312153,12.7046315 80.7492889,18.7357996 80.7492889,26.5889892 C80.7492889,34.0372852 86.0510203,40 94.9924209,40 C103.120967,40 109.014526,34.210603 109.014526,26.2394407 C109.014526,19.0154384 104.285719,12.706088 94.9924209,12.706088 L94.9924209,12.7046315 Z M47.1256095,37.6944364 C44.418033,37.4060588 44.4718356,35.8607632 44.298795,32.9201864 C43.8320216,24.4013982 43.7753108,13.4765511 43.658981,7.20943781 C43.6037243,3.0789397 44.0661353,2.01572968 47.6941715,1.58753277 L48.9156346,1.47538596 C49.2093674,1.23652782 49.2093674,0.235945237 48.8647403,0 C47.0616281,0.116516167 45.1669062,0.16749199 43.7229624,0.16749199 C42.5669348,0.16749199 41.3614671,0.16749199 39.3911308,0 C39.274801,2.71919604 37.6650872,5.97290999 35.0098591,11.3399359 L29.5830731,22.6230702 C28.1449458,25.6437518 26.6980937,28.7256044 25.1407283,31.488494 L25.0287608,31.488494 C23.632803,28.8872706 22.3706245,26.1724439 21.0444646,23.4037285 L14.4660134,9.74949024 C12.6847131,5.97145354 11.2320445,2.30119429 11.4661583,0 C9.55980341,0.16749199 8.00534624,0.16749199 6.67482396,0.16749199 C5.23524247,0.16749199 3.85237178,0.117972619 2.1190575,0 C1.65228411,0.235945237 1.59557333,1.1214681 1.88930612,1.47538596 L2.80540342,1.58898922 C6.32583451,2.18613458 6.80133263,2.94785902 6.67336983,6.6749199 C6.50875763,11.0673353 6.29644315,15.4578272 6.03646409,19.8456161 C5.69910762,25.7034664 5.41409957,28.9484416 5.06220187,32.857559 C4.71321242,36.9851442 3.90472019,37.4060588 1.48506,37.6944364 L0.215610876,37.8692106 C-0.143557433,38.1692397 -0.0199570026,39.0649578 0.336303061,39.3475095 C2.29261899,39.2377629 4.25157773,39.1819112 6.21095881,39.1800175 C8.40377586,39.1800175 10.6605743,39.2368191 12.6207317,39.3475095 C13.0249778,39.1800175 13.086051,38.2289543 12.6847131,37.8706671 L10.4889878,37.6958928 C8.23073526,37.5240315 7.89337879,36.5773376 7.89337879,32.2021555 C7.89337879,27.1846781 8.12167605,21.9108651 8.29471666,18.3148849 C8.47648199,14.8863967 8.64661435,11.4549956 8.86618688,7.79347509 L8.98542494,7.79347509 C10.2534199,10.5141276 11.4661583,13.5886979 12.6847131,16.3020682 L17.8642982,27.7133702 C19.1933664,30.6058841 21.9605619,36.4054763 22.9551818,39.5266531 C23.064241,39.710166 23.3579738,39.7669677 23.4684871,39.7669677 C23.7055091,39.7669677 23.9308982,39.710166 24.0370491,39.5266531 C25.0840175,36.8103699 27.6868971,31.2656569 30.2723273,26.0544713 L35.4082887,15.7136615 C36.5643163,13.4168366 38.7484086,8.68628022 39.1599253,8.03815904 L39.274801,8.03815904 L39.4492957,32.6755025 C39.4492957,36.459365 39.4492957,37.4060588 36.6253894,37.6944364 L34.9633272,37.8692106 C34.6085212,38.2289543 34.665232,39.0649578 35.0738405,39.3475095 C37.4295193,39.2368191 40.0294907,39.1800175 42.0419965,39.1800175 C44.1243002,39.1800175 46.4945203,39.2368191 48.8647403,39.3475095 C49.2617158,39.1144771 49.3169724,38.2289543 48.979616,37.8706671 L47.1256095,37.6958928" id="Shape"></path>
            </g>
        </g>
    </g>
</svg>