<svg xmlns="http://www.w3.org/2000/svg" width="120" height="34" viewBox="0 0 120 34">
  <path fill="#607d8b" d="m32.036.202-8.77 23.725a1.68 1.68 0 0 1-1.58 1.092h9.24a1.68 1.68 0 0 0 1.58-1.092L41.277.202h-9.24Zm-21.612 8.09a1.68 1.68 0 0 0-1.583 1.091L.054 33.107h9.257l8.787-23.724a1.68 1.68 0 0 1 1.585-1.091h-9.259Zm9.026 1.102-3.098 8.312 2.317 6.208a1.717 1.717 0 0 0 1.613 1.105h.002c.741 0 1.374-.462 1.612-1.105l3.1-8.31-2.318-6.21a1.713 1.713 0 0 0-1.614-1.104 1.71 1.71 0 0 0-1.614 1.104m69.065 4.83c-2.581 0-3.836 1.365-3.836 4.174 0 2.52 1.513 4.086 3.946 4.086a20.2 20.2 0 0 0 1.732-.092V14.39c-.73-.112-1.316-.166-1.842-.166m.023 10.296c-4.085 0-6.621-2.32-6.621-6.058 0-3.882 2.34-6.295 6.11-6.295l.318-.001c.472 0 1.124.013 2.012.124V7.605h2.667v16.493s-2.531.422-4.486.422m-36.491-.377L44.85 11.827l-.002 12.316H42.34V8.553h3.51l7.2 12.206V8.553h2.535v15.59zm22.921.239c-1.21 0-2.475-.132-3.98-.417l-.159-.03v-2.178l.239.05c1.324.277 2.468.516 3.614.516.926 0 3.081-.144 3.081-1.48 0-1.12-1.489-1.4-2.686-1.624L75 19.205a15.092 15.092 0 0 1-.612-.129c-1.754-.447-3.627-1.118-3.627-3.423 0-2.249 1.816-3.538 4.982-3.538 1.519 0 2.622.16 3.508.29l.432.064v2.11l-.23-.04c-1.003-.18-2.179-.367-3.311-.367-1.254 0-2.75.231-2.75 1.328 0 .91 1.222 1.17 2.638 1.472 1.976.422 4.428.946 4.428 3.59 0 2.428-2 3.82-5.49 3.82m26.465-5.826c-2.275 0-3.685.328-3.685 1.963 0 1.89 1.798 2.049 3.486 2.049.632 0 1.765-.079 2.111-.105V18.62c-.489-.02-1.76-.064-1.912-.064m-.93 5.827c-2.76 0-5.313-.476-5.313-3.93 0-3.754 3.949-3.754 6.31-3.754.235 0 1.345.048 1.686.063-.003-2.107-.032-2.61-3.15-2.61-1.235 0-2.607.24-3.818.453l-.232.04v-2.08l.158-.032a20.85 20.85 0 0 1 4.137-.419c3.02 0 5.581.3 5.581 3.974v8.014l-.184.018c-2.093.23-3.754.263-5.175.263M64.05 18.556c-2.275 0-3.685.328-3.685 1.963 0 1.89 1.8 2.049 3.487 2.049.632 0 1.764-.079 2.112-.105V18.62c-.49-.02-1.76-.064-1.913-.064m-.93 5.827c-2.76 0-5.314-.476-5.314-3.93 0-3.754 3.95-3.754 6.31-3.754.236 0 1.346.048 1.687.063-.003-2.107-.031-2.61-3.148-2.61-1.237 0-2.61.24-3.82.453l-.233.04v-2.08l.158-.032a20.847 20.847 0 0 1 4.137-.419c3.023 0 5.582.3 5.582 3.974v8.014l-.185.018c-2.091.23-3.754.263-5.174.263m51.753-10.166c-2.706 0-4.078 1.353-4.078 4.02 0 3.432 2.048 4.151 3.77 4.151.416 0 .889 0 1.93-.128v-7.97c-.816-.053-1.192-.073-1.622-.073Zm1.597 15.221v-5.112c-1.04.142-1.593.142-2.04.142-1.054 0-2.226-.225-3.134-.602-2.03-.826-3.243-2.93-3.243-5.628 0-1.35.336-3.812 2.576-5.139 1.12-.658 2.45-.94 4.444-.94.714 0 1.679.055 2.611.107l1.512.076v15.912l-2.726 1.184Z"/>
</svg>
