<svg xmlns="http://www.w3.org/2000/svg" width="120" height="19" viewBox="0 0 120 19">
  <path fill="#607d8b" d="M99.312 14.214 99.079.57h4.242v17.198h-6.1L92.986 3.655h-.093l.237 14.113h-4.219V.57h6.367l3.941 13.644zM22.175 2.182l-2.348 15.767h-4.629L18.374.57h7.625l3.166 17.379h-4.612L22.271 2.182zm19.988 11.674L44.281.57h6.991l.37 17.379h-4.284l-.113-15.625h-.089l-2.865 15.625h-4.348L37.074 2.324h-.092l-.106 15.625h-4.294L32.962.57h6.994l2.115 13.286zm-34.182-.81c.168.42.117.963.038 1.29-.144.576-.531 1.167-1.67 1.167-1.075 0-1.726-.626-1.726-1.578v-1.681H.024l-.003 1.344c0 3.874 3.008 5.045 6.233 5.045 3.101 0 5.654-1.073 6.058-3.971.21-1.501.052-2.484-.017-2.856-.723-3.638-7.23-4.725-7.713-6.758a2.315 2.315 0 0 1-.018-.917c.12-.552.494-1.164 1.567-1.164 1 0 1.593.629 1.593 1.577v1.074h4.273v-1.22C11.997.612 8.646.022 6.22.022 3.17.02.679 1.042.223 3.87c-.124.781-.14 1.476.037 2.348.75 3.547 6.837 4.576 7.721 6.827Zm55.737-.031c.168.417.113.945.037 1.272-.14.576-.524 1.157-1.655 1.157-1.059 0-1.706-.626-1.706-1.557l-.004-1.668h-4.55l-.007 1.328c0 3.835 2.981 4.992 6.171 4.992 3.067 0 5.596-1.06 5.997-3.93.21-1.49.062-2.46-.014-2.824-.72-3.603-7.158-4.68-7.638-6.695a2.227 2.227 0 0 1-.017-.9c.123-.56.49-1.153 1.552-1.153.994 0 1.573.611 1.573 1.556v1.063H67.7V4.447C67.7.702 64.376.115 61.97.115c-3.016 0-5.486 1.007-5.932 3.818a6.04 6.04 0 0 0 .041 2.32c.737 3.513 6.765 4.535 7.639 6.762Zm14.396 2.335c1.189 0 1.559-.834 1.641-1.261.034-.188.045-.438.041-.664V.563h4.335v12.466c.01.32-.02.976-.038 1.14-.305 3.245-2.834 4.297-5.983 4.297-3.152 0-5.685-1.052-5.986-4.297a16.762 16.762 0 0 1-.038-1.14V.563h4.331v12.859c0 .225.007.479.042.663.095.427.455 1.265 1.655 1.265Zm35.758-.184c1.24 0 1.676-.796 1.755-1.258.03-.198.04-.441.037-.66v-2.523h-1.758V8.19h6.08v4.666c-.004.327-.01.567-.062 1.147-.285 3.161-2.992 4.29-6.028 4.29-3.043 0-5.743-1.129-6.034-4.29-.048-.58-.055-.82-.062-1.147l.003-7.317c0-.31.038-.855.072-1.146.38-3.249 2.978-4.295 6.021-4.295 3.04 0 5.702 1.04 6.018 4.295.054.552.037 1.146.037 1.146v.58h-4.32v-.972a4.404 4.404 0 0 0-.056-.66c-.072-.386-.4-1.269-1.71-1.269-1.25 0-1.614.834-1.706 1.268-.052.23-.072.539-.072.82v7.95c-.004.219.01.462.044.66.069.455.5 1.25 1.741 1.25Z"/>
</svg>
