<svg xmlns="http://www.w3.org/2000/svg" width="138" height="34" viewBox="0 0 138 34">
  <path fill="#607d8b" d="M12.052 21.924a1.911 1.911 0 0 1 1.347-.24 2.014 2.014 0 0 1 1.653 2.01v8.05a1.96 1.96 0 0 1-.96 1.76 1.969 1.969 0 0 1-2.008 0 1.96 1.96 0 0 1-.96-1.76V27.2l-3.811 2.28a1.936 1.936 0 0 1-2.694-.747 2.085 2.085 0 0 1 .722-2.792Zm7.864-.203a1.95 1.95 0 0 1 1.513.201l6.739 4.017a2.081 2.081 0 0 1 .724 2.792 1.94 1.94 0 0 1-1.191.95 1.95 1.95 0 0 1-1.514-.202l-3.775-2.25v4.515a1.96 1.96 0 0 1-.964 1.76 1.983 1.983 0 0 1-2.016 0 1.96 1.96 0 0 1-.964-1.76V23.89c-.04-.423.049-.848.256-1.22a1.94 1.94 0 0 1 1.192-.95ZM1.92 11.53a1.957 1.957 0 0 1 1.514.2l6.739 4.004c.616.39.99 1.066.99 1.791 0 .726-.374 1.4-.99 1.792l-6.74 4.002a1.956 1.956 0 0 1-1.513.2 1.937 1.937 0 0 1-1.192-.945 2.07 2.07 0 0 1 .725-2.784l3.815-2.265-3.815-2.266a2.069 2.069 0 0 1-.725-2.782 1.93 1.93 0 0 1 1.192-.946Zm27.673.2a1.956 1.956 0 0 1 1.513-.2c.51.141.941.483 1.19.947.549.97.23 2.196-.724 2.782l-3.815 2.266 3.815 2.266a2.07 2.07 0 0 1 .725 2.783c-.25.463-.68.805-1.191.946-.51.14-1.058.068-1.513-.201l-6.74-4.002a2.05 2.05 0 0 1-.989-1.784 2.05 2.05 0 0 1 .99-1.8Zm69.354-6.09c.37 0 .672.268.674.599v16.266a.579.579 0 0 1-.326.52.73.73 0 0 1-.669 0 .579.579 0 0 1-.326-.52V6.238c-.002-.323.285-.589.647-.6Zm-26.155 5.865a.618.618 0 0 1 .456.001c.145.059.258.17.312.308l3.465 9.075.05-.124.066.185-.017.045-.03.074.005.013.017-.04.032-.074.018-.04 2.729-6.253a.656.656 0 0 1 .57-.357.666.666 0 0 1 .593.357l2.73 6.252.05.114.017.041.016-.042.008-.02.036-.096 3.454-9.11c.12-.281.463-.42.767-.31.303.128.445.453.323.74L84.424 22.7a.647.647 0 0 1-.222.285.548.548 0 0 1-.347.12h-.074a.613.613 0 0 1-.495-.38l-2.821-6.457-.02.045-.003.006-2.775 6.38a.087.087 0 0 0-.024.05.582.582 0 0 1-.52.356.75.75 0 0 1-.223-.047.133.133 0 0 1-.099-.048.442.442 0 0 1-.247-.262l-4.059-10.507c-.12-.28.009-.599.297-.738Zm55.834.378a5.993 5.993 0 0 1 5.962-.215c1.878.993 3.046 2.903 3.043 4.977v.074a.541.541 0 0 1-.176.394.576.576 0 0 1-.414.151h-9.887l.008.111-.002.002v.006c.075 2.456 2.096 4.437 4.627 4.535h.57c1.647-.116 3.117-1.05 3.884-2.47a.56.56 0 0 1 .35-.262.577.577 0 0 1 .438.065c.277.19.362.553.197.84-.982 1.75-2.82 2.888-4.87 3.016h-.573c-3.315-.13-5.906-2.823-5.81-6.04-.162-2.069.856-4.058 2.653-5.184Zm-75.39-.42c2.598.055 4.662 2.172 4.622 4.738v6.334a.55.55 0 0 1-.273.495.564.564 0 0 1-.57 0 .55.55 0 0 1-.273-.495V16.2a3.507 3.507 0 0 0-.998-2.516 3.591 3.591 0 0 0-2.507-1.08c-1.967.058-3.53 1.652-3.528 3.596v6.43a.54.54 0 0 1-.116.262.492.492 0 0 1-.419.214h-.138a.611.611 0 0 1-.372-.31.09.09 0 0 1-.023-.072.082.082 0 0 0-.024-.047V12.033a.54.54 0 0 1 .264-.494.552.552 0 0 1 .564 0 .539.539 0 0 1 .264.494v1.12a4.566 4.566 0 0 1 3.528-1.692Zm12.162-.486c3.215.165 5.698 2.869 5.57 6.065a5.546 5.546 0 0 1-2.627 5.233 5.625 5.625 0 0 1-5.887 0 5.546 5.546 0 0 1-2.627-5.233c-.119-3.193 2.36-5.891 5.57-6.065Zm47.038.08a.584.584 0 0 1 .59 0 .57.57 0 0 1 .283.514v10.941a.57.57 0 0 1-.282.514.584.584 0 0 1-.591 0 .571.571 0 0 1-.283-.514v-1.805l-.063.086-.043.058a5.452 5.452 0 0 1-4.328 2.256c-3.231-.157-5.729-2.866-5.591-6.065-.138-3.2 2.36-5.908 5.591-6.065a5.431 5.431 0 0 1 4.328 2.232c.015.018.028.038.042.056.02.03.043.06.064.089V11.57a.571.571 0 0 1 .283-.513ZM94.646 5.64l.205.009c.025 0 .05.001.075.004a.742.742 0 0 1 .076-.004h.19a.62.62 0 0 1 .607.614.62.62 0 0 1-.607.613h-.19a.55.55 0 0 1-.08-.005.43.43 0 0 1-.07.005 1.88 1.88 0 0 0-1.516.461 3.245 3.245 0 0 0-.492 2.034v1.304h1.703a.589.589 0 0 1 .43.16c.115.11.18.26.177.416a.63.63 0 0 1-.607.652h-1.703v10.591a.57.57 0 0 1-.28.53.6.6 0 0 1-.611 0 .57.57 0 0 1-.281-.53V11.902H90.08a.64.64 0 0 1-.605-.652.57.57 0 0 1 .178-.412.598.598 0 0 1 .427-.164h1.59V9.37a4.141 4.141 0 0 1 .795-2.84 3.02 3.02 0 0 1 2.385-.882Zm-52.81 5.337.28.004c1.674 0 3.996 1.83 3.339 2.418-.657.589-1.162-1.314-3.509-1.314-.97 0-2.742.608-2.742 2.087 0 1.166 1.511 1.526 2.912 2.004 2.066.704 4.068 1.237 4.068 3.513a3.163 3.163 0 0 1-1.284 2.525 4.74 4.74 0 0 1-2.96.89 6.439 6.439 0 0 1-2.48-.573c-1.211-.583-1.851-1.178-1.355-1.655.497-.476 1.205 1.04 3.835 1.04.922 0 2.978-.526 2.96-2.227-.012-1.123-1.254-1.648-2.446-2.064l-.338-.117c-1.283-.437-4.267-.857-4.197-3.336a2.67 2.67 0 0 1 1.285-2.414 5.05 5.05 0 0 1 2.912-.777Zm74.2-5.256a.6.6 0 0 1 .602 0 .587.587 0 0 1 .293.52v11.723l.092-.091v.026l.012-.013 6.941-6.95a.546.546 0 0 1 .825 0 .584.584 0 0 1 0 .847l-4.59 4.56.116.147.001-.024.078.096-.012.01 4.432 5.535c.193.23.198.556.025.79l-.074.083a.604.604 0 0 1-.388.125.5.5 0 0 1-.461-.225l-4.139-5.13-.642-.03.19-.197-.035-.043.01-.009.071.003.1-.104-.048-.06v-.002l-.007-.007-.067-.084-.081.083-.002.001-2.347 2.41v2.795a.587.587 0 0 1-.293.52.6.6 0 0 1-.602 0 .587.587 0 0 1-.294-.52V6.24a.587.587 0 0 1 .294-.52Zm-5.947 7.095a4.5 4.5 0 0 0-4.742 0 4.4 4.4 0 0 0-2.063 4.226c-.125 2.555 1.855 4.732 4.435 4.878 2.584-.138 4.568-2.32 4.434-4.878a4.4 4.4 0 0 0-2.064-4.226Zm-42.33 0a4.468 4.468 0 0 0-4.723 0 4.405 4.405 0 0 0-2.055 4.226c-.116 2.551 1.85 4.723 4.417 4.876 2.566-.153 4.533-2.325 4.417-4.876a4.405 4.405 0 0 0-2.055-4.226Zm-50.665.587a.72.72 0 0 1 .461.204l2.658 2.827c.115.137.183.31.191.49v.72a.822.822 0 0 1-.191.491l-2.658 2.827a.724.724 0 0 1-.461.204h-.676a.722.722 0 0 1-.46-.204l-2.659-2.827a.827.827 0 0 1-.191-.49v-.72a.83.83 0 0 1 .191-.491l2.658-2.827a.722.722 0 0 1 .461-.204Zm-.323 2.523h-.03a.539.539 0 0 0-.338.148l-.784.835a.607.607 0 0 0-.14.36v.03c.007.133.056.26.14.361l.784.833c.092.09.212.143.339.15h.03a.53.53 0 0 0 .337-.15l.784-.833a.608.608 0 0 0 .14-.36v-.032a.599.599 0 0 0-.14-.36l-.784-.834a.535.535 0 0 0-.338-.148Zm115.055-3.762c-2.27.049-4.186 1.648-4.573 3.818l-.006.023c-.006.033-.014.064-.019.095h9.124l-.02-.095.001-.002-.004-.021c-.365-2.154-2.253-3.755-4.503-3.818ZM19.432 1.061a1.988 1.988 0 0 1 2.016 0 1.95 1.95 0 0 1 .964 1.756v4.538l3.776-2.243a1.955 1.955 0 0 1 1.513-.201c.51.14.94.482 1.19.946.55.97.23 2.198-.724 2.785l-6.738 4.004a1.956 1.956 0 0 1-1.514.2 1.938 1.938 0 0 1-1.191-.947 2.078 2.078 0 0 1-.256-1.215V2.817a1.952 1.952 0 0 1 .964-1.756Zm-7.348 0a1.974 1.974 0 0 1 2.008 0c.62.366.988 1.04.96 1.756v8.025a2.055 2.055 0 0 1-.633 1.493 1.925 1.925 0 0 1-2.367.309L5.34 8.64a2.076 2.076 0 0 1-.721-2.784 1.941 1.941 0 0 1 2.694-.746l3.811 2.274V2.817c-.027-.716.34-1.39.96-1.756Z"/>
</svg>
