<svg xmlns="http://www.w3.org/2000/svg" width="159" height="40" viewBox="0 0 159 40">
  <path fill="#607d8b" fill-rule="evenodd" d="M33.303 0a6.68 6.68 0 0 1 6.684 6.684v26.63A6.685 6.685 0 0 1 33.303 40H6.681A6.684 6.684 0 0 1 0 33.314V6.684A6.683 6.683 0 0 1 6.681 0h26.622Zm46.88 14.082c2.555 0 4.743 1.1 6.22 3.105v-2.684h2.554v25.493h-2.555v-9.96c-1.458 2.001-3.647 3.096-6.22 3.096-4.857 0-8.252-3.891-8.252-9.51 0-5.618 3.403-9.54 8.253-9.54Zm-20.085-6.94c3.39 0 6.358 1.397 8.362 3.947l.104.132-2.172 1.7-.103-.132c-1.508-1.929-3.752-2.992-6.322-2.992-2.705 0-5.42 1.265-5.42 4.075 0 1.487.783 2.53 2.467 3.284.91.406 2.081.724 3.32 1.061 3.895 1.064 8.748 2.386 8.748 7.49 0 4.46-3.57 7.458-8.879 7.458-3.909 0-7.257-1.687-9.197-4.625l-.09-.134 2.286-1.655.095.147c2.052 3.137 5.317 3.604 7.08 3.604 3.566 0 5.871-1.842 5.871-4.693 0-2.895-2.326-3.656-6.122-4.657-3.752-.973-8.42-2.181-8.42-7.14 0-2.133.889-3.92 2.573-5.153 1.495-1.108 3.563-1.717 5.82-1.717Zm60.13 6.946c4.06 0 6.483 2.02 6.475 5.408v13.228h-2.556v-2.02c-1.29 1.617-3.157 2.436-5.559 2.436-3.913 0-6.345-2.141-6.345-5.584 0-4.477 4.217-5.18 6.014-5.479.293-.048.595-.094.898-.141l.01-.002.434-.067.432-.07c2.15-.356 4.123-.876 4.123-2.714 0-2.358-3.06-2.54-3.996-2.54-1.655 0-3.993.49-5.581 1.868l-.146.127-1.335-2.026.12-.096c1.884-1.48 4.441-2.328 7.012-2.328Zm-24.213.415V25.64c0 3.367 1.342 5.005 4.1 5.005 3.322 0 5.734-2.558 5.734-6.08V14.502h2.556V32.72h-2.555v-2.554c-1.443 1.92-3.57 2.97-6.045 2.97-3.973 0-6.345-2.607-6.345-6.973v-11.66h2.555Zm54.775-.415c4.838 0 8.22 3.495 8.21 8.508a12.66 12.66 0 0 1-.072 1.304l-.015.15h-13.968c.064 4.01 2.477 6.598 6.18 6.598 2.123 0 3.962-.864 5.178-2.434l.11-.143 1.852 1.649-.103.124c-1.23 1.5-3.473 3.29-7.178 3.29-5.219 0-8.73-3.806-8.73-9.473 0-5.636 3.513-9.573 8.536-9.573ZM30.607 7.274H9.382a2.108 2.108 0 0 0-2.109 2.111V30.62a2.11 2.11 0 0 0 2.109 2.11h21.23a2.11 2.11 0 0 0 2.11-2.11l-.006-21.236a2.11 2.11 0 0 0-2.11-2.11Zm108.338 6.882c.997 0 1.953.258 2.56.69l.113.074-.81 2.317-.172-.09a4.723 4.723 0 0 0-2.039-.434c-2.403 0-4.83 1.935-4.83 6.255v9.743h-2.555V14.495h2.555v2.329a6.526 6.526 0 0 1 5.178-2.668Zm-58.557 2.418c-4.25 0-5.765 3.625-5.765 7.017 0 5.201 2.978 7.055 5.765 7.055l.006.002c3.65 0 6.008-2.795 6.008-7.057 0-4.262-2.362-7.017-6.014-7.017Zm43.764 6.218c-1.246.787-3.02 1.095-4.602 1.37l-.026.004-.794.141c-2.533.47-3.82 1.076-3.82 3.106 0 2.918 2.747 3.235 3.929 3.235h.002c2.568 0 5.317-1.37 5.311-5.22v-2.636Zm-99.906-8.274a1.212 1.212 0 0 1 1.21 1.217v8.475a1.213 1.213 0 0 1-1.21 1.217l-8.495-.004a1.21 1.21 0 0 1-1.201-1.21v-8.478a1.211 1.211 0 0 1 1.21-1.217h8.486Zm126.474 2.023c-3.121 0-5.335 2.055-5.68 5.255h11.26c-.222-2.573-1.793-5.255-5.58-5.255Z"/>
</svg>
