<svg xmlns="http://www.w3.org/2000/svg" width="130" height="25" viewBox="0 0 130 25">
  <path fill="#607d8b" d="M26.898 5.578v13.488h-3.16v-1.425c-.727 1.168-2.045 1.838-3.982 1.838-3.213 0-4.806-1.663-4.806-4.277V5.578h3.451v8.684c0 1.398.77 2.234 2.247 2.234 1.725 0 2.786-.977 2.786-2.797V5.58h3.464Zm22.467 4.065v9.423h-3.457v-8.393c0-1.61-.663-2.589-2.15-2.589-1.488 0-2.391 1.121-2.391 2.685v8.297h-3.45v-8.393c0-1.718-.718-2.589-2.151-2.589-1.521.005-2.39 1.121-2.39 2.685v8.297h-3.451V5.578h3.212v1.503c.796-1.293 2.097-1.952 3.876-1.952 1.725 0 3.028.713 3.77 1.98.93-1.322 2.285-1.981 4.064-1.98 2.878 0 4.514 1.742 4.514 4.523l.004-.009Zm27.76 9.423h-3.453V.325h3.454v18.741Zm37.52 0h-3.462V5.578h3.454l.009 13.488Zm-3.52-15.514h3.57V.272h-3.57v3.28Zm16.495 10.92c-1.408 1.505-2.39 2.086-3.691 2.086-1.552 0-2.642-.893-3.145-2.274v-3.942c.516-1.4 1.622-2.31 3.179-2.31 1.141 0 2.069.396 3.53 1.77l2.152-2.113c-1.728-1.874-3.427-2.56-5.682-2.56-3.175 0-5.617 1.649-6.574 4.425v5.53c.943 2.763 3.347 4.404 6.493 4.404 2.442 0 4.143-.792 6.028-3.126l-2.29-1.89ZM7.435 10.769c-.955-.21-1.62-.369-1.99-.474-.481-.138-.827-.308-1.014-.56V8.703c.315-.5 1.083-.804 2.128-.804 1.46 0 2.471.344 4.064 1.583l1.858-2.233C10.596 5.685 8.976 5.136 6.64 5.136c-2.696 0-4.566 1.099-5.303 2.647v3.388c.578 1.148 1.937 1.787 4.638 2.376.957.224 1.62.371 1.992.447.506.145.953.362 1.185.712v1.184c-.337.539-1.153.822-2.196.822a5.368 5.368 0 0 1-2.201-.422c-.674-.264-1.46-.79-2.445-1.584l-1.99 2.22c2.15 1.901 3.983 2.553 6.558 2.553 2.77 0 4.718-1.04 5.466-2.715v-3.438c-.627-1.273-2.139-1.939-4.909-2.557Zm51-5.66c-3.123 0-5.572 1.673-6.571 4.346v5.678c1 2.68 3.448 4.344 6.571 4.344 3.123 0 5.545-1.67 6.545-4.342V9.46c-1.009-2.671-3.453-4.344-6.554-4.344l.01-.007Zm3.195 9.189c-.546 1.434-1.694 2.278-3.204 2.278-1.51 0-2.685-.842-3.224-2.27v-3.984c.54-1.423 1.692-2.291 3.224-2.291 1.533 0 2.658.86 3.195 2.291l.01 3.976Zm24.761-9.182c-3.123 0-5.572 1.673-6.574 4.346v5.671c1.002 2.674 3.451 4.346 6.574 4.346 3.123 0 5.545-1.67 6.545-4.341V9.46c-1-2.671-3.445-4.344-6.545-4.344Zm3.195 9.188c-.537 1.428-1.685 2.272-3.195 2.272-1.51 0-2.696-.842-3.224-2.27v-3.984c.54-1.423 1.692-2.291 3.224-2.291 1.532 0 2.658.86 3.195 2.291v3.982Zm15.385-8.726v1.503c-.876-1.293-2.246-1.952-4.14-1.952-2.564 0-4.638 1.564-5.518 4.038v5.555c.88 2.475 2.954 4.02 5.518 4.02 1.725 0 3.026-.58 3.956-1.715v1.081c0 2.234-1.303 3.274-3.32 3.274-1.513 0-2.735-.446-4.719-1.61l-1.673 2.482a11.707 11.707 0 0 0 6.452 1.978c3.82 0 6.637-2.032 6.637-5.834V5.578h-3.193Zm-.418 8.2c-.523 1.28-1.606 2.068-2.954 2.068s-2.424-.789-2.936-2.066v-3.681c.507-1.271 1.572-2.046 2.936-2.046 1.364 0 2.43.775 2.954 2.046v3.678Z"/>
</svg>
