<svg xmlns="http://www.w3.org/2000/svg" width="163" height="40" viewBox="0 0 163 40">
  <path fill="#607d8b" d="M113.316 19.145c.035-9.563 7.134-12.421 10.807-12.174 2.303.155 4.757 1.482 4.757 1.482V7.43h6.225v17.372l.001.575v.794c0 .404-.005.818-.015 1.238l-.012.423c-.18 5.302-1.492 11.439-10.572 11.991-3.454.13-6.7.17-7.179.176l-.06.001.035-5.399h6.505c2.378 0 5.072-.882 5.072-5.788-2.344 1.977-4.722 2.153-6.086 2.153-2.204 0-9.516-1.412-9.478-11.821ZM88.909 6.957 76.05 39.13H69.3l4.12-9.152-8.916-22.986h6.785l5.506 14.366 5.827-14.401h6.288ZM25.941.149s2.631-.25 4.694 1.108c.747-.036 1.351.286 1.742 1 .392.715 1.102 2.429.534 3.465-.178.214-.57-.643-.57-.643s-.284 1.036-.818 1.429c.072 2.143-.781 3.643-1.03 4.143-.107.286-.036.536.07.822.107.285 1.53 5.321 1.459 7-.071 1.679-.925 3.68-1.6 4.357.141 1.393-.498 2.572-.819 3.144-.32.571-1.03 2.715-1.209 3.714-.177 1-.248 2.073-.035 2.394.213.32 1.174 1.322 1.102 1.821-.071.5-1.102 1.072-1.6 1.072s-1.53-.321-1.778-1c-.249-.679-.285-1.857-.107-2.536s1.387-5.643.676-8.572c-1.743.785-4.659.75-4.659.75s-.051.27-.14.685l-.066.297c-.201.895-.529 2.214-.896 3.125-.133.223-.17 1.256-.178 2.374l-.002.45v.67l.002.828c0 1.536.534 3.929.534 3.929s.747.536.64 1.214c-.107.679-.96 1.072-1.707 1.072-.747 0-1.742-.572-1.742-1.5 0-.929.141-3.036.07-4.572-.07-1.536-.034-2.536-.284-3.5-.249-.965-.96-3.501-1.03-5.465-.25 0-.498-.18-.498-.18s-.568.658-1.19 1.322l-.234.248c-.195.205-.39.403-.568.574.107.536.391 1.5.391 1.714 0 .215.214.394.57.536.355.143 1.457.75 1.422 1.358-.036.607-1.423.714-2.632.179-.284-.143-1.315-3.608-1.458-4.072-.142-.466-.25-.715-.071-1.108.178-.393.676-1.679.604-2.429-.07-.75-1.457-1.929-2.382-1.929-.711 0-1.799 1.091-2.596 1.715-.96.75-2.062 1.893-2.347 2.071-.151.095-.854 1.29-1.544 2.564l-.242.452c-.52.978-.992 1.935-1.166 2.413-.177.465-.533 2.787-2.417 2.715-.854-.072-1.636-1 .782-2.679.614-1.42 1.467-2.894 1.52-3.188.054-.295.694-3.965 1.76-7.447 1.068-3.483 2.641-5.144 2.934-5.385.24-.187.374-.295.134-.428-.24-.134-2.774-2.304-2.294-6.912.08-.535.32-.401.48.83.16 1.233 1.147 4.126 3.334 5.037.213.08 1.787-1.125 9.814-1.714.054-1.42.267-2.92.267-2.92s-.56-.429-.64-1.286c-.267.429-.427.536-.774.482-.346-.054-.32-1.715-.24-2.893.08-1.18 1.44-1.688 1.947-1.741.667-.349 1.387-.295 1.387-.295l.013-.012c.139-.129 1.418-1.204 4.68-.667Zm122.223 6.808c4.366 0 8.137 2.2 8.137 7.413l.001 10.653c.011 1.482.182 2.447 2.653 1.796.131.93.38 2.819.496 3.705l.03.224.032.255s-2.164 1.17-4.12 1.17-3.353-1.205-4.052-2.446c-1.815 1.383-4.19 2.447-6.39 2.447-2.2 0-7.23-1.773-7.23-7.13 0-5.355 4.332-8.476 12.433-8.618 0-1.206.873-4.15-2.898-4.15-2.807 0-5.653 1.474-6.925 2.228l-.22.132c-.3.184-.468.3-.468.3V9.05s4.156-2.092 8.521-2.092Zm-84.782 0L51.767 26.04H63.63v5.263H40.968l12.077-19.048H40.968v-5.3h22.414Zm39.355 0c4.283 0 7.092 3.498 7.092 7.346v17.001h-6.25V15.002c0-3.638-4.178-3.288-7.584 1.575v14.727h-6.214l.02-23.823h6.23V9.51s2.422-2.553 6.706-2.553Zm47.383 14.116c-5.936-.213-6.217 2.873-6.217 3.405 0 .532.28 2.128 2.375 2.128 2.096 0 3.842-1.596 3.842-1.596Zm-25.752-8.88c-3.882 0-4.617 4.623-4.617 7.128 0 2.506.35 5.858 3.778 5.858 3.427 0 5.35-2.823 5.35-2.823V14.24s-1.749-2.047-4.511-2.047Zm36.453-5.236c1.203 0 2.178.973 2.179 2.173a2.177 2.177 0 0 1-2.179 2.174 2.177 2.177 0 0 1-2.18-2.174 2.177 2.177 0 0 1 2.18-2.173Zm0 .346a1.832 1.832 0 0 0-1.832 1.827 1.832 1.832 0 0 0 3.114 1.305h-.304l-.261-.543a5.725 5.725 0 0 0-.19-.36.737.737 0 0 0-.133-.174.35.35 0 0 0-.118-.07.613.613 0 0 0-.146-.012h-.304v1.159h-.262V7.826h.877c.176 0 .31.024.402.07a.5.5 0 0 1 .22.249.92.92 0 0 1 .082.393.784.784 0 0 1-.136.468c-.09.127-.23.208-.421.242a.689.689 0 0 1 .158.13c.076.092.148.208.217.347l.337.692a1.826 1.826 0 0 0-1.3-3.114Zm.452.812h-.626v.862h.562c.12 0 .213-.016.281-.05a.325.325 0 0 0 .153-.155.533.533 0 0 0 .053-.234.45.45 0 0 0-.102-.305c-.067-.08-.175-.118-.321-.118Z"/>
</svg>
