<svg width="93px" height="46px" viewBox="0 0 93 46" version="1.1" xmlns="http://www.w3.org/2000/svg" xmlns:xlink="http://www.w3.org/1999/xlink">
    <title>carta</title>
    <g id="Homepage" stroke="none" stroke-width="1" fill="none" fill-rule="evenodd">
        <g id="Artboard" transform="translate(-923.000000, -250.000000)" fill="currentColor" fill-rule="nonzero">
            <path d="M950.619571,276.586242 C953.182818,276.586242 955.040584,277.230828 956.192869,278.52 C957.009563,279.361734 957.4705,280.484104 957.480372,281.655032 C957.480372,281.73594 957.414569,281.801529 957.333397,281.801529 L957.333397,281.801529 L954.88773,281.801529 C954.818984,281.800169 954.760372,281.751485 954.746634,281.684331 C954.679852,280.902426 954.260237,280.193127 953.606107,279.756433 C952.77314,279.187553 951.774724,278.909401 950.766547,278.96535 C949.167457,278.96535 948.003414,279.42828 947.274417,280.35414 C946.54542,281.28 946.180922,282.774268 946.180922,284.836943 L946.180922,284.836943 L946.180922,287.766879 C946.196599,289.786582 946.561097,291.265223 947.274417,292.202803 C947.987736,293.140382 949.128263,293.609172 950.695998,293.609172 C953.05348,293.609172 954.370377,292.361019 954.752513,290.403822 C954.766251,290.336668 954.824863,290.287984 954.893609,290.286624 L954.893609,290.286624 L957.386308,290.286624 C957.465175,290.289771 957.527447,290.354447 957.527447,290.433121 C957.529432,290.988489 957.460284,291.541841 957.321639,292.079745 C957.142906,292.611868 956.887431,293.115232 956.563247,293.574013 C955.47759,295.191338 953.500284,296 950.631329,296 C948.252292,295.996093 946.451356,295.351507 945.228523,294.066242 C944.005689,292.780977 943.394254,290.868705 943.394254,288.329427 L943.394254,288.329427 L943.394254,284.848662 C943.390353,282.106242 943.99981,280.043567 945.222644,278.660637 C946.445477,277.277707 948.244453,276.586242 950.619571,276.586242 Z M1009.21563,276.609682 C1011.59075,276.609682 1013.38972,277.301146 1014.61255,278.684076 C1015.17106,279.35027 1015.58538,280.124341 1015.82951,280.957707 C1015.90101,281.180266 1015.94639,281.410337 1015.96473,281.643312 C1015.98236,281.865987 1015.99412,282.117962 1016,282.387516 L1016,282.387516 L1016,294.236178 C1015.99292,294.429642 1015.86282,294.597046 1015.67665,294.652229 C1013.97586,295.240494 1012.20849,295.616437 1010.41494,295.771465 C1009.85688,295.834859 1009.29469,295.854452 1008.73355,295.830064 C1006.60535,295.712866 1004.49478,295.314395 1003.48947,294.540892 C1002.34895,293.646285 1001.77866,292.222335 1001.77866,290.269045 C1001.77476,288.179023 1002.37246,286.653503 1003.57178,285.692484 C1004.7711,284.731465 1006.65238,284.250955 1009.21563,284.250955 C1009.68595,284.250955 1010.29148,284.274395 1011.02048,284.321274 C1011.74948,284.368153 1012.47848,284.438471 1013.20747,284.532229 L1013.20747,284.532229 L1013.20747,282.457834 C1013.20747,282.264459 1013.17808,282.065223 1013.17808,281.871847 C1013.13268,281.320106 1012.92855,280.793133 1012.59018,280.35414 L1012.59018,280.35414 L1012.45701,280.195559 C1011.72273,279.37542 1010.60307,278.96535 1009.09805,278.96535 C1008.08808,278.909863 1007.08795,279.187917 1006.25261,279.756433 C1005.61842,280.200196 1005.22733,280.912688 1005.19439,281.684331 C1005.18312,281.753807 1005.12387,281.805476 1005.05329,281.807389 L1005.05329,281.807389 L1002.60762,281.807389 C1002.52645,281.807389 1002.46065,281.7418 1002.46065,281.660892 C1002.43272,280.509173 1002.85424,279.391586 1003.63645,278.543439 C1004.78482,277.254268 1006.64454,276.609682 1009.21563,276.609682 Z M967.533472,276.586242 C969.908591,276.586242 971.707567,277.277707 972.9304,278.660637 C973.488903,279.32683 973.903222,280.100902 974.147354,280.934268 C974.216679,281.164874 974.258125,281.402908 974.270814,281.643312 C974.288451,281.865987 974.300209,282.117962 974.282572,282.387516 L974.282572,282.387516 L974.282572,294.212739 C974.275495,294.406202 974.145392,294.573606 973.959226,294.62879 C972.258434,295.217055 970.491066,295.592997 968.697516,295.748025 C968.139455,295.81142 967.57726,295.831013 967.01612,295.806624 C964.88792,295.689427 962.777356,295.290955 961.772046,294.517452 C960.631519,293.622845 960.061255,292.198896 960.061255,290.245605 C960.061255,288.155584 960.660914,286.630064 961.860231,285.669045 C963.059549,284.708025 964.94279,284.227516 967.509956,284.227516 C967.980277,284.227516 968.579936,284.250955 969.308932,284.297834 C970.037929,284.344713 970.766926,284.415032 971.495923,284.50879 L971.495923,284.50879 L971.495923,281.848408 C971.447625,281.297332 971.2438,280.771142 970.908022,280.330701 L970.908022,280.330701 L970.774859,280.172119 C970.040574,279.35198 968.920918,278.941911 967.415892,278.941911 C966.406025,278.887302 965.406172,279.165279 964.570453,279.732994 C963.936261,280.176756 963.545174,280.889248 963.512232,281.660892 C963.500961,281.730367 963.441718,281.782036 963.371136,281.783949 L963.371136,281.783949 L960.925469,281.783949 C960.844297,281.783949 960.778494,281.71836 960.778494,281.637452 C960.750567,280.485734 961.172085,279.368147 961.954295,278.52 C963.1105,277.230828 964.970226,276.586242 967.533472,276.586242 Z M983.812441,277.066752 C984.11227,276.972994 987.339845,276.252229 987.339845,276.721019 L987.339845,276.721019 L987.339845,279.164586 C987.339845,279.236792 987.282879,279.296224 987.210506,279.299363 L987.210506,279.299363 L986.563816,279.258344 C986.015492,279.256494 985.467615,279.289768 984.923573,279.357962 C983.386117,279.443356 982.025119,280.377127 981.396169,281.778089 C980.9052,282.863644 980.664151,284.044946 980.690688,285.235414 L980.690688,295.367134 C980.690747,295.452276 980.623196,295.522197 980.537834,295.52535 L980.537834,295.52535 L978.033378,295.52535 C977.948016,295.522197 977.880523,295.452276 977.880523,295.367134 L977.880523,295.367134 L977.880523,277.283567 C977.880523,277.199423 977.948959,277.13121 978.033378,277.13121 L978.033378,277.13121 L980.461407,277.13121 C980.501947,277.13121 980.540826,277.147262 980.569491,277.175834 C980.598157,277.204407 980.614261,277.243159 980.614261,277.283567 L980.614261,277.283567 L980.614261,279.504459 C981.272578,278.26583 982.440695,277.375471 983.812441,277.066752 Z M995.106012,271.904204 C995.183937,271.904204 995.247108,271.967169 995.247108,272.044841 L995.247108,272.044841 L995.247108,276.586242 L999.362412,276.586242 C999.400326,276.58456 999.437203,276.598836 999.464038,276.625584 C999.490873,276.652332 999.505196,276.689089 999.503508,276.726879 L999.503508,276.726879 L999.503508,278.947771 C999.503508,279.025442 999.440338,279.088408 999.362412,279.088408 L999.362412,279.088408 L995.276503,279.088408 L995.276503,290.403822 C995.214237,291.122285 995.380872,291.842023 995.752702,292.460637 C996.152771,292.893512 996.735469,293.11104 997.322397,293.046624 L997.322397,293.046624 L999.368291,293.046624 C999.446217,293.046624 999.509387,293.10959 999.509387,293.187261 L999.509387,293.187261 L999.509387,295.367134 C999.509387,295.444805 999.446217,295.507771 999.368291,295.507771 L999.368291,295.507771 L997.075479,295.507771 C995.456792,295.492144 994.282951,295.109299 993.553954,294.359236 C992.824957,293.609172 992.460459,292.425478 992.460459,290.808153 L992.460459,290.808153 L992.460459,279.088408 L989.726721,279.088408 C989.648796,279.088408 989.585625,279.025442 989.585625,278.947771 L989.585625,278.947771 L989.585625,276.726879 C989.585625,276.649207 989.648796,276.586242 989.726721,276.586242 L989.726721,276.586242 L992.460459,276.586242 L992.460459,272.806624 C992.460459,272.728953 992.52363,272.665987 992.601555,272.665987 L992.601555,272.665987 Z M967.739238,286.571465 C965.924584,286.571465 964.670396,286.852739 963.976674,287.415287 C963.282951,287.977834 962.93609,288.917367 962.93609,290.233885 C962.924148,290.730506 963.003859,291.225087 963.17125,291.692994 C963.407107,292.29717 963.900525,292.765359 964.517542,292.970446 C966.772793,293.644112 969.187742,293.559689 971.390101,292.730191 C971.46415,292.703173 971.513437,292.632992 971.513562,292.554395 L971.513562,292.554395 L971.513562,287.046115 C971.514015,286.955496 971.445287,286.879379 971.354826,286.870318 C970.478855,286.770701 968.133131,286.571465 967.739238,286.571465 Z M1009.43315,286.571465 C1007.6185,286.571465 1006.36431,286.852739 1005.67059,287.415287 C1004.97686,287.977834 1004.63,288.917367 1004.63,290.233885 C1004.61806,290.730506 1004.69777,291.225087 1004.86516,291.692994 C1005.10102,292.29717 1005.59444,292.765359 1006.21145,292.970446 C1008.46671,293.644112 1010.88165,293.559689 1013.08401,292.730191 C1013.15601,292.700574 1013.2042,292.631965 1013.20747,292.554395 L1013.20747,292.554395 L1013.20747,287.046115 C1013.20532,286.956507 1013.13792,286.881858 1013.04874,286.870318 C1012.17277,286.770701 1009.82704,286.571465 1009.43315,286.571465 Z M943.635312,250 C951.466148,255.725096 958.274038,259.276178 964.106012,261.467771 C964.546937,261.631847 964.976105,261.790064 965.405272,261.936561 L966.287123,262.235414 C966.78096,262.39949 967.263038,262.557707 967.739238,262.692484 L968.444718,262.903439 C968.956192,263.049936 969.455907,263.190573 969.949744,263.313631 C970.226057,263.383949 970.496492,263.454268 970.766926,263.512866 C971.03736,263.571465 973.159681,264.028535 973.341931,264.063694 L974.29433,264.227771 C975.581832,264.444586 976.804665,264.596943 977.968709,264.696561 L978.838801,264.772739 C978.838801,264.772739 980.102788,264.860637 980.690688,264.884076 L981.125735,264.884076 C983.847715,264.983694 986.169922,264.884076 988.13351,264.884076 L988.204058,264.895796 C950.695998,276.369427 923,264.895796 923,264.895796 L943.635312,250 Z M973.800493,253.369427 L989.597383,263.78828 L988.104115,263.78828 C986.140527,263.78828 983.81832,263.893758 981.09634,263.78828 L980.661293,263.78828 C980.073393,263.78828 978.827043,263.676943 978.809406,263.676943 L977.939313,263.600764 C976.763512,263.501146 975.552437,263.34879 974.264935,263.131975 L973.312536,262.967898 L972.795183,262.89172 C972.465959,262.827261 971.078513,262.522548 970.766926,262.446369 C970.455339,262.370191 970.226057,262.317452 969.949744,262.247134 C969.455907,262.124076 968.956192,261.983439 968.444718,261.836943 L967.739238,261.625987 C967.263038,261.49121 966.78096,261.332994 966.287123,261.168917 L965.405272,260.870064 C964.976105,260.723567 964.546937,260.56535 964.106012,260.401274 L973.800493,253.369427 Z" id="carta"></path>
        </g>
    </g>
</svg>