<svg xmlns="http://www.w3.org/2000/svg" width="158" height="118" viewBox="0 0 158 118">
  <path fill="#C6EBF4" d="M113.28 41.53h-2.54c-3.34 0-7.29.18-11.92 0h-.74c-1 0-3.12-.19-3.15-.19l-1.48-.13c-2-.17-4.06-.43-6.25-.8l-1.62-.28-.88-.13c-.56-.11-2.92-.63-3.45-.76-.53-.13-.92-.22-1.39-.34-.84-.21-1.69-.45-2.56-.7l-1.2-.36c-.81-.23-1.63-.5-2.47-.78l-1.5-.51c-.73-.25-1.46-.52-2.21-.8l16.49-12 26.87 17.78Z"/>
  <path fill="#25314C" d="M47.11 92.42c-2.667 0-4.607-.8-5.82-2.4-1.213-1.6-1.833-4.123-1.86-7.57v-5c0-3.52.62-6.07 1.86-7.65 1.24-1.58 3.22-2.37 5.94-2.37a7.78 7.78 0 0 1 4.83 1.35A4.41 4.41 0 0 1 54 72.07a.25.25 0 0 0 .24.2h4.16a.25.25 0 0 0 .25-.25 7.79 7.79 0 0 0-2.19-5.35c-1.96-2.2-5.12-3.3-9.48-3.3-4.04 0-7.1 1.18-9.18 3.54-2.08 2.36-3.117 5.88-3.11 10.56v5.94c0 4.333 1.04 7.597 3.12 9.79 2.08 2.193 5.143 3.293 9.19 3.3 4.88 0 8.243-1.38 10.09-4.14a9.87 9.87 0 0 0 1.29-2.55c.236-.918.353-1.862.35-2.81a.25.25 0 0 0-.24-.25h-4.24a.25.25 0 0 0-.24.2c-.65 3.34-2.89 5.47-6.9 5.47Zm82.78-24.78a.24.24 0 0 0 .24-.24v-3.79a.248.248 0 0 0-.015-.093.234.234 0 0 0-.225-.147h-7v-7.75a.24.24 0 0 0-.24-.24l-4.26 1.3a.24.24 0 0 0-.24.24v6.45h-4.65a.24.24 0 0 0-.24.24v3.79a.24.24 0 0 0 .24.24h4.65v20c0 2.76.62 4.78 1.86 6.06 1.24 1.28 3.237 1.933 5.99 1.96h3.9a.24.24 0 0 0 .24-.24V91.7a.24.24 0 0 0-.24-.24h-3.48a3.16 3.16 0 0 1-2.67-1 5.853 5.853 0 0 1-.81-3.51V67.64h6.95ZM87.21 72a5.177 5.177 0 0 0-.21-1.21 10.746 10.746 0 0 0-2.07-3.88c-2.08-2.36-5.14-3.54-9.18-3.54-4.36 0-7.523 1.1-9.49 3.3a7.59 7.59 0 0 0-2 5.32.25.25 0 0 0 .25.25h4.16a.25.25 0 0 0 .24-.21 4.238 4.238 0 0 1 1.8-3.29 7.84 7.84 0 0 1 4.84-1.35c2.72 0 4.7.79 5.94 2.37a5 5 0 0 1 1 2.59v4.54c-1.24-.16-2.48-.28-3.72-.36-1.24-.08-2.26-.12-3.06-.12-4.367 0-7.57.82-9.61 2.46-2.04 1.64-3.06 4.243-3.06 7.81 0 3.333.97 5.763 2.91 7.29 1.71 1.32 5.3 2 8.92 2.2.954.042 1.911.008 2.86-.1a37.07 37.07 0 0 0 8.95-1.91.768.768 0 0 0 .55-.71V73.27c.03-.46.01-.89-.02-1.27ZM70.62 91.33a3.72 3.72 0 0 1-2.29-2.18 6.92 6.92 0 0 1-.4-2.49c0-2.247.59-3.85 1.77-4.81 1.18-.96 3.313-1.44 6.4-1.44.67 0 4.66.34 6.15.51a.3.3 0 0 1 .27.3v9.4a.319.319 0 0 1-.21.3 18.25 18.25 0 0 1-11.69.41ZM158.13 72a5.129 5.129 0 0 0-.23-1.17 10.745 10.745 0 0 0-2.07-3.88c-2.08-2.36-5.14-3.54-9.18-3.54-4.373 0-7.537 1.1-9.49 3.3a7.594 7.594 0 0 0-2 5.32.249.249 0 0 0 .25.25h4.16a.252.252 0 0 0 .24-.21 4.234 4.234 0 0 1 1.8-3.29 7.82 7.82 0 0 1 4.84-1.35c2.72 0 4.7.79 5.94 2.37.576.75.923 1.648 1 2.59 0 .33.05.67.05 1v3.54c-1.24-.16-2.48-.28-3.72-.36-1.24-.08-2.27-.12-3.07-.12-4.36 0-7.56.82-9.6 2.46-2.04 1.64-3.057 4.243-3.05 7.81 0 3.333.97 5.763 2.91 7.29 1.71 1.32 5.3 2 8.92 2.2.955.042 1.911.008 2.86-.1a37.07 37.07 0 0 0 8.95-1.91.77.77 0 0 0 .55-.71V73.27c-.01-.46-.03-.89-.06-1.27Zm-16.59 19.33a3.726 3.726 0 0 1-2.29-2.18 6.92 6.92 0 0 1-.4-2.49c0-2.247.59-3.85 1.77-4.81 1.18-.96 3.313-1.44 6.4-1.44.67 0 4.66.34 6.15.51.073.01.141.045.191.1a.314.314 0 0 1 .079.2v9.4a.344.344 0 0 1-.21.3 18.25 18.25 0 0 1-11.69.41ZM109.22 68a.23.23 0 0 0 .22-.23V63.6c0-.8-5.49.43-6 .59A8.2 8.2 0 0 0 98 68.35v-3.79a.261.261 0 0 0-.26-.26h-4.13a.26.26 0 0 0-.26.26v30.86a.27.27 0 0 0 .26.27h4.26a.269.269 0 0 0 .26-.27V78.13a13.624 13.624 0 0 1 1.2-5.9 7.003 7.003 0 0 1 6-4.13 21.75 21.75 0 0 1 2.79-.17l1.1.07Z"/>
  <path fill="#1B98ED" d="M110.91 43.42C47.11 63 0 43.42 0 43.42L35.1 18C48.42 27.77 60 33.83 69.92 37.57c.75.28 1.48.55 2.21.8l1.5.51c.84.28 1.66.55 2.47.78l1.2.36c.87.25 1.72.49 2.56.7.47.12.93.24 1.39.34.46.1 4.07.88 4.38.94l1.62.28c2.19.37 4.27.63 6.25.8l1.48.13s2.15.15 3.15.19h.74c4.63.17 8.58 0 11.92 0l.12.02Z"/>
</svg>
