<svg width="331" height="94" viewBox="0 0 331 94" fill="none" xmlns="http://www.w3.org/2000/svg">
<path d="M53.2 18.2C50.8 18.2 48.8 20.2 48.8 22.6C48.8 25 50.8 27 53.2 27C55.6 27 57.6 25 57.6 22.6C57.6 20.2 55.6 18.2 53.2 18.2ZM28.8 18C26.2 18 24.2 20.1 24.2 22.6C24.2 25.2 26.3 27.2 28.8 27.2C31.4 27.2 33.4 25.1 33.4 22.6C33.4 20.1 31.3 18 28.8 18ZM28.8 30.4C26.4 30.4 24.4 32.4 24.4 34.8C24.4 37.2 26.4 39.2 28.8 39.2C31.2 39.2 33.2 37.2 33.2 34.8C33.2 32.4 31.2 30.4 28.8 30.4ZM28.8 42.8C26.5 42.8 24.6 44.7 24.6 47C24.6 49.3 26.5 51.2 28.8 51.2C31.1 51.2 33 49.3 33 47C33 44.7 31.1 42.8 28.8 42.8ZM28.8 67.7C26.7 67.7 25.1 69.4 25.1 71.4C25.1 73.5 26.8 75.1 28.8 75.1C30.9 75.1 32.5 73.4 32.5 71.4C32.5 69.3 30.8 67.7 28.8 67.7ZM4.4 18.2C2 18.2 0 20.2 0 22.6C0 25 2 27 4.4 27C6.8 27 8.8 25 8.8 22.6C8.8 20.2 6.9 18.2 4.4 18.2ZM28.8 55.2C26.6 55.2 24.9 57 24.9 59.1C24.9 61.2 26.7 63 28.8 63C31 63 32.7 61.2 32.7 59.1C32.7 57 31 55.2 28.8 55.2Z" fill="#EA1947"/>
<path d="M53.2 31.1C51.1 31.1 49.4 32.8 49.4 34.9C49.4 37 51.1 38.7 53.2 38.7C55.3 38.7 57 37 57 34.9C56.9 32.8 55.2 31.1 53.2 31.1ZM53.2 43.8C51.4 43.8 49.9 45.3 49.9 47.1C49.9 48.9 51.4 50.4 53.2 50.4C55 50.4 56.4 48.9 56.4 47.1C56.4 45.2 54.9 43.8 53.2 43.8ZM53.2 56.4C51.7 56.4 50.4 57.6 50.4 59.2C50.4 60.7 51.6 62 53.2 62C54.7 62 56 60.8 56 59.2C55.9 57.7 54.7 56.4 53.2 56.4ZM41 24.6C38.8 24.6 37 26.4 37 28.6C37 30.8 38.8 32.6 41 32.6C43.2 32.6 45 30.8 45 28.6C44.9 26.4 43.2 24.6 41 24.6ZM41 37C38.9 37 37.2 38.7 37.2 40.8C37.2 42.9 38.9 44.6 41 44.6C43.1 44.6 44.8 42.9 44.8 40.8C44.7 38.7 43 37 41 37ZM41 49.7C39.2 49.7 37.7 51.2 37.7 53C37.7 54.8 39.2 56.3 41 56.3C42.8 56.3 44.3 54.8 44.3 53C44.2 51.1 42.8 49.7 41 49.7ZM41 62.3C39.5 62.3 38.2 63.5 38.2 65.1C38.2 66.6 39.4 67.9 41 67.9C42.5 67.9 43.8 66.7 43.8 65.1C43.8 63.6 42.5 62.3 41 62.3ZM16.6 24.6C14.4 24.6 12.6 26.4 12.6 28.6C12.6 30.8 14.4 32.6 16.6 32.6C18.8 32.6 20.6 30.8 20.6 28.6C20.6 26.4 18.8 24.6 16.6 24.6ZM16.6 37C14.5 37 12.8 38.7 12.8 40.8C12.8 42.9 14.5 44.6 16.6 44.6C18.7 44.6 20.4 42.9 20.4 40.8C20.4 38.7 18.7 37 16.6 37ZM16.6 49.7C14.8 49.7 13.3 51.2 13.3 53C13.3 54.8 14.8 56.3 16.6 56.3C18.4 56.3 19.8 54.8 19.8 53C19.8 51.1 18.4 49.7 16.6 49.7ZM16.6 62.3C15.1 62.3 13.8 63.5 13.8 65.1C13.8 66.6 15 67.9 16.6 67.9C18.1 67.9 19.4 66.7 19.4 65.1C19.4 63.6 18.1 62.3 16.6 62.3ZM4.4 31.1C2.3 31.1 0.599998 32.8 0.599998 34.9C0.599998 37 2.3 38.7 4.4 38.7C6.5 38.7 8.2 37 8.2 34.9C8.2 32.8 6.5 31.1 4.4 31.1ZM4.4 43.8C2.6 43.8 1.1 45.3 1.1 47.1C1.1 48.9 2.6 50.4 4.4 50.4C6.2 50.4 7.6 48.9 7.6 47.1C7.7 45.2 6.2 43.8 4.4 43.8ZM4.4 56.4C2.9 56.4 1.6 57.6 1.6 59.2C1.6 60.7 2.8 62 4.4 62C5.9 62 7.2 60.8 7.2 59.2C7.2 57.7 6 56.4 4.4 56.4Z" fill="#192B54"/>
<path d="M75.7 32.4H72.9V54.9C72.9 59.4 75 61.7 79.2 61.7H83.4V58H80.3C78.3 58 77.3 56.8 77.3 54.5V40.1H83.4V36.5H76.6L75.7 32.4ZM121 36.5H118V61.7H122.4V43.3C124.3 41.2 126.7 40.1 129.7 40.1V36.4C126.6 36.4 123.9 37.5 121.7 39.6L121 36.5ZM137.4 46.6C137.7 42.2 140.1 40 144.5 40C148.7 40 150.9 42.2 151 46.6H137.4ZM144.6 36.5C136.9 36.5 133 40.6 133 48.8C133 57.4 137.3 61.7 146 61.7C149.2 61.7 151.9 61.4 154.1 60.7V57.1C151.9 57.7 149.3 58.1 146.5 58.1C140.5 58.1 137.5 55.5 137.5 50.4H155.2C155.3 49.2 155.4 48.2 155.4 47.2C155.3 40 151.7 36.5 144.6 36.5ZM176.9 55.6C174.8 57.2 172.2 58 169.1 58C166.1 58 164.5 56.6 164.5 53.9C164.5 51.2 166.4 49.8 170.3 49.8C172.5 49.8 174.7 50 176.9 50.3V55.6ZM170.1 36.5C167.5 36.5 164.9 36.9 162.1 37.7V41.3C164.8 40.5 167.5 40.1 170.1 40.1C174.6 40.1 176.9 41.5 176.9 44.4V46.8C174.7 46.5 172.5 46.3 170.3 46.3C163.5 46.3 160.1 48.9 160.1 54.1C160.1 59.2 163.1 61.7 169.1 61.7C172.1 61.7 174.8 60.9 177.3 59.2L178.8 61.7H181.3V44.3C181.3 39.1 177.6 36.5 170.1 36.5ZM191.3 32.4H188.5V54.9C188.5 59.4 190.6 61.7 194.8 61.7H199V58H196C194 58 193 56.8 193 54.5V40.1H199.1V36.5H192.3L191.3 32.4ZM101.4 36.5C98.3 36.5 95.7 37.4 93.6 39.2L91.9 32.4H89.1V61.7H93.5V43.3C95.8 41.2 98.2 40.1 100.7 40.1C104.4 40.1 106.3 42 106.3 45.7V61.6H110.7V45.8C110.8 39.6 107.6 36.5 101.4 36.5Z" fill="#EA1947"/>
<path d="M226.5 47H222.9C220.3 47 218.9 45.9 218.9 43.6C218.9 41.2 221 40 225.2 40C228.2 40 231.2 40.5 234.1 41.4V37.6C231.1 36.8 228.2 36.4 225.2 36.4C218.2 36.4 214.7 38.8 214.7 43.6C214.7 48.6 217.4 51 222.9 51H226.5C229.3 51 230.7 52.1 230.7 54.4C230.7 56.8 228.7 58 224.7 58C221.7 58 218.7 57.5 215.7 56.6V60.4C218.7 61.2 221.7 61.6 224.7 61.6C231.7 61.6 235.2 59.2 235.2 54.4C235.1 49.5 232.2 47 226.5 47ZM243.9 32.4H241.1V54.9C241.1 59.4 243.2 61.7 247.4 61.7H251.6V58H248.5C246.5 58 245.5 56.8 245.5 54.5V40.1H251.6V36.5H244.8L243.9 32.4ZM272.9 55.6C270.8 57.2 268.2 58.1 265.1 58.1C262.1 58.1 260.5 56.7 260.5 54C260.5 51.3 262.4 49.9 266.3 49.9C268.5 49.9 270.7 50.1 272.9 50.4V55.6ZM266.1 36.5C263.5 36.5 260.9 36.9 258.1 37.7V41.3C260.8 40.5 263.5 40.1 266.1 40.1C270.6 40.1 272.9 41.5 272.9 44.4V46.8C270.7 46.5 268.5 46.3 266.3 46.3C259.5 46.3 256.1 48.9 256.1 54.1C256.1 59.2 259.1 61.7 265.1 61.7C268.1 61.7 270.8 60.9 273.3 59.2L274.8 61.7H277.3V44.3C277.3 39.1 273.6 36.5 266.1 36.5ZM283.3 48.6C283.3 57.3 287.8 61.7 296.7 61.7C299.1 61.7 301.3 61.5 303.4 61V57.4C301.3 57.9 299 58.1 296.4 58.1C290.6 58.1 287.6 54.9 287.6 48.6C287.6 42.9 290.5 40.1 296.4 40.1C299 40.1 301.3 40.3 303.4 40.8V37.2C301.3 36.7 299.1 36.5 296.7 36.5C287.8 36.5 283.3 40.5 283.3 48.6ZM309.1 32.4H313.5V61.7H309.1V32.4ZM330.6 36.5H325L315.5 49.1H315.6L325 61.6H330.6L321 49.1L330.6 36.5Z" fill="#192B54"/>
</svg>
