<svg xmlns="http://www.w3.org/2000/svg" width="347" height="65" viewBox="0 0 347 65">
  <path fill="#009" d="M71.169 14.404V50.96h-8.483v-3.873c-1.925 3.147-5.474 4.962-10.648 4.962-8.603 0-12.874-4.478-12.874-11.62V14.404h9.264v23.543c0 3.813 2.046 6.052 6.016 6.052 4.633 0 7.46-2.663 7.46-7.565v-22.03h9.265Zm60.159 11.015v25.54h-9.264V28.203c0-4.358-1.745-7.02-5.776-7.02-4.03 0-6.377 3.026-6.377 7.262V50.96h-9.264V28.203c0-4.66-1.925-7.02-5.776-7.02-4.09 0-6.376 3.026-6.376 7.262V50.96H79.23V14.404h8.603v4.055c2.106-3.51 5.595-5.265 10.347-5.265 4.633 0 8.122 1.936 10.107 5.386 2.467-3.57 6.136-5.386 10.889-5.386 7.761 0 12.152 4.66 12.152 12.225Zm74.357 25.54h-9.264V.121h9.264v50.838Zm100.467 0h-9.265V14.404h9.265V50.96Zm-9.445-42.062h9.565V0h-9.565v8.897Zm44.157 29.595c-3.79 4.055-6.377 5.628-9.866 5.628-4.151 0-7.099-2.42-8.423-6.173V27.295c1.384-3.813 4.332-6.234 8.543-6.234 3.068 0 5.535 1.09 9.445 4.782l5.775-5.75c-4.632-5.084-9.144-6.96-15.22-6.96-8.483 0-15.04 4.479-17.627 11.983v15.01c2.527 7.504 8.964 11.922 17.386 11.922 6.558 0 11.07-2.178 16.123-8.473l-6.136-5.083ZM19.071 28.445c-2.527-.545-4.332-1.029-5.355-1.27-1.263-.364-2.225-.848-2.707-1.514v-2.784c.842-1.331 2.888-2.179 5.715-2.179 3.91 0 6.618.908 10.89 4.297l4.992-6.052c-5.053-4.236-9.384-5.75-15.641-5.75-7.22 0-12.212 2.966-14.198 7.203v9.199c1.564 3.087 5.174 4.842 12.393 6.415 2.587.605 4.332 1.03 5.354 1.21 1.324.424 2.527.969 3.189 1.937v3.208c-.902 1.453-3.068 2.24-5.896 2.24-2.045.06-4.03-.364-5.895-1.15-1.805-.727-3.91-2.119-6.558-4.298L0 45.15c5.775 5.144 10.648 6.9 17.567 6.9 7.4 0 12.633-2.845 14.618-7.384v-9.26c-1.684-3.45-5.715-5.265-13.114-6.96Zm136.562-15.312c-8.363 0-14.92 4.54-17.627 11.802v15.372c2.647 7.263 9.264 11.802 17.627 11.802 8.362 0 14.859-4.54 17.506-11.741V24.874c-2.707-7.202-9.265-11.74-17.506-11.74Zm8.542 24.875c-1.444 3.873-4.512 6.173-8.603 6.173-4.03 0-7.219-2.3-8.662-6.173V27.235c1.443-3.874 4.511-6.234 8.662-6.234 4.091 0 7.099 2.36 8.543 6.234l.06 10.773Zm66.296-24.875c-8.362 0-14.92 4.54-17.627 11.802v15.372c2.707 7.263 9.265 11.802 17.627 11.802 8.362 0 14.859-4.54 17.506-11.741V24.874c-2.647-7.202-9.204-11.74-17.506-11.74Zm8.543 24.875c-1.444 3.873-4.512 6.173-8.543 6.173s-7.219-2.3-8.663-6.173V27.235C223.252 23.36 226.32 21 230.471 21c4.151 0 7.099 2.36 8.543 6.234v10.773Zm41.209-23.604v4.055c-2.346-3.51-6.016-5.265-11.069-5.265-6.859 0-12.393 4.236-14.8 10.954v15.07c2.347 6.718 7.881 10.894 14.8 10.894 4.632 0 8.121-1.574 10.588-4.66v2.905c0 6.052-3.49 8.896-8.904 8.896-4.031 0-7.339-1.21-12.633-4.357l-4.512 6.718A31.463 31.463 0 0 0 270.958 65c10.228 0 17.747-5.507 17.747-15.796v-34.8h-8.482Zm-1.143 22.211c-1.384 3.45-4.271 5.629-7.881 5.629-3.61 0-6.497-2.118-7.881-5.629V26.63c1.384-3.45 4.211-5.568 7.881-5.568s6.497 2.119 7.881 5.568v9.986Z"/>
</svg>
