<svg xmlns="http://www.w3.org/2000/svg" width="400" height="140" viewBox="0 0 400 140">
  <path fill="#7498bf" d="M57.49 34c-3.01 0-5.423 2.37-5.423 5.28v18.059h-6.645c-3.009 0-5.422 2.378-5.422 5.28v39.101c0 2.91 2.413 5.28 5.422 5.28h40.325c3.01 0 5.499-2.37 5.499-5.28v-6.428h18.635c3.006 0 5.422-2.378 5.422-5.28v-39.1c0-2.905-2.416-5.203-5.422-5.203h-6.645V39.28c0-2.91-2.42-5.28-5.422-5.28zm0 2.984h40.324c1.316 0 2.367 1.016 2.367 2.296v6.428H69.556c-3.003 0-5.499 2.298-5.499 5.203v6.428h-8.935v-18.06c0-1.279 1.041-2.295 2.367-2.295zm12.066 11.631h30.625v29.69c0 1.28-1.05 2.372-2.367 2.372h-6.568V62.618c0-2.901-2.49-5.28-5.499-5.28H67.112v-6.427c0-1.276 1.127-2.296 2.444-2.296zm33.68 0h6.645c1.32 0 2.367 1.02 2.367 2.296v39.102c0 1.276-1.048 2.295-2.367 2.295H91.246v-8.647h6.568c3.003 0 5.422-2.445 5.422-5.356zm77.976 8.494c-3.418 0-6.372 1.39-8.63 3.75-.311-2.17-1.787-3.444-4.124-3.444h-9.088c-2.55 0-3.593 1.84-4.048 3.214l-5.88 17.6h-.077l-5.88-17.6c-.447-1.374-1.568-3.214-4.125-3.214-2.48 0-4.811 1.5-4.811 4.362 0 .799.171 1.487.61 2.601l9.242 23.11c.892 2.289 1.833 3.672 4.964 3.672 3.128 0 4.075-1.383 4.964-3.673l9.547-23.491v22.267c0 2.97 1.903 4.897 4.582 4.897 2.664 0 4.583-1.928 4.583-4.897V70.73c0-3.59 1.628-6.199 5.422-6.199 3.348 0 5.422 2.608 5.422 6.199v15.533c0 2.97 1.916 4.897 4.583 4.897 2.667 0 4.582-1.928 4.582-4.897V70.73c0-3.59 2.016-6.199 5.423-6.199 3.345 0 5.422 2.608 5.422 6.199v15.533c0 2.97 1.915 4.897 4.582 4.897 2.67 0 4.583-1.928 4.583-4.897v-17.14c0-7.793-5.05-12.014-12.525-12.014-3.156 0-7.234 1.665-9.776 4.515-2.426-2.972-5.694-4.515-9.547-4.515zm37.27.306c-1.918 0-2.673 1.387-2.673 2.449 0 .557.199 1.334.458 2.142l9.318 26.323c.763 2.106 1.69 2.831 3.284 2.831 1.533 0 2.438-.725 3.131-2.83l7.332-22.268h.076l7.332 22.267c.696 2.106 1.604 2.831 3.131 2.831 1.604 0 2.523-.725 3.284-2.83l9.318-26.324c.25-.802.458-1.585.458-2.142 0-1.06-.752-2.449-2.673-2.449-1.207 0-2.37.471-3.132 2.831l-7.255 22.574h-.076l-7.103-21.732c-.764-2.36-1.32-3.673-3.36-3.673-2.044 0-2.508 1.313-3.284 3.673l-7.103 21.732h-.153l-7.179-22.574c-.776-2.363-1.918-2.83-3.13-2.83zm61.709 0c-9.595 0-14.969 8.139-14.969 16.911 0 8.772 5.374 16.834 14.969 16.834 3.647 0 6.889-1.579 9.317-4.897h.077v2.296c0 1.913 1.512 2.601 2.673 2.601 1.087 0 2.596-.688 2.596-2.601V60.093c0-1.907-1.509-2.678-2.596-2.678-1.161 0-2.673.771-2.673 2.678v1.76h-.077c-2.618-2.767-5.41-4.438-9.317-4.438zm55.37 0c-9.525 0-15.275 7.934-15.275 16.911 0 8.76 4.794 16.834 15.657 16.834 6.638 0 13.594-3.988 13.594-6.657 0-1.552-1.039-2.448-2.062-2.448-2.102 0-4.05 4.438-11.532 4.438-6.315 0-10.005-4.368-10.005-10.024h21.155c2.426 0 3.131-.98 3.131-2.908 0-7.977-5.4-16.146-14.663-16.146zm20.697 0c-2.068 0-3.742 1.598-3.742 3.597 0 2.001 1.674 3.596 3.742 3.596 2.062 0 3.742-1.595 3.742-3.596 0-2-1.68-3.597-3.742-3.597zm-51.17.077c-1.726 0-2.825 1.108-2.825 2.907v27.854c0 1.802 1.1 2.907 2.825 2.907 1.726 0 2.75-1.105 2.75-2.907V72.566c0-6.385 4.084-8.775 7.408-9.335 2.364-.432 3.513-1.433 3.513-2.985 0-1.545-1.085-2.754-3.055-2.754-3.26 0-6.443 3.116-7.714 5.662h-.152V60.4c0-1.8-1.024-2.907-2.75-2.907zm51.17.688c1.567 0 2.826 1.25 2.826 2.832s-1.26 2.83-2.826 2.83c-1.57 0-2.902-1.248-2.902-2.83s1.332-2.832 2.902-2.832zm-1.528.842a.193.193 0 0 0-.076.153v3.596c0 .2.156.307.382.307s.305-.108.305-.307v-1.377h.688l.992 1.53c.104.163.178.154.382.154.178 0 .382-.043.382-.153a.457.457 0 0 0-.076-.23l-.917-1.377c.593-.07 1.07-.368 1.07-1.148 0-.903-.569-1.148-1.604-1.148h-1.375c-.082 0-.114-.033-.153 0zm.611.536h.84c.446 0 .993.036.993.535 0 .594-.467.689-.993.689h-.84zm-309.919.765h6.645v17.982c0 2.91 2.413 5.356 5.422 5.356h6.568v6.352c0 2.901 2.496 5.28 5.5 5.28H88.19v6.427c0 1.276-1.118 2.296-2.444 2.296H45.422c-1.335 0-2.367-1.02-2.367-2.296V62.618c0-1.273 1.032-2.295 2.367-2.295zm9.7 0h8.935v20.354H57.49a2.378 2.378 0 0 1-2.367-2.372zm11.99 0h18.635c1.326 0 2.444 1.022 2.444 2.295v18.06H67.112zm213.079 1.836c6.907 0 9.394 6.566 9.394 12.167s-2.487 12.167-9.394 12.167-9.317-6.566-9.317-12.167 2.41-12.167 9.317-12.167zm54.148 0c.401-.027.786-.015 1.222 0 6.198 0 9.012 5.442 9.012 10.177h-18.635c.186-4.731 2.383-9.764 8.4-10.177zM67.112 83.661h21.079v8.647H69.556c-1.317 0-2.444-1.02-2.444-2.295z"/>
</svg>
