<svg xmlns="http://www.w3.org/2000/svg" width="164" height="90" viewBox="0 0 164 90">
  <path fill="#F26161" d="M109.181 25.453c-1.462 0-6.047-.394-4.725-6.075.197-.844 1.294-5.315 6.019-5.26 4.359.029 6.131 2.87 5.4 6.16-.422 1.913-1.772 5.147-6.694 5.175Zm53.888-1.969c.365 4.135-3.46 20.025-13.922 17.325-.928 11.447-11.391 25.82-25.875 22.95a10.353 10.353 0 0 1-7.341-5.343c-3.15 3.15-6.862 6.187-10.209 7.368-6.75 2.391-11.334.141-13.134-3.656a22.557 22.557 0 0 1-8.579 5.906c-10.49 3.713-15.44-3.6-13.472-10.968.422-1.547 1.407-4.528 2.7-8.382-1.603.76-3.459.985-5.624.45-.9 11.42-11.363 25.791-25.847 22.922-6.947-1.35-10.828-8.156-7.96-18.843 1.013-3.657 2.532-7.116 4.585-10.07-3.516.282-8.972.732-14.907 1.379-4.64 11.306-9.562 25.762-14.203 42.047a4.697 4.697 0 0 1-7.819 1.969 4.613 4.613 0 0 1-1.153-4.5c1.829-6.357 6.694-22.782 12.657-38.166l-3.657.562c-3.515.563-4.921-2.109-5.203-3.712-.281-1.913.647-4.669 3.74-5.147 2.898-.45 5.907-.844 8.945-1.237a94.474 94.474 0 0 1 8.803-16.707c5.484-7.847 11.362-11.137 17.972-10.125 8.803 1.322 8.943 12.375 8.887 13.275-.14 2.335-.787 4.5-4.556 4.725-2.531.113-3.347-1.94-3.966-4.697-1.35-5.737-4.5-4.05-5.822-3.262-2.84 1.744-6.468 7.228-10.462 15.581 7.734-.76 13.669-1.21 14.147-1.237 1.687-.113 3.347.73 4.219 2.193a20.081 20.081 0 0 1 9.787-2.53c3.46 0 6.188 1.49 8.69 3.824 4.22 3.881 10.97 2.475 14.288-4.36A836.88 836.88 0 0 1 89.916 3.264 4.978 4.978 0 0 1 95.906.28c3.01.9 3.966 3.46 2.953 6.075-7.115 18.225-16.171 43.482-17.325 48.038-1.237 5.034 1.463 4.837 4.67 3.178 4.246-2.222 7.509-7.706 8.437-9.956 2.025-5.935 4.218-11.982 5.906-15.835 1.462-3.375 4.697-3.15 5.934-2.784 3.01.9 4.078 3.29 2.982 5.878a186.997 186.997 0 0 0-6.188 17.269c-1.462 4.95 1.406 4.837 4.641 3.15 2.193-1.125 4.584-3.347 6.581-5.428a28.82 28.82 0 0 1 .844-4.95c2.896-10.688 10.406-19.603 21.965-19.66 3.488 0 6.807 1.688 9.31 4.022 4.5 4.163 11.278 2.053 14.287-6.047.45-1.153 2.081-1.097 2.194.225l-.028.028ZM57.375 50.794c.76-4.669-2.025-7.79-5.316-7.228-3.656.675-6.975 4.472-8.521 8.606-.282.816-3.235 10.012 1.8 10.744 6.384.73 11.053-6.047 12.037-12.122Zm81.534-8.325c.76-4.669-2.053-7.79-5.343-7.228-3.657.675-6.975 4.5-8.494 8.634-.281.788-3.263 10.013 1.8 10.744 6.356.703 11.025-6.047 12.037-12.15Z"/>
</svg>
