<svg width="204" height="108" viewBox="0 0 204 108" fill="none" xmlns="http://www.w3.org/2000/svg">
<path fill-rule="evenodd" clip-rule="evenodd" d="M69.889 5.14734C69.889 5.42175 69.408 6.17671 68.449 7.41146C64.844 12.1129 62.869 14.4622 62.528 14.4622C62.253 14.4622 61.928 14.3075 61.549 13.9999C61.206 13.6919 61.035 13.3986 61.035 13.1247C61.035 12.9878 61.533 12.2489 62.528 10.9115C64.038 8.92062 65.361 7.06745 66.492 5.35216C66.697 5.04295 66.921 4.73355 67.16 4.42567C67.401 4.08317 67.78 3.91089 68.295 3.91089C68.636 3.91089 68.98 4.04857 69.324 4.32298C69.699 4.59795 69.889 4.87236 69.889 5.14734Z" fill="#00A886"/>
<path fill-rule="evenodd" clip-rule="evenodd" d="M75.5 12.4552C75.5 13.0046 74.606 13.7595 72.823 14.7193C68.876 16.8126 66.508 17.8598 65.72 17.8598C65.377 17.8598 65.032 17.7223 64.691 17.449C64.382 17.1729 64.228 16.8994 64.228 16.625C64.228 16.3158 65.016 15.7156 66.595 14.822C71.158 12.2835 73.663 11.0139 74.11 11.0139C74.417 11.0139 74.726 11.1684 75.035 11.4778C75.345 11.7859 75.5 12.1129 75.5 12.4552Z" fill="#ED1B34"/>
<path fill-rule="evenodd" clip-rule="evenodd" d="M61.035 1.49201C59.971 7.7365 58.547 11.1501 56.763 11.7339C56.181 11.2539 55.888 10.7735 55.888 10.2937C55.888 9.94974 56.077 8.9043 56.454 7.15212C56.969 4.78701 57.382 2.74379 57.691 1.02924C57.897 0.65044 58.206 0.462646 58.617 0.462646C58.96 0.462646 59.766 0.805517 61.035 1.49201Z" fill="#FFD400"/>
<path fill-rule="evenodd" clip-rule="evenodd" d="M77.249 20.9475C77.249 21.9078 76.735 22.4412 75.705 22.5438C75.671 22.5438 74.676 22.6808 72.719 22.9557C71.313 23.1611 70.078 23.2638 69.015 23.2638C67.297 23.2638 66.44 22.7662 66.44 21.7717C66.44 21.05 67.092 20.6568 68.395 20.5872C69.358 20.553 70.678 20.2608 72.358 19.7126C74.041 19.1288 75.139 18.8379 75.655 18.8379C76.716 18.8381 77.249 19.541 77.249 20.9475Z" fill="#B3D335"/>
<path fill-rule="evenodd" clip-rule="evenodd" d="M53.211 9.77909C53.211 10.2937 53.059 10.7565 52.7497 11.1684C52.4394 11.5462 52.0958 11.7338 51.7204 11.7338C51.515 11.7338 51.2046 11.6487 50.7914 11.4776C50.7914 10.7912 49.9697 7.22165 48.3219 0.770655C49.008 0.256065 49.6767 0 50.3305 0C51.2207 0 51.7364 0.188361 51.8747 0.565462C51.9762 1.28543 52.2694 3.10399 52.7499 6.02189C53.059 7.80546 53.211 9.05798 53.211 9.77909Z" fill="#0095DA"/>
<path fill-rule="evenodd" clip-rule="evenodd" d="M76.735 28.2054L76.529 29.4418C75.739 29.9895 75.26 30.2647 75.087 30.2647C74.916 30.2647 74.042 30.0067 72.462 29.4921C70.3 28.772 68.225 28.1536 66.235 27.639C66.337 26.1988 66.939 25.4775 68.036 25.4775C68.481 25.4775 69.39 25.7349 70.764 26.2495C72.137 26.7295 73.062 26.9697 73.543 26.9697C73.921 26.9695 74.985 27.3814 76.735 28.2054Z" fill="#EEDC00"/>
<path fill-rule="evenodd" clip-rule="evenodd" d="M48.013 11.8377C48.013 12.2156 47.8931 12.5927 47.6535 12.9698C47.4127 13.3126 47.1729 13.4832 46.9333 13.4832C46.2126 13.4832 45.1492 12.6963 43.741 11.1176C42.3676 9.50457 41.218 7.99484 40.2924 6.58667C39.6071 5.52307 39.2631 4.92281 39.2631 4.78703C39.2631 4.37513 39.4684 3.96266 39.882 3.55057C40.2922 3.13849 40.6871 2.93311 41.0659 2.93311C41.7163 2.93311 43.2262 4.70022 45.594 8.23483C47.2073 10.1218 48.013 11.3231 48.013 11.8377Z" fill="#ED1B34"/>
<path fill-rule="evenodd" clip-rule="evenodd" d="M74.057 36.7498C74.057 37.0926 73.852 37.4366 73.441 37.778C73.063 38.0872 72.652 38.2419 72.204 38.2419C71.724 38.2419 70.764 37.6422 69.324 36.4406C65.752 33.4896 63.969 31.8257 63.969 31.4469C63.969 31.2415 64.417 30.5564 65.307 29.3882C71.142 33.4045 74.057 35.8579 74.057 36.7498Z" fill="#00ACCD"/>
<path fill-rule="evenodd" clip-rule="evenodd" d="M68.395 42.9769C68.395 43.285 68.171 43.5944 67.726 43.9036C67.316 44.2117 66.903 44.3664 66.492 44.3664C66.182 44.3664 65.686 43.9036 64.998 42.9769C63.593 41.0211 62.393 39.1004 61.398 37.2124C60.675 35.8391 60.314 35.0682 60.314 34.8965C60.314 34.5192 60.47 34.1593 60.779 33.8153C61.088 33.4724 61.379 33.3005 61.654 33.3005C62.032 33.3005 62.819 34.1593 64.022 35.8739C66.939 39.9911 68.395 42.3597 68.395 42.9769Z" fill="#62BB46"/>
<path fill-rule="evenodd" clip-rule="evenodd" d="M43.5407 15.9786C43.5407 16.321 43.3862 16.6478 43.0768 16.9555C42.7676 17.2305 42.4423 17.368 42.0983 17.368C41.8581 17.368 40.3968 16.8653 38.9538 15.8012C35.4552 13.2957 33.4312 11.8539 32.8818 11.4779C32.9509 10.7218 33.191 10.0873 33.602 9.57389C34.0122 9.05798 34.4258 8.80078 34.8367 8.80078C35.8661 8.80078 37.7193 10.0703 40.397 12.6089C42.0766 14.1876 43.5407 15.2917 43.5407 15.9786Z" fill="#62BB46"/>
<path fill-rule="evenodd" clip-rule="evenodd" d="M62.58 23.2118C62.58 25.3051 61.808 27.159 60.264 28.772C58.72 30.3496 56.867 31.1388 54.705 31.1388C52.3356 31.1388 50.4001 30.3846 48.8881 28.8747C47.4126 27.3644 46.6743 25.4946 46.6743 23.2642C46.6743 21.2735 47.4641 19.4716 49.0423 17.8595C50.6218 16.2477 52.3038 15.4409 54.085 15.4409C55.838 15.4409 57.657 16.1781 59.542 17.6542C61.569 19.2331 62.58 21.0851 62.58 23.2118ZM58.411 23.7264C58.411 21.1199 57.021 19.6609 54.24 19.353C53.245 19.3867 52.4396 19.8145 51.8244 20.6384C51.2402 21.4622 50.9469 22.5612 50.9469 23.9334C50.9469 24.928 51.2903 25.8027 51.9761 26.5586C52.6643 27.3135 53.52 27.6895 54.549 27.6895C55.683 27.6895 56.608 27.3306 57.328 26.6095C58.051 25.8545 58.411 24.8949 58.411 23.7264Z" fill="#007196"/>
<path fill-rule="evenodd" clip-rule="evenodd" d="M42.0796 22.6469C41.7543 22.9694 41.0663 23.0068 40.9624 23.0068C40.0021 23.0068 37.4448 22.4746 33.2922 21.412C32.2286 21.137 31.6792 20.9995 31.6473 20.9995C31.338 20.8278 31.1833 20.4159 31.1833 19.7636C31.1833 18.2545 31.4738 17.4995 32.0576 17.4995C32.2288 17.4995 33.1057 17.8076 34.6822 18.4251C36.5006 19.1462 38.218 19.6609 39.8287 19.969C40.6527 20.1076 40.6926 20.1186 41.2049 20.3319C41.5621 20.4785 41.8235 20.5048 42.0796 20.7947C42.5571 21.3375 42.5941 22.1395 42.0796 22.6469Z" fill="#B3D335"/>
<path fill-rule="evenodd" clip-rule="evenodd" d="M60.315 45.4477C60.315 46.5119 59.886 47.0425 59.03 47.0425C58 47.0425 57.312 46.8547 56.969 46.4771V46.3224C56.969 45.3267 56.317 41.9131 55.014 36.0805C55.665 35.7034 56.317 35.5139 56.969 35.5139C57.757 35.5139 58.256 35.9778 58.462 36.9034C59.696 42.5304 60.315 45.3787 60.315 45.4477Z" fill="#ED1B34"/>
<path fill-rule="evenodd" clip-rule="evenodd" d="M53.47 36.0804C53.47 36.7325 53.299 37.7967 52.9552 39.2716C52.5091 41.0554 52.2352 42.3597 52.1303 43.1835C51.9945 44.1781 51.8746 45.1554 51.7708 46.1158C51.5996 46.7344 51.1889 47.0423 50.536 47.0423C49.1974 47.0423 48.5276 46.3569 48.5276 44.9837C48.5276 44.7093 48.7672 43.7142 49.2478 41.9977C49.8664 39.9061 50.3306 37.9673 50.6398 36.1829C50.7414 35.5308 51.3256 35.2056 52.3892 35.2056C53.109 35.2058 53.47 35.4979 53.47 36.0804Z" fill="#FAA61A"/>
<path fill-rule="evenodd" clip-rule="evenodd" d="M42.9166 26.9187C36.295 29.6974 32.8309 31.0868 32.5217 31.0868C31.5934 31.0868 31.1296 30.3497 31.1296 28.8747C31.1296 28.359 31.5935 27.931 32.5217 27.5882C34.2015 27.0388 35.8848 26.4898 37.5646 25.9404C38.1141 25.7698 38.9379 25.4439 40.0369 24.963C40.7911 24.6549 41.3064 24.5002 41.578 24.5002C42.1274 24.5002 42.5754 24.7563 42.9166 25.2711V26.9187Z" fill="#FFD400"/>
<path fill-rule="evenodd" clip-rule="evenodd" d="M49.5569 34.5365C49.5569 34.9484 47.8588 37.4019 44.4611 41.8959C43.365 43.3719 42.7117 44.1091 42.5064 44.1091C41.477 44.1091 40.9624 43.6624 40.9624 42.7705C40.9624 42.4277 41.5301 41.3983 42.6609 39.6819C44.9598 36.218 46.4531 33.935 47.1388 32.8379C48.7512 33.215 49.5569 33.7806 49.5569 34.5365Z" fill="#0095DA"/>
<path fill-rule="evenodd" clip-rule="evenodd" d="M45.5944 32.0659C39.6929 36.0114 36.3807 37.9862 35.6606 37.9862C35.146 37.9862 34.7163 37.8315 34.3721 37.5217C34.0309 37.1777 33.8604 36.8006 33.8604 36.3885C33.8604 35.7724 34.1164 35.2913 34.6312 34.9484C40.1914 31.4136 43.2794 29.6465 43.8957 29.6465C44.8581 29.6467 45.4238 30.4523 45.5944 32.0659Z" fill="#ED1B34"/>
<path fill-rule="evenodd" clip-rule="evenodd" d="M193.026 71.5851V74.8864C193.026 75.3851 192.967 76.0521 192.839 76.8812C192.757 77.7129 192.488 78.5426 192.029 79.3747C191.573 80.1645 190.866 80.8496 189.911 81.4334C188.957 82.0148 187.605 82.303 185.86 82.303C185.154 82.303 184.469 82.2419 183.805 82.1165C183.137 81.9938 182.556 81.7856 182.06 81.4923C181.559 81.1619 181.164 80.7241 180.877 80.1856C180.583 79.6468 180.439 78.9806 180.439 78.1908C180.439 77.3591 180.583 76.676 180.877 76.1346C181.164 75.5937 181.541 75.1559 181.996 74.8257C182.495 74.4518 183.055 74.1613 183.679 73.9533C184.343 73.7454 185.01 73.5773 185.674 73.4546C186.38 73.3296 187.085 73.2252 187.794 73.1425C188.498 73.0597 189.165 72.9559 189.785 72.831C190.45 72.7079 191.056 72.5612 191.594 72.3934C192.175 72.1848 192.653 71.9155 193.026 71.5851ZM172.585 65.0405H181.436C181.601 63.294 182.183 62.0485 183.181 61.2994C184.178 60.5526 185.548 60.1794 187.292 60.1794C188.082 60.1794 188.81 60.2405 189.474 60.3659C190.18 60.4487 190.786 60.6564 191.282 60.9902C191.824 61.2807 192.237 61.7153 192.53 62.2968C192.861 62.8377 193.027 63.5875 193.027 64.542C193.069 65.4568 192.8 66.1635 192.219 66.6594C191.634 67.1182 190.845 67.4701 189.851 67.7207C188.853 67.9717 187.709 68.1555 186.421 68.2809C185.132 68.4064 183.826 68.5714 182.495 68.7798C181.164 68.9874 179.836 69.2785 178.505 69.6514C177.217 69.9848 176.054 70.5051 175.015 71.2092C174.019 71.9153 173.188 72.8728 172.524 74.0785C171.9 75.2414 171.588 76.7375 171.588 78.564C171.588 80.2284 171.857 81.6604 172.399 82.8654C172.98 84.0711 173.77 85.0685 174.767 85.8575C175.764 86.6472 176.927 87.2257 178.258 87.6019C179.586 87.975 181.021 88.1623 182.557 88.1623C184.551 88.1623 186.504 87.8712 188.415 87.2899C190.328 86.7085 191.989 85.6899 193.402 84.2366C193.442 84.7774 193.506 85.3166 193.589 85.8575C193.715 86.3562 193.859 86.8526 194.026 87.3536H203C202.584 86.6871 202.294 85.6897 202.129 84.3616C201.961 83.0309 201.878 81.6388 201.878 80.1855V63.419C201.878 61.4671 201.443 59.91 200.569 58.7444C199.696 57.5394 198.576 56.6059 197.202 55.9406C195.832 55.2747 194.317 54.8405 192.654 54.6322C190.992 54.383 189.351 54.2591 187.731 54.2591C185.944 54.2591 184.157 54.4444 182.369 54.8189C180.626 55.151 179.048 55.7335 177.634 56.5643C176.22 57.3951 175.057 58.4963 174.145 59.8674C173.227 61.2378 172.71 62.9631 172.585 65.0405ZM148.714 55.1309V87.3538H157.566V72.8309C157.566 71.3769 157.71 70.0253 158 68.7798C158.293 67.534 158.771 66.4517 159.435 65.5394C160.142 64.5848 161.057 63.8357 162.176 63.294C163.299 62.7554 164.67 62.4861 166.292 62.4861C166.832 62.4861 167.393 62.526 167.975 62.6111C168.555 62.651 169.054 62.7127 169.471 62.7978V54.5712C168.763 54.3618 168.118 54.2591 167.536 54.2591C166.417 54.2591 165.334 54.424 164.297 54.7561C163.257 55.0899 162.28 55.5669 161.366 56.19C160.453 56.7708 159.643 57.4989 158.936 58.3713C158.229 59.203 157.67 60.115 157.253 61.1124L157.128 55.1311H148.714V55.1309ZM141.983 87.3536V55.1309H133.135V72.0201C133.135 75.3024 132.593 77.6734 131.514 79.1272C130.434 80.5376 128.687 81.2445 126.279 81.2445C124.159 81.2445 122.683 80.6015 121.855 79.3108C121.022 77.9826 120.606 75.9878 120.606 73.3294V55.1308H111.758V74.9503C111.758 76.9428 111.923 78.772 112.257 80.4358C112.63 82.0547 113.252 83.4468 114.126 84.6097C114.998 85.7327 116.182 86.6043 117.678 87.2257C119.214 87.85 121.167 88.1621 123.537 88.1621C125.406 88.1621 127.233 87.7483 129.02 86.9163C130.81 86.0846 132.263 84.7351 133.383 82.8653L133.572 87.3534H141.983V87.3536ZM101.037 55.1309V47.184H92.188V55.1309H86.828V61.0513H92.188V80.0601C92.188 81.6816 92.459 82.9912 92.997 83.9884C93.538 84.9858 94.264 85.7538 95.178 86.2925C96.135 86.8312 97.213 87.1889 98.419 87.3538C99.666 87.5592 100.976 87.6636 102.347 87.6636C103.219 87.6636 104.112 87.642 105.027 87.6021C105.939 87.5592 106.771 87.4765 107.521 87.3538V80.4977C107.104 80.5805 106.667 80.6414 106.211 80.6842C105.752 80.7241 105.275 80.7458 104.776 80.7458C103.28 80.7458 102.285 80.4975 101.784 79.999C101.288 79.5001 101.037 78.5029 101.037 77.007V61.0513H107.521V55.1309H101.037ZM73.99 47.1838V87.3536H82.839V47.1838H73.99ZM58.034 71.5851V74.8864C58.034 75.3851 57.974 76.0521 57.845 76.8812C57.763 77.7129 57.494 78.5426 57.035 79.3747C56.578 80.1645 55.872 80.8496 54.917 81.4334C53.963 82.0148 52.6107 82.303 50.8671 82.303C50.1596 82.303 49.4748 82.2419 48.8106 82.1165C48.1464 81.9938 47.562 81.7856 47.0669 81.4923C46.5648 81.1619 46.1705 80.7241 45.8825 80.1856C45.5892 79.6468 45.4449 78.9806 45.4449 78.1908C45.4449 77.3591 45.5893 76.676 45.8825 76.1346C46.1705 75.5937 46.5467 75.1559 47.0019 74.8257C47.5006 74.4518 48.0609 74.1613 48.685 73.9533C49.3492 73.7454 50.0157 73.5773 50.6798 73.4546C51.3862 73.3296 52.0903 73.2252 52.8 73.1425C53.504 73.0597 54.171 72.9559 54.793 72.831C55.457 72.7079 56.061 72.5612 56.6 72.3934C57.182 72.1848 57.659 71.9155 58.034 71.5851ZM37.5914 65.0405H46.4421C46.6076 63.294 47.1889 62.0485 48.1863 61.2994C49.1837 60.5526 50.5543 60.1794 52.3013 60.1794C53.091 60.1794 53.816 60.2405 54.48 60.3659C55.187 60.4487 55.79 60.6564 56.289 60.9902C56.83 61.2807 57.246 61.7153 57.536 62.2968C57.867 62.8377 58.035 63.5875 58.035 64.542C58.075 65.4568 57.805 66.1635 57.224 66.6594C56.64 67.1182 55.851 67.4701 54.856 67.7207C53.859 67.9717 52.7145 68.1555 51.4261 68.2809C50.1388 68.4064 48.8323 68.5714 47.5006 68.7798C46.1705 68.9874 44.8421 69.2785 43.5117 69.6514C42.2232 69.9848 41.0611 70.5051 40.021 71.2092C39.0258 71.9153 38.1939 72.8728 37.5297 74.0785C36.9062 75.2414 36.594 76.7375 36.594 78.564C36.594 80.2284 36.8633 81.6604 37.4047 82.8654C37.9855 84.0711 38.7752 85.0685 39.7726 85.8575C40.7701 86.6472 41.9328 87.2257 43.2634 87.6019C44.5917 87.975 46.0262 88.1623 47.562 88.1623C49.5568 88.1623 51.5116 87.8712 53.421 87.2899C55.333 86.7085 56.995 85.6899 58.409 84.2366C58.449 84.7774 58.513 85.3166 58.595 85.8575C58.72 86.3562 58.864 86.8526 59.032 87.3536H68.006C67.59 86.6871 67.299 85.6897 67.134 84.3616C66.968 83.0309 66.883 81.6388 66.883 80.1855V63.419C66.883 61.4671 66.448 59.91 65.574 58.7444C64.702 57.5394 63.582 56.6059 62.209 55.9406C60.837 55.2747 59.323 54.8405 57.659 54.6322C55.997 54.383 54.358 54.2591 52.7361 54.2591C50.9489 54.2591 49.162 54.4444 47.3761 54.8189C45.6313 55.151 44.0531 55.7335 42.6393 56.5643C41.226 57.3951 40.0637 58.4963 39.1486 59.8674C38.2338 61.2378 37.7162 62.9631 37.5914 65.0405ZM3 47.1838V87.3536H11.8515V68.1262L24.1292 87.3536H34.8497L22.4167 68.1262L34.8495 47.1838H24.129L11.8515 68.1262V47.1838H3Z" fill="#007196"/>
<path d="M37.9837 102.832C37.0572 101.89 36.5939 100.619 36.5939 99.0181C36.5939 97.3807 37.057 96.0802 37.9837 95.1166C38.9102 94.1533 40.1584 93.6714 41.7282 93.6714C43.3104 93.6714 44.5631 94.1533 45.4866 95.1166C46.41 96.0802 46.8717 97.3807 46.8717 99.0181C46.8717 100.619 46.41 101.89 45.4866 102.832C44.5631 103.774 43.3104 104.245 41.7282 104.245C40.1584 104.245 38.9102 103.774 37.9837 102.832ZM43.529 101.253C43.9415 100.736 44.1476 99.9815 44.1476 98.9903C44.1476 97.9746 43.9413 97.2035 43.529 96.6772C43.1165 96.1509 42.5163 95.8877 41.7284 95.8877C40.9404 95.8877 40.3416 96.1509 39.9324 96.6772C39.5229 97.2035 39.3183 97.9746 39.3183 98.9903C39.3183 99.9815 39.5229 100.736 39.9324 101.253C40.3418 101.77 40.9404 102.028 41.7284 102.028C42.5163 102.028 43.1165 101.77 43.529 101.253Z" fill="#6EACC7"/>
<path d="M48.6724 93.9394H49.9283H51.1933V95.4261L51.3688 95.1768C52.0829 94.1734 53.025 93.6716 54.194 93.6716C55.469 93.6716 56.492 94.1425 57.265 95.0845C58.037 96.0263 58.424 97.2669 58.424 98.806C58.424 100.438 58.037 101.752 57.265 102.749C56.492 103.746 55.469 104.245 54.194 104.245C53.031 104.245 52.092 103.777 51.3779 102.841L51.3225 102.767V107.92H50.002H48.6724V93.9394ZM53.437 102.065C54.145 102.065 54.699 101.799 55.099 101.267C55.5 100.734 55.7 99.994 55.7 99.0458C55.7 98.0794 55.501 97.3237 55.104 96.7788C54.707 96.234 54.155 95.9617 53.446 95.9617C52.7384 95.9617 52.186 96.2417 51.7888 96.8019C51.3917 97.3623 51.1933 98.1409 51.1933 99.1383C51.1933 100.056 51.3919 100.773 51.7888 101.29C52.1858 101.807 52.7354 102.065 53.437 102.065Z" fill="#6EACC7"/>
<path d="M64.26 104.245C62.733 104.245 61.556 103.774 60.728 102.832C59.9 101.89 59.486 100.548 59.486 98.8058C59.486 97.199 59.907 95.9416 60.751 95.0337C61.594 94.1257 62.764 93.6716 64.26 93.6716C65.793 93.6716 66.973 94.135 67.801 95.0615C68.629 95.9879 69.043 97.307 69.043 99.0184C69.056 99.2154 69.04 99.4155 68.997 99.6186H62.154C62.216 100.413 62.391 101.007 62.681 101.401C63.05 101.893 63.666 102.14 64.528 102.14C64.928 102.14 65.299 102.026 65.64 101.798C65.982 101.57 66.187 101.296 66.255 100.976H68.951C68.723 101.998 68.195 102.798 67.367 103.377C66.539 103.956 65.503 104.245 64.26 104.245ZM66.282 97.9285C66.221 97.3254 66.061 96.8543 65.802 96.5156C65.463 96.0662 64.937 95.8416 64.223 95.8416C63.54 95.8416 63.019 96.1033 62.662 96.6264C62.441 96.9589 62.28 97.3929 62.182 97.9285H66.282Z" fill="#6EACC7"/>
<path d="M70.798 93.9394H72.054H73.319V95.426C73.423 95.2477 73.537 95.0782 73.66 94.918C74.313 94.0869 75.261 93.6714 76.505 93.6714C77.563 93.6714 78.393 93.9853 78.993 94.6132C79.593 95.2411 79.894 96.1123 79.894 97.2264V103.986H78.573H77.243V97.7066C77.243 97.085 77.11 96.6246 76.842 96.326C76.574 96.0276 76.163 95.8782 75.609 95.8782C74.913 95.8782 74.379 96.0875 74.007 96.5061C73.634 96.9248 73.448 97.5281 73.448 98.3159V103.986H72.128H70.798V93.9394Z" fill="#6EACC7"/>
<path d="M93.291 96.9499C93.291 96.562 93.131 96.2513 92.81 96.0171C92.49 95.7834 92.065 95.6663 91.535 95.6663C91.024 95.6663 90.625 95.7541 90.339 95.9296C90.052 96.1051 89.909 96.3498 89.909 96.6637C89.909 96.8854 90.072 97.0764 90.398 97.2362C90.719 97.3901 91.288 97.5594 92.107 97.7442C93.733 98.1074 94.82 98.5046 95.368 98.9354C95.917 99.3664 96.192 100.043 96.192 100.967C96.192 101.952 95.793 102.744 94.996 103.345C94.199 103.945 93.147 104.245 91.842 104.245C90.297 104.245 89.107 103.949 88.272 103.358C87.438 102.768 86.993 101.906 86.938 100.773H89.634C89.653 101.235 89.858 101.596 90.249 101.858C90.64 102.12 91.171 102.25 91.842 102.25C92.372 102.25 92.786 102.16 93.084 101.978C93.383 101.796 93.532 101.542 93.532 101.216C93.532 100.988 93.388 100.795 93.099 100.634C92.809 100.481 92.301 100.324 91.575 100.164C89.875 99.7819 88.739 99.3787 88.167 98.9539C87.595 98.5354 87.309 97.886 87.309 97.0055C87.309 96.0082 87.68 95.2034 88.421 94.5906C89.163 93.9782 90.14 93.6719 91.353 93.6719C92.719 93.6719 93.821 93.972 94.658 94.5723C95.495 95.1725 95.914 95.9651 95.914 96.95H93.291V96.9499Z" fill="#6EACC7"/>
<path d="M98.93 102.832C98.003 101.89 97.54 100.619 97.54 99.0181C97.54 97.3807 98.003 96.0802 98.93 95.1166C99.856 94.1533 101.105 93.6714 102.675 93.6714C104.256 93.6714 105.509 94.1533 106.433 95.1166C107.356 96.0802 107.818 97.3807 107.818 99.0181C107.818 100.619 107.356 101.89 106.433 102.832C105.509 103.774 104.256 104.245 102.675 104.245C101.105 104.245 99.856 103.774 98.93 102.832ZM104.475 101.253C104.888 100.736 105.094 99.9815 105.094 98.9903C105.094 97.9746 104.887 97.2035 104.475 96.6772C104.062 96.1509 103.462 95.8877 102.675 95.8877C101.886 95.8877 101.288 96.1509 100.878 96.6772C100.469 97.2035 100.264 97.9746 100.264 98.9903C100.264 99.9815 100.469 100.736 100.878 101.253C101.288 101.77 101.886 102.028 102.675 102.028C103.462 102.028 104.063 101.77 104.475 101.253Z" fill="#6EACC7"/>
<path d="M112.343 100.228C112.343 100.844 112.475 101.299 112.74 101.595C113.004 101.89 113.411 102.038 113.959 102.038C114.648 102.038 115.178 101.829 115.547 101.41C115.916 100.992 116.101 100.388 116.101 99.6004V93.9397H117.421H118.751V103.987H117.495H116.23V102.481C116.138 102.666 116.027 102.839 115.898 102.998C115.245 103.83 114.3 104.245 113.063 104.245C112.004 104.245 111.177 103.933 110.584 103.308C109.989 102.683 109.692 101.816 109.692 100.708V93.9397H111.013H112.342V100.228H112.343Z" fill="#6EACC7"/>
<path d="M121.208 93.9394H122.464H123.729V95.74C123.821 95.5431 123.925 95.3521 124.043 95.1675C124.664 94.1703 125.468 93.6716 126.453 93.6716L127.053 93.6809V96.3866C126.819 96.362 126.554 96.3497 126.259 96.3497C125.452 96.3497 124.851 96.55 124.453 96.95C124.056 97.3501 123.858 97.9565 123.858 98.7691V103.986H122.538H121.208V93.9394Z" fill="#6EACC7"/>
<path d="M137.266 100.265C137.13 101.514 136.666 102.49 135.872 103.192C135.078 103.894 134.043 104.245 132.769 104.245C131.248 104.245 130.074 103.792 129.246 102.887C128.418 101.982 128.004 100.693 128.004 99.0181C128.004 97.3807 128.434 96.0802 129.292 95.1166C130.151 94.1533 131.31 93.6714 132.769 93.6714C134.062 93.6714 135.121 94.0286 135.946 94.7425C136.771 95.4566 137.211 96.3954 137.266 97.5591H134.57C134.545 97.0604 134.368 96.6572 134.039 96.3495C133.709 96.0418 133.286 95.8878 132.769 95.8878C132.104 95.8878 131.598 96.1541 131.25 96.6867C130.902 97.2192 130.728 97.9965 130.728 99.0183C130.728 100.016 130.902 100.774 131.25 101.295C131.598 101.815 132.104 102.075 132.769 102.075C133.249 102.075 133.656 101.909 133.988 101.576C134.32 101.244 134.514 100.807 134.57 100.265H137.266Z" fill="#6EACC7"/>
<path d="M143.084 104.245C141.557 104.245 140.379 103.774 139.551 102.832C138.723 101.89 138.31 100.548 138.31 98.8058C138.31 97.199 138.731 95.9416 139.575 95.0337C140.418 94.1257 141.588 93.6716 143.084 93.6716C144.616 93.6716 145.797 94.135 146.625 95.0615C147.453 95.9879 147.867 97.307 147.867 99.0184C147.879 99.2154 147.864 99.4155 147.821 99.6186H140.978C141.04 100.413 141.215 101.007 141.505 101.401C141.874 101.893 142.489 102.14 143.351 102.14C143.751 102.14 144.122 102.026 144.464 101.798C144.806 101.57 145.011 101.296 145.078 100.976H147.775C147.547 101.998 147.019 102.798 146.191 103.377C145.363 103.956 144.327 104.245 143.084 104.245ZM145.106 97.9285C145.044 97.3254 144.884 96.8543 144.626 96.5156C144.287 96.0662 143.761 95.8416 143.047 95.8416C142.363 95.8416 141.843 96.1033 141.486 96.6264C141.264 96.9589 141.104 97.3929 141.006 97.9285H145.106Z" fill="#6EACC7"/>
<path d="M153.897 93.9395H155.355H156.823L158.96 101.436H158.971L161.128 93.9395H162.522H163.916L160.287 103.986H158.911H157.526L153.897 93.9395Z" fill="#6EACC7"/>
<path d="M165.467 90.3103H168.164V92.7666H165.467V90.3103ZM165.495 93.9395H166.816H168.145V103.986H166.825H165.495V93.9395Z" fill="#6EACC7"/>
<path d="M174.342 104.245C173.061 104.245 172.028 103.746 171.243 102.749C170.458 101.752 170.066 100.437 170.066 98.8058C170.066 97.2667 170.457 96.0263 171.239 95.0843C172.02 94.1425 173.049 93.6714 174.323 93.6714C175.462 93.6714 176.379 94.1516 177.075 95.1119L177.186 95.2596V90.4116H178.506H179.836V103.986H178.552H177.269V102.702L177.223 102.767C176.49 103.752 175.53 104.245 174.342 104.245ZM175.053 95.9616C174.345 95.9616 173.79 96.234 173.39 96.7788C172.99 97.3237 172.79 98.0794 172.79 99.0458C172.79 99.994 172.989 100.734 173.386 101.267C173.783 101.799 174.335 102.065 175.043 102.065C175.757 102.065 176.315 101.786 176.715 101.225C177.115 100.665 177.315 99.8862 177.315 98.8888C177.315 97.9716 177.115 97.2543 176.715 96.7372C176.315 96.2202 175.76 95.9616 175.053 95.9616Z" fill="#6EACC7"/>
<path d="M186.18 104.245C184.653 104.245 183.476 103.774 182.648 102.832C181.82 101.89 181.406 100.548 181.406 98.8058C181.406 97.199 181.827 95.9416 182.671 95.0337C183.514 94.1257 184.684 93.6716 186.18 93.6716C187.713 93.6716 188.893 94.135 189.721 95.0615C190.549 95.9879 190.963 97.307 190.963 99.0184C190.975 99.2154 190.96 99.4155 190.917 99.6186H184.075C184.136 100.413 184.311 101.007 184.601 101.401C184.97 101.893 185.586 102.14 186.448 102.14C186.848 102.14 187.219 102.026 187.561 101.798C187.902 101.57 188.107 101.296 188.175 100.976H190.871C190.643 101.998 190.115 102.798 189.287 103.377C188.459 103.956 187.423 104.245 186.18 104.245ZM188.202 97.9285C188.141 97.3254 187.981 96.8543 187.722 96.5156C187.383 96.0662 186.857 95.8416 186.143 95.8416C185.46 95.8416 184.939 96.1033 184.582 96.6264C184.361 96.9589 184.2 97.3929 184.102 97.9285H188.202Z" fill="#6EACC7"/>
<path d="M193.526 102.832C192.599 101.89 192.136 100.619 192.136 99.0181C192.136 97.3807 192.599 96.0802 193.526 95.1166C194.452 94.1533 195.7 93.6714 197.27 93.6714C198.852 93.6714 200.105 94.1533 201.029 95.1166C201.952 96.0802 202.414 97.3807 202.414 99.0181C202.414 100.619 201.952 101.89 201.029 102.832C200.105 103.774 198.852 104.245 197.27 104.245C195.7 104.245 194.452 103.774 193.526 102.832ZM199.071 101.253C199.483 100.736 199.69 99.9815 199.69 98.9903C199.69 97.9746 199.483 97.2035 199.071 96.6772C198.658 96.1509 198.058 95.8877 197.27 95.8877C196.482 95.8877 195.884 96.1509 195.474 96.6772C195.065 97.2035 194.86 97.9746 194.86 98.9903C194.86 99.9815 195.065 100.736 195.474 101.253C195.884 101.77 196.482 102.028 197.27 102.028C198.058 102.028 198.658 101.77 199.071 101.253Z" fill="#6EACC7"/>
</svg>
