<svg xmlns="http://www.w3.org/2000/svg" width="208" height="59" fill="none" viewBox="0 0 208 59">
  <path fill="#48C6DD" d="M29.2 6.4C16.8 6.4 6.6 16.4 6.6 29c0 12.6 10 22.6 22.6 22.6 12.6 0 22.6-10 22.6-22.6 0-12.4-10.2-22.6-22.6-22.6Zm-6 3.2c4-1.2 8.4-1.2 12.4 0-1.2.8-2.2 2.2-2.8 3.6-.8 2.6 0 5 .8 7v.2c.4 1.2.6 2.8-.6 3.8-.4-.4-1-.8-1.6-1 .2-2.6-1.2-4.8-4.2-6H27c-1.8-.8-3.4-1.6-4.4-3.2-.6-1.6-.2-3.2.6-4.4ZM32.4 29c0 1.8-1.4 3.2-3.2 3.2-1.8 0-3.2-1.6-3.2-3.2s1.4-3.2 3.2-3.2c1.8 0 3.2 1.4 3.2 3.2ZM19.6 11.2c-.2 1.4 0 3 .8 4.4C21.6 18 24 19 26 20l.2.2c1.2.6 2.4 1.4 2.4 3-.6 0-1.2.2-1.8.4-1.6-2-4.4-2.6-7.2-1.4h-.2c-2 .8-3.6 1.2-5.2.8-1.4-.4-2.4-1.6-3-3 1.8-3.8 4.8-7 8.4-8.8ZM9.8 35c-1.2-3.8-1.2-8 0-11.8.8 1 2 1.8 3.4 2.4 2.6.8 5 0 7.2-.8h.2c1.2-.4 3-.6 4 .6-.4.4-.6 1-1 1.6-2.6-.2-5 1.2-6.2 4h-.2c-.8 1.8-1.6 3.4-3.2 4.2-1.2.4-2.8.4-4.2-.2Zm9.6 11.8c-3.6-2-6.4-5-8.2-8.4h1c1.2 0 2.2-.2 3.2-.8 2.4-1.2 3.6-3.4 4.4-5.4l.2-.2c.6-1.2 1.6-2.6 3.4-2.4 0 .6.2 1.2.4 1.8-2 1.6-2.6 4.4-1.6 7.2v.2c.8 1.8 1.4 3.4.8 5.2-.6 1.8-2.2 2.6-3.4 3l-.2-.2Zm15.8 1.6c-4 1.2-8.4 1.2-12.4 0 1.2-.8 2.2-2.2 2.8-3.6.8-2.6 0-5-.8-7v-.2c-.4-1.2-.8-2.8.6-4 .4.4 1 .8 1.6 1-.2 2.6 1.2 4.8 4.2 6.2l.2.2c1.8.8 3.4 1.6 4.2 3.2.8 1.4.4 3-.4 4.2.2-.2.2-.2 0 0Zm3.6-1.6c.2-1.4 0-3-.8-4.2-1.2-2.4-3.6-3.4-5.6-4.4l-.2-.2c-1.2-.6-2.6-1.6-2.4-3.2.6 0 1.2-.2 1.8-.4 1.6 2 4.4 2.6 7.4 1.6h.2c2-.8 3.6-1.2 5.2-.8 1.4.4 2.4 1.6 3 2.8-2 3.8-5 6.8-8.6 8.8ZM49.4 29c0 2-.2 4-.8 5.8-.8-1-2-1.8-3.4-2.2-2.6-.8-5 0-7 .8H38c-1.2.4-3 .6-4.2-.6.4-.4.6-1 1-1.4h.6c2.4 0 4.4-1.4 5.6-4l.2-.2c.8-1.8 1.6-3.4 3.2-4.2 1.4-.6 3-.6 4.2 0 .6 2 .8 4 .8 6ZM43 20.4c-2.4 1.2-3.6 3.4-4.4 5.4l-.2.2c-.6 1.2-1.6 2.6-3.4 2.4 0-.6-.2-1.2-.4-1.8 2-1.6 2.6-4.4 1.6-7.2v-.2c-.8-1.8-1.4-3.4-.8-5.2.6-1.8 2.2-2.6 3.4-3h.2c3.6 2 6.4 5 8.2 8.6-1.4 0-2.8.2-4.2.8Z"/>
  <path fill="#48C6DD" d="M29.2.2C13.4.2.6 13 .6 29s12.8 28.6 28.8 28.6C45.2 57.6 58 44.8 58 29 57.8 13.2 45 .2 29.2.2Zm0 53.8C15.4 54 4 42.8 4 29S15.2 4 29 4s25.2 11.2 25.2 25-11.2 25-25 25Z"/>
  <path fill="#48C6DD" d="M53 5.4C50.4 2.6 46.8.6 43.8 0c-.2 0-.4 0-.4.4 0 .2 0 .4.2.4 6.2 3 11.2 8 14 14.2 0 .2.4.2.6.2.2 0 .2-.2.2-.4-.8-3.4-2.6-6.8-5.4-9.4ZM14.8 57.2c-6.2-3-11.2-8-14-14.2 0-.2-.4-.2-.6-.2-.2.2-.2.4-.2.6.6 3.2 2.6 6.6 5.2 9.4 2.8 2.8 6.2 4.8 9.2 5.4.2 0 .4-.2.4-.4.2-.4 0-.4 0-.6ZM81 17.6H70.4c-.4 0-.6.2-.6.6V40c0 .4.2.6.6.6h2.2c.4 0 .6-.2.6-.6v-9.2H80c.4 0 .6-.2.6-.6V28c0-.4-.2-.6-.6-.6h-6.8V21H81c.4 0 .6-.2.6-.6v-2.2c0-.4-.2-.6-.6-.6Zm16.4 19.6h-7.8v-19c0-.4-.2-.6-.6-.6h-2.2c-.4 0-.6.2-.6.6V40c0 .4.2.6.6.6h10.6c.4 0 .6-.2.6-.6v-2.2c0-.2-.2-.6-.6-.6Zm14.8-19.8h-2.4c-.2 0-.4.2-.6.4l-4.8 8.8-4.8-8.8c-.2-.2-.4-.4-.6-.4h-2.4c-.4 0-.6.2-.6.6v.2l6.6 12.2v9.4c0 .4.2.6.6.6h2.2c.4 0 .6-.2.6-.6v-9.2l6.6-12.4c.2-.4 0-.6-.2-.8 0 .2-.2 0-.2 0Zm95.2 19.8h-7.8v-19c0-.4-.2-.6-.6-.6h-2.2c-.4 0-.6.2-.6.6V40c0 .4.2.6.6.6h10.6c.4 0 .6-.2.6-.6v-2.2c0-.2-.2-.6-.6-.6Zm-50.6-19.6h-2.2c-.4 0-.6.2-.6.6v9.2h-7.6v-9.2c0-.4-.2-.6-.6-.6h-2.2c-.4 0-.6.2-.6.6V40c0 .4.2.6.6.6h2.2c.4 0 .6-.2.6-.6v-9.2h7.6V40c0 .4.2.6.6.6h2.2c.4 0 .6-.2.6-.6V18.2c0-.4-.4-.6-.6-.6Zm17 0H163c-.4 0-.6.2-.6.6V40c0 .4.2.6.6.6h10.8c.4 0 .6-.2.6-.6v-2.2c0-.4-.2-.6-.6-.6h-8v-6.6h7c.4 0 .6-.2.6-.6v-2.2c0-.4-.2-.6-.6-.6h-7V21h8c.4 0 .6-.2.6-.6v-2.2c0-.4-.2-.6-.6-.6Zm17 0H180c-.4 0-.6.2-.6.6V40c0 .4.2.6.6.6h10.8c.4 0 .6-.2.6-.6v-2.2c0-.4-.2-.6-.6-.6h-8v-6.6h7c.4 0 .6-.2.6-.6v-2.2c0-.4-.2-.6-.6-.6h-7V21h8c.4 0 .6-.2.6-.6v-2.2c0-.4-.4-.6-.6-.6Zm-52.2 0h-2.4c-.2 0-.4.2-.4.4l-3.6 15.4-3.6-15.4c0-.2-.2-.4-.4-.4H126c-.2 0-.4.2-.4.4L122 33.4 118.4 18c0-.2-.2-.4-.4-.4h-2.4c-.2 0-.4.2-.4.4v.2l5.2 22.2c0 .2.2.4.4.4h2.4c.2 0 .4-.2.4-.4l3.6-15.4 3.6 15.4c0 .2.2.4.4.4h2.4c.2 0 .4-.2.4-.4l5.2-22.2c0-.4-.2-.6-.6-.6.2 0 .2 0 0 0Z"/>
</svg>
