<svg xmlns="http://www.w3.org/2000/svg" width="268" height="92" fill="none" viewBox="0 0 268 92">
  <path fill="#fff" d="M92 48.226c0-7.732-4.783-14.526-11.976-17.143.31-1.64.466-3.28.466-4.96C80.49 11.716 68.825 0 54.516 0c-8.4 0-16.176 4.022-21.076 10.817a13.715 13.715 0 0 0-8.437-2.89c-7.622 0-13.804 6.209-13.804 13.863 0 1.679.31 3.319.855 4.842C4.9 29.209 0 36.12 0 43.813a18.218 18.218 0 0 0 12.015 17.182 26.144 26.144 0 0 0-.466 4.96C11.549 80.324 23.175 92 37.484 92c8.4 0 16.176-4.061 21.037-10.856 2.41 1.914 5.366 2.968 8.438 2.968 7.62 0 13.803-6.209 13.803-13.862 0-1.68-.31-3.32-.855-4.843C87.062 62.83 92 55.92 92 48.227Z"/>
  <path fill="#FED10A" d="M35.945 39.821 56.18 49l20.39-17.813c.313-1.478.43-2.917.43-4.473C77 14.19 66.766 4 54.187 4a22.769 22.769 0 0 0-18.789 9.879L32 31.42l3.945 8.401Z"/>
  <path fill="#24BBB1" d="M15.428 60.814c-.311 1.472-.428 2.982-.428 4.531C15 77.854 25.238 88 37.811 88a22.826 22.826 0 0 0 18.841-9.914L60 60.698l-4.477-8.52L35.281 43 15.428 60.814Z"/>
  <path fill="#EF5098" d="M14.68 25.713 28.88 29 32 13.23C30.08 11.783 27.68 11 25.2 11 19.04 11 14 15.891 14 21.956c0 1.292.24 2.583.68 3.757Z"/>
  <path fill="#17A8E0" d="M14.401 29C8.292 31.046 4 37.027 4 43.598 4 50.012 7.905 55.718 13.744 58L33 40.293l-3.519-7.673L14.401 29Z"/>
  <path fill="#93C83E" d="M60 78.73c1.855 1.448 4.09 2.27 6.399 2.27C72.229 81 77 76.109 77 70.043c0-1.33-.227-2.621-.644-3.795L62.953 63 60 78.73Z"/>
  <path fill="#0779A1" d="M63.055 59.42 78.41 63C84.67 60.954 89 54.973 89 48.362c0-6.374-3.976-12.12-9.921-14.362L59 51.589l4.055 7.83Z"/>
  <path fill="#000" d="m128.964 64.447 1.829-.195.117 3.736c-4.826.662-8.952 1.012-12.377 1.012-4.554 0-7.784-1.323-9.692-3.97-1.907-2.646-2.841-6.77-2.841-12.335C106 41.565 110.437 36 119.272 36c4.282 0 7.474 1.206 9.575 3.58 2.102 2.374 3.153 6.15 3.153 11.247l-.272 3.619h-20.941c0 3.502.623 6.11 1.908 7.783 1.284 1.673 3.464 2.53 6.616 2.53 3.192.077 6.384-.04 9.653-.312Zm-1.713-13.737c0-3.892-.622-6.655-1.868-8.25-1.245-1.596-3.269-2.413-6.072-2.413-2.802 0-4.943.856-6.344 2.53-1.401 1.673-2.141 4.397-2.18 8.133h16.464ZM138 69V23h5v46h-5Zm35.121-22.765V61.84c0 1.595 3.879 1.906 3.879 1.906l-.23 4.203c-3.304 0-6.031.273-7.682-1.323C165.324 68.3 161.598 69 157.834 69c-2.881 0-5.07-.817-6.568-2.49-1.498-1.636-2.266-4.01-2.266-7.123 0-3.074.768-5.37 2.305-6.81 1.536-1.44 3.956-2.374 7.259-2.685l9.832-.934v-2.724c0-2.14-.46-3.697-1.382-4.631-.922-.934-2.19-1.401-3.764-1.401h-12.33V36h12.022c3.534 0 6.107.817 7.721 2.49 1.651 1.635 2.458 4.242 2.458 7.745Zm-19.281 12.92c0 3.891 1.574 5.837 4.762 5.837 2.842 0 5.646-.467 8.373-1.44l1.421-.506V52.578l-9.256.895c-1.882.156-3.226.7-4.071 1.634-.845.934-1.229 2.296-1.229 4.047Zm37.886-18.947c-4.612 0-6.957 1.597-6.957 4.831 0 1.48.547 2.532 1.602 3.156 1.056.623 3.479 1.247 7.271 1.909 3.791.662 6.449 1.558 8.013 2.766 1.563 1.169 2.345 3.39 2.345 6.663 0 3.272-1.055 5.649-3.166 7.168-2.111 1.52-5.16 2.299-9.225 2.299-2.619 0-11.414-.974-11.414-.974l.274-4.13c5.042.468 8.717.857 11.179.857 2.463 0 4.339-.39 5.629-1.169 1.29-.779 1.954-2.104 1.954-3.935 0-1.83-.547-3.078-1.641-3.74-1.095-.662-3.518-1.286-7.271-1.87-3.752-.584-6.41-1.442-7.974-2.61-1.563-1.13-2.345-3.273-2.345-6.351s1.094-5.377 3.283-6.857c2.189-1.48 4.925-2.221 8.17-2.221 2.58 0 11.57.662 11.57.662v4.17c-4.73-.274-8.6-.624-11.297-.624Zm35.84.598h-10.217v15.125c0 3.606.276 6.01.789 7.136.552 1.124 1.815 1.706 3.826 1.706l5.72-.388.316 3.917c-2.88.465-5.049.698-6.548.698-3.353 0-5.641-.814-6.943-2.404-1.302-1.59-1.933-4.654-1.933-9.153V40.806H208v-4.11h4.576V27h4.773v9.657h10.217v4.15ZM234 29.437V24h5v5.476l-5-.039ZM234 68V36.571h5V68h-5Zm25.286-32c1.407 0 3.79.272 7.151.778l1.524.195-.195 3.852c-3.4-.389-5.901-.583-7.503-.583-3.595 0-6.057.856-7.346 2.568-1.29 1.712-1.954 4.903-1.954 9.534 0 4.631.586 7.861 1.797 9.69 1.212 1.83 3.712 2.724 7.542 2.724l7.503-.584.195 3.93c-3.947.585-6.917.896-8.87.896-4.963 0-8.402-1.284-10.277-3.814-1.876-2.53-2.853-6.81-2.853-12.842 0-6.032 1.016-10.273 3.048-12.686 2.071-2.413 5.471-3.658 10.238-3.658Z"/>
</svg>
