<svg xmlns="http://www.w3.org/2000/svg" width="349" height="76" viewBox="0 0 349 76">
  <path fill="#333" d="m139.752 43.638-6.062-16.344c-.248-.668-1.193-.668-1.44 0l-6.063 16.344a.769.769 0 0 0 .721 1.036h12.124a.768.768 0 0 0 .72-1.036Zm2.801 9.186h-19.166a.77.77 0 0 0-.721.5l-3.773 10.17a.768.768 0 0 1-.72.5h-8.306a.768.768 0 0 1-.713-1.053l19.125-47.646a.769.769 0 0 1 .713-.482h7.955a.77.77 0 0 1 .713.482l19.126 47.645a.768.768 0 0 1-.713 1.055h-8.307a.768.768 0 0 1-.72-.501l-3.773-10.17a.768.768 0 0 0-.72-.5Zm18.125-21.289h7.105c.425 0 .768.344.768.768v30.924a.768.768 0 0 1-.768.768h-7.105a.77.77 0 0 1-.769-.768V32.303a.77.77 0 0 1 .769-.768Zm33.786 7.522a.768.768 0 0 1-.768.769h-.215c-3.513 0-6.09.843-7.729 2.529-1.64 1.686-2.459 4.473-2.459 8.361v12.51a.769.769 0 0 1-.769.77h-7.035a.768.768 0 0 1-.768-.77V32.304c0-.424.344-.768.768-.768h6.965c.425 0 .768.344.768.768v6.117h.141c.843-2.529 2.178-4.472 4.005-5.831 1.827-1.358 4.075-2.038 6.745-2.038h.351v8.506Zm19.427-.285a.768.768 0 0 0-.768.768v12.862c0 1.312.257 2.248.773 2.81.515.563 1.405.844 2.669.844h.708c.424 0 .768.344.768.768v6.473a.768.768 0 0 1-.768.768h-3.026c-3.138 0-5.55-.808-7.237-2.424-1.686-1.616-2.529-4.015-2.529-7.201v-14.9a.769.769 0 0 0-.769-.768h-4.435a.768.768 0 0 1-.768-.768v-5.7c0-.425.344-.769.768-.769h4.435a.768.768 0 0 0 .769-.768V19.305c0-.424.344-.768.768-.768h7.106c.424 0 .768.344.768.768v11.462c0 .424.344.768.768.768h5.138c.425 0 .768.344.768.768v5.7a.768.768 0 0 1-.768.769h-5.138Zm32.536 15.598c1.616-1.687 2.424-3.888 2.424-6.605 0-2.716-.808-4.918-2.424-6.605-1.616-1.686-3.736-2.529-6.359-2.529-2.624 0-4.742.843-6.358 2.53-1.616 1.686-2.424 3.888-2.424 6.604 0 2.717.808 4.918 2.424 6.605 1.616 1.686 3.734 2.529 6.358 2.529 2.623 0 4.743-.843 6.359-2.53Zm-16.406 8.641c-2.389-1.358-4.275-3.337-5.655-5.937-1.383-2.599-2.073-5.702-2.073-9.31 0-3.605.69-6.71 2.073-9.308 1.38-2.6 3.266-4.578 5.655-5.937 2.389-1.359 5.012-2.038 7.869-2.038 2.529 0 4.695.492 6.499 1.476a11.302 11.302 0 0 1 4.321 4.145h.141v-3.799c0-.424.344-.768.768-.768h7.035c.424 0 .768.344.768.768v30.923a.768.768 0 0 1-.768.769h-7.035a.768.768 0 0 1-.768-.769v-3.798h-.141a11.295 11.295 0 0 1-4.321 4.145c-1.804.984-3.97 1.476-6.499 1.476-2.857 0-5.48-.68-7.869-2.038Zm56.659-8.642c1.616-1.686 2.424-3.887 2.424-6.604 0-2.716-.808-4.918-2.424-6.605-1.615-1.686-3.735-2.529-6.358-2.529-2.624 0-4.743.843-6.359 2.53-1.615 1.686-2.424 3.888-2.424 6.604 0 2.717.809 4.918 2.424 6.605 1.616 1.686 3.735 2.529 6.359 2.529 2.623 0 4.743-.843 6.358-2.53Zm-10.679 9.204a11.28 11.28 0 0 1-4.321-4.145h-.141v3.798a.767.767 0 0 1-.768.769h-7.105a.769.769 0 0 1-.769-.769V15.581a.77.77 0 0 1 .769-.768h7.105c.425 0 .768.344.768.768v20.521h.141a11.288 11.288 0 0 1 4.321-4.145c1.803-.984 3.969-1.476 6.499-1.476 2.857 0 5.48.68 7.869 2.038 2.389 1.36 4.274 3.337 5.656 5.937 1.381 2.599 2.073 5.703 2.073 9.309 0 3.607-.692 6.71-2.073 9.31-1.382 2.599-3.267 4.578-5.656 5.936-2.389 1.358-5.012 2.038-7.869 2.038-2.53 0-4.696-.492-6.499-1.476Zm34.068.422h-7.106a.768.768 0 0 1-.768-.768V15.582a.77.77 0 0 1 .768-.769h7.106a.77.77 0 0 1 .768.769v47.645a.768.768 0 0 1-.768.768Zm16.759-24.942c-1.178.919-1.973 2.245-2.385 3.98a.769.769 0 0 0 .752.938h13.522c.469 0 .838-.42.762-.883-.27-1.642-.974-2.95-2.112-3.93-1.334-1.147-3.08-1.721-5.234-1.721-2.155 0-3.924.539-5.305 1.616Zm17.319-4.04c2.764 3.021 4.146 7.296 4.146 12.822v.918a.768.768 0 0 1-.769.768h-22.59a.773.773 0 0 0-.76.905c.361 2.052 1.269 3.683 2.725 4.892 1.662 1.382 3.759 2.073 6.288 2.073 3.265 0 6.288-1.275 9.067-3.824a.764.764 0 0 1 1.141.133l3.454 4.958a.768.768 0 0 1-.118 1.015 25.43 25.43 0 0 1-5.605 3.724c-2.248 1.1-4.895 1.652-7.939 1.652-3.513 0-6.582-.715-9.204-2.143-2.624-1.428-4.661-3.443-6.112-6.043-1.453-2.599-2.179-5.608-2.179-9.028 0-3.418.703-6.44 2.108-9.063 1.405-2.623 3.372-4.66 5.902-6.113 2.529-1.45 5.48-2.178 8.853-2.178 4.963 0 8.828 1.51 11.592 4.532Zm-174.669-14.91a5.248 5.248 0 1 1-10.495 0 5.248 5.248 0 0 1 10.495 0Z"/>
  <path fill="#FCB400" d="M40.463.957 6.679 14.936c-1.879.777-1.86 3.446.031 4.195l33.926 13.454a12.588 12.588 0 0 0 9.28 0L83.843 19.13c1.89-.75 1.91-3.418.031-4.195L50.09.956a12.589 12.589 0 0 0-9.627 0Z"/>
  <path fill="#18BFFF" d="M48.286 39.931V73.54a2.263 2.263 0 0 0 3.098 2.104L89.187 60.97a2.263 2.263 0 0 0 1.429-2.104V25.258a2.263 2.263 0 0 0-3.098-2.104L49.715 37.827a2.264 2.264 0 0 0-1.43 2.104Z"/>
  <path fill="#F82B60" d="m39.459 41.665-11.22 5.417-1.139.55-23.682 11.35C1.916 59.704 0 58.61 0 56.943V25.399c0-.603.31-1.124.724-1.517.174-.173.37-.316.574-.43a2.414 2.414 0 0 1 2.06-.158l35.912 14.23c1.826.723 1.97 3.281.189 4.141Z"/>
  <path fill="#000" fill-opacity=".25" d="m39.459 41.665-11.22 5.417-27.515-23.2c.174-.173.37-.316.574-.43a2.414 2.414 0 0 1 2.06-.158l35.912 14.23c1.826.723 1.97 3.281.189 4.141Z"/>
</svg>
