<svg width="328" height="82" viewBox="0 0 328 82" fill="none" xmlns="http://www.w3.org/2000/svg">
<path d="M21.3524 4C18.2972 4 15.848 6.37 15.848 9.28V27.339H9.10334C6.0492 27.339 3.60001 29.717 3.60001 32.619V71.72C3.60001 74.63 6.0492 77 9.10334 77H50.0332C53.0884 77 55.6147 74.63 55.6147 71.72V65.292H74.5292C77.5803 65.292 80.0326 62.914 80.0326 60.012V20.912C80.0326 18.007 77.5803 15.709 74.5292 15.709H67.7845V9.28C67.7845 6.37 65.3282 4 62.2812 4H21.3524ZM21.3524 6.984H62.2812C63.617 6.984 64.6837 8 64.6837 9.28V15.708H33.5993C30.5513 15.708 28.0179 18.006 28.0179 20.911V27.339H18.9488V9.279C18.9488 8 20.0054 6.984 21.3513 6.984H21.3524ZM33.5993 18.615H64.6837V48.305C64.6837 49.585 63.618 50.677 62.2812 50.677H55.6147V32.618C55.6147 29.717 53.0873 27.338 50.0332 27.338H31.1187V20.911C31.1187 19.635 32.2626 18.615 33.5993 18.615ZM67.7845 18.615H74.5292C75.869 18.615 76.9317 19.635 76.9317 20.911V60.013C76.9317 61.289 75.868 62.308 74.5292 62.308H55.6147V53.661H62.2812C65.3293 53.661 67.7845 51.216 67.7845 48.305V18.615ZM146.93 27.109C143.461 27.109 140.463 28.499 138.171 30.859C137.855 28.689 136.357 27.415 133.985 27.415H124.761C122.172 27.415 121.114 29.255 120.652 30.629L114.684 48.229H114.605L108.637 30.629C108.184 29.255 107.046 27.415 104.45 27.415C101.933 27.415 99.5672 28.915 99.5672 31.777C99.5672 32.576 99.7408 33.264 100.186 34.378L109.567 57.488C110.472 59.777 111.428 61.16 114.605 61.16C117.78 61.16 118.742 59.777 119.644 57.487L129.334 33.996V56.263C129.334 59.233 131.266 61.16 133.985 61.16C136.689 61.16 138.637 59.232 138.637 56.263V40.73C138.637 37.14 140.289 34.531 144.14 34.531C147.538 34.531 149.643 37.139 149.643 40.73V56.263C149.643 59.233 151.588 61.16 154.295 61.16C157.002 61.16 158.946 59.232 158.946 56.263V40.73C158.946 37.14 160.992 34.531 164.45 34.531C167.845 34.531 169.953 37.139 169.953 40.73V56.263C169.953 59.233 171.897 61.16 174.604 61.16C177.314 61.16 179.256 59.232 179.256 56.263V39.123C179.256 31.33 174.13 27.109 166.543 27.109C163.34 27.109 159.201 28.774 156.62 31.624C154.158 28.652 150.841 27.109 146.93 27.109V27.109ZM184.759 27.415C182.812 27.415 182.046 28.802 182.046 29.864C182.046 30.421 182.248 31.198 182.511 32.006L191.969 58.329C192.743 60.435 193.684 61.16 195.302 61.16C196.858 61.16 197.777 60.435 198.48 58.33L205.922 36.062H205.999L213.441 58.329C214.148 60.435 215.069 61.16 216.619 61.16C218.247 61.16 219.18 60.435 219.952 58.33L229.41 32.006C229.664 31.204 229.875 30.421 229.875 29.864C229.875 28.804 229.112 27.415 227.162 27.415C225.937 27.415 224.756 27.886 223.983 30.246L216.619 52.82H216.542L209.332 31.088C208.557 28.728 207.993 27.415 205.922 27.415C203.847 27.415 203.376 28.728 202.589 31.088L195.379 52.82H195.224L187.937 30.246C187.15 27.883 185.99 27.416 184.76 27.416L184.759 27.415ZM247.394 27.415C237.655 27.415 232.2 35.554 232.2 44.326C232.2 53.098 237.655 61.16 247.394 61.16C251.096 61.16 254.386 59.581 256.851 56.263H256.929V58.559C256.929 60.472 258.463 61.16 259.642 61.16C260.745 61.16 262.277 60.472 262.277 58.559V30.093C262.277 28.186 260.745 27.415 259.642 27.415C258.463 27.415 256.929 28.186 256.929 30.093V31.853H256.851C254.193 29.086 251.359 27.415 247.394 27.415ZM303.594 27.415C293.927 27.415 288.09 35.349 288.09 44.326C288.09 53.086 292.956 61.16 303.982 61.16C310.72 61.16 317.78 57.172 317.78 54.503C317.78 52.951 316.725 52.055 315.687 52.055C313.554 52.055 311.576 56.493 303.982 56.493C297.572 56.493 293.827 52.125 293.827 46.469H315.299C317.762 46.469 318.477 45.489 318.477 43.561C318.477 35.584 312.996 27.415 303.594 27.415V27.415ZM324.602 27.415C322.503 27.415 320.804 29.013 320.804 31.012C320.804 33.013 322.503 34.608 324.602 34.608C326.695 34.608 328.4 33.013 328.4 31.012C328.4 29.012 326.695 27.415 324.602 27.415ZM272.664 27.492C270.912 27.492 269.797 28.6 269.797 30.399V58.253C269.797 60.055 270.913 61.16 272.664 61.16C274.416 61.16 275.456 60.055 275.456 58.253V42.566C275.456 36.181 279.601 33.791 282.975 33.231C285.374 32.799 286.54 31.798 286.54 30.246C286.54 28.701 285.439 27.492 283.44 27.492C280.131 27.492 276.9 30.608 275.61 33.154H275.456V30.4C275.456 28.6 274.416 27.493 272.664 27.493V27.492ZM324.602 28.18C326.192 28.18 327.47 29.43 327.47 31.012C327.47 32.594 326.191 33.842 324.602 33.842C323.008 33.842 321.656 32.594 321.656 31.012C321.656 29.43 323.008 28.18 324.602 28.18ZM323.051 29.022C323.027 29.04 323.008 29.0631 322.994 29.0896C322.981 29.1162 322.974 29.1454 322.974 29.175V32.771C322.974 32.971 323.132 33.078 323.362 33.078C323.591 33.078 323.671 32.97 323.671 32.771V31.394H324.369L325.376 32.924C325.482 33.087 325.557 33.078 325.764 33.078C325.945 33.078 326.152 33.035 326.152 32.925C326.148 32.8429 326.121 32.7634 326.075 32.695L325.144 31.318C325.746 31.248 326.23 30.95 326.23 30.17C326.23 29.267 325.652 29.022 324.602 29.022H323.206C323.123 29.022 323.091 28.989 323.051 29.022ZM323.671 29.558H324.524C324.976 29.558 325.532 29.594 325.532 30.093C325.532 30.687 325.058 30.782 324.524 30.782H323.671V29.558ZM9.10334 30.323H15.848V48.305C15.848 51.215 18.2972 53.661 21.3513 53.661H28.0179V60.013C28.0179 62.914 30.5513 65.293 33.6004 65.293H52.5129V71.72C52.5129 72.996 51.3781 74.016 50.0322 74.016H9.10334C7.74831 74.016 6.70083 72.996 6.70083 71.72V32.618C6.70083 31.345 7.74831 30.323 9.10334 30.323V30.323ZM18.9488 30.323H28.0179V50.677H21.3524C20.7152 50.6741 20.1051 50.4231 19.655 49.9788C19.2049 49.5344 18.9515 48.9327 18.9499 48.305L18.9488 30.323ZM31.1187 30.323H50.0332C51.3791 30.323 52.5139 31.345 52.5139 32.618V50.678H31.1187V30.323ZM247.394 32.159C254.404 32.159 256.929 38.725 256.929 44.326C256.929 49.927 254.404 56.493 247.394 56.493C240.383 56.493 237.937 49.927 237.937 44.326C237.937 38.725 240.383 32.159 247.394 32.159V32.159ZM302.354 32.159C302.761 32.132 303.152 32.144 303.594 32.159C309.885 32.159 312.742 37.601 312.742 42.336H293.827C294.016 37.605 296.246 32.572 302.353 32.159H302.354ZM31.1187 53.661H52.5139V62.308H33.5993C32.2626 62.308 31.1187 61.288 31.1187 60.013V53.661Z" fill="#7498BF"/>
</svg>
