<svg xmlns="http://www.w3.org/2000/svg" width="146" height="39" viewBox="0 0 146 39">
  <path fill="#3779ED" d="M54.3 29.2c-.9.6-1.9 1.1-3 1.4-1.2.3-2.4.5-3.7.5-1.5 0-2.9-.2-4.3-.8-1.1-.5-2.1-1.3-2.9-2.2-.8-1.1-1.3-2.2-1.6-3.5-.3-1.5-.5-3-.5-4.6 0-3.6.8-6.3 2.4-8.2 1.6-1.9 3.9-2.9 7-2.9 1.3 0 2.5.1 3.7.4.9.2 1.8.6 2.6 1l-1.3 4.4c-.6-.3-1.3-.5-1.9-.7-.7-.2-1.4-.3-2.2-.3-1.5 0-2.7.5-3.5 1.5-.8 1-1.2 2.6-1.2 4.8 0 .8.1 1.7.3 2.5.2.7.5 1.4.9 2 .4.6.9 1 1.5 1.3.7.3 1.4.5 2.2.5.8 0 1.6-.1 2.4-.4.6-.2 1.2-.5 1.7-.8l1.4 4.1zm3.2-18.5c1.3-.6 2.6-.9 4-1.2 1.6-.3 3.2-.5 4.8-.5 1.3 0 2.5.2 3.7.5 1.8.6 3.1 2 3.6 3.8.3 1 .4 2 .3 3 0 1.3 0 2.5-.1 3.7-.1 1.3-.2 2.5-.2 3.7s0 2.4.1 3.5.3 2.2.6 3.2H70l-.9-2.9h-.2c-.6.9-1.4 1.7-2.3 2.2-1.2.7-2.5 1-3.9 1-.9 0-1.8-.2-2.7-.5-1.5-.5-2.7-1.7-3.4-3.2-.3-.8-.5-1.6-.5-2.5 0-1.1.3-2.3.9-3.3.6-.9 1.5-1.7 2.5-2.2 1.2-.6 2.6-1 3.9-1.1 1.7-.2 3.4-.3 5-.2.2-1.6.1-2.7-.3-3.4s-1.4-1-2.8-1c-1.2 0-2.3.1-3.5.3-1 .2-2.1.5-3 .9l-1.3-3.8zm7 15.7c.9 0 1.8-.2 2.6-.7.6-.4 1.1-1 1.4-1.6v-2.7c-.8-.1-1.7-.1-2.5 0-.7 0-1.4.2-2.1.4-.5.2-1.1.5-1.5.8-.4.4-.6.9-.5 1.4 0 .7.2 1.3.7 1.8.5.4 1.2.6 1.9.6zm22.8-1.7c0-.5-.3-1.1-.7-1.3-.6-.4-1.1-.7-1.8-.9-.7-.3-1.5-.6-2.3-.9-.8-.3-1.6-.7-2.3-1.2-.7-.5-1.3-1.2-1.8-2-.5-1-.8-2-.7-3.1 0-2.1.6-3.6 1.9-4.8 1.2-1 3-1.5 5.4-1.5 1.4 0 2.9.2 4.3.5 1.1.2 2.1.6 3 1.1L91 14.5c-.6-.3-1.4-.5-2.4-.8-1-.3-2-.4-3-.4-1.6 0-2.4.6-2.4 1.9 0 .5.3 1 .7 1.2.6.3 1.1.6 1.8.9.7.3 1.5.6 2.3.9.8.3 1.6.7 2.3 1.2.7.5 1.3 1.1 1.8 1.9.5.9.8 2 .7 3 0 2.1-.7 3.8-2.1 5-1.4 1.2-3.4 1.8-6.2 1.8-1.4 0-2.8-.2-4.2-.6-1.1-.3-2.2-.8-3.2-1.3l1.5-4.1c.8.5 1.7.8 2.6 1.1 1.1.3 2.2.5 3.3.5.7 0 1.4-.1 1.9-.5.7-.2 1-.8.9-1.5zm6.9-15.2h2.9v-4l5.5-1.6v5.5h5.1V14h-5.1v8.1c0 1.4.2 2.5.5 3.2s1 1 1.7 1c.5 0 1 0 1.4-.2.5-.1.9-.3 1.4-.5l1 4.2c-.8.4-1.8.7-2.7.9-1 .3-2.1.4-3.1.4-1.9 0-3.4-.5-4.3-1.5-.9-1-1.4-2.6-1.4-4.9V14.1h-2.9V9.5zM109.9 20c0-3.6.9-6.3 2.6-8.2 1.8-1.9 4.2-2.9 7.4-2.9 1.5 0 3 .2 4.4.8 1.2.5 2.2 1.3 3.1 2.2.8 1 1.5 2.2 1.8 3.5.4 1.5.6 3 .6 4.6 0 3.6-.9 6.3-2.6 8.2s-4.2 2.9-7.3 2.9c-1.5 0-3-.3-4.4-.8-1.2-.5-2.2-1.3-3.1-2.2-.9-1-1.5-2.2-1.9-3.5-.4-1.5-.6-3-.6-4.6zm5.7 0c0 .9.1 1.7.3 2.6.2.7.4 1.4.8 2.1.3.6.8 1 1.3 1.4.6.3 1.3.5 1.9.5 1.4 0 2.5-.5 3.2-1.6.7-1 1.1-2.7 1.1-4.9 0-1.9-.3-3.5-1-4.7-.6-1.2-1.8-1.8-3.3-1.8-1.3 0-2.4.5-3.2 1.5-.7 1-1.1 2.6-1.1 4.9zm29.7-5.4c-.8-.3-1.6-.5-2.4-.5-.9 0-1.8.2-2.5.8-.6.5-1.1 1.2-1.3 2v13.6h-5.5v-21h4.3l.6 2.8h.2c.4-1 1.1-1.8 1.9-2.4.8-.6 1.9-.9 2.9-.8.8 0 1.7.2 2.5.5l-.7 5zM24.1 15.8c-1.6-1.8-3.3-2.8-3.8-2.4-.5.4.7 1.9 1.2 3.4 2.1 6.4-1.5 13.3-8 15.4-2.9.9-6 .7-8.8-.5-1.6-.7-2.4-1.9-3-1.4-.6.5-.2 1.9 1.4 3.7 5 5.8 13.8 6.4 19.6 1.4 5.9-5.1 6.5-13.8 1.4-19.6zM3.4 23.7c1.6 1.8 3.3 2.8 3.8 2.4.5-.4-.7-1.9-1.2-3.4-2.1-6.4 1.5-13.3 8-15.4 2.9-.9 6-.7 8.8.5 1.6.7 2.4 1.9 3 1.4.6-.5.2-1.9-1.4-3.7-5-5.8-13.8-6.4-19.6-1.4C-1 9.2-1.6 17.9 3.4 23.7zm10.4-9.1c-2 0-3.7 2.1-3.7 4.8s1.6 4.8 3.7 4.8c2 0 3.7-2.1 3.7-4.8s-1.7-4.8-3.7-4.8z"/>
</svg>
