<svg xmlns="http://www.w3.org/2000/svg" width="151" height="94" viewBox="0 0 151 115">
  <path fill="#6441A5" fill-rule="evenodd" d="m125.986 22.88-6.012 6.024h-9.445l-5.152 5.162v-5.162h-7.729V3.95h28.338v18.93ZM94.212.507l-1.717 6.884v30.976h7.729v4.303h4.293l4.295-4.303h6.868l13.739-13.766V.508H94.212Z" clip-rule="evenodd"/>
  <path fill="#6441A5" fill-rule="evenodd" d="M107.094 21.16h3.435V10.832h-3.435V21.16Zm9.445 0h3.435V10.832h-3.435V21.16Zm30.914 39.58-6.01-6.021h-11.164v-7.745h-9.448v35.279h9.448V64.181h7.727v18.07h9.447V60.742Zm-30.054-6.021h-14.598L96.79 60.74v15.487l6.011 6.025h14.598v-9.465h-11.165v-8.606h11.165v-9.463Zm-24.044 0h-7.727v-7.745H76.18v29.254l6.011 6.025h11.164v-9.465h-7.727v-8.606h7.727v-9.463Zm-20.61-7.745h-9.444v4.304h9.445v-4.304Zm0 7.745h-9.444v27.533h9.445V54.72Zm-12.879 0h-9.445v18.07h-3.434v-18.07H37.54v18.07h-3.434v-18.07H24.66v27.533h29.196l6.01-6.024v-21.51Zm-38.64 0h-7.728v-7.745H4.052v29.254l6.01 6.025h11.163v-9.465h-7.727v-8.606h7.727v-9.463Zm129.659 4.3v25.813l-12.879 8.606h-8.587v-4.304l-6.011 4.304h-7.727v-4.304l-4.292 4.304h-13.74l-4.294-4.304-.86 4.304h-12.02l-4.915-4.304-.276 4.304H61.66l-.481-4.304-3.689 4.304H36.681l-4.294-1.722v1.722H21.225l-12.88-7.746-7.728-7.74v-34.42h16.316l7.727 7.746h35.206v-7.745h29.195v7.745h7.728v4.3l4.295-4.3h8.585l7.73-7.745h16.314v7.745h9.446l7.726 7.742Z" clip-rule="evenodd"/>
</svg>
