<svg xmlns="http://www.w3.org/2000/svg" width="259" height="60" fill="none" viewBox="0 0 259 60">
  <path fill="#0027A0" d="M89.303 56.578c-9.092.861-13.53-8.415-14.222-17.347-.947-12.214 4.91-17.042 10.564-17.577 8.642-.815 13.381 8.157 14.098 17.423.913 11.876-4.486 16.929-10.44 17.5ZM68.116 39.463c0 10.958 7.24 19.731 19.44 19.731 11.095 0 19.139-8.518 19.139-20.245 0-10.629-6.462-19.912-19.138-19.912-11.42 0-19.44 8.872-19.44 20.426ZM238.36 8.906c0-4.517-2.819-8.338-6.07-8.338-3.056 0-3.773 2.254-3.773 3.578 0 1.625 1.04 2.336 2.118 2.428 1.508.099 3.938 1.562 3.938 4.873 0 3.55-3.057 5.992-5.978 7.464-.385.604-.08 1.491.551 1.825 4.952-1.639 9.214-5.83 9.214-11.828v-.002Zm13.406 28.204-4.874-2.784c-3.15-1.823-5.248-3.743-5.248-6.84 0-2.961 1.717-5.94 6.359-5.94 4.647 0 6.687 4.445 7.344 7.483.369.6 1.786.515 2.052-.167.046-3.737-.5-7.05-1.131-8.528-2.668-.506-4.565-1.297-7.33-1.297-7.925 0-12.375 4.425-12.375 10.774 0 4.873 3.249 8.261 7.032 10.423l3.533 2.012c4.501 2.52 5.522 5.392 5.522 8.175 0 3.993-2.594 6.266-6.61 6.266-5.279 0-8.734-6.171-9.375-9.31-.558-.793-1.733-.706-2.045.188 0 4.596.937 7.727 1.654 8.936 1.101.859 4.263 2.693 9.048 2.693 7.8 0 12.841-4.255 12.841-11.031 0-5.829-3.552-9.487-6.397-11.053Zm-82.13 18.782c-6.016 0-6.786-2.786-6.786-8.327V26.859c0-1.929 0-3.035.455-3.397.643-.59 2.141-.943 4.747-.943 8.886 0 15.654 5.565 15.654 16.254 0 10.592-4.636 17.12-14.072 17.12h.002Zm10.22-33.98c-3.698-1.4-7.564-1.91-11.972-1.91-6.363 0-10.785.17-15.199.51-.701.257-.79 1.915-.086 2.179l2.36.343c1.822.257 1.893 1.735 1.893 7.386v18.448c0 5.983-.313 6.326-3.697 6.934l-1.503.257c-.541.442-.46 1.929.153 2.175 2.683-.155 5.368-.238 8.054-.246 1.185 0 2.68.083 4.232.167 1.667.186 3.493.266 5.222.266 3.929 0 8.336-.675 11.884-2.707 6.312-3.553 9.527-9.9 9.527-16.765 0-8.004-3.706-14.349-10.868-17.036Zm44.694-1.91c-2.231.17-3.884.246-5.627.246-1.796 0-3.6-.077-5.956-.247-.798.335-.873 1.73-.173 2.158l1.657.268c1.91.264 1.735 1.035.556 3.472l-3.15 6.36c-1.329 2.764-2.52 4.851-3.783 7.204a140.368 140.368 0 0 1-3.53-7.204l-2.926-6.18c-1.274-2.713-1.012-3.206.707-3.652l1.111-.268c.778-.428.552-1.823-.089-2.158a98.97 98.97 0 0 1-13.939 0c-.617.247-.774 1.642-.238 2.158l2.054.429c2.036.446 2.842 1.236 4.486 4.701l5.743 11.739c1.983 3.996 2.203 4.69 2.203 7.401v3.279c0 5.143-.309 5.67-3.693 6.094l-1.961.257c-.564.442-.49 1.929.155 2.175 3.543-.163 5.994-.246 8.514-.246 2.422 0 5.032.083 8.485.246.641-.246.72-1.733.167-2.173l-1.971-.257c-3.382-.426-3.712-.953-3.712-6.096v-4.69c0-2.51.169-3.376 3.007-8.33l4.879-8.709c2.441-4.333 2.832-4.86 5.285-5.391l1.882-.429c.643-.428.47-1.911-.143-2.158Zm-92.951 36.576c-9.09.861-13.532-8.415-14.223-17.347-.947-12.214 4.912-17.042 10.565-17.577 8.643-.815 13.377 8.157 14.091 17.423.921 11.876-4.475 16.929-10.433 17.5Zm-1.747-37.543c-11.412 0-19.44 8.874-19.44 20.428 0 10.958 7.236 19.731 19.44 19.731 11.095 0 19.139-8.518 19.139-20.245 0-10.629-6.454-19.912-19.139-19.912v-.002ZM64.518 55.802c-3.696-.424-3.622-2.698-3.859-7.024-.637-12.534-.714-28.607-.873-37.828-.075-6.077.556-7.641 5.508-8.271l1.667-.165c.4-.352.4-1.824-.07-2.171-2.46.171-5.047.246-7.018.246-1.577 0-3.223 0-5.912-.246-.159 4-2.356 8.788-5.98 16.684l-7.407 16.6c-1.963 4.445-3.938 8.98-6.063 13.044h-.153c-1.906-3.827-3.628-7.821-5.438-11.895l-8.98-20.089C17.51 9.13 15.528 3.73 15.847.343c-2.602.246-4.723.246-6.54.246C7.342.59 5.454.516 3.088.343c-.637.347-.714 1.65-.313 2.17l1.25.168c4.805.878 5.454 1.999 5.28 7.483a962.308 962.308 0 0 1-.87 19.377c-.46 8.619-.85 13.393-1.33 19.145-.476 6.073-1.58 6.692-4.882 7.116L.49 56.06c-.49.442-.321 1.76.165 2.175 2.67-.161 5.344-.243 8.018-.246 2.993 0 6.074.083 8.749.246.552-.246.635-1.645.087-2.173l-2.997-.257c-3.082-.253-3.542-1.645-3.542-8.083 0-7.382.311-15.141.547-20.432.248-5.044.48-10.093.78-15.48h.163c1.73 4.003 3.386 8.527 5.05 12.519l7.069 16.79c1.814 4.255 5.591 12.788 6.948 17.38.15.27.55.353.701.353.324 0 .631-.083.776-.353 1.43-3.997 4.982-12.154 8.51-19.822l7.01-15.214c1.579-3.38 4.56-10.34 5.121-11.293h.157l.238 36.249c0 5.567 0 6.96-3.854 7.384l-2.269.257c-.484.53-.406 1.76.151 2.175 3.216-.163 6.764-.246 9.511-.246 2.842 0 6.077.083 9.312.246.542-.343.618-1.645.157-2.173l-2.53-.257"/>
</svg>
