<svg fill-rule="evenodd" fill="#8b8b8b" width="57" height="37" viewBox="0 0 57 37" xmlns="http://www.w3.org/2000/svg">
  <path d="m29.5 9.7h-1.1v-8.5h-3.9v-1.2h8.9v1.2h-3.9zm15.3 0h-1.1v-4.5h-6.3v4.5h-1.1v-9.7h1.1v4.1h6.3v-4.1h1.1zm12.1 0h-8v-9.7h8v1.1h-6.9v3h6.9v1.2h-6.9v3.3h6.9zm-51.1 7.5c1.8 0 3.7.7 3.7 2.8s-2.2 3.1-4.6 3.1c-1.9.1-3.6-.7-4.9-2.1l.8-.8c1 1.2 2.5 1.8 4.1 1.8 2.2 0 3.5-.8 3.5-1.9s-1.2-1.7-2.2-1.7h-2c-1.9 0-3.4-.6-3.4-2.4 0-1.3 1.2-2.9 4.2-2.9 1.5 0 2.9.5 4.1 1.4l-.7.9c-1-.8-2.1-1.2-3.4-1.2-2.2 0-3 1-3 1.8 0 1.3 1.6 1.3 2.8 1.3h1zm15.1 5.7h-1.1v-4.5h-6.2v4.5h-1.2v-9.7h1.2v4h6.2v-4h1.1zm13 0h-1.3l-1.5-3.3h-4.7l-1.5 3.3h-1.3l4.6-9.7h1.1zm-5.1-8.3-1.8 3.9h3.6zm12.9-1.4c3.3 0 4.5 3.1 4.5 4.8s-1 4.8-4.5 4.8h-4.8v-9.7zm0 8.5c2.2 0 3.3-2.2 3.3-3.7s-1.2-3.7-3.3-3.7h-3.7v7.4zm-35.8 8.7c1.8 0 3.6.7 3.6 2.8s-2.2 3.1-4.6 3.1c-1.9.1-3.6-.7-4.9-2.1l.8-.8c1 1.2 2.5 1.8 4.1 1.8 2.2 0 3.5-.8 3.5-2s-1.2-1.7-2.2-1.7h-2c-1.9 0-3.4-.6-3.4-2.4 0-1.3 1.2-2.9 4.2-2.9 1.5 0 2.9.6 4 1.5l-.7.9c-1-.8-2.2-1.2-3.4-1.2-2.2 0-3 1-3 1.8 0 1.3 1.6 1.3 2.8 1.3zm11.4 5.6h-1.1v-8.5h-3.9v-1.2h8.9v1.2h-3.9zm11.4-9.9c2.8.1 5 2.4 4.9 5.2s-2.4 5-5.2 4.9c-2.7-.1-4.9-2.3-4.9-5.1 0-2.7 2.3-5 5.2-5m0 9c2.2-.1 3.8-1.9 3.8-4.1s-1.9-3.8-4.1-3.8c-2.1.1-3.8 1.8-3.8 3.9.1 2.3 1.9 4 4.1 4m16.7.9h-1.3l-2.2-4h-3.8v4h-1.1v-9.7h4.7c1.5 0 3.9.3 3.9 2.8.2 1.4-.9 2.7-2.3 2.9h-.2zm-3.2-5.2c1.3 0 2.3-.2 2.3-1.7 0-1.2-1.1-1.7-2.1-1.7h-4.4v3.4zm14.7 5.2h-8v-9.7h8v1.1h-6.9v3h6.9v1.2h-6.9v3.3h6.9z" fill-rule="nonzero"/><path d="m48.9 13.2h8v1.2h-8zm0 4.1h8v1.1h-8zm0 4.5h8v1.2h-8z"/>
</svg>