<?xml version="1.0" encoding="UTF-8"?>
<svg width="400px" height="140px" viewBox="0 0 400 140" version="1.1" xmlns="http://www.w3.org/2000/svg" xmlns:xlink="http://www.w3.org/1999/xlink">
    <title>Artboardl</title>
    <g id="Artboard" stroke="none" stroke-width="1" fill="none" fill-rule="evenodd">
        <g id="auth0" transform="translate(72.000000, 24.000000)" fill-rule="nonzero">
            <path d="M125.844717,51.1174442 L114.572747,51.1174442 C114.490047,51.1180944 114.411855,51.0809555 114.361694,51.0171929 C114.312017,50.9541719 114.296041,50.8720649 114.318622,50.7958233 L119.952453,31.9543467 C119.982778,31.8423509 120.08717,31.7642694 120.206578,31.7642694 C120.325987,31.7642694 120.430378,31.8423509 120.460704,31.9543467 L126.094535,50.7958233 C126.117115,50.8720649 126.10114,50.9541719 126.051463,51.0171929 C126.00222,51.0797879 125.925902,51.1167916 125.844717,51.1174442 Z M131.090899,67.4361341 L138.413156,67.4361341 L127.248867,30.0915007 C126.318563,27.0743479 123.456204,25.0071778 120.208732,25.0071778 C116.96126,25.0071778 114.098901,27.0743479 113.168597,30.0915007 L102,67.4403108 L109.343794,67.4403108 L112.569894,56.626615 C112.602658,56.5171181 112.706449,56.4420582 112.82402,56.4428362 L127.580522,56.4428362 C127.698093,56.4420582 127.801884,56.5171181 127.834648,56.626615 L131.090899,67.4361341 Z M172.362589,45.9883439 L176.669799,45.9883439 C176.814906,45.9883439 176.932539,46.1024144 176.932539,46.2431277 L176.932539,60.9746478 C176.960991,64.8718592 180.235824,68.0120349 184.254797,67.9958858 C185.712974,67.9983962 187.163823,67.7958003 188.562007,67.3943661 L188.562007,62.5534726 C187.752251,62.6203011 186.839123,62.6662457 186.162891,62.6662457 C184.973488,62.6662457 184.009286,61.7312405 184.009286,60.5778534 L184.009286,46.238951 C184.009286,46.0982377 184.126918,45.984167 184.272026,45.984167 L188.579236,45.984167 L188.579236,40.6629432 L184.272026,40.6629432 C184.126918,40.6629432 184.009286,40.5488725 184.009286,40.4081593 L184.009286,31.5659057 L176.906696,31.5659057 L176.906696,40.4081593 C176.906696,40.5488725 176.789063,40.6629432 176.643956,40.6629432 L172.336746,40.6629432 L172.362589,45.9883439 Z M213.078648,67.4361341 L220.120937,67.4361341 L220.120937,48.9455075 C220.080646,44.0411917 215.956764,40.0926139 210.8992,40.1157845 C207.986379,40.1694568 205.148869,41.0224491 202.7155,42.5759106 C202.631788,42.6237944 202.527858,42.6237944 202.444146,42.5759106 C202.360132,42.5318926 202.307361,42.447137 202.306315,42.3545411 L202.306315,25.5555124 L195.229569,25.5555124 L195.229569,67.4361341 L202.289087,67.4361341 L202.289087,47.4168044 C202.288403,47.3215342 202.343486,47.2341282 202.431224,47.1912578 C203.757845,46.5355027 206.376629,45.4328315 208.99972,45.4328315 C210.073966,45.4292561 211.105735,45.8393818 211.868322,46.5730938 C212.625462,47.2927553 213.053636,48.2766205 213.057112,49.304711 L213.057112,67.4194268 L213.078648,67.4361341 Z M142.362868,40.6629432 L142.362868,59.1535697 C142.396072,64.0627907 146.522035,68.0189665 151.584606,67.9959243 C154.844344,67.9413112 158.002226,66.8854605 160.603905,64.9801847 C160.672586,64.9292051 160.762476,64.9136396 160.845108,64.9384166 C160.927305,64.9633579 160.991677,65.0257806 161.017397,65.1054881 L161.762544,67.4403108 L167.271466,67.4403108 L167.271466,40.6629432 L160.194719,40.6629432 L160.194719,60.6864497 C160.194407,60.781449 160.139618,60.8683901 160.052582,60.911996 C158.725961,61.5677514 156.107177,62.6704226 153.484086,62.6704226 C151.257772,62.6796889 149.443287,60.9406951 149.426693,58.7818358 L149.426693,40.6629432 L142.362868,40.6629432 Z M240.756783,62.6704226 C238.603178,62.6704226 236.880293,61.4925692 235.514907,59.0700341 C233.87386,56.1462847 232.969347,51.6813016 232.969347,46.5020884 C232.969347,41.3228751 233.87386,36.8578922 235.514907,33.9341428 C236.871679,31.5116075 238.585947,30.3337543 240.756783,30.3337543 C242.927616,30.3337543 244.633273,31.5116075 245.998658,33.9341428 C247.639704,36.8578922 248.544218,41.3228751 248.544218,46.5020884 C248.544218,51.6813016 247.639704,56.1462847 245.998658,59.0700341 C244.641886,61.4883925 242.927616,62.6704226 240.756783,62.6704226 Z M240.756783,25.0041767 C236.216982,25.0041767 232.374952,27.0549781 229.652794,30.9352113 C226.930637,34.8154445 225.513565,40.1742593 225.513565,46.5020884 C225.513565,52.8299174 226.943558,58.1970859 229.652794,62.0689654 C232.362029,65.940845 236.216982,68 240.756783,68 C245.296583,68 249.138613,65.9491986 251.860771,62.0689654 C254.582928,58.1887324 256,52.8215639 256,46.4979116 C256,40.1742593 254.570005,34.8029141 251.860771,30.9310346 C249.151534,27.059155 245.296583,25 240.756783,25 L240.756783,25.0041767 Z" id="Shape" fill="#141F48"></path>
            <path d="M79.9972173,28.4292575 L70.7783393,0 L40.9926437,0 L50.1988236,28.4292575 L79.9972173,28.4292575 Z M40.9926437,0 L11.2111808,0 L2.00923369,28.4292575 L31.7906966,28.4292575 L40.9926437,0 Z M2.00923369,28.4292575 C-3.47872828,45.3811618 2.53283212,63.9518936 16.8999651,74.4292575 L26.1019122,46 L2.00923369,28.4292575 Z M79.9802864,28.4292575 L55.8706769,46 L65.0726241,74.4292575 C79.4522378,63.9609969 85.478033,45.3885252 79.9972173,28.4292575 L79.9802864,28.4292575 Z M16.8999651,74.4292575 L40.9968763,92 L65.0895549,74.4292575 L40.9926437,56.8585149 L16.8999651,74.4292575 Z" id="NEW" fill="#DE5022"></path>
        </g>
    </g>
</svg>