<svg xmlns="http://www.w3.org/2000/svg" width="601" height="135" viewBox="0 0 601 75">
  <path fill="#4DA4E0" d="M600 2.026c0-.7-.6-1.3-1.3-1.3-9.7-.3-16 3.7-20 8.1-5.4-4.7-13.8-8.5-26.6-8.6h-.2c-19 .1-28.2 8.4-32.7 15.7-4.6 7.7-4.8 15.9-4.8 17.5v.9c0 1.7.2 9.8 4.9 17.5 2 3.3 4.9 6.8 9.3 9.6-7.1 4.1-13.5 11.4-13.5 24.5v6.9c0 .7.5 1.3 1.3 1.3h54.3c6.5 0 9.8 4.3 10.8 8.4 1.2 5.1-.8 12.1-9.5 16.7-.5.2-.9.7-.9 1.2 0 .3.1.5.2.7l7.1 12.9c.2.4.7.8 1.2.8.2 0 .4 0 .6-.1 16.4-8.4 20-24.2 17.4-35.8-2.9-12.7-13.6-21.2-26.8-21.2l-37.5.9c2.1-11.3 15.3-11.1 16.9-11.1.6 0 1.2.1 1.9.1h.2c19-.1 28.2-8.4 32.7-15.7 4.6-7.7 4.8-15.9 4.8-17.5v-.9c0-1.4-.2-7.4-3-13.9 2.5-1.7 6.4-3.3 12-3 .7 0 1.3-.6 1.3-1.2v-13.4h-.1Zm-29.3 32.5c0 3.6-2.6 16.7-18.7 16.7-16.1-.1-18.7-13.1-18.7-16.7v-1.2c0-3.6 2.6-16.7 18.7-16.8 16.1.1 18.7 13.1 18.7 16.8v1.2Z"/>
  <path fill="#93BA2F" d="M502 35.126c0-1.7-.2-10.3-4.3-18.4-4-7.7-12.3-16.5-29.4-16.5h-.2c-11.3 0-18.7 4.6-23.6 9.4v-6.4c0-.7-.6-1.3-1.3-1.3h-15.1c-.7 0-1.3.6-1.3 1.3v90c.1.7.6 1.2 1.3 1.2h16.2c.7 0 1.3-.5 1.3-1.2v-59.8c.4-4.8 3.7-16.7 18.7-16.7 16.1.1 18.7 13.8 18.7 17.7v58.7c0 .7.6 1.3 1.3 1.3h16.3c.7 0 1.3-.6 1.3-1.3v-58h.1Z"/>
  <path fill="#EA991B" d="M412 34.226c0-7.4-3.7-24.6-20.4-31.5-17-7-39.7 1.4-45.3 3.9-.5.1-1 .6-1 1.2 0 .2.1.4.2.6l4.6 13c.2.5.6.8 1.2.8.2 0 .3 0 .5-.1 6.2-3.2 23.1-8.9 33.4-4.2 10 4.6 9.1 15.2 9.2 16.4v2.6c-4.9-3.5-11.6-6.9-21.2-7h-.2c-17.1.1-25.4 8.3-29.4 15.6-4.2 7.7-4.4 15.7-4.4 17.4 0 1.6.2 9.7 4.4 17.3 4 7.3 12.3 15.5 29.4 15.6h.2c10 0 16.9-3.6 21.8-7.4v4.4c0 .7.6 1.3 1.3 1.3h14.3c.7 0 1.3-.6 1.3-1.3v-58.3c.1.1.1-.1.1-.3Zm-17.5 29.4c0 3.7-2.6 16.6-18.2 16.6-15.7-.1-18.2-12.9-18.2-16.6v-1.5c0-3.7 2.6-16.6 18.2-16.6 15.7.1 18.2 12.9 18.2 16.6v1.5Z"/>
  <path fill="#D83128" d="M325.2 16.826c-4-7.7-12.3-16.5-29.4-16.5h-.2c-11.3 0-18.7 4.7-23.7 9.5v-6.5c0-.7-.6-1.3-1.3-1.3h-15.1c-.7 0-1.3.6-1.3 1.3v128.2c0 .7.6 1.3 1.3 1.3H272c.6-.1 1.1-.6 1.1-1.2v-43.7c4.9 4.3 12 8.3 22.5 8.3h.2c17.1-.1 25.4-8.8 29.4-16.5 4.2-8.1 4.4-16.6 4.4-18.4v-26.1c0-1.8-.2-10.3-4.4-18.4Zm-14.6 45.2c0 3.9-2.6 17.6-18.7 17.7-16.1-.1-18.7-13.8-18.7-17.7v-27.7c0-3.9 2.6-17.6 18.7-17.7 16.1.1 18.7 13.7 18.7 17.7v27.7Z"/>
  <path fill="#560000" d="M77 35.126c0-1.7.2-10.3 4.8-18.4 4.4-7.7 13.7-16.5 32.7-16.5h.2c19 .1 28.2 8.8 32.7 16.5 4.7 8.1 4.8 16.6 4.8 18.4v26.1c0 1.7-.2 10.3-4.8 18.4-4.4 7.7-13.7 16.5-32.7 16.5h-.2c-19-.1-28.2-8.8-32.7-16.5-4.6-8.1-4.8-16.6-4.8-18.4v-26.1Zm18.9 26.9c0 3.9 2.6 17.6 18.7 17.7 16.1-.1 18.7-13.8 18.7-17.7v-27.7c0-3.9-2.6-17.6-18.7-17.7-16.1.1-18.7 13.8-18.7 17.7v27.7Zm-24.5 15.3c0-.5-.3-1-.7-1.2h-.1l-14.3-7.1c-.2-.1-.4-.2-.6-.2-.5 0-.9.3-1.1.7 0 0 0 .1-.1.1-2.3 4.8-7.1 9.9-16.9 10-16.1-.1-18.7-13.8-18.7-17.7v-27.7c0-3.9 2.6-17.6 18.7-17.7 9.9 0 14.7 5.3 17 10.2.2.5.7.8 1.2.8.2 0 .4-.1.6-.2l14.2-7.4c.4-.2.7-.6.7-1.1 0-.2 0-.4-.1-.5-.3-.5-.5-1.1-.8-1.6C66 9.026 56.7.226 37.7.226h-.2c-19 .1-28.2 8.8-32.7 16.5-4.7 8.1-4.8 16.6-4.8 18.4v26.1c0 1.7.2 10.3 4.8 18.4 4.4 7.7 13.7 16.5 32.7 16.5h.2c19-.1 28.2-8.8 32.7-16.5.3-.6.6-1.1.9-1.7 0-.2.1-.3.1-.6Zm168.6 15.7v-89.7c0-.7-.6-1.3-1.3-1.3h-16.3c-.7 0-1.3.6-1.3 1.3v58.7c0 3.9-2.6 17.6-18.7 17.7-16.1-.1-18.7-13.7-18.7-17.7v-58.6c0-.7-.6-1.3-1.3-1.3h-16.2c-.7 0-1.3.6-1.3 1.3v57.9c0 1.7.2 10.3 4.4 18.4 4 7.7 12.3 16.5 29.4 16.5h.2c11.3 0 18.7-4.6 23.7-9.5v6.4c0 .7.6 1.3 1.3 1.3H239c.4 0 1-.6 1-1.4Z"/>
</svg>
