<svg width="481" height="109" viewBox="0 0 481 109" fill="none" xmlns="http://www.w3.org/2000/svg">
<path d="M132.1 52.5C139.4 52.5 144.3 55.8 147.3 59.9V1.5C147.3 0.4 146 -0.299998 145.1 0.400002L73 53.1H74.9C82.4 53.1 86.2 57.9 86.2 63.1C86.2 67.2 84.1 70.2 81.2 71.5C80.7 71.7 80.7 72.4 81.2 72.6C84.5 74 86.9 77.5 86.9 81.7C86.9 87.7 83 92.4 75.5 92.4H55C54.6 92.4 54.2 92.1 54.2 91.6V66.8L0.499967 106.1C-0.400033 106.9 -3.61204e-05 108.3 1.19996 108.3H146C146.7 108.3 147.2 107.8 147.2 107.1V87.2C143.3 90.8 138.2 93.1 132 93.1C120.4 93.1 111 85.1 111 72.8C111.1 60.4 120.6 52.5 132.1 52.5ZM103.4 91.7C103.4 92.1 103.1 92.4 102.7 92.4H95.8C95.4 92.4 95.1 92.1 95.1 91.7V53.8C95.1 53.4 95.4 53.1 95.8 53.1H102.7C103.1 53.1 103.4 53.4 103.4 53.8V91.7Z" fill="#34313F"/>
<path d="M63.4 68.7H73.1C75.9 68.7 77.7 67.1 77.7 64.6C77.7 62.2 75.9 60.5 73.1 60.5H63C62.8 60.5 62.6 60.7 62.6 60.9V68C62.6 68.4 63 68.7 63.4 68.7Z" fill="#34313F"/>
<path d="M63.4 85.1H73.5C76.6 85.1 78.5 83.4 78.5 80.6C78.5 78.1 76.7 76.1 73.5 76.1H63.4C63 76.1 62.6 76.4 62.6 76.9V84.3C62.6 84.7 63 85.1 63.4 85.1Z" fill="#34313F"/>
<path d="M141 64.4C139.1 61.9 135.9 59.9 132.1 59.9C124.9 59.9 119.7 65.4 119.7 72.8C119.7 80.2 124.9 85.7 132.1 85.7C135.4 85.7 138.5 84.3 140.2 82.9C140.3 82.8 140.4 82.6 140.4 82.4V78.6C140.4 78.3 140.1 78 139.8 78H130.9C130.4 78 130.1 77.6 130.1 77.2V71.6C130.1 71.1 130.5 70.8 130.9 70.8H147.4V61.9L142.1 64.8C141.7 64.9 141.2 64.7 141 64.4Z" fill="#34313F"/>
<path d="M153.5 72.8C153.5 60.7 162.2 52.5 173.4 52.5C180.7 52.5 185.4 56.2 188.2 60.7C188.4 61 188.3 61.5 187.9 61.6L183.4 64C183.1 64.2 182.7 64.1 182.6 63.8C180.7 60.8 177.2 58.6 173.4 58.6C165.9 58.6 160.3 64.5 160.3 72.8C160.3 81 165.9 87 173.4 87C177.2 87 180.7 84.8 182.6 81.8C182.8 81.5 183.1 81.4 183.4 81.6L187.9 83.9C188.3 84.1 188.4 84.5 188.2 84.9C185.3 89.4 180.6 93.2 173.4 93.2C162.2 93.1 153.5 84.8 153.5 72.8Z" fill="#34313F"/>
<path d="M192.1 72.8C192.1 63 197.7 55.4 206.1 53.2C220.4 49.4 233.5 62.8 230.4 77.7C228.5 86.9 221.2 93.2 211.5 93.2C200.1 93.1 192.1 84.5 192.1 72.8ZM224 72.8C224 64.7 219 58.6 211.4 58.6C203.7 58.6 198.8 64.7 198.8 72.8C198.8 80.9 203.7 87 211.4 87C219.1 87 224 80.8 224 72.8Z" fill="#34313F"/>
<path d="M271.6 91.9V62L259.7 92.1C259.7 92.2 259.5 92.3 259.4 92.3H256.9C256.8 92.3 256.6 92.2 256.6 92.1L244.6 62V91.9C244.6 92.2 244.4 92.4 244.1 92.4H238.1C237.8 92.4 237.6 92.2 237.6 91.9V53.5C237.6 53.2 237.8 53 238.1 53H246.7C247.1 53 247.4 53.2 247.6 53.6L258.1 80.6L268.5 53.6C268.6 53.2 269 53 269.4 53H278C278.3 53 278.5 53.2 278.5 53.5V91.9C278.5 92.2 278.3 92.4 278 92.4H272C271.9 92.4 271.6 92.2 271.6 91.9Z" fill="#34313F"/>
<path d="M339.6 91.7V53.8C339.6 53.4 339.9 53.1 340.3 53.1H365.8C366.2 53.1 366.5 53.4 366.5 53.8V58.4C366.5 58.8 366.2 59.1 365.8 59.1H347.2C346.8 59.1 346.5 59.4 346.5 59.8V68.5C346.5 68.9 346.8 69.2 347.2 69.2H365.4C365.8 69.2 366.1 69.5 366.1 69.9V74.5C366.1 74.9 365.8 75.2 365.4 75.2H347.2C346.8 75.2 346.5 75.5 346.5 75.9V85.4C346.5 85.8 346.8 86.1 347.2 86.1H365.8C366.2 86.1 366.5 86.4 366.5 86.8V91.4C366.5 91.8 366.2 92.1 365.8 92.1H340.3C339.9 92.4 339.6 92.1 339.6 91.7Z" fill="#34313F"/>
<path d="M398.5 92L390.2 78C390.1 77.8 389.8 77.7 389.6 77.7H383.8C383.4 77.7 383.1 78 383.1 78.4V91.7C383.1 92.1 382.8 92.4 382.4 92.4H377C376.6 92.4 376.3 92.1 376.3 91.7V53.8C376.3 53.4 376.6 53.1 377 53.1H393.6C401.4 53.1 406.5 58.1 406.5 65.4C406.5 71.9 402.5 75.6 398.1 76.7C397.6 76.8 397.4 77.3 397.6 77.8C399.2 80.4 404.2 88.4 406.1 91.3C406.4 91.8 406.1 92.4 405.5 92.4H399.2C398.9 92.4 398.7 92.3 398.5 92ZM399.4 65.3C399.4 61.5 396.6 59.1 392.7 59.1H383.9C383.5 59.1 383.2 59.4 383.2 59.8V70.9C383.2 71.3 383.5 71.6 383.9 71.6H392.7C396.6 71.6 399.4 69.2 399.4 65.3Z" fill="#34313F"/>
<path d="M453.1 91.7V53.8C453.1 53.4 453.4 53.1 453.8 53.1H479.4C479.8 53.1 480.1 53.4 480.1 53.8V58.5C480.1 58.9 479.8 59.2 479.4 59.2H460.7C460.3 59.2 460 59.5 460 59.9V68.7C460 69.1 460.3 69.4 460.7 69.4H478.9C479.3 69.4 479.6 69.7 479.6 70.1V74.8C479.6 75.2 479.3 75.5 478.9 75.5H460.7C460.3 75.5 460 75.8 460 76.2V85.8C460 86.2 460.3 86.5 460.7 86.5H479.4C479.8 86.5 480.1 86.8 480.1 87.2V91.9C480.1 92.3 479.8 92.6 479.4 92.6H453.8C453.4 92.4 453.1 92.1 453.1 91.7Z" fill="#34313F"/>
<path d="M411.5 72.6C411.5 60.5 420.2 52.3 431.4 52.3C438.7 52.3 443.4 56 446.2 60.5C446.4 60.8 446.3 61.3 445.9 61.4L441.4 63.8C441.1 64 440.7 63.9 440.6 63.6C438.7 60.6 435.2 58.4 431.4 58.4C423.9 58.4 418.3 64.3 418.3 72.6C418.3 80.8 423.9 86.8 431.4 86.8C435.2 86.8 438.7 84.6 440.6 81.6C440.8 81.3 441.1 81.2 441.4 81.4L445.9 83.7C446.3 83.9 446.4 84.3 446.2 84.7C443.3 89.2 438.6 93 431.4 93C420.2 92.9 411.5 84.7 411.5 72.6Z" fill="#34313F"/>
<path d="M322.6 91.9V62L310.7 92.1C310.7 92.2 310.5 92.3 310.4 92.3H307.9C307.8 92.3 307.6 92.2 307.6 92.1L295.6 62V91.9C295.6 92.2 295.4 92.4 295.1 92.4H289.1C288.8 92.4 288.6 92.2 288.6 91.9V53.5C288.6 53.2 288.8 53 289.1 53H297.7C298.1 53 298.4 53.2 298.6 53.6L309.1 80.6L319.5 53.6C319.6 53.2 320 53 320.4 53H329C329.3 53 329.5 53.2 329.5 53.5V91.9C329.5 92.2 329.3 92.4 329 92.4H323C322.8 92.4 322.6 92.2 322.6 91.9Z" fill="#34313F"/>
</svg>
