<?xml version="1.0" encoding="UTF-8"?>
<svg width="400px" height="140px" viewBox="0 0 400 140" version="1.1" xmlns="http://www.w3.org/2000/svg" xmlns:xlink="http://www.w3.org/1999/xlink">
    <title>Artboard</title>
    <g id="Artboard" stroke="none" stroke-width="1" fill="none" fill-rule="evenodd">
        <g id="gladly" transform="translate(30.000000, 31.000000)" fill-rule="nonzero">
            <g id="Group" transform="translate(80.000000, 0.000000)" fill="#000000">
                <path d="M33.9986841,43.3098038 L50.1394737,43.3098038 C49.7960527,44.8627452 49.1092105,46.2431373 48.4223686,47.6235294 C47.5638159,49.3490195 46.3618422,50.7294117 44.8164473,51.9372548 C43.2710527,53.145098 41.5539473,54.1803921 39.493421,55.0431373 C37.4328946,55.7333332 35.0289473,56.2509805 32.4532895,56.2509805 C29.8776314,56.2509805 27.4736842,55.7333332 25.4131579,54.8705883 C23.180921,53.8352942 21.2921053,52.454902 19.7467105,50.7294117 C18.2013158,48.8313726 16.8276316,46.5882353 15.969079,43.827451 C15.1105263,41.0666668 14.5953947,37.9607843 14.5953947,34.3372548 C14.5953947,30.8862746 15.1105263,27.7803922 16.1407895,25.0196078 C17.1710526,22.2588235 18.3730263,20.0156863 20.0901316,18.1176471 C21.8072369,16.2196078 23.6960526,14.8392157 25.9282895,13.9764706 C28.1605263,13.1137255 30.3927632,12.5960784 32.968421,12.5960784 C36.7460527,12.5960784 39.8368422,13.4588235 42.4125,15.1843137 C44.6447368,16.7372549 46.1901314,18.4627451 47.2203946,20.5333333 C47.3921054,20.7058824 47.5638159,21.2235294 47.7355263,21.5686275 C47.9072368,21.9137255 48.0789473,22.0862745 48.4223686,22.0862745 L61.644079,22.0862745 C62.1592105,22.0862745 62.5026314,21.5686275 62.330921,21.0509804 C62.1592105,20.7058824 62.1592105,20.3607843 62.1592105,20.1882353 C61.3006578,17.427451 60.0986841,14.8392157 58.5532895,12.5960784 C56.8361841,10.0078431 54.7756578,7.76470589 52.3717105,5.86666668 C49.9677632,3.96862746 47.0486841,2.58823529 43.7861841,1.55294118 C40.1802632,0.517647058 36.5743422,0 32.625,0 C27.9888158,0 23.6960526,0.862745099 19.7467105,2.58823529 C15.7973684,4.31372548 12.3631579,6.72941178 9.44407895,9.83529411 C6.525,12.9411765 4.29276314,16.5647059 2.74736842,20.7058824 C1.20197369,24.8470588 0.343421054,29.3333332 0.343421054,34.1647058 C0.343421054,38.9960784 1.20197369,43.4823531 2.74736842,47.6235294 C4.29276314,51.7647058 6.69671054,55.3882353 9.44407895,58.4941178 C12.1914474,61.6 15.6256579,64.0156863 19.575,65.7411764 C23.5243421,67.4666668 27.6453947,68.3294117 32.1098686,68.3294117 C36.7460527,68.3294117 40.8671054,67.2941178 44.3013159,65.5686274 C46.8769737,64.1882353 48.9375,61.772549 50.4828946,59.8745099 L50.4828946,66.4313726 C50.4828946,66.7764706 50.8263159,67.1215685 51.1697368,67.1215685 L62.5026314,67.1215685 C62.8460527,67.1215685 63.1894737,66.7764706 63.1894737,66.4313726 L63.1894737,31.7490195 C63.1894737,31.4039216 62.8460527,31.0588236 62.5026314,31.0588236 L33.9986841,31.0588236 C33.6552632,31.0588236 33.3118422,31.4039216 33.3118422,31.7490195 L33.3118422,42.6196079 C33.3118422,42.9647058 33.4835527,43.3098038 33.9986841,43.3098038 Z" id="XMLID_751_"></path>
                <path d="M69.1993422,67.8117647 L81.0473686,67.8117647 C81.3907895,67.8117647 81.7342105,67.4666668 81.7342105,67.1215685 L81.7342105,0.690196079 C81.7342105,0.345098038 81.3907895,0 81.0473686,0 L69.1993422,0 C68.855921,0 68.5125,0.345098038 68.5125,0.690196079 L68.5125,67.1215685 C68.5125,67.4666668 68.855921,67.8117647 69.1993422,67.8117647 Z" id="XMLID_750_"></path>
                <path d="M132.732237,56.5960784 L132.732237,34.1647058 C132.732237,31.7490195 132.388816,29.3333332 131.701974,27.2627451 C131.015131,25.0196078 129.813158,23.1215686 128.096053,21.5686275 C126.378947,20.0156863 124.14671,18.8078431 121.571053,17.772549 C118.823684,16.9098039 115.561184,16.3921569 111.440131,16.3921569 C108.005921,16.3921569 105.086842,16.7372549 102.339474,17.6 C99.5921054,18.4627451 97.3598686,19.4980392 95.4710527,21.0509804 C93.5822368,22.6039216 91.8651314,24.3294118 90.8348686,26.227451 C89.8046054,27.9529412 89.1177632,29.6784315 88.7743422,31.5764706 C88.7743422,31.7490195 88.6026314,32.2666668 88.6026314,32.7843137 C88.6026314,33.3019606 88.9460527,33.6470589 89.2894737,33.6470589 L101.652631,33.6470589 C101.996053,33.6470589 102.339474,33.4745099 102.339474,33.1294117 C102.511184,32.7843137 102.682895,32.2666668 102.854605,31.7490195 C103.541447,30.5411764 104.22829,29.6784315 105.430263,28.9882353 C106.975658,28.1254902 109.207895,27.6078431 111.783553,27.6078431 C114.530921,27.6078431 116.419737,27.9529412 117.793421,28.8156863 C118.995395,29.5058822 119.682237,30.5411764 119.682237,31.9215685 C119.682237,33.6470589 118.651974,34.854902 116.763158,35.545098 C114.530921,36.4078431 110.925,37.2705883 105.945395,37.9607843 C103.713158,38.3058822 101.30921,38.6509805 99.0769737,39.3411764 C96.8447368,39.8588236 94.6125,40.7215685 92.8953946,41.9294117 C91.006579,43.1372548 89.4611841,44.5176469 88.2592105,46.4156863 C87.0572368,48.3137254 86.5421054,50.5568627 86.5421054,53.4901962 C86.5421054,56.2509805 87.0572368,58.4941178 88.0875,60.5647058 C89.1177632,62.4627452 90.4914473,64.1882353 92.2085527,65.3960784 C93.9256578,66.6039216 95.8144737,67.4666668 98.0467105,67.9843137 C100.278947,68.5019606 102.339474,68.8470589 104.57171,68.8470589 C108.864474,68.8470589 112.298684,67.9843137 115.046053,66.4313726 C117.106579,65.2235294 118.823684,63.8431373 120.197369,61.945098 C120.369079,62.9803921 121.227631,67.6392157 121.227631,67.6392157 L132.903947,67.6392157 C132.732237,67.6392157 132.732237,58.8392157 132.732237,56.5960784 Z M119.510526,48.1411764 C119.510526,50.9019606 118.480263,53.145098 116.248026,54.6980394 C114.01579,56.4235294 110.925,57.2862746 107.319079,57.2862746 C104.57171,57.2862746 102.682895,56.9411764 101.480921,56.0784315 C100.450658,55.3882353 99.9355263,54.3529411 99.9355263,52.972549 C99.9355263,51.2470589 100.622369,50.2117647 101.824342,49.5215685 C103.198026,48.8313726 105.258553,48.1411764 107.83421,47.6235294 C110.409869,47.1058822 112.813816,46.5882353 115.046053,46.0705883 C116.763158,45.7254901 118.308553,45.0352942 119.682237,44.345098 L119.682237,48.1411764 L119.510526,48.1411764 Z" id="XMLID_747_"></path>
                <g id="XMLID_743_" transform="translate(136.811314, 0.000000)">
                    <path d="M50.0097368,0 L38.1617105,0 C37.8182895,0 37.4748686,0.345098038 37.4748686,0.690196079 L37.4748686,22.7764706 C36.2728946,21.3960784 34.8992105,20.0156863 33.1821054,18.9803922 C30.6064473,17.254902 27.1722369,16.3921569 23.2228947,16.3921569 C20.1321053,16.3921569 17.2130263,17.0823529 14.4656579,18.4627451 C11.7182895,19.8431373 9.3143421,21.5686275 7.08210527,23.9843137 C5.02157895,26.227451 3.30447368,29.1607843 2.1025,32.2666668 C0.900526314,35.545098 0.21368421,38.9960784 0.21368421,42.7921569 C0.21368421,46.5882353 0.72881579,50.0392157 1.93078946,53.3176469 C3.13276314,56.4235294 4.6781579,59.1843137 6.73868422,61.6 C8.79921054,64.0156863 11.2031579,65.7411764 13.9505263,67.1215685 C16.6978947,68.5019606 19.7886842,69.0196079 22.8794737,69.0196079 C26.6571053,69.0196079 29.9196054,68.1568627 32.6669737,66.4313726 C34.5557895,65.2235294 36.1011841,63.8431373 37.4748686,62.1176469 L37.4748686,67.1215685 C37.4748686,67.4666668 37.8182895,67.8117647 38.1617105,67.8117647 L49.6663159,67.8117647 C50.0097368,67.8117647 50.3531578,67.4666668 50.3531578,67.1215685 L50.3531578,0.690196079 C50.696579,0.345098038 50.3531578,0 50.0097368,0 Z M36.4446054,48.6588236 C35.7577632,50.3843137 34.8992105,51.7647058 33.8689473,52.972549 C32.8386841,54.1803921 31.6367105,55.0431373 30.0913159,55.7333332 C27.1722369,56.9411764 23.9097369,56.9411764 20.9906579,55.7333332 C19.6169737,55.0431373 18.2432895,54.1803921 17.2130263,52.972549 C16.1827631,51.7647058 15.3242105,50.3843137 14.6373684,48.6588236 C13.9505263,46.9333332 13.7788158,44.8627452 13.7788158,42.6196079 C13.7788158,40.3764706 14.1222369,38.3058822 14.6373684,36.5803921 C15.3242105,34.854902 16.1827631,33.3019606 17.2130263,32.0941178 C18.2432895,30.8862746 19.4452631,30.0235294 20.9906579,29.3333332 C22.3643421,28.6431373 23.9097369,28.2980392 25.4551316,28.2980392 C27.0005263,28.2980392 28.545921,28.6431373 29.9196054,29.3333332 C31.2932895,30.0235294 32.6669737,30.8862746 33.6972368,32.0941178 C34.7275,33.3019606 35.5860527,34.854902 36.2728946,36.5803921 C36.9597368,38.3058822 37.1314473,40.3764706 37.1314473,42.6196079 C37.4748686,44.8627452 37.1314473,46.9333332 36.4446054,48.6588236 Z" id="XMLID_744_"></path>
                </g>
                <path d="M193.517763,67.6392157 L205.36579,67.6392157 C205.70921,67.6392157 206.052631,67.2941178 206.052631,66.9490195 L206.052631,0.690196079 C206.052631,0.345098038 205.70921,0 205.36579,0 L193.517763,0 C193.174342,0 192.830921,0.345098038 192.830921,0.690196079 L192.830921,66.7764706 C192.830921,67.2941178 193.174342,67.6392157 193.517763,67.6392157 Z" id="XMLID_741_"></path>
                <path d="M246.919737,17.427451 C246.576316,17.427451 246.404605,17.6 246.232895,17.945098 L236.788816,45.8980394 C236.445395,46.7607843 236.101974,47.7960784 235.930263,48.8313726 C235.758553,49.6941178 235.415131,50.5568627 235.243421,51.2470589 C235.07171,50.5568627 234.9,49.6941178 234.556579,48.8313726 C234.213158,47.7960784 234.041447,46.7607843 233.698026,45.8980394 L223.738816,17.945098 C223.567105,17.6 223.395395,17.427451 223.051974,17.427451 L210.345395,17.427451 C209.830263,17.427451 209.486842,17.945098 209.658553,18.4627451 L228.375,67.6392157 L227.859869,69.1921569 C226.314474,73.5058822 222.880263,75.5764706 217.213816,75.5764706 L215.325,75.5764706 C214.981579,75.5764706 214.638158,75.9215685 214.638158,76.2666668 L214.638158,86.4470589 C214.638158,86.7921569 214.981579,87.1372548 215.325,87.1372548 L217.557237,87.1372548 C223.223684,87.1372548 227.859869,86.1019606 231.294079,83.8588236 C234.9,81.6156863 237.475658,78.3372548 239.192763,73.8509805 L259.798026,18.2901961 C259.969737,17.772549 259.626316,17.254902 259.111184,17.254902 L246.919737,17.254902 L246.919737,17.427451 Z" id="XMLID_740_"></path>
            </g>
            <g id="XMLID_735_" transform="translate(0.000000, 1.000000)">
                <g id="XMLID_737_" fill="#009B00">
                    <path d="M33.3960345,0.0375431034 C14.9941379,0.0375431034 0,14.8612931 0,33.2631897 C0,51.6650862 14.9941379,66.6592241 33.3960345,66.6592241 C51.797931,66.6592241 66.792069,51.6650862 66.792069,33.2631897 C66.792069,14.8612931 51.797931,0.0375431034 33.3960345,0.0375431034 Z" id="XMLID_738_"></path>
                </g>
                <polygon id="XMLID_736_" fill="#FFFFFF" points="53.6721983 31.0481466 35.6110776 31.0481466 35.6110776 12.9870259 31.0106034 12.9870259 31.0106034 31.0481466 12.9494828 31.0481466 12.9494828 35.6486207 31.0106034 35.6486207 31.0106034 53.7097414 35.6110776 53.7097414 35.6110776 35.6486207 53.6721983 35.6486207"></polygon>
            </g>
        </g>
    </g>
</svg>