<svg xmlns="http://www.w3.org/2000/svg" width="1005" height="384" viewBox="0 0 1005 384">
  <path fill="#F45D48" fill-rule="nonzero" d="M742.146 220.146c-4.312 3.292-14.745 10.575-26.537 8.942-9.654-1.321-17.492-8.404-18.696-32.125v-88.988h62.988V61.738h-62.988V1.742H643.48V13.52h-.088v176.433c0 28.05 7.071 93.221 72.125 93.221 32.921-.508 52.896-18.433 61.271-25.433l1.125-.867-32.08-39.654c-.082.07-2.312 1.888-3.687 2.925ZM438.405 61.916H384.8V169.23c.088 15.25.088 41.563-11.104 52.817-5.342 5.367-11.204 10.22-23.53 10.22-12.407 0-18.27-4.853-23.595-10.22-11.208-11.267-11.12-37.663-11.05-52.817V61.917h-53.587v106.991c-.171 22.063-.434 63.017 26.445 90.196 15.775 15.938 34.571 24.071 61.7 24.071 27.15 0 45.93-8.046 61.696-24.07 26.888-27.18 26.63-68.217 26.45-90.197l.18-107.004v.013ZM112.35 229.739c-32.546 0-59.1-26.642-59.1-59.363 0-32.725 26.538-59.383 59.1-59.383 32.58 0 59.108 26.658 59.108 59.383 0 32.721-26.529 59.396-59.108 59.396v-.033Zm113.584 28.929V61.983h-53.338V75.15a111.293 111.293 0 0 0-60.254-17.658C50.396 57.492 0 108.129 0 170.375c0 62.246 50.396 112.888 112.35 112.888a111.373 111.373 0 0 0 59.638-17.217c0 1.73-.088 3.275-.088 4.317 0 32.725-26.537 59.383-59.108 59.383a58.828 58.828 0 0 1-31.28-9.087l-26.379 46.395a111.126 111.126 0 0 0 57.746 16.28c61.954 0 113.055-50.642 113.055-112.888 0-2.412.162-9.52 0-11.78ZM559.567 147.52l-19.642-9.858c-8.545-4.246-13.883-7.53-16.041-9.955a11.89 11.89 0 0 1-3.263-7.962c0-3.813 1.709-7.03 5.084-9.525 3.345-2.608 8.087-3.8 14.137-3.8 11.013 0 23.242 6.654 36.704 20.067l33.171-33.33a87.487 87.487 0 0 0-31.104-26.304 86.22 86.22 0 0 0-39.13-9.187c-20.253 0-36.958 5.97-49.983 18.012-13.004 12.03-19.545 26.492-19.545 43.454 0 26.309 17.22 48.225 51.77 65.613l18.117 9.087c15.575 7.892 23.35 15.921 23.35 24.238 0 4.517-2.175 8.404-6.462 11.867-4.313 3.462-10.005 5.112-17.075 5.112-6.542 0-14.038-2.241-22.484-6.825a75.77 75.77 0 0 1-22.058-17.841l-32.992 36.091c18.604 24.421 43.417 36.717 74.596 36.717 23.446 0 42.154-6.42 56.013-19.142 13.958-12.72 20.941-28.646 20.941-47.708 0-14.275-3.875-26.825-11.558-37.48-7.746-10.645-21.954-21.024-42.546-31.329v-.012Zm330.892 82.25c-32.583 0-59.113-26.675-59.113-59.396 0-32.725 26.53-59.383 59.113-59.383 32.563 0 59.117 26.658 59.117 59.383 0 32.738-26.53 59.396-59.117 59.396Zm0-172.28c-61.954 0-112.358 50.638-112.358 112.884s50.404 112.888 112.358 112.888c61.95 0 112.354-50.642 112.354-112.888S952.41 57.492 890.46 57.492Z"/>
</svg>
