<svg xmlns="http://www.w3.org/2000/svg" width="339" height="123" viewBox="0 0 339 123">
  <path fill="#231F20" d="M251.636 86c-11.639 0-18.872-6.72-18.872-17.553 0-11.242 6.674-18.236 17.42-18.236h.902c1.348 0 3.204.043 5.739.36V37h7.591v47.777S257.203 86 251.636 86Zm-.068-29.832c-7.354 0-10.929 3.957-10.929 12.09 0 7.304 4.314 11.844 11.245 11.844 1.333 0 2.859-.088 4.939-.266V56.655c-2.078-.333-3.754-.487-5.255-.487Zm-103.91 28.736-20.505-35.669-.006 35.669H120V39.749h10.005l20.505 35.35-.008-35.35h7.241v45.155h-10.085Zm65.316.695c-3.453 0-7.052-.386-11.338-1.208l-.464-.088v-6.308l.677.145c3.78.804 7.044 1.49 10.309 1.49 2.637 0 8.778-.412 8.778-4.28 0-3.244-4.244-4.06-7.652-4.71l-.216-.045a29.588 29.588 0 0 1-1.743-.366c-5.001-1.293-10.335-3.237-10.335-9.916 0-6.514 5.171-10.247 14.192-10.247 4.329 0 7.472.46 9.998.837l1.227.18v6.122l-.653-.118c-2.859-.524-6.21-1.064-9.431-1.064-3.582 0-7.833.67-7.833 3.845 0 2.637 3.479 3.391 7.507 4.266 5.634 1.214 12.618 2.74 12.618 10.402 0 7.03-5.695 11.063-15.641 11.063Zm72.752 0c-7.857 0-15.133-1.381-15.133-11.38 0-10.883 11.252-10.883 17.979-10.883.668 0 3.83.147 4.8.188-.009-6.104-.086-7.56-8.967-7.56-3.521 0-7.431.693-10.883 1.311l-.66.119v-6.028l.444-.094c4.003-.811 7.862-1.206 11.796-1.206 8.606 0 15.898.863 15.898 11.507v23.213l-.523.059c-5.962.666-10.694.754-14.749.754h-.002Zm2.656-16.878c-6.486 0-10.506.951-10.506 5.686 0 5.48 5.128 5.934 9.939 5.934 1.794 0 5.025-.23 6.012-.3V68.91c-1.39-.06-5.007-.189-5.445-.189ZM179.216 85.6c-7.868 0-15.142-1.381-15.142-11.38 0-10.883 11.252-10.883 17.976-10.883.671 0 3.839.147 4.811.188-.009-6.104-.094-7.56-8.976-7.56-3.523 0-7.432.693-10.885 1.311l-.659.119v-6.028l.455-.094a58.561 58.561 0 0 1 11.786-1.206c8.605 0 15.899.863 15.899 11.507v23.213l-.526.059c-5.959.666-10.693.754-14.739.754Zm2.645-16.878c-6.485 0-10.496.951-10.496 5.686 0 5.48 5.119 5.934 9.931 5.934 1.803 0 5.033-.23 6.02-.3V68.91c-1.4-.06-5.015-.189-5.453-.189"/>
  <mask id="a" width="34" height="53" x="305" y="48" maskUnits="userSpaceOnUse" style="mask-type:alpha">
    <path fill="#fff" d="M305 48h33.033v53H305V48Z"/>
  </mask>
  <g mask="url(#a)">
    <path fill="#231F20" d="M330.263 100.62V85.696c-2.961.415-4.533.415-5.804.415-3.007 0-6.346-.656-8.931-1.75-5.789-2.419-9.24-8.558-9.24-16.435 0-3.931.954-11.12 7.334-14.993 3.203-1.92 6.981-2.742 12.666-2.742 2.034 0 4.781.154 7.435.309l4.31.225v46.437l-7.77 3.458Zm-4.542-44.425c-7.712-.002-11.62 3.95-11.62 11.73 0 10.018 5.83 12.122 10.732 12.122 1.194 0 2.534 0 5.504-.38V56.412c-2.325-.154-3.4-.216-4.618-.216h.002Z"/>
  </g>
  <mask id="b" width="59" height="72" x="56" y="13" maskUnits="userSpaceOnUse" style="mask-type:alpha">
    <path fill="#fff" d="M56 13.035h59v71.96H56v-71.96Z"/>
  </mask>
  <g mask="url(#b)">
    <path fill="#0996C7" d="m86.619 13.035-24.95 68.44a4.784 4.784 0 0 1-4.013 3.113v.033h26.376a4.771 4.771 0 0 0 4.49-3.144l24.959-68.442H86.619Z"/>
  </g>
  <path fill="#0996C7" d="M55.541 83a4.516 4.516 0 0 0 3.695-1.927c.085-.121.385-.544.597-1.119L69 54.602l-5.363-14.806a4.534 4.534 0 0 0-3.68-2.768 4.52 4.52 0 0 0-4.193 1.892c-.087.121-.444.66-.597 1.119L46 65.382l5.387 14.865A4.523 4.523 0 0 0 55.54 83Z"/>
  <mask id="c" width="59" height="74" x="-1" y="35" maskUnits="userSpaceOnUse" style="mask-type:alpha">
    <path fill="#fff" d="M-1 35h59v73.558H-1V35Z"/>
  </mask>
  <g mask="url(#c)">
    <path fill="#0996C7" d="M57.275 37.142H30.609a4.78 4.78 0 0 0-4.5 3.138L1.16 108.556h26.862l24.953-68.274a4.777 4.777 0 0 1 4.3-3.132v-.008Z"/>
  </g>
</svg>
