<svg xmlns="http://www.w3.org/2000/svg" xmlns:xlink="http://www.w3.org/1999/xlink" width="152px" height="27px" viewBox="0 0 152 27" version="1.1">
    <title>healthtap</title>
    <g id="Page-1" stroke="none" stroke-width="1" fill="none" fill-rule="evenodd">
        <g id="healthtap" fill-rule="nonzero">
            <polygon id="Path" fill="#34636B" points="21.35 8.49 12.98 8.49 12.98 0 8.37 0 8.37 8.49 0 8.49 0 13.17 8.37 13.17 8.37 21.66 12.98 21.66 12.98 13.17 21.35 13.17"/>
            <path d="M25.96,5.32907052e-15 L21.35,5.32907052e-15 L21.35,21.66 L25.96,21.66 L25.96,5.32907052e-15 Z M40.48,5.67 C39.138405,4.87172474 37.6008964,4.4631076 36.04,4.49 C34.44,4.49 32.98,4.87 31.68,5.64 C30.3846228,6.39424117 29.322346,7.49111982 28.61,8.81 C27.8620281,10.1906909 27.4799017,11.7398518 27.5,13.31 C27.5,14.95 27.87,16.45 28.62,17.79 C30.0863885,20.5159567 32.9552746,22.191726 36.05,22.13 C39.792301,22.1947084 43.1215769,19.7641327 44.2,16.18 L39.53,16.18 C39.19,16.78 38.72,17.25 38.11,17.6 C37.5,17.94 36.81,18.11 36.05,18.11 C35.0722144,18.1458776 34.1151897,17.8221257 33.36,17.2 C32.6104549,16.516752 32.1313511,15.5869357 32.01,14.58 L44.47,14.58 C44.742486,12.6157128 44.4038229,10.6151564 43.5,8.85 C42.8083292,7.53000696 41.7625607,6.42883352 40.48,5.67 L40.48,5.67 Z M32.13,11.49 C32.4752766,9.6121222 34.1416235,8.26884252 36.05,8.33 C37.05,8.33 37.9,8.61 38.6,9.15 C39.3,9.69 39.8,10.47 40.1,11.49 L32.13,11.49 L32.13,11.49 Z M59.84,6.53 C58.3671132,5.18445695 56.4346467,4.45441406 54.44,4.49 C52.8847011,4.46625158 51.3514774,4.85991712 50,5.63 C48.6946532,6.3723442 47.621365,7.46294357 46.9,8.78 C46.148656,10.159384 45.7663087,11.7094406 45.79,13.28 C45.79,14.93 46.16,16.44 46.91,17.8 C47.6268959,19.1281048 48.7005881,20.2295052 50.01,20.98 C51.3509564,21.7502023 52.8736893,22.1472869 54.42,22.13 C56.48,22.13 58.25,21.46 59.75,20.13 L60.15,21.63 L63.65,21.63 L63.65,4.93 L60.31,4.93 L59.83,6.53 L59.84,6.53 Z M58,16.55 C57.161898,17.4115176 56.0014751,17.8829394 54.8,17.85 C53.5,17.85 52.43,17.42 51.58,16.55 C50.7317509,15.6766762 50.2735579,14.4969195 50.31,13.28 C50.31,11.97 50.74,10.88 51.58,10.01 C52.4204803,9.14588183 53.5850816,8.67423645 54.79,8.71 C56.09,8.71 57.15,9.13 58,10.01 C58.8482491,10.8833238 59.3064421,12.0630805 59.27,13.28 C59.27,14.6 58.85,15.69 58,16.55 L58,16.55 Z M70.78,5.32907052e-15 L66.33,5.32907052e-15 L66.33,21.66 L70.78,21.66 L70.78,5.32907052e-15 Z M78.39,16.98 C77.9245836,16.4645114 77.6866491,15.7831534 77.73,15.09 L77.73,8.58 L82.2,8.58 L82.2,4.95 L77.66,4.95 L77.66,0 L73.28,0 L73.28,15.7 C73.28,17.55 73.81,19 74.86,20.07 C76.0047802,21.1700588 77.5546661,21.7458342 79.14,21.66 L82.29,21.66 L82.29,17.63 L80.27,17.63 C79.45,17.63 78.82,17.41 78.39,16.97 L78.39,16.98 Z M94.65,4.56 C92.67,4.56 91.02,5.21 89.68,6.51 L89.68,0.01 L85.22,0.01 L85.22,21.66 L89.68,21.66 L89.68,12.89 C89.68,11.54 90.01,10.47 90.68,9.69 C91.3500887,8.90851055 92.3414459,8.47732548 93.37,8.52 C94.36,8.52 95.09,8.82 95.55,9.44 C96.01,10.05 96.24,10.99 96.24,12.26 L96.24,21.66 L100.69,21.66 L100.69,11.51 C100.69,9.37 100.15,7.68 99.06,6.43 C97.9485042,5.1717351 96.327174,4.48423228 94.65,4.56 L94.65,4.56 Z M115.6,5.32907052e-15 L99.12,5.32907052e-15 L99.12,4.35 L105.04,4.35 L105.04,21.65 L109.66,21.65 L109.66,4.35 L115.6,4.35 L115.6,5.32907052e-15 Z" id="Shape" fill="#013B47"/>
            <path d="M127.14,6.53 C125.667113,5.18445695 123.734647,4.45441406 121.74,4.49 C120.191463,4.46982948 118.665608,4.86337559 117.32,5.63 C116.014653,6.3723442 114.941365,7.46294357 114.22,8.78 C113.468656,10.159384 113.086309,11.7094406 113.11,13.28 C113.11,14.93 113.48,16.44 114.22,17.8 C114.936896,19.1281048 116.010588,20.2295052 117.32,20.98 C118.663887,21.7519335 120.190306,22.1490787 121.74,22.13 C123.8,22.13 125.57,21.46 127.07,20.13 L127.46,21.63 L130.96,21.63 L130.96,4.93 L127.62,4.93 L127.14,6.53 L127.14,6.53 Z M125.3,16.55 C124.461898,17.4115176 123.301475,17.8829394 122.1,17.85 C120.8,17.85 119.74,17.42 118.89,16.55 C118.041751,15.6766762 117.583558,14.4969195 117.62,13.28 C117.62,11.97 118.04,10.88 118.89,10.01 C119.728102,9.14848242 120.888525,8.67706061 122.09,8.71 C123.39,8.71 124.46,9.13 125.3,10.01 C126.151903,10.8816753 126.613783,12.061634 126.58,13.28 C126.58,14.6 126.16,15.69 125.3,16.55 L125.3,16.55 Z M150.15,8.79 C149.431566,7.47153631 148.362042,6.37778389 147.06,5.63 C145.714944,4.86201335 144.188713,4.4683699 142.64,4.49 C140.6,4.49 138.84,5.15 137.36,6.48 L136.6,4.95 L133.67,4.95 L133.67,26.55 L138.12,26.55 L138.12,20.75 C139.444174,21.675852 141.024325,22.1652792 142.64,22.15 C144.27,22.15 145.74,21.77 147.06,21.01 C148.365398,20.2576146 149.435392,19.1564551 150.15,17.83 C150.899201,16.4425674 151.281296,14.8866475 151.26,13.31 C151.283528,11.7330985 150.901297,10.1766237 150.15,8.79 L150.15,8.79 Z M145.48,16.59 C144.641898,17.4515176 143.481475,17.9229394 142.28,17.89 C140.98,17.89 139.91,17.45 139.06,16.58 C138.211751,15.7066762 137.753558,14.5269195 137.79,13.31 C137.79,12 138.22,10.91 139.06,10.04 C139.897323,9.1701036 141.063121,8.69434188 142.27,8.73 C143.57,8.73 144.63,9.16 145.48,10.03 C146.330782,10.9057636 146.789177,12.0896487 146.75,13.31 C146.789177,14.5303513 146.330782,15.7142364 145.48,16.59 L145.48,16.59 Z" id="Shape" fill="#013B47"/>
        </g>
    </g>
</svg>
