<svg xmlns="http://www.w3.org/2000/svg" width="303" height="85" fill="none" viewBox="0 0 303 85">
  <path fill="#2FB7EC" fill-rule="evenodd" d="M134.701 17.866c-1.546-1.818-2.126-4.043-1.737-6.682.387-2.633 1.623-4.863 3.703-6.679 2.081-1.82 4.435-2.726 7.068-2.726 2.63 0 4.721.908 6.265 2.726 1.548 1.814 2.126 4.045 1.739 6.679-.389 2.639-1.623 4.864-3.702 6.682-2.084 1.814-4.441 2.724-7.07 2.724-2.633 0-4.721-.909-6.268-2.724h.002Zm-20.988 9.072c-3.089 0-5.962 2.51-6.389 5.574l-3.139 22.824c-.346 2.487-1.541 4.642-3.581 6.47-2.042 1.83-4.343 2.743-6.893 2.743-2.483 0-4.495-.894-6.03-2.687-1.541-1.791-2.132-3.966-1.779-6.526l1.894-13.851c.057-2.764-2.022-4.927-4.89-4.927h-7.509c-2.868 0-5.55 2.163-6.256 4.927l-1.957 13.851c-.353 2.561-1.551 4.735-3.588 6.526-2.037 1.793-4.297 2.687-6.776 2.687-2.482 0-4.508-.914-6.078-2.742-1.571-1.827-2.183-3.984-1.839-6.47L53.11 25.05c.446-2.949-1.306-6.03-3.977-7.28 0 0-31.672-13.165-33.736-14.011-2.09-.854-4.459 1.06-5.268 4.25l-1.935 7.618c-.812 3.19 1.016 6.82 4.057 8.062l21.226 8.762-3.18 22.884c-1.067 7.675.736 14.241 5.418 19.687 4.68 5.45 10.851 8.17 18.517 8.17 7.075 0 13.536-2.373 19.378-7.128 4.665 4.755 10.505 7.129 17.51 7.129 7.664 0 14.591-2.721 20.785-8.17 6.193-5.447 9.824-12.013 10.89-19.688 0 0 3.327-24.15 3.387-24.572.289-2.106-1.997-3.824-5.084-3.824h-7.384v-.002Zm31.113-.26h-6.634c-2.777 0-5.36 2.254-5.743 5.007 0 0-6.683 47.585-6.714 47.818-.262 1.891 1.793 3.438 4.568 3.438h6.635c2.775 0 5.357-2.253 5.739-5.006l6.715-47.819c.262-1.89-1.792-3.438-4.566-3.438Zm113.741 6.256c-3.805-4.477-8.954-6.716-15.451-6.716-6.499 0-12.567 1.419-18.549 6.568l4.236-29.28c.268-1.928-1.83-3.506-4.658-3.506h-6.769c-2.834 0-5.47 2.298-5.857 5.11l-10.874 74.593c-.267 1.926 1.828 3.505 4.66 3.505h6.769c2.78 0 5.365-2.216 5.828-4.957h.009l3.407-23.263c.688-4.701 2.497-8.265 5.429-10.69 2.93-2.425 6.128-3.638 9.586-3.638 6.992 0 9.815 4.628 8.461 13.88l-3.629 25.091c-.268 1.928 1.83 3.506 4.662 3.506h6.765c2.836 0 5.468-2.298 5.86-5.11l4.183-27.181c1.091-7.463-.264-13.436-4.067-17.912h-.001Zm-62.878 8.245 3.165-4.03c1.342-1.708 1.374-4.335.081-6.13-.567-.974-2.215-1.918-3.721-2.73l-.169-.092c-4.762-2.575-9.442-3.546-15.645-3.244-6.738.33-12.488 2.312-17.088 5.896-4.637 3.61-7.259 8.183-7.787 13.588-.537 5.485 1.32 9.58 5.513 12.171 1.992 1.256 3.813 2.213 5.411 2.846 1.587.635 3.924 1.378 6.947 2.214 2.936.816 5.172 1.743 6.642 2.744 1.348.925 1.951 1.916 1.84 3.03-.112 1.162-.715 2.103-1.838 2.873-1.169.8-2.729 1.256-4.634 1.349-5.151.25-9.997-.948-14.402-3.565l-3.269-1.805a3.314 3.314 0 0 0-1.766-.398 3.458 3.458 0 0 0-2.575 1.32l-4.702 6.214c-.481.636-.67 1.4-.535 2.146.131.726.55 1.352 1.185 1.775a33.406 33.406 0 0 0 4.758 3.138 34.206 34.206 0 0 0 6.777 2.808c4.441 1.31 8.848 1.868 13.091 1.661 6.396-.313 11.921-2.323 16.427-5.976 4.535-3.676 7.116-8.457 7.681-14.209.573-5.837-1.106-9.977-4.99-12.31-1.99-1.178-3.749-2.05-5.229-2.59-1.472-.534-3.96-1.288-7.397-2.238-3.395-.935-5.832-1.793-7.246-2.543-1.245-.662-1.769-1.547-1.648-2.787.227-2.325 2.622-3.614 7.113-3.831 3.611-.178 7.235.654 10.753 2.46.722.396 1.519.871 2.247 1.337.904.503 1.6.704 2.263.67.977-.046 1.825-.588 2.747-1.76v-.002Z" clip-rule="evenodd"/>
</svg>
