<svg width="318" height="102" viewBox="0 0 318 102" fill="none" xmlns="http://www.w3.org/2000/svg">
<path fill-rule="evenodd" clip-rule="evenodd" d="M159.221 49.47H146.702V91.9596H159.221V74.2329C159.212 72.3045 159.324 70.3776 159.556 68.4648C159.728 66.8715 160.225 65.3355 161.015 63.9603C161.796 62.6841 162.911 61.6683 164.229 61.0332C165.622 60.3333 167.509 59.9832 169.89 59.9832C170.798 59.9802 171.705 60.0531 172.602 60.2013C173.487 60.3549 174.36 60.5736 175.215 60.8559V48.8565C174.559 48.6753 173.889 48.5583 173.212 48.5064C172.485 48.4518 171.762 48.42 171.035 48.42C168.254 48.42 165.944 49.0761 164.107 50.388C162.269 51.7002 160.684 53.6697 159.352 56.2971H159.182L159.221 49.47ZM194.057 25.8662H181.547V91.9596H193.064V86.3643H193.234C193.807 87.207 194.464 87.984 195.193 88.6824C196.055 89.5113 197.008 90.2301 198.033 90.8232C199.156 91.4808 200.344 92.0082 201.577 92.3958C202.905 92.8122 204.284 93.0189 205.671 93.0093C208.473 93.0492 211.254 92.499 213.848 91.3914C216.234 90.3597 218.382 88.8105 220.149 86.8461C221.935 84.8385 223.312 82.4745 224.199 79.8963C225.169 77.0634 225.65 74.073 225.619 71.0646C225.626 68.169 225.185 65.2911 224.312 62.5422C223.503 59.9319 222.26 57.4905 220.641 55.329C219.07 53.2428 217.091 51.5292 214.837 50.3019C212.436 49.0176 209.769 48.3714 207.073 48.42C204.587 48.3978 202.116 48.8268 199.77 49.6881C197.544 50.5134 195.609 52.0218 194.218 54.0153H194.053L194.057 25.8662ZM195.686 78.4962C193.944 76.5144 193.073 73.9206 193.073 70.7148C193.073 67.5087 193.944 64.9149 195.686 62.9331C197.427 60.9513 199.895 59.9604 203.088 59.9604C206.282 59.9604 208.749 60.9513 210.491 62.9331C212.233 64.9149 213.104 67.5087 213.104 70.7148C213.104 73.9206 212.233 76.5144 210.491 78.4962C208.749 80.478 206.282 81.4689 203.088 81.4689C199.895 81.4689 197.43 80.478 195.694 78.4962H195.686ZM271.829 59.9604H282.846V49.47H271.829V36.8976H259.314V49.4883H251.301V59.9787H259.314V80.1735C259.259 82.2183 259.644 84.2499 260.441 86.1189C261.15 87.6969 262.227 89.064 263.573 90.096C264.975 91.1424 266.559 91.8942 268.236 92.3094C270.149 92.7906 272.112 93.0258 274.08 93.0093C275.558 93.0063 277.035 92.9181 278.504 92.7459C279.991 92.5794 281.453 92.2269 282.859 91.6959V80.787C282.155 81.3738 281.297 81.7239 280.398 81.7917C279.532 81.9192 278.66 81.9921 277.786 82.0098C276.681 82.0572 275.579 81.8637 274.55 81.4416C273.801 81.1179 273.172 80.5503 272.756 79.8234C272.344 79.0557 272.088 78.2079 272.003 77.3328C271.886 76.2765 271.831 75.2142 271.837 74.151L271.829 59.9604ZM233.326 30.7161C232.145 31.9551 231.412 33.5832 231.251 35.3229C231.091 37.0629 231.513 38.8071 232.446 40.2588C233.379 41.7102 234.764 42.7794 236.368 43.2843C237.971 43.7892 239.692 43.6986 241.239 43.0278C242.785 42.357 244.061 41.1474 244.849 39.6051C245.637 38.0628 245.888 36.2832 245.561 34.569C245.233 32.8548 244.347 31.3122 243.052 30.2037C241.757 29.095 240.135 28.489 238.46 28.4888C237.504 28.4767 236.556 28.6678 235.673 29.0508C234.791 29.4337 233.992 30.0003 233.326 30.7161ZM244.722 49.47H232.198V91.9596H244.722V49.47Z" fill="#1E2124"/>
<path fill-rule="evenodd" clip-rule="evenodd" d="M138.872 44.5611C137.862 36.594 134.994 29.0071 130.519 22.4671C126.044 15.9272 120.099 10.634 113.207 7.05258C106.314 3.47112 98.6843 1.71084 90.9878 1.92635C83.2912 2.14185 75.763 4.32654 69.0643 8.28858C62.3655 12.2506 56.7011 17.8688 52.5685 24.6498C48.4359 31.4307 45.9615 39.1671 45.3627 47.1795C44.7638 55.1919 46.0586 63.2352 49.1336 70.6032C52.2086 77.9712 56.9696 84.4383 62.9985 89.4369C67.6144 87.2916 72.6614 84.7872 78.0216 81.9783C72.6 79.2666 67.9931 75.0573 64.7012 69.8064C61.4093 64.5555 59.5579 58.4637 59.3482 52.1922C59.1384 45.921 60.5779 39.7092 63.5108 34.2315C66.4438 28.7536 70.7579 24.2188 75.985 21.1191C81.2123 18.0194 87.153 16.4733 93.1626 16.6484C99.1722 16.8235 105.021 18.7133 110.074 22.1126C115.128 25.5119 119.193 30.291 121.828 35.931C124.464 41.571 125.569 47.8569 125.024 54.1065C129.988 50.82 134.63 47.6202 138.872 44.5611ZM139.268 50.1246C134.517 53.7927 129.252 57.5925 123.592 61.4244C121.063 69.7023 115.624 76.6731 108.369 80.9328C101.115 85.1928 92.5831 86.4255 84.4923 84.3825C78.2872 87.4962 72.3998 90.1914 67.009 92.4234C74.1793 97.1832 82.451 99.8262 90.9453 100.072C99.4395 100.317 107.839 98.1558 115.25 93.8172C122.662 89.4786 128.809 83.1252 133.037 75.432C137.266 67.7385 139.419 58.9929 139.268 50.1246Z" fill="#1E2124"/>
<path fill-rule="evenodd" clip-rule="evenodd" d="M141.655 10.1984C142.291 10.1984 142.913 10.0014 143.442 9.63234C143.972 9.26325 144.384 8.73864 144.628 8.12487C144.871 7.5111 144.935 6.83571 144.811 6.18414C144.687 5.53257 144.38 4.93404 143.93 4.4643C143.48 3.99453 142.907 3.67461 142.283 3.54501C141.658 3.41541 141.011 3.48192 140.423 3.73617C139.835 3.99039 139.333 4.42092 138.979 4.97331C138.626 5.52567 138.437 6.17511 138.437 6.83946C138.436 7.28073 138.519 7.71777 138.681 8.12559C138.842 8.53338 139.079 8.90391 139.378 9.21594C139.677 9.52797 140.032 9.77538 140.423 9.94395C140.813 10.1125 141.232 10.199 141.655 10.1984Z" fill="#00CCF5"/>
<path fill-rule="evenodd" clip-rule="evenodd" d="M33.3752 67.2697C34.224 67.2697 35.0538 67.0069 35.7594 66.5143C36.4651 66.0217 37.0148 65.3218 37.3391 64.5028C37.6633 63.6838 37.7475 62.7829 37.5809 61.9141C37.4144 61.0453 37.0046 60.2476 36.4034 59.6221C35.8023 58.9963 35.0368 58.5712 34.2039 58.3999C33.371 58.2286 32.5082 58.3192 31.7247 58.6603C30.9412 59.0011 30.2722 59.5771 29.8025 60.3151C29.3327 61.0534 29.0834 61.9201 29.086 62.8063C29.0894 63.9913 29.5428 65.1265 30.3468 65.9632C31.1508 66.7999 32.2399 67.2697 33.3752 67.2697Z" fill="#00CCF5"/>
<path fill-rule="evenodd" clip-rule="evenodd" d="M105.813 40.8981C110.446 38.2254 114.957 35.6892 119.312 33.3483C119.473 33.621 119.647 33.9438 119.83 34.3074C115.515 36.6618 111.004 39.2073 106.37 41.8845L105.813 40.8981ZM165.992 17.0488C163.924 13.308 151.383 17.2806 133.634 25.9394C133.799 26.2258 133.965 26.5212 134.121 26.8212C151.126 18.3715 162.992 14.3035 164.498 17.5761C166.867 21.8577 139.678 42.8661 103.797 64.4973C67.9155 86.1282 36.8853 100.192 34.5164 95.9097C33.1665 93.3645 39.842 86.4282 45.8381 80.9103C37.2031 88.1829 32.6744 93.7872 34.1637 96.4779C37.5428 102.591 70.2495 90.5691 106.658 68.6427C143.066 46.716 169.389 23.1622 165.992 17.0488Z" fill="#00CCF5"/>
<path d="M101.55 44.4518C100.782 43.0775 100.496 41.468 100.738 39.8978C100.98 38.3273 101.737 36.8936 102.88 35.8406C104.022 34.7876 105.478 34.1807 107.001 34.1234C108.524 34.0661 110.019 34.562 111.23 35.5265C112.442 36.491 113.296 37.8644 113.646 39.4124C113.996 40.9604 113.821 42.5873 113.15 44.0156C112.48 45.4439 111.356 46.5851 109.969 47.2451C108.583 47.9048 107.02 48.0419 105.547 47.6336C104.708 47.4149 103.921 47.0198 103.234 46.4729C102.546 45.9257 101.973 45.2381 101.55 44.4518Z" fill="#FA00E9"/>
</svg>
