<svg class="icon" width="165" height="24" fill="none" xmlns="http://www.w3.org/2000/svg">
  <title>SimplePractice</title>
  <mask id="a" maskUnits="userSpaceOnUse" x="0" y="0" width="165" height="24">
    <path fill-rule="evenodd" clip-rule="evenodd" d="M6.971 1.448C2.988-1.446 1.499.72 1.187 1.746l-.007.025C.703 3.34.52 3.94.094 5.748-.583 8.62 2.525 9.463 5.23 9.663c.173.017.314.026.41.033l.116.008c.177.02.202.168.163.279-.012.035-.042.118-.206.21l-.052.028s-2.365 1.211-2.409 2.446c-.033.918 1.062 1.69 2.03 2.033l.016.005.004.002.006.002.003.001c.065.024.132.047.203.069 2.53.769 5.128-2.167 5.86-3.79.733-1.624.563-3.337.114-4.284C11.2 6.1 9.697 3.133 6.97 1.448zm9.787.647c.967-.954 1.836-1.53 2.258-1.393 1.082.352 1.017 2.16.112 4.582-.72 1.926-2.813 3.64-3.384 3.97a.176.176 0 00-.084.095c-.054.164.094.238.283.331.36.179.868.431.419 1.523-.714 1.734-2.26 2.732-3.465 2.349-.589-.188-.749-.95-.705-1.871.007-.155.031-.363.066-.603.054-.374.128-.748.217-1.115l.077-.32.143-.553c.604-2.22 2.063-5.024 4.063-6.995zm52.037 17.351h2.51V2.825h-2.51v16.621zm-35.002-.027h-2.555V8.035h2.555V19.42zM32.505 6.555c.866 0 1.577-.729 1.577-1.617 0-.887-.71-1.616-1.577-1.616-.844 0-1.555.729-1.555 1.616 0 .888.71 1.617 1.555 1.617zm-10 4.303c0-.728.778-1.07 1.578-1.07 1.089 0 1.888.592 2.088 1.73l2.133-.295.067-.114c-.311-2.14-1.889-3.302-4.243-3.302-2.311 0-3.888 1.435-3.888 3.165 0 1.822 1.177 2.8 3.399 3.37 2.066.524 2.821.933 2.821 1.799 0 .865-.866 1.366-1.91 1.366-1.622 0-2.311-.774-2.577-1.935l-2.111.364-.044.136c.377 2.232 2.066 3.575 4.71 3.575 2.62 0 4.332-1.617 4.332-3.734 0-1.799-1.2-2.71-3.466-3.325-2.022-.569-2.888-.955-2.888-1.73zm16.767-1.48c.866-.979 1.977-1.57 3.332-1.57 1.422 0 2.266.591 2.777 1.616 1.044-1.047 2.243-1.616 3.62-1.616 2.289 0 3.422 1.365 3.422 3.37v8.241H49.89v-7.582c0-1.07-.512-1.753-1.622-1.753-1 0-1.8.546-2.422 1.526v7.81h-2.533v-7.537c0-1.093-.466-1.799-1.577-1.799-1 0-1.866.752-2.465 1.685v7.65h-2.533V8.035h2.533v1.343zm18.589 3.507c0-1.64 1.332-2.846 2.954-2.846 1.755 0 3.177 1.184 3.177 3.688 0 2.505-1.422 3.689-3.155 3.689-1.644 0-2.976-1.23-2.976-2.869v-1.662zm0-4.85h-2.555v15.938h2.555V18.35c.8.797 2.021 1.298 3.376 1.298 2.844 0 5.31-2.095 5.31-5.92 0-3.825-2.533-5.92-5.132-5.92-1.688 0-2.843.706-3.554 1.48V8.035zm34.144 1.12c2.377 0 3.688 1.616 3.688 4.599s-1.466 4.6-3.688 4.6c-2.155 0-3.554-1.913-3.554-3.53V12.82c0-1.799 1.177-3.665 3.554-3.665zm-4.932-1.093V24h1.378v-6.148c.844 1.162 2.132 1.822 3.732 1.822 2.8 0 4.887-2.118 4.887-5.92s-2.066-5.92-4.798-5.92c-1.844 0-3.11.91-3.821 1.844V8.062h-1.378zm13.52 0v1.707c.556-.956 1.756-1.935 3.155-1.935.467 0 .756.068.955.182l-.244 1.207c-.178-.046-.4-.068-.777-.068-1.2 0-2.489 1.002-3.089 2.481v7.81h-1.377V8.062h1.377zm9.008 5.851l3.044-.318v2.481c-.978 1.435-2.199 2.277-3.666 2.277-1.333 0-2.199-.865-2.199-2.072 0-1.388 1.111-2.186 2.821-2.368zm4.909 5.67c.311 0 .712-.046 1.067-.228v-1.138c-.222.068-.4.09-.578.09-.666 0-.977-.455-.977-1.183v-5.26c0-2.505-1.511-4.03-4.088-4.03-1.733 0-3.755.956-3.954 3.46h1.377c.155-1.32 1.133-2.14 2.533-2.14 1.821 0 2.754.889 2.754 2.756v.478l-3.443.364c-2 .205-3.799 1.298-3.799 3.53 0 2.026 1.289 3.392 3.399 3.392 1.755 0 2.977-.956 3.843-1.936.089.957.711 1.845 1.866 1.845zm7.902-1.23c2.199 0 3.244-1.047 3.732-2.846h1.311c-.289 2.46-2.244 4.167-5.087 4.167-3.177 0-5.443-2.368-5.443-5.92s2.266-5.92 5.443-5.92c2.91 0 4.687 1.525 5.087 4.167h-1.311c-.4-1.776-1.644-2.846-3.732-2.846-2.355 0-4.11 1.844-4.11 4.599s1.755 4.6 4.11 4.6zm9.939-10.291V5.17l-1.377-.524v3.416h-2.089v1.184h2.089v7.764c0 1.503.755 2.664 2.444 2.664.488 0 .933-.046 1.488-.228v-1.161c-.422.137-.644.205-1.066.205-.955 0-1.489-.478-1.489-1.685v-7.56h2.555V8.063h-2.555zm5.302 11.384h1.378V8.062h-1.378v11.384zm.689-15.574c.577 0 1.066.501 1.066 1.093s-.489 1.093-1.066 1.093c-.578 0-1.067-.501-1.067-1.093s.489-1.093 1.067-1.093zm12.733 11.635c-.489 1.799-1.533 2.846-3.733 2.846-2.354 0-4.109-1.844-4.109-4.6 0-2.754 1.755-4.598 4.109-4.598 2.089 0 3.333 1.07 3.733 2.846h1.31c-.399-2.642-2.177-4.167-5.087-4.167-3.177 0-5.443 2.368-5.443 5.92s2.266 5.92 5.443 5.92c2.844 0 4.799-1.708 5.087-4.167h-1.31zm4.902-2.664h7.42c-.044-2.026-1.511-3.688-3.665-3.688-2.155 0-3.533 1.548-3.755 3.688zm0 1.184c.045 2.596 1.577 4.326 3.8 4.326 2.132 0 2.954-1.252 3.332-2.527h1.377c-.555 2.3-2.088 3.848-4.732 3.848-3.133 0-5.287-2.368-5.287-5.92s2.355-5.92 5.265-5.92c2.888 0 5.043 2.05 5.043 5.51v.683h-8.798zM82.081 12.57c-.156-1.685-1.444-2.619-3.021-2.619-1.511 0-2.755.957-3.044 2.619h6.065zm-2.976 4.895c1.382 0 2.269-.612 2.736-1.575h2.405c-.766 2.436-2.562 3.784-5.186 3.784-3.332 0-5.554-2.368-5.554-5.92s2.6-5.92 5.554-5.92c3.133 0 5.399 2.163 5.399 5.829v.797h-8.487c.112 1.867 1.356 3.005 3.133 3.005z" fill="#fff"></path>
  </mask>
  <g mask="url(#a)">
    <path fill-rule="evenodd" clip-rule="evenodd" d="M19.016.703c-.422-.137-1.29.438-2.258 1.392-2 1.972-3.46 4.775-4.063 6.995l-.143.554-.077.319c-.09.368-.163.74-.217 1.115-.034.24-.058.449-.066.603-.044.921.116 1.684.705 1.871 1.204.383 2.751-.615 3.465-2.35.685-1.664-.858-1.376-.702-1.853a.176.176 0 01.084-.094c.57-.332 2.665-2.045 3.385-3.971.905-2.422.97-4.23-.113-4.581zM6.971 1.448C2.988-1.446 1.499.72 1.187 1.746.705 3.333.523 3.929.094 5.748-.583 8.62 2.525 9.463 5.23 9.663c.273.027.465.035.526.041.177.02.202.168.163.279-.012.035-.042.118-.206.21l-.052.028s-2.365 1.211-2.409 2.446c-.033.918 1.062 1.69 2.03 2.033l.016.005.01.004.003.001c.065.024.132.047.203.069 2.53.769 5.128-2.167 5.86-3.79.733-1.624.563-3.337.114-4.284C11.2 6.1 9.697 3.133 6.97 1.448z" fill="#fff"></path>
    <path fill="#1371C8" d="M0 0h165.395v23.776H0z"></path>
  </g>
</svg>
