<svg xmlns="http://www.w3.org/2000/svg" width="6804" height="1205" viewBox="0 0 6804 1205">
  <path d="M1227.98 313.71c0-30.35 13.03-43.36 43.38-43.36h242.74c223.25 0 346.78 134.38 346.78 379.28 0 244.92-123.53 379.28-346.78 379.28h-242.74c-30.35 0-43.38-13.01-43.38-43.36V313.71zm286.12 573.24c115.94 0 175.55-83.43 175.55-237.31s-59.6-237.31-175.55-237.31h-118.12v474.62h118.12zm329.09 100.8 238.4-696.8c6.51-17.35 30.37-22.77 61.79-22.77h56.35c31.43 0 55.24 5.42 61.76 22.77l238.42 696.8c2.16 7.58 3.23 14.08 3.23 19.51 0 15.15-16.26 23.83-54.17 23.83h-47.66c-31.44 0-55.3-5.42-60.72-22.75l-43.32-132.22h-255.75l-43.36 132.22c-5.42 16.26-23.84 22.75-49.85 22.75h-43.36c-45.5 0-66.1-8.67-66.1-23.83 0-5.42 2.2-11.93 4.34-19.51zm407.47-254.66-61.76-192.9c-5.44-14.08-16.27-69.34-16.27-69.34h-4.34s-9.73 50.93-16.27 69.34l-63.93 192.9h162.57zm327.3-419.38c0-30.35 12.99-43.36 43.34-43.36h211.31c187.48 0 269.85 73.7 269.85 203.74 0 83.43-52.03 144.13-126.8 172.29v4.34c27.1 10.84 59.6 53.1 78.03 99.71l95.38 238.39c3.25 8.68 5.41 15.17 5.41 20.61 0 12.99-20.61 21.66-65.02 21.66h-44.43c-31.42 0-56.37-5.42-62.86-22.75l-85.61-211.32c-21.66-43.36-39-65.02-109.45-65.02h-42.27v264.41c0 22.76-19.5 34.68-65 34.68h-36.88c-45.49 0-65-11.93-65-34.68v-682.7zm269.82 274.16c44.45 0 83.45-41.17 83.45-93.18 0-49.86-34.67-82.35-91.01-82.35h-95.38v175.54h102.94zM3239 302.88c0-22.76 19.54-34.68 65.03-34.68h37.93c45.54 0 65.02 11.93 65.02 34.68v290.43l4.33 1.07 188.55-305.59c9.79-16.25 33.6-20.59 65.06-20.59h50.93c42.25 0 60.66 6.51 60.66 16.26 0 5.43-2.18 13-8.65 22.76l-209.14 320.77 237.31 364.1c6.51 9.76 8.68 17.35 8.68 22.77 0 9.75-18.44 16.24-60.69 16.24h-62.84c-31.46 0-56.37-4.32-66.12-20.57l-203.75-329.46-4.33 1.1v314.24c0 22.76-19.48 34.68-65.02 34.68h-37.93c-45.5 0-65.03-11.93-65.03-34.68V302.88z"/>
  <path d="M940.66 245.48c-38.72 14.84-82.13-4.53-96.97-43.26-14.83-38.71 4.54-82.14 43.25-96.97 38.7-14.84 82.14 4.54 96.97 43.25 14.84 38.71-4.53 82.14-43.25 96.98zm3137.19 107.24h-208.07c-15.16 0-21.66-9.75-21.66-32.52v-17.33c0-22.76 6.5-32.52 21.66-32.52h508.25c15.19 0 21.66 9.76 21.66 32.52v17.33c0 22.77-6.47 32.52-21.66 32.52h-204.82v654.55c0 15.15-13.01 23.83-43.36 23.83h-8.65c-30.35 0-43.36-8.67-43.36-23.83V352.72zm389.3-49.84c0-22.76 9.79-32.52 32.52-32.52h182.08c169.04 0 261.15 55.27 261.15 191.8 0 93.22-48.78 152.81-124.64 183.16v4.32c45.5 15.18 69.35 63.95 97.52 135.47l84.54 213.47c2.17 6.51 3.25 11.94 3.25 15.15 0 10.86-14.08 17.35-45.5 17.35h-10.83c-21.67 0-39-6.49-43.36-17.35l-82.35-212.36c-32.49-84.54-76.96-106.21-161.46-106.21h-97.51v312.1c0 15.15-13.01 23.83-43.4 23.83h-8.65c-30.35 0-43.36-8.67-43.36-23.83V302.88zm238.41 309.91c78.03 0 138.72-61.76 138.72-133.29 0-87.76-58.51-126.78-146.3-126.78h-135.43v260.07h143.01zm344.06 384.72 256.79-711.98c4.36-13 21.69-17.34 43.36-17.34h31.42c21.66 0 39.03 4.34 43.32 17.34l256.86 713.05c2.14 5.41 3.22 9.76 3.22 14.08 0 10.85-14.05 18.42-46.58 18.42h-8.65c-21.66 0-39.03-4.32-43.36-17.35l-63.95-177.69h-318.6l-61.76 177.69c-4.32 13.03-21.66 17.35-43.33 17.35h-5.43c-32.53 0-46.61-6.49-46.61-18.42.01-4.31 1.12-8.66 3.3-15.15zm443.16-243.85-113.74-322.91-14.08-62.84-17.34 62.84-113.81 322.91h258.97zm537.9-489.79c107.31 0 207 37.91 207 67.17 0 18.42-22.77 62.86-36.86 62.86-11.9 0-63.91-47.69-167.96-47.69-173.36 0-254.68 91.03-254.68 304.52 0 208.05 80.2 302.35 250.36 302.35 111.59 0 172.28-54.19 186.37-54.19 14.08 0 37.93 45.5 37.93 58.51 0 29.26-97.52 78.03-224.29 78.03-237.32 0-348.98-121.37-348.98-385.79 0-258.99 119.21-385.77 351.11-385.77zm301.65 39.01c0-22.76 9.76-32.52 32.53-32.52h378.18c15.2 0 21.67 9.76 21.67 32.52v17.33c0 22.77-6.47 32.52-21.67 32.52h-315.3V599.8h282.81c15.15 0 21.66 9.74 21.66 32.51v17.34c0 22.77-6.51 32.52-21.66 32.52h-282.81v264.41h316.42c15.15 0 21.66 9.76 21.66 32.49v17.35c0 22.76-6.51 32.52-21.66 32.52h-379.29c-22.77 0-32.53-9.76-32.53-32.52V302.88z" opacity=".65"/>
  <path d="M1051.92 122.41c-21.78-56.84-77.32-95.04-138.19-95.04-18.09 0-35.89 3.31-52.91 9.83-76.17 29.18-114.41 114.9-85.23 191.08 4.92 12.85 11.58 24.73 19.63 35.45L613.83 438.7c-44.57-39.64-102.98-63.1-164.69-63.1-30.25 0-60.02 5.53-88.49 16.44-33.95 13-63.98 32.87-88.62 58.15l-87.98-74.4c.94-1.93 1.82-3.9 2.6-5.93 7.21-18.65 6.73-39-1.36-57.29C173.3 285.5 146.41 268 116.79 268c-10.45 0-20.63 2.16-30.26 6.42-37.74 16.71-54.86 61-38.17 98.74 11.98 27.09 38.87 44.59 68.5 44.59 10.46 0 20.64-2.16 30.26-6.42 4.31-1.9 8.36-4.19 12.17-6.8l88.44 74.79a249.3 249.3 0 0 0-24.52 43.01c-26.92 60.37-28.72 127.6-5.08 189.32 36.43 95.11 129.32 159.01 231.13 159.01 15.98 0 31.84-1.56 47.44-4.63l32.78 117.67c-16.27 8.52-29.52 21.79-38.09 38.47-10.99 21.38-12.99 45.75-5.65 68.63 12 37.39 46.42 62.5 85.65 62.5 9.32 0 18.57-1.45 27.49-4.32 22.88-7.34 41.54-23.15 52.53-44.53 10.99-21.37 13-45.75 5.65-68.64-11.99-37.38-46.41-62.49-85.65-62.49-1.8 0-3.59.07-5.38.18l-32.77-117.61c1.5-.54 2.99-1.09 4.48-1.66C665.16 805.4 729.11 662 680.29 534.58c-9.68-25.26-23.35-48.33-40.11-68.57l181.49-175.06c25.73 20.46 58.09 32.41 92.12 32.41 18.08 0 35.88-3.31 52.9-9.83 36.9-14.13 66.09-41.8 82.19-77.9 16.11-36.11 17.18-76.31 3.04-113.22zm-464.63 990.43a52.04 52.04 0 0 1-15.9 2.5c-22.68 0-42.58-14.53-49.52-36.16-4.25-13.23-3.09-27.32 3.27-39.68 6.35-12.36 17.13-21.5 30.36-25.75a51.875 51.875 0 0 1 15.92-2.51c22.68 0 42.58 14.53 49.52 36.15 4.25 13.23 3.09 27.33-3.27 39.7-6.36 12.36-17.15 21.51-30.38 25.75zm-45.93-123.67zm-14.48 30.93.03-.03-.03.03zM135.8 385.75c-6.04 2.67-12.41 4.03-18.94 4.03-18.57 0-35.41-10.97-42.92-27.94-10.46-23.64.26-51.38 23.9-61.84a46.525 46.525 0 0 1 18.94-4.02c18.57 0 35.41 10.96 42.92 27.92 5.07 11.46 5.37 24.2.86 35.88-4.51 11.67-13.3 20.9-24.76 25.97zm388.37 433.03c-24.13 9.24-49.33 13.93-74.91 13.93-86.21 0-164.85-54.11-195.7-134.64-20.02-52.24-18.5-109.17 4.3-160.29 22.79-51.12 64.12-90.29 116.37-110.31 24.13-9.24 49.33-13.93 74.92-13.93 86.22 0 164.87 54.09 195.72 134.6 41.33 107.89-12.81 229.3-120.7 270.64zm102.32-353.43zM913.8 285.4c-45.26 0-86.56-28.41-102.76-70.69-10.49-27.39-9.67-57.27 2.31-84.14 11.98-26.87 33.67-47.44 61.06-57.93 12.67-4.86 25.9-7.32 39.33-7.32 45.27 0 86.56 28.4 102.75 70.67 10.52 27.44 9.71 57.33-2.25 84.18-11.97 26.84-33.67 47.41-61.11 57.92-12.68 4.84-25.91 7.31-39.33 7.31zm-92.56-7.91zm229.52-119c.03.26.07.52.1.78-.04-.26-.07-.52-.1-.78z"/>
  <path fill="#F59D15" d="M505.05 770.32c-80.58 30.87-170.95-9.43-201.82-90.03-30.88-80.58 9.41-170.97 89.99-201.85 80.59-30.88 170.98 9.45 201.86 90.02 30.88 80.61-9.44 170.97-90.03 201.86z"/>
  <path d="M583.76 1095.57c-17.82 6.83-37.8-2.09-44.63-19.91-6.83-17.82 2.09-37.8 19.91-44.63 17.81-6.83 37.8 2.09 44.63 19.9 6.83 17.83-2.09 37.81-19.91 44.64zM125.84 366.34c-12.96 4.97-27.49-1.52-32.46-14.48-4.96-12.96 1.52-27.49 14.48-32.46 12.95-4.97 27.49 1.52 32.46 14.47 4.96 12.97-1.52 27.5-14.48 32.47z" opacity=".65"/>
</svg>
