<svg xmlns="http://www.w3.org/2000/svg" width="213" height="182" fill="none" viewBox="0 0 213 182">
  <path fill="#000" d="m106.581 131.613 11.516-14.807c.097-.096.097-.29.097-.387l-10.162-70.064c0-.29-.29-.484-.58-.484H94.194a.532.532 0 0 0-.484.29l-31.645 64.452c-.194.387-.775.387-.968 0L29.16 46.161a.532.532 0 0 0-.484-.29H15.323c-.29 0-.484.194-.581.484L1.968 134.323c-.097.29.193.58.58.58h15.484c.29 0 .484-.193.58-.484L26.356 78c.097-.58.774-.677 1.064-.194l28.162 56.807c.096.193.29.29.483.29H67a.533.533 0 0 0 .484-.29l27.774-56.032c.29-.484.968-.387 1.065.193l7.548 54.678c.097.483.677.677.968.29l1.742-2.129Z"/>
  <path fill="#000" d="M200.839 45.871h-19.452c-.193 0-.29.097-.484.194l-23.322 30.58c-.194.29-.678.29-.871 0l-23.42-30.58a.737.737 0 0 0-.484-.194h-19.451c-.484 0-.678.58-.484.87l33.484 43.356a.469.469 0 0 1 0 .677l-33.484 43.355c-.29.387 0 .871.484.871h19.451c.194 0 .291-.097.484-.194l23.42-30.58c.193-.291.677-.291.871 0L181 134.806c.097.097.29.194.484.194h19.451c.484 0 .678-.581.484-.871l-33.484-43.355a.469.469 0 0 1 0-.677l33.484-43.355c.097-.387-.096-.871-.58-.871Zm7.935 89.032c-2.322 0-4.258-1.935-4.258-4.258 0-2.419 1.936-4.258 4.258-4.258 2.42 0 4.258 1.936 4.258 4.258 0 2.323-1.935 4.258-4.258 4.258Zm0-7.839a3.573 3.573 0 0 0-3.58 3.581 3.572 3.572 0 0 0 3.58 3.581 3.573 3.573 0 0 0 3.581-3.581 3.573 3.573 0 0 0-3.581-3.581Zm1.161 6-1.258-1.935h-.774v1.935h-.774v-4.935h2.032c.871 0 1.645.581 1.645 1.452 0 1.064-.967 1.451-1.258 1.451l1.355 1.936h-.968v.096Zm-.871-4.258h-1.258v1.742h1.258c.388 0 .871-.29.871-.871 0-.58-.387-.871-.871-.871Z"/>
</svg>
