<svg width="1000" height="100" viewBox="0 0 1000 100" fill="none" xmlns="http://www.w3.org/2000/svg">
<path d="M210.925 61.0815C205.815 61.0815 202.639 58.1267 202.639 53.3639C202.639 48.4208 205.57 45.3455 210.288 45.3455H210.684C211.276 45.3455 212.091 45.3648 213.204 45.5035V39.537H216.537V60.5438C216.537 60.5438 213.37 61.0815 210.925 61.0815ZM210.895 47.965C207.667 47.965 206.097 49.7045 206.097 53.281C206.097 56.4922 207.991 58.4881 211.035 58.4881C211.62 58.4881 212.29 58.4496 213.203 58.3715V48.1789C212.291 48.0324 211.555 47.965 210.895 47.965ZM165.272 60.5997L156.268 44.9166L156.265 60.5997H153.127V40.7455H157.52L166.524 56.2888L166.52 40.7455H169.699V60.5997H165.272ZM193.95 60.9052C192.434 60.9052 190.854 60.7356 188.972 60.3742L188.768 60.3356V57.5619L189.065 57.6255C190.725 57.9792 192.158 58.2809 193.592 58.2809C194.749 58.2809 197.446 58.0997 197.446 56.3987C197.446 54.9724 195.583 54.6138 194.086 54.3276L193.991 54.3083C193.711 54.2563 193.448 54.2033 193.226 54.1474C191.03 53.5788 188.688 52.7239 188.688 49.7874C188.688 46.9231 190.959 45.2819 194.919 45.2819C196.82 45.2819 198.2 45.4843 199.309 45.65L199.848 45.7291V48.4208L199.561 48.3688C198.306 48.1384 196.835 47.9013 195.42 47.9013C193.848 47.9013 191.981 48.1953 191.981 49.5918C191.981 50.7511 193.509 51.0827 195.277 51.4672C197.751 52.0011 200.818 52.6719 200.818 56.0411C200.818 59.1319 198.317 60.9052 193.95 60.9052ZM225.894 60.9052C222.444 60.9052 219.249 60.298 219.249 55.9014C219.249 51.1164 224.19 51.1164 227.143 51.1164C227.437 51.1164 228.825 51.181 229.251 51.1993C229.247 48.5153 229.213 47.8753 225.313 47.8753C223.768 47.8753 222.051 48.1799 220.535 48.4516L220.245 48.5037V45.8534L220.44 45.8119C222.198 45.4554 223.892 45.2819 225.619 45.2819C229.398 45.2819 232.6 45.6616 232.6 50.3416V60.5476L232.37 60.5736C229.753 60.8666 227.675 60.9052 225.895 60.9052H225.894ZM227.06 53.4843C224.212 53.4843 222.447 53.9026 222.447 55.9843C222.447 58.3937 224.698 58.5932 226.811 58.5932C227.599 58.5932 229.017 58.492 229.451 58.4611V53.5672C228.84 53.5412 227.252 53.4843 227.06 53.4843ZM179.128 60.9052C175.673 60.9052 172.479 60.298 172.479 55.9014C172.479 51.1164 177.42 51.1164 180.372 51.1164C180.667 51.1164 182.058 51.181 182.485 51.1993C182.481 48.5153 182.443 47.8753 178.543 47.8753C176.997 47.8753 175.28 48.1799 173.764 48.4516L173.474 48.5037V45.8534L173.674 45.8119C175.377 45.4605 177.111 45.2829 178.849 45.2819C182.627 45.2819 185.83 45.6616 185.83 50.3416V60.5476L185.599 60.5736C182.983 60.8666 180.904 60.9052 179.128 60.9052ZM180.289 53.4843C177.442 53.4843 175.681 53.9026 175.681 55.9843C175.681 58.3937 177.928 58.5932 180.041 58.5932C180.833 58.5932 182.251 58.492 182.684 58.4611V53.5672C182.069 53.5412 180.482 53.4843 180.29 53.4843" fill="#231F20"/>
<mask id="mask0_41:427" style="mask-type:alpha" maskUnits="userSpaceOnUse" x="234" y="44" width="15" height="24">
<path d="M234.357 44.3735H248.861V67.6768H234.357V44.3735Z" fill="white"/>
</mask>
<g mask="url(#mask0_41:427)">
<path d="M245.45 67.5099V60.9481C244.15 61.1306 243.46 61.1306 242.902 61.1306C241.581 61.1306 240.115 60.8422 238.98 60.3606C236.439 59.2974 234.923 56.5981 234.923 53.1347C234.923 51.4063 235.342 48.2458 238.143 46.5427C239.55 45.698 241.209 45.3368 243.705 45.3368C244.598 45.3368 245.804 45.4048 246.969 45.4727L248.862 45.5718V65.9893L245.45 67.5099ZM243.456 47.9769C240.07 47.9759 238.354 49.7139 238.354 53.1347C238.354 57.539 240.913 58.4643 243.066 58.4643C243.59 58.4643 244.179 58.4643 245.483 58.2973V48.072C244.462 48.004 243.99 47.9769 243.455 47.9769H243.456Z" fill="#231F20"/>
</g>
<mask id="mask1_41:427" style="mask-type:alpha" maskUnits="userSpaceOnUse" x="125" y="29" width="26" height="32">
<path d="M125.027 29H150.933V60.6401H125.027V29Z" fill="white"/>
</mask>
<g mask="url(#mask1_41:427)">
<path d="M138.471 29L127.516 59.0918C127.24 59.8479 126.555 60.3795 125.754 60.4607V60.4751H137.335C138.242 60.4751 139.018 59.8986 139.307 59.0928L150.266 29H138.471Z" fill="#0996C7"/>
</g>
<path d="M124.826 59.7625C125.499 59.7625 126.088 59.4255 126.449 58.9152C126.486 58.862 126.618 58.6761 126.711 58.4233L130.736 47.2764L128.381 40.7665C128.102 40.0952 127.484 39.6292 126.765 39.5492C126.047 39.4691 125.343 39.7876 124.924 40.3811C124.886 40.4344 124.729 40.6716 124.662 40.873L120.637 52.0161L123.002 58.5521C123.316 59.2864 124.033 59.7622 124.826 59.7625Z" fill="#0996C7"/>
<mask id="mask2_41:427" style="mask-type:alpha" maskUnits="userSpaceOnUse" x="100" y="38" width="26" height="33">
<path d="M100 38.6576H125.905V71H100V38.6576Z" fill="white"/>
</mask>
<g mask="url(#mask2_41:427)">
<path d="M125.587 39.5994H113.878C112.972 39.5994 112.196 40.1716 111.903 40.9793L100.948 70.9992H112.742L123.698 40.9803C123.989 40.1815 124.735 39.6373 125.587 39.6032V39.5994Z" fill="#0996C7"/>
</g>
<path d="M693.283 61.0815C688.173 61.0815 684.997 58.1267 684.997 53.3639C684.997 48.4208 687.928 45.3455 692.646 45.3455H693.042C693.634 45.3455 694.449 45.3648 695.562 45.5035V39.537H698.895V60.5438C698.895 60.5438 695.728 61.0815 693.283 61.0815ZM693.253 47.965C690.025 47.965 688.455 49.7045 688.455 53.281C688.455 56.4922 690.349 58.4881 693.392 58.4881C693.978 58.4881 694.648 58.4496 695.561 58.3715V48.1789C694.649 48.0324 693.913 47.965 693.253 47.965ZM647.629 60.5997L638.626 44.9166L638.623 60.5997H635.485V40.7455H639.878L648.882 56.2888L648.878 40.7455H652.057V60.5997H647.629ZM676.308 60.9052C674.792 60.9052 673.211 60.7356 671.33 60.3742L671.126 60.3356V57.5619L671.423 57.6255C673.083 57.9792 674.516 58.2809 675.95 58.2809C677.107 58.2809 679.804 58.0997 679.804 56.3987C679.804 54.9724 677.941 54.6138 676.444 54.3276L676.349 54.3083C676.069 54.2563 675.806 54.2033 675.584 54.1474C673.388 53.5788 671.046 52.7239 671.046 49.7874C671.046 46.9231 673.317 45.2819 677.277 45.2819C679.178 45.2819 680.558 45.4843 681.667 45.65L682.206 45.7291V48.4208L681.919 48.3688C680.664 48.1384 679.193 47.9013 677.778 47.9013C676.205 47.9013 674.339 48.1953 674.339 49.5918C674.339 50.7511 675.867 51.0827 677.635 51.4672C680.109 52.0011 683.175 52.6719 683.175 56.0411C683.175 59.1319 680.675 60.9052 676.308 60.9052ZM708.252 60.9052C704.802 60.9052 701.607 60.298 701.607 55.9014C701.607 51.1164 706.547 51.1164 709.501 51.1164C709.794 51.1164 711.183 51.181 711.609 51.1993C711.605 48.5153 711.571 47.8753 707.671 47.8753C706.125 47.8753 704.409 48.1799 702.893 48.4516L702.603 48.5037V45.8534L702.798 45.8119C704.556 45.4554 706.25 45.2819 707.977 45.2819C711.756 45.2819 714.958 45.6616 714.958 50.3416V60.5476L714.728 60.5736C712.111 60.8666 710.033 60.9052 708.253 60.9052H708.252ZM709.418 53.4843C706.57 53.4843 704.805 53.9026 704.805 55.9843C704.805 58.3937 707.056 58.5932 709.169 58.5932C709.957 58.5932 711.375 58.492 711.808 58.4611V53.5672C711.198 53.5412 709.61 53.4843 709.418 53.4843ZM661.485 60.9052C658.031 60.9052 654.837 60.298 654.837 55.9014C654.837 51.1164 659.777 51.1164 662.73 51.1164C663.024 51.1164 664.416 51.181 664.842 51.1993C664.839 48.5153 664.801 47.8753 660.901 47.8753C659.355 47.8753 657.638 48.1799 656.122 48.4516L655.832 48.5037V45.8534L656.032 45.8119C657.735 45.4605 659.469 45.2829 661.207 45.2819C664.985 45.2819 668.188 45.6616 668.188 50.3416V60.5476L667.957 60.5736C665.341 60.8666 663.262 60.9052 661.485 60.9052ZM662.647 53.4843C659.8 53.4843 658.039 53.9026 658.039 55.9843C658.039 58.3937 660.286 58.5932 662.399 58.5932C663.19 58.5932 664.609 58.492 665.042 58.4611V53.5672C664.427 53.5412 662.84 53.4843 662.648 53.4843" fill="#231F20"/>
<mask id="mask3_41:427" style="mask-type:alpha" maskUnits="userSpaceOnUse" x="716" y="44" width="16" height="24">
<path d="M716.715 44.3735H731.219V67.6768H716.715V44.3735Z" fill="white"/>
</mask>
<g mask="url(#mask3_41:427)">
<path d="M727.808 67.5099V60.9481C726.508 61.1306 725.818 61.1306 725.26 61.1306C723.939 61.1306 722.473 60.8422 721.338 60.3606C718.797 59.2974 717.281 56.5981 717.281 53.1347C717.281 51.4063 717.7 48.2458 720.501 46.5427C721.907 45.698 723.567 45.3368 726.063 45.3368C726.956 45.3368 728.162 45.4048 729.327 45.4727L731.22 45.5718V65.9893L727.808 67.5099ZM725.814 47.9769C722.428 47.9759 720.712 49.7139 720.712 53.1347C720.712 57.539 723.271 58.4643 725.424 58.4643C725.948 58.4643 726.537 58.4643 727.841 58.2973V48.072C726.819 48.004 726.347 47.9769 725.813 47.9769H725.814Z" fill="#231F20"/>
</g>
<mask id="mask4_41:427" style="mask-type:alpha" maskUnits="userSpaceOnUse" x="607" y="29" width="27" height="32">
<path d="M607.385 29H633.291V60.6401H607.385V29Z" fill="white"/>
</mask>
<g mask="url(#mask4_41:427)">
<path d="M620.829 29L609.874 59.0918C609.597 59.8479 608.913 60.3795 608.112 60.4607V60.4751H619.693C620.6 60.4751 621.376 59.8986 621.665 59.0928L632.624 29H620.829Z" fill="#0996C7"/>
</g>
<path d="M607.184 59.7625C607.857 59.7625 608.446 59.4255 608.807 58.9152C608.844 58.862 608.976 58.6761 609.069 58.4233L613.094 47.2764L610.739 40.7665C610.46 40.0952 609.841 39.6292 609.123 39.5492C608.405 39.4691 607.701 39.7876 607.282 40.3811C607.244 40.4344 607.087 40.6716 607.02 40.873L602.995 52.0161L605.36 58.5521C605.674 59.2864 606.391 59.7622 607.184 59.7625Z" fill="#0996C7"/>
<mask id="mask5_41:427" style="mask-type:alpha" maskUnits="userSpaceOnUse" x="582" y="38" width="27" height="33">
<path d="M582.358 38.6576H608.263V71H582.358V38.6576Z" fill="white"/>
</mask>
<g mask="url(#mask5_41:427)">
<path d="M607.945 39.5994H596.236C595.33 39.5994 594.553 40.1716 594.261 40.9793L583.306 70.9992H595.1L606.056 40.9803C606.347 40.1815 607.093 39.6373 607.945 39.6032V39.5994Z" fill="#0996C7"/>
</g>
<path d="M299.506 38L288.861 44.1525V56.4576L299.506 62.6101L310.151 56.4576V44.1525L299.506 38ZM299.506 38L288.861 44.1525V56.4576L299.506 62.6101L310.151 56.4576V44.1525L299.506 38Z" fill="white"/>
<path d="M303.709 57.8034H302.194L300.381 56.1371V55.2826L302.258 53.4881V50.6469L304.711 49.0446L307.506 51.1596L303.709 57.8034ZM297.437 53.3172L297.714 50.6469L296.797 48.2542H302.215L301.319 50.6469L301.575 53.3172H299.485H297.437ZM298.674 56.1371L296.861 57.8248H295.325L291.506 51.1596L294.322 49.066L296.797 50.6469V53.4881L298.674 55.2826V56.1371ZM295.303 43.3194H303.687L304.69 47.592H294.322L295.303 43.3194ZM299.506 38L288.861 44.1525V56.4576L299.506 62.6101L310.151 56.4576V44.1525L299.506 38Z" fill="#03316C"/>
<path d="M322.099 56.009C319.283 56.009 317.213 53.8086 317.213 51.0955C317.213 48.3824 319.304 46.1179 322.12 46.1179C323.912 46.1179 325.021 46.7802 325.896 47.7415L324.552 49.1942C323.891 48.4892 323.187 48.0192 322.099 48.0192C320.52 48.0192 319.368 49.3864 319.368 51.0528C319.368 52.7618 320.541 54.129 322.205 54.129C323.229 54.129 323.976 53.6377 324.659 52.9541L325.96 54.2572C325.021 55.2613 323.933 56.009 322.099 56.009Z" fill="#002E73"/>
<path d="M330.076 56.0089H327.9V46.1392H330.076V48.4464C330.674 47.0364 331.762 46.0538 333.426 46.1392V48.4464H333.298C331.399 48.4464 330.076 49.6854 330.076 52.2063V56.0089Z" fill="#002E73"/>
<path d="M344.796 46.0966L339.996 58.658H337.799L338.844 56.009L334.727 46.0966H337.052L339.847 53.424L342.535 46.0966H344.796Z" fill="#002E73"/>
<path d="M351.197 47.9979C349.725 47.9979 348.445 49.1942 348.445 51.0528C348.445 52.9113 349.746 54.1077 351.197 54.1077C352.69 54.1077 353.906 52.9327 353.906 51.0528C353.906 49.1728 352.669 47.9979 351.197 47.9979ZM351.688 55.9876C350.13 55.9876 349.149 55.1972 348.488 54.3213V58.658H346.312V46.0966H348.488V47.8697C349.192 46.887 350.173 46.0966 351.688 46.0966C353.928 46.0966 356.104 47.8697 356.104 51.0314C356.104 54.1931 353.949 55.9876 351.688 55.9876Z" fill="#002E73"/>
<path d="M360.86 48.1687V52.8258C360.86 53.659 361.287 54.0008 362.034 54.0008H362.887V55.9448H361.394C359.815 55.9448 358.684 55.2398 358.684 53.1676V48.1687H357.49V46.3101H358.684V43.7039H360.86V46.3101H362.887V48.1687H360.86Z" fill="#002E73"/>
<path d="M369.735 47.9979C367.986 47.9979 366.877 49.3651 366.877 51.0314C366.877 52.7191 368.071 54.1077 369.757 54.1077C371.506 54.1077 372.615 52.7404 372.615 51.0741C372.658 49.3865 371.442 47.9979 369.735 47.9979ZM369.735 56.009C366.855 56.009 364.722 53.8086 364.722 51.0955C364.722 48.361 366.877 46.1179 369.778 46.1179C372.679 46.1179 374.813 48.3183 374.813 51.0528C374.813 53.7445 372.679 56.009 369.735 56.009Z" fill="#002E73"/>
<path d="M395.57 47.9979C393.821 47.9979 392.711 49.3651 392.711 51.0314C392.711 52.7191 393.906 54.1077 395.591 54.1077C397.341 54.1077 398.45 52.7404 398.45 51.0741C398.471 49.3865 397.277 47.9979 395.57 47.9979ZM395.57 56.009C392.69 56.009 390.557 53.8086 390.557 51.0955C390.557 48.361 392.711 46.1179 395.613 46.1179C398.514 46.1179 400.647 48.3183 400.647 51.0528C400.647 53.7445 398.493 56.009 395.57 56.009Z" fill="#002E73"/>
<path d="M413.533 46.0966C415.602 46.0966 416.861 47.3997 416.861 49.7283V55.9876H414.685V50.3905C414.685 48.8737 413.981 48.0833 412.765 48.0833C411.591 48.0833 410.738 48.9165 410.738 50.4332V56.009H408.562V50.3905C408.562 48.9165 407.837 48.0833 406.642 48.0833C405.447 48.0833 404.615 48.9806 404.615 50.4546V56.009H402.439V46.1179H404.615V47.7415C405.234 46.9083 406.045 46.1179 407.495 46.1179C408.861 46.1179 409.799 46.7802 410.311 47.7842C411.101 46.7588 412.103 46.0966 413.533 46.0966Z" fill="#002E73"/>
<path d="M378.802 54.0008V55.1116L378.738 55.2184L377.778 55.7525H377.65L376.711 55.2184L376.647 55.1116V54.0008L376.711 53.8939L377.65 53.3599H377.778L378.738 53.8939L378.802 54.0008Z" fill="#002E73"/>
<path d="M385.394 55.9876C382.578 55.9235 380.552 53.6804 380.594 50.9673C380.637 48.2542 382.77 46.0325 385.608 46.0966C387.4 46.1393 388.509 46.8229 389.362 47.8056L387.997 49.2369C387.357 48.5319 386.653 48.0192 385.565 47.9979C383.986 47.9765 382.813 49.301 382.792 50.9887C382.749 52.6977 383.901 54.0863 385.565 54.1077C386.589 54.129 387.357 53.659 388.04 52.9754L389.32 54.2999C388.36 55.304 387.25 56.0303 385.394 55.9876Z" fill="#002E73"/>
<path d="M781.864 38L771.219 44.1525V56.4576L781.864 62.6101L792.509 56.4576V44.1525L781.864 38ZM781.864 38L771.219 44.1525V56.4576L781.864 62.6101L792.509 56.4576V44.1525L781.864 38Z" fill="white"/>
<path d="M786.067 57.8034H784.552L782.739 56.1371V55.2826L784.616 53.4881V50.6469L787.069 49.0446L789.864 51.1596L786.067 57.8034ZM779.795 53.3172L780.072 50.6469L779.155 48.2542H784.573L783.677 50.6469L783.933 53.3172H781.843H779.795ZM781.032 56.1371L779.219 57.8248H777.683L773.864 51.1596L776.68 49.066L779.155 50.6469V53.4881L781.032 55.2826V56.1371ZM777.661 43.3194H786.045L787.048 47.592H776.68L777.661 43.3194ZM781.864 38L771.219 44.1525V56.4576L781.864 62.6101L792.509 56.4576V44.1525L781.864 38Z" fill="#03316C"/>
<path d="M804.457 56.009C801.641 56.009 799.571 53.8086 799.571 51.0955C799.571 48.3824 801.662 46.1179 804.478 46.1179C806.27 46.1179 807.379 46.7802 808.254 47.7415L806.91 49.1942C806.249 48.4892 805.545 48.0192 804.457 48.0192C802.878 48.0192 801.726 49.3864 801.726 51.0528C801.726 52.7618 802.899 54.129 804.563 54.129C805.587 54.129 806.334 53.6377 807.017 52.9541L808.318 54.2572C807.379 55.2613 806.291 56.009 804.457 56.009Z" fill="#002E73"/>
<path d="M812.434 56.0089H810.258V46.1392H812.434V48.4464C813.032 47.0364 814.12 46.0538 815.784 46.1392V48.4464H815.656C813.757 48.4464 812.434 49.6854 812.434 52.2063V56.0089Z" fill="#002E73"/>
<path d="M827.154 46.0966L822.354 58.658H820.157L821.202 56.009L817.085 46.0966H819.41L822.205 53.424L824.893 46.0966H827.154Z" fill="#002E73"/>
<path d="M833.555 47.9979C832.083 47.9979 830.803 49.1942 830.803 51.0528C830.803 52.9113 832.104 54.1077 833.555 54.1077C835.048 54.1077 836.264 52.9327 836.264 51.0528C836.264 49.1728 835.027 47.9979 833.555 47.9979ZM834.045 55.9876C832.488 55.9876 831.507 55.1972 830.845 54.3213V58.658H828.669V46.0966H830.845V47.8697C831.549 46.887 832.531 46.0966 834.045 46.0966C836.285 46.0966 838.461 47.8697 838.461 51.0314C838.461 54.1931 836.307 55.9876 834.045 55.9876Z" fill="#002E73"/>
<path d="M843.218 48.1687V52.8258C843.218 53.659 843.645 54.0008 844.392 54.0008H845.245V55.9448H843.752C842.173 55.9448 841.042 55.2398 841.042 53.1676V48.1687H839.848V46.3101H841.042V43.7039H843.218V46.3101H845.245V48.1687H843.218Z" fill="#002E73"/>
<path d="M852.093 47.9979C850.344 47.9979 849.235 49.3651 849.235 51.0314C849.235 52.7191 850.429 54.1077 852.115 54.1077C853.864 54.1077 854.973 52.7404 854.973 51.0741C855.016 49.3865 853.8 47.9979 852.093 47.9979ZM852.093 56.009C849.213 56.009 847.08 53.8086 847.08 51.0955C847.08 48.361 849.235 46.1179 852.136 46.1179C855.037 46.1179 857.171 48.3183 857.171 51.0528C857.171 53.7445 855.037 56.009 852.093 56.009Z" fill="#002E73"/>
<path d="M877.928 47.9979C876.179 47.9979 875.069 49.3651 875.069 51.0314C875.069 52.7191 876.264 54.1077 877.949 54.1077C879.699 54.1077 880.808 52.7404 880.808 51.0741C880.829 49.3865 879.635 47.9979 877.928 47.9979ZM877.928 56.009C875.048 56.009 872.915 53.8086 872.915 51.0955C872.915 48.361 875.069 46.1179 877.971 46.1179C880.872 46.1179 883.005 48.3183 883.005 51.0528C883.005 53.7445 880.851 56.009 877.928 56.009Z" fill="#002E73"/>
<path d="M895.891 46.0966C897.96 46.0966 899.219 47.3997 899.219 49.7283V55.9876H897.043V50.3905C897.043 48.8737 896.339 48.0833 895.123 48.0833C893.949 48.0833 893.096 48.9165 893.096 50.4332V56.009H890.92V50.3905C890.92 48.9165 890.195 48.0833 889 48.0833C887.805 48.0833 886.973 48.9806 886.973 50.4546V56.009H884.797V46.1179H886.973V47.7415C887.592 46.9083 888.403 46.1179 889.853 46.1179C891.219 46.1179 892.157 46.7802 892.669 47.7842C893.459 46.7588 894.461 46.0966 895.891 46.0966Z" fill="#002E73"/>
<path d="M861.16 54.0008V55.1116L861.096 55.2184L860.136 55.7525H860.008L859.069 55.2184L859.005 55.1116V54.0008L859.069 53.8939L860.008 53.3599H860.136L861.096 53.8939L861.16 54.0008Z" fill="#002E73"/>
<path d="M867.752 55.9876C864.936 55.9235 862.91 53.6804 862.952 50.9673C862.995 48.2542 865.128 46.0325 867.966 46.0966C869.758 46.1393 870.867 46.8229 871.72 47.8056L870.355 49.2369C869.715 48.5319 869.011 48.0192 867.923 47.9979C866.344 47.9765 865.171 49.301 865.15 50.9887C865.107 52.6977 866.259 54.0863 867.923 54.1077C868.947 54.129 869.715 53.659 870.398 52.9754L871.678 54.2999C870.718 55.304 869.608 56.0303 867.752 55.9876Z" fill="#002E73"/>
<path d="M518.085 41.5893H517.317H516.777H516.712C514.907 41.5893 512.772 41.6856 510.269 41.5893H509.87C509.329 41.5893 508.183 41.4876 508.167 41.4876L507.367 41.4181C506.286 41.3271 505.173 41.188 503.989 40.9901L503.114 40.8403L502.638 40.7707C502.335 40.7118 501.06 40.4336 500.773 40.3641C500.487 40.2945 500.276 40.2464 500.022 40.1822C499.568 40.0698 499.109 39.9414 498.639 39.8076L497.99 39.615C497.552 39.492 497.109 39.3475 496.655 39.1977L495.844 38.9248C495.45 38.7911 495.055 38.6466 494.65 38.4968L503.562 32.0764L518.085 41.5893Z" fill="#C6EBF4"/>
<path d="M482.322 68.817C480.881 68.817 479.832 68.389 479.177 67.5329C478.521 66.6769 478.186 65.3268 478.171 63.4827V60.8076C478.171 58.9242 478.506 57.5599 479.177 56.7146C479.847 55.8692 480.917 55.4465 482.387 55.4465C483.314 55.3954 484.232 55.6494 484.997 56.1688C485.599 56.5675 485.984 57.2152 486.046 57.9291C486.058 57.9904 486.112 58.0348 486.176 58.0361H488.424C488.499 58.0361 488.559 57.9762 488.559 57.9023C488.55 56.8332 488.126 55.8084 487.375 55.0399C486.316 53.8628 484.608 53.2743 482.252 53.2743C480.068 53.2743 478.414 53.9056 477.29 55.1683C476.166 56.431 475.606 58.3143 475.609 60.8183V63.9964C475.609 66.3148 476.171 68.0608 477.296 69.2343C478.42 70.4078 480.075 70.9964 482.263 70.9999C484.9 70.9999 486.718 70.2616 487.716 68.7849C488.014 68.366 488.249 67.9064 488.413 67.4206C488.541 66.9294 488.604 66.4242 488.602 65.9171C488.602 65.8453 488.545 65.7862 488.473 65.7834H486.181C486.118 65.7846 486.064 65.8291 486.051 65.8904C485.7 67.6774 484.489 68.817 482.322 68.817Z" fill="#25314C"/>
<path d="M527.063 55.559C527.134 55.559 527.192 55.5015 527.192 55.4306V53.4028C527.194 53.3683 527.181 53.3348 527.156 53.3103C527.131 53.2859 527.098 53.2729 527.063 53.2744H523.279V49.1279C523.279 49.057 523.221 48.9995 523.15 48.9995L520.847 49.6951C520.776 49.6951 520.718 49.7525 520.718 49.8235V53.2744H518.204C518.133 53.2744 518.075 53.3319 518.075 53.4028V55.4306C518.075 55.5015 518.133 55.559 518.204 55.559H520.718V66.2597C520.718 67.7364 521.053 68.8171 521.723 69.502C522.393 70.1868 523.472 70.5364 524.96 70.5506H527.068C527.14 70.5506 527.198 70.4932 527.198 70.4222V68.4319C527.198 68.361 527.14 68.3035 527.068 68.3035H525.187C524.648 68.3623 524.112 68.1637 523.744 67.7685C523.402 67.2036 523.249 66.5465 523.306 65.8905V55.559H527.063Z" fill="#25314C"/>
<path d="M503.996 57.8916C503.984 57.6721 503.946 57.4548 503.882 57.2442C503.658 56.4833 503.277 55.7766 502.763 55.1683C501.639 53.9056 499.985 53.2743 497.802 53.2743C495.446 53.2743 493.736 53.8628 492.673 55.0399C491.954 55.8143 491.566 56.8347 491.592 57.8863C491.592 57.9601 491.652 58.02 491.727 58.02H493.975C494.04 58.0183 494.095 57.9711 494.105 57.9077C494.135 57.2031 494.495 56.5526 495.078 56.1474C495.846 55.6291 496.765 55.3753 497.694 55.4251C499.164 55.4251 500.234 55.8478 500.904 56.6932C501.213 57.0953 501.4 57.5757 501.445 58.0789C501.445 58.2554 501.445 58.4374 501.445 58.6139V60.5079C500.775 60.4223 500.104 60.3581 499.434 60.3153C498.764 60.2725 498.213 60.2511 497.78 60.2511C495.42 60.2511 493.689 60.6899 492.586 61.5673C491.484 62.4448 490.933 63.8376 490.933 65.7459C490.933 67.5294 491.457 68.8295 492.505 69.6463C493.43 70.3525 495.37 70.7164 497.326 70.8234C497.842 70.8456 498.359 70.8278 498.872 70.7699C500.521 70.6283 502.146 70.2851 503.709 69.748C503.88 69.6976 504 69.5447 504.007 69.3681V58.5711C504.023 58.325 504.012 58.0949 503.996 57.8916ZM495.029 68.2338C494.462 68.0466 494.009 67.6191 493.792 67.0674C493.638 66.6402 493.565 66.1886 493.576 65.7352C493.576 64.5332 493.894 63.6753 494.532 63.1617C495.17 62.6481 496.323 62.3913 497.991 62.3913C498.353 62.3913 500.51 62.5732 501.315 62.6641C501.398 62.6724 501.461 62.7419 501.461 62.8246V67.8539C501.461 67.9257 501.416 67.9898 501.347 68.0145C499.323 68.7718 497.103 68.8489 495.029 68.2338Z" fill="#25314C"/>
<path d="M542.325 57.8918C542.308 57.6791 542.267 57.4691 542.201 57.2658C541.977 56.5049 541.596 55.7982 541.082 55.1899C539.958 53.9272 538.304 53.2959 536.121 53.2959C533.757 53.2959 532.047 53.8844 530.992 55.0615C530.273 55.8359 529.885 56.8563 529.911 57.9079C529.911 57.9818 529.971 58.0416 530.046 58.0416H532.294C532.359 58.0399 532.413 57.9927 532.424 57.9293C532.454 57.2247 532.814 56.5742 533.397 56.169C534.165 55.6499 535.084 55.3961 536.013 55.4467C537.483 55.4467 538.553 55.8694 539.223 56.7148C539.534 57.1156 539.722 57.5967 539.763 58.1005C539.763 58.2771 539.79 58.459 539.79 58.6355V60.5295C539.12 60.4439 538.45 60.3797 537.78 60.3369C537.11 60.2941 536.553 60.2727 536.121 60.2727C533.764 60.2727 532.035 60.7115 530.932 61.5889C529.83 62.4664 529.28 63.8592 529.284 65.7675C529.284 67.551 529.808 68.8511 530.856 69.6679C531.781 70.3742 533.721 70.738 535.677 70.845C536.193 70.8672 536.71 70.8494 537.223 70.7915C538.872 70.6499 540.497 70.3067 542.06 69.7696C542.232 69.7192 542.351 69.5663 542.358 69.3897V58.5713C542.352 58.3252 542.341 58.0951 542.325 57.8918ZM533.359 68.234C532.792 68.0468 532.338 67.6193 532.121 67.0676C531.967 66.6404 531.894 66.1889 531.905 65.7354C531.905 64.5334 532.224 63.6755 532.862 63.1619C533.499 62.6483 534.652 62.3915 536.321 62.3915C536.683 62.3915 538.839 62.5734 539.645 62.6643C539.727 62.6749 539.788 62.743 539.79 62.8248V67.8541C539.787 67.925 539.743 67.9876 539.677 68.0147C537.652 68.772 535.432 68.8491 533.359 68.234Z" fill="#25314C"/>
<path d="M515.891 55.7517C515.957 55.7489 516.01 55.6946 516.01 55.6287V55.5324V53.3976C516.01 52.9696 513.042 53.6276 512.767 53.7133C511.506 53.9951 510.432 54.8081 509.827 55.939V53.9112C509.827 53.8743 509.812 53.8389 509.785 53.8128C509.759 53.7868 509.723 53.7721 509.686 53.7721H507.454C507.376 53.7721 507.313 53.8344 507.313 53.9112V70.4223C507.313 70.5001 507.376 70.5639 507.454 70.5668H509.756C509.835 70.5639 509.897 70.5001 509.897 70.4223V61.1716C509.873 60.0847 510.094 59.0061 510.545 58.0149C511.124 56.7358 512.375 55.8832 513.788 55.8052C514.288 55.743 514.792 55.7126 515.296 55.7143L515.891 55.7517Z" fill="#25314C"/>
<path d="M516.804 42.6005C482.322 53.0765 456.861 42.6005 456.861 42.6005L475.831 29C483.03 34.2273 489.289 37.4696 494.65 39.4706C495.056 39.6204 495.45 39.7649 495.845 39.8986L496.656 40.1715C497.11 40.3213 497.553 40.4658 497.991 40.5888L498.639 40.7814C499.109 40.9152 499.569 41.0436 500.023 41.1559C500.277 41.2202 500.525 41.2844 500.774 41.3379C501.023 41.3914 502.974 41.8087 503.141 41.8408L504.017 41.9906C505.2 42.1886 506.325 42.3277 507.395 42.4186L508.195 42.4882C508.195 42.4882 509.357 42.5684 509.897 42.5898H510.297C512.799 42.6808 514.934 42.5898 516.739 42.5898L516.804 42.6005Z" fill="#1B98ED"/>
</svg>
