<svg xmlns="http://www.w3.org/2000/svg" width="132" height="40" viewBox="0 0 132 40">
  <path fill="#474F53" d="m46.056 24.874 2.764-1.56c.645 1.652 1.934 2.753 4.237 2.753 2.165 0 2.948-.918 2.948-1.881 0-1.332-1.244-1.837-3.961-2.617-2.81-.78-5.527-1.974-5.527-5.37 0-3.397 2.902-5.37 6.034-5.37 2.993 0 5.342 1.514 6.54 4.038l-3.04 1.745c-.645-1.377-1.658-2.295-3.5-2.295-1.52 0-2.395.78-2.395 1.79 0 1.102.69 1.698 3.5 2.524 2.901.918 5.987 1.837 5.987 5.509 0 3.35-2.763 5.416-6.678 5.416-3.592 0-5.987-1.607-7.047-4.085-.184-.23-.092-.505.139-.597Zm28.879-2.295c0 3.901-2.902 6.885-6.402 6.885-1.934 0-3.316-.689-4.237-1.928v6.748h-3.362V16.52c0-.276.184-.46.46-.46h2.58l.368 1.561c.921-1.193 2.349-1.928 4.237-1.928 3.454 0 6.356 2.984 6.356 6.886Zm-3.408 0c0-2.158-1.566-3.627-3.639-3.627-2.072 0-3.638 1.47-3.638 3.627s1.566 3.626 3.638 3.626c2.119 0 3.639-1.469 3.639-3.626Zm4.192-.091c0-3.902 3.086-6.931 6.908-6.931 3.87 0 6.955 3.03 6.955 6.93 0 3.903-3.086 6.932-6.955 6.932-3.822-.046-6.908-3.03-6.908-6.931Zm10.547 0c0-2.112-1.566-3.626-3.639-3.626-2.026 0-3.638 1.514-3.638 3.626 0 2.111 1.566 3.626 3.638 3.626 2.073 0 3.639-1.515 3.639-3.626Zm8.981 2.202v-5.417l1.98-.321c.093-1.01.277-2.02.553-2.938h-2.533v-3.672l-3.04.918c-.184.046-.322.23-.322.459v2.295h-1.842c-.277 0-.461.184-.461.459v2.754h2.257v5.416c0 3.535 1.612 4.912 6.356 4.407v-3.075c-1.935.183-2.948.137-2.948-1.286Z"/>
  <path fill="#191919" d="M99.254 20.008c0-5.371 4.237-9.502 9.534-9.502 5.296 0 9.534 4.131 9.534 9.502 0 5.324-4.238 9.501-9.534 9.501-5.297 0-9.534-4.177-9.534-9.502Zm15.429 0c0-3.489-2.579-5.922-5.941-5.922-3.316 0-5.942 2.433-5.942 5.921 0 3.443 2.58 5.876 5.942 5.876s5.941-2.433 5.941-5.875Zm17.316 1.102v8.033h-3.362v-7.62c0-1.79-1.059-2.708-2.579-2.708-1.658 0-2.902.964-2.902 3.259v7.069h-3.408V16.52c0-.276.184-.46.461-.46h2.579l.368 1.47c.783-1.194 2.165-1.837 3.915-1.837 2.764 0 4.928 1.928 4.928 5.417Z"/>
  <path fill="#164A59" d="M19.574.5C8.751.5 0 8.992 0 20.008c0 11.063 8.75 19.509 19.574 19.509 10.824 0 19.575-8.492 19.575-19.509C39.195 8.992 30.398.5 19.574.5Zm0 28.918c-5.204 0-9.395-4.085-9.395-9.364 0-5.324 4.19-9.364 9.395-9.364 5.205-.046 9.442 4.04 9.442 9.318 0 5.325-4.237 9.41-9.442 9.41Z"/>
</svg>
