<?xml version="1.0" encoding="UTF-8"?>
<svg width="138px" height="34px" viewBox="0 0 400 140" version="1.1" xmlns="http://www.w3.org/2000/svg" xmlns:xlink="http://www.w3.org/1999/xlink">
    <title>Artboard</title>
    <defs>
        <polygon id="path-1" points="0 0 352 0 352 80 0 80"></polygon>
    </defs>
    <g id="Artboard" stroke="none" stroke-width="1" fill="none" fill-rule="evenodd">
        <g id="logo-blue" transform="translate(24.000000, 30.000000)">
            <mask id="mask-2" fill="white">
                <use xlink:href="#path-1"></use>
            </mask>
            <g id="path-1"></g>
            <path d="M217.741519,25.0329298 L217.731133,25.0266026 C217.731133,25.0266026 217.725938,25.0225763 217.719015,25.0225763 C217.48013,24.9184666 217.218167,24.8643986 216.966012,24.8643986 C216.558063,24.8672744 216.166848,24.98864 215.825255,25.201461 C215.477316,25.4211843 215.183037,25.7415662 215.013973,26.142475 L215.013973,26.1522533 L207.048294,47.8847315 L200.908864,33.3179949 L200.899631,33.3116678 C200.727104,32.9044318 200.417825,32.5898019 200.067,32.3706538 C199.712714,32.1509304 199.304188,32.03014 198.874313,32.03014 C198.456554,32.03014 198.06707,32.1607086 197.72317,32.3735296 C197.384462,32.5926778 197.078645,32.9044318 196.906694,33.3116678 L196.902655,33.3179949 L190.751109,47.8939346 L182.74273,26.1712347 L182.736382,26.1712347 C182.596745,25.7513445 182.312277,25.4240603 181.974147,25.2077882 C181.630247,24.98864 181.228068,24.8672744 180.813195,24.8643986 C180.548922,24.8643986 180.281187,24.9184666 180.028456,25.0225763 L180.016338,25.0225763 L180.007107,25.0329298 C179.260451,25.3797706 178.804609,26.1234938 178.801723,26.9339392 C178.801723,27.1887493 178.852501,27.442409 178.950593,27.6937678 L178.948286,27.6937678 L188.799069,54.0617181 L188.799069,54.0709211 C188.875812,54.2676368 188.983715,54.4620517 189.143547,54.6530155 C189.258373,54.789336 189.428015,54.9043744 189.60285,54.9998562 C189.635163,55.0309166 189.685941,55.0752064 189.762106,55.1229474 C189.844618,55.1741394 189.95079,55.2098013 190.058691,55.2282074 C190.234103,55.2863018 190.467218,55.370855 190.779382,55.370855 C191.178098,55.370855 191.547964,55.2282074 191.879748,55.0153864 C192.189604,54.8088925 192.466571,54.5000144 192.61948,54.0996808 L192.644868,54.0806995 L198.874313,39.2367203 L205.111835,54.0203043 L205.118181,54.0203043 C205.261858,54.4143107 205.514591,54.723189 205.807136,54.942337 C206.116993,55.1741394 206.463779,55.3173622 206.831336,55.370855 L207.092723,55.370855 C207.341994,55.370855 207.583762,55.3236893 207.787449,55.2443128 C208.001521,55.1620603 208.174048,55.0533491 208.317148,54.9457882 C208.651816,54.6909781 208.910318,54.3412614 209.070151,53.9530069 L209.070151,53.9443789 L218.858041,27.6937678 C218.953824,27.442409 219.004025,27.1916253 219.004025,26.9379656 C219.001717,26.133272 218.525681,25.3671163 217.741519,25.0329298 L217.741519,25.0329298 Z M172.709609,40.0862789 C172.709609,36.9900205 171.51692,34.1853843 169.619698,32.1607086 C167.71209,30.1320066 165.128798,28.8918926 162.322779,28.8918926 C159.515605,28.8918926 156.926544,30.1320066 155.022397,32.1607086 C153.121135,34.1853843 151.928447,36.9900205 151.928447,40.0862789 C151.928447,43.1796613 153.121135,45.9578384 155.022397,47.96986 C156.926544,49.989359 159.515605,51.2099163 162.322779,51.2099163 C165.128798,51.2099163 167.721322,49.989359 169.619698,47.96986 C171.51692,45.9578384 172.709609,43.1796613 172.709609,40.0862789 L172.709609,40.0862789 Z M172.65537,29.3370912 C175.290016,32.1221707 176.890652,35.9437462 176.897001,40.0862789 C176.890652,44.2288114 175.290016,48.0463605 172.65537,50.8320152 C170.040919,53.6130683 166.388998,55.3714302 162.329125,55.3714302 C158.300414,55.3714302 154.642721,53.6130683 152.018461,50.8320152 C149.390162,48.0463605 147.76356,44.2288114 147.76356,40.0862789 C147.76356,35.9437462 149.390162,32.1221707 152.018461,29.3370912 C154.642721,26.5583389 158.300414,24.8005522 162.329125,24.8005522 C166.388998,24.8005522 170.040919,26.5583389 172.65537,29.3370912 L172.65537,29.3370912 Z M131.179598,24.8546202 C127.913699,24.8546202 124.932267,26.1234938 122.706146,28.1481694 L122.706146,26.9379656 C122.702684,26.3811797 122.495536,25.8623566 122.13144,25.4810043 C121.778308,25.1059792 121.254379,24.8546202 120.680827,24.8546202 C120.087079,24.8546202 119.55161,25.0927498 119.178859,25.4775531 C118.811878,25.8560294 118.592036,26.3811797 118.592036,26.9379656 L118.592036,53.9190706 L118.678011,54.0041989 L118.681473,54.0174283 C118.703977,54.106583 118.760524,54.204941 118.821111,54.2998475 C119.105002,54.7991142 119.570652,55.1775906 120.147666,55.3455466 L120.230756,55.3714302 L120.680827,55.3714302 C120.980874,55.3714302 121.28323,55.308159 121.570583,55.1741394 C121.810044,55.0596762 122.032771,54.8756147 122.211645,54.6403613 L122.217993,54.6432371 C122.239919,54.6213798 122.246843,54.5926203 122.272232,54.570763 C122.282041,54.5673118 122.291273,54.5575336 122.29762,54.5477554 C122.408984,54.4051077 122.501883,54.259009 122.559585,54.1221133 C122.620171,53.9599091 122.658254,53.806908 122.687105,53.689569 L122.706146,53.6130683 L122.706146,37.4122114 C122.766733,35.0947629 123.723422,32.9999138 125.257703,31.4768054 C126.781597,29.9548475 128.870388,29.0132582 131.179598,29.0132582 C133.527468,29.0132582 135.622029,29.9548475 137.140154,31.4768054 C138.664625,32.9941618 139.589578,35.0855598 139.589578,37.3903541 L139.589578,53.2990136 C139.589578,53.8799574 139.838271,54.4177619 140.215061,54.78646 C140.600507,55.1545829 141.126744,55.3714302 141.675484,55.3714302 C142.233457,55.3714302 142.756809,55.1545829 143.139369,54.78646 C143.528276,54.4177619 143.764275,53.8799574 143.764275,53.2990136 L143.764275,37.3903541 C143.764275,30.5237123 138.138388,24.8643986 131.179598,24.8546202 L131.179598,24.8546202 Z M336.766251,37.135544 C335.57991,32.338443 331.353859,28.9206523 326.532329,28.9303887 C321.588472,28.9303887 317.4207,32.2751718 316.129342,37.135544 L336.766251,37.135544 Z M341.335625,39.100975 L341.335625,39.3068938 C341.335625,39.8826608 341.077699,40.4009088 340.685907,40.7414224 C340.296423,41.0842368 339.789805,41.2625464 339.24395,41.2688734 L315.839104,41.2688734 C316.43516,46.9621237 320.994725,51.1662018 326.439431,51.2099163 L327.820224,51.2099163 C329.621662,51.2162434 331.376363,50.5961866 332.919874,49.5694688 C334.466272,48.5525294 335.802637,47.1312301 336.743747,45.5667078 C336.937625,45.2330966 337.216322,44.9788618 337.5181,44.8229846 C337.827957,44.6544534 338.159739,44.577953 338.494408,44.577953 C338.864274,44.577953 339.231255,44.6734347 339.553229,44.8672744 L339.575732,44.8770528 L339.601121,44.8960341 C340.187945,45.3251272 340.555502,45.9802709 340.555502,46.699261 C340.555502,47.0645078 340.459718,47.436657 340.25834,47.7731443 L340.251993,47.7863738 L340.245646,47.7921256 C338.937555,49.8656926 337.154582,51.7569238 335.037517,53.1276064 C332.916414,54.5005896 330.457756,55.3714302 327.820224,55.3714302 L326.416927,55.3714302 C322.30974,55.3426706 318.597232,53.6130683 315.92104,50.8475454 C313.251197,48.0912254 311.606706,44.3047368 311.606706,40.1437981 C311.606706,35.9121107 313.265045,32.0715539 315.956816,29.2928014 C318.648586,26.5175002 322.388791,24.8005522 326.532329,24.8005522 C330.486607,24.8005522 334.039283,26.3679502 336.670466,28.9338818 C339.301651,31.4992379 341.020576,35.0625522 341.32697,39.0716402 L341.335625,39.100975 Z M245.330869,12.2429611 C244.76078,12.2429611 244.237428,12.4816658 243.861792,12.8566909 C243.484425,13.2288401 243.246117,13.7534152 243.246117,14.3222801 L243.246117,53.2990136 C243.246117,53.8678784 243.484425,54.3890024 243.861792,54.7582755 C244.237428,55.1263984 244.76078,55.3714302 245.330869,55.3714302 C246.514326,55.3714302 247.471014,54.4430704 247.477939,53.2990136 L247.477939,14.3222801 C247.471014,13.1747721 246.514326,12.2429611 245.330869,12.2429611 L245.330869,12.2429611 Z M108.941476,39.3419803 C107.257172,38.5505163 105.346678,37.9655461 103.440224,37.3362859 C101.686101,36.7449886 99.9060122,36.2422709 98.6365813,35.5813754 C97.9989808,35.2408616 97.5015946,34.8819419 97.1796209,34.4781571 C96.8507228,34.0749475 96.6914669,33.6642605 96.6816576,33.1045987 C96.6851198,32.338443 96.9084241,31.7218371 97.2846374,31.1748296 C97.8553043,30.358057 98.8119935,29.7218947 99.8581201,29.3112077 C100.891552,28.8993702 102.01096,28.7049554 102.811278,28.7049554 C105.177613,28.7084064 106.67381,29.4935435 107.822068,30.306865 C108.389273,30.717552 108.868195,31.1334158 109.321151,31.4768054 C109.553688,31.6551149 109.770645,31.817319 110.0228,31.9375342 C110.261107,32.0554485 110.542113,32.1509304 110.848507,32.1509304 C111.042961,32.1509304 111.237992,32.1158437 111.415712,32.0399184 C111.603819,31.963993 111.767114,31.8552818 111.923484,31.7218371 C112.076393,31.5791896 112.207375,31.4072072 112.299698,31.2162434 C112.382788,31.0189526 112.42087,30.8159098 112.42087,30.615743 C112.42087,30.2464698 112.302583,29.9002042 112.133518,29.5752208 C111.817891,29.00348 111.332622,28.4570475 110.71464,27.91004 C109.796033,27.0961434 108.584304,26.3202094 107.279675,25.7358144 C105.971584,25.1508442 104.568863,24.7528112 103.232498,24.7528112 C100.135664,24.7528112 97.5494869,25.4522446 95.670729,26.7406747 C94.6915362,27.4142245 93.8306311,28.1516206 93.2218813,29.1691352 C92.6027452,30.1895258 92.2582678,31.448621 92.2138376,33.0856173 C92.2108372,33.1586667 92.2108372,33.2317162 92.2108372,33.3047654 C92.2046054,34.8945962 92.7175709,36.2048834 93.5242367,37.2310259 C94.7492374,38.7765667 96.5674088,39.7014754 98.3503824,40.356619 C100.129894,41.0111875 101.908828,41.4023181 103.031697,41.7773432 C104.613293,42.3019182 106.294135,42.8707832 107.518559,43.6242846 C108.128463,44.009088 108.622387,44.422651 108.957632,44.8770528 C109.283068,45.3446838 109.467135,45.8272699 109.47406,46.4381237 L109.47406,46.4829886 C109.470598,47.3664835 109.209787,48.0595899 108.778758,48.6537632 C108.128463,49.5378333 107.047138,50.1860746 105.898303,50.5961866 C104.754085,50.9970954 103.564281,51.1662018 102.798584,51.1662018 C100.097581,51.1662018 98.2897959,50.5168101 96.97882,49.8656926 C96.3216009,49.5378333 95.7890169,49.213425 95.3072101,48.9396336 C95.0683263,48.8096402 94.8450218,48.6888499 94.609023,48.593368 C94.3793714,48.4984614 94.1341405,48.4369158 93.8565968,48.4369158 C93.6875317,48.4369158 93.5028871,48.4662506 93.333245,48.5323978 C93.1612948,48.6060222 93.0049239,48.7078312 92.8739417,48.8314976 C92.6921824,49.0075062 92.5329265,49.2036467 92.4215628,49.4296971 C92.313084,49.6557477 92.2582678,49.8938771 92.2582678,50.1417848 C92.2582678,50.5490208 92.4111765,50.9211699 92.6287108,51.2576573 C92.9697261,51.7436944 93.4705743,52.1796899 94.0954806,52.6151102 C94.7394283,53.0442035 95.508588,53.4675448 96.3948817,53.8839838 C98.3596146,54.8088925 100.878858,55.2920538 102.792814,55.3236893 L102.798584,55.3236893 C105.774822,55.3236893 108.344843,54.6403613 110.510377,53.0511058 L110.510377,53.0470795 L110.513262,53.0470795 C112.630904,51.457824 113.948227,49.0955107 113.948227,46.4283454 C113.948227,44.9627563 113.603749,43.7197666 113.001347,42.702827 C112.09255,41.1607374 110.615394,40.1437981 108.941476,39.3419803 L108.941476,39.3419803 Z M276.78333,40.0862789 C276.78333,36.9606856 275.599874,34.160076 273.708998,32.1388514 C271.820432,30.1228035 269.227908,28.8993702 266.39246,28.8924678 C263.579517,28.8924678 260.996801,30.1228035 259.089193,32.1388514 C257.195433,34.160076 255.996398,36.9606856 255.996398,40.0862789 C255.996398,43.2084208 257.195433,45.9906243 259.089193,47.9957435 C260.986992,50.0020131 263.579517,51.2099163 266.39246,51.2099163 C269.234255,51.2099163 271.826778,50.0020131 273.715347,48.0026459 C275.599874,45.9906243 276.78333,43.2112968 276.78333,40.0862789 L276.78333,40.0862789 Z M280.329658,25.3797706 C280.71568,25.7513445 280.954565,26.289149 280.954565,26.870093 L280.954565,53.2990136 C280.954565,53.8678784 280.70991,54.3890024 280.34293,54.7582755 C279.965561,55.1263984 279.44625,55.3714302 278.87212,55.3714302 C278.298568,55.3714302 277.771755,55.1263984 277.401889,54.7582755 C277.025676,54.3890024 276.78333,53.8678784 276.78333,53.2990136 L276.78333,50.720428 C274.157915,53.5469213 270.47195,55.3714302 266.39246,55.3714302 C262.33259,55.3714302 258.677782,53.632625 256.059292,50.8475454 C253.432146,48.0756954 251.824587,44.2569958 251.824587,40.0862789 C251.824587,35.9155618 253.432146,32.0934112 256.059292,29.3186851 C258.677782,26.5364816 262.33259,24.8005522 266.39246,24.8005522 C270.469064,24.8005522 274.157915,26.5721435 276.78333,29.3848322 L276.78333,26.870093 C276.78333,26.289149 277.02279,25.7513445 277.408235,25.3797706 C277.794259,25.0139485 278.314149,24.8005522 278.87212,24.8005522 C279.423746,24.8005522 279.950559,25.0139485 280.329658,25.3797706 L280.329658,25.3797706 Z M309.77584,28.0595899 C310.190713,27.6494781 310.416326,27.1053464 310.416326,26.5652411 C310.416326,26.034339 310.190713,25.5028616 309.772378,25.1180582 L309.77584,25.1180582 C309.772378,25.1059792 309.762569,25.1059792 309.762569,25.1059792 C309.760261,25.0962008 309.753336,25.0927498 309.753336,25.0927498 L309.74699,25.0927498 C309.345388,24.6987432 308.828383,24.482471 308.2958,24.482471 C307.756868,24.482471 307.231209,24.7062206 306.829029,25.1059792 L290.522612,40.9479163 L290.522612,14.3222801 C290.522612,13.1747721 289.558999,12.2429611 288.375542,12.2429611 C287.805453,12.2429611 287.282678,12.4816658 286.909349,12.8566909 C286.538907,13.2288401 286.290214,13.7534152 286.290214,14.3222801 L286.290214,53.2990136 C286.290214,53.8678784 286.538907,54.3890024 286.909349,54.7582755 C287.282678,55.1263984 287.805453,55.3714302 288.375542,55.3714302 C289.558999,55.3714302 290.522612,54.4430704 290.522612,53.2990136 L290.522612,46.867217 L295.832295,41.5806275 L306.657079,54.5989474 C306.860766,54.8980472 307.138885,55.1039659 307.41239,55.2126773 C307.725132,55.3305917 308.028641,55.3714302 308.298684,55.3714302 C308.672013,55.3714302 309.198826,55.2920538 309.661591,54.9296829 L309.686981,54.9141526 L309.714676,54.8848178 C310.148014,54.4591758 310.393822,53.8931869 310.393822,53.3145437 C310.393822,52.8279314 310.213217,52.3321158 309.877971,51.9352334 L309.877971,51.9289062 L298.859311,38.5758246 L309.766031,28.0595899 L309.77584,28.0595899 Z M236.727012,12.335567 L236.261363,12.335567 C236.200199,12.335567 236.140189,12.3418941 236.07614,12.3441949 C236.019016,12.3418941 235.957853,12.335567 235.897843,12.335567 C234.695345,12.335567 233.528047,12.4718875 232.436912,12.8342584 C231.361935,13.1903023 230.370625,13.7787236 229.602043,14.6719968 L229.599158,14.6685456 L229.596273,14.6719968 L229.596273,14.6748727 C228.801725,15.5554916 228.278373,16.608093 227.959861,17.8039171 C227.640771,19.0054931 227.509789,20.359495 227.497096,21.8981334 L227.497096,24.8776278 L224.202344,24.8776278 C223.058127,24.883955 222.149081,25.7962094 222.149081,26.8994277 C222.142982,27.493601 222.374942,28.0406086 222.751731,28.4351902 C223.131407,28.8228696 223.65072,29.0771045 224.227734,29.10874 L227.497096,29.10874 L227.497096,53.3496304 L227.493634,53.4065744 C227.493634,53.9754394 227.733095,54.5000144 228.119117,54.8756147 C228.5011,55.2443128 229.037724,55.463461 229.621662,55.463461 C230.731259,55.457709 231.642942,54.5546576 231.646403,53.4065744 L231.646403,29.10874 L235.18927,29.10874 C235.760515,29.0771045 236.286751,28.8383998 236.663541,28.4535963 C237.048986,28.0693682 237.284985,27.5292629 237.284985,26.9437174 L237.284985,26.8649162 C237.272292,25.773777 236.356569,24.8776278 235.211774,24.8776278 L231.646403,24.8776278 L231.646403,21.9107877 C231.668907,20.5981997 231.805659,19.6157718 232.003575,18.9008082 C232.194567,18.1818182 232.456532,17.7302925 232.691953,17.4507491 C232.922181,17.2028414 233.221651,16.9957723 233.709806,16.8301171 C234.200845,16.6719392 234.879991,16.5701302 235.799175,16.5701302 L235.907076,16.5701302 C235.961314,16.5701302 236.019016,16.560352 236.069794,16.560352 C236.133842,16.560352 236.193852,16.5701302 236.261363,16.5701302 L236.529096,16.5701302 L236.727012,16.5701302 C237.902968,16.5701302 238.851001,15.6227891 238.851001,14.4522735 C238.851001,13.2829082 237.902968,12.335567 236.727012,12.335567 L236.727012,12.335567 Z M26.6754251,41.4621381 C26.8444902,40.9312358 26.9148859,40.3842283 26.9021917,39.844123 C26.8825731,39.4529925 26.8317958,39.0624371 26.7204321,38.6713066 C26.385187,37.4570763 25.5912156,36.3722643 24.4014126,35.688361 L7.47932084,25.9480602 C5.09048258,24.5773778 2.04500229,25.3924248 0.674016845,27.7702683 C-0.710239919,30.1446608 0.106234996,33.1770728 2.49507326,34.5512064 L11.9511799,40.002876 L2.49507326,45.4395904 C0.106234996,46.8160248 -0.707354849,49.8490122 0.674016845,52.2331829 C2.04500229,54.6046994 5.09048258,55.41572 7.47932084,54.0450376 L24.4014126,44.2984096 C25.5433235,43.6432659 26.3182534,42.6159731 26.6754251,41.4621381 L26.6754251,41.4621381 Z M31.2678801,50.5898594 C30.2956114,50.5070317 29.2846827,50.7106498 28.3753086,51.238676 L11.4405225,60.9726496 C9.05803135,62.346208 8.24444151,65.3947254 9.61946604,67.7731443 C11.0008377,70.145236 14.043433,70.9620086 16.422462,69.582123 L25.9103044,64.1264272 L25.9103044,75.0280406 C25.9103044,77.7745822 28.1393098,80 30.8980141,80 C33.6434471,80 35.8793766,77.7745822 35.8793766,75.0280406 L35.8793766,55.5393862 C35.8793766,52.9228381 33.8448249,50.7739208 31.2678801,50.5898594 L31.2678801,50.5898594 Z M48.610615,29.4095654 C49.5799988,29.4895171 50.5880424,29.2830232 51.4974165,28.7613242 L68.4287405,19.0181474 C70.8146938,17.6440138 71.6242445,14.6081505 70.2526821,12.2234046 C68.8782344,9.8495873 65.8327542,9.03511547 63.450263,10.4080987 L53.9687679,15.8701216 L53.9687679,4.96505709 C53.9687679,2.22599293 51.7397625,0 48.9810582,0 C46.2223539,0 43.9991186,2.22599293 43.9991186,4.96505709 L43.9991186,24.4537114 C43.9991186,27.0673837 46.0279001,29.2197522 48.610615,29.4095654 L48.610615,29.4095654 Z M11.4405225,19.0181474 L28.3753086,28.7613242 C29.2846827,29.2830232 30.2956114,29.4895171 31.2678801,29.4095654 C33.8448249,29.2197522 35.8793766,27.0673837 35.8793766,24.4537114 L35.8793766,4.96505709 C35.8793766,2.22599293 33.6434471,0 30.8980141,0 C28.1393098,0 25.9103044,2.22599293 25.9103044,4.96505709 L25.9103044,15.8701216 L16.422462,10.4080987 C14.043433,9.03511547 11.0008377,9.8495873 9.61946604,12.2234046 C8.24444151,14.6081505 9.05803135,17.6440138 11.4405225,19.0181474 L11.4405225,19.0181474 Z M43.2657337,39.9620373 C43.2657337,39.6790429 43.0937836,39.2844613 42.8929827,39.0750914 L40.854969,37.0527163 C40.6541681,36.8531248 40.2583364,36.6874694 39.9738684,36.6874694 L39.8948175,36.6874694 C39.6109266,36.6874694 39.2156719,36.8531248 39.0177561,37.0527163 L36.9797424,39.0750914 C36.7754794,39.2844613 36.6191086,39.6790429 36.6191086,39.9620373 L36.6191086,40.0414138 C36.6191086,40.3209571 36.7754794,40.7120877 36.9797424,40.9157056 L39.0177561,42.9438325 C39.218557,43.1439994 39.6109266,43.3090794 39.8948175,43.3090794 L39.9738684,43.3090794 C40.2583364,43.3090794 40.6541681,43.1439994 40.854969,42.9438325 L42.8929827,40.9157056 C43.0937836,40.7120877 43.2657337,40.3209571 43.2657337,40.0414138 L43.2657337,39.9620373 Z M48.891621,41.9073366 L41.8532033,48.9149003 C41.6518253,49.120819 41.2629179,49.2893504 40.9697947,49.2893504 L40.4591373,49.2893504 L39.4193579,49.2893504 L38.9000453,49.2893504 C38.6155773,49.2893504 38.2203226,49.120819 38.0160596,48.9149003 L30.9811041,41.9073366 C30.7797262,41.7100458 30.6170082,41.3131634 30.6170082,41.0330448 L30.6170082,40.5147968 L30.6170082,39.478301 L30.6170082,38.9669552 C30.6170082,38.6805096 30.7797262,38.283052 30.9811041,38.0828851 L38.0160596,31.0758966 C38.2203226,30.8694027 38.6155773,30.7071986 38.9000453,30.7071986 L39.4193579,30.7071986 L40.4591373,30.7071986 L40.9697947,30.7071986 C41.2565708,30.7071986 41.6518253,30.8694027 41.8532033,31.0758966 L48.891621,38.0828851 C49.0924219,38.283052 49.2551398,38.6805096 49.2551398,38.9669552 L49.2551398,39.478301 L49.2551398,40.5147968 L49.2551398,41.0330448 C49.2551398,41.3131634 49.0924219,41.7100458 48.891621,41.9073366 L48.891621,41.9073366 Z M68.4287405,60.9726496 L51.4974165,51.238676 C50.5880424,50.7106498 49.5799988,50.5070317 48.610615,50.5898594 C46.0279001,50.7739208 43.9991186,52.9228381 43.9991186,55.5393862 L43.9991186,75.0280406 C43.9991186,77.7745822 46.2223539,80 48.9810582,80 C51.7397625,80 53.9687679,77.7745822 53.9687679,75.0280406 L53.9687679,64.1264272 L63.450263,69.582123 C65.8321772,70.9620086 68.8782344,70.145236 70.2526821,67.7731443 C71.6242445,65.3947254 70.8146938,62.346208 68.4287405,60.9726496 L68.4287405,60.9726496 Z M77.3811139,34.5512064 L67.9244303,40.002876 L77.3811139,45.4395904 C79.769375,46.8160248 80.58585,49.8490122 79.2050554,52.2331829 C77.8271457,54.6046994 74.7787804,55.41572 72.3991743,54.0450376 L55.4643882,44.2984096 C54.3351717,43.6432659 53.5510096,42.6159731 53.2030701,41.4621381 C53.0374672,40.9312358 52.9607242,40.3842283 52.9797657,39.844123 C52.9895749,39.4529925 53.0466994,39.0624371 53.155178,38.6713066 C53.4938852,37.4570763 54.2878566,36.3728395 55.4643882,35.688361 L72.3991743,25.9480602 C74.7787804,24.5773778 77.8271457,25.3924248 79.2050554,27.7702683 C80.58585,30.1446608 79.769375,33.1770728 77.3811139,34.5512064 L77.3811139,34.5512064 Z M352,24.8281614 C352,27.5608984 350.165095,29.8415346 347.099996,29.8415346 C344.05567,29.8415346 342.242691,27.5390411 342.242691,24.8281614 C342.242691,22.0954243 344.05567,19.814213 347.099996,19.814213 C350.165095,19.814213 352,22.0954243 352,24.8281614 L352,24.8281614 Z M351.028308,24.8281614 C351.028308,22.5043859 349.474409,20.7391218 347.099996,20.7391218 C344.768282,20.7391218 343.213806,22.4175318 343.213806,24.8281614 C343.213806,27.1300797 344.768282,28.9160507 347.099996,28.9160507 C349.474409,28.9160507 351.028308,27.151937 351.028308,24.8281614 L351.028308,24.8281614 Z M345.177962,22.5682322 L347.271946,22.5682322 C348.416164,22.5682322 349.171476,23.1923155 349.171476,24.1603635 C349.171476,24.7631646 348.869699,25.2146904 348.416164,25.494809 L349.236679,26.6779787 L349.236679,26.9149579 L348.049184,26.9149579 L347.250596,25.7743522 L346.322758,25.7743522 L346.322758,26.9149579 L345.177962,26.9149579 L345.177962,22.5682322 Z M347.250596,23.6231342 L346.322758,23.6231342 L346.322758,24.7631646 L347.250596,24.7631646 C347.682203,24.7631646 347.963208,24.569325 347.963208,24.2040781 C347.963208,23.8163987 347.703552,23.6231342 347.250596,23.6231342 L347.250596,23.6231342 Z" id="Fill-1" fill="#29B5E8" fill-rule="nonzero" mask="url(#mask-2)"></path>
        </g>
    </g>
</svg>