<svg xmlns="http://www.w3.org/2000/svg" width="340" height="140" viewBox="0 0 340 140">
  <path fill="#000" d="M114.999 74.31h16.14c-.343 1.553-1.03 2.933-1.717 4.314-.858 1.725-2.06 3.105-3.606 4.313a22.764 22.764 0 0 1-5.323 3.106c-2.06.69-4.464 1.208-7.04 1.208-2.575 0-4.979-.518-7.04-1.38-2.232-1.036-4.121-2.416-5.666-4.142-1.546-1.898-2.92-4.14-3.778-6.902-.858-2.76-1.374-5.866-1.374-9.49 0-3.45.516-6.557 1.546-9.317 1.03-2.761 2.232-5.004 3.949-6.902 1.717-1.898 3.606-3.279 5.838-4.142 2.233-.862 4.465-1.38 7.04-1.38 3.778 0 6.869.863 9.444 2.588 2.233 1.553 3.778 3.279 4.808 5.35.172.172.344.69.516 1.035.171.345.343.517.686.517h13.222c.515 0 .859-.517.687-1.035-.172-.345-.172-.69-.172-.863-.858-2.76-2.06-5.349-3.606-7.592a28.786 28.786 0 0 0-6.181-6.73c-2.404-1.897-5.323-3.278-8.586-4.313C121.18 31.518 117.574 31 113.625 31c-4.636 0-8.929.863-12.878 2.588-3.95 1.726-7.384 4.141-10.303 7.247-2.919 3.106-5.151 6.73-6.697 10.87-1.545 4.142-2.404 8.628-2.404 13.46 0 4.831.859 9.317 2.404 13.459 1.546 4.14 3.95 7.764 6.697 10.87 2.747 3.106 6.182 5.522 10.131 7.247 3.949 1.726 8.07 2.588 12.535 2.588 4.636 0 8.757-1.035 12.191-2.76 2.576-1.38 4.637-3.796 6.182-5.695v6.557c0 .346.343.69.687.69h11.333c.343 0 .686-.344.686-.69V62.75c0-.345-.343-.69-.686-.69h-28.504c-.344 0-.687.345-.687.69v10.87c0 .346.172.69.687.69Zm35.2 24.502h11.848c.344 0 .687-.345.687-.69V31.69c0-.345-.343-.69-.687-.69h-11.848c-.343 0-.687.345-.687.69v66.432c0 .345.344.69.687.69Zm63.533-11.216V65.165c0-2.416-.343-4.832-1.03-6.902-.687-2.243-1.889-4.141-3.606-5.694-1.717-1.553-3.949-2.761-6.525-3.796-2.747-.863-6.01-1.38-10.131-1.38-3.434 0-6.353.344-9.101 1.207-2.747.863-4.979 1.898-6.868 3.451-1.889 1.553-3.606 3.278-4.636 5.176-1.03 1.726-1.717 3.451-2.061 5.35 0 .172-.171.69-.171 1.207 0 .518.343.863.686.863h12.364c.343 0 .686-.172.686-.518.172-.345.344-.862.516-1.38.686-1.208 1.373-2.07 2.575-2.76 1.546-.863 3.778-1.381 6.354-1.381 2.747 0 4.636.345 6.009 1.208 1.202.69 1.889 1.725 1.889 3.106 0 1.725-1.03 2.933-2.919 3.623-2.232.863-5.838 1.726-10.818 2.416-2.232.345-4.636.69-6.868 1.38-2.232.518-4.464 1.38-6.182 2.588-1.888 1.208-3.434 2.589-4.636 4.487-1.202 1.898-1.717 4.14-1.717 7.074 0 2.761.515 5.004 1.546 7.075 1.03 1.898 2.403 3.623 4.121 4.831 1.717 1.208 3.605 2.07 5.838 2.588 2.232.518 4.292.863 6.525.863 4.292 0 7.727-.863 10.474-2.416 2.061-1.207 3.778-2.588 5.151-4.486a722.703 722.703 0 0 0 1.031 5.694h11.676c-.172 0-.172-8.8-.172-11.043Zm-13.221-8.455c0 2.761-1.031 5.004-3.263 6.557-2.232 1.726-5.323 2.588-8.929 2.588-2.747 0-4.636-.345-5.838-1.208-1.03-.69-1.545-1.725-1.545-3.106 0-1.725.686-2.76 1.888-3.45 1.374-.69 3.435-1.38 6.01-1.898 2.576-.518 4.98-1.036 7.212-1.553 1.717-.346 3.263-1.036 4.636-1.726v3.796h-.171ZM267.821 31h-11.848c-.343 0-.687.345-.687.69v22.086c-1.202-1.38-2.575-2.76-4.293-3.796-2.575-1.725-6.009-2.588-9.959-2.588-3.091 0-6.01.69-8.757 2.07-2.747 1.381-5.151 3.107-7.384 5.522-2.06 2.243-3.777 5.177-4.979 8.283-1.202 3.278-1.889 6.73-1.889 10.525 0 3.796.515 7.247 1.717 10.526 1.202 3.106 2.747 5.866 4.808 8.282 2.061 2.416 4.464 4.141 7.212 5.522 2.747 1.38 5.838 1.898 8.929 1.898 3.777 0 7.04-.863 9.787-2.589 1.889-1.207 3.434-2.588 4.808-4.313v5.004c0 .345.344.69.687.69h11.505c.343 0 .686-.345.686-.69V31.69c.344-.345 0-.69-.343-.69Zm-13.565 48.659c-.687 1.725-1.545 3.106-2.576 4.313-1.03 1.208-2.232 2.071-3.777 2.761a11.882 11.882 0 0 1-9.101 0c-1.374-.69-2.747-1.553-3.778-2.76-1.03-1.208-1.888-2.589-2.575-4.314-.687-1.726-.859-3.796-.859-6.04 0-2.243.344-4.313.859-6.039.687-1.725 1.545-3.278 2.575-4.486 1.031-1.208 2.233-2.07 3.778-2.76a9.978 9.978 0 0 1 4.464-1.036 9.98 9.98 0 0 1 4.465 1.035c1.374.69 2.747 1.553 3.778 2.761 1.03 1.208 1.888 2.76 2.575 4.486.687 1.726.859 3.796.859 6.04.343 2.243 0 4.313-.687 6.039Zm20.262 18.981h11.848c.343 0 .687-.346.687-.691V31.69c0-.345-.344-.69-.687-.69h-11.848c-.344 0-.687.345-.687.69v66.087c0 .517.343.862.687.862Zm53.402-50.213c-.344 0-.515.173-.687.518l-9.444 27.953c-.344.863-.687 1.898-.859 2.933-.171.863-.515 1.726-.687 2.416-.171-.69-.343-1.553-.686-2.416-.344-1.035-.516-2.07-.859-2.933l-9.959-27.953c-.172-.345-.344-.518-.687-.518h-12.707c-.515 0-.858.518-.686 1.036l18.716 49.176-.515 1.553c-1.546 4.314-4.98 6.384-10.646 6.384h-1.889c-.343 0-.687.346-.687.691v10.18c0 .345.344.69.687.69h2.232c5.667 0 10.303-1.035 13.737-3.278 3.606-2.243 6.182-5.522 7.899-10.008l20.605-55.56c.172-.518-.172-1.036-.687-1.036H327.92v.172Z"/>
  <path fill="#009B00" d="M34.396 32.038C15.994 32.038 1 46.86 1 65.263S15.994 98.66 34.396 98.66s33.396-14.994 33.396-33.396-14.994-33.226-33.396-33.226Z"/>
  <path fill="#fff" d="M54.672 63.048h-18.06V44.987H32.01v18.061H13.949v4.6h18.062V85.71h4.6V67.649h18.061v-4.6Z"/>
</svg>
