<svg xmlns="http://www.w3.org/2000/svg" width="366" height="89" viewBox="0 0 366 89">
  <path fill="#242627" d="M74.2 0H14.8C6.6 0 0 6.7 0 14.8v59.4C0 82.4 6.7 89 14.8 89h59.4C82.4 89 89 82.3 89 74.2V14.8C89.1 6.6 82.4 0 74.2 0Zm-1.3 68.1c0 2.6-2.1 4.7-4.7 4.7H20.9c-2.6 0-4.7-2.1-4.7-4.7V20.9c0-2.6 2.1-4.7 4.7-4.7h47.2c2.6 0 4.7 2.1 4.7 4.7v47.2h.1ZM56.7 53.9c0 1.5-1.2 2.7-2.7 2.7H35.1c-1.5 0-2.7-1.2-2.7-2.7V35c0-1.5 1.2-2.7 2.7-2.7H54c1.5 0 2.7 1.2 2.7 2.7v18.9Zm73.6 19.8c-5.3 0-10.4-2-13.9-5.6-3.2-3.2-5-7.3-5-11.7h5.3c0 2.9 1.2 5.7 3.4 7.9 2.6 2.6 6.3 4 10.2 4 7.5 0 13.5-5.2 13.5-11.6 0-4.8-2.7-8.6-15.6-11.6-5.3-1.2-8.8-2.9-11.2-5.1-2.5-2.4-3.8-5.7-3.8-9.9 0-8.4 7.5-15.2 16.7-15.2 4.4 0 8.6 1.5 11.7 4.3 3.3 2.9 5 6.7 5 10.8h-5.1c0-5.4-5.1-9.8-11.4-9.8-6.2 0-11.4 4.5-11.4 9.8 0 4.9 1.7 7.7 10.8 9.9 9.8 2.3 19.7 6 19.8 16.8 0 4.6-2 8.9-5.6 12.1-3.6 3.2-8.3 4.9-13.4 4.9Zm63 15.3V65.5h-.2c-3.5 5.3-9.4 8-15.7 8-12.1 0-21.7-9.1-21.7-21.3 0-12.1 9.8-21.1 21.7-21.1 6.3 0 12.3 2.7 15.7 8.1h.2v-7.1h5.2v56.7h-5.2v.2Zm-15.9-53.2c-9.6 0-16.5 7.2-16.5 16.7s7.1 16.4 16.5 16.4c9.2 0 16.2-7.5 16.2-16.5s-7-16.6-16.2-16.6Zm111.1 36.8v-7.1h-.2c-3.5 5.3-9.5 8-15.7 8-12.1 0-21.7-9.1-21.7-21.3 0-12.1 9.8-21.1 21.7-21.1 6.4 0 12.3 2.7 15.7 8.1h.2v-7.1h5.2v40.4h-5.2v.1Zm-15.8-36.8c-9.6 0-16.5 7.2-16.5 16.7s7.1 16.4 16.5 16.4c9.2 0 16.2-7.5 16.2-16.5-.1-9-7.1-16.6-16.2-16.6ZM309.2 49v23.6H304V32.2h5.2V38h.1c2.2-5.2 6.1-6.5 11.4-6.9v5.5c-7.1.6-11.5 5.1-11.5 12.4Zm55.7 5.3h-36.8c.4 8 7.8 14.6 15.7 14.6 6.2 0 12.3-3.5 14.5-9.5h5.5c-2.9 8.4-10.9 14.2-19.9 14.2-11.7 0-21-9.5-21-21.1 0-11.5 9.4-21.3 21-21.3 11.8 0 21.2 10 21.2 21.7-.1.4-.2.9-.2 1.4Zm-21-18.5c-8.1 0-14.5 5.9-15.7 13.8h31.5c-1.4-7.9-7.7-13.8-15.8-13.8ZM238.6 72.7v-6.3h-.1c-2.4 5-7.6 7.3-13 7.3-5.3 0-10.6-1.9-14-6.1-2.9-3.6-3.6-8.5-3.6-13.1V32.1h5.2v22.3c0 8.4 3 14.6 12.3 14.6 3.4 0 6.1-.9 8.6-3.3 3.6-3.4 4.2-7.4 4.2-12.2V32h5.2v40.6h-4.8v.1Z"/>
</svg>
