<svg xmlns="http://www.w3.org/2000/svg" width="180" height="91" viewBox="0 0 180 91">
  <path fill="#64A8F0" fill-rule="evenodd" d="M166.74 42.9h-7.027V15.033h6.614v3.121c.826-1.872 2.894-3.532 5.581-3.743 4.546-.206 7.648 2.497 7.648 8.317v20.17h-7.246V21.892c0-2.497 0-4.575-1.671-4.99-.621-.206-1.672 0-2.482.622-1.031 1.041-1.449 2.29-1.449 4.368v21.003l.032.005ZM47.27 16.902c-1.671-1.458-3.72-2.497-6.204-2.497-2.483 0-4.34 1.041-6.2 2.497-2.895 2.497-4.756 7.07-4.756 12.06 0 5.2 1.858 9.567 4.755 12.062 1.862 1.457 3.721 2.497 6.201 2.497 2.48 0 4.548-1.038 6.205-2.497 3.102-2.497 4.755-6.864 4.755-12.061 0-4.99-1.671-9.566-4.755-12.06Zm-2.686 12.06c0 5.2 0 9.36-.828 11.44-.618 1.037-1.226 1.681-2.686 1.681-1.226 0-2.066-.624-2.482-1.682-1.035-2.08-1.035-6.242-1.035-11.438 0-4.99 0-9.358 1.035-11.439.414-1.037 1.226-1.682 2.482-1.682 1.449 0 2.068.625 2.688 1.682 1.035 2.08.828 6.448.828 11.439h-.002Zm74.819 24.543v7.485h-1.445c-.827-3.117-2.068-5.809-5.374-6.031-2.068-.206-3.927 1.041-4.135 2.912-.209 1.871.414 3.532 4.135 5.614 4.755 2.705 8.474 3.952 8.474 9.566 0 6.032-5.168 8.942-9.507 8.942h-8.267v-10.4h1.449c1.035 5.408 2.688 8.734 6.613 8.942 2.482 0 4.34-1.458 4.34-4.159 0-2.7-1.672-4.368-5.58-6.653-4.34-2.703-7.028-4.367-7.028-8.112 0-4.99 3.515-8.112 9.095-8.112h7.245l-.015.006Zm9.097-10.607v-20.17c0-5.824-3.102-8.527-7.648-8.317-3.102.205-4.96 2.29-5.788 3.95-1.031-2.911-3.307-4.158-6.614-3.95-2.684.205-4.755 1.872-5.58 3.743v-3.121h-6.409v27.848h7.026V21.9c0-2.08.204-3.327 1.449-4.368.828-.622 1.653-.83 2.272-.622 1.671.416 1.671 2.497 1.671 4.99v21h6.994V21.687c0-1.873.413-3.122 1.449-4.16.827-.623 1.672-.83 2.272-.623 1.672.417 1.858 2.497 1.858 4.99v20.987h7.028l.02.017ZM56.8 9.208h7.245v33.687h-7.244V9.206ZM89.645 42.9V9.211H82.4v7.902c-.619-1.458-2.068-2.497-4.133-2.497-5.168 0-9.302 5.407-9.508 13.724-.204 5.615 1.653 14.971 8.887 14.971 2.892 0 4.548-1.682 5.168-3.12v2.703h6.821l.01.006ZM81.17 17.323c1.449 2.08 1.45 7.068 1.45 11.02 0 4.158.203 9.565-1.45 11.853-.62.833-1.226 1.233-2.272 1.233-1.449 0-2.276-1.682-2.686-4.366-.208-2.497-.208-5.614-.208-8.941 0-5.615.414-11.854 3.102-11.854 1.035 0 1.45.417 2.068 1.042l-.004.013ZM150 15.865c1.858 1.04 3.101 2.704 3.101 6.448V42.9h-6.82v-3.12c-.828 2.286-3.103 3.742-6.205 3.742-2.482 0-6.821-1.234-6.821-7.695 0-6.031 3.927-7.29 8.266-9.149 3.927-1.682 4.34-1.873 4.34-3.532V18.57c0-1.869-1.031-2.702-3.103-2.702-.826.205-2.272.624-2.272 1.682-.208 1.233 1.226 1.233 1.449 3.121.205 2.912-2.067 3.95-4.133 3.742-1.449 0-3.102-.832-3.307-3.118-.204-3.743 3.928-6.863 9.704-6.863 2.687 0 4.34.625 5.787 1.458l.014-.024Zm-4.136 10.397-2.272 1.458c-2.272 1.458-2.688 3.327-2.894 5.407-.204 1.682-.204 3.121 0 5.615.204 2.285 1.653 2.704 2.894 2.285 1.45-.624 2.272-3.326 2.272-6.242v-8.526.003ZM47.687 54.754c1.861 1.233 2.892 2.704 2.892 6.448V82h-6.613v-3.12c-.827 2.08-3.099 3.532-6.204 3.532-2.687 0-6.822-1.04-6.822-7.485 0-6.032 3.927-7.29 8.062-9.149 4.136-1.86 4.544-2.08 4.544-3.532v-4.58c0-2.08-1.034-2.91-3.098-2.702-.829 0-2.276.417-2.276 1.458-.204 1.458 1.226 1.458 1.449 3.327.208 2.704-2.068 3.743-4.133 3.743-1.45-.205-3.102-1.037-3.307-3.327-.204-3.532 3.927-6.653 9.703-6.653 2.688 0 4.339.416 5.788 1.233l.015.01ZM43.552 65.15l-2.272 1.458c-2.272 1.458-2.686 3.327-2.894 5.407-.205 1.663-.205 3.327 0 5.614 0 2.497 1.448 2.91 2.688 2.286 1.653-.624 2.482-3.117 2.482-6.239V65.15h-.004Zm54.154-3.327c0-5.824-3.103-8.734-7.648-8.317-2.272.206-4.134 1.233-5.168 2.704V48.1h-7.024v19.133c0 7.07-4.96 13.724-9.92 13.517-3.51 0-4.34-2.703-4.755-5.615-.62-4.16-.62-8.941-.208-14.14.414-3.328 1.226-6.032 3.72-6.032 1.862 0 2.068 1.233 1.227 2.08-.829 1.041-2.068 2.08-1.45 4.368.62 2.497 4.544 2.91 6.41 1.041 1.448-1.663 1.225-4.368.204-6.031-1.226-2.08-3.307-2.91-6.409-2.91-3.927 0-11.369 3.532-11.369 14.765 0 12.06 7.648 14.14 11.987 14.14 4.96 0 9.302-4.369 10.54-7.903v7.489h7.028V60.996c0-2.08.415-3.327 1.45-4.368.828-.622 1.86-.831 2.481-.622 1.653.415 1.653 2.497 1.653 4.99V82H97.7V61.828l.006-.004ZM25.362 8.584v11.854h-1.45c-1.225-5.824-3.926-10.19-7.647-10.397-2.482-.206-3.925 1.233-5.168 3.327-1.226 2.497-1.861 7.694-1.861 13.931 0 5.824.208 10.19.828 13.308.412 1.458 1.449 3.743 4.133 3.743 1.45 0 2.482-.416 3.103-1.233 1.034-1.234 1.226-3.744 1.226-5.407v-5.613c0-2.08-.62-3.327-1.654-3.951-.826-.417-2.067-.417-2.686-.624v-1.458H25.76v29.718h-1.45c-.613-2.266-1.027-3.93-2.062-5.798-1.035-1.87-2.894-3.95-5.994-3.95-3.307-.209-5.789 1.873-5.789 4.99 0 4.161 2.482 5.2 7.028 7.696 4.341 2.497 9.92 4.575 9.92 11.855 0 7.07-5.995 11.438-12.815 11.438H3.643V67.678h1.45c1.86 10.812 6.408 12.685 9.507 12.685 3.927 0 5.773-2.497 5.773-6.031-.204-4.576-3.316-6.243-7.648-8.527-6.2-3.532-9.093-5.2-9.093-11.024.204-4.99 4.135-8.111 8.475-9.358C3.012 44.383.324 36.065.533 27.133c0-8.941 5.167-18.509 15.293-18.509h9.508l.028-.04Z" clip-rule="evenodd"/>
</svg>
