<svg xmlns="http://www.w3.org/2000/svg" width="350" height="41" viewBox="0 0 350 41">
  <path fill="#FF3008" d="M101.532 11.532v17.875h4.457a8.506 8.506 0 0 0 6.061-2.668 8.952 8.952 0 0 0 2.443-6.285 8.797 8.797 0 0 0-2.409-6.31 8.356 8.356 0 0 0-6.095-2.614h-4.455l-.002.002Zm4.457-5.605c8.306 0 14.591 6.437 14.591 14.527 0 8.091-6.285 14.564-14.591 14.564h-9.83a.713.713 0 0 1-.705-.723V6.68c0-.4.316-.725.705-.725l9.83-.028Zm36.002 24.103c3.773.01 7.179-2.31 8.632-5.88a9.74 9.74 0 0 0-1.996-10.425 9.152 9.152 0 0 0-10.159-2.095c-3.486 1.472-5.763 4.956-5.77 8.824 0 5.273 4.154 9.55 9.295 9.576h-.002Zm.002-24.762c8.743 0 15.427 6.891 15.427 15.186 0 8.296-6.684 15.187-15.429 15.187-8.743 0-15.371-6.857-15.371-15.186 0-8.33 6.685-15.187 15.371-15.187h.002Zm36.666 24.761c5.143-.013 9.305-4.295 9.3-9.568-.007-5.277-4.177-9.55-9.318-9.552-5.146 0-9.318 4.27-9.325 9.545a9.7 9.7 0 0 0 2.736 6.773 9.219 9.219 0 0 0 6.605 2.802h.002Zm-.002-24.76c8.716 0 15.4 6.856 15.4 15.185 0 8.33-6.712 15.187-15.4 15.187-8.687 0-15.427-6.857-15.427-15.186 0-8.33 6.684-15.187 15.427-15.187Zm35.786 6.263h-6.284v7.693h6.284a3.635 3.635 0 0 0 2.7-1.03 3.816 3.816 0 0 0 1.15-2.709 3.87 3.87 0 0 0-1.091-2.832 3.673 3.673 0 0 0-2.759-1.115v-.007ZM202.08 6.68c0-.4.318-.725.706-.725h11.832c5.641 0 9.723 4.238 9.723 9.56.043 3.6-1.923 6.908-5.061 8.52l5.456 9.892a.74.74 0 0 1 .028.773.702.702 0 0 1-.669.354h-4.788a.705.705 0 0 1-.641-.39l-5.259-9.791h-5.271v9.4a.714.714 0 0 1-.704.725h-4.614a.715.715 0 0 1-.704-.725l-.032-27.591-.002-.002Zm38.106 4.988v17.877h4.455a8.51 8.51 0 0 0 6.064-2.659 8.947 8.947 0 0 0 2.447-6.28 8.798 8.798 0 0 0-2.402-6.322 8.358 8.358 0 0 0-6.107-2.614l-4.457-.002Zm4.455-5.611c8.307 0 14.591 6.443 14.591 14.55 0 8.107-6.284 14.55-14.591 14.55h-9.8a.713.713 0 0 1-.705-.725V6.818c0-.402.316-.727.705-.727l9.802-.034h-.002Zm33.127 7.109-3.448 9.559h6.889l-3.441-9.56Zm-5.47 14.961-2.257 6.364a.705.705 0 0 1-.705.5h-4.895a.697.697 0 0 1-.643-.305.738.738 0 0 1-.062-.722l10.578-27.589a.704.704 0 0 1 .704-.477h5.477a.704.704 0 0 1 .707.477l10.578 27.589a.741.741 0 0 1-.064.722.698.698 0 0 1-.643.303h-4.893a.705.705 0 0 1-.705-.5l-2.257-6.364h-10.92v.002Zm25.157-14.34c0-4.569 3.85-8.519 9.929-8.519a12.401 12.401 0 0 1 8.818 3.407.733.733 0 0 1 0 1.064l-2.711 2.761a.696.696 0 0 1-1 0 7.038 7.038 0 0 0-4.705-1.902c-2.431 0-4.229 1.447-4.229 3.118 0 5.4 14.37 2.284 14.37 12.675-.007 5.266-3.886 9.25-10.745 9.25a14.202 14.202 0 0 1-10.252-4.223.73.73 0 0 1 0-1.063l2.622-2.691a.7.7 0 0 1 1.023 0 8.945 8.945 0 0 0 6.198 2.59c3.038 0 5.041-1.663 5.041-3.747 0-5.402-14.364-2.284-14.364-12.678l.005-.043Zm46.531-7.144v10.918h-12.163V6.643a.716.716 0 0 0-.705-.723h-4.613a.712.712 0 0 0-.705.723v27.584c0 .4.318.725.705.725h4.613a.717.717 0 0 0 .705-.725v-11.09h12.154v11.09c0 .4.318.725.705.725h4.613a.716.716 0 0 0 .705-.725V6.643a.712.712 0 0 0-.705-.723h-4.613a.714.714 0 0 0-.696.723Zm-274.43 2.96C66.357 3.67 60.097-.024 53.287 0H1.768A1.773 1.773 0 0 0 .141 1.086a1.734 1.734 0 0 0 .382 1.9l11.222 11.137a5.31 5.31 0 0 0 3.746 1.538h36.318c2.589-.027 4.705 2.023 4.732 4.575.027 2.553-2.048 4.643-4.636 4.668h-25.04c-.71 0-1.353.427-1.63 1.082a1.734 1.734 0 0 0 .379 1.905l11.23 11.145a5.318 5.318 0 0 0 3.745 1.537h11.325c14.734 0 25.875-15.546 17.643-30.978"/>
</svg>
