<?xml version="1.0" encoding="UTF-8"?> <svg xmlns="http://www.w3.org/2000/svg" viewBox="0 0 158.6 78.5"><defs><style>.cls-1{fill:#c6ebf4;}.cls-2{fill:#25314c;}.cls-3{fill:#1b98ed;}</style></defs><path class="cls-1" d="M113.28,23.53l-1.42,0-1,0h-.12c-3.34,0-7.29.18-11.92,0l-.74,0c-1,0-3.12-.19-3.15-.19l-1.48-.13c-2-.17-4.06-.43-6.25-.8l-1.62-.28L84.7,22c-.56-.11-2.92-.63-3.45-.76s-.92-.22-1.39-.34c-.84-.21-1.69-.45-2.56-.7l-1.2-.36c-.81-.23-1.63-.5-2.47-.78l-1.5-.51c-.73-.25-1.46-.52-2.21-.8l16.49-12Z"></path><path class="cls-2" d="M47.11,74.42q-4,0-5.82-2.4t-1.86-7.57v-5q0-5.28,1.86-7.65t5.94-2.37a7.78,7.78,0,0,1,4.83,1.35A4.41,4.41,0,0,1,54,54.07a.25.25,0,0,0,.24.2h4.16a.25.25,0,0,0,.25-.25,7.79,7.79,0,0,0-2.19-5.35q-2.94-3.3-9.48-3.3-6.06,0-9.18,3.54T34.69,59.47v5.94q0,6.5,3.12,9.79T47,78.5q7.32,0,10.09-4.14a9.87,9.87,0,0,0,1.29-2.55A11.13,11.13,0,0,0,58.73,69a.25.25,0,0,0-.24-.25H54.25a.25.25,0,0,0-.24.2C53.36,72.29,51.12,74.42,47.11,74.42Z"></path><path class="cls-2" d="M129.89,49.64a.24.24,0,0,0,.24-.24V45.61a.23.23,0,0,0-.24-.24h-7V37.62a.24.24,0,0,0-.24-.24l-4.26,1.3a.24.24,0,0,0-.24.24v6.45h-4.65a.24.24,0,0,0-.24.24V49.4a.24.24,0,0,0,.24.24h4.65v20q0,4.14,1.86,6.06T126,77.66h3.9a.24.24,0,0,0,.24-.24V73.7a.24.24,0,0,0-.24-.24h-3.48a3.16,3.16,0,0,1-2.67-1,5.85,5.85,0,0,1-.81-3.51V49.64Z"></path><path class="cls-2" d="M87.21,54A5.16,5.16,0,0,0,87,52.79a10.75,10.75,0,0,0-2.07-3.88q-3.12-3.54-9.18-3.54-6.54,0-9.49,3.3a7.59,7.59,0,0,0-2,5.32.25.25,0,0,0,.25.25h4.16a.25.25,0,0,0,.24-.21,4.24,4.24,0,0,1,1.8-3.29,7.84,7.84,0,0,1,4.84-1.35q4.08,0,5.94,2.37h0a5,5,0,0,1,1,2.59c0,.33,0,.67,0,1v3.54q-1.86-.24-3.72-.36t-3.06-.12q-6.55,0-9.61,2.46t-3.06,7.81q0,5,2.91,7.29c1.71,1.32,5.3,2,8.92,2.2a18.24,18.24,0,0,0,2.86-.1,37.07,37.07,0,0,0,8.95-1.91.77.77,0,0,0,.55-.71V55.27C87.26,54.81,87.24,54.38,87.21,54ZM70.62,73.33a3.72,3.72,0,0,1-2.29-2.18,6.92,6.92,0,0,1-.4-2.49q0-3.37,1.77-4.81t6.4-1.44c.67,0,4.66.34,6.15.51a.3.3,0,0,1,.27.3v9.4a.32.32,0,0,1-.21.3A18.25,18.25,0,0,1,70.62,73.33Z"></path><path class="cls-2" d="M158.13,54a5.16,5.16,0,0,0-.23-1.17,10.75,10.75,0,0,0-2.07-3.88q-3.12-3.54-9.18-3.54-6.56,0-9.49,3.3a7.59,7.59,0,0,0-2,5.32.25.25,0,0,0,.25.25h4.16a.25.25,0,0,0,.24-.21,4.24,4.24,0,0,1,1.8-3.29,7.82,7.82,0,0,1,4.84-1.35q4.08,0,5.94,2.37h0a4.91,4.91,0,0,1,1,2.59c0,.33.05.67.05,1v3.54q-1.86-.24-3.72-.36c-1.24-.08-2.27-.12-3.07-.12q-6.54,0-9.6,2.46T134,68.72q0,5,2.91,7.29c1.71,1.32,5.3,2,8.92,2.2a18.24,18.24,0,0,0,2.86-.1,37.07,37.07,0,0,0,8.95-1.91.77.77,0,0,0,.55-.71V55.27C158.18,54.81,158.16,54.38,158.13,54ZM141.54,73.33a3.72,3.72,0,0,1-2.29-2.18,6.92,6.92,0,0,1-.4-2.49q0-3.37,1.77-4.81t6.4-1.44c.67,0,4.66.34,6.15.51a.31.31,0,0,1,.27.3v9.4a.34.34,0,0,1-.21.3A18.25,18.25,0,0,1,141.54,73.33Z"></path><path class="cls-2" d="M109.22,50a.23.23,0,0,0,.22-.23v-.18h0V45.6c0-.8-5.49.43-6,.59A8.2,8.2,0,0,0,98,50.35V46.56a.26.26,0,0,0-.26-.26H93.61a.26.26,0,0,0-.26.26V77.42a.27.27,0,0,0,.26.27h4.26a.27.27,0,0,0,.26-.27l0-17.29a13.62,13.62,0,0,1,1.2-5.9,7,7,0,0,1,6-4.13,21.77,21.77,0,0,1,2.79-.17Z"></path><path class="cls-3" d="M110.91,25.42C47.11,45,0,25.42,0,25.42L35.1,0C48.42,9.77,60,15.83,69.92,19.57c.75.28,1.48.55,2.21.8l1.5.51c.84.28,1.66.55,2.47.78l1.2.36c.87.25,1.72.49,2.56.7.47.12.93.24,1.39.34s4.07.88,4.38.94l1.62.28c2.19.37,4.27.63,6.25.8l1.48.13s2.15.15,3.15.19l.74,0c4.63.17,8.58,0,11.92,0Z"></path></svg> 