<svg xmlns="http://www.w3.org/2000/svg" width="254" height="159" fill="none" viewBox="0 0 254 159">
  <path fill="#1E2124" fill-rule="evenodd" d="M130.221 74.47h-12.519v42.49h12.519V99.233a46.123 46.123 0 0 1 .335-5.768 11.53 11.53 0 0 1 1.459-4.505 7.695 7.695 0 0 1 3.214-2.927c1.393-.7 3.28-1.05 5.661-1.05.908-.003 1.815.07 2.712.218a18.33 18.33 0 0 1 2.613.655v-12a10.546 10.546 0 0 0-2.003-.35 29.012 29.012 0 0 0-2.177-.086c-2.781 0-5.091.656-6.928 1.968-1.838 1.312-3.423 3.282-4.755 5.91h-.17l.039-6.828Zm34.836-23.604h-12.51v66.094h11.517v-5.596h.17a14.767 14.767 0 0 0 4.799 4.459 17.252 17.252 0 0 0 3.544 1.573c1.328.416 2.707.623 4.094.613 2.802.04 5.583-.51 8.177-1.618a18.18 18.18 0 0 0 6.301-4.545 20.456 20.456 0 0 0 4.05-6.95 26.437 26.437 0 0 0 1.42-8.831 27.945 27.945 0 0 0-1.307-8.523 23.768 23.768 0 0 0-3.671-7.213 18.13 18.13 0 0 0-5.804-5.027 15.842 15.842 0 0 0-7.764-1.882 20.643 20.643 0 0 0-7.303 1.268c-2.226.825-4.161 2.334-5.552 4.327h-.165l.004-28.149Zm1.629 52.63c-1.742-1.982-2.613-4.575-2.613-7.781 0-3.206.871-5.8 2.613-7.782 1.741-1.982 4.209-2.973 7.402-2.973 3.194 0 5.661.991 7.403 2.973 1.742 1.982 2.613 4.576 2.613 7.782 0 3.206-.871 5.799-2.613 7.781-1.742 1.982-4.209 2.973-7.403 2.973-3.193 0-5.658-.991-7.394-2.973h-.008Zm76.143-18.536h11.017V74.47h-11.017V61.898h-12.515v12.59h-8.013v10.49h8.013v20.196a14.196 14.196 0 0 0 1.127 5.945 10.347 10.347 0 0 0 3.132 3.977 13.037 13.037 0 0 0 4.663 2.213c1.913.482 3.876.717 5.844.7a38.717 38.717 0 0 0 4.424-.263 18.012 18.012 0 0 0 4.355-1.05v-10.909a4.354 4.354 0 0 1-2.461 1.005c-.866.127-1.738.2-2.612.218a7.663 7.663 0 0 1-3.236-.568 3.825 3.825 0 0 1-1.794-1.619 6.617 6.617 0 0 1-.753-2.49 27.493 27.493 0 0 1-.166-3.182l-.008-14.19Zm-38.503-29.244a7.706 7.706 0 0 0-2.075 4.607 7.819 7.819 0 0 0 1.195 4.936 7.272 7.272 0 0 0 3.922 3.025 6.959 6.959 0 0 0 4.871-.256 7.364 7.364 0 0 0 3.61-3.423 7.855 7.855 0 0 0 .712-5.036 7.625 7.625 0 0 0-2.509-4.365 7.057 7.057 0 0 0-4.592-1.715 6.782 6.782 0 0 0-2.787.562 7.037 7.037 0 0 0-2.347 1.665Zm11.396 18.754h-12.524v42.49h12.524V74.47Zm-105.85-4.909c-1.01-7.967-3.878-15.554-8.353-22.094-4.475-6.54-10.42-11.833-17.312-15.414-6.893-3.582-14.523-5.342-22.219-5.127-7.697.216-15.225 2.4-21.924 6.363-6.699 3.962-12.363 9.58-16.495 16.36-4.133 6.782-6.607 14.518-7.206 22.53a51.007 51.007 0 0 0 3.77 23.424c3.076 7.368 7.837 13.835 13.866 18.834 4.615-2.145 9.662-4.65 15.023-7.459-5.422-2.711-10.029-6.921-13.32-12.172-3.293-5.25-5.144-11.342-5.354-17.614-.21-6.271 1.23-12.483 4.163-17.96 2.933-5.478 7.247-10.013 12.474-13.113 5.227-3.1 11.168-4.646 17.178-4.47 6.009.175 11.858 2.064 16.911 5.464 5.054 3.399 9.119 8.178 11.754 13.818a35.66 35.66 0 0 1 3.196 18.175 423.337 423.337 0 0 0 13.848-9.545Zm.396 5.564c-4.751 3.668-10.016 7.468-15.676 11.3-2.529 8.277-7.968 15.248-15.223 19.508-7.254 4.26-15.786 5.492-23.877 3.449-6.205 3.114-12.092 5.809-17.483 8.041 7.17 4.76 15.442 7.403 23.936 7.649 8.495.245 16.894-1.916 24.305-6.255 7.412-4.338 13.559-10.692 17.787-18.385 4.229-7.694 6.382-16.44 6.231-25.307Z" clip-rule="evenodd"/>
  <path fill="#00CCF5" fill-rule="evenodd" d="M112.655 35.198a3.12 3.12 0 0 0 1.787-.566c.53-.369.942-.893 1.186-1.507.243-.614.307-1.29.183-1.94a3.406 3.406 0 0 0-.881-1.72 3.177 3.177 0 0 0-1.647-.92 3.094 3.094 0 0 0-1.86.191 3.253 3.253 0 0 0-1.444 1.237 3.47 3.47 0 0 0-.542 1.867c-.001.44.082.878.244 1.286.161.407.398.778.697 1.09.299.312.654.56 1.045.728.39.168.809.255 1.232.254ZM4.375 92.27c.849 0 1.679-.263 2.384-.756a4.441 4.441 0 0 0 1.58-2.011 4.66 4.66 0 0 0 .242-2.589 4.539 4.539 0 0 0-1.178-2.292 4.235 4.235 0 0 0-2.2-1.222 4.12 4.12 0 0 0-2.478.26 4.335 4.335 0 0 0-1.922 1.655 4.619 4.619 0 0 0-.717 2.491 4.577 4.577 0 0 0 1.26 3.157 4.2 4.2 0 0 0 3.03 1.307Zm72.438-26.372a518.011 518.011 0 0 1 13.499-7.55c.161.273.335.596.518.96a636.944 636.944 0 0 0-13.46 7.577l-.557-.987Zm60.179-23.85c-2.068-3.74-14.609.233-32.358 8.891.165.287.331.582.487.882 17.005-8.45 28.871-12.517 30.377-9.245 2.369 4.282-24.82 25.29-60.701 46.921-35.882 21.631-66.912 35.695-69.28 31.413-1.35-2.545 5.325-9.482 11.321-15-8.635 7.273-13.164 12.877-11.674 15.568 3.379 6.113 36.085-5.909 72.494-27.835 36.408-21.927 62.731-45.48 59.334-51.594Z" clip-rule="evenodd"/>
  <path fill="#FA00E9" d="M72.55 69.452a7.127 7.127 0 0 1-.812-4.554 6.951 6.951 0 0 1 2.142-4.057 6.434 6.434 0 0 1 4.121-1.718 6.396 6.396 0 0 1 4.229 1.404 6.905 6.905 0 0 1 2.416 3.885 7.144 7.144 0 0 1-.496 4.604 6.72 6.72 0 0 1-3.181 3.23 6.33 6.33 0 0 1-4.422.388 6.243 6.243 0 0 1-2.313-1.161 6.535 6.535 0 0 1-1.684-2.021Z"/>
</svg>
