<svg xmlns="http://www.w3.org/2000/svg" xmlns:xlink="http://www.w3.org/1999/xlink" width="250px" height="43px" viewBox="0 0 250 43" version="1.1">
    <title>obviohealth</title>
    <g id="Page-1" stroke="none" stroke-width="1" fill="none" fill-rule="evenodd">
        <g id="obviohealth" fill-rule="nonzero">
            <path d="M27.5461622,0 C39.5222116,0 49.2307179,9.53994793 49.2307179,21.3080701 C49.2307179,33.0761923 39.5222116,42.6161402 27.5461622,42.6161402 C16.0213593,42.6161402 6.59644096,33.7815612 5.90255831,22.628425 L0,22.6287265 L0,19.0995774 L5.97671686,19.0991267 C7.10140341,8.36895195 16.3291778,0 27.5461622,0 Z M27.5461622,3.52914911 C18.3147303,3.52914911 10.6980483,10.3226822 9.59134561,19.0995097 L21.6325993,19.0992644 C22.5390281,16.7573611 24.8448205,15.0932163 27.5461622,15.0932163 C31.0391766,15.0932163 33.8708243,17.8757011 33.8708243,21.3080701 C33.8708243,24.7404391 31.0391766,27.5229239 27.5461622,27.5229239 C24.5142113,27.5229239 21.9805547,25.4265132 21.3645156,22.6283727 L9.50227444,22.6287449 C10.1899289,31.8310257 18.005713,39.0869911 27.5461622,39.0869911 C37.5386784,39.0869911 45.6392134,31.127097 45.6392134,21.3080701 C45.6392134,11.4890432 37.5386784,3.52914911 27.5461622,3.52914911 Z" id="Combined-Shape-Copy" fill="#FF4482"/>
            <path d="M71.1874326,33.5477069 C73.0903728,33.5477069 74.8226081,33.2301548 76.3841384,32.5950506 C77.9456687,31.9599465 79.2805253,31.0824999 80.3887081,29.962711 C81.4968909,28.842922 82.3560124,27.5253594 82.9660727,26.0100231 C83.5761329,24.4946868 83.881163,22.8567866 83.881163,21.0963224 C83.881163,19.3470003 83.5761329,17.7146712 82.9660727,16.1993349 C82.3560124,14.6839986 81.4968909,13.3692215 80.3887081,12.2550037 C79.2805253,11.1407858 77.9456687,10.2633392 76.3841384,9.62266397 C74.8226081,8.9819887 73.0903728,8.66165107 71.1874326,8.66165107 C69.2844924,8.66165107 67.5494587,8.97920316 65.9823315,9.61430733 C64.4152043,10.2494115 63.0747509,11.1240725 61.9609712,12.2382904 C60.8471915,13.3525082 59.9852715,14.6672853 59.3752113,16.1826216 C58.7651511,17.6979579 58.4601209,19.3358581 58.4601209,21.0963224 C58.4601209,22.8567866 58.7651511,24.4946868 59.3752113,26.0100231 C59.9852715,27.5253594 60.8471915,28.842922 61.9609712,29.962711 C63.0747509,31.0824999 64.4152043,31.9599465 65.9823315,32.5950506 C67.5494587,33.2301548 69.2844924,33.5477069 71.1874326,33.5477069 Z M71.1874326,28.8679919 C70.0904436,28.8679919 69.1137875,28.6925026 68.2574644,28.341524 C67.4011413,27.9905453 66.6791435,27.4807907 66.0914708,26.81226 C65.503798,26.1437292 65.053249,25.3275647 64.7398235,24.3637662 C64.4263981,23.3999678 64.2696854,22.3108198 64.2696854,21.0963224 C64.2696854,19.8929671 64.4263981,18.8093902 64.7398235,17.8455918 C65.053249,16.8817933 65.503798,16.0656287 66.0914708,15.397098 C66.6791435,14.7285673 67.4011413,14.2160271 68.2574644,13.8594774 C69.1137875,13.5029277 70.0904436,13.3246528 71.1874326,13.3246528 C72.2732279,13.3246528 73.2414886,13.5029277 74.0922148,13.8594774 C74.942941,14.2160271 75.6621405,14.7285673 76.2498132,15.397098 C76.8374859,16.0656287 77.288035,16.8817933 77.6014604,17.8455918 C77.9148859,18.8093902 78.0715986,19.8929671 78.0715986,21.0963224 C78.0715986,22.3108198 77.9148859,23.3999678 77.6014604,24.3637662 C77.288035,25.3275647 76.8374859,26.1437292 76.2498132,26.81226 C75.6621405,27.4807907 74.942941,27.9905453 74.0922148,28.341524 C73.2414886,28.6925026 72.2732279,28.8679919 71.1874326,28.8679919 Z M95.8821666,33.5477069 C96.9903494,33.5477069 98.0005867,33.3192922 98.9128786,32.8624629 C99.8251706,32.4056336 100.608734,31.7705294 101.263569,30.9571504 C101.918405,30.1437714 102.427721,29.185544 102.791518,28.0824683 C103.155316,26.9793926 103.337215,25.7760374 103.337215,24.4724025 C103.337215,23.0796301 103.177703,21.8372772 102.858681,20.7453437 C102.539659,19.6534102 102.100303,18.731395 101.540615,17.9792979 C100.980927,17.2272008 100.314898,16.6561642 99.542528,16.2661879 C98.7701581,15.8762117 97.9306257,15.6812236 97.0239307,15.6812236 C95.9157479,15.6812236 94.9502856,15.8734261 94.1275438,16.2578313 C93.304802,16.6422365 92.5688119,17.1519911 91.9195735,17.7870953 L91.9195735,17.7870953 L91.9195735,8.26053264 L86.7144724,8.26053264 L86.7144724,33.2802946 L90.173346,33.2802946 C90.509159,33.2802946 90.7806078,33.2134415 90.9876925,33.0797354 C91.1947771,32.9460293 91.3374977,32.7009013 91.415854,32.3443516 L91.415854,32.3443516 L91.6005511,31.4752617 C91.8692015,31.7761005 92.1462472,32.054655 92.4316883,32.3109251 C92.7171293,32.5671952 93.0305547,32.7872532 93.3719646,32.9710992 C93.7133744,33.1549451 94.0883656,33.2970079 94.496938,33.3972875 C94.9055105,33.4975671 95.3672533,33.5477069 95.8821666,33.5477069 Z M94.6396586,29.7370818 C94.1359391,29.7370818 93.6546072,29.65073 93.1956628,29.4780262 C92.7367184,29.3053224 92.3113553,29.001698 91.9195735,28.5671531 L91.9195735,28.5671531 L91.9195735,21.2133152 C92.1434488,20.9459029 92.3673241,20.7091316 92.5911994,20.5030013 C92.8150747,20.296871 93.0585391,20.1269528 93.3215926,19.9932467 C93.5846461,19.8595405 93.8700872,19.7564754 94.1779157,19.6840512 C94.4857443,19.6116271 94.8299526,19.575415 95.2105406,19.575415 C95.6247099,19.575415 95.9997011,19.6589813 96.3355141,19.826114 C96.671327,19.9932467 96.9595665,20.2690156 97.2002325,20.6534208 C97.4408984,21.0378259 97.628394,21.5420095 97.7627192,22.1659715 C97.8970444,22.7899335 97.964207,23.5587438 97.964207,24.4724025 C97.964207,25.4306298 97.8802537,26.2440089 97.7123473,26.9125396 C97.5444408,27.5810703 97.3121701,28.1242515 97.0155353,28.5420832 C96.7189005,28.9599149 96.3690954,29.2635392 95.9661198,29.4529563 C95.5631442,29.6423733 95.1209905,29.7370818 94.6396586,29.7370818 Z M115.271056,33.2802946 L122.020896,15.9486359 L117.890397,15.9486359 C117.554584,15.9486359 117.263546,16.0349877 117.017283,16.2076915 C116.77102,16.3803953 116.603114,16.5948822 116.513564,16.8511523 L116.513564,16.8511523 L113.994966,24.6228219 C113.793478,25.257926 113.603184,25.876317 113.424084,26.4779946 C113.244984,27.0796722 113.093868,27.6813499 112.970737,28.2830275 C112.847605,27.6813499 112.699288,27.0796722 112.525784,26.4779946 C112.352281,25.876317 112.170382,25.257926 111.980088,24.6228219 L111.980088,24.6228219 L109.562235,16.8511523 C109.472685,16.5948822 109.30198,16.3803953 109.05012,16.2076915 C108.79826,16.0349877 108.487633,15.9486359 108.118239,15.9486359 L108.118239,15.9486359 L103.786252,15.9486359 L110.536093,33.2802946 L115.271056,33.2802946 Z M127.104153,14.210456 C127.540709,14.210456 127.95208,14.1296752 128.338265,13.9681136 C128.72445,13.806552 129.063062,13.5892795 129.354099,13.3162962 C129.645137,13.0433128 129.87461,12.7257607 130.042516,12.3636399 C130.210423,12.0015191 130.294376,11.6143284 130.294376,11.2020678 C130.294376,10.778665 130.210423,10.3831177 130.042516,10.0154258 C129.87461,9.64773387 129.645137,9.32461069 129.354099,9.04605623 C129.063062,8.76750176 128.72445,8.55022928 128.338265,8.39423878 C127.95208,8.23824828 127.540709,8.16025303 127.104153,8.16025303 C126.678789,8.16025303 126.281411,8.23824828 125.912017,8.39423878 C125.542622,8.55022928 125.215205,8.76750176 124.929764,9.04605623 C124.644323,9.32461069 124.420447,9.64773387 124.258138,10.0154258 C124.095828,10.3831177 124.014673,10.778665 124.014673,11.2020678 C124.014673,11.6143284 124.095828,12.0015191 124.258138,12.3636399 C124.420447,12.7257607 124.644323,13.0433128 124.929764,13.3162962 C125.215205,13.5892795 125.542622,13.806552 125.912017,13.9681136 C126.281411,14.1296752 126.678789,14.210456 127.104153,14.210456 Z M129.689912,33.2802946 L129.689912,15.9486359 L124.484811,15.9486359 L124.484811,33.2802946 L129.689912,33.2802946 Z M141.758079,33.5477069 C143.078943,33.5477069 144.282273,33.3387911 145.368068,32.9209594 C146.453863,32.5031277 147.385744,31.9070211 148.163711,31.1326397 C148.941678,30.3582583 149.546141,29.4167442 149.977101,28.3080974 C150.408061,27.1994507 150.623541,25.9543122 150.623541,24.5726821 C150.623541,23.2021941 150.408061,21.9681978 149.977101,20.8706932 C149.546141,19.7731886 148.941678,18.8400312 148.163711,18.0712209 C147.385744,17.3024105 146.453863,16.7118751 145.368068,16.2996145 C144.282273,15.8873539 143.078943,15.6812236 141.758079,15.6812236 C140.42602,15.6812236 139.214295,15.8873539 138.122903,16.2996145 C137.031511,16.7118751 136.091235,17.3024105 135.302074,18.0712209 C134.512914,18.8400312 133.902853,19.7731886 133.471893,20.8706932 C133.040934,21.9681978 132.825454,23.2021941 132.825454,24.5726821 C132.825454,25.9543122 133.040934,27.1994507 133.471893,28.3080974 C133.902853,29.4167442 134.512914,30.3582583 135.302074,31.1326397 C136.091235,31.9070211 137.031511,32.5031277 138.122903,32.9209594 C139.214295,33.3387911 140.42602,33.5477069 141.758079,33.5477069 Z M141.758079,29.7036553 C140.526764,29.7036553 139.625666,29.2830381 139.054784,28.4418036 C138.483902,27.6005691 138.198461,26.3220041 138.198461,24.6061086 C138.198461,22.8902131 138.483902,21.6144337 139.054784,20.7787703 C139.625666,19.9431069 140.526764,19.5252752 141.758079,19.5252752 C142.955812,19.5252752 143.837321,19.9431069 144.402606,20.7787703 C144.967891,21.6144337 145.250534,22.8902131 145.250534,24.6061086 C145.250534,26.3220041 144.967891,27.6005691 144.402606,28.4418036 C143.837321,29.2830381 142.955812,29.7036553 141.758079,29.7036553 Z M157.772047,33.2802946 L157.772047,22.383244 L170.734428,22.383244 L170.734428,33.2802946 L174.008604,33.2802946 L174.008604,9.33018178 L170.734428,9.33018178 L170.734428,20.0099599 L157.772047,20.0099599 L157.772047,9.33018178 L154.497871,9.33018178 L154.497871,33.2802946 L157.772047,33.2802946 Z M186.429374,33.5142804 C187.045031,33.5142804 187.666285,33.461355 188.293136,33.3555043 C188.919987,33.2496536 189.527249,33.0908776 190.114922,32.8791762 C190.702594,32.6674748 191.253887,32.397277 191.7688,32.0685827 C192.283714,31.7398884 192.725867,31.3526977 193.095262,30.9070106 L193.095262,30.9070106 L192.255729,29.8206482 C192.121404,29.6312311 191.93111,29.5365226 191.684847,29.5365226 C191.494553,29.5365226 191.267879,29.6228745 191.004826,29.7955783 C190.741772,29.968282 190.414355,30.1549135 190.022573,30.3554727 C189.630791,30.556032 189.163451,30.7426635 188.620554,30.9153672 C188.077656,31.088071 187.431216,31.1744229 186.681234,31.1744229 C185.875283,31.1744229 185.147688,31.0435023 184.49845,30.7816611 C183.849211,30.5198199 183.289523,30.1242725 182.819385,29.5950191 C182.349247,29.0657656 181.979852,28.4055915 181.711202,27.6144968 C181.442552,26.8234021 181.297033,25.8930302 181.274645,24.8233811 L181.274645,24.8233811 L192.591542,24.8233811 C192.871386,24.8233811 193.06168,24.7453858 193.162424,24.5893953 C193.263168,24.4334048 193.31354,24.1214238 193.31354,23.6534523 C193.31354,22.450097 193.137238,21.3776624 192.784635,20.4361483 C192.432031,19.4946342 191.942304,18.7035395 191.315453,18.0628642 C190.688602,17.422189 189.944217,16.9319331 189.082297,16.5920967 C188.220377,16.2522602 187.2801,16.082342 186.261468,16.082342 C185.030153,16.082342 183.921971,16.2968289 182.936919,16.7258028 C181.951868,17.1547767 181.117932,17.7453121 180.435113,18.4974092 C179.752293,19.2495063 179.228984,20.138095 178.865187,21.1631754 C178.50139,22.1882559 178.319491,23.2913315 178.319491,24.4724025 C178.319491,25.9320279 178.520979,27.2245206 178.923954,28.3498806 C179.32693,29.4752406 179.889417,30.4195403 180.611414,31.1827795 C181.333412,31.9460187 182.189735,32.525412 183.180384,32.9209594 C184.171032,33.3165067 185.254029,33.5142804 186.429374,33.5142804 Z M190.627036,22.9682084 L181.375389,22.9682084 C181.576877,21.4974408 182.09179,20.3470108 182.920129,19.5169185 C183.748467,18.6868262 184.884635,18.2717801 186.32863,18.2717801 C187.01145,18.2717801 187.618712,18.3859874 188.150416,18.6144021 C188.68212,18.8428167 189.132669,19.1659399 189.502063,19.5837716 C189.871457,20.0016033 190.151301,20.4974303 190.341595,21.0712525 C190.531889,21.6450746 190.627036,22.2773933 190.627036,22.9682084 L190.627036,22.9682084 Z M201.0833,33.5477069 C201.732539,33.5477069 202.32301,33.491996 202.854714,33.3805742 C203.386418,33.2691524 203.887339,33.1048053 204.357477,32.8875328 C204.827615,32.6702603 205.275366,32.4028481 205.700729,32.085296 C206.126092,31.7677439 206.562649,31.4084086 207.010399,31.0072902 L207.010399,31.0072902 L207.346212,32.5783374 C207.402181,32.868034 207.519716,33.057451 207.698816,33.1465885 C207.877916,33.2357259 208.112985,33.2802946 208.404023,33.2802946 L208.404023,33.2802946 L209.730484,33.2802946 L209.730484,22.450097 C209.730484,21.5030119 209.601756,20.6339219 209.344299,19.8428273 C209.086843,19.0517326 208.706255,18.3776308 208.202535,17.8205219 C207.698816,17.2634129 207.077562,16.828868 206.338773,16.516887 C205.599985,16.204906 204.754855,16.0489155 203.803385,16.0489155 C202.482521,16.0489155 201.279191,16.271759 200.193396,16.7174462 C199.107601,17.1631333 198.094565,17.8372351 197.154288,18.7397516 L197.154288,18.7397516 L197.691589,19.6924079 C197.781139,19.8483984 197.901472,19.979319 198.052588,20.0851696 C198.203704,20.1910203 198.380006,20.2439457 198.581494,20.2439457 C198.83895,20.2439457 199.099205,20.1520227 199.362259,19.9681768 C199.625312,19.7843308 199.938738,19.5782005 200.302535,19.3497859 C200.666332,19.1213712 201.097292,18.9152409 201.595415,18.731395 C202.093538,18.547549 202.706396,18.455626 203.433991,18.455626 C204.542174,18.455626 205.378908,18.7926769 205.944193,19.4667787 C206.509478,20.1408805 206.792121,21.13532 206.792121,22.450097 L206.792121,22.450097 L206.792121,23.7704452 C204.866793,23.8150139 203.2381,23.9905032 201.906042,24.2969131 C200.573984,24.6033231 199.496584,24.9960849 198.673842,25.4751985 C197.8511,25.9543122 197.255032,26.5030645 196.885638,27.1214554 C196.516244,27.7398463 196.331547,28.3833071 196.331547,29.0518379 C196.331547,29.8206482 196.457477,30.4863933 196.709336,31.0490734 C196.961196,31.6117534 197.299807,32.0769393 197.72517,32.4446312 C198.150534,32.8123231 198.651455,33.088092 199.227934,33.271938 C199.804412,33.4557839 200.422868,33.5477069 201.0833,33.5477069 Z M201.973205,31.4585484 C201.581423,31.4585484 201.217625,31.4111942 200.881812,31.3164856 C200.545999,31.2217771 200.254962,31.0713577 200.008699,30.8652274 C199.762436,30.6590971 199.566545,30.3944704 199.421026,30.0713472 C199.275507,29.748224 199.202748,29.3638189 199.202748,28.9181317 C199.202748,28.4501602 199.339871,28.0267574 199.614118,27.6479234 C199.888366,27.2690893 200.327721,26.940395 200.932184,26.6618405 C201.536648,26.3832861 202.320211,26.157657 203.282875,25.9849532 C204.245539,25.8122494 205.415288,25.7036132 206.792121,25.6590445 L206.792121,25.6590445 L206.792121,29.185544 C206.456308,29.5420937 206.1121,29.8596458 205.759496,30.1382003 C205.406892,30.4167547 205.037498,30.653526 204.651313,30.8485141 C204.265128,31.0435023 203.853757,31.1939217 203.4172,31.2997724 C202.980644,31.4056231 202.499312,31.4585484 201.973205,31.4585484 Z M217.701732,33.2802946 L217.701732,8.66165107 L214.712997,8.66165107 L214.712997,33.2802946 L217.701732,33.2802946 Z M228.241949,33.5477069 C229.014319,33.5477069 229.764301,33.4112152 230.491896,33.1382318 C231.219491,32.8652485 231.840745,32.4891999 232.355658,32.0100863 L232.355658,32.0100863 L231.482544,30.5894585 C231.359413,30.4000415 231.219491,30.3053329 231.062778,30.3053329 C230.973228,30.3053329 230.869686,30.3471161 230.752151,30.4306825 C230.634617,30.5142488 230.491896,30.6061718 230.32399,30.7064514 C230.156083,30.806731 229.957394,30.898654 229.727922,30.9822203 C229.498449,31.0657866 229.227001,31.1075698 228.913575,31.1075698 C228.365081,31.1075698 227.91733,30.934866 227.570323,30.5894585 C227.223317,30.244051 227.049813,29.7147975 227.049813,29.001698 L227.049813,29.001698 L227.049813,18.8400312 L231.919101,18.8400312 L231.919101,16.6840196 L227.049813,16.6840196 L227.049813,10.8510892 L225.538655,10.8510892 C225.348361,10.8510892 225.191648,10.9040145 225.068517,11.0098652 C224.945385,11.1157159 224.872626,11.2522076 224.850238,11.4193403 L224.850238,11.4193403 L224.161822,16.6505931 L221.374574,17.0015717 L221.374574,18.1882137 C221.374574,18.4110573 221.43614,18.5754045 221.559271,18.6812551 C221.682403,18.7871058 221.833518,18.8400312 222.012619,18.8400312 L222.012619,18.8400312 L224.061078,18.8400312 L224.061078,29.2022573 C224.061078,30.6061718 224.422077,31.681392 225.144075,32.427918 C225.866072,33.1744439 226.898697,33.5477069 228.241949,33.5477069 Z M238.715004,33.2802946 L238.715004,20.8121968 C239.364242,20.0879552 240.072248,19.514133 240.839021,19.0907302 C241.605794,18.6673274 242.431334,18.455626 243.315642,18.455626 C244.524568,18.455626 245.422868,18.8093902 246.010541,19.5169185 C246.598213,20.2244469 246.89205,21.2188863 246.89205,22.5002369 L246.89205,22.5002369 L246.89205,33.2802946 L249.880785,33.2802946 L249.880785,22.5002369 C249.880785,21.5420095 249.757654,20.6673485 249.511391,19.8762538 C249.265128,19.0851591 248.904129,18.4082718 248.428394,17.8455918 C247.952659,17.2829117 247.359389,16.8483668 246.648585,16.5419569 C245.937781,16.235547 245.117838,16.082342 244.188755,16.082342 C243.035797,16.082342 242.017165,16.3135422 241.132857,16.7759426 C240.24855,17.238343 239.442599,17.8539484 238.715004,18.6227587 L238.715004,18.6227587 L238.715004,8.66165107 L235.726268,8.66165107 L235.726268,33.2802946 L238.715004,33.2802946 Z" id="ObvioHealth-Copy" fill="#342A2D"/>
        </g>
    </g>
</svg>
