<svg xmlns="http://www.w3.org/2000/svg" width="517" height="117" viewBox="0 0 517 117">
  <path fill="#2E4369" d="M516.4 51.1c0-30-20.9-51.1-50.2-51.1-37.3 0-62.3 27.1-62.3 65.8 0 30.2 21.1 51.1 50.9 51.1 27.1 0 47.3-13.1 55.6-34h-30.1c-4 6.5-12.5 10.6-22.9 10.6-16 0-26-10.6-26.9-25.6h84.2c1.1-5.7 1.7-10.6 1.7-16.8zm-83.6-3.5c2.7-13.8 16.1-24.8 32.3-24.8 14 0 24.6 10.2 24.6 24.8h-56.9zM323 114.2l5.4-28.8c16.5 3.3 19-6 23.3-28.4l2.1-11.1c6-31.3 18.1-46.9 52.7-42.7L401.1 32c-16.5-3.3-19.4 9.2-23.1 28.6l-2.1 11.1c-6 31.7-18.5 46.7-52.9 42.5zm-40.4.1L303 2.7h26.9l-20.3 111.6zM128.5 2.7h26.1l8.5 80.7 34.2-80.7h25.9l9.1 81.5 33-81.5h26L244 114.3h-29.6l-9.6-76.8-32.7 76.8h-28.6z"/>
  <path fill="#00B9FF" d="M31 32.3 0 61.9h52.7L58.2 49H31.5l16.7-16.7-9.7-16.7h45.3L42 114.3h15.7L105 2.7H13.6z"/>
</svg>
