<?xml version="1.0" encoding="UTF-8"?>
<svg width="633px" height="228px" viewBox="0 0 633 228" version="1.1" xmlns="http://www.w3.org/2000/svg" xmlns:xlink="http://www.w3.org/1999/xlink">
    <title>gsr</title>
    <g id="Third-Party-Sites" stroke="none" stroke-width="1" fill="none" fill-rule="evenodd">
        <g id="gsr" fill-rule="nonzero">
            <path d="M37.9094263,195.053428 C38.9094263,195.973428 45.5194263,197.493428 47.6194263,197.993428 C57.4694263,200.333428 64.2494263,202.143428 74.3794263,202.393428 C103.129426,203.123428 134.009426,187.823428 150.559426,165.453428 C164.099426,147.133428 167.449426,127.983428 176.789426,107.323428 C184.789426,89.5834282 210.519426,76.1734282 227.509426,93.3234282 C242.109426,108.053428 236.939426,132.263428 231.509426,149.173428 C226.689426,164.263428 208.779426,197.173428 173.369426,214.823428 C118.449426,242.123428 64.7994263,221.463428 37.9094263,195.053428 Z" id="Path" fill="#3379BC" style="mix-blend-mode: multiply;"></path>
            <path d="M1.46942634,93.9134282 C1.46942634,93.9134282 4.98942634,41.6934282 55.6994263,8.9134282 C73.1094263,-2.3365718 96.2194263,-4.4965718 100.419426,11.5934282 C102.689426,20.2834282 101.939426,32.9734282 75.1494263,46.5934282 C64.3994263,52.0534282 50.4494263,53.9034282 30.9194263,63.8634282 C6.06942634,76.5634282 1.46942634,93.9134282 1.46942634,93.9134282 Z" id="Path" fill="#4492CE"></path>
            <circle id="Oval" fill="#4492CE" cx="144.329426" cy="91.1434282" r="19.54"></circle>
            <path d="M64.2794263,87.0334282 C64.333182,89.4328066 63.4188828,91.7528296 61.7426606,93.47044 C60.0664384,95.1880504 57.769402,96.1586552 55.3694263,96.1634282 C50.310498,96.3014994 46.0974975,92.3123565 45.9594263,87.2534282 C45.8213551,82.1944999 49.810498,77.9814994 54.8694263,77.8433751 C59.9860429,77.8313697 64.1704601,81.9179578 64.2794263,87.0334282 L64.2794263,87.0334282 Z" id="Path" fill="#50A5D4" style="mix-blend-mode: multiply;"></path>
            <circle id="Oval" fill="#306BB2" cx="113.139426" cy="26.8434282" r="7.86"></circle>
            <path d="M27.3794263,110.423428 C42.8394263,152.893428 91.7794263,144.513428 123.879426,156.353428 C160.209426,169.743428 155.879426,208.293428 123.619426,218.453428 C93.4094263,227.973428 36.8194263,214.453428 11.2294263,158.783428 C-25.4005737,79.0734282 40.2094263,20.1334282 46.4094263,15.8434282 C53.3294263,11.0534282 63.2694263,6.5734282 67.0094263,14.3634282 C70.7494263,22.1534282 63.6694263,29.3634282 56.8994263,32.9334282 C37.6094263,43.2234282 26.0794263,54.2734282 22.8394263,76.8234282 C21.6694263,85.3634282 21.8494263,95.2334282 27.3794263,110.423428 Z" id="Path" fill="#50A5D4" style="mix-blend-mode: multiply;"></path>
            <path d="M6.90942634,146.423428 C10.6094263,156.573428 16.4394263,169.423428 25.0194263,169.545193 C33.1794263,169.663428 35.7394263,157.603428 29.1194263,150.673428 C23.2894263,144.573428 18.0194263,136.993428 15.4994263,130.033428 C13.0494263,123.263428 11.3494263,103.753428 18.5694263,90.1434282 C28.9794263,70.5034282 34.9494263,75.2534282 48.7394263,63.3634282 C61.2694263,52.5134282 56.1994263,28.1234282 30.0694263,41.2334282 C13.2294263,49.6834282 -12.4305737,93.4634282 6.90942634,146.423428 Z" id="Path" fill="#8BD5F2" opacity="0.5" style="mix-blend-mode: screen;"></path>
            <path d="M597.159426,116.443428 C604.889426,114.003428 610.889426,109.813428 615.159426,103.573428 C619.429426,97.3334282 624.519426,89.2834282 624.519426,79.2434282 C624.519426,71.9234282 623.519426,65.7634282 621.469426,60.6834282 C619.634246,55.8869706 616.625879,51.6271228 612.719426,48.2934282 C608.687367,45.034229 603.958257,42.7483786 598.899426,41.6134282 C592.894681,40.2471187 586.746654,39.6125054 580.589426,39.7234282 L525.119426,39.7234282 L525.119426,175.053428 L554.209426,175.053428 L554.209426,61.2234282 L570.209426,61.2234282 C573.340704,61.2751587 576.466173,61.5122402 579.569426,61.9334282 C582.157075,62.2161142 584.655362,63.0443318 586.899426,64.3634282 C588.970189,65.6502262 590.62896,67.5033306 591.679426,69.7034282 C592.829426,72.0134282 593.409426,75.2234282 593.409426,79.2834282 C593.505774,82.5633064 592.913009,85.8269196 591.669426,88.8634282 C590.639424,91.2840033 588.990961,93.3911395 586.889426,94.9734282 C584.821364,96.4477161 582.488976,97.5103617 580.019426,98.1034282 L579.639426,98.2334282 C571.909426,100.343428 563.779426,110.133428 569.289426,120.603428 C569.699426,121.373428 570.059426,121.823428 570.389426,122.603428 L599.049426,175.093428 L632.329426,175.093428 L597.159426,116.443428 Z" id="Path" fill="#083756"></path>
            <path d="M346.789426,120.663428 L365.789426,120.663428 L365.789426,153.063428 C364.194892,153.353255 362.58589,153.556884 360.969426,153.673428 C359.339426,153.813428 357.679426,153.913428 355.849426,153.983428 C354.019426,154.053428 348.569426,154.113428 346.849426,154.183428 C345.129426,154.253428 336.219426,154.283428 334.999426,154.283428 C326.459426,154.283428 320.226093,150.233428 316.299426,142.133428 C312.372759,134.033428 310.409426,122.630095 310.409426,107.923428 C310.409426,93.2100949 312.442759,81.8034282 316.509426,73.7034282 C320.576093,65.6034282 327.422759,61.5534282 337.049426,61.5534282 C341.929426,61.5534282 351.189426,61.3234282 357.419426,61.5534282 C360.199426,61.6734282 367.899426,61.0934282 371.589426,60.8934282 C381.949426,60.3334282 386.379426,45.0534282 386.379426,45.0534282 L387.649426,40.0534282 C380.799426,38.7634282 359.779426,38.1434282 337.059426,38.1434282 C317.799426,38.1434282 305.479426,44.1434282 295.649426,56.0334282 C285.819426,67.9234282 280.909426,85.0334282 280.909426,107.283428 C280.909426,130.056761 285.756093,147.476761 295.449426,159.543428 C305.139426,171.613428 316.989426,175.423428 335.019426,177.643428 C342.419426,178.553428 360.179426,177.813428 368.399426,176.213428 C376.239426,174.693428 383.539426,173.773428 392.399426,171.743428 L392.399426,99.1634282 L346.789426,99.1634282 L346.789426,120.663428 Z" id="Path" fill="#083756"></path>
            <path d="M505.669426,121.853428 C504.623102,117.866815 502.672696,114.174731 499.969426,111.063428 C496.666488,107.396564 492.700198,104.387069 488.279426,102.193428 C481.98889,99.0271703 475.462736,96.3525169 468.759426,94.1934282 C464.419426,92.8334282 458.639426,91.5034282 455.869426,90.1934282 C453.099426,88.8834282 447.159426,87.6534282 445.459426,86.4334282 C443.977344,85.4502027 442.755776,84.1222627 441.899426,82.5634282 C441.203173,81.1000591 440.860628,79.4935247 440.899426,77.8734282 C440.899426,72.8734282 442.289426,69.6134282 445.059426,66.6934282 C447.829426,63.7734282 456.389426,62.3134282 463.299426,62.3134282 C466.299426,62.3134282 486.409426,62.7634282 490.029426,62.5534282 C495.229426,62.2434282 502.459426,53.0034282 504.279426,42.4134282 C504.519426,40.9834282 504.139426,41.0234282 502.779426,40.7134282 C498.779426,39.7834282 468.859426,38.9334282 462.889426,38.9334282 C454.619426,38.9334282 443.739426,39.9334282 437.639426,41.8734282 C432.034815,43.5707512 426.842447,46.4103806 422.389426,50.2134282 C418.413306,53.6777159 415.312336,58.0327791 413.339426,62.9234282 C411.345648,67.7126577 410.342156,72.8559782 410.389426,78.0434282 C410.292992,83.1110574 410.943301,88.1652682 412.319426,93.0434282 C413.575504,97.1915436 415.729878,101.012059 418.629426,104.233428 C421.930098,107.773793 425.860207,110.669663 430.219426,112.773428 C435.945389,115.571038 441.896329,117.882505 448.009426,119.683428 C452.489426,121.043428 462.129426,122.403428 465.109426,123.753428 C467.580251,124.830285 469.927254,126.171429 472.109426,127.753428 C473.602451,128.80815 474.82279,130.203314 475.669426,131.823428 C476.32918,133.185645 476.671104,134.679854 476.669426,136.193428 C476.669426,141.893428 475.179426,146.403428 472.199426,149.723428 C469.199426,153.043428 461.259426,153.483428 453.399426,153.483428 C446.349426,153.483428 434.689426,153.303428 428.919426,153.483428 C421.729426,153.703428 413.809426,153.183428 408.919426,168.353428 L406.919426,175.493428 C414.109426,176.163428 421.919426,176.403428 428.439426,177.023428 L428.909426,177.023428 C436.049426,177.653428 445.619426,177.643447 453.309426,177.643447 C462.529426,177.643447 472.609426,176.523428 479.119426,174.283428 C485.053442,172.372874 490.525761,169.250213 495.189426,165.113428 C499.26821,161.423784 502.405465,156.81219 504.339426,151.663428 C506.247272,146.480186 507.209193,140.99656 507.179426,135.473428 C507.248377,130.888111 506.741072,126.312291 505.669426,121.853428 Z" id="Path" fill="#083756"></path>
        </g>
    </g>
</svg>