<svg xmlns="http://www.w3.org/2000/svg" xmlns:xlink="http://www.w3.org/1999/xlink" xml:space="preserve" width="672.47" height="194.282" version="1.0">
  <defs>
    <linearGradient id="d">
      <stop offset="0" stop-color="#52c0ee"/>
      <stop offset="1" stop-color="#002f7a" stop-opacity=".98"/>
    </linearGradient>
    <linearGradient id="e">
      <stop offset="0" stop-color="#131f65"/>
      <stop offset="1" stop-color="#52c0ee" stop-opacity=".98"/>
    </linearGradient>
    <linearGradient id="c">
      <stop offset="0" stop-color="#004c94"/>
      <stop offset="1" stop-color="#52c0ee" stop-opacity=".98"/>
    </linearGradient>
    <linearGradient id="b">
      <stop offset="0" stop-color="#ee312f"/>
      <stop offset="1" stop-color="#751024"/>
    </linearGradient>
    <linearGradient id="a" x1="0" x2="1" y1="0" y2="0" gradientTransform="scale(-19.0206 19.0206) rotate(75.31 16.228 -25.009)" gradientUnits="userSpaceOnUse" spreadMethod="pad">
      <stop offset="0" stop-color="#320000"/>
      <stop offset="1" stop-color="#5d0000"/>
    </linearGradient>
    <linearGradient xlink:href="#a" id="l" x1="0" x2="1" y1="0" y2="0" gradientTransform="scale(-4.85277 4.85277) rotate(75.31 -2.164 -23.884)" gradientUnits="userSpaceOnUse" spreadMethod="pad"/>
    <linearGradient xlink:href="#b" id="k" x1="189.525" x2="232.192" y1="58.031" y2="17.874" gradientTransform="translate(137.417 -12.393) scale(.77038)" gradientUnits="userSpaceOnUse"/>
    <radialGradient xlink:href="#c" id="j" cx="42.323" cy="94.08" r="2.598" fx="42.323" fy="94.08" gradientTransform="matrix(-8.40957 6.31464 -5.74575 -7.65196 1222.997 489.745)" gradientUnits="userSpaceOnUse"/>
    <radialGradient xlink:href="#b" id="i" cx="137.426" cy="99.408" r="7.614" fx="137.426" fy="99.408" gradientTransform="matrix(6.06426 -1.3131 1.05322 4.86405 -592.962 -255.479)" gradientUnits="userSpaceOnUse"/>
    <radialGradient xlink:href="#d" id="h" cx="121.393" cy="39.075" r="8.944" fx="121.393" fy="39.075" gradientTransform="matrix(4.44018 5.08838 -6.24542 5.44983 40.99 -803.689)" gradientUnits="userSpaceOnUse"/>
    <radialGradient xlink:href="#e" id="g" cx="69.567" cy="-26.194" r="12.642" fx="69.567" fy="-26.194" gradientTransform="matrix(2.32727 7.44569 -4.83517 1.51106 42.347 -555.299)" gradientUnits="userSpaceOnUse"/>
    <radialGradient xlink:href="#c" id="f" cx="-3.783" cy="99.872" r="4.986" fx="-3.783" fy="99.872" gradientTransform="matrix(-9.34453 3.15186 -2.30438 -6.83187 516.144 625.79)" gradientUnits="userSpaceOnUse"/>
  </defs>
  <path fill="#122a6b" d="M486.885 138.297c-18.877 0-31.21-9.44-31.21-31.983 0-19.108 10.55-33.875 33.763-33.875 4.997 0 11.327 1 15.55 2.666l-3.557 13.326c-3.767-1.333-7.437-2.332-11.547-2.332-11.882 0-16.771 7.775-16.771 19.436 0 11.327 4.444 18.882 16.104 18.882 5.443 0 9.216-1.332 12.886-2.778l1.886 13.106c-3.224 2-9.995 3.552-17.104 3.552zM334.508 65.556c5.777 0 10.441-4.444 10.441-10.108 0-5.556-4.664-9.774-10.44-9.774-5.326 0-10.103 4.218-10.103 9.774 0 5.664 4.777 10.108 10.102 10.108zm-8.995 71.63h16.325V73.55c-7.658-.783-16.325 1.333-16.325 13.327zm213.899-50.974c-7.32 0-14.321 5.443-14.321 19.436 0 12.106 4.551 18.877 14.105 18.877 8.104 0 14.326-6.55 14.326-19.431 0-12.332-4.444-18.882-14.11-18.882zm-.657 52.306c-18.108 0-30.768-9.878-30.768-32.096 0-19.877 13.326-34.208 32.654-34.208 17.991 0 29.652 10.112 29.652 31.768 0 20.768-12.655 34.536-31.538 34.536zM212.234 87.206c-3.557-1.328-9-2.66-13.44-2.66-5.11 0-8.995 1.332-8.995 5.997 0 10.994 28.206 4.223 28.206 26.878 0 15.325-12.44 21.21-26.432 21.21a65.53 65.53 0 0 1-18.77-2.774l1-13.439s9.328 3.106 17.104 3.106c5.443 0 9.887-1.665 9.887-6.437 0-11.774-28.324-4.219-28.324-26.766 0-14.105 11.886-19.882 24.992-19.882 7.77 0 13.993 1.446 17.765 2.778zM318.07 73.551c-3.552 18.878-12.66 48.642-18.437 63.634H282.31l-12.22-42.42h-.22l-12.214 42.42H240.44c-5.551-14.767-15.551-45.53-18.437-63.634h16.33l10.774 43.757h.215l12.886-43.757h16.33l12.547 43.424h.225l10.882-43.424zm334.855-1.337c12.327 0 19.544 6.668 19.544 21.214v43.757h-16.433v-40.42c0-6.556-1.896-10.887-8.892-10.887-6.992 0-13.106 6.105-13.106 17.1v34.207h-16.1v-40.42c0-6.115-1.998-10.887-9-10.887-7.33 0-12.993 6.776-12.993 17.77v33.537h-16.653V73.551c10.882-1.337 14.987 3.107 15.433 10.216 3.998-7.11 10.887-11.553 19.882-11.553 11.44 0 15.992 6.335 17.657 12.332 2.773-6.33 9.883-12.332 20.661-12.332zM391.258 87.206c-3.66-1.328-8.99-2.66-13.429-2.66-5.115 0-9.22 1.332-9.22 5.997 0 10.994 28.43 4.223 28.43 26.878 0 15.325-12.547 21.21-26.432 21.21-6.442 0-12.885-.995-18.995-2.774l1.225-13.439s9.329 3.106 17.104 3.106c5.218 0 9.77-1.665 9.77-6.437 0-11.774-28.432-4.219-28.432-26.766 0-14.105 11.994-19.882 24.987-19.882 7.775 0 14.218 1.446 17.996 2.778zm51.758 0c-3.552-1.328-8.996-2.66-13.44-2.66-5.105 0-9.107 1.332-9.107 5.997 0 10.994 28.323 4.223 28.323 26.878 0 15.325-12.44 21.21-26.432 21.21a65.516 65.516 0 0 1-18.77-2.774l1.112-13.439s9.216 3.106 16.991 3.106c5.444 0 9.887-1.665 9.887-6.437 0-11.774-28.323-4.219-28.323-26.766 0-14.105 11.886-19.882 24.987-19.882 7.775 0 14.105 1.446 17.77 2.778l-2.998 11.99"/>
  <path fill="url(#f)" d="M302.33-24.732c-3.735-4.806-6.594-10.974-5.776-17.173.988-7.49 5.712-13.927 11.247-18.796 5.463-4.806 12.048-8.09 18.721-10.87-2.495 1.445-4.289 3.53-5.661 5.887-1.373 2.359-2.346 5.034-3.095 7.851-1.5 5.635-2.226 11.708-4.228 16.457-1.483 3.827-3.518 7.254-5.888 10.417a67.802 67.802 0 0 1-5.32 6.227z" transform="matrix(1.23305 0 0 -1.23305 -337.848 86.204)"/>
  <path fill="url(#g)" d="M315.124 49.058c1.433-2.08 3.608-5.232 5.737-8.455.934-1.412 1.904-2.852 2.717-4.227.488-.824.889-1.57 1.283-2.34.478-.933.916-1.9 1.208-2.718.21-.583.319-1.135.378-1.585.015-.117.074-.196.075-.302V-87.65c1.431.12 2.886.254 4.379.453 1.492.2 2.992.397 4.529.68 1.899.351 3.869.803 5.812 1.283 1.943.48 3.852 1.048 5.813 1.66 1.656.517 3.337 1.049 4.982 1.662a92.198 92.198 0 0 1 4.907 1.962 87.865 87.865 0 0 1 4.303 2.038 80.352 80.352 0 0 1 4.152 2.265c1.764 1.028 3.474 2.086 5.133 3.246a62.676 62.676 0 0 1 4.755 3.699 54.973 54.973 0 0 1 4.907 4.756c1.53 1.677 2.964 3.423 4.227 5.284a42.824 42.824 0 0 1 3.473 6.19 39.087 39.087 0 0 1 2.34 6.718c.325 1.278.634 2.584.83 3.926.196 1.34.314 2.747.378 4.151.072 1.576.006 3.08-.151 4.605-.158 1.525-.459 3.053-.83 4.53-1.007 3.964-2.737 7.774-5.058 11.474a62.418 62.418 0 0 1-4.982 6.869 97.339 97.339 0 0 1-6.19 6.718c-2.252 2.236-4.656 4.432-7.172 6.643a300.352 300.352 0 0 1-7.85 6.643c-1.662 1.36-3.355 2.709-5.058 4.077-1.702 1.368-3.406 2.77-5.133 4.152-1.328 1.063-2.669 2.096-4.001 3.17a681.79 681.79 0 0 0-4.001 3.246 345.704 345.704 0 0 0-8.832 7.473c-2.554 2.3-5.035 4.514-7.398 6.794-.781.753-1.496 1.488-2.265 2.265.747-.901 1.452-1.979 2.19-3.095-.74 1.119-1.441 2.192-2.19 3.095a146.752 146.752 0 0 0-7.397 8.077zm16.531-23.552z" transform="matrix(1.23305 0 0 -1.23305 -337.848 86.204)"/>
  <path fill="url(#h)" d="M315.149 48.983C323.12 37.42 326.217 33.88 326.61 28.61c0-32.057.247-67.781.247-99.838 19.843 20.179 34.857 45.564 42.306 72.897-16.96 14.28-39.42 30.294-54.015 47.314z" transform="matrix(1.23305 0 0 -1.23305 -337.848 86.204)"/>
  <path fill="url(#i)" d="M333.618 55.248c-3.178-.466-9.531-.457-8.304-5.1 0-3.986 1.22-9.067 1.219-13.054 13.372-12.16 29.838-25.335 42.641-35.423 3.221 13.136 2.193 28.029-5.6 38.37-6.879 9.273-18.317 15.446-29.956 15.207z" transform="matrix(1.23305 0 0 -1.23305 -337.848 86.204)"/>
  <path fill="url(#j)" d="M324.258 69.893c-3.766-.309-7.613-1.453-10.532-3.934-2.209-2.004-3.297-5.127-2.754-8.069.65-3.48 2.432-6.645 4.613-9.39 1.68-2.02 3.461-3.948 5.284-5.839a162.77 162.77 0 0 1 5.653-5.559v32.64c-.738.19-1.508.184-2.264.15z" transform="matrix(1.23305 0 0 -1.23305 -337.848 86.204)"/>
  <path fill="url(#k)" d="M311.882 54.643c-12.31-9.854-26.822-18.096-35.046-32.022-5.573-9.285-2.462-21.458 5.07-28.657 11.189-11.09 25.704-20.017 31.638-35.326 4.003-9.496 3.01-24.396 12.99-30.178.052 12.35.049 12.308-.01 28.264-6.713 1.372-8.626 7.541-9.332 12.874-.669 5.777-3.206 11.47-8.36 14.571-5.285 3.796-13.05 7.992-12.007 15.678.541 6.743 8.165 8.082 13.168 10.455 8.319 3.198 5.812 17.964 16.49 19.158.15 3.582-3.943 8.779-5.997 11.792-3.022 4.432-6.221 8.635-8.604 13.391z" transform="matrix(1.23305 0 0 -1.23305 -337.848 86.204)"/>
  <path fill="url(#l)" d="M138.882 80.158c-.064.011-.114.02-.196.042a3.558 3.558 0 0 0-1.057.47c-2.883 1.851-.712 5.62-4.284 8.339-.245-.248-.664-.597-1.254-1.188l-1.269-1.497c1.318-1.375 2.541-2.907 3.418-4.721 1.046-2.296 1.212-4.884 2.012-7.262.292-.87.728-1.67 1.271-2.413.34-.462.748-.88 1.359-1.131v9.361" transform="matrix(3.72323 0 0 -3.72323 -452.135 438.092)"/>
</svg>
