<svg xmlns="http://www.w3.org/2000/svg" width="202" height="118" fill="none" viewBox="0 0 202 118">
  <g clip-path="url(#a)">
    <path fill="#3379BC" d="M13.978 87.628c.316.29 2.404.771 3.068.93 3.112.738 5.254 1.31 8.455 1.39 9.083.23 18.84-4.604 24.07-11.672 4.277-5.788 5.336-11.839 8.287-18.367 2.527-5.605 10.657-9.842 16.025-4.423 4.613 4.654 2.98 12.303 1.264 17.646-1.523 4.768-7.182 15.166-18.37 20.743-17.352 8.625-34.303 2.098-42.8-6.247Z" style="mix-blend-mode:multiply"/>
    <path fill="#4492CE" d="M2.464 55.672S3.576 39.174 19.6 28.816c5.5-3.554 12.802-4.237 14.13.847.716 2.746.48 6.755-7.985 11.058-3.397 1.726-7.804 2.31-13.975 5.457-7.851 4.013-9.305 9.495-9.305 9.495Zm45.138 5.299a6.174 6.174 0 1 0 0-12.347 6.174 6.174 0 0 0 0 12.347Z"/>
    <path fill="#50A5D4" d="M22.31 53.499a2.822 2.822 0 0 1-2.816 2.884 2.895 2.895 0 1 1-.158-5.788A2.967 2.967 0 0 1 22.31 53.5Z" style="mix-blend-mode:multiply"/>
    <path fill="#306BB2" d="M37.747 36.965a2.483 2.483 0 1 0 0-4.967 2.483 2.483 0 0 0 0 4.967Z"/>
    <path fill="#50A5D4" d="M10.65 60.889c4.885 13.419 20.348 10.77 30.49 14.512 11.48 4.23 10.111 16.41-.082 19.62-9.545 3.008-27.425-1.263-35.51-18.853-11.573-25.184 9.156-43.807 11.115-45.162 2.187-1.514 5.327-2.93 6.51-.468 1.18 2.461-1.056 4.74-3.195 5.868-6.095 3.25-9.738 6.742-10.762 13.867-.37 2.698-.313 5.816 1.435 10.616Z" style="mix-blend-mode:multiply"/>
    <path fill="#8BD5F2" d="M4.183 72.263c1.17 3.207 3.011 7.267 5.722 7.306 2.578.037 3.387-3.773 1.296-5.963-1.843-1.927-3.508-4.322-4.304-6.521-.774-2.14-1.311-8.303.97-12.604 3.29-6.205 5.176-4.704 9.532-8.461 3.96-3.428 2.357-11.134-5.898-6.992C6.18 41.698-1.928 55.53 4.183 72.263Z" opacity=".5" style="mix-blend-mode:screen"/>
    <path fill="#083756" d="M190.676 62.79c2.442-.77 4.338-2.094 5.687-4.065 1.349-1.972 2.958-4.515 2.958-7.688 0-2.312-.316-4.259-.964-5.864a9.702 9.702 0 0 0-2.765-3.915 10.659 10.659 0 0 0-4.366-2.11 24.119 24.119 0 0 0-5.785-.597h-17.526v42.758h9.191V45.344h5.055c.989.016 1.977.091 2.957.224.818.09 1.607.351 2.316.768a4.03 4.03 0 0 1 1.511 1.687c.363.73.546 1.744.546 3.027a7.402 7.402 0 0 1-.55 3.027 4.735 4.735 0 0 1-1.51 1.93 6.25 6.25 0 0 1-2.17.99l-.121.04c-2.442.667-5.011 3.76-3.27 7.068.13.244.244.386.348.632l9.055 16.585h10.515L190.676 62.79Zm-79.106 1.334h6.003v10.237c-.503.092-1.012.156-1.523.193-.515.044-1.039.076-1.617.098-.578.022-2.3.041-2.844.063-.543.022-3.358.032-3.744.032-2.698 0-4.668-1.28-5.908-3.84-1.241-2.558-1.861-6.161-1.861-10.808 0-4.649.642-8.253 1.927-10.812 1.285-2.56 3.448-3.839 6.49-3.839 1.542 0 4.467-.072 6.436 0 .878.038 3.311-.145 4.477-.208 3.273-.177 4.673-5.005 4.673-5.005l.401-1.58c-2.164-.407-8.806-.603-15.984-.603-6.085 0-9.978 1.895-13.084 5.652s-4.657 9.163-4.657 16.193c0 7.195 1.531 12.7 4.594 16.512 3.062 3.813 6.806 5.017 12.502 5.718 2.338.288 7.95.054 10.547-.451 2.477-.48 4.784-.771 7.583-1.413V57.331H111.57v6.793Zm50.199.376a8.474 8.474 0 0 0-1.801-3.409 12.36 12.36 0 0 0-3.693-2.802c-1.988-1-4.05-1.846-6.168-2.528-1.371-.43-3.197-.85-4.072-1.264-.876-.414-2.752-.802-3.289-1.188a3.465 3.465 0 0 1-1.125-1.223 3.27 3.27 0 0 1-.316-1.481c0-1.58.439-2.61 1.314-3.533.875-.922 3.58-1.384 5.763-1.384.948 0 7.302.142 8.446.076 1.643-.098 3.927-3.017 4.502-6.363.076-.452-.044-.44-.474-.537-1.264-.294-10.717-.563-12.603-.563-2.613 0-6.051.316-7.978.93a13.402 13.402 0 0 0-4.819 2.634 10.57 10.57 0 0 0-2.859 4.016 12.14 12.14 0 0 0-.932 4.777 16.33 16.33 0 0 0 .61 4.74 9.325 9.325 0 0 0 1.993 3.535 12.344 12.344 0 0 0 3.662 2.698c1.81.884 3.69 1.615 5.621 2.184 1.416.43 4.462.86 5.403 1.286.781.34 1.522.764 2.212 1.264.471.333.857.773 1.125 1.285.208.43.316.903.316 1.381 0 1.801-.471 3.226-1.413 4.275-.948 1.049-3.456 1.188-5.94 1.188-2.227 0-5.911-.057-7.734 0-2.272.07-4.774-.095-6.319 4.698l-.632 2.256c2.271.212 4.739.288 6.799.484h.148c2.256.199 5.28.195 7.71.195 2.913 0 6.098-.353 8.155-1.061a14.23 14.23 0 0 0 5.077-2.897 10.895 10.895 0 0 0 2.891-4.25c.603-1.638.907-3.37.897-5.115a17.273 17.273 0 0 0-.477-4.304Z"/>
  </g>
  <defs>
    <clipPath id="a">
      <path fill="#fff" d="M0 0h253v72H0z" transform="translate(-22 26)"/>
    </clipPath>
  </defs>
</svg>
