<svg width="600" height="115" viewBox="0 0 600 115" fill="none" xmlns="http://www.w3.org/2000/svg">
<path d="M49.9 0L0 28.8V86.4L49.9 115.2L99.8 86.4V28.8L49.9 0ZM49.9 0L0 28.8V86.4L49.9 115.2L99.8 86.4V28.8L49.9 0Z" fill="white"/>
<path d="M69.6 92.7H62.5L54 84.9V80.9L62.8 72.5V59.2L74.3 51.7L87.4 61.6L69.6 92.7ZM40.2 71.7L41.5 59.2L37.2 48H62.6L58.4 59.2L59.6 71.7H49.8H40.2ZM46 84.9L37.5 92.8H30.3L12.4 61.6L25.6 51.8L37.2 59.2V72.5L46 80.9V84.9ZM30.2 24.9H69.5L74.2 44.9H25.6L30.2 24.9ZM49.9 0L0 28.8V86.4L49.9 115.2L99.8 86.4V28.8L49.9 0Z" fill="#03316C"/>
<path d="M155.8 84.3C142.6 84.3 132.9 74 132.9 61.3C132.9 48.6 142.7 38 155.9 38C164.3 38 169.5 41.1 173.6 45.6L167.3 52.4C164.2 49.1 160.9 46.9 155.8 46.9C148.4 46.9 143 53.3 143 61.1C143 69.1 148.5 75.5 156.3 75.5C161.1 75.5 164.6 73.2 167.8 70L173.9 76.1C169.5 80.8 164.4 84.3 155.8 84.3Z" fill="#002E73"/>
<path d="M193.2 84.3H183V38.1H193.2V48.9C196 42.3 201.1 37.7 208.9 38.1V48.9H208.3C199.4 48.9 193.2 54.7 193.2 66.5V84.3Z" fill="#002E73"/>
<path d="M262.2 37.9L239.7 96.7H229.4L234.3 84.3L215 37.9H225.9L239 72.2L251.6 37.9H262.2Z" fill="#002E73"/>
<path d="M292.2 46.8C285.3 46.8 279.3 52.4 279.3 61.1C279.3 69.8 285.4 75.4 292.2 75.4C299.2 75.4 304.9 69.9 304.9 61.1C304.9 52.3 299.1 46.8 292.2 46.8ZM294.5 84.2C287.2 84.2 282.6 80.5 279.5 76.4V96.7H269.3V37.9H279.5V46.2C282.8 41.6 287.4 37.9 294.5 37.9C305 37.9 315.2 46.2 315.2 61C315.2 75.8 305.1 84.2 294.5 84.2Z" fill="#002E73"/>
<path d="M337.5 47.6V69.4C337.5 73.3 339.5 74.9 343 74.9H347V84H340C332.6 84 327.3 80.7 327.3 71V47.6H321.7V38.9H327.3V26.7H337.5V38.9H347V47.6H337.5Z" fill="#002E73"/>
<path d="M379.1 46.8C370.9 46.8 365.7 53.2 365.7 61C365.7 68.9 371.3 75.4 379.2 75.4C387.4 75.4 392.6 69 392.6 61.2C392.8 53.3 387.1 46.8 379.1 46.8ZM379.1 84.3C365.6 84.3 355.6 74 355.6 61.3C355.6 48.5 365.7 38 379.3 38C392.9 38 402.9 48.3 402.9 61.1C402.9 73.7 392.9 84.3 379.1 84.3Z" fill="#002E73"/>
<path d="M500.2 46.8C492 46.8 486.8 53.2 486.8 61C486.8 68.9 492.4 75.4 500.3 75.4C508.5 75.4 513.7 69 513.7 61.2C513.8 53.3 508.2 46.8 500.2 46.8ZM500.2 84.3C486.7 84.3 476.7 74 476.7 61.3C476.7 48.5 486.8 38 500.4 38C514 38 524 48.3 524 61.1C524 73.7 513.9 84.3 500.2 84.3Z" fill="#002E73"/>
<path d="M584.4 37.9C594.1 37.9 600 44 600 54.9V84.2H589.8V58C589.8 50.9 586.5 47.2 580.8 47.2C575.3 47.2 571.3 51.1 571.3 58.2V84.3H561.1V58C561.1 51.1 557.7 47.2 552.1 47.2C546.5 47.2 542.6 51.4 542.6 58.3V84.3H532.4V38H542.6V45.6C545.5 41.7 549.3 38 556.1 38C562.5 38 566.9 41.1 569.3 45.8C573 41 577.7 37.9 584.4 37.9Z" fill="#002E73"/>
<path d="M421.6 74.9V80.1L421.3 80.6L416.8 83.1H416.2L411.8 80.6L411.5 80.1V74.9L411.8 74.4L416.2 71.9H416.8L421.3 74.4L421.6 74.9Z" fill="#002E73"/>
<path d="M452.5 84.2001C439.3 83.9001 429.8 73.4001 430 60.7001C430.2 48.0001 440.2 37.6001 453.5 37.9001C461.9 38.1001 467.1 41.3001 471.1 45.9001L464.7 52.6001C461.7 49.3001 458.4 46.9001 453.3 46.8001C445.9 46.7001 440.4 52.9001 440.3 60.8001C440.1 68.8001 445.5 75.3001 453.3 75.4001C458.1 75.5001 461.7 73.3001 464.9 70.1001L470.9 76.3001C466.4 81.0001 461.2 84.4001 452.5 84.2001Z" fill="#002E73"/>
</svg>
