<svg xmlns="http://www.w3.org/2000/svg" width="266" height="80" fill="none" viewBox="0 0 266 80">
  <path fill="#000" d="M34 0v5.473h38.93V0H34Zm44.446 0v5.473h55.476S128.256 0 120.75 0H78.446Zm66.359 0v5.473h33.563L176.375 0h-31.57Zm57.626 0-1.994 5.473h33.259V0h-31.265ZM34 10.644v5.473h38.93v-5.473H34Zm44.446.007v5.466h61.914s-.723-4.213-1.985-5.466h-59.93Zm66.359 0v5.466h37.242l-1.843-5.466h-35.399Zm53.642 0-1.844 5.466h37.094v-5.466h-35.25ZM45.188 21.288v5.482h16.86v-5.482h-16.86Zm44.445 0v5.482h16.859v-5.482h-16.86Zm33.258 0v5.482h16.86s1.07-2.896 1.07-5.482h-17.93Zm33.102 0v5.482h29.891l-1.992-5.482h-27.899Zm38.78 0-2 5.482h30.04v-5.482h-28.04ZM45.188 31.941v5.474h16.86V31.94h-16.86Zm44.445 0v5.474h43.063s3.602-2.81 4.751-5.474H89.633Zm66.36 0v5.474h16.86v-3.048l1.07 3.048h30.883l1.148-3.048v3.048h16.86V31.94h-31.648l-1.679 4.637-1.688-4.637h-31.806ZM45.188 42.585v5.475h16.86v-5.475h-16.86Zm44.445 0v5.475h47.814c-1.15-2.657-4.751-5.475-4.751-5.475H89.633Zm66.36 0v5.475h16.86v-5.475h-16.86Zm19.922 0 2.039 5.475h23.155l1.938-5.475h-27.132Zm30.039 0v5.475h16.86v-5.475h-16.86ZM45.188 53.23v5.474h16.86V53.23h-16.86Zm44.445 0v5.474h16.859V53.23h-16.86Zm33.258 0v5.474h17.93c0-2.583-1.07-5.474-1.07-5.474h-16.86Zm33.102 0v5.474h16.86V53.23h-16.86Zm23.749 0 1.977 5.474h15.525l1.992-5.474h-19.494Zm26.212 0v5.474h16.86V53.23h-16.86ZM34.304 63.875v5.48h38.93v-5.48h-38.93Zm44.142 0v5.48h59.93c1.261-1.254 1.985-5.48 1.985-5.48H78.446Zm66.664 0v5.48h27.743v-5.48H145.11Zm38.469 0 2.032 5.48h7.898l1.907-5.48h-11.837Zm22.375 0v5.48H234v-5.48h-28.046ZM34.304 74.526V80h38.93v-5.474h-38.93Zm44.142 0v5.465h42.304c7.506 0 13.172-5.465 13.172-5.465H78.446Zm66.664 0V80h27.743v-5.474H145.11Zm42.321 0 1.953 5.457.336.008 1.985-5.465h-4.274Zm18.523 0V80H234v-5.474h-28.046Z"/>
</svg>
