<svg width="140" height="53" viewBox="0 0 140 53" fill="none" xmlns="http://www.w3.org/2000/svg">
<path fill-rule="evenodd" clip-rule="evenodd" d="M113.213 24.9858H109.23V8.75551H112.979V10.5734C113.447 9.48266 114.619 8.51603 116.142 8.39302C118.719 8.27327 120.477 9.84733 120.477 13.2371V24.9848H116.37V12.7505C116.37 11.2962 116.37 10.0857 115.423 9.84406C115.071 9.72432 114.475 9.84406 114.016 10.2065C113.432 10.8129 113.195 11.54 113.195 12.7505V24.9825L113.213 24.9858ZM45.4976 9.84406C44.55 8.99499 43.3886 8.38975 41.9809 8.38975C40.5731 8.38975 39.5212 8.99607 38.4663 9.84406C36.8258 11.2984 35.7708 13.962 35.7708 16.8685C35.7708 19.8968 36.8237 22.4397 38.4663 23.8929C39.5212 24.742 40.5752 25.3472 41.9809 25.3472C43.3865 25.3472 44.5584 24.743 45.4976 23.8929C47.256 22.4387 48.1931 19.8957 48.1931 16.8685C48.1931 13.962 47.2455 11.2973 45.4976 9.84406ZM43.975 16.8685C43.975 19.8968 43.975 22.3189 43.5055 23.5304C43.1549 24.1346 42.8106 24.5101 41.983 24.5101C41.2881 24.5101 40.8122 24.1466 40.5763 23.5304C39.9898 22.3189 39.9898 19.8947 39.9898 16.8685C39.9898 13.962 39.9898 11.4181 40.5763 10.2065C40.8111 9.6024 41.2712 9.22685 41.983 9.22685C42.8042 9.22685 43.1549 9.59042 43.5065 10.2065C44.093 11.4181 43.9761 13.962 43.9761 16.8685H43.975ZM86.3823 31.1622V35.5219H85.5631C85.0945 33.7062 84.3912 32.1387 82.517 32.0091C81.3452 31.8894 80.2912 32.6155 80.1733 33.7052C80.0553 34.7948 80.4081 35.7625 82.517 36.9751C85.2125 38.5502 87.3204 39.2763 87.3204 42.5464C87.3204 46.0591 84.3912 47.754 81.9316 47.754H77.2462V41.6973H78.0674C78.6539 44.8465 79.591 46.7841 81.8158 46.9049C83.2225 46.9049 84.2753 46.0559 84.2753 44.4829C84.2753 42.9099 83.3277 41.9389 81.1125 40.6077C78.6529 39.0336 77.1293 38.0647 77.1293 35.8833C77.1293 32.9769 79.1214 31.159 82.2844 31.159H86.3907L86.3823 31.1622ZM91.5383 24.9848V13.2371C91.5383 9.84515 89.78 8.2711 87.2035 8.39302C85.4452 8.51276 84.3923 9.7265 83.9227 10.6942C83.3383 8.99825 82.0485 8.27219 80.1743 8.39302C78.6529 8.51276 77.4788 9.48374 77.0114 10.5734V8.75551H73.3788V24.9749H77.3609V12.7548C77.3609 11.5433 77.4767 10.8172 78.1822 10.2109C78.6518 9.84841 79.1193 9.72758 79.4699 9.84841C80.4175 10.0912 80.4175 11.3027 80.4175 12.7548V24.9858H84.3817V12.6307C84.3817 11.54 84.6155 10.8129 85.203 10.2076C85.6716 9.84515 86.1507 9.72432 86.4907 9.84515C87.4383 10.0879 87.5436 11.2994 87.5436 12.7516V24.9749H91.5269L91.5383 24.9848ZM50.8991 5.36249H55.0054V24.9825H50.8991V5.36249ZM69.5146 24.9858V5.36467H65.4082V9.96706C65.0576 9.118 64.2363 8.51276 63.0655 8.51276C60.1363 8.51276 57.7936 11.6619 57.6766 16.506C57.5609 19.776 58.6137 25.2253 62.7138 25.2253C64.3532 25.2253 65.2914 24.2456 65.643 23.4074V24.9825H69.5093L69.5146 24.9858ZM64.7112 10.089C65.5325 11.3005 65.5325 14.2059 65.5325 16.5071C65.5325 18.9291 65.6483 22.0783 64.7112 23.4107C64.3595 23.8961 64.0163 24.1292 63.4235 24.1292C62.6022 24.1292 62.1336 23.1495 61.901 21.5862C61.7831 20.132 61.7831 18.3163 61.7831 16.3786C61.7831 13.1086 62.0179 9.47504 63.5414 9.47504C64.1279 9.47504 64.3627 9.71779 64.7133 10.0814L64.7112 10.089ZM103.724 9.23991C104.777 9.84623 105.482 10.815 105.482 12.9954V24.9858H101.616V23.1679C101.147 24.4993 99.8575 25.3472 98.0991 25.3472C96.6924 25.3472 94.2328 24.6288 94.2328 20.8657C94.2328 17.3529 96.4587 16.6203 98.9183 15.5372C101.144 14.5575 101.378 14.4465 101.378 13.4798V10.815C101.378 9.7265 100.794 9.241 99.6195 9.241C99.151 9.36074 98.3318 9.60457 98.3318 10.2207C98.2139 10.9391 99.0267 10.9391 99.1531 12.0386C99.2689 13.7345 97.9812 14.3387 96.8104 14.2179C95.9891 14.2179 95.052 13.7335 94.9361 12.4022C94.8204 10.2218 97.162 8.405 100.436 8.405C101.959 8.405 102.896 8.76857 103.716 9.25406L103.724 9.23991ZM101.38 15.2955L100.092 16.1446C98.8045 16.9936 98.5687 18.0822 98.4519 19.2938C98.336 20.2735 98.336 21.1117 98.4519 22.5638C98.5676 23.8951 99.3889 24.1389 100.092 23.8951C100.914 23.5316 101.38 21.9575 101.38 20.2594V15.2934V15.2955ZM45.7334 31.8894C46.7885 32.6078 47.3728 33.4646 47.3728 35.645V47.7584H43.6245V45.9405C43.1559 47.152 41.8682 47.9978 40.1078 47.9978C38.5852 47.9978 36.2415 47.3914 36.2415 43.6382C36.2415 40.1254 38.4672 39.3928 40.8111 38.3097C43.1549 37.2266 43.3865 37.0982 43.3865 36.2523V33.5854C43.3865 32.3738 42.8001 31.8906 41.6302 32.0114C41.1606 32.0114 40.3404 32.2541 40.3404 32.8604C40.2246 33.7095 41.0354 33.7095 41.1617 34.7981C41.2796 36.3732 39.9898 36.9784 38.819 36.9784C37.9976 36.8587 37.0606 36.3742 36.9448 35.0408C36.8289 32.9834 39.1706 31.1655 42.4442 31.1655C43.9677 31.1655 44.9037 31.4082 45.725 31.884L45.7334 31.8894ZM43.3897 37.9451L42.1019 38.7941C40.8142 39.6432 40.5794 40.7318 40.4615 41.9432C40.3457 42.9121 40.3457 43.8809 40.4615 45.2133C40.4615 46.6676 41.2827 46.9082 41.9851 46.5447C42.9222 46.181 43.3918 44.7289 43.3918 42.9111V37.9451H43.3897ZM74.0843 36.0074C74.0843 32.6155 72.3259 30.9206 69.7494 31.1633C68.4617 31.2831 67.4066 31.8818 66.8202 32.7385V28.0142H62.8391V39.1577C62.8391 43.2757 60.0278 47.151 57.2165 47.0301C55.2265 47.0301 54.7559 45.456 54.5211 43.7601C54.1694 41.3369 54.1694 38.5525 54.4031 35.5241C54.6379 33.5865 55.0981 32.0114 56.5121 32.0114C57.5672 32.0114 57.684 32.7298 57.207 33.2229C56.7374 33.8292 56.0352 34.4344 56.3858 35.7668C56.7364 37.2211 58.9612 37.4617 60.0184 36.3732C60.8396 35.4044 60.7132 33.8292 60.1341 32.8604C59.4392 31.6488 58.26 31.1655 56.5016 31.1655C54.2758 31.1655 50.0578 33.2229 50.0578 39.7651C50.0578 46.7896 54.3926 48 56.8522 48C59.6635 48 62.1242 45.456 62.8264 43.3976V47.7594H66.8097V35.5252C66.8097 34.3136 67.0445 33.5875 67.6309 32.9812C68.1005 32.6188 68.686 32.4969 69.0376 32.6188C69.9747 32.8604 69.9747 34.073 69.9747 35.5252V47.7584H74.0811V36.0096L74.0843 36.0074ZM33.0796 5V11.9036H32.2582C31.5633 8.51167 30.0323 5.96881 27.9234 5.84798C26.5167 5.72824 25.6986 6.56643 24.9942 7.7856C24.2993 9.23991 23.9392 12.2672 23.9392 15.8997C23.9392 19.2916 24.0571 21.8345 24.4088 23.6501C24.6425 24.4993 25.23 25.8305 26.7515 25.8305C27.5728 25.8305 28.1582 25.5878 28.5099 25.1121C29.0963 24.3936 29.2048 22.9317 29.2048 21.9629V18.694C29.2048 17.4824 28.8531 16.7564 28.2677 16.3927C27.7992 16.15 27.0958 16.15 26.7452 16.0292V15.1801H33.3049V32.4882H32.4836C32.1361 31.1688 31.9013 30.1999 31.3149 29.1114C30.7283 28.0229 29.6744 26.8113 27.9171 26.8113C26.0429 26.6894 24.6362 27.9021 24.6362 29.7177C24.6362 32.1409 26.0429 32.7462 28.6194 34.1994C31.0801 35.6537 34.242 36.8641 34.242 41.104C34.242 45.222 30.8442 47.766 26.9789 47.766H20.7688V39.4168H21.5901C22.6451 45.714 25.2227 46.8048 26.9789 46.8048C29.2048 46.8048 30.2514 45.3505 30.2514 43.292C30.1355 40.6272 28.3719 39.6563 25.9165 38.326C22.4019 36.2687 20.7625 35.2977 20.7625 31.9057C20.8783 28.9993 23.1063 27.1814 25.5659 26.4554C20.4119 25.8491 18.8883 21.005 19.0063 15.8028C19.0063 10.5952 21.9355 5.02286 27.6749 5.02286H33.0637L33.0796 5Z" fill="#64A8F0"/>
</svg>
