<svg xmlns="http://www.w3.org/2000/svg" width="267" height="89" fill="none" viewBox="0 0 267 89">
  <path fill="#00B188" d="M99.271 16.816H35.603V5.011h63.668v11.803ZM103.819.465H31.055V21.36h72.764V.465Z"/>
  <path fill="#231F20" d="M35.603 55.898h-4.548V35.002h4.548v8.257h8.127v-8.257h4.548v20.896H43.73v-8.66h-8.127v8.66Zm19.563-9.162h5.418c-.101-1.536-.736-2.607-2.509-2.607-1.338 0-2.508.569-2.909 2.607Zm3.444 9.496c-4.615 0-7.757-2.909-7.757-7.688 0-4.649 3.076-7.858 7.156-7.858 4.447 0 6.654 2.975 6.654 7.423v1.672h-9.497c.536 2.305 2.341 2.906 4.148 2.906 1.57 0 2.707-.333 4.111-1.203h.169v3.444c-1.204.87-2.91 1.304-4.984 1.304Zm17.924-9.093-2.342 8.759h-3.978l-4.549-14.712v-.167h4.348l2.474 8.794 2.341-8.794h3.545l2.375 8.794 2.508-8.794h4.18v.167l-4.548 14.712h-3.98l-2.374-8.76Zm18.291 9.093c-3.611 0-5.083-1.437-5.083-4.813V35.003h4.414v16.114c0 1.037.4 1.405 1.27 1.405.302 0 .737-.1 1.004-.2h.067v3.644c-.367.132-1.003.266-1.672.266Zm7.224-9.496h5.418c-.101-1.536-.736-2.607-2.509-2.607-1.336 0-2.508.569-2.909 2.607Zm3.444 9.496c-4.615 0-7.757-2.909-7.757-7.688 0-4.649 3.076-7.858 7.156-7.858 4.447 0 6.654 2.975 6.654 7.423v1.672h-9.497c.535 2.305 2.341 2.906 4.146 2.906 1.573 0 2.709-.333 4.114-1.203h.168v3.444c-1.204.87-2.909 1.304-4.984 1.304Zm24.177-15.213h3.277v3.544h-3.277v6.051c0 1.305.502 1.908 1.84 1.908.368 0 .836-.035 1.338-.202h.099v3.477c-.568.202-1.437.434-2.707.434-3.58 0-4.984-1.638-4.984-5.416v-6.252h-5.651v6.051c0 1.305.502 1.908 1.838 1.908a4.19 4.19 0 0 0 1.339-.202h.1v3.477c-.568.202-1.439.434-2.707.434-3.58 0-4.984-1.638-4.984-5.416v-6.252h-2.275v-3.544h2.275v-4.078h4.414v4.078h5.651v-4.078h4.414v4.078Zm18.15 4.247c2.31 0 3.411-1.303 3.411-3.176 0-1.94-1.101-3.244-3.411-3.244h-2.876v6.42h2.876Zm8.027-3.176c0 4.548-3.043 7.02-7.659 7.02h-3.244v6.788h-4.545V35.002h7.789c4.616 0 7.659 2.473 7.659 7.088Zm9.697 9.127v-1.27c-.669-.366-1.537-.5-2.441-.5-1.437 0-2.306.533-2.306 1.737 0 1.238.869 1.773 2.172 1.773 1.237 0 2.174-.636 2.575-1.74Zm.134 3.21c-.97 1.171-2.406 1.74-3.947 1.74-2.908 0-5.284-1.771-5.284-4.917 0-2.908 2.376-4.847 5.785-4.847 1.07 0 2.176.168 3.312.5v-.265c0-1.606-.903-2.306-3.276-2.306-1.506 0-2.943.432-4.182 1.136h-.165v-3.545c1.136-.668 3.144-1.237 5.114-1.237 4.482 0 6.923 2.14 6.923 5.885v9.327h-4.28v-1.47Zm6.52-5.951c0-4.781 3.379-7.79 7.794-7.79 1.571 0 3.042.334 4.146 1.136V45.6h-.169c-.97-.735-2.106-1.17-3.409-1.17-2.207 0-3.88 1.506-3.88 4.046s1.673 4.013 3.88 4.013c1.303 0 2.439-.436 3.409-1.173h.169v3.779c-1.104.803-2.575 1.137-4.146 1.137-4.415 0-7.794-2.974-7.794-7.756Zm19.128.669v6.753h-4.413V35.002h4.413v11.902l4.449-5.885h5.015v.167l-5.35 6.754 5.35 7.79v.168h-5.05l-4.414-6.753Zm19.362 2.072v-1.27c-.667-.366-1.538-.5-2.44-.5-1.438 0-2.307.533-2.307 1.737 0 1.238.869 1.773 2.171 1.773 1.24 0 2.175-.636 2.576-1.74Zm.134 3.21c-.97 1.171-2.409 1.74-3.945 1.74-2.911 0-5.284-1.771-5.284-4.917 0-2.908 2.373-4.847 5.787-4.847 1.069 0 2.171.168 3.308.5v-.265c0-1.606-.902-2.306-3.277-2.306-1.503 0-2.943.432-4.18 1.136h-.168v-3.545c1.138-.668 3.145-1.237 5.117-1.237 4.483 0 6.924 2.14 6.924 5.885v9.327h-4.282v-1.47Zm11.705-11.001c.801-1.639 1.973-2.574 3.612-2.574.602 0 1.203.134 1.435.268v4.212h-.166c-.502-.202-1.103-.334-1.939-.334-1.371 0-2.441.803-2.81 2.34v8.56h-4.412v-14.88h4.28v2.408Zm16.753 7.424v-4.782c-.735-1.07-1.704-1.537-2.81-1.537-1.937 0-3.242 1.405-3.242 3.945s1.305 3.912 3.242 3.912c1.106 0 2.075-.469 2.81-1.539Zm.133 3.511c-.936 1.204-2.408 1.871-4.413 1.871-3.813 0-6.254-3.475-6.254-7.756 0-4.28 2.441-7.79 6.254-7.79 1.939 0 3.343.602 4.28 1.705v-7.388h4.414v20.895h-4.281V54.36ZM31.055 62.723h12.908v2.54h-9.999v6.385h9.062v2.475h-9.062v6.954h10v2.54h-12.91V62.723Zm23.575 5.883c3.31 0 5.15 2.174 5.15 5.749v9.262h-2.776v-9.194c0-1.906-.97-3.277-3.076-3.277-1.739 0-3.21 1.104-3.712 2.674v9.797H47.44v-14.71h2.776v2.14c.869-1.371 2.34-2.441 4.414-2.441Zm12.608.301h3.779v2.374h-3.779v7.924c0 1.67.87 2.24 2.44 2.24.435 0 .903-.066 1.238-.2h.1v2.372c-.4.168-.97.302-1.738.302-3.445 0-4.815-1.573-4.815-4.446V71.28h-2.542v-2.374h2.542v-3.91h2.775v3.91Zm8.426 5.916h7.324c-.1-2.172-1.17-3.843-3.444-3.843-2.106 0-3.479 1.572-3.88 3.843Zm4.382 9.096c-4.315 0-7.258-2.876-7.258-7.49 0-4.614 2.742-7.823 6.723-7.823 4.046 0 6.153 2.909 6.153 7.22v1.272h-10.1c.3 2.976 2.208 4.413 4.85 4.413 1.638 0 2.807-.367 4.112-1.338h.101v2.442c-1.204.936-2.777 1.304-4.581 1.304Zm11.67-12.739c.635-1.57 2.04-2.506 3.644-2.506.637 0 1.205.099 1.439.233v2.74h-.1c-.402-.198-1.071-.3-1.74-.3-1.504 0-2.775 1.003-3.243 2.675v9.595H88.94v-14.71h2.776v2.274Zm14.044 10.23c2.742 0 4.348-2.172 4.348-5.15 0-2.94-1.606-5.146-4.348-5.146-1.505 0-2.909.903-3.645 2.338v5.653c.736 1.436 2.14 2.305 3.645 2.305Zm.468-12.804c4.38 0 6.721 3.578 6.721 7.655 0 4.081-2.341 7.658-6.721 7.658-1.806 0-3.344-.936-4.113-1.94v7.29h-2.776V68.907h2.776v1.67c.769-1.036 2.307-1.971 4.113-1.971Zm12.774 2.574c.635-1.57 2.04-2.506 3.645-2.506.636 0 1.204.099 1.437.233v2.74h-.099c-.401-.198-1.07-.3-1.739-.3-1.505 0-2.775 1.003-3.244 2.675v9.595h-2.775v-14.71h2.775v2.274Zm9.096-8.224c.97 0 1.771.768 1.771 1.739 0 .97-.801 1.738-1.771 1.738-.936 0-1.774-.768-1.774-1.738s.838-1.739 1.774-1.739Zm-1.371 20.661h2.776v-14.71h-2.776v14.71Zm12.674-8.592c2.107.668 4.446 1.537 4.446 4.345 0 3.01-2.473 4.549-5.649 4.549-1.941 0-3.88-.469-4.984-1.338V79.94h.134c1.238 1.136 3.076 1.638 4.815 1.638 1.571 0 2.977-.603 2.977-1.873 0-1.303-1.169-1.605-3.479-2.373-2.073-.669-4.379-1.439-4.379-4.212 0-2.843 2.339-4.514 5.316-4.514 1.739 0 3.277.367 4.514 1.204v2.675h-.099c-1.203-.97-2.61-1.54-4.348-1.54-1.739 0-2.709.77-2.709 1.807 0 1.17 1.07 1.504 3.445 2.273Zm9.731-.202h7.322c-.099-2.172-1.169-3.843-3.444-3.843-2.106 0-3.477 1.572-3.878 3.843Zm4.38 9.096c-4.313 0-7.256-2.876-7.256-7.49 0-4.614 2.742-7.823 6.721-7.823 4.048 0 6.153 2.909 6.153 7.22v1.272h-10.099c.302 2.976 2.208 4.413 4.849 4.413 1.64 0 2.809-.367 4.113-1.338h.101v2.442c-1.203.936-2.776 1.304-4.582 1.304Z"/>
</svg>
