<svg xmlns="http://www.w3.org/2000/svg" width="204" height="108" viewBox="0 0 204 108">
  <path fill="#00A886" fill-rule="evenodd" d="M69.889 5.147c0 .275-.481 1.03-1.44 2.264-3.605 4.702-5.58 7.051-5.921 7.051-.275 0-.6-.155-.979-.462-.343-.308-.514-.601-.514-.875 0-.137.498-.876 1.493-2.213a104.36 104.36 0 0 0 3.964-5.56c.205-.31.429-.618.668-.926.241-.343.62-.515 1.135-.515.341 0 .685.138 1.029.412.375.275.565.55.565.824Z" clip-rule="evenodd"/>
  <path fill="#ED1B34" fill-rule="evenodd" d="M75.5 12.455c0 .55-.894 1.304-2.677 2.264-3.947 2.094-6.315 3.14-7.103 3.14-.343 0-.688-.137-1.029-.41-.309-.276-.463-.55-.463-.824 0-.31.788-.91 2.367-1.803 4.563-2.538 7.068-3.808 7.515-3.808.307 0 .616.154.925.464.31.308.465.635.465.977Z" clip-rule="evenodd"/>
  <path fill="#FFD400" fill-rule="evenodd" d="M61.035 1.492c-1.064 6.245-2.488 9.658-4.272 10.242-.582-.48-.875-.96-.875-1.44 0-.344.189-1.39.566-3.142.515-2.365.928-4.408 1.237-6.123.206-.379.515-.566.926-.566.343 0 1.149.343 2.418 1.029Z" clip-rule="evenodd"/>
  <path fill="#B3D335" fill-rule="evenodd" d="M77.249 20.948c0 .96-.514 1.493-1.544 1.596-.034 0-1.029.137-2.986.412-1.406.205-2.641.308-3.704.308-1.718 0-2.575-.498-2.575-1.492 0-.722.652-1.115 1.955-1.185.963-.034 2.283-.326 3.963-.874 1.683-.584 2.781-.875 3.297-.875 1.061 0 1.594.703 1.594 2.11Z" clip-rule="evenodd"/>
  <path fill="#0095DA" fill-rule="evenodd" d="M53.211 9.78c0 .514-.152.977-.461 1.388-.31.378-.654.566-1.03.566-.205 0-.515-.085-.929-.256 0-.687-.821-4.256-2.47-10.707C49.009.256 49.678 0 50.332 0c.89 0 1.405.188 1.544.565.101.72.394 2.539.875 5.457.309 1.783.461 3.036.461 3.757Z" clip-rule="evenodd"/>
  <path fill="#EEDC00" fill-rule="evenodd" d="m76.735 28.205-.206 1.237c-.79.547-1.269.823-1.442.823-.171 0-1.045-.258-2.625-.773a95.093 95.093 0 0 0-6.227-1.853c.102-1.44.704-2.162 1.801-2.162.445 0 1.354.258 2.728.773 1.373.48 2.298.72 2.779.72.378 0 1.442.411 3.192 1.235Z" clip-rule="evenodd"/>
  <path fill="#ED1B34" fill-rule="evenodd" d="M48.013 11.838c0 .378-.12.755-.36 1.132-.24.343-.48.513-.72.513-.72 0-1.784-.787-3.192-2.365-1.373-1.613-2.523-3.123-3.449-4.531-.685-1.064-1.029-1.664-1.029-1.8 0-.412.205-.824.619-1.236.41-.413.805-.618 1.184-.618.65 0 2.16 1.767 4.528 5.302 1.613 1.887 2.419 3.088 2.419 3.603Z" clip-rule="evenodd"/>
  <path fill="#00ACCD" fill-rule="evenodd" d="M74.057 36.75c0 .343-.205.687-.616 1.028-.378.31-.789.464-1.237.464-.48 0-1.44-.6-2.88-1.801-3.572-2.951-5.355-4.615-5.355-4.994 0-.206.448-.89 1.338-2.059 5.835 4.016 8.75 6.47 8.75 7.362Z" clip-rule="evenodd"/>
  <path fill="#62BB46" fill-rule="evenodd" d="M68.395 42.977c0 .308-.224.617-.669.927-.41.308-.823.462-1.234.462-.31 0-.806-.462-1.494-1.39-1.405-1.955-2.605-3.876-3.6-5.764-.723-1.373-1.084-2.144-1.084-2.316 0-.377.156-.737.465-1.08.309-.344.6-.516.875-.516.378 0 1.165.86 2.368 2.574 2.917 4.117 4.373 6.486 4.373 7.103ZM43.54 15.979c0 .342-.154.669-.463.977-.31.274-.635.412-.979.412-.24 0-1.701-.503-3.144-1.567-3.499-2.505-5.523-3.947-6.072-4.323.069-.756.309-1.39.72-1.904.41-.516.824-.773 1.235-.773 1.03 0 2.882 1.27 5.56 3.808 1.68 1.579 3.144 2.683 3.144 3.37Z" clip-rule="evenodd"/>
  <path fill="#007196" fill-rule="evenodd" d="M62.58 23.212c0 2.093-.772 3.947-2.316 5.56-1.544 1.578-3.397 2.367-5.559 2.367-2.37 0-4.305-.754-5.817-2.264-1.475-1.51-2.214-3.38-2.214-5.61 0-1.992.79-3.793 2.368-5.405 1.58-1.612 3.262-2.42 5.043-2.42 1.753 0 3.572.738 5.457 2.214 2.027 1.58 3.038 3.431 3.038 5.558Zm-4.169.514c0-2.606-1.39-4.065-4.171-4.373-.995.034-1.8.461-2.416 1.285-.584.824-.877 1.923-.877 3.295 0 .995.343 1.87 1.03 2.626.687.755 1.543 1.13 2.572 1.13 1.134 0 2.059-.358 2.779-1.08.723-.755 1.083-1.714 1.083-2.883Z" clip-rule="evenodd"/>
  <path fill="#B3D335" fill-rule="evenodd" d="M42.08 22.647c-.326.322-1.014.36-1.118.36-.96 0-3.517-.532-7.67-1.595C32.23 21.137 31.68 21 31.647 21c-.309-.172-.464-.584-.464-1.236 0-1.51.29-2.264.875-2.264.17 0 1.048.308 2.624.925 1.819.721 3.536 1.236 5.147 1.544.824.139.864.15 1.376.363.357.146.619.173.875.463.477.542.514 1.345 0 1.852Z" clip-rule="evenodd"/>
  <path fill="#ED1B34" fill-rule="evenodd" d="M60.315 45.448c0 1.064-.429 1.594-1.285 1.594-1.03 0-1.718-.187-2.061-.565v-.155c0-.995-.652-4.409-1.955-10.242.651-.377 1.303-.566 1.955-.566.788 0 1.287.464 1.493 1.39 1.234 5.626 1.853 8.475 1.853 8.544Z" clip-rule="evenodd"/>
  <path fill="#FAA61A" fill-rule="evenodd" d="M53.47 36.08c0 .653-.171 1.717-.515 3.192-.446 1.783-.72 3.088-.825 3.912a105.4 105.4 0 0 0-.36 2.932c-.17.618-.581.926-1.234.926-1.339 0-2.008-.685-2.008-2.058 0-.275.24-1.27.72-2.986.618-2.092 1.083-4.03 1.392-5.815.101-.652.686-.977 1.75-.977.719 0 1.08.292 1.08.874Z" clip-rule="evenodd"/>
  <path fill="#FFD400" fill-rule="evenodd" d="M42.917 26.919c-6.622 2.778-10.086 4.168-10.395 4.168-.929 0-1.392-.737-1.392-2.212 0-.516.463-.944 1.392-1.287l5.043-1.648c.55-.17 1.373-.496 2.472-.977.754-.308 1.27-.463 1.541-.463.55 0 .997.256 1.339.771v1.648Z" clip-rule="evenodd"/>
  <path fill="#0095DA" fill-rule="evenodd" d="M49.557 34.536c0 .412-1.698 2.866-5.096 7.36-1.096 1.476-1.75 2.213-1.955 2.213-1.029 0-1.544-.447-1.544-1.339 0-.342.568-1.372 1.699-3.088 2.299-3.464 3.792-5.747 4.478-6.844 1.612.377 2.418.943 2.418 1.698Z" clip-rule="evenodd"/>
  <path fill="#ED1B34" fill-rule="evenodd" d="M45.594 32.066c-5.901 3.945-9.213 5.92-9.933 5.92-.515 0-.945-.154-1.289-.464-.341-.344-.512-.721-.512-1.133 0-.617.256-1.098.771-1.44 5.56-3.535 8.648-5.302 9.265-5.302.962 0 1.528.805 1.698 2.419Z" clip-rule="evenodd"/>
  <path fill="#007196" fill-rule="evenodd" d="M193.026 71.585v3.301c0 .5-.059 1.166-.187 1.995-.082.832-.351 1.662-.81 2.494-.456.79-1.163 1.475-2.118 2.058-.954.582-2.306.87-4.051.87-.706 0-1.391-.061-2.055-.186-.668-.123-1.249-.331-1.745-.625a3.528 3.528 0 0 1-1.183-1.306c-.294-.54-.438-1.205-.438-1.995 0-.832.144-1.515.438-2.056.287-.541.664-.98 1.119-1.31a5.886 5.886 0 0 1 1.683-.872 17.068 17.068 0 0 1 1.995-.498c.706-.125 1.411-.23 2.12-.313a24.793 24.793 0 0 0 1.991-.311c.665-.123 1.271-.27 1.809-.438.581-.208 1.059-.478 1.432-.808Zm-20.441-6.544h8.851c.165-1.747.747-2.992 1.745-3.742.997-.746 2.367-1.12 4.111-1.12.79 0 1.518.061 2.182.187.706.083 1.312.29 1.808.624.542.29.955.725 1.248 1.307.331.54.497 1.29.497 2.245.042.915-.227 1.621-.808 2.117-.585.46-1.374.811-2.368 1.062-.998.25-2.142.434-3.43.56a67.86 67.86 0 0 0-3.926.499 34.457 34.457 0 0 0-3.99.871 11.146 11.146 0 0 0-3.49 1.558c-.996.706-1.827 1.664-2.491 2.87-.624 1.162-.936 2.659-.936 4.485 0 1.664.269 3.096.811 4.301.581 1.206 1.371 2.204 2.368 2.993.997.79 2.16 1.368 3.491 1.744 1.328.373 2.763.56 4.299.56 1.994 0 3.947-.29 5.858-.872a11.533 11.533 0 0 0 4.987-3.053c.04.54.104 1.08.187 1.62.126.5.27.996.437 1.497H203c-.416-.667-.706-1.664-.871-2.992a33.348 33.348 0 0 1-.251-4.176V63.419c0-1.952-.435-3.509-1.309-4.675a8.84 8.84 0 0 0-3.367-2.803c-1.37-.666-2.885-1.1-4.548-1.309a33.164 33.164 0 0 0-4.923-.373c-1.787 0-3.574.185-5.362.56-1.743.332-3.321.914-4.735 1.745a10.572 10.572 0 0 0-3.489 3.303c-.918 1.37-1.435 3.096-1.56 5.173Zm-23.871-9.91v32.223h8.852V72.83c0-1.454.144-2.806.434-4.051.293-1.246.771-2.328 1.435-3.24.707-.955 1.622-1.704 2.741-2.246 1.123-.539 2.494-.808 4.116-.808.54 0 1.101.04 1.683.125.58.04 1.079.102 1.496.187V54.57c-.708-.21-1.353-.312-1.935-.312a10.57 10.57 0 0 0-3.239.497c-1.04.334-2.017.81-2.931 1.434a10.089 10.089 0 0 0-2.43 2.181 10.393 10.393 0 0 0-1.683 2.741l-.125-5.98h-8.414v-.001Zm-6.731 32.223V55.13h-8.848v16.89c0 3.281-.542 5.652-1.621 7.106-1.08 1.41-2.827 2.118-5.235 2.118-2.12 0-3.596-.644-4.424-1.934-.833-1.328-1.249-3.323-1.249-5.982V55.131h-8.848v19.82c0 1.992.165 3.821.499 5.485.373 1.619.995 3.01 1.869 4.174.872 1.123 2.056 1.994 3.552 2.616 1.536.624 3.489.936 5.859.936 1.869 0 3.696-.414 5.483-1.246 1.79-.831 3.243-2.18 4.363-4.05l.189 4.487h8.411ZM101.037 55.13v-7.947h-8.849v7.947h-5.36v5.92h5.36v19.01c0 1.62.271 2.93.809 3.927.541.998 1.267 1.766 2.181 2.305.957.538 2.035.896 3.241 1.06 1.247.206 2.557.31 3.928.31.872 0 1.765-.021 2.68-.06a21.907 21.907 0 0 0 2.494-.25v-6.855c-.417.082-.854.143-1.31.186-.459.04-.936.062-1.435.062-1.496 0-2.491-.248-2.992-.747-.496-.499-.747-1.496-.747-2.992V61.051h6.484v-5.92h-6.484ZM73.99 47.184v40.17h8.849v-40.17H73.99ZM58.034 71.585v3.301c0 .5-.06 1.166-.189 1.995-.082.832-.351 1.662-.81 2.494-.457.79-1.163 1.475-2.118 2.058-.954.582-2.306.87-4.05.87a11.09 11.09 0 0 1-2.056-.186c-.665-.123-1.249-.331-1.744-.625a3.53 3.53 0 0 1-1.184-1.306c-.294-.54-.438-1.205-.438-1.995 0-.832.144-1.515.438-2.056.287-.541.664-.98 1.119-1.31a5.881 5.881 0 0 1 1.683-.872 17.07 17.07 0 0 1 1.995-.498 36.34 36.34 0 0 1 2.12-.313 24.99 24.99 0 0 0 1.993-.311 15.73 15.73 0 0 0 1.807-.438c.582-.208 1.059-.478 1.434-.808Zm-20.443-6.544h8.851c.166-1.747.747-2.992 1.744-3.742.998-.746 2.368-1.12 4.115-1.12.79 0 1.515.061 2.179.187.707.083 1.31.29 1.809.624.541.29.957.725 1.247 1.307.331.54.499 1.29.499 2.245.04.915-.23 1.621-.811 2.117-.584.46-1.373.811-2.368 1.062-.997.25-2.142.434-3.43.56a68.11 68.11 0 0 0-3.925.499c-1.33.207-2.659.498-3.99.871-1.288.334-2.45.854-3.49 1.558-.995.706-1.827 1.664-2.491 2.87-.624 1.162-.936 2.659-.936 4.485 0 1.664.27 3.096.81 4.301.581 1.206 1.371 2.204 2.369 2.993.997.79 2.16 1.368 3.49 1.744 1.329.373 2.763.56 4.299.56 1.995 0 3.95-.29 5.859-.872a11.548 11.548 0 0 0 4.988-3.053c.04.54.104 1.08.186 1.62.125.5.269.996.437 1.497h8.974c-.416-.667-.707-1.664-.872-2.992a33.732 33.732 0 0 1-.251-4.176V63.419c0-1.952-.435-3.509-1.309-4.675a8.834 8.834 0 0 0-3.365-2.803c-1.372-.666-2.886-1.1-4.55-1.309a33.144 33.144 0 0 0-4.923-.373 26.05 26.05 0 0 0-5.36.56c-1.745.332-3.323.914-4.737 1.745a10.614 10.614 0 0 0-3.49 3.303c-.915 1.37-1.433 3.096-1.558 5.173ZM3 47.183v40.17h8.851V68.126L24.13 87.354h10.72L22.418 68.126 34.85 47.184H24.13L11.851 68.126V47.184H3Z" clip-rule="evenodd"/>
  <path fill="#6EACC7" d="M37.984 102.832c-.927-.942-1.39-2.213-1.39-3.814 0-1.637.463-2.938 1.39-3.901.926-.964 2.174-1.446 3.744-1.446 1.582 0 2.835.482 3.759 1.446.923.963 1.385 2.264 1.385 3.901 0 1.601-.462 2.872-1.385 3.814-.924.942-2.177 1.413-3.759 1.413-1.57 0-2.818-.471-3.744-1.413Zm5.545-1.579c.412-.517.619-1.272.619-2.263 0-1.015-.207-1.786-.619-2.313-.413-.526-1.013-.79-1.8-.79-.789 0-1.387.264-1.797.79-.41.526-.614 1.298-.614 2.313 0 .992.205 1.746.614 2.263.41.517 1.008.775 1.796.775s1.389-.258 1.801-.775Zm5.143-7.313h2.521v1.486l.176-.25c.714-1.003 1.656-1.504 2.825-1.504 1.275 0 2.298.47 3.071 1.413.772.941 1.159 2.182 1.159 3.721 0 1.632-.387 2.946-1.159 3.943-.773.997-1.796 1.496-3.071 1.496-1.163 0-2.102-.468-2.816-1.404l-.056-.074v5.153h-2.65V93.94Zm4.765 8.125c.708 0 1.262-.266 1.662-.798.401-.533.601-1.273.601-2.221 0-.967-.199-1.722-.596-2.267-.397-.545-.949-.817-1.658-.817-.708 0-1.26.28-1.657.84-.397.56-.596 1.339-.596 2.336 0 .918.199 1.635.596 2.152.397.517.946.775 1.648.775Zm10.823 2.18c-1.527 0-2.704-.471-3.532-1.413-.828-.942-1.242-2.284-1.242-4.026 0-1.607.421-2.864 1.265-3.772.843-.908 2.013-1.362 3.509-1.362 1.533 0 2.713.463 3.541 1.39.828.926 1.242 2.245 1.242 3.956a2.19 2.19 0 0 1-.046.6h-6.843c.062.795.237 1.389.527 1.783.369.492.985.739 1.847.739.4 0 .771-.114 1.112-.342.342-.228.547-.502.615-.822h2.696c-.228 1.022-.756 1.822-1.584 2.401-.828.579-1.864.868-3.107.868Zm2.022-6.317c-.061-.603-.221-1.074-.48-1.412-.339-.45-.865-.674-1.579-.674-.683 0-1.204.261-1.561.784-.221.333-.382.767-.48 1.302h4.1Zm4.516-3.988h2.521v1.486a4.83 4.83 0 0 1 .341-.508c.653-.831 1.601-1.247 2.845-1.247 1.058 0 1.888.314 2.488.942.6.628.901 1.5.901 2.613v6.76h-2.651v-6.28c0-.621-.133-1.081-.401-1.38-.268-.298-.679-.448-1.233-.448-.696 0-1.23.21-1.602.628-.373.419-.559 1.022-.559 1.81v5.67h-2.65V93.939Zm22.493 3.01c0-.388-.16-.699-.481-.933-.32-.234-.745-.35-1.275-.35-.511 0-.91.087-1.196.263-.287.175-.43.42-.43.734 0 .221.163.412.489.572.321.154.89.323 1.709.508 1.626.363 2.713.76 3.261 1.191.549.431.824 1.108.824 2.032 0 .985-.399 1.777-1.196 2.378-.797.6-1.849.9-3.154.9-1.545 0-2.735-.296-3.57-.887-.834-.59-1.279-1.452-1.334-2.585h2.696c.019.462.224.823.615 1.085s.922.392 1.593.392c.53 0 .944-.09 1.242-.272.299-.182.448-.436.448-.762 0-.228-.144-.421-.433-.582-.29-.153-.798-.31-1.524-.47-1.7-.382-2.836-.785-3.408-1.21-.572-.419-.858-1.068-.858-1.948 0-.998.371-1.803 1.112-2.415.742-.613 1.719-.92 2.932-.92 1.366 0 2.468.301 3.305.901.837.6 1.256 1.393 1.256 2.378h-2.623Zm5.639 5.882c-.927-.942-1.39-2.213-1.39-3.814 0-1.637.463-2.938 1.39-3.901.926-.964 2.175-1.446 3.745-1.446 1.581 0 2.834.482 3.758 1.446.923.963 1.385 2.264 1.385 3.901 0 1.601-.462 2.872-1.385 3.814-.924.942-2.177 1.413-3.758 1.413-1.57 0-2.819-.471-3.745-1.413Zm5.545-1.579c.413-.517.619-1.272.619-2.263 0-1.015-.207-1.786-.619-2.313-.413-.526-1.013-.79-1.8-.79-.789 0-1.387.264-1.797.79-.409.526-.614 1.298-.614 2.313 0 .992.205 1.746.614 2.263.41.517 1.008.775 1.797.775.787 0 1.388-.258 1.8-.775Zm7.868-1.025c0 .616.132 1.071.397 1.367.264.295.671.443 1.219.443.689 0 1.219-.209 1.588-.628.369-.418.554-1.022.554-1.81v-5.66h2.65v10.047h-2.521v-1.506a2.794 2.794 0 0 1-.332.517c-.653.832-1.598 1.247-2.835 1.247-1.059 0-1.886-.312-2.479-.937-.595-.625-.892-1.492-.892-2.6V93.94h2.65v6.288h.001Zm8.865-6.288h2.521v1.8c.092-.197.196-.388.314-.572.621-.998 1.425-1.496 2.41-1.496l.6.009v2.706a7.665 7.665 0 0 0-.794-.037c-.807 0-1.408.2-1.806.6-.397.4-.595 1.007-.595 1.82v5.216h-2.65V93.939Zm16.058 6.325c-.136 1.249-.6 2.225-1.394 2.927-.794.702-1.829 1.053-3.103 1.053-1.521 0-2.695-.453-3.523-1.358-.828-.905-1.242-2.194-1.242-3.869 0-1.637.43-2.938 1.288-3.901.859-.964 2.018-1.446 3.477-1.446 1.293 0 2.352.358 3.177 1.072.825.714 1.265 1.652 1.32 2.816h-2.696c-.025-.499-.202-.902-.531-1.21-.33-.307-.753-.461-1.27-.461-.665 0-1.171.266-1.519.799-.348.532-.522 1.31-.522 2.331 0 .998.174 1.756.522 2.277.348.52.854.78 1.519.78.48 0 .887-.166 1.219-.499.332-.332.526-.769.582-1.311h2.696Zm5.818 3.98c-1.527 0-2.705-.471-3.533-1.413-.828-.942-1.241-2.284-1.241-4.026 0-1.607.421-2.864 1.265-3.772.843-.908 2.013-1.362 3.509-1.362 1.532 0 2.713.463 3.541 1.39.828.926 1.242 2.245 1.242 3.956a2.23 2.23 0 0 1-.046.6h-6.843c.062.795.237 1.389.527 1.783.369.492.984.739 1.846.739.4 0 .771-.114 1.113-.342.342-.228.547-.502.614-.822h2.697c-.228 1.022-.756 1.822-1.584 2.401-.828.579-1.864.868-3.107.868Zm2.022-6.317c-.062-.603-.222-1.074-.48-1.412-.339-.45-.865-.674-1.579-.674-.684 0-1.204.261-1.561.784-.222.333-.382.767-.48 1.302h4.1Zm8.791-3.988h2.926l2.137 7.496h.011l2.157-7.497h2.788l-3.629 10.047h-2.761l-3.629-10.047Zm11.57-3.63h2.697v2.457h-2.697V90.31Zm.028 3.63h2.65v10.046h-2.65V93.939Zm8.847 10.305c-1.281 0-2.314-.499-3.099-1.496-.785-.997-1.177-2.312-1.177-3.943 0-1.54.391-2.78 1.173-3.722.781-.942 1.81-1.413 3.084-1.413 1.139 0 2.056.48 2.752 1.44l.111.149v-4.848h2.65v13.574h-2.567v-1.284l-.046.065c-.733.985-1.693 1.478-2.881 1.478Zm.711-8.283c-.708 0-1.263.272-1.663.817-.4.545-.6 1.3-.6 2.267 0 .948.199 1.688.596 2.221.397.532.949.798 1.657.798.714 0 1.272-.279 1.672-.84.4-.56.6-1.339.6-2.336 0-.917-.2-1.635-.6-2.152-.4-.517-.955-.775-1.662-.775Zm11.127 8.283c-1.527 0-2.704-.471-3.532-1.413-.828-.942-1.242-2.284-1.242-4.026 0-1.607.421-2.864 1.265-3.772.843-.908 2.013-1.362 3.509-1.362 1.533 0 2.713.463 3.541 1.39.828.926 1.242 2.245 1.242 3.956a2.23 2.23 0 0 1-.046.6h-6.842c.061.795.236 1.389.526 1.783.369.492.985.739 1.847.739.4 0 .771-.114 1.113-.342.341-.228.546-.502.614-.822h2.696c-.228 1.022-.756 1.822-1.584 2.401-.828.579-1.864.868-3.107.868Zm2.022-6.317c-.061-.603-.221-1.074-.48-1.412-.339-.45-.865-.674-1.579-.674-.683 0-1.204.261-1.561.784-.221.333-.382.767-.48 1.302h4.1Zm5.324 4.904c-.927-.942-1.39-2.213-1.39-3.814 0-1.637.463-2.938 1.39-3.901.926-.964 2.174-1.446 3.744-1.446 1.582 0 2.835.482 3.759 1.446.923.963 1.385 2.264 1.385 3.901 0 1.601-.462 2.872-1.385 3.814-.924.942-2.177 1.413-3.759 1.413-1.57 0-2.818-.471-3.744-1.413Zm5.545-1.579c.412-.517.619-1.272.619-2.263 0-1.015-.207-1.786-.619-2.313-.413-.526-1.013-.79-1.801-.79s-1.386.264-1.796.79c-.409.526-.614 1.298-.614 2.313 0 .992.205 1.746.614 2.263.41.517 1.008.775 1.796.775s1.388-.258 1.801-.775Z"/>
</svg>
