<svg xmlns="http://www.w3.org/2000/svg" width="601" height="137" fill="none" viewBox="0 0 601 137">
  <path fill="#000" d="M505.7.225h-14c-1.2 0-2.3 1-2.3 2.3v65.9c0 7-5.8 11.8-14.3 11.8s-14-5-14-11.8v-65.9c0-1.2-1-2.3-2.3-2.3h-14.3c-1.2 0-2.3 1-2.3 2.3v65.9c0 16.9 14.3 30.4 32.4 30.4 18.2 0 32.8-13.4 32.8-30.4v-65.9c.2-1-.2-1.9-1.2-2.3h-.5Zm62.8 0h-30.7c-1.2 0-2.3 1-2.3 2.3v92.5c0 1.2 1 2.3 2.3 2.3h14c1.2 0 2.3-1 2.3-2.3v-35.1c0-1 .6-2.1 1.7-2.1h13c15.9 1.2 30-10.5 31.2-26.4 1.2-15.9-10.5-30-26.4-31.2-1.8-.3-3.4-.3-5.1 0Zm0 39.2h-12.6c-1 0-2.1-.6-2.1-1.7v-17.1c0-1 .6-2.1 1.7-2.1h13c5.6.2 10.1 4.8 10.3 10.3.1 5.9-4.5 10.4-10.3 10.6Zm-506.1 0H2.3c-1.2 0-2.3 1-2.3 2.3v14c0 1.2.8 2.1 2.1 2.1h19.2c1 0 2.1.6 2.1 1.7v74.7c0 1.2 1 2.3 2.3 2.3h14c1.2 0 2.3-1 2.3-2.3v-74.4c0-1 .8-1.9 1.9-2.1h19.2c1.2 0 2.3-1 2.3-2.3v-14c-.5-1.2-1.8-2-3-2Zm89.5 0h-14c-1.2 0-2.3 1-2.3 2.3v35.1c0 1-.8 1.9-1.9 2.1h-21.5c-1 0-2.1-.6-2.1-1.7v-35.5c0-1.2-1-2.3-2.3-2.3H94c-1.2 0-2.3 1-2.3 2.3v92.5c0 1.2 1 2.3 2.3 2.3h13.4c1.2 0 2.9-1 2.9-2.3v-35.1c0-1 .6-2.1 1.7-2.1h21.7c1 0 1.9.8 2.1 1.9v35.3c0 1.2 1 2.3 2.3 2.3h14c1.2 0 2.3-1 2.3-2.3v-92.5c-.3-1.3-1.3-2.3-2.5-2.3Zm93.3 28.9c0-15.9-13-28.9-28.9-28.9h-30.6c-1.2 0-2.3 1-2.3 2.3v92.5c0 1.2 1 2.3 2.3 2.3h14c1.2 0 2.3-1 2.3-2.3v-35.1c0-1 .6-2.1 1.7-2.1h4.1c1.4 0 2.7.8 3.1 2.3l14.3 34.7c.4 1.4 1.9 2.5 3.5 2.5h14.5c.8.2 1.7-.2 2.1-1 .4-.8.4-1.7 0-2.5l-15.1-35.1c-1-2.3-1.2-3.7 1-5.4 9.9-6.6 14-14.1 14-24.2Zm-28.9 10.4h-12.6c-1 0-2.1-.6-2.1-1.7v-17.1c0-1 .8-1.9 1.9-2.1h12.8c5.6 0 10.3 4.8 10.3 10.3.2 5.6-4.1 10.3-9.7 10.5-.2.1-.4.1-.6.1Zm108.1 39.2h-33.1c-1 0-2.1-.6-2.1-1.7v-17.1c0-1 .6-2.1 1.7-2.1h24.6c1.2 0 2.3-1 2.3-2.3v-14c0-1.2-1-2.3-2.3-2.3h-24.2c-1 0-2.1-.6-2.1-1.7v-17.1c0-1 .8-1.9 1.9-2.1h33.3c1.2 0 2.3-1 2.3-2.3v-14c0-1.2-1-2.3-2.3-2.3H273c-1.2 0-2.3 1-2.3 2.3v92.5c0 1.2 1 2.3 2.3 2.3h51.4c1.2 0 2.3-1 2.3-2.3v-14c-.3-1-1.3-1.8-2.3-1.8Zm61.3-78.5h-29.5c-1.2 0-2.3 1-2.3 2.3v92.5c0 1.2 1 2.3 2.3 2.3h29.5c15.9 0 28.5-12.6 30.6-30.4 1.4-12 1.4-24 0-35.9-2.1-18.2-14.7-30.8-30.6-30.8Zm12 66.7c-.8 7-5.8 12-12.2 12h-11.2c-1 0-2.1-.6-2.1-1.7v-56.6c0-1 .8-1.9 1.9-2.1h11.4c6.4 0 11.4 5 12.2 12 1.4 12.1 1.4 24.2 0 36.4Z"/>
</svg>
