<svg xmlns="http://www.w3.org/2000/svg" width="262" height="130" viewBox="0 0 262 130">
  <path fill="#141F48" d="M129.845 72.117h-11.272a.265.265 0 0 1-.211-.1.242.242 0 0 1-.043-.221l5.633-18.842a.263.263 0 0 1 .255-.19c.119 0 .223.078.254.19l5.634 18.842a.246.246 0 0 1-.044.221.264.264 0 0 1-.206.1Zm5.246 16.32h7.322l-11.164-37.345c-.93-3.018-3.793-5.085-7.04-5.085-3.248 0-6.11 2.067-7.04 5.085L106 88.44h7.344l3.226-10.813a.262.262 0 0 1 .254-.184h14.757c.117 0 .221.074.254.184l3.256 10.81Zm41.272-21.449h4.307a.26.26 0 0 1 .263.255v14.732c.028 3.897 3.303 7.037 7.322 7.02 1.458.003 2.909-.2 4.307-.6v-4.841c-.81.066-1.723.112-2.399.112-1.19 0-2.154-.935-2.154-2.088V67.239a.26.26 0 0 1 .263-.255h4.307v-5.321h-4.307a.26.26 0 0 1-.263-.255v-8.842h-7.102v8.842a.26.26 0 0 1-.263.255h-4.307l.026 5.325Zm40.716 21.448h7.042v-18.49c-.04-4.905-4.164-8.853-9.222-8.83a15.76 15.76 0 0 0-8.184 2.46.273.273 0 0 1-.271 0 .254.254 0 0 1-.138-.221v-16.8h-7.076v41.881h7.059v-20.02a.249.249 0 0 1 .142-.225c1.327-.656 3.946-1.758 6.569-1.758a4.117 4.117 0 0 1 2.868 1.14 3.785 3.785 0 0 1 1.189 2.732v18.114l.022.017Zm-70.716-26.773v18.49c.033 4.91 4.159 8.866 9.222 8.843a15.72 15.72 0 0 0 9.019-3.016.273.273 0 0 1 .241-.042.258.258 0 0 1 .172.168l.746 2.334h5.508V61.663h-7.076v20.023a.255.255 0 0 1-.142.226c-1.327.656-3.946 1.758-6.569 1.758-2.226.01-4.041-1.73-4.057-3.888v-18.12h-7.064Zm98.394 22.007c-2.154 0-3.877-1.177-5.242-3.6-1.641-2.924-2.546-7.389-2.546-12.568 0-5.18.905-9.644 2.546-12.568 1.357-2.422 3.071-3.6 5.242-3.6s3.876 1.178 5.242 3.6c1.641 2.924 2.545 7.389 2.545 12.568 0 5.18-.904 9.644-2.545 12.568-1.357 2.418-3.071 3.6-5.242 3.6Zm0-37.666c-4.54 0-8.382 2.051-11.104 5.931-2.722 3.88-4.139 9.24-4.139 15.567 0 6.328 1.43 11.695 4.139 15.567 2.709 3.872 6.564 5.931 11.104 5.931 4.54 0 8.382-2.05 11.104-5.931 2.722-3.88 4.139-9.247 4.139-15.571s-1.43-11.695-4.139-15.567C253.152 48.059 249.297 46 244.757 46v.004Z"/>
  <path fill="#DE5022" d="M83.997 49.43 74.778 21H44.993l9.206 28.43h29.798ZM44.993 21H15.21l-9.2 28.43h29.782L44.993 21ZM6.009 49.43c-5.488 16.951.524 35.522 14.891 46L30.102 67 6.009 49.43Zm77.971 0L59.87 67l9.203 28.43c14.379-10.469 20.405-29.042 14.924-46h-.017Zm-63.08 46L44.997 113 69.09 95.43 44.993 77.857 20.9 95.43Z"/>
</svg>
