<svg xmlns="http://www.w3.org/2000/svg" width="200" height="46" fill="none" viewBox="0 0 200 46">  
  <path fill="#29B5E8" d="m123.717 14.223-.006-.003s-.003-.003-.007-.003a1.085 1.085 0 0 0-.428-.09 1.24 1.24 0 0 0-.648.192 1.177 1.177 0 0 0-.461.535v.005l-4.526 12.348-3.488-8.276-.005-.004a1.19 1.19 0 0 0-.474-.535 1.235 1.235 0 0 0-1.331.002 1.2 1.2 0 0 0-.464.533l-.002.004-3.496 8.281-4.55-12.342h-.004a1.037 1.037 0 0 0-.433-.547 1.243 1.243 0 0 0-.659-.196c-.15 0-.303.031-.446.09h-.007l-.005.006a1.19 1.19 0 0 0-.601 1.512h-.001l5.597 14.982v.005c.044.112.105.222.196.33a.919.919 0 0 0 .261.198.488.488 0 0 0 .259.13c.1.033.232.08.409.08a1.16 1.16 0 0 0 1.046-.721l.014-.011 3.54-8.434 3.544 8.4h.003c.082.223.226.399.392.523.176.132.373.213.582.244h.148a1.104 1.104 0 0 0 .696-.242c.19-.145.337-.343.428-.564v-.005l5.561-14.915c.055-.143.083-.285.083-.43a1.182 1.182 0 0 0-.717-1.082ZM98.13 22.776a6.58 6.58 0 0 0-1.755-4.503c-1.084-1.152-2.552-1.857-4.146-1.857-1.595 0-3.066.704-4.148 1.857a6.57 6.57 0 0 0-1.758 4.503 6.5 6.5 0 0 0 1.758 4.48c1.082 1.147 2.553 1.84 4.148 1.84 1.594 0 3.067-.693 4.146-1.84a6.51 6.51 0 0 0 1.755-4.48Zm-.03-6.107a8.906 8.906 0 0 1 2.41 6.107 8.901 8.901 0 0 1-2.41 6.106c-1.486 1.58-3.56 2.579-5.867 2.579-2.29 0-4.368-.999-5.859-2.58a8.906 8.906 0 0 1-2.417-6.105 8.91 8.91 0 0 1 2.417-6.107c1.491-1.579 3.57-2.578 5.859-2.578 2.306 0 4.381.999 5.867 2.578Zm-23.566-2.547a7.15 7.15 0 0 0-4.815 1.871v-.687a1.205 1.205 0 0 0-.326-.828 1.141 1.141 0 0 0-.824-.356c-.338 0-.642.135-.854.354a1.195 1.195 0 0 0-.333.83v15.33l.049.048.002.008c.012.05.045.106.079.16.161.284.426.499.754.594l.047.015h.256c.17 0 .342-.036.505-.112.136-.065.263-.17.364-.303l.004.001c.013-.012.016-.029.03-.04a.032.032 0 0 0 .015-.014c.064-.081.116-.164.15-.242.034-.092.055-.179.072-.246l.01-.043v-9.205a4.917 4.917 0 0 1 1.45-3.373 4.745 4.745 0 0 1 3.365-1.4c1.334 0 2.524.536 3.386 1.4a4.72 4.72 0 0 1 1.392 3.36v9.04c0 .33.142.635.356.845a1.208 1.208 0 0 0 1.661 0c.221-.21.355-.515.355-.846v-9.039c0-3.901-3.196-7.117-7.15-7.122Zm116.81 6.978c-.674-2.726-3.075-4.668-5.814-4.662-2.809 0-5.177 1.9-5.911 4.662h11.725Zm2.597 1.116v.117c0 .328-.147.622-.369.816a1.25 1.25 0 0 1-.82.3h-13.298c.339 3.234 2.929 5.623 6.023 5.647h.784c1.024.004 2.021-.348 2.898-.931a7.2 7.2 0 0 0 2.173-2.275c.11-.19.268-.334.44-.422a1.166 1.166 0 0 1 1.156.025l.013.005.014.011c.334.244.542.616.542 1.025 0 .207-.054.419-.168.61l-.004.007-.004.004c-.743 1.178-1.756 2.252-2.959 3.031-1.205.78-2.602 1.275-4.101 1.275h-.797a8.358 8.358 0 0 1-5.963-2.57 8.722 8.722 0 0 1-2.452-6.082 8.84 8.84 0 0 1 2.472-6.165 8.338 8.338 0 0 1 6.009-2.553 8.2 8.2 0 0 1 5.76 2.349c1.495 1.457 2.472 3.482 2.646 5.76l.005.017Zm-54.548-15.26c-.324 0-.622.136-.835.349-.215.211-.35.51-.35.833v22.145c0 .324.135.62.35.83.213.209.511.348.835.348.672 0 1.216-.527 1.219-1.177V8.137c-.003-.652-.547-1.182-1.219-1.182ZM61.899 22.353c-.957-.45-2.043-.782-3.126-1.14-.997-.335-2.008-.62-2.73-.996-.362-.194-.644-.398-.827-.627a1.181 1.181 0 0 1-.283-.78 1.88 1.88 0 0 1 .342-1.097c.325-.464.868-.826 1.463-1.059a4.837 4.837 0 0 1 1.678-.344c1.344.002 2.194.448 2.847.91.322.233.594.47.851.665.132.1.256.193.399.261.135.067.295.122.47.122.11 0 .22-.02.321-.064.107-.043.2-.104.289-.18a.979.979 0 0 0 .214-.288.874.874 0 0 0 .069-.34c0-.21-.068-.407-.164-.592-.18-.325-.455-.635-.806-.946a7.85 7.85 0 0 0-1.952-1.235c-.743-.333-1.54-.559-2.3-.559-1.759 0-3.228.397-4.296 1.13-.556.382-1.045.801-1.391 1.38-.352.58-.547 1.294-.573 2.225-.002.041-.002.083-.002.124-.003.904.288 1.648.747 2.231.696.878 1.729 1.404 2.742 1.776 1.011.372 2.022.594 2.66.807.898.298 1.853.621 2.55 1.05.346.218.626.453.817.711.185.266.29.54.293.887v.026c-.002.502-.15.896-.395 1.233-.37.503-.984.87-1.636 1.104a5.743 5.743 0 0 1-1.762.324c-1.534 0-2.562-.37-3.306-.74-.374-.186-.676-.37-.95-.525a3.86 3.86 0 0 0-.397-.197 1.098 1.098 0 0 0-.427-.089.83.83 0 0 0-.298.054.892.892 0 0 0-.26.17 1.24 1.24 0 0 0-.258.34.924.924 0 0 0-.093.405c0 .231.087.443.21.634.195.276.48.524.834.77.366.245.803.485 1.307.722 1.116.525 2.547.8 3.635.818h.003c1.691 0 3.152-.388 4.382-1.291v-.003h.002c1.203-.903 1.951-2.245 1.951-3.76 0-.833-.195-1.54-.538-2.117-.516-.876-1.355-1.454-2.306-1.91Zm95.364.423c0-1.776-.672-3.367-1.747-4.515-1.073-1.146-2.546-1.84-4.157-1.845-1.598 0-3.065.7-4.149 1.845a6.587 6.587 0 0 0-1.758 4.515c0 1.774.682 3.355 1.758 4.494 1.078 1.14 2.551 1.826 4.149 1.826 1.615 0 3.088-.686 4.161-1.822 1.071-1.143 1.743-2.722 1.743-4.498Zm2.015-8.356c.22.211.355.517.355.847v15.017a1.187 1.187 0 0 1-1.183 1.177c-.326 0-.625-.14-.835-.348a1.166 1.166 0 0 1-.352-.83v-1.465c-1.491 1.606-3.586 2.643-5.904 2.643-2.306 0-4.383-.988-5.871-2.57a8.88 8.88 0 0 1-2.406-6.115c0-2.37.914-4.541 2.406-6.118 1.488-1.58 3.565-2.567 5.871-2.567 2.317 0 4.413 1.007 5.904 2.605v-1.429c0-.33.136-.636.355-.847a1.208 1.208 0 0 1 1.66 0Zm16.731 1.523c.236-.233.364-.542.364-.85 0-.3-.128-.603-.366-.821h.002c-.002-.007-.008-.007-.008-.007-.001-.006-.005-.008-.005-.008h-.003a1.18 1.18 0 0 0-.825-.346c-.306 0-.605.127-.833.354l-9.265 9V8.139c0-.652-.548-1.182-1.22-1.182-.324 0-.621.136-.833.349a1.19 1.19 0 0 0-.352.833v22.145a1.195 1.195 0 0 0 1.185 1.177c.672.001 1.22-.526 1.22-1.177V26.63l3.017-3.004 6.15 7.397c.116.17.274.287.429.349.178.067.35.09.504.09.212 0 .511-.045.774-.251l.015-.009.015-.016a1.26 1.26 0 0 0 .386-.893 1.22 1.22 0 0 0-.293-.783v-.004l-6.261-7.587 6.197-5.975h.006Zm-41.505-8.934h-.265c-.034 0-.068.003-.105.005-.032-.002-.067-.005-.101-.005-.683 0-1.347.077-1.967.283-.61.202-1.174.537-1.61 1.044l-.002-.002-.002.002v.002c-.451.5-.748 1.098-.929 1.778-.182.683-.256 1.452-.263 2.326v1.693h-1.872a1.162 1.162 0 0 0-1.167 1.149c-.003.337.128.648.342.872.216.22.511.365.839.383h1.858v13.773l-.002.033c0 .323.136.62.355.834.217.21.522.334.854.334a1.162 1.162 0 0 0 1.15-1.168V16.539h2.013a1.27 1.27 0 0 0 .838-.372c.219-.219.353-.525.353-.858v-.045c-.007-.62-.527-1.129-1.178-1.129h-2.026v-1.686c.013-.745.091-1.304.203-1.71.109-.408.258-.665.391-.824.131-.14.301-.258.579-.352.279-.09.665-.148 1.187-.148h.061c.031 0 .064-.006.093-.006.036 0 .07.006.108.006h.265a1.204 1.204 0 1 0 0-2.406ZM15.157 23.558a2.79 2.79 0 0 0 .128-.92 2.954 2.954 0 0 0-.103-.666 2.809 2.809 0 0 0-1.318-1.695L4.25 14.744A2.834 2.834 0 0 0 .383 15.78a2.808 2.808 0 0 0 1.035 3.852L6.79 22.73l-5.372 3.089a2.817 2.817 0 0 0-1.035 3.86 2.835 2.835 0 0 0 3.867 1.03l9.614-5.538a2.805 2.805 0 0 0 1.292-1.612Zm2.609 5.186a2.794 2.794 0 0 0-1.644.369L6.5 34.643a2.828 2.828 0 0 0-1.034 3.864 2.831 2.831 0 0 0 3.865 1.028l5.39-3.1v6.195a2.828 2.828 0 0 0 2.835 2.825 2.83 2.83 0 0 0 2.83-2.825V31.556a2.823 2.823 0 0 0-2.62-2.812ZM27.62 16.71a2.826 2.826 0 0 0 1.64-.368l9.62-5.536a2.824 2.824 0 0 0 1.036-3.86 2.833 2.833 0 0 0-3.865-1.032l-5.387 3.103V2.821A2.827 2.827 0 0 0 27.83 0 2.824 2.824 0 0 0 25 2.821v11.073a2.828 2.828 0 0 0 2.62 2.816ZM6.5 10.806l9.622 5.536a2.833 2.833 0 0 0 1.644.368 2.83 2.83 0 0 0 2.62-2.816V2.821A2.829 2.829 0 0 0 17.556 0a2.827 2.827 0 0 0-2.834 2.821v6.196L9.33 5.914a2.835 2.835 0 0 0-3.865 1.031 2.823 2.823 0 0 0 1.034 3.86Zm18.083 11.9a.843.843 0 0 0-.212-.504l-1.158-1.15a.82.82 0 0 0-.5-.207h-.046a.81.81 0 0 0-.498.208l-1.158 1.149a.823.823 0 0 0-.205.504v.045c0 .159.09.38.205.497L22.17 24.4a.812.812 0 0 0 .498.207h.045a.818.818 0 0 0 .501-.207l1.158-1.152a.82.82 0 0 0 .212-.497v-.045Zm3.196 1.105-3.999 3.982a.797.797 0 0 1-.502.212h-1.176a.814.814 0 0 1-.502-.212l-3.997-3.982a.804.804 0 0 1-.207-.497V22.14c0-.162.092-.388.207-.502l3.997-3.981a.808.808 0 0 1 .502-.21h1.176a.8.8 0 0 1 .502.21l4 3.981c.113.114.206.34.206.502v1.174c0 .16-.093.385-.207.497ZM38.88 34.644l-9.62-5.531a2.786 2.786 0 0 0-1.64-.369A2.821 2.821 0 0 0 25 31.557V42.63a2.825 2.825 0 0 0 2.83 2.825 2.828 2.828 0 0 0 2.834-2.825v-6.195l5.387 3.1a2.83 2.83 0 0 0 3.865-1.027 2.828 2.828 0 0 0-1.036-3.864Zm5.087-15.013-5.374 3.098 5.373 3.089a2.818 2.818 0 0 1 1.037 3.86 2.838 2.838 0 0 1-3.867 1.03l-9.622-5.538a2.801 2.801 0 0 1-1.285-1.612 2.763 2.763 0 0 1-.127-.92 2.836 2.836 0 0 1 1.412-2.361l9.622-5.534a2.836 2.836 0 0 1 3.867 1.036 2.81 2.81 0 0 1-1.036 3.852ZM200 14.107c0 1.553-1.043 2.848-2.784 2.848-1.73 0-2.76-1.308-2.76-2.848 0-1.553 1.03-2.849 2.76-2.849 1.741 0 2.784 1.296 2.784 2.849Zm-.552 0c0-1.32-.883-2.323-2.232-2.323-1.325 0-2.208.953-2.208 2.323 0 1.308.883 2.323 2.208 2.323 1.349 0 2.232-1.003 2.232-2.323Zm-3.324-1.284h1.19c.65 0 1.079.354 1.079.904a.864.864 0 0 1-.429.759l.466.672v.135h-.675l-.454-.648h-.527v.648h-.65v-2.47Zm1.177.6h-.527v.647h.527c.246 0 .405-.11.405-.318 0-.22-.147-.33-.405-.33Z"/>
</svg>
