<svg width="180" height="130" viewBox="0 0 180 130" fill="none" xmlns="http://www.w3.org/2000/svg">
<path fill-rule="evenodd" clip-rule="evenodd" d="M166.74 62.9001H159.713V35.033H166.327V38.1543C167.153 36.2815 169.221 34.6219 171.908 34.4107C176.454 34.205 179.556 36.9077 179.556 42.7278V62.8984H172.31V41.8924C172.31 39.3954 172.31 37.317 170.639 36.9021C170.018 36.6965 168.967 36.9021 168.157 37.5244C167.126 38.5655 166.708 39.814 166.708 41.8924V62.8945L166.74 62.9001ZM47.2708 36.9021C45.5989 35.4442 43.5499 34.405 41.0663 34.405C38.5825 34.405 36.7267 35.4461 34.8655 36.9021C31.9712 39.3991 30.1099 43.9725 30.1099 48.9629C30.1099 54.1624 31.9675 58.5285 34.8655 61.0237C36.7267 62.4815 38.5862 63.5207 41.0663 63.5207C43.5462 63.5207 45.6137 62.4833 47.2708 61.0237C50.3731 58.5268 52.0264 54.1605 52.0264 48.9629C52.0264 43.9725 50.3546 39.3972 47.2708 36.9021ZM44.5845 48.9629C44.5845 54.1624 44.5845 58.3211 43.7561 60.4012C43.1376 61.4386 42.5301 62.0834 41.07 62.0834C39.844 62.0834 39.0044 61.4592 38.5882 60.4012C37.5534 58.3211 37.5534 54.1588 37.5534 48.9629C37.5534 43.9725 37.5534 39.6047 38.5882 37.5244C39.0024 36.4871 39.8142 35.8423 41.07 35.8423C42.5188 35.8423 43.1376 36.4666 43.7579 37.5244C44.7926 39.6047 44.5864 43.9725 44.5864 48.9629H44.5845ZM119.403 73.5049V80.9904H117.958C117.131 77.8729 115.89 75.1815 112.584 74.959C110.516 74.7535 108.657 76.0002 108.449 77.8712C108.24 79.742 108.863 81.4035 112.584 83.4855C117.339 86.19 121.058 87.4367 121.058 93.0514C121.058 99.0826 115.89 101.993 111.551 101.993H103.284V91.5935H104.733C105.768 97.0006 107.421 100.327 111.346 100.535C113.828 100.535 115.686 99.0771 115.686 96.3763C115.686 93.6755 114.014 92.0083 110.106 89.7226C105.766 87.0199 103.078 85.3564 103.078 81.6109C103.078 76.6207 106.593 73.4994 112.173 73.4994H119.418L119.403 73.5049ZM128.5 62.8984V42.7278C128.5 36.9039 125.398 34.2013 120.852 34.4107C117.75 34.6162 115.892 36.7002 115.064 38.3617C114.033 35.4498 111.757 34.2032 108.45 34.4107C105.766 34.6162 103.695 36.2834 102.87 38.1543V35.033H96.4612V62.8814H103.487V41.8997C103.487 39.8196 103.691 38.5729 104.936 37.5319C105.764 36.9095 106.589 36.7021 107.208 36.9095C108.879 37.3264 108.879 39.4065 108.879 41.8997V62.9001H115.873V41.6867C115.873 39.814 116.286 38.5655 117.322 37.5262C118.149 36.9039 118.994 36.6965 119.594 36.9039C121.266 37.3207 121.452 39.4009 121.452 41.8943V62.8814H128.48L128.5 62.8984ZM56.8006 29.2073H64.0452V62.8945H56.8006V29.2073ZM89.6436 62.9001V29.211H82.3988V37.1132C81.7802 35.6554 80.3312 34.6162 78.2656 34.6162C73.0976 34.6162 68.9644 40.0233 68.758 48.3405C68.5539 53.955 70.4113 63.3114 77.6451 63.3114C80.5374 63.3114 82.1927 61.6292 82.813 60.1901V62.8945H89.6343L89.6436 62.9001ZM81.169 37.3226C82.618 39.4027 82.6181 44.3913 82.6181 48.3424C82.6181 52.5009 82.8224 57.908 81.169 60.1957C80.5485 61.0291 79.943 61.4294 78.8972 61.4294C77.4482 61.4294 76.6214 59.7472 76.2111 57.0631C76.003 54.5663 76.003 51.4487 76.003 48.1217C76.003 42.5072 76.4173 36.2685 79.1052 36.2685C80.1399 36.2685 80.5542 36.6853 81.1728 37.3096L81.169 37.3226ZM149.999 35.8647C151.857 36.9058 153.1 38.5691 153.1 42.3129V62.9001H146.28V59.7788C145.452 62.0648 143.177 63.5207 140.075 63.5207C137.593 63.5207 133.254 62.2872 133.254 55.826C133.254 49.7946 137.181 48.5367 141.52 46.6771C145.447 44.9949 145.86 44.8044 145.86 43.1446V38.5691C145.86 36.7002 144.829 35.8666 142.757 35.8666C141.931 36.0722 140.485 36.4909 140.485 37.5487C140.277 38.7822 141.711 38.7822 141.934 40.67C142.139 43.5819 139.867 44.6193 137.801 44.4119C136.352 44.4119 134.699 43.5802 134.494 41.2943C134.29 37.5506 138.422 34.4312 144.198 34.4312C146.885 34.4312 148.538 35.0555 149.985 35.889L149.999 35.8647ZM145.863 46.2621L143.591 47.72C141.319 49.1777 140.903 51.0468 140.697 53.1271C140.493 54.8092 140.493 56.2484 140.697 58.7416C140.901 61.0274 142.35 61.446 143.591 61.0274C145.041 60.4033 145.863 57.7006 145.863 54.785V46.2585V46.2621ZM47.6868 74.7535C49.5483 75.987 50.5791 77.4581 50.5791 81.2018V102H43.9661V98.879C43.1393 100.959 40.8675 102.411 37.7616 102.411C35.0753 102.411 30.9404 101.37 30.9404 94.926C30.9404 88.8945 34.8671 87.6367 39.0024 85.777C43.1376 83.9174 43.5462 83.6969 43.5462 82.2445V77.6655C43.5462 75.5852 42.5116 74.7555 40.4476 74.963C39.6191 74.963 38.172 75.3797 38.172 76.4207C37.9677 77.8786 39.3982 77.8786 39.621 79.7477C39.829 82.4521 37.5534 83.4912 35.4878 83.4912C34.0386 83.2857 32.3855 82.4538 32.1812 80.1644C31.9767 76.6319 36.1081 73.5106 41.8837 73.5106C44.5716 73.5106 46.223 73.9273 47.672 74.7442L47.6868 74.7535ZM43.5518 85.151L41.2798 86.6087C39.0079 88.0666 38.5936 89.9357 38.3856 92.0157C38.1813 93.6793 38.1813 95.3427 38.3856 97.6304C38.3856 100.127 39.8345 100.54 41.0737 99.9164C42.727 99.2919 43.5555 96.7987 43.5555 93.6775V85.151H43.5518ZM97.7059 81.824C97.7059 76.0002 94.6035 73.0901 90.0579 73.5068C87.786 73.7125 85.9245 74.7404 84.8899 76.2114V68.0998H77.8661V87.233C77.8661 94.3036 72.9062 100.957 67.9463 100.75C64.4353 100.75 63.6051 98.0471 63.1908 95.1353C62.5703 90.9747 62.5703 86.1939 62.9826 80.9942C63.3969 77.6674 64.2088 74.963 66.7035 74.963C68.565 74.963 68.7711 76.1964 67.9295 77.0431C67.101 78.0841 65.8621 79.1232 66.4807 81.4109C67.0992 83.9079 71.0244 84.321 72.8896 82.4521C74.3384 80.7887 74.1154 78.0841 73.0937 76.4207C71.8677 74.3404 69.7873 73.5106 66.685 73.5106C62.758 73.5106 55.3163 77.0431 55.3163 88.2759C55.3163 100.337 62.9641 102.415 67.3035 102.415C72.2635 102.415 76.6048 98.0471 77.8437 94.5128V102.002H84.8714V80.9961C84.8714 78.9158 85.2856 77.6691 86.3202 76.6281C87.1487 76.0059 88.1817 75.7966 88.802 76.0059C90.4554 76.4207 90.4554 78.5027 90.4554 80.9961V102H97.7002V81.8278L97.7059 81.824ZM25.3619 28.5849V40.4382H23.9127C22.6867 34.6144 19.9856 30.2483 16.2649 30.0409C13.783 29.8353 12.3397 31.2744 11.0969 33.3677C9.87091 35.8647 9.23559 41.0625 9.23559 47.2995C9.23559 53.1233 9.4436 57.4894 10.0641 60.6068C10.4764 62.0648 11.5129 64.3505 14.1973 64.3505C15.6463 64.3505 16.6791 63.9338 17.2996 63.117C18.3342 61.8833 18.5256 59.3733 18.5256 57.7099V52.0972C18.5256 50.0169 17.9051 48.7704 16.8723 48.146C16.0457 47.7292 14.8047 47.7292 14.1862 47.5218V46.0639H25.7594V75.7816H24.3104C23.6973 73.5162 23.283 71.8527 22.2484 69.9837C21.2135 68.1148 19.3541 66.0345 16.2537 66.0345C12.9471 65.8252 10.4653 67.9074 10.4653 71.0247C10.4653 75.1853 12.9471 76.2246 17.4928 78.7197C21.8342 81.2167 27.4127 83.295 27.4127 90.5748C27.4127 97.6453 21.418 102.013 14.5985 102.013H3.6421V87.6779H5.0911C6.95242 98.4901 11.5 100.363 14.5985 100.363C18.5256 100.363 20.3721 97.8659 20.3721 94.3315C20.1676 89.7561 17.0561 88.0891 12.7241 85.805C6.52335 82.2727 3.63098 80.6055 3.63098 74.7815C3.83529 69.7912 7.76611 66.6699 12.1056 65.4234C3.01242 64.3824 0.324357 56.0652 0.532542 47.1331C0.532542 38.1918 5.70049 28.6242 15.8264 28.6242H25.3338L25.3619 28.5849Z" fill="#64A8F0"/>
</svg>
 