<?xml version="1.0" encoding="UTF-8"?>
<svg width="229px" height="44px" viewBox="0 0 229 44" version="1.1" xmlns="http://www.w3.org/2000/svg" xmlns:xlink="http://www.w3.org/1999/xlink">
    <title>crypto</title>
    <g id="Logos" stroke="none" stroke-width="1" fill="none" fill-rule="evenodd">
        <g id="Artboard" transform="translate(-72.000000, -33.000000)" fill="currentColor" fill-rule="nonzero">
            <g id="crypto-com-vector-logo" transform="translate(72.000000, 33.000000)">
                <path d="M19,0 L38,11 L38,33 L19,44 L0,33 L0,11 L19,0 Z M86.1567797,15 L91.1525424,27.8333333 L95.9576271,15 L100,15 L91.4194915,37 L87.4915254,37 L89.3601695,32.3605442 L82,15 L86.1567797,15 Z M107,15 L107,18.1054422 C108.294118,16.3843537 110.098039,15 112.882353,15 C117,15 121,18.1054422 121,23.6428571 C121,29.1802721 117.039216,32.3231293 112.882353,32.3231293 C110.019608,32.3231293 108.215686,30.9387755 107,29.4047619 L107,37 L103,37 L103,15 L107,15 Z M9.74749499,19.7847222 L4.72144289,23.5277778 L11.5370741,35.4444444 L14.2785571,35.4444444 L17.5150301,32.4270833 L17.5150301,30.8993056 L14.1643287,27.6909722 L14.1643287,22.6111111 L9.74749499,19.7847222 Z M28.2905812,19.7465278 L23.9118236,22.6111111 L23.9118236,27.6909722 L20.5611222,30.8993056 L20.5611222,32.4270833 L23.7975952,35.40625 L26.501002,35.40625 L33.2785571,23.5277778 L28.2905812,19.7465278 Z M59.9756098,14 C63.2536585,14 65.2829268,15.2051836 66.8829268,16.9546436 L64.4243902,19.5982721 C63.2146341,18.3153348 61.9268293,17.4600432 59.9365854,17.4600432 C57.0487805,17.4600432 54.9414634,19.9481641 54.9414634,22.9805616 C54.9414634,26.0907127 57.0878049,28.5788337 60.1317073,28.5788337 C62.004878,28.5788337 63.3707317,27.6846652 64.6195122,26.4406048 L67,28.812095 C65.2829268,30.6393089 63.2926829,32 59.9365854,32 C54.7853659,32 51,27.9956803 51,23.0583153 C51,18.1209503 54.8243902,14 59.9756098,14 Z M80,14.0094219 L80,18.2150116 L79.7683398,18.2150116 C76.3320463,18.2150116 73.9382239,20.473569 73.9382239,25.0685651 L73.9382239,32 L70,32 L70,14.0094219 L73.9382239,14.0094219 L73.9382239,18.2150116 C75.019305,15.644929 76.988417,13.8536593 80,14.0094219 Z M129.245059,10 L129.245059,14.6841187 L133,14.6841187 L133,18.0244328 L129.245059,18.0244328 L129.245059,26.3944154 C129.245059,27.8917976 130.035573,28.5061082 131.418972,28.5061082 L133,28.5061082 L133,32 L130.233202,32 C127.3083,32 125.213439,30.7329843 125.213439,27.008726 L125.213439,18.0244328 L123,18.0244328 L123,14.6841187 L125.213439,14.6841187 L125.213439,10 L129.245059,10 Z M145.019027,14 C150.194503,14 154,18.0043197 154,22.9805616 C154,27.8790497 150.194503,32 144.942918,32 C139.805497,32 136,27.9956803 136,23.0583153 C136,18.0820734 139.843552,14 145.019027,14 Z M191.019027,14 C196.194503,14 200,18.0043197 200,22.9805616 C200,27.8790497 196.156448,32 190.942918,32 C185.805497,32 182,27.9956803 182,23.0583153 C182,18.0820734 185.843552,14 191.019027,14 Z M223,14 C226.730769,14 229,16.3663793 229,20.5948276 L229,31.9612069 L225.076923,31.9612069 L225.076923,21.7974138 C225.076923,19.0431034 223.807692,17.6077586 221.615385,17.6077586 C219.5,17.6077586 217.961538,19.1206897 217.961538,21.875 L217.961538,32 L214.038462,32 L214.038462,21.7974138 C214.038462,19.1206897 212.730769,17.6077586 210.576923,17.6077586 C208.423077,17.6077586 206.923077,19.237069 206.923077,21.9137931 L206.923077,32 L203,32 L203,14.0387931 L206.923077,14.0387931 L206.923077,16.987069 C208.038462,15.4741379 209.5,14.0387931 212.115385,14.0387931 C214.576923,14.0387931 216.269231,15.2413793 217.192308,17.0646552 C218.615385,15.2025862 220.423077,14 223,14 Z M159.09901,28 L160.881188,28.8928571 L161,29.0714286 L161,30.9285714 L160.881188,31.1071429 L159.09901,32 L158.861386,32 L157.118812,31.1071429 L157,30.9285714 L157,29.0714286 L157.118812,28.8928571 L158.861386,28 L159.09901,28 Z M173.148935,14.0024608 C176.418762,14.0801899 178.44294,15.3238551 180,17.1116238 L177.508704,19.7155479 C176.340909,18.4330181 175.056334,17.5002692 173.071082,17.4614047 C170.190521,17.4225401 168.049563,19.8321415 168.010636,22.90244 C167.932783,26.011603 170.034815,28.537798 173.071082,28.5766625 C174.939554,28.6155271 176.340909,27.7605072 177.586557,26.516842 L179.922147,28.9264434 C178.170454,30.7530767 176.146276,32.0744709 172.75967,31.9967419 C167.621371,31.8801483 163.923353,27.7993718 164.001206,22.8635755 C164.079059,17.9277791 167.97171,13.8858672 173.148935,14.0024608 Z M111.980392,18.329932 C109.27451,18.329932 106.921569,20.4251701 106.921569,23.6802721 C106.921569,26.9353741 109.313725,29.0306122 111.980392,29.0306122 C114.72549,29.0306122 116.960784,26.9727891 116.960784,23.6802721 C116.960784,20.3877551 114.686275,18.329932 111.980392,18.329932 Z M144.942918,17.4211663 C141.82241,17.4211663 139.843552,19.9092873 139.843552,22.9416847 C139.843552,26.012959 141.97463,28.5399568 144.980973,28.5399568 C148.10148,28.5399568 150.080338,26.0518359 150.080338,23.0194384 C150.156448,19.9481641 147.987315,17.4211663 144.942918,17.4211663 Z M190.942918,17.4211663 C187.82241,17.4211663 185.843552,19.9092873 185.843552,22.9416847 C185.843552,26.012959 187.97463,28.5399568 190.980973,28.5399568 C194.10148,28.5399568 196.080338,26.0518359 196.080338,23.0194384 C196.118393,19.9481641 193.987315,17.4211663 190.942918,17.4211663 Z M23.8356713,18.3333333 L14.1643287,18.3333333 L15.8016032,22.6111111 L15.3066132,27.3854167 L22.6933868,27.3854167 L22.2364729,22.6111111 L23.8356713,18.3333333 Z M26.4629259,9.51041667 L11.498998,9.51041667 L9.74749499,17.1493056 L28.252505,17.1493056 L26.4629259,9.51041667 Z" id="crypto"></path>
            </g>
        </g>
    </g>
</svg>