<svg width="207px" height="24px" viewBox="0 0 207 24" version="1.1" xmlns="http://www.w3.org/2000/svg" xmlns:xlink="http://www.w3.org/1999/xlink">
    <title>doordash</title>
    <g id="Homepage" stroke="none" stroke-width="1" fill="none" fill-rule="evenodd">
        <g id="Artboard" transform="translate(-303.000000, -163.000000)" fill="currentColor" fill-rule="nonzero">
            <path d="M363.045614,169.821507 L363.045614,180.395056 L365.68156,180.395056 C367.040645,180.374872 368.333742,179.805575 369.2665,178.816754 C370.214117,177.813371 370.732594,176.479605 370.711498,175.099543 C370.752082,173.715066 370.239308,172.371499 369.286663,171.3662 C368.349621,170.375581 367.045037,169.816114 365.68156,169.820141 L363.046958,169.820141 L363.045614,169.821507 Z M365.68156,166.506266 C370.594554,166.506266 374.311224,170.31355 374.311224,175.099543 C374.311224,179.885536 370.594554,183.714331 365.68156,183.714331 L359.867962,183.714331 C359.756018,183.712914 359.649223,183.667074 359.571075,183.586898 C359.492927,183.506721 359.449829,183.398778 359.45123,183.286818 L359.45123,166.951256 C359.45123,166.714645 359.638106,166.522399 359.867962,166.522399 L365.68156,166.506266 L365.68156,166.506266 Z M386.974787,180.763441 C389.206133,180.770138 391.221066,179.397526 392.08,177.285505 C392.939603,175.177303 392.477074,172.760526 390.899806,171.118834 C389.347011,169.500822 386.957503,169.007881 384.891301,169.879316 C382.829322,170.750474 381.482449,172.811408 381.478416,175.099543 C381.478416,178.218505 383.935586,180.748628 386.976131,180.763441 M386.976131,166.116396 C392.147209,166.116396 396.100456,170.192556 396.100456,175.099543 C396.100456,180.00653 392.147209,184.082691 386.974787,184.082691 C381.803709,184.082691 377.884067,180.026696 377.884067,175.099543 C377.884067,170.17239 381.837314,166.116396 386.974787,166.116396 M408.66186,180.763416 C411.70375,180.75535 414.164952,178.222538 414.162265,175.103576 C414.158231,171.981926 411.691652,169.454491 408.651107,169.453147 C405.607873,169.453147 403.13995,171.979237 403.135918,175.099543 C403.135918,176.60256 403.717949,178.043736 404.754316,179.105796 C405.779151,180.163227 407.188063,180.761108 408.660516,180.763416 M408.660516,166.116396 C413.815464,166.116396 417.76871,170.17239 417.76871,175.099543 C417.76871,180.026696 413.799333,184.082691 408.660516,184.082691 C403.523043,184.082691 399.536191,180.026696 399.536191,175.099543 C399.536191,170.17239 403.489438,166.116396 408.660516,166.116396 M429.826046,169.821507 L426.109375,169.821507 L426.109375,174.372234 L429.826046,174.372234 C430.4196,174.398552 430.997598,174.178122 431.422937,173.76323 C431.853076,173.346472 432.097717,172.768388 432.103094,172.160729 C432.124982,171.5378 431.891979,170.932875 431.457886,170.485631 C431.031441,170.045156 430.438754,169.80541 429.826046,169.82554 L429.826046,169.821507 L429.826046,169.821507 Z M422.513682,166.951256 C422.513682,166.714645 422.701868,166.522399 422.931723,166.522399 L429.929548,166.522399 C433.265814,166.522399 435.679969,169.029667 435.679969,172.178205 C435.705509,174.307703 434.542789,176.263776 432.68647,177.216942 L435.913857,183.069028 C436.004908,183.206184 436.011144,183.382883 435.929988,183.526117 C435.850615,183.667319 435.696204,183.749263 435.534797,183.735841 L432.702601,183.735841 C432.542291,183.738114 432.394895,183.6482 432.323541,183.504607 L429.213097,177.713018 L426.095934,177.713018 L426.095934,183.273374 C426.097729,183.385565 426.054791,183.493855 425.976604,183.574323 C425.898418,183.654791 425.791417,183.700816 425.679236,183.702231 L422.950542,183.702231 C422.838362,183.700816 422.73136,183.654791 422.653174,183.574323 C422.574987,183.493855 422.532049,183.385565 422.533845,183.273374 L422.515026,166.9526 L422.513682,166.951256 Z M445.051624,169.90217 L445.051624,180.477064 L447.686226,180.477064 C449.044984,180.458644 450.338516,179.891308 451.27251,178.904139 C452.220576,177.901929 452.740008,176.569154 452.720197,175.189617 C452.763669,173.803407 452.252246,172.45716 451.299394,171.449551 C450.360751,170.457226 449.053381,169.897607 447.68757,169.903514 L445.051624,169.90217 L445.051624,169.90217 Z M447.686226,166.582896 C452.59922,166.582896 456.31589,170.394213 456.31589,175.189617 C456.31589,179.98502 452.59922,183.796338 447.686226,183.796338 L441.890102,183.796338 C441.777922,183.794923 441.67092,183.748898 441.592734,183.66843 C441.514547,183.587962 441.471609,183.479672 441.473351,183.367481 L441.473351,167.033263 C441.473351,166.795308 441.660246,166.603061 441.890102,166.603061 L447.68757,166.582896 L447.686226,166.582896 Z M467.279059,170.788116 L465.239931,176.442579 L469.314155,176.442579 L467.279059,170.788116 L467.279059,170.788116 Z M464.043607,179.63817 L462.708832,183.402435 C462.653756,183.584622 462.482265,183.706343 462.292135,183.698198 L459.396761,183.698198 C459.24657,183.712197 459.100708,183.643122 459.016357,183.518051 C458.930317,183.391708 458.916554,183.229581 458.980064,183.090538 L465.235899,166.771109 C465.295868,166.594259 465.466141,166.478895 465.652596,166.488789 L468.892081,166.488789 C469.079021,166.478275 469.250019,166.593756 469.310122,166.771109 L475.565957,183.090538 C475.629074,183.229812 475.614799,183.391952 475.52832,183.518051 C475.443641,183.642612 475.29784,183.711143 475.147916,183.696854 L472.253886,183.696854 C472.063756,183.704999 471.892265,183.583278 471.837189,183.40109 L470.502414,179.636826 L464.043607,179.636826 L464.043607,179.63817 Z M478.922386,171.155132 C478.922386,168.452928 481.199434,166.116396 484.795128,166.116396 C486.731443,166.07315 488.606274,166.797578 490.010564,168.131621 C490.097054,168.213391 490.146062,168.327173 490.146062,168.446206 C490.146062,168.56524 490.097054,168.679022 490.010564,168.760791 L488.406952,170.394213 C488.329453,170.474388 488.222731,170.51966 488.111231,170.51966 C487.999732,170.51966 487.893009,170.474388 487.815511,170.394213 C487.06018,169.686157 486.068165,169.28498 485.033049,169.268967 C483.594771,169.268967 482.531521,170.125337 482.531521,171.113456 C482.531521,174.307703 491.0308,172.464558 491.0308,178.611064 C491.026767,181.725993 488.732244,184.082691 484.675496,184.082691 C482.399415,184.106006 480.211291,183.204626 478.611879,181.584833 C478.525389,181.503063 478.476381,181.389281 478.476381,181.270248 C478.476381,181.151214 478.525389,181.037433 478.611879,180.955663 L480.163068,179.363917 C480.241151,179.279789 480.350738,179.231984 480.46551,179.231984 C480.580281,179.231984 480.689868,179.279789 480.767951,179.363917 C481.74427,180.331765 483.058977,180.881447 484.433542,180.89651 C486.230717,180.89651 487.414944,179.912424 487.414944,178.679627 C487.414944,175.484036 478.919697,177.328525 478.919697,171.180675 M506.44322,166.929746 L506.44322,173.388147 L499.249144,173.388147 L499.249144,166.929746 C499.250579,166.817786 499.207482,166.709842 499.129334,166.629666 C499.051186,166.54949 498.944391,166.50365 498.832447,166.502233 L496.103752,166.502233 C495.991809,166.50365 495.885014,166.54949 495.806866,166.629666 C495.728718,166.709842 495.68562,166.817786 495.687021,166.929746 L495.687021,183.246486 C495.687021,183.483097 495.875241,183.675344 496.103752,183.675344 L498.832447,183.675344 C499.060958,183.675344 499.249144,183.483097 499.249144,183.246486 L499.249144,176.685912 L506.437843,176.685912 L506.437843,183.246486 C506.437843,183.483097 506.626029,183.675344 506.85454,183.675344 L509.583235,183.675344 C509.813091,183.675344 509.999967,183.483097 509.999967,183.246486 L509.999967,166.929746 C510.001367,166.817786 509.95827,166.709842 509.880122,166.629666 C509.801974,166.54949 509.695179,166.50365 509.583235,166.502233 L506.85454,166.502233 C506.62354,166.508101 506.440202,166.698657 506.44322,166.929746 Z M344.134282,168.680129 C342.24167,165.171297 338.538441,162.986679 334.511264,163.000061 L304.041289,163.000061 C303.620631,163.001831 303.241721,163.254827 303.078853,163.642736 C302.918262,164.028408 303.007584,164.472955 303.304676,164.766638 L309.94226,171.3541 C310.528324,171.937561 311.32677,172.264246 312.157476,172.264246 L333.637545,172.264246 C335.168571,172.248113 336.420007,173.460744 336.436137,174.970483 C336.452267,176.480222 335.225026,177.717051 333.694,177.731839 L318.885119,177.731839 C318.464131,177.732012 318.084072,177.98401 317.919995,178.371764 C317.757842,178.757913 317.846702,179.203875 318.144474,179.498355 L324.786089,186.091195 C325.375829,186.67436 326.171984,187.000985 327.001305,186.999998 L333.699377,186.999998 C342.413725,186.999998 349.002918,177.804436 344.134282,168.676095" id="doordash"></path>
        </g>
    </g>
</svg>