<svg width="94px" height="49px" viewBox="0 0 94 49" version="1.1" xmlns="http://www.w3.org/2000/svg" xmlns:xlink="http://www.w3.org/1999/xlink">
    <title>draft-kings</title>
    <g id="Homepage" stroke="none" stroke-width="1" fill="none" fill-rule="evenodd">
        <g id="Artboard" transform="translate(-634.000000, -243.000000)" fill="currentColor" fill-rule="nonzero">
            <path d="M724.163773,277.3 L724.163773,282.259766 C723.936832,282.045688 723.746811,281.862526 723.59371,281.710281 L723.59371,281.710281 L723.30601,281.423937 L723.30601,281.423937 L723.17672,281.295598 C723.051506,281.170705 722.933139,281.052311 722.819264,280.940106 C722.711475,280.832354 722.598014,280.730363 722.47936,280.634564 C722.235983,280.444807 721.969841,280.285861 721.687049,280.161378 C721.293238,279.993749 720.886535,279.85782 720.470857,279.754898 C720.107596,279.653059 719.73253,279.598773 719.35515,279.593414 C718.990773,279.586697 718.627188,279.629635 718.274526,279.72103 C717.946807,279.805856 717.634024,279.939927 717.346981,280.118611 C717.077709,280.284663 716.848067,280.507088 716.674043,280.770401 C716.55794,280.964757 716.533181,281.199911 716.606283,281.41397 C716.676184,281.676934 716.82441,281.912731 717.0315,282.090402 C717.265698,282.286779 717.526514,282.449408 717.80628,282.573509 C717.879208,282.606014 717.952159,282.635783 718.026116,282.66452 C718.228138,282.736641 718.434225,282.796963 718.643322,282.845179 C719.964441,283.153798 721.611013,283.15789 723.213532,284.006763 C723.438928,284.125912 723.656768,284.258688 723.865827,284.404344 L723.865827,284.404344 L723.875131,284.410507 C723.921576,284.441976 723.967669,284.475849 724.014813,284.509386 L724.014813,284.509386 C724.401837,284.776768 724.721794,285.1249 724.953003,285.530002 C725.088171,285.766052 725.200269,286.014446 725.28776,286.271776 C725.412306,286.65183 725.497945,287.043409 725.543383,287.440564 C725.578265,288.17506 725.407217,288.904747 725.04933,289.548183 C724.721572,290.1048 724.270015,290.579395 723.729274,290.935589 C723.174188,291.298331 722.556833,291.556601 721.907931,291.697547 C721.246495,291.848493 720.570138,291.925271 719.891513,291.926445 C719.490528,291.926453 719.089872,291.903607 718.691516,291.858022 C718.292578,291.811609 717.897283,291.738218 717.508378,291.638359 C717.147122,291.536607 716.780509,291.454709 716.410201,291.393036 C716.044821,291.33083 715.674418,291.302538 715.303771,291.308524 C715.061703,291.313011 714.820313,291.335544 714.581633,291.375933 C714.579316,291.374147 714.577234,291.372078 714.575436,291.369775 C713.833796,291.414385 713.112795,291.63016 712.469565,292 L712.469565,292 L712.469565,286.085986 C712.776946,286.556293 713.140114,286.988107 713.551239,287.372119 C713.937324,287.729417 714.349705,288.057538 714.78494,288.353744 C715.440348,288.781593 716.142712,289.133658 716.8784,289.403106 C717.251107,289.530718 717.632161,289.632804 718.01889,289.708649 C718.446909,289.797774 718.884689,289.831699 719.321424,289.809586 C719.722508,289.793933 720.115096,289.689926 720.470857,289.505071 C720.819809,289.312948 721.067909,288.979853 721.15102,288.591895 C721.221549,288.365579 721.170372,288.119104 721.015474,287.939082 C720.831422,287.721876 720.605395,287.543629 720.35079,287.414908 C720.036623,287.250431 719.705592,287.120009 719.363399,287.025889 C719.177732,286.972629 718.992526,286.925642 718.807782,286.884929 L718.807782,286.884929 L718.794365,286.881848 C718.760304,286.874649 718.728661,286.868469 718.693551,286.86027 C716.892868,286.450722 715.335393,286.042887 714.232408,285.201198 C714.177705,285.158107 714.123341,285.115327 714.070027,285.070501 C714.035967,285.042791 714.00224,285.014045 713.968185,284.985653 C713.958903,284.976413 713.947542,284.968196 713.938598,284.958965 L713.938598,284.958965 C713.631749,284.683173 713.37073,284.367913 713.1597,284.020107 C712.869416,283.498395 712.730762,282.906669 712.75924,282.311083 C712.712607,280.974542 713.34641,279.704632 714.445015,278.933402 C714.972501,278.558505 715.56326,278.280628 716.189294,278.112942 C716.846251,277.931801 717.525007,277.840745 718.206744,277.8423 C718.702008,277.827358 719.197598,277.858171 719.687134,277.934342 C720.12993,278.008924 720.566507,278.078379 720.997921,278.146815 C721.418629,278.203021 721.842057,278.236826 722.266394,278.248085 C723.781902,278.248085 724.163773,277.3 724.163773,277.3 L724.163773,277.3 Z M710.365282,278.116667 L710.365282,283.985476 C710.037907,283.090063 709.278824,282.470033 708.341625,281.857485 C707.508652,281.331023 706.588733,280.955795 705.62449,280.749186 C705.432601,280.706341 705.229859,280.665463 705.015328,280.628178 C704.814381,280.591584 704.609914,280.57787 704.40586,280.587301 C704.00217,280.593915 703.608627,280.714451 703.270847,280.934939 C702.970097,281.14202 702.718869,281.412689 702.535067,281.727654 C702.345342,282.055279 702.208204,282.410479 702.128626,282.78037 C701.762465,284.453803 701.775913,286.187647 702.167987,287.855235 L702.167987,287.855235 C702.240745,288.216233 702.367056,288.572522 702.542936,288.905022 C702.717609,289.232681 702.966919,289.51494 703.270847,289.729132 C703.627895,289.95978 704.048452,290.073117 704.473436,290.053221 C704.807214,290.076648 705.140433,290.000483 705.430635,289.834432 C705.625394,289.706162 705.773726,289.518972 705.853816,289.300394 C705.926953,289.087392 705.958143,288.862314 705.945671,288.637522 C705.934839,288.405018 705.929274,288.202919 705.929274,288.029924 C705.918441,287.684904 705.918441,287.342502 705.929274,287.002717 C705.943468,286.690051 705.912087,286.376986 705.836112,286.073303 C705.76492,285.796266 705.618504,285.544155 705.412951,285.344672 C705.127912,285.1057 704.776648,284.9589 704.405877,284.92378 L704.405877,284.92378 L711.652174,284.92378 C711.364635,285.010086 711.102893,285.165775 710.890144,285.377048 C710.688382,285.579405 710.527172,285.818257 710.415148,286.08081 C710.300525,286.352863 710.22116,286.638375 710.178974,286.93044 C710.134592,287.214146 710.111669,287.500776 710.110398,287.787908 L710.110398,287.787908 L710.110398,291.703441 C709.816161,291.430402 709.462982,291.228342 709.078067,291.112826 C708.720825,291.01083 708.34941,290.966993 707.978154,290.983007 C707.591331,291.001631 707.207901,291.064167 706.835292,291.169403 C706.445244,291.277978 706.059467,291.390155 705.675349,291.509187 C705.291328,291.627679 704.910367,291.735818 704.532467,291.833602 C704.169961,291.927833 703.798111,291.981795 703.423702,291.994502 C702.596483,292.026333 701.76976,291.919774 700.977862,291.679253 C700.279406,291.463686 699.629647,291.114811 699.06474,290.652041 C698.507755,290.187471 698.047584,289.618493 697.71029,288.977332 C697.620407,288.810438 697.537744,288.637548 697.462299,288.458662 C697.313826,288.10565 697.194246,287.74124 697.104732,287.369 C696.754699,285.517902 696.962322,283.604922 697.701419,281.871308 L697.701419,281.871308 L697.709309,281.857564 C697.946868,281.422551 698.240186,281.020198 698.581879,280.660633 C699.006605,280.216201 699.497541,279.839726 700.037378,279.54448 C700.585549,279.245069 701.17213,279.021609 701.780895,278.880281 C702.419368,278.733083 703.072795,278.660107 703.728114,278.662812 C704.050636,278.662292 704.372974,278.678228 704.693862,278.710557 C705.007511,278.742589 705.318497,278.796683 705.624494,278.872435 C705.928803,278.948086 706.250393,279.042488 706.589262,279.155642 C706.919745,279.267085 707.259657,279.348519 707.604847,279.39895 C707.921103,279.449607 708.240782,279.476066 708.561087,279.478094 C708.586335,279.477112 708.612902,279.477112 708.637509,279.475149 C708.678512,279.472204 708.718535,279.468281 708.75692,279.463381 C708.92459,279.43597 709.089713,279.394843 709.250614,279.340417 C709.77968,279.108887 710.184979,278.663925 710.365282,278.116667 L710.365282,278.116667 Z M685.984736,278.116667 L691.796637,286.920764 L691.796637,281.073153 C691.794793,280.755942 691.76923,280.439275 691.720147,280.125629 C691.673687,279.800344 691.576759,279.483692 691.432632,279.186354 C691.299176,278.906099 691.103131,278.657927 690.8586,278.459692 C690.590998,278.253529 690.263333,278.133573 689.92161,278.116667 L689.92161,278.116667 L696.121739,278.116667 C695.875526,278.151405 695.642695,278.246792 695.445625,278.39366 C695.258489,278.532167 695.100702,278.704232 694.98089,278.900449 C694.860702,279.100533 694.767191,279.314522 694.702587,279.537312 C694.634754,279.766651 694.589369,280.001648 694.56703,280.2392 C694.544479,280.478561 694.533224,280.702406 694.533224,280.909402 L694.533207,280.909402 L694.533207,288.390589 C694.533193,288.597261 694.544461,288.820444 694.567013,289.060138 C694.58932,289.298023 694.634705,289.533354 694.70257,289.763025 C694.767242,289.985687 694.860749,290.199557 694.980873,290.399555 C695.100594,290.595837 695.258395,290.767917 695.445608,290.906344 C695.642874,291.052885 695.875615,291.148233 696.121739,291.183333 L696.121739,291.183333 L689.186377,291.183333 L683.467371,282.407953 L683.467371,288.16213 C683.469293,288.561943 683.508833,288.960757 683.585502,289.353642 C683.655504,289.749376 683.83006,290.120913 684.092253,290.432241 C684.182466,290.530452 684.28142,290.620819 684.387977,290.7023 C684.501105,290.790595 684.61958,290.872287 684.74277,290.946942 C684.861617,291.018036 685.005043,291.096832 685.173048,291.183333 L685.173048,291.183333 L679.108463,291.183333 C679.143435,291.176714 679.177399,291.165843 679.209546,291.150977 C679.265547,291.129186 679.33076,291.10739 679.404166,291.085932 C679.476573,291.064148 679.547933,291.039384 679.615214,291.012974 C679.667899,290.992438 679.718727,290.967702 679.767172,290.939021 C679.960821,290.827026 680.127897,290.676846 680.257517,290.498265 C680.380687,290.32467 680.477188,290.134735 680.544012,289.93438 C680.6129,289.730166 680.658366,289.519251 680.67959,289.305433 C680.701772,289.08787 680.718501,288.875585 680.729776,288.668578 C680.744804,288.393563 680.751975,288.118556 680.755059,287.844527 L680.755059,287.844527 L680.755059,281.652571 C680.748909,281.397369 680.746845,281.20324 680.746845,281.073153 C680.745003,280.761526 680.722539,280.450331 680.67959,280.141478 C680.638136,279.816392 680.552834,279.497954 680.42586,279.194282 C680.308089,278.909098 680.122982,278.654487 679.88532,278.450781 C679.624276,278.240117 679.296503,278.12221 678.956522,278.116667 L678.956522,278.116667 L685.984736,278.116667 Z M669.033226,276.483333 C667.400622,276.807595 665.897552,277.569523 664.698774,278.680531 C664.087157,279.355066 663.328852,280.239753 662.536153,281.190689 C663.379561,282.743049 664.391783,284.52124 665.28827,285.863119 C666.810692,288.143207 668.866435,290.04409 670.840166,290.814888 C670.885791,290.782581 670.932761,290.751579 670.973248,290.718296 C671.218895,290.508618 671.42159,290.256843 671.570931,289.97589 C671.766959,289.591563 671.865169,289.168153 671.857504,288.740392 C671.869081,288.437339 671.87487,288.178122 671.87487,287.96274 L671.87487,287.96274 L671.87487,281.183835 C671.898351,280.643835 671.803501,280.105113 671.596439,279.602428 C671.452865,279.273425 671.244001,278.974297 670.981452,278.721663 C670.724404,278.505132 670.419169,278.347753 670.089035,278.261532 L670.089035,278.261532 L678.13913,278.261532 C677.813189,278.362538 677.510068,278.52164 677.245696,278.73048 C677.016397,278.916433 676.827537,279.143861 676.689896,279.399783 C676.552475,279.662163 676.456252,279.942574 676.404343,280.231928 C676.362201,280.459619 676.336049,280.689766 676.326065,280.920816 L676.326065,280.920816 L676.326056,288.50055 C676.33096,288.929994 676.423458,289.354367 676.598339,289.749751 C676.746016,290.078534 676.953967,290.379272 677.212326,290.637698 C677.472511,290.868964 677.774923,291.052271 678.104409,291.178435 L678.104409,291.178435 L677.060245,291.178928 C677.001146,291.178956 676.939931,291.178984 676.876704,291.179014 L674.756266,291.179985 C674.665224,291.180026 674.573103,291.180067 674.480008,291.180109 L672.721421,291.180884 C672.620363,291.180928 672.518952,291.180972 672.417292,291.181015 L670.281466,291.181905 C670.181408,291.181945 670.081827,291.181985 669.982828,291.182024 L667.290915,291.182994 C667.213911,291.183018 667.138526,291.183041 667.064863,291.183062 L665.680722,291.183333 C663.471131,291.183333 662.080787,289.473013 660.338165,286.828741 C659.972287,286.273326 659.617639,285.71498 659.285096,285.177828 C658.665309,285.951562 658.145926,286.607496 657.810682,287.031393 C657.810682,287.108418 657.8117,287.184442 657.812717,287.263097 C657.819412,287.682111 657.848113,288.109932 657.898822,288.54656 C657.943682,288.954821 658.034408,289.357241 658.169422,289.746817 C658.284471,290.088297 658.46769,290.405064 658.708874,290.679477 C658.937469,290.936518 659.249668,291.11228 659.595161,291.178439 L659.595161,291.178439 L651.165217,291.178439 C651.547809,291.13492 651.90734,290.980157 652.195491,290.734949 C652.458632,290.501766 652.668408,290.218736 652.811535,289.90378 C652.962197,289.573939 653.066129,289.226244 653.120561,288.869959 C653.144743,288.708426 653.164148,288.552438 653.178439,288.39743 L653.178439,288.39743 L653.206691,287.816557 L653.206691,280.254447 C653.681591,280.222854 654.154282,280.165876 654.622561,280.083781 C654.84617,280.04984 655.068761,280.010683 655.28217,279.968905 C655.906278,279.849498 656.521144,279.689331 657.12247,279.489523 C657.319548,279.424237 657.513887,279.354095 657.701765,279.280997 C657.7484,279.2624 657.795369,279.241836 657.841987,279.222585 L657.841987,279.222585 L657.841987,283.36668 L662.196861,278.318293 C663.064765,277.311564 662.461995,276.483333 662.461995,276.483333 L662.461995,276.483333 Z M658.290398,260.15 C658.290398,260.15 664.243478,260.743239 664.243478,267.818705 C664.243478,274.894172 659.2729,278.933333 652.506777,278.933333 C645.741614,278.933333 642.173913,275.913745 642.173913,272.697153 C642.173913,269.480237 644.457756,268.967795 645.520048,268.967795 C646.581355,268.967795 648.50187,269.938944 648.50187,272.459789 C648.50187,272.459789 646.590271,271.984385 646.590271,273.658958 C646.590271,275.33353 648.850368,276.376431 651.94957,276.376431 C655.047766,276.376431 659.423557,275.001666 659.423557,268.876315 C659.423557,262.34101 656.436804,262.0489 654.360334,262.0489 L654.360334,273.259341 C654.395894,273.833038 654.879288,274.271832 655.446372,274.245177 L655.430621,274.257879 C655.288096,274.369442 654.168035,275.178273 651.652169,275.178273 C648.949942,275.178273 648.180078,274.299931 648.180078,274.299931 L648.212669,274.299072 C648.412082,274.290478 649.459,274.196141 649.459,273.162534 L649.458067,272.605354 C649.456147,271.792541 649.451488,270.337359 649.446227,268.78501 L649.444231,268.19939 L649.444231,268.19939 L649.441185,267.317855 C649.434062,265.27057 649.427053,263.349399 649.424993,262.787035 L649.424388,262.6221 L649.424388,262.6221 C652.256065,261.396871 655.238462,260.56529 658.290398,260.15 Z M713.286957,261.783333 L713.286957,265.801263 C713.24776,265.659122 713.185587,265.523953 713.102768,265.400819 C713.022225,265.277565 712.932435,265.160273 712.83413,265.0499 C712.569156,264.748268 712.247369,264.498727 711.886101,264.314718 C711.52388,264.130676 711.140823,263.988418 710.744707,263.890831 C710.342643,263.791661 709.932689,263.725733 709.519219,263.693749 C709.099419,263.661398 708.693973,263.645222 708.302881,263.645222 L708.302881,263.645222 L705.785082,263.629707 L705.785082,267.222455 C706.299625,267.222016 706.747352,267.20859 707.128262,267.182177 C707.479151,267.161506 707.82315,267.078254 708.143122,266.936568 C708.45328,266.790332 708.725698,266.578111 708.94023,266.315599 C709.222805,265.958629 709.454424,265.566069 709.628777,265.148614 L709.628777,265.148614 L709.628777,271.126168 C709.54375,270.678067 709.357199,270.254037 709.082684,269.884903 C708.856969,269.601947 708.563027,269.377546 708.226903,269.231584 C707.872798,269.084877 707.495219,268.999092 707.110973,268.978047 C706.697158,268.951204 706.255194,268.937782 705.785082,268.937782 L705.785082,268.937782 L705.785082,271.877185 C705.785466,272.195046 705.816693,272.512161 705.878349,272.824307 C705.93519,273.129508 706.039744,273.42443 706.18837,273.698809 C706.334199,273.966405 706.527185,274.206994 706.758533,274.409611 C707.008075,274.623828 707.307894,274.775061 707.631602,274.85 L707.631602,274.85 L699.391304,274.85 C699.648608,274.719571 699.883714,274.551316 700.088339,274.351162 C700.294836,274.150462 700.475072,273.925707 700.624951,273.681999 C700.911909,273.216151 701.090008,272.694543 701.146611,272.15419 L701.146611,272.15419 L701.146611,264.513812 C701.132297,264.289831 701.098024,264.067483 701.044176,263.849275 C700.971799,263.551499 700.861979,263.263544 700.7172,262.991924 C700.574741,262.724033 700.39092,262.478984 700.172147,262.26532 C699.951421,262.050771 699.684825,261.886206 699.391304,261.783333 L699.391304,261.783333 L713.286957,261.783333 Z M728,261.783333 L728,266.683366 C727.906579,266.12924 727.653918,265.613267 727.272068,265.196817 C726.932311,264.8336 726.521749,264.541878 726.06501,264.339147 C725.641942,264.154693 725.197265,264.022952 724.741233,263.946963 C724.386024,263.884913 724.026539,263.849707 723.665906,263.841653 L723.665906,263.841653 L723.235578,263.841653 L723.235578,271.795356 C723.23596,272.134978 723.283323,272.472958 723.376353,272.799925 C723.467853,273.127442 723.610321,273.43894 723.798663,273.723281 C723.983976,274.004883 724.219374,274.251051 724.493479,274.449888 C724.77763,274.654876 725.10615,274.791851 725.453108,274.85 L725.453108,274.85 L716.766899,274.85 C717.079269,274.766667 717.373874,274.628445 717.636596,274.44196 C717.892605,274.259661 718.118325,274.039142 718.305656,273.788318 C718.494459,273.535899 718.639855,273.254495 718.736004,272.955411 C718.803069,272.749084 718.847566,272.536262 718.868736,272.320582 L718.868736,272.320582 L718.868736,263.841653 C718.352545,263.798484 717.832889,263.820335 717.322286,263.906681 C716.813788,263.988507 716.322116,264.151288 715.866452,264.388673 C715.423378,264.618943 715.032111,264.935396 714.716228,265.318962 C714.386808,265.727012 714.175375,266.215474 714.104348,266.73255 L714.104348,266.73255 L714.104348,261.783333 L728,261.783333 Z M674.383161,261.783346 C674.733065,261.782807 675.114598,261.799206 675.52776,261.832556 C675.936571,261.864579 676.341826,261.929955 676.73917,262.027982 C677.12911,262.123954 677.505014,262.266694 677.858071,262.452856 C678.20053,262.631295 678.496169,262.882751 678.722433,263.188039 C678.861499,263.370436 678.983374,263.564441 679.086605,263.767741 C679.256403,264.10201 679.355509,264.465483 679.378155,264.837008 L679.378155,264.837008 C679.460038,265.687431 679.188327,266.534128 678.623404,267.192124 C678.609015,267.211607 678.59256,267.229429 678.578174,267.24825 C678.466535,267.388954 678.344849,267.521985 678.214002,267.646375 L678.214002,267.646375 L678.12595,267.731215 C677.845147,267.977824 677.526418,268.181057 677.181084,268.333694 C678.433112,270.914727 680.164921,274.015428 681.64859,274.708237 C681.756624,274.644517 681.898952,274.555268 682.071558,274.44197 C682.272297,274.310102 682.466119,274.168301 682.652278,274.017114 C682.897308,273.77874 683.101771,273.50309 683.257823,273.200738 C683.473631,272.819779 683.678268,272.411426 683.871734,271.975679 C684.06509,271.540243 684.239216,271.120996 684.39411,270.717938 C684.549571,270.315088 684.665693,270.010168 684.742476,269.803179 L684.742476,269.803179 L686.148346,266.227041 C686.188251,266.134267 686.225476,266.040847 686.260349,265.940154 C686.376789,265.608611 686.545662,265.159433 686.766967,264.59262 C686.858548,264.365026 686.930554,264.130262 686.982228,263.890803 C687.037243,263.654419 687.037243,263.408844 686.982228,263.17246 C686.918092,262.912289 686.786641,262.672895 686.600667,262.477576 C686.442175,262.31221 686.260925,262.16953 686.062208,262.053699 C685.839539,261.934471 685.602368,261.84362 685.356408,261.783333 L685.356408,261.783333 L693.137123,261.783333 L694.912149,266.896159 L695.83219,269.584299 L696.513165,271.575561 C696.654884,271.957117 696.823845,272.328323 697.018781,272.686398 C697.202295,273.022226 697.418932,273.339457 697.66556,273.633506 C697.928066,273.939394 698.229126,274.211069 698.561453,274.441954 C698.686628,274.530724 698.816694,274.612609 698.951057,274.687232 C699.088717,274.762846 699.237117,274.817707 699.391304,274.85 L699.391304,274.85 L690.017617,274.85 C690.084332,274.817286 690.233867,274.749277 690.466221,274.645956 C690.723272,274.526028 690.960797,274.36916 691.171014,274.18049 C691.415819,273.964414 691.615758,273.70366 691.7598,273.412673 C691.919183,273.063502 691.94862,272.67023 691.842948,272.301827 C691.820825,272.2259 691.784603,272.111686 691.735652,271.959832 C691.685698,271.806986 691.629709,271.649189 691.569356,271.485784 C691.50833,271.322271 691.450328,271.161615 691.39535,271.003818 C691.339336,270.846025 691.295091,270.723871 691.262227,270.636064 L691.262227,270.636064 L687.330573,270.636064 C687.297726,270.733452 687.241407,270.875734 687.165283,271.060929 C687.087057,271.246016 687.012395,271.439242 686.941299,271.640608 C686.869222,271.842641 686.807871,272.04071 686.758919,272.236797 C686.716201,272.385983 686.691001,272.539502 686.683815,272.694343 C686.690937,273.194047 686.856068,273.679142 687.156237,274.082145 C687.46861,274.475675 687.912343,274.747681 688.408866,274.85 L688.408866,274.85 L677.575733,274.85 C675.462303,274.85 674.723675,273.729221 672.600293,268.950675 C672.366174,268.952657 672.124417,268.953648 671.875021,268.953648 L671.875021,268.953648 L671.332713,268.953648 C671.332373,269.541816 671.326546,270.140442 671.315233,270.749524 C671.303397,271.34924 671.326273,271.949126 671.383754,272.546387 C671.410317,272.911705 671.498854,273.270354 671.645843,273.608068 C671.754536,273.849686 671.906572,274.070953 672.094974,274.261716 C672.249645,274.414958 672.430119,274.541867 672.628748,274.637065 C672.797175,274.717008 672.969978,274.788091 673.146395,274.85 L673.146395,274.85 L665.094804,274.85 C665.383296,274.723152 665.644795,274.545718 665.865966,274.326744 C666.085388,274.110661 666.268371,273.862825 666.408275,273.592228 C666.54965,273.319408 666.657717,273.031711 666.730311,272.734901 C666.801891,272.448458 666.839021,272.155029 666.840968,271.860405 L666.840968,271.860405 L666.840968,265.164492 C666.840622,264.870689 666.834803,264.58183 666.82351,264.297917 C666.834485,263.831029 666.735871,263.367783 666.535033,262.942763 C666.392372,262.651585 666.187349,262.392814 665.93345,262.183471 C665.672842,261.995919 665.376281,261.859935 665.06087,261.783346 L665.06087,261.783346 Z M689.155595,264.838248 L687.762151,269.084515 L690.615448,269.084515 L689.155595,264.838248 Z M672.514614,263.680816 L672.290235,263.68587 C671.877074,263.702721 671.462534,263.710633 671.044243,263.710633 L671.044243,263.710633 L671.044243,267.173283 C671.417654,267.173283 671.807191,267.178238 672.214519,267.190126 C672.590551,267.203428 672.966718,267.167558 673.332751,267.083496 C673.657252,267.010147 673.950224,266.841774 674.171414,266.601509 C674.415998,266.287712 674.53342,265.898732 674.50167,265.507479 C674.53457,265.091292 674.427796,264.675934 674.197095,264.322667 C673.997405,264.069721 673.717691,263.886288 673.40023,263.800095 C673.039102,263.7043 672.664213,263.665722 672.290235,263.68587 Z M649.538315,243 L649.63888,243.041683 C649.79277,243.10852 649.942851,243.183871 650.088435,243.267389 C651.23018,243.94927 652.161324,245.823441 652.12488,247.069271 C652.230843,247.026567 652.338518,246.988269 652.446515,246.955743 C653.511879,246.636909 654.664564,246.840581 655.557562,247.505445 C655.50757,247.612783 655.452026,247.717424 655.391159,247.818941 C654.825753,248.774364 653.846861,249.408201 652.746891,249.531116 C652.72665,249.533142 652.707404,249.535181 652.687486,249.536194 C653.12397,251.075763 654.077432,252.416278 655.386093,253.330288 C655.539329,253.4384 655.699304,253.538711 655.861645,253.633611 C657.124794,254.170301 658.587759,253.666344 659.256853,252.464042 C659.782143,253.438035 660.845915,253.991762 661.941285,253.861373 C662.366368,253.832566 662.777269,253.696151 663.135684,253.464844 C663.959478,252.928985 664.660517,252.223507 665.192384,251.395121 C664.223111,251.098566 663.427587,250.397861 663.008445,249.471488 C662.945126,249.330105 662.891014,249.184743 662.846453,249.036319 C663.956403,248.594875 665.213276,248.746057 666.188002,249.438256 L666.188002,249.438256 C666.262213,248.116475 667.057651,246.944567 668.255842,246.395183 C668.540438,246.269599 668.84039,246.182531 669.147826,246.136279 C668.363346,247.858694 667.686815,249.628653 667.122189,251.435808 C666.724722,252.706045 666.383401,253.9939 666.098228,255.299375 C665.751822,256.887959 665.267178,259.768756 665.151429,260.464134 L665.127552,260.608107 L665.127552,260.608107 L665.125887,260.618213 C664.892096,261.323192 664.391388,261.907445 663.732026,262.244645 C663.642707,262.277217 663.542903,262.242056 663.493426,262.160586 C663.44786,262.099928 663.538643,261.998591 663.581838,261.94098 C663.935067,261.53907 664.064547,260.986306 663.926771,260.468417 C663.677708,259.196485 659.366515,259.03042 653.998307,260.39758 C648.631125,261.765767 644.959167,263.991039 645.351003,265.223652 C645.478277,265.743958 645.856639,266.165649 646.358754,266.346806 C646.424238,266.376285 646.551128,266.420686 646.542354,266.494562 C646.537556,266.589591 646.466657,266.668022 646.372929,266.681984 C645.632488,266.704964 644.912926,266.433617 644.370573,265.926894 L644.370573,265.926894 L644.34655,265.894988 C644.2057,265.706096 643.465216,264.706698 642.648649,263.654032 L642.374361,263.302209 C641.91491,262.716012 641.449931,262.139343 641.069196,261.702043 C640.192371,260.69718 639.274394,259.715699 638.317914,258.795557 C636.956323,257.474365 635.514236,256.239476 634,255.098039 C634.288633,254.967512 634.59323,254.875998 634.905823,254.825892 C636.262236,254.722515 637.500839,255.769759 638.174822,256.356749 L638.174822,256.356749 C638.685783,255.769759 639.693551,254.677113 640.913925,254.523244 C640.944311,254.672035 640.967256,254.960439 640.979409,255.11736 C641.057423,256.132032 640.696499,257.131293 639.988861,257.859812 C640.966782,258.390021 642.057202,258.676641 643.168397,258.695562 C643.424412,258.673301 643.675869,258.613942 643.914948,258.519332 C644.941637,258.113937 645.61814,257.120583 645.621998,256.012761 C646.783135,256.756498 648.316132,256.499318 649.173468,255.416956 C649.296384,255.220529 649.409036,255.01781 649.510964,254.809622 C649.553154,254.723541 649.59365,254.636456 649.632788,254.549679 C649.642924,254.5141 649.655078,254.479526 649.664183,254.445303 C649.666201,254.451403 649.667231,254.45852 649.669249,254.46462 C650.247679,253.114072 650.382794,251.613639 650.05501,250.1808 L650.05501,250.1808 L650.042,250.186 L650.060967,250.284826 C650.04931,250.252656 650.03797,250.221555 650.026971,250.191556 L649.99967,250.204183 C648.977475,250.629165 647.815875,250.547467 646.862652,249.98355 C646.760622,249.923967 646.661712,249.85915 646.566316,249.789357 C646.615261,249.681289 646.669785,249.575858 646.729667,249.473493 C647.229065,248.618288 648.062415,248.012295 649.027354,247.802667 C649.138034,247.7786 649.251101,247.759291 649.36382,247.746074 C648.734062,246.671366 648.548443,244.606072 649.221746,243.455478 C649.296525,243.328385 649.37903,243.206038 649.468791,243.089133 L649.468791,243.089133 L649.538315,243 Z" id="draft-kings"></path>
        </g>
    </g>
</svg>