<svg width="200px" height="40px" viewBox="0 0 200 40" version="1.1" xmlns="http://www.w3.org/2000/svg" xmlns:xlink="http://www.w3.org/1999/xlink">
    <title>freshworks</title>
    <g id="Homepage" stroke="none" stroke-width="1" fill="none" fill-rule="evenodd">
        <g id="Artboard" transform="translate(-53.000000, -248.000000)" fill="currentColor" fill-rule="nonzero">
            <path d="M82.9,253.9 C83.2304749,253.9 83.5832382,253.944577 83.9267224,254.033731 C84.2929745,254.122493 84.6464872,254.248495 85,254.4 L85,254.4 L85.134375,254.490625 C85.25625,254.59375 85.35,254.725 85.5,254.8 L85.5,254.8 L85.5,254.8 L85.6655977,254.934694 C85.7360636,254.996688 85.8034781,255.062243 85.8685129,255.131358 L85.9,255.1 L85.9,255.1 L85.96,255.2088 C86.04,255.34 86.12,255.42 86.2,255.5 L86.2,255.5 L86.1875443,255.521182 C86.1877876,255.521518 86.188031,255.521855 86.1882743,255.522192 L86.2,255.5 C86.3,255.7 86.4,255.8 86.6,256 L86.6,256 L86.5688605,256.124198 C86.9229535,256.783135 87.1,257.447306 87.1,258.2 L87.1,258.2 L87.1,271.1 C87.1,272.374028 86.9512116,273.63002 86.6670381,274.846916 C85.6258286,279.389332 82.7597025,283.345451 78.6,285.7 L78.6,285.7 C76,287.2 73.1,288 70.1,288 C69.2,288 68.4,287.9 67.6,287.8 L67.6,287.8 L67.653,287.707 L67.6,287.7 C67.592381,287.689333 67.5847619,287.678667 67.5771432,287.668 L67.5,287.8 L67.5,287.8 L67.5,287.8 L67.0859695,287.736999 C63.6471893,287.167899 60.5,285.5 58,283 L58,283 L57.7040112,282.696916 C55.2710059,280.14571 53.6807692,276.961538 53.2,273.5 L53.2,273.5 L53.1408,273.0096 C53.064,272.344 53,271.64 53,271 C53,268 53.8,265 55.3,262.4 L55.3,262.4 L55.3,262.4 L55.4869043,262.084019 C58.5287797,257.066681 64.0244898,253.9 70,253.9 L70,253.9 Z M78.6,268.7 C78.5956641,268.707413 78.5913232,268.714822 78.5869775,268.722227 L78.373,269.094 L78.2828645,269.256214 C78.0802271,269.628202 77.8929088,270.006166 77.7208747,270.389203 C75.534639,275.260777 75.8276903,280.960245 78.6,285.7 L78.5842854,285.672179 L78.5842854,285.672179 L78.4086011,285.352811 C75.6014178,280.122259 75.6652174,273.884783 78.6,268.7 Z M123.2,257.3 C125.6,257.1 127.9,258.2 129.3,260.1 C130.2,261.5 130.7,263.2 130.7,264.9 L130.7,264.9 L130.69938,265.122741 C130.691327,266.121429 130.578571,267.514286 129,267.7 L129,267.7 L118.2,267.7 C118.3,271.2 120.4,273.4 123.7,273.4 C125.3,273.4 126.9,272.8 128.1,271.8 C128.3,271.6 128.6,271.5 128.9,271.5 C129.6,271.5 130.2,272.1 130.2,272.8 C130.2,273.2 130,273.6 129.7,273.8 C128,275.3 125.8,276.1 123.6,276 C118.1,276 115.2,272.7 115.2,266.6 C115.2,260.7 118.1,257.3 123.2,257.3 Z M139.7,257.2 C141.9,257 144.1,258 145.6,259.7 C145.8,260 145.9,260.3 145.9,260.6 C145.9,261 145.8,261.3 145.5,261.6 C145,262.1 144.1,262.1 143.6,261.6 C142.6,260.6 141.1,260 139.6,260.1 C138.5,260.1 136.5,260.3 136.5,262.1 C136.5,263.7 138.3,264.3 140.5,265.1 L140.5,265.1 C143.3,266.1 146.4,267.1 146.6,270.8 C146.6,274 144.1,276 139.9,276 C137.4,276 135,275 133.3,273 C133.1,272.7 133,272.4 133,272.1 C133,271.4 133.6,270.8 134.3,270.8 C134.7,270.9 135,271 135.3,271.3 C136.5,272.5 138.2,273.2 139.9,273.1 C141.3,273.1 143.7,272.7 143.7,270.6 C143.7,269 141.8,268.4 139.7,267.7 C136.9,266.7 133.7,265.6 133.7,262 C133.7,259.1 136,257.2 139.7,257.2 Z M199.8,257.2 C205.1,257.2 208,260.4 208,266.5 C208,272.6 205.1,275.9 199.8,275.9 C194.5,275.9 191.6,272.5 191.6,266.5 C191.6,260.5 194.5,257.2 199.8,257.2 Z M101.6,249 C102.4,249 103,249.6 103.1,250.4 C103.1,251.1 102.5,251.7 101.7,251.7 C98.5,251.7 97.8,253.9 97.8,255.7 L97.8,255.7 L97.8,257.7 L101,257.7 C101.8,257.7 102.4,258.3 102.4,259.1 C102.4,259.9 101.8,260.5 101,260.5 L101,260.5 L97.8,260.5 L97.8,274.4 C97.8,275.3 97.2,275.9 96.3,275.9 C95.4,275.9 94.8,275.2 94.8,274.4 L94.8,274.4 L94.8,260.6 L93.8,260.6 C93,260.6 92.4,260 92.4,259.2 C92.4,258.4 93,257.8 93.8,257.8 L93.8,257.8 L94.8,257.8 L94.8,255.8 C94.8,252.5 96.6,249 101.6,249 Z M245.8,257.2 C248,257 250.2,258 251.7,259.7 C251.9,260 252,260.3 252,260.6 C252,261.3 251.5,261.9 250.8,262 C250.4,262 250.1,261.9 249.8,261.6 C248.8,260.6 247.3,260 245.8,260.1 C244.7,260.1 242.7,260.3 242.7,262.1 C242.7,263.7 244.5,264.3 246.7,265.1 L246.7,265.1 C246.84,265.15 246.98075,265.2 247.12185,265.250313 L247.5458,265.4025 C250.091,266.325 252.62,267.45 252.8,270.6 C252.8,273.8 250.3,275.8 246.1,275.8 C243.5,275.9 241.1,274.9 239.4,273 C239.2,272.7 239.1,272.4 239.1,272.1 C239.1,271.4 239.7,270.8 240.4,270.8 C240.8,270.9 241.1,271 241.4,271.3 C242.6,272.5 244.3,273.2 246,273.1 C247.4,273.1 249.8,272.7 249.8,270.6 C249.8,269 247.9,268.4 245.8,267.7 C243,266.7 239.8,265.6 239.8,262 C239.8,259.1 242.1,257.2 245.8,257.2 Z M112.740298,257.292603 L113,257.3 C113.7,257.3 114.4,257.9 114.4,258.7 C114.4,259.5 113.8,260.1 113,260.1 C109.9,260.1 108,262.2 108,265.8 L108,265.8 L108,274.3 C108,275.2 107.4,275.8 106.5,275.8 C105.6,275.8 105,275.1 105,274.3 L105,274.3 L105,258.9 C105,258.1 105.6,257.4 106.5,257.4 C107.4,257.4 108,258.1 108,258.9 L108,258.9 L108,259.7 C109.2,258.1 111,257.2 113,257.3 Z M151.5,248 C152.4,248 153,248.7 153,249.5 L153,249.5 L153,259.3 C154.2,257.9 156,257.1 157.8,257.2 C162.6,257.2 165,259.6 165,264.2 L165,264.2 L165,274.3 C165,275.2 164.4,275.8 163.6,275.8 C162.7,275.8 162.1,275.1 162.1,274.3 L162.1,274.3 L162.1,264.7 C162.1,261.3 161,259.9 157.8,259.9 C154.6,259.9 153,261.6 153,265 L153,265 L153,274.3 C153,275.2 152.3,275.8 151.5,275.8 C150.7,275.8 150.1,275.1 150.1,274.3 L150.1,274.3 L150.1,249.5 C150.1,248.6 150.7,248 151.5,248 Z M224.5,248 C225.3,248 225.9,248.7 225.9,249.5 L225.9,249.5 L225.9,264.9 L234.5,257.9 C234.8,257.6 235.1,257.5 235.5,257.5 C236.3,257.5 236.9,258.1 236.9,258.9 C236.9,259.4 236.7,259.8 236.3,260.1 L236.3,260.1 L230.3,264.9 L236.8,273.5 C237,273.7 237.1,274.1 237.1,274.4 C237.1,275.2 236.5,275.8 235.7,275.8 C235.3,275.8 234.8,275.5 234.5,275.1 L234.5,275.1 L227.9,266.7 L225.9,268.3 L225.9,274.3 C225.9,275.1 225.2,275.7 224.4,275.7 C223.6,275.7 223,275 223,274.2 L223,274.2 L223,249.4 C223,248.6 223.7,248 224.5,248 Z M168.6,257.5 C169.3,257.4 169.8,257.8 170,258.4 L170,258.4 L174,270.3 L177.4,258.5 C177.6,258.1 177.9,257.7 178.3,257.6 C179.1,257.4 179.9,257.7 180.2,258.5 L180.2,258.5 L183.6,270.3 L187.8,258.5 C188,257.9 188.6,257.5 189.2,257.5 C190,257.5 190.6,258.1 190.8,258.9 C190.8,259.1 190.8,259.3 190.7,259.5 L190.7,259.5 L185.1,274.8 C184.9,275.4 184.3,275.8 183.7,275.8 C183.1,275.8 182.5,275.4 182.3,274.8 L182.3,274.8 L179,263.6 L175.7,274.8 C175.5,275.4 174.9,275.8 174.3,275.8 C173.6,275.8 173.1,275.4 172.9,274.8 L172.9,274.8 L167.3,259.5 C167.2,259.3 167.2,259.1 167.2,258.9 C167.2,258.1 167.8,257.5 168.6,257.5 Z M218.940298,257.292603 L219.2,257.3 C220,257.3 220.6,257.9 220.6,258.7 C220.6,259.5 220,260.1 219.2,260.1 C216.1,260.1 214.2,262.2 214.2,265.8 L214.2,265.8 L214.2,274.3 C214.2,275.1 213.5,275.7 212.7,275.7 C211.9,275.7 211.3,275 211.3,274.2 L211.3,274.2 L211.3,258.8 C211.3,258 212,257.4 212.8,257.4 C213.6,257.4 214.2,258.1 214.2,258.9 L214.2,258.9 L214.2,259.7 C215.4,258.1 217.2,257.2 219.2,257.3 Z M199.8,259.8 C196.3,259.8 194.5,262 194.5,266.5 C194.5,271 196.3,273.2 199.8,273.2 C203.3,273.3 205,270.9 205,266.5 C205,262.1 203.3,259.8 199.8,259.8 Z M123.3,259.9 C120.3,259.9 118.5,261.7 118.2,264.9 L118.2,264.9 L127.9,264.9 C127.8,261.6 126.3,259.9 123.3,259.9 Z" id="freshworks"></path>
        </g>
    </g>
</svg>