<svg width="130px" height="40px" viewBox="0 0 130 40" version="1.1" xmlns="http://www.w3.org/2000/svg" xmlns:xlink="http://www.w3.org/1999/xlink">
    <title>gitlab</title>
    <g id="Homepage" stroke="none" stroke-width="1" fill="none" fill-rule="evenodd">
        <g id="Artboard" transform="translate(-519.000000, -33.000000)" fill="currentColor" fill-rule="nonzero">
            <path d="M527.737802,33.0000572 C528.529627,33.0041994 529.199486,33.4922285 529.444186,34.243288 L529.444186,34.243288 L533.795523,47.6058935 L547.499852,47.6058935 L551.843143,34.2440537 C552.088098,33.4922285 552.757957,33.0041994 553.549782,33.0000572 C554.339309,32.9938619 555.028197,33.4915904 555.278389,34.2332058 L555.278389,34.2332058 L559.854119,48.3102431 L559.854119,48.3102431 L559.85463,48.3125403 L559.855,48.316 L559.857,48.321 L559.857056,48.3222397 L562.159481,55.406192 C562.507373,56.4772016 562.129851,57.6409928 561.21989,58.3023336 L561.21989,58.3023336 L541.257,72.794 L541.263859,72.7898467 L541.277036,72.7799435 C541.280897,72.7767177 541.28463,72.7732338 541.28862,72.770008 C541.289521,72.7692338 541.290422,72.7683306 541.291323,72.7675564 C541.299174,72.7611048 541.30664,72.7543951 541.314363,72.7476854 L541.255669,72.7950403 L541.255669,72.7950403 L541.254897,72.7958145 L541.250392,72.7995564 L541.242131,72.8056307 L541.242131,72.8056307 L541.232808,72.8113737 C541.232169,72.8118842 541.231403,72.8121394 541.230765,72.8126499 C541.22821,72.8144366 541.225401,72.8157128 541.222974,72.8173719 C541.192195,72.8386849 541.160267,72.8582112 541.127316,72.8760784 L541.127316,72.8760784 L541.113651,72.8845015 L541.113651,72.8845015 L541.109293,72.8869423 C541.102795,72.8904997 541.100497,72.8911379 541.098325,72.8921588 C541.096793,72.8929246 541.095005,72.8934351 541.093472,72.8942008 C541.089641,72.8961151 541.085426,72.8972637 541.081467,72.8991781 C541.065375,72.9068354 541.048517,72.9129613 541.032042,72.919853 C541.01429,72.9271274 540.997176,72.9355505 540.979041,72.9419317 C540.978274,72.9421869 540.977636,72.9425698 540.97687,72.942825 L540.97687,72.942825 C540.96512,72.9475471 540.961544,72.9490785 540.95784,72.9502272 C540.956435,72.95061 540.954903,72.9507376 540.953498,72.9512481 C540.948773,72.952652 540.943919,72.9532901 540.939194,72.9546939 C540.937534,72.9552044 540.935873,72.9553321 540.934213,72.9558426 C540.910331,72.9629894 540.88581,72.968222 540.861416,72.9735821 C540.851455,72.9757517 540.841876,72.9788146 540.831914,72.980729 C540.83051,72.9809842 540.829232,72.9814947 540.827828,72.98175 C540.824635,72.9823881 540.821697,72.9835367 540.818504,72.9840472 C540.81314,72.9849405 540.808032,72.986472 540.802668,72.9873654 C540.798453,72.9880035 540.793983,72.9877482 540.789769,72.9883863 L540.789769,72.9883863 C540.739705,72.995278 540.69194,73 540.643153,73 L540.643153,73 L540.641892,73 L540.569143,72.9967935 L540.569143,72.9967935 L540.497943,72.988514 L540.497943,72.988514 C540.490919,72.9877482 540.486576,72.9880035 540.482362,72.9873654 C540.476998,72.9865996 540.471889,72.9849405 540.466653,72.9840472 C540.463332,72.9835367 540.460395,72.9823881 540.457202,72.98175 C540.45567,72.9814947 540.454392,72.9809842 540.452988,72.980729 C540.443154,72.9789423 540.43383,72.9758793 540.424124,72.9737097 C540.399348,72.968222 540.374444,72.9629894 540.350433,72.9557149 C540.348645,72.9552044 540.34673,72.9549492 540.345069,72.9544387 C540.340599,72.9531625 540.335746,72.9525244 540.331276,72.9511205 C540.329871,72.9507376 540.328467,72.9504824 540.327062,72.9500995 C540.323486,72.9489509 540.320038,72.9475471 540.316462,72.9462708 L540.316462,72.9462708 C540.307394,72.9425698 540.306755,72.9421869 540.305989,72.9419317 L540.305989,72.9419317 L540.255925,72.9210016 C540.238045,72.9137271 540.219782,72.9069631 540.202413,72.8986676 C540.198709,72.8967532 540.194623,72.8956046 540.190919,72.8938179 C540.18415,72.8908826 540.181851,72.8902445 540.17968,72.8892235 C540.17687,72.8878197 540.174316,72.8860329 540.171506,72.8846291 L540.171506,72.8846291 L540.157969,72.8763336 C540.124763,72.8583388 540.092707,72.8386849 540.0618,72.8172443 L540.0618,72.8172443 L540.061289,72.8168614 L540.053627,72.812267 L540.052094,72.8113737 L540.042899,72.8057583 L520.067949,58.3028441 C519.157605,57.6412481 518.779956,56.4773292 519.127976,55.4064472 L519.127976,55.4064472 L521.440362,48.3166243 L521.440362,48.3166243 L521.441383,48.3122851 L521.441767,48.3108812 L521.442405,48.3090945 L526.005492,34.2446919 C526.258493,33.494781 526.94853,33.0000572 527.728223,33.0000572 L527.728223,33.0000572 Z M546.83689,49.6441554 L534.458102,49.6441554 L537.365506,58.5936962 L540.643026,68.6826522 L546.83689,49.6441554 Z M522.787231,50.7630235 L521.067565,56.0366481 C520.993363,56.2647098 521.073568,56.5131912 521.267182,56.653959 L521.267182,56.653959 L535.387858,66.9063997 L522.787231,50.7630235 Z M558.506738,50.7642997 L545.902025,66.9032091 L560.020658,56.6537037 C560.213889,56.5133188 560.293837,56.2647098 560.219508,56.0356271 L560.219508,56.0356271 L558.506738,50.7642997 Z M532.313787,49.6441554 L524.500768,49.6441554 L537.883641,66.7897526 L532.313787,49.6441554 Z M556.794224,49.6440278 L548.981715,49.6440278 L543.403943,66.7887316 L555.195502,51.6910957 L556.794224,49.6440278 Z M626.811073,47.2459205 C630.961771,47.2459205 632.417709,49.4920797 632.43048,52.8485563 L632.43048,52.8485563 L632.43048,63.4667636 L630.463687,63.4667636 L629.952832,61.437563 C629.28872,62.9307484 627.360242,63.8496317 625.355135,63.8496317 C622.379404,63.8496317 620.412611,62.2415859 620.412611,59.0382565 C620.412611,55.4648213 622.890259,53.7546774 627.768926,53.7546774 C628.330867,53.7546774 629.250406,53.8184887 629.697405,53.9078246 L629.697405,53.9078246 L629.697405,52.8996054 C629.697405,50.9342161 628.688466,49.7600874 626.402388,49.7600874 C624.397282,49.7600874 623.005201,50.4237253 621.868549,51.0873633 L621.868549,51.0873633 L620.885152,49.3772193 C622.494346,48.0371811 624.56331,47.2459205 626.811073,47.2459205 Z M580.274038,42.3383688 C582.623972,42.3383688 584.820649,43.1041049 586.442615,44.533479 L586.442615,44.533479 L585.242105,46.6137288 C584.207623,45.7841813 582.611201,44.9673961 580.146324,44.9673961 C575.970083,44.9673961 573.122065,47.6602348 573.134836,53.2118215 C573.134836,58.6613101 575.893455,61.2520506 580.005839,61.2520506 C581.50009,61.2520506 582.598429,60.9968053 583.236998,60.6777486 L583.236998,60.6777486 L583.173141,54.4880484 L578.320017,54.4880484 L578.320017,51.9228324 L585.918988,51.9228324 L585.918988,54.4880484 L585.982845,62.6431379 C584.55245,63.2429645 582.368544,63.8427911 579.801497,63.8427911 C574.680173,63.8427911 570.197419,60.8691826 570.197419,53.2373461 C570.197419,45.9500908 574.348118,42.3383688 580.274038,42.3383688 Z M599.753832,42.7144304 L599.766603,47.6279037 L604.325986,47.6279037 L604.325986,49.8995875 L599.766603,49.8995875 L599.766603,58.195062 C599.766603,60.1604513 600.775542,61.33458 603.061619,61.33458 C603.508617,61.33458 603.930073,61.3090555 604.325986,61.2452441 L604.325986,61.2452441 L604.325986,63.6828374 C603.789588,63.7849356 603.227647,63.8359846 602.652935,63.8359846 C598.502236,63.8359846 597.046299,61.5898254 597.046299,58.2333488 L597.046299,58.2333488 L597.046299,46.1985297 L597.033528,42.7144304 L599.753832,42.7144304 Z M638.744582,42.7209987 L638.757353,46.2689094 L638.757353,48.9489857 L638.757353,48.9489857 L638.777809,48.9242426 C638.954788,48.7151627 640.276235,47.251604 642.588767,47.251604 C646.675609,47.251604 648.987229,50.2507371 649,54.7813424 C649,60.5116009 646.496809,63.8297907 641.298858,63.8297907 C639.268208,63.8297907 637.403587,63.5234963 636.037049,62.9491942 L636.037049,62.9491942 L636.024278,42.7209987 L638.744582,42.7209987 Z M610.460202,42.7173066 L610.472973,60.8907769 L618.965941,60.8907769 L618.965941,63.4559928 L607.688812,63.4559928 L607.676041,42.7173066 L610.460202,42.7173066 Z M592.835697,47.63078 L592.835697,63.4559928 L590.115393,63.4559928 L590.115393,47.63078 L592.835697,47.63078 Z M642.371654,49.9699672 C640.877402,49.9699672 639.702435,50.5442693 638.757353,51.3355299 L638.757353,51.3355299 L638.757353,60.9199935 C639.447008,61.2390502 640.366547,61.3666729 641.4138,61.3666729 C644.427846,61.3666729 646.100897,59.3119477 646.100897,54.9472519 C646.100897,51.8715452 645.066415,49.9699672 642.371654,49.9699672 Z M627.743383,55.8221649 C624.703795,55.8221649 623.2734,56.8048595 623.2734,58.8595847 C623.2734,60.2251475 624.129083,61.2716535 626.249132,61.2716535 C627.832783,61.2716535 628.994979,60.5442042 629.697405,59.8167549 L629.697405,59.8167549 L629.710176,59.8167549 L629.710176,55.9753121 C629.237635,55.8859762 628.318096,55.8221649 627.743383,55.8221649 Z M553.562298,35.5520586 L549.644422,47.6058935 L557.480302,47.6058935 L553.562298,35.5520586 Z M527.725,35.552 L523.814561,47.6058935 L531.650569,47.6058935 L527.725,35.552 Z M592.835697,42.7300689 L592.835697,45.4484321 L590.115393,45.4484321 L590.115393,42.7300689 L592.835697,42.7300689 Z" id="gitlab"></path>
        </g>
    </g>
</svg>