<svg width="128px" height="42px" viewBox="0 0 128 42" version="1.1" xmlns="http://www.w3.org/2000/svg" xmlns:xlink="http://www.w3.org/1999/xlink">
    <title>google</title>
    <g id="Homepage" stroke="none" stroke-width="1" fill="none" fill-rule="evenodd">
        <g id="Artboard" transform="translate(-865.000000, -33.000000)" fill="currentColor" fill-rule="nonzero">
            <path d="M954.301884,44.6072555 C956.813084,44.6072555 958.806854,45.7192429 959.846462,46.9542587 L960.007862,46.9542587 L960.007862,45.2460568 L964.398902,45.2460568 L964.398902,64.0835962 C964.398902,71.8343849 959.813232,75 954.392078,75 C949.288978,75 946.217623,71.5977918 945.059338,68.8154574 L949.084854,67.1451104 C949.801661,68.8533123 951.558077,70.8690852 954.387331,70.8690852 C957.85744,70.8690852 960.007862,68.7350158 960.007862,64.7176656 L960.007862,63.2082019 L959.846462,63.2082019 C958.811601,64.4810726 956.817831,65.5930599 954.301884,65.5930599 C949.037383,65.5930599 944.21436,61.022082 944.21436,55.1403785 C944.21436,49.2160883 949.037383,44.6072555 954.301884,44.6072555 Z M909.214212,44.6072555 C915.03412,44.6072555 919.776443,49.0173502 919.776443,55.1025237 C919.776443,61.1451104 915.03412,65.5977918 909.214212,65.5977918 C903.394304,65.5977918 898.65198,61.1451104 898.65198,55.1025237 C898.65198,49.0173502 903.394304,44.6072555 909.214212,44.6072555 Z M932.000148,44.6072555 C937.820056,44.6072555 942.562379,49.0173502 942.562379,55.1025237 C942.562379,61.1451104 937.820056,65.5977918 932.000148,65.5977918 C926.18024,65.5977918 921.437917,61.1451104 921.437917,55.1025237 C921.437917,49.022082 926.18024,44.6072555 932.000148,44.6072555 Z M983.510607,44.6025237 C988.974484,44.6025237 991.647085,48.9369085 992.520546,51.2791798 L993,52.4716088 L978.924937,58.2823344 C980.002522,60.3880126 981.678238,61.4621451 984.028037,61.4621451 C986.382584,61.4621451 988.015576,60.307571 989.211838,58.5567823 L992.800623,60.9416404 C991.642338,62.6498423 988.851061,65.5930599 984.028037,65.5930599 C978.046729,65.5930599 973.579736,60.9842271 973.579736,55.0977918 C973.579736,48.8564669 978.084706,44.6025237 983.510607,44.6025237 Z M881.586263,33 C886.570687,33 890.121495,34.9495268 892.789349,37.4905363 L889.637294,40.6324921 C887.724225,38.8438486 885.132325,37.4526814 881.581516,37.4526814 C875.002077,37.4526814 869.856253,42.7381703 869.856253,49.29653 C869.856253,55.8548896 875.002077,61.1403785 881.581516,61.1403785 C885.849132,61.1403785 888.279632,59.4321767 889.836671,57.8801262 C891.099392,56.6214511 891.930129,54.8233438 892.257677,52.3675079 L881.581516,52.3722397 L881.581516,47.9195584 L896.634476,47.9195584 C896.781635,48.6955836 896.857588,49.6135647 896.857588,50.6072555 C896.857588,53.9479495 895.941403,58.0788644 892.988726,61.022082 C890.116748,64.0031546 886.447263,65.5930599 881.586263,65.5930599 C872.576324,65.5930599 865,58.2776025 865,49.29653 C865,40.3154574 872.576324,33 881.586263,33 Z M971.638184,34.1971609 L971.638184,64.9542587 L967.128468,64.9542587 L967.128468,34.1971609 L971.638184,34.1971609 Z M909.214212,48.7429022 C906.02418,48.7429022 903.275627,51.3264984 903.275627,55.1025237 C903.275627,58.840694 906.02418,61.4621451 909.214212,61.4621451 C912.404243,61.4621451 915.152796,58.8359621 915.152796,55.1025237 C915.152796,51.3264984 912.404243,48.7429022 909.214212,48.7429022 Z M932.000148,48.7429022 C928.810117,48.7429022 926.061564,51.3264984 926.061564,55.1025237 C926.061564,58.840694 928.810117,61.4621451 932.000148,61.4621451 C935.190179,61.4621451 937.938733,58.8359621 937.938733,55.1025237 C937.938733,51.3264984 935.190179,48.7429022 932.000148,48.7429022 Z M954.714879,48.7429022 C951.524848,48.7429022 948.852247,51.444795 948.852247,55.1403785 C948.852247,58.7981073 951.524848,61.4621451 954.714879,61.4621451 C957.862187,61.4621451 960.33541,58.7981073 960.33541,55.1403785 C960.33541,51.444795 957.862187,48.7429022 954.714879,48.7429022 Z M983.66726,48.6624606 C981.31746,48.6624606 978.046729,50.7302839 978.165406,54.7807571 L987.574099,50.8864353 C987.056668,49.5757098 985.499629,48.6624606 983.66726,48.6624606 Z" id="google"></path>
        </g>
    </g>
</svg>