<svg width="49px" height="49px" viewBox="0 0 49 49" version="1.1" xmlns="http://www.w3.org/2000/svg" xmlns:xlink="http://www.w3.org/1999/xlink">
    <title>hp</title>
    <g id="Homepage" stroke="none" stroke-width="1" fill="none" fill-rule="evenodd">
        <g id="Artboard" transform="translate(-783.000000, -250.000000)" fill="currentColor" fill-rule="nonzero">
            <path d="M807.5,299 C807.256475,299 807.01397,298.995576 806.771919,298.988544 L811.77888,285.227969 L818.669505,285.227969 C819.878965,285.227969 821.206616,284.298219 821.62028,283.162261 L827.052475,268.241569 C827.941167,265.79872 826.541944,263.80016 823.942563,263.80016 L814.383139,263.80016 L806.362225,285.840581 L806.359275,285.840581 L801.812144,298.334758 C791.024204,295.770091 783,286.072537 783,274.500057 C783,263.261161 790.567891,253.790799 800.88534,250.904456 L796.193477,263.80016 L796.192116,263.80016 L788.392155,285.227969 L793.584567,285.228423 L800.217829,267.020088 L804.120134,267.020088 L797.486873,285.228423 L802.677356,285.22933 L808.858843,268.241569 C809.748102,265.79872 808.348766,263.80016 805.751766,263.80016 L801.387023,263.80016 L806.398861,250.025748 C806.764206,250.009528 807.130912,250 807.5,250 C821.031032,250 832,260.968942 832,274.500057 C832,288.030831 821.031032,299 807.5,299 Z M822.323861,267.007044 L818.422576,267.007044 L812.95919,281.997153 L816.860588,281.997153 L822.323861,267.007044 Z" id="hp"></path>
        </g>
    </g>
</svg>