<?xml version="1.0" encoding="UTF-8"?>
<svg width="400px" height="140px" viewBox="0 0 400 140" version="1.1" xmlns="http://www.w3.org/2000/svg" xmlns:xlink="http://www.w3.org/1999/xlink">
    <title>Artboard</title>
    <g id="Artboard" stroke="none" stroke-width="1" fill="none" fill-rule="evenodd">
        <g id="Hewlett_Packard_Enterprise_logo" transform="translate(99.926829, 15.000000)" fill-rule="nonzero">
            <path d="M68.3441655,16.8155127 L4.67636656,16.8155127 L4.67636656,5.01237582 L68.3441655,5.01237582 L68.3441655,16.8155127 Z M72.8924833,0.464634699 L0.128048792,0.464634699 L0.128048792,21.3609472 L72.8924833,21.3609472 L72.8924833,0.464634699 Z" id="path3346" fill="#00B188"></path>
            <g id="g3348" transform="translate(8.787927, 45.196669) scale(-1, 1) rotate(-180.000000) translate(-8.787927, -45.196669) translate(0.007439, 34.495449)" fill="#231F20">
                <polyline id="path3350" points="4.66892748 0 0.12060971 0 0.12060971 20.8963125 4.66892748 20.8963125 4.66892748 12.6387011 12.7953513 12.6387011 12.7953513 20.8963125 17.3436691 20.8963125 17.3436691 0 12.7953513 0 12.7953513 8.65982403 4.66892748 8.65982403 4.66892748 0"></polyline>
            </g>
            <g id="g3352" transform="translate(27.048459, 48.321637) scale(-1, 1) rotate(-180.000000) translate(-27.048459, -48.321637) translate(19.914312, 40.364320)" fill="#231F20">
                <path d="M4.32486634,9.5425743 L9.74248224,9.5425743 C9.64156869,11.0793435 9.00725496,12.1504687 7.23405976,12.1504687 C5.89623444,12.1504687 4.72563729,11.581028 4.32486634,9.5425743 Z M7.76890157,0.0466094447 C3.15426918,0.0466094447 0.0115329769,2.95580287 0.0115329769,7.73478017 C0.0115329769,12.3840115 3.08795457,15.5930623 7.16774514,15.5930623 C11.6151494,15.5930623 13.8222728,12.6175543 13.8222728,8.17015005 L13.8222728,6.4978684 L4.32486634,6.4978684 C4.86114976,4.19271464 6.66606065,3.59155822 8.47241316,3.59155822 C10.0437813,3.59155822 11.1797795,3.92457293 12.5839194,4.79531268 L12.7525892,4.79531268 L12.7525892,1.35127746 C11.5488347,0.480537701 9.84195416,0.0466094447 7.76890157,0.0466094447" id="path3354"></path>
            </g>
            <g id="g3356" transform="translate(45.598315, 48.449459) scale(-1, 1) rotate(-180.000000) translate(-45.598315, -48.449459) translate(34.622705, 40.766532)" fill="#231F20">
                <polyline id="path3358" points="10.9841964 8.99379381 8.6430021 0.234497857 4.66412507 0.234497857 0.115807306 14.9462515 0.115807306 15.1134797 4.4637396 15.1134797 6.93756314 6.31958479 9.27875745 15.1134797 12.8237062 15.1134797 15.1980578 6.31958479 17.7064803 15.1134797 21.8871845 15.1134797 21.8871845 14.9462515 17.3388667 0.234497857 13.358548 0.234497857 10.9841964 8.99379381"></polyline>
            </g>
            <g id="g3360" transform="translate(62.247568, 45.531125) scale(-1, 1) rotate(-180.000000) translate(-62.247568, -45.531125) translate(58.680495, 34.829905)" fill="#231F20">
                <path d="M5.21770796,0 C1.60644457,0 0.134548394,1.43729725 0.134548394,4.81357623 L0.134548394,21.2293272 L4.5487953,21.2293272 L4.5487953,5.11487526 C4.5487953,4.07834896 4.94956625,3.71073532 5.81886438,3.71073532 C6.12016341,3.71073532 6.55553328,3.81020724 6.82223337,3.91112079 L6.88998961,3.91112079 L6.88998961,0.266700091 C6.52237598,0.134070856 5.88662062,0 5.21770796,0" id="path3362"></path>
            </g>
            <g id="g3364" transform="translate(73.931451, 48.321637) scale(-1, 1) rotate(-180.000000) translate(-73.931451, -48.321637) translate(66.797305, 40.364320)" fill="#231F20">
                <path d="M4.32486634,9.5425743 L9.74248224,9.5425743 C9.64156869,11.0793435 9.00725496,12.1504687 7.23405976,12.1504687 C5.89767606,12.1504687 4.72563729,11.581028 4.32486634,9.5425743 Z M7.76890157,0.0466094447 C3.15426918,0.0466094447 0.0115329769,2.95580287 0.0115329769,7.73478017 C0.0115329769,12.3840115 3.08795457,15.5930623 7.16774514,15.5930623 C11.6151494,15.5930623 13.8222728,12.6175543 13.8222728,8.17015005 L13.8222728,6.4978684 L4.32486634,6.4978684 C4.85970814,4.19271464 6.66606065,3.59155822 8.47097153,3.59155822 C10.0437813,3.59155822 11.1797795,3.92457293 12.585361,4.79531268 L12.7525892,4.79531268 L12.7525892,1.35127746 C11.5488347,0.480537701 9.84339579,0.0466094447 7.76890157,0.0466094447" id="path3366"></path>
            </g>
            <g id="g3368" transform="translate(91.871015, 46.449920) scale(-1, 1) rotate(-180.000000) translate(-91.871015, -46.449920) translate(81.444186, 36.571872)" fill="#231F20">
                <path d="M17.2994654,15.3090628 L20.5762724,15.3090628 L20.5762724,11.7655556 L17.2994654,11.7655556 L17.2994654,5.71362597 C17.2994654,4.40895796 17.8011498,3.80635991 19.1389752,3.80635991 C19.5065888,3.80635991 19.975116,3.84095885 20.4768005,4.00818701 L20.5762724,4.00818701 L20.5762724,0.530994475 C20.0082733,0.329167379 19.1389752,0.0970662187 17.8689061,0.0970662187 C14.2893584,0.0970662187 12.8852184,1.73474894 12.8852184,5.5132405 L12.8852184,11.7655556 L7.23405976,11.7655556 L7.23405976,5.71362597 C7.23405976,4.40895796 7.73574426,3.80635991 9.07212796,3.80635991 C9.44118322,3.80635991 9.9097104,3.84095885 10.4113949,4.00818701 L10.5108668,4.00818701 L10.5108668,0.530994475 C9.94286771,0.329167379 9.07212796,0.0970662187 7.8035005,0.0970662187 C4.22395279,0.0970662187 2.81981285,1.73474894 2.81981285,5.5132405 L2.81981285,11.7655556 L0.544933159,11.7655556 L0.544933159,15.3090628 L2.81981285,15.3090628 L2.81981285,19.3874117 L7.23405976,19.3874117 L7.23405976,15.3090628 L12.8852184,15.3090628 L12.8852184,19.3874117 L17.2994654,19.3874117 L17.2994654,15.3090628" id="path3370"></path>
            </g>
            <g id="g3372" transform="translate(117.298819, 45.548902) scale(-1, 1) rotate(-180.000000) translate(-117.298819, -45.548902) translate(109.341502, 34.847682)" fill="#231F20">
                <path d="M7.5521717,10.9841964 C9.86165033,10.9841964 10.9630496,12.2874228 10.9630496,14.1600899 C10.9630496,16.1005133 9.86165033,17.4037397 7.5521717,17.4037397 L4.67613559,17.4037397 L4.67613559,10.9841964 L7.5521717,10.9841964 Z M15.5791236,14.1600899 C15.5791236,9.61177216 12.5358593,7.13939024 7.91978534,7.13939024 L4.67613559,7.13939024 L4.67613559,0.352233333 L0.130701064,0.352233333 L0.130701064,21.2485459 L7.91978534,21.2485459 C12.5358593,21.2485459 15.5791236,18.7747223 15.5791236,14.1600899" id="path3374"></path>
            </g>
            <g id="g3376" transform="translate(132.208548, 48.477332) scale(-1, 1) rotate(-180.000000) translate(-132.208548, -48.477332) translate(125.074401, 40.520015)" fill="#231F20">
                <path d="M9.5425743,5.21770796 L9.5425743,6.48777704 C8.87366164,6.85394906 8.00580513,6.98801992 7.10190806,6.98801992 C5.66461082,6.98801992 4.79531268,6.45461974 4.79531268,5.25086527 C4.79531268,4.01251188 5.66461082,3.47767007 6.96783721,3.47767007 C8.20474898,3.47767007 9.14180335,4.11342542 9.5425743,5.21770796 Z M9.67664516,2.00721552 C8.70643348,0.836618363 7.27057785,0.26861925 5.72948381,0.26861925 C2.82173201,0.26861925 0.44593877,2.0389312 0.44593877,5.18455065 C0.44593877,8.09230246 2.82173201,10.0312842 6.23116831,10.0312842 C7.30085192,10.0312842 8.40657608,9.86405603 9.5425743,9.53104132 L9.5425743,9.79629979 C9.5425743,11.4022668 8.64011886,12.1028952 6.26720886,12.1028952 C4.76071375,12.1028952 3.32341651,11.6704085 2.08506311,10.9668969 L1.91927657,10.9668969 L1.91927657,14.5118457 C3.05527479,15.1793168 5.0634544,15.7487575 7.03415183,15.7487575 C11.516155,15.7487575 13.9568212,13.6093903 13.9568212,9.86405603 L13.9568212,0.536760963 L9.67664516,0.536760963 L9.67664516,2.00721552" id="path3378"></path>
            </g>
            <g id="g3380" transform="translate(147.308089, 48.620053) scale(-1, 1) rotate(-180.000000) translate(-147.308089, -48.620053) translate(141.271503, 40.662736)" fill="#231F20">
                <path d="M0,8.10095219 C0,12.8828127 3.37916223,15.8914781 7.79340914,15.8914781 C9.36477724,15.8914781 10.8352318,15.5570218 11.9395143,14.7554799 L11.9395143,10.9769883 L11.7708446,10.9769883 C10.8006329,11.7122156 9.66463464,12.1475855 8.36140825,12.1475855 C6.1542848,12.1475855 4.48200315,10.6410904 4.48200315,8.10095219 C4.48200315,5.56081403 6.1542848,4.08891785 8.36140825,4.08891785 C9.66463464,4.08891785 10.8006329,4.52428773 11.7708446,5.26095663 L11.9395143,5.26095663 L11.9395143,1.48246507 C10.8352318,0.679481552 9.36477724,0.345025222 7.79340914,0.345025222 C3.37916223,0.345025222 0,3.31909164 0,8.10095219" id="path3382"></path>
            </g>
            <g id="g3384" transform="translate(162.864164, 45.652221) scale(-1, 1) rotate(-180.000000) translate(-162.864164, -45.652221) translate(155.730018, 34.951002)" fill="#231F20">
                <polyline id="path3386" points="4.66892748 7.20811056 4.66892748 0.455552588 0.256122188 0.455552588 0.256122188 21.3518651 4.66892748 21.3518651 4.66892748 9.44983295 9.11777332 15.3345344 14.1331766 15.3345344 14.1331766 15.1673062 8.78331698 8.41330665 14.1331766 0.622780753 14.1331766 0.455552588 9.08317438 0.455552588 4.66892748 7.20811056"></polyline>
            </g>
            <g id="g3388" transform="translate(177.352944, 48.477332) scale(-1, 1) rotate(-180.000000) translate(-177.352944, -48.477332) translate(170.218798, 40.520015)" fill="#231F20">
                <path d="M9.5425743,5.21770796 L9.5425743,6.48777704 C8.87510326,6.85394906 8.00436351,6.98801992 7.10190806,6.98801992 C5.66461082,6.98801992 4.79531268,6.45461974 4.79531268,5.25086527 C4.79531268,4.01251188 5.66461082,3.47767007 6.96639559,3.47767007 C8.2061906,3.47767007 9.14180335,4.11342542 9.5425743,5.21770796 Z M9.67664516,2.00721552 C8.70643348,0.836618363 7.26769461,0.26861925 5.73092544,0.26861925 C2.82029039,0.26861925 0.447380392,2.0389312 0.447380392,5.18455065 C0.447380392,8.09230246 2.82029039,10.0312842 6.23405155,10.0312842 C7.30373516,10.0312842 8.40513445,9.86405603 9.5425743,9.53104132 L9.5425743,9.79629979 C9.5425743,11.4022668 8.64011886,12.1028952 6.26576724,12.1028952 C4.76215538,12.1028952 3.32197488,11.6704085 2.08506311,10.9668969 L1.91783495,10.9668969 L1.91783495,14.5118457 C3.05527479,15.1793168 5.06201277,15.7487575 7.03415183,15.7487575 C11.5175966,15.7487575 13.9582628,13.6093903 13.9582628,9.86405603 L13.9582628,0.536760963 L9.67664516,0.536760963 L9.67664516,2.00721552" id="path3390"></path>
            </g>
            <g id="g3392" transform="translate(192.214131, 48.443697) scale(-1, 1) rotate(-180.000000) translate(-192.214131, -48.443697) translate(187.275107, 40.486380)" fill="#231F20">
                <path d="M4.32486634,12.974599 C5.12640823,14.6137234 6.29844701,15.5493361 7.93757135,15.5493361 C8.53872777,15.5493361 9.13988419,15.4152653 9.37198535,15.2811944 L9.37198535,11.0687746 L9.20619881,11.0687746 C8.70451432,11.2706017 8.1033579,11.4032309 7.26721707,11.4032309 C5.89623444,11.4032309 4.82655083,10.6002474 4.45749557,9.06347822 L4.45749557,0.503126117 L0.0446902855,0.503126117 L0.0446902855,15.3821079 L4.32486634,15.3821079 L4.32486634,12.974599" id="path3394"></path>
            </g>
            <g id="g3396" transform="translate(205.326184, 45.640206) scale(-1, 1) rotate(-180.000000) translate(-205.326184, -45.640206) translate(197.368867, 34.664596)" fill="#231F20">
                <path d="M10.9841964,5.76648845 L10.9841964,10.548349 C10.2489691,11.6180326 9.28019908,12.0851182 8.17447492,12.0851182 C6.2369348,12.0851182 4.93226678,10.6795366 4.93226678,8.13939845 C4.93226678,5.59926029 6.2369348,4.22827766 8.17447492,4.22827766 C9.28019908,4.22827766 10.2489691,4.69680484 10.9841964,5.76648845 Z M11.1168256,2.25469698 C10.1812129,1.05094252 8.70931672,0.383471482 6.70402036,0.383471482 C2.89092987,0.383471482 0.450263636,3.8592224 0.450263636,8.13939845 C0.450263636,12.4195745 2.89092987,15.9299243 6.70402036,15.9299243 C8.6430021,15.9299243 10.047142,15.3273263 10.9841964,14.2244854 L10.9841964,21.6127987 L15.3984433,21.6127987 L15.3984433,0.717927812 L11.1168256,0.717927812 L11.1168256,2.25469698" id="path3398"></path>
            </g>
            <g id="g3400" transform="translate(6.713415, 73.096859) scale(-1, 1) rotate(-180.000000) translate(-6.713415, -73.096859) translate(0.128049, 62.395639)" fill="#231F20">
                <polyline id="path3402" points="-4.87414986e-16 21.0755512 12.9082844 21.0755512 12.9082844 18.535413 2.90919342 18.535413 2.90919342 12.1504687 11.97123 12.1504687 11.97123 9.67520354 2.90919342 9.67520354 2.90919342 2.72081846 12.9082844 2.72081846 12.9082844 0.180680301 -4.87414986e-16 0.180680301 -4.87414986e-16 21.0755512"></polyline>
            </g>
            <g id="g3404" transform="translate(22.805760, 76.231923) scale(-1, 1) rotate(-180.000000) translate(-22.805760, -76.231923) translate(16.494785, 68.548996)" fill="#231F20">
                <path d="M7.20811056,15.3090628 C10.5180749,15.3090628 12.3575848,13.1350966 12.3575848,9.55987377 L12.3575848,0.297451692 L9.58246218,0.297451692 L9.58246218,9.49211753 C9.58246218,11.397942 8.6122505,12.7689246 6.50604059,12.7689246 C4.76744433,12.7689246 3.29554815,11.6646421 2.79386365,10.0947156 L2.79386365,0.297451692 L0.0187410875,0.297451692 L0.0187410875,15.0077637 L2.79386365,15.0077637 L2.79386365,12.8683965 C3.66316179,14.2393791 5.13505797,15.3090628 7.20811056,15.3090628" id="path3406"></path>
            </g>
            <g id="g3408" transform="translate(35.483858, 74.338100) scale(-1, 1) rotate(-180.000000) translate(-35.483858, -74.338100) translate(30.544834, 64.460051)" fill="#231F20">
                <path d="M5.76648845,15.3090628 L9.54498001,15.3090628 L9.54498001,12.9347111 L5.76648845,12.9347111 L5.76648845,5.011556 C5.76648845,3.34071597 6.63578658,2.77127524 8.20715469,2.77127524 C8.64108294,2.77127524 9.10961013,2.83758985 9.44406646,2.97166071 L9.54498001,2.97166071 L9.54498001,0.598750714 C9.14420906,0.431522549 8.57476833,0.297451692 7.80638374,0.297451692 C4.36090689,0.297451692 2.99136588,1.87026142 2.99136588,4.74341429 L2.99136588,12.9347111 L0.449786099,12.9347111 L0.449786099,15.3090628 L2.99136588,15.3090628 L2.99136588,19.2187419 L5.76648845,19.2187419 L5.76648845,15.3090628" id="path3410"></path>
            </g>
            <g id="g3412" transform="translate(48.439725, 76.408761) scale(-1, 1) rotate(-180.000000) translate(-48.439725, -76.408761) translate(41.854359, 68.451443)" fill="#231F20">
                <path d="M2.88324423,9.5425743 L10.2066846,9.5425743 C10.1072126,11.7150988 9.0360874,13.3859389 6.76264933,13.3859389 C4.65643942,13.3859389 3.28401517,11.8145708 2.88324423,9.5425743 Z M7.26433383,0.447380392 C2.94955884,0.447380392 0.00720811056,3.32341651 0.00720811056,7.93660727 C0.00720811056,12.5512397 2.74917337,15.7602905 6.72949202,15.7602905 C10.7761253,15.7602905 12.8823352,12.851097 12.8823352,8.53920531 L12.8823352,7.26769461 L2.78233068,7.26769461 C3.0836297,4.29218657 4.99089575,2.85488932 7.63194746,2.85488932 C9.27107181,2.85488932 10.4402273,3.22250296 11.7448954,4.19271464 L11.8458089,4.19271464 L11.8458089,1.75060678 C10.6420544,0.814994031 9.06924471,0.447380392 7.26433383,0.447380392" id="path3414"></path>
            </g>
            <g id="g3416" transform="translate(62.021233, 76.197806) scale(-1, 1) rotate(-180.000000) translate(-62.021233, -76.197806) translate(57.905380, 68.240489)" fill="#231F20">
                <path d="M2.88324423,12.974599 C3.51899958,14.5459671 4.92458114,15.4815799 6.52766493,15.4815799 C7.1648619,15.4815799 7.73286101,15.3821079 7.96640379,15.2480371 L7.96640379,12.5075134 L7.86693187,12.5075134 C7.4647193,12.7064573 6.79580664,12.8073708 6.12689398,12.8073708 C4.62328212,12.8073708 3.35177141,11.8054435 2.88324423,10.1331618 L2.88324423,0.537725048 L0.108121658,0.537725048 L0.108121658,15.2480371 L2.88324423,15.2480371 L2.88324423,12.974599" id="path3418"></path>
            </g>
            <g id="g3420" transform="translate(75.307723, 78.810007) scale(-1, 1) rotate(-180.000000) translate(-75.307723, -78.810007) translate(68.173577, 68.108788)" fill="#231F20">
                <path d="M6.65933008,8.10095219 C9.40129533,8.10095219 11.0072624,10.2734767 11.0072624,13.2504264 C11.0072624,16.1913355 9.40129533,18.3970173 6.65933008,18.3970173 C5.15427659,18.3970173 3.75013665,17.4945619 3.01490937,16.0587063 L3.01490937,10.4061059 C3.75013665,8.97025032 5.15427659,8.10095219 6.65933008,8.10095219 Z M7.12785726,20.9054398 C11.5075052,20.9054398 13.8486996,17.3273337 13.8486996,13.2504264 C13.8486996,9.16919417 11.5075052,5.59252971 7.12785726,5.59252971 C5.32150476,5.59252971 3.78329396,6.52814246 3.01490937,7.53295308 L3.01490937,0.242670052 L0.238345186,0.242670052 L0.238345186,20.6041408 L3.01490937,20.6041408 L3.01490937,18.9333007 C3.78329396,19.969827 5.32150476,20.9054398 7.12785726,20.9054398" id="path3422"></path>
            </g>
            <g id="g3424" transform="translate(89.308257, 76.197806) scale(-1, 1) rotate(-180.000000) translate(-89.308257, -76.197806) translate(85.192403, 68.240489)" fill="#231F20">
                <path d="M2.88324423,12.974599 C3.51755796,14.5459671 4.92313951,15.4815799 6.52766493,15.4815799 C7.16342028,15.4815799 7.73141939,15.3821079 7.96496217,15.2480371 L7.96496217,12.5075134 L7.86549025,12.5075134 C7.4647193,12.7064573 6.79580664,12.8073708 6.12689398,12.8073708 C4.62184049,12.8073708 3.35177141,11.8054435 2.88324423,10.1331618 L2.88324423,0.537725048 L0.108121658,0.537725048 L0.108121658,15.2480371 L2.88324423,15.2480371 L2.88324423,12.974599" id="path3426"></path>
            </g>
            <g id="g3428" transform="translate(97.305890, 64.811424) scale(-1, 1) rotate(-180.000000) translate(-97.305890, -64.811424) translate(95.385158, 62.890692)" fill="#231F20">
                <path d="M1.78568325,3.77608585 C2.75589493,3.77608585 3.55743683,3.00770126 3.55743683,2.03748958 C3.55743683,1.0672779 2.75589493,0.298893314 1.78568325,0.298893314 C0.850070499,0.298893314 0.0124880512,1.0672779 0.0124880512,2.03748958 C0.0124880512,3.00770126 0.850070499,3.77608585 1.78568325,3.77608585" id="path3430"></path>
            </g>
            <polygon id="path3432" fill="#231F20" points="95.7998587 83.6173982 98.5764229 83.6173982 98.5764229 68.9070861 95.7998587 68.9070861"></polygon>
            <g id="g3434" transform="translate(107.577465, 76.061807) scale(-1, 1) rotate(-180.000000) translate(-107.577465, -76.061807) translate(101.815270, 68.104490)" fill="#231F20">
                <path d="M6.65933008,8.99379381 C8.76553998,8.32632278 11.1052927,7.45702464 11.1052927,4.64874477 C11.1052927,1.63863779 8.63146913,0.100427 5.45557561,0.100427 C3.51515225,0.100427 1.57617051,0.568954187 0.471887968,1.43825232 L0.471887968,4.07930403 L0.605958824,4.07930403 C1.84431222,2.94330581 3.68238041,2.44162131 5.42097668,2.44162131 C6.99234478,2.44162131 8.39792634,3.04421935 8.39792634,4.31428844 C8.39792634,5.61751483 7.22877081,5.91881385 4.91929219,6.68719843 C2.84623959,7.35611109 0.539644207,8.1259373 0.539644207,10.8996182 C0.539644207,13.7424971 2.8793969,15.4133371 5.85634656,15.4133371 C7.59494283,15.4133371 9.13315362,15.0457234 10.3700654,14.2095826 L10.3700654,11.533932 L10.2705935,11.533932 C9.06828063,12.5041437 7.66125744,13.0735844 5.92266118,13.0735844 C4.18406491,13.0735844 3.21385323,12.3037582 3.21385323,11.2672319 C3.21385323,10.0966347 4.28353683,9.76362002 6.65933008,8.99379381" id="path3436"></path>
            </g>
            <g id="g3438" transform="translate(121.907671, 76.408761) scale(-1, 1) rotate(-180.000000) translate(-121.907671, -76.408761) translate(115.322305, 68.451443)" fill="#231F20">
                <path d="M2.88324423,9.5425743 L10.2052429,9.5425743 C10.105771,11.7150988 9.0360874,13.3859389 6.76120771,13.3859389 C4.6549978,13.3859389 3.28401517,11.8145708 2.88324423,9.5425743 Z M7.2628922,0.447380392 C2.94955884,0.447380392 0.00720811056,3.32341651 0.00720811056,7.93660727 C0.00720811056,12.5512397 2.74917337,15.7602905 6.7280504,15.7602905 C10.7761253,15.7602905 12.8808936,12.851097 12.8808936,8.53920531 L12.8808936,7.26769461 L2.78233068,7.26769461 C3.0836297,4.29218657 4.98945413,2.85488932 7.63050584,2.85488932 C9.27107181,2.85488932 10.4402273,3.22250296 11.7434537,4.19271464 L11.8443673,4.19271464 L11.8443673,1.75060678 C10.6420544,0.814994031 9.06924471,0.447380392 7.2628922,0.447380392" id="path3440"></path>
            </g>
        </g>
    </g>
</svg>