<svg width="100px" height="40px" viewBox="0 0 100 40" version="1.1" xmlns="http://www.w3.org/2000/svg" xmlns:xlink="http://www.w3.org/1999/xlink">
    <title>ibm</title>
    <g id="Homepage" stroke="none" stroke-width="1" fill="none" fill-rule="evenodd">
        <g id="Artboard" transform="translate(-510.000000, -245.000000)" fill="currentColor" fill-rule="nonzero">
            <path d="M510,245 L510,247.736644 L529.464827,247.736644 L529.464827,245 L510,245 Z M532.222807,245 L532.222807,247.736644 L559.960989,247.736644 C559.960989,247.736644 557.127908,245 553.375209,245 L532.222807,245 Z M565.402724,245 L565.402724,247.736644 L582.184087,247.736644 L581.187615,245 L565.402724,245 Z M594.215402,245 L593.218637,247.736644 L609.847753,247.736644 L609.847753,245 L594.215402,245 Z M510,250.322209 L510,253.058561 L529.464827,253.058561 L529.464827,250.322209 L510,250.322209 Z M532.222807,250.325716 L532.222807,253.058561 L563.180093,253.058561 C563.180093,253.058561 562.818616,250.952237 562.187711,250.325716 L532.222807,250.325716 Z M565.402724,250.325716 L565.402724,253.058561 L584.023617,253.058561 L583.101953,250.325716 L565.402724,250.325716 Z M592.223333,250.325716 L591.301376,253.058561 L609.84863,253.058561 L609.84863,250.325716 L592.223333,250.325716 Z M515.593983,255.644127 L515.593983,258.384862 L524.023676,258.384862 L524.023676,255.644127 L515.593983,255.644127 Z M537.816497,255.644127 L537.816497,258.384862 L546.24619,258.384862 L546.24619,255.644127 L537.816497,255.644127 Z M554.445613,255.644127 L554.445613,258.384862 L562.875306,258.384862 C562.875306,258.384862 563.410655,256.937202 563.410655,255.644127 L554.445613,255.644127 Z M570.996414,255.644127 L570.996414,258.384862 L585.941755,258.384862 L584.945866,255.644127 L570.996414,255.644127 Z M590.386725,255.644127 L589.386745,258.384862 L604.40631,258.384862 L604.40631,255.644127 L590.386725,255.644127 Z M515.593983,260.970427 L515.593983,263.707363 L524.023676,263.707363 L524.023676,260.970427 L515.593983,260.970427 L515.593983,260.970427 Z M537.816497,260.970427 L537.816497,263.707363 L559.348202,263.707363 C559.348202,263.707363 561.148866,262.30266 561.723372,260.970427 L537.816497,260.970427 L537.816497,260.970427 Z M570.996414,260.970427 L570.996414,263.707363 L579.4264,263.707363 L579.4264,262.183434 L579.961456,263.707363 L595.402987,263.707363 L595.977201,262.183434 L595.977201,263.707363 L604.407186,263.707363 L604.407186,260.970427 L588.583138,260.970427 L587.743296,263.288904 L586.899362,260.970427 L570.996414,260.970427 L570.996414,260.970427 Z M515.593983,266.292345 L515.593983,269.029865 L524.023676,269.029865 L524.023676,266.292345 L515.593983,266.292345 Z M537.816497,266.292345 L537.816497,269.029865 L561.723372,269.029865 C561.148574,267.701431 559.348202,266.292345 559.348202,266.292345 L537.816497,266.292345 Z M570.996414,266.292345 L570.996414,269.029865 L579.4264,269.029865 L579.4264,266.292345 L570.996414,266.292345 Z M580.957637,266.292345 L581.976903,269.029865 L593.554398,269.029865 L594.523403,266.292345 L580.957637,266.292345 Z M595.976909,266.292345 L595.976909,269.029865 L604.406894,269.029865 L604.406894,266.292345 L595.976909,266.292345 Z M515.593983,271.615138 L515.593983,274.352074 L524.023676,274.352074 L524.023676,271.615138 L515.593983,271.615138 Z M537.816497,271.615138 L537.816497,274.352074 L546.24619,274.352074 L546.24619,271.615138 L537.816497,271.615138 Z M554.445613,271.615138 L554.445613,274.352074 L563.410363,274.352074 C563.410363,273.06046 562.875306,271.615138 562.875306,271.615138 L554.445613,271.615138 Z M570.996414,271.615138 L570.996414,274.352074 L579.4264,274.352074 L579.4264,271.615138 L570.996414,271.615138 Z M582.871098,271.615138 L583.859681,274.352074 L591.621942,274.352074 L592.617831,271.615138 L582.871098,271.615138 Z M595.976909,271.615138 L595.976909,274.352074 L604.406894,274.352074 L604.406894,271.615138 L595.976909,271.615138 Z M510.152247,276.937348 L510.152247,279.677498 L529.617366,279.677498 L529.617366,276.937348 L510.152247,276.937348 Z M532.222807,276.937348 L532.222807,279.677498 L562.188003,279.677498 C562.818616,279.050393 563.180385,276.937348 563.180385,276.937348 L532.222807,276.937348 Z M565.555263,276.937348 L565.555263,279.677498 L579.4264,279.677498 L579.4264,276.937348 L565.555263,276.937348 Z M584.789528,276.937348 L585.805287,279.677498 L589.754651,279.677498 L590.708168,276.937348 L584.789528,276.937348 Z M595.976909,276.937348 L595.976909,279.677498 L610,279.677498 L610,276.937348 L595.976909,276.937348 Z M510.152247,282.263064 L510.152247,285 L529.617366,285 L529.617366,282.263064 L510.152247,282.263064 Z M532.222807,282.263064 L532.222807,284.995617 L553.375209,284.995617 C557.127908,284.995617 559.960989,282.263064 559.960989,282.263064 L532.222807,282.263064 Z M565.555263,282.263064 L565.555263,285 L579.4264,285 L579.4264,282.263064 L565.555263,282.263064 Z M586.715263,282.263064 L587.692157,284.991526 L587.859892,284.995617 L588.852274,282.263064 L586.715263,282.263064 Z M595.976909,282.263064 L595.976909,285 L610,285 L610,282.263064 L595.976909,282.263064 Z" id="ibm"></path>
        </g>
    </g>
</svg>