<svg width="120px" height="34px" viewBox="0 0 120 34" version="1.1" xmlns="http://www.w3.org/2000/svg" xmlns:xlink="http://www.w3.org/1999/xlink">
    <g id="Website" stroke="none" stroke-width="1" fill="none" fill-rule="evenodd">
        <g id="Desktop-HD-Copy" transform="translate(-174.000000, -268.000000)" fill="currentColor" fill-rule="nonzero">
            <g id="Logos" transform="translate(144.000000, 225.000000)">
                <g id="circle-copy-4">
                    <g id="Nasdaq" transform="translate(30.000000, 42.000000)">
                        <g id="Group" transform="translate(31.676471, 13.588235) scale(-1, 1) rotate(-180.000000) translate(-31.676471, -13.588235) translate(21.176471, 0.588235)">
                            <g id="Shape">
                                <path d="M10.8598897,25.3859055 L2.08902574,1.66085924 C1.85564338,1.02514391 1.23540441,0.569277311 0.508621324,0.569277311 L9.74878676,0.569277311 C10.4768382,0.569277311 11.0958088,1.02514391 11.3304596,1.66085924 L20.1000551,25.3859055 L10.8598897,25.3859055 Z"></path>
                            </g>
                        </g>
                        <g id="Group" transform="translate(10.147059, 21.735294) scale(-1, 1) rotate(-180.000000) translate(-10.147059, -21.735294) translate(0.000000, 8.941176)">
                            <g id="Shape">
                                <path d="M10.4240909,25.2375242 C9.69592868,25.2375242 9.07451278,24.7841555 8.84068758,24.1459422 L0.0544513897,0.422144958 L9.31087956,0.422144958 L18.0983865,24.1459422 C18.3322117,24.7841555 18.9536276,25.2375242 19.6830606,25.2375242 L10.4240909,25.2375242 Z"></path>
                            </g>
                        </g>
                        <g id="Group" transform="translate(20.735294, 17.764706) scale(-1, 1) rotate(-180.000000) translate(-20.735294, -17.764706) translate(15.882353, 8.941176)">
                            <g id="Shape">
                                <path d="M3.56788235,16.1942048 L0.469764706,7.88213508 L2.78623529,1.67398693 C3.02564706,1.0308061 3.65847059,0.569586057 4.4,0.569586057 L4.40129412,0.569586057 C5.14282353,0.569586057 5.77564706,1.0308061 6.01376471,1.67398693 L9.11317647,9.98479303 L6.79541176,16.1942048 C6.55729412,16.8399129 5.92317647,17.2986057 5.18164706,17.2986057 C4.43882353,17.2986057 3.806,16.8399129 3.56788235,16.1942048"></path>
                            </g>
                        </g>
                        <g id="Group" transform="translate(80.735294, 19.529412) scale(-1, 1) rotate(-180.000000) translate(-80.735294, -19.529412) translate(41.470588, 8.058824)">
                            <g id="Clipped" transform="translate(0.000000, 0.000000)">
                                <g id="Group">
                                    <g transform="translate(40.051467, 5.179247)" id="Shape">
                                        <path d="M6.99258638,10.5967719 C4.41163038,10.5967719 3.15682205,9.23154589 3.15682205,6.42240289 C3.15682205,3.90304252 4.67023554,2.33671734 7.10341717,2.33671734 C7.56967082,2.33671734 8.10598991,2.3654458 8.83467048,2.42914802 L8.83467048,10.4306465 C8.10471599,10.5430622 7.51871414,10.5967719 6.99258638,10.5967719 M7.01551689,0.300744419 C2.93133873,0.300744419 0.39496982,2.62150374 0.39496982,6.35870066 C0.39496982,10.2407889 2.7351555,12.6539789 6.50467614,12.6539789 L6.82315541,12.655228 C7.29450473,12.655228 7.94675028,12.6414883 8.83467048,12.5303217 L8.83467048,17.2155575 L11.5022529,17.2155575 L11.5022529,0.722927762 C11.5022529,0.722927762 8.97097961,0.300744419 7.01551689,0.300744419"></path>
                                    </g>
                                    <g transform="translate(0.385821, 5.856584)" id="Shape">
                                        <polygon points="10.1913366 0 2.99370514 12.3157626 2.99243122 0 0.484088491 0 0.484088491 15.5895571 3.99373005 15.5895571 11.1926355 3.38371206 11.1926355 15.5895571 13.7290044 15.5895571 13.7290044 0"></polygon>
                                    </g>
                                    <g transform="translate(29.052976, 5.617763)" id="Shape">
                                        <path d="M4.44475222,0 C3.23453099,0 1.96953133,0.132400693 0.463761342,0.41718709 L0.305795624,0.447164605 L0.305795624,2.62553073 L0.544018118,2.57431914 C1.86889188,2.29827618 3.01286942,2.05970512 4.15812088,2.05970512 C5.0842586,2.05970512 7.2397263,2.20334738 7.2397263,3.53859589 C7.2397263,4.65900552 5.75051723,4.93879567 4.55303517,5.16362703 L4.47787406,5.17736673 C4.25493858,5.22108394 4.04601617,5.26230302 3.86511995,5.30602023 C2.11093613,5.75318484 0.238278019,6.42393175 0.238278019,8.72970231 C0.238278019,10.978016 2.05488378,12.2670491 5.22056772,12.2670491 C6.73907688,12.2670491 7.84228908,12.107169 8.72893536,11.9772665 L9.16079326,11.9135643 L9.16079326,9.80264755 L8.93021426,9.84261757 C7.92764152,10.0237317 6.75181605,10.2098421 5.61930377,10.2098421 C4.36576936,10.2098421 2.87019071,9.97876545 2.87019071,8.88208801 C2.87019071,7.97277004 4.09187719,7.71296491 5.50719907,7.41069163 C7.48304446,6.98850829 9.93533484,6.46390177 9.93533484,3.81963509 C9.93533484,1.3927054 7.93528502,0 4.44475222,0"></path>
                                    </g>
                                    <g transform="translate(53.592878, 5.198827)" id="Shape">
                                        <path d="M6.36958541,6.24531572 C4.0943695,6.24531572 2.68414329,5.91681211 2.68414329,4.28178846 C2.68414329,2.39195592 4.48291421,2.2333249 6.17085434,2.2333249 C6.80271721,2.2333249 7.9352295,2.31201588 8.28173494,2.3382462 L8.28173494,6.1816135 C7.79255079,6.20034944 6.52245546,6.24531572 6.36958541,6.24531572 M5.43962594,0.418436153 C2.68032154,0.418436153 0.126117791,0.894329211 0.126117791,4.3479888 C0.126117791,8.10267261 4.07526074,8.10267261 6.43582909,8.10267261 C6.67150375,8.10267261 7.78108553,8.05395915 8.12249531,8.03897039 C8.11994748,10.1461399 8.09064738,10.6495124 4.97337229,10.6495124 C3.73767272,10.6495124 2.36566402,10.4084432 1.15416888,10.1961024 L0.922315967,10.1561324 L0.922315967,12.2370716 L1.08028168,12.2682982 C2.48413831,12.5493374 3.83831217,12.6867343 5.21796436,12.6867343 C8.23842176,12.6867343 10.7989951,12.3869592 10.7989951,8.71346449 L10.7989951,0.69947536 L10.6142771,0.680739413 C8.52123136,0.450911795 6.86004348,0.418436153 5.43962594,0.418436153"></path>
                                    </g>
                                    <g transform="translate(16.210419, 5.198827)" id="Shape">
                                        <path d="M6.36958541,6.24531572 C4.0943695,6.24531572 2.68414329,5.91681211 2.68414329,4.28178846 C2.68414329,2.39195592 4.48418813,2.2333249 6.17085434,2.2333249 C6.80271721,2.2333249 7.9352295,2.31201588 8.28300886,2.3382462 L8.28300886,6.1816135 C7.79255079,6.20034944 6.52372937,6.24531572 6.36958541,6.24531572 M5.43962594,0.418436153 C2.68032154,0.418436153 0.126117791,0.894329211 0.126117791,4.3479888 C0.126117791,8.10267261 4.07526074,8.10267261 6.43582909,8.10267261 C6.67150375,8.10267261 7.78235945,8.05395915 8.12249531,8.03897039 C8.11994748,10.1461399 8.0919213,10.6495124 4.9746462,10.6495124 C3.73767272,10.6495124 2.36566402,10.4084432 1.15416888,10.1961024 L0.922315967,10.1561324 L0.922315967,12.2370716 L1.08028168,12.2682982 C2.48413831,12.5493374 3.83831217,12.6867343 5.21669045,12.6867343 C8.23969568,12.6867343 10.7989951,12.3869592 10.7989951,8.71346449 L10.7989951,0.69947536 L10.6142771,0.680739413 C8.52250527,0.450911795 6.86004348,0.418436153 5.43962594,0.418436153"></path>
                                    </g>
                                    <g transform="translate(66.573883, 0.542967)" id="Shape">
                                        <path d="M6.82929815,15.2399217 C4.12349827,15.2399217 2.75148957,13.8871863 2.75148957,11.2191874 C2.75148957,7.78801099 4.79994824,7.06855062 6.52101022,7.06855062 C6.9375811,7.06855062 7.41020434,7.06855062 8.45226851,7.19720412 L8.45226851,15.166227 C7.63568766,15.2199367 7.25988212,15.2399217 6.82929815,15.2399217 Z M8.42679017,0.018838239 L8.42679017,5.13125368 C7.38727383,4.98886049 6.8331199,4.98886049 6.38724892,4.98886049 C5.33244558,4.98886049 4.16044187,5.21369185 3.25213899,5.59090892 C1.22278908,6.41653966 0.0100200151,8.52121106 0.0100200151,11.2191874 C0.0100200151,12.5681756 0.345060207,15.0313282 2.58588035,16.3578332 C3.70565347,17.0160895 5.0356229,17.2983778 7.02930313,17.2983778 C7.74397062,17.2983778 8.70832585,17.243419 9.64083315,17.1909583 L11.1529727,17.1147655 L11.1529727,1.2029501 L8.42679017,0.018838239 Z"></path>
                                    </g>
                                </g>
                            </g>
                        </g>
                    </g>
                </g>
            </g>
        </g>
    </g>
</svg>