<svg width="120px" height="19px" viewBox="0 0 120 19" version="1.1" xmlns="http://www.w3.org/2000/svg" xmlns:xlink="http://www.w3.org/1999/xlink">
    <g id="Website" stroke="none" stroke-width="1" fill="none" fill-rule="evenodd">
        <g id="Desktop-HD-Copy" transform="translate(-789.000000, -424.000000)" fill="currentColor" fill-rule="nonzero">
            <g id="Logos" transform="translate(144.000000, 225.000000)">
                <g id="Group-3" transform="translate(615.000000, 148.000000)">
                    <g id="Samsung" transform="translate(30.000000, 51.000000)">
                        <g id="Group">
                            <polygon id="Shape" points="99.311761 14.2137005 99.0787394 0.569798797 103.321104 0.569798797 103.321104 17.7679942 97.22142 17.7679942 92.9859092 3.65505082 92.893386 3.65505082 93.1298344 17.7679942 88.9114576 17.7679942 88.9114576 0.569798797 95.2784308 0.569798797 99.2192378 14.2137005"></polygon>
                            <polygon id="Shape" points="22.1747492 2.18191247 19.827399 17.9486621 15.1978075 17.9486621 18.3744406 0.569798797 25.9990453 0.569798797 29.165398 17.9486621 24.5529405 17.9486621 22.2706993 2.18191247"></polygon>
                            <polygon id="Shape" points="42.1632072 13.855839 44.2809626 0.569798797 51.2716114 0.569798797 51.6417045 17.9486621 47.3582188 17.9486621 47.2451347 2.32436217 47.1560382 2.32436217 44.2912429 17.9486621 39.9426482 17.9486621 37.0744261 2.32436217 36.9819028 2.32436217 36.8756724 17.9486621 32.5819062 17.9486621 32.9622798 0.569798797 39.9563553 0.569798797 42.0706839 13.855839"></polygon>
                            <path d="M7.9809907,13.0463078 C8.14890334,13.4667082 8.09750151,14.0087119 8.01868537,14.3353039 C7.87476025,14.9120514 7.48753314,15.5026965 6.34983932,15.5026965 C5.27382769,15.5026965 4.62273785,14.8773076 4.62273785,13.9253267 L4.62273785,12.2437254 L0.0239875204,12.2437254 L0.0205607317,13.5883116 C0.0205607317,17.4622485 3.02928114,18.6331155 6.25388923,18.6331155 C9.35513294,18.6331155 11.9080905,17.5595312 12.3124515,14.6618959 C12.5214856,13.1609625 12.3638533,12.1777121 12.2953176,11.8059531 C11.5722652,8.16827422 5.06479358,7.08079237 4.58161639,5.04827837 C4.49937346,4.70084007 4.52336098,4.3290811 4.56448244,4.13104128 C4.68442005,3.5786144 5.05794001,2.967123 6.13052484,2.967123 C7.13114712,2.967123 7.72398155,3.59598631 7.72398155,4.54449284 C7.72398155,4.86413607 7.72398155,5.61807716 7.72398155,5.61807716 L11.997187,5.61807716 L11.997187,4.39856876 C11.997187,0.611491392 8.64578769,0.0208462974 6.21962135,0.0208462974 C3.16977948,0.0208462974 0.678504147,1.04231487 0.22274126,3.87046256 C0.09937687,4.65219871 0.0822429269,5.3470753 0.260435935,6.21914541 C1.01090264,9.76649035 7.09687924,10.7949077 7.9809907,13.0463078 Z" id="Shape"></path>
                            <path d="M63.7177076,13.0150384 C63.8856203,13.4319643 63.8307917,13.9600705 63.7554023,14.2866625 C63.614904,14.8634101 63.2311036,15.443632 62.1002634,15.443632 C61.0413857,15.443632 60.3937227,14.8182431 60.3937227,13.8871085 L60.3902959,12.2194047 L55.8395206,12.2194047 L55.832667,13.546619 C55.832667,17.3823377 58.8139731,18.5393072 62.0043133,18.5393072 C65.0712891,18.5393072 67.6002591,17.4796204 68.0011934,14.6097801 C68.2102275,13.1192699 68.0628756,12.149917 67.9874863,11.7851068 C67.2678606,8.18217175 60.8289248,7.10511305 60.3491744,5.08997096 C60.2669315,4.74253267 60.290919,4.37772246 60.3320405,4.19010579 C60.4554049,3.63073014 60.8220712,3.03661066 61.8843757,3.03661066 C62.8781444,3.03661066 63.4572717,3.64810205 63.4572717,4.5931342 C63.4572717,4.90930305 63.4572717,5.65629537 63.4572717,5.65629537 L67.699636,5.65629537 L67.699636,4.44721012 C67.699636,0.701825347 64.375651,0.114654636 61.9700454,0.114654636 C58.9544714,0.114654636 56.4837569,1.12222568 56.0382743,3.93300145 C55.9149099,4.70431446 55.9012028,5.38529351 56.0793958,6.25388923 C56.8161553,9.76649035 62.8438765,10.7879589 63.7177076,13.0150384 Z" id="Shape"></path>
                            <path d="M78.1136466,15.3498237 C79.3027423,15.3498237 79.6728355,14.5159718 79.7550784,14.0886227 C79.7893463,13.901006 79.7996266,13.6508504 79.7961998,13.4250156 L79.7961998,0.562850031 L84.1310875,0.562850031 L84.1310875,13.0289359 C84.1413678,13.3485791 84.1105267,14.0052375 84.0933928,14.1685335 C83.7884086,17.4136071 81.2594386,18.4663452 78.1102198,18.4663452 C74.9575743,18.4663452 72.4251775,17.4136071 72.1236201,14.1685335 C72.109913,14.0052375 72.0790719,13.3451048 72.0859254,13.0289359 L72.0859254,0.562850031 L76.4173863,0.562850031 L76.4173863,13.4215412 C76.4173863,13.6473761 76.4242398,13.901006 76.4585077,14.0851483 C76.5544578,14.5124974 76.9142706,15.3498237 78.1136466,15.3498237 Z" id="Shape"></path>
                            <path d="M113.872186,15.1656814 C115.112683,15.1656814 115.547886,14.3700477 115.626702,13.9079548 C115.657543,13.709915 115.667823,13.4667082 115.664396,13.247822 L115.664396,10.72542 L113.906454,10.72542 L113.906454,8.18912051 L119.985577,8.18912051 L119.985577,12.8552168 C119.98215,13.1818088 119.975296,13.4215412 119.923895,14.0017631 C119.639471,17.1634516 116.932308,18.292626 113.896173,18.292626 C110.853185,18.292626 108.152876,17.1634516 107.861599,14.0017631 C107.813624,13.4215412 107.80677,13.1818088 107.799916,12.8552168 L107.803343,5.53816636 C107.803343,5.22894628 107.841038,4.68346816 107.875306,4.39162 C108.255679,1.14307198 110.853185,0.0972827214 113.896173,0.0972827214 C116.935735,0.0972827214 119.59835,1.13612321 119.913614,4.39162 C119.968443,4.94404688 119.951309,5.53816636 119.951309,5.53816636 L119.951309,6.1183883 L115.630128,6.1183883 L115.630128,5.14556109 C115.633555,5.14903547 115.623275,4.73210952 115.5753,4.48542833 C115.503337,4.09977183 115.174366,3.21727857 113.865332,3.21727857 C112.614554,3.21727857 112.251315,4.05113047 112.158792,4.48542833 C112.10739,4.71473761 112.086829,5.02395769 112.086829,5.3053827 L112.086829,13.2547708 C112.083402,13.4736569 112.097109,13.7168637 112.131377,13.9149035 C112.199913,14.3700477 112.631688,15.1656814 113.872186,15.1656814 Z" id="Shape"></path>
                        </g>
                    </g>
                </g>
            </g>
        </g>
    </g>
</svg>
