<svg width="138px" height="34px" viewBox="0 0 138 34" version="1.1" xmlns="http://www.w3.org/2000/svg" xmlns:xlink="http://www.w3.org/1999/xlink">
    <!-- Generator: Sketch 63.1 (92452) - https://sketch.com -->
    <title>Combined Shape</title>
    <desc>Created with Sketch.</desc>
    <g id="Our-custumers" stroke="none" stroke-width="1" fill="none" fill-rule="evenodd">
        <g id="Group-7-Copy" transform="translate(-1062.000000, -341.000000)" fill="currentColor" fill-rule="nonzero">
            <g id="Group-6">
                <g id="Group-4-Copy" transform="translate(1045.231231, 302.737179)">
                    <g id="Snowflake-blue" transform="translate(17.229892, 39.049516)">
                        <path d="M11.5905911,21.1369566 C11.9946104,20.8938866 12.4745328,20.8087996 12.9377204,20.8981197 C13.9065795,21.0752238 14.6055584,21.9247977 14.5910739,22.9076884 L14.5910739,22.9076884 L14.5910739,30.9575198 C14.6183927,31.675556 14.2501307,32.3510304 13.6311953,32.7181505 C13.0122599,33.0852706 12.2417257,33.0852706 11.6227904,32.7181505 C11.003855,32.3510304 10.635593,31.675556 10.6629118,30.9575198 L10.6629118,30.9575198 L10.6629118,26.4119139 L6.85183539,28.6924213 C6.3981164,28.9624245 5.85342925,29.0353151 5.34446394,28.8941392 C4.83549864,28.7529634 4.40661816,28.4100264 4.15757679,27.9450929 C3.61217024,26.9715629 3.93006761,25.7421168 4.87939106,25.1535259 L4.87939106,25.1535259 Z M19.4545173,20.9339943 C19.9655565,20.7927889 20.512463,20.8656947 20.9680307,21.1357545 L20.9680307,21.1357545 L27.706576,25.1518818 C28.6596531,25.7406797 28.9788193,26.970282 28.4313313,27.9440342 C28.1814207,28.4092011 27.7508929,28.7524135 27.2398667,28.893858 C26.7288406,29.0353025 26.1818492,28.9626529 25.7260948,28.6928036 L25.7260948,28.6928036 L21.9511658,26.4426422 L21.9511658,30.9570928 C21.9785959,31.6752796 21.6088334,32.3508957 20.9873761,32.7180928 C20.3659189,33.0852899 19.5922451,33.0852899 18.9707878,32.7180928 C18.3493306,32.3508957 17.979568,31.6752796 18.0069981,30.9570928 L18.0069981,30.9570928 L18.0069981,23.1033615 C17.966357,22.6803053 18.0555359,22.2549308 18.2627941,21.8832397 C18.5128502,21.4182086 18.9434782,21.0751998 19.4545173,20.9339943 Z M1.45883892,10.7448111 C1.96989382,10.6038748 2.51691697,10.6762828 2.9726781,10.9451938 L2.9726781,10.9451938 L9.71145347,14.9480811 C10.3281183,15.3391087 10.7011629,16.0143946 10.7011629,16.7396547 C10.7011629,17.4649148 10.3281183,18.1402007 9.71145347,18.5312283 L9.71145347,18.5312283 L2.9726781,22.5329638 C2.51710553,22.8021498 1.97012852,22.8748358 1.45903599,22.7341068 C0.947943465,22.5933778 0.517309778,22.2515073 0.267349188,21.7880531 C-0.280292275,20.8174363 0.0388454741,19.5918672 0.992129284,19.0047156 L0.992129284,19.0047156 L4.80723735,16.7396547 L0.992129284,14.4731861 C0.0389798349,13.8866068 -0.280214466,12.6614405 0.267349188,11.6912563 C0.517241277,11.2277436 0.947784015,10.8857473 1.45883892,10.7448111 Z M29.1319218,10.9450302 C29.587463,10.676234 30.1342229,10.6038942 30.6450046,10.7448398 C31.1557862,10.8857853 31.5860586,11.2277283 31.8357241,11.69112 C32.3838881,12.6612969 32.0646065,13.8870059 31.1110069,14.4732797 L31.1110069,14.4732797 L27.29623,16.7397033 L31.1110069,19.0048471 C32.0647803,19.5916037 32.3840224,20.8177246 31.8357241,21.7882866 C31.5859674,22.2515979 31.1555942,22.5933874 30.644777,22.734101 C30.1339598,22.8748146 29.5872585,22.8021775 29.1319218,22.5330966 L29.1319218,22.5330966 L22.3924395,18.5313425 C21.7673901,18.1518413 21.3911398,17.4735322 21.402897,16.7473817 C21.3855924,16.0157959 21.7625537,15.3303549 22.3924395,14.9480641 L22.3924395,14.9480641 Z M98.4854776,4.85198391 C98.8565445,4.85226584 99.1577251,5.11981799 99.1596509,5.45088204 L99.1596509,5.45088204 L99.1596509,21.717476 C99.1646803,21.9309056 99.0399375,22.1300713 98.8335685,22.2381026 C98.6271995,22.3461338 98.3714816,22.3461338 98.1651126,22.2381026 C97.9587436,22.1300713 97.8340007,21.9309056 97.8390301,21.717476 L97.8390301,21.717476 L97.8390301,5.45088204 C97.8373329,5.12805417 98.1238394,4.86262161 98.4854776,4.85198391 Z M72.3305367,10.717232 C72.4762575,10.6595873 72.6411414,10.6600995 72.7864423,10.7186484 C72.9317431,10.7771974 73.0446498,10.8886207 73.0986301,11.0267349 L73.0986301,11.0267349 L76.564,20.101 L76.6142463,19.9770734 L76.6799125,20.1619339 L76.6624015,20.2070574 L76.632,20.281 L76.6374897,20.2944185 L76.6549159,20.2534 L76.6870873,20.1799397 L76.7045135,20.1402886 L79.4337249,13.8868395 C79.5354831,13.6775103 79.7560093,13.5394214 80.0034277,13.5301033 C80.2591134,13.5325254 80.4903682,13.6714486 80.5972591,13.8868395 L80.5972591,13.8868395 L83.3264704,20.1390456 L83.3760681,20.2534 L83.3934943,20.2944185 L83.40958,20.2521571 L83.4176229,20.232145 L83.4540839,20.1365596 L86.9082253,11.0266106 C87.0282323,10.7452083 87.3710861,10.606814 87.6749782,10.7171077 C87.9774725,10.8442191 88.1195035,11.1688264 87.9980332,11.4554398 L87.9980332,11.4554398 L83.9631971,21.9139015 C83.9192241,22.0265727 83.8421489,22.1255968 83.7406779,22.1997876 C83.6445244,22.2775054 83.5210459,22.3199447 83.3934943,22.319126 L83.3934943,22.319126 L83.3197681,22.319126 C83.0916808,22.287078 82.9013627,22.1407797 82.825132,21.9388854 L82.825132,21.9388854 L80.0034277,15.4827058 L79.9833205,15.5275775 L79.9806396,15.5337924 L77.205852,21.9140258 C77.1926774,21.9275318 77.1842598,21.9444433 77.1817234,21.9625021 C77.1013851,22.1674837 76.8965153,22.3079534 76.6616183,22.319126 C76.5851749,22.3147433 76.5100135,22.298831 76.4390991,22.272005 C76.4000373,22.2709623 76.3635774,22.2536013 76.3399038,22.2247716 C76.2214929,22.1734973 76.1319251,22.0782567 76.093256,21.9625021 L76.093256,21.9625021 L72.0342913,11.4555641 C71.9147331,11.17542 72.0425805,10.856786 72.3305367,10.717232 Z M128.16451,11.0954759 C129.961149,9.96952169 132.248928,9.88687652 134.126959,10.8800845 C136.004991,11.8732925 137.172386,13.7832268 137.169452,15.8577896 L137.169452,15.8577896 L137.169452,15.9314194 C137.1685,16.0804676 137.105105,16.222736 136.993825,16.3255419 C136.882545,16.4283479 136.732947,16.4828537 136.579396,16.4765382 L136.579396,16.4765382 L126.692388,16.4765382 L126.700379,16.5876287 L126.699048,16.5889205 L126.699048,16.5953792 C126.774216,19.051028 128.795114,21.0323893 131.326215,21.1307155 L131.326215,21.1307155 L131.894955,21.1307155 C133.543212,21.0141829 135.012468,20.0801928 135.780231,18.6608884 C135.855007,18.5307439 135.981474,18.4359725 136.130192,18.3986335 C136.278911,18.3612945 136.436908,18.3846452 136.567408,18.4632505 C136.844715,18.6537327 136.929671,19.0161475 136.764536,19.3041802 C135.782714,21.0533126 133.944221,22.1915941 131.894955,22.319126 L131.894955,22.319126 L131.322219,22.319126 C128.006502,22.189067 125.415956,19.4958373 125.512287,16.2789003 C125.350218,14.2102983 126.36787,12.2214301 128.16451,11.0954759 Z M52.7757139,10.6743646 C55.3725254,10.7298153 57.4367935,12.846969 57.3965686,15.4136036 L57.3965686,15.4136036 L57.3965686,21.7473762 C57.4040776,21.949101 57.2994638,22.138761 57.1238364,22.2418267 C56.948209,22.3448924 56.7296361,22.3448924 56.5540087,22.2418267 C56.3783813,22.138761 56.2737675,21.949101 56.2812766,21.7473762 L56.2812766,21.7473762 L56.2812766,15.4136036 C56.2994524,14.4771703 55.9402122,13.5720048 55.2826856,12.8974869 C54.6251589,12.2229691 53.7232833,11.8344302 52.7757139,11.8174533 C50.8087709,11.8752174 49.2452213,13.4688818 49.2475185,15.4136036 L49.2475185,15.4136036 L49.2475185,21.8429339 C49.2333675,21.9389795 49.1934216,22.0295198 49.13184,22.1051273 C49.0383279,22.2423227 48.8804657,22.3229045 48.7131339,22.3188584 L48.7131339,22.3188584 L48.5748226,22.3188584 C48.4129115,22.2708971 48.2782334,22.1589779 48.2026395,22.0095696 C48.18493,21.9898465 48.1766821,21.9635365 48.1800068,21.9373732 C48.1775099,21.9195027 48.1691118,21.9029471 48.1561166,21.8902778 L48.1561166,21.8902778 L48.1561166,11.2458468 C48.1446189,11.0458649 48.2460413,10.8560144 48.4196209,10.7525983 C48.5932006,10.6491823 48.8104346,10.6491823 48.9840142,10.7525983 C49.1575938,10.8560144 49.2590162,11.0458649 49.2475185,11.2458468 L49.2475185,11.2458468 L49.2475185,12.3654499 C50.1044964,11.3037133 51.4014648,10.6820685 52.7757139,10.6743646 Z M64.9366023,10.1891662 C68.1517932,10.3543005 70.6351106,13.0581139 70.5069084,16.2540648 C70.7007179,18.3522849 69.6834301,20.3789357 67.8799005,21.4876159 C66.076371,22.596296 63.7968336,22.596296 61.993304,21.4876159 C60.1897744,20.3789357 59.1724867,18.3522849 59.3662961,16.2540648 C59.2471936,13.0614201 61.7255567,10.363001 64.9366023,10.1891662 Z M111.974599,10.2698155 C112.156705,10.1627893 112.383342,10.1627893 112.565448,10.2698155 C112.747554,10.3768417 112.856025,10.5737892 112.848234,10.783263 L112.848234,10.783263 L112.848234,21.7247709 C112.856025,21.9342447 112.747554,22.1311922 112.565448,22.2382184 C112.383342,22.3452446 112.156705,22.3452446 111.974599,22.2382184 C111.792494,22.1311922 111.684023,21.9342447 111.691813,21.7247709 L111.691813,21.7247709 L111.691813,19.9188408 L111.629163,20.0053911 L111.586091,20.0635219 C110.586039,21.4516922 108.980325,22.2885167 107.257998,22.319126 C104.026589,22.1623012 101.529041,19.4532846 101.666457,16.2541461 C101.529041,13.0550076 104.026589,10.345991 107.257998,10.1891662 C108.976923,10.2109566 110.583246,11.039373 111.586091,12.4212597 C111.600448,12.439474 111.613501,12.4588509 111.627858,12.4768069 C111.648741,12.5066473 111.67093,12.5363586 111.691813,12.5659408 L111.691813,12.5659408 L111.691813,10.783263 C111.684023,10.5737892 111.792494,10.3768417 111.974599,10.2698155 Z M94.1851063,4.85217037 L94.3901883,4.86133872 C94.4151178,4.86130641 94.4400303,4.86260986 94.4648136,4.86524319 C94.4900455,4.86264464 94.5153996,4.86134135 94.5407715,4.86133872 L94.5407715,4.86133872 L94.7313325,4.86133872 C95.0696243,4.87312667 95.3376333,5.14438565 95.3376333,5.47499177 C95.3376333,5.80559789 95.0696243,6.07685687 94.7313325,6.08864482 L94.7313325,6.08864482 L94.5407715,6.08864482 C94.514024,6.08885567 94.4872978,6.08711551 94.4608158,6.08343886 C94.4374653,6.08711253 94.4138388,6.08885404 94.3901883,6.08864482 C93.8399248,6.01226224 93.2836424,6.18141585 92.8750282,6.54937267 C92.4901695,7.15766415 92.3176329,7.87143199 92.3833008,8.58360326 L92.3833008,8.58360326 L92.3833008,9.88769734 L94.0863567,9.88769734 C94.2461763,9.88090988 94.4017931,9.93876453 94.5165368,10.0476281 C94.6312804,10.1564917 94.6950025,10.3067359 94.6926872,10.4629564 C94.7085359,10.8061607 94.4376613,11.0974589 94.0863567,11.1150035 L94.0863567,11.1150035 L92.3833008,11.1150035 L92.3833008,21.706538 C92.3980685,21.9203434 92.2896541,22.1243773 92.1021481,22.2356623 C91.9146421,22.3469472 91.6792763,22.3469472 91.4917703,22.2356623 C91.3042644,22.1243773 91.19585,21.9203434 91.2106176,21.706538 L91.2106176,21.706538 L91.2106176,11.1150035 L89.6194997,11.1150035 C89.2713337,11.0914662 89.0042981,10.8036639 89.0145017,10.4629564 C89.0148114,10.3077558 89.0791736,10.1592313 89.1930346,10.0509671 C89.3068956,9.94270302 89.4606387,9.8838433 89.6194997,9.88769734 L89.6194997,9.88769734 L91.2106176,9.88769734 L91.2106176,8.58360326 C91.1170793,7.57446543 91.399048,6.56620552 92.004844,5.74361953 C92.6244356,5.11531102 93.499881,4.79150504 94.3901883,4.86133872 Z M41.374503,10.1896357 L41.6547702,10.1935674 C43.3289035,10.1935674 45.6508765,12.0228155 44.9938383,12.6114796 C44.3368001,13.2001438 43.8321947,11.2973127 41.4852543,11.2973127 C40.5141518,11.2973127 38.7427769,11.9053408 38.7427769,13.3847468 C38.7427769,14.5504567 40.2539647,14.9106263 41.6547702,15.3882704 C43.7204982,16.0918274 45.7231507,16.6249815 45.7231507,18.9008914 C45.7194897,19.8932169 45.2446971,20.8270308 44.439298,21.4259508 C43.5836747,22.0437184 42.5396795,22.3573636 41.4786839,22.3154017 C40.6212771,22.2913995 39.7777274,22.0968524 38.9990218,21.7435196 C37.7874433,21.1600192 37.1474881,20.5649004 37.644209,20.0885472 C38.1409299,19.6121939 38.8492171,21.1277459 41.4786839,21.1277459 C42.4011655,21.1277459 44.456381,20.6023374 44.439298,18.9008914 C44.4272999,17.7787925 43.1850804,17.2528982 41.9929195,16.8368214 L41.6547702,16.7205104 C40.3722316,16.282885 37.3879641,15.8633327 37.4576102,13.3847468 C37.4071412,12.4103236 37.8993094,11.4858417 38.7427769,10.9707074 C39.60833,10.4221755 40.6256689,10.1506726 41.6547702,10.1935674 Z M115.574497,4.93290484 C115.760346,4.82501027 115.990637,4.82501027 116.176486,4.93290484 C116.362335,5.04079942 116.474673,5.239713 116.470141,5.45287118 L116.470141,5.45287118 L116.47,17.176 L116.561687,17.0848057 L116.561,17.111 L116.574073,17.098755 L123.51516,10.1475428 C123.618456,10.0285702 123.769081,9.96012378 123.927599,9.96012378 C124.086117,9.96012378 124.236742,10.0285702 124.340039,10.1475428 C124.456682,10.2582811 124.522623,10.4113071 124.522623,10.5712544 C124.522623,10.7312016 124.456682,10.8842277 124.340039,10.9949659 L124.340039,10.9949659 L119.749923,15.5562107 L119.866,15.702 L119.867374,15.6787008 L119.944714,15.7747701 L119.933,15.785 L124.365035,21.3189478 C124.558031,21.5491242 124.56271,21.8755398 124.389591,22.1094106 L124.316358,22.1924054 C124.205722,22.2776504 124.068407,22.3218647 123.928257,22.317371 C123.744052,22.3327569 123.56635,22.2460949 123.466483,22.0921725 L123.466483,22.0921725 L119.328,16.962 L118.685625,16.9322539 L118.875,16.735 L118.841278,16.6920377 L118.850034,16.6833041 L118.922,16.686 L119.022,16.582 L118.973721,16.5220907 L118.973721,16.5201382 L118.967143,16.5136295 L118.900047,16.4290174 L118.818481,16.5123278 L118.817165,16.5136295 L116.470141,18.9231227 L116.470141,21.7179266 C116.474673,21.9310847 116.362335,22.1299983 116.176486,22.2378929 C115.990637,22.3457875 115.760346,22.3457875 115.574497,22.2378929 C115.388648,22.1299983 115.27631,21.9310847 115.280842,21.7179266 L115.280842,21.7179266 L115.280842,5.45287118 C115.27631,5.239713 115.388648,5.04079942 115.574497,4.93290484 Z M109.628365,12.028486 C108.178536,11.128259 106.336154,11.128259 104.886326,12.028486 C103.436497,12.9287131 102.634804,14.5704705 102.822877,16.2541461 C102.697818,18.8093231 104.67743,20.9865336 107.257998,21.1319659 C109.842254,20.9945451 111.826067,18.8120726 111.691813,16.2541461 C111.879887,14.5704705 111.078194,12.9287131 109.628365,12.028486 Z M67.298683,12.0279736 C65.8543646,11.12758 64.0188399,11.12758 62.5745216,12.0279736 C61.1302032,12.9283673 60.3317942,14.570372 60.5196251,16.2540648 C60.4037098,18.8054187 62.3705428,20.9768557 64.9366023,21.1305274 C67.5026617,20.9768557 69.4694947,18.8054187 69.3535794,16.2540648 C69.5414104,14.570372 68.7430013,12.9283673 67.298683,12.0279736 Z M16.6327894,12.6151582 C16.8051954,12.6251239 16.9685793,12.6973482 17.0939431,12.8190124 L17.0939431,12.8190124 L19.7516783,15.6458612 C19.8670641,15.7830803 19.9344251,15.9558424 19.9430764,16.1367432 L19.9430764,16.1367432 L19.9430764,16.8567474 C19.9345619,17.0376787 19.8671837,17.2104847 19.7516783,17.3476294 L19.7516783,17.3476294 L17.0939431,20.1744782 C16.9684925,20.2960075 16.8051591,20.3682095 16.6327894,20.3783324 L16.6327894,20.3783324 L15.9571158,20.3783324 C15.7847099,20.3683667 15.621326,20.2961424 15.4959622,20.1744782 L15.4959622,20.1744782 L12.8382269,17.3476294 C12.723028,17.2102942 12.6556936,17.0376005 12.6468289,16.8567474 L12.6468289,16.8567474 L12.6468289,16.1367432 C12.6559342,15.9559441 12.7232387,15.7833271 12.8382269,15.6458612 L12.8382269,15.6458612 L15.4959622,12.8190124 C15.621326,12.6973482 15.7847099,12.6251239 15.9571158,12.6151582 L15.9571158,12.6151582 Z M16.3103672,15.1378707 L16.2808226,15.1378707 C16.1543494,15.1455636 16.0344405,15.1981464 15.9417012,15.2865829 L15.9417012,15.2865829 L15.1581253,16.1210824 C15.0739303,16.2216666 15.024686,16.3480263 15.0181093,16.4803606 L15.0181093,16.4803606 L15.0181093,16.5118139 C15.0244825,16.6445885 15.0737343,16.7714307 15.1581253,16.8724082 L15.1581253,16.8724082 L15.9417012,17.70546 C16.0339892,17.794793 16.1540726,17.8479183 16.2808226,17.8554883 L16.2808226,17.8554883 L16.3103672,17.8554883 C16.4367456,17.8479492 16.5564337,17.7947975 16.648204,17.70546 L16.648204,17.70546 L17.4317799,16.8724082 C17.5161709,16.7714307 17.5654228,16.6445885 17.5717959,16.5118139 L17.5717959,16.5118139 L17.5717959,16.4803606 C17.5658145,16.3478936 17.5164958,16.2213427 17.4317799,16.1210824 L17.4317799,16.1210824 L16.648204,15.2865829 C16.5559601,15.1981735 16.4364591,15.1455703 16.3103672,15.1378707 L16.3103672,15.1378707 Z M131.364842,11.3767069 C129.09553,11.4248296 127.179075,13.0246658 126.792284,15.1938298 L126.792284,15.1938298 L126.790952,15.1938298 L126.785624,15.2170814 C126.780296,15.2506669 126.772304,15.2816689 126.766977,15.3126709 L126.766977,15.3126709 L135.890782,15.3126709 L135.870803,15.2170814 L135.872135,15.2157896 L135.868139,15.1938298 C135.502522,13.0399571 133.614488,11.4391315 131.364842,11.3767069 Z M18.9707371,0.274565236 C19.5921634,-0.0915217453 20.3657985,-0.0915217453 20.9872247,0.274565236 C21.6086509,0.640652217 21.978395,1.31422572 21.9509662,2.0302412 L21.9509662,6.56817671 L25.7269984,4.32481807 C26.1824251,4.05596147 26.7289967,3.98349373 27.2397024,4.1242547 C27.7504082,4.26501567 28.1807795,4.60674888 28.4308079,5.07004337 C28.9791076,6.04114655 28.6598648,7.26795104 27.7060888,7.85503483 L27.7060888,7.85503483 L20.9678802,11.8590202 C20.5121485,12.1280536 19.9651845,12.2004836 19.4541839,12.0594668 C18.9431832,11.9184499 18.512677,11.5762751 18.2627788,11.1125145 C18.0555426,10.7424079 17.9663604,10.318729 18.0069956,9.8973619 L18.0069956,9.8973619 L18.0069956,2.0302412 C17.9795669,1.31422572 18.3493109,0.640652217 18.9707371,0.274565236 Z M11.6227661,0.274544656 C12.2417066,-0.0915148852 13.012247,-0.0915148852 13.6311874,0.274544656 C14.2501279,0.640604196 14.6183929,1.31412721 14.5910739,2.03008903 L14.5910739,2.03008903 L14.5910739,10.0553847 C14.593905,10.6181847 14.3651652,11.1576222 13.9580337,11.5482843 C13.3371948,12.1868413 12.3557265,12.3147622 11.5905666,11.856851 L11.5905666,11.856851 L4.87931177,7.85316569 C3.93009455,7.26619187 3.61222089,6.04039888 4.15749162,5.06966334 C4.40639018,4.60593754 4.83517432,4.26378833 5.34413088,4.12278204 C5.85308745,3.98177574 6.39786353,4.05420032 6.8517722,4.32321354 L6.8517722,4.32321354 L10.6628797,6.59713266 L10.6628797,2.03008903 C10.6355607,1.31412721 11.0038257,0.640604196 11.6227661,0.274544656 Z" id="Combined-Shape"></path>
                    </g>
                </g>
            </g>
        </g>
    </g>
</svg>