<svg width="159px" height="40px" viewBox="0 0 159 40" version="1.1" xmlns="http://www.w3.org/2000/svg" xmlns:xlink="http://www.w3.org/1999/xlink">
    <title>square-logo</title>
    <g id="Homepage" stroke="none" stroke-width="1" fill="none" fill-rule="evenodd">
        <g id="Artboard" transform="translate(-1036.000000, -75.000000)" fill="currentColor">
            <path d="M1069.30345,75.0000003 C1071.07569,74.9994863 1072.77576,75.7034439 1074.0291,76.9569639 C1075.28244,78.210473 1075.98672,79.9108184 1075.98672,81.6838184 L1075.98672,108.314182 C1075.98672,112.006727 1072.99441,115 1069.30345,115 L1042.68126,115 C1038.99098,114.998909 1036,112.006 1036,108.314182 L1036,81.6838184 C1036,77.9924366 1038.99129,75.0000003 1042.68126,75.0000003 L1069.30345,75.0000003 Z M1116.18281,89.0818183 C1118.73783,89.0818183 1120.92609,90.1822001 1122.40243,92.1869455 L1122.40243,89.5029455 L1124.95727,89.5029455 L1124.95727,114.996182 L1122.40243,114.996182 L1122.40243,105.036363 C1120.94354,107.037273 1118.75528,108.131818 1116.18281,108.131818 C1111.32521,108.131818 1107.93015,104.240727 1107.93015,98.6223636 C1107.93015,93.0039818 1111.33284,89.0818183 1116.18281,89.0818183 Z M1096.0983,82.1418365 C1099.48755,82.1418365 1102.45569,83.5391456 1104.45965,86.0892365 L1104.45965,86.0892365 L1104.56434,86.2212183 L1102.39153,87.9212728 L1102.28885,87.7893092 C1100.78142,85.8602365 1098.53683,84.7967274 1095.96654,84.7967274 C1093.26211,84.7967274 1090.54624,86.0620729 1090.54624,88.8722183 C1090.54624,90.3588001 1091.32994,91.4029091 1093.01385,92.1559091 C1093.92368,92.5615091 1095.09541,92.8797818 1096.33312,93.2174546 C1100.22854,94.2809091 1105.08232,95.6025454 1105.08232,100.706727 C1105.08232,105.166363 1101.51278,108.164909 1096.20317,108.164909 C1092.29412,108.164909 1088.94576,106.478363 1087.00578,103.540182 L1087.00578,103.540182 L1086.91654,103.406182 L1089.20185,101.750727 L1089.2969,101.898364 C1091.34939,105.034545 1094.61433,105.502182 1096.37765,105.502182 C1099.94338,105.502182 1102.24814,103.660364 1102.24814,100.809454 C1102.24814,97.914 1099.92212,97.1532727 1096.12557,96.1518182 C1092.37355,95.1794545 1087.70606,93.9705455 1087.70606,89.0119455 C1087.70606,86.8791092 1088.59463,85.0917092 1090.27853,83.8593638 C1091.77414,82.7512184 1093.84226,82.1418365 1096.0983,82.1418365 Z M1156.22769,89.0876364 C1160.28813,89.0876364 1162.71103,91.1079091 1162.70341,94.4963636 L1162.70341,107.724363 L1160.14655,107.724363 L1160.14655,105.704 C1158.85632,107.320545 1156.99012,108.139636 1154.58849,108.139636 C1150.67544,108.139636 1148.24274,105.998909 1148.24274,102.556182 C1148.24274,98.078909 1152.46022,97.3763636 1154.2568,97.0774545 C1154.5496,97.0290909 1154.85221,96.9825454 1155.15464,96.9358182 L1155.15501,96.9358182 L1155.16591,96.9341818 C1155.31029,96.9119465 1155.45495,96.8896697 1155.59935,96.8670092 L1156.03125,96.7975344 C1158.18154,96.4409833 1160.15419,95.9211123 1160.15419,94.0830909 C1160.15419,91.7250546 1157.09481,91.5426364 1156.1579,91.5426364 C1154.50307,91.5426364 1152.16542,92.0336364 1150.57657,93.4114546 L1150.43117,93.5376364 L1149.09641,91.5115819 L1149.21673,91.416491 C1151.10037,89.9357273 1153.65721,89.0876364 1156.22769,89.0876364 Z M1132.01494,89.5029455 L1132.01494,100.640727 C1132.01494,104.007818 1133.35734,105.645818 1136.11592,105.645818 C1139.43719,105.645818 1141.84864,103.088 1141.84864,99.5654545 L1141.84864,99.5654545 L1141.84864,89.5029455 L1144.40548,89.5029455 L1144.40548,107.720363 L1141.85045,107.720363 L1141.85045,105.166363 C1140.40719,107.085818 1138.28091,108.135636 1135.80549,108.135636 C1131.83246,108.135636 1129.45992,105.529273 1129.45992,101.162727 L1129.45992,101.162727 L1129.45992,89.5029455 L1132.01494,89.5029455 Z M1186.79001,89.0876364 C1191.62816,89.0876364 1195.00959,92.5828546 1194.99998,97.5956363 C1194.99851,98.0314545 1194.97451,98.4667272 1194.92817,98.8998181 L1194.91254,99.0492727 L1180.94479,99.0492727 C1181.00876,103.060727 1183.4222,105.647636 1187.12551,105.647636 C1189.24798,105.647636 1191.08691,104.784182 1192.30335,103.214 L1192.41386,103.070545 L1194.2646,104.72 L1194.16192,104.844182 C1192.93184,106.344363 1190.68924,108.133818 1186.98393,108.133818 C1181.76538,108.133818 1178.25418,104.328 1178.25418,98.6610909 C1178.25418,93.0253455 1181.76738,89.0876364 1186.79001,89.0876364 Z M1066.60685,82.273782 L1045.38169,82.273782 C1044.82208,82.273782 1044.28542,82.4963093 1043.88989,82.8923456 C1043.49437,83.288382 1043.27244,83.8254547 1043.27295,84.3852729 L1043.27295,105.618545 C1043.27295,106.783636 1044.21706,107.728182 1045.38169,107.728182 L1066.61266,107.728182 C1067.77731,107.728182 1068.72149,106.783636 1068.72149,105.618545 L1068.71568,84.3833274 C1068.71568,83.2182547 1067.77149,82.273782 1066.60685,82.273782 Z M1174.94453,89.1555455 C1175.94179,89.1555455 1176.89815,89.4136728 1177.50537,89.8464364 L1177.50537,89.8464364 L1177.61788,89.9202001 L1176.80891,92.2374 L1176.63625,92.1461819 C1175.99722,91.8518546 1175.30076,91.704 1174.59721,91.7134 C1172.19377,91.7134 1169.76669,93.6483637 1169.76669,97.9683636 L1169.76669,97.9683636 L1169.76669,107.710727 L1167.21185,107.710727 L1167.21185,89.4951819 L1169.76669,89.4951819 L1169.76669,91.8240364 C1170.97823,90.1706546 1172.8955,89.182491 1174.94453,89.1555455 Z M1116.38837,91.5736728 C1112.13799,91.5736728 1110.62293,95.1989091 1110.62293,98.5912727 C1110.62293,103.792364 1113.60071,105.645818 1116.38837,105.645818 L1116.39418,105.647636 C1120.04333,105.647636 1122.40243,102.853091 1122.40243,98.5912727 C1122.40243,94.3294546 1120.03952,91.5736728 1116.38837,91.5736728 Z M1160.15238,97.7916363 C1158.90612,98.5790909 1157.13243,98.8867272 1155.55031,99.1610909 L1155.52359,99.1658181 L1154.73008,99.3074545 C1152.1965,99.7770908 1150.91026,100.382545 1150.91026,102.412545 C1150.91026,105.331454 1153.65721,105.647636 1154.83876,105.647636 L1154.84058,105.647636 C1157.40923,105.647636 1160.15818,104.277636 1160.15238,100.427273 L1160.15238,97.7916363 Z M1060.24582,89.518491 C1060.5677,89.5190001 1060.87613,89.6475455 1061.10331,89.8758001 C1061.33032,90.1040728 1061.45736,90.413291 1061.45628,90.7353092 L1061.45628,99.2103636 C1061.45736,99.5323636 1061.33032,99.8416363 1061.10331,100.069818 C1060.87613,100.298182 1060.5677,100.426727 1060.24582,100.427273 L1051.75062,100.423273 C1051.08585,100.418 1050.54977,99.8774545 1050.54977,99.2123636 L1050.54977,90.7353092 C1050.54824,90.4131273 1050.67508,90.1036001 1050.90229,89.8752364 C1051.12947,89.6468728 1051.43826,89.518491 1051.76032,89.518491 L1060.24582,89.518491 Z M1186.72003,91.540691 C1183.59868,91.540691 1181.38516,93.5958182 1181.03984,96.7961818 L1192.29954,96.7961818 C1192.07835,94.2227273 1190.50695,91.540691 1186.72003,91.540691 Z" id="square-logo"></path>
        </g>
    </g>
</svg>