<svg width="130px" height="25px" viewBox="0 0 130 25" version="1.1" xmlns="http://www.w3.org/2000/svg" xmlns:xlink="http://www.w3.org/1999/xlink">
    <!-- Generator: Sketch 63.1 (92452) - https://sketch.com -->
    <title>Shape</title>
    <desc>Created with Sketch.</desc>
    <g id="Our-custumers" stroke="none" stroke-width="1" fill="none" fill-rule="evenodd">
        <g id="Group-7-Copy" transform="translate(-439.000000, -348.000000)" fill="currentColor" fill-rule="nonzero">
            <g id="Group-6">
                <g id="circle-copy-2" transform="translate(418.457958, 302.737179)">
                    <g id="SumoLogic_Logo_SumoBlue_RGB" transform="translate(20.861752, 45.534119)">
                        <path d="M26.5785327,5.30682319 L26.5785327,18.7949988 L23.4174173,18.7949988 L23.4174173,17.3700185 C22.6917313,18.538145 21.3729147,19.2081984 19.4362542,19.2081984 C16.2234645,19.2081984 14.6305499,17.5442324 14.6305499,14.931024 L14.6305499,5.30682319 L18.0814904,5.30682319 L18.0814904,13.9907157 C18.0814904,15.3888938 18.8521106,16.2242271 20.3281965,16.2242271 C22.0536667,16.2242271 23.114112,15.2481827 23.114112,13.4278708 L23.114112,5.30682319 L26.5785327,5.30682319 Z M49.0455934,9.371814 L49.0455934,18.7949988 L45.5879127,18.7949988 L45.5879127,10.4014628 C45.5879127,8.79110107 44.9251344,7.81282302 43.437815,7.81282302 C41.9504956,7.81282302 41.0473198,8.93404575 41.0473198,10.4975038 L41.0473198,18.7949988 L37.5963793,18.7949988 L37.5963793,10.4014628 C37.5963793,8.68389252 36.87968,7.81282302 35.4462816,7.81282302 C33.9252616,7.81729008 33.0557863,8.93404575 33.0557863,10.4975038 L33.0557863,18.7949988 L29.6048458,18.7949988 L29.6048458,5.30682319 L32.8176355,5.30682319 L32.8176355,6.80997639 C33.6129694,5.51677327 34.9138122,4.85788488 36.6932034,4.85788488 C38.4186737,4.85788488 39.7217632,5.57037755 40.4631762,6.83677853 C41.3933125,5.51602877 42.7480763,4.85639839 44.5274675,4.85788488 C47.4054979,4.85788488 49.0410999,6.60002632 49.0410999,9.38074805 L49.0455934,9.371814 Z M76.8058934,18.7949988 L73.3527065,18.7949988 L73.3527065,0.0536042743 L76.8058934,0.0536042743 L76.8058934,18.7949988 Z M114.325885,18.7949988 L110.86371,18.7949988 L110.86371,5.30682319 L114.316898,5.30682319 L114.325885,18.7949988 Z M110.805297,3.28102832 L114.375313,3.28102832 L114.375313,0 L110.805297,0 L110.805297,3.28102832 Z M127.300613,14.2006658 C125.891927,15.7060525 124.910117,16.2867654 123.609274,16.2867654 C122.0568,16.2867654 120.967148,15.3933609 120.463886,14.0130508 L120.463886,10.0709031 C120.980628,8.67049141 122.086008,7.76145228 123.642974,7.76145228 C124.784302,7.76145228 125.712191,8.15678383 127.17255,9.53039337 L129.324894,7.41749154 C127.597178,5.54357541 125.898668,4.85788739 123.642974,4.85788739 C120.468379,4.85788739 118.02621,6.50621884 117.069113,9.28247356 L117.069113,14.8126479 C118.012729,17.5755016 120.416705,19.2171325 123.562094,19.2171325 C126.004263,19.2171325 127.705019,18.4242359 129.590005,16.0902164 L127.300613,14.2006658 Z M7.1153181,10.4975038 C6.16046802,10.2875537 5.49544303,10.1289744 5.12473653,10.0239993 C4.64394143,9.88552165 4.2979487,9.71577481 4.11147209,9.46338801 L4.11147209,8.43150572 C4.42601095,7.93119911 5.19438442,7.62744157 6.23910274,7.62744157 C7.6994617,7.62744157 8.71047941,7.97140238 10.303394,9.21100121 L12.1614199,6.97748975 C10.2764336,5.41403174 8.65655847,4.86458793 6.31998416,4.86458793 C3.62393688,4.86458793 1.75467744,5.96347556 1.01775784,7.51129897 L1.01775784,10.8995358 C1.5951613,12.0475607 2.95441848,12.686345 5.65495916,13.275992 C6.61205594,13.4993432 7.27483423,13.6467549 7.64778745,13.7226943 C8.15329627,13.8678726 8.60039084,14.0845232 8.8318015,14.4351845 L8.8318015,15.6189455 C8.49479565,16.1572218 7.67924134,16.4408777 6.63676971,16.4408777 C5.88106557,16.4566539 5.13060112,16.3127715 4.43499777,16.0187441 C3.76098595,15.7551897 2.97463883,15.2280811 1.99058157,14.4351845 L0,16.6552948 C2.15009771,18.5560131 3.98340985,19.2081984 6.558135,19.2081984 C9.32832356,19.2081984 11.2762177,18.1673821 12.0243708,16.4922485 L12.0243708,13.0548744 C11.3975398,11.7817729 9.8855067,11.1161864 7.1153181,10.4975038 Z M58.1155458,4.83778579 C54.9926243,4.83778579 52.5437147,6.51068586 51.5439305,9.18419906 L51.5439305,14.8617852 C52.5437147,17.5419989 54.9926243,19.2059649 58.1155458,19.2059649 C61.2384672,19.2059649 63.6604163,17.5352984 64.6602005,14.8640186 L64.6602005,9.18866612 C63.6514295,6.5173864 61.2070133,4.84448632 58.1065589,4.84448632 L58.1155458,4.83778579 Z M61.3103618,14.0264519 C60.7644122,15.4603663 59.6163454,16.3046335 58.1065589,16.3046335 C56.5967724,16.3046335 55.4217452,15.4625998 54.8825357,14.0353859 L54.8825357,10.0508015 C55.4217452,8.62805472 56.5743054,7.75921878 58.1065589,7.75921878 C59.6388124,7.75921878 60.7644122,8.61912067 61.301375,10.0508015 L61.3103618,14.0264519 Z M86.0713091,4.84448632 C82.948388,4.84448632 80.4994784,6.5173864 79.4974473,9.19089962 L79.4974473,14.8617852 C80.4994784,17.5352984 82.948388,19.2081984 86.0713091,19.2081984 C89.1942309,19.2081984 91.6161798,17.5375319 92.615964,14.8662522 L92.615964,9.18866612 C91.6161798,6.5173864 89.1717633,4.84448632 86.0713091,4.84448632 Z M89.2661255,14.0331524 C88.7291623,15.4603663 87.5810959,16.3046335 86.0713091,16.3046335 C84.5615231,16.3046335 83.3752621,15.4625998 82.8472858,14.0353859 L82.8472858,10.0508015 C83.3864952,8.62805472 84.5390555,7.75921878 86.0713091,7.75921878 C87.6035628,7.75921878 88.7291623,8.61912067 89.2661255,10.0508015 L89.2661255,14.0331524 Z M104.651568,5.30682319 L104.651568,6.80997639 C103.775353,5.51677327 102.404862,4.85788739 100.510889,4.85788739 C97.9473973,4.85788739 95.873688,6.4213454 94.992979,8.89607605 L94.992979,14.4508191 C95.873688,16.9255497 97.9473973,18.4711397 100.510889,18.4711397 C102.236359,18.4711397 103.537202,17.8904267 104.467338,16.7558029 L104.467338,17.8368224 C104.467338,20.0703339 103.164249,21.1111502 101.146707,21.1111502 C99.6346738,21.1111502 98.4124659,20.6644479 96.4286243,19.5007884 L94.7548285,21.9822196 C96.6622077,23.2602112 98.9072468,23.9487289 101.207368,23.9611107 C105.026768,23.9611107 107.844138,21.9286154 107.844138,18.1271789 L107.844138,5.30682319 L104.651568,5.30682319 Z M104.233681,13.5060437 C103.710198,14.7858457 102.627287,15.5742753 101.279263,15.5742753 C99.9312389,15.5742753 98.855067,14.7858457 98.3428176,13.5082772 L98.3428176,9.82745035 C98.8505732,8.55658238 99.915512,7.78155387 101.279263,7.78155387 C102.643013,7.78155387 103.710198,8.55658238 104.233681,9.82745035 L104.233681,13.5060437 Z" id="Shape"></path>
                    </g>
                </g>
            </g>
        </g>
    </g>
</svg>