<svg width="163px" height="40px" viewBox="0 0 163 40" version="1.1" xmlns="http://www.w3.org/2000/svg" xmlns:xlink="http://www.w3.org/1999/xlink">
    <title>zynga</title>
    <g id="Homepage" stroke="none" stroke-width="1" fill="none" fill-rule="evenodd">
        <g id="Artboard" transform="translate(-1226.000000, -259.000000)" fill="currentColor" fill-rule="nonzero">
            <path d="M1339.31565,278.144847 C1339.35111,268.581969 1346.45049,265.723894 1350.12278,265.971057 C1352.42602,266.126033 1354.87965,267.452791 1354.87965,267.452791 L1354.87965,267.452791 L1354.87965,266.429754 L1361.10485,266.429754 L1361.10499,283.802128 C1361.10524,283.99057 1361.10581,284.182403 1361.10628,284.377216 L1361.10652,285.171386 C1361.10534,285.575442 1361.10146,285.989227 1361.09147,286.409452 L1361.07932,286.831702 C1360.89883,292.133624 1359.58733,298.27071 1350.50727,298.823099 C1347.05318,298.953504 1343.8074,298.993893 1343.32849,298.999336 L1343.26788,299 L1343.30344,293.601026 L1349.80842,293.601026 C1352.18649,293.601026 1354.87965,292.718514 1354.87965,287.813368 C1352.53616,289.789927 1350.1576,289.966081 1348.79373,289.966081 C1346.59026,289.966081 1339.27802,288.55436 1339.31565,278.144847 Z M1314.90909,265.956522 L1302.04843,298.130435 L1295.29852,298.130435 L1299.41935,288.978321 L1290.50267,265.991838 L1297.2882,265.991838 L1302.79443,280.358202 L1308.62073,265.956522 L1314.90909,265.956522 Z M1251.94092,259.149495 C1251.94092,259.149495 1254.5725,258.899569 1256.63488,260.256889 C1257.38159,260.221077 1257.98595,260.543131 1258.37713,261.257351 C1258.76857,261.971822 1259.47938,263.685747 1258.91068,264.721517 C1258.73316,264.936135 1258.34148,264.078669 1258.34148,264.078669 C1258.34148,264.078669 1258.057,265.11469 1257.52345,265.507612 C1257.59476,267.650775 1256.74159,269.150585 1256.49252,269.65069 C1256.38581,269.936932 1256.45661,270.186607 1256.56332,270.472597 C1256.67003,270.758335 1258.09266,275.794187 1258.02185,277.473057 C1257.95079,279.151927 1257.09737,281.152599 1256.42146,281.83025 C1256.56332,283.223129 1255.92357,284.402398 1255.60319,284.974126 C1255.28356,285.545351 1254.5725,287.688513 1254.39448,288.688471 C1254.21672,289.688933 1254.14566,290.760514 1254.35883,291.081812 C1254.5725,291.402858 1255.53263,292.403572 1255.46133,292.903425 C1255.39002,293.403278 1254.35883,293.975006 1253.86119,293.975006 C1253.36329,293.975006 1252.33185,293.653961 1252.08303,292.974544 C1251.83421,292.296137 1251.7983,291.117876 1251.97632,290.438964 C1252.15409,289.760052 1253.36329,284.795824 1252.65198,281.866566 C1250.90948,282.652157 1247.99342,282.616849 1247.99342,282.616849 C1247.99342,282.616849 1247.94201,282.886216 1247.85215,283.3016 L1247.78669,283.598802 C1247.58591,284.494494 1247.25825,285.813363 1246.89117,286.724115 C1246.75763,286.947309 1246.72158,287.979796 1246.71332,289.097744 L1246.71133,289.547765 L1246.71133,289.547765 L1246.71174,290.21737 C1246.71241,290.509236 1246.71341,290.790021 1246.71341,291.046 C1246.71341,292.582379 1247.24696,294.974964 1247.24696,294.974964 C1247.24696,294.974964 1247.99367,295.510881 1247.88696,296.189288 C1247.78025,296.867696 1246.92683,297.26087 1246.18011,297.26087 C1245.43315,297.26087 1244.43786,296.689141 1244.43786,295.760555 C1244.43786,294.832221 1244.57947,292.725122 1244.50866,291.188996 C1244.43786,289.652869 1244.47376,288.652911 1244.22444,287.688513 C1243.97537,286.724115 1243.26431,284.188031 1243.19325,282.223676 C1242.94443,282.223676 1242.69561,282.044868 1242.69561,282.044868 C1242.69561,282.044868 1242.12781,282.701841 1241.50681,283.366205 L1241.27244,283.614419 C1241.07674,283.819439 1240.88211,284.017251 1240.70428,284.188031 C1240.81099,284.723696 1241.09547,285.688094 1241.09547,285.90246 C1241.09547,286.116827 1241.30939,286.295634 1241.66467,286.438377 C1242.0202,286.581372 1243.12194,287.188408 1243.08654,287.795697 C1243.05114,288.402985 1241.66392,288.510168 1240.45496,287.974504 C1240.17074,287.831761 1239.14005,284.36709 1238.99718,283.902545 C1238.85457,283.437495 1238.74786,283.188074 1238.92588,282.794648 C1239.10364,282.401978 1239.60179,281.116282 1239.53048,280.365999 C1239.45917,279.615968 1238.0727,278.437455 1237.14772,278.437455 C1236.43666,278.437455 1235.34948,279.528456 1234.55204,280.151884 C1233.59191,280.902168 1232.48966,282.044616 1232.20519,282.223423 C1232.05393,282.318415 1231.35072,283.512085 1230.66075,284.786978 L1230.4187,285.238655 C1229.89943,286.217418 1229.42678,287.173679 1229.25348,287.652449 C1229.07596,288.116742 1228.72043,290.438712 1226.83582,290.367088 C1225.98239,290.295465 1225.19977,289.367131 1227.61768,287.688261 C1228.23158,286.268145 1229.08525,284.794311 1229.13848,284.499746 C1229.19171,284.204928 1229.83197,280.53497 1230.89881,277.052898 C1231.96566,273.57007 1233.53918,271.909106 1233.83244,271.668007 C1234.07248,271.480877 1234.2058,271.373442 1233.96577,271.239778 C1233.72573,271.105861 1231.19208,268.935714 1231.67214,264.328343 C1231.75224,263.792678 1231.99202,263.926594 1232.15221,265.158825 C1232.31215,266.391055 1233.29865,269.283997 1235.48556,270.195181 C1235.69923,270.27538 1237.27251,269.070134 1245.30032,268.480752 C1245.35355,267.060888 1245.56697,265.560825 1245.56697,265.560825 C1245.56697,265.560825 1245.00681,265.132344 1244.92697,264.274877 C1244.66032,264.703611 1244.50013,264.810794 1244.15338,264.757076 C1243.80664,264.703358 1243.83326,263.042395 1243.91335,261.86363 C1243.99345,260.684865 1245.35355,260.176186 1245.86023,260.12272 C1246.52685,259.774185 1247.24696,259.828155 1247.24696,259.828155 L1247.2599,259.815806 C1247.39904,259.687411 1248.67769,258.611873 1251.94092,259.149495 Z M1374.16406,265.956522 C1378.5295,265.956522 1382.30118,268.156056 1382.30118,273.369527 L1382.30118,273.369527 L1382.30196,284.023024 C1382.31341,285.505043 1382.48421,286.470414 1384.95536,285.818698 C1385.08629,286.749738 1385.33471,288.637971 1385.45073,289.523898 L1385.48006,289.748054 C1385.50114,289.909301 1385.51337,290.003149 1385.51337,290.003149 C1385.51337,290.003149 1383.3489,291.173913 1381.39278,291.173913 C1379.43692,291.173913 1378.03955,289.968339 1377.34149,288.726702 C1375.52568,290.109832 1373.15087,291.173913 1370.95064,291.173913 C1368.75116,291.173913 1363.72193,289.400862 1363.72193,284.044646 C1363.72193,278.689181 1368.05284,275.56781 1376.15445,275.426066 C1376.15445,274.220491 1377.02734,271.276676 1373.25567,271.276676 C1370.44884,271.276676 1367.6035,272.749861 1366.33142,273.503584 L1366.11174,273.63594 C1365.81105,273.820222 1365.64278,273.936753 1365.64278,273.936753 L1365.64278,273.936753 L1365.64278,268.048872 C1365.64278,268.048872 1369.79862,265.956522 1374.16406,265.956522 Z M1289.38221,265.956522 L1277.76662,285.040855 L1289.63102,285.040855 L1289.63102,290.304348 L1266.96791,290.304348 L1279.04525,271.255661 L1266.96791,271.255661 L1266.96791,265.956522 L1289.38221,265.956522 Z M1328.73704,265.956522 C1333.02011,265.956522 1335.82888,269.454825 1335.82888,273.302885 L1335.82888,290.304348 L1329.57893,290.304348 L1329.57893,274.002397 C1329.57893,270.36429 1325.40097,270.714293 1321.99525,275.576547 L1321.99525,290.304348 L1315.78075,290.304348 L1315.80182,266.481156 L1322.0307,266.481156 L1322.0307,268.510039 C1322.0307,268.510039 1324.45348,265.956522 1328.73704,265.956522 Z M1376.11993,280.073062 C1370.18354,279.860446 1369.90342,282.946005 1369.90342,283.477921 C1369.90342,284.010086 1370.18304,285.606083 1372.27847,285.606083 C1374.37366,285.606083 1376.11993,284.010086 1376.11993,284.010086 L1376.11993,284.010086 Z M1350.3675,271.193379 C1346.4858,271.193379 1345.75139,275.815981 1345.75139,278.32125 C1345.75139,280.82652 1346.10082,284.17942 1349.52864,284.17942 C1352.95621,284.17942 1354.87965,281.355977 1354.87965,281.355977 L1354.87941,281.355977 L1354.87941,273.2402 C1354.87941,273.2402 1353.13031,271.193379 1350.3675,271.193379 Z M1386.82122,265.956522 C1388.02384,265.956522 1388.99928,266.929541 1389,268.130435 C1388.99928,269.331568 1388.02384,270.304348 1386.82122,270.304348 C1385.61763,270.304348 1384.64267,269.331329 1384.64171,268.130435 C1384.64267,266.929541 1385.61763,265.956522 1386.82122,265.956522 Z M1386.82122,266.302644 C1385.80974,266.303435 1384.98991,267.121224 1384.98885,268.130435 C1384.99017,269.139536 1385.80985,269.957171 1386.82122,269.958226 C1387.32043,269.95764 1387.7729,269.758052 1388.10323,269.434695 L1387.79896,269.434783 L1387.53787,268.891733 C1387.47846,268.768621 1387.41531,268.648717 1387.34857,268.532313 C1387.29893,268.449558 1387.25463,268.391683 1387.21546,268.357878 C1387.17905,268.326056 1387.13884,268.302558 1387.0965,268.288374 C1387.04842,268.278431 1386.99975,268.274267 1386.95109,268.275933 L1386.64734,268.275933 L1386.64734,269.434512 L1386.38503,269.434512 L1386.38503,266.826087 L1387.26161,266.826087 C1387.43799,266.826087 1387.57233,266.850156 1387.6638,266.896673 C1387.75548,266.943459 1387.82911,267.026215 1387.88387,267.144669 C1387.93904,267.263123 1387.96611,267.394288 1387.96611,267.538164 C1387.96611,267.723147 1387.92037,267.879193 1387.82993,268.00576 C1387.73928,268.133139 1387.59919,268.213731 1387.40887,268.248078 C1387.47798,268.29243 1387.5311,268.335431 1387.56699,268.378161 C1387.64329,268.470382 1387.71548,268.586402 1387.78358,268.724869 L1388.12066,269.417409 C1388.44921,269.087116 1388.65234,268.632451 1388.65286,268.130435 C1388.65194,267.12145 1387.83246,266.303699 1386.82122,266.302644 Z M1387.27289,267.11465 L1386.64714,267.11465 L1386.64714,267.977364 L1387.2089,267.977364 C1387.32867,267.977364 1387.4222,267.960596 1387.49008,267.927602 C1387.553,267.899627 1387.607,267.844695 1387.6435,267.771557 C1387.67816,267.699619 1387.696,267.621461 1387.696,267.537623 C1387.696,267.414031 1387.66236,267.312885 1387.59427,267.233375 C1387.5268,267.153864 1387.41912,267.11465 1387.27289,267.11465 Z" id="zynga"></path>
        </g>
    </g>
</svg>