<?xml version="1.0" encoding="UTF-8"?>
<svg width="91px" height="103px" viewBox="0 0 91 103" version="1.1" xmlns="http://www.w3.org/2000/svg" xmlns:xlink="http://www.w3.org/1999/xlink">
    <title>aws-rds</title>
    <g id="Page-1" stroke="none" stroke-width="1" fill="none" fill-rule="evenodd">
        <g id="aws-rds" transform="translate(0.199141, 0.801922)" fill-rule="nonzero">
            <polyline id="Path" fill="#1A476F" points="-0.19914149 79.7435889 10.8108686 92.1980778 11.8008585 91.0630794 11.8008585 11.401864 10.8108686 10.1980778 -0.19914149 22.6479571 -0.19914149 79.7435889"></polyline>
            <polyline id="Path" fill="#1F5B98" points="10.8008585 92.0747988 30.9491221 102.198078 31.7871378 100.84291 31.8008585 1.25873637 30.9631945 0.198077787 10.8008585 10.28883 10.8008585 92.0747988"></polyline>
            <polyline id="Path" fill="#2D72B8" points="90.8008585 22.6479571 80.0079506 10.1980778 78.8008585 10.5746377 79.0406209 91.1815078 80.0079506 92.1980778 90.8008585 79.7450072 90.8008585 22.6479571"></polyline>
            <polyline id="Path" fill="#5294CF" points="59.7630378 102.198078 79.8008585 92.0747988 79.8008585 10.28883 59.7490424 0.198077787 58.8008585 1.49455612 58.814504 100.724823 59.7630378 102.198078"></polyline>
            <polygon id="Path" fill="#2D72B8" points="30.8008585 0.198077787 59.8008585 0.198077787 59.8008585 102.198078 30.8008585 102.198078"></polygon>
        </g>
    </g>
</svg>