<?xml version="1.0" encoding="UTF-8"?>
<svg width="102px" height="61px" viewBox="0 0 102 61" version="1.1" xmlns="http://www.w3.org/2000/svg" xmlns:xlink="http://www.w3.org/1999/xlink">
    <title>aws-2</title>
    <g id="Page-1" stroke="none" stroke-width="1" fill="none" fill-rule="evenodd">
        <g id="aws-2" transform="translate(0.757272, 0.169997)">
            <path d="M28.3602047,21.3651089 C28.3602047,22.5853217 28.4936347,23.5746834 28.7271373,24.3002153 C28.9939973,25.0257472 29.3275724,25.8172366 29.7945774,26.6746834 C29.961365,26.9385132 30.02808,27.2023429 30.02808,27.433194 C30.02808,27.7629812 29.8279349,28.0927685 29.3942874,28.4225557 L27.2927645,29.8076621 C26.992547,30.0055344 26.6923294,30.1044706 26.4254694,30.1044706 C26.0918943,30.1044706 25.7583193,29.939577 25.4247442,29.6427685 C24.9577391,29.1480876 24.5574491,28.6204281 24.223874,28.0927685 C23.890299,27.5321302 23.5567239,26.9055344 23.1897914,26.1470238 C20.5879059,29.1810664 17.3188704,30.6980876 13.3826848,30.6980876 C10.5806543,30.6980876 8.34570144,29.9065983 6.71118367,28.3236195 C5.07666591,26.7406408 4.24272827,24.6300025 4.24272827,21.9917047 C4.24272827,19.1885132 5.24345343,16.9129812 7.27826127,15.1980876 C9.3130691,13.483194 12.015027,12.6257472 15.4508501,12.6257472 C16.5850053,12.6257472 17.752518,12.7246834 18.9867457,12.889577 C20.2209734,13.0544706 21.4885586,13.3183004 22.8228588,13.6151089 L22.8228588,11.2076621 C22.8228588,8.70127912 22.2891387,6.95340678 21.255056,5.93106635 C20.1876159,4.90872593 18.3863106,4.41404508 15.8177827,4.41404508 C14.65027,4.41404508 13.4493998,4.54595997 12.2151721,4.84276848 C10.9809444,5.13957699 9.78007417,5.50234295 8.61256148,5.96404508 C8.0788414,6.19489614 7.67855133,6.32681103 7.44504879,6.39276848 C7.21154626,6.45872593 7.04475873,6.49170465 6.91132871,6.49170465 C6.44432363,6.49170465 6.21082109,6.16191742 6.21082109,5.46936423 L6.21082109,3.85340678 C6.21082109,3.3257472 6.2775361,2.93000252 6.44432363,2.69915146 C6.61111116,2.4683004 6.91132871,2.23744933 7.37833378,2.00659827 C8.54584647,1.41298125 9.9468617,0.918300396 11.5813795,0.522555715 C13.2158972,0.093832311 14.9504875,-0.104040029 16.7851503,-0.104040029 C20.7546935,-0.104040029 23.6567964,0.786385502 25.5248167,2.56723657 C27.3594795,4.34808763 28.2934897,7.05234295 28.2934897,10.6800025 L28.2934897,21.3651089 L28.3602047,21.3651089 Z M14.8170575,26.3778749 C15.9178552,26.3778749 17.0520104,26.1800025 18.2528806,25.7842578 C19.4537508,25.3885132 20.5211909,24.6629812 21.4218436,23.6736195 C21.9555637,23.0470238 22.3558537,22.3544706 22.5559988,21.5629812 C22.7561438,20.7714919 22.8895738,19.8151089 22.8895738,18.6938323 L22.8895738,17.3087259 C21.9222062,17.0778749 20.8881235,16.8800025 19.8206833,16.7480876 C18.7532431,16.6161727 17.7191605,16.5502153 16.6850778,16.5502153 C14.4501249,16.5502153 12.8156072,16.9789387 11.7148095,17.8693642 C10.6140118,18.7597898 10.0802917,20.0129812 10.0802917,21.6619174 C10.0802917,23.2119174 10.4805818,24.3661727 11.3145194,25.1576621 C12.1150996,25.9821302 13.2826122,26.3778749 14.8170575,26.3778749 L14.8170575,26.3778749 Z M41.6031344,29.939577 C41.0026993,29.939577 40.6024092,29.8406408 40.3355492,29.6097898 C40.0686891,29.4119174 39.8351866,28.9502153 39.6350415,28.3236195 L31.7960278,2.83106635 C31.5958827,2.17149189 31.4958102,1.74276848 31.4958102,1.51191742 C31.4958102,0.984257843 31.7626703,0.687449332 32.2963903,0.687449332 L35.5654259,0.687449332 C36.1992185,0.687449332 36.6328661,0.786385502 36.8663686,1.01723657 C37.1332286,1.21510891 37.3333737,1.67681103 37.5335187,2.30340678 L43.1375796,24.1353217 L48.3413505,2.30340678 C48.508138,1.64383231 48.708283,1.21510891 48.9751431,1.01723657 C49.2420031,0.819364226 49.7090082,0.687449332 50.3094433,0.687449332 L52.9780437,0.687449332 C53.6118363,0.687449332 54.0454839,0.786385502 54.3123439,1.01723657 C54.579204,1.21510891 54.8127065,1.67681103 54.9461365,2.30340678 L60.2166224,24.3991515 L65.9874708,2.30340678 C66.1876159,1.64383231 66.4211184,1.21510891 66.6546209,1.01723657 C66.921481,0.819364226 67.3551286,0.687449332 67.9555637,0.687449332 L71.0578117,0.687449332 C71.5915318,0.687449332 71.8917493,0.951279119 71.8917493,1.51191742 C71.8917493,1.67681103 71.8583918,1.84170465 71.8250343,2.03957699 C71.7916768,2.23744933 71.7249618,2.50127912 71.5915318,2.86404508 L63.5523729,28.3565983 C63.3522279,29.0161727 63.1187254,29.4448961 62.8518653,29.6427685 C62.5850053,29.8406408 62.1513577,29.9725557 61.5842801,29.9725557 L58.7155347,29.9725557 C58.081742,29.9725557 57.6480945,29.8736195 57.3812344,29.6427685 C57.1143744,29.4119174 56.8808719,28.983194 56.7474418,28.3236195 L51.5770285,7.05234295 L46.4399727,28.2906408 C46.2731851,28.9502153 46.0730401,29.3789387 45.80618,29.6097898 C45.53932,29.8406408 45.0723149,29.939577 44.4718798,29.939577 L41.6031344,29.939577 Z M84.4675289,30.8300025 C82.7329386,30.8300025 80.9983483,30.6321302 79.330473,30.2363855 C77.6625977,29.8406408 76.361655,29.4119174 75.4943599,28.9172366 C74.9606398,28.6204281 74.5937072,28.2906408 74.4602772,27.9938323 C74.3268472,27.6970238 74.2601322,27.3672366 74.2601322,27.0704281 L74.2601322,25.3885132 C74.2601322,24.69596 74.5269922,24.3661727 75.0273548,24.3661727 C75.2274998,24.3661727 75.4276449,24.3991515 75.6277899,24.4651089 C75.8279349,24.5310664 76.1281525,24.6629812 76.4617275,24.7948961 C77.5958827,25.289577 78.8301104,25.6853217 80.1310531,25.9491515 C81.4653534,26.2129812 82.7662961,26.3448961 84.1005963,26.3448961 C86.2021191,26.3448961 87.8366369,25.9821302 88.9707921,25.2565983 C90.1049473,24.5310664 90.7053824,23.4757472 90.7053824,22.1236195 C90.7053824,21.2002153 90.4051648,20.4417047 89.8047297,19.8151089 C89.2042946,19.1885132 88.0701394,18.6278749 86.4356217,18.1002153 L81.5987834,16.6161727 C79.1636855,15.8576621 77.3623802,14.7363855 76.2615825,13.2523429 C75.1607848,11.8012791 74.5937072,10.1853217 74.5937072,8.47042806 C74.5937072,7.08532167 74.8939248,5.86510891 75.4943599,4.80978976 C76.094795,3.75447061 76.8953751,2.83106635 77.8961003,2.10553444 C78.8968254,1.3470238 80.0309806,0.786385502 81.3652808,0.390640822 C82.6995811,-0.00510385925 84.1005963,-0.169997476 85.5683265,-0.169997476 C86.3021917,-0.169997476 87.0694143,-0.137018753 87.8032794,-0.0380825827 C88.570502,0.0608535876 89.2710096,0.192768481 89.9715172,0.324683375 C90.6386674,0.489576992 91.27246,0.654470609 91.8728951,0.852342949 C92.4733302,1.05021529 92.9403352,1.24808763 93.2739103,1.44595997 C93.7409154,1.70978976 94.0744904,1.97361955 94.2746355,2.27042806 C94.4747805,2.53425784 94.574853,2.8970238 94.574853,3.35872593 L94.574853,4.90872593 C94.574853,5.60127912 94.307993,5.96404508 93.8076304,5.96404508 C93.5407703,5.96404508 93.1071228,5.83213018 92.5400452,5.5683004 C90.6386674,4.71085359 88.503787,4.28213018 86.1354041,4.28213018 C84.2340263,4.28213018 82.7329386,4.57893869 81.6988559,5.20553444 C80.6647732,5.83213018 80.1310531,6.78851316 80.1310531,8.14064082 C80.1310531,9.06404508 80.4646282,9.85553444 81.1317783,10.4821302 C81.7989284,11.1087259 83.0331561,11.7353217 84.8011039,12.29596 L89.5378697,13.7800025 C91.9396101,14.5385132 93.6742004,15.5938323 94.708283,16.94596 C95.7423657,18.2980876 96.2427283,19.8480876 96.2427283,21.5629812 C96.2427283,22.9810664 95.9425107,24.2672366 95.3754331,25.3885132 C94.774998,26.5097898 93.9744179,27.4991515 92.9403352,28.2906408 C91.9062526,29.1151089 90.6720249,29.7087259 89.2376521,30.1374493 C87.7365644,30.5991515 86.1687616,30.8300025 84.4675289,30.8300025 L84.4675289,30.8300025 Z" id="Shape" fill="#252F3E" fill-rule="nonzero"></path>
            <g id="Group" transform="translate(0.242728, 37.830003)" fill="#FF9900">
                <path d="M91.3125564,10.363338 C80.2609403,18.6179317 64.2041849,23 50.3980626,23 C31.0493365,23 13.6153281,15.7644919 0.44744502,3.73928126 C-0.593892671,2.78813466 0.346670405,1.49729284 1.58955733,2.24462231 C15.8323696,10.6011246 33.4007442,15.6625833 51.5737665,15.6625833 C63.834678,15.6625833 77.3048849,13.0808997 89.7001626,7.78165433 C91.5476972,6.93241629 93.1264995,9.00455711 91.3125564,10.363338 L91.3125564,10.363338 Z" id="Path"></path>
                <path d="M95.9145972,5.0640926 C94.5037526,3.22973844 86.5761495,4.18088504 82.9818549,4.62248882 C81.9069257,4.75836691 81.738968,3.8072203 82.7131226,3.09386035 C89.0283318,-1.3901165 99.4081172,-0.0992746786 100.617413,1.39538427 C101.826708,2.92401274 100.281497,13.4205949 94.3693864,18.4480841 C93.4624149,19.2293831 92.5890349,18.8217488 92.9921334,17.8026632 C94.3357949,14.4396806 97.3254418,6.86447725 95.9145972,5.0640926 L95.9145972,5.0640926 Z" id="Path"></path>
            </g>
        </g>
    </g>
</svg>