<?xml version="1.0" encoding="UTF-8"?>
<svg width="102px" height="103px" viewBox="0 0 102 103" version="1.1" xmlns="http://www.w3.org/2000/svg" xmlns:xlink="http://www.w3.org/1999/xlink">
    <title>cockroachdb</title>
    <g id="Page-1" stroke="none" stroke-width="1" fill="none" fill-rule="evenodd">
        <g id="cockroachdb" transform="translate(0.146914, 0.801538)" fill-rule="nonzero">
            <path d="M62.112474,29.4257786 C58.4262897,30.2787496 54.6536507,30.7065316 50.8691025,30.7007314 C47.0846655,30.7045617 43.3122525,30.2768052 39.6257311,29.4257786 C42.6399038,24.6702213 46.4413982,20.4566684 50.8691025,16.9636953 C55.2934329,20.4602358 59.094374,24.6731754 62.112474,29.4257786 L62.112474,29.4257786 Z M96.0027503,2.01556989 C91.3926884,0.80506928 86.6443469,0.1944048 81.8764631,0.19865161 C70.8393849,0.188305487 60.0476374,3.43849351 50.8691025,9.53744111 C41.6922341,3.43498467 30.8993892,0.184466119 19.861742,0.19865161 C15.0616977,0.186110548 10.2805149,0.796843961 5.63935764,2.01556989 C3.69509177,2.49998036 1.78062566,3.09592666 -0.0944414698,3.80042069 C-0.164404383,3.88336732 -0.164404383,4.00432508 -0.0944414698,4.08727171 C0.70520624,5.79939702 1.59260208,7.46957747 2.5642475,9.09122841 C2.64125273,9.14458004 2.74350145,9.14458004 2.82050668,9.09122841 C4.71826986,8.40710699 6.65410488,7.83245095 8.61837058,7.37012229 C21.3061239,4.49763984 34.619274,6.64635917 45.743919,13.3621214 C40.9305928,17.4113853 36.8372337,22.2385322 33.6356728,27.6409278 C32.9950249,28.6608425 32.4504741,29.7126296 31.873891,30.8281614 C31.2973078,31.9436931 31.1691782,32.2624165 30.8168219,33.0273525 C30.4644655,33.7922886 29.8238176,35.3221607 29.4073964,36.4695648 C21.6245524,57.2851523 27.0259816,80.7121941 43.1492948,96.0708325 C43.9821371,96.8676409 44.8470119,97.6325769 45.743919,98.397513 C46.6408261,99.1624491 47.1533445,99.5767894 47.8900896,100.118619 C48.6268347,100.660449 49.780001,101.521002 50.740973,102.158449 C50.8179782,102.2118 50.9202269,102.2118 50.9972321,102.158449 C51.958204,101.48913 52.919176,100.819811 53.8481155,100.118619 C54.777055,99.4174277 55.2895734,99.0030874 55.9942861,98.397513 C56.6989988,97.7919386 57.756068,96.8676409 58.5889103,96.0708325 C69.603477,85.5742069 75.8290811,71.0551382 75.82234,55.8798172 C75.8338483,49.2540919 74.6512939,42.6799909 72.3308087,36.4695648 C71.8823551,35.2902883 71.4018692,34.1428843 70.8893508,32.9954802 C70.3768325,31.8480761 70.1846381,31.4974804 69.8322817,30.796289 C69.4799253,30.0950976 68.7111478,28.6927149 68.0704999,27.6090554 C64.8644659,22.2098175 60.7716989,17.383369 55.9622537,13.3302491 C67.1132464,6.64972466 80.4384938,4.5466264 93.1198345,7.46573929 C95.0845848,7.92626184 97.0205244,8.50094894 98.9176984,9.18684542 C98.9947036,9.24019705 99.0969524,9.24019705 99.1739576,9.18684542 C100.113575,7.57198041 100.989127,5.91461896 101.800614,4.21476105 C101.870577,4.13181442 101.870577,4.01085666 101.800614,3.92791003 C99.9057279,3.18233541 97.9700225,2.54387146 96.0027503,2.01556989 Z" id="Shape" fill="#151F34"></path>
            <path d="M69.8530863,56.1184363 C69.8724754,68.7952735 64.97458,80.9952951 56.1710529,90.1984623 C54.6392449,85.3702283 53.8576835,80.3394085 53.8530863,75.2784884 C53.8304192,62.6010284 58.7287833,50.3998391 67.535141,41.1984623 C69.0689042,46.0262459 69.8505119,51.0573639 69.8530863,56.1184363" id="Path" fill="#348540"></path>
            <path d="M47.8530863,75.2784884 C47.854018,80.3398282 47.0729835,85.3714739 45.5370624,90.1984623 C33.0503466,77.1232033 28.7031943,58.3633056 34.1824982,41.1984623 C42.9814755,50.3998391 47.8757345,62.6010284 47.8530863,75.2784884" id="Path" fill="#7DBC42"></path>
        </g>
    </g>
</svg>