<?xml version="1.0" encoding="UTF-8"?>
<svg width="98px" height="80px" viewBox="0 0 98 80" version="1.1" xmlns="http://www.w3.org/2000/svg" xmlns:xlink="http://www.w3.org/1999/xlink">
    <title>google-cloud-1</title>
    <g id="Page-1" stroke="none" stroke-width="1" fill="none" fill-rule="evenodd">
        <g id="google-cloud-1" transform="translate(0.201095, 0.803809)" fill-rule="nonzero">
            <path d="M61.9255204,21.712616 L64.9020437,21.712616 L73.3818644,13.2713511 L73.7989047,9.6897151 C58.0208778,-4.17284429 33.9347528,-2.67913927 20.0088757,13.0271487 C16.1369422,17.3902325 13.3280527,22.5795347 11.7989047,28.1961912 C12.7433785,27.8095373 13.790068,27.7484867 14.7754281,28.0171094 L31.7309807,25.2332014 C31.7309807,25.2332014 32.5936818,23.8127571 33.0393426,23.902298 C40.5828667,15.6563951 53.2780659,14.6958654 61.9868499,21.712616 L61.9255204,21.712616 Z" id="Path" fill="#EA4335"></path>
            <path d="M85.6975045,27.7771397 C83.7495116,20.5944162 79.7555136,14.1361042 74.197404,9.19619118 L62.3134223,21.1060062 C67.3324648,25.215097 70.1911545,31.4073823 70.0686392,37.9025289 L70.0686392,40.0184651 C75.9126178,40.0184651 80.6457913,44.7660202 80.6457913,50.6186097 C80.6457913,56.475292 75.908534,61.2187544 70.0686392,61.2187544 L48.9102513,61.2187544 L46.7989047,63.3633397 L46.7989047,76.0794205 L48.9102513,78.1953567 L70.0686392,78.1953567 C82.1976514,78.2894893 92.9585764,70.4110034 96.5605255,58.8040496 C100.154307,47.1930032 95.743757,34.5874257 85.6975045,27.7771397 L85.6975045,27.7771397 Z" id="Path" fill="#4285F4"></path>
            <path d="M27.5124954,78.1959604 L48.7989047,78.1959604 L48.7989047,61.1537132 L27.5124954,61.1537132 C25.9964396,61.1537132 24.496818,60.8290598 23.1163444,60.1961912 L20.1253184,61.1208369 L11.5466612,69.6440153 L10.7989047,72.6357577 C15.6100194,76.2685879 21.4811406,78.2206176 27.5124954,78.1959604 L27.5124954,78.1959604 Z" id="Path" fill="#34A853"></path>
            <path d="M26.9940954,23.1961912 C15.3080169,23.2653109 4.95783832,30.7422707 1.23031226,41.8055748 C-2.49721381,52.8688789 1.2181308,65.0803 10.4800992,72.1961912 L22.6818593,60.0050549 C17.3869857,57.615511 15.0359644,51.3921489 17.4275906,46.1018854 C19.8192168,40.8116219 26.0480022,38.4626476 31.3428758,40.8521914 C33.6735947,41.9069986 35.5414182,43.7731958 36.5971446,46.1018854 L48.7989047,33.9107491 C43.6055432,27.1315848 35.5373577,23.1679441 26.9940954,23.1961912 L26.9940954,23.1961912 Z" id="Path" fill="#FBBC05"></path>
        </g>
    </g>
</svg>