<?xml version="1.0" encoding="UTF-8"?>
<svg width="103px" height="95px" viewBox="0 0 103 95" version="1.1" xmlns="http://www.w3.org/2000/svg" xmlns:xlink="http://www.w3.org/1999/xlink">
    <title>gitlab</title>
    <g id="Page-1" stroke="none" stroke-width="1" fill="none" fill-rule="evenodd">
        <g id="gitlab" transform="translate(0.264475, 0.969554)" fill-rule="nonzero">
            <polygon id="Path" fill="#E24329" points="51.2357209 94.030446 69.7355246 36.030446 32.7355246 36.030446 51.2353282 94.030446"></polygon>
            <polygon id="Path" fill="#FC6D26" points="50.7355246 94.030446 31.9966301 36.030446 5.73552457 36.030446"></polygon>
            <path d="M5.63333503,36.030446 L-0.0738648349,53.6563711 C-0.594442674,55.2638487 -0.0243026218,57.0248668 1.33838205,58.0184436 L50.7355246,94.030446 L5.63293631,36.030446 L5.63333503,36.030446 Z" id="Path" fill="#FCA326"></path>
            <path d="M5.73552457,36.030446 L31.7355246,36.030446 L20.562228,1.36802479 C19.9871985,-0.415612135 17.4838507,-0.415215153 16.909215,1.36802479 L5.73552457,36.030446 Z" id="Path" fill="#E24329"></path>
            <polygon id="Path" fill="#FC6D26" points="50.7359224 94.030446 69.4742534 36.030446 95.7355246 36.030446 50.7355246 94.030446"></polygon>
            <path d="M95.8377814,36.030446 L101.54499,53.6563711 C102.065484,55.2639354 101.495176,57.0249739 100.132342,58.0184436 L50.7355246,94.030446 L95.8377814,36.030446 L95.8377814,36.030446 Z" id="Path" fill="#FCA326"></path>
            <path d="M95.7355246,36.030446 L69.7355246,36.030446 L80.9090457,1.36802479 C81.4840666,-0.415612135 83.9873764,-0.415215153 84.5620034,1.36802479 L95.7355246,36.030446 Z" id="Path" fill="#E24329"></path>
        </g>
    </g>
</svg>