<?xml version="1.0" encoding="UTF-8"?>
<svg width="93px" height="100px" viewBox="0 0 93 100" version="1.1" xmlns="http://www.w3.org/2000/svg" xmlns:xlink="http://www.w3.org/1999/xlink">
    <title>grafana</title>
    <defs>
        <linearGradient x1="49.9947839%" y1="-0.192837466%" x2="49.9947839%" y2="-0.00275482094%" id="linearGradient-1">
            <stop stop-color="#F05A28" offset="0%"></stop>
            <stop stop-color="#FBCA0A" offset="100%"></stop>
        </linearGradient>
    </defs>
    <g id="Page-1" stroke="none" stroke-width="1" fill="none" fill-rule="evenodd">
        <g id="grafana" transform="translate(0.534176, 0.076632)" fill="url(#linearGradient-1)" fill-rule="nonzero">
            <path d="M91.3185165,44.0555993 C91.1532642,42.3751585 90.8778439,40.4467838 90.3270031,38.2980235 C89.7761624,36.1768114 88.9499013,33.8352136 87.7380517,31.4109712 C86.5262021,28.9867287 84.956306,26.4798417 82.9181953,24.0280511 C82.1194762,23.0638637 81.238131,22.1272246 80.3017018,21.2181337 C81.7063457,15.6258472 78.5940955,10.7773624 78.5940955,10.7773624 C73.2233984,10.4467838 69.8081858,12.4578031 68.5412521,13.366894 C68.3209158,13.2842494 68.1281216,13.1740566 67.9077853,13.0914119 C66.9988981,12.7332852 66.0624688,12.3751585 65.0709555,12.0721282 C64.1069842,11.7690979 63.1154709,11.4936158 62.0964156,11.2456819 C61.0773602,10.997748 60.0583048,10.8049106 59.0117075,10.6396213 C58.8189132,10.6120731 58.653661,10.5845249 58.4608667,10.5569767 C56.1197936,3.06386374 49.3995367,-0.0766321325 49.3995367,-0.0766321325 C41.8805607,4.68920809 40.4759168,11.3558748 40.4759168,11.3558748 C40.4759168,11.3558748 40.4483747,11.4936158 40.3932907,11.7415497 C39.9801601,11.8517425 39.5670296,11.9894836 39.153899,12.0996764 C38.5755163,12.2649657 37.9971335,12.4853513 37.4462927,12.705737 C36.86791,12.9261227 36.3170692,13.1465084 35.7386865,13.3944422 C34.609463,13.89031 33.4802395,14.4412742 32.378558,15.0473348 C31.3044186,15.6533954 30.2578212,16.3145524 29.2387658,17.0032577 L28.9633455,16.8930648 C18.5524556,12.9261227 9.32587332,17.6919629 9.32587332,17.6919629 C8.47207018,28.7663431 13.4847209,35.73604 14.4762342,37.0032577 C14.2283558,37.6919629 14.0080195,38.3806681 13.7876833,39.0693734 C13.0165062,41.5762604 12.4381235,44.1382439 12.080077,46.8104202 C12.0249929,47.1960951 11.9699088,47.5817701 11.9423668,47.967445 C2.30265397,52.7332852 -0.534175808,62.4578031 -0.534175808,62.4578031 C7.48055686,71.6864533 16.8448493,72.2649657 16.8448493,72.2649657 L16.8723914,72.2374175 C18.0566989,74.3586296 19.4338008,76.3696489 20.9761548,78.2704753 C21.6371637,79.0693734 22.2981726,79.813175 23.0142655,80.5569767 C20.0948097,88.9316323 23.4273961,95.8737811 23.4273961,95.8737811 C32.351016,96.2043596 38.2174698,91.9619354 39.4568614,90.997748 C40.3382066,91.3007783 41.2470938,91.5762604 42.155981,91.7966461 C44.9101847,92.5128995 47.7194724,92.9261227 50.5287602,93.0363155 C51.2173111,93.0638637 51.933404,93.0914119 52.6219549,93.0638637 L53.6134683,93.0638637 L54.0541409,93.0363155 L54.0541409,93.0638637 C58.2680725,99.0693734 65.6493383,99.9233679 65.6493383,99.9233679 C70.9098673,94.3861778 71.2128297,88.8765359 71.2128297,87.6919629 L71.2128297,87.6093183 L71.2128297,87.444029 L71.2128297,87.1960951 C72.3145112,86.4247453 73.3611086,85.598299 74.3526219,84.6892081 C76.4458167,82.7883816 78.2911331,80.6120731 79.8334872,78.2704753 L80.2466177,77.6093183 C86.1956976,77.9398968 90.4096292,73.9178582 90.4096292,73.9178582 C89.4181159,67.7195111 85.8927352,64.6892081 85.1491002,64.1106957 C84.4054653,63.5321833 85.1215582,64.0831475 85.0664741,64.0555993 C85.0113901,64.0280511 85.0113901,64.0005029 85.0113901,64.0005029 C84.983848,63.9729546 84.928764,63.9454064 84.8736799,63.9178582 C84.9012219,63.5321833 84.928764,63.1740566 84.956306,62.7883816 C85.0113901,62.1272246 85.0113901,61.4385194 85.0113901,60.7773624 L85.0113901,59.8958197 L85.0113901,59.7305304 L84.983848,59.3173073 L84.956306,58.7663431 C84.956306,58.5735056 84.928764,58.4082164 84.9012219,58.2429271 C84.8736799,58.0776378 84.8736799,57.8848004 84.8461378,57.7195111 L84.7910538,57.1960951 L84.7084277,56.6726792 C84.5982595,55.9839739 84.4880914,55.3228169 84.3228391,54.6341117 C83.6893723,51.9619354 82.6427749,49.4275001 81.2932151,47.1409987 C79.9161133,44.8544973 78.208507,42.8434781 76.2530224,41.1354891 C74.3250798,39.4275001 72.1492589,38.0500896 69.8908119,37.0308059 C67.6048229,36.0115221 65.2362077,35.3503651 62.8675926,35.0473348 C61.683285,34.8820456 60.4989774,34.8269491 59.3146699,34.8544973 L58.4333247,34.8544973 L57.9926521,34.8820456 C57.8273999,34.8820456 57.6621477,34.9095938 57.5244375,34.9095938 C56.9185127,34.9646902 56.3125879,35.0473348 55.7342051,35.1575276 C53.3655899,35.598299 51.134685,36.4522935 49.1792004,37.6368665 C47.2237158,38.8214395 45.5161095,40.2814946 44.1390077,41.9343872 C42.7619058,43.5872797 41.6877664,45.4330097 40.9441314,47.3338362 C40.2004964,49.2346626 39.7873659,51.2181337 39.6771977,53.1189602 C39.6496557,53.5872797 39.6496557,54.0831475 39.6496557,54.551467 L39.6496557,54.9095938 L39.6771977,55.2952687 C39.7047398,55.5156544 39.7047398,55.7635883 39.7322818,55.9839739 C39.8149079,56.9481613 40.0077022,57.8848004 40.2555805,58.7663431 C40.7788792,60.5569767 41.6051403,62.182321 42.6241956,63.5597315 C43.643251,64.937142 44.8826426,66.0666186 46.1771184,66.9757095 C47.4715941,67.8572522 48.876238,68.490861 50.2533398,68.9040841 C51.6304416,69.3173073 53.0075435,69.4825965 54.3020192,69.4825965 L55.0181121,69.4825965 C55.1007382,69.4825965 55.1833644,69.4825965 55.2659905,69.4550483 C55.4037007,69.4550483 55.5414108,69.4275001 55.679121,69.4275001 C55.7066631,69.4275001 55.7617471,69.4275001 55.7892892,69.3999519 L55.9269993,69.3724037 C56.0096255,69.3724037 56.0922516,69.3448555 56.1748777,69.3448555 C56.3401299,69.3173073 56.4778401,69.2897591 56.6430923,69.2622108 C56.8083445,69.2346626 56.9460547,69.2071144 57.0837649,69.152018 C57.3867273,69.0969216 57.6621477,68.9867287 57.937568,68.9040841 C58.4884088,68.7112467 59.0392495,68.490861 59.5074641,68.2429271 C60.0032208,67.9949932 60.4438934,67.6919629 60.8845659,67.4164808 C60.9947341,67.3338362 61.1324443,67.2511916 61.2426124,67.1409987 C61.683285,66.782872 61.7659111,66.121715 61.4078646,65.6809436 C61.1049022,65.2952687 60.5540615,65.1850759 60.1133889,65.4330097 L59.7828845,65.598299 C59.397296,65.7911365 59.0117075,65.9564257 58.5985769,66.0941668 C58.1854464,66.2319078 57.7447738,66.3421006 57.3041012,66.4247453 C57.0837649,66.4522935 56.8634286,66.4798417 56.6155503,66.5073899 C56.5053821,66.5073899 56.395214,66.5349381 56.2575038,66.5349381 L55.5964949,66.5349381 C55.4587847,66.5349381 55.3210745,66.5349381 55.1833644,66.5073899 L55.0181121,66.5073899 C54.9630281,66.5073899 54.880402,66.5073899 54.8253179,66.4798417 C54.6876077,66.4522935 54.5774396,66.4522935 54.4397294,66.4247453 C53.420674,66.2870042 52.4016187,65.9839739 51.4376474,65.5432026 C50.4461341,65.1024312 49.5097048,64.4963706 48.6559017,63.7250208 C47.8020985,62.9536709 47.0584635,62.04458 46.4800808,60.997748 C45.901698,59.9509161 45.4885675,58.7938913 45.2957732,57.5817701 C45.2131471,56.9757095 45.158063,56.3421006 45.185605,55.73604 C45.185605,55.5707508 45.2131471,55.4054615 45.2131471,55.2401723 L45.2131471,55.0197866 C45.2131471,54.937142 45.2406891,54.8544973 45.2406891,54.7718527 C45.2682312,54.4412742 45.3233152,54.1106957 45.3783993,53.7801172 C45.8466139,51.1354891 47.1686317,48.5459574 49.2067424,46.5900345 C49.7300411,46.0941668 50.2808818,45.6533954 50.8592646,45.2401723 C51.4376474,44.8269491 52.0711142,44.4688224 52.7321231,44.1657921 C53.393132,43.8627618 54.0541409,43.6148279 54.7702338,43.4219905 C55.4587847,43.229153 56.1748777,43.1189602 56.9185127,43.0363155 C57.2765591,43.0087673 57.6346056,42.9812191 58.0201941,42.9812191 L58.8739973,42.9812191 L59.1769597,43.0087673 C59.9756787,43.0638637 60.7468558,43.1740566 61.5180328,43.366894 C63.0603868,43.6974726 64.5751989,44.2759849 65.9798427,45.0473348 C68.7891305,46.6175827 71.1852877,49.0418252 72.6450156,51.9619354 C73.3886506,53.4219905 73.9119493,54.9922384 74.1598276,56.6175827 C74.2149117,57.0308059 74.2699958,57.444029 74.2975378,57.8572522 L74.3250798,58.1602825 L74.3526219,58.4633128 L74.3526219,59.6478858 C74.3526219,59.8407232 74.3250798,60.1713018 74.3250798,60.3641392 C74.2975378,60.8049106 74.2424537,61.2732301 74.1873697,61.7140015 C74.1322856,62.1547728 74.0496595,62.5955442 73.9670334,63.0363155 C73.8844073,63.4770869 73.7742391,63.9178582 73.664071,64.3310814 C73.4437347,65.1850759 73.1683143,66.0390703 72.8378099,66.8930648 C72.176801,68.5459574 71.2954558,70.1437535 70.2488584,71.6038086 C68.1281216,74.5239188 65.2362077,76.8930648 61.9311633,78.4082164 C60.2786411,79.152018 58.5434928,79.7029822 56.7532604,79.9784643 C55.8719153,80.1437535 54.9630281,80.2263982 54.0541409,80.2539464 L52.677039,80.2539464 C52.1812824,80.2539464 51.7130677,80.2263982 51.2173111,80.1713018 C49.2893685,80.0335607 47.388968,79.675434 45.5161095,79.152018 C43.670793,78.628602 41.8805607,77.8848004 40.1729544,77.0032577 C36.7852839,75.1850759 33.7281178,72.705737 31.3595026,69.7029822 C30.1751951,68.2153789 29.1285977,66.5900345 28.2747945,64.9095938 C27.4209914,63.229153 26.7324405,61.4385194 26.2366838,59.6478858 C25.7409272,57.829704 25.4379648,55.9839739 25.3002546,54.1106957 L25.2727125,53.752569 L25.2727125,52.182321 L25.2727125,51.9894836 L25.2727125,51.3007783 C25.3002546,50.3916874 25.3828807,49.4275001 25.4930488,48.490861 C25.603217,47.5542219 25.7684692,46.5900345 25.9612635,45.6533954 C26.1540577,44.7167563 26.374394,43.7801172 26.6498144,42.8434781 C27.1731131,40.997748 27.834122,39.2071144 28.605299,37.5266737 C30.1751951,34.1657921 32.2133058,31.1630373 34.664547,28.7663431 C35.2704719,28.1602825 35.9039387,27.6093183 36.5649476,27.0583541 C37.2259565,26.5349381 37.9145074,26.0390703 38.6306003,25.5707508 C39.3191512,25.1024312 40.0627862,24.6892081 40.8064212,24.3035332 C41.1644677,24.1106957 41.5500562,23.9178582 41.9356447,23.752569 L42.5140275,23.5046351 L43.0924103,23.2567012 C43.8635873,22.9261227 44.6623064,22.6506406 45.4885675,22.4027067 C45.6813617,22.3476103 45.901698,22.2925139 46.0944923,22.2098692 C46.2872865,22.1547728 46.5076228,22.0996764 46.7004171,22.04458 C47.1135476,21.9343872 47.5266782,21.8241943 47.9398087,21.7415497 C48.132603,21.6864533 48.3529393,21.6589051 48.5732756,21.6038086 C48.7936119,21.5487122 48.9864061,21.521164 49.2067424,21.4660676 C49.4270787,21.4385194 49.619873,21.383423 49.8402092,21.3558748 L50.1431716,21.3007783 L50.4736761,21.2456819 C50.6940124,21.2181337 50.8868066,21.1905855 51.1071429,21.1630373 C51.3550213,21.1354891 51.5753576,21.1079409 51.8232359,21.0803927 C52.0160301,21.0528445 52.3465346,21.0252962 52.5393288,20.997748 C52.677039,20.9701998 52.8422912,20.9701998 52.9800014,20.9426516 L53.2829638,20.9151034 L53.420674,20.8875552 L53.5859262,20.8875552 C53.8338046,20.860007 54.0541409,20.860007 54.3020192,20.8324588 L54.6600657,20.8049106 L54.935486,20.8049106 C55.1282803,20.8049106 55.3486166,20.7773624 55.5414108,20.7773624 C56.3401299,20.7498141 57.166391,20.7498141 57.9651101,20.7773624 C59.5625482,20.8324588 61.1324443,21.0252962 62.6472563,21.3007783 C65.7044224,21.8792907 68.5687942,22.8434781 71.1852877,24.1382439 C73.8017811,25.4054615 76.1153122,26.9757095 78.1534229,28.6836984 C78.2911331,28.7938913 78.4013013,28.9040841 78.5390114,29.014277 C78.6491796,29.1244698 78.7868898,29.2346626 78.8970579,29.3448555 C79.1449363,29.5652411 79.3652725,29.7856268 79.6131509,30.0060125 C79.8610292,30.2263982 80.0813655,30.4467838 80.3017018,30.6671695 C80.5220381,30.8875552 80.7423744,31.1079409 80.9627107,31.3558748 C81.8165138,32.2649657 82.6152329,33.1740566 83.3313258,34.1106957 C84.7635117,35.9564257 85.9202773,37.829704 86.8291645,39.5927894 L86.9944167,39.9233679 L87.1596689,40.2539464 C87.2698371,40.4743321 87.3800052,40.6947177 87.4626313,40.9151034 C87.5727995,41.1354891 87.6554256,41.3283265 87.7655937,41.5487122 C87.8482198,41.7690979 87.958388,41.9619354 88.0410141,42.182321 C88.3715185,43.0087673 88.702023,43.8076654 88.9499013,44.551467 C89.3630319,45.7635883 89.6659943,46.8379684 89.9138726,47.7746075 C89.9964987,48.1602825 90.3545452,48.4082164 90.7401337,48.3531199 C91.1532642,48.3255717 91.4562266,47.9949932 91.4562266,47.5817701 C91.4837687,46.5900345 91.4562266,45.4054615 91.3185165,44.0555993 Z" id="Path"></path>
        </g>
    </g>
</svg>