<?xml version="1.0" encoding="UTF-8"?>
<svg width="103px" height="100px" viewBox="0 0 103 100" version="1.1" xmlns="http://www.w3.org/2000/svg" xmlns:xlink="http://www.w3.org/1999/xlink">
    <title>kubernets</title>
    <g id="Page-1" stroke="none" stroke-width="1" fill="none" fill-rule="evenodd">
        <g id="kubernets" transform="translate(0.411021, 0.867680)" fill-rule="nonzero">
            <path d="M32.5208679,97.1323203 C30.1486731,97.1323203 27.9085328,96.0804945 26.3928974,94.173513 L3.33122182,65.5707801 C1.8155864,63.6637985 1.22273716,61.2313022 1.8155864,58.863699 L10.0520416,23.1597489 C10.579063,20.7925438 12.1605262,18.8855622 14.3352377,17.8337365 L47.6764242,1.92099053 C48.730866,1.39547577 49.9169635,1.13232028 51.1030609,1.13232028 C52.2891583,1.13232028 53.4748568,1.39507766 54.5292986,1.92138864 L87.8708841,17.7680472 C90.0451966,18.8198729 91.6266598,20.7268545 92.1536812,23.0940596 L100.390136,58.7980096 C100.917557,61.1652147 100.390136,63.5981092 98.8749,65.5050907 L75.8124265,94.1078236 C74.296791,95.9487177 72.0566508,97.0666309 69.6844559,97.0666309 L32.5216658,97.1323203 L32.5208679,97.1323203 Z" id="Path" fill="#326DE6"></path>
            <path d="M50.6877237,3.22212742 C51.6113585,3.22212742 52.5345939,3.41914591 53.391941,3.81358091 L86.7641867,19.6562556 C88.4788809,20.5107984 89.7978457,22.0885384 90.1935751,23.9293677 L98.4376044,59.6243418 C98.8992221,61.530844 98.4376044,63.503019 97.1845279,65.0146881 L74.101246,93.6106283 C72.9140578,95.1222975 71.0671876,95.9768403 69.1548284,95.9768403 L32.15513,95.9768403 C30.2423714,95.9768403 28.3959005,95.1222975 27.2087124,93.6106283 L4.12543047,65.0146881 C2.93824234,63.503019 2.4762253,61.530844 2.872354,59.6243418 L11.1163833,23.9293677 C11.578001,22.0228656 12.8310774,20.4451256 14.5457716,19.6562556 L47.9184167,3.74830609 C48.7757638,3.41954393 49.7648876,3.22212742 50.688123,3.22212742 L50.6877237,3.22212742 Z M50.6877237,0.132320279 C49.3028705,0.132320279 47.9180174,0.461082445 46.5986532,1.05253593 L13.2268068,16.9612815 C10.5884779,18.2102593 8.74200699,20.5107984 8.08232492,23.3375162 L-0.161704338,59.0328884 C-0.820987085,61.8596062 -0.161704338,64.7519968 1.68516586,67.0529339 L24.7684478,95.6484762 C26.5494296,97.8833425 29.2532476,99.1323203 32.0892416,99.1323203 L69.0885408,99.1323203 C71.9245347,99.1323203 74.628752,97.8833425 76.4093346,95.6484762 L99.4930158,67.0525359 C101.339487,64.8176696 101.999169,61.8596062 101.339487,59.0324903 L93.0954574,23.3375162 C92.4361747,20.5107984 90.5893045,18.2102593 87.9513749,16.9612815 L54.7109058,1.05213791 C53.4578293,0.461082445 52.0729762,0.132320279 50.6877237,0.132320279 Z" id="Shape" fill="#FFFFFF"></path>
            <path d="M84.68363,56.5490244 C84.6179969,56.5490244 84.6179969,56.5490244 84.68363,56.5490244 L84.6179969,56.5490244 C84.5523638,56.5490244 84.4867307,56.5490244 84.4867307,56.4834514 C84.3554645,56.4834514 84.2241982,56.4178784 84.0925343,56.4178784 C83.6327047,56.3523054 83.2385083,56.2867324 82.8443119,56.2867324 C82.6470148,56.2867324 82.4501155,56.2867324 82.1871852,56.220762 L82.1215521,56.220762 C80.7420636,56.089616 79.6251074,55.95847 78.5737843,55.6302076 C78.1139548,55.4330911 77.9826886,55.1707991 77.8510246,54.9081097 C77.8510246,54.8425367 77.7853915,54.8425367 77.7853915,54.7769637 L76.9313655,54.5146717 C77.3348638,51.4269742 77.1791068,48.2919379 76.471536,45.2593402 C75.7541999,42.2015249 74.5092505,39.2919068 72.792502,36.660931 L73.4496286,36.0703766 L73.4496286,35.9392306 C73.4496286,35.6109681 73.5152617,35.2827057 73.7777942,34.9544433 C74.566187,34.2323454 75.5518769,33.641791 76.7344662,32.9196931 C76.9313655,32.7885471 77.1282649,32.7229741 77.325562,32.5914307 C77.7197584,32.3947116 78.0483217,32.1979926 78.4425181,31.9353032 C78.5081512,31.8697302 78.6394174,31.8041572 78.7710814,31.6730112 C78.8367145,31.6070408 78.9023477,31.6070408 78.9023477,31.5414678 C79.8220067,30.7537969 80.0193038,29.4411446 79.3621772,28.5875033 C79.0336139,28.1280949 78.4425181,27.8658028 77.8510246,27.8658028 C77.3259597,27.8658028 76.8657324,28.0625218 76.4059029,28.3907843 L76.2746367,28.5219303 C76.1433705,28.5875033 76.0773396,28.7190467 75.9460734,28.7846197 C75.6175101,29.1128821 75.3545798,29.3751742 75.0920474,29.7034366 C74.9607812,29.8345826 74.829515,30.031699 74.6322179,30.162845 C73.712161,31.1476323 72.8581351,31.9353032 72.0041091,32.5258577 C71.8072098,32.6570037 71.6103105,32.7229741 71.4130134,32.7229741 C71.2817472,32.7229741 71.1500832,32.7229741 71.018817,32.6570037 L70.8875508,32.6570037 L70.0987601,33.1823825 C69.2447342,32.2635656 68.3250751,31.4758948 67.4054161,30.6882239 C63.445309,27.595613 58.6793786,25.7045875 53.6745721,25.2401008 L53.608939,24.3868569 L53.4776728,24.2557109 C53.2803757,24.0585945 53.0178433,23.8618755 52.9518124,23.402467 C52.8861793,22.3521067 53.0178433,21.1706004 53.1491095,19.8579481 L53.1491095,19.7923751 C53.1491095,19.5952587 53.2147426,19.3329667 53.2803757,19.1358502 C53.3460088,18.7424122 53.4116419,18.3481794 53.4776728,17.8887709 L53.4776728,17.2982165 C53.4776728,16.1167102 52.557616,15.1323203 51.4410576,15.1323203 C50.9151972,15.1323203 50.3897345,15.3946123 49.9955381,15.7884477 C49.6017395,16.1822832 49.4044424,16.7072646 49.4044424,17.2982165 L49.4044424,17.8231979 C49.4044424,18.2826064 49.4700755,18.6764418 49.6013417,19.0702772 C49.6669748,19.2673937 49.6669748,19.4641127 49.7326079,19.7268021 L49.7326079,19.7923751 C49.8638741,21.1050274 50.0611712,22.2865337 49.929905,23.336894 C49.8642719,23.7963025 49.6013417,23.9930215 49.4044424,24.1901379 L49.2731762,24.3212839 L49.2071453,25.1745278 C48.024556,25.3056738 46.8419667,25.4368198 45.6593775,25.6995092 C40.6008549,26.8154425 36.133428,29.3755716 32.6516911,33.0508391 L31.9945644,32.5914307 L31.8632982,32.5914307 C31.732032,32.5914307 31.600368,32.6570037 31.4691018,32.6570037 C31.2718047,32.6570037 31.0749054,32.5914307 30.8776083,32.4602847 C30.0235823,31.8697302 29.1695564,31.0160889 28.2498973,30.031699 C28.1186311,29.900553 27.9873649,29.7034366 27.7900678,29.5722906 C27.5271376,29.2440282 27.2642074,28.9813387 26.9356441,28.6534737 C26.8700109,28.5875033 26.7387447,28.5223277 26.6074785,28.3907843 C26.5418454,28.3252113 26.4762123,28.3252113 26.4762123,28.2596383 C26.0691695,27.9236663 25.5586636,27.7381212 25.0306928,27.7342594 C24.4391993,27.7342594 23.8481036,27.9969488 23.5195402,28.4563573 C22.8624136,29.3096012 23.0597107,30.6222535 23.9793698,31.4099244 C24.0450029,31.4099244 24.0450029,31.4758948 24.110636,31.4758948 C24.2419022,31.5414678 24.3079331,31.6726138 24.4391993,31.7381868 C24.8333957,32.0004788 25.161959,32.1975952 25.5561555,32.3947116 C25.7534526,32.4602847 25.9503519,32.5914307 26.147649,32.7229741 C27.3298405,33.4446745 28.3155304,34.0356264 29.1039233,34.7577243 C29.4324866,35.0855893 29.4324866,35.4138517 29.4324866,35.7421142 L29.4324866,35.8732602 L30.0892154,36.464212 C29.9579492,36.660931 29.826683,36.7924745 29.7606521,36.9891935 C26.4758145,42.1746271 25.2275921,48.2788777 26.0816181,54.3175552 L25.2275921,54.5798473 C25.2275921,54.6458177 25.161959,54.6458177 25.161959,54.7109933 C25.0306928,54.9736827 24.8333957,55.2363721 24.4391993,55.4330911 C23.4539071,55.7613536 22.2713179,55.892897 20.8918293,56.024043 L20.8257984,56.024043 C20.6288991,56.024043 20.3659689,56.024043 20.1690695,56.089616 C19.7748731,56.089616 19.3806767,56.155189 18.9208472,56.220762 C18.7895809,56.220762 18.6583147,56.2867324 18.5266507,56.2867324 C18.4610176,56.2867324 18.3953845,56.2867324 18.3293536,56.3523054 C17.1467644,56.6145975 16.4240046,57.7305308 16.6213017,58.7804936 C16.8185988,59.6997079 17.6726248,60.2906598 18.7235501,60.2906598 C18.9208472,60.2906598 19.0521134,60.2906598 19.2494105,60.2246894 C19.3150436,60.2246894 19.3806767,60.2246894 19.3806767,60.1591164 C19.5119429,60.1591164 19.6432091,60.0935434 19.7744753,60.0935434 C20.2347026,59.9623974 20.563266,59.8312514 20.9574624,59.6341349 C21.1543617,59.5685619 21.351261,59.4370185 21.5485581,59.3718429 L21.6141912,59.3718429 C22.8624136,58.9120371 23.9793698,58.5182016 25.0306928,58.3870556 L25.161959,58.3870556 C25.5561555,58.3870556 25.8190857,58.5837746 26.015985,58.7153181 C26.0816181,58.7153181 26.0816181,58.7808911 26.1472512,58.7808911 L27.067308,58.649745 C28.6440937,63.5065189 31.6660011,67.8387087 35.6735985,70.9893922 C36.5932575,71.7110926 37.5129166,72.3020445 38.4986065,72.8929963 L38.1044101,73.7458428 C38.1044101,73.8118132 38.1700432,73.8118132 38.1700432,73.8769888 C38.3013094,74.1396782 38.4325756,74.4679407 38.3013094,74.9273491 C37.9075108,75.9121364 37.3160173,76.8965263 36.5932575,78.0124596 L36.5932575,78.0780326 C36.4619913,78.275149 36.3307251,78.406295 36.1994589,78.6030141 C35.9365287,78.9312765 35.7392316,79.2595389 35.4763014,79.6533744 C35.4106683,79.7189474 35.3450351,79.8500934 35.279402,79.9816368 C35.279402,80.0472098 35.2137689,80.1127828 35.2137689,80.1127828 C34.6883063,81.2287161 35.0825027,82.4757954 36.0677949,82.9352039 C36.3303273,83.0663499 36.5932575,83.1323203 36.8561877,83.1323203 C37.6445806,83.1323203 38.4329734,82.6069414 38.8271698,81.8848436 C38.8271698,81.8192705 38.892803,81.7536975 38.892803,81.7536975 C38.9584361,81.6225515 39.0240692,81.4914055 39.0897023,81.4254351 C39.2869994,80.9660267 39.3526325,80.6377642 39.4838987,80.2439288 L39.6811958,79.6533744 C40.1410253,78.340722 40.4695886,77.2903617 41.0606844,76.3715449 C41.3232168,75.9777094 41.6521779,75.9121364 41.9147103,75.780593 C41.9803435,75.780593 41.9803435,75.780593 42.0459766,75.71502 L42.5062039,74.8617761 C45.396845,75.9777094 48.5504164,76.5682639 51.70359,76.5682639 C53.608939,76.5682639 55.5799212,76.3715449 57.419637,75.9121364 C58.5773046,75.6535109 59.7181205,75.3246389 60.8357409,74.9273491 L61.2295395,75.649447 C61.2955704,75.649447 61.2955704,75.649447 61.3612035,75.71502 C61.6897668,75.780593 61.9522992,75.9121364 62.2152295,76.3059719 C62.7406921,77.2247887 63.1348885,78.340722 63.594718,79.5878014 L63.594718,79.6533744 L63.7920151,80.2439288 C63.9232814,80.6377642 63.9889145,81.0315997 64.1858138,81.4254351 C64.2518447,81.5565811 64.3174778,81.6225515 64.3831109,81.7536975 C64.3831109,81.8192705 64.4491418,81.8848436 64.4491418,81.8848436 C64.8429404,82.6725144 65.6313333,83.1323203 66.4197261,83.1323203 C66.6826563,83.1323203 66.9455865,83.0663499 67.208119,82.9352039 C67.6679485,82.6729118 68.0621449,82.278679 68.1938089,81.7536975 C68.3250751,81.2287161 68.3250751,80.6377642 68.0625427,80.1127828 C68.0625427,80.0472098 67.9965118,80.0472098 67.9965118,79.9816368 C67.9308787,79.8504908 67.8652456,79.7193448 67.7996125,79.6533744 C67.6023154,79.2595389 67.339783,78.9312765 67.0768527,78.6030141 C66.9455865,78.406295 66.8143203,78.275149 66.6830541,78.07843 L66.6830541,78.0124596 C65.9598966,76.8965263 65.30277,75.9121364 64.9746044,74.9273491 C64.8433382,74.4679407 64.9746044,74.2056487 65.0402375,73.8773862 C65.0402375,73.8118132 65.1058706,73.8118132 65.1058706,73.7462402 L64.7773073,72.9585694 C68.259442,70.9238192 71.2157163,68.0354277 73.4496286,64.4913062 C74.6322179,62.653275 75.5518769,60.6185248 76.2086058,58.5837746 L76.9969986,58.7149206 C77.0630295,58.7149206 77.0630295,58.6493476 77.1282649,58.6493476 C77.3911951,58.5182016 77.5884922,58.3214826 77.9826886,58.3214826 L78.1139548,58.3214826 C79.1652779,58.4526286 80.2818362,58.8460666 81.5304564,59.3058725 L81.5960895,59.3058725 C81.7929888,59.3714455 81.9898882,59.5025915 82.1871852,59.5681645 C82.5813817,59.7652809 82.909945,59.8964269 83.3697745,60.0279704 C83.5010407,60.0279704 83.6323069,60.0935434 83.7639709,60.0935434 C83.829604,60.0935434 83.8952372,60.0935434 83.9608703,60.1591164 C84.1581674,60.2246894 84.2894336,60.2246894 84.4867307,60.2246894 C85.4720228,60.2246894 86.3260488,59.5685619 86.588979,58.7153181 C86.588979,57.9276472 85.8662193,56.8772869 84.68363,56.5494219 L84.68363,56.5490244 Z M54.2656679,53.332768 L51.3750267,54.7113907 L48.4843855,53.332768 L47.7620236,50.2480549 L49.7326079,47.7538963 L52.9518124,47.7538963 L54.9227945,50.2480549 L54.2660657,53.332768 L54.2656679,53.332768 Z M71.4130134,46.5068169 C71.9226375,48.6772638 72.0779148,50.9157184 71.8728429,53.1356515 L61.821033,50.2480549 C60.901374,49.9857629 60.3759113,49.0665486 60.5728107,48.1477317 C60.6384438,47.8850423 60.7701078,47.6223528 60.9670071,47.4256338 L68.9165686,40.271023 C70.033127,42.1090541 70.887153,44.2093773 71.4130134,46.5064195 L71.4130134,46.5068169 Z M65.7629973,36.333066 L57.1567068,42.4373166 C56.4339471,42.896725 55.4482572,42.7651816 54.8571614,42.0434811 C54.6602621,41.8463647 54.594629,41.5836753 54.5285981,41.3213833 L53.9375024,30.6222535 C58.411741,31.1369927 62.5797953,33.1498452 65.7629973,36.333066 L65.7629973,36.333066 Z M46.7107005,30.9501185 C47.4334603,30.8189725 48.0901891,30.6878265 48.8129489,30.5566805 L48.2218531,41.0582964 C48.15622,41.9771133 47.4334603,42.7647842 46.4477703,42.7647842 C46.1852379,42.7647842 45.8566746,42.6992112 45.6593775,42.5680652 L36.9218208,36.333066 C39.6155627,33.641791 42.9660334,31.8037598 46.7107005,30.9505159 L46.7107005,30.9501185 Z M33.7682495,40.2706255 L41.586147,47.22812 C42.3089068,47.8190718 42.3745399,48.9346077 41.7834441,49.6567056 C41.586147,49.9189976 41.3236146,50.116114 40.9950513,50.1820845 L30.8119752,53.1356515 C30.4177788,48.6723157 31.4030709,44.1434069 33.7682495,40.2706255 L33.7682495,40.2706255 Z M31.9941667,58.0583958 L42.4405708,56.2859376 C43.2945967,56.2203646 44.0829896,56.8113165 44.2798889,57.6645603 C44.345522,58.0579984 44.345522,58.3866582 44.2142558,58.7149206 L40.2066584,68.3632927 C36.5276244,66.0002801 33.5713501,62.3901882 31.9945644,58.0583958 L31.9941667,58.0583958 Z M55.9741176,71.1201408 C54.462965,71.4484032 52.9518124,71.6451222 51.3750267,71.6451222 C49.0758791,71.6451222 46.8419667,71.2516842 44.7401162,70.5951593 L49.929905,61.2090793 C50.4553677,60.6181274 51.3093936,60.3558354 52.0321533,60.7496708 C52.3389094,60.9374118 52.6065859,61.1824448 52.8205462,61.4713713 L57.8790688,70.5951593 C57.2879731,70.7918783 56.6308464,70.9234218 55.9737198,71.1201408 L55.9741176,71.1201408 Z M68.7849047,61.9967501 C67.1424859,64.6220548 64.9742066,66.722378 62.4781597,68.3632927 L58.3392961,58.4518338 C58.141999,57.6645603 58.4705623,56.8113165 59.2589552,56.4170836 C59.5214876,56.2859376 59.8500509,56.2203646 60.1786142,56.2203646 L70.6902537,57.9928228 C70.2960572,59.4366211 69.6389306,60.7496708 68.7849047,61.9967501 L68.7849047,61.9967501 Z" id="Shape" fill="#FFFFFF"></path>
        </g>
    </g>
</svg>