<?xml version="1.0" encoding="UTF-8"?>
<svg width="81px" height="103px" viewBox="0 0 81 103" version="1.1" xmlns="http://www.w3.org/2000/svg" xmlns:xlink="http://www.w3.org/1999/xlink">
    <title>metabase</title>
    <g id="Page-1" stroke="none" stroke-width="1" fill="none" fill-rule="evenodd">
        <g id="metabase" transform="translate(0.199141, 0.801922)" fill="#509EE3" fill-rule="nonzero">
            <circle id="Oval" cx="5.80085851" cy="26.1980778" r="6"></circle>
            <circle id="Oval" cx="5.80085851" cy="43.1980778" r="6"></circle>
            <circle id="Oval" opacity="0.2" cx="22.8008585" cy="26.1980778" r="6"></circle>
            <circle id="Oval" cx="22.8008585" cy="43.1980778" r="6"></circle>
            <circle id="Oval" opacity="0.2" cx="39.8008585" cy="26.1980778" r="6"></circle>
            <circle id="Oval" opacity="0.2" cx="39.8008585" cy="6.19807779" r="6"></circle>
            <circle id="Oval" opacity="0.2" cx="39.8008585" cy="43.1980778" r="6"></circle>
            <circle id="Oval" opacity="0.2" cx="57.8008585" cy="26.1980778" r="6"></circle>
            <circle id="Oval" cx="74.8008585" cy="26.1980778" r="6"></circle>
            <circle id="Oval" cx="57.8008585" cy="43.1980778" r="6"></circle>
            <circle id="Oval" cx="74.8008585" cy="43.1980778" r="6"></circle>
            <circle id="Oval" cx="5.80085851" cy="61.1980778" r="6"></circle>
            <circle id="Oval" opacity="0.2" cx="22.8008585" cy="61.1980778" r="6"></circle>
            <circle id="Oval" cx="39.8008585" cy="61.1980778" r="6"></circle>
            <circle id="Oval" opacity="0.2" cx="57.8008585" cy="61.1980778" r="6"></circle>
            <circle id="Oval" cx="74.8008585" cy="61.1980778" r="6"></circle>
            <circle id="Oval" cx="5.80085851" cy="78.1980778" r="6"></circle>
            <circle id="Oval" opacity="0.2" cx="22.8008585" cy="78.1980778" r="6"></circle>
            <circle id="Oval" opacity="0.2" cx="39.8008585" cy="78.1980778" r="6"></circle>
            <circle id="Oval" opacity="0.2" cx="39.8008585" cy="96.1980778" r="6"></circle>
            <circle id="Oval" opacity="0.2" cx="57.8008585" cy="78.1980778" r="6"></circle>
            <circle id="Oval" cx="74.8008585" cy="78.1980778" r="6"></circle>
        </g>
    </g>
</svg>