<?xml version="1.0" encoding="UTF-8"?>
<svg width="99px" height="103px" viewBox="0 0 99 103" version="1.1" xmlns="http://www.w3.org/2000/svg" xmlns:xlink="http://www.w3.org/1999/xlink">
    <title>postgresql</title>
    <g id="Page-1" stroke="none" stroke-width="1" fill="none" fill-rule="evenodd">
        <g id="postgresql" transform="translate(0.314004, 0.942759)" fill-rule="nonzero">
            <path d="M98.4240002,61.1574532 C97.8289612,59.3564632 96.2702303,58.1020848 94.2544629,57.8010804 C93.3039511,57.6592946 92.2154367,57.7197279 90.9272838,57.9850921 C88.682029,58.4480267 87.0163074,58.6242905 85.8006446,58.6583811 C90.389229,50.9163325 94.1203369,42.0876467 96.2682921,33.7769053 C99.7416144,20.3386305 97.8855578,14.2166593 95.7166696,11.4475743 C89.9767719,4.11809932 81.6024214,0.180637146 71.4995503,0.0601579312 C66.1100861,-0.00569887408 61.3788474,1.05769483 58.9106953,1.82240856 C56.6127205,1.41719551 54.1418548,1.19095802 51.5492679,1.14911958 C46.6893302,1.07164098 42.395358,2.13038597 38.7262737,4.3063723 C36.6950004,3.61991195 33.4348843,2.65220431 29.6700511,2.03469991 C20.8154052,0.581976265 13.6788133,1.71393853 8.45875108,5.39920787 C2.13776973,9.86120013 -0.792458288,17.6137083 -0.250526979,28.4413419 C-0.0784114555,31.8790671 1.84587111,42.3386773 4.87572455,52.2582618 C6.61703746,57.9599116 8.47386934,62.6946285 10.3946631,66.3322485 C13.1186626,71.4903859 16.0333847,74.5279342 19.3055179,75.6188328 C21.1394786,76.2293641 24.4716971,76.657046 27.9764188,73.7399769 C28.420663,74.2776783 29.0133761,74.8118932 29.799913,75.3081436 C30.7988808,75.9376572 32.0203583,76.4521151 33.2402852,76.7569934 C37.6365964,77.8552524 41.7545766,77.5805908 45.2678266,76.0410911 C45.2895348,76.6655686 45.3062037,77.2621538 45.320159,77.7773864 C45.3434178,78.6129931 45.3666767,79.4323292 45.3973008,80.1985925 C45.6054676,85.3795861 45.9582269,89.4080857 47.0033247,92.2267569 C47.0606966,92.3817141 47.1378385,92.6180238 47.2192444,92.8686671 C47.7406304,94.4639513 48.6124498,97.1346385 50.8305693,99.2261731 C53.1273811,101.392862 55.9056513,102.057241 58.45017,102.057241 C59.7263058,102.057241 60.9439068,101.889887 62.0118759,101.661325 C65.8185751,100.845863 70.1420085,99.6038813 73.2695491,95.1535108 C76.2265248,90.9464231 77.663922,84.6098363 77.9240335,74.6255572 C77.9577589,74.3431477 77.9887707,74.0735222 78.0186196,73.8166807 L78.0806432,73.2890515 L78.7772459,73.3502596 L78.9567267,73.3622687 C82.8339777,73.5389199 87.5749076,72.7172594 90.4865285,71.3656454 C92.7872169,70.2987651 100.159886,66.4089523 98.4240002,61.1574532" id="Path" fill="#000000"></path>
            <path d="M92.1076511,61.6148508 C80.6318734,63.9799409 79.842769,60.0982632 79.842769,60.0982632 C91.9590911,42.1362996 97.0244084,19.3362135 92.6536574,13.7559885 C80.7287269,-1.46578582 60.0866042,5.7331863 59.7420222,5.91977206 L59.6312774,5.93981847 C57.3639045,5.46949899 54.8268084,5.18962034 51.9748423,5.1429739 C46.7825738,5.05816219 42.8436115,6.50304532 39.8546615,8.76751797 C39.8546615,8.76751797 3.03107486,-6.38833454 4.74395237,27.8285642 C5.10821377,35.1077219 15.1871416,82.907216 27.2085397,68.4695644 C31.6024428,63.1900355 35.8481719,58.726241 35.8481719,58.726241 C37.9565663,60.1256342 40.4809287,60.8395946 43.1272261,60.583232 L43.3328948,60.4089825 C43.2688404,61.0643457 43.2981665,61.7054451 43.4150852,62.4645099 C40.3180915,65.9213581 41.2283591,66.5281473 35.0374588,67.8014795 C28.7728572,69.0913885 32.4529006,71.3874728 34.8557139,71.9880939 C37.7686475,72.715547 44.5074835,73.7463948 49.0607511,67.3781919 L48.8793921,68.1048741 C50.0925678,69.0759682 50.944569,74.4206479 50.8017971,79.2660951 C50.6590251,84.1111567 50.5637152,87.4377033 51.5195155,90.0360257 C52.4760876,92.6343481 53.4288009,98.4805734 61.5675738,96.7384638 C68.3677631,95.2824009 71.891915,91.5094364 72.3823559,85.2156365 C72.7300249,80.7414333 73.5175858,81.4029647 73.5669772,77.4025505 L74.1986466,75.5089363 C74.9267836,69.4437426 74.3144077,67.4869051 78.5037997,68.397089 L79.5224968,68.4865268 C82.6055992,68.6264661 86.6418007,67.9907638 89.0106575,66.8909101 C94.1110889,64.5262055 97.1363107,60.5774494 92.1068794,61.6148508 L92.1076511,61.6148508" id="Path" fill="#336791"></path>
            <path d="M41.5027056,31.7991205 C40.471019,31.6601203 39.5367266,31.7886862 39.0639986,32.1352551 C38.7983777,32.3301535 38.7159968,32.5559823 38.6936692,32.7113793 C38.6343858,33.1231628 38.932343,33.5785469 39.1155829,33.8133194 C39.633736,34.4781355 40.3905628,34.9350102 41.1396905,35.035627 C41.2482486,35.0505332 41.3564217,35.057241 41.4638249,35.057241 C42.7130126,35.057241 43.8490228,34.1155424 43.9491118,33.4205413 C44.0742231,32.5500198 42.7688315,31.9697964 41.5027056,31.7994932 M75.6807905,31.826697 C75.5822413,31.1443661 74.3280491,30.9498403 73.1377599,31.1100819 C71.9490105,31.2703234 70.7964471,31.7898041 70.8926865,32.4736256 C70.9696781,33.0054039 71.9617141,33.9131909 73.1358351,33.9131909 C73.2351542,33.9131909 73.3352432,33.9068558 73.4361021,33.8930675 C74.219876,33.7879789 74.7950028,33.3061363 75.0683228,33.0285085 C75.4840771,32.6051727 75.7250606,32.1333918 75.6807905,31.826697" id="Shape" fill="#FFFFFF"></path>
            <path d="M95.5847989,61.8059669 C95.1464891,60.4863535 93.7357035,60.0618759 91.391867,60.5436945 C84.4326358,61.9737568 81.9403769,60.9831808 81.1221213,60.3832166 C86.5314209,52.1784462 90.9813863,42.2603719 93.3820409,33.0069148 C94.5191727,28.623597 95.1472621,24.5527686 95.1986688,21.2346856 C95.2554868,17.5929528 94.632422,14.9167814 93.3476409,13.2819848 C88.1675456,6.69161454 80.5647643,3.15648222 71.3618044,3.05950276 C65.0349144,2.98869236 59.68939,4.60078351 58.6531391,5.05412401 C56.4708664,4.51380986 54.0918568,4.18207852 51.5018092,4.13974622 C46.7522934,4.06316323 42.6467142,5.19535997 39.2476873,7.50324029 C37.771194,6.95599903 33.9555022,5.65177919 29.2890875,4.90326707 C21.2217133,3.61020756 14.8109492,4.59000801 10.2361389,7.81688419 C4.77736514,11.6675846 2.25727699,18.5508174 2.74544744,28.2749328 C2.90971699,31.5464503 4.78200333,41.6107634 7.73653612,51.2490597 C11.625666,63.934897 15.8533844,71.1163802 20.3014173,72.5937776 C20.8220552,72.7665704 21.4223154,72.8874099 22.0844183,72.8874099 C23.707015,72.8874099 25.6964158,72.1592942 27.7662121,69.6816999 C30.2907697,66.6663131 32.9022625,63.724146 35.5974247,60.8588778 C37.3460257,61.7932672 39.2670132,62.3151091 41.231677,62.3674472 C41.2355421,62.4186308 41.2405669,62.4698144 41.2452051,62.5206132 C40.9070129,62.9221474 40.5758471,63.3294969 40.2518574,63.7424774 C38.890546,65.4630932 38.6072294,65.8213785 34.2252908,66.719593 C32.9787748,66.9758959 29.6682603,67.655137 29.6195592,69.9657112 C29.5669929,72.4902559 33.5330396,73.5504877 33.9848775,73.6628608 C35.5595461,74.0553967 37.0766237,74.2489708 38.5233553,74.2489708 C42.0418157,74.2489708 45.1382001,73.0975321 47.6126793,70.8696983 C47.5365355,79.8695464 47.9133892,88.7377795 48.9987278,91.4397351 C49.8877159,93.6517904 52.0591661,99.057241 58.9182894,99.057241 C59.9247786,99.057241 61.0325352,98.9406347 62.251222,98.6804835 C69.4098957,97.1526721 72.5186486,94.0023789 73.7211017,87.057187 C74.3646518,83.3454135 75.4689297,74.4821833 75.988408,69.7278806 C77.084569,70.0684632 78.4957411,70.2243231 80.021322,70.2239382 C83.2031266,70.2239382 86.8746476,69.5508546 89.1771269,68.4867743 C91.7636959,67.2906943 96.4312702,64.355911 95.5847989,61.8059669 L95.5847989,61.8059669 Z M78.5370983,29.6795956 C78.5135208,31.083104 78.3194895,32.3573064 78.1138627,33.6873104 C77.8923887,35.1177575 77.6635708,36.5966943 77.6059799,38.3919689 C77.5491619,40.1391386 77.7683168,41.9555793 77.9801279,43.71237 C78.4083883,47.2605868 78.8478577,50.9134799 77.1467982,54.5178833 C76.864231,54.0193773 76.6125261,53.5041436 76.3930908,52.9750632 C76.1816663,52.4647665 75.7224846,51.6450591 75.0866648,50.5105534 C72.6133451,46.0941394 66.8213941,35.7519724 69.7863628,31.5318264 C70.6695532,30.2757115 72.9109629,28.9841913 78.5370983,29.6795956 L78.5370983,29.6795956 Z M71.7173997,5.90153979 C79.9633445,6.08279903 86.4861984,9.15420019 91.1042986,15.0299242 C94.6463366,19.5367753 90.7459977,40.0436985 79.4546887,57.7351385 C79.3411368,57.5913778 79.2269845,57.4480881 79.112235,57.3052732 L78.9692239,57.1274775 C81.8870376,52.329688 81.3165391,47.5826972 80.8086563,43.3740964 C80.5999374,41.6469383 80.4028139,40.0156052 80.4530611,38.4831758 C80.5048543,36.8591546 80.7205305,35.4660369 80.9292495,34.1190999 C81.18551,32.4592887 81.4464087,30.7417517 81.3745166,28.717113 C81.4282424,28.5046817 81.4498873,28.2537666 81.4216716,27.9559011 C81.2380762,26.0143877 79.0117407,20.2037015 74.474036,14.9444899 C71.9918265,12.0678173 68.3720986,8.84863792 63.429711,6.6773755 C65.5555523,6.23865888 68.4625435,5.82957487 71.7173997,5.90153979 Z M25.5758226,67.8683379 C23.2953748,70.5983867 21.7207062,70.0750055 21.202774,69.9033672 C17.8284842,68.7827156 13.9130712,61.6816639 10.4610915,50.4212707 C7.47409136,40.6779134 5.72858245,30.8802937 5.59020952,28.1329271 C5.15421881,19.4440291 7.26962408,13.3885852 11.8780613,10.1343855 C19.3780292,4.83899893 31.7086813,8.00853408 36.6634374,9.61600716 C36.5923184,9.68604788 36.5181072,9.75147053 36.4477612,9.82266577 C28.3169983,17.9981884 28.5098701,31.9663098 28.5299689,32.8202678 C28.5291959,33.1496901 28.5570251,33.6161152 28.5949037,34.257642 C28.7348227,36.607085 28.9953349,40.9796273 28.299605,45.9313524 C27.6533493,50.532874 29.0780494,55.0366465 32.2076742,58.2881523 C32.5288625,58.6212072 32.8664488,58.9381912 33.2191881,59.2379353 C31.8261824,60.7234144 28.7985979,64.0084013 25.5758226,67.8683379 Z M34.264329,56.3258576 C31.7419217,53.705103 30.5962866,50.0599067 31.1207896,46.3238884 C31.8551711,41.0931548 31.584223,36.5374291 31.4385062,34.0898522 C31.4180208,33.7473453 31.3998546,33.4471708 31.3894186,33.2104947 C32.5771841,32.1618081 38.0815668,29.2254855 42.0070292,30.1210061 C43.7981471,30.5293205 44.8896699,31.7438728 45.3434404,33.8327796 C47.6919152,44.6479139 45.6541998,49.1555347 44.0169155,52.7780256 C43.6794865,53.5242286 43.3606103,54.2296388 43.0885027,54.9592938 L42.8774646,55.523468 C42.3432987,56.9496818 41.8462383,58.2758375 41.5381846,59.5350312 C38.8565326,59.5273344 36.2479321,58.3866712 34.264329,56.3254727 L34.264329,56.3258576 Z M34.6759692,70.9112609 C33.8928865,70.7165323 33.1886533,70.3782587 32.7754671,70.097711 C33.1206264,69.9360785 33.7348013,69.7159506 34.800041,69.4973619 C39.9550127,68.4409785 40.7512369,67.6951602 42.4897885,65.4973439 C42.8882871,64.9932046 43.340125,64.4221034 43.9658953,63.7263142 L43.9666683,63.7255445 C44.8985598,62.6864789 45.3248876,62.8627352 46.0979208,63.1821517 C46.7244642,63.4399939 47.3347739,64.221987 47.5821445,65.0824873 C47.699259,65.4888775 47.8306747,66.2600951 47.4004817,66.8604441 C43.7687718,71.9233879 38.4765867,71.85835 34.6759692,70.9112609 L34.6759692,70.9112609 Z M61.6544404,95.9073326 C55.3480357,97.2527303 53.1151294,94.0489444 51.6436608,90.3864304 C50.6939895,88.0219787 50.2270775,77.3596255 50.5583222,65.5847024 C50.5625739,65.4280729 50.5401559,65.2768311 50.4968661,65.1344406 C50.4581424,64.8532658 50.3992412,64.5752136 50.3206145,64.3024184 C49.8281924,62.5891146 48.6280584,61.1559736 47.1882841,60.561782 C46.6162395,60.3258756 45.5664605,59.8929315 44.3048704,60.2142722 C44.5738859,59.1105536 45.0404114,57.8640596 45.5463616,56.5144288 L45.7585592,55.946791 C45.9974265,55.3068035 46.2973634,54.6437257 46.614307,53.9417791 C48.327735,50.1518833 50.6742772,44.9607881 48.1275194,33.2335851 C47.1735965,28.8410312 43.9879268,26.6959378 39.1587885,27.1943045 C36.2637793,27.4925548 33.6149811,28.6555387 32.2938674,29.3224649 C32.0097777,29.4656251 31.7500386,29.6041672 31.5073062,29.7388609 C31.876043,25.3132108 33.2690488,17.042248 38.4800654,11.8092054 C41.7612047,8.51498238 46.1307747,6.88788251 51.4546542,6.97562583 C61.9447143,7.14649441 68.671649,12.5065339 72.4680149,16.9733618 C75.7394913,20.822138 77.5108968,24.6993923 78.2178356,26.7906082 C72.9013,26.2522183 69.2854373,27.2970565 67.4525757,29.9062659 C63.4648841,35.5818735 69.6340753,46.597509 72.599044,51.891741 C73.1428729,52.8619205 73.612104,53.700485 73.7597533,54.056846 C74.7252718,56.3866622 75.9752664,57.942182 76.8878321,59.0774574 C77.1676701,59.425352 77.4390047,59.7628559 77.6454046,60.0576427 C76.0351765,60.5198345 73.1428729,61.5877631 73.4064772,66.9258668 C73.193893,69.6043472 71.6822267,82.1447154 70.9142182,86.5753684 C69.9003852,92.4287717 67.7370519,94.6088854 61.6544404,95.9077175 L61.6544404,95.9073326 Z M87.977766,65.9145095 C86.3312053,66.6753365 83.5757286,67.246053 80.9582382,67.3688167 C78.0670942,67.5035103 76.595239,67.0463215 76.2489201,66.765004 C76.0865832,63.4384545 77.330007,63.0909448 78.646096,62.7230386 C78.8528824,62.6653127 79.054644,62.6087413 79.2494484,62.5410097 C79.3704281,62.6391436 79.5030033,62.7365079 79.6483335,62.831948 C81.9720712,64.3589897 86.1166886,64.5237009 91.9681632,63.3210786 L92.0323249,63.3083789 C91.2430581,64.0430368 89.8925691,65.0289947 87.977766,65.9145095 Z" id="Shape" fill="#FFFFFF"></path>
        </g>
    </g>
</svg>