<svg xmlns="http://www.w3.org/2000/svg" xmlns:xlink="http://www.w3.org/1999/xlink" xmlns:lucid="lucid" width="1416" height="794.47"><g transform="translate(-160 -180)" lucid:page-tab-id="0_0"><path d="M0 0h1760v1360H0z" fill="#fff"/><path d="M180 265c0-2.76 2.24-5 5-5h410c2.76 0 5 2.24 5 5v490c0 2.76-2.24 5-5 5H185c-2.76 0-5-2.24-5-5z" stroke="#326ce5" stroke-width="4" fill="#fff"/><path d="M240 325c0-2.76 2.24-5 5-5h110c2.76 0 5 2.24 5 5v90c0 2.76-2.24 5-5 5H245c-2.76 0-5-2.24-5-5z" stroke="#326ce5" stroke-width="2" fill="#fff"/><use xlink:href="#a" transform="matrix(1,0,0,1,245,325) translate(35.12 41.68666666666667)"/><use xlink:href="#b" transform="matrix(1,0,0,1,245,325) translate(65.85777777777778 41.68666666666667)"/><use xlink:href="#c" transform="matrix(1,0,0,1,245,325) translate(22.42666666666667 60.35333333333334)"/><path d="M420 325c0-2.76 2.24-5 5-5h110c2.76 0 5 2.24 5 5v90c0 2.76-2.24 5-5 5H425c-2.76 0-5-2.24-5-5z" stroke="#326ce5" stroke-width="2" fill="#fff"/><use xlink:href="#a" transform="matrix(1,0,0,1,425,325) translate(35.12 41.68666666666667)"/><use xlink:href="#d" transform="matrix(1,0,0,1,425,325) translate(65.85777777777778 41.68666666666667)"/><use xlink:href="#e" transform="matrix(1,0,0,1,425,325) translate(22.42666666666667 60.35333333333334)"/><path d="M260 478.4c0-2.76 2.24-5 5-5h250c2.76 0 5 2.24 5 5v43.2c0 2.76-2.24 5-5 5H265c-2.76 0-5-2.24-5-5z" stroke="#326ce5" stroke-width="2" fill="#fff"/><use xlink:href="#f" transform="matrix(1,0,0,1,265,478.4) translate(98.23888888888888 18.686666666666667)"/><use xlink:href="#g" transform="matrix(1,0,0,1,265,478.4) translate(80.79333333333332 37.35333333333334)"/><path d="M300 422v24.17c0 .3.24.53.53.53.3 0 .53.24.53.53v24.17" stroke="#326ce5" stroke-width="2" fill="none"/><path d="M301 422.03h-2V421h2zM302.06 472.4h-2v-1.03h2z" fill="#326ce5"/><path d="M480 422v24.17c0 .3-.24.53-.53.53-.3 0-.53.24-.53.53v24.17" stroke="#326ce5" stroke-width="2" fill="none"/><path d="M481 422.03h-2V421h2zM479.94 472.4h-2v-1.03h2z" fill="#326ce5"/><path d="M420 691.8c0-2.76 2.24-5 5-5h150c2.76 0 5 2.24 5 5V735c0 2.76-2.24 5-5 5H425c-2.76 0-5-2.24-5-5z" stroke="#326ce5" stroke-width="2" fill="#fff"/><use xlink:href="#h" transform="matrix(1,0,0,1,425,691.8000000000233) translate(22.144444444444446 28.020000000000003)"/><use xlink:href="#i" transform="matrix(1,0,0,1,425,691.8000000000233) translate(54.95111111111112 28.020000000000003)"/><use xlink:href="#j" transform="matrix(1,0,0,1,425,691.8000000000233) translate(63.70888888888889 28.020000000000003)"/><path d="M200 691.8c0-2.76 2.24-5 5-5h190c2.76 0 5 2.24 5 5V735c0 2.76-2.24 5-5 5H205c-2.76 0-5-2.24-5-5z" stroke="#326ce5" stroke-width="2" fill="#fff"/><use xlink:href="#k" transform="matrix(1,0,0,1,205,691.8000000000233) translate(17.62666666666665 28.020000000000003)"/><use xlink:href="#i" transform="matrix(1,0,0,1,205,691.8000000000233) translate(53.35777777777776 28.020000000000003)"/><use xlink:href="#l" transform="matrix(1,0,0,1,205,691.8000000000233) translate(62.115555555555545 28.020000000000003)"/><path d="M501.67 606.57l-.34.8-.33.14v77.3h-2v-77.97l.33-.8.34-.14v-8.23h2zm0-27.57h-2v-50.4h2z" fill="#326ce5"/><path d="M501.67 528.63h-2v-1.03h2zM501 685.8h-2v-1.03h2z" fill="#326ce5"/><use xlink:href="#m" transform="matrix(1,0,0,1,455.96,578.9984627831803) translate(0 15.353333333333335)"/><path d="M260 205c0-2.76 2.24-5 5-5h230c2.76 0 5 2.24 5 5v50c0 2.76-2.24 5-5 5H265c-2.76 0-5-2.24-5-5z" stroke="#000" stroke-opacity="0" stroke-width="2" fill="#fff" fill-opacity="0"/><use xlink:href="#n" transform="matrix(1,0,0,1,265,205) translate(79.07777777777778 33.6)"/><use xlink:href="#o" transform="matrix(1,0,0,1,265,205) translate(138.03333333333336 33.6)"/><path d="M640 265c0-2.76 2.24-5 5-5h410c2.76 0 5 2.24 5 5v490c0 2.76-2.24 5-5 5H645c-2.76 0-5-2.24-5-5z" stroke="#326ce5" stroke-width="4" fill="#fff"/><path d="M700 325c0-2.76 2.24-5 5-5h110c2.76 0 5 2.24 5 5v90c0 2.76-2.24 5-5 5H705c-2.76 0-5-2.24-5-5z" stroke="#326ce5" stroke-width="2" fill="#fff"/><use xlink:href="#a" transform="matrix(1,0,0,1,705,325) translate(35.12 41.68666666666667)"/><use xlink:href="#p" transform="matrix(1,0,0,1,705,325) translate(65.85777777777778 41.68666666666667)"/><use xlink:href="#q" transform="matrix(1,0,0,1,705,325) translate(22.42666666666667 60.35333333333334)"/><path d="M880 325c0-2.76 2.24-5 5-5h110c2.76 0 5 2.24 5 5v90c0 2.76-2.24 5-5 5H885c-2.76 0-5-2.24-5-5z" stroke="#326ce5" stroke-width="2" fill="#fff"/><use xlink:href="#a" transform="matrix(1,0,0,1,884.9999999999999,325) translate(35.12 41.68666666666667)"/><use xlink:href="#r" transform="matrix(1,0,0,1,884.9999999999999,325) translate(65.85777777777778 41.68666666666667)"/><use xlink:href="#s" transform="matrix(1,0,0,1,884.9999999999999,325) translate(22.42666666666667 60.35333333333334)"/><path d="M760 422v56" stroke="#326ce5" stroke-width="2" fill="none"/><path d="M761 422.03h-2V421h2z" fill="#326ce5"/><path d="M760 477.97V479M940 422v56" stroke="#326ce5" stroke-width="2" fill="none"/><path d="M941 422.03h-2V421h2z" fill="#326ce5"/><path d="M940 477.97V479" stroke="#326ce5" stroke-width="2" fill="none"/><path d="M720 205c0-2.76 2.24-5 5-5h230c2.76 0 5 2.24 5 5v50c0 2.76-2.24 5-5 5H725c-2.76 0-5-2.24-5-5z" stroke="#000" stroke-opacity="0" stroke-width="2" fill="#fff" fill-opacity="0"/><use xlink:href="#n" transform="matrix(1,0,0,1,725,205) translate(79.07777777777778 33.6)"/><use xlink:href="#t" transform="matrix(1,0,0,1,725,205) translate(138.03333333333336 33.6)"/><path d="M1100 265c0-2.76 2.24-5 5-5h410c2.76 0 5 2.24 5 5v490c0 2.76-2.24 5-5 5h-410c-2.76 0-5-2.24-5-5z" stroke="#326ce5" stroke-width="4" fill="#fff"/><path d="M1180 325c0-2.76 2.24-5 5-5h110c2.76 0 5 2.24 5 5v90c0 2.76-2.24 5-5 5h-110c-2.76 0-5-2.24-5-5z" stroke="#326ce5" stroke-width="2" fill="#fff"/><use xlink:href="#a" transform="matrix(1,0,0,1,1185,325) translate(35.12 41.68666666666667)"/><use xlink:href="#u" transform="matrix(1,0,0,1,1185,325) translate(65.85777777777778 41.68666666666667)"/><use xlink:href="#v" transform="matrix(1,0,0,1,1185,325) translate(22.42666666666667 60.35333333333334)"/><path d="M1340 325c0-2.76 2.24-5 5-5h110c2.76 0 5 2.24 5 5v90c0 2.76-2.24 5-5 5h-110c-2.76 0-5-2.24-5-5z" stroke="#326ce5" stroke-width="2" fill="#fff"/><use xlink:href="#a" transform="matrix(1,0,0,1,1345,325) translate(35.12 41.68666666666667)"/><use xlink:href="#w" transform="matrix(1,0,0,1,1345,325) translate(65.85777777777778 41.68666666666667)"/><use xlink:href="#x" transform="matrix(1,0,0,1,1345,325) translate(22.42666666666667 60.35333333333334)"/><path d="M1240 422v56" stroke="#326ce5" stroke-width="2" fill="none"/><path d="M1241 422.03h-2V421h2z" fill="#326ce5"/><path d="M1240 477.97V479M1400 422v56" stroke="#326ce5" stroke-width="2" fill="none"/><path d="M1401 422.03h-2V421h2z" fill="#326ce5"/><path d="M1400 477.97V479" stroke="#326ce5" stroke-width="2" fill="none"/><path d="M1180 205c0-2.76 2.24-5 5-5h230c2.76 0 5 2.24 5 5v50c0 2.76-2.24 5-5 5h-230c-2.76 0-5-2.24-5-5z" stroke="#000" stroke-opacity="0" stroke-width="2" fill="#fff" fill-opacity="0"/><use xlink:href="#n" transform="matrix(1,0,0,1,1185,205) translate(79.07777777777778 33.6)"/><use xlink:href="#y" transform="matrix(1,0,0,1,1185,205) translate(138.03333333333336 33.6)"/><path d="M300 742.5v47.75c0 .14.1.25.25.25.14 0 .25.1.25.25v47.75" stroke="#326ce5" stroke-width="3" fill="none"/><path d="M301.5 742.54h-3V741h3z" fill="#326ce5"/><path d="M300.5 838.46V840" stroke="#326ce5" stroke-width="3" fill="none"/><path d="M564.1 841H241v-2h323.1zm814.9 0H693.23v-2H1379z" fill="#326ce5"/><path d="M241.03 841H240v-2h1.03zM1380 841h-1.03v-2h1.03z" fill="#326ce5"/><use xlink:href="#z" transform="matrix(1,0,0,1,564.1033333333331,830.6666666666666) translate(0 15.353333333333335)"/><use xlink:href="#A" transform="matrix(1,0,0,1,564.1033333333331,830.6666666666666) translate(65.6288888888889 15.353333333333335)"/><path d="M763.83 742.5v55.25c0 .14-.1.25-.25.25-.13 0-.25.1-.25.25v40.25" stroke="#326ce5" stroke-width="3" fill="none"/><path d="M765.33 742.54h-3V741h3z" fill="#326ce5"/><path d="M763.33 838.46V840M1209.43 763.5v32.55c0 2.73 2.2 4.95 4.95 4.95 2.74 0 4.95 2.22 4.95 4.95v32.55" stroke="#326ce5" stroke-width="3" fill="none"/><path d="M1210.93 763.54h-3V762h3z" fill="#326ce5"/><path d="M1219.33 838.46V840" stroke="#326ce5" stroke-width="3" fill="none"/><path d="M670 882.8c0-2.76 2.24-5 5-5h370c2.76 0 5 2.24 5 5v66.67c0 2.76-2.24 5-5 5H675c-2.76 0-5-2.24-5-5z" stroke="#000" stroke-opacity="0" stroke-width="2" fill="#fff" fill-opacity="0"/><use xlink:href="#B" transform="matrix(1,0,0,1,675,882.8055555555555) translate(24.911111111111126 22.099999999999998)"/><use xlink:href="#C" transform="matrix(1,0,0,1,675,882.8055555555555) translate(77.55555555555557 22.099999999999998)"/><use xlink:href="#D" transform="matrix(1,0,0,1,675,882.8055555555555) translate(178.6888888888889 22.099999999999998)"/><use xlink:href="#E" transform="matrix(1,0,0,1,675,882.8055555555555) translate(27.899999999999977 62.099999999999994)"/><use xlink:href="#C" transform="matrix(1,0,0,1,675,882.8055555555555) translate(113.23333333333332 62.099999999999994)"/><use xlink:href="#F" transform="matrix(1,0,0,1,675,882.8055555555555) translate(214.36666666666667 62.099999999999994)"/><path d="M720 478.4c0-2.76 2.24-5 5-5h250c2.76 0 5 2.24 5 5v43.2c0 2.76-2.24 5-5 5H725c-2.76 0-5-2.24-5-5z" stroke="#326ce5" stroke-width="2" fill="#fff"/><use xlink:href="#f" transform="matrix(1,0,0,1,725,478.4) translate(98.23888888888888 18.686666666666667)"/><use xlink:href="#G" transform="matrix(1,0,0,1,725,478.4) translate(80.79333333333332 37.35333333333334)"/><path d="M302.06 606.37l-.4.94-.66.3v77.2h-2v-77.77l.4-.94.66-.3v-6.7h2zm0-25.93h-2V528.6h2z" fill="#326ce5"/><path d="M302.06 528.63h-2v-1.03h2zM301 685.8h-2v-1.03h2z" fill="#326ce5"/><use xlink:href="#H" transform="matrix(1,0,0,1,269.8900393841747,580.4386548027579) translate(0 15.353333333333335)"/><path d="M880 691.8c0-2.76 2.24-5 5-5h150c2.76 0 5 2.24 5 5V735c0 2.76-2.24 5-5 5H885c-2.76 0-5-2.24-5-5z" stroke="#326ce5" stroke-width="2" fill="#fff"/><use xlink:href="#h" transform="matrix(1,0,0,1,884.9999999999999,691.8000000000233) translate(22.144444444444446 28.020000000000003)"/><use xlink:href="#i" transform="matrix(1,0,0,1,884.9999999999999,691.8000000000233) translate(54.95111111111112 28.020000000000003)"/><use xlink:href="#I" transform="matrix(1,0,0,1,884.9999999999999,691.8000000000233) translate(63.70888888888889 28.020000000000003)"/><path d="M959.7 605.76l.03.02.85.34.42 1.03v77.65h-2v-77.16l-.03-.02-.84-.34-.43-1.03v-8.34h2zm0-26.52h-2V528.6h2z" fill="#326ce5"/><path d="M959.7 528.63h-2v-1.03h2zM961 685.8h-2v-1.03h2z" fill="#326ce5"/><use xlink:href="#m" transform="matrix(1,0,0,1,913.9936555674901,579.2404512494918) translate(0 15.353333333333335)"/><path d="M660 691.8c0-2.76 2.24-5 5-5h190c2.76 0 5 2.24 5 5V735c0 2.76-2.24 5-5 5H665c-2.76 0-5-2.24-5-5z" stroke="#326ce5" stroke-width="2" fill="#fff"/><use xlink:href="#k" transform="matrix(1,0,0,1,665,691.8000000000233) translate(17.62666666666665 28.020000000000003)"/><use xlink:href="#i" transform="matrix(1,0,0,1,665,691.8000000000233) translate(53.35777777777776 28.020000000000003)"/><use xlink:href="#J" transform="matrix(1,0,0,1,665,691.8000000000233) translate(62.115555555555545 28.020000000000003)"/><path d="M1180 478.4c0-2.76 2.24-5 5-5h250c2.76 0 5 2.24 5 5v43.2c0 2.76-2.24 5-5 5h-250c-2.76 0-5-2.24-5-5z" stroke="#326ce5" stroke-width="2" fill="#fff"/><use xlink:href="#f" transform="matrix(1,0,0,1,1185,478.4) translate(98.23888888888888 18.686666666666667)"/><use xlink:href="#K" transform="matrix(1,0,0,1,1185,478.4) translate(80.79333333333332 37.35333333333334)"/><path d="M762.06 606.37l-.4.94-.66.3v77.2h-2v-77.77l.4-.94.66-.3v-6.7h2zm0-25.93h-2V528.6h2z" fill="#326ce5"/><path d="M762.06 528.63h-2v-1.03h2zM761 685.8h-2v-1.03h2z" fill="#326ce5"/><g><use xlink:href="#H" transform="matrix(1,0,0,1,729.8900393841748,580.4386548027579) translate(0 15.353333333333335)"/></g><path d="M1340 691.8c0-2.76 2.24-5 5-5h150c2.76 0 5 2.24 5 5V735c0 2.76-2.24 5-5 5h-150c-2.76 0-5-2.24-5-5z" stroke="#326ce5" stroke-width="2" fill="#fff"/><g><use xlink:href="#h" transform="matrix(1,0,0,1,1345,691.8000000000233) translate(22.144444444444446 28.020000000000003)"/><use xlink:href="#i" transform="matrix(1,0,0,1,1345,691.8000000000233) translate(54.95111111111112 28.020000000000003)"/><use xlink:href="#L" transform="matrix(1,0,0,1,1345,691.8000000000233) translate(63.70888888888889 28.020000000000003)"/></g><path d="M1120 691.8c0-2.76 2.24-5 5-5h190c2.76 0 5 2.24 5 5V735c0 2.76-2.24 5-5 5h-190c-2.76 0-5-2.24-5-5z" stroke="#326ce5" stroke-width="2" fill="#fff"/><g><use xlink:href="#k" transform="matrix(1,0,0,1,1125,691.8000000000233) translate(17.62666666666665 28.020000000000003)"/><use xlink:href="#i" transform="matrix(1,0,0,1,1125,691.8000000000233) translate(53.35777777777776 28.020000000000003)"/><use xlink:href="#M" transform="matrix(1,0,0,1,1125,691.8000000000233) translate(62.115555555555545 28.020000000000003)"/></g><path d="M1419.7 605.76l.03.02.85.34.42 1.03v77.65h-2v-77.16l-.03-.02-.84-.34-.43-1.03v-8.34h2zm0-26.52h-2V528.6h2z" fill="#326ce5"/><path d="M1419.7 528.63h-2v-1.03h2zM1421 685.8h-2v-1.03h2z" fill="#326ce5"/><g><use xlink:href="#m" transform="matrix(1,0,0,1,1373.9936555674901,579.2404512494918) translate(0 15.353333333333335)"/></g><path d="M1222.06 606.37l-.4.94-.66.3v77.2h-2v-77.77l.4-.94.66-.3v-6.7h2zm0-25.93h-2V528.6h2z" fill="#326ce5"/><path d="M1222.06 528.63h-2v-1.03h2zM1221 685.8h-2v-1.03h2z" fill="#326ce5"/><g><use xlink:href="#H" transform="matrix(1,0,0,1,1189.8900393841748,580.4386548027579) translate(0 15.353333333333335)"/></g><path d="M767.2 794.7l2.3 3.13.1.67h243.32v3H767.06l-.4-2.5-1.3-1.76-2.15-.7-.85.14-1.78 1.3-1.15 3.52H451.5v-3h305.75l.77-2.38 3.14-2.3 2.3-.36zm446.1 0l2.3 3.13.1.67h342.8v3h-345.35l-.4-2.5-1.3-1.76-2.15-.7-.86.14-1.77 1.3-1.16 3.52h-59.75v-3h57.6l.76-2.38 3.15-2.3 2.3-.36z" fill="#fa2a6a"/><path d="M451.54 801.5H450v-3h1.54zM1560 801.5h-1.54v-3h1.54z" fill="#fa2a6a"/><g><use xlink:href="#N" transform="matrix(1,0,0,1,1012.9188888888888,790.6666666666666) translate(0 15.353333333333335)"/><use xlink:href="#O" transform="matrix(1,0,0,1,1012.9188888888888,790.6666666666666) translate(76.0977777777778 15.353333333333335)"/></g><path d="M511.28 763.5V776c0 2.76-2.24 5-5 5h-1.95c-2.76 0-5 2.24-5 5v12.5" stroke="#fa2a6a" stroke-width="3" fill="none"/><path d="M512.78 763.54h-3V762h3z" fill="#fa2a6a"/><path d="M499.33 798.46V800M972.76 763.5V776c0 2.76-2.24 5-5 5h-2.1c-2.75 0-5 2.24-5 5v12.5" stroke="#fa2a6a" stroke-width="3" fill="none"/><path d="M974.26 763.54h-3V762h3z" fill="#fa2a6a"/><path d="M960.67 798.46V800M1432.76 763.5V776c0 2.76-2.24 5-5 5h-2.1c-2.75 0-5 2.24-5 5v12.5" stroke="#fa2a6a" stroke-width="3" fill="none"/><path d="M1434.26 763.54h-3V762h3z" fill="#fa2a6a"/><path d="M1420.67 798.46V800" stroke="#fa2a6a" stroke-width="3" fill="none"/><path d="M220 305c0-2.76 2.24-5 5-5h1250c2.76 0 5 2.24 5 5v330c0 2.76-2.24 5-5 5H225c-2.76 0-5-2.24-5-5z" fill="#fff" fill-opacity="0"/><path d="M238.9 300h11.9m7.93 0h11.9m7.94 0h11.9m7.94 0h11.92m7.93 0h11.9m7.95 0H350m7.94 0h11.9m7.94 0h11.9m7.94 0h11.9m7.94 0h11.9m7.94 0h11.9m7.94 0h11.9m7.94 0h11.9m7.95 0h11.9m7.94 0h11.9m7.94 0h11.9m7.95 0h11.9m7.94 0h11.9m7.93 0h11.9m7.94 0h11.9m7.94 0h11.92m7.94 0h11.9m7.94 0h11.9m7.94 0h11.9m7.94 0h11.9m7.94 0h11.9m7.94 0h11.9m7.94 0h11.9m7.94 0h11.9m7.95 0h11.9m7.93 0h11.9m7.94 0h11.9m7.94 0h11.9m7.95 0h11.9m7.94 0h11.9m7.93 0h11.9m7.94 0h11.9m7.95 0h11.9m7.94 0h11.9m7.94 0h11.9m7.94 0h11.9m7.94 0h11.9m7.94 0h11.9m7.94 0h11.9m7.94 0h11.9m7.95 0h11.9m7.94 0h11.9m7.93 0h11.9m7.94 0h11.9m7.94 0h11.92m7.93 0h11.9m7.94 0h11.9m7.93 0h11.9m7.95 0h11.9m7.94 0h11.9m7.94 0h11.9m7.94 0h11.9m7.94 0h11.9m7.94 0h11.9m7.94 0h11.9m7.95 0h11.9m7.94 0h11.9m7.95 0h5.95l2.95.96 1.8 2.46.25 1.58v5.82m0 7.77v11.64m0 7.76v11.65m0 7.76v11.66m0 7.76v11.65m0 7.77v11.64m0 7.77v11.64m0 7.76v11.65m0 7.77v11.65m0 7.76v11.65m0 7.76v11.64m0 7.77v11.65m0 7.77v11.64m0 7.77v11.65m0 7.76v11.65m0 7.75V602m0 7.76v11.65m0 7.78V635l-.96 2.95-2.46 1.8-1.58.25h-5.95m-7.94 0h-11.9m-7.93 0h-11.9m-7.94 0h-11.9m-7.94 0h-11.92m-7.93 0h-11.9m-7.95 0H1350m-7.94 0h-11.9m-7.94 0h-11.9m-7.94 0h-11.9m-7.94 0h-11.9m-7.94 0h-11.9m-7.94 0h-11.9m-7.94 0h-11.9m-7.95 0h-11.9m-7.94 0h-11.9m-7.94 0h-11.9m-7.95 0h-11.9m-7.94 0h-11.9m-7.93 0h-11.9m-7.94 0h-11.9m-7.94 0h-11.92m-7.94 0h-11.9m-7.94 0h-11.9m-7.94 0h-11.9m-7.94 0h-11.9m-7.94 0h-11.9m-7.94 0h-11.9m-7.94 0h-11.9m-7.94 0h-11.9m-7.95 0h-11.9m-7.93 0h-11.9m-7.94 0h-11.9m-7.94 0h-11.9m-7.95 0h-11.9m-7.94 0h-11.9m-7.93 0h-11.9m-7.94 0h-11.9m-7.95 0h-11.9m-7.94 0h-11.9m-7.94 0h-11.9m-7.94 0h-11.9m-7.94 0h-11.9m-7.94 0h-11.9m-7.94 0h-11.9m-7.94 0h-11.9m-7.95 0h-11.9m-7.94 0h-11.9m-7.93 0h-11.9m-7.94 0h-11.9m-7.94 0h-11.92m-7.93 0h-11.9m-7.94 0h-11.9m-7.93 0h-11.9m-7.95 0h-11.9m-7.94 0h-11.9m-7.94 0h-11.9m-7.94 0h-11.9m-7.94 0h-11.9m-7.94 0h-11.9m-7.94 0h-11.9m-7.95 0h-11.9m-7.94 0h-11.9m-7.95 0H225l-2.95-.96-1.8-2.46L220 635v-5.82m0-7.77v-11.64m0-7.76v-11.65m0-7.76v-11.66m0-7.76v-11.65m0-7.77v-11.64m0-7.77V512.7m0-7.76V493.3m0-7.77v-11.65m0-7.76v-11.65m0-7.76v-11.64m0-7.77v-11.65m0-7.77v-11.64m0-7.77v-11.65m0-7.76V357.4m0-7.75V338m0-7.76V318.6m0-7.78V305l.96-2.95 2.46-1.8L225 300h5.95" stroke="#fa2a6a" stroke-width="4" fill="none"/><defs><path fill="#326ce5" d="M1220-981c0 346-230 490-586 494H458V0H120v-1457h514c350 4 586 140 586 476zm-338 0c0-152-92-223-248-223H458v462h176c169 2 248-80 248-239" id="P"/><path fill="#326ce5" d="M366-1016c125-49 306-50 431 0 190 75 313 236 313 495 0 261-123 423-313 499-125 50-306 50-431 0C175-98 50-259 50-521c0-260 126-421 316-495zm4 497c0 183 45 305 212 305 163 0 208-124 208-305 0-182-44-304-208-304-167 0-212 121-212 304" id="Q"/><path fill="#326ce5" d="M494-1057c110-3 175 36 236 85v-525h310V0H848c-79 3-80-75-100-131C671-51 581 16 426 16 225 16 127-123 78-290c-38-128-40-313 4-440 62-181 183-321 412-327zM370-515c0 153 21 293 164 293 98 0 150-43 196-97v-440c-41-45-87-70-162-70-160 0-198 144-198 314" id="R"/><g id="a"><use transform="matrix(0.007777777777777778,0,0,0.007777777777777778,0,0)" xlink:href="#P"/><use transform="matrix(0.007777777777777778,0,0,0.007777777777777778,9.691111111111113,0)" xlink:href="#Q"/><use transform="matrix(0.007777777777777778,0,0,0.007777777777777778,18.713333333333335,0)" xlink:href="#R"/></g><path fill="#326ce5" d="M252-224h280c2-282-4-570 3-848L370-935c-34 38-114 22-140-12l-98-130 454-381h256v1234h240V0H252v-224" id="S"/><use transform="matrix(0.007777777777777778,0,0,0.007777777777777778,0,0)" xlink:href="#S" id="b"/><path fill="#326ce5" d="M1079-1060c53 176 54 486 0 662-72 237-212 414-501 414-287 0-427-178-498-414-53-176-53-486 0-662 71-237 210-413 498-413s430 177 501 413zM659-254c162-89 162-477 122-722-22-135-65-248-203-248-137 0-179 115-200 248-38 243-40 632 120 722 52 29 109 29 161 0" id="T"/><path fill="#326ce5" d="M236 14C129 14 60-51 60-157c0-105 70-171 176-171 105 0 176 66 176 171 0 106-70 171-176 171" id="U"/><path fill="#326ce5" d="M721-616c-89 49-239 66-351 22-151-59-258-184-258-395 0-232 131-372 302-445 119-51 300-48 421-3 208 78 330 294 279 588-23 135-79 239-146 334L654-69C627-30 562 0 494 0H208c171-206 345-408 513-616zm-97-178c131 0 208-88 206-218-2-138-74-216-210-216-130 0-198 86-198 216 0 145 67 218 202 218" id="V"/><path fill="#326ce5" d="M86-1041c45-269 211-432 516-432 221 0 368 97 436 253 40 91 43 220 10 318-51 154-158 259-262 365L501-245c130-48 308-33 481-35 63-1 108 39 108 100V0H66c-2-94 2-169 54-222l420-423c101-110 202-200 212-395 7-138-99-209-232-170-58 17-99 60-118 117-22 66-66 96-152 81" id="W"/><g id="c"><use transform="matrix(0.007777777777777778,0,0,0.007777777777777778,0,0)" xlink:href="#S"/><use transform="matrix(0.007777777777777778,0,0,0.007777777777777778,9.022222222222222,0)" xlink:href="#T"/><use transform="matrix(0.007777777777777778,0,0,0.007777777777777778,18.044444444444444,0)" xlink:href="#U"/><use transform="matrix(0.007777777777777778,0,0,0.007777777777777778,21.715555555555554,0)" xlink:href="#V"/><use transform="matrix(0.007777777777777778,0,0,0.007777777777777778,30.737777777777776,0)" xlink:href="#T"/><use transform="matrix(0.007777777777777778,0,0,0.007777777777777778,39.76,0)" xlink:href="#U"/><use transform="matrix(0.007777777777777778,0,0,0.007777777777777778,43.43111111111111,0)" xlink:href="#S"/><use transform="matrix(0.007777777777777778,0,0,0.007777777777777778,52.45333333333333,0)" xlink:href="#U"/><use transform="matrix(0.007777777777777778,0,0,0.007777777777777778,56.12444444444444,0)" xlink:href="#W"/></g><use transform="matrix(0.007777777777777778,0,0,0.007777777777777778,0,0)" xlink:href="#W" id="d"/><path fill="#326ce5" d="M114-1041c45-269 211-432 516-432 212 0 355 88 422 233 21 45 30 94 30 145 2 183-80 277-216 323 161 56 242 166 242 329 0 307-208 452-512 459-308 7-443-159-522-390 80-24 165-97 266-58 18 7 29 21 38 37 53 91 95 158 214 158 155 0 236-120 200-281-25-110-146-118-296-120v-214c165-2 284-26 284-189 0-138-100-208-232-169-58 17-99 60-118 117-22 66-66 96-152 81" id="X"/><g id="e"><use transform="matrix(0.007777777777777778,0,0,0.007777777777777778,0,0)" xlink:href="#S"/><use transform="matrix(0.007777777777777778,0,0,0.007777777777777778,9.022222222222222,0)" xlink:href="#T"/><use transform="matrix(0.007777777777777778,0,0,0.007777777777777778,18.044444444444444,0)" xlink:href="#U"/><use transform="matrix(0.007777777777777778,0,0,0.007777777777777778,21.715555555555554,0)" xlink:href="#V"/><use transform="matrix(0.007777777777777778,0,0,0.007777777777777778,30.737777777777776,0)" xlink:href="#T"/><use transform="matrix(0.007777777777777778,0,0,0.007777777777777778,39.76,0)" xlink:href="#U"/><use transform="matrix(0.007777777777777778,0,0,0.007777777777777778,43.43111111111111,0)" xlink:href="#S"/><use transform="matrix(0.007777777777777778,0,0,0.007777777777777778,52.45333333333333,0)" xlink:href="#U"/><use transform="matrix(0.007777777777777778,0,0,0.007777777777777778,56.12444444444444,0)" xlink:href="#X"/></g><path fill="#326ce5" d="M666 16c-127 3-195-56-255-124C401-53 395 0 326 0H120v-1497h310v570c74-71 163-129 304-126 201 5 299 137 348 303 38 127 40 313-4 439-63 179-182 322-412 327zm124-543c0-153-21-288-164-293-99-3-151 43-196 98v440c40 45 88 70 162 70 160 0 198-144 198-315" id="Y"/><path fill="#326ce5" d="M768-795c-14 65-88 29-146 29-81 0-145 43-192 130V0H120v-1037c73 2 156-8 222 4 64 11 52 105 69 166 65-96 144-190 283-190 47 0 85 11 114 34" id="Z"/><path fill="#326ce5" d="M440-1037V0H130v-1037h310zm-154-466c113 0 190 70 190 182 0 111-79 180-190 180-109 0-184-71-184-180 0-110 74-182 184-182" id="aa"/><path fill="#326ce5" d="M232-439C135-490 58-579 58-718c0-234 188-330 428-337 92-3 169 20 233 50h313c-5 52 14 124-14 154-23 25-86 29-126 40 66 303-178 459-498 423-40 20-49 70-6 84 149 48 389 2 514 89 58 41 104 101 100 201-8 190-138 291-296 340-237 73-576 24-664-139-18-33-28-67-28-102C16-21 87-74 171-106c-45-31-80-75-77-150 4-97 67-146 138-183zm50 484c0 94 106 99 210 99 98 0 176-9 214-64C756-84 500-31 348-55c-32 24-66 51-66 100zm58-756c0 91 53 137 146 138 96 2 146-50 146-138 0-90-49-135-146-135s-146 45-146 135" id="ab"/><path fill="#326ce5" d="M1024-162C926-48 781 16 578 16 325 16 169-111 94-299c-49-123-59-309-6-439 74-183 225-315 476-315 298 0 466 176 466 475 0 66-3 115-70 115H362c16 155 90 243 244 247 98 2 155-39 218-71 37-18 85-16 110 14zM752-643c-3-120-60-196-182-196-129 0-185 80-205 196h387" id="ac"/><g id="f"><use transform="matrix(0.007777777777777778,0,0,0.007777777777777778,0,0)" xlink:href="#Y"/><use transform="matrix(0.007777777777777778,0,0,0.007777777777777778,9.022222222222222,0)" xlink:href="#Z"/><use transform="matrix(0.007777777777777778,0,0,0.007777777777777778,15.446666666666667,0)" xlink:href="#aa"/><use transform="matrix(0.007777777777777778,0,0,0.007777777777777778,19.880000000000003,0)" xlink:href="#R"/><use transform="matrix(0.007777777777777778,0,0,0.007777777777777778,28.902222222222225,0)" xlink:href="#ab"/><use transform="matrix(0.007777777777777778,0,0,0.007777777777777778,37.03777777777778,0)" xlink:href="#ac"/><use transform="matrix(0.007777777777777778,0,0,0.007777777777777778,45.5,0)" xlink:href="#T"/></g><path fill="#326ce5" d="M270-12C242 51 193 99 108 99H-24l568-1491c23-62 77-104 156-105h132" id="ad"/><path fill="#326ce5" d="M1126-566c-12 87 37 230-60 231h-90V0H706v-335H120c-39 1-76-30-82-63L6-551l674-906h296v891h150zm-420 0c3-181-8-372 10-539L331-566h375" id="ae"/><g id="g"><use transform="matrix(0.007777777777777778,0,0,0.007777777777777778,0,0)" xlink:href="#S"/><use transform="matrix(0.007777777777777778,0,0,0.007777777777777778,9.022222222222222,0)" xlink:href="#T"/><use transform="matrix(0.007777777777777778,0,0,0.007777777777777778,18.044444444444444,0)" xlink:href="#U"/><use transform="matrix(0.007777777777777778,0,0,0.007777777777777778,21.715555555555554,0)" xlink:href="#V"/><use transform="matrix(0.007777777777777778,0,0,0.007777777777777778,30.737777777777776,0)" xlink:href="#T"/><use transform="matrix(0.007777777777777778,0,0,0.007777777777777778,39.76,0)" xlink:href="#U"/><use transform="matrix(0.007777777777777778,0,0,0.007777777777777778,43.43111111111111,0)" xlink:href="#S"/><use transform="matrix(0.007777777777777778,0,0,0.007777777777777778,52.45333333333333,0)" xlink:href="#U"/><use transform="matrix(0.007777777777777778,0,0,0.007777777777777778,56.12444444444444,0)" xlink:href="#T"/><use transform="matrix(0.007777777777777778,0,0,0.007777777777777778,65.14666666666666,0)" xlink:href="#ad"/><use transform="matrix(0.007777777777777778,0,0,0.007777777777777778,71.36888888888889,0)" xlink:href="#W"/><use transform="matrix(0.007777777777777778,0,0,0.007777777777777778,80.39111111111112,0)" xlink:href="#ae"/></g><path fill="#326ce5" d="M0-1037h248c41-1 80 21 86 54 48 222 103 438 144 667 67-218 130-445 190-668 20-73 133-51 220-54 41-1 78 23 86 54 60 224 119 448 180 670 45-228 105-446 154-669 7-31 44-55 82-54h236L1304 0h-252c-34-2-47-21-56-52-61-218-128-430-183-654-54 226-124 435-185 654-10 35-32 52-66 52H322" id="af"/><g id="h"><use transform="matrix(0.007777777777777778,0,0,0.007777777777777778,0,0)" xlink:href="#af"/><use transform="matrix(0.007777777777777778,0,0,0.007777777777777778,12.646666666666668,0)" xlink:href="#ab"/><use transform="matrix(0.007777777777777778,0,0,0.007777777777777778,20.782222222222224,0)" xlink:href="#T"/></g><path fill="#326ce5" d="M100-733h540v250H100v-250" id="ag"/><use transform="matrix(0.007777777777777778,0,0,0.007777777777777778,0,0)" xlink:href="#ag" id="i"/><g id="j"><use transform="matrix(0.007777777777777778,0,0,0.007777777777777778,0,0)" xlink:href="#S"/><use transform="matrix(0.007777777777777778,0,0,0.007777777777777778,9.022222222222222,0)" xlink:href="#T"/><use transform="matrix(0.007777777777777778,0,0,0.007777777777777778,18.044444444444444,0)" xlink:href="#U"/><use transform="matrix(0.007777777777777778,0,0,0.007777777777777778,21.715555555555554,0)" xlink:href="#V"/><use transform="matrix(0.007777777777777778,0,0,0.007777777777777778,30.737777777777776,0)" xlink:href="#T"/><use transform="matrix(0.007777777777777778,0,0,0.007777777777777778,39.76,0)" xlink:href="#U"/><use transform="matrix(0.007777777777777778,0,0,0.007777777777777778,43.43111111111111,0)" xlink:href="#S"/><use transform="matrix(0.007777777777777778,0,0,0.007777777777777778,52.45333333333333,0)" xlink:href="#U"/><use transform="matrix(0.007777777777777778,0,0,0.007777777777777778,56.12444444444444,0)" xlink:href="#S"/></g><path fill="#326ce5" d="M774-74c-71 55-172 90-290 90-196 0-304-108-304-303v-536c-70 1-146 12-146-61v-121l165-32 61-253c16-78 146-38 230-48v303h252v212H490v515c0 45 23 83 68 83 48 0 88-50 122 4" id="ah"/><path fill="#326ce5" d="M612-820c-81 1-134 39-182 81V0H120v-1497h310v551c73-60 149-110 278-107 236 5 352 157 352 394V0H750v-659c0-96-44-162-138-161" id="ai"/><g id="k"><use transform="matrix(0.007777777777777778,0,0,0.007777777777777778,0,0)" xlink:href="#ac"/><use transform="matrix(0.007777777777777778,0,0,0.007777777777777778,8.462222222222223,0)" xlink:href="#ah"/><use transform="matrix(0.007777777777777778,0,0,0.007777777777777778,14.684444444444445,0)" xlink:href="#ai"/><use transform="matrix(0.007777777777777778,0,0,0.007777777777777778,23.706666666666667,0)" xlink:href="#T"/></g><path fill="#326ce5" d="M532-896c89-35 216-36 312-1 162 59 274 190 274 411 0 240-136 387-313 462-125 53-311 53-436 2C185-96 66-254 66-506c0-186 74-313 166-437l328-443c29-40 94-71 166-71h276c-157 187-313 374-470 561zm46 197c-139 0-214 93-214 235 0 148 69 235 218 235 140 0 226-93 226-234 0-150-82-236-230-236" id="aj"/><path fill="#326ce5" d="M855-759c146 52 245 150 245 342 0 296-219 433-520 433-237 0-404-93-482-255-25-53-38-113-38-178 2-193 98-290 245-342-122-54-197-152-197-317 0-200 127-309 282-366 112-41 268-41 380 0 155 58 282 165 282 366 0 164-76 263-197 317zM380-423c2 130 68 205 200 205 131 0 199-75 200-205 2-138-61-211-200-211s-202 73-200 211zm30-647c-2 122 46 200 170 200s171-78 170-200c-1-110-58-177-170-177-113 0-169 67-170 177" id="ak"/><g id="l"><use transform="matrix(0.007777777777777778,0,0,0.007777777777777778,0,0)" xlink:href="#S"/><use transform="matrix(0.007777777777777778,0,0,0.007777777777777778,9.022222222222222,0)" xlink:href="#V"/><use transform="matrix(0.007777777777777778,0,0,0.007777777777777778,18.044444444444444,0)" xlink:href="#W"/><use transform="matrix(0.007777777777777778,0,0,0.007777777777777778,27.066666666666666,0)" xlink:href="#U"/><use transform="matrix(0.007777777777777778,0,0,0.007777777777777778,30.73777777777778,0)" xlink:href="#S"/><use transform="matrix(0.007777777777777778,0,0,0.007777777777777778,39.760000000000005,0)" xlink:href="#aj"/><use transform="matrix(0.007777777777777778,0,0,0.007777777777777778,48.78222222222223,0)" xlink:href="#ak"/><use transform="matrix(0.007777777777777778,0,0,0.007777777777777778,57.80444444444446,0)" xlink:href="#U"/><use transform="matrix(0.007777777777777778,0,0,0.007777777777777778,61.475555555555566,0)" xlink:href="#X"/><use transform="matrix(0.007777777777777778,0,0,0.007777777777777778,70.49777777777778,0)" xlink:href="#X"/><use transform="matrix(0.007777777777777778,0,0,0.007777777777777778,79.52000000000001,0)" xlink:href="#U"/><use transform="matrix(0.007777777777777778,0,0,0.007777777777777778,83.19111111111113,0)" xlink:href="#S"/><use transform="matrix(0.007777777777777778,0,0,0.007777777777777778,92.21333333333335,0)" xlink:href="#T"/><use transform="matrix(0.007777777777777778,0,0,0.007777777777777778,101.23555555555558,0)" xlink:href="#S"/></g><g id="m"><use transform="matrix(0.007777777777777778,0,0,0.007777777777777778,0,0)" xlink:href="#S"/><use transform="matrix(0.007777777777777778,0,0,0.007777777777777778,9.022222222222222,0)" xlink:href="#T"/><use transform="matrix(0.007777777777777778,0,0,0.007777777777777778,18.044444444444444,0)" xlink:href="#U"/><use transform="matrix(0.007777777777777778,0,0,0.007777777777777778,21.715555555555554,0)" xlink:href="#V"/><use transform="matrix(0.007777777777777778,0,0,0.007777777777777778,30.737777777777776,0)" xlink:href="#T"/><use transform="matrix(0.007777777777777778,0,0,0.007777777777777778,39.76,0)" xlink:href="#U"/><use transform="matrix(0.007777777777777778,0,0,0.007777777777777778,43.43111111111111,0)" xlink:href="#T"/><use transform="matrix(0.007777777777777778,0,0,0.007777777777777778,52.45333333333333,0)" xlink:href="#U"/><use transform="matrix(0.007777777777777778,0,0,0.007777777777777778,56.12444444444444,0)" xlink:href="#T"/><use transform="matrix(0.007777777777777778,0,0,0.007777777777777778,65.14666666666666,0)" xlink:href="#ad"/><use transform="matrix(0.007777777777777778,0,0,0.007777777777777778,71.36888888888889,0)" xlink:href="#S"/><use transform="matrix(0.007777777777777778,0,0,0.007777777777777778,80.39111111111112,0)" xlink:href="#aj"/></g><path fill="#326ce5" d="M411-924c4 46 7 96 7 143V0H120v-1457c80 4 178-13 242 9 22 7 32 24 48 43l692 875c-5-51-8-104-8-156v-771h298V0c-80-4-180 12-242-12-18-7-35-23-52-44" id="al"/><g id="n"><use transform="matrix(0.011111111111111112,0,0,0.011111111111111112,0,0)" xlink:href="#al"/><use transform="matrix(0.011111111111111112,0,0,0.011111111111111112,16.8,0)" xlink:href="#Q"/><use transform="matrix(0.011111111111111112,0,0,0.011111111111111112,29.68888888888889,0)" xlink:href="#R"/><use transform="matrix(0.011111111111111112,0,0,0.011111111111111112,42.57777777777778,0)" xlink:href="#ac"/></g><use transform="matrix(0.011111111111111112,0,0,0.011111111111111112,0,0)" xlink:href="#S" id="o"/><use transform="matrix(0.007777777777777778,0,0,0.007777777777777778,0,0)" xlink:href="#X" id="p"/><g id="q"><use transform="matrix(0.007777777777777778,0,0,0.007777777777777778,0,0)" xlink:href="#S"/><use transform="matrix(0.007777777777777778,0,0,0.007777777777777778,9.022222222222222,0)" xlink:href="#T"/><use transform="matrix(0.007777777777777778,0,0,0.007777777777777778,18.044444444444444,0)" xlink:href="#U"/><use transform="matrix(0.007777777777777778,0,0,0.007777777777777778,21.715555555555554,0)" xlink:href="#V"/><use transform="matrix(0.007777777777777778,0,0,0.007777777777777778,30.737777777777776,0)" xlink:href="#T"/><use transform="matrix(0.007777777777777778,0,0,0.007777777777777778,39.76,0)" xlink:href="#U"/><use transform="matrix(0.007777777777777778,0,0,0.007777777777777778,43.43111111111111,0)" xlink:href="#W"/><use transform="matrix(0.007777777777777778,0,0,0.007777777777777778,52.45333333333333,0)" xlink:href="#U"/><use transform="matrix(0.007777777777777778,0,0,0.007777777777777778,56.12444444444444,0)" xlink:href="#W"/></g><use transform="matrix(0.007777777777777778,0,0,0.007777777777777778,0,0)" xlink:href="#ae" id="r"/><g id="s"><use transform="matrix(0.007777777777777778,0,0,0.007777777777777778,0,0)" xlink:href="#S"/><use transform="matrix(0.007777777777777778,0,0,0.007777777777777778,9.022222222222222,0)" xlink:href="#T"/><use transform="matrix(0.007777777777777778,0,0,0.007777777777777778,18.044444444444444,0)" xlink:href="#U"/><use transform="matrix(0.007777777777777778,0,0,0.007777777777777778,21.715555555555554,0)" xlink:href="#V"/><use transform="matrix(0.007777777777777778,0,0,0.007777777777777778,30.737777777777776,0)" xlink:href="#T"/><use transform="matrix(0.007777777777777778,0,0,0.007777777777777778,39.76,0)" xlink:href="#U"/><use transform="matrix(0.007777777777777778,0,0,0.007777777777777778,43.43111111111111,0)" xlink:href="#W"/><use transform="matrix(0.007777777777777778,0,0,0.007777777777777778,52.45333333333333,0)" xlink:href="#U"/><use transform="matrix(0.007777777777777778,0,0,0.007777777777777778,56.12444444444444,0)" xlink:href="#X"/></g><use transform="matrix(0.011111111111111112,0,0,0.011111111111111112,0,0)" xlink:href="#W" id="t"/><path fill="#326ce5" d="M742-496c1-143-86-218-230-217-65 0-129 12-192 37l-192-52 124-729h746v128c-2 105-73 144-182 144H468l-41 241c117-22 260-19 356 21 160 66 269 196 269 412 0 259-142 412-334 489-144 58-355 43-480-18-72-35-139-78-192-130l96-128c23-39 88-53 134-24 64 41 126 89 236 87 160-2 228-102 230-261" id="am"/><use transform="matrix(0.007777777777777778,0,0,0.007777777777777778,0,0)" xlink:href="#am" id="u"/><g id="v"><use transform="matrix(0.007777777777777778,0,0,0.007777777777777778,0,0)" xlink:href="#S"/><use transform="matrix(0.007777777777777778,0,0,0.007777777777777778,9.022222222222222,0)" xlink:href="#T"/><use transform="matrix(0.007777777777777778,0,0,0.007777777777777778,18.044444444444444,0)" xlink:href="#U"/><use transform="matrix(0.007777777777777778,0,0,0.007777777777777778,21.715555555555554,0)" xlink:href="#V"/><use transform="matrix(0.007777777777777778,0,0,0.007777777777777778,30.737777777777776,0)" xlink:href="#T"/><use transform="matrix(0.007777777777777778,0,0,0.007777777777777778,39.76,0)" xlink:href="#U"/><use transform="matrix(0.007777777777777778,0,0,0.007777777777777778,43.43111111111111,0)" xlink:href="#X"/><use transform="matrix(0.007777777777777778,0,0,0.007777777777777778,52.45333333333333,0)" xlink:href="#U"/><use transform="matrix(0.007777777777777778,0,0,0.007777777777777778,56.12444444444444,0)" xlink:href="#W"/></g><use transform="matrix(0.007777777777777778,0,0,0.007777777777777778,0,0)" xlink:href="#aj" id="w"/><g id="x"><use transform="matrix(0.007777777777777778,0,0,0.007777777777777778,0,0)" xlink:href="#S"/><use transform="matrix(0.007777777777777778,0,0,0.007777777777777778,9.022222222222222,0)" xlink:href="#T"/><use transform="matrix(0.007777777777777778,0,0,0.007777777777777778,18.044444444444444,0)" xlink:href="#U"/><use transform="matrix(0.007777777777777778,0,0,0.007777777777777778,21.715555555555554,0)" xlink:href="#V"/><use transform="matrix(0.007777777777777778,0,0,0.007777777777777778,30.737777777777776,0)" xlink:href="#T"/><use transform="matrix(0.007777777777777778,0,0,0.007777777777777778,39.76,0)" xlink:href="#U"/><use transform="matrix(0.007777777777777778,0,0,0.007777777777777778,43.43111111111111,0)" xlink:href="#X"/><use transform="matrix(0.007777777777777778,0,0,0.007777777777777778,52.45333333333333,0)" xlink:href="#U"/><use transform="matrix(0.007777777777777778,0,0,0.007777777777777778,56.12444444444444,0)" xlink:href="#X"/></g><use transform="matrix(0.011111111111111112,0,0,0.011111111111111112,0,0)" xlink:href="#X" id="y"/><path fill="#326ce5" d="M1058-1457v260H460v340h458v250H460v347h598V0H120v-1457h938" id="an"/><path fill="#326ce5" d="M612-820c-81 1-134 39-182 81V0H120v-1037h192c70-3 79 59 94 112 74-70 159-128 302-128 236 0 352 157 352 394V0H750v-659c0-96-44-162-138-161" id="ao"/><g id="z"><use transform="matrix(0.007777777777777778,0,0,0.007777777777777778,0,0)" xlink:href="#an"/><use transform="matrix(0.007777777777777778,0,0,0.007777777777777778,8.78888888888889,0)" xlink:href="#ah"/><use transform="matrix(0.007777777777777778,0,0,0.007777777777777778,15.011111111111113,0)" xlink:href="#ai"/><use transform="matrix(0.007777777777777778,0,0,0.007777777777777778,24.033333333333335,0)" xlink:href="#ac"/><use transform="matrix(0.007777777777777778,0,0,0.007777777777777778,32.495555555555555,0)" xlink:href="#Z"/><use transform="matrix(0.007777777777777778,0,0,0.007777777777777778,38.92,0)" xlink:href="#ao"/><use transform="matrix(0.007777777777777778,0,0,0.007777777777777778,47.94222222222223,0)" xlink:href="#ac"/><use transform="matrix(0.007777777777777778,0,0,0.007777777777777778,56.40444444444445,0)" xlink:href="#ah"/></g><path fill="#326ce5" d="M430-1497v839c57 1 95 0 120-37l196-292c22-33 48-50 100-50h284L862-668c-25 34-54 60-90 82 30 23 56 53 78 90L1142 0H862c-52-1-83-16-102-52L564-419c-19-31-28-40-74-40h-60V0H120v-1497h310" id="ap"/><g id="A"><use transform="matrix(0.007777777777777778,0,0,0.007777777777777778,0,0)" xlink:href="#al"/><use transform="matrix(0.007777777777777778,0,0,0.007777777777777778,11.760000000000002,0)" xlink:href="#ac"/><use transform="matrix(0.007777777777777778,0,0,0.007777777777777778,20.222222222222225,0)" xlink:href="#ah"/><use transform="matrix(0.007777777777777778,0,0,0.007777777777777778,26.444444444444446,0)" xlink:href="#af"/><use transform="matrix(0.007777777777777778,0,0,0.007777777777777778,39.09111111111112,0)" xlink:href="#Q"/><use transform="matrix(0.007777777777777778,0,0,0.007777777777777778,48.113333333333344,0)" xlink:href="#Z"/><use transform="matrix(0.007777777777777778,0,0,0.007777777777777778,54.53777777777779,0)" xlink:href="#ap"/></g><path fill="#333" d="M1392 0h-340v-616H460V0H120v-1457h340v609h592v-609h340V0" id="aq"/><path fill="#333" d="M366-1016c125-49 306-50 431 0 190 75 313 236 313 495 0 261-123 423-313 499-125 50-306 50-431 0C175-98 50-259 50-521c0-260 126-421 316-495zm4 497c0 183 45 305 212 305 163 0 208-124 208-305 0-182-44-304-208-304-167 0-212 121-212 304" id="ar"/><path fill="#333" d="M56-725c5-259 241-361 518-318 104 16 188 63 250 124l-70 109c-15 22-27 35-60 35-81 0-126-60-222-60-69 0-122 24-122 85 0 75 88 87 152 109 156 54 328 97 328 304C830-90 649 16 394 16 236 16 110-38 22-112c35-48 58-109 103-146 116-42 152 74 285 65 73-5 130-23 130-90 0-78-87-92-154-113C219-449 52-505 56-725" id="as"/><path fill="#333" d="M774-74c-71 55-172 90-290 90-196 0-304-108-304-303v-536c-70 1-146 12-146-61v-121l165-32 61-253c16-78 146-38 230-48v303h252v212H490v515c0 45 23 83 68 83 48 0 88-50 122 4" id="at"/><g id="B"><use transform="matrix(0.011111111111111112,0,0,0.011111111111111112,0,0)" xlink:href="#aq"/><use transform="matrix(0.011111111111111112,0,0,0.011111111111111112,16.8,0)" xlink:href="#ar"/><use transform="matrix(0.011111111111111112,0,0,0.011111111111111112,29.68888888888889,0)" xlink:href="#as"/><use transform="matrix(0.011111111111111112,0,0,0.011111111111111112,39.46666666666667,0)" xlink:href="#at"/></g><path fill="#333" d="M411-924c4 46 7 96 7 143V0H120v-1457c80 4 178-13 242 9 22 7 32 24 48 43l692 875c-5-51-8-104-8-156v-771h298V0c-80-4-180 12-242-12-18-7-35-23-52-44" id="au"/><path fill="#333" d="M1024-162C926-48 781 16 578 16 325 16 169-111 94-299c-49-123-59-309-6-439 74-183 225-315 476-315 298 0 466 176 466 475 0 66-3 115-70 115H362c16 155 90 243 244 247 98 2 155-39 218-71 37-18 85-16 110 14zM752-643c-3-120-60-196-182-196-129 0-185 80-205 196h387" id="av"/><path fill="#333" d="M0-1037h248c41-1 80 21 86 54 48 222 103 438 144 667 67-218 130-445 190-668 20-73 133-51 220-54 41-1 78 23 86 54 60 224 119 448 180 670 45-228 105-446 154-669 7-31 44-55 82-54h236L1304 0h-252c-34-2-47-21-56-52-61-218-128-430-183-654-54 226-124 435-185 654-10 35-32 52-66 52H322" id="aw"/><path fill="#333" d="M768-795c-14 65-88 29-146 29-81 0-145 43-192 130V0H120v-1037c73 2 156-8 222 4 64 11 52 105 69 166 65-96 144-190 283-190 47 0 85 11 114 34" id="ax"/><path fill="#333" d="M430-1497v839c57 1 95 0 120-37l196-292c22-33 48-50 100-50h284L862-668c-25 34-54 60-90 82 30 23 56 53 78 90L1142 0H862c-52-1-83-16-102-52L564-419c-19-31-28-40-74-40h-60V0H120v-1497h310" id="ay"/><path fill="#333" d="M276 14c-107 0-176-65-176-171 0-105 70-171 176-171 105 0 176 66 176 171 0 106-70 171-176 171zm0-683c-107 0-176-65-176-171 0-105 70-171 176-171 105 0 176 66 176 171 0 106-70 171-176 171" id="az"/><g id="C"><use transform="matrix(0.011111111111111112,0,0,0.011111111111111112,0,0)" xlink:href="#au"/><use transform="matrix(0.011111111111111112,0,0,0.011111111111111112,16.8,0)" xlink:href="#av"/><use transform="matrix(0.011111111111111112,0,0,0.011111111111111112,28.88888888888889,0)" xlink:href="#at"/><use transform="matrix(0.011111111111111112,0,0,0.011111111111111112,37.77777777777778,0)" xlink:href="#aw"/><use transform="matrix(0.011111111111111112,0,0,0.011111111111111112,55.84444444444445,0)" xlink:href="#ar"/><use transform="matrix(0.011111111111111112,0,0,0.011111111111111112,68.73333333333333,0)" xlink:href="#ax"/><use transform="matrix(0.011111111111111112,0,0,0.011111111111111112,77.91111111111111,0)" xlink:href="#ay"/><use transform="matrix(0.011111111111111112,0,0,0.011111111111111112,90.71111111111111,0)" xlink:href="#az"/></g><path fill="#333" d="M252-224h280c2-282-4-570 3-848L370-935c-34 38-114 22-140-12l-98-130 454-381h256v1234h240V0H252v-224" id="aA"/><path fill="#333" d="M721-616c-89 49-239 66-351 22-151-59-258-184-258-395 0-232 131-372 302-445 119-51 300-48 421-3 208 78 330 294 279 588-23 135-79 239-146 334L654-69C627-30 562 0 494 0H208c171-206 345-408 513-616zm-97-178c131 0 208-88 206-218-2-138-74-216-210-216-130 0-198 86-198 216 0 145 67 218 202 218" id="aB"/><path fill="#333" d="M86-1041c45-269 211-432 516-432 221 0 368 97 436 253 40 91 43 220 10 318-51 154-158 259-262 365L501-245c130-48 308-33 481-35 63-1 108 39 108 100V0H66c-2-94 2-169 54-222l420-423c101-110 202-200 212-395 7-138-99-209-232-170-58 17-99 60-118 117-22 66-66 96-152 81" id="aC"/><path fill="#333" d="M236 14C129 14 60-51 60-157c0-105 70-171 176-171 105 0 176 66 176 171 0 106-70 171-176 171" id="aD"/><path fill="#333" d="M532-896c89-35 216-36 312-1 162 59 274 190 274 411 0 240-136 387-313 462-125 53-311 53-436 2C185-96 66-254 66-506c0-186 74-313 166-437l328-443c29-40 94-71 166-71h276c-157 187-313 374-470 561zm46 197c-139 0-214 93-214 235 0 148 69 235 218 235 140 0 226-93 226-234 0-150-82-236-230-236" id="aE"/><path fill="#333" d="M855-759c146 52 245 150 245 342 0 296-219 433-520 433-237 0-404-93-482-255-25-53-38-113-38-178 2-193 98-290 245-342-122-54-197-152-197-317 0-200 127-309 282-366 112-41 268-41 380 0 155 58 282 165 282 366 0 164-76 263-197 317zM380-423c2 130 68 205 200 205 131 0 199-75 200-205 2-138-61-211-200-211s-202 73-200 211zm30-647c-2 122 46 200 170 200s171-78 170-200c-1-110-58-177-170-177-113 0-169 67-170 177" id="aF"/><path fill="#333" d="M114-1041c45-269 211-432 516-432 212 0 355 88 422 233 21 45 30 94 30 145 2 183-80 277-216 323 161 56 242 166 242 329 0 307-208 452-512 459-308 7-443-159-522-390 80-24 165-97 266-58 18 7 29 21 38 37 53 91 95 158 214 158 155 0 236-120 200-281-25-110-146-118-296-120v-214c165-2 284-26 284-189 0-138-100-208-232-169-58 17-99 60-118 117-22 66-66 96-152 81" id="aG"/><path fill="#333" d="M1079-1060c53 176 54 486 0 662-72 237-212 414-501 414-287 0-427-178-498-414-53-176-53-486 0-662 71-237 210-413 498-413s430 177 501 413zM659-254c162-89 162-477 122-722-22-135-65-248-203-248-137 0-179 115-200 248-38 243-40 632 120 722 52 29 109 29 161 0" id="aH"/><path fill="#333" d="M270-12C242 51 193 99 108 99H-24l568-1491c23-62 77-104 156-105h132" id="aI"/><path fill="#333" d="M1126-566c-12 87 37 230-60 231h-90V0H706v-335H120c-39 1-76-30-82-63L6-551l674-906h296v891h150zm-420 0c3-181-8-372 10-539L331-566h375" id="aJ"/><g id="D"><use transform="matrix(0.011111111111111112,0,0,0.011111111111111112,0,0)" xlink:href="#aA"/><use transform="matrix(0.011111111111111112,0,0,0.011111111111111112,12.88888888888889,0)" xlink:href="#aB"/><use transform="matrix(0.011111111111111112,0,0,0.011111111111111112,25.77777777777778,0)" xlink:href="#aC"/><use transform="matrix(0.011111111111111112,0,0,0.011111111111111112,38.66666666666667,0)" xlink:href="#aD"/><use transform="matrix(0.011111111111111112,0,0,0.011111111111111112,43.91111111111112,0)" xlink:href="#aA"/><use transform="matrix(0.011111111111111112,0,0,0.011111111111111112,56.80000000000001,0)" xlink:href="#aE"/><use transform="matrix(0.011111111111111112,0,0,0.011111111111111112,69.6888888888889,0)" xlink:href="#aF"/><use transform="matrix(0.011111111111111112,0,0,0.011111111111111112,82.57777777777778,0)" xlink:href="#aD"/><use transform="matrix(0.011111111111111112,0,0,0.011111111111111112,87.82222222222222,0)" xlink:href="#aG"/><use transform="matrix(0.011111111111111112,0,0,0.011111111111111112,100.71111111111111,0)" xlink:href="#aG"/><use transform="matrix(0.011111111111111112,0,0,0.011111111111111112,113.60000000000001,0)" xlink:href="#aD"/><use transform="matrix(0.011111111111111112,0,0,0.011111111111111112,118.84444444444443,0)" xlink:href="#aH"/><use transform="matrix(0.011111111111111112,0,0,0.011111111111111112,131.73333333333332,0)" xlink:href="#aI"/><use transform="matrix(0.011111111111111112,0,0,0.011111111111111112,140.6222222222222,0)" xlink:href="#aC"/><use transform="matrix(0.011111111111111112,0,0,0.011111111111111112,153.5111111111111,0)" xlink:href="#aJ"/></g><path fill="#333" d="M1504-1022c73 177 73 411 0 587-110 265-336 451-702 451-365 0-594-187-704-451-73-177-73-412 0-588 110-265 339-450 704-450s592 187 702 451zM802-264c280 0 410-182 410-465 0-282-131-465-410-465-281 0-412 182-412 465 0 284 130 465 412 465" id="aK"/><path fill="#333" d="M694 0H412L10-1037h258c43-1 77 23 86 54 69 227 146 446 203 684 58-239 142-456 211-684 10-29 42-55 82-54h246" id="aL"/><path fill="#333" d="M440-1497V0H130v-1497h310" id="aM"/><path fill="#333" d="M572-1057c257 0 406 153 406 409V0c-68-4-160 9-208-12-30-14-45-72-60-107C623-47 539 18 382 16 189 13 70-77 70-270c0-183 145-251 311-298 78-21 176-33 295-36 8-132-26-216-144-216-125 0-159 78-268 78-94 0-104-95-146-151 112-100 257-164 454-164zM366-285c-2 73 41 96 114 96 97 0 140-35 196-89v-144c-104 4-184 15-248 46-39 19-61 43-62 91" id="aN"/><path fill="#333" d="M544 269c-20 41-37 60-98 60H214L414-91 0-1037h274c46-1 73 23 84 54 69 190 150 371 209 571 68-189 134-380 199-571 10-28 45-55 82-54h250" id="aO"/><g id="E"><use transform="matrix(0.011111111111111112,0,0,0.011111111111111112,0,0)" xlink:href="#aK"/><use transform="matrix(0.011111111111111112,0,0,0.011111111111111112,17.77777777777778,0)" xlink:href="#aL"/><use transform="matrix(0.011111111111111112,0,0,0.011111111111111112,29.622222222222227,0)" xlink:href="#av"/><use transform="matrix(0.011111111111111112,0,0,0.011111111111111112,41.711111111111116,0)" xlink:href="#ax"/><use transform="matrix(0.011111111111111112,0,0,0.011111111111111112,50.88888888888889,0)" xlink:href="#aM"/><use transform="matrix(0.011111111111111112,0,0,0.011111111111111112,57.22222222222222,0)" xlink:href="#aN"/><use transform="matrix(0.011111111111111112,0,0,0.011111111111111112,68.75555555555556,0)" xlink:href="#aO"/></g><g id="F"><use transform="matrix(0.011111111111111112,0,0,0.011111111111111112,0,0)" xlink:href="#aA"/><use transform="matrix(0.011111111111111112,0,0,0.011111111111111112,12.88888888888889,0)" xlink:href="#aH"/><use transform="matrix(0.011111111111111112,0,0,0.011111111111111112,25.77777777777778,0)" xlink:href="#aD"/><use transform="matrix(0.011111111111111112,0,0,0.011111111111111112,31.022222222222222,0)" xlink:href="#aB"/><use transform="matrix(0.011111111111111112,0,0,0.011111111111111112,43.91111111111111,0)" xlink:href="#aH"/><use transform="matrix(0.011111111111111112,0,0,0.011111111111111112,56.800000000000004,0)" xlink:href="#aD"/><use transform="matrix(0.011111111111111112,0,0,0.011111111111111112,62.044444444444444,0)" xlink:href="#aH"/><use transform="matrix(0.011111111111111112,0,0,0.011111111111111112,74.93333333333334,0)" xlink:href="#aD"/><use transform="matrix(0.011111111111111112,0,0,0.011111111111111112,80.17777777777778,0)" xlink:href="#aH"/><use transform="matrix(0.011111111111111112,0,0,0.011111111111111112,93.06666666666668,0)" xlink:href="#aI"/><use transform="matrix(0.011111111111111112,0,0,0.011111111111111112,101.95555555555553,0)" xlink:href="#aA"/><use transform="matrix(0.011111111111111112,0,0,0.011111111111111112,114.84444444444443,0)" xlink:href="#aE"/></g><g id="G"><use transform="matrix(0.007777777777777778,0,0,0.007777777777777778,0,0)" xlink:href="#S"/><use transform="matrix(0.007777777777777778,0,0,0.007777777777777778,9.022222222222222,0)" xlink:href="#T"/><use transform="matrix(0.007777777777777778,0,0,0.007777777777777778,18.044444444444444,0)" xlink:href="#U"/><use transform="matrix(0.007777777777777778,0,0,0.007777777777777778,21.715555555555554,0)" xlink:href="#V"/><use transform="matrix(0.007777777777777778,0,0,0.007777777777777778,30.737777777777776,0)" xlink:href="#T"/><use transform="matrix(0.007777777777777778,0,0,0.007777777777777778,39.76,0)" xlink:href="#U"/><use transform="matrix(0.007777777777777778,0,0,0.007777777777777778,43.43111111111111,0)" xlink:href="#W"/><use transform="matrix(0.007777777777777778,0,0,0.007777777777777778,52.45333333333333,0)" xlink:href="#U"/><use transform="matrix(0.007777777777777778,0,0,0.007777777777777778,56.12444444444444,0)" xlink:href="#T"/><use transform="matrix(0.007777777777777778,0,0,0.007777777777777778,65.14666666666666,0)" xlink:href="#ad"/><use transform="matrix(0.007777777777777778,0,0,0.007777777777777778,71.36888888888889,0)" xlink:href="#W"/><use transform="matrix(0.007777777777777778,0,0,0.007777777777777778,80.39111111111112,0)" xlink:href="#ae"/></g><g id="H"><use transform="matrix(0.007777777777777778,0,0,0.007777777777777778,0,0)" xlink:href="#T"/><use transform="matrix(0.007777777777777778,0,0,0.007777777777777778,9.022222222222222,0)" xlink:href="#U"/><use transform="matrix(0.007777777777777778,0,0,0.007777777777777778,12.693333333333333,0)" xlink:href="#T"/><use transform="matrix(0.007777777777777778,0,0,0.007777777777777778,21.715555555555554,0)" xlink:href="#U"/><use transform="matrix(0.007777777777777778,0,0,0.007777777777777778,25.386666666666663,0)" xlink:href="#T"/><use transform="matrix(0.007777777777777778,0,0,0.007777777777777778,34.40888888888888,0)" xlink:href="#U"/><use transform="matrix(0.007777777777777778,0,0,0.007777777777777778,38.07999999999999,0)" xlink:href="#T"/><use transform="matrix(0.007777777777777778,0,0,0.007777777777777778,47.10222222222221,0)" xlink:href="#ad"/><use transform="matrix(0.007777777777777778,0,0,0.007777777777777778,53.32444444444443,0)" xlink:href="#T"/></g><g id="I"><use transform="matrix(0.007777777777777778,0,0,0.007777777777777778,0,0)" xlink:href="#S"/><use transform="matrix(0.007777777777777778,0,0,0.007777777777777778,9.022222222222222,0)" xlink:href="#T"/><use transform="matrix(0.007777777777777778,0,0,0.007777777777777778,18.044444444444444,0)" xlink:href="#U"/><use transform="matrix(0.007777777777777778,0,0,0.007777777777777778,21.715555555555554,0)" xlink:href="#V"/><use transform="matrix(0.007777777777777778,0,0,0.007777777777777778,30.737777777777776,0)" xlink:href="#T"/><use transform="matrix(0.007777777777777778,0,0,0.007777777777777778,39.76,0)" xlink:href="#U"/><use transform="matrix(0.007777777777777778,0,0,0.007777777777777778,43.43111111111111,0)" xlink:href="#W"/><use transform="matrix(0.007777777777777778,0,0,0.007777777777777778,52.45333333333333,0)" xlink:href="#U"/><use transform="matrix(0.007777777777777778,0,0,0.007777777777777778,56.12444444444444,0)" xlink:href="#S"/></g><g id="J"><use transform="matrix(0.007777777777777778,0,0,0.007777777777777778,0,0)" xlink:href="#S"/><use transform="matrix(0.007777777777777778,0,0,0.007777777777777778,9.022222222222222,0)" xlink:href="#V"/><use transform="matrix(0.007777777777777778,0,0,0.007777777777777778,18.044444444444444,0)" xlink:href="#W"/><use transform="matrix(0.007777777777777778,0,0,0.007777777777777778,27.066666666666666,0)" xlink:href="#U"/><use transform="matrix(0.007777777777777778,0,0,0.007777777777777778,30.73777777777778,0)" xlink:href="#S"/><use transform="matrix(0.007777777777777778,0,0,0.007777777777777778,39.760000000000005,0)" xlink:href="#aj"/><use transform="matrix(0.007777777777777778,0,0,0.007777777777777778,48.78222222222223,0)" xlink:href="#ak"/><use transform="matrix(0.007777777777777778,0,0,0.007777777777777778,57.80444444444446,0)" xlink:href="#U"/><use transform="matrix(0.007777777777777778,0,0,0.007777777777777778,61.475555555555566,0)" xlink:href="#X"/><use transform="matrix(0.007777777777777778,0,0,0.007777777777777778,70.49777777777778,0)" xlink:href="#X"/><use transform="matrix(0.007777777777777778,0,0,0.007777777777777778,79.52000000000001,0)" xlink:href="#U"/><use transform="matrix(0.007777777777777778,0,0,0.007777777777777778,83.19111111111113,0)" xlink:href="#S"/><use transform="matrix(0.007777777777777778,0,0,0.007777777777777778,92.21333333333335,0)" xlink:href="#T"/><use transform="matrix(0.007777777777777778,0,0,0.007777777777777778,101.23555555555558,0)" xlink:href="#W"/></g><g id="K"><use transform="matrix(0.007777777777777778,0,0,0.007777777777777778,0,0)" xlink:href="#S"/><use transform="matrix(0.007777777777777778,0,0,0.007777777777777778,9.022222222222222,0)" xlink:href="#T"/><use transform="matrix(0.007777777777777778,0,0,0.007777777777777778,18.044444444444444,0)" xlink:href="#U"/><use transform="matrix(0.007777777777777778,0,0,0.007777777777777778,21.715555555555554,0)" xlink:href="#V"/><use transform="matrix(0.007777777777777778,0,0,0.007777777777777778,30.737777777777776,0)" xlink:href="#T"/><use transform="matrix(0.007777777777777778,0,0,0.007777777777777778,39.76,0)" xlink:href="#U"/><use transform="matrix(0.007777777777777778,0,0,0.007777777777777778,43.43111111111111,0)" xlink:href="#X"/><use transform="matrix(0.007777777777777778,0,0,0.007777777777777778,52.45333333333333,0)" xlink:href="#U"/><use transform="matrix(0.007777777777777778,0,0,0.007777777777777778,56.12444444444444,0)" xlink:href="#T"/><use transform="matrix(0.007777777777777778,0,0,0.007777777777777778,65.14666666666666,0)" xlink:href="#ad"/><use transform="matrix(0.007777777777777778,0,0,0.007777777777777778,71.36888888888889,0)" xlink:href="#W"/><use transform="matrix(0.007777777777777778,0,0,0.007777777777777778,80.39111111111112,0)" xlink:href="#ae"/></g><g id="L"><use transform="matrix(0.007777777777777778,0,0,0.007777777777777778,0,0)" xlink:href="#S"/><use transform="matrix(0.007777777777777778,0,0,0.007777777777777778,9.022222222222222,0)" xlink:href="#T"/><use transform="matrix(0.007777777777777778,0,0,0.007777777777777778,18.044444444444444,0)" xlink:href="#U"/><use transform="matrix(0.007777777777777778,0,0,0.007777777777777778,21.715555555555554,0)" xlink:href="#V"/><use transform="matrix(0.007777777777777778,0,0,0.007777777777777778,30.737777777777776,0)" xlink:href="#T"/><use transform="matrix(0.007777777777777778,0,0,0.007777777777777778,39.76,0)" xlink:href="#U"/><use transform="matrix(0.007777777777777778,0,0,0.007777777777777778,43.43111111111111,0)" xlink:href="#X"/><use transform="matrix(0.007777777777777778,0,0,0.007777777777777778,52.45333333333333,0)" xlink:href="#U"/><use transform="matrix(0.007777777777777778,0,0,0.007777777777777778,56.12444444444444,0)" xlink:href="#S"/></g><g id="M"><use transform="matrix(0.007777777777777778,0,0,0.007777777777777778,0,0)" xlink:href="#S"/><use transform="matrix(0.007777777777777778,0,0,0.007777777777777778,9.022222222222222,0)" xlink:href="#V"/><use transform="matrix(0.007777777777777778,0,0,0.007777777777777778,18.044444444444444,0)" xlink:href="#W"/><use transform="matrix(0.007777777777777778,0,0,0.007777777777777778,27.066666666666666,0)" xlink:href="#U"/><use transform="matrix(0.007777777777777778,0,0,0.007777777777777778,30.73777777777778,0)" xlink:href="#S"/><use transform="matrix(0.007777777777777778,0,0,0.007777777777777778,39.760000000000005,0)" xlink:href="#aj"/><use transform="matrix(0.007777777777777778,0,0,0.007777777777777778,48.78222222222223,0)" xlink:href="#ak"/><use transform="matrix(0.007777777777777778,0,0,0.007777777777777778,57.80444444444446,0)" xlink:href="#U"/><use transform="matrix(0.007777777777777778,0,0,0.007777777777777778,61.475555555555566,0)" xlink:href="#X"/><use transform="matrix(0.007777777777777778,0,0,0.007777777777777778,70.49777777777778,0)" xlink:href="#X"/><use transform="matrix(0.007777777777777778,0,0,0.007777777777777778,79.52000000000001,0)" xlink:href="#U"/><use transform="matrix(0.007777777777777778,0,0,0.007777777777777778,83.19111111111113,0)" xlink:href="#S"/><use transform="matrix(0.007777777777777778,0,0,0.007777777777777778,92.21333333333335,0)" xlink:href="#T"/><use transform="matrix(0.007777777777777778,0,0,0.007777777777777778,101.23555555555558,0)" xlink:href="#X"/></g><path fill="#fa2a6a" d="M1058-1457v260H460v340h458v250H460v347h598V0H120v-1457h938" id="aP"/><path fill="#fa2a6a" d="M612-820c-81 1-134 39-182 81V0H120v-1037h192c70-3 79 59 94 112 74-70 159-128 302-128 236 0 352 157 352 394V0H750v-659c0-96-44-162-138-161" id="aQ"/><path fill="#fa2a6a" d="M958-162C862-50 728 16 528 16 297 16 159-117 90-293c-49-124-51-307-4-437 70-194 223-323 484-323 177 0 287 60 380 153-36 45-67 98-109 136-73 33-113-34-174-50-21-5-46-11-77-11-169 4-215 131-220 304-6 205 103 354 302 295 57-17 74-74 140-74 25 0 42 10 56 27" id="aR"/><path fill="#fa2a6a" d="M768-795c-14 65-88 29-146 29-81 0-145 43-192 130V0H120v-1037c73 2 156-8 222 4 64 11 52 105 69 166 65-96 144-190 283-190 47 0 85 11 114 34" id="aS"/><path fill="#fa2a6a" d="M544 269c-20 41-37 60-98 60H214L414-91 0-1037h274c46-1 73 23 84 54 69 190 150 371 209 571 68-189 134-380 199-571 10-28 45-55 82-54h250" id="aT"/><path fill="#fa2a6a" d="M666 16c-111 3-175-34-236-85v398H120v-1366h192c78-3 80 73 99 128 76-81 169-148 323-148 201 0 299 140 348 307 38 128 40 313-4 439-63 179-182 321-412 327zm124-543c0-153-21-288-164-293-99-3-151 43-196 98v440c40 45 88 70 162 70 160 0 198-144 198-315" id="aU"/><path fill="#fa2a6a" d="M774-74c-71 55-172 90-290 90-196 0-304-108-304-303v-536c-70 1-146 12-146-61v-121l165-32 61-253c16-78 146-38 230-48v303h252v212H490v515c0 45 23 83 68 83 48 0 88-50 122 4" id="aV"/><path fill="#fa2a6a" d="M1024-162C926-48 781 16 578 16 325 16 169-111 94-299c-49-123-59-309-6-439 74-183 225-315 476-315 298 0 466 176 466 475 0 66-3 115-70 115H362c16 155 90 243 244 247 98 2 155-39 218-71 37-18 85-16 110 14zM752-643c-3-120-60-196-182-196-129 0-185 80-205 196h387" id="aW"/><path fill="#fa2a6a" d="M494-1057c110-3 175 36 236 85v-525h310V0H848c-79 3-80-75-100-131C671-51 581 16 426 16 225 16 127-123 78-290c-38-128-40-313 4-440 62-181 183-321 412-327zM370-515c0 153 21 293 164 293 98 0 150-43 196-97v-440c-41-45-87-70-162-70-160 0-198 144-198 314" id="aX"/><g id="N"><use transform="matrix(0.007777777777777778,0,0,0.007777777777777778,0,0)" xlink:href="#aP"/><use transform="matrix(0.007777777777777778,0,0,0.007777777777777778,8.78888888888889,0)" xlink:href="#aQ"/><use transform="matrix(0.007777777777777778,0,0,0.007777777777777778,17.81111111111111,0)" xlink:href="#aR"/><use transform="matrix(0.007777777777777778,0,0,0.007777777777777778,25.371111111111112,0)" xlink:href="#aS"/><use transform="matrix(0.007777777777777778,0,0,0.007777777777777778,31.79555555555556,0)" xlink:href="#aT"/><use transform="matrix(0.007777777777777778,0,0,0.007777777777777778,40.39777777777778,0)" xlink:href="#aU"/><use transform="matrix(0.007777777777777778,0,0,0.007777777777777778,49.38888888888889,0)" xlink:href="#aV"/><use transform="matrix(0.007777777777777778,0,0,0.007777777777777778,55.611111111111114,0)" xlink:href="#aW"/><use transform="matrix(0.007777777777777778,0,0,0.007777777777777778,64.07333333333334,0)" xlink:href="#aX"/></g><path fill="#fa2a6a" d="M1504-1022c73 177 73 411 0 587-110 265-336 451-702 451-365 0-594-187-704-451-73-177-73-412 0-588 110-265 339-450 704-450s592 187 702 451zM802-264c280 0 410-182 410-465 0-282-131-465-410-465-281 0-412 182-412 465 0 284 130 465 412 465" id="aY"/><path fill="#fa2a6a" d="M694 0H412L10-1037h258c43-1 77 23 86 54 69 227 146 446 203 684 58-239 142-456 211-684 10-29 42-55 82-54h246" id="aZ"/><path fill="#fa2a6a" d="M440-1497V0H130v-1497h310" id="ba"/><path fill="#fa2a6a" d="M572-1057c257 0 406 153 406 409V0c-68-4-160 9-208-12-30-14-45-72-60-107C623-47 539 18 382 16 189 13 70-77 70-270c0-183 145-251 311-298 78-21 176-33 295-36 8-132-26-216-144-216-125 0-159 78-268 78-94 0-104-95-146-151 112-100 257-164 454-164zM366-285c-2 73 41 96 114 96 97 0 140-35 196-89v-144c-104 4-184 15-248 46-39 19-61 43-62 91" id="bb"/><g id="O"><use transform="matrix(0.007777777777777778,0,0,0.007777777777777778,0,0)" xlink:href="#aY"/><use transform="matrix(0.007777777777777778,0,0,0.007777777777777778,12.444444444444445,0)" xlink:href="#aZ"/><use transform="matrix(0.007777777777777778,0,0,0.007777777777777778,20.735555555555557,0)" xlink:href="#aW"/><use transform="matrix(0.007777777777777778,0,0,0.007777777777777778,29.19777777777778,0)" xlink:href="#aS"/><use transform="matrix(0.007777777777777778,0,0,0.007777777777777778,35.62222222222223,0)" xlink:href="#ba"/><use transform="matrix(0.007777777777777778,0,0,0.007777777777777778,40.05555555555556,0)" xlink:href="#bb"/><use transform="matrix(0.007777777777777778,0,0,0.007777777777777778,48.128888888888895,0)" xlink:href="#aT"/></g></defs></g></svg>