<svg fill="none" height="302" viewBox="0 0 1018 302" width="1018" xmlns="http://www.w3.org/2000/svg"><g opacity=".168" stroke="#fff"><path d="m197.724-227.47c-2.233 46.729-.576 152.3434 65.652 253.2359 64.393 98.1101 153.469 136.3241 247.843 176.8441 112.73 48.401 224.004 96.133 338.667 49.691 81.774-33.125 128.543-99.288 150.644-136.943" stroke-width=".92"/><path d="m191.864-221.54c-1.161 47.243 1.955 152.2442 68.677 249.9876 65.161 95.4004 153.143 128.6184 247.115 168.2594 112.661 47.419 220.446 100.845 334.247 56.442 80.78-31.741 128.692-97.668 154.584-143.334" stroke-width=".91"/><path d="m186.011-215.545c-.095 47.708 4.477 152.1519 71.757 246.7415 65.935 92.7075 152.818 120.9045 246.377 159.6975 112.607 46.463 217.002 105.82 329.837 63.195 79.864-30.194 128.848-96.081 158.528-149.75" stroke-width=".9"/><path d="m180.158-209.582c.986 48.197 7.024 152.0609 74.806 243.4938 66.726 90.0062 152.501 113.1832 245.649 151.0972 112.537 45.496 213.494 110.647 325.417 69.97 78.888-28.689 128.995-94.429 162.469-156.1101" stroke-width=".89"/><path d="m174.297-203.619c2.066 48.687 9.586 151.9623 77.862 240.2462 67.525 87.3148 152.176 105.4608 244.92 142.5118 112.468 44.539 209.979 115.474 321.001 76.682 77.913-27.225 129.135-92.818 166.412-162.5017" stroke-width=".88"/><path d="m168.444-197.656c3.14 49.176 12.165 151.8729 80.911 236.9985 68.347 84.6235 151.85 97.7555 244.184 133.9265 112.366 43.572 206.469 120.309 316.589 83.435 76.939-25.762 129.299-91.199 170.347-168.8949" stroke-width=".87"/><path d="m162.592-191.693c4.212 49.665 14.751 151.776 83.959 233.7508 69.208 81.9752 151.451 90.2212 243.454 125.3502 112.244 42.851 202.939 125.118 312.172 90.178 75.964-24.305 129.446-89.588 174.289-175.2706" stroke-width=".86"/><path d="m156.729-185.698c5.293 50.154 17.37 151.6804 87.016 230.5032 70.019 79.1868 151.119 82.4988 242.72 116.7328 112.178 41.958 199.416 129.912 307.76 96.93 74.958-22.851 129.603-87.968 178.233-181.6782" stroke-width=".85"/><path d="m150.895-179.767c6.365 50.644 19.996 151.5784 90.071 227.2567 70.879 76.5543 150.815 74.8343 241.982 108.1793 112.1 40.992 195.884 134.747 303.342 103.674 73.992-21.394 129.75-86.349 182.175-188.0621" stroke-width=".84"/><path d="m145.026-173.804c7.439 51.133 22.64 151.4756 93.121 224.0082 71.766 73.8588 150.456 67.1348 241.244 99.6018 112.029 40.05 192.346 139.54 298.932 110.418 73.002-19.946 129.906-84.737 186.118-194.4537" stroke-width=".83"/><path d="m139.166-167.842c8.519 51.623 25.308 151.3675 96.177 220.7616 72.661 71.1554 150.122 59.4364 240.516 91.0164 111.958 39.117 188.798 144.342 294.513 117.17 72.013-18.507 130.054-83.117 190.053-200.8457" stroke-width=".82"/><path d="m133.313-161.879c9.592 52.112 27.992 151.2516 99.242 217.5147 73.58 68.4543 149.796 51.7303 239.779 82.4313 111.895 38.175 185.253 149.127 290.103 123.922 71.015-17.076 130.209-81.506 193.995-207.2376" stroke-width=".81"/><path d="m127.461-155.916c10.663 52.625 30.7 151.12094 102.274 214.2662 74.524 65.7448 149.471 44.0248 239.058 73.8548 111.816 37.225 181.691 153.903 285.677 130.657 70.01-15.645 130.356-79.878 197.937-213.6212" stroke-width=".79"/><path d="m121.601-149.953c11.745 53.0905 33.449 150.97605 105.33 211.0185 75.476 63.0295 149.161 36.3197 238.314 65.2535 111.76 36.324 178.137 158.687 281.274 137.41 69.006-14.223 130.505-78.267 201.881-220.0138" stroke-width=".78"/><path d="m115.748-143.99c12.818 53.5876 36.191 150.83111 108.379 207.7708 76.453 60.2982 148.828 28.6054 237.552 56.6822 111.724 35.336 174.602 163.433 276.856 144.162 68.018-12.815 130.693-76.646 205.823-226.3972" stroke-width=".77"/><path d="m109.896-138.027c13.89 54.0688 38.934 150.6622 111.427 204.5231 77.457 57.5129 148.502 20.8915 236.848 48.0989 111.644 34.386 171.009 168.183 272.445 150.914 66.99-11.41 130.808-75.036 209.757-232.7897" stroke-width=".76"/><path d="m104.034-132.064c14.964 54.5576 41.716 150.511 114.524 201.2776 78.466 54.7834 148.185 13.1779 236.119 39.5224 111.567 33.419 167.434 172.91 268.027 157.649 65.979-10.004 130.964-73.408 213.7-239.1732" stroke-width=".75"/><path d="m98.1816-126.101c16.0364 55.0468 44.5184 150.273 117.5324 198.0278 79.501 51.9992 147.86 5.456 235.382 30.9362 111.505 32.463 163.867 177.639 263.616 164.402 64.969-8.621 131.112-71.797 217.644-245.565" stroke-width=".74"/><path d="m92.3281-120.122c17.1099 55.52 47.3309 150.0035 120.5989 194.733 80.547 49.192 147.544-2.2655 234.654 22.3517 111.443 31.4963 160.283 182.3813 259.198 171.1533 63.949-7.24 131.267-70.177 221.586-251.9569" stroke-width=".73"/><path d="m86.4688-114.176c18.1902 56.0261 50.1632 149.7997 123.6372 191.5333 81.617 46.3617 147.242-9.9861 233.916 13.7744 111.391 30.5243 156.706 187.0043 254.788 177.8973 62.932-5.874 131.415-68.566 225.53-258.3725" stroke-width=".72"/><path d="m80.6006-108.214c19.2625 56.5156 53.0094 149.5001 126.6854 188.2859 82.705 43.5001 146.902-17.7169 233.188 5.1895 111.345 29.5596 153.139 191.7246 250.385 184.6426 61.915-4.509 131.571-66.947 229.463-264.73357" stroke-width=".71"/><path d="m74.7637-102.25c20.3352 57.0046 55.8543 149.2242 129.7183 185.0372 83.778 40.6138 146.577-25.4468 232.443-3.3963 111.3 28.5791 149.567 196.3961 245.965 191.4261 60.889-3.159 131.703-65.328 233.406-271.125122" stroke-width=".7"/><path d="m68.9033-96.2872c21.416 57.4939 58.7407 148.9022 132.7987 181.7909 84.846 37.6873 146.285-33.183 231.714-11.9732 111.215 27.5965 145.965 201.0335 241.54 198.1375 59.874-1.817 131.867-63.716 237.349-277.51705" stroke-width=".69"/><path d="m63.0508-90.3242c22.4888 57.9831 61.5822 148.546 135.8472 178.5432 85.986 34.733 145.945-40.9138 230.985-20.5581 111.154 26.6149 142.355 205.6711 237.122 204.8891 58.858-.491 132.022-62.096 241.291-283.9088" stroke-width=".68"/><path d="m57.1982-84.3612c23.5616 58.4723 64.4398 148.1666 138.8958 175.2955 87.089 31.7437 145.629-48.6593 230.249-29.1435 111.101 25.626 138.809 210.2882 232.711 211.6332 57.842.835 132.17-60.477 245.234-290.2925" stroke-width=".67"/><path d="m51.3379-78.4065c24.6099 58.9682 67.3071 147.7636 141.9531 172.0323 88.202 28.7152 145.313-56.3968 229.517-37.6805 111.042 24.6287 135.234 214.8707 228.277 218.3757 56.81 2.176 132.326-58.857 249.169-296.6843" stroke-width=".65"/><path d="m45.4856-72.4435c25.7151 59.4511 70.1604 147.3199 144.9994 168.8086 89.302 25.6459 144.999-64.1503 228.784-46.3058 111.005 23.6326 131.572 221.3977 223.914 225.1307 55.883 2.263 132.474-57.246 253.112-303.0765" stroke-width=".64"/><path d="m39.6329-66.4805c26.7882 59.93221 72.9991 146.8513 148.0481 165.5608 90.402 22.5447 144.715-72.0544 228.079-54.8894 110.973 22.4202 128.109 223.9901 219.463 231.8811 54.817 4.724 132.628-55.587 257.055-309.4687" stroke-width=".63"/><path d="m33.7718-60.5178c27.8682 60.4377542 75.8392 146.3587 151.1052 162.3138 91.488 19.402 144.389-79.7686 227.316-63.4524 110.913 21.439 124.562 228.5104 215.055 238.6014 53.818 6.027 132.775-53.976 260.996-315.8446" stroke-width=".62"/><path d="m27.9193-54.5468c28.9408 60.92695 78.6567 145.8409 154.1527 159.0738 92.554 16.211 144.089-87.497 226.589-72.061 110.864 20.5304 121.022 233.031 210.636 245.361 52.831 7.266 132.923-52.364 264.94-322.2443" stroke-width=".61"/><path d="m22.0668-48.5919c30.0137 61.4162 81.4672 145.2987 157.2012 155.8259 93.603 13.012 143.74-95.2199 225.853-80.646 110.787 19.5402 117.506 237.537 206.223 252.137 51.844 8.521 133.08-50.752 268.875-328.6365" stroke-width=".6"/><path d="m16.2303-42.628c31.0864 61.9053 84.2397 144.722 160.2497 152.578 94.639 9.771 143.423-102.93322 225.156-89.2211 110.717 18.5745 113.992 242.0031 201.805 258.8721 50.873 9.762 133.26-49.139 272.818-335.0277" stroke-width=".59"/></g></svg>