<svg width="744" height="72" viewBox="0 0 744 72" fill="none" xmlns="http://www.w3.org/2000/svg">
<path fill-rule="evenodd" clip-rule="evenodd" d="M107.718 27.3055C107.172 26.664 106.968 25.8787 107.105 24.9471C107.242 24.0181 107.678 23.2309 108.412 22.59C109.146 21.9479 109.977 21.6277 110.906 21.6277C111.835 21.6277 112.573 21.9485 113.118 22.59C113.664 23.2303 113.868 24.0175 113.731 24.9471C113.594 25.8787 113.159 26.664 112.425 27.3055C111.689 27.9458 110.857 28.2672 109.929 28.2672C109 28.2672 108.263 27.9464 107.717 27.3055H107.718ZM100.31 30.5076C99.2201 30.5076 98.206 31.3933 98.0556 32.4748L96.9477 40.5305C96.8256 41.408 96.4039 42.1688 95.6837 42.8141C94.963 43.4594 94.151 43.7821 93.2508 43.7821C92.3746 43.7821 91.6645 43.4663 91.1225 42.8336C90.5787 42.2015 90.3703 41.4338 90.495 40.5305L91.1635 35.6417C91.1836 34.6662 90.4496 33.9029 89.4374 33.9029H86.7873C85.7751 33.9029 84.8284 34.6662 84.5791 35.6417L83.8886 40.5305C83.7639 41.4344 83.3409 42.2015 82.6221 42.8336C81.9032 43.4663 81.1057 43.7821 80.2307 43.7821C79.3545 43.7821 78.6394 43.4594 78.0854 42.8141C77.5309 42.1695 77.315 41.408 77.4364 40.5305L78.9208 29.8415C79.0781 28.8008 78.46 27.7135 77.517 27.2722C77.517 27.2722 66.3388 22.6258 65.6105 22.327C64.8727 22.0257 64.0368 22.7011 63.751 23.8273L63.068 26.5158C62.7816 27.642 63.4268 28.9225 64.5001 29.3613L71.9915 32.4535L70.8691 40.5305C70.4927 43.2391 71.1291 45.5567 72.7815 47.4788C74.4332 49.4021 76.6112 50.3626 79.3167 50.3626C81.8138 50.3626 84.0944 49.5245 86.156 47.8466C87.8027 49.5245 89.8636 50.3626 92.3362 50.3626C95.041 50.3626 97.4859 49.4021 99.6721 47.4788C101.858 45.5567 103.139 43.2391 103.516 40.5305C103.516 40.5305 104.69 32.0066 104.711 31.8578C104.813 31.1146 104.006 30.5082 102.916 30.5082H100.31V30.5076ZM111.292 30.4159H108.95C107.97 30.4159 107.058 31.2112 106.923 32.183C106.923 32.183 104.564 48.9778 104.554 49.06C104.461 49.7273 105.186 50.2734 106.166 50.2734H108.507C109.487 50.2734 110.398 49.4781 110.533 48.5064L112.903 31.6293C112.996 30.962 112.27 30.4159 111.292 30.4159ZM151.435 32.6236C150.093 31.0436 148.275 30.2533 145.982 30.2533C143.688 30.2533 141.547 30.7542 139.436 32.5715L140.931 22.2372C141.025 21.5568 140.285 21 139.286 21H136.898C135.897 21 134.967 21.811 134.83 22.8035L130.992 49.1303C130.898 49.8102 131.638 50.3676 132.637 50.3676H135.026C136.007 50.3676 136.92 49.5854 137.083 48.6181H137.086L138.289 40.4074C138.532 38.7483 139.17 37.4904 140.205 36.6348C141.239 35.7786 142.368 35.3505 143.588 35.3505C146.056 35.3505 147.052 36.9838 146.574 40.2492L145.293 49.1052C145.199 49.7857 145.939 50.3425 146.939 50.3425H149.327C150.327 50.3425 151.257 49.5314 151.395 48.539L152.871 38.9455C153.256 36.3115 152.778 34.2036 151.436 32.6236H151.435ZM129.243 35.5338L130.36 34.1113C130.834 33.5087 130.845 32.5816 130.389 31.9476C130.189 31.6042 129.607 31.2709 129.076 30.9846L129.016 30.952C127.335 30.043 125.683 29.7003 123.494 29.807C121.116 29.9231 119.086 30.6231 117.463 31.8879C115.826 33.1622 114.901 34.7761 114.715 36.6838C114.525 38.6197 115.181 40.0647 116.66 40.9793C117.364 41.4225 118.006 41.7602 118.57 41.9837C119.131 42.2078 119.955 42.4701 121.022 42.7652C122.058 43.0533 122.848 43.3803 123.366 43.7338C123.842 44.0602 124.055 44.4098 124.016 44.8028C123.976 45.2133 123.763 45.5454 123.367 45.8172C122.955 46.0997 122.404 46.2604 121.732 46.293C119.914 46.3815 118.203 45.9584 116.648 45.035L115.495 44.3979C115.304 44.2941 115.088 44.2454 114.871 44.2573C114.515 44.2724 114.183 44.4426 113.962 44.7231L112.303 46.9163C112.133 47.1411 112.067 47.4104 112.114 47.674C112.16 47.9301 112.308 48.1511 112.532 48.3005C113.076 48.7273 113.64 49.0996 114.212 49.4078C114.971 49.8229 115.773 50.1552 116.604 50.399C118.171 50.861 119.727 51.0581 121.224 50.9853C123.481 50.8748 125.432 50.1654 127.022 48.8761C128.622 47.5786 129.533 45.8913 129.733 43.8612C129.935 41.801 129.343 40.3396 127.972 39.5161C127.269 39.1005 126.648 38.7929 126.126 38.6021C125.607 38.4138 124.728 38.1476 123.515 37.8124C122.317 37.4822 121.457 37.1797 120.958 36.9148C120.519 36.6812 120.333 36.3686 120.376 35.9311C120.456 35.1107 121.302 34.6556 122.887 34.579C124.161 34.5162 125.44 34.81 126.682 35.4471C126.937 35.5871 127.218 35.7547 127.475 35.9192C127.794 36.0968 128.039 36.1678 128.274 36.1558C128.619 36.1395 128.918 35.9481 129.243 35.5344V35.5338Z" fill="#D2DBDF"/>
<path fill-rule="evenodd" clip-rule="evenodd" d="M211.614 24.6949C210.913 25.9539 210.538 27.3615 210.521 28.7949V34.5921C210.537 36.0257 210.912 37.4336 211.614 38.6921C212.636 40.4034 214.736 42.3661 219.064 42.3661H219.107C223.443 42.3661 225.557 40.4034 226.564 38.6921C227.261 37.4315 227.636 36.025 227.657 34.5921V28.7949C227.654 27.3596 227.278 25.9486 226.564 24.6949C225.535 22.9767 223.443 21.014 219.107 21.014H219.064C214.736 21.014 212.614 22.9767 211.614 24.6949ZM216.205 37.4548C215.419 36.7647 214.921 35.8149 214.807 34.7877V28.6133C214.921 27.5861 215.419 26.6363 216.205 25.9462C216.992 25.2562 218.011 24.8745 219.068 24.8745C220.124 24.8745 221.144 25.2562 221.93 25.9462C222.716 26.6363 223.214 27.5861 223.328 28.6133V34.7877C223.214 35.8149 222.716 36.7647 221.93 37.4548C221.144 38.1448 220.124 38.5265 219.068 38.5265C218.011 38.5265 216.992 38.1448 216.205 37.4548ZM209.178 38.0435C209.206 38.09 209.22 38.1425 209.221 38.1962L209.25 38.1753V38.308C209.203 38.3991 209.16 38.4784 209.115 38.5593C209.092 38.6024 209.068 38.646 209.043 38.6921C208.021 40.4034 205.921 42.3661 201.593 42.3661H201.543C197.214 42.3661 195.093 40.4034 194.093 38.6921C193.393 37.4329 193.017 36.0254 193 34.5921V28.7809C193.002 27.3457 193.378 25.9347 194.093 24.6809C195.114 22.9627 197.214 21 201.543 21H201.593C205.921 21 208.043 22.9627 209.043 24.6809C209.114 24.7927 209.221 25.0162 209.221 25.0371V25.1489C209.221 25.2007 209.205 25.2512 209.176 25.2945C209.146 25.3378 209.105 25.3721 209.057 25.3934L205.821 27.0417C205.78 27.0661 205.734 27.0805 205.686 27.0836C205.628 27.0849 205.571 27.0689 205.522 27.0377C205.474 27.0065 205.436 26.9616 205.414 26.909C205.085 26.1907 204.541 25.5869 203.854 25.1778C203.166 24.7687 202.368 24.5735 201.564 24.6181C201.014 24.5877 200.464 24.6672 199.946 24.8516C199.429 25.036 198.955 25.3215 198.554 25.6908C198.153 26.06 197.833 26.5052 197.614 26.9992C197.395 27.4933 197.281 28.0258 197.279 28.5644V34.7388C197.281 35.2774 197.395 35.8099 197.614 36.304C197.833 36.798 198.153 37.2432 198.554 37.6124C198.955 37.9817 199.429 38.2672 199.946 38.4516C200.464 38.636 201.014 38.7155 201.564 38.6852C202.361 38.7316 203.154 38.5444 203.841 38.1474C204.528 37.7504 205.078 37.1618 205.421 36.457C205.445 36.4116 205.48 36.3733 205.524 36.3462C205.568 36.3191 205.619 36.3043 205.671 36.3034C205.719 36.3077 205.765 36.322 205.807 36.3453L209.064 37.9308C209.111 37.9582 209.151 37.997 209.178 38.0435ZM247.671 21.7055V41.6676L247.664 41.6886C247.669 41.7589 247.65 41.8289 247.608 41.8863C247.566 41.9438 247.505 41.985 247.435 42.0029H243.992C243.914 42.001 243.84 41.9693 243.785 41.9145C243.73 41.8597 243.7 41.7861 243.7 41.7095V40.3126C242.991 41.001 242.148 41.5417 241.219 41.9018C240.291 42.262 239.298 42.4342 238.3 42.408H238.25C234.357 42.408 232.464 40.4523 231.55 38.734C230.907 37.4575 230.566 36.0566 230.55 34.6341V21.7264C230.551 21.651 230.583 21.5792 230.637 21.5259C230.692 21.4725 230.765 21.4418 230.843 21.44H234.542C234.621 21.44 234.696 21.47 234.752 21.5235C234.808 21.577 234.841 21.6498 234.842 21.7264V34.7877C234.956 35.8149 235.454 36.7647 236.241 37.4548C237.027 38.1448 238.047 38.5265 239.103 38.5265C240.16 38.5265 241.179 38.1448 241.965 37.4548C242.752 36.7647 243.25 35.8149 243.364 34.7877V28.7949V21.7055C243.366 21.6289 243.398 21.556 243.454 21.5025C243.51 21.449 243.585 21.4191 243.664 21.4191H247.378C247.455 21.4209 247.529 21.4516 247.583 21.5049C247.638 21.5582 247.669 21.6301 247.671 21.7055ZM307.371 28.7951C307.356 27.3749 307.022 25.9753 306.393 24.6952C305.478 22.9769 303.593 21.0142 299.693 21.0142H299.65C298.655 20.9901 297.666 21.1633 296.741 21.5234C295.817 21.8835 294.976 22.4231 294.271 23.1096V21.7127C294.269 21.6361 294.237 21.5633 294.181 21.5098C294.125 21.4563 294.05 21.4263 293.971 21.4263H290.528C290.451 21.4281 290.378 21.4589 290.323 21.5122C290.269 21.5655 290.237 21.6373 290.236 21.7127V41.7517C290.241 41.8239 290.274 41.8915 290.329 41.9408C290.383 41.99 290.454 42.0173 290.528 42.0171H294.207C294.244 42.019 294.282 42.0136 294.317 42.0013C294.353 41.989 294.385 41.9699 294.413 41.9453C294.441 41.9206 294.464 41.8908 294.48 41.8576C294.496 41.8244 294.505 41.7884 294.507 41.7517V28.4808C294.646 27.4541 295.169 26.5141 295.974 25.842C296.78 25.1699 297.812 24.8133 298.871 24.8411C299.929 24.8689 300.94 25.279 301.708 25.9924C302.475 26.7057 302.946 27.6719 303.028 28.7044V41.7587C303.028 41.8365 303.06 41.9111 303.116 41.9661C303.172 42.0211 303.249 42.052 303.328 42.052H307.064C307.142 42.0502 307.217 42.0185 307.272 41.9637C307.326 41.9089 307.357 41.8353 307.357 41.7587V28.7951H307.371ZM329.706 21.4194C329.706 21.3428 329.675 21.2692 329.62 21.2144C329.566 21.1596 329.491 21.1279 329.413 21.1261C328.562 21.0722 327.709 21.2069 326.919 21.5201C326.129 21.8333 325.421 22.317 324.849 22.9351C323.62 21.8874 321.706 21.0422 318.791 21.0143H318.741C314.413 21.0143 312.313 22.8862 311.292 24.5066C310.593 25.6959 310.217 27.0398 310.199 28.4111V28.6066C310.228 29.9794 310.624 31.3208 311.349 32.4971C311.883 33.3629 312.617 34.0948 313.492 34.6344C312.506 35.171 311.695 35.9677 311.151 36.9335C310.606 37.8993 310.351 38.9953 310.413 40.0964V41.633C310.412 41.6715 310.419 41.7098 310.434 41.7454C310.449 41.7811 310.471 41.8134 310.499 41.8403C310.527 41.8672 310.561 41.8881 310.598 41.9017C310.634 41.9153 310.674 41.9213 310.713 41.9194H323.084C323.655 41.8958 324.216 42.071 324.667 42.4137C325.118 42.7564 325.431 43.2446 325.549 43.7913C325.82 44.9298 325.363 46.4873 323.406 47.5141C323.349 47.5341 323.299 47.5698 323.262 47.6169C323.225 47.664 323.203 47.7205 323.199 47.7795C323.2 47.8356 323.215 47.8906 323.241 47.9402L324.863 50.8108C324.888 50.8618 324.926 50.9054 324.974 50.9372C325.021 50.9691 325.077 50.9882 325.134 50.9924C325.179 51.0026 325.225 51.0026 325.27 50.9924C326.762 50.3026 327.969 49.135 328.689 47.6832C329.41 46.2313 329.603 44.5822 329.234 43.009C328.935 41.6514 328.161 40.4379 327.047 39.5765C325.933 38.7151 324.547 38.2593 323.127 38.2874L314.556 38.4899C315.026 36.0106 317.942 36.0164 318.385 36.0173L318.406 36.0173H318.841H318.884C323.213 36.0173 325.313 34.1455 326.334 32.525C327.033 31.3381 327.412 29.9969 327.434 28.6276V28.425C327.399 27.3564 327.157 26.304 326.72 25.3238C327.531 24.8109 328.494 24.5774 329.456 24.6603C329.53 24.6587 329.602 24.63 329.656 24.5796C329.71 24.5292 329.743 24.4608 329.748 24.3879V21.4054L329.706 21.4194ZM323.027 28.6625C323.027 29.4657 322.434 32.3853 318.741 32.3853C315.049 32.3853 314.456 29.4657 314.456 28.6625V28.3901C314.456 27.5938 315.049 24.6743 318.741 24.6463C322.434 24.6184 323.027 27.5659 323.027 28.3901V28.6625ZM282.213 21.6083C286.02 23.11 286.863 26.9446 286.863 28.593L286.842 28.6139V28.6838V30.7792V41.7381C286.838 41.8141 286.805 41.886 286.75 41.9391C286.694 41.9923 286.62 42.0228 286.542 42.0245H283.285C283.207 42.0228 283.133 41.9923 283.077 41.9391C283.021 41.886 282.988 41.8141 282.985 41.7381V40.7533C281.576 41.8514 279.822 42.4366 278.021 42.4086H277.971C274.078 42.3667 272.185 40.5437 271.271 38.9163C270.63 37.7265 270.287 36.4052 270.271 35.0608C270.286 33.7095 270.629 32.381 271.271 31.1843C272.185 29.5429 274.078 27.6919 277.971 27.6919H278.021C279.759 27.6953 281.45 28.241 282.849 29.2495V28.6698C282.847 28.6449 282.848 28.6018 282.849 28.5433C282.857 27.9772 282.886 25.9663 280.756 25.0168C278.406 23.9691 274.571 25.2543 273.142 25.9528C273.105 25.9632 273.065 25.9632 273.028 25.9528C272.969 25.9574 272.911 25.9427 272.861 25.9111C272.812 25.8794 272.775 25.8327 272.756 25.7782L271.706 22.8795C271.683 22.8388 271.668 22.7935 271.663 22.7468C271.667 22.6842 271.691 22.6243 271.732 22.5764C271.773 22.5285 271.829 22.4951 271.892 22.4814C273.163 21.9226 278.406 20.1066 282.213 21.6083ZM282.507 36.6534C282.724 36.1853 282.84 35.679 282.849 35.1655V34.8303C282.849 34.0061 282.278 31.1354 278.706 31.1354C278.182 31.0963 277.656 31.1623 277.159 31.3295C276.662 31.4966 276.205 31.7613 275.816 32.1073C275.427 32.4533 275.115 32.8733 274.899 33.3416C274.682 33.8098 274.565 34.3164 274.556 34.8303V35.1655C274.556 35.9897 275.135 38.8674 278.706 38.8674C279.23 38.9045 279.756 38.8368 280.252 38.6684C280.749 38.5 281.204 38.2345 281.592 37.888C281.98 37.5416 282.291 37.1215 282.507 36.6534ZM267.064 24.7159C266.157 22.9976 264.264 21.0419 260.364 21.0419H260.321C259.323 21.0205 258.331 21.1949 257.404 21.5548C256.476 21.9147 255.632 22.4528 254.921 23.1373V21.6845C254.919 21.6079 254.887 21.5351 254.831 21.4816C254.774 21.4281 254.699 21.3981 254.621 21.3981H251.185C251.107 21.3981 251.032 21.4281 250.976 21.4816C250.92 21.5351 250.887 21.6079 250.885 21.6845V50.2587C250.887 50.3353 250.92 50.4082 250.976 50.4617C251.032 50.5152 251.107 50.5451 251.185 50.5451H254.942C255.009 50.5369 255.071 50.5057 255.117 50.4572C255.163 50.4086 255.189 50.3457 255.192 50.2797V40.557C256.6 41.7872 258.433 42.4488 260.321 42.408H260.364C264.264 42.408 266.157 40.4523 267.064 38.7341C267.709 37.4582 268.053 36.0572 268.071 34.6341V28.8158C268.053 27.3927 267.709 25.9915 267.064 24.7159ZM263.742 34.7877C263.636 35.8215 263.141 36.7799 262.353 37.477C261.565 38.174 260.541 38.56 259.478 38.56C258.415 38.56 257.391 38.174 256.603 37.477C255.815 36.7799 255.32 35.8215 255.214 34.7877V28.6133C255.32 27.5795 255.815 26.6211 256.603 25.924C257.391 25.227 258.415 24.841 259.478 24.841C260.541 24.841 261.565 25.227 262.353 25.924C263.141 26.6211 263.636 27.5795 263.742 28.6133V34.7877Z" fill="#D2DBDF"/>
<path fill-rule="evenodd" clip-rule="evenodd" d="M615.632 42.0924C614.126 43.6304 612.325 44.4034 610.238 44.4034C608.55 44.4034 607.115 44.0569 605.651 43.2007V39.6752C606.828 40.4792 608.309 41.2449 609.768 41.2449C612.813 41.2449 614.625 39.1355 614.625 36.1462C614.625 33.1545 612.751 30.9825 609.704 30.9825C608.344 30.9825 607.241 31.4748 606.38 32.4616C605.456 33.5306 604.979 35.0585 604.979 37.0787V51H604.75C603.071 51 601.711 49.6312 601.711 47.9421V36.5561C601.711 31.7245 604.646 27.8233 609.689 27.8233C612.18 27.8233 614.203 28.6805 615.736 30.4027C617.178 32.0117 617.893 34.0504 617.893 36.5038C617.893 38.687 617.139 40.5534 615.632 42.0924ZM651.01 41.9744C649.511 43.5952 647.581 44.4034 645.241 44.4034C642.77 44.4034 640.758 43.5461 639.226 41.8243C637.785 40.1954 637.069 38.155 637.069 35.7239C637.069 31.4202 640.37 27.8233 644.712 27.8233C646.387 27.8233 647.842 28.1795 649.311 28.9904V32.5528C648.133 31.7485 646.654 30.9828 645.195 30.9828C642.15 30.9828 640.336 33.0919 640.336 36.0822C640.336 39.0318 642.255 41.2452 645.257 41.2452C646.616 41.2452 647.735 40.7324 648.631 39.6992C649.521 38.6731 649.983 37.1651 649.983 35.1393V24.0579C649.983 22.3684 651.344 21 653.021 21H653.251V35.6588C653.251 38.2403 652.509 40.3535 651.01 41.9744ZM660.238 26.2588C659.895 26.6453 659.403 26.8233 658.804 26.8233C657.681 26.8233 656.879 25.9907 656.879 24.8702C656.879 23.7236 657.667 22.9496 658.803 22.9496C659.897 22.9496 660.728 23.7657 660.728 24.8702C660.728 25.4169 660.568 25.8852 660.238 26.2588ZM676.84 35.1389C676.84 33.8422 676.353 32.8157 675.374 32.0382C674.492 31.3383 673.39 30.9825 672.05 30.9825C669.092 30.9825 667.194 33.3095 667.194 36.179C667.194 38.9402 669.206 41.2449 672.019 41.2449C673.975 41.2449 675.021 40.0948 676.137 38.662V42.793C675.568 43.2216 674.915 43.6889 674.247 43.9633C673.543 44.2592 672.702 44.4034 671.731 44.4034C667.027 44.4034 663.926 40.4827 663.926 35.9516C663.926 33.6249 664.644 31.7015 666.089 30.2015C667.623 28.6119 669.635 27.8233 672.098 27.8233C676.768 27.8233 680.108 30.5222 680.108 35.3987V44.0785H679.88C678.201 44.0785 676.84 42.7094 676.84 41.02V35.1389ZM632.11 34.2071C631.697 32.9219 631.179 32.2893 629.989 31.62C627.157 30.0277 624.37 31.3832 623.074 34.1949L632.11 34.2071ZM629.617 44.355C627.53 44.8014 625.482 44.457 623.484 43.333C621.535 42.2376 620.229 40.6084 619.575 38.4555C618.253 34.1013 620.962 29.2491 625.32 28.0743C627.48 27.4921 629.552 27.7557 631.519 28.8623C634.788 30.7015 635.979 33.5459 635.771 37.211L622.607 37.1846C622.801 38.6794 623.721 39.849 625.016 40.5764C626.328 41.3145 627.534 41.4907 628.652 41.1415C629.896 40.7487 630.904 39.7278 631.724 38.7772L634.407 40.7449C633.312 42.7157 631.823 43.8821 629.617 44.355ZM657.17 28.1488H660.437V44.0782H660.207C658.53 44.0782 657.169 42.7091 657.169 41.0196L657.17 28.1488ZM546.343 44.0782C543.148 44.0782 541.562 41.8905 541.562 38.8343V27.2428C541.562 25.5541 542.922 24.1846 544.6 24.1846H544.829V28.1492H550.35V31.308H544.829V39.201C544.829 40.5433 545.425 40.92 546.698 40.92H550.35V44.0789L546.343 44.0782ZM565.32 42.0646C563.706 43.6224 561.765 44.4031 559.511 44.4031C557.278 44.4031 555.349 43.6217 553.735 42.0646C552.115 40.5011 551.308 38.5112 551.308 36.1135C551.308 31.4351 554.857 27.8236 559.511 27.8236C561.745 27.8236 563.68 28.6106 565.304 30.1792C566.934 31.7523 567.748 33.7364 567.748 36.1135C567.748 38.5112 566.939 40.5008 565.32 42.0646ZM580.597 31.9818C580.118 32.791 579.746 33.3711 579.485 33.7217C579.196 34.103 578.912 34.4077 578.63 34.618C580.9 35.3562 581.746 36.9398 581.746 39.2988V44.0782H581.517C579.839 44.0782 578.478 42.7091 578.478 41.0196V39.623C578.478 38.0955 577.798 37.0592 576.19 37.0592H573.223V44.0782H572.993C571.315 44.0782 569.956 42.7091 569.956 41.0196V24.0579C569.956 22.3684 571.315 21 572.993 21H573.223V33.8683H574.188C575.25 33.8683 575.947 33.5027 576.347 32.8116L579.092 28.1495L582.815 28.1461L580.597 31.9818ZM597.464 42.0649C595.85 43.6227 593.909 44.4034 591.656 44.4034C589.423 44.4034 587.494 43.622 585.879 42.0649C584.259 40.5015 583.452 38.5115 583.452 36.1139C583.452 31.4355 587.001 27.824 591.656 27.824C593.89 27.824 595.824 28.6109 597.448 30.1795C599.078 31.7527 599.892 33.7367 599.892 36.1139C599.892 38.5115 599.084 40.5011 597.464 42.0649ZM595.106 32.4066C594.205 31.4585 593.061 30.9825 591.656 30.9825C588.649 30.9825 586.848 33.189 586.848 36.1139C586.848 38.998 588.691 41.2449 591.656 41.2449C594.62 41.2449 596.463 38.998 596.463 36.1139C596.463 34.5825 596.005 33.3537 595.106 32.4066ZM562.962 32.4066C562.061 31.4585 560.918 30.9825 559.512 30.9825C556.505 30.9825 554.705 33.189 554.705 36.1139C554.705 38.998 556.547 41.2449 559.512 41.2449C562.477 41.2449 564.319 38.998 564.319 36.1139C564.319 34.5825 563.862 33.3537 562.962 32.4066Z" fill="#D2DBDF"/>
<path fill-rule="evenodd" clip-rule="evenodd" d="M494.624 21.0494H487.88C487.617 21.0494 487.375 21.2691 487.375 21.5546V41.873C487.375 42.1366 487.595 42.3783 487.88 42.3783H490.955C491.219 42.3783 491.461 42.1586 491.461 41.873V34.163C491.461 33.9434 491.592 33.7017 491.834 33.7017H491.878H494.69C498.182 33.9653 501.279 31.3953 501.543 27.9028C501.807 24.4102 499.237 21.313 495.744 21.0494C495.349 20.9835 494.997 20.9835 494.624 21.0494ZM494.624 29.66H491.856C491.636 29.66 491.395 29.5282 491.395 29.2866V29.2427V25.5305C491.395 25.3108 491.527 25.0692 491.768 25.0692H491.812H494.624C495.854 25.1131 496.842 26.1235 496.886 27.3317C496.908 28.6276 495.898 29.6161 494.624 29.66ZM480.83 21.0494H477.755C477.491 21.0494 477.25 21.2691 477.25 21.5547V36.0301C477.25 37.5678 475.976 38.6221 474.109 38.6221C472.242 38.6221 471.033 37.5238 471.033 36.0301V21.5547C471.033 21.2911 470.814 21.0494 470.528 21.0494H467.387C467.123 21.0494 466.882 21.2691 466.882 21.5547V36.0301C466.882 39.7424 470.023 42.7078 473.999 42.7078C477.997 42.7078 481.204 39.7643 481.204 36.0301V21.5547C481.247 21.335 481.16 21.1373 480.94 21.0494H480.83ZM370.253 29.66H383.455C383.718 29.66 384.004 29.8357 384.114 30.0993V33.1745C384.114 33.4601 383.872 33.6797 383.608 33.6797H379.391C379.149 33.7236 378.974 33.9213 378.974 34.141V50.4836C378.974 50.7691 378.732 50.9888 378.468 50.9888H375.393C375.108 50.9888 374.888 50.7472 374.888 50.4836V34.119V34.0751C374.888 33.8335 374.646 33.7017 374.427 33.7017H370.253H370.209C369.924 33.7017 369.748 33.504 369.748 33.2404V30.1652C369.748 29.8796 369.99 29.66 370.253 29.66ZM403.115 29.66H400.04C399.776 29.66 399.534 29.8796 399.534 30.1652V37.8752C399.534 38.0949 399.359 38.2925 399.117 38.3365H394.394C394.175 38.3365 393.933 38.2047 393.933 37.9631V37.9191V30.1652C393.933 29.9016 393.714 29.66 393.428 29.66H390.397C390.133 29.66 389.891 29.8796 389.891 30.1652V50.4836C389.891 50.7472 390.111 50.9888 390.397 50.9888H393.34C393.604 50.9888 393.977 50.7691 393.977 50.4836V42.7736C393.977 42.5539 394.109 42.3123 394.351 42.3123H394.394H399.117C399.337 42.3123 399.534 42.488 399.578 42.7296V50.4836C399.578 50.7472 399.798 50.9888 400.084 50.9888H403.159C403.422 50.9888 403.664 50.7691 403.664 50.4836V30.1652C403.598 29.8796 403.379 29.66 403.115 29.66ZM417.261 29.66C420.753 29.66 423.609 32.5155 423.609 36.0081C423.609 38.2266 422.708 39.8741 420.534 41.3238C420.05 41.6972 420.094 42.0048 420.314 42.51L423.631 50.22C423.719 50.3957 423.719 50.5934 423.631 50.7691C423.543 50.9449 423.345 51.0327 423.17 50.9888H419.985C419.633 50.9888 419.304 50.7472 419.216 50.4396L416.075 42.8175C415.987 42.488 415.701 42.3123 415.394 42.3123H414.537H414.493C414.251 42.3123 414.12 42.5539 414.12 42.7736V50.4836C414.12 50.7691 413.878 50.9888 413.614 50.9888H410.539C410.254 50.9888 410.034 50.7472 410.034 50.4836V30.1652C410.034 29.8796 410.276 29.66 410.539 29.66H417.261ZM414.493 38.2925H417.261C417.305 38.2925 417.349 38.2925 417.393 38.2706C418.623 38.2266 419.567 37.1943 419.523 35.9642C419.523 34.756 418.491 33.7017 417.261 33.7017H414.449C414.208 33.7456 414.032 33.9433 414.032 34.163V37.8752V37.9191C414.032 38.1607 414.273 38.2925 414.493 38.2925ZM441.004 46.9032H433.734C433.514 46.9032 433.272 46.7714 433.272 46.5298V46.4859V42.7737C433.272 42.554 433.404 42.3124 433.646 42.3124H433.69H439.049C439.313 42.3124 439.555 42.0927 439.555 41.8072V38.7319C439.555 38.4684 439.335 38.2267 439.049 38.2267H433.734C433.514 38.2267 433.272 38.0949 433.272 37.8533V37.8094V34.0971C433.272 33.8775 433.448 33.6798 433.69 33.6359H441.004C441.268 33.6359 441.51 33.4162 441.51 33.1307V30.0554C441.51 29.7918 441.29 29.5502 441.004 29.5502H429.714C429.45 29.5502 429.209 29.7699 429.209 30.0554V50.3738C429.209 50.6374 429.428 50.879 429.714 50.879H441.004C441.268 50.879 441.51 50.6594 441.51 50.3738V47.2986C441.444 47.079 441.224 46.9032 441.004 46.9032ZM447.991 29.66H454.471C457.963 29.66 460.731 32.4277 461.192 36.4254C461.5 39.0394 461.5 41.6753 461.192 44.3112C460.731 48.2211 457.963 50.9888 454.471 50.9888H447.991C447.705 50.9888 447.485 50.7472 447.485 50.4836V30.1652C447.485 29.8796 447.727 29.66 447.991 29.66ZM454.427 46.9471C455.832 46.9471 456.931 45.8488 457.107 44.3112C457.414 41.6314 457.414 38.9735 457.107 36.3156C456.931 34.778 455.832 33.6797 454.427 33.6797H451.923C451.681 33.7236 451.505 33.9213 451.505 34.141V46.5297V46.5737C451.505 46.8153 451.747 46.9471 451.966 46.9471H454.427Z" fill="#D2DBDF"/>
</svg>
