<svg xmlns="http://www.w3.org/2000/svg" viewBox="0 0 24 24"><defs><style>.cls-1{fill:#cdd8dd;}.cls-2{fill:#572dd1;opacity:0.8;}.cls-3{fill:#fff;}</style></defs><g id="Layer_2" data-name="Layer 2"><path class="cls-1" d="M8.11,12.58a1.33,1.33,0,0,0-1-.41,1.3,1.3,0,0,0-1,.41,1.38,1.38,0,0,0-.4,1,1.36,1.36,0,0,0,.41,1,1.32,1.32,0,0,0,1,.41,1.36,1.36,0,0,0,1-.4,1.32,1.32,0,0,0,.4-1A1.36,1.36,0,0,0,8.11,12.58Zm0,0a1.33,1.33,0,0,0-1-.41,1.3,1.3,0,0,0-1,.41,1.38,1.38,0,0,0-.4,1,1.36,1.36,0,0,0,.41,1,1.32,1.32,0,0,0,1,.41,1.36,1.36,0,0,0,1-.4,1.32,1.32,0,0,0,.4-1A1.36,1.36,0,0,0,8.11,12.58Zm0,0a1.33,1.33,0,0,0-1-.41,1.3,1.3,0,0,0-1,.41,1.38,1.38,0,0,0-.4,1,1.36,1.36,0,0,0,.41,1,1.32,1.32,0,0,0,1,.41,1.36,1.36,0,0,0,1-.4,1.32,1.32,0,0,0,.4-1A1.36,1.36,0,0,0,8.11,12.58Zm0,0a1.33,1.33,0,0,0-1-.41,1.3,1.3,0,0,0-1,.41,1.38,1.38,0,0,0-.4,1,1.36,1.36,0,0,0,.41,1,1.32,1.32,0,0,0,1,.41,1.36,1.36,0,0,0,1-.4,1.32,1.32,0,0,0,.4-1A1.36,1.36,0,0,0,8.11,12.58ZM10,4A10,10,0,1,0,20,14,10,10,0,0,0,10,4Zm-.25,8.51a2.11,2.11,0,0,1,.78-.76,2.39,2.39,0,0,1,2.1-.05,2.18,2.18,0,0,1,.77.65l.07.1-.54.42-.08-.1a1.51,1.51,0,0,0-1.22-.6,1.41,1.41,0,0,0-1,.41,1.42,1.42,0,0,0,0,2,1.51,1.51,0,0,0,1.09.4,1.49,1.49,0,0,0,1.16-.57l.08-.1.55.42-.08.1a2.13,2.13,0,0,1-1.77.83,2.1,2.1,0,0,1-1.55-.6,2.07,2.07,0,0,1-.61-1.52A2.11,2.11,0,0,1,9.75,12.51Zm-4.45,0a2.08,2.08,0,0,1,.76-.77,2.16,2.16,0,0,1,2.12,0,2,2,0,0,1,.77.76,2.09,2.09,0,0,1,.29,1.06A2.18,2.18,0,0,1,9,14.64a2.08,2.08,0,0,1-.77.76,2.05,2.05,0,0,1-1.06.28,2.17,2.17,0,0,1-1.06-.27,2,2,0,0,1-.77-.77A2.11,2.11,0,0,1,5,13.59,2.15,2.15,0,0,1,5.3,12.53Zm-3,2.24-.06-.1.6-.35.06.12c.2.37.41.55.64.55a.56.56,0,0,0,.37-.13.39.39,0,0,0,.14-.3.54.54,0,0,0-.13-.35,2.83,2.83,0,0,0-.52-.48,5.28,5.28,0,0,1-.56-.46,1.17,1.17,0,0,1-.24-.37,1.09,1.09,0,0,1-.07-.4,1,1,0,0,1,.3-.72,1,1,0,0,1,.76-.3,1,1,0,0,1,.62.19,1.87,1.87,0,0,1,.5.51l.07.1-.56.43-.07-.1a1.43,1.43,0,0,0-.32-.35.44.44,0,0,0-.5,0,.29.29,0,0,0-.09.22.37.37,0,0,0,.09.25,3.46,3.46,0,0,0,.55.45,2.78,2.78,0,0,1,.67.65,1.1,1.1,0,0,1-.13,1.49,1.15,1.15,0,0,1-.83.34A1.41,1.41,0,0,1,2.25,14.77ZM16.6,18H3.83a.22.22,0,0,1-.22-.22.22.22,0,0,1,.22-.23H16.6a.22.22,0,0,1,.22.23A.22.22,0,0,1,16.6,18Zm-2-2.41,1.67-1.8a5.68,5.68,0,0,0,.51-.6.74.74,0,0,0,.13-.44.55.55,0,0,0-.18-.41.66.66,0,0,0-.47-.18.62.62,0,0,0-.46.19.93.93,0,0,0-.21.59v.12h-.68v-.14a1.48,1.48,0,0,1,.43-1,1.28,1.28,0,0,1,1-.4,1.3,1.3,0,0,1,.93.37,1.22,1.22,0,0,1,.38.9,1.32,1.32,0,0,1-.21.72,4.31,4.31,0,0,1-.57.72l-.66.72h1.49v.68ZM7.12,15a1.36,1.36,0,0,0,1-.4,1.32,1.32,0,0,0,.4-1,1.36,1.36,0,0,0-.41-1,1.33,1.33,0,0,0-1-.41,1.3,1.3,0,0,0-1,.41,1.38,1.38,0,0,0-.4,1,1.36,1.36,0,0,0,.41,1A1.32,1.32,0,0,0,7.12,15Zm1-2.41a1.33,1.33,0,0,0-1-.41,1.3,1.3,0,0,0-1,.41,1.38,1.38,0,0,0-.4,1,1.36,1.36,0,0,0,.41,1,1.32,1.32,0,0,0,1,.41,1.36,1.36,0,0,0,1-.4,1.32,1.32,0,0,0,.4-1A1.36,1.36,0,0,0,8.11,12.58Zm0,0a1.33,1.33,0,0,0-1-.41,1.3,1.3,0,0,0-1,.41,1.38,1.38,0,0,0-.4,1,1.36,1.36,0,0,0,.41,1,1.32,1.32,0,0,0,1,.41,1.36,1.36,0,0,0,1-.4,1.32,1.32,0,0,0,.4-1A1.36,1.36,0,0,0,8.11,12.58Zm0,0a1.33,1.33,0,0,0-1-.41,1.3,1.3,0,0,0-1,.41,1.38,1.38,0,0,0-.4,1,1.36,1.36,0,0,0,.41,1,1.32,1.32,0,0,0,1,.41,1.36,1.36,0,0,0,1-.4,1.32,1.32,0,0,0,.4-1A1.36,1.36,0,0,0,8.11,12.58Zm0,0a1.33,1.33,0,0,0-1-.41,1.3,1.3,0,0,0-1,.41,1.38,1.38,0,0,0-.4,1,1.36,1.36,0,0,0,.41,1,1.32,1.32,0,0,0,1,.41,1.36,1.36,0,0,0,1-.4,1.32,1.32,0,0,0,.4-1A1.36,1.36,0,0,0,8.11,12.58Z"/><circle class="cls-2" cx="19.5" cy="4.5" r="4.5"/><polygon class="cls-3" points="17.09 5.07 17.81 4.39 18.79 5.3 21.51 2.65 22.22 3.36 18.79 6.67 17.09 5.07"/></g></svg>