<svg xmlns="http://www.w3.org/2000/svg" viewBox="0 0 24 24"><defs><style>.cls-1{fill:#cdd8dd;}.cls-1,.cls-2{opacity:0.8;}.cls-3{fill:#572dd1;}.cls-4{fill:#fff;}</style></defs><g id="Layer_2" data-name="Layer 2"><circle class="cls-1" cx="19.5" cy="4.5" r="4.5"/><g class="cls-2"><circle class="cls-3" cx="10" cy="14" r="10"/></g><path class="cls-4" d="M8.7,18.5A1.25,1.25,0,0,1,8.8,18a1.27,1.27,0,0,1,.27-.41,1.32,1.32,0,0,1,.42-.27,1.24,1.24,0,0,1,1,0,1.17,1.17,0,0,1,.41.27,1.3,1.3,0,0,1,.28.41,1.35,1.35,0,0,1,0,1,1.42,1.42,0,0,1-.28.41,1.33,1.33,0,0,1-.41.27,1.49,1.49,0,0,1-1,0,1.51,1.51,0,0,1-.42-.27A1.39,1.39,0,0,1,8.8,19,1.25,1.25,0,0,1,8.7,18.5ZM11,7.27v4.9c0,.52,0,1-.07,1.53s-.12,1-.21,1.59H9.31c-.09-.56-.15-1.09-.21-1.59S9,12.69,9,12.17V7.27Z"/></g></svg>