<svg xmlns="http://www.w3.org/2000/svg" viewBox="0 0 24 24"><defs><style>.cls-1{fill:#cdd8dd;}.cls-2{opacity:0.8;}.cls-3{fill:#572dd1;}</style></defs><g id="Layer_2" data-name="Layer 2"><circle class="cls-1" cx="18.25" cy="5.75" r="5.75"/><g class="cls-2"><path class="cls-3" d="M17,8.32h-.1A7,7,0,0,0,9.78,1.8a7,7,0,0,0-7.1,6.52H2.59A2.55,2.55,0,0,0,0,10.82V21.5A2.55,2.55,0,0,0,2.59,24H17a2.54,2.54,0,0,0,2.58-2.5V10.82A2.54,2.54,0,0,0,17,8.32Zm-6.17,8.31v2a1,1,0,0,1-2.06,0v-2a2,2,0,0,1-1-1.73,2.07,2.07,0,0,1,4.13,0A2,2,0,0,1,10.81,16.63ZM4.4,8.32A5.33,5.33,0,0,1,9.78,3.45a5.33,5.33,0,0,1,5.38,4.87Z"/></g></g></svg>