<svg xmlns="http://www.w3.org/2000/svg" viewBox="0 0 24 24"><defs><style>.cls-1{fill:#cdd8dd;}.cls-2,.cls-4{opacity:0.8;}.cls-3,.cls-4{fill:#572dd1;}.cls-5{fill:#fff;}</style></defs><g id="Layer_2" data-name="Layer 2"><path class="cls-1" d="M10.43,4.87a8.7,8.7,0,1,1-8.69,8.7,8.71,8.71,0,0,1,8.69-8.7m0-1.73A10.43,10.43,0,1,0,20.86,13.57,10.43,10.43,0,0,0,10.43,3.14Z"/><g class="cls-2"><path class="cls-3" d="M6.85,15.52a.77.77,0,0,1,0,1.08.72.72,0,0,1-.55.24.75.75,0,0,1-.52-.2l-3-2.79-.14-.13.14-.13,3-2.76a.76.76,0,0,1,.52-.21.73.73,0,0,1,.55.25.74.74,0,0,1,0,1.07L4.93,13.72Z"/></g><g class="cls-2"><path class="cls-3" d="M18.17,13.72l-.13.13-3,2.79a.77.77,0,0,1-.52.2A.74.74,0,0,1,14,16.6a.76.76,0,0,1,0-1.08l1.92-1.8L14,11.94a.7.7,0,0,1-.24-.53.77.77,0,0,1,.76-.79.78.78,0,0,1,.52.21l3,2.76Z"/></g><g class="cls-2"><path class="cls-3" d="M12.81,8.73,9.35,19.14a.77.77,0,0,1-.73.52.59.59,0,0,1-.23,0,.77.77,0,0,1-.45-.38.78.78,0,0,1,0-.58L11.36,8.25a.75.75,0,0,1,.72-.53.93.93,0,0,1,.24,0,.76.76,0,0,1,.49,1Z"/></g><circle class="cls-4" cx="19.5" cy="4.5" r="4.5"/><polygon class="cls-5" points="17.09 5.07 17.81 4.39 18.79 5.3 21.51 2.65 22.22 3.36 18.79 6.67 17.09 5.07"/></g></svg>