<svg xmlns="http://www.w3.org/2000/svg" viewBox="0 0 24 24"><defs><style>.cls-1{fill:#cdd8dd;}.cls-2{opacity:0.8;}.cls-3{fill:#572dd1;}</style></defs><g id="Layer_2" data-name="Layer 2"><path class="cls-1" d="M24,9.36v9.3A1.34,1.34,0,0,1,22.65,20h-1.8v2.06a.28.28,0,0,1-.43.24L16.68,20H10.35A1.34,1.34,0,0,1,9,18.66v-4h4.65A2.35,2.35,0,0,0,16,12.3V8h6.65A1.35,1.35,0,0,1,24,9.36Z"/><g class="cls-2"><path class="cls-3" d="M13.65,1.65H1.35A1.35,1.35,0,0,0,0,3v9.3a1.34,1.34,0,0,0,1.35,1.35h1.8v2.06a.28.28,0,0,0,.28.28.28.28,0,0,0,.15,0l3.74-2.3h6.33A1.34,1.34,0,0,0,15,12.3V3A1.35,1.35,0,0,0,13.65,1.65ZM8,11.15a.65.65,0,0,1-.17.26.72.72,0,0,1-.25.16.88.88,0,0,1-.32.07A.78.78,0,0,1,7,11.57a.76.76,0,0,1-.26-.16.65.65,0,0,1-.17-.26.78.78,0,0,1-.06-.31.87.87,0,0,1,.06-.32.62.62,0,0,1,.17-.25A.88.88,0,0,1,7.27,10a.88.88,0,0,1,.32.07.74.74,0,0,1,.25.17.62.62,0,0,1,.17.25.71.71,0,0,1,.07.32A.64.64,0,0,1,8,11.15ZM9.45,6.3a2,2,0,0,1-.3.51,2.33,2.33,0,0,1-.39.38l-.39.3a2.21,2.21,0,0,0-.32.28.5.5,0,0,0-.16.3l-.13.78h-.9L6.77,8V7.89a.71.71,0,0,1,.12-.41,1.43,1.43,0,0,1,.29-.32c.12-.1.24-.2.38-.3a2.76,2.76,0,0,0,.37-.31,1.57,1.57,0,0,0,.3-.38,1,1,0,0,0,.11-.5.74.74,0,0,0-.07-.34.73.73,0,0,0-.2-.26.87.87,0,0,0-.3-.17,1.23,1.23,0,0,0-.39-.06,1.53,1.53,0,0,0-.51.07,1.5,1.5,0,0,0-.36.15l-.25.15a.32.32,0,0,1-.18.06.27.27,0,0,1-.27-.16l-.35-.54a3.25,3.25,0,0,1,.4-.31A3.37,3.37,0,0,1,6.32,4a4.26,4.26,0,0,1,.54-.17,3.24,3.24,0,0,1,.64-.06,2.74,2.74,0,0,1,.84.13A1.87,1.87,0,0,1,9,4.28a1.51,1.51,0,0,1,.42.57,1.79,1.79,0,0,1,.15.75A2.1,2.1,0,0,1,9.45,6.3Z"/></g></g></svg>