<svg height="140" viewBox="0 0 400 140" width="400" xmlns="http://www.w3.org/2000/svg"><g fill="none" transform="translate(26 35)"><g fill="#00aeef"><path d="m63.878481 1.57803468c0-.7283237-.6075949-1.41618497-1.3367088-1.57803468h-60.92151904c-.72911392.16184971-1.33670886.7283237-1.33670886 1.57803468v32.45086702c0 3.7225434.52658228 7.2427746 1.78227848 10.4797688l61.89367092-34.67630056v-8.21387283h-.0810127z"/><path d="m32.0810127 69.7572254c7.9392405 0 31.7974683-14.4450867 31.7974683-35.7283237v-11.0057803l-61.52911391 22.7398844c5.99493671 14.283237 23.21012661 23.9942196 29.73164561 23.9942196"/></g><g fill="#80888f"><path d="m85 12h8.699187v33.2177822h16.300813v7.7822178h-25z"/><g transform="translate(111 23)"><path d="m23.4585774 16.0415584c0-4.612987-3.7338912-7.68831165-7.5895397-7.68831165-4.139749 0-7.58953979 3.28311685-7.58953979 7.68831165 0 4.3636364 3.44979079 7.7714286 7.58953979 7.7714286 4.0585774 0 7.5895397-3.2415584 7.5895397-7.7714286m8.4824268-14.87792204v29.79740264h-8.1577406v-3.6987013c-2.0292887 2.9090909-6.1690377 4.2805194-9.3753138 4.2805194-7.50836821 0-14.32677825-5.9844155-14.32677825-15.5844155 0-9.60000004 6.81841004-15.58441563 14.32677825-15.58441563 3.3686192 0 7.3460251 1.28831169 9.3753138 4.28051948v-3.61558441h8.1577406z"/><path d="m35.5937238 15.9584416c0-9.43376628 7.5083683-15.58441563 15.990795-15.58441563 5.3167364 0 9.6188285 2.53506494 12.2974896 6.35844156l-6.1690377 4.48831167c-1.258159-1.82857141-3.7338912-2.99220777-6.1690376-2.99220777-4.6673641 0-7.7112971 3.36623377-7.7112971 7.77142857 0 4.4467532 3.1656904 7.812987 7.7112971 7.812987 2.3945606 0 4.7891213-1.1636364 6.1690376-2.9922078l6.1690377 4.4467533c-2.7598327 3.9064935-6.9807532 6.3584415-12.2974896 6.3584415-8.4824267-.0831169-15.990795-6.2337662-15.990795-15.6675324"/><path d="m88.3146444 13.3402597c-.2435147-3.53246749-3.1656904-5.61038957-6.8184101-5.61038957-3.2874477 0-6.2096234 1.62077922-7.1430962 5.61038957zm8.1171548 5.4441559h-21.9569038c.892887 3.4493506 3.6121339 5.3610389 7.5895397 5.3610389 2.9221758 0 5.8443515-1.2467532 7.6301256-3.2831168l4.7891213 4.9038961c-2.7598326 3.7818181-7.8736402 5.8181818-12.9874477 5.8181818-8.9288703 0-15.5037657-6.3168831-15.5037657-15.5012987 0-9.6831169 7.1430963-15.66753248 15.5037657-15.66753248 8.3200837 0 15.1384937 5.98441558 15.1384937 15.21038958-.1623431.7896104-.2029288 1.787013-.2029288 3.1584416"/></g><path d="m254 24-10.111208 29h-6.874022l-5.954822-18.862117-5.675065 18.862117h-6.874023l-10.51086-29h8.712424l5.475239 17.6504178 5.475239-17.6504178h6.794092l5.475239 17.6504178 5.355343-17.6504178z"/><g transform="translate(254 23)"><path d="m22.923741 16.0415584c0-4.6961039-3.2633093-7.81298697-7.2920863-7.81298697s-7.29208635 3.15844157-7.29208635 7.81298697c0 4.6129871 3.26330935 7.7714286 7.29208635 7.7714286s7.2920863-3.1584415 7.2920863-7.7714286m-22.923741 0c0-9.43376619 7.29208633-15.58441554 15.5510791-15.58441554 8.2589928 0 15.5510792 6.15064935 15.5510792 15.58441554 0 9.4337663-7.2920864 15.5844156-15.5510792 15.5844156-8.25899277 0-15.5510791-6.2337662-15.5510791-15.5844156"/><path d="m56 1.37142857-1.8532374 7.97922078c-1.6920863-.9974026-3.1827338-1.08051948-4.1496403-1.08051948-4.1496403 0-7.0100719 3.98961043-7.0100719 12.50909093v10.2233766h-8.0978418v-29.79740259h8.057554v6.35844155c1.6517986-4.98701298 4.9151079-7.14805194 8.5007194-7.14805194 1.4906475-.04155845 3.2633094.24935065 4.552518.95584415"/></g><path d="m332.005666 52-9.954674-12.5758157v12.5758157h-8.050992v-42h8.050992v21.8867562l7.17847-8.8272552h10.271954l-11.144475 12.696737 13.643059 16.243762z"/><path d="m342 10.5508475h-1.233333v4.4491525h-.533334v-4.4491525h-1.233333v-.5508475h3z"/><path d="m347.137931 10-1.594828 4.0677966-1.681034-4.0677966h-.862069v5h.732759v-2.0338983l-.086207-1.9491525 1.681034 3.9830508h.474138l1.594828-4.0677966h.043103l-.043103 2.0338983v2.0338983h.603448v-5z"/></g></g></svg>