<svg xmlns="http://www.w3.org/2000/svg" width="24" height="16" viewBox="0 0 24 16"><defs><clipPath id="cb91a"><path d="M0 2a2 2 0 0 1 2-2h20a2 2 0 0 1 2 2v12a2 2 0 0 1-2 2H2a2 2 0 0 1-2-2z"/></clipPath><clipPath id="cb91b"><path d="M16.248 3h.252v.252c0 1.31-.222 2.476-.66 3.467A5.954 5.954 0 0 1 14.334 8.8c-.12.106-.24.203-.36.293-.03.435-.202.88-.515 1.323-.264.376-.63.754-1.088 1.123-.769.62-1.527 1.001-1.559 1.018a.252.252 0 0 1-.291-.404c.002-.002.239-.243.472-.655a3.52 3.52 0 0 0 .457-1.493c-.41-.16-.899-.617-1.118-.837-.22-.22-.677-.709-.837-1.118a3.52 3.52 0 0 0-1.494.457 3.38 3.38 0 0 0-.654.473.253.253 0 0 1-.404-.292c.016-.032.398-.79 1.018-1.559.37-.457.747-.823 1.122-1.088.444-.312.89-.485 1.324-.514a5.955 5.955 0 0 1 2.374-1.867c.992-.438 2.158-.66 3.467-.66zM9.465 7.547c.061-.334.23-.86.558-1.434-.828.272-1.563 1.137-2.044 1.835a3.927 3.927 0 0 1 1.486-.401zm2.089 3.972c.697-.48 1.56-1.215 1.833-2.042-.573.327-1.1.497-1.433.558a3.914 3.914 0 0 1-.4 1.484zM14 8.423c1.256-1.107 1.942-2.803 1.993-4.915-2.112.051-3.808.738-4.916 1.993-.925 1.049-1.135 2.135-1.135 2.292 0 0 .003.104.199.382.136.195.331.421.547.637.216.216.442.41.637.547.278.196.381.199.382.199.157 0 1.243-.21 2.293-1.135zM6.766 13a.265.265 0 0 1-.25-.356c.82-2.251 1.68-3.393 2.559-3.393.29 0 .56.124.806.37.387.387.401.772.345 1.028-.178.802-1.312 1.588-3.369 2.336a.271.271 0 0 1-.09.016zm2.31-3.217c-.264 0-.574.23-.897.667-.318.43-.637 1.042-.952 1.824.71-.286 1.281-.576 1.702-.865.568-.39.736-.692.777-.876.041-.184-.025-.36-.201-.537-.144-.143-.285-.213-.43-.213zm4.299-2.199a1.043 1.043 0 0 1-1.042-1.041c0-.574.468-1.042 1.042-1.042.574 0 1.042.468 1.042 1.042 0 .574-.468 1.041-1.042 1.041zm0-1.666a.626.626 0 1 0 .002 1.251.626.626 0 0 0-.002-1.251z"/></clipPath></defs><g><g><g><path fill="#512fc9" d="M0 2a2 2 0 0 1 2-2h20a2 2 0 0 1 2 2v12a2 2 0 0 1-2 2H2a2 2 0 0 1-2-2z"/></g><g clip-path="url(#cb91a)"><g><path d="M16.248 3h.252v.252c0 1.31-.222 2.476-.66 3.467A5.954 5.954 0 0 1 14.334 8.8c-.12.106-.24.203-.36.293-.03.435-.202.88-.515 1.323-.264.376-.63.754-1.088 1.123-.769.62-1.527 1.001-1.559 1.018a.252.252 0 0 1-.291-.404c.002-.002.239-.243.472-.655a3.52 3.52 0 0 0 .457-1.493c-.41-.16-.899-.617-1.118-.837-.22-.22-.677-.709-.837-1.118a3.52 3.52 0 0 0-1.494.457 3.38 3.38 0 0 0-.654.473.253.253 0 0 1-.404-.292c.016-.032.398-.79 1.018-1.559.37-.457.747-.823 1.122-1.088.444-.312.89-.485 1.324-.514a5.955 5.955 0 0 1 2.374-1.867c.992-.438 2.158-.66 3.467-.66zM9.465 7.547c.061-.334.23-.86.558-1.434-.828.272-1.563 1.137-2.044 1.835a3.927 3.927 0 0 1 1.486-.401zm2.089 3.972c.697-.48 1.56-1.215 1.833-2.042-.573.327-1.1.497-1.433.558a3.914 3.914 0 0 1-.4 1.484zM14 8.423c1.256-1.107 1.942-2.803 1.993-4.915-2.112.051-3.808.738-4.916 1.993-.925 1.049-1.135 2.135-1.135 2.292 0 0 .003.104.199.382.136.195.331.421.547.637.216.216.442.41.637.547.278.196.381.199.382.199.157 0 1.243-.21 2.293-1.135zM6.766 13a.265.265 0 0 1-.25-.356c.82-2.251 1.68-3.393 2.559-3.393.29 0 .56.124.806.37.387.387.401.772.345 1.028-.178.802-1.312 1.588-3.369 2.336a.271.271 0 0 1-.09.016zm2.31-3.217c-.264 0-.574.23-.897.667-.318.43-.637 1.042-.952 1.824.71-.286 1.281-.576 1.702-.865.568-.39.736-.692.777-.876.041-.184-.025-.36-.201-.537-.144-.143-.285-.213-.43-.213zm4.299-2.199a1.043 1.043 0 0 1-1.042-1.041c0-.574.468-1.042 1.042-1.042.574 0 1.042.468 1.042 1.042 0 .574-.468 1.041-1.042 1.041zm0-1.666a.626.626 0 1 0 .002 1.251.626.626 0 0 0-.002-1.251z"/></g><g clip-path="url(#cb91b)"><g><path fill="#fff" d="M6.5 3h104v104H6.5z"/></g></g></g></g></g></svg>