<svg height="116" viewBox="0 0 193 116" width="193" xmlns="http://www.w3.org/2000/svg"><g fill="none" fill-rule="evenodd"><path d="m0 62h77v-62h-77z" fill="#2b3660"/><g fill="#fefefe"><path d="m8 5 .70527491 2.29636524 2.29472509-.00440874-1.85933575 1.41461742.71364778 2.29342608-1.85431203-1.42196532-1.85403293 1.42196532.71336868-2.29342608-1.85933575-1.41461742 2.29500419.00440874z"/><path d="m8 16 .70527491 2.2963652 2.29472509-.0044087-1.85933575 1.4146174.71364778 2.2934261-1.85431203-1.4219653-1.85403293 1.4219653.71336868-2.2934261-1.85933575-1.4146174 2.29500419.0044087z"/><path d="m8 28 .70527491 2.2965467 2.29472509-.0047025-1.85933575 1.4145482.71364778 2.2936076-1.85431203-1.4221896-1.85403293 1.4221896.71336868-2.2936076-1.85933575-1.4145482 2.29500419.0047025z"/><path d="m8 40 .70527491 2.2963652 2.29472509-.0044087-1.85933575 1.4146174.71364778 2.2934261-1.85431203-1.4219653-1.85403293 1.4219653.71336868-2.2934261-1.85933575-1.4146174 2.29500419.0044087z"/><path d="m8 52 .70527491 2.2963652 2.29472509-.0047026-1.85933575 1.4149113.71364778 2.2934261-1.85431203-1.4219653-1.85403293 1.4219653.71336868-2.2934261-1.85933575-1.4149113 2.29500419.0047026z"/><path d="m13.9998605 11 .704963 2.2963652 2.2951765-.0044087-1.8592493 1.4143235.7130565 2.29372-1.8539467-1.4219653-1.8539467 1.4219653.7133355-2.29372-1.8592493-1.4143235 2.2948974.0044087z"/><path d="m13.9998605 22 .704963 2.2963652 2.2951765-.0044087-1.8592493 1.4146174.7130565 2.2934261-1.8539467-1.4219653-1.8539467 1.4219653.7133355-2.2934261-1.8592493-1.4146174 2.2948974.0044087z"/><path d="m13.9998605 34 .704963 2.2963652 2.2951765-.0047026-1.8592493 1.4149113.7130565 2.2934261-1.8539467-1.4219653-1.8539467 1.4219653.7133355-2.2934261-1.8592493-1.4149113 2.2948974.0047026z"/><path d="m13.9998605 46 .704963 2.2966592 2.2951765-.0047027-1.8592493 1.4146174.7130565 2.2934261-1.8539467-1.4219653-1.8539467 1.4219653.7133355-2.2934261-1.8592493-1.4146174 2.2948974.0047027z"/><path d="m21 5 .7049958 2.29636524 2.2950042-.00440874-1.8593358 1.41461742.7136478 2.29342608-1.854312-1.42196532-1.8540329 1.42196532.7133687-2.29342608-1.8593358-1.41461742 2.2950042.00440874z"/><path d="m21 16 .7049958 2.2963652 2.2950042-.0044087-1.8593358 1.4146174.7136478 2.2934261-1.854312-1.4219653-1.8540329 1.4219653.7133687-2.2934261-1.8593358-1.4146174 2.2950042.0044087z"/><path d="m21 28 .7049958 2.2965467 2.2950042-.0047025-1.8593358 1.4145482.7136478 2.2936076-1.854312-1.4221896-1.8540329 1.4221896.7133687-2.2936076-1.8593358-1.4145482 2.2950042.0047025z"/><path d="m21 40 .7049958 2.2963652 2.2950042-.0044087-1.8593358 1.4146174.7136478 2.2934261-1.854312-1.4219653-1.8540329 1.4219653.7133687-2.2934261-1.8593358-1.4146174 2.2950042.0044087z"/><path d="m21 52 .7049958 2.2963652 2.2950042-.0047026-1.8593358 1.4149113.7136478 2.2934261-1.854312-1.4219653-1.8540329 1.4219653.7133687-2.2934261-1.8593358-1.4149113 2.2950042.0047026z"/><path d="m26 11 .7049958 2.2963652 2.2950042-.0044087-1.8593358 1.4143235.7133687 2.29372-1.8540329-1.4219653-1.8540329 1.4219653.7133687-2.29372-1.8593358-1.4143235 2.2950042.0044087z"/><path d="m26 22 .7049958 2.2963652 2.2950042-.0044087-1.8593358 1.4146174.7133687 2.2934261-1.8540329-1.4219653-1.8540329 1.4219653.7133687-2.2934261-1.8593358-1.4146174 2.2950042.0044087z"/><path d="m26 34 .7049958 2.2963652 2.2950042-.0047026-1.8593358 1.4149113.7133687 2.2934261-1.8540329-1.4219653-1.8540329 1.4219653.7133687-2.2934261-1.8593358-1.4149113 2.2950042.0047026z"/><path d="m26 46 .7049958 2.2966592 2.2950042-.0047027-1.8593358 1.4146174.7133687 2.2934261-1.8540329-1.4219653-1.8540329 1.4219653.7133687-2.2934261-1.8593358-1.4146174 2.2950042.0047027z"/><path d="m33 5 .7049958 2.29636524 2.2950042-.00440874-1.8593358 1.41461742.7133687 2.29342608-1.8540329-1.42196532-1.8540329 1.42196532.7133687-2.29342608-1.8593358-1.41461742 2.2950042.00440874z"/><path d="m33 16 .7049958 2.2963652 2.2950042-.0044087-1.8593358 1.4146174.7133687 2.2934261-1.8540329-1.4219653-1.8540329 1.4219653.7133687-2.2934261-1.8593358-1.4146174 2.2950042.0044087z"/><path d="m33 28 .7049958 2.2965467 2.2950042-.0047025-1.8593358 1.4145482.7133687 2.2936076-1.8540329-1.4221896-1.8540329 1.4221896.7133687-2.2936076-1.8593358-1.4145482 2.2950042.0047025z"/><path d="m33 40 .7049958 2.2963652 2.2950042-.0044087-1.8593358 1.4146174.7133687 2.2934261-1.8540329-1.4219653-1.8540329 1.4219653.7133687-2.2934261-1.8593358-1.4146174 2.2950042.0044087z"/><path d="m33 52 .7049958 2.2963652 2.2950042-.0047026-1.8593358 1.4149113.7133687 2.2934261-1.8540329-1.4219653-1.8540329 1.4219653.7133687-2.2934261-1.8593358-1.4149113 2.2950042.0047026z"/><path d="m39 11 .7049958 2.2963652 2.2950042-.0044087-1.8593358 1.4143235.7133687 2.29372-1.8540329-1.4219653-1.8540329 1.4219653.7133687-2.29372-1.8593358-1.4143235 2.2950042.0044087z"/><path d="m39 22 .7049958 2.2963652 2.2950042-.0044087-1.8593358 1.4146174.7133687 2.2934261-1.8540329-1.4219653-1.8540329 1.4219653.7133687-2.2934261-1.8593358-1.4146174 2.2950042.0044087z"/><path d="m39 34 .7049958 2.2963652 2.2950042-.0047026-1.8593358 1.4149113.7133687 2.2934261-1.8540329-1.4219653-1.8540329 1.4219653.7133687-2.2934261-1.8593358-1.4149113 2.2950042.0047026z"/><path d="m39 46 .7049958 2.2966592 2.2950042-.0047027-1.8593358 1.4146174.7133687 2.2934261-1.8540329-1.4219653-1.8540329 1.4219653.7133687-2.2934261-1.8593358-1.4146174 2.2950042.0047027z"/><path d="m45 5 .7049958 2.29636524 2.2950042-.00440874-1.8593358 1.41461742.7133687 2.29342608-1.8540329-1.42196532-1.8540329 1.42196532.7133687-2.29342608-1.8593358-1.41461742 2.2950042.00440874z"/><path d="m45 16 .7049958 2.2963652 2.2950042-.0044087-1.8593358 1.4146174.7133687 2.2934261-1.8540329-1.4219653-1.8540329 1.4219653.7133687-2.2934261-1.8593358-1.4146174 2.2950042.0044087z"/><path d="m45 28 .7049958 2.2965467 2.2950042-.0047025-1.8593358 1.4145482.7133687 2.2936076-1.8540329-1.4221896-1.8540329 1.4221896.7133687-2.2936076-1.8593358-1.4145482 2.2950042.0047025z"/><path d="m45 40 .7049958 2.2963652 2.2950042-.0044087-1.8593358 1.4146174.7133687 2.2934261-1.8540329-1.4219653-1.8540329 1.4219653.7133687-2.2934261-1.8593358-1.4146174 2.2950042.0044087z"/><path d="m45 52 .7049958 2.2963652 2.2950042-.0047026-1.8593358 1.4149113.7133687 2.2934261-1.8540329-1.4219653-1.8540329 1.4219653.7133687-2.2934261-1.8593358-1.4149113 2.2950042.0047026z"/><path d="m51 11 .7049958 2.2963652 2.2950042-.0044087-1.8593358 1.4143235.7133687 2.29372-1.8540329-1.4219653-1.8540329 1.4219653.7133687-2.29372-1.8593358-1.4143235 2.2950042.0044087z"/><path d="m51 22 .7049958 2.2963652 2.2950042-.0044087-1.8593358 1.4146174.7133687 2.2934261-1.8540329-1.4219653-1.8540329 1.4219653.7133687-2.2934261-1.8593358-1.4146174 2.2950042.0044087z"/><path d="m51 34 .7049958 2.2963652 2.2950042-.0047026-1.8593358 1.4149113.7133687 2.2934261-1.8540329-1.4219653-1.8540329 1.4219653.7133687-2.2934261-1.8593358-1.4149113 2.2950042.0047026z"/><path d="m51 46 .7049958 2.2966592 2.2950042-.0047027-1.8593358 1.4146174.7133687 2.2934261-1.8540329-1.4219653-1.8540329 1.4219653.7133687-2.2934261-1.8593358-1.4146174 2.2950042.0047027z"/><path d="m57 5 .7049958 2.29636524 2.2950042-.00440874-1.8593358 1.41461742.7133687 2.29342608-1.8540329-1.42196532-1.8540329 1.42196532.7133687-2.29342608-1.8593358-1.41461742 2.2950042.00440874z"/><path d="m57 16 .7049958 2.2963652 2.2950042-.0044087-1.8593358 1.4146174.7133687 2.2934261-1.8540329-1.4219653-1.8540329 1.4219653.7133687-2.2934261-1.8593358-1.4146174 2.2950042.0044087z"/><path d="m57 28 .7049958 2.2965467 2.2950042-.0047025-1.8593358 1.4145482.7133687 2.2936076-1.8540329-1.4221896-1.8540329 1.4221896.7133687-2.2936076-1.8593358-1.4145482 2.2950042.0047025z"/><path d="m57 40 .7049958 2.2963652 2.2950042-.0044087-1.8593358 1.4146174.7133687 2.2934261-1.8540329-1.4219653-1.8540329 1.4219653.7133687-2.2934261-1.8593358-1.4146174 2.2950042.0044087z"/><path d="m57 52 .7049958 2.2963652 2.2950042-.0047026-1.8593358 1.4149113.7133687 2.2934261-1.8540329-1.4219653-1.8540329 1.4219653.7133687-2.2934261-1.8593358-1.4149113 2.2950042.0047026z"/><path d="m63 11 .7052749 2.2963652 2.2947251-.0044087-1.8593358 1.4143235.7136478 2.29372-1.854312-1.4219653-1.8540329 1.4219653.7133687-2.29372-1.8593358-1.4143235 2.2952833.0044087z"/><path d="m63 22 .7052749 2.2963652 2.2947251-.0044087-1.8593358 1.4146174.7136478 2.2934261-1.854312-1.4219653-1.8540329 1.4219653.7133687-2.2934261-1.8593358-1.4146174 2.2952833.0044087z"/><path d="m63 34 .7052749 2.2963652 2.2947251-.0047026-1.8593358 1.4149113.7136478 2.2934261-1.854312-1.4219653-1.8540329 1.4219653.7133687-2.2934261-1.8593358-1.4149113 2.2952833.0047026z"/><path d="m63 46 .7052749 2.2966592 2.2947251-.0047027-1.8593358 1.4146174.7136478 2.2934261-1.854312-1.4219653-1.8540329 1.4219653.7133687-2.2934261-1.8593358-1.4146174 2.2952833.0047027z"/><path d="m69 5 .7049958 2.29636524 2.2950042-.00440874-1.8593358 1.41461742.7133687 2.29342608-1.8540329-1.42196532-1.8540329 1.42196532.7133687-2.29342608-1.8593358-1.41461742 2.2950042.00440874z"/><path d="m69 16 .7049958 2.2963652 2.2950042-.0044087-1.8593358 1.4146174.7133687 2.2934261-1.8540329-1.4219653-1.8540329 1.4219653.7133687-2.2934261-1.8593358-1.4146174 2.2950042.0044087z"/><path d="m69 28 .7049958 2.2965467 2.2950042-.0047025-1.8593358 1.4145482.7133687 2.2936076-1.8540329-1.4221896-1.8540329 1.4221896.7133687-2.2936076-1.8593358-1.4145482 2.2950042.0047025z"/><path d="m69 40 .7049958 2.2963652 2.2950042-.0044087-1.8593358 1.4146174.7133687 2.2934261-1.8540329-1.4219653-1.8540329 1.4219653.7133687-2.2934261-1.8593358-1.4146174 2.2950042.0044087z"/><path d="m69 52 .7049958 2.2963652 2.2950042-.0047026-1.8593358 1.4149113.7133687 2.2934261-1.8540329-1.4219653-1.8540329 1.4219653.7133687-2.2934261-1.8593358-1.4149113 2.2950042.0047026z"/></g><path d="m77 9h116v-9h-116z" fill="#c11e24"/><path d="m77 18h116v-9h-116z" fill="#fefefe"/><path d="m77 27h116v-9h-116z" fill="#c11e24"/><path d="m77 36h116v-9h-116z" fill="#fefefe"/><path d="m77 45h116v-9h-116z" fill="#c11e24"/><path d="m77 54h116v-9h-116z" fill="#fefefe"/><path d="m0 71h193v-9h-193z" fill="#fefefe"/><path d="m0 89h193v-9h-193z" fill="#fefefe"/><path d="m0 107h193v-9h-193z" fill="#fefefe"/><path d="m77 62h116v-9h-116z" fill="#c11e24"/><path d="m0 80h193v-9h-193z" fill="#c11e24"/><path d="m0 98h193v-9h-193z" fill="#c11e24"/><path d="m0 116h193v-9h-193z" fill="#c11e24"/></g></svg>