<svg enable-background="new 0 0 196.3 50.6" viewBox="0 0 196.3 50.6" xmlns="http://www.w3.org/2000/svg"><path d="m64.8 25.1h9.4c-.2.9-.6 1.7-1 2.5-.5 1-1.2 1.8-2.1 2.5s-1.9 1.3-3.1 1.8c-1.2.4-2.6.7-4.1.7s-2.9-.3-4.1-.8c-1.3-.6-2.4-1.4-3.3-2.4-.9-1.1-1.7-2.4-2.2-4s-.8-3.4-.8-5.5c0-2 .3-3.8.9-5.4s1.3-2.9 2.3-4 2.1-1.9 3.4-2.4 2.6-.8 4.1-.8c2.2 0 4 .5 5.5 1.5 1.3.9 2.2 1.9 2.8 3.1.1.1.2.4.3.6s.2.3.4.3h7.7c.3 0 .5-.3.4-.6-.1-.2-.1-.4-.1-.5-.5-1.6-1.2-3.1-2.1-4.4-1-1.5-2.2-2.8-3.6-3.9s-3.1-1.9-5-2.5c-2.1-.6-4.2-.9-6.5-.9-2.7 0-5.2.5-7.5 1.5s-4.3 2.4-6 4.2-3 3.9-3.9 6.3-1.4 5-1.4 7.8.5 5.4 1.4 7.8 2.3 4.5 3.9 6.3 3.6 3.2 5.9 4.2 4.7 1.5 7.3 1.5c2.7 0 5.1-.6 7.1-1.6 1.5-.8 2.7-2.2 3.6-3.3v3.8c0 .2.2.4.4.4h6.6c.2 0 .4-.2.4-.4v-20.1c0-.2-.2-.4-.4-.4h-16.6c-.2 0-.4.2-.4.4v6.3c0 .2.1.4.4.4z"/><path d="m85.3 39.3h6.9c.2 0 .4-.2.4-.4v-38.5c0-.2-.2-.4-.4-.4h-6.9c-.2 0-.4.2-.4.4v38.5c0 .2.2.4.4.4z"/><path d="m122.3 32.8v-13c0-1.4-.2-2.8-.6-4-.4-1.3-1.1-2.4-2.1-3.3s-2.3-1.6-3.8-2.2c-1.6-.5-3.5-.8-5.9-.8-2 0-3.7.2-5.3.7s-2.9 1.1-4 2-2.1 1.9-2.7 3c-.6 1-1 2-1.2 3.1 0 .1-.1.4-.1.7s.2.5.4.5h7.2c.2 0 .4-.1.4-.3.1-.2.2-.5.3-.8.4-.7.8-1.2 1.5-1.6.9-.5 2.2-.8 3.7-.8 1.6 0 2.7.2 3.5.7.7.4 1.1 1 1.1 1.8 0 1-.6 1.7-1.7 2.1-1.3.5-3.4 1-6.3 1.4-1.3.2-2.7.4-4 .8-1.3.3-2.6.8-3.6 1.5-1.1.7-2 1.5-2.7 2.6s-1 2.4-1 4.1c0 1.6.3 2.9.9 4.1.6 1.1 1.4 2.1 2.4 2.8s2.1 1.2 3.4 1.5 2.5.5 3.8.5c2.5 0 4.5-.5 6.1-1.4 1.2-.7 2.2-1.5 3-2.6.1.6.6 3.3.6 3.3h6.8c-.1 0-.1-5.1-.1-6.4zm-7.7-4.9c0 1.6-.6 2.9-1.9 3.8-1.3 1-3.1 1.5-5.2 1.5-1.6 0-2.7-.2-3.4-.7-.6-.4-.9-1-.9-1.8 0-1 .4-1.6 1.1-2 .8-.4 2-.8 3.5-1.1s2.9-.6 4.2-.9c1-.2 1.9-.6 2.7-1v2.2z"/><path d="m153.8 0h-6.9c-.2 0-.4.2-.4.4v12.8c-.7-.8-1.5-1.6-2.5-2.2-1.5-1-3.5-1.5-5.8-1.5-1.8 0-3.5.4-5.1 1.2s-3 1.8-4.3 3.2c-1.2 1.3-2.2 3-2.9 4.8-.7 1.9-1.1 3.9-1.1 6.1s.3 4.2 1 6.1c.7 1.8 1.6 3.4 2.8 4.8s2.6 2.4 4.2 3.2 3.4 1.1 5.2 1.1c2.2 0 4.1-.5 5.7-1.5 1.1-.7 2-1.5 2.8-2.5v2.9c0 .2.2.4.4.4h6.7c.2 0 .4-.2.4-.4v-38.5c.2-.2 0-.4-.2-.4zm-7.9 28.2c-.4 1-.9 1.8-1.5 2.5s-1.3 1.2-2.2 1.6c-1.7.7-3.6.7-5.3 0-.8-.4-1.6-.9-2.2-1.6s-1.1-1.5-1.5-2.5-.5-2.2-.5-3.5.2-2.5.5-3.5c.4-1 .9-1.9 1.5-2.6s1.3-1.2 2.2-1.6c.8-.4 1.7-.6 2.6-.6s1.8.2 2.6.6 1.6.9 2.2 1.6 1.1 1.6 1.5 2.6.5 2.2.5 3.5c.2 1.3 0 2.5-.4 3.5z"/><path d="m157.7 39.2h6.9c.2 0 .4-.2.4-.4v-38.4c0-.2-.2-.4-.4-.4h-6.9c-.2 0-.4.2-.4.4v38.3c0 .3.2.5.4.5z"/><path d="m188.8 10.1c-.2 0-.3.1-.4.3l-5.5 16.2c-.2.5-.4 1.1-.5 1.7-.1.5-.3 1-.4 1.4-.1-.4-.2-.9-.4-1.4-.2-.6-.3-1.2-.5-1.7l-5.8-16.2c-.1-.2-.2-.3-.4-.3h-7.4c-.3 0-.5.3-.4.6l10.9 28.5-.3.9c-.9 2.5-2.9 3.7-6.2 3.7h-1.1c-.2 0-.4.2-.4.4v5.9c0 .2.2.4.4.4h1.3c3.3 0 6-.6 8-1.9 2.1-1.3 3.6-3.2 4.6-5.8l12-32.2c.1-.3-.1-.6-.4-.6h-7.1z"/><path d="m19.6.7c-10.8 0-19.6 8.7-19.6 19.5s8.8 19.6 19.6 19.6 19.6-8.8 19.6-19.6-8.8-19.5-19.6-19.5z" fill="#009b00"/><path d="m31.5 18.9h-10.6v-10.6h-2.7v10.6h-10.6v2.7h10.6v10.6h2.7v-10.6h10.6z" fill="#fff"/></svg>