<svg viewBox="0 0 32 32" xmlns="http://www.w3.org/2000/svg" xmlns:xlink="http://www.w3.org/1999/xlink"><linearGradient id="a" gradientUnits="userSpaceOnUse" x1="37.56" x2="-2.35" y1="21.34" y2="3.51"><stop offset="0" stop-color="#00adff"/><stop offset=".21" stop-color="#0091ef"/><stop offset=".56" stop-color="#0068d8"/><stop offset=".83" stop-color="#004ec9"/><stop offset="1" stop-color="#0045c4"/></linearGradient><linearGradient id="b" x1="36.76" x2="-3.14" xlink:href="#a" y1="23.11" y2="5.28"/><linearGradient id="c" x1="33.98" x2="-5.93" xlink:href="#a" y1="29.35" y2="11.52"/><linearGradient id="d" x1="16" x2="19.57" xlink:href="#a" y1="15.54" y2="15.54"/><rect fill="#79a1db" height="16.61" rx=".46" width="23.06" x="4.47" y="7.69"/><path d="m16 14.29a4.53 4.53 0 1 1 -4.53-4.52v4.52z" fill="#e6eaec"/><path d="m19.57 10.41h5.26v8.41h-5.26z" fill="#e6eaec"/><path d="m19.57 12.97h5.26v3.03h-5.26z" fill="url(#a)"/><path d="m16 14.29h-4.53v-4.52a4.52 4.52 0 0 1 4.53 4.52z" fill="url(#b)"/><path d="m7.4 20.95h17.43v.84h-17.43z" fill="url(#c)"/><path d="m14.25 20.03h2.55v2.55h-2.55z" fill="#e6eaec"/><path d="m16 14.29h1.66v2.5h1.91" fill="none" stroke="url(#d)" stroke-miterlimit="10" stroke-width=".5"/></svg>