<svg id="Layer_1" data-name="Layer 1" xmlns="http://www.w3.org/2000/svg" xmlns:xlink="http://www.w3.org/1999/xlink" viewBox="0 0 48 48"><defs><style>.cls-1{fill:none;}.cls-2{fill:#2682fd;}.cls-3{fill:url(#linear-gradient);}</style><linearGradient id="linear-gradient" x1="137.38" y1="-440.18" x2="137.27" y2="-440.3" gradientTransform="matrix(206, 0, 0, -152.73, -28251.39, -67207.14)" gradientUnits="userSpaceOnUse"><stop offset="0.18" stop-color="#0052ca"/><stop offset="1" stop-color="#2682fd"/></linearGradient></defs><polygon class="cls-1" points="18.99 31.02 29.01 31.02 31.43 16.9 16.32 16.9 18.99 31.02"/><path class="cls-2" d="M1.56,2.42A1.54,1.54,0,0,0,.37,3,1.57,1.57,0,0,0,0,4.2L6.55,43.84a2.09,2.09,0,0,0,2,1.74H39.91a1.53,1.53,0,0,0,1.54-1.29L48,4.21A1.56,1.56,0,0,0,47.63,3a1.54,1.54,0,0,0-1.19-.53ZM29.05,31.06h-10L16.34,16.92H31.47Z"/><path class="cls-3" d="M45.86,16.9H31.44L29,31H19L7.24,45a2.12,2.12,0,0,0,1.34.51H39.89a1.53,1.53,0,0,0,1.53-1.29Z"/></svg>