<svg id="Layer_1" data-name="Layer 1" xmlns="http://www.w3.org/2000/svg" xmlns:xlink="http://www.w3.org/1999/xlink" viewBox="0 0 32 32"><defs><style>.cls-1{fill:#e6eaec;}.cls-2{fill:#b0c4c9;}.cls-3{fill:url(#linear-gradient);}</style><linearGradient id="linear-gradient" x1="34.96" y1="24.12" x2="2.51" y2="0.07" gradientUnits="userSpaceOnUse"><stop offset="0" stop-color="#00adff"/><stop offset="0.21" stop-color="#0091ef"/><stop offset="0.56" stop-color="#0068d8"/><stop offset="0.83" stop-color="#004ec9"/><stop offset="1" stop-color="#0045c4"/></linearGradient></defs><polygon class="cls-1" points="24 25.55 23.32 25.85 17.36 28.56 2.79 23.47 2.07 23.23 9.07 20.5 24 25.55"/><ellipse class="cls-2" cx="21.3" cy="21.86" rx="5.9" ry="1.36"/><rect class="cls-1" x="19.33" y="18.13" width="4.67" height="3.73" rx="0.7"/><polygon class="cls-1" points="10.69 3.26 10.69 16.79 28.95 22.54 28.95 9.02 10.69 3.26"/><polygon class="cls-3" points="11.13 3.72 11.13 16.6 28.51 22.07 28.51 9.2 11.13 3.72"/><polygon class="cls-2" points="10.69 3.26 12.12 2.9 29.93 8.56 29.93 22.07 28.95 22.54 28.95 9.02 10.69 3.26"/><polygon class="cls-2" points="24 25.55 24 26.08 17.36 29.1 2.07 23.76 2.07 23.23 2.79 23.47 17.36 28.56 23.32 25.85 24 25.55"/></svg>