<svg id="Layer_1" data-name="Layer 1" xmlns="http://www.w3.org/2000/svg" xmlns:xlink="http://www.w3.org/1999/xlink" viewBox="0 0 32 32"><defs><style>.cls-1{fill:#79a1db;}.cls-2{fill:#e6eaec;}.cls-3{fill:url(#linear-gradient);}</style><linearGradient id="linear-gradient" x1="14.46" y1="18.14" x2="-6.51" y2="37.99" gradientUnits="userSpaceOnUse"><stop offset="0" stop-color="#00adff"/><stop offset="0.21" stop-color="#0091ef"/><stop offset="0.56" stop-color="#0068d8"/><stop offset="0.83" stop-color="#004ec9"/><stop offset="1" stop-color="#0045c4"/></linearGradient></defs><polygon class="cls-1" points="9.21 4.02 22.8 4.02 22.8 23.42 9.21 23.3 9.21 4.02"/><polygon class="cls-2" points="9.21 4.02 14.12 7.86 14.12 26.96 9.21 23.3 9.21 4.02"/><polygon class="cls-2" points="16.01 24.8 16.01 9.11 24.6 9.11 24.6 12.41 27.71 12.41 27.71 24.8 16.01 24.8"/><rect class="cls-3" x="4.29" y="20.27" width="7.7" height="7.7" rx="0.6"/><polygon class="cls-1" points="24.6 9.11 24.6 12.41 27.71 12.41 24.6 9.11"/><rect class="cls-1" x="16.73" y="15.29" width="10.07" height="3.27"/><rect class="cls-1" x="16.73" y="19.3" width="10.07" height="1.22"/><rect class="cls-1" x="16.73" y="21.27" width="10.07" height="1.22"/><rect class="cls-1" x="16.73" y="13.3" width="10.07" height="1.22"/><rect class="cls-1" x="16.73" y="10.42" width="7.31" height="0.61"/><rect class="cls-1" x="16.73" y="11.41" width="7.31" height="0.61"/></svg>