<svg id="Layer_1" data-name="Layer 1" xmlns="http://www.w3.org/2000/svg" viewBox="0 0 48 48"><defs><style>.cls-1{fill:#e04429;}.cls-2{fill:#faa127;}.cls-3{fill:#fa6d26;}</style></defs><g id="logo_art" data-name="logo art"><path id="path50" class="cls-1" d="M24,46.11h0L32.84,18.9H15.17L24,46.11Z"/><path id="path66" class="cls-2" d="M2.78,18.9h0L.09,27.17a1.85,1.85,0,0,0,.66,2L24,46.11,2.78,18.9Z"/><path id="path74" class="cls-1" d="M2.78,18.9H15.17L9.84,2.52a.93.93,0,0,0-1.75,0L2.78,18.9Z"/><path id="path82" class="cls-2" d="M45.23,18.9h0l2.68,8.27a1.85,1.85,0,0,1-.66,2L24,46.11,45.23,18.9Z"/><path id="path86" class="cls-1" d="M45.23,18.9H32.84L38.16,2.52a.93.93,0,0,1,1.75,0L45.23,18.9Z"/><polygon class="cls-3" points="24 46.1 32.84 18.91 45.23 18.91 24 46.1"/><polygon class="cls-3" points="24 46.1 2.78 18.91 15.17 18.91 24 46.1"/></g></svg>