<svg id="Layer_1" data-name="Layer 1" xmlns="http://www.w3.org/2000/svg" xmlns:xlink="http://www.w3.org/1999/xlink" viewBox="0 0 48 48"><defs><style>.cls-1{fill:none;}.cls-2{clip-path:url(#clip-path);}.cls-3{fill:url(#linear-gradient);}</style><clipPath id="clip-path"><path class="cls-1" d="M21.59,5.48a1.9,1.9,0,0,0,0,.19l-.6.18c-.28.08-.55.18-.83.28s-.55.21-.82.33c-.54.24-1.08.5-1.61.8a15.66,15.66,0,0,0-1.5.94l-.13-.06a12.43,12.43,0,0,0-9.43.39A13.62,13.62,0,0,0,9.1,17.8c-.12.33-.23.66-.33,1A22.91,22.91,0,0,0,8,22.51c0,.19,0,.37-.07.56a12.37,12.37,0,0,0-6,7,13.19,13.19,0,0,0,8.35,4.71h0a20.18,20.18,0,0,0,2,2.89c.31.38.64.74,1,1.1a10.4,10.4,0,0,0,.2,7.36,12,12,0,0,0,7.7-2.35c.42.15.86.27,1.29.39a19,19,0,0,0,4,.59c.34,0,.68,0,1,0h.7A8.64,8.64,0,0,0,33.7,48a8.88,8.88,0,0,0,2.67-5.88V42a.49.49,0,0,0,0-.12,15.32,15.32,0,0,0,4.15-4.28c.07-.11.14-.21.2-.32a7.1,7.1,0,0,0,4.88-1.77,7.47,7.47,0,0,0-2.53-4.71c-.35-.28,0,0,0,0l0,0-.06,0c0-.18,0-.36,0-.54s0-.64,0-1v-.42c0-.08,0-.05,0-.08v-.2l0-.27A2,2,0,0,0,43,28c0-.08,0-.17,0-.25l0-.25,0-.24c0-.33-.11-.66-.18-1a12.24,12.24,0,0,0-3.88-6.48,12.19,12.19,0,0,0-3.06-2,11.79,11.79,0,0,0-3.38-.95,10.85,10.85,0,0,0-1.7-.1H30l-.24,0-.86.12a9.38,9.38,0,0,0-3.14,1.19,9.48,9.48,0,0,0-4,4.66,9,9,0,0,0-.61,2.78c0,.23,0,.46,0,.69,0,.05,0,.11,0,.16v.19c0,.11,0,.22,0,.33a7.39,7.39,0,0,0,.26,1.34,7.28,7.28,0,0,0,1.14,2.3,7.1,7.1,0,0,0,3.65,2.56,6.74,6.74,0,0,0,1.94.28h.48l.2,0H29l.12,0,.23,0,.22,0,.41-.11a5.26,5.26,0,0,0,.76-.32,6.08,6.08,0,0,0,.66-.4l.17-.13a.49.49,0,0,0,.07-.7.5.5,0,0,0-.62-.12l-.15.09a4.84,4.84,0,0,1-.57.23,4.14,4.14,0,0,1-.63.15l-.32,0h-.87l-.18,0a5.2,5.2,0,0,1-1.45-.42,5.29,5.29,0,0,1-2.38-2.19,4.85,4.85,0,0,1-.57-1.64,5.2,5.2,0,0,1-.05-.88,2.18,2.18,0,0,1,0-.25h0v-.09a.49.49,0,0,1,0-.12c0-.16,0-.32.07-.48a6.32,6.32,0,0,1,1.84-3.45,6.91,6.91,0,0,1,.79-.64,5.76,5.76,0,0,1,.9-.51,5.46,5.46,0,0,1,1-.36,5.84,5.84,0,0,1,1-.18l.52,0h.55a8.66,8.66,0,0,1,1.12.17,8.35,8.35,0,0,1,2.15.81A7.91,7.91,0,0,1,37,25a7.64,7.64,0,0,1,.73,2.24c0,.19,0,.39.07.59v.86c0,.09,0,.25,0,.35s0,.43-.07.64-.06.43-.1.64-.09.42-.14.63a9.15,9.15,0,0,1-.4,1.22,10,10,0,0,1-1.24,2.26,10.21,10.21,0,0,1-4,3.26,9.88,9.88,0,0,1-2.48.76,8.18,8.18,0,0,1-1.3.13h-.66c-.23,0-.47,0-.7,0A13.37,13.37,0,0,1,24,38.09a14,14,0,0,1-2.57-1,13.54,13.54,0,0,1-4.23-3.51,13.31,13.31,0,0,1-2.47-4.83,13.33,13.33,0,0,1-.45-2.66v-.91h0v-.08c0-.11,0-.22,0-.33a12.67,12.67,0,0,1,.11-1.36c.05-.45.13-.91.22-1.36s.21-.91.33-1.35a18.06,18.06,0,0,1,.95-2.55,13.94,13.94,0,0,1,2.91-4.2,10.17,10.17,0,0,1,.92-.82,9.77,9.77,0,0,1,1-.71,11.12,11.12,0,0,1,1.05-.62l.55-.27.27-.12.28-.12c.38-.16.76-.29,1.15-.42.1,0,.19-.06.29-.09l.29-.08.59-.15.3-.06.3-.07.31,0,.15,0,.15,0,.3,0,.35,0,.33,0,.22,0h.3l.34,0,.17,0h.12l.29,0H30a16.62,16.62,0,0,1,2.26.25,15.94,15.94,0,0,1,4.1,1.36,17,17,0,0,1,3.34,2.18l.18.16.18.15.34.32c.12.11.22.22.34.32l.31.33a15.12,15.12,0,0,1,1.14,1.32,17.34,17.34,0,0,1,1.69,2.64l.08.15c0,.06,0,.11.08.16l.15.31a2.92,2.92,0,0,0,.14.31c0,.1.08.2.13.3.16.4.31.77.43,1.13.21.58.35,1.1.47,1.55a.37.37,0,0,0,.4.28.38.38,0,0,0,.35-.37c0-.48,0-1.05-.06-1.7a16.21,16.21,0,0,0-.48-2.76,17.1,17.1,0,0,0-1.25-3.31A17.73,17.73,0,0,0,42,11.57a17.38,17.38,0,0,0-1.25-1.35,7,7,0,0,0-.82-5,7.43,7.43,0,0,0-4.84,1.25l-.31-.13c-.44-.18-.89-.35-1.36-.49s-.94-.29-1.42-.4-1-.21-1.48-.29l-.27,0A9,9,0,0,0,25.88,0a9.51,9.51,0,0,0-4.29,5.48"/></clipPath><linearGradient id="linear-gradient" x1="-954.87" y1="-8632.76" x2="-952.02" y2="-8632.76" gradientTransform="translate(133045.01 -14654.63) rotate(-90) scale(15.41)" gradientUnits="userSpaceOnUse"><stop offset="0" stop-color="#fdf007"/><stop offset="1" stop-color="#ee5a29"/></linearGradient></defs><g class="cls-2"><path class="cls-3" d="M1.9,0H46.1V48H1.9Z"/></g></svg>