<svg id="Layer_1" data-name="Layer 1" xmlns="http://www.w3.org/2000/svg" viewBox="0 0 64 13"><defs><style>.cls-1{fill:#fff;}</style></defs><path class="cls-1" d="M9,1.92,8.44,2l-.5.11a.57.57,0,0,0-.41.31,1.28,1.28,0,0,0-.09.5V9a3.49,3.49,0,0,1-.34,1.55,3.26,3.26,0,0,1-.93,1.18,4.4,4.4,0,0,1-1.34.7,5.08,5.08,0,0,1-1.58.24A3.7,3.7,0,0,1,.89,12,2.33,2.33,0,0,1,0,10.06a1.8,1.8,0,0,1,.41-1.2,1.4,1.4,0,0,1,1.13-.48,1.5,1.5,0,0,1,1.08.4,1.34,1.34,0,0,1,.4,1,1.43,1.43,0,0,1-.35.92,4.86,4.86,0,0,1-.79.78v.11a.59.59,0,0,0,.31.26,1.12,1.12,0,0,0,.47.11,1.78,1.78,0,0,0,1.48-.67,3.22,3.22,0,0,0,.53-2V3a1.13,1.13,0,0,0-.08-.47.77.77,0,0,0-.42-.32A2.28,2.28,0,0,0,3.6,2c-.22,0-.4-.09-.55-.11v-.6H9v.6Zm9.25,8.6a4.36,4.36,0,0,1-.66.84,4.22,4.22,0,0,1-.88.68,5.93,5.93,0,0,1-1,.45,4.6,4.6,0,0,1-1.23.15,5.48,5.48,0,0,1-2-.33A3.85,3.85,0,0,1,11,11.43a3.5,3.5,0,0,1-.82-1.31,4.81,4.81,0,0,1-.27-1.63A4,4,0,0,1,10.23,7a4.06,4.06,0,0,1,.83-1.3,4,4,0,0,1,1.33-.9,4.78,4.78,0,0,1,1.81-.34,5.09,5.09,0,0,1,1.8.27,3.19,3.19,0,0,1,1.16.73,2.73,2.73,0,0,1,.65,1A4.07,4.07,0,0,1,18,7.74v.5H12.73a4.08,4.08,0,0,0,.62,2.44,2.26,2.26,0,0,0,2,.83,2.26,2.26,0,0,0,1.32-.4,3.88,3.88,0,0,0,1-1l.59.43Zm-3-3c0-.31,0-.63-.05-1A3.13,3.13,0,0,0,15,5.79a1.26,1.26,0,0,0-.36-.55,1,1,0,0,0-.59-.19,1.1,1.1,0,0,0-1,.61,4.41,4.41,0,0,0-.39,1.93Zm14,4.83H24.58v-.57l.36,0a1,1,0,0,0,.32-.08.47.47,0,0,0,.23-.25,1.22,1.22,0,0,0,.07-.48V7.32a2.06,2.06,0,0,0-.29-1.2,1,1,0,0,0-.87-.4,1.85,1.85,0,0,0-.58.09,2.21,2.21,0,0,0-.53.27,1.94,1.94,0,0,0-.36.32c-.08.1-.16.19-.23.29v4.19a1.05,1.05,0,0,0,.08.46.51.51,0,0,0,.25.27,1.63,1.63,0,0,0,.32.13,2.33,2.33,0,0,0,.36.08v.57H19v-.57l.39-.05a1.35,1.35,0,0,0,.34-.07.6.6,0,0,0,.35-.26,1.06,1.06,0,0,0,.09-.47V6.43A.94.94,0,0,0,20,6a1.08,1.08,0,0,0-.32-.38,1.5,1.5,0,0,0-.36-.16,2.19,2.19,0,0,0-.47-.08V4.76l3.72-.21.12.12V5.8h0l.53-.47a4.68,4.68,0,0,1,.58-.44,2.64,2.64,0,0,1,.75-.32,3.66,3.66,0,0,1,1-.13,2.41,2.41,0,0,1,1.91.72,2.76,2.76,0,0,1,.64,1.91V10.9a1.19,1.19,0,0,0,.08.46.67.67,0,0,0,.32.27l.31.11a2.24,2.24,0,0,0,.42.08v.57Zm10.74,0H36.33c-.45-.8-.87-1.47-1.24-2s-.7-1-1.06-1.54l-.46.39v1.7a1.19,1.19,0,0,0,.08.46.52.52,0,0,0,.32.27l.32.11a2.5,2.5,0,0,0,.38.06v.57H29.82v-.57l.4-.05a1.57,1.57,0,0,0,.34-.07.59.59,0,0,0,.34-.26A1.06,1.06,0,0,0,31,11V2.27a1.37,1.37,0,0,0-.11-.54,1,1,0,0,0-.33-.42,1.46,1.46,0,0,0-.45-.15,3.8,3.8,0,0,0-.53-.08V.51l3.88-.2.12.12V8.49l1.3-1.2c.48-.45.86-.83,1.15-1.12a1.13,1.13,0,0,0,.29-.4,1.19,1.19,0,0,0,0-.17c0-.1-.09-.17-.25-.24a4.29,4.29,0,0,0-.74-.16V4.65h4v.54a9,9,0,0,0-1.19.4,6.73,6.73,0,0,0-.89.52c-.21.14-.42.28-.62.44s-.43.34-.69.57l1.41,2.05,1.36,2a1.18,1.18,0,0,0,.6.49,3.11,3.11,0,0,0,.72.16v.57Zm5,0H40.09v-.57l.4,0a1.33,1.33,0,0,0,.33-.08.64.64,0,0,0,.36-.27,1,1,0,0,0,.1-.46V6.43A.82.82,0,0,0,41.15,6a1,1,0,0,0-.31-.34,1.73,1.73,0,0,0-.42-.18,2.94,2.94,0,0,0-.52-.1V4.76l3.82-.21.12.12v6.2a1,1,0,0,0,.11.46.67.67,0,0,0,.34.28,2.34,2.34,0,0,0,.73.21v.57ZM43.88,1.74a1.31,1.31,0,0,1-.45,1,1.61,1.61,0,0,1-2.17,0,1.28,1.28,0,0,1-.46-1,1.31,1.31,0,0,1,.46-1A1.55,1.55,0,0,1,42.35.31a1.53,1.53,0,0,1,1.08.42,1.34,1.34,0,0,1,.45,1ZM56,12.39H51.35v-.57l.36,0A1,1,0,0,0,52,11.7a.47.47,0,0,0,.23-.25,1.22,1.22,0,0,0,.07-.48V7.32A2,2,0,0,0,52,6.12a1,1,0,0,0-.86-.4,1.87,1.87,0,0,0-.59.09,2,2,0,0,0-.52.27,1.74,1.74,0,0,0-.37.32l-.23.29v4.19a1.22,1.22,0,0,0,.08.46.53.53,0,0,0,.26.27,1.31,1.31,0,0,0,.31.13,2.61,2.61,0,0,0,.36.08v.57H45.74v-.57l.39-.05a1.35,1.35,0,0,0,.34-.07.57.57,0,0,0,.35-.26,1.06,1.06,0,0,0,.09-.47V6.43A1,1,0,0,0,46.79,6a1.23,1.23,0,0,0-.33-.38,1.21,1.21,0,0,0-.36-.16,2.19,2.19,0,0,0-.47-.08V4.76l3.72-.21.12.12V5.8h0L50,5.33a4.68,4.68,0,0,1,.58-.44,2.59,2.59,0,0,1,.76-.32,3.56,3.56,0,0,1,1-.13,2.4,2.4,0,0,1,1.9.72,2.76,2.76,0,0,1,.64,1.91V10.9a1.19,1.19,0,0,0,.08.46.67.67,0,0,0,.32.27l.31.11a2.41,2.41,0,0,0,.42.08v.57Zm4.34.26a5,5,0,0,1-1.48-.22A5.38,5.38,0,0,1,57.78,12l-.23.53h-.61l-.1-2.91h.57a3.18,3.18,0,0,0,.39.79,4.42,4.42,0,0,0,.62.79,3.66,3.66,0,0,0,.84.6,2.18,2.18,0,0,0,1,.24,1.66,1.66,0,0,0,1.06-.28,1,1,0,0,0,.34-.85.86.86,0,0,0-.15-.52,1.53,1.53,0,0,0-.43-.35,5.19,5.19,0,0,0-.67-.27l-.89-.26a7.25,7.25,0,0,1-.91-.32,2.9,2.9,0,0,1-.78-.5,2.26,2.26,0,0,1-.57-.73,2.34,2.34,0,0,1-.21-1A2.09,2.09,0,0,1,58,5.12a3.92,3.92,0,0,1,2.42-.68,5.43,5.43,0,0,1,1.31.14,6.23,6.23,0,0,1,1,.32l.16-.46h.6L63.6,7.1h-.54a3.31,3.31,0,0,0-.94-1.4,2.08,2.08,0,0,0-1.43-.59,1.54,1.54,0,0,0-.94.25.81.81,0,0,0-.35.69.9.9,0,0,0,.51.86,6.64,6.64,0,0,0,1.4.5,4.51,4.51,0,0,1,2,1A2.1,2.1,0,0,1,64,10a2.28,2.28,0,0,1-1,2,4.46,4.46,0,0,1-2.62.7Z"/></svg>