<svg id="Layer_1" data-name="Layer 1" xmlns="http://www.w3.org/2000/svg" viewBox="0 0 48 48"><defs><style>.cls-1{fill:#c2453b;}.cls-1,.cls-10,.cls-11,.cls-14,.cls-15,.cls-16,.cls-17,.cls-4,.cls-5,.cls-6,.cls-7,.cls-8{fill-rule:evenodd;}.cls-14,.cls-2{fill:#db4d43;}.cls-15,.cls-3{fill:#221f20;}.cls-4{fill:#ebd6ba;}.cls-5{fill:#394f5f;}.cls-6{fill:#6d6b6d;}.cls-7{fill:#dad8d7;}.cls-8,.cls-9{fill:#f3e4cf;}.cls-10{fill:#527188;}.cls-11,.cls-12{fill:#fff;}.cls-13{fill:none;stroke:#c2453b;stroke-miterlimit:5;stroke-width:0.38px;}.cls-16{fill:#8aaec1;}.cls-17{fill:#1c1919;}</style></defs><g id="g10"><g id="g3393"><path id="path22" class="cls-1" d="M40.83,23.13A17,17,0,0,1,24,40.35,17,17,0,0,1,7.17,23.13,17,17,0,0,1,24,5.91,17,17,0,0,1,40.83,23.13"/><path id="path24" class="cls-2" d="M7.85,27.39S6.63,9.44,23.18,8.92L22,7l-9,3-2.57,3-2.24,4.3L7,22.26l.39,3.34"/><path id="path26" class="cls-3" d="M12.47,11.38A16.88,16.88,0,0,0,7.69,23.19h0A16.84,16.84,0,0,0,12.47,35h0A16.05,16.05,0,0,0,24,39.89h0A16,16,0,0,0,35.53,35h0a16.84,16.84,0,0,0,4.78-11.81h0a16.88,16.88,0,0,0-4.78-11.81h0A16.07,16.07,0,0,0,24,6.5h0a16.08,16.08,0,0,0-11.53,4.88Zm-.75,24.36A17.91,17.91,0,0,1,6.64,23.19h0a17.89,17.89,0,0,1,5.08-12.54h0A17.12,17.12,0,0,1,24,5.45h0a17.12,17.12,0,0,1,12.28,5.2h0a17.89,17.89,0,0,1,5.08,12.54h0a17.91,17.91,0,0,1-5.08,12.55h0A17.12,17.12,0,0,1,24,40.94h0a17.12,17.12,0,0,1-12.28-5.2h0"/><path id="path28" class="cls-4" d="M31.09,23.23l-2.57.38L25.06,24l-2.25.07L20.63,24,19,23.48l-1.48-1.6-1.15-3.27-.26-.71-1.54-.51-.9-1.48L13,13.8l.71-1.86,1.66-.58,1.35.64.64,1.41.77-.13.26-.32-.26-1.47-.06-1.86.38-2.57V5.6l1.17-1.87,2.05-1.48L25.25.71l4,.58,3.46,2.5,1.6,2.57,1,1.86.26,4.62-.77,4L33.4,20.34,32.05,22.2"/><path id="path30" class="cls-5" d="M28.91,34.32l-9.17.38v1.54l.76,5.39-.38.45L13.71,39.9l-.45-.77-.64-7.25-1.48-4.36-.32-1L16,23l1.6-.64L19,24.06l1.21,1.09,1.42.45.64.19L23,29.13l.57.7,1.48-.51-1,2,5.58,2.63-.7.38"/><path id="path32" class="cls-6" d="M13.71,11.94l1.66-.58,1.35.64.64,1.41.77-.13.19-.76L17.94,11l.38-3.53L18,5.59l1.16-1.35,2.5-2-.71-1L17.43,3,16,4.18,15.12,6,13.83,7.71l-.38,2.05.26,2.18"/><path id="path34" class="cls-7" d="M16.34,5.91s1-2.37,4.81-3.53.19-.83.19-.83l-4.17,1.6-1.6,1.61L14.86,6l1.48-.13"/><path id="path36" class="cls-7" d="M14.41,11.49S13.07,7,18.2,6.36L18,5.59l-3.52.83-1,3.34.26,2.18.7-.45"/><path id="path38" class="cls-8" d="M16.46,17.45l.84-.81a.54.54,0,0,1,.45.49c.06.45.25,4.49,3,6.67.25.2-2.05-.32-2.05-.32l-2.05-3.2"/><path id="path40" class="cls-8" d="M28.27,16.24s.14-1.95.67-1.8a.72.72,0,0,1,.52.67s-1.27.83-1.19,1.13"/><path id="path42" class="cls-9" d="M33.59,9.12s-1.06.22-1.16,1.15,1.16.19,1.35.13"/><path id="path44" class="cls-9" d="M25.83,9.18s-1.41.19-1.41,1.09,1.6.83,2,.45"/><path id="path46" class="cls-8" d="M17.11,13.35s-2.44-1.48-2.7-.06-.83,2.43.39,3.91L14,16.94l-.77-2L12.94,13l1.47-1.54,1.67.13,1,.77.07,1"/><path id="path48" class="cls-8" d="M18.26,9.31s1.09-5.64,6.61-6.74c4.54-.89,6.92.2,7.82,1.22,0,0-4-4.81-7.89-3.33s-6.67,4.17-6.6,5.9a25.41,25.41,0,0,1,.06,3"/><path id="path50" class="cls-8" d="M33.14,4.43S31.28,4.37,31.21,6a1.27,1.27,0,0,0,.13.51s1.48-1.67,2.38-.77"/><path id="path52" class="cls-8" d="M25,6.72s-.33-2.55-2.51-1.07c-1.41,1-1.28,2.31-1,2.57s.18.77.38.42.13-1.51.84-1.83,1.86-.68,2.31-.09"/><path id="path54" class="cls-10" d="M19,24.06l-6,2.69s2.5,9.94,1.22,13l-.9-.32-.07-3.78-1.66-7.19-.71-2,6.29-4.24L19,24.06"/><path id="path56" class="cls-10" d="M19.59,29.56l.85,1v3.85h-1s-.12-2.69-.12-3,.12-1.47.12-1.47"/><path id="path58" class="cls-10" d="M19.61,35l-2.89.12.83.58,2.06.32"/><path id="path60" class="cls-5" d="M29.48,34.38l2.38-.06.57,5.9L30,40.54l-.52-6.16"/><path id="path62" class="cls-5" d="M30.12,34.38l3.6-.19s1.47-3.72,1.47-3.91,1.28-5.39,1.28-5.39l-2.88-3L33,21.37,31.47,22.9v6l-1.35,5.51"/><path id="path64" class="cls-10" d="M31.73,33.94l-2.25.44.32,1.8c.84.39,2.25-.64,2.25-.64"/><path id="path66" class="cls-10" d="M31.79,22.71l4.49,3.34.13-1.54L33,21.37l-1.22,1.34"/><path id="path68" class="cls-11" d="M21.83,47,20.5,41.63l-.66-4-.1-3,6-.31h3.74l-.34,6.74.58,5.19-.06,1-4.88.38-3-.64"/><path id="path70" class="cls-7" d="M28.65,34.32a56.89,56.89,0,0,0,.64,11.42,12.4,12.4,0,0,1-4.75,1.54l5.39-.2.64-.38L29.8,36.18l-.19-2.24"/><path id="path72" class="cls-11" d="M32.54,39.71,35,39l4.75-.25.7-2.18-1.28-3.79-1.47-.19-2.05.64-2,1-1-.19-.81.32"/><path id="path74" class="cls-7" d="M32.5,38.42a9.54,9.54,0,0,1,1.92-.7l-.7-3.53.83-.32s.58,3.34.58,3.72c0,0,3.59.19,3.91.19a5.81,5.81,0,0,0,.58-3l.7,2L40.39,38l-1,1.54-1.15.25-1.93-.06-.64-.84-2.24.32-.71.26"/><path id="path76" class="cls-12" d="M30,33.87l-1.41-3.59-1.48-2.12s.32-.89.77-.89h1.48l1.41.51-.13,2.37L30,33.87"/><path id="path78" class="cls-7" d="M30.25,32.65a30,30,0,0,1-1.79-4s.32-.77.77-.58,1.41.7,1.41.7V27.59l-2.18-.45L27,27.33l2.5,5.9.52.06"/><path id="path80" class="cls-12" d="M22.41,24.19,20.63,24,19,23.48v.58l.81.9,2.57,1.15"/><path id="path82" class="cls-7" d="M19.54,24.38s2,.83,2.63.64l.07.77-1.8-.38-1.09-.77.19-.26"/><path id="path84" class="cls-1" d="M32.54,27.48a12.29,12.29,0,0,1-2.94-.4,8.77,8.77,0,0,1,0-.95,2.19,2.19,0,0,1,1-.21,1.72,1.72,0,0,0-1.12-.13,1.78,1.78,0,0,0-.19-.59C30,25,31.4,23.55,32.21,24c.39.22.55,1.51.58,2.14a2.13,2.13,0,0,1-.25,1.31"/><path id="path86" class="cls-13" d="M32.54,27.48a12.29,12.29,0,0,1-2.94-.4,8.77,8.77,0,0,1,0-.95,2.19,2.19,0,0,1,1-.21,1.72,1.72,0,0,0-1.12-.13,1.78,1.78,0,0,0-.19-.59C30,25,31.4,23.55,32.21,24c.39.22.55,1.51.58,2.14A2.13,2.13,0,0,1,32.54,27.48Z"/><path id="path88" class="cls-1" d="M27.33,25.71a1.93,1.93,0,0,1,0,.24c-.34.23-.89.22-1.26.41a3.35,3.35,0,0,1,1.36.35l0,.62a23.51,23.51,0,0,1-1.92,1.46,5.19,5.19,0,0,1-1.93.59c-.21-.05-.23-.31-.31-.55a8.06,8.06,0,0,1-.63-2.15c0-1-.14-2.65.93-2.45a9.33,9.33,0,0,1,2.54.93,2.66,2.66,0,0,0,1.26.55"/><path id="path90" class="cls-13" d="M27.33,25.71a1.93,1.93,0,0,1,0,.24c-.34.23-.89.22-1.26.41a3.35,3.35,0,0,1,1.36.35l0,.62a23.51,23.51,0,0,1-1.92,1.46,5.19,5.19,0,0,1-1.93.59c-.21-.05-.23-.31-.31-.55a8.06,8.06,0,0,1-.63-2.15c0-1-.14-2.65.93-2.45a9.33,9.33,0,0,1,2.54.93A2.66,2.66,0,0,0,27.33,25.71Z"/><path id="path92" class="cls-1" d="M28,26.89a3.87,3.87,0,0,1-.16-1.17c1.44-1,1.71,1.66.16,1.17"/><path id="path94" class="cls-13" d="M28,26.89a3.87,3.87,0,0,1-.16-1.17C29.23,24.76,29.5,27.38,28,26.89Z"/><path id="path96" class="cls-14" d="M30,27.33s-.45-.64-.13-.83.64,0,.84-.32,0-.52.06-.9.39-.45.71-.51,1.22-.2,1.34.12l-.38-1.15-.77-.26-2.44,1.41-.13.71V27"/><path id="path98" class="cls-14" d="M23.31,29.45c-.08-1-.16-2-.25-3-.14-1.5.36-1.24,1.65-1.24A3.37,3.37,0,0,1,26,25.6c.35.71-.58.55.4,1.09s2.31-.27,2-1.28c-.18-.23-1-.07-1.26-.22l-1.51-.78c-.63-.33-2.11-.81-2.79-.35-1.72,1.17.11,4.1.73,5.32"/><path id="path100" class="cls-15" d="M25,6.72c-1.75-.4-2.62.74-3.15,1.92-.47-.12-.29-.76-.17-1.09A3,3,0,0,1,24.29,5.7c.44.07,1,.47.71,1"/><path id="path102" class="cls-15" d="M33.51,8.72h.08a18.2,18.2,0,0,0,1.24,2.41c-.33.78-2.53,1.47-2.49.07.47-.21,1.29,0,1.71-.31a4.82,4.82,0,0,1-.54-2.17"/><path id="path104" class="cls-15" d="M25.89,8.74a7.19,7.19,0,0,0,1,1.92c.24.24.71.52.47,1.17a1.42,1.42,0,0,1-.67.57c-.84.24-2.78,0-2.12-1,.69,0,1.62.45,2.13-.05-.39-.64-1.1-1.89-.84-2.62"/><path id="path106" class="cls-15" d="M33.2,15.72a7,7,0,0,1-4.71,1.48,1.4,1.4,0,0,1-.18-1.79c.22.38.08,1.08.7,1.19,1.17.19,2.53-.72,3.36-1,.52-.87,0-1.2-.51-1.76-1-1.16-2.24-2.59-2.2-4.32.39-.28.42.43.48.56a15.74,15.74,0,0,0,2.68,3.67c.23.25.6.49.64.65.12.47-.31,1-.26,1.36"/><path id="path108" class="cls-15" d="M16.67,14.87c-.4-.22-.49-1.21-1-1.24-.66,0-.54,1.28-.54,2.06a2.45,2.45,0,0,1-.2-2.34c-.38-.18-.55.21-.76.35.27-2,2.88-.92,2.45,1.17"/><path id="path110" class="cls-15" d="M34,16.54c-.59,1.11-1.41,2.33-3.12,2.37a3.78,3.78,0,0,1,0-1.12A9.08,9.08,0,0,0,34,16.54"/><path id="path112" class="cls-15" d="M25.79,17.26a10.82,10.82,0,0,0,4.59.59A5.72,5.72,0,0,1,30.46,19c-1.91.09-4.17-.38-4.67-1.72"/><path id="path114" class="cls-15" d="M25.58,18.33c.76,1.9,3.36,1.68,5.55,1.63a1.23,1.23,0,0,1-.57.64,5.57,5.57,0,0,1-3.61,0,4.74,4.74,0,0,1-1.35-1.5c-.17-.21-1-.75,0-.75"/><path id="path116" class="cls-16" d="M33.11,28.79a39.4,39.4,0,0,1-2.79,4.42,21.54,21.54,0,0,0,.7-5.12,1.62,1.62,0,0,1,2.09.7"/><path id="path118" class="cls-15" d="M37.88,34.25c-1,.2-1.69,1.16-2.66,1.1a3.18,3.18,0,0,1,2.66-1.1"/><path id="path120" class="cls-15" d="M38.32,35.8a13.92,13.92,0,0,1-2.58.15c.39-.59,1.88-.39,2.58-.15"/><path id="path122" class="cls-15" d="M38.6,37.14a28,28,0,0,1-2.91-.07c.51-.55,2.32-.2,2.91.07"/><path id="path124" class="cls-7" d="M31.4,40.81a21.07,21.07,0,0,1,.52,3.55,3.7,3.7,0,0,1-1.46.32c-.05-1.07-.19-2.69-.15-3.71.33,0,.82-.23,1.09-.16"/><path id="path126" class="cls-4" d="M29.93,24c-.46.3-.84.67-1.28,1a2.81,2.81,0,0,1-2.22-.63s.08,0,.09-.08c1,.47,2.36-.19,3.41-.28"/><path id="path128" class="cls-16" d="M24.47,31.07c.28-1.23,1.4-1.88,2.42-2.56a20.36,20.36,0,0,1,2.39,4.7,24,24,0,0,1-4.81-2.14"/><path id="path130" class="cls-15" d="M30.31,41c0,1,.1,2.64.15,3.71a3.7,3.7,0,0,0,1.46-.32,21.07,21.07,0,0,0-.52-3.55C31.13,40.74,30.64,41,30.31,41ZM19.82,35.21a53.15,53.15,0,0,0,2.27,11.13,14.68,14.68,0,0,0,8.09.15c-.42-2-.24-4.52-.49-6.7-.18-1.64-.09-3.29-.35-5C26.54,34.25,22.58,34.7,19.82,35.21ZM30,34.86c0,1.75.08,3.48.21,5.24.67-.1,1.13-.17,1.76-.31a37.61,37.61,0,0,0-.6-5.08A4,4,0,0,0,30,34.86Zm3.41-.28a3.65,3.65,0,0,0-1,0c.14,1.43.49,3,.61,4.51a4.15,4.15,0,0,0,1.13-.29,9,9,0,0,0-.75-4.22ZM38.6,39.3A2.22,2.22,0,0,0,40,36.57a13.5,13.5,0,0,0-.88-3c-.27-.4-1-.92-1.56-.56-.93.6-2.57.77-3.25,1.5a24,24,0,0,1,.58,4.13c1.17.07,2.6-.32,3.57.1a12.64,12.64,0,0,0-2.14.54,4.46,4.46,0,0,0,2.33,0Zm-9.32-6.09a20.36,20.36,0,0,0-2.39-4.7c-1,.68-2.14,1.33-2.42,2.56A24,24,0,0,0,29.28,33.21ZM31,28.09a21.54,21.54,0,0,1-.7,5.12,39.4,39.4,0,0,0,2.79-4.42A1.62,1.62,0,0,0,31,28.09Zm-2-.7c-.4,0-.73.46-1.25.24-.12.13-.23.28-.35.4,1.14,1.38,1.66,3.34,2.55,5a21.74,21.74,0,0,0,.52-5C29.87,28.07,29.51,27.44,29.05,27.39Zm-1.26-1.67A3.87,3.87,0,0,0,28,26.89C29.5,27.38,29.23,24.76,27.79,25.72Zm-1.72-.56a9.33,9.33,0,0,0-2.54-.93c-1.07-.21-1,1.46-.93,2.45a8.06,8.06,0,0,0,.63,2.15c.08.24.1.5.31.55a5.19,5.19,0,0,0,1.93-.59,23.51,23.51,0,0,0,1.92-1.46l0-.62a3.35,3.35,0,0,0-1.36-.35c.37-.19.92-.18,1.26-.41a1.93,1.93,0,0,0,0-.24A2.66,2.66,0,0,1,26.07,25.16ZM19.68,24c-.56.56,1.55,1.33,2.23,1.37,0-.36.2-.69.16-.95A7.25,7.25,0,0,1,19.68,24Zm6.84.26c0,.06-.08,0-.09.08a2.81,2.81,0,0,0,2.22.63c.44-.32.82-.69,1.28-1C28.88,24.07,27.56,24.73,26.52,24.26Zm6.27,1.91c0-.63-.19-1.92-.58-2.14-.81-.48-2.25.95-2.87,1.17a1.78,1.78,0,0,1,.19.59,1.72,1.72,0,0,1,1.12.13,2.19,2.19,0,0,0-1,.21,8.77,8.77,0,0,0,0,.95,12.29,12.29,0,0,0,2.94.4A2.13,2.13,0,0,0,32.79,26.17Zm-14-1.63c-.17-.12-1.35-1.66-1.51-1.59a25.26,25.26,0,0,0-5.92,3.67,32.22,32.22,0,0,1,2.51,12.43c1.95.91,3.66,2.22,6.3,2.36-.3-2.16-.58-4.09-.76-6.13-.66-.28-1.61,0-2.23-.09,0-.75.94-.33,1-.83s-.52-.41-.33-1c.49.18.74.57,1.26.71.47-1,0-2.87.06-3.73,0-.16.08-.9.45-.77s0,2,0,2.78a4.23,4.23,0,0,0,.22,2,73.37,73.37,0,0,1,7.91-.65,19.74,19.74,0,0,1-2.12-.95c-.43-.25-1.78-.75-1.91-1.16-.2-.65.52-1,.64-1.55-1.29.7-1.54-.67-1.84-1.65a11.55,11.55,0,0,1-.5-2.05,22,22,0,0,1-3.26-1.75Zm12.93-1.41c1.77-.86,2.1,3.23,1.4,4.54.11.39.48.54.63.9-1,1.78-2.1,3.43-3.11,5.19.75-.47,1.83-.08,2.72-.43.32-.13.55-.87.8-1.47a32.86,32.86,0,0,0,1.7-5.24A7,7,0,0,0,36,25.17c-.08-.56-.85-1-1.24-1.33-.71-.65-1.17-1.22-1.92-1.82-.3.45-.95.75-1.2,1.11Zm-17-15.77c-.84.94-.67,2.68-.56,3.92A2.28,2.28,0,0,1,17.65,13c.73,0,.28-.91.14-1.49-.43-1.88.73-3.92.06-5.64a4.67,4.67,0,0,0-3.18,1.49ZM20.74,2c-1.92.55-4.38,1.94-5.17,3.66.61-.09,1-.39,1.64-.43a5,5,0,0,0,.79,0c.52-.13,1-1.3,1.35-1.73s.84-.61,1.16-1c.2-.1.5-.09.51-.39C20.94,2,20.84,1.92,20.74,2Zm10,.51c-2-1.12-5.36-2-7.48-.91-1.7.85-4,2.26-4.8,4.05.73,1.72-.22,3.3-.28,5.05,0,.93.44,1.75.47,2.76-.25.42-1,.47-1.55.44-.18-.9-.49-1.91-1.42-2a2.15,2.15,0,0,0-2.32,2.07c-.07,1.33,1,3.53,2.57,3.38.6-.06.74-.66,1.39-.65.36.7-.54.92-.63,1.43a3.59,3.59,0,0,0,.13.88,12,12,0,0,0,1.52,3.54c.79,1.12,2.32,1.29,4,1.4.29-.63,1.38-.58,2.09-.42a7,7,0,0,1-2.3-1.87,4.74,4.74,0,0,1-1.55-2.8c1.42,2,2.6,3.69,5.18,4.56,2,.66,4.24-.3,5.74-1.36a6.43,6.43,0,0,0,1.44-1.77,15,15,0,0,0,2.26-9.08,10.26,10.26,0,0,0-.52-3.64c-.48-1-2.09-1.81-3-.94-.17-.94.79-1.51,1.92-1.18a10.86,10.86,0,0,0-2.8-2.93Zm3.71,30.7c1.56-.77,4.47-2.08,5.44,0a17.52,17.52,0,0,1,1,2.86c.26,1.12-.29,3.47-1.44,3.84a6.77,6.77,0,0,1-3.42.07,1.74,1.74,0,0,1-.42-.55,4.76,4.76,0,0,0-2.38.41c.07.64-.37.75-.78.88-.31,1.21.61,2.78.39,3.88-.16.78-1.12.9-1.83,1A6,6,0,0,0,31,46.77a1.75,1.75,0,0,1-1.57,1c-2.27.27-5.7.4-7.88-.39-.6-1.49-1.08-3.3-1.59-5-2.12.23-3.84-.91-5.46-1.66-.56-.26-1.33-.41-1.54-.85a7.74,7.74,0,0,1-.17-2,31,31,0,0,0-.77-6c-.23-.92-.65-1.73-.93-2.61a19.45,19.45,0,0,1-.86-2.65c-.18-1.21,1-1.28,1.69-1.8,1.13-.81,2-1.26,3.24-2a7.48,7.48,0,0,0,1.57-1c.25-.5-.42-1.21-.6-1.6a4.86,4.86,0,0,1-.47-1.76A3.45,3.45,0,0,1,13.43,17a5.58,5.58,0,0,1-.64-4.84c.05-.13.31-.38.35-.57A5.84,5.84,0,0,0,13,10.29c-.07-2.08.36-3.88,1.76-4.5.56-2.27,2.6-3,4.51-4.15a14.28,14.28,0,0,1,2.33-1c2.92-1.08,7.41-.88,9.84,1a13.07,13.07,0,0,1,3.26,3.61c1.56,3.14,1.45,8.4.36,12.22a12.53,12.53,0,0,1-.65,1.89c-.21.43-.85,1.29-.77,1.67s1.46,1.44,1.76,1.73c.53.51,1.54,1.2,1.63,1.85a6.49,6.49,0,0,1-.51,2.3c-.66,2.23-1.31,4.29-2.07,6.27"/><path id="path132" class="cls-8" d="M24.05,17.74c.09-.11.55-.28,1.2,0,0,0-.77.13-.71,1.42l-.32-.07s-.33-1.16-.17-1.38"/><path id="path134" class="cls-17" d="M29.68,28.77a.36.36,0,1,1-.71,0,.36.36,0,0,1,.71,0"/><path id="path136" class="cls-17" d="M30,30.41a.36.36,0,0,1-.71,0,.36.36,0,0,1,.71,0"/></g></g></svg>