<svg id="Layer_1" data-name="Layer 1" xmlns="http://www.w3.org/2000/svg" viewBox="0 0 48 48"><defs><style>.cls-1{fill:#326ce3;}.cls-2{fill:#fff;stroke:#fff;stroke-miterlimit:8;stroke-width:0.08px;}</style></defs><path class="cls-1" d="M23.85.72a3,3,0,0,0-1.24.33L5.9,9a3.14,3.14,0,0,0-1.73,2.15L.08,29.06A3.1,3.1,0,0,0,.53,31.5l.18.25L12.26,46.11a3.17,3.17,0,0,0,2.49,1.17H33.27a3.25,3.25,0,0,0,2.5-1.18L47.31,31.73a3.07,3.07,0,0,0,.6-2.67L43.79,11.15A3.19,3.19,0,0,0,42.07,9L25.38,1.05A3.19,3.19,0,0,0,23.83.72Z"/><path class="cls-2" d="M24,6.82a1,1,0,0,0-1,1.11v.28a7.74,7.74,0,0,0,.13.95,8.46,8.46,0,0,1,.1,1.81,1.09,1.09,0,0,1-.32.52l0,.42a13.74,13.74,0,0,0-1.8.28,12.81,12.81,0,0,0-6.53,3.73l-.36-.26a.76.76,0,0,1-.59-.06,9.12,9.12,0,0,1-1.35-1.21,7.18,7.18,0,0,0-.65-.7l-.22-.18a1.21,1.21,0,0,0-.7-.26,1,1,0,0,0-.8.36,1.07,1.07,0,0,0,.25,1.47l.21.16a7.54,7.54,0,0,0,.83.49,8,8,0,0,1,1.49,1.05,1.09,1.09,0,0,1,.2.57l.33.3a12.93,12.93,0,0,0-2,9l-.42.12a1.26,1.26,0,0,1-.43.43,8.93,8.93,0,0,1-1.79.3c-.32,0-.64,0-1,.07l-.26.06h0a1,1,0,0,0-.86,1.14,1,1,0,0,0,.28.56,1,1,0,0,0,1,.25h0l.27,0a6.9,6.9,0,0,0,.9-.33,9.4,9.4,0,0,1,1.74-.51,1,1,0,0,1,.57.2l.45-.07a13,13,0,0,0,5.76,7.2l-.18.39a1,1,0,0,1,.09.56,10.46,10.46,0,0,1-.9,1.64,6.23,6.23,0,0,0-.54.8l-.13.27a1,1,0,0,0,.37,1.37,1.07,1.07,0,0,0,.61.13,1,1,0,0,0,.83-.65l.12-.26c.11-.3.21-.6.29-.91a6.93,6.93,0,0,1,.77-1.79.73.73,0,0,1,.43-.21l.22-.41a13,13,0,0,0,9.22,0l.2.38a.77.77,0,0,1,.51.31A9.38,9.38,0,0,1,30,39.37a7.6,7.6,0,0,0,.3.92l.12.25a1,1,0,0,0,1.3.59,1.14,1.14,0,0,0,.48-.39,1,1,0,0,0,0-1.05l-.13-.27a7.39,7.39,0,0,0-.53-.8,10.33,10.33,0,0,1-.9-1.59.8.8,0,0,1,.1-.6c-.06-.13-.12-.26-.17-.4a13.05,13.05,0,0,0,5.74-7.23l.42.08a.78.78,0,0,1,.56-.21,10.24,10.24,0,0,1,1.74.51,8.25,8.25,0,0,0,.9.34l.26.06h0a1,1,0,0,0,1.26-.65,1,1,0,0,0,0-.63,1,1,0,0,0-.82-.66l-.29-.07a7.77,7.77,0,0,0-1-.08,10,10,0,0,1-1.79-.29,1.07,1.07,0,0,1-.43-.44l-.4-.12a13,13,0,0,0-2.08-9l.35-.33a.79.79,0,0,1,.19-.57,10.11,10.11,0,0,1,1.48-1,8.61,8.61,0,0,0,.83-.49l.22-.17a1,1,0,0,0,.32-1.39,1,1,0,0,0-.52-.42,1,1,0,0,0-1,.25l-.23.17a8.55,8.55,0,0,0-.65.7,9.5,9.5,0,0,1-1.31,1.23,1.06,1.06,0,0,1-.61.07l-.38.27a13.1,13.1,0,0,0-8.3-4c0-.15,0-.38,0-.45a.79.79,0,0,1-.33-.5,9.18,9.18,0,0,1,.12-1.81A7.48,7.48,0,0,0,25,8.23v-.3a1.06,1.06,0,0,0-1-1.11Zm-1.25,7.74-.3,5.24h0a.92.92,0,0,1-.5.76.86.86,0,0,1-.9-.08l-4.3-3.05a10.32,10.32,0,0,1,4.95-2.7c.36-.07.71-.13,1.07-.17Zm2.5,0a10.36,10.36,0,0,1,6,2.89l-4.25,3a.88.88,0,0,1-1.43-.67ZM15.17,19.4l3.93,3.51v0a.88.88,0,0,1,.28.86.9.9,0,0,1-.63.66h0l-5,1.45a10.33,10.33,0,0,1,1.46-6.51Zm17.63,0a10.5,10.5,0,0,1,1.5,6.49l-5-1.45v0a.89.89,0,0,1-.62-.65.91.91,0,0,1,.27-.87l3.9-3.48Zm-9.61,3.78H24.8l1,1.25L25.43,26,24,26.68,22.54,26l-.35-1.56Zm5.15,4.26a.74.74,0,0,1,.21,0l5.2.88a10.16,10.16,0,0,1-4.17,5.23l-2-4.86A.89.89,0,0,1,28,27.53a1.09,1.09,0,0,1,.3-.07Zm-8.73,0a.92.92,0,0,1,.73.4.91.91,0,0,1,.07.83v0l-2,4.82a10.33,10.33,0,0,1-4.14-5.18l5.16-.88h.18ZM24,29.56a.89.89,0,0,1,.8.46h0l2.54,4.59-1,.3a10.5,10.5,0,0,1-5.64-.29L23.23,30a.88.88,0,0,1,.75-.44Z"/></svg>