<svg id="Layer_1" data-name="Layer 1" xmlns="http://www.w3.org/2000/svg" viewBox="0 0 48 48"><defs><style>.cls-1{fill:#999;}</style></defs><path class="cls-1" d="M6.73,30.91A1.55,1.55,0,0,1,6,30.75,10.81,10.81,0,0,1,11.1,10.24a14.58,14.58,0,0,1,28.05,5.24,8.47,8.47,0,0,1,8.47,5.64,8.44,8.44,0,0,1-3.53,9.53,1.54,1.54,0,1,1-1.71-2.57,5.44,5.44,0,0,0,2.3-6A5.45,5.45,0,0,0,38,18.78a1.56,1.56,0,0,1-1.41-.31A1.53,1.53,0,0,1,36,17.13a11.5,11.5,0,0,0-22.4-4.77,1.55,1.55,0,0,1-1.68,1.05A7.72,7.72,0,0,0,7.42,28a1.55,1.55,0,0,1-.69,2.93Z"/><path class="cls-1" d="M13.3,39.38a1.41,1.41,0,0,1-.4-.05,1.55,1.55,0,0,1-1.09-1.89l3.33-12.5a1.55,1.55,0,0,1,3,.8L14.79,38.23A1.55,1.55,0,0,1,13.3,39.38Z"/><path class="cls-1" d="M31.36,40a1.44,1.44,0,0,1-.4-.06A1.54,1.54,0,0,1,29.87,38L33.2,25.55a1.55,1.55,0,1,1,3,.79l-3.33,12.5A1.56,1.56,0,0,1,31.36,40Z"/><path class="cls-1" d="M20.26,46.78a1.39,1.39,0,0,1-.4-.06,1.55,1.55,0,0,1-1.1-1.89l5.65-21.17a1.55,1.55,0,1,1,3,.79L21.75,45.63A1.55,1.55,0,0,1,20.26,46.78Z"/></svg>