<svg id="Layer_1" data-name="Layer 1" xmlns="http://www.w3.org/2000/svg" viewBox="0 0 48 48"><defs><style>.cls-1{fill:#999;}</style></defs><path class="cls-1" d="M24.06,37.06A13.06,13.06,0,1,1,37.12,24,13.07,13.07,0,0,1,24.06,37.06Zm0-22.61A9.55,9.55,0,1,0,33.61,24,9.57,9.57,0,0,0,24.06,14.45Z"/><polygon class="cls-1" points="23.76 41.73 28.05 41.73 25.9 44.87 23.76 48 21.62 44.87 19.48 41.73 23.76 41.73"/><polygon class="cls-1" points="24.06 6.27 28.34 6.27 26.2 3.13 24.06 0 21.92 3.13 19.78 6.27 24.06 6.27"/><polygon class="cls-1" points="8.03 14.48 10.48 10.97 6.69 10.94 2.89 10.9 4.24 14.45 5.59 18 8.03 14.48"/><polygon class="cls-1" points="39.84 14.48 37.4 10.97 41.19 10.94 44.99 10.9 43.64 14.45 42.29 18 39.84 14.48"/><polygon class="cls-1" points="8.16 33.32 10.6 36.84 6.81 36.87 3.01 36.9 4.36 33.35 5.71 29.81 8.16 33.32"/><polygon class="cls-1" points="39.97 33.32 37.52 36.84 41.31 36.87 45.11 36.9 43.76 33.35 42.41 29.81 39.97 33.32"/></svg>