<svg height="588" viewBox="0 0 1432 588" width="1432" xmlns="http://www.w3.org/2000/svg"><g fill="none" fill-rule="evenodd" opacity=".2" stroke="#d0d8dc" stroke-width="1.184" transform="translate(-107 -379.877717)"><path d="m1.95968725 153.071681c24.24969725-49.673908 55.93391235-90.5161098 102.58822075-117.0708176 48.062867-27.35686084 92.813747-29.96729644 148.963319-33.49791632 54.051321-3.39883758 192.50359-10.32256536 329.223291 68.36178502 28.071139 16.1553648 56.713203 32.6396129 86.085592 63.5798059 67.812888 71.429448 51.08939 126.755098 96.380982 181.512365 55.392159 66.969477 156.868745 76.656049 241.683298 84.750921 208.64262 19.915171 280.79474-70.778558 370.32776-17.185559 39.07602 23.38964 37.0882 50.120822 67.12945 111.007685 4.68199 9.489472 6.98027 17.192434 53.81065 88.246016 82.36313 124.97088 123.86141 187.57206 139.37117 193.207759 85.25212 30.986031 148.55179-107.92398 258.71518-93.509287 81.62759 10.680096 147.06093 100.051419 195.22486 192.66344"/><path d="m2.15909402 155.911418c26.02289638-47.170045 58.10509168-86.731093 104.34162598-112.2040399 12.307169-6.7804861 24.206982-12.0139626 35.919264-16.3180873 35.159769-12.9203957 68.126481-17.1248242 109.664349-20.36093932 25.396755-1.97788053 69.499616-2.50386382 123.469673 2.9186916 27.098068 2.72159112 54.882704 6.25450282 85.040634 14.17519242 38.839522 10.2457879 79.494958 27.252581 120.117056 51.4455206 27.999253 16.7271854 56.481916 33.8141939 86.167896 63.6474159 19.762524 19.859021 32.309315 37.169486 41.636843 55.007081 23.087012 44.149364 23.130769 84.526317 54.844155 124.502193 24.734149 31.18084 59.230271 50.617011 97.859343 63.378122 45.334306 14.869628 96.197619 20.379275 142.177867 24.818619 24.87792 2.404168 47.83887 3.105479 68.99432 2.480946 38.80098-1.202084 70.65709-6.829762 100.43371-12.764549 51.84889-10.332879 91.57709-23.786134 129.54981-25.420234 24.44348-1.053113 47.29608 2.851081 71.38221 16.99648 39.17812 23.028671 37.4268 50.197599 68.98495 109.09856 5.32168 9.931802 8.63992 18.01636 54.62745 87.768162 55.63908 84.359011 90.19771 140.042193 113.53476 170.025532 10.63711 13.665252 18.28416 21.419782 23.36206 23.378181 83.29348 32.130818 146.94216-102.055656 257.65042-87.467927 81.015 10.650302 146.84319 97.329827 196.56049 186.961277"/><path d="m2.3585008 158.751613c27.7950538-44.667327 60.2950239-82.9243031 106.0960722-107.3372618 12.536372-6.6819359 24.461189-11.8420727 35.989067-16.290585 34.889935-13.4635679 65.17601-19.749011 106.214841-23.5695519 25.371751-2.36176816 69.487113-1.0496748 123.619697 3.6967801 27.777343 2.4351079 54.583697 4.454242 84.858313 12.0987617 38.828062 9.8882567 79.144902 28.0386911 119.553424 52.9214824 27.926325 17.2978601 56.265215 34.9830455 86.24916 63.7138805 20.206344 19.361685 32.825021 34.929187 42.500521 52.5078 23.607929 42.887693 23.04013 84.190559 54.079451 124.999529 24.031954 31.593375 57.857135 51.799614 96.312221 65.336521 44.985293 15.628236 95.980918 21.804815 142.078888 26.307187 24.963354 2.438545 48.018064 3.037868 69.133934 2.11883 38.85306-1.800261 69.39022-8.659817 99.77631-14.963595 50.52264-10.479558 90.08415-23.366721 129.89466-24.472547 24.43202-.678392 47.4013 3.152462 71.58745 17.087009 39.28126 22.666556 38.02481 50.182702 70.84045 107.18829 5.97908 10.386737 10.3006 18.840286 55.44634 87.289162 55.44008 83.998042 87.50456 139.301919 111.26772 170.197422 10.39333 13.513989 17.99037 21.298312 23.15369 23.403391 81.34526 33.169034 145.33254-96.187332 256.58776-81.424276 80.40136 10.620508 146.62337 94.604799 197.89403 181.256822"/><path d="m2.55738665 161.591808c29.56721115-42.163463 62.50162555-79.0934485 107.85051835-102.4704838 12.768701-6.5822397 24.716438-11.6713286 36.059912-16.2630825 34.6201-14.0124699 62.226582-22.3823653 102.764291-26.7781647 25.34883-2.7490935 69.478779.3873254 123.770763 4.4760147 28.459743 2.1428949 54.284691 2.6539811 84.67495 10.020039 38.816602 9.5330175 78.79693 28.8259472 118.990835 54.3974443 27.851312 17.869681 56.063099 36.146168 86.32938 63.78149 20.659542 18.863205 33.334478 32.687742 43.365243 50.007375 24.106966 41.628312 22.950532 83.847925 53.315787 125.496863 23.330801 32.001328 56.448578 53.101394 94.764058 67.296067 44.594605 16.522064 95.762133 23.22921 141.979914 27.794608 25.046702 2.475215 48.197262 2.971404 69.271452 1.757861 38.9062-2.399584 68.1244-10.486434 99.11996-17.161494 49.19951-10.596443 88.62246-21.47937 130.24055-23.526006 24.39555-1.199792 47.50652 3.453842 71.79373 17.177537 39.38336 22.304442 38.83848 50.078422 72.69596 105.279165 6.65418 10.849695 11.96023 19.664212 56.26313 86.810162 55.24109 83.637074 84.81455 138.558209 109.0007 170.369312 10.15578 13.356996 17.69657 21.174552 22.94532 23.428602 79.41161 34.100677 143.72498-90.320155 255.52301-75.382917 79.78979 10.590714 146.40666 91.880916 199.2307 175.554659"/><path d="m2.75679343 164.432003c31.34041037-39.660744 64.72385457-75.2396753 109.60392257-97.6037057 13.006239-6.4813976 24.970645-11.5040224 36.130757-16.2355801 34.351306-14.5671016 59.280279-25.0237411 99.313741-29.9879233 25.327994-3.1398567 69.474611 1.8094283 123.921828 5.2552492 29.143186 1.8449523 53.986728.8548661 84.49263 7.9436082 38.8041 9.1766323 78.503133 29.5100692 118.427203 55.8734061 27.816932 18.3693076 55.876612 37.3012686 86.410644 63.8479546 21.121073 18.363578 33.836641 30.442859 44.228922 47.508094 24.583084 40.368932 22.865101 83.494978 52.552123 125.994199 22.633815 32.402404 55.062941 54.317229 93.215895 69.254467 44.231006 17.317341 95.54439 24.65475 141.88094 29.282028 25.131091 2.511885 48.379581 2.959945 69.411061 1.396892 38.96454-2.896918 66.8544-12.309613 98.46256-19.360539 47.87846-10.683535 87.11388-20.66805 130.58539-22.57832 24.38097-1.071448 47.61384 3.755223 71.99898 17.268066 39.4865 21.942327 39.83238 49.890489 74.5525 103.368895 7.34492 11.316089 13.61988 20.489284 57.08097 86.331162 55.04419 83.276104 82.12767 137.81106 106.73263 170.542347 9.92137 13.196566 17.40277 21.047354 22.73904 23.452667 77.49151 34.938355 142.11431-84.450685 254.45721-69.340412 79.1772 10.56092 146.18996 89.157033 200.56529 169.85135"/><path d="m2.95630438 167.272198c33.11152592-37.158026 66.95962752-71.3629835 111.35732662-92.7369276 13.245861-6.3771177 25.226936-11.3378621 36.201602-16.2080778 34.084597-15.1263169 56.335018-27.6742843 95.864233-33.1965359 25.307157-3.5352037 69.472528 3.2143423 124.071852 6.0344837 29.828711 1.540134 53.701265-1.0175886 84.310309 5.8660315 38.810351 8.7285724 78.166622 30.2766984 117.86253 57.3493679 27.754422 18.9273772 55.705751 38.4494932 86.492948 63.9155642 21.591982 17.860514 34.33047 28.195684 45.092602 45.006523 25.038364 39.11528 22.782797 83.135154 51.787418 126.491533 21.940996 32.796605 53.678345 55.530772 91.668773 71.212867 43.867406 18.10918 95.326647 26.081437 141.783008 30.770595 25.215474 2.548555 48.559824 2.904941 69.548584 1.035924 39.01976-3.475615 65.58336-14.127063 97.80621-21.559586 46.5595-10.741976 85.59384-19.910587 130.92919-21.630633 24.36951-.923622 47.72011 4.057749 72.2063 17.358595 39.58964 21.581358 40.97632 49.621195 76.40696 101.459771 8.05337 11.782484 15.28056 21.312063 57.89986 85.852161 54.84519 82.91399 79.44182 137.058183 104.4656 170.713092 9.69008 13.032697 17.10689 20.916717 22.53171 23.479023 75.58705 35.682065 140.50468-78.583508 253.39246-63.300198 78.56565 10.533417 145.97118 86.435442 201.89884 164.150333"/><path d="m3.15571116 170.112508c34.88368324-34.655309 69.20998604-67.464519 113.11073084-87.87015 13.48965-6.2694 25.481144-11.1739936 36.273488-16.1817213 33.815805-15.690116 53.389757-30.3317032 92.412642-36.4040027 25.288404-3.9351342 69.472528 4.6055051 124.22396 6.8125723 30.514237 1.2307321 53.403301-2.8281629 84.126946 3.7896008 38.798891 8.358436 77.83011 31.0456195 117.29994 58.8253297 27.687745 19.4854462 55.546351 39.5874052 86.572128 63.9820282 22.072267 17.355157 34.819089 25.949655 45.957323 42.507243 25.470725 37.865067 22.704659 82.766164 51.023755 126.988868 21.251302 33.182785 52.292707 56.739732 90.121651 73.171266 43.503807 18.897583 95.108904 27.505833 141.684034 32.258017 25.298821 2.585225 48.740061 2.847644 69.685061.674955 39.07706-4.055458 64.31233-15.938784 97.14986-23.758631 45.24575-10.775209 84.06547-19.205839 131.27404-20.682947 24.36013-.762045 47.82741 4.35913 72.41258 17.447978 39.69278 21.220389 42.24527 49.281998 78.26247 99.550646 8.7764 12.248879 16.94124 22.137135 58.71873 85.374307 54.6462 82.551875 76.76015 136.300721 102.19753 170.883836 9.46297 12.865391 16.80997 20.786081 22.32335 23.504234 73.70237 36.344414 138.89609-72.715185 252.32979-57.256547 77.952 10.503622 145.75343 83.710413 203.23447 158.447023"/><path d="m3.35511793 172.952703c36.65688247-32.152591 71.47284657-63.543136 114.86517707-83.0033719 13.73448-6.1593904 25.735351-11.0124171 36.343291-16.1542189 33.548054-16.2607907 50.44658-32.9994355 88.963134-39.6137613 25.269651-4.3385028 69.473569 5.9840626 124.373984 7.5929527 31.201846.9144546 53.105336-4.6398831 83.943583 1.712024 38.789514 7.9894456 77.492556 31.8179785 116.736309 60.3001454 27.623151 20.0481 55.40362 40.717295 86.654432 64.050785 22.560887 16.842925 35.297291 23.70248 46.821002 40.00567 25.881207 36.62173 22.63069 82.391444 50.260092 127.486204 20.565777 33.56438 50.90707 57.947545 88.573488 75.130811 43.141249 19.681401 94.890119 28.930227 141.58506 33.745438 25.38425 2.621895 48.92134 2.791493 69.82467.31284 39.13227-4.636445 63.03817-17.74592 96.49246-25.956531 43.93408-10.784376 82.5444-21.537812 131.61888-19.734114 24.34347.893828 47.93368 4.659364 72.61887 17.537361 39.79592 20.858274 43.61736 48.874046 80.11797 97.641521 9.51402 12.708398 18.60088 22.961062 59.53553 84.894162 54.44826 82.192052 74.08368 135.538675 99.93155 171.056872 9.23793 12.694646 16.51409 20.648568 22.11602 23.528298 71.8354 36.926548 137.28542-66.846861 251.26399-51.215188 77.34045 10.474974 145.53569 80.987676 204.56906 152.744861"/><path d="m3.55400378 175.792325c38.42903982-29.648727 73.74820912-59.59998 116.61962322-78.1365938 13.982437-6.0447971 25.989558-10.8519865 36.413094-16.1255706 33.281345-16.837195 47.504444-35.6774811 85.513625-42.822374 25.252982-4.7476008 69.476696 7.348869 124.52505 8.3710413 31.889456.5924474 52.807373-6.4493115 83.761263-.3655527 38.779096 7.622747 77.152918 32.5926293 116.172677 61.7772538 27.556475 20.609606 55.271307 41.834579 86.734654 64.116102 23.05784 16.328401 35.769241 21.456452 47.684681 37.507537 26.269811 35.386414 22.561928 82.007556 49.49747 127.982392 19.884419 33.940247 49.521433 59.151921 87.024283 77.089211 42.779733 20.461782 94.673418 30.355768 141.487128 35.234006 25.467598 2.657418 49.102618 2.731904 69.962188-.04813 39.18958-5.222017 61.76609-19.548472 95.83715-28.156722 42.62554-10.769479 81.02749-21.223827 131.96373-18.786427 24.32158 1.165414 48.03891 4.96189 72.8241 17.629035 39.89803 20.496159 45.07594 48.40536 81.97452 95.730105 10.2631 13.164479 20.26052 23.786133 60.35233 84.416308 54.25135 81.831082 71.40929 134.773191 97.66556 171.228761 9.01602 12.519319 16.21613 20.508765 21.90662 23.553509 69.98823 37.435343 135.67682-60.978538 250.20028-45.172683 76.72785 10.44518 145.31899 78.263793 205.90468 147.042698"/><path d="m3.75341056 178.632521c40.20119724-27.14601 76.03294824-55.637344 118.37302744-73.268671 14.23456-5.9279118 26.243765-10.6949935 36.484981-16.0992139 33.011509-17.4193291 44.561266-38.3624024 82.062033-46.0309867 25.236313-5.1612827 69.494407 10.551752 124.676116 9.1502758 32.570815-.8285097 52.509408-8.2575939 83.578942-2.4431294 38.767636 7.2560484 76.813281 33.3695719 115.609046 63.2520692 27.489797 21.174552 55.152538 42.942697 86.815916 64.184859 23.562088 15.807001 36.232857 19.211568 48.548361 35.005964 26.636536 34.160266 22.498376 81.617939 48.732765 128.480873 19.208269 34.310383 48.137878 60.351713 85.478203 79.047612 42.417175 21.237578 94.454633 31.781308 141.387112 36.721426 25.553027 2.694088 49.283897 2.67117 70.101797-.409098 39.24375-5.807589 60.48984-21.34415 95.17975-30.355768 41.32116-10.733956 79.51058-20.930468 132.30858-17.837595 24.30075 1.422103 48.14517 5.262125 73.03038 17.717272 40.00117 20.13519 46.60743 47.882814 83.82899 93.822126 11.0278 13.610248 21.9212 24.608914 61.1712 83.937308 54.05236 81.468968 68.74012 134.003125 95.39645 171.399506 8.79932 12.343991 15.92233 20.367815 21.70138 23.579865 68.15982 37.874235 134.06719-55.111361 249.13448-39.131323 76.11526 10.415385 145.10125 75.539909 207.23928 141.339388"/><path d="m3.95281733 181.472716c41.97439637-24.642146 78.32914737-51.652935 120.12643267-68.401893 14.488767-5.806443 26.49693-10.540292 36.555824-16.0717115 32.741676-18.0083387 41.61809-41.0564911 78.612526-49.2407453 25.219644-5.5784023 69.516285 11.9658334 124.82614 9.9295103 33.250089-1.2238565 52.210402-10.0647304 83.396621-4.5195601 38.756175 6.8916416 76.47156 34.1476604 115.045414 64.7280316 27.422078 21.739496 55.044188 44.037063 86.89718 64.251322 24.074669 15.277581 36.688137 16.97127 49.41204 32.506685 26.982424 32.94443 22.440033 81.221446 47.969101 128.977062 18.536287 34.675935 46.754325 61.550359 83.931082 81.007157 42.055659 22.011083 94.23689 33.205703 141.288137 38.208847 25.636377 2.729613 49.464135 2.610436 70.239315-.770067 39.30106-6.395453 59.21569-23.132952 94.52235-32.554814 40.01992-10.67895 77.99472-20.654298 132.65447-16.889907 24.27887 1.671916 48.2504 5.564651 73.23563 17.8078 40.10431 19.773076 48.19935 47.308702 85.68553 91.911856 11.80605 14.047994 23.58084 25.433985 61.99009 83.458308 53.85233 81.107998 66.07302 133.227328 93.12838 171.572541 8.58366 12.16408 15.6254 20.221136 21.493 23.60393 66.35329 38.251247 132.45861-49.243037 248.06974-33.087672 75.5037 10.385591 144.8835 72.816027 208.57594 135.636079"/><path d="m4.1522241 184.312911c43.7465538-22.139427 80.6347231-47.649044 121.8798369-63.535115 14.746099-5.68039 26.750095-10.386737 36.626669-16.045355 32.471841-18.601932 38.675954-43.7586013 75.163018-52.448212 25.202974-6.0023976 69.539205 13.3478287 124.976163 10.7087448 33.928323-1.6146197 51.912439-11.8700558 83.214301-6.5971368 38.743673 6.5272349 76.129839 34.9291868 114.480741 66.203993 27.355401 22.306734 54.948339 45.118824 86.979484 64.317787 24.594544 14.742429 37.135084 14.733262 50.275719 30.006258 27.308518 31.740055 22.388984 80.819224 47.205439 129.475543 17.869514 35.035759 45.370771 62.744421 82.381876 82.965557 41.697269 22.780004 94.020189 34.631244 141.190205 39.696268 25.721807 2.766283 49.645414 2.548555 70.378924-1.131036 39.35627-6.986754 57.94048-24.914877 93.86495-34.753859 38.72076-10.604465 76.47886-20.395317 132.99828-15.942221 24.26012 1.911416 48.35875 5.866031 73.44399 17.898329 40.20537 19.410961 49.84128 46.688752 87.53895 90.002732 12.5968 14.471989 25.24257 26.257911 62.80793 82.979307 53.65438 80.745884 63.41323 132.445802 90.86239 171.744432 8.36904 11.983022 15.33057 20.071018 21.28464 23.627994 64.56654 38.56867 130.84793-43.374714 247.00707-27.045167 74.88901 10.355797 144.66471 70.090998 209.90844 129.93277"/><path d="m4.35163088 187.153221c45.51871112-19.63671 82.94863342-43.624527 123.63428312-58.668337 15.004474-5.548608 27.002219-10.235475 36.696472-16.017853 32.19888-19.2024009 35.732777-46.4710249 71.712468-55.6568246 25.186305-6.4309766 69.49649 12.6946468 125.127229 11.4879793 34.647187-.7528781 51.613432-13.6755656 83.03198-8.6747136 38.731171 6.166266 75.787076 35.7118591 113.918152 67.6788089 27.285597 22.876262 54.858741 46.189125 87.059705 64.386543 25.120669 14.196965 37.574737 12.499838 51.139398 27.504686 27.614817 30.550577 22.344185 80.412418 46.441775 129.972878 17.20795 35.392144 43.988259 63.937338 80.834755 84.925102 41.336795 23.545488 93.801404 36.056785 141.091231 41.18369 25.805153 2.802952 49.826691 2.485529 70.515401-1.493151 39.41253-7.576909 56.66736-26.688782 93.20964-36.951759 37.42472-10.510498 74.96299-20.155817 133.34208-14.994534 24.24033 2.142895 48.46502 6.168558 73.65028 17.988858 40.30851 19.049992 51.52905 46.026403 89.3955 88.092461 13.40005 14.885671 26.9022 27.081837 63.62576 82.501453 53.45643 80.384915 60.75864 131.658546 88.59536 171.915176 8.1586 11.798527 15.03573 19.918609 21.07628 23.653205 62.80167 38.832235 129.23934-37.506391 245.94231-21.002662 74.27746 10.326003 144.44698 67.368261 211.24408 124.230607"/><path d="m4.55051673 189.993416c47.29086857-17.133992 85.26983667-39.581675 125.38872927-53.802705 15.265974-5.411096 27.253301-10.085357 36.767317-15.989204 31.924878-19.8086 32.788557-49.1914706 68.261918-58.8654379 25.169635-6.8652852 69.501699 14.0067403 125.278295 12.2660679 35.337922-1.1023876 51.313384-15.4792643 82.848617-10.7511443 38.719711 5.8052971 75.443271 36.4956774 113.35452 69.1547703 27.215795 23.444646 54.779562 47.24453 87.140968 64.453008 25.653046 13.642333 38.006056 10.270998 52.003078 25.005406 27.903404 29.372557 22.307721 79.998735 45.678112 130.470213 16.551595 35.743945 42.60783 65.124524 79.287633 86.883501 40.978404 24.307533 93.583661 37.48118 140.991215 42.672257 25.891626 2.838476 50.007971 2.420211 70.655011-1.85412 39.46879-8.172794 55.39528-28.45581 92.55329-39.15195 36.13179-10.400489 73.4492-19.933506 133.68692-14.046848 24.21949 2.366352 48.57024 6.469939 73.85552 18.079387 40.41269 18.687877 53.25119 45.323946 91.251 86.183336 14.2158 15.284456 28.56184 27.905763 64.4436 82.021308 53.25849 80.023946 58.10926 130.868998 86.32834 172.088211 7.95022 11.612886 14.74506 19.761616 20.86895 23.678416 61.05764 39.043086 127.62971-31.638067 244.87652-14.961303 73.6659 10.297355 144.23131 64.644378 212.5797 118.527298"/><path d="m4.74992351 192.833611c49.06302589-14.631274 87.59833269-35.519342 127.14213349-48.935927 15.5306-5.269 27.504382-9.938678 36.838161-15.961702 31.647751-20.421674 29.843297-51.9199369 64.811369-62.075196 25.151924-7.3030317 69.50795 15.3108121 125.42936 13.0464483 36.026574-1.4587728 51.014379-17.282963 82.666297-12.828721 38.707209 5.44662 75.097383 37.2817877 112.790889 70.6295867 27.14495 24.016466 54.707675 48.287329 87.221189 64.520617 26.192715 13.078535 38.431123 8.05018 52.867799 22.506126 28.174281 28.209435 22.276466 79.58047 44.914448 130.966402 15.90045 36.093455 41.227402 66.311711 77.73947 88.841902 40.623139 25.068432 93.365918 38.90672 140.893283 44.159677 25.974972 2.876293 50.188208 2.357185 70.792528-2.213942 39.52505-8.76868 54.12321-30.212526 91.89589-41.350996 34.8441-10.274436 71.93751-19.72953 134.03282-13.098015 24.20073 2.582933 48.67546 6.770172 74.0618 18.168769 40.51375 18.325762 55.00251 44.585965 93.1065 84.273066 15.04407 15.668343 30.22253 28.729689 65.26144 81.543453 53.0595 79.661832 55.46717 130.071429 84.06131 172.260102 7.74394 11.423807 14.45335 19.600039 20.66059 23.70248 59.33445 39.209247 126.02112-25.769744 243.8128-8.918797 73.05331 10.26756 144.01253 61.920495 213.91534 112.825135"/><path d="m4.94933028 195.673233c50.83518322-12.12741 89.93203782-31.438674 128.89553772-44.068003 15.796267-5.120029 27.754422-9.79429 36.909006-15.935346 31.36854-21.041623 26.896994-54.6564246 61.361861-65.2838082 25.132129-7.7487996 69.512117 16.6057165 125.579384 13.8256828 36.716267-1.8208877 50.714331-19.0843698 82.483976-14.9062977 38.693666 5.0890889 74.750452 38.0701891 112.227257 72.1066941 27.073064 24.588287 54.64204 49.314085 87.302452 64.587082 26.736552 12.50213 38.846815 5.836237 53.731478 20.0057 28.42953 27.062356 22.253546 79.15762 44.150785 131.463737 15.254514 36.440672 39.849058 67.494313 76.191307 90.801447 40.268916 25.823602 93.149217 40.332261 140.795351 45.647099 26.05936 2.911816 50.368445 2.289574 70.930055-2.576058 39.58026-9.366857 52.85321-31.957782 91.23953-43.548896 33.55743-10.133486 70.42685-19.542743 134.37767-12.151474 24.18302 2.794931 48.78277 7.072699 74.26808 18.259298 40.61689 17.964793 56.7778 43.815898 94.96096 82.363941 15.88483 16.036188 31.88321 29.554761 66.08032 81.064454 52.86051 79.300862 52.8303 129.270421 81.79325 172.431991 7.53974 11.234728 14.16475 19.436171 20.4543 23.727691 57.6321 39.331862 124.41149-19.90142 242.74805-2.876292 72.44071 10.238912 143.79374 59.196612 215.24888 107.121826"/><path d="m5.14873705 198.513429c52.60838245-9.624692 92.27095215-27.339672 130.64894195-39.201226 16.06506-4.965328 28.004462-9.651048 36.979851-15.907843 31.085161-21.667303 23.948607-57.4020809 57.912352-68.4912755 25.112335-8.2002973 69.515243 17.8914535 125.730451 14.6037714 37.403876-2.1875863 50.414283-20.8846307 82.300613-16.9838744 38.681164 4.7327037 74.40248 38.8597375 111.662584 73.5815105 27.002219 25.162399 54.582655 50.329381 87.384757 64.654691 27.283514 11.916558 39.255213 3.630316 54.595157 17.505274 28.671235 25.934758 22.237919 78.73248 43.387122 131.962218 14.613787 36.783307 38.471755 68.674625 74.644185 92.759847 39.914693 26.57648 92.92939 41.756656 140.695335 47.13452 26.143749 2.948486 50.549724 2.22311 71.069654-2.937027 39.63549-9.96618 51.58426-33.692725 90.58214-45.747941 32.27494-9.977639 68.91932-19.375437 134.72251-11.203788 24.16427 3.001199 48.888 7.37408 74.47333 18.349827 40.72003 17.602678 58.57496 43.013745 96.81855 80.454817 16.73704 16.386843 33.5418 30.377541 66.89712 80.584307 52.66255 78.939894 50.2007 128.462539 79.52621 172.603882 7.33763 11.044503 13.87929 19.267719 20.24489 23.752901 55.95267 39.416661 122.8029-14.033097 241.68434 3.166213 71.82812 10.209118 143.57705 56.473875 216.58451 101.418517"/><path d="m5.34824801 201.353624c54.38053979-7.121974 94.61507569-23.224626 132.40234699-34.334448 16.334894-4.802605 28.252418-9.508953 37.050695-15.880341 30.799699-22.298712 20.998137-60.1557577 54.461803-71.7010336 25.091498-8.6563787 69.51941 19.1714607 125.880474 15.3830059 38.093569-2.5600146 50.115277-22.6837457 82.119334-19.0603053 38.66762 4.3774645 74.053467 39.650431 111.098953 75.057472 26.928249 25.736512 54.526396 51.329781 87.46602 64.722302 27.834643 11.317235 39.65736 1.433562 55.458836 15.004848 28.899397 24.820911 22.230626 78.3039 42.623458 132.458407 13.979311 37.124794 37.096536 69.852643 73.097064 94.718246 39.561512 27.327066 92.711647 43.183343 140.596361 48.623087 26.228137 2.985156 50.727874 2.154354 71.207177-3.297995 39.68966-10.567795 50.31948-35.415063 89.92579-47.946987 30.99556-9.808042 67.41387-19.224174 135.06631-10.256101 24.14864 3.201737 48.99531 7.676605 74.68065 18.440355 40.82317 17.241709 60.38671 42.181797 98.67301 78.544547 17.60385 16.719163 35.20249 31.202612 67.71496 80.106453 52.46565 78.578924 47.5805 127.646634 77.25919 172.775771 7.13759 10.851987 13.59591 19.094683 20.03861 23.776966 54.29302 39.46479 121.19222-8.164773 240.61959 9.208718 71.21447 10.179324 143.35825 53.748846 217.91909 95.716354"/><path d="m5.54765478 204.193934c56.15269722-4.619257 96.96232422-19.092392 134.15679322-29.46767 16.605771-4.631862 28.49829-9.370295 37.121539-15.852839 30.507987-22.936996 18.044542-62.9163105 51.011253-74.9096463 25.067536-9.1193356 69.521494 20.4434463 126.03154 16.1622403 38.78118-2.9381723 49.814188-24.4817146 81.934931-21.1378818 38.655117 4.024517 73.70341 40.4434168 110.536362 76.5334338 26.854279 26.31177 54.474305 52.31643 87.546241 64.788766 28.38994 10.706453 40.054299-.752878 56.323558 12.505568 29.116098 23.725398 22.231667 77.871883 41.859795 132.955742 13.349002 37.46399 35.722358 71.027225 71.547858 96.676645 39.21354 28.074215 92.495988 44.607738 140.498429 50.110509 26.312525 3.02068 50.909153 2.085598 71.345746-3.658964 39.74383-11.171702 49.05781-37.122503 89.26943-50.146033 29.71828-9.625838 65.91154-19.091245 135.41012-9.307268 24.13509 3.396545 49.10261 7.97684 74.88693 18.528592 40.92631 16.879594 62.21304 41.324639 100.52956 76.635422 18.48107 17.033149 36.86212 32.027684 68.53279 79.628599 52.26666 78.21681 44.96758 126.826146 74.99216 172.947661 6.93756 10.656032 13.31462 18.915918 19.83024 23.802177 52.65631 39.480833 119.58364-2.297596 239.55484 15.250077 70.60396 10.14953 143.14156 51.026109 219.25369 90.013045"/><path d="m5.74654064 207.034129c57.92589646-2.115393 99.31374136-14.944114 135.91123936-24.600892 16.878731-4.454242 28.744163-9.231637 37.191342-15.825336 30.21419-23.582157 15.088863-65.686031 47.561745-78.1182595 25.042532-9.5880222 69.523578 21.7097025 126.181564 16.9403295 39.468789-3.320915 49.515181-26.2785383 81.753651-23.2143132 38.640532 3.6727156 73.351271 41.2375482 109.972732 78.0093962 26.778225 26.888174 54.423255 53.289326 87.627504 64.856375 28.946278 10.083065 40.442902-2.929005 57.187237 10.003996 29.323422 22.650514 22.240002 77.438721 41.095089 133.453077 12.723903 37.803187 34.350265 72.200661 70.001779 98.636192 38.864526 28.819071 92.276161 46.033278 140.398412 51.599075 26.396915 3.05735 51.088349 2.014551 71.484305-4.021079 39.79697-11.777901 47.80033-38.815046 88.61204-52.345078 28.44516-9.429884 64.41443-18.976652 135.756-8.359582 24.11843 3.589062 49.20784 8.278221 75.09322 18.620267 41.02841 16.51748 64.04875 40.438833 102.38298 74.725151 19.37184 17.325363 38.52385 32.850464 69.35272 79.148454 52.06663 77.85584 42.36195 125.998782 72.72513 173.118405 6.74065 10.462369 13.03541 18.736006 19.62187 23.828533 51.04147 39.468227 117.97401 3.570727 238.49009 21.292583 69.99031 10.120881 142.92381 48.303372 220.58931 84.310881"/><path d="m5.94594741 209.874324c59.69805379.387325 101.66619959-10.779793 137.66464359-19.734114 17.153775-4.267455 28.987952-9.095271 37.263229-15.797834 29.914141-24.233047 12.129016-68.461481 44.111195-81.3280177 25.013361-10.0624385 69.523578 22.9702287 126.331588 17.7207097 40.155356-3.710532 49.215133-28.0742152 81.57133-25.2918896 38.626989 3.3209141 72.99809 42.0328256 109.408058 79.4842116 26.703213 27.46687 54.374289 54.250765 87.708767 64.923986 29.504701 9.447072 40.828381-5.092527 58.051958 7.50357 29.523455 21.592817 22.256672 77.003266 40.331427 133.951557 12.105053 38.140092 32.980255 73.370659 68.453615 100.594592 38.519679 29.561636 92.058418 47.457673 140.299438 53.08535 26.481303 3.09402 51.267544 1.944649 71.622874-4.380902 39.8501-12.385245 46.54908-40.489254 87.95568-54.544123 27.17516-9.223616 62.9194-18.879248 136.10085-7.411896 24.10593 3.776996 49.31411 8.580747 75.29846 18.70965 41.13155 16.156511 65.8907 39.531254 104.23952 72.816027 20.27302 17.596949 40.18349 33.675536 70.16952 78.670599 51.87076 77.494872 39.76779 125.163397 70.45706 173.290295 6.54791 10.266415 12.76349 18.548073 19.41559 23.852598 49.4485 39.430412 116.36542 9.440197 237.42637 27.335088 69.37772 10.091087 142.70503 45.578343 221.92286 78.607573"/><path d="m6.14535418 212.714519c61.46916932 2.890043 104.01969882-6.600575 139.41804782-14.867336 17.429861-4.070354 29.231741-8.960051 37.334074-15.770331 29.609926-24.889667 9.168127-71.244953 40.660645-84.5366309 24.984189-10.5437304 69.523578 24.2238799 126.483695 18.4999439 40.839841-4.104732 48.914044-29.8698921 81.387968-27.370612 38.613445 2.9736964 72.643867 42.82925 108.845469 80.961319 26.624033 28.044421 54.32428 55.197306 87.788988 64.99045 30.064165 8.797329 41.207607-7.242297 58.915637 5.00429 29.716193 20.55231 22.281675 76.56552 39.567763 134.448893 11.490373 38.47585 31.612329 74.538364 66.905452 102.552991 38.175875 30.301909 91.840676 48.883214 140.201506 54.573918 26.565691 3.129543 51.446739 1.871308 71.760391-4.743018 39.90219-12.993735 45.30201-42.143981 87.29933-56.743169 25.90829-9.007034 61.42854-18.799032 136.4457-6.464208 24.09342 3.96149 49.41933 8.882127 75.50474 18.800178 41.23365 15.794396 67.73891 38.598465 106.09503 70.906902 21.18566 17.844471 41.84312 34.499462 70.98735 78.190454 51.67177 77.133902 37.18405 124.322282 68.19003 173.463331 6.3531 10.068168 12.49262 18.356702 19.20827 23.876662 47.87638 39.367385 114.75474 15.30852 236.36058 33.377593 68.76616 10.062439 142.48833 42.855606 223.25953 72.90541"/><path d="m6.34476096 215.554141c63.24236854 5.393907 106.37528304-2.405313 141.17145204-10.000558 17.706988-3.864086 29.473446-8.827122 37.404918-15.742829 29.299461-25.552016 6.20203-74.034154 37.211138-87.745243 24.948767-11.0307521 69.520452 25.471801 126.633719 19.279178 41.524325-4.503517 48.613996-31.6632771 81.205647-29.4470425 38.600943 2.6241868 72.286518 43.6268195 108.280795 82.4361355 26.546939 28.624263 54.275315 56.133533 87.871293 65.05806 30.62363 8.134979 41.582667-9.380609 59.778275 2.503864 29.905807 19.532429 22.315014 76.127773 38.805141 134.946227 10.879859 38.812754 30.245445 75.704925 65.357289 104.511391 37.834154 31.03989 91.623974 50.308755 140.103574 56.062485 26.649038 3.166213 51.624892 1.797969 71.897918-5.105132 39.95428-13.604518 44.06431-43.774645 86.64297-58.942215 24.64559-8.778994 59.9408-18.736006 136.7895-5.515376 24.08301 4.142548 49.52769 9.183508 75.71207 18.890707 41.33575 15.432281 69.58817 37.642756 107.95053 68.996632 22.10977 18.070219 43.50381 35.323388 71.80519 77.711453 51.47279 76.772934 34.61072 123.472 65.92301 173.635221 6.16035 9.868776 12.22694 18.159602 18.99886 23.901873 46.32821 39.283732 113.14615 21.176843 235.29686 39.418952 68.15357 10.032645 142.27163 40.132869 224.59412 67.203247"/><path d="m6.54416773 218.394451c65.01452587 7.896625 108.72982427 1.802553 142.92589827-5.13378 17.984116-3.647505 29.71411-8.694195 37.474721-15.715327 28.984827-26.220095 3.232807-76.83023 33.760588-90.953856 24.912303-11.5246489 69.518368 26.715139 126.784785 20.057267 42.208809-4.906885 48.31499-33.4543706 81.022285-31.5234733 38.58844 2.278115 71.931253 44.4243883 107.718205 83.9120973 26.467759 29.204105 54.223223 57.056009 87.951514 65.124524 31.183093 7.460024 41.954601-11.504023 60.642996.004584 30.092295 18.529738 22.356687 75.690027 38.040436 135.442416 10.276637 39.149659 28.882727 76.870339 63.811209 106.470936 37.493474 31.775579 91.404148 51.73315 140.003558 57.548761 26.734468 3.202883 51.803046 1.725775 72.036478-5.464955 40.005329-14.217592 42.833909-45.378951 85.986619-61.141261 23.38602-8.541785 58.45723-18.690169 137.13435-4.567689 24.07154 4.321314 49.63291 9.484888 75.91835 18.981236 41.43889 15.070166 71.43742 36.666421 109.80499 67.087507 23.04638 18.271903 45.16345 36.146168 72.62303 77.232453 51.27484 76.410819 32.05094 122.613696 63.65702 173.805965 5.9697 9.67053 11.96649 17.959064 18.79154 23.928229 44.80088 39.184037 111.53652 27.042876 234.23211 45.461458 67.54097 10.00285 142.05284 37.40784 225.92975 61.499938"/><path d="m6.74305359 221.234646c66.78668331 10.399343 111.08436641 6.025317 144.68034441-.267002 18.261243-3.419464 29.952689-8.563558 37.545566-15.687824 28.661859-26.892758.258374-79.633183 30.310038-94.162469 24.871671-12.0242759 69.513159 27.952746 126.93585 20.836502 42.890168-5.315984 48.013901-35.2454647 80.839965-33.6010507 38.574896 1.9320427 71.57182 45.2242497 107.154573 85.3880587 26.386496 29.783947 54.169048 57.968172 88.032777 65.192134 31.739432 6.771319 42.32341-13.614831 61.506675-2.496988 30.2767 17.546528 22.404612 75.253427 37.276773 135.940898 9.6755 39.486562 27.52001 78.031168 62.263046 108.429336 37.156962 32.510122 91.187446 53.15869 139.904584 59.037327 26.818856 3.238407 51.981199 1.650144 72.175042-5.82707 40.054303-14.831812 41.613923-46.952317 85.329223-63.340306 22.12957-8.294264 56.97887-18.661521 137.47919-3.620003 24.06321 4.496642 49.73918 9.787415 76.12359 19.070619 41.54204 14.710343 73.28772 35.670605 111.66154 65.178383 23.99341 18.448377 46.82309 36.971239 73.44191 76.754599 51.07689 76.048704 29.50262 121.746224 61.38895 173.977855 5.78009 9.469991 11.7102 17.750503 18.58317 23.952293 43.29857 39.068298 109.92793 32.911199 233.1684 51.503964 66.92838 9.974201 141.8351 34.683957 227.2633 55.796628"/><path d="m6.94246036 224.074842c68.55988244 12.90206 113.43578264 10.26183 146.43374864 4.599775 18.540455-3.18111 30.189186-8.434068 37.616411-15.660322 28.333681-27.57115-2.719184-82.441865 26.859488-97.371081 24.826872-12.530779 69.50795 29.186916 127.086916 21.615736 43.571526-5.729666 47.714895-37.036558 80.657644-35.679773 38.561352 1.589409 71.211346 46.025257 106.590942 86.865167 26.305233 30.364935 54.111747 58.867729 88.112998 65.258598 32.295771 6.070007 42.690135-15.709597 62.371396-4.996269 30.461104 16.580507 22.461913 74.815681 36.51311 136.437087 9.079571 39.824613 26.160418 79.193145 60.714882 110.388882 36.822534 33.242373 90.969703 54.584231 139.80561 60.524748 26.904287 3.275077 52.158311 1.575658 72.313605-6.188039 40.104309-15.447178 40.407479-48.491305 84.672869-65.539351 20.87832-8.039867 55.50363-18.651208 137.82404-2.672316 24.05592 4.669677 49.84544 10.088795 76.33091 19.161147 41.64414 14.348228 75.13281 34.654163 113.51705 63.268112 24.94981 18.59964 48.48272 37.795166 74.25871 76.275599 50.8779 75.688881 26.96888 120.869586 59.12088 174.150891 5.5936 9.267161 11.4612 17.53736 18.37688 23.976358 41.81604 38.941099 108.31726 38.779522 232.10261 57.546469 66.31577 9.944407 141.61736 31.960074 228.59997 50.094465"/><path d="m7.14186713 226.915037c70.33203987 15.404778 115.78615787 14.509805 148.18715387 9.466553 18.818623-2.929005 30.425681-8.304577 37.687254-15.632819 27.998212-28.255273-5.70195-85.255131 23.409981-100.579694 24.777906-13.043011 69.499615 30.415356 127.23694 22.393824 44.251842-6.147931 47.415888-38.824213 80.474281-37.756204 38.54885 1.246776 70.850872 46.826265 106.02731 88.339983 26.223971 30.948215 54.051321 59.760411 88.195303 65.327354 32.848984 5.354946 43.054777-17.790611 63.235076-7.496694 30.649675 15.631673 22.526506 74.377934 35.748404 136.934422 8.488853 40.162663 24.803953 80.351683 59.167761 112.347281 36.49019 33.973478 90.75196 56.008626 139.707678 62.012169 26.987633 3.311747 52.335422 1.500027 72.451127-6.549007 40.151194-16.064836 39.216664-49.987894 84.016514-67.738398 19.63021-7.777448 54.03465-18.655791 138.16889-1.724629 24.04862 4.840421 49.95171 10.390175 76.53615 19.251676 41.74728 13.986114 76.97581 33.619385 115.37255 61.358988 25.91767 18.723401 50.14341 38.619091 75.07655 75.796599 50.67995 75.327912 24.45077 119.982633 56.85489 174.321635 5.40607 9.066622 11.21741 17.319633 18.16852 24.002714 40.35956 38.802441 106.70867 44.6467 231.03785 63.587828 65.70422 9.914613 141.40066 29.236191 229.93456 44.392302"/><path d="m7.3412739 229.755232c72.1041972 17.907496 118.1323641 18.770384 149.9405581 14.333331 19.096793-2.663148 30.660093-8.176233 37.759141-15.605317 27.655448-28.943978-8.690968-88.074126 19.95943-103.789453 24.72269-13.560972 69.490239 31.641505 127.386965 23.174206 44.931117-6.571927 47.114798-40.549989 80.293002-39.833781 38.534264.977481 70.420595 47.694882 105.463679 89.815945 26.088532 31.58077 53.984643 60.640487 88.275524 65.393818 33.39803 4.628424 43.419418-19.855583 64.098755-9.997121 30.84033 14.702322 22.598392 73.943626 34.984741 137.431757 7.902301 40.503005 23.448528 81.510221 57.620639 114.305681 36.158887 34.703438 90.534217 57.435313 139.607662 63.500737 27.072021 3.348416 52.511492 1.423248 72.590733-6.909977 40.198067-16.684786 38.044607-51.435207 83.360157-69.937443 18.38522-7.507008 52.56879-18.67871 138.51165-.775797 24.04342 5.007728 50.05902 10.691556 76.74348 19.341059 41.85042 13.623999 78.80943 32.565127 117.22701 59.448717 26.897 18.821952 51.80409 39.444164 75.89543 75.317599 50.48096 74.965798 21.94829 119.086514 54.58786 174.494671 5.22063 8.863793 10.98092 17.09503 17.96016 24.027925 38.92495 38.656908 105.10008 50.515023 229.97414 69.629187 65.09162 9.884819 141.18291 26.513455 231.26914 38.688994"/><path d="m7.54068068 232.595427c73.87635462 20.41136 120.47544632 23.043569 151.69500432 19.200109 19.372878-2.384687 30.89138-8.049034 37.828944-15.57896 27.305392-29.634976-11.683112-90.89656 16.50888-106.99692 24.664347-14.084663 69.479821 32.86307 127.539072 23.952294 45.608309-6.999359 46.814751-42.349104 80.108598-41.914263 38.522804.625147 70.072623 48.485043 104.900047 91.295958 26.015604 32.151445 53.915883 61.512543 88.357829 65.460282 33.94395 3.890443 43.785102-21.905657 64.962434-12.497546 31.036196 13.787867 22.677572 73.511608 34.221078 137.930237 7.318875 40.843348 22.095187 82.665322 56.072476 116.264081 35.830709 35.432251 90.315432 58.859708 139.509729 64.988158 27.155369 3.385086 52.674018 1.309801 72.728255-7.272092 40.217863-17.376929 36.896503-52.821786 82.702763-72.135342 17.14752-7.229692 51.10918-18.717672 138.85754.17189 24.03925 5.175033 50.16424 10.992936 76.94872 19.431587 41.95356 13.261884 80.63889 31.49368 119.08356 57.539593 27.88361 18.889561 53.46372 40.266943 76.71326 74.838599 50.28301 74.604828 19.46456 118.18008 52.3198 174.666561 5.03726 8.659816 10.75171 16.863551 17.75283 24.051989 37.51431 38.509082 103.4894 56.383347 228.90939 75.671693 64.47902 9.85617 140.96517 23.789571 232.60477 32.98683"/><path d="m7.73967072 235.435164c75.64851198 22.915224 122.81331828 27.328212 153.44945028 24.066887 19.648964-2.091328 31.121625-7.921836 37.898747-15.550312 26.948044-30.332849-14.680464-93.724723 13.059372-110.206678 24.599753-14.615231 69.467319 34.08005 127.689096 24.731528 46.284458-7.431376 46.516787-44.149365 79.927319-43.987181 38.511344.264103 69.722568 49.267641 104.336416 92.767261 25.942675 32.723266 53.838787 62.376576 88.43805 65.527892 34.486745 3.141003 44.150785-23.940834 65.826113-14.997972 31.239353 12.889455 22.764044 73.079592 33.458457 138.427572 6.738573 41.185982 20.79498 83.759689 54.524312 118.223626 35.558791 36.094601 90.09769 60.284103 139.409714 66.474434 27.240798 3.421756 52.854255 1.243337 72.866818-7.631915 40.271005-17.976252 35.779655-54.139609 82.047445-74.334388 15.91504-6.946647 49.65375-18.773822 139.20135 1.119577 24.03612 5.338902 50.27155 11.294316 77.15604 19.52097 42.05566 12.900915 82.45793 30.406189 120.93907 55.630468 28.87856 18.929669 55.12336 41.092015 77.5311 74.359599 50.08402 74.242714 16.99958 117.259896 50.05277 174.838451 4.85494 8.456986 10.52772 16.626343 17.5455 24.076054 36.12763 38.360111 101.87978 62.252816 227.8436 81.715344 63.86746 9.826376 140.74846 21.065688 233.9404 27.283521"/><path d="m7.93907749 238.275359c77.42171111 25.417942 125.14494051 31.62317 155.20285451 28.934811 19.924008-1.783072 31.349787-7.796929 37.970634-15.523956 26.581318-31.031868-17.686152-96.556323 9.608822-113.415291 24.52995-15.151527 69.440231 35.199627 127.83912 25.510763 46.950189-7.944754 46.217781-45.949625 79.744998-46.06549 38.498842-.091549 69.373554 50.054483 103.772785 94.243955 25.868705 33.293941 53.756482 63.232589 88.519312 65.594357 35.023289 2.380103 44.518552-25.961114 66.689793-17.497253 31.449803 12.004796 22.96616 72.630386 32.693751 138.923762 6.231201 41.518302 19.423928 84.944583 52.977191 120.182026 35.209777 36.854354 89.879947 61.710789 139.311781 67.964146 27.325188 3.45728 53.032409 1.176873 73.005383-7.994029 40.323088-18.575576 34.699278-55.369196 81.390048-76.533434 14.6888-6.659018 48.20456-18.846016 139.5462 2.067263 24.03403 5.502771 50.37782 11.595697 77.36128 19.611499 42.1588 12.5388 84.26864 29.300363 122.79457 53.720198 29.88497 18.942274 56.78405 41.915941 78.34894 73.881744 49.88607 73.881745 14.55857 116.325961 47.78574 175.009195 4.67366 8.254156 10.31518 16.384552 17.33714 24.101265 34.76804 38.211139 100.27118 68.121139 226.78092 87.757849 63.25383 9.796582 140.52969 18.341805 235.27395 21.581358"/><path d="m8.13848426 241.115554c133.43584474 47.043992 179.09728674 37.557958 194.99669474 18.305136 26.208343-31.735472-20.693922-99.391362 6.160357-116.623904 24.453896-15.693554 69.437106 36.504845 127.990185 26.289997 47.63259-8.310306 45.918775-47.749886 79.560594-48.145864 67.531594-.784333 110.585329 157.709674 191.809729 161.383535 35.556707 1.608891 44.890486-27.966497 67.554514-19.996532 51.404024 18.074803-3.580779 167.758876 83.359116 261.561522 54.144043 58.417377 156.392627 87.673049 212.355711 61.096569 40.376225-19.174899 33.672035-56.49221 80.734735-78.73248 13.4709-6.366804 46.75954-18.933106 139.89104 3.01495 91.56564 21.579066 218.2004 51.423748 281.38442 144.9147 49.68709 73.520776 12.13839 115.381712 45.51767 175.181085 36.45373 65.305581 146.83798 132.907613 479.45556 133.804878"/><path d="m7.88771514 243.775036c131.41364786 47.314432 177.80645586 39.669912 194.54349786 21.521769 27.22413-29.519236-17.560089-95.351947 9.546313-111.637948 17.843468-10.72135 45.515586 11.680496 80.580548 21.616882 14.667962 4.156299 30.581956 6.068862 47.545075 2.855665 47.005407-8.750345 46.01254-47.65592 79.186576-49.037915 26.704255-1.112701 49.675624 21.874717 72.938705 51.367597 35.174355 44.593987 69.615259 103.187838 119.593014 106.529379 34.97849 2.337703 44.723793-26.234993 67.488879-18.079387 4.230882 1.500027 7.76582 3.920237 10.768382 7.118537 33.510548 35.686648-3.048402 165.338665 76.492397 247.769071 26.665707 27.633031 64.156055 48.062726 101.215085 59.062538 40.496036 12.020838 81.442144 12.629328 110.164429-1.034778 40.324134-19.193233 34.421114-56.159889 80.672224-77.632384 4.75493-2.208213 11.86231-5.130342 23.00471-6.900809 21.11795-3.356438 55.41196-2.422502 114.00775 12.884872 88.61308 23.326614 210.73983 55.686619 273.33626 149.193614 7.81583 11.649556 13.49799 22.514148 17.66948 32.788584 21.5972 53.497886.92515 90.87364 29.35364 140.257627 37.4841 65.113065 148.39969 131.942737 476.69262 133.544752"/><path d="m7.63632092 246.433944c129.39249208 47.584872 176.46874308 41.810515 194.09030108 24.73955 28.166988-27.288105-14.403337-91.29649 12.93331-106.651994 18.386263-10.327149 46.116724 11.537255 80.811835 20.712741 14.731514 3.895027 30.609044 5.334319 47.450269 1.941211 46.352177-9.335917 46.111514-47.573413 78.811516-49.932889 26.62195-1.920584 49.609988 19.297513 73.138737 48.063872 35.372303 43.247515 69.133932 101.863139 120.11393 106.349467 34.394022 3.02641 44.536263-24.427856 67.423243-16.161094 4.155871 1.500026 7.67414 3.89388 10.722542 7.045196 34.652397 35.823015 1.093924 162.227457 80.440942 241.167351 27.209544 27.069232 64.821787 46.506549 100.992134 56.908184 40.350179 11.604864 80.910809 11.632366 109.411183-1.949233 40.270997-19.210422 35.177477-55.814963 80.609717-76.531142 4.79764-2.188732 11.87377-5.042105 22.87761-6.586823 21.28151-2.987448 54.61286-.806737 111.25522 15.537707 85.66157 25.074162 203.27927 59.950636 265.29019 153.47482 7.6981 11.562465 13.37192 22.351425 17.56738 32.583462 21.56177 52.594891 2.16597 89.810214 30.9591 138.32673 38.52906 64.921694 149.9614 130.977861 473.92968 133.285771"/><path d="m7.38555179 249.092853c127.37029521 47.855312 175.08310521 43.971745 193.63710321 27.95733 29.03171-25.059265-11.228872-87.223844 16.320309-101.666039 18.939476-9.928364 46.724112 11.3837 81.043122 19.8086 14.797149 3.632608 30.640298 4.626132 47.35442 1.027902 45.71145-9.84242 46.220906-47.508095 78.435414-50.829009 26.549022-2.737634 49.541227 16.721456 73.339811 44.760147 35.564 41.90219 68.633853 100.514376 120.635889 106.169556 33.80226 3.676153 44.359151-22.659681 67.357607-14.242803 4.082942 1.493151 7.5835 3.865233 10.675659 6.970711 35.804664 35.954797 5.30918 159.078433 84.389489 234.566776 27.771091 26.510016 65.493768 44.940058 100.770223 54.753829 40.205364 11.185453 80.379474 10.636551 108.655854-2.863686 40.219948-19.227612 35.941148-55.458579 80.548248-75.429901 4.84244-2.169251 11.88836-4.949285 22.7505-6.272837 21.45134-2.613874 53.85442.647452 108.50375 18.191687 82.77569 26.575335 195.8187 64.214654 257.24203 157.754881 7.58246 11.474228 13.23857 22.193286 17.46632 32.378339 21.47009 51.719399 3.42034 88.74106 32.56457 136.395833 39.58651 64.729177 151.52414 130.01184 471.16674 133.027936"/><path d="m7.13478267 251.752334c125.34913933 48.125753 173.64641833 46.144435 193.18286433 31.173965 29.815168-22.845323-8.034613-83.131717 19.708349-96.678938 19.504149-9.524996 47.337751 11.218685 81.274408 18.904458 14.865911 3.365606 30.670512 3.920237 47.258572.113447 45.068639-10.344338 46.33655-47.456527 78.060354-51.725128 26.482345-3.56156 49.468299 14.145398 73.540885 41.458714 35.747362 40.55801 68.116062 99.139256 121.156805 105.987352 33.207374 4.288082 44.18204-20.892652 67.29093-12.325656 4.012098 1.487421 7.494944 3.838876 10.629819 6.898517 36.966306 36.08085 9.59632 155.890447 88.338034 227.965055 28.352434 25.953093 66.168876 43.365546 100.547271 52.600621 40.068884 10.764896 79.849181 9.640736 107.902609-3.778141 40.166817-19.245946 36.710017-55.089588 80.485737-74.330951 4.8862-2.147478 11.90503-4.848443 22.6234-5.95656 21.62428-2.236861 53.07512 2.211651 105.75123 20.845669 79.85439 28.246105 188.35917 68.476378 249.19595 162.033794 7.46577 11.387138 13.10209 22.035148 17.36423 32.174364 21.37319 50.845052 4.68824 87.666174 34.17002 134.46379 40.65857 64.533223 153.0869 129.046964 468.40485 132.768955"/><path d="m6.88349263 254.411243c123.32798437 48.396193 172.16076537 48.318269 192.72966737 34.391744 30.519446-20.662319-4.824727-79.0224 23.095347-91.692983 20.080282-9.113606 47.958683 11.043358 81.506737 18.000317 14.936755 3.098604 30.699683 3.216635 47.161681-.801007 44.42687-10.840527 46.459486-47.421003 77.686337-52.620102 26.421918-4.398091 49.388077 11.569341 73.739874 38.154989 35.923432 39.217268 67.585769 97.740072 121.678763 105.807441 32.609363 4.86334 44.00597-19.127916 67.226337-10.407365 3.939169 1.4794 7.405346 3.809082 10.582936 6.825178 38.137327 36.200026 13.953265 152.655478 92.285538 221.363334 28.953571 25.39617 66.849193 41.778429 100.32536 50.446267 39.934488 10.340901 79.317847 8.64492 107.14728-4.692596 40.11681-19.263135 37.48514-54.707992 80.42532-73.229709 4.92995-2.126851 11.92377-4.744163 22.49629-5.64372 21.80347-1.850682 52.29479 3.781579 102.99974 23.500796 76.93414 29.920313 180.69442 72.898534 241.14676 166.313854 7.32513 11.318382 12.96769 21.878155 17.26421 31.969242 21.27422 49.971851 5.96762 86.587851 35.77549 132.532893 41.74207 64.336122 154.64964 128.082088 465.6419 132.509974"/><path d="m6.63272351 257.070152c121.30682849 48.667778 170.62614549 50.484082 192.27647049 37.609524 31.146629-18.521717-1.601297-74.893604 26.482344-86.707028 20.665793-8.694194 48.584825 10.855424 81.738024 17.097322 15.010725 2.825871 30.729897 2.513031 47.065833-1.715462 43.78406-11.332132 46.586589-47.40496 77.310235-53.516222 26.369827-5.244936 49.305773 8.995575 73.94199 34.85241 36.091167 37.878818 67.042974 96.311093 122.198637 105.626383 32.009267 5.405366 43.829901-17.36547 67.160702-8.489072 3.867282 1.471378 7.318874 3.778141 10.537095 6.750692 39.317723 36.313473 18.380012 149.374671 96.234084 214.762759 29.575546 24.839246 67.533677 40.182145 100.104492 48.291913 39.805301 9.913467 78.784428 7.649104 106.39195-5.605905 40.06368-19.28147 38.26443-54.317228 80.36385-72.129613 4.97371-2.105079 11.94253-4.635299 22.36815-5.328588 21.98579-1.462211 51.52071 5.351507 100.24826 26.153631 74.01909 31.599105 173.19947 77.187761 233.0986 170.593914 7.20532 11.233582 12.83225 21.720016 17.16315 31.765266 21.17108 49.098649 7.25949 85.502652 37.382 130.599703 42.83808 64.134438 156.21135 127.118359 462.87896 132.253285"/><path d="m6.38143347 259.729633c119.28463153 48.938219 169.04881053 52.631561 191.82327253 40.826159 31.706094-16.433827 1.635678-70.745326 29.869343-81.721073 21.259637-8.263324 49.216175 10.656032 81.969311 16.19318 15.08782 2.550847 30.760109 1.812866 46.969984-2.62877 43.141249-11.819154 46.718902-47.403815 76.935175-54.411196 26.320861-6.103239 49.217217 6.420663 74.143064 31.547539 36.251609 36.544952 66.490803 94.855758 122.719554 105.446471 31.407087 5.915307 43.654872-15.603025 67.096107-6.57078 3.794355 1.463357 7.231361 3.747201 10.490213 6.677352 40.505413 36.4189 22.873437 146.041152 100.18263 208.162186 30.214189 24.277738 68.221287 38.573254 99.88154 46.137558 39.680281 9.482596 78.253093 6.653288 105.636623-6.520359 40.01367-19.299806 39.05206-53.912715 80.30342-71.029518 5.01851-2.083306 11.96337-4.520706 22.24209-5.014603 22.16915-1.064572 50.74454 6.92602 97.4947 28.808758 71.1082 33.281335 165.70661 81.473552 225.05252 174.872829 7.08447 11.149929 12.69369 21.563023 17.06106 31.56129 21.06585 48.22774 8.56282 84.411723 38.98746 128.668806 43.94762 63.92817 157.77305 126.153483 460.11498 131.993158"/><path d="m6.13056016 262.388656c117.26347584 49.208659 167.43084484 54.752684 191.37007584 44.045085 32.207215-14.406671 4.884111-66.581005 33.25634-76.736264 21.860775-7.824431 49.852736 10.44518 82.200598 15.290185 15.165958 2.27124 30.789281 1.112701 46.875177-3.543225 42.497397-12.300446 46.851216-47.422149 76.559074-55.307315 26.276062-6.974149 49.123452 3.849189 74.343096 28.244959 36.403717 35.213378 65.93238 93.367191 123.241512 105.265415 30.804908 6.395452 43.478802-13.844018 67.02943-4.652489 3.72351 1.453043 7.14593 3.715115 10.444372 6.602867 41.702479 36.51745 27.433538 142.653773 104.131176 201.56161 30.873669 23.711648 68.914105 36.954051 99.658587 43.983205 39.561512 9.045995 77.722801 5.657471 104.883382-7.434814 39.96053-19.316995 39.8428-53.496741 80.24091-69.928276 5.06435-2.060388 11.99462-5.231185 22.11498-4.700618 22.3421 1.173436 49.97255 8.50397 94.74322 31.461594 68.20149 34.972732 158.21584 85.758195 217.00437 179.154035 6.96361 11.063984 12.55721 21.404884 16.95895 31.356167 20.95542 47.359123 9.87866 83.315066 40.59397 126.736763 45.07176 63.717318 159.33685 125.188607 457.35308 131.735323"/><path d="m5.87979104 265.048138c115.24127896 49.479099 165.77953996 56.838282 190.91583696 47.261719 32.65937-12.442542 8.141922-62.396058 36.643338-71.750309 22.470247-7.37408 50.493462 10.221723 82.432927 14.38719 15.247221 1.988194 30.818452.413681 46.778286-4.45768 41.854586-12.776008 46.987696-47.457674 76.185056-56.202289 26.233347-7.858809 49.024478 1.280007 74.54417 24.941234 36.54749 33.887533 65.368749 91.84883 123.762428 105.084357 30.203771 6.84695 43.303775-12.086156 66.963795-2.73305 3.651623 1.442729 7.0605 3.681883 10.39749 6.52838 42.906836 36.606833 32.056149 139.210245 108.079721 194.95989 31.552944 23.139828 69.61005 35.323388 99.436677 41.829996 39.445869 8.604812 77.191466 4.66051 104.129094-8.349268 39.90844-19.335329 40.63668-53.070454 80.1784-68.829326 5.11123-2.036323 12.03525-5.160137 21.98892-4.38434 22.49525 1.753278 49.20263 10.087649 91.9907 34.115574 65.29582 36.667568 150.72818 90.039402 208.95725 183.432949 6.8438 10.979185 12.41865 21.249038 16.8579 31.152192 20.84186 46.490506 11.20386 82.212678 42.19943 124.805865 46.2084 63.497299 160.89751 124.222586 454.5891 131.476343"/><path d="m5.628501 267.707046c113.220124 49.74954 164.101147 58.882627 190.462639 50.479499 33.075062-10.54373 11.408068-58.192774 40.031379-66.763208 23.083886-6.913414 51.137315 9.983369 82.663171 13.481903 15.329526 1.700565 30.848666-.2819 46.68348-5.372134 41.210733-13.246987 47.124176-47.509241 75.808955-57.097263 26.192715-8.756075 48.921336-1.286883 74.745243 21.637509 36.68397 32.566273 64.804075 90.29609 124.283344 104.904445 29.604717 7.270946 43.128747-10.330587 66.89816-.815904 3.579737 1.433562 6.976111 3.648651 10.351649 6.456187 44.118488 36.688194 36.739187 135.705981 112.028267 188.35817 32.250972 22.555401 70.310161 33.681265 99.213725 39.675641 39.335434 8.159044 76.660127 3.66584 103.374807-9.263723 39.85635-19.352518 41.43681-52.631561 80.11693-67.728084 5.15603-2.012258 12.07797-5.075338 21.86077-4.070354 22.64841 2.326244 48.43585 11.675912 89.24027 36.768409 62.39431 38.373862 143.24261 94.319462 200.90909 187.714155 6.72607 10.892094 12.28008 21.090899 16.75684 30.94707 20.72413 45.62418 12.5395 81.102269 43.80385 122.873822 47.35859 63.272696 162.46131 123.258856 451.82825 131.218507"/><path d="m5.37773187 270.365955c111.19792613 50.01998 162.40296013 60.881134 190.00944213 53.697279 33.463665-8.709091 14.680464-53.972303 43.418377-61.778399 23.703776-6.437852 51.785334 9.735847 82.8955 12.578907 15.413914 1.409498 30.876794-.975189 46.585547-6.285443 40.570006-13.713381 47.260656-47.580288 75.434937-57.993382 26.152083-9.667092 48.812986-3.849189 74.945275 18.33493 36.813157 31.250741 64.23836 88.707827 124.805302 104.723388 29.006706 7.670876 42.954761-8.577309 66.832524 1.102387 3.508893 1.422103 6.891723 3.614273 10.304767 6.381702 45.337432 36.761534 41.479526 132.142129 115.975771 181.757595 32.969837 21.95837 71.01444 32.026538 98.992857 37.522433 39.230209 7.7064 76.127759 2.667732 102.620519-10.178178 39.80426-19.371999 42.24215-52.183501 80.05442-66.627988 5.20396-1.988194 12.12277-4.975641 21.73471-3.756369 22.79843 2.890044 47.66906 13.26876 86.4867 39.423537 59.49698 40.08474 135.76017 98.594938 192.86198 191.993069 6.60626 10.806149 12.14152 20.935052 16.65578 30.741947 20.60328 44.760147 13.8845 79.987277 45.41036 120.942926 48.52127 63.038925 164.02301 122.29398 449.06426 130.959526"/><path d="m5.12644183 273.025437c109.17677117 50.29042 160.69227117 62.831511 189.55624517 56.913913 33.836641-6.936333 17.959111-49.734643 46.805374-56.791299 24.327835-5.95083 52.43648 9.474575 83.126787 11.674767 15.500387 1.111555 30.907008-1.668479 46.490741-7.199898 39.927195-14.1729 47.392968-47.667379 75.058835-58.889502 26.111452-10.591859 48.699426-6.408058 75.146349 15.032351 36.934009 29.942086 63.676812 87.082894 125.325177 104.543476 28.413902 8.046742 42.782858-6.827469 66.76793 3.019534 3.437006 1.41179 6.809418 3.579895 10.258926 6.308362 46.562628 36.82456 46.272998 128.512959 119.924317 175.15702 33.705371 21.345296 71.722887 30.359205 98.770946 35.366933 39.127068 7.245735 75.595381 1.673062 101.864151-11.091486 39.75216-19.389188 43.05165-51.723983 79.99399-65.527893 5.2498-1.961837 12.16757-4.858756 21.60761-3.441237 22.94637 3.444675 46.90227 14.869628 83.73522 42.076372 56.5986 41.808223 128.27981 102.870414 184.81382 196.273129 6.48854 10.720204 12.00191 20.779205 16.55368 30.536825 20.48035 43.898405 15.24201 78.863116 47.01687 119.012028 49.6975 62.794842 165.58472 121.329105 446.30236 130.700546"/><path d="m4.87556853 275.684345c107.15561547 50.562006 158.97533047 64.730323 189.10200647 60.131694 34.202324-5.220872 21.241926-45.480939 50.193414-51.805344 24.953976-5.451204 53.090751 9.199551 83.358074 10.771771 15.586858.809029 30.937221-2.359476 46.394892-8.115498 39.286468-14.627836 47.524239-47.770513 74.683775-59.784476 26.066653-11.530379 48.580657-8.963489 75.347422 11.728625 37.04757 28.640306 63.118391 85.421292 125.846094 104.363566 27.822141 8.400835 42.609914-5.078776 66.702295 4.937825 3.366161 1.399185 6.72503 3.544371 10.211002 6.235022 47.795115 36.878419 51.116478 124.820763 123.872862 168.5553 34.461741 20.715033 72.434458 28.678122 98.549036 33.212579 39.032261 6.778194 75.065089.677246 101.110899-12.005941 39.70008-19.407523 43.86428-51.253004 79.93253-64.426651 5.29772-1.935481 12.11443-3.723136 21.47947-3.127251 23.33913 1.485129 46.13651 16.477372 80.98269 44.730352 53.70127 43.540874 120.80362 107.141307 176.76671 200.55319 6.3708 10.633113 11.86126 20.623358 16.45262 30.331703 20.3522 43.036664 16.60681 77.733226 48.62233 117.082277 50.88727 62.540445 167.14851 120.363083 443.53942 130.440418"/><path d="m4.6247994 278.343827c105.1344606 50.8313 158.6867426 74.145309 188.6488086 63.349473 32.993799-11.889056 24.526825-41.212338 53.579371-46.820534 25.585326-4.937826 53.777318 11.63695 83.590402 9.86763 15.658745-.928206 30.967434-3.047037 46.299044-9.027661 38.646783-15.077042 47.651343-47.890836 74.307673-60.680596 26.020813-12.483795 48.458763-11.51319 75.548496 8.4249 37.154879 27.345402 62.568303 83.720727 126.368052 104.182508 27.234548 8.734302 42.43697-3.332373 66.636659 6.857264 3.294275 1.387725 6.642725 3.507701 10.165162 6.160536 49.032812 36.924256 56.004757 121.063248 127.821408 161.954725 35.233739 20.061851 73.149155 26.985579 98.326084 31.058225 38.940579 6.30034 74.533751-.319715 100.355571-12.920396 39.64903-19.424712 44.68212-50.771712 79.87106-63.326555 5.34565-1.906832 12.14048-3.573019 21.35236-2.813266 23.54021 1.943503 45.36973 18.091992 78.23122 47.38548 50.80288 45.283838 113.33056 111.411054 168.71959 204.832104 6.25308 10.546022 11.71958 20.467511 16.35156 30.127727 20.21989 42.177214 17.97891 76.594168 50.2278 115.150233 52.08955 62.276881 168.70917 119.398208 440.77648 130.182586"/><path d="m4.37350936 281.002735c103.11226264 51.102887 156.64996064 76.01318 188.19561164 66.566108 33.75642-10.108276 27.813807-36.927694 56.966368-41.833434 26.215636-4.410696 54.481598 11.344738 83.82169 8.964635 15.723338-1.27657 30.998689-3.734596 46.203195-9.943262 38.008139-15.520517 47.772195-48.02491 73.933655-61.575569 25.966638-13.452108 48.329576-14.057161 75.748528 5.122321 37.254895 26.059665 62.02655 81.976616 126.888968 104.001451 26.652164 9.049433 42.26611-1.590556 66.571024 8.774409 3.224472 1.37512 6.560421 3.471032 10.118279 6.087197 50.276761 36.960926 60.935751 117.239269 131.770996 155.35415 36.023448 19.383459 73.865936 25.279284 98.103132 28.903871 38.853064 5.812172 74.002414-1.315531 99.601284-13.834851 39.59694-19.441901 45.50204-50.280106 79.80855-62.226459 5.39461-1.878184 12.16861-3.418318 21.2263-2.498134 23.74024 2.412189 44.59982 19.714633 75.47869 50.039461 47.90139 47.040554 105.85958 115.678508 160.67248 209.111018 6.13535 10.460077 11.57789 20.313956 16.24946 29.923751 20.0855 41.320055 19.36038 75.448235 51.83326 113.219336 53.30433 62.00071 170.27297 118.433332 438.01355 129.923606"/><path d="m4.12274024 283.661644c101.09110776 51.373327 154.61838676 77.736663 187.74241476 69.783888 34.51279-8.285097 31.10183-32.629299 60.353366-36.847479 26.848028-3.870962 55.184835 11.015855 84.052976 8.060493 15.785849-1.615765 31.029944-4.417572 46.107347-10.85657 37.37158-15.960556 47.887838-48.172735 73.558595-62.471689 25.908295-14.433027 48.197263-16.595403 75.949602 1.818596 37.348659 24.781949 61.497299 80.192398 127.409884 103.821539 26.074989 9.347376 42.09525.150117 66.505389 10.692702 3.152586 1.362514 6.478115 3.433215 10.072438 6.012711 51.524877 36.987282 65.901126 113.348826 135.717458 148.752429 36.831911 18.677564 74.587927 23.560385 97.881221 26.751809 38.770759 5.310254 73.471079-2.311347 98.848039-14.749305 39.5438-19.460236 46.32509-49.778188 79.74604-61.126364 5.44358-1.84839 12.19465-3.259033 21.0992-2.184148 23.94027 2.891189 43.82886 21.34415 72.72825 52.692296 44.99363 48.808728 98.39172 119.943671 152.62328 213.392224 6.01867 10.37184 11.43516 20.158109 16.14841 29.719774 19.94692 40.464044 20.75122 74.294281 53.43976 111.287293 54.53161 61.71079 171.83467 117.468457 435.2506 129.664627"/><path d="m3.8714502 286.321125c99.0699518 51.643767 152.6066078 79.321489 187.2892168 73.001668 35.259785-6.425246 34.388813-28.318298 63.740365-31.861523 27.481462-3.317477 55.885988 10.650302 84.285305 7.156352 15.8494-1.950378 31.062241-5.100548 46.011498-11.771025 36.73502-16.393719 47.995147-48.333166 73.182494-63.367809 25.842659-15.426551 48.060783-19.126769 76.150675-1.483983 37.437215 23.513401 60.982633 78.363489 127.930801 103.640481 25.503022 9.629276 41.927514 1.888498 66.438711 12.61214 3.082783 1.347617 6.398936 3.394254 10.026598 5.938225 52.779243 37.004472 70.898796 109.39192 139.667045 142.151855 37.653917 17.938437 75.310959 21.827734 97.659311 24.596309 38.69158 4.79573 72.93871-3.307163 98.09271-15.66376 39.49275-19.477425 47.15231-49.265956 79.68457-60.023976 5.49359-1.81745 12.22174-3.096311 20.97314-1.870163 24.13718 3.381649 43.05061 22.981689 69.97469 55.346277 42.0817 50.587217 90.92907 124.204251 144.57616 217.672284 5.90198 10.282458 11.29138 20.003409 16.04735 29.514653 19.80524 39.610324 22.14728 73.132305 55.04523 109.35525 55.77034 61.408263 173.39638 116.50358 432.48766 129.40679"/><path d="m3.62068108 288.980034c97.04775492 51.914207 150.62816692 80.77797 186.83497792 76.219448 35.991152-4.531019 37.676837-23.994693 67.128405-26.875569 28.112812-2.750239 56.375649 7.64452 84.516591 6.252211 16.031721-.792986 31.094538-5.780086 45.914608-12.685479 36.102627-16.820006 48.097247-48.503911 72.808476-64.262783 25.769731-16.433826 47.920135-21.650114 76.350707-4.787708 37.520562 22.255167 60.485679 76.488742 128.451717 103.46057 24.936265 9.895132 41.759779 3.622294 66.374118 14.529286 3.011938 1.335012 6.316631 3.357584 9.979715 5.864885 54.037777 37.011347 75.924597 105.367403 143.615591 135.551281 38.490508 17.163786 76.038158 20.080185 97.437401 22.443099 38.616572 4.262871 72.407372-4.304124 97.338422-16.57936 39.43962-19.494614 47.98161-48.74341 79.62207-58.92388 5.54359-1.783072 12.24674-2.927859 20.84603-1.555031 24.33408 3.884713 42.26923 24.626102 67.22321 58.000258 39.16145 52.376018 83.46955 128.463684 136.52904 221.951198 5.7853 10.195367 11.14761 19.849853 15.94525 29.310677 19.65834 38.758895 23.55167 71.962307 56.65069 107.424353 57.02263 61.090839 174.96017 115.538704 429.72577 129.14781"/><path d="m3.36980777 291.638942c95.02555773 52.185794 148.81850423 75.148001 186.38073923 79.437229 36.583954 4.176926 40.962777-19.659628 70.516444-21.889614 28.743122-2.169252 57.030962 7.297302 84.747879 5.34807 16.120276-1.133328 31.128918-6.457333 45.818758-13.598789 35.472319-17.244001 48.189971-48.687259 72.432375-65.158901 25.687426-17.452562 47.777404-24.166584 76.551781-8.090288 37.599741 21.007245 60.007478 74.564721 128.973675 103.279512 24.375759 10.148384 41.592044 5.352654 66.308482 16.447578 2.942136 1.320115 6.235369 3.317476 9.932833 5.791546 55.300478 37.009055 80.970193 101.277567 147.564137 128.94956 39.340644 16.347881 76.767441 18.318886 97.214449 20.288745 38.54781 3.712824 71.87708-5.29994 96.58414-17.492668 39.38857-19.514095 48.81507-48.211698 79.56163-57.823785 5.59256-1.748694 12.27071-2.757115 20.71789-1.241045 24.52787 4.400383 41.48161 26.277392 64.47069 60.654239 36.23077 54.175133 76.01419 132.720825 128.48193 226.231258 5.67069 10.10713 11.00175 19.696298 15.84523 29.105555 19.50832 37.909759 24.96023 70.784287 58.25616 105.493455 58.28533 60.758519 176.52083 114.572681 426.96178 128.888821"/><path d="m3.11851773 294.298424c93.00544427 52.455088 147.18178527 76.750015 185.92754227 82.653863 37.044444 5.646012 44.246633-15.313104 73.903442-16.90366 29.372388-1.574512 57.686275 6.939771 84.979165 4.445075 16.207791-1.480546 31.163299-7.132288 45.723952-14.513243 34.84201-17.661121 48.273317-48.87863 72.057315-66.053875 25.593661-18.483901 47.629464-26.675031 76.751813-11.394013 37.674753 19.768492 59.551155 72.594862 129.494591 103.098455 23.821504 10.389029 41.427435 7.079574 66.242847 18.36587 2.872333 1.306363 6.155147 3.277368 9.886992 5.718206 56.568389 36.995304 86.031416 97.121268 151.511642 122.348985 40.20328 15.488432 77.497764 16.54269 96.993579 18.134391 38.478002 3.139857 71.343662-6.296902 95.828812-18.407123 39.33648-19.531284 49.65062-47.669671 79.50017-56.723689 5.6436-1.712024 12.29362-2.580641 20.59078-.925914 24.71956 4.928659 40.68565 27.93212 61.71816 63.30822 33.2876 55.98227 68.56301 136.973384 120.43482 230.510173 5.55505 10.017747 10.8559 19.543889 15.74209 28.901579 19.35725 37.062914 26.37712 69.595955 59.86266 103.561412 59.56054 60.411301 178.08463 113.608954 424.19989 128.630994"/><path d="m2.86774861 296.957447c90.98324699 52.726674 145.56590239 78.323382 185.47434439 85.871643 37.526813 7.09791 47.54716-13.467006 77.29044-11.917704 29.978736 1.561906 58.337421 6.57078 85.210453 3.540933 16.294263-1.835785 31.199763-7.806096 45.628103-15.426551 34.216911-18.073657 48.348329-49.078023 71.682255-66.951142 25.489478-19.524408 47.480482-29.173165 76.952887-14.695446 37.746639 18.541198 59.118794 70.57229 130.015508 102.917398 23.274541 10.618216 41.262824 8.803058 66.177211 20.284162 2.801488 1.291466 6.074926 3.237261 9.840109 5.644866 57.838383 36.972386 91.1041 92.900796 155.460188 115.747265 41.074253 14.580852 78.257261 17.631326 96.770623 15.980037 38.35716-3.420611 70.81337-7.292719 95.07557-19.321578 39.28438-19.549619 50.48721-47.118478 79.43766-55.623593 5.69465-1.671916 12.31654-2.40073 20.46472-.610782 24.90605 5.470684 39.88031 29.59143 58.96668 65.962201 30.32879 57.795136 61.11391 141.224795 112.38562 234.790232 5.44149 9.928365 10.709 19.39148 15.64207 28.696457 19.19994 36.218362 27.79714 68.403039 61.46813 101.630515 60.84616 60.045748 179.64633 112.64408 421.43694 128.37201"/><path d="m2.61645857 299.616929c88.96209163 52.997114 143.96981443 79.873829 185.02114743 89.089423 38.032102 8.537201 50.85602-8.910776 80.677438-6.93175 30.570496 2.028302 58.986482 6.190331 85.442781 2.637938 16.37761-2.200191 31.236227-8.477613 45.531213-16.342152 33.593895-18.481609 48.413964-49.283144 71.306154-67.846115 25.375918-20.575229 47.330458-31.663277 77.155002-17.999171 37.816442 17.324217 58.715605 68.500443 130.536424 102.737486 22.733831 10.837089 41.101341 10.521958 66.111576 22.202454 2.731685 1.275423 5.994705 3.194861 9.794269 5.569235 59.113585 36.941445 96.18095 88.61959 159.407691 109.14669 41.954601 13.620561 79.025091 15.667197 96.549756 13.825683 38.21547-4.014204 70.28099-8.287389 94.3192-20.234887 39.23333-19.566808 51.32693-46.55697 79.37723-54.522351 5.74466-1.631809 12.33842-2.218527 20.33657-.297943 25.08942 6.027608 39.06769 31.253034 56.21521 68.616182 27.35853 59.612586 53.67209 145.475062 104.33954 239.070293 5.32585 9.840128 10.56002 19.241363 15.53998 28.492481 19.03845 35.376101 29.22236 67.198663 63.07359 99.698471 62.14323 59.663007 181.20804 111.679204 418.674 128.114174"/><path d="m2.36568944 302.275837c86.93989446 53.267554 142.39456356 81.40365 184.56795056 92.307203 38.558227 9.967326 54.15342-4.329335 84.064436-1.945794 31.164341 2.483237 59.632418 5.800713 85.674068 1.733797 16.459914-2.570328 31.274775-9.146838 45.435364-17.256607 32.972962-18.882685 48.470223-49.493996 70.931094-68.741089 25.248815-21.635217 47.177309-34.144222 77.355034-21.302896 37.886245 16.120987 58.341587 66.374737 131.05734 102.556429 22.202496 11.047941 40.941941 12.237419 66.046982 24.120745 2.661883 1.260527 5.914484 3.154754 9.747387 5.497042 60.390872 36.899045 101.255717 84.275357 163.357279 102.544969 42.838075 12.602972 79.786676 13.660668 96.326806 11.672474 38.07794-4.576856 69.74966-9.28435 93.56491-21.150487 39.18124-19.585142 52.16769-45.986295 79.31472-53.422255 5.79884-1.587117 12.35718-2.031739 20.21051.018335 25.26757 6.594845 38.24568 32.914636 53.46269 71.269017 24.37263 61.42889 46.23341 149.719597 96.29138 243.350353 5.21333 9.750745 10.41208 19.0901 15.43892 28.287359 18.87488 34.537277 30.65176 65.986265 64.67906 97.767574 63.45177 59.263076 182.77183 110.714324 415.91106 127.855194"/><path d="m2.11481614 304.934746c84.91873906 53.537994 140.84014986 82.917427 184.11371086 95.523837 39.107273 11.392867 57.440403.277316 87.452476 3.041307 31.761311 2.924421 60.273146 5.400782 85.905355.829655 16.539094-2.948486 31.315406-9.812625 45.339516-18.169915 32.357239-19.28147 48.516064-49.709432 70.556034-69.637209 25.109209-22.703226 47.023117-36.613708 77.556107-24.605475 37.952923 14.926924 58.001951 64.194026 131.578257 102.375371 21.677413 11.248479 40.783582 13.947152 65.981347 26.039038 2.59208 1.244483 5.833221 3.112354 9.700504 5.422555 61.672327 36.847479 106.324233 79.872683 167.305825 95.944395 43.724675 11.524649 80.542002 11.608302 96.103852 9.51812 37.94563-5.094818 69.21936-10.280166 92.81062-22.064942 39.12916-19.602331 53.00949-45.406453 79.2543-52.321013 5.84989-1.54128 12.37489-1.843806 20.08237.331175 25.43947 7.180417 37.41429 34.576239 50.7112 73.924144 21.37111 63.245194 38.79993 153.962987 88.24323 247.630413 5.09873 9.660216 10.26101 18.939982 15.33786 28.083383 18.70923 33.6996 32.08532 64.764701 66.28556 95.834385 64.76969 58.842518 184.3325 109.74945 413.14812 127.59736"/><path d="m1.8635261 307.594227c82.8975837 53.808435 139.3044879 84.417454 183.6605139 98.741618 39.675072 12.812678 60.610699 6.552445 90.839474 8.026115 32.474966 1.582534 60.909705 4.992831 86.136642-.07334 16.615147-3.336957 31.357079-10.477266 45.243667-19.084369 31.744641-19.675672 48.552528-49.92716 70.180974-70.533329 24.958143-23.77582 46.869968-39.074026 77.757181-27.9092 38.021684 13.745467 57.697735 61.959457 132.099174 102.196605 21.160663 11.443288 40.627306 15.652301 65.915711 27.956184 2.523318 1.228441 5.754042 3.069955 9.654663 5.349216 62.955865 36.786744 111.377122 75.411565 171.253329 89.34382 44.612317 10.379862 81.288995 9.511245 95.881945 7.363766 37.82269-5.565797 68.68699-11.275982 92.05738-22.979396 39.07601-19.620667 53.85128-44.81859 79.19074-51.220918 5.90302-1.492005 12.3926-1.65129 19.9563.646306 25.60408 7.77974 36.57458 36.232113 47.95869 76.57698 18.35813 65.056914 31.37166 158.204086 80.19611 251.910473 4.98725 9.569687 10.11098 18.791011 15.23576 27.87826 18.53837 32.865362 33.52201 63.537407 67.89102 93.90578 66.09804 58.401335 185.89629 108.782282 410.38623 127.337232"/><path d="m1.61275697 310.253136c80.87538643 54.078875 137.78758003 85.904875 183.20731703 101.959397 40.261623 14.231344 63.870593 10.948245 94.22543 13.012071 33.08548 2.249466 61.542098 4.574565 86.36897-.976335 16.688076-3.73345 31.400837-11.140762 45.147819-19.999971 31.135169-20.064142 48.579615-50.147178 69.805914-71.428302 24.794576-24.856434 46.716819-41.522885 77.957213-31.211779 38.092528 12.573178 57.434152 59.665298 132.621132 102.014402 20.652249 11.632367 40.473115 17.354011 65.849034 29.875622 2.454557 1.211251 5.674862 3.026409 9.608822 5.27473 64.242528 36.715696 116.410216 70.897735 175.201875 82.743245 45.494749 9.166319 82.024527 7.370642 95.660037 5.209412 37.70913-5.977187 68.15565-12.271797 91.30204-23.892705 39.02497-19.639001 54.69518-44.221558 79.13032-50.121968 5.95616-1.437 12.40614-1.456481 19.8292.961438 25.76036 8.392814 35.72653 37.885694 45.20616 79.23096 15.32953 66.861759 23.94861 162.441747 72.14796 256.189388 4.87473 9.480304 9.95783 18.644331 15.13574 27.67543 18.36439 32.03456 34.96078 62.298653 69.49649 91.972591 67.43262 57.941815 187.45904 107.818558 407.62329 127.078248"/><path d="m1.36146693 312.912617c78.85423107 54.349316 136.28942407 87.385421 182.75411907 105.176032 40.866929 15.648863 67.125279 15.35092 97.613471 17.999171 33.688701 2.925568 62.167197 4.149424 86.599215-1.881622 16.757878-4.135672 31.447719-11.799673 45.053012-20.912133 30.529864-20.451468 48.595243-50.369489 69.430854-72.324422 24.617464-25.941633 46.562628-43.963723 78.157245-34.515504 38.164415 11.413493 57.212241 57.314989 133.142048 101.833344 20.153211 11.816863 40.323092 19.048846 65.78444 31.793914 2.384755 1.194063 5.5936 2.98401 9.560899 5.202537 65.532316 36.633189 121.417263 66.328899 179.15042 76.141524 46.37093 7.879436 82.74756 5.186494 95.43917 3.055058 37.60911-6.318675 67.62327-13.268759 90.54671-24.80716 38.97288-19.657336 55.53802-43.614214 79.06885-49.020726 6.01034-1.380849 12.41761-1.260526 19.7021 1.275424 25.91038 9.020785 34.87118 39.5324 42.45468 81.884941 12.2905 68.65629 16.53076 166.674824 64.10084 260.469448 4.76118 9.38863 9.80365 18.497652 15.03365 27.470308 18.18727 31.20605 36.40267 61.053024 71.10195 90.041693 68.77867 57.458232 189.0197 106.853676 404.8593 126.819266"/><path d="m1.11069781 315.571526c76.83307569 54.620901 134.80585419 88.85909 182.29988019 108.393812 41.489945 17.065236 70.375797 19.757033 101.00151 22.98398 34.288797 3.614273 62.785004 3.717407 86.831544-2.784617 16.82143-4.548209 31.494602-12.456293 44.95508-21.826588 29.929769-20.831918 48.604619-50.590655 69.055795-73.219395 24.428892-27.029124 46.412603-46.393102 78.35936-37.819231 38.239426 10.264123 57.036171 54.907385 133.662964 101.653434 19.662508 11.995628 40.17411 20.736805 65.717763 33.712206 2.317036 1.176873 5.514421 2.939318 9.5161 5.12805 66.822105 36.543807 126.38993 61.713081 183.098966 69.54095 47.23461 6.519214 83.33203 1.803699 95.21517.900704 37.91229-2.882022 67.09298-14.264575 89.79348-25.721614 38.91974-19.674526 56.37981-42.998848 79.00633-47.919485 6.06451-1.320115 12.42803-1.06228 19.575 1.589409 26.05207 9.6648 34.01167 41.173377 39.70216 84.538923 9.2421 70.442799 9.1202 170.906754 56.05372 264.749508 4.65074 9.298101 9.64841 18.350972 14.93155 27.26404 18.00807 30.382124 37.84769 59.799373 72.70846 88.110796 70.13409 56.957459 190.58349 105.889952 402.0974 126.561432"/><path d="m.8598245 318.230435c74.8108785 54.891341 133.3379125 90.328176 181.8466835 111.611592 42.126504 18.483901 73.620064 24.168875 104.387466 27.971081 34.884725 4.308708 63.398643 3.277368 87.063872-3.688759 16.879773-4.969912 31.54461-13.112912 44.860273-22.741042 29.332799-21.211222 48.601494-50.81182 68.679694-74.115515 24.227818-28.120053 46.264663-48.812167 78.559392-41.12181 38.318606 9.12392 56.91011 52.439045 134.18388 101.472376 19.182224 12.172102 40.030337 22.41789 65.65317 35.630498 2.248275 1.158539 5.435241 2.895773 9.469217 5.053565 68.116062 36.445256 131.32405 57.053717 187.04647 62.93923 48.083708 5.079921 84.044638-.10428 94.994298-1.252505 37.79561-3.964929 66.56165-15.259245 89.03815-26.636069 38.86765-19.691715 57.22162-42.374314 78.94487-46.819389 6.11973-1.252505 12.43532-.860596 19.44789 1.904541 26.1823 10.323711 33.14903 42.807477 36.95068 87.192904 6.18744 72.217849 1.84509 175.05847 48.00557 269.029567 4.5528 9.199551 9.49318 18.206585 14.83153 27.058919 17.82367 29.56049 39.29167 58.5377 74.31392 86.179898 71.49473 56.431476 192.14416 104.923923 399.33342 126.302453"/><path d="m.60853446 320.889916c72.78972314 55.161782 131.88559754 91.793825 181.39348654 114.829372 42.778691 19.903712 76.859121 28.584156 107.775505 32.95589 35.472319 5.01575 64.001865 2.832747 87.294118-4.591754 16.93499-5.39849 31.597743-13.76724 44.764424-23.655497 28.74208-21.585941 48.592118-51.030692 68.304634-75.011634 24.015285-29.213273 46.119848-51.219772 78.760466-44.424389 38.401952 7.995175 56.835098 49.912262 134.705839 101.292465 18.709231 12.345137 39.888647 24.090951 65.586492 37.547644 2.179514 1.141349 5.359187 2.84306 9.423376 4.980225 69.471486 36.196589 136.211287 52.350808 190.995016 56.338655 48.909879 3.560414 84.744749-2.02601 94.771349-3.406859 37.64767-5.184202 66.02927-16.256207 88.28386-27.550524 38.8166-19.710049 58.06133-41.741759 78.8834-45.719293 6.17599-1.179165 12.43948-.658911 19.32079 2.219673 26.30315 10.996374 32.21034 44.438139 34.19816 89.846884 3.01089 73.987171-5.61548 179.321341 39.95949 273.307336 4.43612 9.113606 9.31711 18.075949 14.72839 26.856088 17.58717 28.78011 40.73982 57.266861 75.92043 84.249002 72.86369 55.882573 193.7069 103.9579 396.57152 126.04347"/><path d="m.35776534 323.548825c202.31973666 158.475672 313.98544666 173.046211 379.62819766 150.493102 98.873045-33.971187 119.333597-161.104443 191.558647-148.203528 47.450269 8.475321 64.25503 67.971022 200.748653 140.577343 2.110753 1.123014 5.274799 2.80639 9.375453 4.906886 135.923741 69.621165 270.487894 47.510386 289.494044 44.175721 123.94579-21.748665 144.92413-88.523332 185.54415-70.550518 73.61381 32.572003-19.11138 241.332365 77.98638 396.740374 54.10237 86.597019 178.28674 174.461435 471.33344 208.102595"/></g></svg>