<svg xmlns="http://www.w3.org/2000/svg" viewBox="0 0 24 24"><defs><style>.cls-1{fill:#572dd1;opacity:0.85;}.cls-2{fill:#cdd8dd;}.cls-3{fill:#fff;}</style></defs><g id="Layer_2" data-name="Layer 2"><path class="cls-1" d="M24,5.45V17.78a.58.58,0,0,1-.58.57H3.11a.58.58,0,0,1-.57-.57V5.45a.58.58,0,0,1,.58-.57h20.3A.58.58,0,0,1,24,5.45Z"/><path class="cls-2" d="M21.46,7.74V20.07a.57.57,0,0,1-.57.56H.58A.57.57,0,0,1,0,20.07V7.74a.58.58,0,0,1,.58-.57H20.89A.58.58,0,0,1,21.46,7.74Z"/><path class="cls-3" d="M8.84,15.63H2s.08-.75.34-.93a17.76,17.76,0,0,1,2-.76.27.27,0,0,0,.17-.25v-.53a.11.11,0,0,0,0-.08,1.64,1.64,0,0,1-.35-.88l-.1,0s-.21-.18-.19-.81c0-.15.06-.21.14-.21s0,0,0,0c0-.32-.06-.56-.06-.56H4v0a1.52,1.52,0,0,1,.28-.84,1.57,1.57,0,0,1,2.42,0,1.37,1.37,0,0,1,.28.88s0,.24-.06.56h0c.07,0,.12.06.13.21,0,.63-.15.77-.19.81l-.1,0a1.64,1.64,0,0,1-.35.88.11.11,0,0,0,0,.08v.53a.27.27,0,0,0,.18.25c.8.27,1.45.28,2,.76A1.2,1.2,0,0,1,8.84,15.63Z"/><rect class="cls-3" x="10.73" y="9.19" width="8.49" height="1.26" rx="0.17"/><rect class="cls-3" x="10.73" y="11.69" width="6.94" height="1.26" rx="0.16"/><rect class="cls-3" x="10.73" y="14.19" width="8.49" height="1.26" rx="0.17"/><rect class="cls-1" x="2.04" y="17.47" width="17.38" height="1.26" rx="0.12"/></g></svg>