<svg width="744" height="72" viewBox="0 0 744 72" fill="none" xmlns="http://www.w3.org/2000/svg">
<g style="mix-blend-mode:multiply">
<path d="M212.327 47.412C212.468 47.5413 213.397 47.7549 213.692 47.8252C215.076 48.154 216.029 48.4084 217.452 48.4435C221.493 48.5461 225.833 46.3959 228.158 43.2522C230.061 40.6776 230.532 37.9863 231.845 35.0828C232.969 32.5897 236.585 30.7052 238.973 33.1153C241.024 35.1854 240.298 38.5878 239.535 40.9642C238.857 43.0849 236.34 47.7099 231.364 50.1904C223.646 54.027 216.106 51.1236 212.327 47.412Z" fill="#D2DBDF"/>
</g>
<path d="M207.207 33.1982C207.207 33.1982 207.702 25.8594 214.828 21.2527C217.275 19.6716 220.523 19.3681 221.113 21.6293C221.432 22.8505 221.327 24.6339 217.562 26.548C216.051 27.3154 214.09 27.5753 211.346 28.9751C207.853 30.7599 207.207 33.1982 207.207 33.1982Z" fill="#D2DBDF"/>
<path d="M227.283 35.555C228.8 35.555 230.029 34.3255 230.029 32.8089C230.029 31.2923 228.8 30.0629 227.283 30.0629C225.767 30.0629 224.537 31.2923 224.537 32.8089C224.537 34.3255 225.767 35.555 227.283 35.555Z" fill="#D2DBDF"/>
<g style="mix-blend-mode:multiply">
<path d="M216.033 32.2314C216.041 32.5685 215.912 32.8946 215.677 33.136C215.441 33.3774 215.118 33.5138 214.781 33.5144C214.07 33.5338 213.478 32.9732 213.458 32.2623C213.439 31.5513 214 30.9592 214.711 30.9398C215.43 30.9381 216.018 31.5124 216.033 32.2314Z" fill="#D2DBDF"/>
</g>
<path d="M222.9 24.8769C223.51 24.8769 224.004 24.3824 224.004 23.7723C224.004 23.1623 223.51 22.6677 222.9 22.6677C222.289 22.6677 221.795 23.1623 221.795 23.7723C221.795 24.3824 222.289 24.8769 222.9 24.8769Z" fill="#D2DBDF"/>
<g style="mix-blend-mode:multiply">
<path d="M210.848 35.5184C213.02 41.487 219.898 40.3093 224.409 41.9732C229.515 43.855 228.906 49.2726 224.373 50.7005C220.127 52.0384 212.174 50.1383 208.578 42.3147C203.43 31.1126 212.651 22.8295 213.522 22.2266C214.495 21.5534 215.891 20.9238 216.417 22.0186C216.943 23.1134 215.948 24.1266 214.996 24.6283C212.285 26.0744 210.665 27.6274 210.21 30.7964C210.045 31.9966 210.071 33.3837 210.848 35.5184Z" fill="#D2DBDF"/>
</g>
<g style="mix-blend-mode:screen" opacity="0.5">
<path d="M207.971 40.5776C208.491 42.004 209.31 43.8099 210.516 43.827C211.663 43.8436 212.023 42.1488 211.092 41.1749C210.273 40.3176 209.532 39.2523 209.178 38.2742C208.834 37.3228 208.595 34.5809 209.61 32.6683C211.073 29.9081 211.912 30.5757 213.85 28.9047C215.611 27.3799 214.898 23.9523 211.226 25.7947C208.859 26.9822 205.253 33.1348 207.971 40.5776Z" fill="#D2DBDF"/>
</g>
<path d="M290.923 36.3646C292.009 36.0216 292.853 35.4328 293.453 34.5559C294.053 33.6789 294.768 32.5476 294.768 31.1366C294.768 30.1079 294.628 29.2422 294.339 28.5283C294.082 27.8542 293.659 27.2556 293.11 26.7871C292.543 26.329 291.878 26.0078 291.168 25.8483C290.324 25.6563 289.46 25.5671 288.594 25.5827H280.799V44.6013H284.887V28.6042H287.136C287.576 28.6115 288.015 28.6448 288.451 28.704C288.815 28.7437 289.166 28.8601 289.481 29.0455C289.772 29.2263 290.005 29.4867 290.153 29.7959C290.314 30.1206 290.396 30.5717 290.396 31.1423C290.41 31.6032 290.326 32.0618 290.151 32.4886C290.007 32.8288 289.775 33.1249 289.48 33.3473C289.189 33.5544 288.861 33.7038 288.514 33.7871L288.461 33.8054C287.374 34.1019 286.232 35.4778 287.006 36.9492C287.064 37.0574 287.114 37.1206 287.161 37.2303L291.189 44.607H295.866L290.923 36.3646Z" fill="#D2DBDF"/>
<path d="M255.736 36.9576H258.406V41.5109C258.182 41.5517 257.956 41.5803 257.729 41.5967C257.5 41.6163 257.266 41.6304 257.009 41.6402C256.752 41.6501 255.986 41.6585 255.744 41.6683C255.503 41.6782 254.251 41.6824 254.079 41.6824C252.879 41.6824 252.003 41.1132 251.451 39.9749C250.899 38.8365 250.623 37.234 250.623 35.1672C250.623 33.0994 250.909 31.4964 251.481 30.358C252.052 29.2197 253.014 28.6505 254.367 28.6505C255.053 28.6505 256.354 28.6182 257.23 28.6505C257.621 28.6674 258.703 28.5859 259.221 28.5578C260.677 28.4791 261.3 26.3317 261.3 26.3317L261.478 25.629C260.516 25.4477 257.562 25.3606 254.369 25.3606C251.662 25.3606 249.93 26.2038 248.549 27.8748C247.168 29.5457 246.478 31.9503 246.478 35.0772C246.478 38.2777 247.159 40.7258 248.521 42.4216C249.883 44.1179 251.548 44.6533 254.082 44.9653C255.122 45.0932 257.618 44.9892 258.773 44.7643C259.875 44.5507 260.901 44.4214 262.146 44.1361V33.9361H255.736V36.9576Z" fill="#D2DBDF"/>
<path d="M278.064 37.1248C277.917 36.5645 277.643 36.0456 277.263 35.6084C276.799 35.0931 276.242 34.6701 275.62 34.3618C274.736 33.9169 273.819 33.541 272.877 33.2375C272.267 33.0464 271.455 32.8595 271.066 32.6754C270.676 32.4913 269.842 32.3184 269.603 32.147C269.394 32.0088 269.223 31.8222 269.102 31.6031C269.005 31.3975 268.956 31.1717 268.962 30.944C268.962 30.2413 269.157 29.7832 269.547 29.3728C269.936 28.9625 271.139 28.7573 272.11 28.7573C272.532 28.7573 275.358 28.8205 275.866 28.791C276.597 28.7474 277.613 27.4489 277.869 25.9606C277.903 25.7597 277.849 25.7653 277.658 25.7217C277.096 25.591 272.891 25.4716 272.052 25.4716C270.89 25.4716 269.361 25.6121 268.504 25.8847C267.716 26.1233 266.986 26.5223 266.361 27.0568C265.802 27.5437 265.366 28.1557 265.089 28.843C264.809 29.5161 264.668 30.2389 264.674 30.9679C264.661 31.6801 264.752 32.3904 264.945 33.0759C265.122 33.6589 265.425 34.1958 265.832 34.6485C266.296 35.1461 266.848 35.553 267.461 35.8487C268.266 36.2419 269.102 36.5667 269.961 36.8198C270.591 37.0109 271.945 37.202 272.364 37.3918C272.712 37.5431 273.041 37.7316 273.348 37.9539C273.558 38.1021 273.729 38.2982 273.848 38.5259C273.941 38.7173 273.989 38.9273 273.989 39.14C273.989 39.9411 273.779 40.5749 273.361 41.0415C272.939 41.5081 271.823 41.5699 270.719 41.5699C269.728 41.5699 268.089 41.5446 267.278 41.5699C266.268 41.6008 265.155 41.5277 264.468 43.6597L264.187 44.6631C265.197 44.7572 266.295 44.791 267.211 44.8781H267.277C268.28 44.9666 269.625 44.9652 270.706 44.9652C272.002 44.9652 273.418 44.8078 274.333 44.493C275.167 44.2245 275.936 43.7857 276.592 43.2043C277.165 42.6858 277.606 42.0377 277.877 41.3141C278.146 40.5857 278.281 39.815 278.277 39.0388C278.286 38.3944 278.215 37.7514 278.064 37.1248Z" fill="#D2DBDF"/>
<path fill-rule="evenodd" clip-rule="evenodd" d="M415.865 20H383.865V52H415.865V20ZM409.053 48.2214L387.738 23.9663H390.678L411.993 48.2214H409.053ZM438.07 24.2004H434.867L434.867 47.7995H439.418V32.4266L452.566 47.7995H455.769V24.2004H451.218V39.5733L438.07 24.2004ZM471.277 37.1122V47.7995H466.726V37.1122L458.634 24.2004H463.826L469.018 32.4937L474.176 24.2004H479.367L471.277 37.1122ZM494.404 24.7739C492.854 24.3577 491.254 24.1646 489.65 24.2005H482.233V47.7996H489.65C491.254 47.8358 492.854 47.6428 494.404 47.2263C495.616 46.8784 496.757 46.3194 497.775 45.5751C499.234 44.4986 500.413 43.0881 501.214 41.4618C502.053 39.7645 502.48 37.8934 502.461 36.0001C502.48 34.1068 502.053 32.2357 501.214 30.5384C500.413 28.9121 499.234 27.5017 497.775 26.4256C496.757 25.6812 495.616 25.1221 494.404 24.7739ZM497.454 33.2021C497.762 34.1027 497.915 35.0485 497.909 36.0001C497.916 36.9517 497.762 37.8975 497.454 38.7981C497.17 39.6405 496.742 40.4274 496.19 41.1245C495.54 41.9547 494.702 42.6188 493.746 43.0623C492.614 43.5544 491.388 43.7905 490.155 43.7537H486.783V28.2459H490.155C491.388 28.2094 492.614 28.4455 493.746 28.9373C494.702 29.3814 495.54 30.0457 496.19 30.8757C496.742 31.5728 497.17 32.3598 497.454 33.2021ZM506.17 24.2004H510.721V47.7995H506.17V24.2004ZM523.718 28.5491C524.7 28.1169 525.763 27.8988 526.836 27.9091C527.94 27.8956 529.033 28.1259 530.038 28.5836C530.978 29.0148 531.834 29.6082 532.567 30.3367L535.5 27.2344C534.395 26.1838 533.103 25.3493 531.69 24.7738C530.16 24.1532 528.521 23.8436 526.869 23.8632C525.138 23.8423 523.419 24.1631 521.812 24.8072C520.345 25.3971 519.009 26.2741 517.885 27.3867C516.786 28.4896 515.921 29.8022 515.34 31.2464C514.728 32.7561 514.419 34.3712 514.43 36C514.419 37.6305 514.734 39.2467 515.357 40.7536C515.95 42.1997 516.827 43.5121 517.936 44.6132C519.068 45.7243 520.409 46.6009 521.88 47.1928C523.488 47.8369 525.206 48.1577 526.937 48.1369C528.941 48.1756 530.926 47.7483 532.736 46.8889C534.337 46.1249 535.743 45.0067 536.849 43.6189V33.1343H526.229V37.1802H532.298V42.2706C531.595 42.8259 530.81 43.2694 529.971 43.5855C527.986 44.2981 525.808 44.2561 523.852 43.4675C521.924 42.6692 520.395 41.1339 519.605 39.2027C519.183 38.188 518.971 37.0987 518.981 36C518.972 34.9211 519.173 33.8507 519.571 32.8479C519.949 31.8938 520.51 31.0233 521.223 30.2855C521.935 29.5519 522.782 28.9624 523.718 28.5491Z" fill="#D2DBDF"/>
</svg>
