<svg width="744" height="72" viewBox="0 0 744 72" fill="none" xmlns="http://www.w3.org/2000/svg">
<g style="mix-blend-mode:multiply">
<path d="M125.327 47.412C125.468 47.5413 126.397 47.7549 126.692 47.8252C128.076 48.154 129.029 48.4084 130.452 48.4435C134.493 48.5461 138.833 46.3959 141.158 43.2522C143.061 40.6776 143.532 37.9863 144.845 35.0828C145.969 32.5897 149.585 30.7052 151.973 33.1153C154.024 35.1854 153.298 38.5878 152.535 40.9642C151.857 43.0849 149.34 47.7099 144.364 50.1904C136.646 54.027 129.106 51.1235 125.327 47.412Z" fill="#8097A2"/>
</g>
<path d="M120.207 33.1982C120.207 33.1982 120.701 25.8594 127.828 21.2527C130.275 19.6716 133.522 19.3681 134.113 21.6293C134.432 22.8505 134.326 24.6339 130.561 26.548C129.05 27.3154 127.09 27.5753 124.345 28.9751C120.853 30.7599 120.207 33.1982 120.207 33.1982Z" fill="#8097A2"/>
<path d="M140.283 35.555C141.8 35.555 143.029 34.3255 143.029 32.8089C143.029 31.2923 141.8 30.0629 140.283 30.0629C138.767 30.0629 137.537 31.2923 137.537 32.8089C137.537 34.3255 138.767 35.555 140.283 35.555Z" fill="#8097A2"/>
<g style="mix-blend-mode:multiply">
<path d="M129.034 32.2314C129.041 32.5685 128.913 32.8946 128.677 33.136C128.442 33.3774 128.119 33.5138 127.781 33.5144C127.07 33.5338 126.478 32.9732 126.459 32.2623C126.44 31.5513 127 30.9592 127.711 30.9398C128.43 30.9381 129.018 31.5124 129.034 32.2314Z" fill="#8097A2"/>
</g>
<path d="M135.9 24.8769C136.51 24.8769 137.004 24.3824 137.004 23.7723C137.004 23.1623 136.51 22.6677 135.9 22.6677C135.289 22.6677 134.795 23.1623 134.795 23.7723C134.795 24.3824 135.289 24.8769 135.9 24.8769Z" fill="#8097A2"/>
<g style="mix-blend-mode:multiply">
<path d="M123.848 35.5184C126.02 41.487 132.898 40.3093 137.409 41.9732C142.515 43.855 141.906 49.2726 137.373 50.7005C133.127 52.0384 125.174 50.1383 121.578 42.3147C116.43 31.1126 125.651 22.8295 126.522 22.2266C127.495 21.5534 128.891 20.9238 129.417 22.0186C129.943 23.1134 128.948 24.1266 127.996 24.6283C125.285 26.0744 123.665 27.6274 123.21 30.7964C123.045 31.9966 123.071 33.3837 123.848 35.5184Z" fill="#8097A2"/>
</g>
<g style="mix-blend-mode:screen" opacity="0.5">
<path d="M120.971 40.5776C121.491 42.004 122.31 43.8099 123.516 43.827C124.663 43.8436 125.023 42.1488 124.092 41.1749C123.273 40.3176 122.532 39.2523 122.178 38.2742C121.834 37.3228 121.595 34.581 122.61 32.6683C124.073 29.9081 124.912 30.5757 126.85 28.9047C128.611 27.3799 127.898 23.9523 124.226 25.7947C121.859 26.9822 118.253 33.1348 120.971 40.5776Z" fill="#8097A2"/>
</g>
<path d="M203.923 36.3646C205.009 36.0216 205.853 35.4328 206.453 34.5559C207.053 33.6789 207.768 32.5476 207.768 31.1366C207.768 30.1079 207.628 29.2422 207.339 28.5283C207.082 27.8542 206.659 27.2556 206.11 26.7871C205.543 26.329 204.878 26.0078 204.168 25.8483C203.324 25.6563 202.46 25.5671 201.594 25.5827H193.799V44.6013H197.887V28.6042H200.136C200.576 28.6115 201.015 28.6448 201.451 28.704C201.815 28.7437 202.166 28.8601 202.481 29.0455C202.772 29.2263 203.005 29.4867 203.153 29.7959C203.314 30.1206 203.396 30.5717 203.396 31.1423C203.41 31.6032 203.326 32.0618 203.151 32.4886C203.007 32.8288 202.775 33.1249 202.48 33.3473C202.189 33.5544 201.861 33.7038 201.514 33.7871L201.461 33.8054C200.374 34.1019 199.232 35.4778 200.006 36.9492C200.064 37.0574 200.114 37.1206 200.161 37.2303L204.189 44.607H208.866L203.923 36.3646Z" fill="#8097A2"/>
<path d="M168.736 36.9576H171.406V41.5109C171.182 41.5517 170.956 41.5803 170.729 41.5967C170.5 41.6163 170.266 41.6304 170.009 41.6402C169.752 41.6501 168.986 41.6585 168.744 41.6683C168.503 41.6782 167.251 41.6824 167.079 41.6824C165.879 41.6824 165.003 41.1132 164.451 39.9749C163.899 38.8365 163.623 37.234 163.623 35.1672C163.623 33.0994 163.909 31.4964 164.481 30.358C165.052 29.2197 166.014 28.6505 167.367 28.6505C168.053 28.6505 169.354 28.6182 170.23 28.6505C170.621 28.6674 171.703 28.5859 172.221 28.5578C173.677 28.4791 174.3 26.3317 174.3 26.3317L174.478 25.629C173.516 25.4477 170.562 25.3606 167.369 25.3606C164.662 25.3606 162.93 26.2038 161.549 27.8748C160.168 29.5457 159.478 31.9503 159.478 35.0772C159.478 38.2777 160.159 40.7258 161.521 42.4216C162.883 44.1179 164.548 44.6533 167.082 44.9653C168.122 45.0932 170.618 44.9892 171.773 44.7643C172.875 44.5507 173.901 44.4214 175.146 44.1361V33.9361H168.736V36.9576Z" fill="#8097A2"/>
<path d="M191.064 37.1248C190.917 36.5645 190.643 36.0456 190.263 35.6084C189.799 35.0931 189.242 34.6701 188.62 34.3618C187.736 33.9169 186.819 33.541 185.877 33.2375C185.267 33.0464 184.455 32.8595 184.066 32.6754C183.676 32.4913 182.842 32.3184 182.603 32.147C182.394 32.0088 182.223 31.8222 182.102 31.6031C182.005 31.3975 181.956 31.1717 181.962 30.944C181.962 30.2413 182.157 29.7832 182.547 29.3728C182.936 28.9625 184.139 28.7573 185.11 28.7573C185.532 28.7573 188.358 28.8205 188.866 28.791C189.597 28.7474 190.613 27.4489 190.869 25.9606C190.903 25.7597 190.849 25.7653 190.658 25.7217C190.096 25.591 185.891 25.4716 185.052 25.4716C183.89 25.4716 182.361 25.6121 181.504 25.8847C180.716 26.1233 179.986 26.5223 179.361 27.0568C178.802 27.5437 178.366 28.1557 178.089 28.843C177.809 29.5161 177.668 30.2389 177.674 30.9679C177.661 31.6801 177.752 32.3904 177.945 33.0759C178.122 33.6589 178.425 34.1958 178.832 34.6485C179.296 35.1461 179.848 35.553 180.461 35.8487C181.266 36.2419 182.102 36.5667 182.961 36.8198C183.591 37.0109 184.945 37.202 185.364 37.3918C185.712 37.5431 186.041 37.7316 186.348 37.9539C186.558 38.1021 186.729 38.2982 186.848 38.5259C186.941 38.7173 186.989 38.9273 186.989 39.14C186.989 39.9411 186.779 40.5749 186.361 41.0415C185.939 41.5081 184.823 41.5699 183.719 41.5699C182.728 41.5699 181.089 41.5446 180.278 41.5699C179.268 41.6008 178.155 41.5277 177.468 43.6597L177.187 44.6631C178.197 44.7572 179.295 44.791 180.211 44.8781H180.277C181.28 44.9666 182.625 44.9652 183.706 44.9652C185.002 44.9652 186.418 44.8078 187.333 44.493C188.167 44.2245 188.936 43.7857 189.592 43.2043C190.165 42.6858 190.606 42.0377 190.877 41.3141C191.146 40.5857 191.281 39.815 191.277 39.0388C191.286 38.3944 191.215 37.7514 191.064 37.1248Z" fill="#8097A2"/>
<path fill-rule="evenodd" clip-rule="evenodd" d="M288.865 20H256.865V52H288.865V20ZM282.053 48.2214L260.738 23.9663H263.678L284.993 48.2214H282.053ZM311.07 24.2004H307.867L307.867 47.7995H312.418V32.4266L325.566 47.7995H328.769V24.2004H324.218V39.5733L311.07 24.2004ZM344.277 37.1122V47.7995H339.726V37.1122L331.634 24.2004H336.826L342.018 32.4937L347.176 24.2004H352.367L344.277 37.1122ZM367.404 24.7739C365.854 24.3577 364.254 24.1646 362.65 24.2005H355.233V47.7996H362.65C364.254 47.8358 365.854 47.6428 367.404 47.2263C368.616 46.8784 369.757 46.3194 370.775 45.5751C372.234 44.4986 373.413 43.0881 374.214 41.4618C375.053 39.7645 375.48 37.8934 375.461 36.0001C375.48 34.1068 375.053 32.2357 374.214 30.5384C373.413 28.9121 372.234 27.5017 370.775 26.4256C369.757 25.6812 368.616 25.1221 367.404 24.7739ZM370.454 33.2021C370.762 34.1027 370.915 35.0485 370.909 36.0001C370.916 36.9517 370.762 37.8975 370.454 38.7981C370.17 39.6405 369.742 40.4274 369.19 41.1245C368.54 41.9547 367.702 42.6188 366.746 43.0623C365.614 43.5544 364.388 43.7905 363.155 43.7537H359.783V28.2459H363.155C364.388 28.2094 365.614 28.4455 366.746 28.9373C367.702 29.3814 368.54 30.0457 369.19 30.8757C369.742 31.5728 370.17 32.3598 370.454 33.2021ZM379.17 24.2004H383.721V47.7995H379.17V24.2004ZM396.718 28.5491C397.7 28.1169 398.763 27.8988 399.836 27.9091C400.94 27.8956 402.033 28.1259 403.038 28.5836C403.978 29.0148 404.834 29.6082 405.567 30.3367L408.5 27.2344C407.395 26.1838 406.103 25.3493 404.69 24.7738C403.16 24.1532 401.521 23.8436 399.869 23.8632C398.138 23.8423 396.419 24.1631 394.812 24.8072C393.345 25.3971 392.009 26.2741 390.885 27.3867C389.786 28.4896 388.921 29.8022 388.34 31.2464C387.728 32.7561 387.419 34.3712 387.43 36C387.419 37.6305 387.734 39.2467 388.357 40.7536C388.95 42.1997 389.827 43.5121 390.936 44.6132C392.068 45.7243 393.409 46.6009 394.88 47.1928C396.488 47.8369 398.206 48.1577 399.937 48.1369C401.941 48.1756 403.926 47.7483 405.736 46.8889C407.337 46.1249 408.743 45.0067 409.849 43.6189V33.1343H399.229V37.1802H405.298V42.2706C404.595 42.8259 403.81 43.2694 402.971 43.5855C400.986 44.2981 398.808 44.2561 396.852 43.4675C394.924 42.6692 393.395 41.1339 392.605 39.2027C392.183 38.188 391.971 37.0987 391.981 36C391.972 34.9211 392.173 33.8507 392.571 32.8479C392.949 31.8938 393.51 31.0233 394.223 30.2855C394.935 29.5519 395.782 28.9624 396.718 28.5491Z" fill="#8097A2"/>
<path fill-rule="evenodd" clip-rule="evenodd" d="M477.307 45.75H475.337L472.979 43.5833V42.4722L475.42 40.1389V36.4444L478.61 34.3611L482.244 37.1111L477.307 45.75ZM469.151 39.9167L469.512 36.4444L468.319 33.3333H475.365L474.2 36.4444L474.533 39.9167H471.814H469.151ZM470.76 43.5833L468.402 45.7778H466.405L461.44 37.1111L465.101 34.3889L468.319 36.4444V40.1389L470.76 42.4722V43.5833ZM466.377 26.9167H477.279L478.583 32.4722H465.101L466.377 26.9167ZM471.842 20L458 28V44L471.842 52L485.684 44V28L471.842 20ZM501.219 43.4167C497.557 43.4167 494.866 40.5556 494.866 37.0278C494.866 33.5 497.585 30.5556 501.246 30.5556C503.576 30.5556 505.019 31.4167 506.156 32.6667L504.409 34.5556C503.549 33.6389 502.633 33.0278 501.219 33.0278C499.166 33.0278 497.668 34.8056 497.668 36.9722C497.668 39.1945 499.194 40.9722 501.357 40.9722C502.689 40.9722 503.66 40.3333 504.547 39.4445L506.239 41.1389C505.019 42.4445 503.604 43.4167 501.219 43.4167ZM508.762 43.4166H511.592V38.4721C511.592 35.1943 513.312 33.5832 515.78 33.5832H515.947V30.5832C513.783 30.4721 512.368 31.7499 511.592 33.5832V30.5832H508.762V43.4166ZM530.732 30.5278L524.49 46.8611H521.633L522.993 43.4167L517.639 30.5278H520.662L524.296 40.0556L527.791 30.5278H530.732ZM535.476 36.9722C535.476 34.5556 537.14 33 539.054 33C540.968 33 542.577 34.5278 542.577 36.9722C542.577 39.4167 540.996 40.9445 539.054 40.9445C537.168 40.9445 535.476 39.3889 535.476 36.9722ZM535.531 41.2222C536.391 42.3611 537.667 43.3889 539.692 43.3889C542.633 43.3889 545.434 41.0556 545.434 36.9444C545.434 32.8333 542.605 30.5278 539.692 30.5278C537.723 30.5278 536.447 31.5556 535.531 32.8333V30.5278H532.702V46.8611H535.531V41.2222ZM551.62 33.2222V39.2777C551.62 40.3611 552.174 40.8055 553.145 40.8055H554.255V43.3333H552.313C550.26 43.3333 548.79 42.4166 548.79 39.7222V33.2222H547.237V30.8055H548.79V27.4166H551.62V30.8055H554.255V33.2222H551.62ZM559.443 36.9445C559.443 34.7778 560.885 33 563.16 33C565.379 33 566.96 34.8056 566.904 37C566.904 39.1667 565.462 40.9445 563.187 40.9445C560.996 40.9445 559.443 39.1389 559.443 36.9445ZM556.641 37.0278C556.641 40.5556 559.415 43.4167 563.16 43.4167C566.988 43.4167 569.762 40.4722 569.762 36.9722C569.762 33.4167 566.988 30.5556 563.215 30.5556C559.443 30.5556 556.641 33.4722 556.641 37.0278ZM596.752 33C594.477 33 593.035 34.7778 593.035 36.9445C593.035 39.1389 594.588 40.9445 596.779 40.9445C599.054 40.9445 600.496 39.1667 600.496 37C600.524 34.8056 598.971 33 596.752 33ZM596.752 43.4167C593.007 43.4167 590.233 40.5556 590.233 37.0278C590.233 33.4722 593.035 30.5556 596.807 30.5556C600.58 30.5556 603.354 33.4167 603.354 36.9722C603.354 40.4722 600.552 43.4167 596.752 43.4167ZM624.436 35.25C624.436 32.2222 622.799 30.5278 620.108 30.5278C618.25 30.5278 616.946 31.3889 615.92 32.7222C615.254 31.4167 614.033 30.5556 612.258 30.5556C610.372 30.5556 609.318 31.5833 608.513 32.6667V30.5556H605.684V43.4167H608.513V36.1945C608.513 34.2778 609.595 33.1111 611.149 33.1111C612.702 33.1111 613.645 34.1944 613.645 36.1111V43.4167H616.474V36.1667C616.474 34.1944 617.584 33.1111 619.11 33.1111C620.691 33.1111 621.606 34.1389 621.606 36.1111V43.3889H624.436V35.25ZM574.949 40.8054V42.2499L574.866 42.3888L573.617 43.0832H573.451L572.23 42.3888L572.147 42.2499V40.8054L572.23 40.6666L573.451 39.9721H573.617L574.866 40.6666L574.949 40.8054ZM577.279 36.8611C577.224 40.3889 579.859 43.3056 583.521 43.3889C585.934 43.4445 587.376 42.5 588.625 41.1945L586.96 39.4722C586.073 40.3611 585.074 40.9722 583.743 40.9445C581.579 40.9167 580.081 39.1111 580.136 36.8889C580.164 34.6945 581.69 32.9722 583.743 33C585.157 33.0278 586.073 33.6945 586.905 34.6111L588.68 32.75C587.571 31.4722 586.128 30.5834 583.798 30.5278C580.109 30.4445 577.335 33.3334 577.279 36.8611Z" fill="#8097A2"/>
</svg>
