<svg width="744" height="72" viewBox="0 0 744 72" fill="none" xmlns="http://www.w3.org/2000/svg">
<path d="M496.204 50.5773C490.866 51.0457 488.261 46.0017 487.854 41.1454C487.299 34.5039 490.737 31.8788 494.057 31.5875C499.13 31.1448 501.912 36.0233 502.333 41.0615C502.869 47.5188 499.699 50.2662 496.204 50.5773ZM483.766 41.2712C483.766 47.2298 488.016 52 495.179 52C501.692 52 506.414 47.3685 506.414 40.9916C506.414 35.2124 502.621 30.1649 495.179 30.1649C488.474 30.1649 483.766 34.9886 483.766 41.2712V41.2712ZM583.709 24.656C583.709 22.1998 582.054 20.1223 580.146 20.1223C578.351 20.1223 577.931 21.3481 577.931 22.0682C577.931 22.9514 578.541 23.3382 579.174 23.3883C580.06 23.4419 581.486 24.2377 581.486 26.0379C581.486 27.9685 579.691 29.2957 577.976 30.0961C577.75 30.4247 577.93 30.9071 578.3 31.0888C581.207 30.1975 583.709 27.9184 583.709 24.6572V24.656ZM591.579 39.9918L588.718 38.4783C586.869 37.4867 585.637 36.4428 585.637 34.7591C585.637 33.1488 586.645 31.5293 589.37 31.5293C592.098 31.5293 593.296 33.9458 593.681 35.598C593.898 35.9243 594.73 35.8777 594.886 35.5071C594.913 33.4751 594.593 31.6738 594.222 30.8698C592.656 30.5948 591.542 30.1649 589.919 30.1649C585.267 30.1649 582.654 32.5709 582.654 36.0233C582.654 38.6729 584.562 40.515 586.782 41.6906L588.856 42.7847C591.499 44.155 592.098 45.7163 592.098 47.2298C592.098 49.4005 590.575 50.6368 588.218 50.6368C585.119 50.6368 583.09 47.2811 582.714 45.5741C582.386 45.143 581.697 45.1908 581.514 45.6767C581.514 48.1759 582.064 49.8782 582.484 50.5354C583.131 51.0026 584.987 52 587.796 52C592.375 52 595.335 49.686 595.335 46.0017C595.335 42.8325 593.249 40.8436 591.579 39.9918V39.9918ZM543.364 50.2045C539.832 50.2045 539.38 48.6898 539.38 45.6767V34.4177C539.38 33.3691 539.38 32.7678 539.647 32.5709C540.025 32.2505 540.904 32.0583 542.434 32.0583C547.651 32.0583 551.624 35.0842 551.624 40.896C551.624 46.6554 548.902 50.2045 543.363 50.2045H543.364ZM549.363 31.7285C547.193 30.9665 544.923 30.6892 542.335 30.6892C538.6 30.6892 536.004 30.7824 533.412 30.9665C533.001 31.1063 532.949 32.0082 533.362 32.1515L534.748 32.3379C535.817 32.4777 535.859 33.2817 535.859 36.3542V46.3851C535.859 49.6382 535.675 49.8246 533.688 50.1555L532.806 50.2954C532.488 50.5354 532.536 51.344 532.896 51.478C534.471 51.3934 536.047 51.3487 537.624 51.344C538.32 51.344 539.197 51.3895 540.108 51.4349C541.087 51.5363 542.159 51.5794 543.174 51.5794C545.481 51.5794 548.068 51.2123 550.151 50.1078C553.856 48.1759 555.744 44.7247 555.744 40.9916C555.744 36.6397 553.568 33.1896 549.363 31.7285V31.7285ZM575.602 30.6892C574.292 30.7824 573.321 30.8232 572.298 30.8232C571.244 30.8232 570.185 30.7812 568.802 30.6892C568.333 30.871 568.289 31.6295 568.7 31.8625L569.673 32.0082C570.794 32.1515 570.692 32.5709 570 33.8957L568.15 37.3539C567.37 38.857 566.671 39.9918 565.93 41.2712C565.2 39.9864 564.508 38.6801 563.857 37.3539L562.139 33.9936C561.391 32.5185 561.545 32.2505 562.554 32.0082L563.207 31.8625C563.663 31.6295 563.531 30.871 563.154 30.6892C560.429 30.8673 557.696 30.8673 554.971 30.6892C554.609 30.8232 554.517 31.5817 554.831 31.8625L556.037 32.0955C557.233 32.3379 557.706 32.7678 558.671 34.6519L562.043 41.0347C563.207 43.2077 563.336 43.5852 563.336 45.0591V46.8418C563.336 49.6382 563.154 49.9248 561.168 50.1555L560.016 50.2954C559.685 50.5354 559.729 51.344 560.107 51.478C562.187 51.3895 563.626 51.344 565.106 51.344C566.527 51.344 568.06 51.3895 570.087 51.478C570.463 51.344 570.51 50.5354 570.185 50.2965L569.028 50.1567C567.042 49.9248 566.849 49.6382 566.849 46.8418V44.2913C566.849 42.9269 566.948 42.4562 568.614 39.7623L571.478 35.0271C572.911 32.6711 573.141 32.3845 574.581 32.0955L575.685 31.8625C576.063 31.6295 575.962 30.8232 575.602 30.6892V30.6892ZM521.034 50.5773C515.697 51.0457 513.09 46.0017 512.684 41.1454C512.128 34.5039 515.568 31.8788 518.886 31.5875C523.96 31.1448 526.739 36.0233 527.159 41.0615C527.699 47.5188 524.531 50.2662 521.034 50.5773ZM520.008 30.1637C513.309 30.1637 508.595 34.9886 508.595 41.2712C508.595 47.2298 512.844 52 520.008 52C526.522 52 531.244 47.3685 531.244 40.9916C531.244 35.2124 527.455 30.1649 520.008 30.1649V30.1637ZM481.653 50.1555C479.484 49.9248 479.527 48.6886 479.388 46.3361C479.014 39.5211 478.969 30.7812 478.876 25.7676C478.831 22.4632 479.202 21.6126 482.109 21.27L483.088 21.1803C483.323 20.9892 483.323 20.1888 483.047 20C481.602 20.0932 480.084 20.134 478.927 20.134C478.001 20.134 477.035 20.134 475.456 20C475.363 22.1754 474.073 24.7783 471.945 29.0719L467.597 38.0985C466.445 40.515 465.285 42.9805 464.037 45.1908H463.948C462.829 43.1098 461.818 40.938 460.755 38.723L455.484 27.7996C454.057 24.7772 452.893 21.841 453.08 20C451.553 20.134 450.307 20.134 449.241 20.134C448.087 20.134 446.979 20.0944 445.591 20C445.217 20.1888 445.171 20.8972 445.406 21.1803L446.14 21.2712C448.961 21.7489 449.342 22.3583 449.24 25.3399C449.108 28.8539 448.938 32.3663 448.729 35.8765C448.459 40.5628 448.231 43.1588 447.949 46.286C447.669 49.5881 447.021 49.9248 445.083 50.1555L444.065 50.2954C443.778 50.5354 443.877 51.252 444.162 51.478C445.73 51.3902 447.299 51.3455 448.869 51.344C450.626 51.344 452.435 51.3895 454.005 51.478C454.329 51.344 454.378 50.5832 454.057 50.2965L452.297 50.1567C450.488 50.0192 450.217 49.2619 450.217 45.7617C450.217 41.7477 450.4 37.5287 450.539 34.6519C450.685 31.9091 450.821 29.164 450.997 26.2348H451.092C452.108 28.4113 453.08 30.871 454.057 33.0417L458.207 42.1707C459.272 44.4847 461.489 49.1244 462.286 51.6213C462.374 51.7681 462.609 51.8136 462.697 51.8136C462.887 51.8136 463.068 51.7681 463.153 51.6213C463.992 49.4483 466.078 45.0125 468.149 40.8436L472.265 32.5709C473.191 30.7335 474.941 26.949 475.271 26.4305H475.363L475.503 46.1404C475.503 49.1675 475.503 49.9248 473.24 50.1555L471.908 50.2954C471.624 50.5832 471.669 51.252 471.997 51.478C473.884 51.3895 475.967 51.344 477.58 51.344C479.249 51.344 481.148 51.3895 483.047 51.478C483.365 51.2916 483.409 50.5832 483.139 50.2965L481.653 50.1567" fill="#8097A2"/>
<path d="M282.229 43.9909L288.263 41.504L299.345 46.0389V50.976L282.229 43.9909ZM274.769 46.2949V41.6503L280.474 43.9909L274.769 46.2949ZM285.813 31.1909C286.91 31.6297 289.763 32.8 290.823 33.2389C291.153 33.3486 291.262 33.8606 290.823 34.08C286.215 35.9451 279.267 38.7977 274.732 40.6629V35.7257L285.813 31.1909ZM274.769 25.9246V20.9874L291.847 27.9726L285.813 30.4229L274.769 25.9246ZM299.345 30.3131C298.247 29.8743 294.81 28.448 293.639 27.9726L299.345 25.632V30.3131ZM288.263 40.7726L283.253 38.7246C283.107 38.6514 282.997 38.5417 282.997 38.3954C282.997 38.3589 282.997 38.3223 282.997 38.3223C282.997 38.2491 282.997 38.0297 283.253 37.92C283.29 37.92 291.079 34.7017 291.116 34.7017C292.835 34.0069 297.699 31.9954 299.345 31.3371V36.2743L288.263 40.7726ZM282.997 39.3463L287.386 41.1383L281.351 43.5886C280.327 43.1863 276.268 41.504 275.317 41.1383L282.302 38.2857V38.3223C282.302 38.5417 282.375 38.7611 282.485 38.944C282.522 38.9806 282.558 39.0171 282.595 39.0903C282.705 39.2 282.851 39.3097 282.997 39.3463ZM291.116 32.6171C290.019 32.1783 287.825 31.264 286.727 30.8251L292.762 28.3383C293.786 28.7771 297.699 30.3497 298.796 30.7886C297.991 31.1177 292.469 33.3851 291.811 33.6411V33.6046C291.811 33.2023 291.518 32.7634 291.116 32.6171ZM274.074 47.3189L281.351 44.3566L300.039 52V45.6L289.178 41.1383L300.039 36.7131V24.6446L292.762 27.6069L274.074 20V26.4L284.935 30.8251L274.074 35.2503V47.3189Z" fill="#8097A2"/>
<path d="M312.365 41.5771H311.231V30.3862H312.767L316.351 38.7245L319.935 30.3862H321.471V41.5771H320.337V32.1051L316.826 40.2971H315.802L312.365 32.1051V41.5771Z" fill="#8097A2"/>
<path d="M329.626 37.591L327.98 32.983L326.334 37.591H329.626ZM331.052 41.5772L329.992 38.6515H325.969L324.908 41.5772H323.738L327.395 31.6664H328.638L332.296 41.5772H331.052Z" fill="#8097A2"/>
<path d="M335.624 41.5772V38.0664L332.113 31.6664H333.32L336.209 36.8961L339.098 31.6664H340.305L336.757 38.0664V41.5772H335.624Z" fill="#8097A2"/>
<path d="M344.912 41.5771C343.413 41.5771 342.718 40.8822 342.718 39.3828V38.0297L343.851 38.3588V39.4925C343.851 40.3337 344.181 40.6262 344.985 40.6262H348.13C348.971 40.6262 349.264 40.2971 349.264 39.4925V37.9931C349.264 37.1154 348.862 36.8594 348.13 36.7131L345.022 36.0182C343.705 35.7257 342.754 35.3599 342.754 33.7508V32.5805C342.754 31.0811 343.449 30.3862 344.949 30.3862H348.021C349.52 30.3862 350.215 31.0811 350.215 32.5805V33.5679L349.081 33.2388V32.4708C349.081 31.6297 348.752 31.3371 347.947 31.3371H344.985C344.144 31.3371 343.851 31.6662 343.851 32.4708V33.6045C343.851 34.4822 344.254 34.7382 344.985 34.8845L348.094 35.5794C349.41 35.8719 350.361 36.2377 350.361 37.8468V39.3462C350.361 40.8457 349.666 41.5405 348.167 41.5405H344.912V41.5771Z" fill="#8097A2"/>
<path d="M355.336 41.5772V32.6904H352.337V31.6664H359.468V32.6904H356.469V41.5772H355.336Z" fill="#8097A2"/>
<path d="M366.562 36.4938C367.257 36.4938 367.513 36.2378 367.513 35.543V33.6412C367.513 32.9464 367.257 32.6904 366.562 32.6904H362.905V36.4938H366.562V36.4938ZM367.733 41.5772L365.538 37.5178H362.905V41.5772H361.771V31.6664H366.599C367.952 31.6664 368.61 32.3247 368.61 33.6778V35.5064C368.61 36.7864 368.025 37.4812 366.782 37.5178L368.976 41.5772H367.733Z" fill="#8097A2"/>
<path d="M371.208 41.5772V31.6664H377.534V32.6904H372.341V35.9818H376.73V37.0424H372.341V40.5532H377.534V41.5772H371.208Z" fill="#8097A2"/>
<path d="M380.094 41.5772V31.6664H386.421V32.6904H381.227V35.9818H385.616V37.0424H381.227V40.5532H386.421V41.5772H380.094Z" fill="#8097A2"/>
<path d="M391.723 41.5772V32.6904H388.725V31.6664H395.893V32.6904H392.857V41.5772H391.723Z" fill="#8097A2"/>
<path fill-rule="evenodd" clip-rule="evenodd" d="M220.485 34.8732H217.421V22.7948H220.305V24.1476C220.665 23.3359 221.567 22.6166 222.738 22.525C224.722 22.4359 226.074 23.6073 226.074 26.1299V34.8724H222.914V25.7678C222.914 24.6855 222.914 23.7847 222.185 23.6049C221.915 23.5158 221.456 23.6049 221.103 23.8746C220.653 24.3259 220.471 24.867 220.471 25.7678V34.8707L220.485 34.8732ZM168.387 23.6049C167.657 22.973 166.764 22.5226 165.681 22.5226C164.598 22.5226 163.789 22.9738 162.977 23.6049C161.715 24.6872 160.903 26.6694 160.903 28.8324C160.903 31.086 161.713 32.9784 162.977 34.0598C163.789 34.6917 164.599 35.1421 165.681 35.1421C166.762 35.1421 167.664 34.6925 168.387 34.0598C169.739 32.9776 170.46 31.0852 170.46 28.8324C170.46 26.6694 169.731 24.6863 168.387 23.6049ZM167.215 28.8324C167.215 31.086 167.215 32.8885 166.854 33.7901C166.584 34.2397 166.319 34.5192 165.683 34.5192C165.148 34.5192 164.782 34.2486 164.6 33.7901C164.149 32.8885 164.149 31.0844 164.149 28.8324C164.149 26.6694 164.149 24.7763 164.6 23.8746C164.781 23.425 165.135 23.1456 165.683 23.1456C166.314 23.1456 166.584 23.4161 166.855 23.8746C167.306 24.7763 167.216 26.6694 167.216 28.8324H167.215ZM199.842 39.4696V42.714H199.212C198.851 41.3628 198.31 40.1962 196.868 40.0998C195.967 40.0107 195.156 40.5511 195.065 41.362C194.974 42.1729 195.246 42.893 196.868 43.7955C198.942 44.9676 200.564 45.508 200.564 47.9415C200.564 50.5556 198.31 51.8169 196.418 51.8169H192.813V47.3096H193.445C193.896 49.6532 194.617 51.0951 196.329 51.1851C197.411 51.1851 198.221 50.5532 198.221 49.3826C198.221 48.212 197.492 47.4894 195.788 46.4987C193.895 45.3273 192.723 44.6063 192.723 42.9829C192.723 40.82 194.256 39.4672 196.689 39.4672H199.849L199.842 39.4696ZM203.809 34.8724V26.1299C203.809 23.6057 202.456 22.4343 200.474 22.525C199.121 22.6141 198.311 23.5174 197.95 24.2376C197.5 22.9754 196.508 22.4351 195.066 22.525C193.895 22.6141 192.992 23.3367 192.632 24.1476V22.7948H189.838V34.8651H192.901V25.7711C192.901 24.8694 192.99 24.3291 193.533 23.8779C193.895 23.6081 194.254 23.5182 194.524 23.6081C195.253 23.7888 195.253 24.6904 195.253 25.7711V34.8732H198.303V25.6787C198.303 24.867 198.483 24.3259 198.935 23.8754C199.295 23.6057 199.664 23.5158 199.926 23.6057C200.655 23.7863 200.736 24.688 200.736 25.7686V34.8651H203.8L203.809 34.8724ZM172.542 20.2698H175.702V34.8707H172.542V20.2698ZM186.865 34.8732V20.2714H183.705V23.6964C183.436 23.0646 182.804 22.6141 181.903 22.6141C179.649 22.6141 177.847 24.9577 177.757 28.5626C177.668 30.9961 178.478 35.0514 181.632 35.0514C182.894 35.0514 183.615 34.3223 183.886 33.6985V34.8707H186.861L186.865 34.8732ZM183.169 23.7872C183.801 24.6888 183.801 26.8509 183.801 28.5634C183.801 30.3659 183.89 32.7094 183.169 33.701C182.898 34.0623 182.634 34.2356 182.178 34.2356C181.546 34.2356 181.186 33.5066 181.007 32.3433C180.916 31.261 180.916 29.9098 180.916 28.4678C180.916 26.0343 181.097 23.3303 182.269 23.3303C182.72 23.3303 182.901 23.5109 183.171 23.7815L183.169 23.7872ZM213.184 23.1553C213.994 23.6065 214.537 24.3275 214.537 25.9501V34.8732H211.563V33.5203C211.202 34.5111 210.21 35.1421 208.857 35.1421C207.775 35.1421 205.882 34.6075 205.882 31.807C205.882 29.1929 207.595 28.6477 209.487 27.8416C211.2 27.1126 211.379 27.0299 211.379 26.3106V24.3275C211.379 23.5174 210.93 23.1561 210.027 23.1561C209.666 23.2452 209.036 23.4267 209.036 23.8852C208.945 24.4198 209.571 24.4198 209.668 25.238C209.757 26.5001 208.766 26.9497 207.865 26.8598C207.233 26.8598 206.512 26.4993 206.423 25.5086C206.334 23.886 208.136 22.5339 210.654 22.5339C211.827 22.5339 212.548 22.8045 213.179 23.1658L213.184 23.1553ZM211.381 27.6618L210.39 28.2937C209.4 28.9255 209.218 29.7356 209.128 30.6372C209.039 31.3663 209.039 31.9901 209.128 33.0707C209.217 34.0615 209.849 34.2429 210.39 34.0615C211.022 33.7909 211.381 32.6195 211.381 31.3558V27.6602V27.6618ZM168.568 40.0107C169.38 40.5454 169.829 41.1829 169.829 42.8055V51.8202H166.945V50.4673C166.585 51.3689 165.594 51.9984 164.24 51.9984C163.068 51.9984 161.265 51.5472 161.265 48.754C161.265 46.1398 162.978 45.5947 164.781 44.7886C166.584 43.9826 166.762 43.887 166.762 43.2576V41.2728C166.762 40.3712 166.311 40.0115 165.411 40.1015C165.05 40.1015 164.419 40.2821 164.419 40.7333C164.33 41.3652 164.953 41.3652 165.051 42.1753C165.141 43.3475 164.149 43.7979 163.248 43.7979C162.616 43.7088 161.895 43.3483 161.806 42.3559C161.717 40.8249 163.519 39.472 166.037 39.472C167.21 39.472 167.93 39.6527 168.562 40.0067L168.568 40.0107ZM166.765 44.5172L165.774 45.1491C164.783 45.781 164.603 46.5911 164.512 47.4927C164.423 48.2137 164.423 48.9346 164.512 49.9262C164.512 51.0085 165.144 51.1875 165.684 50.9169C166.405 50.6463 166.766 49.5657 166.766 48.2129V44.5172H166.765ZM190.38 43.0753C190.38 40.5511 189.028 39.2898 187.045 39.4704C186.055 39.5595 185.243 40.0051 184.792 40.6426V37.1268H181.729V45.4197C181.729 48.4842 179.566 51.3681 177.403 51.2782C175.872 51.2782 175.51 50.1068 175.329 48.8447C175.058 47.0415 175.058 44.9693 175.238 42.7156C175.419 41.2737 175.773 40.1015 176.861 40.1015C177.673 40.1015 177.763 40.6361 177.396 41.0031C177.034 41.4543 176.494 41.9047 176.764 42.8963C177.033 43.9785 178.745 44.1576 179.558 43.3475C180.19 42.6265 180.093 41.4543 179.648 40.7333C179.113 39.8317 178.206 39.472 176.853 39.472C175.14 39.472 171.895 41.0031 171.895 45.8717C171.895 51.0992 175.23 52 177.123 52C179.285 52 181.179 50.1068 181.719 48.575V51.821H184.784V42.7164C184.784 41.8148 184.964 41.2745 185.415 40.8233C185.777 40.5535 186.227 40.4628 186.498 40.5535C187.219 40.7333 187.219 41.6358 187.219 42.7164V51.8202H190.378V43.0769L190.38 43.0753ZM158.832 20V25.1376H158.201C157.666 22.6133 156.488 20.721 154.865 20.6311C153.783 20.5419 153.154 21.1657 152.612 22.073C152.077 23.1553 151.8 25.4081 151.8 28.1114C151.8 30.6356 151.891 32.528 152.161 33.8792C152.341 34.5111 152.793 35.5018 153.964 35.5018C154.596 35.5018 155.046 35.3211 155.317 34.9671C155.768 34.4325 155.851 33.3445 155.851 32.6236V30.1909C155.851 29.2893 155.581 28.7489 155.13 28.4784C154.77 28.2977 154.229 28.2977 153.959 28.2078V27.5759H159.006V40.4563H158.374C158.107 39.4745 157.926 38.7535 157.475 37.9434C157.024 37.1333 156.213 36.2317 154.861 36.2317C153.419 36.141 152.336 37.0434 152.336 38.3946C152.336 40.1979 153.419 40.6483 155.401 41.7297C157.294 42.812 159.727 43.7128 159.727 46.8681C159.727 49.9327 157.113 51.8258 154.139 51.8258H149.361V45.6125H149.993C150.804 50.2988 152.788 51.1105 154.139 51.1105C155.851 51.1105 156.657 50.0283 156.657 48.4964C156.567 46.5133 155.211 45.7907 153.321 44.8008C150.617 43.2697 149.356 42.5471 149.356 40.0229C149.445 37.86 151.159 36.5071 153.052 35.9668C149.086 35.5156 147.914 31.9107 148.005 28.0393C148.005 24.1638 150.258 20.017 154.674 20.017H158.82L158.832 20Z" fill="#8097A2"/>
</svg>
