<?xml version="1.0" encoding="UTF-8"?>
<svg width="120px" height="32px" viewBox="0 0 290 32" version="1.1" xmlns="http://www.w3.org/2000/svg" xmlns:xlink="http://www.w3.org/1999/xlink">
    <title>for-blockchain</title>
    <g id="Teleport-SSH-Page" stroke="none" stroke-width="1" fill="none" fill-rule="evenodd">
        <g id="Reusable-Blocks" transform="translate(-350.000000, -1482.000000)" fill="#8097A2">
            <g id="for-blockchain" transform="translate(350.000000, 1482.000000)">
                <path d="M5.32706136,27.412 C5.46806136,27.5413 6.39706136,27.7549 6.69206136,27.8252 C8.07606136,28.154 9.02906136,28.4084 10.4520614,28.4435 C14.4930614,28.5461 18.8330614,26.3959 21.1580614,23.2522 C23.0610614,20.6776 23.5320614,17.9863 24.8450614,15.0828 C25.9690614,12.5897 29.5850614,10.7052 31.9730614,13.1153 C34.0240614,15.1854 33.2980614,18.5878 32.5350614,20.9642 C31.8570614,23.0849 29.3400614,27.7099 24.3640614,30.1904 C16.6460614,34.027 9.10606136,31.1235 5.32706136,27.412 Z" id="Path" fill-rule="nonzero"></path>
                <path d="M0.20706136,13.1982 C0.20706136,13.1982 0.70106136,5.8594 7.82806136,1.2527 C10.2750614,-0.3284 13.5220614,-0.6319 14.1130614,1.6293 C14.4320614,2.8505 14.3260614,4.6339 10.5610614,6.548 C9.05006136,7.3154 7.09006136,7.5753 4.34506136,8.9751 C0.85306136,10.7599 0.20706136,13.1982 0.20706136,13.1982 Z" id="Path" fill-rule="nonzero"></path>
                <path d="M20.2830614,15.555 C21.8000614,15.555 23.0290614,14.3255 23.0290614,12.8089 C23.0290614,11.2923 21.8000614,10.0629 20.2830614,10.0629 C18.7670614,10.0629 17.5370614,11.2923 17.5370614,12.8089 C17.5370614,14.3255 18.7670614,15.555 20.2830614,15.555 Z" id="Path" fill-rule="nonzero"></path>
                <path d="M9.03406136,12.2314 C9.04106136,12.5685 8.91306136,12.8946 8.67706136,13.136 C8.44206136,13.3774 8.11906136,13.5138 7.78106136,13.5144 C7.07006136,13.5338 6.47806136,12.9732 6.45906136,12.2623 C6.44006136,11.5513 7.00006136,10.9592 7.71106136,10.9397962 C8.43006136,10.9381 9.01806136,11.5124 9.03406136,12.2314 Z" id="Path" fill-rule="nonzero"></path>
                <path d="M15.9000614,4.8769 C16.5100614,4.8769 17.0040614,4.3824 17.0040614,3.7723 C17.0040614,3.1623 16.5100614,2.6677 15.9000614,2.6677 C15.2890614,2.6677 14.7950614,3.1623 14.7950614,3.7723 C14.7950614,4.3824 15.2890614,4.8769 15.9000614,4.8769 Z" id="Path" fill-rule="nonzero"></path>
                <path d="M3.84806136,15.5184 C6.02006136,21.487 12.8980614,20.3093 17.4090614,21.9732 C22.5150614,23.855 21.9060614,29.2726 17.3730614,30.7005 C13.1270614,32.0384 5.17406136,30.1383 1.57806136,22.3147 C-3.56993864,11.1126 5.65106136,2.8295 6.52206136,2.2266 C7.49506136,1.5534 8.89106136,0.9238 9.41706136,2.0186 C9.94306136,3.1134 8.94806136,4.1266 7.99606136,4.6283 C5.28506136,6.0744 3.66506136,7.6274 3.21006136,10.7964 C3.04506136,11.9966 3.07106136,13.3837 3.84806136,15.5184 Z" id="Path" fill-rule="nonzero"></path>
                <g id="Group" opacity="0.5" style="mix-blend-mode: screen;" transform="translate(0.000000, 5.264189)" fill-rule="nonzero">
                    <path d="M0.97106136,15.3134114 C1.49106136,16.7398114 2.31006136,18.5457114 3.51606136,18.5629324 C4.66306136,18.5794114 5.02306136,16.8846114 4.09206136,15.9107114 C3.27306136,15.0534114 2.53206136,13.9881114 2.17806136,13.0100114 C1.83406136,12.0586114 1.59506136,9.31681137 2.61006136,7.40411137 C4.07306136,4.64391137 4.91206136,5.31151137 6.85006136,3.64051137 C8.61106136,2.11571137 7.89806136,-1.31188863 4.22606136,0.530511371 C1.85906136,1.71801137 -1.74693864,7.87061137 0.97106136,15.3134114 Z" id="Path"></path>
                </g>
                <path d="M83.9230614,16.3646 C85.0090614,16.0216 85.8530614,15.4328 86.4530614,14.5559 C87.0530614,13.6789 87.7680614,12.5476 87.7680614,11.1366 C87.7680614,10.1079 87.6280614,9.2422 87.3390614,8.5283 C87.0820614,7.8542 86.6590614,7.2556 86.1100614,6.7871 C85.5430614,6.329 84.8780614,6.0078 84.1680614,5.8483 C83.3240614,5.6563 82.4600614,5.5671 81.5940614,5.5827 L73.7990614,5.5827 L73.7990614,24.6013 L77.8870614,24.6013 L77.8870614,8.6042 L80.1360614,8.6042 C80.5760614,8.6115 81.0150614,8.6448 81.4510614,8.704 C81.8150614,8.7437 82.1660614,8.8601 82.4810614,9.0455 C82.7720614,9.2263 83.0050614,9.4867 83.1530614,9.7959 C83.3140614,10.1206 83.3960614,10.5717 83.3960614,11.1423 C83.4100614,11.6032 83.3260614,12.0618 83.1510614,12.4886 C83.0070614,12.8288 82.7750614,13.1249 82.4800614,13.3473 C82.1890614,13.5544 81.8610614,13.7038 81.5140614,13.7871 L81.4610614,13.8054 C80.3740614,14.1019 79.2320614,15.4778 80.0060614,16.9492 C80.0640614,17.0574 80.1140614,17.1206 80.1610614,17.2303 L84.1890614,24.607 L88.8660614,24.607 L83.9230614,16.3646 Z" id="Path" fill-rule="nonzero"></path>
                <path d="M48.7360614,16.9576 L51.4060614,16.9576 L51.4060614,21.5109 C51.1820614,21.5517 50.9560614,21.5803 50.7290614,21.5967 C50.5000614,21.6163 50.2660614,21.6304 50.0090614,21.6402 C49.7520614,21.6501 48.9860614,21.6585 48.7440614,21.6683 C48.5030614,21.6782 47.2510614,21.6824 47.0790614,21.6824 C45.8790614,21.6824 45.0030614,21.1132 44.4510614,19.9749 C43.8990614,18.8365 43.6230614,17.234 43.6230614,15.1672 C43.6230614,13.0994 43.9090614,11.4964 44.4810614,10.358 C45.0520614,9.2197 46.0140614,8.6505 47.3670614,8.6505 C48.0530614,8.6505 49.3540614,8.6182 50.2300614,8.6505 C50.6210614,8.6674 51.7030614,8.5859 52.2210614,8.5578 C53.6770614,8.4791 54.3000614,6.3317 54.3000614,6.3317 L54.4780614,5.629 C53.5160614,5.4477 50.5620614,5.3606 47.3690614,5.3606 C44.6620614,5.3606 42.9300614,6.2038 41.5490614,7.8748 C40.1680614,9.5457 39.4780614,11.9503 39.4780614,15.0772 C39.4780614,18.2777 40.1590614,20.7258 41.5210614,22.4216 C42.8830614,24.1179 44.5480614,24.6533 47.0820614,24.9653 C48.1220614,25.0932 50.6180614,24.9892 51.7730614,24.7643 C52.8750614,24.5507 53.9010614,24.4214 55.1460614,24.1361 L55.1460614,13.9361 L48.7360614,13.9361 L48.7360614,16.9576 Z" id="Path" fill-rule="nonzero"></path>
                <path d="M71.0640614,17.1248 C70.9170614,16.5645 70.6430614,16.0456 70.2630614,15.6084 C69.7990614,15.0931 69.2420614,14.6701 68.6200614,14.3618 C67.7360614,13.9169 66.8190614,13.541 65.8770614,13.2375 C65.2670614,13.0464 64.4550614,12.8595 64.0660614,12.6754 C63.6760614,12.4913 62.8420614,12.3184 62.6030614,12.147 C62.3940614,12.0088 62.2230614,11.8222 62.1020614,11.6031 C62.0050614,11.3975 61.9560614,11.1717 61.9620614,10.944 C61.9620614,10.2413 62.1570614,9.7832 62.5470614,9.3728 C62.9360614,8.9625 64.1390614,8.7573 65.1100614,8.7573 C65.5320614,8.7573 68.3580614,8.8205 68.8660614,8.791 C69.5970614,8.7474 70.6130614,7.4489 70.8690614,5.9606 C70.9030614,5.7597 70.8490614,5.7653 70.6580614,5.7217 C70.0960614,5.591 65.8910614,5.4716 65.0520614,5.4716 C63.8900614,5.4716 62.3610614,5.6121 61.5040614,5.8847 C60.7160614,6.1233 59.9860614,6.5223 59.3610614,7.0568 C58.8020614,7.5437 58.3660614,8.1557 58.0890614,8.843 C57.8090614,9.5161 57.6680614,10.2389 57.6740614,10.9679 C57.6610614,11.6801 57.7520614,12.3904 57.9450614,13.0759 C58.1220614,13.6589 58.4250614,14.1958 58.8320614,14.6485 C59.2960614,15.1461 59.8480614,15.553 60.4610614,15.8487 C61.2660614,16.2419 62.1020614,16.5667 62.9610614,16.8198 C63.5910614,17.0109 64.9450614,17.202 65.3640614,17.3918 C65.7120614,17.5431 66.0410614,17.7316 66.3480614,17.9539 C66.5580614,18.1021 66.7290614,18.2982 66.8480614,18.5259 C66.9410614,18.7173 66.9890614,18.9273 66.9890614,19.14 C66.9890614,19.9411 66.7790614,20.5749 66.3610614,21.0415 C65.9390614,21.5081 64.8230614,21.5699 63.7190614,21.5699 C62.7280614,21.5699 61.0890614,21.5446 60.2780614,21.5699 C59.2680614,21.6008 58.1550614,21.5277 57.4680614,23.6597 L57.1870614,24.6631 C58.1970614,24.7572 59.2950614,24.791 60.2110614,24.8781 L60.2770614,24.8781 C61.2800614,24.9666 62.6250614,24.9652013 63.7060614,24.9652013 C65.0020614,24.9652013 66.4180614,24.8078 67.3330614,24.493 C68.1670614,24.2245 68.9360614,23.7857 69.5920614,23.2043 C70.1650614,22.6858 70.6060614,22.0377 70.8770614,21.3141 C71.1460614,20.5857 71.2810614,19.815 71.2770614,19.0388 C71.2860614,18.3944 71.2150614,17.7514 71.0640614,17.1248 Z" id="Path" fill-rule="nonzero"></path>
                <path d="M168.865061,0 L136.865061,0 L136.865061,32 L168.865061,32 L168.865061,0 Z M162.053061,28.2214 L140.738061,3.9663 L143.678061,3.9663 L164.993061,28.2214 L162.053061,28.2214 Z M191.070061,4.2004 L187.867061,4.2004 L187.867061,27.7995 L192.418061,27.7995 L192.418061,12.4266 L205.566061,27.7995 L208.769061,27.7995 L208.769061,4.2004 L204.218061,4.2004 L204.218061,19.5733 L191.070061,4.2004 Z M224.277061,17.1122 L224.277061,27.7995 L219.726061,27.7995 L219.726061,17.1122 L211.634061,4.2004 L216.826061,4.2004 L222.018061,12.4937 L227.176061,4.2004 L232.367061,4.2004 L224.277061,17.1122 Z M247.404061,4.7739 C245.854061,4.3577 244.254061,4.1646 242.650061,4.2005 L235.233061,4.2005 L235.233061,27.7996 L242.650061,27.7996 C244.254061,27.8358 245.854061,27.6428 247.404061,27.2263 C248.616061,26.8784 249.757061,26.3194 250.775061,25.5751 C252.234061,24.4986 253.413061,23.0881 254.214061,21.4618 C255.053061,19.7645 255.480061,17.8934 255.461061,16.0001 C255.480061,14.1068 255.053061,12.2357 254.214061,10.5384 C253.413061,8.9121 252.234061,7.5017 250.775061,6.4256 C249.757061,5.6812 248.616061,5.1221 247.404061,4.7739 Z M250.454061,13.2021 C250.762061,14.1027 250.915061,15.0485 250.909061,16.0001 C250.916061,16.9517 250.762061,17.8975 250.454061,18.7981 C250.170061,19.6405 249.742061,20.4274 249.190061,21.1245 C248.540061,21.9547 247.702061,22.6188 246.746061,23.0623 C245.614061,23.5544 244.388061,23.7905 243.155061,23.7537 L239.783061,23.7537 L239.783061,8.2459 L243.155061,8.2459 C244.388061,8.2094 245.614061,8.4455 246.746061,8.9373 C247.702061,9.3814 248.540061,10.0457 249.190061,10.8757 C249.742061,11.5728 250.170061,12.3598 250.454061,13.2021 Z M259.170061,4.2004 L263.721061,4.2004 L263.721061,27.7995 L259.170061,27.7995 L259.170061,4.2004 Z M276.718061,8.5491 C277.700061,8.1169 278.763061,7.8988 279.836061,7.9091 C280.940061,7.8956 282.033061,8.1259 283.038061,8.5836 C283.978061,9.0148 284.834061,9.6082 285.567061,10.3367 L288.500061,7.2344 C287.395061,6.1838 286.103061,5.3493 284.690061,4.7738 C283.160061,4.1532 281.521061,3.8436 279.869061,3.8632 C278.138061,3.8423 276.419061,4.1631 274.812061,4.8072 C273.345061,5.3971 272.009061,6.2741 270.885061,7.3867 C269.786061,8.4896 268.921061,9.8022 268.340061,11.2464 C267.728061,12.7561 267.419061,14.3712 267.430061,16 C267.419061,17.6305 267.734061,19.2467 268.357061,20.7536 C268.950061,22.1997 269.827061,23.5121 270.936061,24.6132 C272.068061,25.7243 273.409061,26.6009 274.880061,27.1928 C276.488061,27.8369 278.206061,28.1577 279.937061,28.1369 C281.941061,28.1756 283.926061,27.7483 285.736061,26.8889 C287.337061,26.1249 288.743061,25.0067 289.849061,23.6189 L289.849061,13.1343 L279.229061,13.1343 L279.229061,17.1802 L285.298061,17.1802 L285.298061,22.2706 C284.595061,22.8259 283.810061,23.2694 282.971061,23.5855 C280.986061,24.2981 278.808061,24.2561 276.852061,23.4675 C274.924061,22.6692 273.395061,21.1339 272.605061,19.2027 C272.183061,18.188 271.971061,17.0987 271.981061,16 C271.972061,14.9211 272.173061,13.8507 272.571061,12.8479 C272.949061,11.8938 273.510061,11.0233 274.223061,10.2855 C274.935061,9.5519 275.782061,8.9624 276.718061,8.5491 Z" id="Shape"></path>
            </g>
        </g>
    </g>
</svg>