<svg width="744" height="72" viewBox="0 0 744 72" fill="none" xmlns="http://www.w3.org/2000/svg">
<path d="M243.311 50.5773C237.974 51.0457 235.369 46.0017 234.962 41.1454C234.406 34.5039 237.844 31.8788 241.164 31.5875C246.237 31.1448 249.02 36.0233 249.44 41.0615C249.976 47.5188 246.807 50.2662 243.311 50.5773ZM230.873 41.2712C230.873 47.2298 235.124 52 242.286 52C248.799 52 253.522 47.3685 253.522 40.9916C253.522 35.2124 249.728 30.1649 242.286 30.1649C235.582 30.1649 230.873 34.9886 230.873 41.2712ZM330.816 24.656C330.816 22.1998 329.162 20.1223 327.253 20.1223C325.459 20.1223 325.038 21.3481 325.038 22.0682C325.038 22.9514 325.649 23.3382 326.281 23.3883C327.167 23.4419 328.593 24.2377 328.593 26.0379C328.593 27.9685 326.799 29.2957 325.084 30.0961C324.858 30.4247 325.037 30.9071 325.408 31.0888C328.315 30.1975 330.816 27.9184 330.816 24.6572V24.656ZM338.687 39.9918L335.825 38.4783C333.976 37.4867 332.745 36.4428 332.745 34.7591C332.745 33.1488 333.752 31.5293 336.478 31.5293C339.205 31.5293 340.403 33.9458 340.789 35.598C341.006 35.9243 341.837 35.8777 341.994 35.5071C342.02 33.4751 341.7 31.6738 341.329 30.8698C339.764 30.5948 338.65 30.1649 337.027 30.1649C332.374 30.1649 329.762 32.5709 329.762 36.0233C329.762 38.6729 331.669 40.515 333.89 41.6906L335.964 42.7847C338.606 44.155 339.205 45.7163 339.205 47.2298C339.205 49.4005 337.683 50.6368 335.325 50.6368C332.226 50.6368 330.198 47.2811 329.821 45.5741C329.494 45.143 328.804 45.1908 328.621 45.6767C328.621 48.1759 329.171 49.8782 329.592 50.5354C330.238 51.0026 332.094 52 334.904 52C339.483 52 342.442 49.686 342.442 46.0017C342.442 42.8325 340.357 40.8436 338.687 39.9918ZM290.471 50.2045C286.94 50.2045 286.488 48.6898 286.488 45.6767V34.4177C286.488 33.3691 286.488 32.7678 286.754 32.5709C287.132 32.2505 288.012 32.0583 289.542 32.0583C294.758 32.0583 298.731 35.0842 298.731 40.896C298.731 46.6554 296.009 50.2045 290.47 50.2045H290.471ZM296.471 31.7285C294.3 30.9665 292.03 30.6892 289.442 30.6892C285.707 30.6892 283.111 30.7824 280.52 30.9665C280.108 31.1063 280.056 32.0082 280.47 32.1515L281.855 32.3379C282.925 32.4777 282.967 33.2817 282.967 36.3542V46.3851C282.967 49.6382 282.782 49.8246 280.796 50.1555L279.914 50.2954C279.596 50.5354 279.643 51.344 280.004 51.478C281.578 51.3934 283.155 51.3487 284.732 51.344C285.427 51.344 286.305 51.3895 287.216 51.4349C288.195 51.5363 289.267 51.5794 290.281 51.5794C292.588 51.5794 295.175 51.2123 297.258 50.1078C300.964 48.1759 302.851 44.7247 302.851 40.9916C302.851 36.6397 300.676 33.1896 296.471 31.7285ZM322.709 30.6892C321.399 30.7824 320.429 30.8232 319.406 30.8232C318.351 30.8232 317.292 30.7812 315.909 30.6892C315.441 30.871 315.396 31.6295 315.808 31.8625L316.781 32.0082C317.902 32.1515 317.799 32.5709 317.107 33.8957L315.258 37.3539C314.477 38.857 313.778 39.9918 313.037 41.2712C312.307 39.9864 311.616 38.6801 310.964 37.3539L309.247 33.9936C308.499 32.5185 308.653 32.2505 309.662 32.0082L310.314 31.8625C310.771 31.6295 310.638 30.871 310.262 30.6892C307.537 30.8673 304.803 30.8673 302.079 30.6892C301.716 30.8232 301.624 31.5817 301.939 31.8625L303.145 32.0955C304.34 32.3379 304.813 32.7678 305.778 34.6519L309.15 41.0347C310.314 43.2077 310.443 43.5852 310.443 45.0591V46.8418C310.443 49.6382 310.262 49.9248 308.275 50.1555L307.124 50.2954C306.793 50.5354 306.836 51.344 307.215 51.478C309.295 51.3895 310.733 51.344 312.213 51.344C313.635 51.344 315.167 51.3895 317.194 51.478C317.571 51.344 317.617 50.5354 317.292 50.2965L316.135 50.1567C314.15 49.9248 313.956 49.6382 313.956 46.8418V44.2913C313.956 42.9269 314.055 42.4562 315.722 39.7623L318.586 35.0271C320.019 32.6711 320.248 32.3845 321.688 32.0955L322.793 31.8625C323.17 31.6295 323.069 30.8232 322.709 30.6892ZM268.141 50.5773C262.805 51.0457 260.197 46.0017 259.791 41.1454C259.236 34.5039 262.675 31.8788 265.994 31.5875C271.068 31.1448 273.847 36.0233 274.266 41.0615C274.807 47.5188 271.639 50.2662 268.141 50.5773ZM267.116 30.1637C260.416 30.1637 255.703 34.9886 255.703 41.2712C255.703 47.2298 259.951 52 267.116 52C273.629 52 278.351 47.3685 278.351 40.9916C278.351 35.2124 274.562 30.1649 267.116 30.1649V30.1637ZM228.761 50.1555C226.591 49.9248 226.634 48.6886 226.496 46.3361C226.122 39.5211 226.076 30.7812 225.983 25.7676C225.939 22.4632 226.309 21.6126 229.216 21.27L230.195 21.1803C230.431 20.9892 230.431 20.1888 230.154 20C228.71 20.0932 227.191 20.134 226.034 20.134C225.108 20.134 224.142 20.134 222.563 20C222.47 22.1754 221.18 24.7783 219.053 29.0719L214.704 38.0985C213.552 40.515 212.393 42.9805 211.145 45.1908H211.055C209.937 43.1098 208.925 40.938 207.863 38.723L202.591 27.7996C201.164 24.7772 200 21.841 200.188 20C198.66 20.134 197.415 20.134 196.348 20.134C195.195 20.134 194.087 20.0944 192.698 20C192.324 20.1888 192.279 20.8972 192.514 21.1803L193.248 21.2712C196.069 21.7489 196.45 22.3583 196.347 25.3399C196.215 28.8539 196.045 32.3663 195.837 35.8765C195.567 40.5628 195.338 43.1588 195.056 46.286C194.777 49.5881 194.129 49.9248 192.19 50.1555L191.173 50.2954C190.885 50.5354 190.984 51.252 191.269 51.478C192.837 51.3902 194.407 51.3455 195.977 51.344C197.734 51.344 199.542 51.3895 201.113 51.478C201.437 51.344 201.486 50.5832 201.164 50.2965L199.405 50.1567C197.595 50.0192 197.325 49.2619 197.325 45.7617C197.325 41.7477 197.508 37.5287 197.646 34.6519C197.792 31.9091 197.928 29.164 198.104 26.2348H198.2C199.216 28.4113 200.188 30.871 201.164 33.0417L205.314 42.1707C206.379 44.4847 208.597 49.1244 209.394 51.6213C209.481 51.7681 209.716 51.8136 209.805 51.8136C209.995 51.8136 210.175 51.7681 210.26 51.6213C211.099 49.4483 213.185 45.0125 215.257 40.8436L219.372 32.5709C220.298 30.7335 222.048 26.949 222.378 26.4305H222.47L222.61 46.1404C222.61 49.1675 222.61 49.9248 220.347 50.1555L219.015 50.2954C218.731 50.5832 218.777 51.252 219.104 51.478C220.992 51.3895 223.075 51.344 224.687 51.344C226.356 51.344 228.255 51.3895 230.154 51.478C230.472 51.2916 230.517 50.5832 230.246 50.2965L228.761 50.1567" fill="#D2DBDF"/>
<path d="M438.598 43.9909L444.632 41.504L455.713 46.0389V50.976L438.598 43.9909ZM431.137 46.2949V41.6503L436.842 43.9909L431.137 46.2949ZM442.182 31.1909C443.279 31.6297 446.132 32.8 447.192 33.2389C447.521 33.3486 447.631 33.8606 447.192 34.08C442.584 35.9451 435.636 38.7977 431.101 40.6629V35.7257L442.182 31.1909ZM431.137 25.9246V20.9874L448.216 27.9726L442.182 30.4229L431.137 25.9246ZM455.713 30.3131C454.616 29.8743 451.178 28.448 450.008 27.9726L455.713 25.632V30.3131ZM444.632 40.7726L439.622 38.7246C439.476 38.6514 439.366 38.5417 439.366 38.3954C439.366 38.3589 439.366 38.3223 439.366 38.3223C439.366 38.2491 439.366 38.0297 439.622 37.92C439.658 37.92 447.448 34.7017 447.485 34.7017C449.204 34.0069 454.068 31.9954 455.713 31.3371V36.2743L444.632 40.7726ZM439.366 39.3463L443.754 41.1383L437.72 43.5886C436.696 43.1863 432.637 41.504 431.686 41.1383L438.671 38.2857V38.3223C438.671 38.5417 438.744 38.7611 438.854 38.944C438.89 38.9806 438.927 39.0171 438.964 39.0903C439.073 39.2 439.22 39.3097 439.366 39.3463ZM447.485 32.6171C446.388 32.1783 444.193 31.264 443.096 30.8251L449.13 28.3383C450.154 28.7771 454.068 30.3497 455.165 30.7886C454.36 31.1177 448.838 33.3851 448.18 33.6411V33.6046C448.18 33.2023 447.887 32.7634 447.485 32.6171ZM430.442 47.3189L437.72 44.3566L456.408 52V45.6L445.546 41.1383L456.408 36.7131V24.6446L449.13 27.6069L430.442 20V26.4L441.304 30.8251L430.442 35.2503V47.3189Z" fill="#D2DBDF"/>
<path d="M468.733 41.5771H467.6V30.3862H469.136L472.72 38.7245L476.304 30.3862H477.84V41.5771H476.706V32.1051L473.195 40.2971H472.171L468.733 32.1051V41.5771Z" fill="#D2DBDF"/>
<path d="M485.994 37.591L484.349 32.983L482.703 37.591H485.994ZM487.421 41.5772L486.36 38.6515H482.337L481.277 41.5772H480.106L483.764 31.6664H485.007L488.664 41.5772H487.421Z" fill="#D2DBDF"/>
<path d="M491.992 41.5772V38.0664L488.481 31.6664H489.688L492.577 36.8961L495.467 31.6664H496.673L493.126 38.0664V41.5772H491.992Z" fill="#D2DBDF"/>
<path d="M501.281 41.5771C499.782 41.5771 499.087 40.8822 499.087 39.3828V38.0297L500.221 38.3588V39.4925C500.221 40.3337 500.55 40.6262 501.354 40.6262H504.499C505.341 40.6262 505.633 40.2971 505.633 39.4925V37.9931C505.633 37.1154 505.231 36.8594 504.499 36.7131L501.391 36.0182C500.074 35.7257 499.123 35.3599 499.123 33.7508V32.5805C499.123 31.0811 499.818 30.3862 501.318 30.3862H504.39C505.889 30.3862 506.584 31.0811 506.584 32.5805V33.5679L505.45 33.2388V32.4708C505.45 31.6297 505.121 31.3371 504.317 31.3371H501.354C500.513 31.3371 500.221 31.6662 500.221 32.4708V33.6045C500.221 34.4822 500.623 34.7382 501.354 34.8845L504.463 35.5794C505.779 35.8719 506.73 36.2377 506.73 37.8468V39.3462C506.73 40.8457 506.035 41.5405 504.536 41.5405H501.281V41.5771Z" fill="#D2DBDF"/>
<path d="M511.704 41.5772V32.6904H508.705V31.6664H515.837V32.6904H512.838V41.5772H511.704Z" fill="#D2DBDF"/>
<path d="M522.931 36.4938C523.626 36.4938 523.882 36.2378 523.882 35.543V33.6412C523.882 32.9464 523.626 32.6904 522.931 32.6904H519.274V36.4938H522.931ZM524.102 41.5772L521.907 37.5178H519.274V41.5772H518.141V31.6664H522.968C524.321 31.6664 524.979 32.3247 524.979 33.6778V35.5064C524.979 36.7864 524.394 37.4812 523.151 37.5178L525.345 41.5772H524.102Z" fill="#D2DBDF"/>
<path d="M527.576 41.5772V31.6664H533.903V32.6904H528.71V35.9818H533.098V37.0424H528.71V40.5532H533.903V41.5772H527.576Z" fill="#D2DBDF"/>
<path d="M536.462 41.5772V31.6664H542.789V32.6904H537.596V35.9818H541.984V37.0424H537.596V40.5532H542.789V41.5772H536.462Z" fill="#D2DBDF"/>
<path d="M548.093 41.5772V32.6904H545.094V31.6664H552.262V32.6904H549.226V41.5772H548.093Z" fill="#D2DBDF"/>
</svg>
