<svg width="744" height="72" viewBox="0 0 744 72" fill="none" xmlns="http://www.w3.org/2000/svg">
<path fill-rule="evenodd" clip-rule="evenodd" d="M261.36 33.988C261.36 25.7759 255.639 20 247.619 20C237.408 20 230.565 27.4183 230.565 38.012C230.565 46.2789 236.341 52 244.498 52C251.916 52 257.446 48.414 259.718 42.6929H251.478C250.383 44.4722 248.057 45.5945 245.21 45.5945C240.83 45.5945 238.093 42.6929 237.846 38.5868H260.895C261.196 37.0265 261.36 35.6852 261.36 33.988ZM238.476 33.0299C239.215 29.2524 242.883 26.2412 247.318 26.2412C251.15 26.2412 254.052 29.0334 254.052 33.0299H238.476ZM208.419 51.2609L209.897 43.3773C214.414 44.2806 215.098 41.7349 216.275 35.6031L216.85 32.5646C218.493 23.9966 221.805 19.7263 231.276 20.876L229.798 28.7597C225.281 27.8563 224.487 31.2781 223.475 36.5886L222.9 39.6271C221.257 48.3046 217.836 52.4106 208.419 51.2609ZM202.943 20.7391L197.359 51.2883H204.75L210.307 20.7391H202.943ZM155.177 20.7391H162.321L164.648 42.8298L174.01 20.7391H181.1L183.591 43.0488L192.624 20.7391H199.741L186.794 51.2883H178.691L176.063 30.2652L167.112 51.2883H159.283L155.177 20.7391ZM120 36.9444L128.486 28.8418L123.723 20.7391H148.743L135.795 51.2883H131.497L142.939 24.2704H130.539L133.194 28.8418L128.623 33.4132H135.932L134.426 36.9444H120Z" fill="#D2DBDF"/>
<path fill-rule="evenodd" clip-rule="evenodd" d="M336.039 20H314.682C311.733 20 309.36 22.409 309.36 25.3213V46.6787C309.36 49.627 311.769 52 314.682 52H336.039C338.987 52 341.36 49.591 341.36 46.6787V25.3213C341.396 22.373 338.987 20 336.039 20ZM335.572 44.4854C335.572 45.4202 334.817 46.1753 333.882 46.1753H316.875C315.94 46.1753 315.185 45.4202 315.185 44.4854V27.5146C315.185 26.5798 315.94 25.8247 316.875 25.8247H333.846C334.781 25.8247 335.536 26.5798 335.536 27.5146V44.4854H335.572ZM329.747 39.3798C329.747 39.9191 329.315 40.3506 328.776 40.3506H321.981C321.441 40.3506 321.01 39.9191 321.01 39.3798V32.5843C321.01 32.0449 321.441 31.6135 321.981 31.6135H328.776C329.315 31.6135 329.747 32.0449 329.747 32.5843V39.3798ZM356.21 46.4989C354.304 46.4989 352.47 45.7798 351.212 44.4854C350.061 43.3348 349.414 41.8607 349.414 40.2787H351.32C351.32 41.3214 351.751 42.3281 352.542 43.1191C353.477 44.0539 354.807 44.5573 356.21 44.5573C358.906 44.5573 361.064 42.6877 361.064 40.3865C361.064 38.6607 360.093 37.2944 355.455 36.2157C353.549 35.7843 352.291 35.173 351.428 34.382C350.529 33.5191 350.061 32.3326 350.061 30.8225C350.061 27.8023 352.758 25.3573 356.066 25.3573C357.648 25.3573 359.158 25.8966 360.273 26.9034C361.459 27.9461 362.07 29.3124 362.07 30.7865H360.237C360.237 28.845 358.403 27.2629 356.138 27.2629C353.909 27.2629 352.039 28.8809 352.039 30.7865C352.039 32.5483 352.65 33.5551 355.922 34.3461C359.446 35.173 363.005 36.5034 363.041 40.3865C363.041 42.0405 362.322 43.5865 361.028 44.7371C359.733 45.8876 358.043 46.4989 356.21 46.4989ZM378.862 43.5506V51.9281H380.732V31.5416H378.862V34.0944H378.79C377.568 32.1529 375.41 31.1821 373.145 31.1821C368.867 31.1821 365.343 34.418 365.343 38.7686C365.343 43.1551 368.795 46.427 373.145 46.427C375.41 46.427 377.532 45.4562 378.79 43.5506H378.862ZM367.213 38.8765C367.213 35.4607 369.694 32.872 373.145 32.872C376.453 32.872 378.97 35.6045 378.97 38.8405C378.97 42.0765 376.453 44.7731 373.145 44.7731C369.765 44.7731 367.213 42.2922 367.213 38.8765ZM413.091 46.0675V43.5506H413.019C411.761 45.4562 409.604 46.427 407.374 46.427C403.024 46.427 399.572 43.1551 399.572 38.7686C399.572 34.418 403.096 31.1821 407.374 31.1821C409.676 31.1821 411.797 32.1529 413.019 34.0944H413.091V31.5416H414.961V46.0675H413.091ZM407.41 32.872C403.959 32.872 401.478 35.4607 401.478 38.8765C401.478 42.2922 404.031 44.7731 407.41 44.7731C410.718 44.7731 413.235 42.0765 413.235 38.8405C413.199 35.6045 410.682 32.872 407.41 32.872ZM420.532 46.1034V37.618C420.532 34.9933 422.114 33.3753 424.667 33.1596V31.1821C422.761 31.3259 421.359 31.7933 420.568 33.663H420.532V31.5776H418.662V46.1034H420.532ZM440.56 39.5236H427.329C427.473 42.4 430.133 44.773 432.974 44.773C435.203 44.773 437.396 43.5146 438.187 41.3573H440.165C439.122 44.3775 436.246 46.4629 433.01 46.4629C428.803 46.4629 425.459 43.0472 425.459 38.8764C425.459 34.7416 428.839 31.218 433.01 31.218C437.253 31.218 440.632 34.8135 440.632 39.0202C440.596 39.1641 440.56 39.3438 440.56 39.5236ZM433.01 32.8719C430.098 32.8719 427.796 34.9933 427.365 37.8337H438.691C438.187 34.9933 435.922 32.8719 433.01 32.8719ZM395.149 43.8741V46.1033H396.874V31.5055H395.005V39.2359C395.005 40.9617 394.789 42.3999 393.495 43.6224C392.596 44.4853 391.625 44.8089 390.402 44.8089C387.059 44.8089 385.98 42.5797 385.98 39.5595V31.5415H384.11V39.5954C384.11 41.2494 384.362 43.0112 385.405 44.3055C386.627 45.8156 388.533 46.4988 390.438 46.4988C392.38 46.4988 394.25 45.6718 395.113 43.8741H395.149Z" fill="#D2DBDF"/>
<path d="M493.41 34.7697V45.4343L488.632 45.3979L488.668 20.0174H496.026C497.443 20.0174 499.042 19.9084 500.168 20.2355C501.168 20.5261 502.167 21.1257 502.748 21.8524C503.838 23.2332 504.311 25.1771 504.311 27.1392C504.311 29.6101 503.693 31.9901 501.731 33.4072C499.751 34.8424 497.643 34.8061 493.41 34.7697ZM589.445 21.053H593.896V26.3035H595.768V29.5374H593.896V38.5123C593.896 39.2209 593.896 40.747 593.896 41.1648C593.896 42.2367 594.95 42.0732 595.786 42.0006C595.768 43.1633 595.786 44.3079 595.786 45.4706C593.46 45.6523 591.135 45.8703 590.008 44.3805C589.318 43.454 589.5 41.51 589.5 39.8931V29.5192L587.701 29.4829V26.2854H589.463L589.445 21.053ZM493.41 23.7419V31.0635C496.48 31.0998 498.515 31.2997 499.224 28.8652C499.387 28.2838 499.442 27.3028 499.387 26.5397C499.333 25.704 499.224 25.1408 498.806 24.6321C497.952 23.5057 495.499 23.76 493.41 23.7419ZM518.663 45.3979C518.082 45.3979 514.775 45.4161 514.503 45.3979C514.212 44.9256 514.194 44.1444 514.212 43.454C513.867 43.8537 513.013 45.3798 511.124 45.8158C510.415 45.9248 509.707 45.943 508.998 45.834C506.255 45.3071 505.455 43.89 505.201 40.9468C505.128 40.0566 505.165 38.9665 505.383 38.258C506.109 35.8961 508.144 34.8788 510.306 33.9522C511.578 33.4072 513.522 32.8621 513.903 31.5722C514.031 30.8818 513.994 29.9371 513.504 29.5374C513.013 29.1014 511.505 29.1377 510.669 29.3376C509.797 29.6464 509.398 30.8091 509.525 31.9901H505.292C505.255 28.629 506.4 26.9212 508.925 26.14C512.922 25.377 516.156 25.9583 517.464 27.7388C518.5 29.065 518.264 31.2088 518.264 33.607C518.264 36.9135 518.264 39.6387 518.264 42.9453C518.354 44.1807 518.554 44.7257 518.663 45.3979ZM539.066 45.4343H534.651V26.3217H539.066C539.084 26.9757 539.066 27.6661 539.066 28.302C539.084 28.2838 539.138 28.2475 539.175 28.2293C539.665 27.1574 540.592 26.358 541.718 26.0492C542.79 25.7221 544.08 25.7403 545.334 26.0855C546.605 26.576 547.332 27.4481 547.423 28.2838C547.441 28.2656 547.496 28.2475 547.532 28.2475C548.495 26.467 549.894 25.8493 551.874 25.813C556.434 25.9765 556.616 29.1922 556.598 30.1733L556.561 45.4524L552.147 45.4161V33.0983C552.147 31.2452 552.292 29.1922 550.057 29.1922C547.605 29.283 547.859 31.4632 547.859 34.2247C547.841 37.9673 547.841 41.6917 547.823 45.4343L543.408 45.3979V34.6244C543.408 33.1528 543.662 30.9908 543.081 30.0279C542.736 29.4466 541.827 29.0105 540.719 29.2104C538.939 29.5556 539.066 31.5904 539.066 33.6978V45.4343ZM571.786 36.7864H562.975C562.938 38.8212 562.702 41.4373 563.938 42.2367C564.428 42.4911 565.01 42.5819 565.555 42.4911C567.208 42.2004 567.353 40.856 567.317 38.9302H571.732C571.822 43.89 569.66 46.5789 563.683 45.8158C562.866 45.7068 562.012 45.4706 561.412 45.0891C558.306 43.0543 558.578 39.7477 558.578 34.7516C558.578 32.2262 558.396 30.1369 559.468 28.4292C560.468 26.8122 562.266 25.813 565.137 25.8312C566.899 25.8312 568.679 26.14 569.951 27.1392C572.04 28.8107 571.804 32.9893 571.786 36.7864ZM586.611 45.4343H582.196V33.4798C582.196 31.4632 582.342 29.5374 580.343 29.5192C577.945 29.5011 578.181 32.0264 578.199 34.0612L578.163 45.4161L573.748 45.3798V26.3035H578.199V28.2475L578.272 28.2111C579.235 25.1589 584.522 25.0318 585.993 27.6661C586.775 29.065 586.611 31.2997 586.611 33.4798V45.4343ZM623.964 32.1536H619.549C619.549 30.791 619.568 29.1559 617.569 29.1559C616.334 29.1559 615.662 29.8099 615.643 30.6638C615.607 30.9363 615.643 31.227 615.752 31.4814C616.188 32.3353 617.278 32.8803 618.023 33.389C618.696 33.8432 619.495 34.4246 620.294 34.9696C623.147 36.8954 623.964 38.1126 623.964 40.3473C623.964 41.8552 623.601 42.8908 623.328 43.3813C621.875 46.0156 617.206 46.2518 615.098 45.6341C612.664 44.9256 610.774 42.8181 611.156 39.0937H615.571C615.444 40.3836 615.462 41.6735 616.225 42.2549C616.515 42.4729 616.933 42.5274 617.478 42.5274C618.768 42.5274 619.913 41.8007 619.404 40.0929C619.095 39.0755 617.987 38.6577 617.206 38.1126C615.08 36.6229 612.518 35.2784 611.574 32.5896C611.12 31.3179 611.083 29.4284 611.755 28.2111C613.045 25.8857 617.769 25.1408 621.13 26.3762C622.656 26.9576 624.055 28.9015 623.964 32.1536ZM528.964 26.3217H533.488C532.162 31.7902 530.836 37.2587 529.51 42.7091C529.255 43.9082 528.855 45.3071 528.547 46.6879C528.165 48.3411 527.784 49.8672 527.075 50.6485C526.167 51.8112 524.586 52.2836 521.461 51.8294C521.479 50.6848 521.479 49.5402 521.497 48.4138C522.406 48.4501 523.841 48.65 524.077 47.9051C524.314 46.9967 523.133 42.8544 522.86 41.837C521.588 36.6774 520.335 31.5177 519.081 26.358V26.3217H523.75C524.059 27.9023 524.368 29.4829 524.677 31.0635C525.349 34.4609 525.985 37.9673 526.33 41.51L526.403 41.4737C526.512 39.8567 526.73 38.2398 527.075 36.6592C527.693 33.2073 528.329 29.7554 528.964 26.3217ZM596.985 26.3217H601.436V38.1671C601.436 40.2746 601.164 42.3457 602.98 42.5456C604.597 42.7273 604.979 41.4918 605.179 40.4199C605.197 39.9112 605.197 39.4207 605.215 38.912C605.233 34.7152 605.233 30.5366 605.251 26.3399H609.666V45.4524L605.433 45.4161V42.5819L605.36 42.6183C604.979 43.9445 604.179 45.0346 603.362 45.4343C601.091 46.5425 598.329 45.7976 597.603 44.3805C596.876 42.9634 596.985 40.6016 596.985 38.4942V26.3217ZM562.975 33.3708H567.39C567.39 31.1907 567.626 29.5374 565.845 29.2285C565.355 29.1377 564.501 29.1377 564.065 29.3194C562.848 29.8281 562.938 31.6085 562.975 33.3708ZM513.812 35.3875C512.741 36.5865 510.433 36.9135 509.797 38.5123C509.271 39.8204 509.598 41.946 510.651 42.3639C513.504 43.5267 513.885 40.4926 513.885 38.1308C513.885 37.6766 514.012 35.6055 513.812 35.3875Z" fill="#D2DBDF"/>
</svg>
