<svg xmlns="http://www.w3.org/2000/svg" viewBox="0 0 24 24"><defs><style>.cls-1{fill:#cdd8dd;}.cls-2{fill:#572dd1;opacity:0.8;}.cls-3{fill:#fff;}</style></defs><g id="Layer_2" data-name="Layer 2"><ellipse class="cls-1" cx="5.84" cy="19.12" rx="4.84" ry="4.88"/><path class="cls-2" d="M22.72,3a29.3,29.3,0,0,1-6.85-1.48A26.85,26.85,0,0,1,12.35,0a.37.37,0,0,0-.29,0A25.74,25.74,0,0,1,8.54,1.51,29.34,29.34,0,0,1,1.7,3a.3.3,0,0,0-.28.31A25.62,25.62,0,0,0,4.59,14.62,28.18,28.18,0,0,0,12,23.23a.32.32,0,0,0,.39,0,28,28,0,0,0,7.42-8.61A25.67,25.67,0,0,0,23,3.3.31.31,0,0,0,22.72,3Z"/><polygon class="cls-3" points="11.27 14.89 7.96 11.61 9.35 10.3 11.21 12.07 16.56 6.9 18.02 8.32 11.27 14.89"/></g></svg>