<svg viewBox="0 0 24 24" xmlns="http://www.w3.org/2000/svg"><ellipse cx="18.36" cy="5.64" fill="#cdd8dd" rx="5.64" ry="5.63"/><path d="m17 8.11h-.11a7 7 0 0 0 -7.1-6.61 7.07 7.07 0 0 0 -7.11 6.61h-.09a2.56 2.56 0 0 0 -2.59 2.53v10.83a2.57 2.57 0 0 0 2.59 2.53h14.41a2.58 2.58 0 0 0 2.59-2.53v-10.83a2.57 2.57 0 0 0 -2.59-2.53zm-12.6 0a5.35 5.35 0 0 1 5.39-4.93 5.33 5.33 0 0 1 5.37 4.93z" fill="#572dd1" opacity=".8"/><ellipse cx="9.78" cy="16.35" fill="#fff" rx="5.57" ry="5.56"/><g fill="#572dd1" opacity=".85" stroke="#572dd1" stroke-miterlimit="10" stroke-width=".23"><path d="m8.24 19a3.25 3.25 0 0 1 -.39-1.59 1.88 1.88 0 0 1 1.93-1.82 1.89 1.89 0 0 1 1.94 1.82.21.21 0 1 0 .41 0 2.29 2.29 0 0 0 -2.35-2.23 2.29 2.29 0 0 0 -2.34 2.23 3.66 3.66 0 0 0 .44 1.8 4.24 4.24 0 0 0 .83 1.09.2.2 0 0 0 .15.06.2.2 0 0 0 .14-.02.21.21 0 0 0 0-.29 3.71 3.71 0 0 1 -.76-1.05z"/><path d="m7.48 13.21a4.8 4.8 0 0 1 4.61 0h.1a.2.2 0 0 0 .18-.11.2.2 0 0 0 -.09-.28 5.28 5.28 0 0 0 -5 0 .22.22 0 0 0 -.08.29.21.21 0 0 0 .28.1z"/><path d="m9.77 14.21a3.45 3.45 0 0 0 -3.11 1.9 3 3 0 0 0 -.28 1.34 4.7 4.7 0 0 0 .3 1.64.21.21 0 0 0 .27.12.22.22 0 0 0 .12-.27 4.08 4.08 0 0 1 -.28-1.49 2.54 2.54 0 0 1 .21-1.16 3 3 0 0 1 2.73-1.67 2.92 2.92 0 0 1 3 2.83.86.86 0 0 1 -1.72 0 1.28 1.28 0 0 0 -2.55 0 3 3 0 0 0 .9 2.16 3.07 3.07 0 0 0 1.53.87h.11a.21.21 0 0 0 .2-.15.22.22 0 0 0 -.15-.26 2.78 2.78 0 0 1 -1.35-.76 2.63 2.63 0 0 1 -.78-1.87.86.86 0 0 1 1.72 0 1.28 1.28 0 0 0 2.55 0 3.33 3.33 0 0 0 -3.42-3.23z"/><path d="m13.47 15.07a4.28 4.28 0 0 0 -1.55-1.35 4.76 4.76 0 0 0 -4.27 0 4.28 4.28 0 0 0 -1.55 1.36.2.2 0 0 0 .05.29.25.25 0 0 0 .12 0 .22.22 0 0 0 .17-.09 3.94 3.94 0 0 1 1.4-1.23 4.36 4.36 0 0 1 3.89 0 4 4 0 0 1 1.41 1.22.19.19 0 0 0 .28 0 .19.19 0 0 0 .05-.2z"/><path d="m12.25 19.18a2.53 2.53 0 0 1 -.43 0 1.79 1.79 0 0 1 -1.82-1.73.21.21 0 0 0 -.21-.21.22.22 0 0 0 -.21.21 2.21 2.21 0 0 0 1 1.82 2.26 2.26 0 0 0 1.28.36 3.21 3.21 0 0 0 .51 0 .21.21 0 0 0 -.08-.41z"/></g></svg>