<svg viewBox="0 0 24 24" xmlns="http://www.w3.org/2000/svg"><ellipse cx="19.17" cy="4.88" fill="#cdd8dd" rx="4.84" ry="4.89"/><path d="m19 13.52a3.65 3.65 0 0 1 1.9-3.21.08.08 0 0 0 0-.09 12.39 12.39 0 0 0 -.72-1.73.08.08 0 0 0 -.09 0 3.35 3.35 0 0 1 -1.09.15 3.64 3.64 0 0 1 -3.48-4.8.08.08 0 0 0 0-.09 10.48 10.48 0 0 0 -1.73-.75.09.09 0 0 0 -.09 0 3.66 3.66 0 0 1 -3.21 2 3.64 3.64 0 0 1 -3.23-2 11.07 11.07 0 0 0 -1.85.76 3.46 3.46 0 0 1 .2 1.24 3.67 3.67 0 0 1 -3.61 3.64 3.61 3.61 0 0 1 -1.18-.18.07.07 0 0 0 -.1 0 10.74 10.74 0 0 0 -.72 1.76s0 .08 0 .09a3.67 3.67 0 0 1 2 3.21 3.64 3.64 0 0 1 -1.9 3.2.08.08 0 0 0 0 .1 10.37 10.37 0 0 0 .71 1.72.08.08 0 0 0 .1 0 3.57 3.57 0 0 1 3.37.62 3.39 3.39 0 0 1 1.37 2.19 3.65 3.65 0 0 1 -.13 1.8.08.08 0 0 0 0 .1 10.74 10.74 0 0 0 1.67.75.08.08 0 0 0 .1 0 3.66 3.66 0 0 1 6.41 0 .07.07 0 0 0 .09 0 11.24 11.24 0 0 0 1.73-.71.1.1 0 0 0 0-.1 3.45 3.45 0 0 1 .27-2.83 3.75 3.75 0 0 1 1.52-1.51 3.47 3.47 0 0 1 2.82-.27.08.08 0 0 0 .1 0 12.42 12.42 0 0 0 .77-1.76.1.1 0 0 0 0-.1 3.64 3.64 0 0 1 -2-3.2zm-7.81 3.59a3.66 3.66 0 1 1 2.86-2.89 3.67 3.67 0 0 1 -2.82 2.89zm-.13-6a2.45 2.45 0 0 0 -3 3 2.41 2.41 0 0 0 1.76 1.75 2.44 2.44 0 1 0 1.21-4.73z" fill="#5e2ad8" opacity=".85"/></svg>