<svg viewBox="0 0 24 24" xmlns="http://www.w3.org/2000/svg"><path d="m24 5.45v12.33a.58.58 0 0 1 -.58.57h-20.31a.58.58 0 0 1 -.57-.57v-12.33a.58.58 0 0 1 .58-.57h20.3a.58.58 0 0 1 .58.57z" fill="#572dd1" opacity=".85"/><path d="m21.46 7.74v12.33a.57.57 0 0 1 -.57.56h-20.31a.57.57 0 0 1 -.58-.56v-12.33a.58.58 0 0 1 .58-.57h20.31a.58.58 0 0 1 .57.57z" fill="#cdd8dd"/><g fill="#fff"><path d="m8.84 15.63h-6.84s.08-.75.34-.93a17.76 17.76 0 0 1 2-.76.27.27 0 0 0 .17-.25v-.53a.11.11 0 0 0 0-.08 1.64 1.64 0 0 1 -.35-.88h-.1s-.21-.18-.19-.81c0-.15.06-.21.14-.21s0 0 0 0c0-.32-.06-.56-.06-.56h.05a1.52 1.52 0 0 1 .28-.84 1.57 1.57 0 0 1 2.42 0 1.37 1.37 0 0 1 .28.88s0 .24-.06.56c.07 0 .12.06.13.21 0 .63-.15.77-.19.81h-.1a1.64 1.64 0 0 1 -.35.88.11.11 0 0 0 0 .08v.53a.27.27 0 0 0 .18.25c.8.27 1.45.28 2 .76a1.2 1.2 0 0 1 .25.89z"/><rect height="1.26" rx=".17" width="8.49" x="10.73" y="9.19"/><rect height="1.26" rx=".16" width="6.94" x="10.73" y="11.69"/><rect height="1.26" rx=".17" width="8.49" x="10.73" y="14.19"/></g><rect fill="#572dd1" height="1.26" opacity=".85" rx=".12" width="17.38" x="2.04" y="17.47"/></svg>