<svg id="Layer_1" data-name="Layer 1" xmlns="http://www.w3.org/2000/svg" viewBox="0 0 32 32"><defs><style>.cls-1,.cls-2{fill:#fff;}.cls-1{opacity:0.4;}</style></defs><path class="cls-1" d="M28.32,1.51V22.76l-9,9H5a1.33,1.33,0,0,1-1.32-1.32v-29A1.32,1.32,0,0,1,5,.19H27A1.32,1.32,0,0,1,28.32,1.51Z"/><path class="cls-1" d="M19.29,31.81V24.08a1.33,1.33,0,0,1,1.32-1.32h7.71Z"/><rect class="cls-2" x="6.67" y="5.24" width="18.66" height="1.62" rx="0.2"/><rect class="cls-2" x="6.67" y="10.36" width="13.32" height="1.62" rx="0.21"/><rect class="cls-2" x="6.67" y="13.97" width="18.66" height="1.62" rx="0.25"/><rect class="cls-2" x="6.67" y="17.59" width="18.66" height="1.62" rx="0.25"/></svg>