<svg xmlns="http://www.w3.org/2000/svg" viewBox="0 0 24 24"><defs><style>.cls-1{fill:#572dd1;opacity:0.8;}.cls-2{fill:#cdd8dd;}.cls-3{fill:#fff;}</style></defs><g id="Layer_9" data-name="Layer 9"><rect class="cls-1" x="2.09" y="0.56" width="19.9" height="16.31" rx="1.12"/><rect class="cls-2" x="1.39" y="3.35" width="21.3" height="20.22" rx="1.29"/><rect class="cls-3" x="6.9" y="8.02" width="10.79" height="1.6" rx="0.28"/><rect class="cls-3" x="6.9" y="10.65" width="8.71" height="1.6" rx="0.25"/><path class="cls-1" d="M24,16.57v5.94a1,1,0,0,1-1.05,1H1.06A1.07,1.07,0,0,1,0,22.49V16.57A1.07,1.07,0,0,1,1.06,15.5H6.52a2.19,2.19,0,0,1,1.88,1,4.19,4.19,0,0,0,7.2,0,2.19,2.19,0,0,1,1.88-1h5.46A1.07,1.07,0,0,1,24,16.57Z"/></g></svg>