<svg xmlns="http://www.w3.org/2000/svg" viewBox="0 0 24 24"><defs><style>.cls-1{fill:#572dd1;opacity:0.8;}.cls-2{fill:#cdd8dd;}.cls-3{fill:#fff;}</style></defs><g id="Layer_9" data-name="Layer 9"><path class="cls-1" d="M21.39,5V22.76a1.14,1.14,0,0,1-1.15,1.14H4.7a1.15,1.15,0,0,1-1.14-1.14V1.25A1.15,1.15,0,0,1,4.7.11H16.55V4A1.07,1.07,0,0,0,17.63,5Z"/><path class="cls-2" d="M21.39,5V20.58a1.15,1.15,0,0,1-1.15,1.15H4.7a1.15,1.15,0,0,1-1.14-1.15V1.25A1.15,1.15,0,0,1,4.7.11H16.55V4A1.07,1.07,0,0,0,17.63,5Z"/><path class="cls-1" d="M21.39,5H17.63A1.07,1.07,0,0,1,16.55,4V.11Z"/><rect class="cls-3" x="8.79" y="6.8" width="10.02" height="1.37" rx="0.25"/><circle class="cls-3" cx="6.85" cy="7.49" r="0.68"/><rect class="cls-3" x="8.79" y="10.1" width="10.02" height="1.37" rx="0.25"/><circle class="cls-3" cx="6.85" cy="10.79" r="0.68"/><rect class="cls-3" x="8.79" y="13.41" width="6.92" height="1.37" rx="0.21"/><circle class="cls-3" cx="6.85" cy="14.09" r="0.68"/><rect class="cls-3" x="8.77" y="16.71" width="8.54" height="1.37" rx="0.23"/><circle class="cls-3" cx="6.82" cy="17.39" r="0.68"/></g></svg>