<svg id="Layer_1" data-name="Layer 1" xmlns="http://www.w3.org/2000/svg" viewBox="0 0 24 24"><defs><style>.cls-1{fill:#cdd8dd;}.cls-2{fill:#572dd1;opacity:0.8;}.cls-3{fill:#fff;}</style></defs><ellipse class="cls-1" cx="5.97" cy="19.12" rx="4.84" ry="4.88"/><path class="cls-2" d="M22.85,3A29.34,29.34,0,0,1,16,1.51,26.28,26.28,0,0,1,12.49,0a.37.37,0,0,0-.29,0A26.28,26.28,0,0,1,8.68,1.51,29.3,29.3,0,0,1,1.83,3a.31.31,0,0,0-.28.31A25.67,25.67,0,0,0,4.73,14.62a28,28,0,0,0,7.42,8.61.32.32,0,0,0,.39,0A28.18,28.18,0,0,0,20,14.62,25.8,25.8,0,0,0,23.14,3.3.31.31,0,0,0,22.85,3Z"/><polygon class="cls-3" points="11.41 14.89 8.1 11.61 9.48 10.3 11.35 12.07 16.69 6.9 18.16 8.32 11.41 14.89"/></svg>