<svg xmlns="http://www.w3.org/2000/svg" viewBox="0 0 24 24"><defs><style>.cls-1{fill:#cdd8dd;}.cls-2{fill:#572dd1;opacity:0.8;}</style></defs><g id="Layer_2" data-name="Layer 2"><ellipse class="cls-1" cx="19.16" cy="4.88" rx="4.84" ry="4.88"/></g><g id="Layer_9" data-name="Layer 9"><path class="cls-2" d="M24,14.3a2.9,2.9,0,0,1-2.89,2.89H19.4V24H12.67V22.22a2.89,2.89,0,0,0-5.78,0V24H0V17.19H1.88a2.89,2.89,0,0,0,0-5.78H0V4.6H6.89V2.89A2.9,2.9,0,0,1,9.78,0a2.84,2.84,0,0,1,2,.85,2.9,2.9,0,0,1,.85,2V4.6H19.4v6.81h1.72A2.9,2.9,0,0,1,24,14.3Z"/></g></svg>