<svg height="140" viewBox="0 0 400 140" width="400" xmlns="http://www.w3.org/2000/svg" xmlns:xlink="http://www.w3.org/1999/xlink"><mask id="a" fill="#fff"><path d="m0 0h33.0334914v53h-33.0334914z" fill="#fff" fill-rule="evenodd"/></mask><mask id="b" fill="#fff"><path d="m0 .03490702h59v71.96082358h-59z" fill="#fff" fill-rule="evenodd"/></mask><mask id="c" fill="#fff"><path d="m0 0h59v73.5581765h-59z" fill="#fff" fill-rule="evenodd"/></mask><g fill="none" fill-rule="nonzero" transform="translate(30 22)"><path d="m252.635764 73c-11.639044 0-18.871392-6.7203758-18.871392-17.5527622 0-11.2422725 6.673814-18.2366361 17.420085-18.2366361h.901569c1.347957 0 3.203871.043838 5.739261.3594721v-13.5700738h7.590776v47.7769179s-7.212557 1.2230821-12.780299 1.2230821m-.068168-29.831805c-7.353289 0-10.928783 3.9563856-10.928783 12.0905391 0 7.303422 4.314341 11.8428539 11.245432 11.8428539 1.332564 0 2.858636-.0876761 4.938843-.2652203v-23.1815701c-2.078008-.3331693-3.753608-.4866026-5.255492-.4866026m-103.909199 28.7358533-20.505212-35.6688436-.006596 35.6688436h-7.146589v-45.1554015h10.005224l20.505212 35.3510177-.008796-35.3510177h7.241144v45.1554015zm65.315422.6948334c-3.452352 0-7.052034-.385775-11.337788-1.2077388l-.463978-.0876761v-6.3082979l.677276.1446656c3.779996.8044285 7.043238 1.4904943 10.30868 1.4904943 2.636541 0 8.778209-.4120778 8.778209-4.2807873 0-3.244017-4.243974-4.0594051-7.652347-4.7104004l-.215497-.043838c-.637696-.1183628-1.238009-.2389175-1.743768-.3660479-5.000413-1.293223-10.335066-3.2374413-10.335066-9.9161709 0-6.5143368 5.171931-10.2471483 14.192025-10.2471483 4.329733 0 7.472034.4602997 9.998627.8373071l1.227015.1797361v6.1219861l-.653089-.1183628c-2.858635-.5238649-6.209835-1.0630731-9.431298-1.0630731-3.58209 0-7.832661.6685305-7.832661 3.8445985 0 2.6368598 3.47874 3.3908746 7.507217 4.265444 5.633711 1.2143145 12.617577 2.7398792 12.617577 10.4027734 0 7.0294342-5.695282 11.0625364-15.641134 11.0625364m72.752272 0c-7.85685 0-15.133176-1.3808991-15.133176-11.3803624 0-10.8828002 11.252029-10.8828002 17.978618-10.8828002.668481 0 3.830571.1468575 4.800308.1885037-.008796-6.1044509-.085759-7.5598748-8.967319-7.5598748-3.52052 0-7.430253.6926415-10.882605 1.3107582l-.659685.1183628v-6.0277343l.444187-.0942518c4.00209-.8110043 7.861248-1.2055469 11.79517-1.2055469 8.606692 0 15.898411.86361 15.898411 11.5074928v23.2122567l-.52335.0591814c-5.961355.6663386-10.693496.7540148-14.74836.7540148m2.654133-16.877656c-6.486904 0-10.506585.951286-10.506585 5.6857973 0 5.4797585 5.127952 5.9334825 9.939256 5.9334825 1.794343 0 5.024601-.2301499 6.01193-.3002908v-11.1304853c-1.389737-.0591814-5.00701-.1885037-5.444601-.1885037m-109.166889 16.877656c-7.867845 0-15.141972-1.3808991-15.141972-11.3803624 0-10.8828002 11.252028-10.8828002 17.976419-10.8828002.670679 0 3.839367.1468575 4.811303.1885037-.008796-6.1044509-.094555-7.5598748-8.976115-7.5598748-3.522719 0-7.432453.6926415-10.884805 1.3107582l-.659685.1183628v-6.0277343l.455183-.0942518c3.877613-.7992207 7.826735-1.2031492 11.786374-1.2055469 8.604493 0 15.898411.86361 15.898411 11.5074928v23.2122567l-.525549.0591814c-5.959156.6663386-10.693496.7540148-14.739564.7540148m2.645337-16.877656c-6.484705 0-10.49559.951286-10.49559 5.6857973 0 5.4797585 5.119156 5.9334825 9.93046 5.9334825 1.803139 0 5.033397-.2301499 6.020726-.3002908v-11.1304853c-1.400732-.0591814-5.015806-.1885037-5.453397-.1885037" fill="#231f20"/><path d="m25.2625862 52.6201667v-14.9239167c-2.9610776.4151667-4.5328448.4151667-5.8034483.4151667-3.0072413 0-6.3464224-.655875-8.9315948-1.7512084-5.78806034-2.418125-9.23935344-8.5572916-9.23935344-16.4344166 0-3.9308334.95405172-11.11895837 7.33344827-14.99237503 3.20288797-1.92125 6.98172417-2.74275 12.66646547-2.74275 2.0334052 0 4.78125.15458333 7.434569.30916666l4.310819.22525v46.43683337zm-4.5416379-44.42504262c-7.7115517-.00220741-11.62008623 3.95070922-11.62008623 11.73066762 0 10.017 5.82982763 12.1215416 10.73198273 12.1215416 1.1936638 0 2.5346121 0 5.5044828-.3798333v-23.25595833c-2.3257759-.15458334-3.4007328-.21641759-4.6185776-.21641759z" fill="#231f20" mask="url(#a)" transform="translate(306 35)"/><g fill="#0996c7"><path d="m30.6188148.03490702-24.95044443 68.43957778c-.62949311 1.71945-2.18770723 2.9286078-4.012 3.1132699v.0327254h26.37518523c2.065 0 3.8328148-1.311195 4.4905555-3.1438136l24.9591852-68.44175948z" mask="url(#b)" transform="translate(57)"/><path d="m56.5410164 70c1.5321659 0 2.8739056-.7663806 3.6947088-1.9269626.0853635-.1211234.3852303-.543954.5975447-1.1187394l9.1667301-25.3522211-5.3625809-14.8056794c-.6360917-1.5267906-2.0448669-2.5866106-3.6802882-2.768677-1.6354214-.1820664-3.240402.5422416-4.1928561 1.8921843-.0875523.1211233-.4443281.6606729-.5975447 1.1187394l-9.1667301 25.3434121 5.3866578 14.86514c.7141908 1.6699458 2.3474643 2.7522023 4.1543586 2.7528037"/><path d="m58.2745185 2.14164706h-26.6658148c-2.065 0-3.8328148 1.30152941-4.4992963 3.13847059l-24.95044444 68.27588235h26.86248144l24.9526297-68.27370588c.6621311-1.81677159 2.3615015-3.05439441 4.3004444-3.13194118z" mask="url(#c)" transform="translate(0 22)"/></g></g></svg>