<svg id="Layer_1" data-name="Layer 1" xmlns="http://www.w3.org/2000/svg" xmlns:xlink="http://www.w3.org/1999/xlink" viewBox="0 0 80 80"><defs><style>.cls-1,.cls-10{fill:#fff;}.cls-2{opacity:0.6;}.cls-3{fill:url(#linear-gradient);}.cls-4{fill:#cdd8dd;}.cls-5{opacity:0.8;}.cls-6{fill:url(#linear-gradient-2);}.cls-7{fill:url(#linear-gradient-3);}.cls-8{fill:#6926ff;}.cls-9{fill:url(#radial-gradient);}.cls-10{opacity:0.6;}.cls-11{opacity:0.5;}.cls-12,.cls-13{fill:#651fff;}.cls-13{opacity:0.3;}.cls-14{fill:url(#linear-gradient-4);}.cls-15{fill:url(#linear-gradient-5);}.cls-16{fill:url(#linear-gradient-6);}.cls-17{fill:url(#radial-gradient-2);}.cls-18{fill:url(#linear-gradient-7);}.cls-19{fill:url(#linear-gradient-8);}.cls-20{fill:url(#linear-gradient-9);}.cls-21{fill:url(#radial-gradient-3);}</style><linearGradient id="linear-gradient" x1="11.61" y1="52.03" x2="68.37" y2="52.03" gradientUnits="userSpaceOnUse"><stop offset="0" stop-color="#587e8d" stop-opacity="0"/><stop offset="0.4" stop-color="#587e8d" stop-opacity="0"/><stop offset="0.5" stop-color="#587e8d" stop-opacity="0.11"/><stop offset="0.7" stop-color="#587e8d" stop-opacity="0.32"/><stop offset="0.88" stop-color="#587e8d" stop-opacity="0.45"/><stop offset="1" stop-color="#587e8d" stop-opacity="0.5"/></linearGradient><linearGradient id="linear-gradient-2" x1="79.48" y1="66.75" x2="2.74" y2="64.66" gradientUnits="userSpaceOnUse"><stop offset="0" stop-color="#587e8d" stop-opacity="0.5"/><stop offset="0.12" stop-color="#587e8d" stop-opacity="0.45"/><stop offset="0.3" stop-color="#587e8d" stop-opacity="0.32"/><stop offset="0.5" stop-color="#587e8d" stop-opacity="0.11"/><stop offset="0.6" stop-color="#587e8d" stop-opacity="0"/><stop offset="1" stop-color="#587e8d" stop-opacity="0"/></linearGradient><linearGradient id="linear-gradient-3" x1="79.41" y1="66.75" x2="2.68" y2="64.66" gradientUnits="userSpaceOnUse"><stop offset="0.57" stop-color="#fff" stop-opacity="0"/><stop offset="0.79" stop-color="#fff" stop-opacity="0.3"/><stop offset="0.87" stop-color="#fff" stop-opacity="0.42"/><stop offset="1" stop-color="#fff" stop-opacity="0.6"/></linearGradient><radialGradient id="radial-gradient" cx="75.78" cy="30.74" r="81.63" xlink:href="#linear-gradient-3"/><linearGradient id="linear-gradient-4" x1="11.6" y1="33.47" x2="68.37" y2="33.47" xlink:href="#linear-gradient"/><linearGradient id="linear-gradient-5" x1="79.48" y1="48.18" x2="2.74" y2="46.1" xlink:href="#linear-gradient-2"/><linearGradient id="linear-gradient-6" x1="79.41" y1="48.19" x2="2.68" y2="46.1" xlink:href="#linear-gradient-3"/><radialGradient id="radial-gradient-2" cx="75.77" cy="12.18" r="81.63" xlink:href="#linear-gradient-3"/><linearGradient id="linear-gradient-7" x1="11.57" y1="14.8" x2="68.34" y2="14.8" xlink:href="#linear-gradient"/><linearGradient id="linear-gradient-8" x1="79.45" y1="29.52" x2="2.71" y2="27.43" xlink:href="#linear-gradient-2"/><linearGradient id="linear-gradient-9" x1="79.38" y1="29.52" x2="2.64" y2="27.44" xlink:href="#linear-gradient-3"/><radialGradient id="radial-gradient-3" cx="75.74" cy="-6.49" r="81.63" xlink:href="#linear-gradient-3"/></defs><path class="cls-1" d="M60,41.63c11.12,5.75,11.18,15.06.13,20.8s-29,5.75-40.14,0-11.17-15-.13-20.79S48.87,35.89,60,41.63Z"/><g class="cls-2"><path class="cls-3" d="M60,41.63c11.12,5.75,11.18,15.06.13,20.8s-29,5.75-40.14,0-11.17-15-.13-20.79S48.87,35.89,60,41.63Z"/></g><path class="cls-4" d="M68.37,52.11l0,13.25c0,2.56-1.3,5.12-3.88,7.4a21.85,21.85,0,0,1-4.37,2.93c-.16.09-.33.17-.5.25-11.08,5.49-28.68,5.41-39.64-.25C14.35,72.8,11.55,69,11.56,65.22l0-13.23a9.71,9.71,0,0,0,3.27,6.87l.33.32c.29.26.59.52.92.78.12.1.25.21.39.31l.41.3A23.7,23.7,0,0,0,20,62.43c10.93,5.64,28.46,5.74,39.55.3l.59-.3,1-.54.48-.28.46-.29L62.5,61l.21-.15c.22-.14.42-.29.62-.44.38-.28.74-.57,1.08-.86a12.85,12.85,0,0,0,3-3.66l0-.1.12-.24.08-.17s0-.11.07-.17a8.49,8.49,0,0,0,.46-1.43l0-.15a.09.09,0,0,1,0,0c0-.09,0-.18,0-.28a1,1,0,0,0,0-.17c0-.12,0-.24,0-.35s0-.29,0-.43a.49.49,0,0,0,0-.12Z"/><g class="cls-5"><path class="cls-6" d="M68.44,52.11l0,13.25c0,2.56-1.29,5.12-3.87,7.4a21.85,21.85,0,0,1-4.37,2.93l-.5.25C48.57,81.43,31,81.35,20,75.69c-5.6-2.89-8.39-6.68-8.38-10.47l0-13.23A9.69,9.69,0,0,0,15,58.86l.33.32c.29.26.59.52.91.78l.39.31.41.3a24.56,24.56,0,0,0,3.06,1.86c10.92,5.64,28.46,5.74,39.55.3l.59-.3,1-.54.47-.28.46-.29.44-.29.22-.15.62-.44c.38-.28.74-.57,1.07-.86a12.68,12.68,0,0,0,3-3.66l.06-.1a2.56,2.56,0,0,0,.11-.24.89.89,0,0,0,.08-.17s0-.11.08-.17a8.49,8.49,0,0,0,.46-1.43l0-.15a.09.09,0,0,0,0,0l.06-.28c0-.06,0-.11,0-.17s0-.24,0-.35a3.22,3.22,0,0,0,0-.43v-.12A.76.76,0,0,0,68.44,52.11Z"/></g><path class="cls-7" d="M68.37,52.11l0,13.26c0,2.56-1.3,5.12-3.87,7.39a21.8,21.8,0,0,1-4.38,2.93l-.5.26c-11.08,5.48-28.68,5.4-39.64-.26C14.35,72.8,11.55,69,11.57,65.22l0-13.23a9.7,9.7,0,0,0,3.27,6.87l.34.32a12,12,0,0,0,.91.79l.39.3.41.31A24.88,24.88,0,0,0,20,62.44c10.93,5.64,28.46,5.74,39.55.3l.59-.3c.35-.18.68-.37,1-.55l.48-.28.46-.29L62.5,61l.22-.15.61-.44q.57-.44,1.08-.87a12.68,12.68,0,0,0,3-3.65.54.54,0,0,0,0-.11l.12-.23a.89.89,0,0,1,.08-.17l.07-.18a7.58,7.58,0,0,0,.46-1.42l0-.16a.06.06,0,0,1,0,0c0-.1,0-.19,0-.28a1.1,1.1,0,0,0,0-.18c0-.12,0-.23,0-.35s0-.29,0-.43a.49.49,0,0,0,0-.12Z"/><path class="cls-8" d="M58.33,41.28c10.2,5.27,10.26,13.81.13,19.07s-26.62,5.27-36.82,0-10.25-13.8-.12-19.07S48.14,36,58.33,41.28Z"/><g class="cls-5"><path class="cls-9" d="M58.33,41.28c10.2,5.27,10.26,13.81.13,19.07s-26.62,5.27-36.82,0-10.25-13.8-.12-19.07S48.14,36,58.33,41.28Z"/></g><g class="cls-5"><g class="cls-5"><path class="cls-1" d="M24.93,64.48V77.75a35,35,0,0,1-5.14-2.14,21.5,21.5,0,0,1-4.37-3V59.44l0,0v0h0a.87.87,0,0,0,.14.12l.34.3c.31.25.56.44.79.61l.43.31.08.05,0,0c.25.18.53.36.81.54l.09.05c.5.31,1,.62,1.6.91l.26.14.23.12.57.28.23.1h.05l.08,0,.23.11.23.1.24.11h0l.05,0,.09,0,.15.06q1.07.47,2.46.93Z"/></g><path class="cls-10" d="M26.63,62.37l-.83,1-.87,1.09-.22-.07q-1.39-.47-2.46-.93l-.15-.06-.09,0-.09,0-.24-.11-.23-.1L21.22,63l-.08,0h-.05l-.23-.1-.57-.28-.23-.12-.26-.14c-.57-.29-1.1-.6-1.6-.91l-.09-.05c-.28-.18-.56-.36-.81-.54l0,0-.08-.05-.43-.31c-.23-.17-.48-.36-.79-.61l-.34-.3a.87.87,0,0,1-.14-.12h0v0l1.71-2.11c.32.29.77.69,1.35,1.13a21.22,21.22,0,0,0,4.25,2.51A26.62,26.62,0,0,0,26.63,62.37Z"/></g><g class="cls-11"><path class="cls-12" d="M64.45,59.63V72.76a21.85,21.85,0,0,1-4.37,2.93c-.16.09-.33.17-.5.25l0-13.19.24-.12L60,62.5a26.86,26.86,0,0,0,2.63-1.56l.43-.3.8-.61.35-.29.17-.15Z"/></g><path class="cls-13" d="M64.41,59.58l0,0-.21.18c-.28.24-.58.47-.9.71l-.42.3c-.18.13-.37.26-.57.38l-.31.21-.47.28L61,62h0l-.75.41L60,62.5l-.48.24-1.63-2.08.48-.24a19.4,19.4,0,0,0,4.32-2.94Z"/><polyline class="cls-1" points="39.9 68.25 39.91 68.26 40.01 68.39 40.03 68.42"/><polyline class="cls-1" points="40 56.67 39.94 56.58 39.93 56.58"/><path class="cls-1" d="M60,23.07c11.12,5.74,11.18,15,.13,20.8s-29,5.74-40.14,0S8.8,28.81,19.85,23.07,48.87,17.33,60,23.07Z"/><g class="cls-2"><path class="cls-14" d="M60,23.07c11.12,5.74,11.18,15,.13,20.8s-29,5.74-40.14,0S8.8,28.81,19.85,23.07,48.87,17.33,60,23.07Z"/></g><path class="cls-4" d="M68.37,33.54l0,13.26c0,2.56-1.3,5.12-3.88,7.39a21.44,21.44,0,0,1-4.37,2.93l-.5.26c-11.08,5.49-28.68,5.4-39.64-.26-5.59-2.89-8.39-6.68-8.38-10.47l0-13.23a9.71,9.71,0,0,0,3.28,6.87l.33.32c.29.27.59.53.91.79l.4.3.41.31A24.88,24.88,0,0,0,20,43.87c10.93,5.64,28.46,5.74,39.55.3l.59-.3c.35-.18.68-.36,1-.55L61.6,43l.45-.28.44-.29.22-.15.62-.44c.38-.29.74-.57,1.08-.87a12.68,12.68,0,0,0,3-3.65l0-.11.12-.23c0-.06,0-.11.07-.17l.08-.17a8.79,8.79,0,0,0,.46-1.43l0-.15a.07.07,0,0,1,0-.05,2.33,2.33,0,0,1,0-.28,1.1,1.1,0,0,0,0-.18c0-.11,0-.23,0-.35a3.11,3.11,0,0,0,0-.43.49.49,0,0,0,0-.12Z"/><g class="cls-5"><path class="cls-15" d="M68.44,33.54l0,13.26c0,2.56-1.29,5.12-3.87,7.39a21.44,21.44,0,0,1-4.37,2.93l-.5.26C48.57,62.87,31,62.78,20,57.12c-5.6-2.89-8.39-6.68-8.38-10.47l0-13.23a9.7,9.7,0,0,0,3.27,6.87l.34.32c.29.27.59.53.91.79l.39.3L17,42a25.82,25.82,0,0,0,3.06,1.86c10.92,5.64,28.46,5.74,39.54.3l.6-.3c.34-.18.68-.36,1-.55l.47-.28.46-.28.44-.29.22-.15.62-.44c.38-.29.74-.57,1.07-.87a12.52,12.52,0,0,0,3-3.65l.06-.11a2.4,2.4,0,0,0,.11-.23,1.3,1.3,0,0,0,.08-.17c0-.06,0-.12.08-.17a8.79,8.79,0,0,0,.46-1.43l0-.15a.11.11,0,0,0,0-.05c0-.1,0-.19,0-.28l0-.18c0-.11,0-.23,0-.35a3.11,3.11,0,0,0,0-.43v-.12A.76.76,0,0,0,68.44,33.54Z"/></g><path class="cls-16" d="M68.37,33.54l0,13.26c0,2.56-1.3,5.12-3.88,7.39a21.45,21.45,0,0,1-4.37,2.94l-.5.25c-11.08,5.49-28.68,5.4-39.64-.25-5.59-2.89-8.39-6.69-8.38-10.47l0-13.24a9.72,9.72,0,0,0,3.27,6.88l.33.32c.29.26.59.52.92.78.12.1.25.21.39.31l.41.3A23.7,23.7,0,0,0,20,43.87c10.93,5.64,28.46,5.74,39.55.3l.59-.3c.35-.18.68-.36,1-.55L61.6,43l.46-.28.44-.29.21-.15c.22-.14.42-.29.62-.44.38-.28.74-.57,1.08-.86a12.85,12.85,0,0,0,3-3.66l0-.1.12-.24.08-.17c0-.06,0-.11.07-.17a8.49,8.49,0,0,0,.46-1.43l0-.15a.09.09,0,0,1,0-.05c0-.09,0-.19,0-.28a1.11,1.11,0,0,0,0-.17c0-.12,0-.24,0-.35s0-.29,0-.43a.49.49,0,0,0,0-.12Z"/><path class="cls-8" d="M58.33,22.71c10.2,5.27,10.26,13.81.12,19.08s-26.61,5.27-36.81,0S11.39,28,21.52,22.71,48.13,17.45,58.33,22.71Z"/><g class="cls-5"><path class="cls-17" d="M58.33,22.71c10.2,5.27,10.26,13.81.12,19.08s-26.61,5.27-36.81,0S11.39,28,21.52,22.71,48.13,17.45,58.33,22.71Z"/></g><g class="cls-5"><g class="cls-5"><path class="cls-1" d="M24.93,45.91V59.18A33.51,33.51,0,0,1,19.78,57a21.68,21.68,0,0,1-4.36-3V40.88l0-.05h0l0,0,.14.12.34.29c.31.25.56.45.79.61s.29.22.43.31l.08.06,0,0c.25.18.53.36.81.53l.09.05c.5.32,1,.63,1.6.92l.26.14.22.11.58.28.23.1,0,0h0l.07,0,.24.11.23.11.24.1,0,0,.05,0,.09,0,.15.06c.71.3,1.53.62,2.46.92Z"/></g><path class="cls-10" d="M26.63,43.81l-.83,1-.87,1.08-.22-.07c-.93-.3-1.75-.62-2.46-.92l-.15-.06-.09,0-.09,0-.24-.1-.23-.11-.24-.11-.07,0h0l0,0-.23-.1L20.28,44l-.22-.11-.26-.14c-.57-.29-1.1-.6-1.6-.92l-.09-.05c-.28-.17-.56-.35-.81-.53l0,0-.08-.06c-.14-.09-.29-.21-.43-.31s-.48-.36-.79-.61L15.63,41l-.14-.12,0,0h0l1.71-2.12a16.88,16.88,0,0,0,1.35,1.14,20.61,20.61,0,0,0,4.25,2.5A27.72,27.72,0,0,0,26.63,43.81Z"/></g><g class="cls-11"><path class="cls-12" d="M64.45,41.07V54.19a21.44,21.44,0,0,1-4.37,2.93l-.5.26,0-13.2.24-.11.26-.14a23.4,23.4,0,0,0,2.63-1.56l.42-.3c.28-.2.55-.4.81-.61l.34-.28.18-.15Z"/></g><path class="cls-13" d="M64.41,41h0l-.21.18c-.29.24-.59.48-.9.71l-.42.3-.57.39a3.28,3.28,0,0,1-.31.2l-.47.29-.48.28h0l-.75.42-.26.13-.49.25L57.91,42.1l.48-.24a20.23,20.23,0,0,0,4.32-2.94Z"/><polyline class="cls-1" points="39.9 49.69 39.91 49.69 40.01 49.82 40.03 49.86"/><polyline class="cls-1" points="40 38.1 39.94 38.02 39.93 38.01"/><path class="cls-1" d="M60,4.41c11.12,5.74,11.18,15.05.13,20.79S31.07,31,20,25.2s-11.18-15-.13-20.79S48.84-1.34,60,4.41Z"/><g class="cls-2"><path class="cls-18" d="M60,4.41c11.12,5.74,11.18,15.05.13,20.79S31.07,31,20,25.2s-11.18-15-.13-20.79S48.84-1.34,60,4.41Z"/></g><path class="cls-4" d="M68.34,14.88l0,13.25c0,2.56-1.29,5.12-3.87,7.4a22.14,22.14,0,0,1-4.37,2.93l-.5.25c-11.09,5.49-28.69,5.41-39.64-.25-5.6-2.89-8.39-6.68-8.38-10.47l0-13.23a9.71,9.71,0,0,0,3.27,6.87l.34.32c.29.26.59.52.91.78l.39.31.41.3A22.77,22.77,0,0,0,20,25.2c10.92,5.64,28.46,5.75,39.54.3l.6-.3c.34-.17.67-.36,1-.54l.47-.28.46-.29.44-.29.22-.14.62-.45c.38-.28.74-.57,1.07-.86a12.78,12.78,0,0,0,3-3.65l.06-.11a2.56,2.56,0,0,0,.11-.24.89.89,0,0,0,.08-.17c0-.05.05-.11.08-.17a8.69,8.69,0,0,0,.46-1.42l0-.16a.07.07,0,0,0,0-.05,2.33,2.33,0,0,0,0-.28l0-.17c0-.12,0-.23,0-.35l0-.43V15S68.34,14.93,68.34,14.88Z"/><g class="cls-5"><path class="cls-19" d="M68.4,14.88l0,13.25c0,2.56-1.3,5.12-3.87,7.4a22.23,22.23,0,0,1-4.38,2.93l-.5.25C48.53,44.2,30.93,44.12,20,38.46c-5.6-2.89-8.4-6.68-8.38-10.47l0-13.23a9.71,9.71,0,0,0,3.27,6.87l.34.32c.28.26.59.52.91.78l.39.31.41.3A22.15,22.15,0,0,0,20,25.2c10.92,5.64,28.45,5.75,39.54.3q.3-.13.6-.3c.34-.17.67-.36,1-.54l.48-.28.46-.29.44-.29.22-.14.61-.45c.38-.28.74-.57,1.08-.86a12.78,12.78,0,0,0,3-3.65l.06-.11a2.56,2.56,0,0,1,.11-.24c0-.05,0-.11.08-.17s0-.11.07-.17a8.74,8.74,0,0,0,.47-1.42l0-.16a.43.43,0,0,0,0-.05,2.33,2.33,0,0,0,0-.28l0-.17c0-.12,0-.23,0-.35l0-.43v-.27Z"/></g><path class="cls-20" d="M68.34,14.88l0,13.26c0,2.56-1.29,5.12-3.87,7.39a21.72,21.72,0,0,1-4.37,2.93l-.5.26c-11.08,5.49-28.69,5.4-39.64-.26-5.6-2.89-8.39-6.68-8.38-10.47l0-13.23a9.7,9.7,0,0,0,3.27,6.87l.34.32c.29.27.59.53.91.79l.39.3.41.31A25.82,25.82,0,0,0,20,25.21c10.92,5.64,28.46,5.74,39.54.3l.6-.3c.34-.18.68-.36,1-.55l.47-.28L62,24.1l.44-.29.22-.15.62-.44c.38-.29.74-.57,1.07-.87a12.52,12.52,0,0,0,3-3.65l.06-.11a2.4,2.4,0,0,0,.11-.23,1.3,1.3,0,0,0,.08-.17c0-.06.05-.12.08-.17a8.79,8.79,0,0,0,.46-1.43l0-.15a.11.11,0,0,0,0-.05c0-.1,0-.19,0-.28l0-.18c0-.11,0-.23,0-.35a3.11,3.11,0,0,0,0-.43V15A.76.76,0,0,0,68.34,14.88Z"/><path class="cls-8" d="M58.3,4.05c10.2,5.27,10.25,13.81.12,19.07s-26.61,5.27-36.81,0S11.35,9.32,21.49,4.05,48.1-1.22,58.3,4.05Z"/><g class="cls-5"><path class="cls-21" d="M58.3,4.05c10.2,5.27,10.25,13.81.12,19.07s-26.61,5.27-36.81,0S11.35,9.32,21.49,4.05,48.1-1.22,58.3,4.05Z"/></g><g class="cls-5"><g class="cls-5"><path class="cls-1" d="M24.89,27.25V40.52a34.41,34.41,0,0,1-5.14-2.14,22.5,22.5,0,0,1-4.37-3V22.21l0,0h0l0,0,.13.11.35.3c.3.25.55.44.78.61l.44.31.08,0,0,0c.26.18.53.36.82.54l.08.05c.51.31,1,.62,1.6.91l.27.14.22.12.57.28.23.1h.05l.08,0,.24.11.23.1.23.11h0l.06,0,.09,0,.14.07c.72.3,1.54.61,2.46.92Z"/></g><path class="cls-10" d="M26.59,25.14l-.82,1-.88,1.08-.22-.07c-.92-.31-1.74-.62-2.46-.92l-.14-.07-.09,0-.1,0L21.65,26l-.23-.1-.24-.11-.08,0h-.05l-.23-.1-.57-.28L20,25.24l-.27-.14c-.56-.29-1.09-.6-1.6-.91l-.08-.05c-.29-.18-.56-.36-.82-.54l0,0-.08,0-.44-.31c-.23-.17-.48-.36-.78-.61l-.35-.3-.13-.11,0,0h0l1.72-2.12c.31.29.77.69,1.34,1.13a21.79,21.79,0,0,0,4.25,2.51A27.08,27.08,0,0,0,26.59,25.14Z"/></g><g class="cls-11"><path class="cls-12" d="M64.42,22.4V35.53a22.14,22.14,0,0,1-4.37,2.93l-.5.25,0-13.19.23-.12.26-.13a27.06,27.06,0,0,0,2.64-1.56l.42-.3c.28-.2.55-.41.8-.61l.35-.29.17-.15Z"/></g><path class="cls-13" d="M64.38,22.35l0,0-.21.18c-.29.24-.59.48-.9.71l-.42.3-.57.39a3.28,3.28,0,0,0-.31.2l-.47.29-.48.28h0c-.25.14-.5.28-.76.41l-.26.14-.48.24-1.63-2.08c.17-.07.33-.16.49-.24a19.52,19.52,0,0,0,4.32-2.94Z"/><polyline class="cls-1" points="39.87 31.02 39.87 31.03 39.97 31.16 40 31.19"/></svg>