<svg id="Layer_1" data-name="Layer 1" xmlns="http://www.w3.org/2000/svg" xmlns:xlink="http://www.w3.org/1999/xlink" viewBox="0 0 80 80"><defs><style>.cls-1{fill:#cdd8dd;}.cls-2{fill:#fff;}.cls-3{fill:url(#linear-gradient);}.cls-4{opacity:0.9;}.cls-5{fill:url(#linear-gradient-2);}.cls-6{fill:url(#linear-gradient-3);}.cls-7{opacity:0.6;}.cls-8{fill:url(#linear-gradient-4);}.cls-9{fill:url(#linear-gradient-5);}.cls-10{fill:url(#linear-gradient-6);}.cls-11{fill:url(#linear-gradient-7);}.cls-12{fill:url(#linear-gradient-8);}.cls-13{fill:url(#linear-gradient-9);}.cls-14{opacity:0.8;}.cls-15{fill:url(#linear-gradient-10);}.cls-16{fill:url(#linear-gradient-11);}.cls-17{fill:url(#linear-gradient-12);}.cls-18{fill:#651fff;}</style><linearGradient id="linear-gradient" x1="-3.32" y1="77.36" x2="83.46" y2="26.82" gradientUnits="userSpaceOnUse"><stop offset="0" stop-color="#587e8d" stop-opacity="0"/><stop offset="0.4" stop-color="#587e8d" stop-opacity="0"/><stop offset="0.5" stop-color="#587e8d" stop-opacity="0.11"/><stop offset="0.7" stop-color="#587e8d" stop-opacity="0.32"/><stop offset="0.88" stop-color="#587e8d" stop-opacity="0.45"/><stop offset="1" stop-color="#587e8d" stop-opacity="0.5"/></linearGradient><linearGradient id="linear-gradient-2" x1="75.17" y1="59.89" x2="3.95" y2="68.47" gradientUnits="userSpaceOnUse"><stop offset="0" stop-color="#587e8d" stop-opacity="0.6"/><stop offset="0.11" stop-color="#587e8d" stop-opacity="0.55"/><stop offset="0.27" stop-color="#587e8d" stop-opacity="0.42"/><stop offset="0.45" stop-color="#587e8d" stop-opacity="0.21"/><stop offset="0.6" stop-color="#587e8d" stop-opacity="0"/><stop offset="1" stop-color="#587e8d" stop-opacity="0"/></linearGradient><linearGradient id="linear-gradient-3" x1="74.29" y1="52.53" x2="3.07" y2="61.1" xlink:href="#linear-gradient-2"/><linearGradient id="linear-gradient-4" x1="-3.32" y1="66.53" x2="83.46" y2="15.99" xlink:href="#linear-gradient"/><linearGradient id="linear-gradient-5" x1="75.17" y1="49.06" x2="3.95" y2="57.64" xlink:href="#linear-gradient-2"/><linearGradient id="linear-gradient-6" x1="74.29" y1="41.7" x2="3.07" y2="50.27" xlink:href="#linear-gradient-2"/><linearGradient id="linear-gradient-7" x1="-3.32" y1="55.71" x2="83.46" y2="5.16" xlink:href="#linear-gradient"/><linearGradient id="linear-gradient-8" x1="75.17" y1="38.23" x2="3.95" y2="46.81" xlink:href="#linear-gradient-2"/><linearGradient id="linear-gradient-9" x1="74.29" y1="30.87" x2="3.07" y2="39.44" xlink:href="#linear-gradient-2"/><linearGradient id="linear-gradient-10" x1="-3.32" y1="44.88" x2="83.46" y2="-5.67" xlink:href="#linear-gradient"/><linearGradient id="linear-gradient-11" x1="75.17" y1="27.4" x2="3.95" y2="35.98" xlink:href="#linear-gradient-2"/><linearGradient id="linear-gradient-12" x1="74.29" y1="20.04" x2="3.07" y2="28.61" xlink:href="#linear-gradient-2"/></defs><path class="cls-1" d="M73.92,52.55l0,7.45a.66.66,0,0,1-.4.56l-33,19.19a2.15,2.15,0,0,1-1.06.23v-7.5a2.06,2.06,0,0,0,1.09-.22L73.52,53.07a1.16,1.16,0,0,0,.21-.16l.06-.07a.4.4,0,0,0,.1-.18,0,0,0,0,0,0,0h0A.08.08,0,0,0,73.92,52.55Z"/><path class="cls-1" d="M73.92,52.51v0h0a.35.35,0,0,1,0,.11A.4.4,0,0,0,73.92,52.51Z"/><path class="cls-2" d="M73.92,52.51v0h0a.08.08,0,0,1,0,0h0a0,0,0,0,1,0,0,.4.4,0,0,1-.1.18l-.06.07a1.16,1.16,0,0,1-.21.16l-33,19.19a2.06,2.06,0,0,1-1.09.22,1.86,1.86,0,0,1-.86-.23L5.27,53l0,0-.07,0,0,0-.06,0h0L5,52.81a.24.24,0,0,1-.06-.09l0-.06,0,0a.52.52,0,0,1,0-.11v0h0a.67.67,0,0,1,.4-.56L38.32,32.72a2.16,2.16,0,0,1,2,0L73.51,51.94A.7.7,0,0,1,73.92,52.51Z"/><path class="cls-3" d="M73.92,52.51v0h0a.08.08,0,0,1,0,0h0a0,0,0,0,1,0,0,.4.4,0,0,1-.1.18l-.06.07a1.16,1.16,0,0,1-.21.16l-33,19.19a2.06,2.06,0,0,1-1.09.22,1.86,1.86,0,0,1-.86-.23L5.27,53l0,0-.07,0,0,0-.06,0h0L5,52.81a.24.24,0,0,1-.06-.09l0-.06,0,0a.52.52,0,0,1,0-.11v0h0a.67.67,0,0,1,.4-.56L38.32,32.72a2.16,2.16,0,0,1,2,0L73.51,51.94A.7.7,0,0,1,73.92,52.51Z"/><path class="cls-1" d="M39.38,72.48V80a2.13,2.13,0,0,1-.89-.23L5.25,60.53A.71.71,0,0,1,4.84,60l0-7.45a.52.52,0,0,0,0,.11l0,0a.09.09,0,0,0,0,.06.24.24,0,0,0,.06.09l.06.06h0l.06,0,0,0,.07,0,0,0L38.52,72.25A1.86,1.86,0,0,0,39.38,72.48Z"/><g class="cls-4"><path class="cls-5" d="M73.93,52.57l0,7.45a.71.71,0,0,1-.4.57L40.46,79.77a2.08,2.08,0,0,1-1.07.23,1.91,1.91,0,0,1-.88-.23L5.26,60.55A.7.7,0,0,1,4.85,60l0-7.45a.43.43,0,0,0,0,.11s0,0,0,0l0,.06.06.09.06.07h0l.06.05,0,0,.07.05,0,0L38.53,72.28a2.15,2.15,0,0,0,.87.23,2.1,2.1,0,0,0,1.08-.23L73.53,53.09a1.13,1.13,0,0,0,.21-.15l.06-.07a.72.72,0,0,0,.11-.19v0h0v0h0A.06.06,0,0,0,73.93,52.57Z"/><path class="cls-6" d="M73.93,52.53v0h0a.06.06,0,0,1,0,0A.22.22,0,0,0,73.93,52.53Z"/></g><g class="cls-7"><path class="cls-2" d="M12.22,58.9a.44.44,0,0,1,.19.34V63.3c0,.12-.09.17-.2.11a.41.41,0,0,1-.19-.34V59C12,58.89,12.11,58.84,12.22,58.9Z"/><path class="cls-2" d="M13.57,59.67a.42.42,0,0,1,.2.33v4.07c0,.12-.09.17-.2.11a.43.43,0,0,1-.19-.34V59.78C13.38,59.65,13.47,59.6,13.57,59.67Z"/><path class="cls-2" d="M14.93,60.45a.45.45,0,0,1,.2.34v4.06c0,.13-.09.18-.2.12a.44.44,0,0,1-.19-.34V60.56A.12.12,0,0,1,14.93,60.45Z"/><path class="cls-2" d="M16.29,61.24a.44.44,0,0,1,.2.34v4.06c0,.13-.09.18-.2.11a.41.41,0,0,1-.19-.33V61.35A.12.12,0,0,1,16.29,61.24Z"/><path class="cls-2" d="M17.65,62a.42.42,0,0,1,.2.33v4.07c0,.12-.09.17-.2.11a.43.43,0,0,1-.19-.34V62.14C17.46,62,17.55,62,17.65,62Z"/><path class="cls-2" d="M20.37,63.59a.45.45,0,0,1,.2.34V68c0,.13-.09.18-.2.12a.42.42,0,0,1-.19-.34V63.71C20.18,63.58,20.27,63.53,20.37,63.59Z"/><path class="cls-2" d="M21.73,64.38a.42.42,0,0,1,.2.34v4.06c0,.12-.09.17-.2.11a.42.42,0,0,1-.2-.34l0-4.06A.12.12,0,0,1,21.73,64.38Z"/><path class="cls-2" d="M23.09,65.16a.44.44,0,0,1,.2.34v4.06c0,.13-.09.18-.2.11a.42.42,0,0,1-.2-.33l0-4.07A.12.12,0,0,1,23.09,65.16Z"/><path class="cls-2" d="M24.45,66a.42.42,0,0,1,.2.33v4.07c0,.12-.09.17-.2.11a.44.44,0,0,1-.2-.34l0-4.06C24.26,65.94,24.34,65.89,24.45,66Z"/><path class="cls-2" d="M25.81,66.74a.45.45,0,0,1,.2.34v4.06c0,.13-.09.18-.2.12a.45.45,0,0,1-.2-.34l0-4.07C25.62,66.73,25.7,66.68,25.81,66.74Z"/><path class="cls-2" d="M31.79,70.22a.44.44,0,0,1,.2.34v4.06c0,.13-.09.18-.2.11a.39.39,0,0,1-.19-.33V70.33A.12.12,0,0,1,31.79,70.22Z"/><path class="cls-2" d="M33.15,71a.42.42,0,0,1,.2.34v4.06c0,.12-.09.17-.2.11a.42.42,0,0,1-.2-.34l0-4.06A.12.12,0,0,1,33.15,71Z"/></g><ellipse class="cls-2" cx="8.07" cy="58.52" rx="0.86" ry="1.49" transform="matrix(0.86, -0.5, 0.5, 0.86, -28.31, 11.98)"/><path class="cls-1" d="M73.92,41.72l0,7.45a.66.66,0,0,1-.4.56l-33,19.19a2.15,2.15,0,0,1-1.06.23v-7.5a2.06,2.06,0,0,0,1.09-.22L73.52,42.24a1.16,1.16,0,0,0,.21-.16l.06-.07a.4.4,0,0,0,.1-.18,0,0,0,0,0,0,0h0A.08.08,0,0,0,73.92,41.72Z"/><path class="cls-1" d="M73.92,41.68v0h0a.35.35,0,0,1,0,.11A.4.4,0,0,0,73.92,41.68Z"/><path class="cls-2" d="M73.92,41.68v0h0a.08.08,0,0,1,0,0h0a0,0,0,0,1,0,0,.4.4,0,0,1-.1.18l-.06.07a1.16,1.16,0,0,1-.21.16l-33,19.19a2.06,2.06,0,0,1-1.09.22,1.86,1.86,0,0,1-.86-.23L5.27,42.2l0,0-.07,0,0,0-.06-.05h0L5,42a.24.24,0,0,1-.06-.09l0-.06s0,0,0,0a.52.52,0,0,1,0-.11v0h0a.67.67,0,0,1,.4-.56L38.32,21.89a2.16,2.16,0,0,1,2,0L73.51,41.11A.7.7,0,0,1,73.92,41.68Z"/><path class="cls-8" d="M73.92,41.68v0h0a.08.08,0,0,1,0,0h0a0,0,0,0,1,0,0,.4.4,0,0,1-.1.18l-.06.07a1.16,1.16,0,0,1-.21.16l-33,19.19a2.06,2.06,0,0,1-1.09.22,1.86,1.86,0,0,1-.86-.23L5.27,42.2l0,0-.07,0,0,0-.06-.05h0L5,42a.24.24,0,0,1-.06-.09l0-.06s0,0,0,0a.52.52,0,0,1,0-.11v0h0a.67.67,0,0,1,.4-.56L38.32,21.89a2.16,2.16,0,0,1,2,0L73.51,41.11A.7.7,0,0,1,73.92,41.68Z"/><path class="cls-1" d="M39.38,61.65v7.5a2,2,0,0,1-.89-.23L5.25,49.7a.71.71,0,0,1-.41-.57l0-7.45a.52.52,0,0,0,0,.11s0,0,0,0a.09.09,0,0,0,0,.06A.24.24,0,0,0,5,42l.06.07h0l.06.05,0,0,.07,0,0,0L38.52,61.42A1.86,1.86,0,0,0,39.38,61.65Z"/><g class="cls-4"><path class="cls-9" d="M73.93,41.74l0,7.46a.71.71,0,0,1-.4.56L40.46,68.94a2.08,2.08,0,0,1-1.07.23,1.91,1.91,0,0,1-.88-.23L5.26,49.72a.7.7,0,0,1-.41-.57l0-7.45a.36.36,0,0,0,0,.11s0,0,0,0l0,.06L5,42l.06.07h0l.06,0,0,0,.07.05,0,0L38.53,61.45a2.15,2.15,0,0,0,.87.23,2.1,2.1,0,0,0,1.08-.23L73.53,42.26a1.13,1.13,0,0,0,.21-.15L73.8,42a.72.72,0,0,0,.11-.19v0h0v0A.06.06,0,0,0,73.93,41.74Z"/><path class="cls-10" d="M73.93,41.7v0h0a.06.06,0,0,1,0,0A.22.22,0,0,0,73.93,41.7Z"/></g><g class="cls-7"><path class="cls-2" d="M12.22,48.07a.44.44,0,0,1,.19.34v4.06c0,.12-.09.17-.2.11a.41.41,0,0,1-.19-.34V48.18C12,48.06,12.11,48,12.22,48.07Z"/><path class="cls-2" d="M13.57,48.84a.42.42,0,0,1,.2.33v4.07c0,.12-.09.17-.2.11a.43.43,0,0,1-.19-.34V49C13.38,48.82,13.47,48.77,13.57,48.84Z"/><path class="cls-2" d="M14.93,49.62a.45.45,0,0,1,.2.34V54c0,.13-.09.18-.2.12a.44.44,0,0,1-.19-.34V49.73A.12.12,0,0,1,14.93,49.62Z"/><path class="cls-2" d="M16.29,50.41a.44.44,0,0,1,.2.34v4.06c0,.13-.09.18-.2.11a.41.41,0,0,1-.19-.33V50.52A.12.12,0,0,1,16.29,50.41Z"/><path class="cls-2" d="M17.65,51.2a.42.42,0,0,1,.2.33V55.6c0,.12-.09.17-.2.11a.43.43,0,0,1-.19-.34V51.31C17.46,51.18,17.55,51.13,17.65,51.2Z"/><path class="cls-2" d="M20.37,52.76a.45.45,0,0,1,.2.34v4.06c0,.13-.09.18-.2.12a.42.42,0,0,1-.19-.34V52.88C20.18,52.75,20.27,52.7,20.37,52.76Z"/><path class="cls-2" d="M21.73,53.55a.42.42,0,0,1,.2.34V58c0,.12-.09.17-.2.11a.42.42,0,0,1-.2-.34l0-4.06A.12.12,0,0,1,21.73,53.55Z"/><path class="cls-2" d="M23.09,54.33a.44.44,0,0,1,.2.34v4.06c0,.13-.09.18-.2.11a.42.42,0,0,1-.2-.33l0-4.07A.12.12,0,0,1,23.09,54.33Z"/><path class="cls-2" d="M24.45,55.13a.42.42,0,0,1,.2.33v4.07c0,.12-.09.17-.2.11a.44.44,0,0,1-.2-.34l0-4.06C24.26,55.11,24.34,55.06,24.45,55.13Z"/><path class="cls-2" d="M25.81,55.91a.45.45,0,0,1,.2.34v4.06c0,.13-.09.18-.2.12a.45.45,0,0,1-.2-.34l0-4.07C25.62,55.9,25.7,55.85,25.81,55.91Z"/><path class="cls-2" d="M31.79,59.39a.44.44,0,0,1,.2.34v4.06c0,.13-.09.18-.2.11a.39.39,0,0,1-.19-.33V59.5A.12.12,0,0,1,31.79,59.39Z"/><path class="cls-2" d="M33.15,60.18a.42.42,0,0,1,.2.34v4.06c0,.12-.09.17-.2.11a.42.42,0,0,1-.2-.34l0-4.06A.12.12,0,0,1,33.15,60.18Z"/></g><ellipse class="cls-2" cx="8.07" cy="47.69" rx="0.86" ry="1.49" transform="matrix(0.86, -0.5, 0.5, 0.86, -22.87, 10.51)"/><path class="cls-1" d="M73.92,30.89l0,7.45a.66.66,0,0,1-.4.56l-33,19.19a2.15,2.15,0,0,1-1.06.23v-7.5a2.06,2.06,0,0,0,1.09-.22L73.52,31.41a1.16,1.16,0,0,0,.21-.16l.06-.06a.5.5,0,0,0,.1-.19,0,0,0,0,0,0,0h0A.08.08,0,0,0,73.92,30.89Z"/><path class="cls-1" d="M73.92,30.85v0h0a.35.35,0,0,1,0,.11A.4.4,0,0,0,73.92,30.85Z"/><path class="cls-2" d="M73.92,30.85v0h0a.08.08,0,0,1,0,0h0a0,0,0,0,1,0,0,.5.5,0,0,1-.1.19l-.06.06a1.16,1.16,0,0,1-.21.16l-33,19.19a2.06,2.06,0,0,1-1.09.22,1.86,1.86,0,0,1-.86-.23L5.27,31.38l0,0a.18.18,0,0,0-.07-.05l0,0-.06-.05h0L5,31.15a.24.24,0,0,1-.06-.09l0-.06s0,0,0,0a.52.52,0,0,1,0-.11v0h0a.67.67,0,0,1,.4-.56L38.32,11.06a2.16,2.16,0,0,1,2,0L73.51,30.28A.7.7,0,0,1,73.92,30.85Z"/><path class="cls-11" d="M73.92,30.85v0h0a.08.08,0,0,1,0,0h0a0,0,0,0,1,0,0,.5.5,0,0,1-.1.19l-.06.06a1.16,1.16,0,0,1-.21.16l-33,19.19a2.06,2.06,0,0,1-1.09.22,1.86,1.86,0,0,1-.86-.23L5.27,31.38l0,0a.18.18,0,0,0-.07-.05l0,0-.06-.05h0L5,31.15a.24.24,0,0,1-.06-.09l0-.06s0,0,0,0a.52.52,0,0,1,0-.11v0h0a.67.67,0,0,1,.4-.56L38.32,11.06a2.16,2.16,0,0,1,2,0L73.51,30.28A.7.7,0,0,1,73.92,30.85Z"/><path class="cls-1" d="M39.38,50.82v7.5a2,2,0,0,1-.89-.23L5.25,38.87a.71.71,0,0,1-.41-.57l0-7.45a.52.52,0,0,0,0,.11s0,0,0,0a.09.09,0,0,0,0,.06.24.24,0,0,0,.06.09l.06.07h0l.06.05,0,0a.18.18,0,0,1,.07.05l0,0L38.52,50.59A1.86,1.86,0,0,0,39.38,50.82Z"/><g class="cls-4"><path class="cls-12" d="M73.93,30.91l0,7.46a.71.71,0,0,1-.4.56L40.46,58.11a2.08,2.08,0,0,1-1.07.23,1.91,1.91,0,0,1-.88-.23L5.26,38.89a.7.7,0,0,1-.41-.57l0-7.45a.36.36,0,0,0,0,.11s0,0,0,0l0,.06.06.09.06.07h0l.06.05,0,0,.07.05,0,0L38.53,50.62a2.15,2.15,0,0,0,.87.23,2.1,2.1,0,0,0,1.08-.23L73.53,31.43a1.13,1.13,0,0,0,.21-.15l.06-.07a.87.87,0,0,0,.11-.18v0h0v0A.06.06,0,0,0,73.93,30.91Z"/><path class="cls-13" d="M73.93,30.87v0h0a.06.06,0,0,1,0,0A.22.22,0,0,0,73.93,30.87Z"/></g><g class="cls-14"><path class="cls-2" d="M12.22,37.24a.44.44,0,0,1,.19.34v4.06c0,.12-.09.17-.2.11a.41.41,0,0,1-.19-.34V37.35C12,37.23,12.11,37.18,12.22,37.24Z"/><path class="cls-2" d="M13.57,38a.42.42,0,0,1,.2.33v4.07c0,.12-.09.17-.2.11a.43.43,0,0,1-.19-.34V38.12C13.38,38,13.47,37.94,13.57,38Z"/><path class="cls-2" d="M14.93,38.79a.45.45,0,0,1,.2.34v4.06c0,.13-.09.18-.2.12a.44.44,0,0,1-.19-.34V38.9A.12.12,0,0,1,14.93,38.79Z"/><path class="cls-2" d="M16.29,39.58a.44.44,0,0,1,.2.34V44c0,.13-.09.18-.2.11a.41.41,0,0,1-.19-.33V39.69A.12.12,0,0,1,16.29,39.58Z"/><path class="cls-2" d="M17.65,40.37a.42.42,0,0,1,.2.33v4.07c0,.12-.09.17-.2.11a.43.43,0,0,1-.19-.34V40.48C17.46,40.35,17.55,40.3,17.65,40.37Z"/><path class="cls-2" d="M21.73,42.72a.42.42,0,0,1,.2.34v4.06c0,.12-.09.17-.2.11a.42.42,0,0,1-.2-.34l0-4.06A.12.12,0,0,1,21.73,42.72Z"/><path class="cls-2" d="M23.09,43.5a.44.44,0,0,1,.2.34V47.9c0,.13-.09.18-.2.11a.42.42,0,0,1-.2-.33l0-4.07A.12.12,0,0,1,23.09,43.5Z"/><path class="cls-2" d="M24.45,44.3a.42.42,0,0,1,.2.33V48.7c0,.12-.09.17-.2.11a.44.44,0,0,1-.2-.34l0-4.06C24.26,44.28,24.34,44.23,24.45,44.3Z"/><path class="cls-2" d="M25.81,45.08a.45.45,0,0,1,.2.34v4.06c0,.13-.09.18-.2.12a.45.45,0,0,1-.2-.34l0-4.07C25.62,45.07,25.7,45,25.81,45.08Z"/><path class="cls-2" d="M33.15,49.35a.42.42,0,0,1,.2.34v4.06c0,.12-.09.17-.2.11a.42.42,0,0,1-.2-.34l0-4.06A.12.12,0,0,1,33.15,49.35Z"/></g><ellipse class="cls-2" cx="8.07" cy="36.86" rx="0.86" ry="1.49" transform="translate(-17.43 9.05) rotate(-30.16)"/><path class="cls-1" d="M73.92,20.06l0,7.45a.66.66,0,0,1-.4.56l-33,19.19a2,2,0,0,1-1.06.23V40a2.06,2.06,0,0,0,1.09-.22L73.52,20.58a1.16,1.16,0,0,0,.21-.16l.06-.06a.5.5,0,0,0,.1-.19,0,0,0,0,0,0,0h0A.08.08,0,0,0,73.92,20.06Z"/><path class="cls-1" d="M73.92,20v0h0a.35.35,0,0,1,0,.11A.4.4,0,0,0,73.92,20Z"/><path class="cls-2" d="M73.92,20v0h0a.08.08,0,0,1,0,0h0a0,0,0,0,1,0,0,.5.5,0,0,1-.1.19l-.06.06a1.16,1.16,0,0,1-.21.16l-33,19.19a2.06,2.06,0,0,1-1.09.22,1.86,1.86,0,0,1-.86-.23L5.27,20.55l0,0a.18.18,0,0,0-.07-.05l0,0-.06-.05h0L5,20.32a.24.24,0,0,1-.06-.09l0-.06s0,0,0,0a.43.43,0,0,1,0-.11v0h0a.67.67,0,0,1,.4-.56L38.32.23a2.16,2.16,0,0,1,2,0L73.51,19.45A.7.7,0,0,1,73.92,20Z"/><path class="cls-15" d="M73.92,20v0h0a.08.08,0,0,1,0,0h0a0,0,0,0,1,0,0,.5.5,0,0,1-.1.19l-.06.06a1.16,1.16,0,0,1-.21.16l-33,19.19a2.06,2.06,0,0,1-1.09.22,1.86,1.86,0,0,1-.86-.23L5.27,20.55l0,0a.18.18,0,0,0-.07-.05l0,0-.06-.05h0L5,20.32a.24.24,0,0,1-.06-.09l0-.06s0,0,0,0a.43.43,0,0,1,0-.11v0h0a.67.67,0,0,1,.4-.56L38.32.23a2.16,2.16,0,0,1,2,0L73.51,19.45A.7.7,0,0,1,73.92,20Z"/><path class="cls-1" d="M39.38,40v7.5a2,2,0,0,1-.89-.23L5.25,28a.71.71,0,0,1-.41-.57l0-7.45a.43.43,0,0,0,0,.11s0,0,0,0a.09.09,0,0,0,0,.06.24.24,0,0,0,.06.09l.06.07h0l.06.05,0,0a.18.18,0,0,1,.07.05l0,0L38.52,39.76A1.86,1.86,0,0,0,39.38,40Z"/><g class="cls-4"><path class="cls-16" d="M73.93,20.08l0,7.46a.71.71,0,0,1-.4.56L40.46,47.28a2.08,2.08,0,0,1-1.07.23,1.91,1.91,0,0,1-.88-.23L5.26,28.06a.7.7,0,0,1-.41-.57l0-7.45a.36.36,0,0,0,0,.11l0,0,0,.06.06.09.06.07h0l.06.05,0,0,.07.05,0,0L38.53,39.79a2.15,2.15,0,0,0,.87.23,2,2,0,0,0,1.08-.23L73.53,20.6a1.13,1.13,0,0,0,.21-.15l.06-.07a.87.87,0,0,0,.11-.18v0h0v0A.06.06,0,0,0,73.93,20.08Z"/><path class="cls-17" d="M73.93,20v0h0a.06.06,0,0,1,0,0A.22.22,0,0,0,73.93,20Z"/></g><path class="cls-18" d="M12.22,26.41a.44.44,0,0,1,.19.34v4.06c0,.12-.09.17-.2.11a.41.41,0,0,1-.19-.34V26.52C12,26.4,12.11,26.35,12.22,26.41Z"/><path class="cls-18" d="M13.57,27.18a.42.42,0,0,1,.2.33v4.07c0,.12-.09.17-.2.11a.43.43,0,0,1-.19-.34V27.29C13.38,27.16,13.47,27.11,13.57,27.18Z"/><path class="cls-18" d="M16.29,28.75a.44.44,0,0,1,.2.34v4.06c0,.13-.09.18-.2.11a.41.41,0,0,1-.19-.33V28.86A.12.12,0,0,1,16.29,28.75Z"/><path class="cls-18" d="M20.37,31.1a.45.45,0,0,1,.2.34v4.07c0,.12-.09.17-.2.11a.42.42,0,0,1-.19-.34V31.22C20.18,31.09,20.27,31,20.37,31.1Z"/><path class="cls-18" d="M21.73,31.89a.42.42,0,0,1,.2.34v4.06c0,.12-.09.17-.2.11a.42.42,0,0,1-.2-.34l0-4.06A.12.12,0,0,1,21.73,31.89Z"/><path class="cls-18" d="M24.45,33.47a.42.42,0,0,1,.2.33v4.07c0,.12-.09.17-.2.11a.44.44,0,0,1-.2-.34l0-4.06C24.26,33.45,24.34,33.4,24.45,33.47Z"/><path class="cls-18" d="M25.81,34.25a.45.45,0,0,1,.2.34v4.06c0,.13-.09.18-.2.12a.45.45,0,0,1-.2-.34l0-4.07C25.62,34.24,25.7,34.19,25.81,34.25Z"/><path class="cls-18" d="M31.79,37.73a.44.44,0,0,1,.2.34v4.06c0,.13-.09.18-.2.11a.39.39,0,0,1-.19-.33V37.84A.12.12,0,0,1,31.79,37.73Z"/><path class="cls-18" d="M33.15,38.52a.42.42,0,0,1,.2.34v4.06c0,.12-.09.17-.2.11a.42.42,0,0,1-.2-.34l0-4.06A.12.12,0,0,1,33.15,38.52Z"/><ellipse class="cls-18" cx="8.07" cy="26.03" rx="0.86" ry="1.49" transform="translate(-11.99 7.58) rotate(-30.16)"/></svg>