<svg height="634" viewBox="0 0 1388 634" width="1388" xmlns="http://www.w3.org/2000/svg"><g fill="none" fill-rule="evenodd" opacity=".12" stroke="#f0f2f4" stroke-width="1.184" transform="translate(.9142 1.346818)"><path d="m2 91.6665704c16.0619863-29.8795857 37.0482867-54.4467702 67.9501517-70.4198171 31.8348343-16.4555539 61.4759483-18.02576928 98.6670793-20.14948902 35.801336-2.04445075 127.506335-6.20917477 218.063753 41.12061832 18.59315 9.7176894 37.564456 19.6332066 57.019499 38.2441878 44.916424 42.9658626 33.839478 76.2450546 63.838736 109.1823556 36.689452 40.283124 103.903303 46.10974 160.080921 50.978924 138.196155 11.979268 185.986706-42.574343 245.289635-10.337366 25.882322 14.069212 24.565675 30.148411 44.46374 66.772754 3.101159 5.708057 4.623446 10.341502 35.641932 53.081275 54.553893 75.171821 82.040613 112.827351 92.313633 116.217307 56.46745 18.638553 98.39451-64.91786 171.36213-56.247211 54.06671 6.424235 97.40702 60.182399 129.30879 115.889891"/><path d="m2 93.6115699c17.2378456-28.4423943 38.4894357-52.2967484 69.1170115-67.6563184 8.1524009-4.088469 16.0349645-7.2441285 23.7933062-9.8394115 23.2902083-7.79068571 45.1277113-10.3258543 72.6428403-12.27715332 16.823083-1.19261406 46.037291-1.50976925 81.787635 1.75990035 17.950051 1.64105353 36.354892 3.77131376 56.331828 8.54729777 25.727716 6.1779619 52.658313 16.4326463 79.566826 31.020403 18.547005 10.0860877 37.414227 20.38914 57.078538 38.3778506 13.090908 11.9745085 21.402037 22.4122996 27.580691 33.1679376 15.293084 26.620997 15.322069 50.967322 36.329357 75.071807 16.384165 18.801292 39.234766 30.520832 64.823077 38.215473 30.029931 8.966026 63.722335 12.288209 94.180141 14.965026 16.479402 1.449655 31.688982 1.872529 45.702582 1.49595 25.702181-.724827 46.804015-4.118181 66.528367-7.696714 34.345258-6.230475 60.661647-14.342462 85.815182-15.327785 16.191622-.635001 31.329429 1.719133 47.28434 10.248466 25.952005 13.885731 24.791911 30.267936 45.69637 65.78379 3.525139 5.988636 5.723175 10.863428 36.185812 52.922076 36.855916 50.86644 59.747926 84.44205 75.206636 102.521278 7.04614 8.239816 12.11163 12.915609 15.47528 14.096477 55.17449 19.374105 97.33606-61.537089 170.67041-52.741042 53.6652 6.421874 97.2705 58.687529 130.20377 112.733122"/><path d="m2 95.3055262c18.4132054-26.8904303 39.9432455-49.9217296 70.2847626-64.6187132 8.3048878-4.0226301 16.2046422-7.1291133 23.8414396-9.8071874 23.1133038-8.1052789 43.1767198-11.88921405 70.3634428-14.18923956 16.807856-1.42182141 46.032668-.63192063 81.893523 2.22551959 18.401472 1.46597307 36.1597 2.68152347 56.215525 7.28364407 25.722169 5.9528855 52.430599 16.8797313 79.199766 31.8595616 18.500167 10.4135828 37.273644 21.0603415 57.13691 38.3567542 13.385963 11.6560381 21.745375 21.0279175 28.155039 31.6105185 15.639388 25.819063 15.263242 50.684036 35.825656 75.251675 15.920289 19.019707 38.328233 31.184179 63.803319 39.333609 29.80111 9.408443 63.583844 13.126841 94.122062 15.837339 16.537307 1.468042 31.810211 1.828844 45.798698 1.275569 25.738734-1.083786 45.968482-5.213346 66.098155-9.008319 33.469395-6.308858 59.677448-14.067132 86.050453-14.732857 16.185317-.408402 31.401628 1.897832 47.424063 10.286647 26.022396 13.645622 25.190044 30.210773 46.929207 64.52903 3.96092 6.252979 6.82377 11.342148 36.731167 52.549443 36.727022 50.568138 57.968572 83.861938 73.710792 102.461515 6.8852 8.135633 11.91796 12.821918 15.33848 14.089208 53.88825 19.968278 96.27748-57.906281 169.97999-49.01869 53.26295 6.393712 97.13261 56.953571 131.09755 109.119447"/><path d="m2 96.4072453c19.5887467-25.4355183 41.408319-47.713891 71.4526801-61.8163145 8.4594673-3.9708 16.3750327-7.0408423 23.8902644-9.8108625 22.9363655-8.4531586 41.2260985-13.5023792 68.0829735-16.1541879 16.794003-1.65841735 46.030794.23365781 82.000096 2.7001993 18.855031 1.2927222 35.964469 1.6010399 56.098498 6.0446859 25.716615 5.7508853 52.204217 17.3895325 78.833317 32.8157865 18.451937 10.7800585 37.142693 21.8055268 57.194585 38.4768035 13.687274 11.3794114 22.084621 19.7191974 28.730162 30.1674344 15.971248 25.112683 15.205092 50.582075 35.322555 75.707202 15.457026 19.305111 37.398079 32.033931 62.782692 40.597006 29.544635 9.967095 63.443934 14.013246 94.063948 16.767367 16.593835 1.493197 31.931451 1.792528 45.893438 1.060446 25.775974-1.447572 45.133494-6.326043 65.668547-10.352838 32.595453-6.392407 58.713782-12.957638 86.286427-14.192291 16.162442-.723787 31.473829 2.083564 47.564487 10.362516 26.0921 13.455371 25.731109 30.210294 48.162226 63.510679 4.408503 6.545183 7.923848 11.862627 37.275218 52.369073 36.598106 50.454877 56.190986 83.586585 72.214696 102.776942 6.72837 8.057738 11.72426 12.773754 15.20164 14.133532 52.61145 20.571565 95.22008-54.486511 169.28805-45.475477 52.862 6.388951 96.99673 55.428055 131.9935 105.905053"/><path d="m2 99.2080363c20.7651903-23.8817823 42.8840319-45.3056938 72.620182-58.7722314 8.6175333-3.9027842 16.5447804-6.9271659 23.9391264-9.7762812 22.7601176-8.771604 39.2772866-15.0680867 65.8022246-18.0572771 16.781549-1.8906699 46.031738 1.0895502 82.106786 3.1644569 19.309377 1.1109411 35.769942.514759 55.982213 4.7832567 25.710401 5.5257242 52.013758 17.7695365 78.466216 33.644263 18.430643 11.0611087 37.022122 22.4610199 57.25303 38.4461505 13.994173 11.0576583 22.419116 18.3312173 29.304722 28.6070773 16.287993 24.308218 15.149711 50.276637 34.819417 75.867613 14.996469 19.51116 36.483008 32.707208 61.76198 41.70169 29.306102 10.427666 63.30477 14.845899 94.00594 17.632222 16.651084 1.512536 32.054821 1.782336 45.989629.841141 25.816705-1.744385 44.295668-7.412254 65.238262-11.657981 31.722793-6.433108 57.718973-12.4453 86.521856-13.595572 16.154078-.645174 31.547461 2.261213 47.704301 10.397994 26.162538 13.212608 26.391713 30.04164 49.396192 62.24375 4.866518 6.814001 9.024112 12.337655 37.820092 51.98445 36.470581 50.144843 54.415261 82.983156 70.717751 102.692354 6.5736 7.946334 11.53054 12.673698 15.06619 14.122062 51.34349 21.038187 94.16056-50.852119 168.59551-41.753443 52.46037 6.359275 96.86096 53.686054 132.88838 102.276269"/><path d="m2 100.361198c21.9404477-22.4183454 44.3689672-43.055032 73.7878892-55.9504549 8.7770075-3.847471 16.7159398-6.8404093 23.9880019-9.7787295 22.5852269-9.1260766 37.3288599-16.6965721 63.5218139-20.0282814 16.769096-2.1328748 46.034072 1.9392913 82.212822 3.6407515 19.765181.9292005 35.583676-.6139361 55.865922 3.5391202 25.716619 5.266161 51.794976 18.2666721 78.098385 34.6002753 18.390709 11.4193491 36.911893 23.197519 57.312188 38.5618222 14.307337 10.7756846 22.748148 17.0111456 29.87938 27.1535346 16.590988 23.599205 15.096398 50.157471 34.315517 76.315434 14.538602 19.786994 35.568489 33.503072 60.741808 42.964463 29.067538 10.925711 63.165597 15.735568 93.948635 18.564652 16.708346 1.537606 32.176838 1.752622 46.084467.624998 25.855377-2.096923 43.457025-8.523202 64.808611-13.007425 30.851382-6.480897 56.716424-12.012544 86.756653-13.050289 16.147789-.557244 31.620423 2.448139 47.845529 10.472864 26.232994 13.020561 27.15184 29.93768 50.628988 61.21316 5.336344 7.10866 10.125246 12.858088 38.365754 51.796707 36.341676 50.024036 52.639956 82.690551 69.221276 102.995381 6.42087 7.862944 11.33542 12.619566 14.93003 14.165468 50.08569 21.527862 93.10158-47.411351 167.90358-38.190557 52.05938 6.355068 96.72381 52.148615 133.78275 99.035908"/><path d="m2 102.194033c23.1165674-20.8684232 45.8637724-40.6251794 74.955727-52.9128591 8.9392622-3.7752511 16.8857333-6.7286553 24.037557-9.7441638 22.408911-9.4481334 35.380092-18.264873 61.239607-21.9214359 16.75801-2.3696239 46.037753 2.7733018 82.320194 4.1023337 20.221041.7411112 35.389067-1.7030378 55.748878 2.2819878 25.71108 5.033208 51.576119 18.6947727 77.731814 35.4229095 18.347995 11.7335714 36.809214 23.8383884 57.369241 38.5281243 14.626754 10.4507725 23.073763 15.6261305 30.454798 25.5966295 16.87883 22.801247 15.045825 49.839387 33.8122 76.469018 14.082721 19.981712 34.653104 34.167023 59.721424 44.061617 28.828913 11.379577 63.026355 16.563216 93.890559 19.424843 16.764914 1.556748 32.298849 1.714769 46.178594.406439 25.895415-2.442079 42.618215-9.597874 64.378842-14.30676 29.983258-6.488518 55.708146-11.565199 86.992111-12.454671 16.142866-.458882 31.694062 2.624942 47.986053 10.506667 26.303441 12.778303 27.994914 29.676192 51.862633 59.946515 5.815906 7.37592 11.226548 13.330342 38.911474 51.409935 36.212714 49.710347 50.867084 82.076346 67.723814 102.901296 6.27088 7.747165 11.13956 12.516775 14.79314 14.153568 48.84077 21.885554 92.04306-43.786978 167.21281-34.478234 51.65689 6.324978 96.58725 50.407986 134.67853 95.412208"/><path d="m2 103.361575c24.2935958-19.3984581 47.3671608-38.3371551 76.1245366-50.0779995 9.1022445-3.7161135 17.0555749-6.6440652 24.0857694-9.7462421 22.233283-9.8105396 33.432434-19.9093804 58.958489-23.8999677 16.746942-2.6175266 46.042181 3.6103339 82.426303 4.5810173 20.678383.5517132 35.194471-2.7993569 55.631886 1.0329067 25.706953 4.8202312 51.356599 19.1965779 77.36459 36.3805779 18.306676 12.0955172 36.717611 24.5657569 57.428445 38.6434314 14.951764 10.161756 23.392555 14.300296 31.029657 24.136417 17.152239 22.0948 14.998025 49.708807 33.308844 76.915597 13.629546 20.250226 33.737614 34.961196 58.700259 45.328288 28.590977 11.874279 62.886478 17.454326 93.83259 20.359462 16.822892 1.581855 32.421611 1.684177 46.274864.188744 25.934113-2.797283 41.777252-10.706555 63.948394-15.66022 29.116412-6.506483 54.704607-12.994298 87.227715-11.906082 16.133129.539268 31.767061 2.81111 48.126659 10.580725 26.373931 12.584316 28.906514 29.486929 53.096542 58.909559 6.305218 7.667293 12.327351 13.85298 39.455948 51.21876 36.084469 49.58851 49.097439 81.773855 66.227579 103.202866 6.12225 7.658996 10.94437 12.457795 14.65694 14.195208 47.60744 22.278705 90.98309-40.330375 166.52005-30.899397 51.2558 6.319812 96.45079 48.861879 135.57394 92.154774"/><path d="m2 105.207991c25.4701052-17.8530311 48.8790418-35.8882293 77.2934763-47.0500828 9.2673177-3.6398849 17.2254309-6.5345421 24.1339707-9.7100398 22.058302-10.1385456 31.485127-21.4832559 56.676957-25.7855653 16.737241-2.8587759 46.047956 4.4251339 82.533057 5.0406367 21.135782.3567432 34.999816-3.8834639 55.515521-.2201181 25.702116 4.59005 51.135624 19.6257071 76.997248 37.1992782 18.263956 12.4101098 36.632869 25.1907633 57.486233 38.6076201 15.28234 9.832175 23.707237 12.920039 31.604585 22.585227 17.411178 21.307989 14.953657 49.38099 32.80607 77.064815 13.17905 20.437177 32.821952 35.61843 57.678195 46.4194 28.353669 12.321096 62.74791 18.278777 93.775229 21.216216 16.879486 1.600169 32.544367 1.645021 46.369733-.028981 25.974177-3.144447 40.937501-11.771146 63.519208-16.954618 28.251475-6.48486 53.703627-12.779964 87.463289-11.312279 16.119927.701756 31.839358 2.98781 48.266561 10.615353 26.443722 12.341797 29.875551 29.14737 54.331299 57.644046 6.802201 7.927013 13.428323 14.32286 40.00048 50.831423 35.956858 49.274726 47.328848 81.153907 64.731048 103.10569 5.97567 7.538529 10.74777 12.349387 14.51933 14.182785 46.387 22.541756 89.92426-36.71833 165.82844-27.200807 50.85389 6.289583 96.31492 47.126676 136.47007 88.54201"/><path d="m2 107.326466c26.6468371-16.3791831 50.397444-33.5700994 78.4620113-44.2083747 9.4351916-3.5767449 17.3953359-6.4530757 24.1835917-9.7138392 21.881247-10.5103615 29.536852-23.1468569 54.393744-27.7738775 16.727559-3.1141812 46.063457 6.3666475 82.63993 5.5210339 21.589138-.4999007 34.805174-4.9824133 55.399208-1.4741195 25.696619 4.3781073 50.914677 20.1343154 76.629942 38.1646225 18.221252 12.7761634 36.557137 25.9104853 57.544793 38.7274425 15.617821 9.537526 24.016475 11.591752 32.179645 21.121672 17.655679 20.611399 14.912754 49.246101 32.301875 77.521954 12.73195 20.701976 31.907562 36.414624 56.658108 47.695234 28.115669 12.814191 62.608016 19.175999 93.716595 22.156735 16.937491 1.625542 32.667184 1.611713 46.466057-.246839 26.012207-3.504145 40.094902-12.878494 63.08865-18.315866 27.389194-6.476584 52.70255-12.62889 87.69901-10.762732 16.107432.85806 31.912397 3.175027 48.407236 10.690133 26.514248 12.14904 30.893122 28.891221 55.564943 56.609784 7.309632 8.212063 14.530181 14.848367 40.546532 50.645548 35.827899 49.156216 45.563489 80.853934 63.232289 103.417919 5.83251 7.448037 10.55391 12.2894 14.38447 14.227466 45.17884 22.85231 88.86469-33.252734 165.13553-23.610804 50.452 6.284368 96.17846 45.57878 137.36584 85.280442"/><path d="m2 109.183737c27.8244304-14.839161 51.9236509-31.1046867 79.6306757-41.190679 9.6044666-3.4965601 17.5645645-6.3472193 24.2325103-9.6781638 21.704147-10.8443738 27.588238-24.7236542 52.1115-29.6520996 16.717863-3.3592371 46.081688 7.2056604 82.746067 5.9794146 22.04117-.7369896 34.609782-6.0608422 55.282832-2.721617 25.691102 4.1500519 50.692273 20.5632515 76.262517 38.9783301 18.177836 13.0912261 36.488271 26.5185138 57.603318 38.6912627 15.958871 9.199949 24.320219 10.219865 32.754774 19.575079 17.886394 19.838683 14.875286 48.910437 31.798264 77.668213 12.287529 20.881371 30.992999 37.064779 55.63712 48.781395 27.878299 13.254772 62.468743 19.996018 93.65857 23.008843 16.994111 1.643735 32.789305 1.571968 46.560978-.463724 26.052297-3.851254 39.253518-13.930345 62.657974-19.604061 26.528825-6.430717 51.701961-12.437734 87.935393-10.17087 16.094233 1.006805 31.984732 3.350956 48.547205 10.723612 26.584766 11.907074 31.950891 28.48865 56.800126 55.348056 7.826117 8.459508 15.631516 15.315996 41.092642 50.257445 35.698204 48.842121 43.799184 80.227664 61.733924 103.318625 5.69002 7.325041 10.35793 12.176889 14.24751 14.213962 43.98496 23.034374 87.80556-29.65348 164.44308-19.924942 50.05069 6.254061 96.0419 43.84881 138.26302 81.678182"/><path d="m2 110.357682c29.0015599-13.3574081 53.4563879-28.7481565 80.7996304-38.3327189 9.7758533-3.4271569 17.7338426-6.2666431 24.2814676-9.6806638 21.527045-11.2231265 25.640031-26.4009306 49.828949-31.6436441 16.708186-3.6214339 46.100669 8.0531619 82.852324 6.4609201 22.492613-.9741505 34.415093-7.1615753 55.166506-3.9802586 25.684926 3.9380846 50.469898 21.0738691 75.894437 39.9429362 18.135127 13.458349 36.427728 27.2215951 57.662616 38.8049291 16.30483 8.894568 24.618519 8.889037 33.330037 18.103713 18.104046 19.149766 14.842666 48.760761 31.29461 78.116638 11.846506 21.138167 30.078327 37.855668 54.614655 50.055711 27.642997 13.743887 62.330216 20.894111 93.601343 23.949998 17.052144 1.668985 32.912177 1.537623 46.657356-.682389 26.091044-4.215327 38.411354-15.031924 62.227305-20.968089 25.66973-6.398004 50.701274-12.305131 88.170543-9.61844 16.083123 1.153218 32.059191 3.53916 48.68933 10.798621 26.653946 11.711239 33.042025 28.168782 58.03351 54.301459 8.350985 8.731403 16.734432 15.842217 41.6382 50.064007 35.569901 48.716513 42.039481 79.908688 60.236771 103.618778 5.54822 7.229732 10.16332 12.109472 14.11055 14.255507 42.80406 23.269683 86.74498-26.169319 163.7521-16.317194 49.6473 6.247976 95.90475 42.288088 139.15776 78.392498"/><path d="m2 112.272794c30.1788748-11.822553 54.9948881-26.264751 81.9694462-35.3220852 9.9479562-3.3406164 17.9024528-6.1624093 24.3297358-9.6437704 21.347836-11.5610717 23.690807-27.9785249 47.545318-33.508963 16.698504-3.8718586 46.076126 7.6429882 82.959269 6.9164973 22.971062-.4532807 34.219671-8.2335639 55.050147-5.2227316 25.67874 3.7124859 50.24678 21.5008199 75.527657 40.7469652 18.090333 13.772971 36.371309 27.8088037 57.720526 38.7648107 16.654987 8.54748 24.912026 7.525701 33.905387 16.559578 18.308605 18.393398 14.81418 48.413411 30.790865 78.251973 11.40886 21.308331 29.164186 38.494361 53.593388 51.130335 27.406267 14.175887 62.190268 21.708488 93.543391 24.795212 17.1088 1.687556 33.035062 1.496447 46.751665-.898972 26.13048-4.561784 37.570423-16.068352 61.79793-22.247319 24.81256-6.327991 49.70041-12.135089 88.405709-9.027668 16.071317 1.29016 32.132272 3.713866 48.830084 10.830442 26.724512 11.469311 34.163722 27.710834 59.269152 53.037287 8.884226 8.962125 17.836143 16.304996 42.183838 49.671144 35.441582 48.396853 40.282942 79.266853 58.738672 103.503915 5.40914 7.103467 9.96867 11.992275 13.97355 14.24074 41.63747 23.379486 85.6856-22.581242 163.05959-12.644944 49.24591 6.216914 95.76825 40.559996 140.05468 74.79476"/><path d="m3 113.446323c31.3563902-10.335385 56.5384895-23.8760389 83.1394737-32.454298 10.1221622-3.2640242 18.0704043-6.0835825 24.3787093-9.6448388 21.167912-11.9487339 21.740578-29.6727583 45.261324-35.5081864 16.688823-4.1412047 46.083366 8.4489977 83.06625 7.3990077 23.430944-.6649706 34.023535-9.3372381 54.933091-6.4851916 25.673252 3.5018099 50.022948 22.0145364 75.160146 41.7148092 18.045536 14.1420309 36.321796 28.4983459 57.77915 38.8786609 17.00935 8.229184 25.20006 6.195563 34.480838 15.083497 18.501459 17.717803 14.79122 48.255991 30.287046 78.700862 10.974598 21.561084 28.251284 39.283726 52.571967 52.408946 27.170887 14.662533 62.051002 22.609001 93.484761 25.740308 17.167541 1.712195 33.157974 1.459893 46.848072-1.118423 26.169931-4.929907 36.730054-17.164813 61.36781-23.616825 23.957327-6.273673 48.700774-12.024079 88.641625-8.473191 16.058821 1.427405 32.204682 3.902727 48.970182 10.905656 26.795787 11.272703 35.308406 27.339831 60.504321 51.986601 9.425845 9.219727 18.938039 16.833019 42.729576 49.476025 35.313238 48.271198 38.529568 78.941412 57.240328 103.80523 5.27143 7.005003 9.77677 11.920393 13.83724 14.283044 40.48451 23.551157 84.62537-19.08438 162.36631-9.024799 48.84446 6.211461 95.63312 38.994098 140.95178 71.496783"/><path d="m4 116.316262c32.4861051-8.808094 58.0014907-21.3828078 84.1846306-29.4596538 10.2832771-3.1719625 18.2114784-5.9831299 24.3916544-9.6090184 20.954928-12.293942 19.760145-31.2560419 42.913557-37.3695548 16.653845-4.3964588 46.023304 9.2171797 83.050552 7.8540222 23.854278-.878188 33.778154-10.4044236 54.735841-7.7229494 25.629208 3.2788905 49.724236 22.4438083 74.68224 42.5193375 17.973488 14.4580234 36.223597 29.0691947 57.751772 38.8417097 17.342985 7.873338 25.446403 4.846246 35.00536 13.548792 18.655039 16.98221 14.749918 47.90781 29.739207 78.842379 10.528166 21.728427 27.297903 39.919956 51.473641 53.483235 26.897803 15.091312 61.820383 23.422026 93.289681 26.58433 17.19881 1.731541 33.23112 1.419036 46.873863-1.332804 26.170723-5.278785 35.836603-18.18808 60.847034-24.89349 23.071323-6.185258 47.631985-11.877268 88.747158-7.885066 16.024032 1.554938 32.229489 4.075675 49.038546 10.937683 26.82537 11.032194 36.418819 26.840957 61.648615 50.732775 9.961127 9.432415 20.011242 17.295406 43.211563 49.089536 35.132285 47.956791 36.726485 78.303601 55.659525 103.701377 5.12749 6.877185 9.56999 11.799314 13.67999 14.269003 39.28713 23.604147 83.44238-15.513505 161.43579-5.369158 48.37079 6.181119 95.35503 37.276424 141.63978 67.921253"/><path d="m4 117.592536c33.66223-7.312912 59.5515301-18.9577388 85.3525249-26.5733115 10.4600306-3.087413 18.3785261-5.9060248 24.4405421-9.6091238 20.771736-12.6882448 17.810751-32.958203 40.632824-39.366589 16.642087-4.6725798 46.029792 10.0133622 83.156623 8.3369826 24.312913-1.0980079 33.582203-11.5080072 54.619545-8.9886008 25.622314 3.0687558 49.498531 22.9565879 74.315061 43.4808362 17.927341 14.8269071 36.183068 29.7367353 57.810261 38.9464573 17.704509 7.538871 25.723728 3.519292 35.580109 12.063576 18.825572 16.318788 14.735936 47.732594 29.23593 79.273544 10.101291 21.973978 26.387397 40.699539 50.452642 54.753902 26.665421 15.571811 61.681894 24.320633 93.232387 27.525517 17.256084 1.755845 33.353162 1.380629 46.968725-1.553381 26.209406-5.64828 34.998536-19.270764 60.417335-26.260286 22.221184-6.110562 46.63551-11.784409 88.982698-7.327423 16.013602 1.685363 32.303157 4.264887 49.179115 11.010483 26.895842 10.832895 37.597332 26.42129 62.881603 49.666028 10.518671 9.669932 21.112539 17.821725 43.757312 48.882427 35.003363 47.818969 34.983363 77.950959 54.162153 103.977685 4.99269 6.774619 9.37967 11.720146 13.5445 14.307962 38.16304 23.717385 82.38326-12.000694 160.74381-1.734424 47.96906 6.174135 95.21787 35.695967 142.5343 64.595203"/><path d="m4 119.334162c34.839226-5.80721 61.1052537-16.495821 86.520585-23.6526757 10.63888-2.9959087 18.545596-5.8231118 24.489431-9.5982472 20.58575-13.0733078 15.859658-34.6344475 38.351713-41.3252873 16.630321-4.9477782 46.035577 10.7950896 83.263376 8.8114149 24.770237-1.3199145 33.386212-12.6010701 54.502525-10.2474875 25.616104 2.8555511 49.272088 23.4466332 73.947113 44.3965605 17.881873 15.1821293 36.146663 30.3670233 57.869434 39.0104243 18.068157 7.190042 25.996261 2.190408 36.154942 10.562082 18.987157 15.648144 14.726776 47.504479 28.732564 79.621478 9.677793 22.193786 25.477426 41.435914 49.432154 55.968111 26.432993 16.035337 61.541296 25.194535 93.173679 28.439353 17.313362 1.779016 33.475904 1.341349 47.064969-1.772101 26.248089-6.013251 34.161014-20.329035 59.98686-27.602739 21.373661-6.020166 45.640932-11.690474 89.218252-6.759981 16.002475 1.81082 32.375449 4.449266 49.319003 11.071656 26.966317 10.620852 38.790514 25.953019 64.116843 48.543678 11.083891 9.887259 22.212629 18.328766 44.301758 48.621808 34.875099 47.629625 33.244769 77.509891 52.665209 104.143264 4.85925 6.663875 9.19139 11.625481 13.40692 14.331687 37.05394 23.782661 81.32465-8.46709 160.05236 1.910384 47.56724 6.159832 95.08205 34.0744 143.43031 61.192456"/><path d="m4 120.78746c36.0157307-4.282821 62.6626932-13.966199 87.6888547-20.647123 10.8184503-2.8880614 18.7113163-5.7182375 24.5383343-9.5496908 20.398357-13.4093975 13.906873-36.1748456 36.06955-43.117632 16.617868-5.2055392 46.042066 11.5288155 83.369479 9.2506168 25.22902-1.5394724 33.190886-13.6409385 54.386879-11.4619718 25.609208 2.6324014 49.044929 23.8439058 73.579813 45.1360361 17.834331 15.4767287 36.11233 30.8673177 57.927939 38.9209507 18.434628 6.805653 26.264705.862077 36.729877 9.02321 19.139804 14.926129 14.723138 47.088286 28.229124 79.654261 9.258368 22.325106 24.568694 42.006097 48.411512 56.959101 26.201225 16.433214 61.40207 25.968433 93.115674 29.23964 17.370654 1.795132 33.596605 1.295527 47.159859-1.98326 26.286095-6.354975 33.326126-21.296954 59.557021-28.833064 20.528076-5.898095 44.647583-11.560515 89.453175-6.167537 15.993421 1.925374 32.44914 4.616349 49.460306 11.089163 27.03681 10.368353 39.993559 25.36615 65.350228 47.232998 11.658866 10.05412 23.314281 18.763785 44.846992 48.172256 34.747513 47.253673 31.512123 76.760687 51.168043 103.899229 4.72717 6.525875 9.00445 11.482645 13.27139 14.29835 35.95777 23.73227 80.2645-4.909911 159.36014 5.53769 47.16469 6.121367 94.94485 32.32203 144.32581 57.559317"/><path d="m4 122.54629c37.1924539-2.779351 64.2225035-11.487662 88.8580706-17.730342 10.9987484-2.786936 18.8756984-5.6379941 24.5872634-9.5384625 20.20681-13.8009149 11.951711-37.8559868 33.787045-45.0722325 16.603355-5.4869945 46.047208 12.3005756 83.47635 9.7246255 25.686517-1.767863 32.994174-14.730353 54.269185-12.7184091 25.603021 2.4215034 48.81708 24.334317 73.213199 46.0492457 17.786795 15.8314749 36.080779 31.4781659 57.985808 38.9826199 18.803933 6.441944 26.529762-.452997 37.305623 7.52445 19.284899 14.275287 14.725032 46.854575 27.725622 79.997869 8.841644 22.541632 23.660523 42.736226 47.389361 58.169174 25.972889 16.891917 61.264248 26.839939 93.058421 30.150889 17.427968 1.817507 33.719419 1.25488 47.25549-2.201554 26.324126-6.721879 32.493196-22.336163 59.127156-30.172264 19.68375-5.791751 43.656176-11.486973 89.688204-5.600072 15.985758 2.043661 32.522868 4.799569 49.600979 11.148431 27.107336 10.156249 41.20649 24.864538 66.585244 46.110611 12.240842 10.248641 24.41544 19.270672 45.392348 47.911569 34.618561 47.062113 29.784051 76.309765 49.670671 104.060526 4.59506 6.411606 8.81888 11.381479 13.13446 14.321483 34.87664 23.755141 79.20562-1.382436 158.66793 9.175788 46.76418 6.106849 94.80909 30.701795 145.22157 54.159765"/><path d="m4 124.311391c38.3700296-1.273494 65.7852777-8.996554 90.0274072-14.810063 11.1804468-2.681513 19.0400918-5.557568 24.6354908-9.5270625 20.013835-14.1967717 9.994841-39.5438629 31.504831-47.0282293 16.588137-5.7721167 46.052317 13.0695292 83.582485 10.198303 26.144068-1.9992344 32.798784-15.8200287 54.153499-13.9753245 25.595433 2.2110235 48.587776 24.8255517 72.845778 46.962692 17.737857 16.1870383 36.049885 32.0808823 58.044331 39.0443993 19.173973 6.070139 26.78932-1.7633 37.880743 6.022538 19.423792 13.63591 14.731745 46.619139 27.221327 80.340524 8.428295 22.758021 22.753566 43.465757 46.369077 59.380297 25.743805 17.349464 61.123595 27.712645 92.999704 31.063329 17.485278 1.840565 33.840848 1.212786 47.351101-2.420743 26.361452-7.090453 31.662866-23.367173 58.696484-31.512432 18.842031-5.676915 42.668025-11.424197 89.924581-5.032579 15.97601 2.160663 32.595202 4.983598 49.741636 11.209647 27.177161 9.943743 42.425797 24.344715 67.818337 44.985534 12.831877 10.430098 25.51814 19.776415 45.939139 47.64842 34.488859 46.870249 28.060499 75.852939 48.173019 104.219578 4.465 6.298485 8.63464 11.279324 12.9975 14.345093 33.8098 23.760397 78.14581 2.149625 157.97549 12.818418 46.36148 6.092905 94.67253 29.079271 146.11804 50.75627"/><path d="m4 126.081865c39.547156.233299 67.3490806-6.493015 91.1963587-11.88649 11.3635703-2.570425 19.2031563-5.478374 24.6851383-9.515543 19.816714-14.5963421 8.034904-41.2365481 29.221595-48.9864764 16.570176-6.0609298 46.056104 13.8357065 83.688741 10.6737524 26.601038-2.2349722 32.602714-16.9100012 54.037175-15.2341172 25.588565 2.0002932 48.357805 25.3177209 72.477698 47.875893 17.689624 16.5441782 36.020412 32.6769772 58.102937 39.1058012 19.545479 5.690275 27.046884-3.067392 38.456695 4.519641 19.557902 13.006047 14.743999 46.38154 26.717675 80.683325 8.01903 22.973001 21.84787 44.193503 45.347305 60.591352 25.517478 17.805923 60.984377 28.585281 92.941786 31.975012 17.542619 1.863627 33.962339 1.171324 47.446787-2.638759 26.398819-7.46003 30.836581-24.387977 58.266507-32.853677 18.002269-5.555679 41.681146-11.371577 90.16042-4.464422 15.969043 2.275005 32.66828 5.168459 49.88169 11.269423 27.247722 9.731585 43.649498 23.810943 69.053789 43.859431 13.429924 10.599207 26.619671 20.283856 46.484006 47.385828 34.361947 46.677649 26.344297 75.389933 46.674497 104.378309 4.33768 6.183791 8.45521 11.1721 12.86191 14.367185 32.75731 23.750204 77.08663 5.686134 157.28382 16.464802 45.95948 6.078185 94.53538 27.453299 147.01347 47.347865"/><path d="m4 127.857469c40.7237538 1.741664 68.9137769-3.977789 92.36543-8.959694 11.547404-2.45297 19.366233-5.399711 24.734084-9.503878 19.616783-14.9995807 6.073949-42.9352638 26.937962-50.9453989 16.5522-6.3541042 46.059856 14.5983487 83.796331 11.1488595 27.05668-2.4736877 32.405896-18.0008779 53.920097-16.4947046 25.581677 1.792077 48.127069 25.8107425 72.110883 48.790763 17.638608 16.900771 35.990215 33.264263 58.160817 39.166032 19.91772 5.301648 27.300328-4.364519 39.032021 3.0158 19.687186 12.385703 14.761766 46.141666 26.213919 81.024668 7.612452 23.187197 20.943389 44.920015 44.32533 61.80283 25.291783 18.26123 60.845088 29.459122 92.884476 32.888584 17.599956 1.885997 34.083824 1.127731 47.541761-2.858346 26.43548-7.830582 30.012898-25.39777 57.836413-34.195867 17.164427-5.428025 40.696836-11.329103 90.396229-3.895609 15.96206 2.387364 32.740653 5.352751 50.022417 11.329794 27.317583 9.51838 44.877506 23.26109 70.288698 42.73154 14.035652 10.753843 27.721362 20.790855 47.029616 47.12092 34.232916 46.484198 24.634696 74.921938 45.176376 104.536442 4.20897 6.06751 8.27644 11.062536 12.72561 14.3891 31.71843 23.724475 76.02582 9.225571 156.59053 20.11477 45.55807 6.064057 94.39951 25.826626 147.911 43.935926"/><path d="m4 129.636017c41.9019774 3.252254 70.4801986-1.450283 93.5348111-6.029833 11.7319739-2.329849 19.5279799-5.32231 24.7830699-9.492132 19.412703-15.4065774 4.109228-44.6388619 24.654678-52.9059576 16.5301-6.6509873 46.061596 15.3582117 83.902665 11.6243726 27.512431-2.7153938 32.209776-19.0913599 53.803759-17.7550822 25.57551 1.5822523 47.894286 26.3047723 71.742718 49.7048332 17.588987 17.258987 35.96075 33.84569 58.220162 39.22673 20.290047 4.904982 27.551087-5.656034 39.606801 1.509704 19.814445 11.77707 14.785076 45.901209 25.710805 81.365771 7.208578 23.402134 20.039475 45.646252 43.303242 63.015099 25.067465 18.715489 60.706545 30.333643 92.827276 33.802852 17.656634 1.909067 34.204681 1.084085 47.636811-3.078137 26.472182-8.202838 29.195331-26.393904 57.406324-35.539184 16.329228-5.29329 39.714484-11.296867 90.631499-3.325494 15.956479 2.497748 32.815151 5.537193 50.163921 11.390144 27.387491 9.304888 46.106464 22.696685 71.5239 41.601491 14.649091 10.895431 28.82396 21.298222 47.575377 46.856088 34.103901 46.290208 22.931741 74.44739 43.678061 104.693284 4.08162 5.950374 8.10111 10.949324 12.58792 14.411624 30.69531 23.68611 74.96632 12.768569 155.89872 23.767641 45.15595 6.049178 94.26374 24.198096 148.80748 40.520169"/><path d="m4 130.418635c43.0796717 4.763644 72.0461326 1.087391 94.7050016-3.096956 11.9165644-2.20036 19.6890474-5.244778 24.8313534-9.480281 19.205813-15.817289 2.14211-46.3478855 22.370309-54.8679716 16.507293-6.9522519 46.063991 16.1159243 84.00964 12.0995592 27.968236-2.9600818 32.01429-20.1813706 53.686671-19.0165556 25.569321 1.3742743 47.662806 26.7990407 71.375817 50.620026 17.537963 17.617395 35.929181 34.419074 58.278089 39.286411 20.66242 4.500264 27.799795-6.939809 40.183026.002765 19.939639 11.178077 14.813901 45.660057 25.206205 81.705725 6.809466 23.617056 19.13816 46.37208 42.282335 64.22866 24.84378 19.168638 60.56586 31.208056 92.768612 34.716326 17.714689 1.932142 34.325532 1.041075 47.73253-3.296737 26.508177-8.576772 28.382437-27.374881 56.976117-36.883505 15.495952-5.152837 38.734703-11.274856 90.867429-2.755461 15.950193 2.606835 32.887564 5.721765 50.304719 11.450442 27.458079 9.091088 47.335587 22.119043 72.758558 40.470582 15.270903 11.022537 29.926027 21.805199 48.121189 46.590527 33.975529 46.094875 21.237469 73.96679 42.180169 104.848559 3.95562 5.833753 7.92919 10.833817 12.45157 14.43472 29.68579 23.637795 73.9059 16.313632 155.20597 27.424653 44.75373 6.034226 94.1265 22.566304 149.70469 37.099877"/><path d="m4 132.204499c44.2576158 6.276504 73.6124175 3.636569 95.8755068-.161149 12.1012012-2.063811 19.8487862-5.168519 24.8803672-9.468357 18.99339-16.231075.171218-48.0624612 20.085591-56.8315849 16.481742-7.2572297 46.064374 16.8708285 84.116741 12.5758322 28.422081-3.2084522 31.817432-21.2723352 53.570321-20.2798522 25.562475 1.1660812 47.428589 27.2950128 71.008257 51.5358059 17.485573 17.976047 35.896271 34.986584 58.336791 39.346593 21.03281 4.086817 28.046508-8.217207 40.758707-1.507053 20.063498 10.590175 14.846892 45.419067 24.702246 82.046879 6.411676 23.832042 18.23672 47.095568 41.259931 65.442326 24.622851 19.621424 60.4273 32.08383 92.710747 35.63187 17.772086 1.954535 34.446447.995942 47.828326-3.516917 26.542833-8.951713 27.576351-28.337984 56.545223-38.228925 14.664629-5.005988 37.75826-11.263127 91.103514-2.184846 15.945997 2.71394 32.960722 5.907176 50.444914 11.510037 27.528713 8.8784 48.565665 21.528928 73.994895 39.338293 15.899741 11.134484 31.028313 22.313924 48.667843 46.325097 33.847189 45.899056 19.550537 73.47971 40.680689 105.004014 3.8303 5.715596 7.76002 10.713284 12.31454 14.456363 28.69271 23.579599 72.84608 19.863494 154.514 31.085122 44.3515 6.019912 93.99004 20.933439 150.60085 33.675953"/><path d="m4 134.70348c45.4364107 7.76023 75.1768328 6.172205 97.04544 2.766637 12.28724-1.91335 20.007155-5.072857 24.92937-9.419248 18.777465-16.58328-1.802073-49.5864877 17.800479-58.5659959 16.453412-7.5369145 46.06472 17.5551178 84.223792 13.0012637 28.87598-3.4462343 31.621897-22.2764588 53.453911-21.4603905 25.555608.9559854 47.193605 27.6829113 70.640579 52.2469807 17.43316 18.263663 35.861257 35.407301 58.394768 39.25123 21.403244 3.650941 28.291859-9.448885 41.33514-3.005116 20.187363 9.972713 14.886092 44.99955 24.198184 82.063111 6.017268 23.953396 17.337187 47.632473 40.237326 66.39584 24.403247 19.994363 60.28798 32.830896 92.6528 36.403952 17.830168 1.969868 34.566665.947714 47.924101-3.721933 26.578163-9.291048 26.779084-29.166171 56.114903-39.420096 13.836608-4.835756 36.783697-11.218182 91.339565-1.607324 15.942479 2.808681 33.033866 6.068129 50.586473 11.524897 27.598648 8.63006 49.792457 20.843515 75.230688 38.054009 16.534885 11.187166 32.130759 22.73274 49.21317 45.87765 33.718101 45.524756 17.872976 72.699692 39.180941 104.746915 3.70702 5.573939 7.59563 10.548234 12.17884 14.421112 27.71257 23.421987 71.78465 23.324803 153.82041 34.612599 43.94918 5.981284 93.85349 19.223095 151.49912 30.130427"/><path d="m5 136.495365c46.6147696 9.269986 76.7409144 8.731426 98.215693 5.696597 12.472634-1.762559 20.165576-4.997365 24.978412-9.407211 18.556695-17.002904-3.779146-51.3031617 15.5157-60.524877 16.422336-7.8487672 46.063054 18.3027569 84.330281 13.4757168 29.329299-3.6995814 31.42637-23.362874 53.336858-22.7201881 25.549462.7502599 46.958643 28.1781913 70.272932 53.1595033 17.380761 18.62341 35.824212 35.961448 58.454209 39.311414 21.771696 3.222394 28.535906-10.705685 41.911033-4.511214 20.314036 9.406522 14.93015 44.757695 23.693379 82.401712 5.626254 24.1683 16.439599 48.352461 39.215293 67.606145 24.185019 20.443894 60.148713 33.703773 92.595653 37.316467 17.886902 1.992878 34.686946.902657 48.019262-3.940933 26.611462-9.667182 25.992077-30.080735 55.684583-40.762285 13.01054-4.68016 35.813164-11.226316 91.575774-1.037814 15.938981 2.912774 33.107065 6.252397 50.726741 11.584897 27.66932 8.416289 51.018135 20.230814 76.466783 36.923409 17.177751 11.267001 33.234118 23.239439 49.75934 45.611391 33.589734 45.329354 16.205517 72.200797 37.682364 104.899856 3.58305 5.455935 7.4347 10.422269 12.04176 14.443883 26.74956 23.349772 70.72452 26.866616 153.1276 38.264637 43.54753 5.966221 93.71773 17.593182 152.39635 26.713529"/><path d="m5 138.288579c47.7933131 10.781167 78.3024747 11.300667 99.386115 8.629349 12.658056-1.603342 20.322637-4.922482 25.028147-9.395145 18.331048-17.425657-5.760693-53.0248289 13.229844-62.4862057 16.387108-8.1643527 46.060686 19.0496964 84.436764 13.9519778 29.781997-3.9566134 31.229421-24.413029 53.221154-23.9818375 25.541928.5884902 46.67736 28.7145956 69.905204 54.0734864 17.292438 19.013131 35.783007 36.508468 58.512263 39.3702 22.137442 2.786532 28.779987-11.954009 42.487012-6.018744 20.442105 8.8515 14.979045 44.517593 23.189173 82.740479 5.237935 24.384742 15.542546 49.073044 38.193078 68.817476 23.967439 20.893126 60.009408 34.5788 92.537091 38.230475 17.944332 2.015907 34.806548.856864 48.115807-4.160136 26.64476-10.045037 25.217362-30.96645 55.254177-42.105679 12.186401-4.519577 34.844529-11.245475 91.810617-.467067 15.936859 3.014891 33.180958 6.436827 50.868399 11.644241 27.739996 8.202298 52.237789 19.605761 77.702374 35.790966 17.828316 11.331713 34.337654 23.747269 50.306279 45.34479 33.460632 45.132989 14.548133 71.695766 36.182842 105.054122 3.46042 5.336426 7.27856 10.292024 11.90465 14.465958 25.80089 23.273303 69.6642 30.412455 152.43532 41.920094 43.14512 5.951133 93.58123 15.962365 153.29369 23.292621"/><path d="m5 140.085276c48.9720657 12.29436 79.8622442 13.879817 100.557448 11.564788 12.842132-1.436367 20.477658-4.848169 25.076516-9.383664 18.100534-17.850014-7.744645-54.7496611 10.943609-64.4473796 16.349805-8.4836057 46.057638 19.7943895 84.544667 14.4271682 30.233396-4.2159192 31.033138-25.5081059 53.103372-25.2461886 25.53647.3765446 46.450602 29.2039621 69.537432 54.99023 17.245543 19.365758 35.740423 37.050807 58.571724 39.428646 22.501183 2.343328 29.024806-13.194419 43.063096-7.527638 20.573655 8.304836 15.032788 44.278196 22.684889 83.079423 4.851625 24.601145 14.646729 49.791746 37.170012 70.029262 23.751901 21.341883 59.869403 35.452927 92.479923 39.144272 18.001085 2.038937 34.917201.788932 48.211-4.380194 26.660113-10.466634 24.458408-31.816109 54.823022-43.44923 11.366961-4.354655 33.879885-11.274202 92.047594.103534 15.935431 3.117075 33.25349 6.621368 51.008712 11.704215 27.810691 7.988021 53.454899 18.969565 78.939572 34.657782 18.48383 11.377736 35.440693 24.25396 50.852632 45.077481 33.33222 44.936674 12.902907 71.183325 34.68239 105.206787 3.33916 5.216061 7.12723 10.157411 11.76821 14.487218 24.86795 23.195149 68.60233 33.961342 151.74227 45.579278 42.74265 5.93666 93.44472 14.329155 154.19191 19.868934"/><path d="m5 140.883046c50.1510024 13.808929 81.4187997 16.468238 101.728951 14.502932 13.026234-1.260254 20.632008-4.773772 25.124885-9.370764 17.865142-18.278859-9.73238-56.4793959 8.65768-66.411577 16.308348-8.807275 46.053195 20.536958 84.651184 14.9034507 30.684172-4.4782169 30.838194-26.6048209 52.987627-26.5070877 25.531005.1591514 46.222412 29.6891423 69.169581 55.902421 17.198636 19.719347 35.692297 37.58871 58.629796 39.487723 22.862907 1.892797 29.269659-14.426972 43.639267-9.037919 20.710055 7.767306 15.091369 44.038447 22.181205 83.417753 4.467321 24.819058 13.785982 50.474373 36.146764 71.242665 23.573616 21.750945 59.73005 36.327765 92.42134 40.058116 18.059223 2.061983 35.039604.749247 48.306885-4.599063 26.697565-10.832658 23.720041-32.625036 54.393163-44.794599 10.550835-4.186114 32.917833-11.313281 92.283204.674667 15.93469 3.217273 33.327406 6.806061 51.150417 11.76352 27.8807 7.774212 54.66529 18.323055 80.176265 33.523442 19.144973 11.407196 36.543906 24.762433 51.399062 44.809791 33.203084 44.739355 11.269834 70.661913 33.182364 105.359289 3.21857 5.09626 6.97933 10.019191 11.63175 14.508456 23.95073 23.116163 67.54096 37.514131 151.04837 49.242432 42.34079 5.921467 93.30887 12.694382 155.09024 16.441306"/><path d="m5 142.683414c51.3308933 15.324118 82.9715783 19.065162 102.900092 17.444388 13.209694-1.074989 20.785029-4.700658 25.174676-9.359173 17.623517-18.708675-11.725987-58.2124414 6.370687-68.3764746 16.263451-9.1346415 46.039141 21.2213576 84.757829 15.3800779 31.128157-4.7897799 30.642567-27.7023791 52.871242-27.7722323 25.524881-.0551937 45.994934 30.17714 68.801756 56.818347 17.151052 20.072446 35.640756 38.122033 58.688646 39.54591 23.220576 1.43493 29.515972-15.651589 44.21559-10.548846 20.851341 7.237521 15.226653 43.787832 21.676084 83.75517 4.13131 25.030797 12.878139 51.211888 35.124082 72.456043 23.344218 22.218969 59.590751 37.204562 92.364248 40.974623 18.116705 2.084345 35.160692.70952 48.40285-4.819488 26.734366-11.198951 23.005756-33.381304 53.961919-46.140924 9.73873-4.014627 31.959806-11.361996 92.519665 1.246324 15.934659 3.317542 33.400688 6.990881 51.29083 11.823495 27.951448 7.559465 55.87043 17.664775 81.413271 32.387147 19.81385 11.420029 37.648043 25.270528 51.945651 44.542259 33.074662 44.542259 9.652388 70.131276 31.682132 105.510568 3.09865 4.976313 6.839 9.878014 11.49459 14.530311 23.05134 23.036955 66.48018 41.069271 150.35663 52.907966 41.93753 5.90622 93.17172 11.058014 155.98753 13.011095"/><path d="m5 144.484765c88.4759595 28.375144 118.752231 22.653529 129.294492 11.04096 17.377701-19.141628-13.721311-59.9490848 4.084685-70.343098 16.214399-9.4657541 46.040961 22.018333 84.865161 15.857125 31.583261-5.0124603 30.446899-28.8009131 52.75344-29.039752 44.777493-.4730798 73.324699 95.124471 127.181343 97.340404 23.576227.970421 29.765081-16.868326 44.79269-12.061147 34.083947 10.902033-2.374271 101.185767 55.272088 157.763951 35.900745 35.235138 103.697682 52.881046 140.804559 36.851125 26.771856-11.565569 22.326574-34.07395 53.531969-47.488434 8.932011-3.840214 31.004372-11.419729 92.756141 1.818503 60.713499 13.015671 144.679933 31.016847 186.574727 87.407029 32.945515 44.344933 8.048482 69.593856 30.180945 105.662561 24.171 39.38984 97.36238 80.164812 317.90776 80.706008"/><path d="m5 146.086485c87.1324043 28.493544 117.892657 23.889886 128.989972 12.96077 18.050666-17.776979-11.643028-57.422541 6.32958-67.2302434 11.83092-6.4565766 30.178619 7.0341905 53.428065 13.0180484 9.725434 2.502993 20.277037 3.65477 31.524251 1.71973 31.166428-5.269605 30.508119-28.6991938 52.503806-29.5314546 17.705969-.6700872 32.936888 13.1733212 48.361224 30.9344276 23.321977 26.855246 46.157648 62.141445 79.29486 64.153777 23.192111 1.407805 29.653629-15.799152 44.747774-10.887709 2.805242.903341 5.149044 2.360832 7.139861 4.286902 22.218808 21.491098-2.021211 99.569715 50.71746 149.210687 17.68041 16.641074 42.537982 28.944179 67.109573 35.56845 26.85046 7.23915 53.999336 7.605593 73.043338-.623161 26.736483-11.558487 22.822546-33.820426 53.488853-46.751522 3.152701-1.329823 7.865175-3.089578 15.253023-4.155783 14.002029-2.021303 36.7403-1.458872 75.591611 7.759486 58.753948 14.047678 139.728775 33.535415 181.232666 89.846894 5.182201 7.015558 8.949693 13.558397 11.71556 19.745835 14.319785 32.217324.613409 54.725629 19.462613 84.465494 24.85343 39.212178 98.39481 79.458127 316.06591 80.422887"/><path d="m5 148.721191c85.7896074 28.60923 117.00203 25.13754 128.685447 14.874044 18.675233-16.4063-9.549677-54.889762 8.575024-64.1218796 12.190431-6.2089435 30.576237 6.9364896 53.579736 12.4530246 9.767265 2.341788 20.29436 3.207127 31.460403 1.167105 30.732348-5.61299 30.572783-28.6023406 52.253488-30.0209175 17.650843-1.1547036 32.892336 11.6021537 48.49233 28.8972165 23.452489 26.001502 45.837072 61.242699 79.63775 63.939993 22.803871 1.819554 29.528364-14.686646 44.702853-9.716459 2.755419.901854 5.088096 2.341099 7.109243 4.23575 22.975178 21.537704.725292 97.535255 53.333828 144.995918 18.040429 16.274708 42.978039 27.960915 66.959646 34.214641 26.752913 6.977138 53.645358 6.993674 72.541631-1.171928 26.700416-11.549792 23.323318-33.557369 53.44573-46.01246 3.180923-1.315921 7.872526-3.031442 15.168273-3.960165 14.110037-1.796129 36.209339-.485031 73.764266 9.341663 56.795198 15.075221 134.7779 36.04384 175.892285 92.272948 5.103983 6.951646 8.865831 13.438242 11.647498 19.590002 14.295851 31.62138 1.436078 53.996175 20.526449 83.165533 25.54548 39.032566 99.42717 78.747207 314.22412 80.13478"/><path d="m4 149.645074c84.4462324 28.837676 116.079724 26.497433 128.380985 16.847125 19.247961-15.100747-7.444719-52.561207 10.820329-61.264093 12.556832-5.9828457 30.977986 6.859833 53.731416 11.936689 9.810478 2.189015 20.314453 2.787713 31.395879.619415 30.306594-5.931055 30.644362-28.628442 52.002512-30.6296293 17.601944-1.6497021 32.845727 10.0763719 48.624137 26.9725253 23.578856 25.250316 45.504097 60.570099 79.981336 63.977918 22.410826 2.215255 29.410022-13.654754 44.657949-8.582732 2.706982.899775 5.027844 2.329194 7.077939 4.20056 23.738415 21.66641 3.519975 95.86088 55.95005 141.350258 18.412174 15.974971 43.422228 27.08094 66.810442 32.994732 26.65607 6.740369 53.291419 6.4096 72.038598-1.725662 26.665741-11.586585 23.828902-33.419415 53.403318-45.45416 3.210526-1.307194 7.881953-2.982446 15.083533-3.780021 14.222189-1.575124 35.705361.390156 71.937752 10.962336 54.880104 16.014333 129.827379 38.695837 170.550914 95.063305 5.027153 6.914385 8.777142 13.373704 11.580136 19.511231 14.234622 31.16618 2.267676 53.475483 21.590236 82.192314 26.245779 39.00589 100.460179 78.345312 312.382539 80.162815"/><path d="m4 151.349417c83.1035717 28.948353 115.123547 27.75656 128.075758 18.751601 19.766764-13.741799-5.326763-50.004958 13.066178-58.153812 12.930798-5.729426 31.383831 6.748205 53.883047 11.371311 9.855754 2.024462 20.333838 2.358081 31.331337.068241 29.879462-6.222273 30.720058-28.5458041 51.752204-31.1134306 17.55718-2.1423312 32.796335 8.5086666 48.755901 24.9380296 23.699672 24.396244 45.159369 59.633731 80.324151 63.752962 22.015719 2.579344 29.291667-12.56724 44.612326-7.414065 2.659927.894706 4.968974 2.309141 7.047323 4.14956 24.507804 21.703165 6.362138 93.770412 58.566067 137.124356 18.797006 15.611169 43.86843 26.085018 66.660508 31.640052 26.564741 6.475244 52.938155 5.799045 71.536927-2.272608 26.629668-11.576722 24.337889-33.137203 53.360179-44.711167 3.239435-1.29174 7.892754-2.91641 14.998788-3.582959 14.336395-1.345506 35.187575 1.33034 70.110609 12.538978 52.941608 16.99045 124.877766 41.189555 165.211138 97.465726 4.949634 6.849532 8.68638 13.254468 11.512078 19.353356 14.169934 30.584051 3.108199 52.732501 22.653936 80.88196 26.955685 38.817689 101.493055 77.623659 310.541545 79.862492"/><path d="m4 152.331009c81.7609802 29.173775 114.134947 29.126802 127.771216 20.731734 20.233039-12.455481-3.19858-47.635602 15.31119-55.273573 13.312336-5.493785 31.794479 6.657061 54.03535 10.850796 9.902405 1.867873 20.352527 1.939024 31.266101-.482856 29.453044-6.534794 30.800578-28.5859209 51.502594-31.7199966 17.516559-2.6512195 32.742103 6.9741306 48.886264 23.0002616 23.815641 23.640615 44.806365 58.918827 80.66762 63.781929 21.61856 2.931677 29.174005-11.530525 44.568078-6.273678 2.611494.891799 4.909416 2.296158 7.016017 4.114295 25.283355 21.821788 9.250395 92.022459 61.181216 133.440337 19.194933 15.3091 44.318048 25.184512 66.511261 30.409583 26.474794 6.233613 52.584213 5.211256 71.033892-2.82875 26.595664-11.612037 24.850984-32.9786 53.318415-44.143702 3.268339-1.28209 7.904934-2.859835 14.914044-3.402098 14.454735-1.115613 34.669125 2.279579 68.28426 14.166547 51.003916 18.036305 119.792379 43.944066 159.869598 100.255884 4.856233 6.822849 8.597003 13.1884 11.445404 19.271422 14.103866 30.1236 3.956266 52.196142 23.717564 79.892336 27.673136 38.782546 102.525846 77.20934 308.699916 79.87852"/><path d="m4 155.127373c80.4184587 29.27834 113.113926 30.371022 127.466669 22.625739 20.648169-11.14259-1.061555-45.055691 17.556055-52.1626 13.700063-5.230392 32.208547 6.53058 54.18694 10.285681 9.951125 1.700032 20.371903 1.511829 31.201555-1.032015 29.025956-6.817366 30.883849-28.518634 51.251608-32.195144 17.481463-3.1553326 32.686488 5.411701 49.018682 20.967069 23.926073 22.787745 44.445088 57.940367 81.009669 63.544408 21.220041 3.251847 29.056345-10.446997 44.523133-5.106992 2.563755.885175 4.851933 2.272915 6.985403 4.061189 26.065067 21.84604 12.18474 89.863202 63.796875 129.200414 19.606644 14.94319 44.770392 24.173416 66.362703 29.05222 26.388299 5.963902 52.2289 4.60167 70.530875-3.37249 26.559585-11.599655 25.366804-32.677026 53.275951-43.392885 3.297243-1.266407 7.917112-2.788577 14.828612-3.205658 14.575138-.87966 34.154846 3.219446 66.458015 15.73392 49.069791 19.009895 114.819872 46.435847 154.529059 102.628613 4.77665 6.758078 8.506941 13.066675 11.378042 19.109856 14.035036 29.537551 4.812565 51.438052 24.781809 78.568257 28.398835 38.58302 103.557865 76.473894 306.858345 79.563045"/><path d="m4 156.192718c79.0753594 29.498841 112.064692 31.725103 127.162184 24.609076 21.018389-9.905936 1.084312-42.643667 19.800782-49.259597 14.093295-4.980943 32.626053 6.423213 54.33854 9.760879 10.001916 1.537593 20.391283 1.092755 31.137023-1.584563 28.598905-7.124316 30.970579-28.573937 51.001345-32.797826 17.448447-3.678893 32.626744 3.870229 49.150418 19.016136 24.031671 22.028463 44.077632 57.176885 81.352414 63.560726 20.820174 3.565612 28.939393-9.405148 44.478897-3.960717 2.515328.882078 4.793765 2.258728 6.954101 4.024956 26.851574 21.952481 15.163104 88.030272 66.41239 125.475413 20.029386 14.634066 45.224793 23.251076 66.212793 27.810666 26.304583 5.715893 51.875011 4.01045 70.027915-3.930323 26.525589-11.633482 25.888124-32.497354 53.234199-42.814972 3.326835-1.255769 7.930672-2.724978 14.744573-3.022688 14.696227-.6417 33.639229 4.174847 64.630526 17.365262 47.138569 20.061229 109.849104 49.110396 149.190295 105.409348 4.696384 6.720923 8.414815 12.997698 11.309997 19.024425 13.964835 29.070581 5.676408 50.88146 25.845304 77.558619 29.133464 38.534441 104.589844 76.042439 305.016304 79.562462"/><path d="m4 158.109859c77.7329791 29.593899 110.988509 32.928054 126.857625 26.488545 21.349894-8.664117 3.237637-40.041562 22.045351-46.148895 14.491325-4.705583 33.046961 6.281691 54.490089 9.195458 10.053387 1.365915 20.409958.669175 31.073164-2.130882 28.171169-7.397441 31.057279-28.519499 50.750371-33.261607 17.418182-4.194226 32.563526 2.314888 49.281417 16.98641 24.13172 21.177191 43.706024 56.150671 81.695769 63.306217 20.420317 3.846201 28.821735-8.325739 44.43325-2.797989 2.468283.873855 4.736977 2.234256 6.923487 3.970939 27.644224 21.961455 18.185463 85.791433 69.027686 121.21838 20.465898 14.260095 45.682586 22.224025 66.062846 26.451331 26.224996 5.440227 51.521796 3.402382 69.526316-4.471269 26.489504-11.617166 26.411464-32.172735 53.191029-42.054597 3.357115-1.239109 7.951133-3.146014 14.659837-2.826933 14.810393.7057 33.126383 5.114255 62.80449 18.920882 45.2102 21.032467 104.879956 51.57465 143.850384 107.74255 4.616119 6.653837 8.324069 12.872815 11.241948 18.857479 13.891174 28.481595 6.548479 50.105361 26.909402 76.219003 29.877699 38.319351 105.623069 75.287949 303.175539 79.225119"/><path d="m4 159.288581c76.3900212 29.807162 109.890333 34.240475 126.552438 28.471369 21.648927-7.495627 5.397038-37.588586 24.289781-43.223767 14.894859-4.442287 33.470616 6.157763 54.642339 8.66712 10.10693 1.197726 20.428636.24921 31.007937-2.685392 27.744161-7.696513 31.146747-28.589415 50.50081-33.85734 17.389307-4.734298 32.496871.771101 49.413116 15.025079 24.226246 20.414502 43.331003 55.331502 82.038438 63.304839 20.021183 4.124734 28.704787-7.280933 44.388311-1.646442 2.420553.869128 4.680196 2.218037 6.892187 3.932822 28.441668 22.05266 21.24907 83.86293 71.642838 117.447589 20.915509 13.939877 46.142434 21.279488 65.91362 25.199194 26.147495 5.183704 51.16793 2.807581 69.024082-5.02976 26.454121-11.647974 26.93685-31.970662 53.14788-41.46411 3.388084-1.22672 7.977811-3.108566 14.575803-2.641211 14.911433 1.056208 32.614963 6.076994 60.977902 20.551879 43.28266 22.089248 99.913236 54.241467 138.511557 110.503537 4.536551 6.614073 8.231951 12.800829 11.174598 18.76668 13.815451 28.006775 7.426711 49.526499 27.97275 75.185455 30.630183 38.251994 106.654183 74.834076 301.333613 79.203878"/><path d="m3 160.529274c75.0477442 30.016697 108.774134 35.527202 126.247799 30.457122 21.923742-6.361626 7.561817-35.110975 26.534724-40.282 15.30111-4.171252 33.896272 6.023529 54.793126 8.134391 10.161147 1.026046 20.44798-.170086 30.944056-3.241311 27.316457-7.992653 31.236171-28.664998 50.249822-34.449991 17.361792-5.283033 32.427415-.776449 49.544743 13.055126 24.3159 19.649065 42.955258 54.480712 82.380979 63.294755 19.623431 4.38697 28.587808-6.233025 44.343318-.492281 2.372822.864948 4.624102 2.201436 6.861571 3.895381 29.243856 22.136051 24.352501 81.879054 74.257725 113.647081 21.377495 13.608943 46.604957 20.321803 65.763629 23.938547 26.073418 4.92281 50.814023 2.211808 68.521794-5.589325 26.418706-11.676463 27.466311-31.755582 53.105356-40.864164 3.417665-1.214109 8.005857-3.062237 14.490373-2.455874 15.01245 1.403554 32.105607 7.044735 59.152738 22.18445 41.357955 23.15311 94.948096 56.908238 133.172213 113.258512 4.458364 6.571813 8.139829 12.725326 11.107238 18.672108 13.736954 27.527635 8.311782 48.933562 29.035302 74.136691 31.391554 38.175977 107.687164 74.369003 299.493494 79.171508"/><path d="m3 162.675211c73.7049309 30.095007 107.644984 36.629726 125.943291 32.30749 22.180604-5.23991 9.730601-32.47296 28.77885-37.169574 15.711491-3.873396 34.324692 5.857667 54.945333 7.568222 10.216751.848038 20.465958-.586732 30.878135-3.781698 26.890875-8.250789 31.325615-28.627142 50.000274-34.892282 17.334294-5.816299 32.35454-2.315902 49.675713 11.031389 24.400736 18.802312 42.578887 53.371926 82.724261 63.007843 19.226412 4.615258 28.471553-5.160621 44.298367.663263 2.325787.855622 4.568017 2.174562 6.830273 3.839612 30.050851 22.117934 27.493728 79.504596 76.871812 109.356223 21.853281 13.211466 47.070252 19.269077 65.615088 22.575736 26.002822 4.636631 50.459492 1.605067 68.019597-6.123799 26.383317-11.655352 27.999214-31.396711 53.062192-40.087377 3.449319-1.196216 8.03529-2.993643 14.406343-2.260055 15.1114 1.738822 31.596312 7.983278 57.325674 23.719553 39.436174 24.117373 89.985439 59.320602 127.834029 115.514495 4.378805 6.501625 8.04772 12.595777 11.039891 18.496191 13.656402 26.930377 9.203017 48.125122 30.09919 72.766486 32.161187 37.927982 108.718797 73.579361 297.651687 78.793071"/><path d="m3 164.069163c72.3628023 30.29423 106.507483 37.848805 125.638641 34.284128 22.427061-4.178348 11.903371-29.959438 31.02279-34.210266 16.124586-3.584696 34.755109 5.707348 55.096768 7.032712 10.273719.669585 20.485289-1.005068 30.81425-4.337115 26.463905-8.537553 31.41225-28.714148 49.749297-35.474194 17.306776-6.380385 32.278176-3.860123 49.807302 9.055273 24.48001 18.036684 42.205247 52.45749 83.066031 62.975495 18.832848 4.847243 28.35665-4.11277 44.254052 1.818924 2.278062.850442 4.51331 2.156478 6.799658 3.800067 30.861896 22.182589 30.669929 77.41437 79.486319 105.512085 22.340055 12.858101 47.538217 18.287952 65.465779 21.304535 25.933578 4.364727 50.104921 1.007829 67.515967-6.681353 26.347896-11.679769 28.534807-31.157787 53.020341-39.473065 3.479586-1.181783 8.064711-2.926846 14.321611-2.072952 15.208942 2.075023 31.087009 8.957251 55.500038 25.346204 37.513781 25.184676 85.024377 61.967667 122.495344 118.232128 4.300627 6.457697 7.954916 12.517096 10.971845 18.394947 13.574456 26.443771 10.102467 47.506013 31.162968 71.691144 32.939709 37.826715 109.750219 73.086918 295.810999 78.73214"/><path d="m3 165.539816c71.0208269 30.489118 105.366008 39.032676 125.33343 36.259682 22.668689-3.148209 14.078769-27.425211 33.267298-31.238855 16.539049-3.287101 35.187601 5.54737 55.248241 6.495426 10.330692.487848 20.504638-1.422775 30.749706-4.893682 26.038369-8.820651 31.498216-28.805834 49.499071-36.050308 17.276512-6.95287 32.198392-5.405024 49.938925 7.072414 24.554467 17.270233 41.833741 51.509423 83.408542 62.9317 18.440018 5.065741 28.241089-3.062525 44.209089 2.977531 2.231031.843714 4.457229 2.137272 6.767669 3.759746 31.677749 22.237853 33.879088 75.267482 82.10072 101.639605 22.840626 12.491258 48.008264 17.293037 65.316539 20.027335 25.869885 4.087281 49.751798.408382 67.014499-7.239637 26.312501-11.702824 29.072462-30.905792 52.977851-38.84956 3.511234-1.167104 8.029228-2.245069 14.236205-1.885747 15.468762.89554 30.57846 9.935929 53.673883 26.972604 35.592239 26.255343 80.066483 64.606691 117.157815 120.934476 4.222456 6.411816 7.861434 12.435978 10.904503 18.290154 13.489075 25.951302 11.006699 46.873485 32.226012 70.60114 33.727172 37.71217 110.783042 72.579481 293.970002 78.65616"/><path d="m3 167.089891c69.6788874 30.677369 105.171184 44.747685 125.028835 38.232254 21.866962-7.175204 16.255392-24.872197 35.51025-28.256818 16.956925-2.980044 35.641442 7.023055 55.400353 5.955246 10.377986-.560184 20.523969-1.838927 30.685143-5.448314 25.613531-9.099196 31.581391-28.902759 49.248134-36.62155 17.245547-7.534137 32.116517-6.948364 50.070501 5.08454 24.624758 16.503315 41.467752 50.526577 83.751657 62.875536 18.049962 5.271268 28.125516-2.011132 44.164095 4.13845 2.183313.83751 4.402531 2.116944 6.73706 3.717966 32.496974 22.284282 37.117698 73.063288 84.714884 97.741841 23.351503 12.107595 48.480315 16.286157 65.166569 18.744053 25.808249 3.80234 49.39797-.192952 66.511634-7.797631 26.277778-11.723073 29.61351-30.641407 52.935323-38.218422 3.542877-1.150799 8.046219-2.156365 14.151485-1.697844 15.601503 1.17293 30.06923 10.918759 51.8485 28.59777 33.670107 27.329402 75.11093 67.23806 111.820552 123.618912 4.14429 6.364666 7.767263 12.352417 10.837158 18.182486 13.400928 25.454512 11.915696 46.225604 33.28896 69.494705 34.522857 37.584929 111.813647 72.058414 292.128907 78.566929"/><path d="m3 169.596449c68.336371 30.729188 103.817815 45.708246 124.724303 40.027532 22.371648-6.078308 18.433255-22.205361 37.753753-25.15528 17.374087-2.65224 36.107002 6.821817 55.551783 5.390614 10.420447-.767627 20.543996-2.245687 30.620593-5.979082 25.189423-9.332798 31.660429-28.87834 48.998612-37.026622 17.209066-8.089022 32.029826-8.452852 50.201395 3.080154 24.690219 15.670198 41.107326 49.29418 84.094087 62.538153 17.66339 5.441605 28.011339-.956433 44.119119 5.276228 2.136979.826887 4.347837 2.087201 6.705764 3.660353 33.320298 22.225345 40.384412 70.498319 87.32959 93.417559 23.874093 11.655661 48.953731 15.200939 65.016631 17.380476 25.749387 3.494975 49.044182-.791056 66.009516-8.319173 26.242376-11.690804 30.155912-30.234434 52.892124-37.418015 3.575211-1.129389 8.064592-2.055503 14.067466-1.502178 15.73355 1.450498 29.557973 11.854804 50.022566 30.089729 31.746046 28.286426 70.157119 69.559802 106.483687 125.742639 4.066129 6.289854 7.673101 12.215188 10.769131 17.99375 13.31141 24.846576 12.830849 45.368534 34.351848 68.081052 35.326782 37.282268 112.846292 71.216332 290.288032 78.125662"/><path d="m3 170.313909c66.9945837 30.906084 102.467909 46.766211 124.419696 41.981838 22.872141-4.984296 20.611647-19.629717 39.997076-22.167365 17.792588-2.328762 36.571812 6.627115 55.70316 4.849176 10.461517-.972041 20.564006-2.657602 30.556026-6.531289 24.766702-9.601837 31.735984-28.980615 48.748377-37.582835 17.169813-8.682878 31.941045-9.983759 50.332933 1.094063 24.751513 14.908768 40.755177 48.243576 84.43643 62.458817 17.280283 5.623361 27.897148.09031 44.074112 6.432706 2.089265.819686 4.293143 2.065415 6.675155 3.617234 34.146303 22.25147 43.673658 68.190412 89.941982 89.489144 24.409056 11.236383 49.43053 14.173877 64.867344 16.093831 25.693961 3.194638 48.690381-1.390501 65.508071-8.87315 26.206266-11.707237 30.700327-29.946452 52.848889-36.77349 3.607539-1.111988 8.081577-1.960628 13.982751-1.313979 15.865576 1.739333 29.046038 12.840595 48.198099 31.699573 29.817947 29.363226 65.205658 72.157856 101.14572 128.376306 3.98866 6.239677 7.578248 12.127075 10.701789 17.879353 13.219127 24.343083 13.752145 44.695281 35.415329 66.950198 36.138911 37.125079 113.877401 70.668773 288.447061 78.00596"/><path d="m2 172.1075c65.6528738 31.077697 101.131192 47.733334 124.115083 43.930252 23.366381-3.866524 22.789194-17.041117 42.240236-19.173326 18.211747-1.996359 37.035202 6.409038 55.855204 4.306482 10.503273-1.17368 20.584702-3.06936 30.491456-7.083456 24.344007-9.865256 31.806005-29.085474 48.49746-38.132879 17.125726-9.283243 31.849501-11.509926 50.464451-.893017 24.809346 14.149672 40.412708 47.156837 84.77873 62.367786 16.90065 5.794614 27.785031 1.136442 44.028408 7.589614 2.042936.810956 4.240524 2.042562 6.644547 3.573449 34.976387 22.2682 46.984072 65.828832 92.556247 85.542795 24.952952 10.794823 49.907976 13.135287 64.718053 14.801333 25.640605 2.885929 48.335903-1.990153 65.005265-9.425988 26.171534-11.72094 31.247459-29.6468 52.806335-36.120659 3.640555-1.093688 8.09925-1.863269 13.89873-1.125409 15.995518 2.034976 28.529298 13.829702 46.371674 33.305757 27.887214 30.441896 60.257977 74.742457 95.809479 130.988764 3.911197 6.187679 7.48271 12.037461 10.634451 17.761047 13.124775 23.836325 14.676827 44.008865 36.478038 65.806766 36.958563 36.953682 114.908413 70.10842 286.606153 77.873189"/><path d="m2 173.972994c64.3105517 31.244247 99.816637 48.615725 123.809773 45.872207 23.850225-2.726966 24.967277-14.441059 44.483922-16.174896 18.629493-1.655215 37.358402 4.600807 56.006536 3.762855 10.623727-.477254 20.605391-3.47871 30.426194-7.634678 23.924096-10.123018 31.872561-29.191781 48.247929-38.676161 17.076806-9.890598 31.755195-13.029988 50.595257-2.881453 24.863718 13.394135 40.081993 46.03428 85.120988 62.267109 16.524494 5.955324 27.672917 2.180055 43.984079 8.744361 1.995919.803469 4.185837 2.020741 6.61325 3.529745 35.809166 22.275052 50.312887 63.414724 95.169619 81.580706 25.506472 10.329919 50.38814 12.085136 64.568758 13.507242 25.590009 2.565583 47.98213-2.590411 64.503171-9.978186 26.135417-11.732714 31.795927-29.335922 52.763082-35.462976 3.673568-1.07313 8.115539-1.762114 13.814021-.935886 16.125447 2.337991 28.010517 14.821069 44.546747 34.907099 25.951083 31.522185 55.312694 77.31508 90.473585 133.579966 3.833737 6.136019 7.387176 11.946512 10.566424 17.640451 13.026976 23.326803 15.606964 43.310072 37.540666 64.652687 37.787139 36.767146 115.940699 69.53626 284.765999 77.726814"/><path d="m2 175.907068c62.9683436 31.406586 98.614046 45.22576 123.504525 47.807113 24.242226 2.513769 27.143837-11.831607 46.727468-13.173662 19.046526-1.305505 37.791362 4.39168 56.157877 3.218588 10.682043-.682062 20.627465-3.886168 30.361635-8.184057 23.505604-10.377828 31.93291-29.301089 47.997052-39.214095 17.021681-10.503344 31.659525-14.543994 50.726762-4.868917 24.915333 12.642633 39.763739 44.874729 85.463941 62.155937 16.152509 6.107526 27.560819 3.221348 43.939077 9.898523 1.949596.794475 4.131845 1.996532 6.581956 3.485483 36.644663 22.272883 53.654607 60.951122 97.782844 77.60475 26.068936 9.838524 50.869668 11.024719 64.418804 12.210225 25.543567 2.23446 47.629087-3.189624 64.001132-10.527483 26.100693-11.744022 32.34713-29.014885 52.721231-34.799656 3.705889-1.052403 8.131139-1.659294 13.728632-.746889 16.253302 2.64825 27.487639 15.814327 42.72127 36.503088 24.008191 32.603815 50.370533 79.874383 85.138088 136.151068 3.757666 6.082699 7.290272 11.853676 10.499787 17.516379 12.927116 22.814947 16.539805 42.599579 38.603233 63.488338 38.622566 36.565846 116.970896 68.952422 282.924686 77.568199"/><path d="m2 176.906093c61.6275603 31.562834 97.5260576 46.181374 123.199893 49.733787 24.546506 3.397271 29.318844-9.214072 48.970132-10.171128 19.462824-.947402 38.224261 4.175741 56.309162 2.674653 10.739657-.890861 20.649523-4.29158 30.297749-8.732786 23.087122-10.626901 31.987017-29.410839 47.746845-39.745383 16.958952-11.121977 31.560385-16.050675 50.857527-6.85591 24.964164 11.894931 39.459974 43.68117 85.806114 62.035536 15.78468 6.251199 27.450777 4.259862 43.894044 11.050957 1.903274.786054 4.078543 1.97203 6.55135 3.440711 37.483523 22.260503 57.006408 58.438992 100.395121 73.618802 26.639624 9.319569 51.351813 9.953929 64.270191 10.911674 25.496417 1.889288 47.27396-3.788919 63.498388-11.07578 26.06526-11.7522 32.89965-28.683393 52.678651-34.131301 3.739585-1.030144 8.146041-1.552801 13.643928-.557133 16.379755 2.965631 26.959253 16.80708 40.895887 38.09329 22.057131 33.685181 45.431436 82.418473 79.802896 138.700643 3.680906 6.027795 7.193368 11.759785 10.431074 17.390415 12.826563 22.301185 17.47809 41.876693 39.666386 62.314102 39.466192 36.35018 118.002992 68.359824 281.084662 77.398758"/><path d="m2 178.965276c60.2854767 31.716028 96.4519305 47.112901 122.895254 51.653314 24.865257 4.269518 31.504736-8.100643 51.212627-7.16871 19.863902.939514 38.65436 3.95244 56.460424 2.129934 10.796574-1.104257 20.672955-4.695505 30.23317-9.279344 22.672116-10.871625 32.03559-29.5213 47.496644-40.272297 16.889322-11.744277 31.460556-17.548175 50.988963-8.839571 25.010914 11.152859 39.172099 42.450482 86.148243 61.906637 15.421706 6.387045 27.340738 5.295195 43.849004 12.201282 1.856265.77684 4.025245 1.94727 6.520054 3.395487 38.323698 22.239545 60.365554 55.881474 103.007881 69.624029 27.21579 8.770641 51.853242 10.605555 64.120194 9.612275 25.41544-2.057557 46.920919-4.386699 62.997046-11.622271 26.029823-11.759442 33.452813-28.342598 52.635372-33.458576 3.773278-1.005687 8.16094-1.444081 13.559917-.367396 16.502744 3.290714 26.424686 17.799769 39.071313 39.677432 20.095849 34.764797 40.494057 84.949215 74.46668 141.230482 3.605532 5.972087 7.09578 11.664318 10.364436 17.261427 12.721871 21.785985 18.418376 41.145638 40.728766 61.132553 40.316646 36.118581 119.033612 67.757408 279.244012 77.218037"/><path d="m2 180.08111c58.9441647 31.86429 95.3909728 48.023801 122.590609 53.564638 25.199165 5.132956 33.695988-5.357566 53.45495-4.167685 20.255283 1.219508 39.08304 3.72191 56.612353 1.586049 10.851415-1.322856 20.696381-5.097129 30.167899-9.82565 22.258515-11.111989 32.07794-29.631281 47.24576-40.792188 16.813479-12.370769 31.360035-19.037411 51.121068-10.821925 25.056275 10.416111 38.903563 41.1856 86.490328 61.770477 15.062895 6.515754 27.23277 6.326282 43.803957 13.349131 1.809949.766843 3.971949 1.920897 6.489449 3.348479 39.167255 22.210887 63.727209 53.282152 105.619743 65.623984 27.79812 8.189304 52.360144 9.419835 63.971572 8.312633 25.320657-2.413523 46.566511-4.982757 62.493654-12.16614 25.995074-11.76446 34.008001-27.992181 52.593464-32.781332 3.806279-.981118 8.175146-1.33388 13.47453-.179137 16.623649 3.624074 25.885317 18.790754 37.246858 41.255188 18.127108 35.841814 35.561852 87.466263 69.132897 143.739999 3.528781 5.916335 6.996816 11.568787 10.296419 17.130983 12.614424 21.26973 19.362043 40.402911 41.79106 59.943283 41.174629 35.872129 120.06414 67.146646 277.40343 77.028103"/><path d="m2 181.304711c57.6022768 32.151406 94.3439272 49.133883 122.286026 55.715086 25.546864 6.016112 35.879504-2.613115 55.697133-1.174449 20.648024 1.49884 39.50963 3.501214 56.7636 1.046491 10.905563-1.551407 20.721192-5.520879 30.103331-10.4158 21.846331-11.397274 32.114086-29.87375 46.9956-41.490973 16.728675-13.058656 31.257461-20.608883 51.2518-12.858073 25.10164 9.730359 38.654386 40.062683 86.832417 61.901348 14.710328 6.668353 27.1262 7.386302 43.759618 14.55888 1.763638.760832 3.918658 1.904156 6.458159 3.317922 40.012146 22.271648 67.087266 50.867199 108.232834 61.894431 28.38249 7.606943 52.862888 8.245351 63.821603 7.045311 25.22865-2.762515 46.212834-5.603879 61.991699-12.766081 25.959645-11.821265 34.563851-27.75656 52.550196-32.244781 3.842038-.957958 8.187283-1.226324 13.390533.011066 16.741099 3.980539 25.339783 19.866725 35.421855 43.016789 16.148159 37.077452 30.632078 90.368249 63.798134 146.88221 3.454107 5.885386 6.89855 11.522465 10.229099 17.073777 12.505608 20.846124 20.308411 39.828208 42.853294 59.010875 42.040157 35.770203 121.095999 66.825319 275.563069 77.17126"/><path d="m1 183.514835c56.2611289 32.293104 93.3106861 50.014222 121.980677 57.61817 25.909703 6.871961 38.055933.167271 57.939803 1.834458 21.04279 1.763956 39.932708 3.25765 56.91479.500433 10.95763-1.778471 20.747366-5.91879 30.038745-10.959749 21.43761-11.630218 32.1433-29.983788 46.74542-42.003846 16.63558-13.694156 31.15418-22.084696 51.383172-14.841557 25.144912 9.003638 38.427975 38.720621 87.174414 61.750886 14.361914 6.784869 27.020306 8.412658 43.714556 15.706254 1.717329.750649 3.864679 1.877313 6.426866 3.270783 40.859706 22.225702 70.44289 48.17769 110.844964 57.871842 28.968866 6.95145 53.361412 7.001908 63.671592 5.74115 25.140081-3.073098 45.859837-6.200801 61.489731-13.309155 25.924198-11.823755 35.120324-27.388313 52.50827-31.559045 3.875722-.929671 8.198722-1.112149 13.30515.199759 16.854388 4.331091 24.788056 20.855733 33.597645 44.589644 14.158983 38.148303 25.706082 92.867559 58.463699 149.365976 3.378056 5.82686 6.798217 11.424239 10.161778 16.939365 12.395408 20.326961 21.257456 39.064841 43.916108 57.805486 42.911803 35.492693 122.12563 66.198791 273.72262 76.964311"/><path d="m1 184.772783c54.9200647 32.431046 92.2899216 50.879501 121.676011 59.512862 26.284934 7.722368 40.154892 3.949244 60.181607 4.837444 21.514828.953814 40.352985 3.009245 57.065957-.044202 11.007618-2.011228 20.774222-6.314786 29.974156-11.502399 21.030984-11.858784 32.166293-30.091751 46.495247-42.511358 16.534895-14.329997 31.051589-23.550426 51.514522-16.821239 25.189556 8.284572 38.225039 37.343773 87.516365 61.595228 14.019045 6.897019 26.915794 9.433846 43.669489 16.849557 1.671711.740397 3.812081 1.850302 6.396263 3.224042 41.708576 22.171851 73.787901 45.451535 113.456188 53.848687 29.555884 6.256078 53.854366 5.732551 63.522269 4.438238 25.057724-3.354579 45.505472-6.796182 60.988473-13.849983 25.888058-11.825631 35.676749-27.012749 52.464264-30.871515 3.910783-.899251 8.21016-.995254 13.221152.389537 16.962832 4.688951 24.230841 21.837567 31.772868 46.153945 12.162356 39.210651 20.783886 95.351668 53.130326 151.82973 3.30408 5.767776 6.698579 11.325588 10.093768 16.802592 12.281764 19.808382 22.208499 38.294824 44.978145 56.598239 43.790278 35.199247 123.15722 65.564502 271.88293 76.747812"/><path d="m1 186.073865c53.5783947 32.56558 91.2816327 51.730775 121.371339 61.398595 26.672554 8.569926 42.313045 6.592888 62.422543 7.835696 21.918497 1.354599 40.770461 2.754742 57.217788-.587936 11.055531-2.248234 20.802453-6.708819 29.909566-12.043716 20.626453-12.082361 32.183064-30.197965 46.245081-43.013175 16.425931-14.968215 30.948998-25.004531 51.645161-18.79532 25.23557 7.571401 38.049025 35.929651 87.858959 61.431719 13.68172 7.004857 26.812664 10.450355 43.623724 17.990702 1.626098.7294 3.759488 1.822464 6.365661 3.176373 42.559445 22.109705 77.119538 42.693674 116.067887 49.826883 30.1394 5.519836 54.339679 4.438503 63.37294 3.137039 24.981579-3.599383 45.151814-7.389914 60.485858-14.38787 25.853294-11.826346 36.234505-26.629635 52.42232-30.182783 3.94584-.865343 8.218832-.877074 13.136466.578965 17.065741 5.054041 23.668139 22.814262 29.948216 47.711832 10.155517 40.263263 15.865494 97.820262 47.796638 154.273847 3.229418 5.708913 6.596876 11.227369 10.027141 16.665776 12.166053 19.290787 23.160846 37.515422 46.040094 55.384673 44.672819 34.891792 124.188018 64.926901 270.042618 76.524835"/><path d="m1 188.417764c52.2375298 32.696582 90.2858702 52.571124 121.066728 63.273967 27.072579 9.414365 44.467605 9.235123 64.664718 10.828313 22.317312 1.760023 41.183089 2.496296 57.368248-1.131985 11.101372-2.488024 20.832758-7.098691 29.845678-12.580753 20.22472-12.303616 32.192255-30.302316 45.994949-43.510417 16.30801-15.606503 30.845735-26.448604 51.775807-20.76455 25.28228 6.866365 37.900644 34.480734 88.200869 61.263005 13.350634 7.109031 26.71231 11.459797 43.579357 19.127238 1.579797.718349 3.705518 1.795182 6.333683 3.129849 43.412335 22.03855 80.433704 39.903508 118.679433 45.806789 30.718743 4.740274 54.816692 3.120198 63.224334 1.837925 24.914419-3.801319 44.797505-7.982494 59.983299-14.924003 25.817851-11.825866 36.791542-26.238338 52.379705-29.4909 3.981586-.830719 8.226127-.758333 13.05179.767296 17.164509 5.42691 23.100655 23.782717 28.124397 49.262032 8.141927 41.303667 10.950915 100.271679 42.464043 156.698583 3.154074 5.648206 6.494493 11.1282 9.959142 16.526155 12.048285 18.77358 24.115204 36.729538 47.101981 54.169139 45.562903 34.566909 125.217409 64.28324 268.201839 76.294553"/><path d="m1 188.818721c50.8967207 32.974179 89.2997692 53.643486 120.761352 65.436433 27.484284 10.302139 46.61921 11.927154 66.906675 13.875235 22.714011 2.181906 41.590823 2.244168 57.52003-1.68105 11.143061-2.745715 20.863046-7.519759 29.779703-13.176527 19.826449-12.576054 32.197276-30.541153 45.744797-44.201933 16.182491-16.317255 30.745214-28.007126 51.907782-22.831151 25.331036 6.196364 37.782609 33.147126 88.542681 61.367322 13.025083 7.24166 26.612633 12.518635 43.533577 20.351775 1.53488.710469 3.652931 1.774442 6.303773 3.095761 44.26513 22.061189 83.724788 37.255668 121.290692 41.981287 31.289737 3.935594 55.201838 1.088878 63.073617.543747 25.114331-1.739852 44.444567-8.611404 59.482109-15.527922 25.7817-11.877346 37.347819-25.958043 52.336361-28.92859 4.017326-.796942 8.232724-.641289 12.96711.959513 17.257735 5.834558 22.530433 24.856021 26.299998 51.035436 6.122265 42.525726 6.041518 103.17497 37.131804 159.827051 3.080801 5.613186 6.391421 11.078328 9.89114 16.459072 11.929135 18.341433 25.071542 36.100378 48.164442 53.191746 46.459096 34.384739 126.248687 63.924871 266.362357 76.404074"/><path d="m1 191.233368c49.5553367 33.099917 88.3241218 54.468611 120.456728 67.302681 27.90494 11.145939 48.766531 14.574024 69.14711 16.866785 23.107926 2.598185 41.995779 1.976279 57.67182-2.224351 11.181299-2.996897 20.895407-7.907191 29.715811-13.71303 19.430285-12.790536 32.194026-30.639933 45.493989-44.692248 16.048705-16.956616 30.646091-29.434125 52.038383-24.796779 25.382557 5.501796 37.697721 31.621163 88.884498 61.188653 12.706461 7.339874 26.516422 13.518166 43.489196 21.485475 1.489275.698608 3.600348 1.746174 6.272486 3.04734 45.120636 21.97678 86.990123 34.403847 123.901109 37.952858 31.851038 3.063233 55.671857-.062882 62.925002-.755271 25.036118-2.390883 44.090979-9.201447 58.979595-16.061762 25.746249-11.874261 37.904066-25.55205 52.293726-28.232465 4.053756-.755271 8.237254-.518946 12.882442 1.148453 17.343367 6.22528 21.958189 25.81325 24.476431 52.578017 4.098614 43.54794 1.2222 105.561655 31.799279 162.226977 3.015818 5.547403 6.28836 10.978716 9.824527 16.316744 11.806546 17.825211 26.027128 35.298701 49.22615 51.967167 47.35869 34.02863 127.277858 63.269965 264.521718 76.161388"/><path d="m1 192.685689c48.2146739 33.222437 87.3587755 55.284919 120.151958 69.158601 28.335877 11.987463 50.910174 17.215458 71.388661 19.848434 23.496261 3.02085 42.393746 1.706087 57.822138-2.765488 11.21745-3.251364 20.929808-8.291633 29.651193-14.247061 19.038265-13.000624 32.186592-30.734395 45.243827-45.177463 15.907316-17.594358 30.549003-30.848273 52.169593-26.755599 25.436799 4.815276 37.646601 30.060795 89.226855 61.005691 12.392676 7.43514 26.421561 14.509324 43.443376 22.613923 1.443673.687403 3.549834 1.712297 6.241884 2.999454 46.01673 21.800219 90.224039 31.529464 126.511848 33.931236 32.39707 2.144341 56.133483-1.22021 62.77493-2.051858 24.937173-3.122303 43.736666-9.790671 58.477726-16.59293 25.711456-11.870825 38.45884-25.139924 52.251023-27.535484 4.090867-.710179 8.239701-.396844 12.797761 1.336848 17.422758 6.622817 21.335581 26.763881 22.652277 54.11233 1.994367 44.560457-3.719597 108.000357 26.468488 164.60556 2.938412 5.488877 6.171494 10.886652 9.755833 16.17469 11.649447 17.333476 26.985367 34.49027 50.288402 50.740878 48.26367 33.656551 128.308157 62.611013 262.682227 75.912549"/><path d="m0 194c134.008177 95.577434 207.970897 104.364995 251.449925 90.763108 65.489392-20.488185 79.04161-97.162858 126.880478-89.382255 31.429085 5.111507 42.559859 40.993648 132.967557 84.782866 1.398075.677296 3.493807 1.692547 6.209909 2.959366 90.030232 41.988857 179.159926 28.653741 191.748812 26.642588 82.096535-13.116723 95.991716-53.388843 122.896724-42.549353 48.758727 19.64433-12.658582 145.5487 51.654936 239.276011 35.83516 52.227075 118.089719 105.218526 312.191659 125.507669"/></g></svg>