<svg height="917" viewBox="0 0 2008 917" width="2008" xmlns="http://www.w3.org/2000/svg"><g fill="none" fill-rule="evenodd" stroke="#d0d8dc" stroke-width="1.184" opacity=".3"><path d="m1.881 133.5782c23.276-43.348 53.688-78.989 98.469-102.162 46.133-23.873 89.087-26.151 142.982-29.232 51.881-2.966 184.774-9.008 316.004 59.656 26.944 14.098 54.436 28.483 82.629 55.483 65.09 62.333 49.038 110.613 92.511 158.397 53.168 58.441 150.57 66.894 231.979 73.958 200.265 17.379 269.52-61.765 355.458-14.997 37.507 20.411 35.599 43.738 64.434 96.871 4.494 8.281 6.7 15.003 51.65 77.008 79.056 109.056 118.888 163.685 133.775 168.603 81.829 27.04 142.587-94.18 248.327-81.601 78.35 9.32 141.156 87.31 187.386 168.128"/><path d="m2.0724 136.0563c24.978-41.163 55.772-75.686 100.152-97.915 11.813-5.917 23.235-10.484 34.477-14.24 33.748-11.275 65.391-14.944 105.261-17.768 24.377-1.726 66.709-2.185 118.512 2.547 26.01 2.375 52.679 5.458 81.626 12.37 37.28 8.941 76.303 23.782 115.294 44.894 26.875 14.597 54.214 29.508 82.708 55.542 18.969 17.33 31.012 32.436 39.965 48.002 22.16 38.527 22.202 73.762 52.642 108.647 23.741 27.21 56.852 44.171 93.93 55.307 43.514 12.976 92.335 17.784 136.469 21.658 23.879 2.098 45.918 2.71 66.224 2.165 37.243-1.049 67.82-5.96 96.401-11.139 49.767-9.017 87.9-20.757 124.348-22.183 23.462-.919 45.397 2.488 68.516 14.832 37.605 20.096 35.924 43.805 66.215 95.205 5.108 8.667 8.293 15.722 52.434 76.591 53.405 73.616 86.576 122.208 108.976 148.373 10.21 11.925 17.55 18.692 22.424 20.401 79.949 28.039 141.042-89.059 247.305-76.329 77.762 9.294 140.947 84.935 188.668 163.152"/><path d="m2.2638 138.5348c26.679-38.979 57.874-72.364 101.836-93.668 12.033-5.831 23.479-10.334 34.544-14.216 33.489-11.749 62.559-17.234 101.95-20.568 24.353-2.061 66.697-.916 118.656 3.226 26.662 2.125 52.392 3.887 81.451 10.558 37.269 8.629 75.967 24.468 114.753 46.182 26.805 15.095 54.006 30.528 82.786 55.6 19.395 16.896 31.507 30.481 40.794 45.821 22.66 37.426 22.115 73.469 51.908 109.081 23.067 27.57 55.534 45.203 92.445 57.016 43.179 13.638 92.127 19.028 136.374 22.957 23.961 2.128 46.09 2.651 66.358 1.849 37.293-1.571 66.604-7.557 95.77-13.058 48.494-9.145 86.467-20.391 124.679-21.356 23.451-.592 45.498 2.751 68.713 14.911 37.704 19.78 36.498 43.792 67.996 93.538 5.739 9.064 9.887 16.441 53.22 76.173 53.214 73.301 83.991 121.562 106.8 148.523 9.976 11.793 17.268 18.586 22.224 20.423 78.079 28.945 139.497-83.938 246.285-71.055 77.173 9.268 140.736 82.557 189.948 158.174"/><path d="m2.4547 141.0133c28.38-36.794 59.992-69.021 103.52-89.421 12.256-5.744 23.724-10.185 34.612-14.192 33.23-12.228 59.728-19.532 98.638-23.368 24.331-2.399 66.689.338 118.801 3.906 27.317 1.87 52.105 2.316 81.275 8.744 37.258 8.319 75.633 25.155 114.213 47.47 26.733 15.594 53.812 31.543 82.863 55.659 19.83 16.461 31.996 28.525 41.624 43.639 23.139 36.327 22.029 73.17 51.175 109.515 22.394 27.926 54.182 46.339 90.959 58.726 42.804 14.418 91.917 20.271 136.279 24.255 24.041 2.16 46.262 2.593 66.49 1.534 37.344-2.094 65.389-9.151 95.14-14.976 47.224-9.247 85.064-18.744 125.011-20.53 23.416-1.047 45.599 3.014 68.911 14.99 37.802 19.464 37.279 43.701 69.777 91.872 6.387 9.468 11.48 17.16 54.004 75.755 53.023 72.986 81.409 120.913 104.624 148.673 9.748 11.656 16.986 18.478 22.024 20.445 76.223 29.758 137.954-78.818 245.263-65.783 76.586 9.242 140.528 80.18 191.231 153.198"/><path d="m2.6461 143.4918c30.082-34.61 62.125-65.658 105.203-85.174 12.484-5.656 23.968-10.039 34.68-14.168 32.972-12.712 56.9-21.837 95.326-26.169 24.311-2.74 66.685 1.579 118.946 4.586 27.973 1.61 51.819.746 81.1 6.932 37.246 8.008 75.351 25.752 113.672 48.758 26.7 16.03 53.633 32.551 82.941 55.717 20.273 16.025 32.478 26.566 42.453 41.458 23.596 35.228 21.947 72.862 50.442 109.949 21.725 28.276 52.852 47.4 89.473 60.435 42.455 15.112 91.708 21.515 136.184 25.553 24.122 2.192 46.437 2.583 66.624 1.219 37.4-2.528 64.17-10.742 94.509-16.895 45.956-9.323 83.616-18.036 125.342-19.703 23.402-.935 45.702 3.277 69.108 15.069 37.901 19.148 38.233 43.537 71.559 90.205 7.05 9.875 13.073 17.88 54.789 75.337 52.834 72.671 78.83 120.261 102.447 148.824 9.523 11.516 16.704 18.367 21.826 20.466 74.38 30.489 136.408-73.696 244.24-60.51 75.998 9.216 140.32 77.803 192.512 148.221"/><path d="m2.8376 145.9703c31.782-32.426 64.271-62.275 106.886-80.927 12.714-5.565 24.214-9.894 34.748-14.144 32.716-13.2 54.073-24.15 92.015-28.969 24.291-3.085 66.683 2.805 119.09 5.266 28.631 1.344 51.545-.888 80.925 5.119 37.252 7.617 75.028 26.421 113.13 50.046 26.64 16.517 53.469 33.553 83.02 55.776 20.725 15.586 32.952 24.605 43.282 39.275 24.033 34.134 21.868 72.548 49.708 110.383 21.06 28.62 51.523 48.459 87.988 62.144 42.106 15.803 91.499 22.76 136.09 26.852 24.203 2.224 46.61 2.535 66.756.904 37.453-3.033 62.95-12.328 93.879-18.814 44.69-9.374 82.157-17.375 125.672-18.876 23.391-.806 45.804 3.541 69.307 15.148 38 18.833 39.331 43.302 73.339 88.539 7.73 10.282 14.667 18.598 55.575 74.919 52.643 72.355 76.252 119.604 100.271 148.973 9.301 11.373 16.42 18.253 21.627 20.489 72.552 31.138 134.863-68.576 243.218-55.239 75.411 9.192 140.11 75.428 193.792 143.246"/><path d="m3.029 148.4489c33.483-30.242 66.431-58.873 108.569-76.68 12.948-5.471 24.458-9.751 34.817-14.121 32.458-13.692 51.246-26.469 88.702-31.768 24.273-3.434 66.683 4.019 119.236 5.945 29.289 1.074 51.259-2.468 80.749 3.307 37.241 7.294 74.705 27.092 112.59 51.334 26.576 17.004 53.316 34.546 83.096 55.834 21.186 15.145 33.421 22.645 44.112 37.094 24.448 33.043 21.793 72.226 48.975 110.817 20.398 28.957 50.193 49.514 86.503 63.853 41.757 16.491 91.29 24.003 135.995 28.15 24.283 2.256 46.783 2.485 66.887.589 37.508-3.539 61.73-13.909 93.249-20.733 43.429-9.403 80.69-16.76 126.003-18.049 23.382-.665 45.907 3.804 69.505 15.226 38.099 18.518 40.549 43.006 75.12 86.873 8.424 10.689 16.261 19.318 56.361 74.502 52.452 72.039 73.678 118.943 98.094 149.122 9.083 11.227 16.135 18.139 21.427 20.511 70.743 31.716 133.319-63.455 242.198-49.965 74.822 9.166 139.901 73.05 195.074 138.269"/><path d="m3.2204 150.9274c35.185-28.058 68.603-55.451 110.253-72.433 13.183-5.375 24.702-9.61 34.884-14.097 32.201-14.19 48.421-28.797 85.391-34.569 24.255-3.786 66.684 5.222 119.38 6.626 29.949.798 50.973-4.049 80.573 1.494 37.232 6.972 74.381 27.766 112.049 52.621 26.514 17.495 53.179 35.532 83.175 55.894 21.655 14.698 33.88 20.684 44.941 34.911 24.842 31.958 21.722 71.899 48.242 111.251 19.74 29.29 48.863 50.568 85.017 65.563 41.409 17.175 91.08 25.246 135.9 29.448 24.365 2.288 46.957 2.436 67.021.273 37.561-4.046 60.507-15.486 92.618-22.651 42.17-9.411 79.23-18.795 126.334-17.221 23.366.78 46.009 4.066 69.703 15.304 38.198 18.202 41.866 42.65 76.901 85.207 9.132 11.09 17.854 20.037 57.145 74.083 52.262 71.725 71.109 118.278 95.919 149.273 8.867 11.078 15.851 18.019 21.228 20.532 68.951 32.224 131.773-58.334 241.175-44.693 74.235 9.141 139.692 70.674 196.355 133.293"/><path d="m3.4113 153.4054c36.886-25.873 70.787-52.01 111.937-68.186 13.421-5.275 24.946-9.47 34.951-14.072 31.945-14.693 45.597-31.134 82.08-37.369 24.239-4.143 66.687 6.413 119.525 7.305 30.609.517 50.687-5.628 80.398-.319 37.222 6.652 74.055 28.442 111.508 53.91 26.45 17.985 53.052 36.507 83.252 55.951 22.132 14.249 34.333 18.724 45.77 32.731 25.215 30.88 21.656 71.564 47.51 111.684 19.086 29.618 47.533 51.619 83.53 67.272 41.062 17.856 90.872 26.49 135.806 30.747 24.445 2.319 47.131 2.384 67.153-.042 37.616-4.557 59.286-17.059 91.989-24.571 40.914-9.398 77.774-18.521 126.665-16.394 23.345 1.017 46.11 4.33 69.9 15.384 38.296 17.886 43.266 42.241 78.683 83.539 9.851 11.488 19.447 20.757 57.929 73.666 52.073 71.41 68.542 117.61 93.744 149.423 8.654 10.925 15.565 17.897 21.027 20.554 67.178 32.668 130.229-53.213 240.154-39.42 73.647 9.115 139.484 68.297 197.637 128.317"/><path d="m3.6027 155.8839c38.587-23.689 72.98-48.552 113.62-63.938 13.663-5.173 25.19-9.333 35.02-14.049 31.686-15.201 42.772-33.477 78.767-40.169 24.223-4.504 66.704 9.208 119.67 7.985 31.263-.723 50.401-7.206 80.223-2.132 37.211 6.332 73.729 29.12 110.967 55.197 26.386 18.478 52.938 37.474 83.33 56.011 22.616 13.794 34.778 16.765 46.599 30.548 25.567 29.81 21.595 71.224 46.776 112.119 18.437 29.941 46.205 52.666 82.046 68.981 40.714 18.533 90.662 27.734 135.71 32.045 24.527 2.351 47.305 2.331 67.287-.357 37.668-5.068 58.061-18.626 91.358-26.49 39.662-9.367 76.318-18.265 126.996-15.566 23.325 1.241 46.212 4.592 70.098 15.461 38.395 17.571 44.736 41.785 80.463 81.874 10.585 11.877 21.041 21.475 58.715 73.248 51.882 71.094 65.98 116.938 91.566 149.572 8.446 10.772 15.283 17.774 20.83 20.577 65.423 33.051 128.684-48.093 239.131-34.148 73.059 9.089 139.275 65.92 198.918 123.34"/><path d="m3.7941 158.3624c40.289-21.504 75.184-45.075 115.303-59.691 13.907-5.067 25.433-9.198 35.088-14.025 31.427-15.715 39.947-35.828 75.456-42.97 24.207-4.868 66.725 10.442 119.814 8.665 31.915-1.068 50.114-8.783 80.048-3.944 37.2 6.014 73.401 29.799 110.426 56.485 26.321 18.971 52.834 38.429 83.408 56.069 23.108 13.332 35.215 14.81 47.428 28.367 25.899 28.749 21.539 70.878 46.043 112.552 17.792 30.26 44.877 53.712 80.561 70.691 40.367 19.208 90.453 28.977 135.615 33.343 24.607 2.382 47.478 2.278 67.419-.672 37.723-5.581 56.838-20.187 90.727-28.409 38.413-9.319 74.863-18.024 127.328-14.739 23.304 1.459 46.313 4.856 70.295 15.54 38.494 17.255 46.264 41.284 82.245 80.207 11.332 12.259 22.634 22.195 59.501 72.83 51.69 70.779 63.42 116.261 89.389 149.723 8.239 10.615 14.998 17.646 20.63 20.598 63.689 33.38 127.14-42.972 238.109-28.874 72.472 9.063 139.066 63.543 200.201 118.363"/><path d="m3.9855 160.8409c41.99-19.32 77.397-41.581 116.986-55.444 14.154-4.957 25.676-9.064 35.156-14.002 31.168-16.233 37.123-38.186 72.145-45.769 24.191-5.238 66.747 11.648 119.958 9.345 32.566-1.409 49.828-10.3584196 79.873-5.757 37.188 5.696 73.073 30.481 109.884 57.773 26.257 19.466 52.742 39.373 83.487 56.127 23.607 12.865 35.644 12.857 48.257 26.185 26.212 27.698 21.49 70.527 45.31 112.987 17.152 30.574 43.549 54.754 79.074 72.4 40.023 19.879 90.245 30.221 135.521 34.641 24.689 2.414 47.652 2.224 67.553-.987 37.776-6.097 55.614-21.742 90.096-30.328 37.166-9.254 73.408-17.798 127.658-13.912 23.286 1.668 46.417 5.119 70.495 15.619 38.591 16.939 47.84 40.743 84.024 78.541 12.091 12.629 24.229 22.914 60.286 72.412 51.5 70.463 60.867 115.579 87.214 149.873 8.033 10.457 14.715 17.515 20.43 20.619 61.974 33.657 125.594-37.851 237.089-23.601 71.882 9.037 138.856 61.165 201.48 113.386"/><path d="m4.1769 163.3195c43.691-17.136 79.618-38.069 118.67-51.197 14.402-4.842 25.918-8.932 35.223-13.978 30.906-16.757 34.298-40.553 68.833-48.569 24.175-5.612 66.706 11.078 120.103 10.025 33.256-.657 49.541-11.934 79.698-7.57 37.176 5.381 72.744 31.164 109.344 59.06 26.19 19.963 52.656 40.307 83.564 56.187 24.112 12.389 36.066 10.908 49.086 24.002 26.506 26.66 21.447 70.172 44.577 113.421 16.517 30.885 42.222 55.795 77.589 74.11 39.677 20.547 90.035 31.465 135.426 35.939 24.769 2.446 47.826 2.169 67.684-1.303 37.83-6.612 54.392-23.29 89.467-32.246 35.922-9.172 71.953-17.589 127.988-13.085 23.267 1.87 46.519 5.383 70.693 15.698 38.69 16.624 49.46 40.165 85.806 76.874 12.862 12.99 25.822 23.633 61.071 71.995 51.31 70.148 58.319 114.892 85.038 150.022 7.831 10.296 14.432 17.382 20.23 20.641 60.28 33.887 124.05-32.73 236.067-18.328 71.295 9.011 138.647 58.789 202.762 108.41"/><path d="m4.3678 165.798c45.392-14.952 81.846-34.541 120.354-46.951 14.653-4.722 26.159-8.801 35.291-13.953 30.643-17.286 31.472-42.927 65.521-51.369 24.159-5.991 66.711 12.223 120.248 10.704 33.919-.962 49.253-13.508 79.522-9.382 37.165 5.066 72.414 31.848 108.803 60.348 26.123 20.459 52.58 41.228 83.642 56.245 24.623 11.905 36.48 8.963 49.915 21.821 26.783 25.632 21.412 69.811 43.844 113.855 15.887 31.192 40.897 56.831 76.104 75.819 39.333 21.212 89.826 32.708 135.33 37.238 24.852 2.477 48 2.112 67.818-1.618 37.884-7.132 53.171-24.832 88.837-34.166 34.681-9.076 70.5-17.395 128.319-12.258 23.247 2.065 46.62 5.646 70.89 15.777 38.79 16.308 51.113 39.552 87.587 75.208 13.645 13.338 27.415 24.352 61.856 71.576 51.12 69.833 55.776 114.203 82.862 150.173 7.631 10.134 14.153 17.245 20.031 20.663 58.606 34.071 122.505-27.609 235.044-13.056 70.708 8.986 138.44 56.412 204.044 103.433"/><path d="m4.5592 168.2765c47.093-12.768 84.081-30.996 122.037-42.704 14.907-4.598 26.4-8.673 35.359-13.929 30.377-17.821 28.645-45.308 62.209-54.17 24.142-6.373 66.717 13.361 120.393 11.385 34.58-1.273 48.966-15.082 79.347-11.195 37.153 4.753 72.082 32.534 108.262 61.635 26.055 20.958 52.511 42.138 83.719 56.304 25.141 11.413 36.888 7.025 50.745 19.64 27.043 24.617 21.382 69.446 43.111 114.288 15.262 31.497 39.572 57.867 74.618 77.528 38.992 21.876 89.617 33.952 135.236 38.536 24.932 2.51 48.173 2.057 67.95-1.932 37.938-7.652 51.95-26.365 88.206-36.085 33.445-8.966 69.049-17.217 128.651-11.43 23.229 2.254 46.721 5.908 71.088 15.855 38.887 15.992 52.794 38.908 89.368 73.541 14.44 13.673 29.009 25.071 62.641 71.159 50.929 69.517 53.24 113.507 80.686 150.323 7.433 9.969 13.873 17.104 19.831 20.684 56.952 34.216 120.961-22.488 234.023-7.783 70.12 8.96 138.23 54.035 205.326 98.457"/><path d="m4.7506 170.7545c48.794-10.583 86.321-27.435 123.72-38.456 15.162-4.468 26.64-8.547 35.427-13.906 30.109-18.362 25.817-47.696 58.898-56.97 24.123-6.762 66.721 14.491 120.537 12.065 35.242-1.589 48.678-16.654 79.172-13.008 37.14 4.441 71.749 33.222 107.721 62.924 25.986 21.457 52.448 43.034 83.797 56.362 25.663 10.91 37.287 5.093 51.574 17.458 27.288 23.616 21.36 69.077 42.378 114.722 14.642 31.8 38.249 58.899 73.132 79.238 38.652 22.535 89.409 35.196 135.142 39.834 25.013 2.541 48.346 1.998 68.082-2.248 37.991-8.174 50.731-27.888 87.576-38.003 32.21-8.843 67.599-17.054 128.982-10.604 23.212 2.439 46.824 6.172 71.286 15.934 38.986 15.677 54.498 38.236 91.148 71.875 15.247 13.994 30.603 25.791 63.427 70.741 50.738 69.202 50.709 112.808 78.509 150.473 7.237 9.804 13.596 16.961 19.633 20.706 55.318 34.323 119.416-17.367 233.001-2.51 69.532 8.935 138.02 51.658 206.606 93.48"/><path d="m4.942 173.233c50.496-8.399 88.566-23.858 125.403-34.209 15.42-4.333 26.88-8.422 35.495-13.882 29.837-18.908 22.987-50.092 55.587-59.769 24.104-7.156 66.724 15.613 120.682 12.744 35.902-1.909 48.39-18.225 78.996-14.821 37.128 4.13 71.415 33.911 107.179 64.211 25.918 21.958 52.391 43.92 83.876 56.421 26.188 10.399 37.679 3.168 52.403 15.276 27.52 22.632 21.345 68.706 41.645 115.157 14.027 32.099 36.927 59.929 71.647 80.947 38.312 23.192 89.198 36.439 135.046 41.132 25.094 2.573 48.52 1.94 68.216-2.563 38.044-8.697 49.513-29.402 86.945-39.922 30.979-8.707 66.152-16.908 129.313-9.777 23.194 2.619 46.925 6.435 71.483 16.013 39.085 15.361 56.223 37.536 92.931 70.209 16.065 14.3 32.195 26.509 64.211 70.322 50.548 68.887 48.185 112.103 76.333 150.623 7.043 9.638 13.322 16.814 19.432 20.728 53.706 34.397 117.872-12.246 231.98 2.763 68.944 8.909 137.812 49.282 207.888 88.503"/><path d="m5.1335 175.7115c52.197-6.215 90.816-20.267 127.086-29.962 15.679-4.191 27.118-8.298 35.563-13.858 29.563-19.459 20.155-52.495 52.275-62.57 24.084-7.554 66.728 16.73 120.826 13.424 36.564-2.234 48.103-19.795 78.822-16.633 37.115 3.82 71.08 34.601 106.638 65.499 25.847 22.459 52.337 44.793 83.954 56.48 26.717 9.876 38.065 1.251 53.232 13.094 27.739 21.66 21.338 68.332 40.912 115.59 13.418 32.397 35.607 60.957 70.162 82.656 37.973 23.847 88.989 37.684 134.951 42.431 25.175 2.605 48.691 1.88 68.348-2.878 38.096-9.222 48.299-30.905 86.315-41.841 29.751-8.559 64.707-16.776 129.643-8.95 23.179 2.794 47.028 6.699 71.682 16.092 39.184 15.046 57.962 36.81 94.711 68.542 16.897 14.59 33.789 27.229 64.996 69.905 50.359 68.572 45.67 111.391 74.157 150.773 6.851 9.47 13.05 16.663 19.234 20.749 52.113 34.439 116.326-7.125 230.958 8.036 68.355 8.883 137.602 46.904 209.169 83.527"/><path d="m5.3249 178.1901c53.898-4.031 93.069-16.661 128.77-25.715 15.939-4.042 27.354-8.177 35.631-13.834 29.283-20.016 17.32-54.904 48.963-65.37 24.061-7.958 66.73 17.84 120.971 14.104 37.224-2.564 47.814-21.364 78.645-18.446 37.103 3.512 70.744 35.293 106.098 66.787 25.776 22.961 52.287 45.654 84.031 56.538 27.25 9.343 38.446-.657 54.062 10.913 27.947 20.704 21.339 67.955 40.179 116.024 12.813 32.693 34.288 61.982 68.675 84.365 37.639 24.499 88.782 38.927 134.857 43.729 25.256 2.636 48.865 1.82 68.481-3.193 38.148-9.749 47.088-32.395 85.685-43.76 28.525-8.4 63.265-16.66 129.973-8.122 23.166 2.964 47.131 6.961 71.88 16.169 39.283 14.73 59.715 36.062 96.493 66.876 17.739 14.864 35.382 27.949 65.781 69.488 50.168 68.256 43.162 110.675 71.981 150.923 6.659 9.299 12.78 16.507 19.034 20.771 50.542 34.453 114.782-2.005 229.936 13.308 67.769 8.857 137.394 44.528 210.45 78.55"/><path d="m5.5158 180.6686c55.6-1.846 95.326-13.041 130.454-21.468 16.201-3.887 27.59-8.056 35.698-13.81 29.001-20.579 14.483-57.321 45.652-68.17 24.037-8.367 66.732 18.945 121.115 14.783 37.884-2.898 47.527-22.932 78.471-20.258 37.089 3.205 70.406 35.986 105.557 68.075 25.703 23.464 52.238 46.503 84.109 56.597 27.784 8.799 38.819-2.556 54.891 8.73 28.146 19.766 21.347 67.577 39.445 116.458 12.213 32.989 32.971 63.006 67.191 86.075 37.304 25.149 88.571 40.171 134.761 45.028 25.337 2.668 49.037 1.758 68.614-3.509 38.199-10.278 45.881-33.872 85.054-45.679 27.303-8.229 61.828-16.56 130.305-7.295 23.15 3.132 47.232 7.224 72.078 16.249 39.381 14.414 61.477 35.289 98.272 65.209 18.594 15.119 36.977 28.667 66.568 69.069 49.976 67.941 40.661 109.953 69.805 151.072 6.47 9.13 12.512 16.35 18.834 20.794 48.992 34.442 113.237 3.116 228.914 18.581 67.18 8.832 137.185 42.152 211.732 73.574"/><path d="m5.7072 183.1471c57.301.338 97.584-9.407 132.137-17.221 16.465-3.724 27.824-7.937 35.767-13.786 28.713-21.147 11.642-59.743 42.34-70.971 24.009-8.781 66.732 20.045 121.259 15.464 38.543-3.238 47.239-24.499 78.296-22.071 37.076 2.898 70.067 36.68 105.015 69.362 25.631 23.969 52.191 47.342 84.187 56.656 28.32 8.244 39.189-4.444 55.721 6.548 28.338 18.843 21.363 67.197 38.712 116.893 11.619 33.283 31.656 64.027 65.705 87.784 36.973 25.797 88.362 41.414 134.666 46.325 25.418 2.7 49.209 1.697 68.747-3.823 38.25-10.808 44.68-35.333 84.424-47.598 26.084-8.049 60.393-16.475 130.636-6.468 23.138 3.296 47.334 7.488 72.275 16.327 39.48 14.099 63.245 34.497 100.054 63.543 19.459 15.356 38.57 29.387 67.352 68.652 49.788 67.626 38.171 109.224 67.628 151.222 6.285 8.959 12.251 16.186 18.636 20.815 47.463 34.409 111.693 8.238 227.893 23.854 66.592 8.806 136.975 39.774 213.012 68.597"/><path d="m5.8986 185.6256c59.001 2.522 99.843-5.76 133.82-12.974 16.73-3.552 28.058-7.819 35.835-13.762 28.421-21.72 8.8-62.172 39.028-73.771 23.981-9.201 66.732 21.139 121.405 16.144 39.2-3.582 46.95-26.066 78.12-23.885 37.063 2.595 69.727 37.375 104.475 70.651 25.555 24.473 52.143 48.168 84.264 56.714 28.857 7.677 39.553-6.32 56.55 4.367 28.523 17.935 21.387 66.815 37.979 117.327 11.029 33.576 30.343 65.046 64.219 89.493 36.643 26.443 88.153 42.658 134.572 47.624 25.499 2.731 49.381 1.633 68.879-4.139 38.3-11.339 43.483-36.777 83.794-49.517 24.868-7.86 58.962-16.405 130.967-5.641 23.126 3.457 47.435 7.751 72.473 16.406 39.578 13.783 65.019 33.683 101.835 61.877 20.335 15.572 40.163 30.106 68.137 68.233 49.597 67.311 35.691 108.49 65.452 151.373 6.098 8.786 11.991 16.019 18.437 20.836 45.954 34.354 110.147 13.359 226.87 29.127 66.005 8.781 136.767 37.398 214.295 63.621"/><path d="m6.09 188.1036c60.703 4.707 102.104-2.099 135.503-8.727 16.996-3.372 28.29-7.703 35.903-13.738 28.123-22.298 5.953-64.606 35.717-76.571 23.947-9.626 66.729 22.228 121.549 16.824 39.857-3.93 46.662-27.631 77.945-25.697 37.051 2.29 69.384 38.071 103.933 71.938 25.481 24.979 52.096 48.985 84.343 56.773 29.394 7.099 39.913-8.186 57.378 2.185 28.705 17.045 21.419 66.433 37.247 117.761 10.443 33.87 29.031 66.064 62.733 91.202 36.315 27.087 87.945 43.902 134.478 48.923 25.579 2.763 49.552 1.569 69.011-4.455 38.35-11.872 42.295-38.2 83.164-51.436 23.656-7.661 57.534-16.35 131.297-4.813 23.116 3.615 47.539 8.014 72.672 16.485 39.676 13.467 66.794 32.849 103.616 60.21 21.222 15.769 41.757 30.825 68.922 67.815 49.406 66.996 33.221 107.748 63.276 151.523 5.913 8.612 11.736 15.847 18.236 20.858 44.468 34.281 108.603 18.48 225.849 34.399 65.417 8.755 136.559 35.022 215.576 58.645"/><path d="m6.2814 190.5822c62.404 6.891 104.364 1.573 137.187-4.48 17.262-3.183 28.521-7.587 35.97-13.714 27.821-22.881 3.103-67.046 32.405-79.371 23.912-10.057 66.727 23.313 121.694 17.503 40.514-4.282 46.375-29.194 77.769-27.509 37.039 1.988 69.043 38.767 103.393 73.226 25.405 25.485 52.046 49.79 84.42 56.831 29.931 6.51 40.27-10.039 58.208.004 28.884 16.17 21.459 66.051 36.513 118.194 9.864 34.164 27.723 67.081 61.249 92.912 35.988 27.729 87.734 45.145 134.382 50.22 25.661 2.795 49.723 1.506 69.144-4.769 38.399-12.407 41.114-39.6 82.534-53.355 22.447-7.454 56.11-16.31 131.628-3.986 23.105 3.771 47.64 8.277 72.87 16.564 39.775 13.151 68.569 31.997 105.396 58.544 22.121 15.945 43.35 31.543 69.707 67.397 49.216 66.68 30.764 106.999 61.101 151.672 5.73 8.439 11.486 15.672 18.037 20.881 43.002 34.194 107.058 23.599 224.827 39.672 64.829 8.729 136.349 32.644 216.858 53.668"/><path d="m6.4723 193.0607c64.105 9.075 106.624 5.258 138.871-.233 17.528-2.984 28.75-7.473 36.038-13.69 27.511-23.468.248-69.492 29.093-82.171 23.873-10.493 66.722 24.393 121.839 18.183 41.168-4.639 46.086-30.757 77.594-29.322 37.026 1.686 68.698 39.465 102.852 74.514 25.327 25.991 51.994 50.586 84.498 56.89 30.465 5.909 40.624-11.881 59.037-2.179 29.061 15.312 21.505 65.67 35.78 118.629 9.287 34.458 26.415 68.094 59.763 94.621 35.665 28.37 87.526 46.389 134.287 51.519 25.742 2.826 49.894 1.44 69.277-5.085 38.446-12.943 39.943-40.973 81.903-55.274 21.241-7.238 54.691-16.285 131.959-3.159 23.097 3.924 47.742 8.541 73.067 16.642 39.874 12.837 70.345 31.128 107.178 56.878 23.03 16.099 44.943 32.263 70.493 66.98 49.026 66.364 28.318 106.242 58.924 151.822 5.548 8.264 11.24 15.49 17.837 20.902 41.56 34.093 105.514 28.72 223.806 44.945 64.241 8.704 136.14 30.267 218.138 48.691"/><path d="m6.6637 195.5392c65.807 11.259 108.881 8.955 140.554 4.014 17.796-2.776 28.977-7.36 36.106-13.666 27.196-24.06-2.61-71.943 25.781-84.971 23.83-10.935 66.717 25.47 121.984 18.863 41.822-5 45.799-32.32 77.419-31.136 37.013 1.387 68.352 40.164 102.311 75.803 25.249 26.498 51.939 51.371 84.575 56.948 30.999 5.297 40.976-13.709 59.867-4.36 29.238 14.469 21.56 65.288 35.047 119.062 8.715 34.753 25.11 69.108 58.277 96.331 35.344 29.009 87.317 47.633 134.192 52.817 25.824 2.858 50.064 1.375 69.41-5.4 38.494-13.48 38.785-42.316 81.273-57.193 20.04-7.016 53.275-16.276 132.29-2.332 23.09 4.075 47.844 8.804 73.266 16.721 39.972 12.521 72.116 30.241 108.959 55.211 23.948 16.231 46.536 32.982 71.277 66.562 48.835 66.05 25.886 105.477 56.747 151.973 5.369 8.087 11.001 15.304 17.639 20.923 40.137 33.982 103.968 33.841 222.783 50.218 63.653 8.678 135.931 27.89 219.421 43.715"/><path d="m6.8551 198.0177c67.508 13.443 111.137 12.662 142.237 8.261 18.063-2.556 29.204-7.247 36.174-13.642 26.874-24.657-5.473-74.398 22.47-87.771 23.783-11.382 66.709 26.542 122.128 19.542 42.475-5.365 45.512-33.88 77.243-32.948 37.001 1.088 68.006 40.863 101.77 77.09 25.171 27.007 51.881 52.15 84.654 57.008 31.53 4.673 41.326-15.525 60.696-6.542 29.419 13.641 21.622 64.906 34.313 119.496 8.148 35.048 23.808 70.119 56.792 98.04 35.025 29.647 87.108 48.876 134.098 54.115 25.904 2.89 50.234 1.309 69.542-5.715 38.539-14.019 37.642-43.622 80.643-59.112 18.842-6.787 51.865-16.28 132.621-1.505 23.083 4.224 47.946 9.067 73.463 16.8 40.071 12.205 73.885 29.338 110.74 53.545 24.877 16.339 48.13 33.701 72.062 66.144 48.645 65.735 23.469 104.703 54.572 152.122 5.189 7.912 10.767 15.114 17.439 20.946 38.739 33.861 102.424 38.961 221.761 55.49 63.066 8.652 135.723 25.513 220.702 38.739"/><path d="m7.0465 200.4962c69.209 15.627 113.389 16.38 143.92 12.508 18.33-2.324 29.429-7.135 36.243-13.618 26.545-25.258-8.342-76.858 19.158-90.572 23.73-11.834 66.7 27.612 122.272 20.223 43.127-5.735 45.223-35.386 77.069-34.761 36.987.853 67.593 41.621 101.229 78.378 25.041 27.559 51.817 52.918 84.731 57.066 32.057 4.039 41.676-17.327 61.525-8.724 29.602 12.83 21.691 64.527 33.58 119.93 7.585 35.345 22.507 71.13 55.307 99.749 34.707 30.284 86.899 50.121 134.002 55.414 25.985 2.922 50.403 1.242 69.676-6.03 38.584-14.56 36.517-44.885 80.013-61.031 17.647-6.551 50.458-16.3 132.95-.677 23.078 4.37 48.049 9.33 73.662 16.878 40.17 11.889 75.645 28.418 112.52 51.878 25.817 16.425 49.724 34.421 72.848 65.726 48.454 65.419 21.067 103.921 52.396 152.273 5.011 7.735 10.54 14.918 17.239 20.968 37.362 33.734 100.88 44.082 220.74 60.762 62.478 8.626 135.514 23.137 221.983 33.762"/><path d="m7.2379 202.9747c70.91 17.812 115.638 20.109 145.604 16.755 18.595-2.081 29.651-7.024 36.31-13.595 26.209-25.861-11.214-79.321 15.846-93.371 23.674-12.291 66.69 28.678 122.418 20.902 43.777-6.108 44.935-36.956 76.892-36.5765357 36.976.5455357 67.259 42.3105357 100.688 79.6695357 24.971 28.057 51.751 53.679 84.81 57.124 32.581 3.395 42.027-19.116 62.354-10.906 29.79 12.032 21.767 64.15 32.847 120.365 7.025 35.642 21.208 72.138 53.821 101.458 34.392 30.92 86.689 51.364 133.908 56.712 26.065 2.954 50.559 1.143 69.808-6.346 38.603-15.164 35.415-46.095 79.382-62.949 16.459-6.309 49.057-16.334 133.282.15 23.074 4.516 48.15 9.593 73.859 16.957 40.269 11.573 77.401 27.483 114.302 50.212 26.764 16.484 51.317 35.139 73.633 65.308 48.264 65.104 18.683 103.13 50.219 152.423 4.835 7.557 10.32 14.716 17.04 20.989 36.008 33.605 99.334 49.203 219.718 66.035 61.89 8.601 135.305 20.76 223.265 28.786"/><path d="m7.4289 205.4528c72.611 19.997 117.882 23.848 147.288 21.002 18.86-1.825 29.872-6.913 36.377-13.57 25.866-26.47-14.091-81.789 12.535-96.172 23.612-12.754 66.678 29.74 122.562 21.582 44.426-6.485 44.649-38.527 76.718-38.3854705 36.965.2304705 66.923 42.9934705 100.147 80.9534705 24.901 28.556 51.677 54.433 84.887 57.183 33.102 2.741 42.378-20.892 63.183-13.088 29.985 11.248 21.85 63.773 32.115 120.799 6.468 35.941 19.96 73.093 52.335 103.168 34.131 31.498 86.48 52.607 133.812 58.009 26.147 2.986 50.732 1.085 69.941-6.66 38.654-15.687 34.343-47.245 78.753-64.868 15.276-6.062 47.66-16.383 133.612.977 23.071 4.659 48.253 9.856 74.058 17.035 40.367 11.258 79.147 26.534 116.083 48.546 27.719 16.519 52.91 35.859 74.418 64.89 48.073 64.788 16.317 102.327 48.043 152.573 4.66 7.38 10.105 14.509 16.841 21.01 34.677 33.475 97.789 54.325 218.695 71.309 61.303 8.575 135.097 18.383 224.547 23.809"/><path d="m7.6203 207.9313c74.313 22.181 120.12 27.596 148.971 25.25 19.124-1.556 30.091-6.804 36.446-13.547 25.514-27.08-16.976-84.26 9.223-98.972 23.545-13.222 66.652 30.717 122.706 22.262 45.065-6.933 44.362-40.098 76.543-40.19911 36.953-.07989 66.588 43.68011 99.606 82.24211 24.83 29.054 51.598 55.18 84.965 57.241 33.617 2.077 42.731-22.655 64.012-15.269 30.187 10.476 22.044 63.381 31.381 121.232 5.981 36.231 18.644 74.127 50.85 104.877 33.796 32.161 86.271 53.852 133.718 59.309 26.228 3.017 50.903 1.027 70.074-6.976 38.704-16.21 33.306-48.318 78.122-66.787 14.099-5.811 46.269-16.446 133.943 1.804 23.069 4.802 48.355 10.119 74.255 17.114 40.466 10.942 80.885 25.569 117.864 46.879 28.685 16.53 54.504 36.578 75.203 64.473 47.883 64.473 13.974 101.512 45.867 152.722 4.486 7.203 9.901 14.298 16.641 21.032 33.372 33.345 96.245 59.446 217.675 76.582 60.714 8.549 134.887 16.006 225.827 18.833"/><path d="m7.8117 210.4098c128.078 41.053 171.906 32.775 187.167 15.974 25.156-27.694-19.863-86.734 5.913-101.772 23.472-13.695 66.649 31.856 122.851 22.942 45.72-7.252 44.075-41.669 76.366-42.014551 64.82-.684449 106.145 137.625551 184.108 140.831551 34.129 1.404 43.088-24.405 64.842-17.45 49.34 15.773-3.437 146.395 80.012 228.252 51.97 50.978 150.113 76.508 203.829 53.316 38.755-16.733 32.32-49.298 77.493-68.706 12.93-5.556 44.882-16.522 134.274 2.631 87.889 18.831 209.439 44.875 270.086 126.46 47.692 64.158 11.651 100.688 43.69 152.872 34.99 56.989 140.942 115.982 460.204 116.765"/><path d="m7.571 212.7306c126.137 41.289 170.667 34.618 186.732 18.781 26.131-25.76-16.855-83.209 9.163-97.421 17.127-9.356 43.688 10.193 77.345 18.864 14.079 3.627 29.354 5.296 45.636 2.492 45.118-7.636 44.165-41.587 76.007-42.793 25.632-.971 47.681 19.089 70.01 44.826 33.762 38.915 66.82 90.047 114.791 92.963 33.574 2.04 42.928-22.894 64.779-15.777 4.061 1.309 7.454 3.421 10.336 6.212 32.165 31.142-2.926 144.283 73.421 216.216 25.595 24.114 61.58 41.942 97.151 51.541 38.87 10.49 78.172 11.021 105.741-.903 38.705-16.749 33.039-49.008 77.433-67.746 4.564-1.927 11.386-4.477 22.081-6.022 20.27-2.929 53.187-2.114 109.43 11.244 85.055 20.356 202.278 48.595 262.361 130.194 7.502 10.166 12.956 19.647 16.96 28.613 20.73 46.685.888 79.301 28.175 122.396 35.979 56.821 142.441 115.14 457.552 116.538"/><path d="m7.3297 215.0509c124.197 41.525 169.383 36.486 186.297 21.589 27.036-23.813-13.825-79.67 12.414-93.07 17.648-9.012 44.265 10.068 77.567 18.075 14.14 3.399 29.38 4.655 45.545 1.694 44.491-8.147 44.26-41.515 75.647-43.574 25.553-1.676 47.618 16.84 70.202 41.943 33.952 37.74 66.358 88.891 115.291 92.806 33.013 2.641 42.748-21.317 64.716-14.103 3.989 1.309 7.366 3.398 10.292 6.148 33.261 31.261 1.05 141.568 77.211 210.455 26.117 23.622 62.219 40.584 96.937 49.661 38.73 10.127 77.662 10.151 105.018-1.701 38.654-16.764 33.765-48.707 77.373-66.785 4.605-1.91 11.397-4.4 21.959-5.748 20.427-2.607 52.42-.704 106.788 13.559 82.222 21.881 195.117 52.316 254.638 133.93 7.389 10.09 12.835 19.505 16.862 28.434 20.696 45.897 2.079 78.373 29.716 120.711 36.982 56.654 143.94 114.298 454.9 116.312"/><path d="m7.089 217.3712c122.256 41.761 168.053 38.372 185.862 24.397 27.866-21.868-10.778-76.116 15.665-88.719 18.179-8.664 44.848 9.934 77.789 17.286 14.203 3.17 29.41 4.037 45.453.897 43.876-8.589 44.365-41.458 75.286-44.356 25.483-2.389 47.552 14.592 70.395 39.06 34.136 36.566 65.878 87.714 115.792 92.649 32.445 3.208 42.578-19.774 64.653-12.429 3.919 1.303 7.279 3.373 10.247 6.083 34.367 31.376 5.096 138.82 81.001 204.695 26.656 23.134 62.864 39.217 96.724 47.781 38.591 9.761 77.152 9.282 104.293-2.499 38.605-16.779 34.498-48.396 77.314-65.824 4.648-1.893 11.411-4.319 21.837-5.474 20.59-2.281 51.692.565 104.147 15.875 79.452 23.191 187.956 56.037 246.913 137.665 7.278 10.013 12.707 19.367 16.765 28.255 20.608 45.133 3.283 77.44 31.257 119.026 37.997 56.486 145.44 113.455 452.248 116.087"/><path d="m6.8483 219.692c120.316 41.997 166.674 40.268 185.426 27.204 28.618-19.936-7.712-72.545 18.917-84.367 18.721-8.312 45.437 9.79 78.011 16.497 14.269 2.937 29.439 3.421 45.361.099 43.259-9.027 44.476-41.413 74.926-45.138 25.419-3.108 47.482 12.344 70.588 36.179 34.312 35.393 65.381 86.514 116.292 92.49 31.874 3.742 42.408-18.232 64.589-10.756 3.851 1.298 7.194 3.35 10.203 6.02 35.482 31.486 9.211 136.038 84.791 198.934 27.214 22.648 63.512 37.843 96.51 45.902 38.46 9.394 76.643 8.413 103.57-3.297 38.554-16.795 35.236-48.074 77.254-64.865 4.69-1.874 11.427-4.231 21.715-5.198 20.756-1.952 50.944 1.93 101.505 18.191 76.648 24.649 180.796 59.756 239.19 141.399 7.166 9.937 12.576 19.229 16.667 28.077 20.515 44.37 4.5 76.502 32.798 117.34 39.026 56.315 146.94 112.613 449.597 115.861"/><path d="m6.6071 222.0123c118.376 42.233 165.248 42.165 184.991 30.012 29.294-18.031-4.631-68.959 22.168-80.016 19.274-7.953 46.033 9.637 78.234 15.708 14.337 2.704 29.467 2.807 45.268-.699 42.643-9.46 44.594-41.382 74.567-45.919 25.361-3.838 47.405 10.096 70.779 33.296 34.481 34.223 64.872 85.293 116.793 92.333 31.3 4.244 42.239-16.692 64.527-9.082 3.781 1.291 7.108 3.324 10.158 5.956 36.606 31.59 13.393 133.215 88.58 193.173 27.791 22.162 64.165 36.458 96.297 44.022 38.331 9.024 76.133 7.544 102.845-4.095 38.506-16.81 35.98-47.741 77.196-63.904 4.732-1.856 11.445-4.14 21.593-4.925 20.928-1.615 50.195 3.3 98.864 20.508 73.845 26.11 173.439 63.615 231.464 145.134 7.031 9.877 12.447 19.092 16.571 27.898 20.42 43.608 5.728 75.561 34.339 115.655 40.066 56.143 148.44 111.771 446.945 115.635"/><path d="m6.3664 224.3326c116.436 42.47 163.775 44.055 184.556 32.82 29.896-16.163-1.537-65.356 25.419-75.665 19.836-7.587 46.634 9.473 78.456 14.92 14.408 2.466 29.496 2.193 45.176-1.497 42.026-9.889 44.716-41.368 74.206-46.701 25.311-4.577 47.326 7.85 70.973 30.414 34.642 33.055 64.351 84.046 117.292 92.175 30.724 4.717 42.07-15.154 64.464-7.408 3.712 1.284 7.025 3.297 10.114 5.891 37.739 31.689 17.642 130.352 92.37 187.413 28.388 21.676 64.822 35.065 96.085 42.142 38.207 8.651 75.621 6.675 102.12-4.892 38.455-16.826 36.728-47.4 77.137-62.944 4.774-1.837 11.463-4.045 21.47-4.65 21.103-1.276 49.452 4.67 96.223 22.823 71.047 27.575 166.245 67.358 223.739 148.869 6.916 9.803 12.317 18.954 16.474 27.72 20.321 42.846 6.968 74.614 35.881 113.968 41.118 55.967 149.939 110.93 444.293 115.411"/><path d="m6.1252 226.6534c114.495 42.706 162.261 45.929 184.121 35.627 30.433-14.341 1.57-61.736 28.67-71.314 20.406-7.211 47.24 9.299 78.678 14.131 14.482 2.226 29.525 1.582 45.084-2.294 41.409-10.314 44.843-41.367 73.846-47.482 25.264-5.326 47.241 5.603 71.166 27.53 34.796 31.891 63.821 82.776 117.792 92.018 30.146 5.162 41.902-13.616 64.402-5.734 3.642 1.277 6.941 3.27 10.069 5.827 38.879 31.781 21.955 127.443 96.16 181.653 29.001 21.186 65.482 33.661 95.871 40.262 38.087 8.275 75.111 5.806 101.395-5.69 38.407-16.842 37.484-47.047 77.079-61.984 4.817-1.818 11.483-3.945 21.349-4.376 21.279-.929 48.707 6.044 93.58 25.14 68.253 29.043 159.053 71.098 216.016 152.603 6.8 9.73 12.184 18.817 16.376 27.542 20.22 42.086 8.219 73.662 37.422 112.283 42.183 55.787 151.438 110.088 441.64 115.184"/><path d="m5.8844 228.9738c112.555 42.942 160.708 47.78 183.686 38.436 30.914-12.572 4.688-58.102 31.921-66.964 20.983-6.828 47.851 9.115 78.9 13.343 14.557 1.982 29.553.971 44.993-3.092 40.791-10.734 44.97-41.383 73.485-48.264 25.221-6.086 47.151 3.359 71.358 24.648 34.942 30.729 63.285 81.477 118.293 91.86 29.568 5.581 41.733-12.081 64.338-4.06 3.574 1.268 6.859 3.242 10.025 5.762 40.028 31.867 26.332 124.487 99.95 175.893 29.634 20.692 66.147 32.248 95.657 38.382 37.973 7.894 74.602 4.937 100.672-6.488 38.356-16.857 38.243-46.684 77.019-61.023 4.861-1.798 11.513-4.565 21.227-4.102 21.445 1.024 47.966 7.421 90.939 27.455 65.463 30.519 151.863 74.837 208.291 156.339 6.684 9.655 12.053 18.679 16.278 27.363 20.114 41.328 9.482 72.705 38.964 110.597 43.262 55.603 152.939 109.246 438.989 114.959"/><path d="m5.6437 231.2946c110.614 43.178 159.123 49.6 183.25 41.243 31.348-10.858 7.815-54.45 35.172-62.613 21.568-6.435 48.466 8.92 79.123 12.555 14.635 1.735 29.581.361 44.9-3.89 40.174-11.149 45.101-41.414 73.126-49.045 25.18-6.858 47.056 1.117 71.551 21.765 35.08 29.572 62.744 80.152 118.793 91.702 28.991 5.975 41.565-10.547 64.275-2.385 3.505 1.259 6.777 3.213 9.98 5.697 41.184 31.945 30.769 121.482 103.74 170.132 30.286 20.193 66.815 30.825 95.444 36.503 37.862 7.509 74.092 4.067 99.948-7.286 38.306-16.873 39.005-46.312 76.959-60.064 4.906-1.777 11.552-4.503 21.106-3.826 21.592 1.53 47.227 8.803 88.297 29.771 62.674 31.998 144.676 78.573 200.567 160.073 6.569 9.581 11.92 18.543 16.181 27.185 20.005 40.57 10.754 71.743 40.505 108.912 44.353 55.411 154.437 108.403 436.336 114.733"/><path d="m5.4025 233.6149c108.674 43.414 157.512 51.384 182.815 44.051 31.747-9.201 10.95-50.782 38.424-58.261 22.157-6.033 49.084 8.712 79.344 11.765 14.714 1.484 29.61-.246 44.809-4.688 39.556-11.56 45.232-41.459 72.765-49.826 25.141-7.641 46.957-1.123 71.744 18.882 35.211 28.419 62.202 78.797 119.293 91.545 28.416 6.345 41.397-9.015 64.212-.712 3.436 1.251 6.696 3.184 9.936 5.634 42.347 32.016 35.264 118.424 107.53 164.371 30.956 19.683 67.487 29.392 95.23 34.623 37.756 7.12 73.582 3.199 99.224-8.084 38.256-16.888 39.773-45.929 76.9-59.103 4.949-1.756 11.593-4.429 20.983-3.552 21.739 2.03 46.491 10.189 85.657 32.086 59.889 33.487 137.491 82.308 192.842 163.809 6.456 9.505 11.787 18.405 16.084 27.006 19.892 39.814 12.036 70.774 42.045 107.226 45.457 55.215 155.938 107.562 433.686 114.508"/><path d="m5.1618 235.9352c106.733 43.65 155.882 53.128 182.38 46.859 32.12-7.6 14.091-47.099 41.675-53.911 22.752-5.618 49.706 8.496 79.567 10.977 14.795 1.23 29.637-.851 44.715-5.485 38.941-11.967 45.363-41.521 72.406-50.608 25.102-8.436 46.853-3.359 71.936 16 35.335 27.271 61.659 77.411 119.794 91.387 27.842 6.694 41.23-7.485 64.149.962 3.368 1.241 6.615 3.154 9.891 5.569 43.517 32.08 39.814 115.314 111.319 158.611 31.646 19.162 68.163 27.948 95.018 32.744 37.655 6.725 73.071 2.328 98.5-8.882 38.206-16.905 40.546-45.538 76.84-58.143 4.995-1.735 11.636-4.342 20.862-3.278 21.883 2.522 45.755 11.579 83.014 34.403 57.108 34.98 130.309 86.039 185.118 167.543 6.341 9.43 11.654 18.269 15.987 26.827 19.776 39.06 13.327 69.801 43.587 105.541 46.573 55.011 157.437 106.72 431.033 114.282"/><path d="m4.9206 238.256c104.793 43.886 154.24 54.83 181.945 49.666 32.478-6.053 17.238-43.401 44.926-49.559 23.351-5.193 50.331 8.268 79.789 10.188 14.878.97 29.666-1.456 44.624-6.283 38.324-12.368 45.49-41.597 72.045-51.39 25.063-9.243 46.744-5.592 72.129 13.118 35.451 26.129 61.12 75.993 120.293 91.23 27.273 7.022 41.065-5.958 64.087 2.635 3.299 1.232 6.536 3.124 9.847 5.505 44.693 32.135 44.415 112.147 115.109 152.851 32.352 18.627 68.843 26.493 94.805 30.863 37.556 6.323 72.56 1.46 97.774-9.679 38.156-16.92 41.323-45.137 76.782-57.183 5.039-1.712 11.679-4.24 20.74-3.003 22.025 3.006 45.019 12.976 80.373 36.718 54.326 36.484 123.129 89.77 177.393 171.278 6.228 9.355 11.52 18.133 15.889 26.648 19.658 38.308 14.63 68.82 45.129 103.856 47.702 54.798 158.936 105.878 428.382 114.056"/><path d="m4.6798 240.5763c102.853 44.123 152.592 56.487 181.509 52.474 32.829-4.556 20.389-39.689 48.178-45.208 23.952-4.757 50.959 8.028 80.011 9.4 14.961.706 29.695-2.059 44.532-7.082 37.709-12.765 45.616-41.687 71.685-52.171 25.02-10.062 46.63-7.822 72.322 10.235 35.56 24.993 60.584 74.543 120.793 91.073 26.705 7.331 40.899-4.432 64.024 4.309 3.231 1.221 6.455 3.093 9.801 5.441 45.876 32.182 49.064 108.925 118.899 147.09 33.078 18.077 69.526 25.026 94.592 28.983 37.465 5.915 72.051.591 97.051-10.477 38.106-16.936 42.103-44.726 76.723-56.222 5.085-1.689 11.628-3.249 20.617-2.729 22.402 1.296 44.284 14.379 77.731 39.034 51.545 37.996 115.953 93.497 169.669 175.013 6.115 9.279 11.385 17.997 15.792 26.469 19.535 37.556 15.94 67.834 46.67 102.172 48.844 54.576 160.437 105.035 425.73 113.829"/><path d="m4.4391 242.8971c100.913 44.358 152.315 64.703 181.074 55.282 31.669-10.375 23.542-35.964 51.428-40.858 24.558-4.309 51.618 10.155 80.234 8.611 15.03-.81 29.724-2.659 44.44-7.878 37.095-13.157 45.738-41.792 71.324-52.953 24.976-10.894 46.513-10.047 72.515 7.352 35.663 23.863 60.056 73.059 121.294 90.915 26.141 7.622 40.733-2.908 63.961 5.984 3.162 1.211 6.376 3.061 9.757 5.376 47.064 32.222 53.756 105.646 122.689 141.33 33.819 17.507 70.212 23.549 94.378 27.103 37.377 5.498 71.541-.279 96.326-11.275 38.057-16.951 42.888-44.306 76.664-55.262 5.131-1.664 11.653-3.118 20.495-2.455 22.595 1.696 43.548 15.788 75.09 41.351 48.763 39.517 108.78 97.223 161.945 178.747 6.002 9.203 11.249 17.861 15.695 26.291 19.408 36.806 17.257 66.84 48.211 100.486 49.998 54.346 161.935 104.193 423.078 113.604"/><path d="m4.1979 245.2174c98.972 44.595 150.36 66.333 180.639 58.089 32.401-8.821 26.697-32.225 54.679-36.506 25.163-3.849 52.294 9.9 80.456 7.823 15.092-1.114 29.754-3.259 44.348-8.677 36.482-13.544 45.854-41.909 70.965-53.734 24.924-11.739 46.389-12.267 72.707 4.47 35.759 22.741 59.536 71.537 121.794 90.757 25.582 7.897 40.569-1.388 63.898 7.657 3.095 1.2 6.297 3.029 9.712 5.312 48.258 32.254 58.489 102.309 126.48 135.57 34.577 16.915 70.9 22.06 94.164 25.223 37.293 5.072 71.031-1.148 95.602-12.073 38.007-16.966 43.675-43.877 76.604-54.302 5.178-1.639 11.68-2.983 20.374-2.18 22.787 2.105 42.809 17.204 72.448 43.667 45.978 41.05 101.609 100.947 154.221 182.481 5.889 9.128 11.113 17.727 15.597 26.113 19.279 36.058 18.583 65.84 49.752 98.801 51.164 54.105 163.436 103.351 420.426 113.378"/><path d="m3.9572 247.5377c97.032 44.831 148.41 67.837 180.204 60.897 33.127-7.23 29.853-28.474 57.93-32.155 25.77-3.378 52.969 9.613 80.678 7.034 15.152-1.41 29.784-3.855 44.256-9.474 35.871-13.928 45.965-42.038 70.605-54.516 24.868-12.595 46.262-14.482 72.9 1.587 35.849 21.626 59.028 69.98 122.294 90.6 25.028 8.157 40.405.131 63.835 9.331 3.026 1.189 6.218 2.996 9.668 5.247 49.456 32.277 63.255 98.914 130.268 129.809 35.353 16.299 71.593 20.56 93.951 23.345 37.214 4.634 70.521-2.017 94.879-12.871 37.956-16.982 44.465-43.439 76.544-53.342 5.225-1.613 11.705-2.844 20.252-1.906 22.979 2.523 42.069 18.626 69.808 45.982 43.187 42.593 94.441 104.669 146.495 186.217 5.777 9.051 10.976 17.591 15.5 25.935 19.146 35.311 19.918 64.833 51.294 97.115 52.342 53.852 164.935 102.509 417.774 113.152"/><path d="m3.716 249.8585c95.092 45.067 146.479 69.22 179.769 63.705 33.844-5.607 33.008-24.712 61.181-27.804 26.378-2.895 53.642 9.294 80.901 6.245 15.213-1.702 29.815-4.451 44.164-10.272 35.26-14.306 46.068-42.178 70.244-55.298 24.805-13.462 46.131-16.691 73.093-1.295 35.934 20.519 58.534 68.384 122.794 90.442 24.479 8.403 40.244 1.648 63.771 11.006 2.959 1.176 6.142 2.962 9.624 5.182 50.66 32.292 68.052 95.461 134.059 124.049 36.142 15.654 72.287 19.048 93.738 21.464 37.138 4.185 70.01-2.886 94.154-13.669 37.907-16.997 45.259-42.992 76.485-52.38 5.273-1.586 11.731-2.702 20.131-1.632 23.168 2.951 41.322 20.055 67.165 48.298 40.392 44.145 87.278 108.387 138.771 189.952 5.665 8.973 10.838 17.456 15.403 25.756 19.01 34.566 21.258 63.819 52.835 95.429 53.531 53.588 166.434 101.667 415.122 112.927"/><path d="m3.4753 252.1788c93.151 45.303 144.58 70.491 179.333 66.513 34.546-3.954 36.164-20.939 64.433-23.453 26.984-2.4 54.112 6.671 81.123 5.456 15.388-.692 29.846-5.044 44.071-11.07 34.653-14.678 46.166-42.327 69.885-56.079 24.735-14.341 45.996-18.893 73.285-4.178 36.014 19.421 58.057 66.748 123.294 90.285 23.935 8.635 40.083 3.161 63.709 12.679 2.891 1.165 6.063 2.93 9.579 5.118 51.868 32.298 72.876 91.949 137.849 118.289 36.945 14.978 72.985 17.523 93.525 19.585 37.066 3.72 69.5-3.756 93.43-14.468 37.856-17.012 46.055-42.536 76.425-51.42 5.321-1.556 11.755-2.555 20.009-1.357 23.357 3.39 40.572 21.49 64.524 50.614 37.589 45.706 80.118 112.104 131.047 193.686 5.553 8.897 10.7 17.322 15.305 25.578 18.869 33.823 22.606 62.798 54.376 93.744 54.733 53.311 167.935 100.825 412.471 112.701"/><path d="m3.2345 254.4991c91.21 45.54 142.843 65.578 178.897 69.321 35.115 3.645 39.318-17.156 67.685-19.102 27.589-1.893 54.741 6.368 81.345 4.667 15.473-.989 29.879-5.635 43.979-11.867 34.048-15.048 46.255-42.487 69.524-56.861 24.656-15.23 45.859-21.089 73.478-7.06 36.09 18.332 57.598 65.069 123.795 90.127 23.397 8.856 39.922 4.671 63.646 14.353 2.824 1.152 5.985 2.895 9.534 5.054 53.08 32.296 77.719 88.38 141.639 112.528 37.761 14.266 73.685 15.986 93.311 17.705 37 3.24 68.991-4.625 92.706-15.265 37.807-17.029 46.855-42.072 76.367-50.46 5.368-1.526 11.778-2.406 19.886-1.083 23.543 3.84 39.816 22.931 61.882 52.93 34.776 47.276 72.962 115.819 123.323 197.421 5.443 8.82 10.56 17.188 15.209 25.399 18.725 33.082 23.958 61.77 55.917 92.059 55.945 53.021 169.433 99.982 409.818 112.475"/><path d="m2.9933 256.8199c89.271 45.775 141.272 66.976 178.462 72.128 35.557 4.927 42.47-13.363 70.936-14.751 28.193-1.374 55.37 6.056 81.567 3.879 15.557-1.292 29.912-6.224 43.888-12.665 33.443-15.412 46.335-42.654 69.164-57.642 24.566-16.13 45.717-23.278 73.67-9.943 36.162 17.251 57.16 63.35 124.295 89.969 22.865 9.066 39.764 6.178 63.583 16.027 2.757 1.14 5.908 2.86 9.49 4.99 54.297 32.284 82.577 84.753 145.428 106.768 38.589 13.516 74.386 14.436 93.099 15.825 36.933 2.74 68.479-5.495 91.981-16.063 37.757-17.044 47.657-41.599 76.308-49.5 5.417-1.494 11.8-2.252 19.764-.808 23.727 4.301 39.052 24.375 59.24 55.246 31.951 48.853 65.81 119.53 115.599 201.155 5.332 8.742 10.42 17.055 15.11 25.221 18.58 32.343 25.318 60.733 57.459 90.373 57.169 52.718 170.934 99.141 407.167 112.25"/><path d="m2.7526 259.1403c87.33 46.012 139.721 68.349 178.027 74.936 36.02 6.194 45.638-11.752 74.187-10.4 28.775 1.363 55.995 5.734 81.789 3.09 15.64-1.602 29.947-6.812 43.796-13.462 32.843-15.772 46.407-42.828 68.804-58.425 24.466-17.038 45.574-25.458 73.863-12.824 36.231 16.18 56.745 61.585 124.795 89.811 22.34 9.266 39.606 7.682 63.52 17.701 2.689 1.127 5.831 2.825 9.445 4.926 55.516 32.264 87.446 81.07 149.218 101.007 39.425 12.724 75.115 15.386 92.885 13.945 36.817-2.985 67.97-6.364 91.258-16.861 37.707-17.06 48.46-41.118 76.248-48.54 5.466-1.459 11.822-2.095 19.643-.533 23.906 4.774 38.279 25.823 56.599 57.562 29.111 50.435 58.66 123.24 107.873 204.89 5.223 8.664 10.279 16.922 15.014 25.042 18.429 31.606 26.681 59.692 59 88.688 58.403 52.399 172.433 98.299 404.515 112.024"/><path d="m2.5114 261.4611c85.39 46.248 138.189 69.702 177.592 77.744 36.505 7.45 48.814-7.776 77.438-6.049 29.343 1.77 56.618 5.402 82.012 2.302 15.72-1.92 29.982-7.398 43.703-14.261 32.245-16.128 46.47-43.007 68.443-59.206 24.357-17.955 45.43-27.631 74.057-15.707 36.298 15.118 56.358 59.777 125.295 89.654 21.821 9.457 39.451 9.182 63.457 19.375 2.622 1.113 5.754 2.788 9.401 4.86 56.74 32.237 92.319 77.334 153.007 95.247 40.27 11.886 75.852 13.672 92.673 12.065 36.681-3.503 67.459-7.232 90.532-17.658 37.658-17.075 49.266-40.628 76.19-47.579 5.514-1.424 11.843-1.936 19.52-.26 24.082 5.26 37.499 27.273 53.958 59.878 26.26 52.021 51.517 126.949 100.15 208.625 5.112 8.587 10.136 16.791 14.916 24.864 18.274 30.871 28.049 58.641 60.541 87.002 59.648 52.065 173.932 97.457 401.863 111.799"/><path d="m2.2707 263.7814c83.449 46.484 136.677 71.037 177.157 80.552 37.01 8.698 51.979-3.778 80.689-1.698 29.913 2.167 57.238 5.062 82.234 1.513 15.799-2.243 30.019-7.982 43.611-15.059 31.649-16.478 46.524-43.191 68.083-59.987 24.235-18.88 45.283-29.796 74.249-18.59 36.365 14.068 55.999 57.922 125.795 89.496 21.311 9.641 39.298 10.679 63.395 21.049 2.555 1.1 5.677 2.753 9.356 4.797 57.966 32.2 97.19 73.543 156.798 89.486 41.118 10.998 76.583 11.921 92.459 10.186 36.549-3.994 66.949-8.102 89.808-18.457 37.608-17.091 50.073-40.13 76.13-46.619 5.566-1.385 11.861-1.773 19.399.016 24.253 5.755 36.71 28.723 51.316 62.193 23.394 53.606 44.377 130.653 92.425 212.36 5.004 8.509 9.994 16.659 14.819 24.685 18.117 30.139 29.421 57.583 62.082 85.317 60.904 51.716 175.433 96.615 399.211 111.573"/><path d="m2.0299 266.1017c81.509 46.72 135.185 72.358 176.721 83.359 37.537 9.942 55.134.242 83.941 2.654 30.486 2.552 57.853 4.713 82.456.724 15.875-2.573 30.058-8.563 43.519-15.856 31.058-16.826 46.568-43.379 67.723-60.769 24.101-19.812 45.135-31.951 74.442-21.472 36.429 13.026 55.673 56.019 126.295 89.338 20.807 9.816 39.146 12.171 63.332 22.723 2.488 1.086 5.599 2.716 9.311 4.732 59.196 32.155 102.055 69.701 160.588 83.726 41.969 10.057 77.308 10.13 92.245 8.306 36.422-4.446 66.44-8.971 89.084-19.255 37.558-17.106 50.881-39.624 76.072-45.658 5.615-1.345 11.878-1.609 19.276.289 24.418 6.266 35.912 30.173 48.675 64.51 20.513 55.191 37.242 134.356 84.7 216.095 4.894 8.43 9.849 16.528 14.722 24.507 17.958 29.408 30.797 56.517 63.624 83.63 62.169 51.349 176.931 95.773 396.559 111.348"/><path d="m1.7887 268.4225c79.569 46.956 133.711 73.667 176.286 86.167 38.082 11.181 58.177 5.718 87.192 7.004 31.171 1.381 58.464 4.357 82.678-.064 15.948-2.912 30.098-9.143 43.427-16.654 30.47-17.17 46.603-43.569 67.363-61.551 23.956-20.748 44.988-34.098 74.635-24.355 36.495 11.995 55.381 54.069 126.795 89.182 20.311 9.986 38.996 13.659 63.269 24.396 2.422 1.072 5.523 2.679 9.267 4.668 60.428 32.102 106.905 65.808 164.377 77.966 42.821 9.058 78.025 8.3 92.032 6.426 36.304-4.857 65.929-9.84 88.361-20.053 37.507-17.122 51.689-39.111 76.011-44.698 5.666-1.302 11.895-1.441 19.155.564 24.576 6.789 35.106 31.618 46.033 66.825 17.621 56.772 30.112 138.057 76.976 219.83 4.787 8.351 9.705 16.398 14.624 24.328 17.794 28.68 32.176 55.446 65.165 81.947 63.444 50.964 178.432 94.929 393.908 111.121"/><path d="m1.548 270.7428c77.628 47.192 132.255 74.965 175.851 88.975 38.645 12.419 61.306 9.554 90.442 11.355 31.757 1.963 59.071 3.992 82.901-.852 16.018-3.258 30.14-9.722 43.335-17.453 29.885-17.509 46.629-43.761 67.003-62.332 23.799-21.691 44.841-36.235 74.827-27.237 36.563 10.972 55.128 52.067 127.296 89.023 19.823 10.151 38.848 15.144 63.205 26.071 2.356 1.057 5.447 2.641 9.223 4.603 61.663 32.04 111.736 61.869 168.167 72.206 43.668 7.999 78.731 6.432 91.819 4.546 36.195-5.216 65.419-10.709 87.636-20.85 37.458-17.138 52.499-38.59 75.953-43.739 5.717-1.254 11.908-1.271 19.033.839 24.726 7.324 34.292 33.061 43.391 69.141 14.714 58.347 22.987 141.755 69.251 223.564 4.679 8.273 9.558 16.27 14.528 24.151 17.627 27.955 33.557 54.365 66.706 80.26 64.725 50.563 179.932 94.088 391.256 110.895"/><path d="m1.3068 273.0636c75.688 47.428 130.817 76.257 175.416 91.782 39.226 13.656 64.43 13.396 93.694 15.707 32.336 2.553 59.671 3.621 83.122-1.642 16.085-3.609 30.185-10.297 43.244-18.249 29.304-17.847 46.644-43.955 66.643-63.114 23.629-22.638 44.693-38.365 75.019-30.12 36.632 9.96 54.915 50.016 127.796 88.865 19.344 10.312 38.704 16.623 63.143 27.745 2.289 1.042 5.369 2.604 9.177 4.54 62.901 31.968 116.542 57.882 171.957 66.445 44.509 6.876 79.425 4.526 91.607 2.666 36.099-5.514 64.908-11.579 86.911-21.648 37.408-17.154 53.308-38.06 75.894-42.778 5.769-1.205 11.919-1.1 18.911 1.113 24.87 7.872 33.471 34.498 40.75 71.457 11.797 59.913 15.867 145.449 61.527 227.299 4.57 8.193 9.41 16.142 14.43 23.972 17.457 27.232 34.941 53.278 68.247 78.575 66.017 50.141 181.43 93.246 388.603 110.669"/><path d="m1.0661 275.3839c73.748 47.665 129.393 77.543 174.98 94.59 39.824 14.892 67.55 17.241 96.946 20.057 32.912 3.154 60.264 3.244 83.345-2.43 16.146-3.969 30.23-10.87 43.15-19.047 28.728-18.179 46.653-44.148 66.283-63.895 23.448-23.587 44.549-40.485 75.213-33.003 36.704 8.957 54.746 47.915 128.296 88.708 18.873 10.468 38.561 18.096 63.079 29.419 2.224 1.027 5.293 2.565 9.134 4.475 64.139 31.89 121.315 53.854 175.747 60.685 45.338 5.689 79.986 1.574 91.392.786 36.39-2.515 64.399-12.448 86.188-22.446 37.357-17.169 54.116-37.523 75.834-41.817 5.821-1.152 11.929-.927 18.789 1.387 25.006 8.434 32.646 35.93 38.108 73.773 8.871 61.472 8.754 149.142 53.803 231.034 4.464 8.114 9.261 16.014 14.332 23.792 17.285 26.513 36.328 52.184 69.789 76.89 67.318 49.704 182.931 92.405 385.952 110.444"/><path d="m.8253 277.7042c71.807 47.901 127.984 78.825 174.545 97.398 40.435 16.13 70.664 21.091 100.196 24.409 33.484 3.76 60.853 2.86 83.568-3.219 16.202-4.337 30.278-11.443 43.059-19.845 28.155-18.51 46.65-44.341 65.922-64.677 23.255-24.539 44.407-42.596 75.405-35.885 36.78 7.962 54.625 45.761 128.796 88.55 18.412 10.622 38.423 19.563 63.017 31.093 2.158 1.011 5.217 2.527 9.089 4.41 65.381 31.804 126.051 49.788 179.536 54.924 46.153 4.433 80.67-.091 91.18-1.093 36.278-3.46 63.889-13.316 85.463-23.244 37.307-17.184 54.924-36.978 75.775-40.857 5.874-1.093 11.936-.751 18.667 1.662 25.131 9.009 31.818 37.356 35.467 76.089 5.939 63.021 1.771 152.765 46.078 234.769 4.37 8.028 9.112 15.888 14.236 23.613 17.108 25.796 37.714 51.083 71.33 75.205 68.624 49.245 184.429 91.562 383.299 110.218"/><path d="m.5841 280.025c69.867 48.137 126.59 80.104 174.11 100.206 41.061 17.369 73.773 24.944 103.448 28.759 34.048 4.377 61.432 2.472 83.789-4.007 16.255-4.711 30.329-12.014 42.967-20.643 27.588-18.837 46.641-44.532 65.562-65.459 23.051-25.493 44.268-44.697 75.598-38.767 36.86 6.977 54.553 43.556 129.297 88.393 17.958 10.773 38.287 21.023 62.953 32.766 2.092.996 5.144 2.481 9.045 4.346 66.682 31.587 130.742 45.684 183.326 49.164 46.946 3.107 81.342-1.768 90.966-2.973 36.136-4.524 63.378-14.186 84.739-24.042 37.258-17.2 55.73-36.426 75.716-39.897 5.928-1.029 11.94-.575 18.545 1.937 25.247 9.596 30.917 38.779 32.825 78.405 2.89 64.565-5.39 156.485 38.355 238.502 4.258 7.953 8.943 15.774 14.137 23.436 16.881 25.115 39.104 49.974 72.872 73.52 69.938 48.766 185.929 90.719 380.648 109.992"/><path d="m.3434 282.3453c194.196 138.294 301.378 151.009 364.385 131.328 94.903-29.645 114.542-140.588 183.867-129.33 45.545 7.396 61.675 59.315 192.688 122.675 2.026.98 5.063 2.449 8.999 4.282 130.466 60.755 259.627 41.46 277.87 38.55 118.969-18.979 139.105-77.25 178.094-61.566 70.658 28.424-18.344 210.599 74.855 346.216 51.93 75.569 171.128 152.244 452.408 181.601"/></g></svg>