<svg width="744" height="72" viewBox="0 0 744 72" fill="none" xmlns="http://www.w3.org/2000/svg">
<path fill-rule="evenodd" clip-rule="evenodd" d="M237.349 20.9946C235.71 19.9205 233.618 20.1183 233.618 20.1183C230.863 19.6663 229.888 20.6553 229.888 20.6553C229.888 20.6553 229.315 20.6126 228.785 20.8884C228.383 20.9307 227.302 21.3332 227.238 22.266C227.174 23.1988 227.153 24.5131 227.429 24.5556C227.704 24.5981 227.832 24.5133 228.044 24.1741C228.107 24.8526 228.552 25.1916 228.552 25.1916C228.552 25.1916 228.383 26.3786 228.34 27.5022C223.268 27.8729 221.438 28.5516 220.815 28.7825C220.654 28.8421 220.574 28.8719 220.539 28.8588C218.801 28.1378 218.017 25.8486 217.89 24.8735C217.763 23.8985 217.572 23.7925 217.508 24.2164C217.127 27.8622 219.141 29.5795 219.331 29.6854C219.522 29.7912 219.416 29.8762 219.225 30.0243C218.992 30.2151 217.742 31.5294 216.894 34.2854C216.074 36.9476 215.572 39.7486 215.5 40.1454L215.495 40.1782C215.474 40.2911 215.304 40.6233 215.079 41.0635C214.839 41.5317 214.537 42.1221 214.286 42.7013C212.364 44.0298 212.986 44.7644 213.664 44.821C214.959 44.87 215.346 43.5033 215.518 42.8948L215.518 42.8947L215.518 42.8947C215.545 42.7994 215.567 42.7227 215.586 42.6729C215.925 41.7404 217.706 38.5184 217.932 38.3769C218.03 38.3153 218.252 38.1094 218.533 37.8476L218.533 37.8476C218.899 37.5075 219.366 37.0731 219.797 36.7377C219.939 36.6274 220.092 36.4986 220.251 36.3651L220.251 36.3651L220.251 36.3648L220.251 36.3648C220.803 35.9012 221.422 35.381 221.86 35.381C222.596 35.381 223.698 36.3136 223.754 36.9071C223.811 37.5008 223.415 38.5182 223.274 38.8289C223.145 39.1131 223.204 39.3023 223.302 39.613L223.302 39.6131L223.302 39.6141C223.311 39.6434 223.321 39.6739 223.33 39.7056L223.371 39.8378L223.371 39.8379L223.371 39.8379C223.572 40.4976 224.281 42.8239 224.489 42.9278C225.45 43.3516 226.553 43.2668 226.581 42.7863C226.609 42.3057 225.733 41.8254 225.451 41.7122C225.168 41.5993 224.998 41.4578 224.998 41.2881C224.998 41.1902 224.923 40.8946 224.843 40.5806L224.843 40.5805C224.784 40.3505 224.723 40.1107 224.687 39.9315C225.337 39.3099 226.27 38.2356 226.27 38.2356C226.27 38.2356 226.468 38.3771 226.666 38.3771C226.717 39.7905 227.189 41.578 227.423 42.4643L227.423 42.4644L227.423 42.4651L227.424 42.4671C227.447 42.5544 227.467 42.633 227.485 42.7015C227.636 43.283 227.656 43.8809 227.681 44.6704V44.6704L227.681 44.6705C227.689 44.917 227.698 45.1822 227.711 45.4714C227.748 46.2734 227.712 47.2719 227.683 48.0696C227.668 48.481 227.655 48.839 227.655 49.0889C227.655 49.8237 228.446 50.2761 229.04 50.2761C229.633 50.2761 230.311 49.965 230.396 49.4282C230.481 48.8914 229.888 48.4673 229.888 48.4673C229.888 48.4673 229.463 46.574 229.463 45.3583C229.463 45.2114 229.463 45.0543 229.463 44.8909V44.8909V44.8909V44.8909V44.8909V44.8908V44.8908C229.459 43.7023 229.455 42.1868 229.605 41.9383C230.085 40.7513 230.481 38.6882 230.481 38.6882C230.481 38.6882 232.799 38.7161 234.184 38.0945C234.749 40.4125 233.788 44.3407 233.647 44.8779C233.505 45.4151 233.534 46.3475 233.731 46.8843C233.929 47.422 234.749 47.676 235.145 47.676C235.54 47.676 236.36 47.2236 236.417 46.8281C236.46 46.5267 236.027 45.9954 235.743 45.647C235.655 45.5381 235.581 45.4471 235.54 45.3866C235.371 45.1324 235.427 44.2844 235.569 43.4927C235.71 42.7015 236.275 41.0056 236.529 40.5535C236.784 40.1011 237.292 39.168 237.18 38.0658C237.717 37.5295 238.395 35.9464 238.452 34.6179C238.508 33.2894 237.377 29.3045 237.292 29.0784C237.208 28.8521 237.151 28.6545 237.236 28.428C237.25 28.4006 237.266 28.3695 237.284 28.3347L237.284 28.3344C237.525 27.8654 238.108 26.7279 238.056 25.1495C238.48 24.8386 238.706 24.0188 238.706 24.0188C238.706 24.0188 239.017 24.6973 239.158 24.5275C239.61 23.7079 239.045 22.3516 238.734 21.7863C238.423 21.2211 237.943 20.9662 237.349 20.9946ZM263.493 25.9123H245.659V30.0954H255.268L245.659 45.1322H263.691V40.9773H254.251L263.493 25.9123ZM264.312 25.9123H269.711L274.091 37.3589L278.727 25.8841H283.73L273.498 51.5192H268.128L271.406 44.2271L264.312 25.9123ZM289.581 25.9406H284.566L284.549 45.1884H289.552V33.2891C292.294 29.3607 295.657 29.0779 295.657 32.0173V45.1884H300.688V31.4521C300.688 28.3431 298.427 25.5167 294.979 25.5167C291.531 25.5167 289.581 27.5798 289.581 27.5798V25.9406ZM320.585 39.6771V25.9125H315.554V26.7319C315.554 26.7319 313.572 25.6692 311.71 25.5451C308.742 25.3471 303.005 27.6363 302.977 35.2958C302.946 43.6334 308.855 44.7642 310.636 44.7642C311.738 44.7642 313.661 44.6231 315.554 43.0399C315.554 46.9688 313.378 47.6756 311.456 47.6756H306.199L306.17 52C306.17 52 308.997 51.9715 312.021 51.8583C320.615 51.3402 320.598 44.6868 320.586 40.1579C320.586 39.9948 320.585 39.8343 320.585 39.6771ZM315.554 37.8678C315.554 37.8678 314 40.1293 311.23 40.1293C308.46 40.1293 308.177 37.4437 308.177 35.4371C308.177 33.4305 308.771 29.728 311.908 29.728C314.141 29.728 315.554 31.3674 315.554 31.3674V37.8678H315.554ZM337.628 39.6154C337.627 40.9448 337.627 41.8742 339.776 41.3163C339.917 42.3055 340.228 44.6508 340.228 44.6508C340.228 44.6508 338.476 45.5838 336.893 45.5838C335.31 45.5838 334.179 44.6231 333.614 43.6336C332.144 44.7358 330.222 45.5838 328.441 45.5838C326.661 45.5838 322.591 44.1709 322.591 39.9026C322.591 35.6349 326.096 33.1475 332.653 33.0345C332.653 32.8985 332.667 32.7347 332.683 32.5536C332.778 31.4565 332.927 29.7279 330.307 29.7279C327.254 29.7279 324.146 31.8477 324.146 31.8477V27.1558C324.146 27.1558 327.509 25.4884 331.042 25.4884C334.575 25.4884 337.628 27.2412 337.628 31.3957V39.5637L337.628 39.6154ZM329.516 41.1468C331.212 41.1468 332.625 39.875 332.625 39.875V36.7377C327.821 36.5682 327.594 39.0271 327.594 39.4509C327.594 39.875 327.82 41.1468 329.516 41.1468ZM340.466 28.3011V26.3763H341.319C341.491 26.3763 341.621 26.3941 341.71 26.4284C341.8 26.4629 341.871 26.524 341.925 26.6114C341.978 26.6988 342.005 26.7956 342.005 26.9018C342.005 27.0383 341.96 27.1534 341.872 27.2468C341.784 27.3408 341.648 27.4003 341.462 27.4256C341.53 27.4584 341.581 27.4901 341.616 27.5216C341.691 27.5897 341.761 27.6753 341.827 27.7775L342.162 28.3013H341.842L341.588 27.9006C341.53 27.8097 341.469 27.7213 341.404 27.6354C341.355 27.5743 341.312 27.5316 341.274 27.5066C341.239 27.4832 341.2 27.4658 341.158 27.4554C341.112 27.448 341.064 27.445 341.017 27.4462H340.721V28.3011H340.466ZM340.721 27.2259H341.268C341.384 27.2259 341.475 27.2135 341.541 27.1891C341.603 27.1685 341.655 27.128 341.691 27.074C341.724 27.0209 341.742 26.9632 341.742 26.9014C341.742 26.8102 341.709 26.7355 341.643 26.6769C341.577 26.6182 341.472 26.5892 341.33 26.5892H340.721V27.2259ZM341.314 25.5261C340.313 25.5261 339.502 26.3373 339.501 27.3386C339.502 28.3398 340.313 29.151 341.314 29.151C342.315 29.151 343.126 28.34 343.127 27.3386C343.126 26.3373 342.315 25.5261 341.314 25.5261ZM340.237 28.4157C339.951 28.13 339.791 27.7426 339.79 27.3386C339.79 26.9345 339.951 26.547 340.237 26.2613C340.523 25.9756 340.91 25.815 341.314 25.8147C341.718 25.8151 342.106 25.9758 342.391 26.2615C342.677 26.5472 342.838 26.9346 342.838 27.3386C342.837 27.7426 342.677 28.1299 342.391 28.4156C342.106 28.7013 341.718 28.862 341.314 28.8624C340.91 28.862 340.523 28.7013 340.237 28.4157Z" fill="#D2DBDF"/>
<path d="M401.496 24.6494C401.496 24.6494 401.529 24.729 401.578 24.8661C401.565 24.7885 401.55 24.7115 401.532 24.6343C401.52 24.6389 401.509 24.6441 401.496 24.6494" fill="#D2DBDF"/>
<path d="M401.496 24.6494C401.496 24.6494 401.529 24.729 401.578 24.8661C401.565 24.7885 401.55 24.7115 401.532 24.6343C401.52 24.6389 401.509 24.6441 401.496 24.6494" fill="#D2DBDF"/>
<path d="M401.496 24.6494C401.496 24.6494 401.529 24.729 401.578 24.8661C401.565 24.7885 401.55 24.7115 401.532 24.6343C401.52 24.6389 401.509 24.6441 401.496 24.6494" fill="#D2DBDF"/>
<path fill-rule="evenodd" clip-rule="evenodd" d="M428.488 40.4612C428.351 40.5862 428.196 40.6901 428.029 40.7695C427.877 40.838 427.78 40.8831 427.736 40.9047H433.835L433.835 40.9048H439.148C438.939 40.8551 438.746 40.7549 438.585 40.613C438.436 40.4788 438.311 40.3194 438.217 40.1421C438.122 39.9603 438.054 39.7649 438.018 39.5627C437.978 39.3559 437.958 39.1458 437.957 38.9352V36.9877C438.261 36.9877 438.546 36.9966 438.812 37.0144C439.06 37.0283 439.304 37.0852 439.532 37.1824C439.749 37.2791 439.938 37.4278 440.084 37.6152C440.261 37.8598 440.381 38.1407 440.436 38.4376V34.4773C440.323 34.7539 440.174 35.0139 439.992 35.2504C439.854 35.4244 439.678 35.565 439.478 35.6619C439.272 35.7557 439.05 35.8109 438.824 35.8246C438.578 35.8421 438.289 35.851 437.957 35.8513V33.471L439.581 33.4812C439.833 33.4812 440.095 33.4919 440.365 33.5134C440.632 33.5346 440.896 33.5783 441.155 33.644C441.411 33.7086 441.658 33.8029 441.891 33.9248C442.124 34.0467 442.332 34.212 442.503 34.4119C442.566 34.485 442.624 34.5627 442.676 34.6444C442.729 34.726 442.77 34.8155 442.795 34.9097V32.2477H433.835C434.024 32.3158 434.196 32.4249 434.338 32.567C434.479 32.7086 434.598 32.8709 434.69 33.0484C434.783 33.2284 434.854 33.4191 434.9 33.6164C434.935 33.761 434.957 33.9083 434.966 34.0567V39.1187C434.93 39.4767 434.815 39.8223 434.63 40.1309C434.533 40.2924 434.417 40.4413 434.284 40.5743C434.153 40.7056 434.003 40.8162 433.839 40.9022C433.743 40.8806 433.65 40.8451 433.564 40.7969C433.476 40.7475 433.391 40.6932 433.309 40.6344C433.093 40.4814 432.896 40.3014 432.725 40.0987C432.564 39.9039 432.423 39.6937 432.303 39.4712C432.176 39.234 432.066 38.9881 431.973 38.7353L431.529 37.416L430.929 35.6349L429.771 32.2474H424.695C424.856 32.2874 425.011 32.3476 425.156 32.4266C425.285 32.5033 425.404 32.5978 425.507 32.7074C425.628 32.8368 425.714 32.9954 425.756 33.1678C425.792 33.3244 425.792 33.4871 425.756 33.6437C425.722 33.8024 425.675 33.9579 425.616 34.1087C425.471 34.4843 425.361 34.7819 425.285 35.0015C425.262 35.0682 425.238 35.1301 425.212 35.1916L424.295 37.561C424.245 37.6981 424.169 37.9001 424.068 38.167C423.967 38.4341 423.853 38.7119 423.727 39.0004C423.601 39.2891 423.467 39.5596 423.326 39.812C423.225 40.0123 423.091 40.195 422.931 40.3529C422.81 40.4531 422.684 40.547 422.553 40.6344C422.429 40.717 422.329 40.7804 422.254 40.8234C421.301 40.3882 420.184 38.3133 419.377 36.5886L419.377 36.5886C419.598 36.4875 419.801 36.3528 419.981 36.1894L420.037 36.1332C420.12 36.0508 420.198 35.9627 420.269 35.8695C420.274 35.8638 420.278 35.8582 420.283 35.8526C420.288 35.846 420.293 35.8393 420.298 35.8323C420.659 35.3963 420.832 34.8354 420.781 34.2719H420.78C420.766 34.0258 420.702 33.785 420.594 33.5635C420.528 33.4288 420.45 33.3003 420.361 33.1794C420.217 32.9772 420.028 32.8106 419.81 32.6924C419.584 32.569 419.344 32.4744 419.095 32.4109C418.842 32.3459 418.583 32.3026 418.322 32.2814C418.058 32.2593 417.815 32.2484 417.591 32.2488H411.64C411.841 32.2995 412.03 32.3896 412.197 32.5139C412.359 32.6526 412.49 32.824 412.581 33.0169C412.709 33.2985 412.772 33.6054 412.765 33.9148C412.772 34.1029 412.776 34.2942 412.776 34.4889V38.9252C412.775 39.1204 412.751 39.3148 412.705 39.5045C412.659 39.7012 412.59 39.8918 412.5 40.0725C412.411 40.2518 412.294 40.416 412.154 40.5592C412.012 40.7043 411.845 40.8218 411.661 40.9059H416.802C416.689 40.8648 416.579 40.8177 416.471 40.7648C416.344 40.7017 416.229 40.6176 416.13 40.5161C416.01 40.3897 415.913 40.2431 415.844 40.083C415.75 39.8593 415.693 39.6217 415.676 39.3796C415.64 38.9839 415.625 38.5865 415.633 38.1892C415.64 37.7856 415.644 37.389 415.644 36.9993H415.99C416.149 36.9993 416.304 36.9987 416.453 36.9974C417.809 40.1633 418.28 40.9059 419.629 40.9059H422.598C422.585 40.9059 422.573 40.9055 422.56 40.9047H426.687C426.363 40.8369 426.073 40.6567 425.87 40.396C425.674 40.129 425.566 39.8076 425.561 39.4765C425.566 39.3739 425.582 39.2722 425.61 39.1734C425.642 39.0434 425.682 38.9122 425.729 38.7784C425.776 38.6449 425.824 38.5169 425.875 38.3943C425.925 38.2716 425.962 38.1773 425.983 38.1128H428.548C428.569 38.171 428.598 38.2519 428.635 38.3565C428.671 38.461 428.709 38.5674 428.748 38.6758C428.788 38.784 428.824 38.8886 428.857 38.9899C428.889 39.0905 428.912 39.1661 428.927 39.2164C428.996 39.4605 428.977 39.7211 428.873 39.9524C428.779 40.1452 428.648 40.318 428.488 40.4612L428.488 40.4612ZM426.265 37.0848L427.174 34.2715L428.126 37.0848H426.265ZM443.649 35.5267V32.2477H452.739V35.4941C452.678 35.127 452.512 34.7851 452.263 34.5092C452.04 34.2686 451.772 34.0753 451.473 33.941C451.196 33.8188 450.905 33.7315 450.607 33.6811C450.375 33.64 450.14 33.6167 449.904 33.6114H449.622V38.8809C449.622 39.106 449.653 39.3299 449.714 39.5465C449.774 39.7635 449.867 39.9699 449.991 40.1583C450.112 40.3448 450.266 40.5079 450.445 40.6397C450.631 40.7755 450.846 40.8662 451.073 40.9047H445.391C445.595 40.8495 445.788 40.758 445.96 40.6344C446.127 40.5136 446.275 40.3675 446.397 40.2013C446.521 40.0341 446.616 39.8477 446.679 39.6495C446.723 39.5128 446.752 39.3718 446.766 39.2289V33.6114C446.428 33.5828 446.088 33.5972 445.754 33.6545C445.422 33.7087 445.1 33.8165 444.802 33.9738C444.512 34.1263 444.256 34.336 444.05 34.5901C443.834 34.8605 443.696 35.1841 443.649 35.5267ZM415.46 33.5257V35.8198C415.698 35.8198 415.947 35.8231 416.207 35.8309C416.447 35.8398 416.687 35.816 416.921 35.7603C417.128 35.7117 417.315 35.6002 417.456 35.441C417.612 35.2331 417.687 34.9754 417.667 34.7161C417.688 34.4404 417.62 34.1652 417.472 33.9312C417.345 33.7636 417.166 33.642 416.964 33.5849C416.733 33.5215 416.494 33.4959 416.255 33.5093C415.991 33.5204 415.727 33.5257 415.46 33.5257Z" fill="#D2DBDF"/>
<path d="M413.327 22.1911C412.946 22.3651 412.62 22.64 412.384 22.986C412.148 23.3321 412.011 23.7361 411.989 24.1543L411.987 24.155C411.676 23.9351 411.315 23.7962 410.937 23.7509C410.559 23.7056 410.175 23.7554 409.821 23.8956C409.85 23.9914 409.885 24.0852 409.926 24.1764C410.06 24.472 410.256 24.7355 410.5 24.9496C410.744 25.1636 411.031 25.3232 411.342 25.4179C410.997 25.9525 410.543 26.4077 410.009 26.7536C409.776 26.9028 409.51 26.9909 409.235 27.0095C408.888 27.0506 408.536 26.9866 408.226 26.8258C407.916 26.6651 407.661 26.4149 407.495 26.1077C407.286 26.4824 406.945 26.7666 406.539 26.9059C406.133 27.0452 405.69 27.0297 405.295 26.8625C405.189 26.8012 405.086 26.7365 404.986 26.6667C404.138 26.0769 403.52 25.2118 403.238 24.2182C403.25 24.2175 403.263 24.2162 403.276 24.2149C403.628 24.1758 403.965 24.0556 404.263 23.8639C404.56 23.6722 404.809 23.4141 404.99 23.1099C405.029 23.0444 405.065 22.9769 405.098 22.9076C404.812 22.696 404.481 22.5538 404.131 22.4922C403.781 22.4306 403.422 22.4514 403.081 22.5529C403.011 22.5739 402.942 22.5986 402.873 22.6261C402.897 21.8221 402.293 20.6126 401.553 20.1726C401.459 20.1187 401.362 20.07 401.262 20.0269L401.197 20L401.152 20.0575C401.093 20.133 401.04 20.2119 400.992 20.2939C400.555 21.0365 400.676 22.3693 401.084 23.0629C401.011 23.0714 400.937 23.0839 400.866 23.0994C400.556 23.1663 400.264 23.2967 400.008 23.4823C399.752 23.6679 399.537 23.9047 399.377 24.1777C399.338 24.2438 399.302 24.3118 399.271 24.3816C399.333 24.4266 399.397 24.4684 399.463 24.5069C399.767 24.6864 400.11 24.7927 400.462 24.8174C400.815 24.8421 401.169 24.7846 401.496 24.6493C401.508 24.644 401.52 24.6394 401.532 24.6342C401.744 25.5589 401.656 26.5272 401.282 27.3988C401.28 27.3948 401.28 27.3902 401.278 27.3863C401.272 27.4084 401.265 27.4307 401.258 27.4537C401.233 27.5097 401.206 27.5659 401.179 27.6214C401.113 27.7558 401.04 27.8866 400.96 28.0134C400.692 28.3506 400.308 28.5765 399.883 28.6476C399.458 28.7186 399.022 28.6296 398.659 28.3979C398.657 28.7473 398.551 29.0883 398.354 29.3767C398.157 29.6651 397.878 29.8876 397.552 30.0155C397.398 30.0766 397.235 30.1149 397.069 30.1292C396.349 30.117 395.642 29.9321 395.008 29.5899C395.235 29.3575 395.409 29.0794 395.52 28.7742C395.631 28.469 395.675 28.1437 395.65 27.82C395.642 27.7188 395.627 27.5326 395.608 27.4366C394.817 27.5359 394.164 28.2411 393.834 28.6199H393.832C393.396 28.2411 392.593 27.5652 391.714 27.6319C391.511 27.6643 391.314 27.7233 391.127 27.8076C392.108 28.5442 393.043 29.3411 393.925 30.1938C394.545 30.7876 395.14 31.421 395.708 32.0695C396.498 32.9726 397.846 34.7967 397.848 34.796C398.199 35.123 398.666 35.2982 399.145 35.2833C399.175 35.279 399.202 35.2645 399.222 35.2425C399.242 35.2204 399.254 35.1921 399.255 35.1624C399.261 35.1147 399.179 35.086 399.136 35.067C398.976 35.0095 398.832 34.9132 398.719 34.7867C398.605 34.6602 398.524 34.5075 398.483 34.3422C398.229 33.5467 400.609 32.1106 404.087 31.2277C407.566 30.3453 410.36 30.4525 410.521 31.2734C410.565 31.4379 410.568 31.6108 410.529 31.7766C410.49 31.9424 410.41 32.096 410.298 32.2237C410.27 32.2609 410.211 32.3263 410.24 32.3654C410.256 32.3909 410.28 32.4103 410.308 32.4201C410.336 32.43 410.367 32.4299 410.395 32.4197C410.822 32.2021 411.147 31.825 411.298 31.37C411.298 31.37 411.672 29.1091 411.929 27.9375C412.113 27.095 412.335 26.2639 412.592 25.4441C412.958 24.2778 413.396 23.1356 413.905 22.024C413.706 22.0539 413.511 22.1101 413.327 22.1911" fill="#D2DBDF"/>
<path d="M401.038 32.9895C402.917 32.1868 404.895 31.642 406.92 31.3699C406.92 31.3699 410.869 31.7585 410.869 36.394C410.869 41.0295 407.572 43.6758 403.083 43.6758C398.595 43.6758 396.229 41.6975 396.229 39.5902C396.229 37.4826 397.744 37.1469 398.448 37.1469C399.152 37.1469 400.426 37.7831 400.426 39.4347C400.426 39.4347 399.158 39.1232 399.158 40.2203C399.158 41.3174 400.658 42.0006 402.714 42.0006C404.769 42.0006 407.672 41.1 407.672 37.0869C407.672 32.8053 405.69 32.6139 404.313 32.6139V39.9585C404.324 40.1391 404.406 40.3081 404.541 40.4289C404.676 40.5497 404.852 40.6127 405.033 40.6044C405.033 40.6044 404.309 41.2157 402.516 41.2157C400.724 41.2157 400.213 40.6402 400.213 40.6402C400.213 40.6402 401.061 40.6435 401.061 39.8951C401.061 39.1473 401.038 32.9895 401.038 32.9895" fill="#D2DBDF"/>
<path d="M450.747 48.3382C450.691 48.1737 450.62 48.015 450.534 47.8641C450.387 47.6051 450.183 47.3826 449.939 47.2129L449.937 47.2116C449.907 47.1902 449.878 47.1685 449.849 47.1484L449.843 47.1445C449.71 47.0514 449.571 46.9665 449.428 46.8903C448.409 46.3477 447.362 46.3451 446.523 46.1478C446.39 46.117 446.259 46.0784 446.13 46.0323C446.083 46.0139 446.037 45.9949 445.99 45.9741C445.813 45.8948 445.647 45.7908 445.498 45.6653C445.366 45.5517 445.272 45.401 445.228 45.2329C445.205 45.1653 445.197 45.0935 445.204 45.0225C445.211 44.9514 445.234 44.8829 445.271 44.8215C445.381 44.6532 445.527 44.511 445.698 44.4048C445.881 44.2906 446.08 44.2049 446.288 44.1507C446.512 44.0922 446.743 44.0648 446.975 44.0691C447.215 44.0725 447.453 44.1072 447.684 44.1723C447.949 44.2381 448.207 44.325 448.458 44.4322C448.637 44.5117 448.807 44.6133 448.961 44.7346C449.037 44.7959 449.109 44.8611 449.177 44.93C449.25 45.0017 449.325 45.0774 449.405 45.1572C449.484 45.2362 449.572 45.3243 449.67 45.4223C449.767 45.5196 449.888 45.6367 450.032 45.7736V42.603C450.032 42.603 449.789 43.2091 448.826 43.2091C448.556 43.2019 448.287 43.1803 448.019 43.1444C447.745 43.1006 447.468 43.0562 447.186 43.0085C446.875 42.9598 446.56 42.9401 446.245 42.9497C445.812 42.9487 445.38 43.0069 444.962 43.1227C444.564 43.2299 444.189 43.4075 443.854 43.6472C443.51 43.8899 443.232 44.2143 443.045 44.5913C442.858 44.9682 442.767 45.3858 442.782 45.8064C442.764 46.1871 442.852 46.5654 443.036 46.8989C443.171 47.1212 443.336 47.3227 443.529 47.4971L443.532 47.499C443.537 47.5049 443.544 47.5102 443.55 47.5161C443.572 47.5342 443.593 47.5526 443.615 47.5703C443.649 47.599 443.684 47.6263 443.718 47.6539C444.42 48.1919 445.41 48.4526 446.554 48.7144C446.577 48.7197 446.597 48.7236 446.619 48.7282L446.627 48.7302C446.745 48.7562 446.862 48.7863 446.98 48.8203C447.198 48.8805 447.408 48.9638 447.608 49.069C447.77 49.1513 447.914 49.2652 448.031 49.4041C448.079 49.4607 448.112 49.5286 448.127 49.6016C448.142 49.6746 448.139 49.7502 448.117 49.8214C448.091 49.944 448.039 50.0595 447.964 50.1602C447.889 50.2609 447.794 50.3444 447.684 50.4051C447.458 50.5233 447.209 50.5898 446.954 50.5998C446.676 50.6139 446.398 50.5922 446.126 50.5353C445.88 50.4868 445.637 50.4215 445.401 50.3399C444.933 50.1677 444.486 49.9426 444.07 49.6691C443.793 49.4798 443.531 49.27 443.285 49.0416C443.024 48.7962 442.793 48.5201 442.598 48.2195V52C443.007 51.7636 443.465 51.6257 443.936 51.5971C443.938 51.5986 443.939 51.5999 443.94 51.6011C444.092 51.5753 444.246 51.5609 444.399 51.558C444.635 51.5542 444.871 51.5722 445.103 51.612C445.338 51.6514 445.571 51.7038 445.801 51.7688C446.048 51.8327 446.3 51.8796 446.553 51.9092C446.806 51.9384 447.061 51.953 447.316 51.953C447.747 51.9522 448.177 51.9032 448.598 51.8067C449.01 51.7166 449.403 51.5515 449.756 51.3196C450.1 51.0919 450.387 50.7885 450.595 50.4327C450.823 50.0214 450.931 49.5549 450.909 49.0854C450.88 48.8315 450.826 48.5812 450.747 48.3382" fill="#D2DBDF"/>
<path d="M430.749 44.9406C430.749 44.8035 430.757 44.6552 430.771 44.4966C430.785 44.3392 430.815 44.1835 430.858 44.0316C430.899 43.884 430.959 43.7422 431.036 43.6097C431.113 43.4797 431.214 43.3657 431.334 43.274C431.46 43.1767 431.609 43.1135 431.767 43.0905H427.796C428.015 43.1017 428.224 43.1811 428.396 43.3177C428.552 43.449 428.678 43.6134 428.764 43.7991C428.856 43.9961 428.918 44.2059 428.948 44.4214C428.979 44.6291 428.995 44.8389 428.997 45.0491V48.923L425.274 43.0905H420.772C420.99 43.0941 421.2 43.1722 421.367 43.3118C421.52 43.4467 421.638 43.6154 421.714 43.8044C421.795 44.0055 421.85 44.2165 421.876 44.4319C421.904 44.6365 421.918 44.8426 421.919 45.0491C421.919 45.1352 421.921 45.2639 421.924 45.4329V49.535C421.922 49.7165 421.918 49.8987 421.908 50.0809C421.901 50.218 421.89 50.3587 421.876 50.5028C421.863 50.6444 421.833 50.7842 421.789 50.9195C421.746 51.0522 421.685 51.178 421.606 51.293C421.523 51.4113 421.416 51.5108 421.292 51.585C421.261 51.604 421.228 51.6204 421.194 51.634C421.151 51.6515 421.106 51.6679 421.059 51.6823C421.012 51.6966 420.97 51.711 420.935 51.7254C420.914 51.7353 420.892 51.7425 420.87 51.7469H424.754C424.647 51.6896 424.555 51.6374 424.479 51.5903C424.4 51.5408 424.324 51.4867 424.251 51.4282C424.183 51.3742 424.12 51.3143 424.062 51.2493C423.894 51.043 423.782 50.7969 423.737 50.5347C423.688 50.2745 423.663 50.0102 423.662 49.7454V45.9333L427.325 51.7469H431.767C431.609 51.7236 431.46 51.6605 431.334 51.5634C431.214 51.4717 431.113 51.3577 431.036 51.2276C430.959 51.0951 430.899 50.9535 430.858 50.8059C430.814 50.6538 430.785 50.4979 430.771 50.3403C430.757 50.1815 430.749 50.0336 430.749 49.8967V44.9406H430.749Z" fill="#D2DBDF"/>
<path d="M418.882 48.3048V44.8722C418.888 44.7173 418.905 44.5631 418.932 44.4105C418.965 44.2166 419.027 44.0286 419.115 43.8528C419.204 43.6812 419.325 43.5288 419.473 43.4042C419.642 43.2642 419.837 43.1576 420.047 43.0899H414.874C415.086 43.1477 415.282 43.2531 415.447 43.3983C415.616 43.5676 415.75 43.7681 415.842 43.9886C415.975 44.3255 416.036 44.6866 416.021 45.0485V49.5919C416.021 49.7363 416.017 49.91 416.01 50.1131C416.015 50.3998 415.952 50.6836 415.826 50.9412C415.73 51.1295 415.6 51.2982 415.442 51.4388C415.416 51.4611 415.386 51.4818 415.356 51.5035C414.088 50.9869 412.767 49.7129 411.789 48.1847C411.212 47.2853 410.562 46.0935 410.02 45.0531C410.529 44.4157 411.017 43.8228 411.41 43.3707C412.18 42.6261 413.146 42.1154 414.195 41.8981H409.972C409.972 41.8981 410.36 42.4532 409.802 43.1279L407.003 46.5115V43.734C406.974 43.7469 406.943 43.7607 406.913 43.7731C406.793 43.8221 406.668 43.8691 406.541 43.9129C406.155 44.0468 405.76 44.1542 405.359 44.2342C405.221 44.2622 405.078 44.2884 404.935 44.3112C404.634 44.3662 404.33 44.4044 404.025 44.4256V49.4939L404.007 49.8832C403.997 49.9871 403.985 50.0917 403.969 50.1999C403.934 50.4387 403.868 50.6718 403.771 50.8928C403.679 51.1039 403.544 51.2936 403.375 51.4499C403.19 51.6143 402.959 51.718 402.713 51.7472H408.13C407.908 51.7028 407.707 51.585 407.561 51.4127C407.406 51.2288 407.288 51.0165 407.214 50.7876C407.127 50.5265 407.069 50.2568 407.04 49.9832C407.007 49.6906 406.989 49.4038 406.985 49.123C406.984 49.0703 406.983 49.0193 406.983 48.9677C407.199 48.6836 407.533 48.244 407.931 47.7254C408.145 48.0854 408.372 48.4596 408.608 48.8319C409.727 50.6041 410.621 51.7504 412.041 51.7504C413.461 51.7504 420.024 51.7472 420.024 51.7472C419.813 51.6626 419.618 51.5397 419.451 51.3847C419.285 51.2115 419.151 51.01 419.057 50.7896C418.944 50.5246 418.885 50.2402 418.882 49.9524V48.3048L418.882 48.3048Z" fill="#D2DBDF"/>
<path d="M437.785 47.451C437.922 47.5845 438.019 47.7531 438.067 47.9383C438.117 48.1414 438.138 48.3508 438.129 48.5599C438.122 48.7872 438.122 49.0162 438.129 49.2469C438.129 49.3626 438.133 49.4978 438.14 49.6533C438.148 49.8036 438.127 49.9542 438.079 50.0966C438.025 50.2428 437.926 50.368 437.796 50.4538C437.603 50.5648 437.381 50.6158 437.158 50.6001C436.875 50.6134 436.594 50.5376 436.356 50.3834C436.154 50.2401 435.988 50.0513 435.871 49.8322C435.754 49.6098 435.67 49.3715 435.621 49.1249V49.1301C435.36 48.0148 435.351 46.8552 435.595 45.736C435.648 45.4886 435.739 45.2511 435.866 45.032C435.988 44.8213 436.156 44.6403 436.356 44.5018C436.582 44.3543 436.844 44.2737 437.113 44.2693C437.249 44.263 437.386 44.2722 437.52 44.2966C437.663 44.3216 437.798 44.3489 437.926 44.3776C438.569 44.5158 439.182 44.7667 439.737 45.1188C440.362 45.5285 440.868 45.9432 441.087 46.542V42.6169C441.027 42.7979 440.93 42.9643 440.802 43.1054C440.674 43.2464 440.518 43.3588 440.343 43.4354C440.236 43.4718 440.126 43.4993 440.014 43.5176C439.989 43.5209 439.962 43.5235 439.935 43.5255C439.918 43.5268 439.901 43.5268 439.884 43.5275C439.67 43.5261 439.457 43.5084 439.246 43.4745C439.016 43.4408 438.789 43.3863 438.569 43.3118C438.343 43.2361 438.129 43.173 437.926 43.1224C437.722 43.0717 437.514 43.0356 437.305 43.0141C437.091 42.9925 436.876 42.9819 436.661 42.9822C436.224 42.9804 435.789 43.0292 435.363 43.1276C434.957 43.2222 434.566 43.3716 434.201 43.5719C433.841 43.7693 433.513 44.0211 433.23 44.3183C433.002 44.5588 432.807 44.8279 432.648 45.1189L432.643 45.128C432.15 46.2875 432.012 47.5669 432.245 48.8049C432.305 49.0539 432.385 49.2976 432.484 49.5337C432.534 49.6533 432.589 49.7689 432.649 49.8806C432.874 50.3094 433.181 50.6899 433.552 51.0006C433.929 51.3101 434.362 51.5434 434.828 51.6876C435.356 51.8485 435.907 51.9197 436.458 51.8984C436.708 51.8899 436.956 51.8539 437.198 51.7908C437.45 51.7254 437.704 51.6531 437.96 51.5739C438.216 51.4943 438.473 51.4192 438.733 51.3466C438.981 51.2762 439.237 51.2344 439.495 51.222C439.743 51.2112 439.99 51.2406 440.228 51.3088C440.485 51.386 440.72 51.5212 440.917 51.7038V49.0851C440.918 48.893 440.933 48.7013 440.962 48.5116C440.991 48.3163 441.043 48.1253 441.12 47.9434C441.195 47.7678 441.302 47.608 441.437 47.4727C441.578 47.3314 441.753 47.2273 441.945 47.1695H437.113C437.36 47.193 437.595 47.2912 437.785 47.451" fill="#D2DBDF"/>
<path fill-rule="evenodd" clip-rule="evenodd" d="M527.42 26.5169L531.603 26.5215V43.1151L529.71 45.6183H525.694V45.4191C524.76 45.7109 523.858 45.8589 523.007 45.8589C521.869 45.8589 521.305 45.7263 520.561 45.4413C519.781 45.1427 519.164 44.6865 518.686 44.0533L517.491 45.6219H516.146C516.072 45.9796 515.909 46.3977 515.81 46.6155C515.661 46.9455 515.571 47.1289 515.471 47.3C514.804 48.4292 514.663 48.6367 513.944 49.5517C513.615 49.9693 513.225 50.3891 512.786 50.7109C511.588 51.5902 509.927 52 507.561 52C504.908 52 503.32 51.597 502.251 50.6524C500.921 49.4769 500.738 47.7857 500.738 46.1331C500.738 44.9857 500.991 44.0915 501.573 43.2836C501.59 43.2582 501.938 42.7595 502.195 42.3903L502.197 42.3874C502.345 42.1761 502.462 42.0079 502.47 41.9963C502.419 41.6895 502.393 41.354 502.393 40.9796C502.393 40.681 502.454 40.3256 502.745 39.5767C502.404 39.287 502.105 38.9435 501.856 38.5554C501.236 37.5909 500.922 36.34 500.922 34.8385C500.922 33.2749 501.274 31.9886 501.967 30.9968C501.986 30.9676 502.834 29.754 503.311 29.0696L503.312 29.0695L503.631 28.6126C503.845 28.2867 504.094 27.9907 504.378 27.7266C505.428 26.7498 506.91 26.2542 508.783 26.2542C509.238 26.2542 509.606 26.2628 509.98 26.2946C510.525 26.3404 511.507 26.5256 511.507 26.5256H513.458L513.459 22.3697L515.232 20H519.37V26.5215H522.987V32.3807L527.42 26.5169ZM514.341 39.8518C514.874 40.2376 515.265 40.7787 515.505 41.4596C515.72 42.0723 515.826 42.8258 515.826 43.763C515.826 44.6204 515.695 45.3457 515.43 45.9798C515.146 46.6534 514.705 47.2139 514.119 47.6442C513.047 48.4313 511.517 48.7976 509.307 48.7976C506.84 48.7976 505.39 48.4472 504.46 47.6252C503.338 46.6335 503.184 45.118 503.184 43.6296C503.184 41.7692 503.974 40.8704 505.073 40.0076C505.051 39.9495 505.03 39.8896 505.011 39.8274C504.895 39.4516 504.839 39.0095 504.839 38.4757C504.839 38.2142 504.918 37.8516 505.304 36.9279L505.319 36.8945C505.327 36.8749 505.335 36.8555 505.343 36.8358C504.883 36.5403 504.497 36.1514 504.19 35.6739C503.644 34.8237 503.368 33.7003 503.368 32.3351C503.368 30.5335 503.867 29.1551 504.854 28.2378C505.771 27.3855 507.092 26.9529 508.782 26.9529C509.473 26.9529 510.169 27.0146 510.852 27.1203C511.004 27.1439 511.152 27.1761 511.296 27.217H515.057V29.8858H514.029C514.043 29.9235 514.056 29.9616 514.069 30.0002C514.16 30.2616 514.381 31.3887 514.381 32.335C514.381 34.235 513.891 35.5817 512.883 36.4536C511.949 37.2606 510.613 37.6364 508.677 37.6364C508.548 37.6364 508.213 37.6206 507.87 37.5961C507.72 38.0123 507.603 38.375 507.578 38.5134C507.578 38.6677 507.582 38.7834 507.589 38.8601C507.68 38.8859 507.859 38.9223 508.194 38.9482C508.722 38.9894 509.495 38.9954 510.253 38.9954C511.997 38.9954 513.36 39.1411 514.341 39.8518ZM508.756 29.653C507.747 29.653 507.082 29.8273 506.72 30.1859C506.342 30.5617 506.159 31.2643 506.159 32.335C506.159 33.3917 506.339 34.0779 506.708 34.432C507.068 34.7765 507.718 34.9372 508.756 34.9372C509.929 34.9372 510.65 34.7738 511.027 34.4234C511.508 33.9749 511.563 33.0168 511.563 32.3351C511.563 31.2362 511.389 30.5563 511.015 30.1954C510.636 29.83 509.898 29.653 508.756 29.653ZM509.334 46.0979C510.758 46.0979 511.762 45.8968 512.319 45.501C512.64 45.2722 513.008 44.8697 513.008 43.7631C513.008 42.3375 512.669 42.106 512.54 42.0184C512.148 41.7497 511.321 41.6952 510.201 41.6952C509.359 41.6952 507.933 41.648 507.302 41.6262C506.111 42.4868 505.975 42.8182 505.975 43.6024C505.975 44.7113 506.109 45.2795 506.44 45.5673C506.849 45.9241 507.797 46.0979 509.334 46.0979ZM528.139 27.22V39.0174C527.502 39.3615 526.192 39.9565 524.754 39.9565C523.298 39.9565 522.979 39.5925 522.778 39.2194C522.524 38.7474 522.288 37.914 522.288 35.0319V27.22H519.523V35.085C519.523 37.6177 519.685 39.5653 520.476 40.8389C520.899 41.5184 521.476 41.9918 522.244 42.285C522.906 42.5383 523.704 42.6568 524.754 42.6568C526.042 42.6568 527.254 42.2859 528.139 41.9192V42.4158H530.904V27.22H528.139ZM515.906 40.7336V20.6989H518.671V42.4134H517.585C516.658 42.4134 515.906 41.6613 515.906 40.7336Z" fill="#D2DBDF"/>
</svg>
