<svg width="744" height="72" viewBox="0 0 744 72" fill="none" xmlns="http://www.w3.org/2000/svg">
<path d="M159.136 27.5909C156.636 22.9091 151.773 20 146.455 20H106.364C105.591 20 105 20.6364 105 21.4091C105 21.7727 105.136 22.1364 105.409 22.3636L114.136 31.1364C114.909 31.9091 115.955 32.3636 117.045 32.3636H145.318C147.318 32.3636 149 33.9545 149 35.9545C149 37.9545 147.409 39.6364 145.409 39.6364H125.909C125.136 39.6364 124.545 40.2727 124.545 41.0455C124.545 41.4091 124.682 41.7727 124.955 42L133.636 50.7727C134.409 51.5454 135.455 52 136.545 52H145.364C156.864 52 165.545 39.7273 159.136 27.5909Z" fill="#8097A2"/>
<path d="M178.274 29.0001V43.0001H181.865C185.683 42.9546 188.728 39.8183 188.683 36.0001C188.774 32.2728 185.819 29.1365 182.092 29.0001C182.001 29.0001 181.956 29.0001 181.865 29.0001H178.274V29.0001ZM181.865 24.6365C188.547 24.6365 193.592 29.6819 193.592 36.0001C193.592 42.3183 188.547 47.4092 181.865 47.4092H173.956C173.637 47.4092 173.41 47.1365 173.41 46.8637V25.2274C173.41 24.9092 173.683 24.6819 173.956 24.6819L181.865 24.6365Z" fill="#8097A2"/>
<path d="M210.728 43.5C214.865 43.5 218.228 40.1818 218.228 36.0454C218.228 31.9091 214.91 28.5454 210.774 28.5454C206.637 28.5454 203.274 31.8636 203.274 36C203.274 40.1363 206.637 43.4545 210.728 43.5ZM210.728 24.1364C217.728 24.1364 223.092 29.5454 223.092 36C223.092 42.5 217.728 47.8636 210.728 47.8636C203.728 47.8636 198.41 42.5 198.41 36C198.41 29.5 203.774 24.1364 210.728 24.1364Z" fill="#8097A2"/>
<path d="M240.182 43.5C244.318 43.5 247.637 40.1363 247.637 36C247.637 31.8636 244.273 28.5454 240.137 28.5454C236 28.5454 232.682 31.9091 232.682 36C232.682 40.1363 236.046 43.5 240.182 43.5ZM240.182 24.1364C247.182 24.1364 252.546 29.5 252.546 36C252.546 42.5 247.137 47.8636 240.182 47.8636C233.227 47.8636 227.818 42.5 227.818 36C227.818 29.5 233.182 24.1364 240.182 24.1364Z" fill="#8097A2"/>
<path d="M268.908 29.0001H263.863V35.0001H268.908C270.544 35.091 271.908 33.8182 271.999 32.1819C271.999 32.1364 271.999 32.091 271.999 32.091C272.044 30.4546 270.772 29.0455 269.135 29.0001C269.044 29.0001 268.954 29.0001 268.908 29.0001ZM258.999 25.2273C258.999 24.9091 259.272 24.6819 259.544 24.6819H269.044C273.59 24.6819 276.863 28.0001 276.863 32.1819C276.908 35.0001 275.317 37.591 272.817 38.8637L277.181 46.591C277.363 46.8637 277.272 47.1819 277.044 47.3637C276.954 47.4546 276.817 47.4546 276.681 47.4546H272.817C272.59 47.4546 272.408 47.3182 272.317 47.1364L268.09 39.4546H263.863V46.8182C263.863 47.1364 263.59 47.3637 263.317 47.3637H259.635C259.317 47.3637 259.09 47.091 259.09 46.8182L258.999 25.2273Z" fill="#8097A2"/>
<path d="M289.591 29.1363V43.1363H293.182C297 43.0908 300.046 39.9544 300 36.1362C300.091 32.409 297.182 29.2726 293.409 29.1363C293.318 29.1363 293.228 29.1363 293.182 29.1363H289.591V29.1363ZM293.137 24.7272C299.818 24.7272 304.864 29.7726 304.864 36.1362C304.864 42.4999 299.818 47.5453 293.137 47.5453H285.273C284.955 47.5453 284.728 47.2726 284.728 46.9999V25.3181C284.728 24.9999 285 24.7726 285.273 24.7726L293.137 24.7272Z" fill="#8097A2"/>
<path d="M319.727 30.3181L316.954 37.8181H322.5L319.727 30.3181ZM315.363 41.9999L313.545 46.9999C313.454 47.2271 313.227 47.409 313 47.409H309.09C308.772 47.4544 308.5 47.2271 308.454 46.909C308.454 46.818 308.454 46.7271 308.5 46.6362L317 25.0453C317.09 24.8181 317.318 24.6362 317.545 24.6817H321.954C322.227 24.6817 322.454 24.8181 322.5 25.0453L331 46.6362C331.136 46.909 331 47.2726 330.727 47.409C330.636 47.4544 330.545 47.4544 330.454 47.4544H326.545C326.272 47.4544 326.045 47.318 326 47.0453L324.181 42.0453H315.363V41.9999V41.9999Z" fill="#8097A2"/>
<path d="M335.546 30.7726C335.546 27.1817 338.637 24.0908 343.501 24.0908C346.137 24.0453 348.637 24.9999 350.592 26.7726C350.819 26.9999 350.819 27.3635 350.637 27.5908C350.637 27.5908 350.637 27.5908 350.592 27.6362L348.41 29.8181C348.183 30.0453 347.819 30.0453 347.592 29.8181C346.546 28.8635 345.228 28.3635 343.819 28.3181C341.864 28.3181 340.41 29.4544 340.41 30.7726C340.41 34.9999 351.955 32.5453 351.955 40.6817C351.955 44.818 348.819 47.909 343.319 47.909C340.228 47.9544 337.273 46.7726 335.092 44.5908C334.864 44.3635 334.864 43.9999 335.046 43.7726C335.046 43.7726 335.046 43.7726 335.092 43.7271L337.183 41.6362C337.41 41.409 337.773 41.409 338.001 41.6362C339.319 42.909 341.137 43.6362 342.955 43.6817C345.41 43.6817 347.001 42.3635 347.001 40.7271C347.046 36.4999 335.546 38.9544 335.546 30.7726Z" fill="#8097A2"/>
<path d="M372.909 25.1819V33.7274H363.136V25.1819C363.136 24.8638 362.863 24.6365 362.591 24.6365H358.909C358.591 24.6365 358.363 24.9092 358.363 25.1819V46.7728C358.363 47.091 358.636 47.3183 358.909 47.3183H362.591C362.909 47.3183 363.136 47.0456 363.136 46.7728V38.091H372.909V46.7728C372.909 47.091 373.181 47.3183 373.454 47.3183H377.136C377.454 47.3183 377.681 47.0456 377.681 46.7728V25.1819C377.681 24.8638 377.409 24.6365 377.136 24.6365H373.454C373.136 24.6365 372.909 24.8638 372.909 25.1819Z" fill="#8097A2"/>
<path fill-rule="evenodd" clip-rule="evenodd" d="M474.175 38.6673L476.244 40.7409V48.1484H472.991V41.9259H470.33V48.1484H467.077V36.0003H470.33V38.6673H474.175ZM460.868 38.6673L465.895 38.6673V41.9259H462.051V44.8895H465.895V48.1484H460.868L458.798 46.074V40.7409L460.868 38.6673ZM454.955 38.6673H457.616V41.9259H454.955V44.8895H457.616V48.1484L453.772 48.1484L451.702 46.074V36.0003H454.955V38.6673ZM447.267 36.0003H450.519V37.4823H447.267V36.0003ZM447.267 38.6673H450.519V48.1483H447.267V38.6673ZM442.831 38.6673H446.084V46.074L444.014 48.1484H433.961V38.6673H437.214V44.8895H438.396V38.6673H441.649V44.8895H442.831V38.6673ZM430.117 38.6673H432.778V41.9259H430.117V44.8895H432.778V48.1484H428.934L426.865 46.074V36.0003H430.117V38.6673ZM477.426 49.0368V40.1482L474.766 37.4823H471.513V34.8155L465.895 34.8155L463.234 37.4823L460.277 37.4823L458.798 38.9634V37.4823H456.137V34.8155H446.084V37.4823H433.961L431.3 34.8155H425.682V46.6674L428.343 49.3327L432.778 52H436.622V51.4073L438.1 52H445.266L446.536 50.518L446.702 52H451.393L451.488 50.518L453.181 52L457.32 52L457.616 50.518L459.095 52H463.826L465.304 50.518V52H467.965L470.034 50.518V52H472.991L477.426 49.0368ZM468.852 27.7034L466.781 29.7779H463.529L461.755 31.5555V29.7779H459.094V21.1852H468.852V27.7034ZM457.911 20L457.319 22.3705V33.037H459.981V34.5188H461.459L462.938 33.037H465.303L470.034 28.2969V20L457.911 20ZM462.347 27.1113H463.53V23.5552H462.347V27.1113ZM465.599 27.1113H466.782V23.5552H465.599V27.1113Z" fill="#8097A2"/>
<path fill-rule="evenodd" clip-rule="evenodd" d="M540.769 30.0759L540.246 28.5853L535.752 22.5899L536.553 22.3896L544.284 29.0748L548.833 27.7733C549.367 27.6399 549.979 27.6065 550.435 27.6065C549.011 24.5253 546.386 21.9892 542.938 20.7656C536.119 18.3296 528.611 21.9002 526.186 28.7299C525.43 30.8434 525.263 33.0236 525.574 35.0925L536.464 31.3106L540.769 30.0759ZM550.924 28.7856C550.524 29.0414 549.934 29.3862 549.356 29.5753L544.795 30.8768L541.759 40.6431L540.969 40.8989L541.614 33.4462L541.258 31.9001L536.987 33.1237L525.685 35.7599C526.586 40.098 529.657 43.8911 534.139 45.4817C540.969 47.9177 548.466 44.3471 550.902 37.5174C551.948 34.592 551.881 31.5219 550.924 28.7856ZM613.471 42.4784C612.57 42.9567 611.758 43.1792 611.002 43.1792C609.211 43.1792 608.132 41.9111 608.132 39.7866C608.132 37.3394 609.5 35.7488 611.625 35.7488C612.214 35.7488 612.781 35.8934 613.471 36.2048V42.4784ZM613.471 28.196V33.9245C612.626 33.6798 611.88 33.5686 611.124 33.5686C607.676 33.5686 605.084 36.1603 605.084 39.6086C605.084 43.0346 607.375 45.5262 610.534 45.5262C611.625 45.5262 612.648 45.2481 613.849 44.6363V45.6263C614.639 45.4706 615.551 45.1591 616.452 44.514V27.0169C615.573 27.1393 614.528 27.4396 613.471 28.196ZM620.201 31.711C619.211 31.711 618.41 30.9212 618.41 29.9535C618.41 28.9524 619.211 28.1404 620.201 28.1404C621.191 28.1404 621.991 28.9524 621.991 29.9535C621.991 30.9212 621.191 31.711 620.201 31.711ZM618.755 45.0368C618.721 45.0368 618.71 45.0257 618.71 44.9923V34.0358C618.71 34.0135 618.721 33.9913 618.743 33.9913H621.647C621.669 33.9913 621.68 34.0135 621.68 34.0358V44.9923C621.68 45.0257 621.658 45.0368 621.636 45.0368H618.755ZM595.852 38.5185C596.163 36.8834 597.22 35.9379 598.777 35.9379C600.179 35.9379 601.146 37.1058 601.146 38.4073V38.5185H595.852ZM603.838 40.2315C603.849 40.2315 603.86 40.2204 603.872 40.2092C603.883 40.1759 603.961 39.0747 603.961 38.5964C603.961 35.6709 601.936 33.5464 598.777 33.5464C595.318 33.5464 592.804 36.0714 592.804 39.5418C592.804 43.0123 595.318 45.5373 598.777 45.5373C600.112 45.5373 601.814 45.0479 603.504 44.336C603.516 44.336 603.527 44.3249 603.527 44.3026V41.8333C603.527 41.7999 603.493 41.7665 603.46 41.7888C601.647 42.7565 600.357 43.1681 599.144 43.1681C597.175 43.1681 595.963 42.1002 595.796 40.2315H603.838ZM576.252 45.0368H579.767C579.789 45.0368 579.801 45.0368 579.823 45.0145C579.823 45.0034 579.823 44.9812 579.812 44.97L575.029 39.0969L579.2 34.0803C579.202 34.0763 579.204 34.0727 579.206 34.0694C579.214 34.0537 579.22 34.043 579.211 34.0247C579.2 34.0135 579.178 34.0024 579.167 34.0024H576.308C576.297 34.0024 576.286 34.0135 576.275 34.0247L573.572 37.3172L570.913 34.0247C570.902 34.0135 570.891 34.0024 570.88 34.0024H567.365C567.354 34.0024 567.342 34.0135 567.331 34.0247C567.331 34.0469 567.331 34.058 567.342 34.0803L571.747 39.4974L567.287 44.97C567.276 44.9812 567.276 45.0034 567.276 45.0145C567.287 45.0257 567.298 45.0368 567.32 45.0368H570.134C570.146 45.0368 570.157 45.0368 570.168 45.0257L573.193 41.3327L576.219 45.0257C576.224 45.0304 576.226 45.0331 576.23 45.0347C576.232 45.0359 576.235 45.0364 576.239 45.0366C576.243 45.0368 576.247 45.0368 576.252 45.0368ZM583.405 43.1569C584.027 43.3127 584.561 43.3905 585.084 43.3905C587.309 43.3905 588.744 41.8555 588.744 39.4862C588.744 37.2727 587.398 35.7933 585.385 35.7933C584.762 35.7933 584.139 35.8934 583.416 36.127L583.405 43.1569ZM583.36 33.9913C584.228 33.691 585.051 33.5464 585.874 33.5464C589.356 33.5464 591.792 35.9935 591.792 39.4973C591.792 43.1681 589.233 45.5373 585.273 45.5373C584.706 45.5373 584.116 45.4706 583.405 45.3705V50.832C582.359 51.5662 581.291 51.8776 580.424 52V34.0358C580.424 34.0135 580.446 33.9913 580.468 33.9913H583.36ZM629.455 43.2014C630.123 43.2014 630.868 42.9567 631.747 42.4562V36.4051C630.946 35.9824 630.29 35.771 629.756 35.771C627.742 35.771 626.385 37.395 626.385 39.8088C626.385 41.9334 627.531 43.2014 629.455 43.2014ZM634.605 33.7355C634.672 33.7355 634.728 33.7911 634.728 33.8578V44.514C633.871 45.1369 632.959 45.4595 632.192 45.6263V44.2137C631.102 45.4595 629.934 45.5262 629.033 45.5262C625.64 45.5262 623.36 43.1903 623.36 39.7087C623.36 36.2605 625.907 33.5686 629.155 33.5686C630.056 33.5686 630.99 33.7799 632.069 34.2583H632.125V33.8578C632.125 33.7911 632.192 33.7355 632.258 33.7355H634.605ZM559.289 42.3004H566.575C566.464 43.1124 566.186 44.0691 565.563 45.0368H557.988C557.064 45.0368 556.297 44.3138 556.208 43.4128C556.208 43.4116 556.208 43.4103 556.208 43.4091C556.207 43.4057 556.205 43.4021 556.204 43.3982C556.201 43.3905 556.197 43.3813 556.197 43.3683V28.9969C556.197 28.9913 556.2 28.9858 556.202 28.9802C556.205 28.9747 556.208 28.9691 556.208 28.9635C556.297 28.0514 557.064 27.3284 557.988 27.3284H566.564C566.453 28.1404 566.175 29.1193 565.54 30.087H559.289V34.0024H565.485C565.507 34.0024 565.529 34.0247 565.529 34.0469V36.761C565.529 36.7833 565.507 36.8055 565.485 36.8055H559.289V42.3004ZM549 44.0134C549 44.7031 549.445 45.2704 550.168 45.2704C550.813 45.2704 551.325 44.7587 551.325 44.0134C551.325 43.2682 550.813 42.7565 550.168 42.7565C549.512 42.7565 549 43.2793 549 44.0134ZM548.8 44.0134C548.8 43.1792 549.434 42.623 550.168 42.623C550.902 42.623 551.525 43.1792 551.525 44.0134C551.525 44.8477 550.891 45.4039 550.168 45.4039C549.367 45.4039 548.8 44.8032 548.8 44.0134ZM549.845 43.9022V43.3905H550.19C550.368 43.3905 550.568 43.4128 550.568 43.6241C550.568 43.88 550.379 43.8911 550.168 43.8911C550.157 43.9022 549.845 43.9022 549.845 43.9022ZM550.813 43.6575C550.813 43.3238 550.613 43.1792 550.212 43.1792H549.59V44.8254H549.857V44.1247H550.112L550.535 44.8254H550.847L550.39 44.1024C550.635 44.0802 550.813 43.9578 550.813 43.6575ZM635.962 34.5586C635.962 35.2482 636.407 35.8155 637.13 35.8155C637.776 35.8155 638.287 35.3038 638.287 34.5586C638.287 33.8133 637.776 33.3016 637.13 33.3016C636.474 33.3016 635.962 33.8244 635.962 34.5586ZM635.762 34.5697C635.762 33.7355 636.396 33.1793 637.13 33.1793C637.853 33.1793 638.487 33.7243 638.487 34.5697C638.487 35.404 637.853 35.9601 637.13 35.9601C636.33 35.9601 635.762 35.3595 635.762 34.5697ZM636.797 34.4473V33.9468H637.142C637.319 33.9468 637.52 33.969 637.52 34.1804C637.52 34.4362 637.331 34.4473 637.119 34.4473H636.797ZM637.776 34.2138C637.776 33.8801 637.575 33.7355 637.175 33.7355H636.552V35.3817H636.819V34.6809H637.075L637.497 35.3817H637.809L637.353 34.6587C637.586 34.6364 637.776 34.5141 637.776 34.2138Z" fill="#8097A2"/>
</svg>
