<svg width="24" height="24" viewBox="0 0 24 24" fill="none" xmlns="http://www.w3.org/2000/svg">
<g clip-path="url(#clip0_69:432)">
<path d="M11.4 24.0002C11.3364 24.0002 11.2716 23.9894 11.2104 23.969C9.0036 23.2334 6.234 20.7878 4.1544 17.7374C2.2596 14.9582 0 10.3526 0 4.19902C0 3.86782 0.2688 3.59902 0.6 3.59902C3.9768 3.59902 9.2856 1.28782 11.0676 0.0998235C11.2692 -0.0345766 11.532 -0.0345766 11.7336 0.0998235C13.5156 1.28782 18.8244 3.59902 22.2012 3.59902C22.5324 3.59902 22.8012 3.86782 22.8012 4.19902C22.8012 10.3526 20.5416 14.957 18.6468 17.7374C16.5672 20.7866 13.7976 23.2334 11.5908 23.969C11.5296 23.9894 11.4648 24.0002 11.4012 24.0002H11.4ZM1.2072 4.78102C1.3428 10.3382 3.4056 14.5106 5.1456 17.063C7.2684 20.1758 9.7728 22.139 11.4 22.7642C13.0272 22.139 15.5316 20.177 17.6544 17.063C19.3944 14.5106 21.4572 10.3382 21.5928 4.78102C19.6392 4.65862 17.4624 3.98662 15.9168 3.41302C14.2152 2.78302 12.498 1.98142 11.4 1.31182C10.302 1.98142 8.5848 2.78302 6.8832 3.41302C5.3364 3.98542 3.1608 4.65862 1.2072 4.78102Z" fill="white"/>
<path d="M10.2005 15C10.0469 15 9.8933 14.9412 9.7757 14.8248L7.3757 12.4248C7.1417 12.1908 7.1417 11.8104 7.3757 11.5764C7.6097 11.3424 7.9901 11.3424 8.2241 11.5764L10.1993 13.5516L15.7745 7.9764C16.0085 7.7424 16.3889 7.7424 16.6229 7.9764C16.8569 8.2104 16.8569 8.5908 16.6229 8.8248L10.6229 14.8248C10.5053 14.9424 10.3517 15 10.1981 15H10.2005Z" fill="white"/>
</g>
<defs>
<clipPath id="clip0_69:432">
<rect width="24" height="24" fill="white"/>
</clipPath>
</defs>
</svg>
