<svg id="Layer_1" data-name="Layer 1" xmlns="http://www.w3.org/2000/svg" xmlns:xlink="http://www.w3.org/1999/xlink" viewBox="0 0 172 142"><defs><style>.cls-1,.cls-2{fill:#6e17ff;}.cls-1{opacity:0.2;}.cls-2{opacity:0.8;}.cls-3{fill:url(#linear-gradient);}.cls-4{fill:url(#linear-gradient-2);}.cls-5{fill:url(#linear-gradient-3);}.cls-6{fill:url(#linear-gradient-4);}.cls-7{fill:url(#linear-gradient-5);}.cls-8{fill:url(#linear-gradient-6);}.cls-9{fill:url(#linear-gradient-7);}.cls-10{fill:url(#linear-gradient-8);}.cls-11{fill:url(#linear-gradient-9);}</style><linearGradient id="linear-gradient" x1="30.42" y1="25.17" x2="32.02" y2="87.96" gradientUnits="userSpaceOnUse"><stop offset="0" stop-color="#fff" stop-opacity="0"/><stop offset="1" stop-color="#fff"/></linearGradient><linearGradient id="linear-gradient-2" x1="43.5" y1="37.24" x2="44.91" y2="92.53" xlink:href="#linear-gradient"/><linearGradient id="linear-gradient-3" x1="56.48" y1="51.27" x2="57.64" y2="96.88" xlink:href="#linear-gradient"/><linearGradient id="linear-gradient-4" x1="69.42" y1="66.25" x2="70.32" y2="101.3" xlink:href="#linear-gradient"/><linearGradient id="linear-gradient-5" x1="82.02" y1="52.92" x2="83.43" y2="108.24" xlink:href="#linear-gradient"/><linearGradient id="linear-gradient-6" x1="95.48" y1="86.9" x2="96.09" y2="110.63" xlink:href="#linear-gradient"/><linearGradient id="linear-gradient-7" x1="109.15" y1="82.44" x2="110.04" y2="117.18" xlink:href="#linear-gradient"/><linearGradient id="linear-gradient-8" x1="122.56" y1="75.5" x2="123.8" y2="124.26" xlink:href="#linear-gradient"/><linearGradient id="linear-gradient-9" x1="136.12" y1="74.93" x2="137.53" y2="130.3" xlink:href="#linear-gradient"/></defs><path class="cls-1" d="M171.62,70.59l-.37,58.34a4.44,4.44,0,0,1-6.11,4.07L33.66,79.54,22.91,75.17,9.15,69.56a4.45,4.45,0,0,1-2.77-4.14L6.75,7.07A4.43,4.43,0,0,1,12.86,3L22.91,7.09l10.75,4.37,135.19,55A4.47,4.47,0,0,1,171.62,70.59Z"/><path class="cls-2" d="M165.62,76.59l-.37,58.34a4.44,4.44,0,0,1-6.11,4.07L27.66,85.54,16.91,81.17,3.15,75.56A4.45,4.45,0,0,1,.38,71.42L.75,13.07A4.43,4.43,0,0,1,6.86,9l10.05,4.09,10.75,4.37,135.19,55A4.47,4.47,0,0,1,165.62,76.59Z"/><polygon class="cls-3" points="35.12 32.75 35.12 82.34 27.29 79.16 27.29 29.57 35.12 32.75"/><polygon class="cls-4" points="48.1 44.32 48.1 87.57 40.27 84.39 40.27 41.13 48.1 44.32"/><polygon class="cls-5" points="60.96 57.69 60.96 92.77 53.13 89.59 53.13 54.5 60.96 57.69"/><polygon class="cls-6" points="73.77 71.93 73.77 98.12 65.94 94.94 65.94 68.75 73.77 71.93"/><polygon class="cls-7" points="86.63 60 86.63 103.28 78.79 100.1 78.79 56.81 86.63 60"/><polygon class="cls-8" points="99.69 91.81 99.69 108.45 91.86 105.26 91.86 88.63 99.69 91.81"/><polygon class="cls-9" points="113.5 88.1 113.5 114.03 105.67 110.85 105.67 84.92 113.5 88.1"/><polygon class="cls-10" points="127.08 82.12 127.08 119.88 119.25 116.7 119.25 78.94 127.08 82.12"/><polygon class="cls-11" points="140.72 82.02 140.72 125.34 132.89 122.15 132.89 78.83 140.72 82.02"/></svg>