<svg id="Layer_1" data-name="Layer 1" xmlns="http://www.w3.org/2000/svg" viewBox="0 0 125 100"><defs><style>.cls-1,.cls-2{fill:#00fdfe;}.cls-1{opacity:0.2;}.cls-2{opacity:0.8;}.cls-3{opacity:0.9;}.cls-4{fill:#fff;}</style></defs><path class="cls-1" d="M123.66,90.08l.26-41.26a3.15,3.15,0,0,0-2-2.93L11.66,1A3.14,3.14,0,0,0,7.34,3.92L7.08,45.17A3.13,3.13,0,0,0,9,48.1L119.34,93A3.14,3.14,0,0,0,123.66,90.08Z"/><path class="cls-2" d="M117.66,96.08l.26-41.26a3.15,3.15,0,0,0-2-2.93L5.66,7A3.14,3.14,0,0,0,1.34,9.92L1.08,51.17A3.13,3.13,0,0,0,3,54.1L113.34,99A3.14,3.14,0,0,0,117.66,96.08Z"/><g class="cls-3"><path class="cls-4" d="M40.93,52.7V49.51a4.68,4.68,0,0,1,0-.66,3,3,0,0,1,.14-.57,1.26,1.26,0,0,1-.43.27,5.52,5.52,0,0,1-.53.17l-2.62.58-1-2.12,2.63-.57a3.13,3.13,0,0,1,.59-.09,2.6,2.6,0,0,1,.61.07,3.26,3.26,0,0,1-.61-.41c-.19-.17-.39-.36-.58-.56L36.58,43l1-1.36,2.63,2.66c.19.2.36.4.54.6a4.06,4.06,0,0,1,.43.62A3.41,3.41,0,0,1,41,44.8a5.32,5.32,0,0,1,0-.69V40.89l2,.76v3.19a4.88,4.88,0,0,1,0,.68,2,2,0,0,1-.16.58,1.28,1.28,0,0,1,.43-.28,3.94,3.94,0,0,1,.55-.18l2.62-.57,1,2.12-2.63.55a3.13,3.13,0,0,1-.59.09,2.13,2.13,0,0,1-.61,0,5.87,5.87,0,0,1,1.19.95l2.63,2.65-1,1.36-2.63-2.65c-.2-.2-.38-.4-.55-.59a5.24,5.24,0,0,1-.44-.61,4.37,4.37,0,0,1,.21,1.37v3.2Z"/><path class="cls-4" d="M54.17,57.88V54.69a4.68,4.68,0,0,1,0-.66,3,3,0,0,1,.14-.57,1.26,1.26,0,0,1-.43.27,5.52,5.52,0,0,1-.53.17l-2.62.58-1-2.12,2.63-.57A3.13,3.13,0,0,1,53,51.7a2.6,2.6,0,0,1,.61.07,3.26,3.26,0,0,1-.61-.41c-.19-.17-.39-.36-.58-.56l-2.63-2.65,1-1.36,2.63,2.66c.19.2.36.4.54.6a4.06,4.06,0,0,1,.43.62,3.41,3.41,0,0,1-.15-.69,5.32,5.32,0,0,1,0-.69V46.07l2,.76V50a4.88,4.88,0,0,1,0,.68,2,2,0,0,1-.16.58,1.39,1.39,0,0,1,.43-.28,3.94,3.94,0,0,1,.55-.18l2.62-.57,1,2.12-2.63.55a3.13,3.13,0,0,1-.59.09,2.13,2.13,0,0,1-.61,0,5.87,5.87,0,0,1,1.19.95l2.63,2.65-1,1.36-2.63-2.64q-.3-.31-.54-.6a4.35,4.35,0,0,1-.45-.61,4.37,4.37,0,0,1,.21,1.37v3.2Z"/><path class="cls-4" d="M67.41,63.06V59.87a4.68,4.68,0,0,1,0-.66,3,3,0,0,1,.14-.57,1.26,1.26,0,0,1-.43.27,5.52,5.52,0,0,1-.53.17L64,59.66l-1-2.12L65.68,57a3.13,3.13,0,0,1,.59-.09,2.6,2.6,0,0,1,.61.07,3.26,3.26,0,0,1-.61-.41c-.19-.17-.38-.36-.58-.56l-2.63-2.65L64,52l2.63,2.66q.28.3.54.6a4.06,4.06,0,0,1,.43.62,3.41,3.41,0,0,1-.15-.69,5.32,5.32,0,0,1,0-.69V51.25l2,.76V55.2a4.88,4.88,0,0,1,0,.68,2,2,0,0,1-.16.58,1.39,1.39,0,0,1,.43-.28,3.94,3.94,0,0,1,.55-.18l2.62-.57,1,2.12-2.63.55a3.13,3.13,0,0,1-.59.09,2.13,2.13,0,0,1-.61,0,5.87,5.87,0,0,1,1.19,1l2.63,2.65-1,1.36-2.63-2.64q-.3-.32-.54-.6a4.35,4.35,0,0,1-.45-.61,4.37,4.37,0,0,1,.21,1.37v3.2Z"/><path class="cls-4" d="M80.65,68.24V65.05a4.68,4.68,0,0,1,0-.66,3,3,0,0,1,.14-.57,1.26,1.26,0,0,1-.43.27,5.52,5.52,0,0,1-.53.17l-2.61.58-1-2.12,2.64-.57a2.32,2.32,0,0,1,.58-.08,2.14,2.14,0,0,1,.61.06,3.26,3.26,0,0,1-.61-.41c-.19-.17-.38-.36-.58-.56L76.3,58.51l1-1.36,2.63,2.66q.28.3.54.6a5,5,0,0,1,.44.62,3.44,3.44,0,0,1-.16-.69,5.32,5.32,0,0,1,0-.69V56.43l2,.76v3.19a4.88,4.88,0,0,1,0,.68,2,2,0,0,1-.16.58,1.39,1.39,0,0,1,.43-.28,3.94,3.94,0,0,1,.55-.18L86,60.61l1,2.12-2.63.55a3.13,3.13,0,0,1-.59.09,2.13,2.13,0,0,1-.61,0,5.87,5.87,0,0,1,1.19.95L87,66.92l-1,1.36-2.63-2.64q-.3-.31-.54-.6a4.35,4.35,0,0,1-.45-.61,4.37,4.37,0,0,1,.21,1.37V69Z"/><path class="cls-4" d="M93.9,73.42V70.23a4.68,4.68,0,0,1,0-.66,2.38,2.38,0,0,1,.15-.57,1.25,1.25,0,0,1-.44.27,5.52,5.52,0,0,1-.53.17L90.51,70l-1-2.12,2.64-.57a2.32,2.32,0,0,1,.58-.08,2.14,2.14,0,0,1,.61.06,3.26,3.26,0,0,1-.61-.41c-.19-.17-.38-.36-.58-.56l-2.63-2.65,1-1.36L93.13,65q.28.3.54.6a5,5,0,0,1,.44.62,3.44,3.44,0,0,1-.16-.69,5.32,5.32,0,0,1,0-.69V61.61l2,.76v3.19a4.88,4.88,0,0,1,0,.68,2,2,0,0,1-.16.58,1.39,1.39,0,0,1,.43-.28c.17-.07.35-.12.55-.18l2.62-.57,1,2.12-2.63.55a3.13,3.13,0,0,1-.59.09,1.84,1.84,0,0,1-.61,0,5.91,5.91,0,0,1,1.2,1l2.62,2.65-1,1.36-2.63-2.64q-.3-.31-.54-.6a4.35,4.35,0,0,1-.45-.61A4.37,4.37,0,0,1,95.85,71v3.2Z"/></g><g class="cls-3"><path class="cls-4" d="M24.53,34.15V32.61a4.63,4.63,0,0,0-2.72-3.89l-4-1.65c-1.51-.62-2.72.12-2.72,1.64v1.55a1.7,1.7,0,0,0-2.19,1.8v7.62a4.62,4.62,0,0,0,2.72,3.88L24,47c1.5.61,2.72-.12,2.72-1.64V37.76A4.62,4.62,0,0,0,24.53,34.15Zm-4.09,5.69v1.09a.4.4,0,0,1-.62.37,1.06,1.06,0,0,1-.5-.46.84.84,0,0,1-.12-.42V39.34a2.77,2.77,0,0,1-1-2c0-.93.73-1.37,1.64-1a2.79,2.79,0,0,1,1.64,2.35A1,1,0,0,1,20.44,39.84Zm2.82-6.27-6.9-2.84V29.24c0-.82.65-1.21,1.46-.88l4,1.65a2.46,2.46,0,0,1,1.45,2.07Z"/></g></svg>