<svg height="40" viewBox="0 0 40 40" width="40" xmlns="http://www.w3.org/2000/svg"><path d="m31.938 39.999c4.455 0 8.067-3.642 8.067-8.135 0-4.492-3.612-8.134-8.067-8.134-4.456 0-8.068 3.642-8.068 8.134 0 4.493 3.612 8.135 8.068 8.135z" fill="#cdd8dd"/><path d="m19.998 36.129-.15.1-.167-.1c-14.018-9.751-21.853-21.236-19.152-28.887a11.085 11.085 0 0 1 7.384-7.034c4.084-.917 8.75 1.25 11.935 5.517 3.217-4.267 7.85-6.434 11.951-5.517a11.068 11.068 0 0 1 7.368 7.034c2.717 7.65-5.134 19.136-19.17 28.887z" fill="#572dd1" opacity=".8"/></svg>