<svg height="40" viewBox="0 0 40 40" width="40" xmlns="http://www.w3.org/2000/svg"><path d="m31.937 16.287c4.455 0 8.066-3.642 8.066-8.134s-3.611-8.133-8.066-8.133-8.067 3.641-8.067 8.133 3.612 8.134 8.067 8.134z" fill="#cdd8dd"/><path d="m40 23.85a4.833 4.833 0 0 1 -4.817 4.817h-2.866v11.333h-11.217v-2.95a4.817 4.817 0 0 0 -9.633 0v2.95h-11.467v-11.333h3.117a4.817 4.817 0 1 0 0-9.634h-3.117v-11.35h11.467v-2.85a4.833 4.833 0 0 1 4.833-4.833 4.733 4.733 0 0 1 3.333 1.417 4.883 4.883 0 0 1 1.4 3.333v2.933h11.217v11.35h2.883a4.833 4.833 0 0 1 4.867 4.817z" fill="#572dd1" opacity=".8"/></svg>