<svg height="40" viewBox="0 0 40 40" width="40" xmlns="http://www.w3.org/2000/svg"><path d="m31.937 16.307c4.455 0 8.066-3.65 8.066-8.153s-3.611-8.154-8.066-8.154-8.067 3.65-8.067 8.154c0 4.503 3.612 8.153 8.067 8.153z" fill="#cdd8dd"/><path d="m17.4 40.001c9.61 0 17.4-7.884 17.4-17.61s-7.79-17.611-17.4-17.611-17.4 7.885-17.4 17.61c0 9.727 7.79 17.611 17.4 17.611z" fill="#572dd1" opacity=".8"/><path d="m19.713 28.272a3.413 3.413 0 0 1 -2.1.936l.45-5.33c.32.105.632.233.934.384.276.124.53.293.75.501.212.179.382.401.5.652.125.278.187.58.183.886a2.811 2.811 0 0 1 -.717 1.971zm-5.65-10.56c-.003-.28.048-.558.15-.818.104-.269.27-.51.484-.702.239-.233.522-.415.833-.535.394-.162.81-.27 1.233-.317l-.416 4.862a4.994 4.994 0 0 1 -.9-.418 3.033 3.033 0 0 1 -.734-.518 2.222 2.222 0 0 1 -.483-.685 2.31 2.31 0 0 1 -.167-.869zm1.084 16.96h1.216a.782.782 0 0 0 .617-.268.92.92 0 0 0 .25-.551l.167-1.922a8.134 8.134 0 0 0 2.6-.618 5.966 5.966 0 0 0 1.916-1.337 5.733 5.733 0 0 0 1.184-1.888 6.564 6.564 0 0 0 .416-2.289 4.202 4.202 0 0 0 -.466-2.055 4.124 4.124 0 0 0 -1.2-1.37 6.661 6.661 0 0 0 -1.667-.902c-.6-.234-1.233-.451-1.85-.635l.433-5.447c.322.073.634.18.934.317l.766.351.617.301c.139.076.292.122.45.134a.765.765 0 0 0 .45-.134c.15-.105.276-.242.367-.4l.783-1.187a8.117 8.117 0 0 0 -1.75-1.27 7.005 7.005 0 0 0 -2.4-.802l.333-2.54h-1.2a.832.832 0 0 0 -.616.25.97.97 0 0 0 -.25.569l-.15 1.67a6.37 6.37 0 0 0 -2.55.485 6.099 6.099 0 0 0 -1.867 1.254 4.779 4.779 0 0 0 -1.167 1.67 5.376 5.376 0 0 0 0 4.194c.28.568.678 1.07 1.167 1.47.504.4 1.066.722 1.667.953.616.234 1.216.434 1.85.618l-.5 5.865c-.441-.066-.869-.201-1.267-.401a9.994 9.994 0 0 1 -.967-.552l-.75-.484a1.165 1.165 0 0 0 -.6-.2.832.832 0 0 0 -.45.133.917.917 0 0 0 -.433.317l-1 1.488a8.099 8.099 0 0 0 2.283 1.553c.91.422 1.875.709 2.867.853z" fill="#fff"/></svg>