<svg xmlns="http://www.w3.org/2000/svg" viewBox="0 0 24 24"><defs><style>.cls-1{fill:#cdd8dd;}.cls-2{fill:#572dd1;opacity:0.8;}.cls-3{fill:#fff;}</style></defs><g id="Layer_2" data-name="Layer 2"><path class="cls-1" d="M10.55,12.22a6.11,6.11,0,1,1,6.11-6.11A6.12,6.12,0,0,1,10.55,12.22Z"/><path class="cls-1" d="M19.44,22.21H1.67A1.66,1.66,0,0,1,0,20.55a6.69,6.69,0,0,1,1.36-3.67,7.94,7.94,0,0,1,3.19-2.46,14.82,14.82,0,0,1,6-1.09,14.91,14.91,0,0,1,6,1.09,7.9,7.9,0,0,1,3.18,2.46,6.6,6.6,0,0,1,1.36,3.67A1.66,1.66,0,0,1,19.44,22.21Z"/><circle class="cls-2" cx="19.5" cy="19.5" r="4.5"/><polygon class="cls-3" points="17.09 20.07 17.81 19.39 18.79 20.3 21.51 17.65 22.22 18.36 18.79 21.66 17.09 20.07"/></g></svg>