<svg id="Layer_1" data-name="Layer 1" xmlns="http://www.w3.org/2000/svg" xmlns:xlink="http://www.w3.org/1999/xlink" viewBox="0 0 80 80"><defs><style>.cls-1{opacity:0.9;}.cls-2{fill:#cdd8dd;}.cls-3{fill:#eff2f4;}.cls-4{fill:#fff;}.cls-12,.cls-13,.cls-17,.cls-18,.cls-22,.cls-23,.cls-5{opacity:0.8;}.cls-6{fill:url(#linear-gradient);}.cls-7{fill:#651fff;}.cls-8{opacity:0.7;}.cls-9{fill:url(#linear-gradient-2);}.cls-10{fill:#6e17ff;}.cls-11{fill:#5130c9;}.cls-12{fill:url(#linear-gradient-3);}.cls-13{fill:url(#linear-gradient-4);}.cls-14{fill:#b0c1c6;}.cls-15{fill:url(#linear-gradient-5);}.cls-16{fill:url(#linear-gradient-6);}.cls-17{fill:url(#linear-gradient-7);}.cls-18{fill:url(#linear-gradient-8);}.cls-19{fill:url(#linear-gradient-9);}.cls-20{fill:url(#linear-gradient-10);}.cls-21{fill:#92abb5;}.cls-22{fill:url(#linear-gradient-11);}.cls-23{fill:url(#linear-gradient-12);}.cls-24{fill:#9db7bf;}</style><linearGradient id="linear-gradient" x1="76.73" y1="67.42" x2="76.84" y2="67.42" gradientUnits="userSpaceOnUse"><stop offset="0" stop-color="#587e8d" stop-opacity="0.5"/><stop offset="0.12" stop-color="#587e8d" stop-opacity="0.45"/><stop offset="0.3" stop-color="#587e8d" stop-opacity="0.32"/><stop offset="0.5" stop-color="#587e8d" stop-opacity="0.11"/><stop offset="0.6" stop-color="#587e8d" stop-opacity="0"/><stop offset="1" stop-color="#587e8d" stop-opacity="0"/></linearGradient><linearGradient id="linear-gradient-2" x1="95.28" y1="34.68" x2="15.08" y2="1.94" gradientUnits="userSpaceOnUse"><stop offset="0.57" stop-color="#fff" stop-opacity="0"/><stop offset="0.79" stop-color="#fff" stop-opacity="0.3"/><stop offset="0.87" stop-color="#fff" stop-opacity="0.42"/><stop offset="1" stop-color="#fff" stop-opacity="0.6"/></linearGradient><linearGradient id="linear-gradient-3" x1="86.22" y1="40.07" x2="65.71" y2="38.75" xlink:href="#linear-gradient"/><linearGradient id="linear-gradient-4" x1="84.44" y1="67.91" x2="63.92" y2="66.59" xlink:href="#linear-gradient"/><linearGradient id="linear-gradient-5" x1="63.26" y1="73.43" x2="63.37" y2="73.43" xlink:href="#linear-gradient"/><linearGradient id="linear-gradient-6" x1="81.8" y1="40.69" x2="1.6" y2="7.95" xlink:href="#linear-gradient-2"/><linearGradient id="linear-gradient-7" x1="72.75" y1="46.08" x2="52.23" y2="44.76" xlink:href="#linear-gradient"/><linearGradient id="linear-gradient-8" x1="70.97" y1="73.92" x2="50.45" y2="72.6" xlink:href="#linear-gradient"/><linearGradient id="linear-gradient-9" x1="49.79" y1="79.86" x2="49.9" y2="79.86" xlink:href="#linear-gradient"/><linearGradient id="linear-gradient-10" x1="68.33" y1="47.12" x2="-11.87" y2="14.38" xlink:href="#linear-gradient-2"/><linearGradient id="linear-gradient-11" x1="64.19" y1="77.77" x2="-1.72" y2="31.52" gradientUnits="userSpaceOnUse"><stop offset="0.13" stop-color="#587e8d" stop-opacity="0.5"/><stop offset="0.29" stop-color="#587e8d" stop-opacity="0.3"/><stop offset="0.46" stop-color="#587e8d" stop-opacity="0.13"/><stop offset="0.62" stop-color="#587e8d" stop-opacity="0.03"/><stop offset="0.75" stop-color="#587e8d" stop-opacity="0"/><stop offset="1" stop-color="#587e8d" stop-opacity="0"/></linearGradient><linearGradient id="linear-gradient-12" x1="57.49" y1="80.35" x2="36.98" y2="79.04" xlink:href="#linear-gradient"/></defs><g class="cls-1"><path class="cls-2" d="M77,33.1v1.08h0v2.62L41.33,16.27,29.89,9.66l-2.61-1.5V4.44L29.91,6h0l5,2.9h0l1.68-1.3,0,0L41,10.07l.13.07L46,12.94v0h0l1.41,3.08.74.43h0l-1.32-2.95s0-.08,0-.09h0l3.76,2.17,1.57,3.2Z"/><path class="cls-3" d="M41.32,16.27l-.08,30.89-13.68-7.9a.8.8,0,0,1-.37-.64l.08-30.46Z"/><path class="cls-4" d="M76.93,36.81l-.08,28.27v2.21a.36.36,0,0,1,0,.19.1.1,0,0,1-.06,0h0a.25.25,0,0,1-.26,0L41.23,47.16h0V44.52l.08-28.25h0Z"/><g class="cls-5"><path class="cls-6" d="M76.84,67.3h0a.36.36,0,0,1,0,.19l0,0,0,0,.06-.06A.32.32,0,0,0,76.84,67.3Z"/></g><path class="cls-7" d="M77,30.07v.39h0V33.1L52.23,18.83l-1.57-3.2h0l-3.75-2.17h0s0,.05,0,.09l1.32,2.95h0l-.74-.43L46.05,13l0,0h0l-4.87-2.84L41,10.07,36.68,7.55l0,0L34.94,8.85h0l-5-2.9h0L27.29,4.44v-3c0-.14.06-.23.15-.25a.29.29,0,0,1,.23,0l2.24,1.29L54.29,16.55h0l22.3,12.88A.81.81,0,0,1,77,30.07Z"/><g class="cls-8"><path class="cls-9" d="M77,30.07v.39h0V33.1L52.23,18.83l-1.57-3.2h0l-3.75-2.17h0s0,.05,0,.09l1.32,2.95h0l-.74-.43L46.05,13l0,0h0l-4.87-2.84L41,10.07,36.68,7.55l0,0L34.94,8.85h0l-5-2.9h0L27.29,4.44v-3c0-.14.06-.23.15-.25a.29.29,0,0,1,.23,0l2.24,1.29L54.29,16.55h0l22.3,12.88A.81.81,0,0,1,77,30.07Z"/></g><polygon class="cls-10" points="36.97 23.74 36.9 23.7 36.9 23.7 36.97 23.74"/><path class="cls-4" d="M28.9,3.28a1,1,0,0,1,.48.82c0,.31-.22.43-.48.28a1.05,1.05,0,0,1-.48-.83C28.42,3.25,28.64,3.13,28.9,3.28Z"/><path class="cls-4" d="M30.24,4.05a1,1,0,0,1,.48.82c0,.31-.21.43-.48.27a1,1,0,0,1-.47-.82C29.77,4,30,3.89,30.24,4.05Z"/><path class="cls-4" d="M31.63,4.9a1,1,0,0,1,.48.83c0,.3-.22.42-.48.27a1.06,1.06,0,0,1-.48-.83C31.15,4.87,31.37,4.75,31.63,4.9Z"/><path class="cls-10" d="M49.3,15.55a1.39,1.39,0,0,1,.63,1.09c0,.4-.28.56-.63.36a1.39,1.39,0,0,1-.63-1.09C48.67,15.51,49,15.34,49.3,15.55Z"/><path class="cls-4" d="M72.69,31.49a.71.71,0,0,1,.32.56v1.46c0,.21-.15.29-.33.19l-39-22.5a.74.74,0,0,1-.33-.56V9.17c0-.2.15-.29.32-.18Z"/><path class="cls-7" d="M71.8,31.47a0,0,0,0,1,0,0l.13.55h0l.43.24s0,0,0,0l-.35.09h0l.13.54s0,0,0,0h0l-.34-.48h0l-.35.09h0s0,0,0,0l.13-.39h0l-.35-.48s0,0,0,0l.42.25h0l.14-.38Z"/><polygon class="cls-10" points="75.79 33.61 75.79 33.71 74.31 32.85 74.31 32.75 75.79 33.61"/><polygon class="cls-10" points="75.79 34.08 75.79 34.19 74.31 33.33 74.31 33.22 75.79 34.08"/><polygon class="cls-10" points="75.79 34.56 75.79 34.67 74.31 33.81 74.31 33.7 75.79 34.56"/><polygon class="cls-10" points="75.79 35.04 75.79 35.14 74.31 34.28 74.31 34.18 75.79 35.04"/><path class="cls-4" d="M28.49,6.32a.17.17,0,0,1,.06.06s0,.12,0,.14l-.37.29,1.17.67a.19.19,0,0,1,.09.15.06.06,0,0,1-.09,0L28.21,7l.34.64c0,.06,0,.12,0,.14h-.06l-.07-.07L28,6.84h0a.14.14,0,0,1,0-.06V6.71h0l.49-.38S28.47,6.31,28.49,6.32Z"/><path class="cls-4" d="M27.92,6.77a0,0,0,0,0,0,0v0A.14.14,0,0,1,27.92,6.77Z"/><path class="cls-4" d="M31.2,7.85a.16.16,0,0,1,.07.07l.48.94h0V9h0l-.49.32H31.2l-.06-.06a.12.12,0,0,1,0-.15l.35-.23L30.33,8.2a.17.17,0,0,1-.09-.15c0-.05,0-.07.09-.05l1.17.68L31.13,8c0-.06,0-.12,0-.14S31.18,7.84,31.2,7.85Z"/><polygon class="cls-4" points="31.76 8.97 31.76 8.97 31.76 8.98 31.76 8.97"/><polygon class="cls-10" points="27.87 19.14 27.93 19.23 27.88 19.27 27.82 19.18 27.87 19.14"/><path class="cls-7" d="M41.16,11.13a1.32,1.32,0,0,1,.6,1c0,.38-.27.54-.6.35l-3.59-2.07A1.37,1.37,0,0,1,37,9.41c0-.38.27-.54.61-.35Z"/><path class="cls-11" d="M54.29,16.55,29.92,2.48,27.68,1.19a.29.29,0,0,0-.23,0L30.05,0a.29.29,0,0,1,.25,0L79.21,28.3a.82.82,0,0,1,.37.65v3h0L77,33.1V30.46h0v-.39a.81.81,0,0,0-.37-.64L54.29,16.55"/><path class="cls-3" d="M79.55,35.7l-.08,30.47a.28.28,0,0,1-.12.24h0l-2.6,1.11a.1.1,0,0,0,.06,0,.32.32,0,0,0,0-.18V65.09l.08-28.27h0Z"/><path class="cls-12" d="M79.55,35.69l-.08,30.47c0,.12,0,.21-.12.24h0l-2.56,1.1,0,0a.36.36,0,0,0,0-.19h0a.3.3,0,0,1,0,.18.09.09,0,0,1-.06.06l0,0,0,0h0a.27.27,0,0,1-.26,0L41.23,47.17h0L27.56,39.28a.82.82,0,0,1-.37-.65l.08-30.46,14.05,8.11h0L76.93,36.83v0h0Z"/><path class="cls-13" d="M76.84,67.3h0a.36.36,0,0,1,0,.19l0,0,0,0,.06-.06A.32.32,0,0,0,76.84,67.3Z"/><polygon class="cls-14" points="76.95 33.1 76.93 36.82 79.55 35.7 79.58 31.97 76.95 33.1"/><path class="cls-3" d="M50.63,31.43a.57.57,0,0,1,.26.44c0,.17-.12.23-.26.15l-7.12-4.11a.57.57,0,0,1-.26-.45c0-.16.12-.23.26-.14Z"/><path class="cls-3" d="M58.82,29.77a.57.57,0,0,1,.26.45.16.16,0,0,1-.26.15L43.51,21.53a.59.59,0,0,1-.26-.45.16.16,0,0,1,.26-.15Z"/><path class="cls-3" d="M58.82,31.88a.59.59,0,0,1,.26.45.16.16,0,0,1-.26.15L43.51,23.64a.57.57,0,0,1-.26-.45.16.16,0,0,1,.26-.15Z"/><path class="cls-3" d="M58.82,33.79a.57.57,0,0,1,.26.45.16.16,0,0,1-.26.15L43.51,25.55a.59.59,0,0,1-.26-.45.16.16,0,0,1,.26-.15Z"/><path class="cls-4" d="M37.22,17.78a.59.59,0,0,1,.26.45.16.16,0,0,1-.26.15L30.1,14.27a.57.57,0,0,1-.26-.45.16.16,0,0,1,.26-.15Z"/><path class="cls-4" d="M37.22,19.91a.57.57,0,0,1,.26.45c0,.16-.12.23-.26.14L30.1,16.39a.57.57,0,0,1-.26-.44c0-.17.12-.23.26-.15Z"/></g><g class="cls-1"><path class="cls-2" d="M63.48,39.11v1.08h0v2.62L27.86,22.28,16.41,15.67l-2.6-1.5V10.45L16.43,12h0l5,2.91h0l1.69-1.3,0,0,4.35,2.5.14.08L32.52,19l0,0h0L34,22.07l.74.43h0l-1.31-2.94s0-.09,0-.09h0l3.75,2.17,1.58,3.2Z"/><path class="cls-3" d="M27.85,22.28l-.09,30.89-13.68-7.9a.82.82,0,0,1-.37-.64l.09-30.46Z"/><path class="cls-4" d="M63.46,42.82l-.08,28.27V73.3a.36.36,0,0,1,0,.19l-.06.05h0a.25.25,0,0,1-.26,0L27.76,53.17h0V50.53l.08-28.25h0Z"/><g class="cls-5"><path class="cls-15" d="M63.37,73.31h0a.36.36,0,0,1,0,.19l0,0,0,0,.06-.06A.3.3,0,0,0,63.37,73.31Z"/></g><path class="cls-7" d="M63.49,36.08v.39h0v2.64L38.76,24.84l-1.57-3.2h0l-3.75-2.17h0s0,0,0,.08L34.7,22.5h0L34,22.07,32.58,19l0,0h0l-4.87-2.83-.14-.08L23.2,13.56l0,0-1.71,1.29h0l-5-2.9h0l-2.61-1.51v-3c0-.14.06-.23.14-.25a.28.28,0,0,1,.23,0l2.24,1.29L40.81,22.56h0l22.3,12.87A.84.84,0,0,1,63.49,36.08Z"/><g class="cls-8"><path class="cls-16" d="M63.49,36.08v.39h0v2.64L38.76,24.84l-1.57-3.2h0l-3.75-2.17h0s0,0,0,.08L34.7,22.5h0L34,22.07,32.58,19l0,0h0l-4.87-2.83-.14-.08L23.2,13.56l0,0-1.71,1.29h0l-5-2.9h0l-2.61-1.51v-3c0-.14.06-.23.14-.25a.28.28,0,0,1,.23,0l2.24,1.29L40.81,22.56h0l22.3,12.87A.84.84,0,0,1,63.49,36.08Z"/></g><polygon class="cls-10" points="23.49 29.75 23.42 29.72 23.42 29.71 23.49 29.75"/><path class="cls-4" d="M15.43,9.29a1,1,0,0,1,.47.82c0,.31-.21.43-.48.28A1.05,1.05,0,0,1,15,9.56C15,9.26,15.16,9.14,15.43,9.29Z"/><path class="cls-4" d="M16.77,10.06a1,1,0,0,1,.48.82c0,.31-.22.43-.48.28a1.07,1.07,0,0,1-.48-.83C16.29,10,16.51,9.9,16.77,10.06Z"/><path class="cls-4" d="M18.16,10.91a1.06,1.06,0,0,1,.48.83c0,.3-.22.42-.48.27a1,1,0,0,1-.48-.83C17.68,10.88,17.89,10.76,18.16,10.91Z"/><path class="cls-10" d="M35.83,21.56a1.39,1.39,0,0,1,.63,1.09c0,.4-.29.56-.64.36a1.39,1.39,0,0,1-.63-1.09C35.19,21.52,35.48,21.35,35.83,21.56Z"/><path class="cls-4" d="M59.22,37.5a.71.71,0,0,1,.32.56v1.47c0,.2-.15.29-.33.18l-39-22.5a.74.74,0,0,1-.32-.56V15.18c0-.2.15-.29.33-.18Z"/><path class="cls-7" d="M58.33,37.48a0,0,0,0,0,0,0l.13.55h0l.42.24a0,0,0,0,1,0,0l-.35.09h0l.13.54h0l-.34-.48h0l-.34.09h0v0l.14-.39h0l-.34-.48a0,0,0,0,1,0,0l.43.25h0l.13-.38A0,0,0,0,1,58.33,37.48Z"/><polygon class="cls-10" points="62.32 39.62 62.32 39.72 60.83 38.86 60.83 38.76 62.32 39.62"/><polygon class="cls-10" points="62.32 40.09 62.32 40.2 60.83 39.34 60.83 39.23 62.32 40.09"/><polygon class="cls-10" points="62.32 40.57 62.32 40.68 60.83 39.82 60.83 39.71 62.32 40.57"/><polygon class="cls-10" points="62.32 41.05 62.32 41.15 60.83 40.29 60.83 40.19 62.32 41.05"/><path class="cls-4" d="M15,12.33a.1.1,0,0,1,.05.06s0,.12,0,.14l-.36.29,1.17.67a.2.2,0,0,1,.08.15s0,.08-.08,0L14.73,13l.35.64c0,.06,0,.12,0,.14H15a.22.22,0,0,1-.06-.07l-.47-.87h0a.14.14,0,0,1,0-.06v-.06h0l.48-.38S15,12.32,15,12.33Z"/><path class="cls-4" d="M14.45,12.78v0l0,0A.14.14,0,0,1,14.45,12.78Z"/><path class="cls-4" d="M17.73,13.86a.14.14,0,0,1,.06.07l.49.94h0v0s0,0,0,0v0h0l-.48.32h-.07a.15.15,0,0,1,0-.06.12.12,0,0,1,0-.15l.35-.23-1.15-.66a.2.2,0,0,1-.09-.16c0-.05,0-.07.09-.05l1.16.68-.36-.7a.11.11,0,0,1,0-.14Z"/><polygon class="cls-4" points="18.29 14.98 18.29 14.98 18.28 14.99 18.29 14.98"/><polygon class="cls-10" points="14.39 25.15 14.45 25.24 14.41 25.28 14.35 25.19 14.39 25.15"/><path class="cls-7" d="M27.69,17.14a1.37,1.37,0,0,1,.6,1.05c0,.38-.27.54-.61.35L24.1,16.47a1.34,1.34,0,0,1-.61-1c0-.38.28-.54.61-.35Z"/><path class="cls-11" d="M40.81,22.56,16.44,8.49,14.2,7.2a.28.28,0,0,0-.23,0L16.57,6a.29.29,0,0,1,.25,0L65.74,34.31a.84.84,0,0,1,.37.65v3h0l-2.62,1.13V36.47h0v-.39a.84.84,0,0,0-.37-.64L40.82,22.57"/><path class="cls-3" d="M66.08,41.71,66,72.18a.25.25,0,0,1-.11.24h0l-2.6,1.12.06-.06a.32.32,0,0,0,0-.18V71.1l.07-28.27h0Z"/><path class="cls-17" d="M66.08,41.7,66,72.17a.24.24,0,0,1-.11.24h0l-2.56,1.1,0,0a.36.36,0,0,0,0-.19h0a.3.3,0,0,1,0,.18.17.17,0,0,1-.06.06l0,0,0,0h0a.25.25,0,0,1-.26,0L27.76,53.18h0L14.08,45.29a.84.84,0,0,1-.37-.65l.09-30.46,14.05,8.11h0l35.6,20.55v0h0Z"/><path class="cls-18" d="M63.37,73.31h0a.36.36,0,0,1,0,.19l0,0,0,0,.06-.06A.3.3,0,0,0,63.37,73.31Z"/><polygon class="cls-14" points="63.48 39.11 63.45 42.83 66.08 41.71 66.1 37.98 63.48 39.11"/><path class="cls-3" d="M37.16,37.44a.53.53,0,0,1,.25.44c0,.17-.11.23-.26.15L30,33.92a.54.54,0,0,1-.26-.44c0-.17.12-.24.26-.15Z"/><path class="cls-3" d="M45.35,35.78a.59.59,0,0,1,.26.45.16.16,0,0,1-.26.15L30,27.54a.56.56,0,0,1-.26-.45.16.16,0,0,1,.26-.15Z"/><path class="cls-3" d="M45.35,37.89a.61.61,0,0,1,.26.45.16.16,0,0,1-.26.15L30,29.65a.55.55,0,0,1-.26-.45.16.16,0,0,1,.26-.15Z"/><path class="cls-3" d="M45.35,39.8a.57.57,0,0,1,.26.45.16.16,0,0,1-.26.15L30,31.56a.56.56,0,0,1-.26-.45A.16.16,0,0,1,30,31Z"/><path class="cls-4" d="M23.75,23.79a.61.61,0,0,1,.26.45c0,.17-.12.23-.26.15l-7.12-4.11a.57.57,0,0,1-.26-.45.16.16,0,0,1,.26-.15Z"/><path class="cls-4" d="M23.75,25.92a.57.57,0,0,1,.26.45c0,.16-.12.23-.26.14L16.63,22.4a.57.57,0,0,1-.26-.44c0-.17.12-.23.26-.15Z"/></g><path class="cls-2" d="M50,45.54v1.09h0v2.62L14.38,28.71,2.94,22.11.33,20.61V16.89L3,18.4H3l5,2.9H8L9.68,20l0,0,4.35,2.5.13.08,4.86,2.79,0,0h0l1.41,3.09.74.42h0L19.9,26s0-.08,0-.09h0l3.75,2.17,1.57,3.21Z"/><path class="cls-3" d="M14.38,28.71,14.29,59.6.61,51.71a.84.84,0,0,1-.37-.65L.33,20.61Z"/><path class="cls-4" d="M50,49.26,49.9,77.53v2.2a.27.27,0,0,1-.06.19l-.05,0h0a.25.25,0,0,1-.26,0L14.28,59.6h0V57l.08-28.25h0Z"/><g class="cls-5"><path class="cls-19" d="M49.9,79.74v0a.26.26,0,0,1-.06.18v0l0,0,.05,0A.29.29,0,0,0,49.9,79.74Z"/></g><path class="cls-7" d="M50,42.52v.39h0v2.63L25.29,31.28l-1.58-3.21h0L20,25.9h0s0,.05,0,.09l1.31,2.94h0l-.74-.42L19.1,25.44l0,0h0l-4.88-2.83-.13-.08L9.73,20h0L8,21.3H8L3,18.4H3L.35,16.89v-3c0-.14.06-.23.15-.26a.29.29,0,0,1,.23,0L3,14.93,27.34,29h0l22.3,12.87A.82.82,0,0,1,50,42.52Z"/><g class="cls-8"><path class="cls-20" d="M50,42.52v.39h0v2.63L25.29,31.28l-1.58-3.21h0L20,25.9h0s0,.05,0,.09l1.31,2.94h0l-.74-.42L19.1,25.44l0,0h0l-4.88-2.83-.13-.08L9.73,20h0L8,21.3H8L3,18.4H3L.35,16.89v-3c0-.14.06-.23.15-.26a.29.29,0,0,1,.23,0L3,14.93,27.34,29h0l22.3,12.87A.82.82,0,0,1,50,42.52Z"/></g><polygon class="cls-10" points="10.02 36.19 9.95 36.15 9.95 36.15 10.02 36.19"/><path class="cls-4" d="M2,15.72a1.07,1.07,0,0,1,.48.83c0,.3-.22.42-.48.27A1.06,1.06,0,0,1,1.47,16C1.47,15.69,1.69,15.57,2,15.72Z"/><path class="cls-4" d="M3.3,16.49a1.05,1.05,0,0,1,.47.83c0,.3-.21.42-.48.27a1,1,0,0,1-.47-.82C2.82,16.46,3,16.34,3.3,16.49Z"/><path class="cls-4" d="M4.68,17.34a1.07,1.07,0,0,1,.48.83c0,.3-.21.43-.48.27a1,1,0,0,1-.47-.82C4.21,17.32,4.42,17.19,4.68,17.34Z"/><path class="cls-10" d="M22.35,28a1.4,1.4,0,0,1,.64,1.1c0,.4-.29.56-.64.36a1.4,1.4,0,0,1-.63-1.1C21.72,28,22,27.79,22.35,28Z"/><path class="cls-4" d="M45.74,43.94a.71.71,0,0,1,.33.56V46c0,.21-.14.29-.32.19l-39-22.51a.7.7,0,0,1-.32-.56V21.62c0-.21.15-.29.33-.19Z"/><path class="cls-7" d="M44.86,43.92h0l.13.54h0l.43.25s0,0,0,0l-.34.09h0l.13.54s0,0,0,0h0l-.34-.49h0L44.5,45h0v0l.13-.39h0l-.34-.49s0,0,0,0l.43.24h0l.14-.39Z"/><polygon class="cls-10" points="48.85 46.05 48.85 46.16 47.36 45.3 47.36 45.19 48.85 46.05"/><polygon class="cls-10" points="48.85 46.53 48.85 46.63 47.36 45.77 47.36 45.67 48.85 46.53"/><polygon class="cls-10" points="48.85 47.01 48.85 47.11 47.36 46.25 47.36 46.15 48.85 47.01"/><polygon class="cls-10" points="48.85 47.48 48.85 47.59 47.36 46.73 47.36 46.62 48.85 47.48"/><path class="cls-4" d="M1.54,18.77l.06.05c0,.06,0,.13,0,.15l-.36.28,1.16.67a.2.2,0,0,1,.09.15c0,.06,0,.08-.09.05l-1.15-.66.35.63a.11.11,0,0,1,0,.14,0,0,0,0,1-.06,0,.11.11,0,0,1-.06-.07L1,19.29v0s0,0,0-.06v0H1l.49-.38A0,0,0,0,1,1.54,18.77Z"/><path class="cls-4" d="M1,19.21v0s0,0,0,0S1,19.23,1,19.21Z"/><path class="cls-4" d="M4.25,20.3a.16.16,0,0,1,.07.07l.48.93h0v.09h0v0h0l-.49.33a0,0,0,0,1-.06,0l-.06-.06c0-.06,0-.12,0-.14l.35-.23-1.16-.67a.19.19,0,0,1-.08-.15c0-.06,0-.08.08-.05l1.17.67-.36-.7c0-.06,0-.12,0-.13S4.23,20.28,4.25,20.3Z"/><polygon class="cls-4" points="4.82 21.41 4.81 21.42 4.81 21.43 4.82 21.41"/><polygon class="cls-10" points="0.92 31.59 0.98 31.68 0.93 31.71 0.88 31.62 0.92 31.59"/><path class="cls-7" d="M14.21,23.58a1.32,1.32,0,0,1,.61,1c0,.39-.28.54-.61.35L10.63,22.9a1.32,1.32,0,0,1-.61-1c0-.39.27-.54.61-.35Z"/><path class="cls-11" d="M27.34,29,3,14.93.73,13.63a.29.29,0,0,0-.23,0l2.6-1.11a.24.24,0,0,1,.25,0L52.27,40.75a.84.84,0,0,1,.37.64v3h0L50,45.54V42.91h0v-.39a.82.82,0,0,0-.37-.65L27.34,29"/><path class="cls-21" d="M52.6,48.14l-.08,30.48a.26.26,0,0,1-.12.24h0L49.79,80l.05,0a.29.29,0,0,0,.06-.19V77.53L50,49.27h0Z"/><path class="cls-22" d="M50,79.87l-.18.08v0a.24.24,0,0,0,.06-.18v0a.29.29,0,0,1-.06.19l-.05,0,0,0,0,0h0a.25.25,0,0,1-.26,0L14.28,59.62h0L.61,51.72a.81.81,0,0,1-.37-.64L.33,20.62l14.05,8.11h0L50,49.27h0Z"/><path class="cls-23" d="M49.9,79.74v0a.26.26,0,0,1-.06.18v0l0,0,.05,0A.29.29,0,0,0,49.9,79.74Z"/><polygon class="cls-24" points="50.01 45.54 49.98 49.27 52.6 48.14 52.63 44.42 50.01 45.54"/><path class="cls-3" d="M23.68,43.87a.55.55,0,0,1,.26.45.16.16,0,0,1-.26.15l-7.12-4.11a.59.59,0,0,1-.26-.45.16.16,0,0,1,.26-.15Z"/><path class="cls-3" d="M31.87,42.22a.54.54,0,0,1,.26.44c0,.17-.12.23-.26.15L16.56,34a.57.57,0,0,1-.26-.44c0-.17.12-.23.26-.15Z"/><path class="cls-3" d="M31.87,44.33a.55.55,0,0,1,.26.45c0,.16-.12.23-.26.14L16.56,36.09a.61.61,0,0,1-.26-.45c0-.17.12-.23.26-.15Z"/><path class="cls-3" d="M31.87,46.24a.54.54,0,0,1,.26.44c0,.17-.12.23-.26.15L16.56,38a.57.57,0,0,1-.26-.44c0-.17.12-.24.26-.15Z"/><path class="cls-4" d="M10.27,30.23a.55.55,0,0,1,.26.45c0,.16-.12.23-.26.14L3.15,26.71a.56.56,0,0,1-.25-.44c0-.17.11-.23.26-.15Z"/><path class="cls-4" d="M10.27,32.35a.56.56,0,0,1,.26.45.16.16,0,0,1-.26.15L3.15,28.84a.56.56,0,0,1-.25-.45c0-.16.11-.23.26-.15Z"/></svg>