<svg id="Layer_1" data-name="Layer 1" xmlns="http://www.w3.org/2000/svg" xmlns:xlink="http://www.w3.org/1999/xlink" viewBox="0 0 80 80"><defs><style>.cls-1{fill:#cdd8dd;}.cls-2{fill:#fff;}.cls-3{opacity:0.6;}.cls-4{fill:url(#linear-gradient);}.cls-5{fill:#651fff;}.cls-6{fill:url(#linear-gradient-2);}.cls-7{opacity:0.8;}.cls-8{fill:url(#linear-gradient-3);}.cls-9{fill:url(#linear-gradient-4);}.cls-10{opacity:0.3;}.cls-11{opacity:0.5;}.cls-12{opacity:0.9;}.cls-13{fill:url(#linear-gradient-5);}.cls-14{fill:url(#linear-gradient-6);}.cls-15{fill:url(#linear-gradient-7);}.cls-16{fill:url(#linear-gradient-8);}.cls-17{opacity:0.4;}.cls-18{fill:url(#linear-gradient-9);}.cls-19{fill:url(#linear-gradient-10);}.cls-20{fill:url(#linear-gradient-11);}.cls-21{fill:url(#linear-gradient-12);}.cls-22{fill:url(#linear-gradient-13);}</style><linearGradient id="linear-gradient" x1="22.17" y1="27.67" x2="32.81" y2="42.24" gradientUnits="userSpaceOnUse"><stop offset="0" stop-color="#587e8d" stop-opacity="0"/><stop offset="0.4" stop-color="#587e8d" stop-opacity="0"/><stop offset="0.5" stop-color="#587e8d" stop-opacity="0.11"/><stop offset="0.7" stop-color="#587e8d" stop-opacity="0.32"/><stop offset="0.88" stop-color="#587e8d" stop-opacity="0.45"/><stop offset="1" stop-color="#587e8d" stop-opacity="0.5"/></linearGradient><linearGradient id="linear-gradient-2" x1="35.94" y1="30.85" x2="36.66" y2="35.87" gradientUnits="userSpaceOnUse"><stop offset="0.57" stop-color="#fff" stop-opacity="0"/><stop offset="0.79" stop-color="#fff" stop-opacity="0.3"/><stop offset="0.87" stop-color="#fff" stop-opacity="0.42"/><stop offset="1" stop-color="#fff" stop-opacity="0.6"/></linearGradient><linearGradient id="linear-gradient-3" x1="76.89" y1="66.58" x2="-3.46" y2="61.56" gradientUnits="userSpaceOnUse"><stop offset="0" stop-color="#587e8d" stop-opacity="0.6"/><stop offset="0.11" stop-color="#587e8d" stop-opacity="0.55"/><stop offset="0.27" stop-color="#587e8d" stop-opacity="0.42"/><stop offset="0.45" stop-color="#587e8d" stop-opacity="0.21"/><stop offset="0.6" stop-color="#587e8d" stop-opacity="0"/><stop offset="1" stop-color="#587e8d" stop-opacity="0"/></linearGradient><linearGradient id="linear-gradient-4" x1="75.39" y1="69.32" x2="11.14" y2="56.04" xlink:href="#linear-gradient-2"/><linearGradient id="linear-gradient-5" x1="22.17" y1="11.86" x2="32.81" y2="26.42" xlink:href="#linear-gradient"/><linearGradient id="linear-gradient-6" x1="35.94" y1="15.03" x2="36.66" y2="20.05" xlink:href="#linear-gradient-2"/><linearGradient id="linear-gradient-7" x1="76.89" y1="50.76" x2="-3.46" y2="45.75" xlink:href="#linear-gradient-3"/><linearGradient id="linear-gradient-8" x1="75.39" y1="53.5" x2="11.14" y2="40.23" xlink:href="#linear-gradient-2"/><linearGradient id="linear-gradient-9" x1="22.17" y1="-3.96" x2="32.81" y2="10.61" xlink:href="#linear-gradient"/><linearGradient id="linear-gradient-10" x1="35.94" y1="-0.78" x2="36.66" y2="4.24" xlink:href="#linear-gradient-2"/><linearGradient id="linear-gradient-11" x1="76.89" y1="34.95" x2="-3.46" y2="29.93" xlink:href="#linear-gradient-3"/><linearGradient id="linear-gradient-12" x1="75.39" y1="37.69" x2="11.14" y2="24.41" xlink:href="#linear-gradient-2"/><linearGradient id="linear-gradient-13" x1="59.43" y1="25.62" x2="22.1" y2="15.38" xlink:href="#linear-gradient-2"/></defs><path class="cls-1" d="M39,69.44V80a4.27,4.27,0,0,1-2-.47L5.3,62.2a1.35,1.35,0,0,1-.84-1.13l0-10.54A1.16,1.16,0,0,0,5,51.4a1.18,1.18,0,0,0,.18.13l.19.12L37,69A4.39,4.39,0,0,0,39,69.44Z"/><path class="cls-2" d="M73.26,50.6s0,0,0,.07a1.21,1.21,0,0,1-.11.32.43.43,0,0,1,0,.07.1.1,0,0,1,0,0l0,0h0l0,0,0,.05a.86.86,0,0,1-.14.13h0l-.06.05,0,0h0l0,0-.09.06-.1.06L41,69a4.32,4.32,0,0,1-2,.46A4.39,4.39,0,0,1,37,69L5.33,51.65l-.19-.12A1.18,1.18,0,0,1,5,51.4a1.16,1.16,0,0,1-.47-.87,1.37,1.37,0,0,1,.83-1.11L36.73,32.09a4.66,4.66,0,0,1,4.06,0L72.41,49.42A1.32,1.32,0,0,1,73.26,50.6Z"/><g class="cls-3"><path class="cls-4" d="M73.26,50.61s0,0,0,.07a1.21,1.21,0,0,1-.11.32.43.43,0,0,0,0,.07l0,0,0,.05h0l0,0,0,.05-.14.13h0l-.06.05,0,0h0l0,0-.09.06-.1.06L41,69a4.21,4.21,0,0,1-2,.47A4.39,4.39,0,0,1,37,69L5.33,51.66l-.19-.12c-.07,0-.12-.09-.18-.13a1.18,1.18,0,0,1-.47-.87,1.34,1.34,0,0,1,.83-1.11L36.73,32.1a4.66,4.66,0,0,1,4.06,0L72.41,49.43A1.31,1.31,0,0,1,73.26,50.61Z"/></g><path class="cls-5" d="M67.77,50.6v.06a1,1,0,0,1-.1.27l0,0,0,.05,0,0h0l0,0,0,0-.12.11h0a1.84,1.84,0,0,0-.31-.2L40.47,36.5a4,4,0,0,0-3.41,0L10.64,51.08a1.62,1.62,0,0,0-.29.19h0a1,1,0,0,1-.4-.73,1.16,1.16,0,0,1,.7-.94L37.06,35a3.92,3.92,0,0,1,3.41,0L67.06,49.6C67.56,49.88,67.8,50.24,67.77,50.6Z"/><path class="cls-1" d="M67.37,51.28l0,0,0,0h0l0,0-.08,0-.09,0L40.66,66.05a3.69,3.69,0,0,1-1.72.39,3.58,3.58,0,0,1-1.7-.39L10.65,51.48l-.16-.1-.14-.11a1.62,1.62,0,0,1,.29-.19L37.06,36.5a4,4,0,0,1,3.41,0L67.06,51.08A1.84,1.84,0,0,1,67.37,51.28Z"/><path class="cls-6" d="M67.37,51.28l0,0,0,0h0l0,0-.08,0-.09,0L40.66,66.05a3.94,3.94,0,0,1-3.42,0L10.65,51.48l-.16-.1-.14-.1a1.64,1.64,0,0,1,.29-.2L37.06,36.51a3.92,3.92,0,0,1,3.41,0L67.06,51.08A1.84,1.84,0,0,1,67.37,51.28Z"/><path class="cls-1" d="M73.26,50.54l0,10.55a1.36,1.36,0,0,1-.84,1.11L41,79.52A4.32,4.32,0,0,1,39,80V69.44A4.32,4.32,0,0,0,41,69L72.43,51.65l.1-.06.09-.06,0,0h0l0,0,.06-.05h0a.86.86,0,0,0,.14-.13l0-.05,0,0h0l0,0a.1.1,0,0,0,0,0,.43.43,0,0,0,0-.07.94.94,0,0,0,.11-.32s0,0,0-.07Z"/><g class="cls-7"><path class="cls-8" d="M73.26,50.55l0,10.55a1.36,1.36,0,0,1-.84,1.11L41,79.53A4.32,4.32,0,0,1,39,80a4.39,4.39,0,0,1-2-.46L5.3,62.21a1.35,1.35,0,0,1-.84-1.13l0-10.54a1.16,1.16,0,0,0,.47.87,1.18,1.18,0,0,0,.18.13l.19.12L37,69a4.39,4.39,0,0,0,2,.46A4.32,4.32,0,0,0,41,69L72.43,51.66l.1-.06.09-.06,0,0,0,0,0,0,.06-.06h0a.86.86,0,0,0,.14-.13l0-.05,0,0h0l0,0,0-.06,0-.06a1.07,1.07,0,0,0,.11-.33s0,0,0-.06Z"/></g><path class="cls-9" d="M73.26,50.56l0,10.54a1.35,1.35,0,0,1-.84,1.11L41,79.54A4.32,4.32,0,0,1,39,80a4.39,4.39,0,0,1-2-.46L5.3,62.21a1.35,1.35,0,0,1-.84-1.12l0-10.55a1.18,1.18,0,0,0,.47.88l.18.12.19.12L37,69a4.27,4.27,0,0,0,2,.46A4.32,4.32,0,0,0,41,69L72.43,51.66a.31.31,0,0,1,.1,0l.09-.07,0,0h0a.1.1,0,0,1,0,0l.06,0h0l.14-.14,0-.05s0,0,0,0v0l0,0,0-.06,0-.06a1.07,1.07,0,0,0,.11-.33s0,0,0-.06Z"/><g class="cls-10"><path class="cls-2" d="M69.47,56.82c.89-.49,1.61-.09,1.62.9a3.42,3.42,0,0,1-1.61,2.7l-26.72,15c-.89.5-1.61.09-1.62-.9a3.43,3.43,0,0,1,1.61-2.7Z"/></g><g class="cls-11"><path class="cls-2" d="M46.7,70.44c.55-.3,1-.06,1,.53a2,2,0,0,1-1,1.62c-.55.3-1,.06-1-.54A2,2,0,0,1,46.7,70.44Z"/></g><g class="cls-12"><path class="cls-2" d="M57,64.7c.55-.3,1-.06,1,.53a2.07,2.07,0,0,1-1,1.62c-.55.3-1,.06-1-.54A2,2,0,0,1,57,64.7Z"/></g><g class="cls-11"><path class="cls-2" d="M66.93,59c.55-.3,1-.06,1,.53a2,2,0,0,1-1,1.62c-.55.3-1,.06-1-.53A2.05,2.05,0,0,1,66.93,59Z"/></g><path class="cls-1" d="M39,53.62V64.17a4.39,4.39,0,0,1-2-.46L5.3,46.38a1.34,1.34,0,0,1-.84-1.12l0-10.54a1.18,1.18,0,0,0,.47.87l.18.12.19.13L37,53.16A4.27,4.27,0,0,0,39,53.62Z"/><path class="cls-2" d="M73.26,34.79s0,0,0,.07a1.35,1.35,0,0,1-.11.32l0,.06a.21.21,0,0,1,0,.06l0,0v0l0,0,0,.06-.14.13h0l-.06,0a.1.1,0,0,0,0,0h0l0,0-.09.06-.1.06L41,53.16a4.2,4.2,0,0,1-2,.46,4.27,4.27,0,0,1-2-.46L5.33,35.84l-.19-.13L5,35.59a1.18,1.18,0,0,1-.47-.87,1.37,1.37,0,0,1,.83-1.12L36.73,16.28a4.66,4.66,0,0,1,4.06,0L72.41,33.6A1.33,1.33,0,0,1,73.26,34.79Z"/><g class="cls-3"><path class="cls-13" d="M73.26,34.8s0,0,0,.06a1.42,1.42,0,0,1-.11.33l0,.06,0,.06,0,0h0l0,0,0,.05-.14.14h0l-.06,0a.1.1,0,0,0,0,0h0l0,0-.09.06-.1.06L41,53.17a4.32,4.32,0,0,1-2,.46,4.27,4.27,0,0,1-2-.46L5.33,35.84l-.19-.12A1.18,1.18,0,0,1,5,35.59a1.15,1.15,0,0,1-.47-.87,1.37,1.37,0,0,1,.83-1.11L36.73,16.28a4.73,4.73,0,0,1,4.06,0L72.41,33.61A1.33,1.33,0,0,1,73.26,34.8Z"/></g><path class="cls-5" d="M67.77,34.79v.05a.88.88,0,0,1-.1.27l0,.06,0,0,0,0h0l0,0,0,.05-.12.11h0a1.86,1.86,0,0,0-.31-.21L40.47,20.69a3.92,3.92,0,0,0-3.41,0L10.64,35.26a1.64,1.64,0,0,0-.29.2h0a1,1,0,0,1-.4-.74,1.15,1.15,0,0,1,.7-.93L37.06,19.22a3.92,3.92,0,0,1,3.41,0L67.06,33.79A1.11,1.11,0,0,1,67.77,34.79Z"/><path class="cls-1" d="M67.37,35.47l0,0,0,0h0l0,0-.08,0-.09,0L40.66,50.24a3.57,3.57,0,0,1-1.72.38,3.7,3.7,0,0,1-1.7-.38L10.65,35.66l-.16-.1a.71.71,0,0,1-.14-.1,1.64,1.64,0,0,1,.29-.2L37.06,20.69a3.92,3.92,0,0,1,3.41,0L67.06,35.26A1.86,1.86,0,0,1,67.37,35.47Z"/><path class="cls-14" d="M67.37,35.47l0,0,0,0h0l0,0-.08,0-.09.05L40.66,50.24a3.69,3.69,0,0,1-1.72.39,3.58,3.58,0,0,1-1.7-.39L10.65,35.67l-.16-.1-.14-.11a1.62,1.62,0,0,1,.29-.19L37.06,20.69a4,4,0,0,1,3.41,0L67.06,35.27A1.84,1.84,0,0,1,67.37,35.47Z"/><path class="cls-1" d="M73.26,34.73l0,10.54a1.34,1.34,0,0,1-.84,1.11L41,63.71a4.2,4.2,0,0,1-2,.46V53.62a4.2,4.2,0,0,0,2-.46L72.43,35.84l.1-.06.09-.06,0,0h0l0,0,.06,0h0l.14-.13,0-.06s0,0,0,0v0l0,0a.21.21,0,0,0,0-.06l0-.06a1,1,0,0,0,.11-.32s0,0,0-.07Z"/><g class="cls-7"><path class="cls-15" d="M73.26,34.74l0,10.55a1.34,1.34,0,0,1-.84,1.1L41,63.72a4.2,4.2,0,0,1-2,.46,4.39,4.39,0,0,1-2-.46L5.3,46.39a1.34,1.34,0,0,1-.84-1.12l0-10.54A1.18,1.18,0,0,0,5,35.6l.18.13.19.12L37,53.17a4.39,4.39,0,0,0,2,.47,4.32,4.32,0,0,0,2-.47L72.43,35.85l.1-.06.09-.06,0,0h0l0,0,.06,0h0l.14-.13,0-.06,0,0h0l0,0,0-.06,0-.06a.94.94,0,0,0,.11-.32s0,0,0-.07Z"/></g><path class="cls-16" d="M73.26,34.74l0,10.55a1.36,1.36,0,0,1-.84,1.11L41,63.72a4.32,4.32,0,0,1-2,.47,4.39,4.39,0,0,1-2-.47L5.3,46.4a1.35,1.35,0,0,1-.84-1.13l0-10.54A1.16,1.16,0,0,0,5,35.6c.06,0,.11.09.18.13l.19.12L37,53.18a4.39,4.39,0,0,0,2,.46,4.32,4.32,0,0,0,2-.46L72.43,35.85l.1-.06.09-.06,0,0h0l0,0,.06,0h0a.86.86,0,0,0,.14-.13l0,0,0-.05h0l0,0a.1.1,0,0,0,0-.05.43.43,0,0,0,0-.07.94.94,0,0,0,.11-.32s0,0,0-.07Z"/><g class="cls-17"><path class="cls-2" d="M69.47,41c.89-.5,1.61-.1,1.62.89a3.44,3.44,0,0,1-1.61,2.71l-26.72,15c-.89.49-1.61.09-1.62-.9A3.45,3.45,0,0,1,42.75,56Z"/></g><g class="cls-11"><path class="cls-2" d="M46.7,54.62c.55-.3,1-.06,1,.54a2,2,0,0,1-1,1.61c-.55.3-1,.06-1-.53A2.07,2.07,0,0,1,46.7,54.62Z"/></g><g class="cls-12"><path class="cls-2" d="M57,48.88c.55-.3,1-.06,1,.54A2,2,0,0,1,57,51c-.55.3-1,.06-1-.53A2,2,0,0,1,57,48.88Z"/></g><g class="cls-11"><path class="cls-2" d="M66.93,43.18c.55-.29,1,0,1,.54a2.05,2.05,0,0,1-1,1.62c-.55.29-1,.06-1-.54A2.07,2.07,0,0,1,66.93,43.18Z"/></g><path class="cls-1" d="M39,37.81V48.36a4.39,4.39,0,0,1-2-.46L5.3,30.57a1.35,1.35,0,0,1-.84-1.12l0-10.55a1.16,1.16,0,0,0,.47.87,1.18,1.18,0,0,0,.18.13l.19.12L37,37.35A4.39,4.39,0,0,0,39,37.81Z"/><path class="cls-2" d="M73.26,19s0,0,0,.06a1.42,1.42,0,0,1-.11.33l0,.06,0,.06,0,0h0l0,.05,0,.05a.86.86,0,0,1-.14.13h0l-.06,0,0,0,0,0,0,0-.09.06-.1.06L41,37.35a4.32,4.32,0,0,1-2,.46,4.39,4.39,0,0,1-2-.46L5.33,20l-.19-.12A1.18,1.18,0,0,1,5,19.77a1.16,1.16,0,0,1-.47-.87,1.37,1.37,0,0,1,.83-1.11L36.73.46a4.73,4.73,0,0,1,4.06,0L72.41,17.79A1.33,1.33,0,0,1,73.26,19Z"/><g class="cls-3"><path class="cls-18" d="M73.26,19s0,.05,0,.07a1.21,1.21,0,0,1-.11.32l0,.07,0,0,0,.05h0l0,.05,0,0-.14.13h0l-.06,0,0,0h0l0,0-.09.06-.1.06L41,37.35a4.21,4.21,0,0,1-2,.47,4.39,4.39,0,0,1-2-.47L5.33,20l-.19-.12c-.07,0-.12-.09-.18-.13a1.16,1.16,0,0,1-.47-.87,1.35,1.35,0,0,1,.83-1.11L36.73.47a4.66,4.66,0,0,1,4.06,0L72.41,17.8A1.32,1.32,0,0,1,73.26,19Z"/></g><path class="cls-5" d="M67.77,19V19a1,1,0,0,1-.1.27l0,.05,0,0,0,0h0l0,0,0,0-.12.11h0a1.84,1.84,0,0,0-.31-.2L40.47,4.88a3.92,3.92,0,0,0-3.41,0L10.64,19.45a1.64,1.64,0,0,0-.29.2h0a1,1,0,0,1-.4-.73,1.16,1.16,0,0,1,.7-.94L37.06,3.4a3.92,3.92,0,0,1,3.41,0L67.06,18C67.56,18.25,67.8,18.61,67.77,19Z"/><path class="cls-1" d="M67.37,19.65l0,0,0,0h0l0,0-.08.05-.09.05L40.66,34.42a3.69,3.69,0,0,1-1.72.39,3.58,3.58,0,0,1-1.7-.39L10.65,19.85l-.16-.1-.14-.1a1.64,1.64,0,0,1,.29-.2L37.06,4.88a3.92,3.92,0,0,1,3.41,0L67.06,19.45A1.84,1.84,0,0,1,67.37,19.65Z"/><path class="cls-19" d="M67.37,19.66l0,0,0,0h0l0,0-.08.06-.09,0L40.66,34.43a3.57,3.57,0,0,1-1.72.38,3.7,3.7,0,0,1-1.7-.38L10.65,19.85l-.16-.1-.14-.1a1.64,1.64,0,0,1,.29-.2L37.06,4.88a3.92,3.92,0,0,1,3.41,0L67.06,19.45A1.41,1.41,0,0,1,67.37,19.66Z"/><path class="cls-1" d="M73.26,18.91l0,10.55a1.36,1.36,0,0,1-.84,1.11L41,47.89a4.32,4.32,0,0,1-2,.47V37.81a4.32,4.32,0,0,0,2-.46L72.43,20l.1-.06.09-.06,0,0,0,0,0,0,.06,0h0a.86.86,0,0,0,.14-.13l0-.05,0-.05h0l0,0,0-.06,0-.06a1.07,1.07,0,0,0,.11-.33s0,0,0-.06Z"/><g class="cls-7"><path class="cls-20" d="M73.26,18.92l0,10.55a1.36,1.36,0,0,1-.84,1.11L41,47.91a4.32,4.32,0,0,1-2,.46,4.39,4.39,0,0,1-2-.46L5.3,30.58a1.35,1.35,0,0,1-.84-1.12l0-10.55a1.15,1.15,0,0,0,.47.87,1.18,1.18,0,0,0,.18.13l.19.12L37,37.36a4.39,4.39,0,0,0,2,.46,4.32,4.32,0,0,0,2-.46L72.43,20l.1-.06.09-.06,0,0,0,0,0,0,.06-.05h0a.86.86,0,0,0,.14-.13l0,0,0-.05h0l0,0a.21.21,0,0,0,0-.06l0-.06a1.07,1.07,0,0,0,.11-.33s0,0,0-.06Z"/></g><path class="cls-21" d="M73.26,18.93l0,10.54a1.34,1.34,0,0,1-.84,1.11L41,47.91a4.2,4.2,0,0,1-2,.46,4.39,4.39,0,0,1-2-.46L5.3,30.58a1.34,1.34,0,0,1-.84-1.12l0-10.54a1.18,1.18,0,0,0,.47.87l.18.12a.76.76,0,0,0,.19.12L37,37.36a4.27,4.27,0,0,0,2,.46,4.2,4.2,0,0,0,2-.46L72.43,20l.1-.05.09-.06,0,0h0l0,0,.06-.05h0l.14-.13,0-.06s0,0,0,0v0l0,0a.21.21,0,0,0,0-.06l0-.06a1.11,1.11,0,0,0,.11-.32s0,0,0-.07Z"/><g class="cls-7"><path class="cls-2" d="M69.47,25.19c.89-.49,1.61-.09,1.62.9a3.45,3.45,0,0,1-1.61,2.71l-26.72,15c-.89.5-1.61.1-1.62-.89a3.45,3.45,0,0,1,1.61-2.71Z"/></g><g class="cls-11"><path class="cls-5" d="M46.7,38.81c.55-.3,1-.06,1,.53a2,2,0,0,1-1,1.62c-.55.3-1,.06-1-.53A2.05,2.05,0,0,1,46.7,38.81Z"/></g><g class="cls-12"><path class="cls-5" d="M57,33.07c.55-.3,1-.06,1,.53a2.05,2.05,0,0,1-1,1.62c-.55.3-1,.06-1-.54A2,2,0,0,1,57,33.07Z"/></g><g class="cls-11"><path class="cls-5" d="M66.93,27.37c.55-.3,1-.06,1,.54a2,2,0,0,1-1,1.61c-.55.3-1,.06-1-.53A2.05,2.05,0,0,1,66.93,27.37Z"/></g><g id="path10349"><path class="cls-5" d="M51.32,12.82a1.45,1.45,0,0,1,.56.47l4.5,7.13a.9.9,0,0,1-.13,1.09l-7,6.36a3.45,3.45,0,0,1-1.68.57l-13.23.79a3.08,3.08,0,0,1-1.73-.3l-.15-.09L23,23.53a1.33,1.33,0,0,1-.7-1.06L23.67,15a1.59,1.59,0,0,1,1-.93l11.3-4A3.53,3.53,0,0,1,37.88,10l12.68,2.49A4.88,4.88,0,0,1,51.32,12.82Z"/></g><g id="path10349-2" data-name="path10349"><path class="cls-22" d="M51.32,12.82a1.42,1.42,0,0,1,.57.47l4.5,7.13a.9.9,0,0,1-.14,1.09l-7,6.36a3.42,3.42,0,0,1-1.68.57l-13.22.79a3.1,3.1,0,0,1-1.74-.3l-.14-.09L23,23.53a1.35,1.35,0,0,1-.71-1.06L23.67,15a1.59,1.59,0,0,1,1-.93l11.3-4A3.53,3.53,0,0,1,37.88,10l12.69,2.49A4.37,4.37,0,0,1,51.32,12.82Z"/></g><g id="path10351"><path class="cls-2" d="M46.36,25.92c.19.17.2.42-.08.61a1.42,1.42,0,0,1-1-.09.27.27,0,0,1-.11-.1s0,0,0,0,0-.07-.08-.08a.73.73,0,0,1-.17-.26.28.28,0,0,1-.12-.12,4.71,4.71,0,0,0-.67-.67.72.72,0,0,0-.34-.09l-.25-.14a16.82,16.82,0,0,1-6.84.44l-.14.17a.5.5,0,0,0-.36.15,1.71,1.71,0,0,0-.36.71,1.52,1.52,0,0,0-.09.17.41.41,0,0,1-.08.27.08.08,0,0,1,0,.08.68.68,0,0,1-.39.28,1,1,0,0,1-.56,0,1.15,1.15,0,0,1-.28-.09.37.37,0,0,1-.2-.49c0-.06,0-.08,0-.11a.71.71,0,0,1,.2-.24l.11-.12a3,3,0,0,0,.53-.72.27.27,0,0,0-.06-.22l.08-.2c-.36-.11-.79-.22-1.15-.37a8.15,8.15,0,0,1-1.71-.74,6.51,6.51,0,0,1-2-1.62l-.34.06a1.42,1.42,0,0,0-.45,0,9.58,9.58,0,0,0-1.23.28l-.22.06c-.14,0-.28.07-.42.11s-.12,0-.14,0a1.52,1.52,0,0,1-.93-.11.47.47,0,0,1-.14-.14c-.11-.22.11-.48.53-.56h.19c.2,0,.37-.05.48-.05h.25c.45-.07.9-.13,1.29-.23.11,0,.23-.09.25-.17l.34-.06a2.44,2.44,0,0,1-.26-.71,3.47,3.47,0,0,1,1-3.15l-.28-.12a.23.23,0,0,0-.14-.21,9.31,9.31,0,0,0-1.2-.39.65.65,0,0,0-.26-.08l-.42-.11s-.05-.05-.08-.06a.59.59,0,0,1-.26-.07c-.29-.16-.35-.37-.17-.54a1.23,1.23,0,0,1,1.1-.11c.05,0,.05,0,.08,0l.14.05.37.17a.68.68,0,0,1,.19.08,10.19,10.19,0,0,0,1.13.44,1,1,0,0,0,.39,0l.34.1a11.45,11.45,0,0,1,5.56-2l.23,0v-.19a.2.2,0,0,0,.14-.18,1.89,1.89,0,0,0-.23-.76L37,13.45a1.4,1.4,0,0,1-.14-.27s0-.07,0-.08c0-.26.25-.49.67-.53a.9.9,0,0,1,.59.11.51.51,0,0,1,.25.3c0,.06,0,.08,0,.11s0,.17,0,.27a.16.16,0,0,1,0,.12,2.19,2.19,0,0,0,.06.76.28.28,0,0,0,.11.13c.05,0,.11,0,.14.05l.08.17a15.3,15.3,0,0,1,5.42.84c.39.15.76.3,1.09.46l.26-.12a1.91,1.91,0,0,0,.42-.07,7.22,7.22,0,0,0,.89-.57.5.5,0,0,0,.17-.13,1.24,1.24,0,0,1,.28-.22l.14-.08a1.13,1.13,0,0,1,.56-.13,1.35,1.35,0,0,1,.61.12l.06,0c.25.18.2.46-.11.6l-.17.1c-.14,0-.25.11-.39.16s-.14,0-.19.07a9.07,9.07,0,0,0-1,.53c0,.06-.11.12-.08.2l-.17.13a5.11,5.11,0,0,1,2.21,2.87c0,.25,0,.52,0,.78l.36,0a.47.47,0,0,0,.11.1.77.77,0,0,0,.23.06,9.71,9.71,0,0,0,1.32.05h.22a3.62,3.62,0,0,1,.48,0,.28.28,0,0,0,.14,0,1.31,1.31,0,0,1,.59.14.35.35,0,0,1,.2.33c-.06.26-.45.41-.9.38a.49.49,0,0,1-.19,0l-.48-.08-.25-.05A11.68,11.68,0,0,0,49.16,21a.78.78,0,0,0-.34.09l-.36,0A5.06,5.06,0,0,1,47.15,23a9,9,0,0,1-2.34,1.46l.17.16a.16.16,0,0,0,0,.22,5.08,5.08,0,0,0,.79.63.91.91,0,0,0,.16.13,1.18,1.18,0,0,1,.31.2c.06,0,.12.06.09.08S46.33,25.9,46.36,25.92Zm-5.67-1.58a9.88,9.88,0,0,0,1.59-.3l-2.34-1.85a1.17,1.17,0,0,0-.3-.11,1,1,0,0,0-.79.16l-1.53,2.1a13.57,13.57,0,0,0,3.37,0M35,20.15a.5.5,0,0,0,.31-.14c.19-.14.11-.35-.12-.48l-3.25-1.29A2.7,2.7,0,0,0,31.33,21L35,20.15m2.13-4.31a10.52,10.52,0,0,0-4.22,1.47l3.51,1.09a.74.74,0,0,0,.36,0c.37,0,.62-.19.59-.39l-.24-2.21m-2.28,7.94c.26.08.45.16.65.24l1.08-2.13a.61.61,0,0,0,0-.24.34.34,0,0,0-.16-.15.9.9,0,0,0-.51-.1L32,22a6.6,6.6,0,0,0,1.49,1.15,9.08,9.08,0,0,0,1.35.6M43,16.37a13,13,0,0,0-4-.66L39.64,18c.06.07.08.12.17.16a1,1,0,0,0,.92,0l2.94-1.5L43,16.37m.86,7.1a6.59,6.59,0,0,0,1.65-1.06,3.87,3.87,0,0,0,1-1.31l-4-.11a.84.84,0,0,0-.31.05c-.31.11-.42.33-.22.5l1.92,1.93M46.66,20A3.37,3.37,0,0,0,45,17.4l-2.65,1.69c-.09.05-.11.1-.11.16s0,.23.18.31a1,1,0,0,0,.32.1l3.93.38m-7.27-.68-1.2.08-.61.57.39.63,1.13.22,1-.35.14-.68-.85-.47"/><path class="cls-2" d="M37.1,14.54h0Z"/></g></svg>