<?xml version="1.0" encoding="UTF-8"?>
<svg width="194px" height="338px" viewBox="0 0 194 338" version="1.1" xmlns="http://www.w3.org/2000/svg" xmlns:xlink="http://www.w3.org/1999/xlink">
    <title>tunnel</title>
    <g id="Diagrams" stroke="none" stroke-width="1" fill="none" fill-rule="evenodd">
        <g id="r" transform="translate(-927.000000, -359.000000)" fill="#F0F2F4" stroke="#651FFF">
            <path d="M936,696 C931.581722,696 928,692.418278 928,688 C928,683.581722 931.581722,680 936,680 L1032,680 L1032,616 L936,616 C931.581722,616 928,612.418278 928,608 C928,603.581722 931.581722,600 936,600 L1032,600 L1032,536 L936,536 C931.581722,536 928,532.418278 928,528 C928,523.581722 931.581722,520 936,520 L1032,520 L1032,456 L936,456 C931.581722,456 928,452.418278 928,448 C928,443.581722 931.581722,440 936,440 L1032,440 L1032,376 L936,376 C931.581722,376 928,372.418278 928,368 C928,363.581722 931.581722,360 936,360 L1040,360 L1040,360 C1044.41828,360 1048,363.581722 1048,368 L1048,440 L1112,440 C1116.41828,440 1120,443.581722 1120,448 C1120,452.418278 1116.41828,456 1112,456 L1048,456 L1048,688 L1048,688 C1048,692.334914 1044.55216,695.864543 1040.24918,695.996193 L1040,696 L1040,696 L936,696 Z" id="tunnel"></path>
        </g>
    </g>
</svg>