<?xml version="1.0" encoding="UTF-8"?>
<svg width="178px" height="258px" viewBox="0 0 178 258" version="1.1" xmlns="http://www.w3.org/2000/svg" xmlns:xlink="http://www.w3.org/1999/xlink">
    <title>tunnel</title>
    <g id="Diagrams" stroke="none" stroke-width="1" fill="none" fill-rule="evenodd">
        <g id="r" transform="translate(-159.000000, -255.000000)">
            <g id="tunnel" transform="translate(160.000000, 256.000000)">
                <path d="M24,256 C19.581722,256 16,252.418278 16,248 C16,243.581722 19.581722,240 24,240 L104,240 L104,176 L24,176 C19.581722,176 16,172.418278 16,168 C16,163.581722 19.581722,160 24,160 L104,160 L104,96 L8,96 C3.581722,96 5.41083001e-16,92.418278 0,88 C-5.41083001e-16,83.581722 3.581722,80 8,80 L104,80 L104,16 L24,16 C19.581722,16 16,12.418278 16,8 C16,3.581722 19.581722,8.11624501e-16 24,0 L112,0 L112,0 C116.418278,-8.11624501e-16 120,3.581722 120,8 L120,80 L168,80 C172.418278,80 176,83.581722 176,88 C176,92.418278 172.418278,96 168,96 L120,96 L120,248 L120,248 C120,252.334914 116.552162,255.864543 112.249179,255.996193 L112,256 L112,256 L24,256 Z" id="Combined-Shape" stroke="#651FFF" fill="#F0F2F4"></path>
                <path d="M92.6625,218.5 L92.6625,215.675 L93.2375,215.675 C93.3708333,215.675 93.4716667,215.693333 93.54,215.73 C93.6083333,215.766667 93.6708333,215.828333 93.7275,215.915 L93.7275,215.915 L95.2475,218.23 C95.3041667,218.316667 95.3733333,218.383333 95.455,218.43 C95.5366667,218.476667 95.6358333,218.5 95.7525,218.5 L95.7525,218.5 L96.9625,218.5 L95.1525,215.83 C95.0291667,215.65 94.8825,215.511667 94.7125,215.415 C94.9658333,215.335 95.1916667,215.228333 95.39,215.095 C95.5883333,214.961667 95.755,214.806667 95.89,214.63 C96.025,214.453333 96.1283333,214.256667 96.2,214.04 C96.2716667,213.823333 96.3075,213.593333 96.3075,213.35 C96.3075,213.043333 96.255,212.7625 96.15,212.5075 C96.045,212.2525 95.88,212.033333 95.655,211.85 C95.43,211.666667 95.1416667,211.524167 94.79,211.4225 C94.4383333,211.320833 94.0158333,211.27 93.5225,211.27 L93.5225,211.27 L91.3175,211.27 L91.3175,218.5 L92.6625,218.5 Z M93.5025,214.71 L92.6625,214.71 L92.6625,212.31 L93.5225,212.31 C94.0191667,212.31 94.3883333,212.408333 94.63,212.605 C94.8716667,212.801667 94.9925,213.083333 94.9925,213.45 C94.9925,213.633333 94.9625,213.801667 94.9025,213.955 C94.8425,214.108333 94.7516667,214.240833 94.63,214.3525 C94.5083333,214.464167 94.3533333,214.551667 94.165,214.615 C93.9766667,214.678333 93.7558333,214.71 93.5025,214.71 L93.5025,214.71 Z M102.3825,218.5 L102.3825,217.425 L99.1775,217.425 L99.1775,215.38 L101.7025,215.38 L101.7025,214.345 L99.1775,214.345 L99.1775,212.34 L102.3825,212.34 L102.3825,211.27 L97.8225,211.27 L97.8225,218.5 L102.3825,218.5 Z M106.9725,218.5 L109.8925,211.27 L108.8075,211.27 C108.694167,211.27 108.599167,211.301667 108.5225,211.365 C108.445833,211.428333 108.3925,211.498333 108.3625,211.575 L108.3625,211.575 L106.6675,215.985 C106.554167,216.278333 106.459167,216.616667 106.3825,217 C106.335833,216.81 106.286667,216.629167 106.235,216.4575 C106.183333,216.285833 106.129167,216.128333 106.0725,215.985 L106.0725,215.985 L104.3725,211.575 C104.335833,211.485 104.280833,211.411667 104.2075,211.355 C104.134167,211.298333 104.039167,211.27 103.9225,211.27 L103.9225,211.27 L102.8375,211.27 L105.7575,218.5 L106.9725,218.5 Z M115.2075,218.5 L115.2075,217.425 L112.0025,217.425 L112.0025,215.38 L114.5275,215.38 L114.5275,214.345 L112.0025,214.345 L112.0025,212.34 L115.2075,212.34 L115.2075,211.27 L110.6475,211.27 L110.6475,218.5 L115.2075,218.5 Z M117.7625,218.5 L117.7625,215.675 L118.3375,215.675 C118.470833,215.675 118.571667,215.693333 118.64,215.73 C118.708333,215.766667 118.770833,215.828333 118.8275,215.915 L118.8275,215.915 L120.3475,218.23 C120.404167,218.316667 120.473333,218.383333 120.555,218.43 C120.636667,218.476667 120.735833,218.5 120.8525,218.5 L120.8525,218.5 L122.0625,218.5 L120.2525,215.83 C120.129167,215.65 119.9825,215.511667 119.8125,215.415 C120.065833,215.335 120.291667,215.228333 120.49,215.095 C120.688333,214.961667 120.855,214.806667 120.99,214.63 C121.125,214.453333 121.228333,214.256667 121.3,214.04 C121.371667,213.823333 121.4075,213.593333 121.4075,213.35 C121.4075,213.043333 121.355,212.7625 121.25,212.5075 C121.145,212.2525 120.98,212.033333 120.755,211.85 C120.53,211.666667 120.241667,211.524167 119.89,211.4225 C119.538333,211.320833 119.115833,211.27 118.6225,211.27 L118.6225,211.27 L116.4175,211.27 L116.4175,218.5 L117.7625,218.5 Z M118.6025,214.71 L117.7625,214.71 L117.7625,212.31 L118.6225,212.31 C119.119167,212.31 119.488333,212.408333 119.73,212.605 C119.971667,212.801667 120.0925,213.083333 120.0925,213.45 C120.0925,213.633333 120.0625,213.801667 120.0025,213.955 C119.9425,214.108333 119.851667,214.240833 119.73,214.3525 C119.608333,214.464167 119.453333,214.551667 119.265,214.615 C119.076667,214.678333 118.855833,214.71 118.6025,214.71 L118.6025,214.71 Z M124.7475,218.58 C125.1475,218.58 125.5025,218.519167 125.8125,218.3975 C126.1225,218.275833 126.385,218.109167 126.6,217.8975 C126.815,217.685833 126.978333,217.4375 127.09,217.1525 C127.201667,216.8675 127.2575,216.561667 127.2575,216.235 C127.2575,215.935 127.21,215.68 127.115,215.47 C127.02,215.26 126.894167,215.0825 126.7375,214.9375 C126.580833,214.7925 126.4025,214.6725 126.2025,214.5775 C126.0025,214.4825 125.798333,214.399167 125.59,214.3275 C125.381667,214.255833 125.1775,214.188333 124.9775,214.125 C124.7775,214.061667 124.599167,213.99 124.4425,213.91 C124.285833,213.83 124.16,213.733333 124.065,213.62 C123.97,213.506667 123.9225,213.365 123.9225,213.195 C123.9225,213.061667 123.945833,212.939167 123.9925,212.8275 C124.039167,212.715833 124.11,212.62 124.205,212.54 C124.3,212.46 124.416667,212.3975 124.555,212.3525 C124.693333,212.3075 124.855833,212.285 125.0425,212.285 C125.249167,212.285 125.428333,212.310833 125.58,212.3625 C125.731667,212.414167 125.864167,212.471667 125.9775,212.535 C126.090833,212.598333 126.189167,212.655833 126.2725,212.7075 C126.355833,212.759167 126.430833,212.785 126.4975,212.785 C126.564167,212.785 126.621667,212.77 126.67,212.74 C126.718333,212.71 126.760833,212.658333 126.7975,212.585 L126.7975,212.585 L127.1275,211.95 C126.874167,211.71 126.5675,211.523333 126.2075,211.39 C125.8475,211.256667 125.454167,211.19 125.0275,211.19 C124.650833,211.19 124.315833,211.248333 124.0225,211.365 C123.729167,211.481667 123.481667,211.636667 123.28,211.83 C123.078333,212.023333 122.925,212.245 122.82,212.495 C122.715,212.745 122.6625,213.001667 122.6625,213.265 C122.6625,213.595 122.71,213.8725 122.805,214.0975 C122.9,214.3225 123.025833,214.51 123.1825,214.66 C123.339167,214.81 123.5175,214.931667 123.7175,215.025 C123.9175,215.118333 124.120833,215.198333 124.3275,215.265 C124.534167,215.331667 124.7375,215.393333 124.9375,215.45 C125.1375,215.506667 125.315833,215.575833 125.4725,215.6575 C125.629167,215.739167 125.755,215.84 125.85,215.96 C125.945,216.08 125.9925,216.235 125.9925,216.425 C125.9925,216.765 125.8875,217.025833 125.6775,217.2075 C125.4675,217.389167 125.170833,217.48 124.7875,217.48 C124.5375,217.48 124.323333,217.445833 124.145,217.3775 C123.966667,217.309167 123.811667,217.233333 123.68,217.15 C123.548333,217.066667 123.434167,216.990833 123.3375,216.9225 C123.240833,216.854167 123.150833,216.82 123.0675,216.82 C123.004167,216.82 122.946667,216.835833 122.895,216.8675 C122.843333,216.899167 122.799167,216.938333 122.7625,216.985 L122.7625,216.985 L122.3725,217.63 C122.5125,217.773333 122.671667,217.903333 122.85,218.02 C123.028333,218.136667 123.22,218.236667 123.425,218.32 C123.63,218.403333 123.844167,218.4675 124.0675,218.5125 C124.290833,218.5575 124.5175,218.58 124.7475,218.58 Z M132.8475,218.5 L132.8475,217.425 L129.6425,217.425 L129.6425,215.38 L132.1675,215.38 L132.1675,214.345 L129.6425,214.345 L129.6425,212.34 L132.8475,212.34 L132.8475,211.27 L128.2875,211.27 L128.2875,218.5 L132.8475,218.5 Z M138.8625,218.5 L138.8625,212.375 L141.0375,212.375 L141.0375,211.27 L135.3325,211.27 L135.3325,212.375 L137.5175,212.375 L137.5175,218.5 L138.8625,218.5 Z M144.8025,218.58 C145.265833,218.58 145.6825,218.505833 146.0525,218.3575 C146.4225,218.209167 146.7375,218.0025 146.9975,217.7375 C147.2575,217.4725 147.456667,217.1575 147.595,216.7925 C147.733333,216.4275 147.8025,216.03 147.8025,215.6 L147.8025,215.6 L147.8025,211.27 L146.4575,211.27 L146.4575,215.6 C146.4575,215.876667 146.42,216.126667 146.345,216.35 C146.27,216.573333 146.161667,216.763333 146.02,216.92 C145.878333,217.076667 145.705,217.198333 145.5,217.285 C145.295,217.371667 145.0625,217.415 144.8025,217.415 C144.5425,217.415 144.31,217.371667 144.105,217.285 C143.9,217.198333 143.7275,217.075833 143.5875,216.9175 C143.4475,216.759167 143.34,216.568333 143.265,216.345 C143.19,216.121667 143.1525,215.871667 143.1525,215.595 L143.1525,215.595 L143.1525,211.27 L141.8075,211.27 L141.8075,215.6 C141.8075,216.03 141.876667,216.4275 142.015,216.7925 C142.153333,217.1575 142.351667,217.4725 142.61,217.7375 C142.868333,218.0025 143.1825,218.209167 143.5525,218.3575 C143.9225,218.505833 144.339167,218.58 144.8025,218.58 Z M150.3575,218.5 L150.3575,214.06 C150.3575,213.973333 150.355,213.8775 150.35,213.7725 C150.345,213.6675 150.3375,213.561667 150.3275,213.455 L150.3275,213.455 L154.1075,218.27 C154.174167,218.356667 154.2425,218.416667 154.3125,218.45 C154.3825,218.483333 154.470833,218.5 154.5775,218.5 L154.5775,218.5 L155.2725,218.5 L155.2725,211.27 L154.0875,211.27 L154.0875,215.665 C154.0875,215.761667 154.09,215.865833 154.095,215.9775 C154.1,216.089167 154.109167,216.203333 154.1225,216.32 L154.1225,216.32 L150.3275,211.485 C150.290833,211.438333 150.2575,211.400833 150.2275,211.3725 C150.1975,211.344167 150.166667,211.3225 150.135,211.3075 C150.103333,211.2925 150.0675,211.2825 150.0275,211.2775 C149.9875,211.2725 149.9375,211.27 149.8775,211.27 L149.8775,211.27 L149.1725,211.27 L149.1725,218.5 L150.3575,218.5 Z M157.9175,218.5 L157.9175,214.06 C157.9175,213.973333 157.915,213.8775 157.91,213.7725 C157.905,213.6675 157.8975,213.561667 157.8875,213.455 L157.8875,213.455 L161.6675,218.27 C161.734167,218.356667 161.8025,218.416667 161.8725,218.45 C161.9425,218.483333 162.030833,218.5 162.1375,218.5 L162.1375,218.5 L162.8325,218.5 L162.8325,211.27 L161.6475,211.27 L161.6475,215.665 C161.6475,215.761667 161.65,215.865833 161.655,215.9775 C161.66,216.089167 161.669167,216.203333 161.6825,216.32 L161.6825,216.32 L157.8875,211.485 C157.850833,211.438333 157.8175,211.400833 157.7875,211.3725 C157.7575,211.344167 157.726667,211.3225 157.695,211.3075 C157.663333,211.2925 157.6275,211.2825 157.5875,211.2775 C157.5475,211.2725 157.4975,211.27 157.4375,211.27 L157.4375,211.27 L156.7325,211.27 L156.7325,218.5 L157.9175,218.5 Z M168.8525,218.5 L168.8525,217.425 L165.6475,217.425 L165.6475,215.38 L168.1725,215.38 L168.1725,214.345 L165.6475,214.345 L165.6475,212.34 L168.8525,212.34 L168.8525,211.27 L164.2925,211.27 L164.2925,218.5 L168.8525,218.5 Z M174.2575,218.5 L174.2575,217.39 L171.3625,217.39 L171.3625,211.27 L170.0175,211.27 L170.0175,218.5 L174.2575,218.5 Z" id="REVERSETUNNEL" fill="#607D8B" fill-rule="nonzero" transform="translate(132.787500, 214.885000) rotate(-90.000000) translate(-132.787500, -214.885000) "></path>
            </g>
        </g>
    </g>
</svg>