<svg id="Layer_1" data-name="Layer 1" xmlns="http://www.w3.org/2000/svg" xmlns:xlink="http://www.w3.org/1999/xlink" viewBox="0 0 80 80"><defs><style>.cls-1,.cls-10,.cls-11,.cls-7{fill:none;}.cls-1{stroke:#607d8b;stroke-miterlimit:10;stroke-width:0.62px;}.cls-2{fill:#651fff;}.cls-3{fill:url(#linear-gradient);}.cls-4{fill:#cfd8db;}.cls-5{fill:#eff2f4;}.cls-6{fill:url(#linear-gradient-2);}.cls-10,.cls-11,.cls-7{stroke:#fff;stroke-linecap:round;stroke-linejoin:round;stroke-width:0.16px;}.cls-7{stroke-dasharray:1.86;}.cls-7,.cls-9{opacity:0.4;}.cls-8{fill:#4812dd;}.cls-11{stroke-dasharray:1.93 1.93;}.cls-12{fill:url(#linear-gradient-3);}</style><linearGradient id="linear-gradient" x1="-17.89" y1="54.51" x2="95.99" y2="57.86" gradientUnits="userSpaceOnUse"><stop offset="0" stop-color="#fff" stop-opacity="0.6"/><stop offset="0.13" stop-color="#fff" stop-opacity="0.42"/><stop offset="0.21" stop-color="#fff" stop-opacity="0.3"/><stop offset="0.43" stop-color="#fff" stop-opacity="0"/></linearGradient><linearGradient id="linear-gradient-2" x1="63.26" y1="40.04" x2="24.79" y2="15.05" gradientUnits="userSpaceOnUse"><stop offset="0.13" stop-color="#587e8d" stop-opacity="0.5"/><stop offset="0.3" stop-color="#587e8d" stop-opacity="0.29"/><stop offset="0.46" stop-color="#587e8d" stop-opacity="0.13"/><stop offset="0.61" stop-color="#587e8d" stop-opacity="0.03"/><stop offset="0.75" stop-color="#587e8d" stop-opacity="0"/><stop offset="1" stop-color="#587e8d" stop-opacity="0"/></linearGradient><linearGradient id="linear-gradient-3" x1="15.67" y1="9.52" x2="36.81" y2="12.24" gradientUnits="userSpaceOnUse"><stop offset="0" stop-color="#fff" stop-opacity="0.6"/><stop offset="0.13" stop-color="#fff" stop-opacity="0.42"/><stop offset="0.21" stop-color="#fff" stop-opacity="0.3"/><stop offset="0.69" stop-color="#fff" stop-opacity="0"/></linearGradient></defs><line class="cls-1" x1="21.73" y1="19.76" x2="26.68" y2="16.12"/><path class="cls-2" d="M13,57.08a23.3,23.3,0,0,1-.86-14c.75-2.88,1.89-7.3,5.56-9.54s9-.63,19.64,2.67a60.94,60.94,0,0,1,12.41,5c3.13,1.77,5.63,3.17,8.19,5.88,3.71,3.94,5.11,8.08,6.58,12.58a53.34,53.34,0,0,1,2.61,16L60.89,80Z"/><path class="cls-3" d="M13,57.08a23.3,23.3,0,0,1-.86-14c.75-2.88,1.89-7.3,5.56-9.54s9-.63,19.64,2.67a60.94,60.94,0,0,1,12.41,5c3.13,1.77,5.63,3.17,8.19,5.88,3.71,3.94,5.11,8.08,6.58,12.58a53.34,53.34,0,0,1,2.61,16L60.89,80Z"/><path class="cls-4" d="M31,34.56A7.54,7.54,0,0,1,31.22,42a11.61,11.61,0,0,0,13.31-.1,12.15,12.15,0,0,1-1.25-2.8,14.47,14.47,0,0,1-.39-5.88,25,25,0,0,1,1.25-6Z"/><path class="cls-5" d="M26.14,13.38a43,43,0,0,1,.11,4.31,40.27,40.27,0,0,1-.65,4.22,45.24,45.24,0,0,0-.54,5.29c-.07,3.11-.17,7.09,2.16,8.74,1.24.88,2.64.74,4.75.54a15.26,15.26,0,0,0,8.32-3.24c2.55-2.09,3.55-4.49,5.93-5.4a10.63,10.63,0,0,0,2-1c1-.65,1.71-1.07,2-1.83.59-1.35-.06-3.32-1-3.57s-1.31,1.09-2.92,1.19c-.54,0-1.52-.05-1.73-.54-.27-.67,1.17-1.51,2.16-3A8.76,8.76,0,0,0,48,13.92c-.43-4.84-7.14-8.06-11.87-8.86-2.19-.36-5.64-.95-7.78,1.08S26.16,11.92,26.14,13.38Z"/><path class="cls-6" d="M26.14,13.38a43,43,0,0,1,.11,4.31,40.27,40.27,0,0,1-.65,4.22,45.24,45.24,0,0,0-.54,5.29c-.07,3.11-.17,7.09,2.16,8.74,1.24.88,2.64.74,4.75.54a15.26,15.26,0,0,0,8.32-3.24c2.55-2.09,3.55-4.49,5.93-5.4a10.63,10.63,0,0,0,2-1c1-.65,1.71-1.07,2-1.83.59-1.35-.06-3.32-1-3.57s-1.31,1.09-2.92,1.19c-.54,0-1.52-.05-1.73-.54-.27-.67,1.17-1.51,2.16-3A8.76,8.76,0,0,0,48,13.92c-.43-4.84-7.14-8.06-11.87-8.86-2.19-.36-5.64-.95-7.78,1.08S26.16,11.92,26.14,13.38Z"/><path class="cls-7" d="M31.45,37.58A20.25,20.25,0,0,0,22,34.52a19.5,19.5,0,0,0-5.64.48"/><path class="cls-2" d="M50.19,10.57a3.09,3.09,0,0,1-.9-2.3,3.05,3.05,0,0,1,1-2.27c0,.86,0,1.56,0,2.28S50.24,9.71,50.19,10.57Z"/><path class="cls-2" d="M51.26,11.71A3,3,0,0,1,51.45,10a3.55,3.55,0,0,1,1.14-1.44A3.45,3.45,0,0,1,56,8.14a7.19,7.19,0,0,0-2.9,1.12A6,6,0,0,0,51.26,11.71Z"/><ellipse class="cls-1" cx="24.46" cy="19.76" rx="2.85" ry="3.43" transform="translate(-5.44 10.02) rotate(-20.88)"/><ellipse class="cls-1" cx="32.47" cy="24.48" rx="2.85" ry="3.43" transform="translate(-6.59 13.18) rotate(-20.88)"/><line class="cls-1" x1="35.39" y1="25.12" x2="44.72" y2="22.65"/><path class="cls-1" d="M27,21.69a2.77,2.77,0,0,1,1.37.21,2.74,2.74,0,0,1,1.26,1.19"/><path class="cls-8" d="M18.65,45.22a70.39,70.39,0,0,0,.11,7.41c.09,1.24.27,2.46.34,3.69s.15,2.46.14,3.71l-.07,0a20,20,0,0,1-.84-3.66,29,29,0,0,1-.19-3.73,53,53,0,0,1,.44-7.45Z"/><path class="cls-8" d="M48.94,59.46a73.31,73.31,0,0,0-.16,7.41c0,1.23.18,2.46.2,3.69S49,73,49,74.28h-.08a19.42,19.42,0,0,1-.7-3.68,29.18,29.18,0,0,1-.05-3.74,54.16,54.16,0,0,1,.7-7.42Z"/><g class="cls-9"><path class="cls-10" d="M45.76,41.92l.88.32"/><path class="cls-11" d="M48.4,43a21,21,0,0,1,3.47,2.14c4.07,3.1,5.85,6.91,7.33,10a42.22,42.22,0,0,1,3.35,11.31,57.92,57.92,0,0,1,.94,9.05"/><path class="cls-10" d="M63.51,76.51v.93"/></g><path class="cls-2" d="M43.9,15.08c-1.52-.68-5.51,1.17-7.33,1.74-4.38,1.38-10.26-.25-13-3.9-.16-.21-3.15-4.35-1.22-8.54A7.83,7.83,0,0,1,28,.07a7.52,7.52,0,0,1,7.06,3A7,7,0,0,1,39.19.68,7.14,7.14,0,0,1,44.58,2c.72.61.59.83,2.42,3.7a16.77,16.77,0,0,0,2.49,3.5c2.06,1.53,3.94.5,5.11,2.09a3.86,3.86,0,0,1,.61,2.35c0,.52-.08,1.44-1.69,4.17C52.27,20,51.64,21,50.83,21.53c-1.56,1-2.41.24-3.62,1.31s-1.13,2.44-2.07,2.58a1.45,1.45,0,0,1-1.41-.74c-.47-.91.78-1.73.51-3.26-.15-.84-.56-.75-.71-1.7A4.35,4.35,0,0,1,44,17.17c.37-.7.79-1,.68-1.42S44.07,15.15,43.9,15.08Z"/><path class="cls-12" d="M43.9,15.08c-1.52-.68-5.51,1.17-7.33,1.74-4.38,1.38-10.26-.25-13-3.9-.16-.21-3.15-4.35-1.22-8.54A7.83,7.83,0,0,1,28,.07a7.52,7.52,0,0,1,7.06,3A7,7,0,0,1,39.19.68,7.14,7.14,0,0,1,44.58,2c.72.61.59.83,2.42,3.7a16.77,16.77,0,0,0,2.49,3.5c2.06,1.53,3.94.5,5.11,2.09a3.86,3.86,0,0,1,.61,2.35c0,.52-.08,1.44-1.69,4.17C52.27,20,51.64,21,50.83,21.53c-1.56,1-2.41.24-3.62,1.31s-1.13,2.44-2.07,2.58a1.45,1.45,0,0,1-1.41-.74c-.47-.91.78-1.73.51-3.26-.15-.84-.56-.75-.71-1.7A4.35,4.35,0,0,1,44,17.17c.37-.7.79-1,.68-1.42S44.07,15.15,43.9,15.08Z"/></svg>