<?xml version="1.0" encoding="UTF-8"?>
<svg width="24px" height="24px" viewBox="0 0 24 24" version="1.1" xmlns="http://www.w3.org/2000/svg" xmlns:xlink="http://www.w3.org/1999/xlink">
    <title>contributing-icon</title>
    <defs>
        <path d="M22.2,2 C23.1924,2 24,2.8076 24,3.8 L24,19.4 C24,20.3924 23.1924,21.2 22.2,21.2 L1.8,21.2 C0.8076,21.2 0,20.3924 0,19.4 L0,3.8 C0,2.8076 0.8076,2 1.8,2 L22.2,2 Z M22.2,3.2 L1.8,3.2 C1.4688,3.2 1.2,3.4688 1.2,3.8 L1.2,19.4 C1.2,19.7312 1.4688,20 1.8,20 L22.2,20 C22.5312,20 22.8,19.7312 22.8,19.4 L22.8,3.8 C22.8,3.4688 22.5312,3.2 22.2,3.2 Z M4.5312,5.7008 L8.1312,8.1008 C8.298,8.2124 8.3988,8.3996 8.3988,8.6 C8.3988,8.8004 8.298,8.9876 8.1312,9.0992 L4.5312,11.4992 C4.4547,11.5505 4.3701,11.58155 4.2844875,11.5938688 L4.2,11.6 C4.0056,11.6 3.816,11.5064 3.6996,11.3324 C3.516,11.0564 3.5904,10.6844 3.8664,10.5008 L6.7176,8.6 L3.8664,6.6992 C3.5904,6.5156 3.516,6.1424 3.6996,5.8676 C3.8832,5.5928 4.2564,5.5172 4.5312,5.7008 Z M13.8,10.4 C14.1312,10.4 14.4,10.6688 14.4,11 C14.4,11.3312 14.1312,11.6 13.8,11.6 L10.2,11.6 C9.8688,11.6 9.6,11.3312 9.6,11 C9.6,10.6688 9.8688,10.4 10.2,10.4 L13.8,10.4 Z" id="path-1"></path>
    </defs>
    <g id="contributing-icon" stroke="none" stroke-width="1" fill="none" fill-rule="evenodd">
        <mask id="mask-2" fill="white">
            <use xlink:href="#path-1"></use>
        </mask>
        <use id="Combined-Shape" fill="#512FC9" fill-rule="nonzero" xlink:href="#path-1"></use>
    </g>
</svg>