<svg width="24" height="24" viewBox="0 0 24 24" fill="none"
  xmlns="http://www.w3.org/2000/svg">
  <path d="M9.15714 23.6423C9.10794 23.6423 9.05754 23.6363 9.00714 23.6231C7.92954 23.3459 6.89394 22.9187 5.93034 22.3523C5.65074 22.1879 5.55234 21.8315 5.70714 21.5471C5.89794 21.1967 5.99874 20.8007 5.99874 20.3987C5.99874 19.0751 4.92234 17.9987 3.59874 17.9987C3.19794 17.9987 2.80074 18.0995 2.45034 18.2903C2.16594 18.4451 1.80954 18.3467 1.64514 18.0671C1.07874 17.1023 0.651537 16.0679 0.374337 14.9903C0.296337 14.6855 0.466737 14.3723 0.764337 14.2727C1.74114 13.9439 2.39874 13.0295 2.39874 11.9987C2.39874 10.9679 1.74234 10.0535 0.764337 9.72474C0.466737 9.62394 0.296337 9.31194 0.374337 9.00714C0.651537 7.92954 1.07874 6.89394 1.64514 5.93034C1.80954 5.65074 2.16594 5.55234 2.45034 5.70714C2.79954 5.89794 3.19674 5.99874 3.59874 5.99874C4.92234 5.99874 5.99874 4.92234 5.99874 3.59874C5.99874 3.19794 5.89794 2.80074 5.70714 2.45034C5.55234 2.16594 5.65074 1.80954 5.93034 1.64514C6.89514 1.07874 7.92954 0.651537 9.00714 0.374337C9.31194 0.296337 9.62514 0.466737 9.72474 0.764337C10.0535 1.74114 10.9679 2.39874 11.9987 2.39874C13.0295 2.39874 13.9439 1.74234 14.2727 0.764337C14.3735 0.466737 14.6867 0.296337 14.9903 0.374337C16.0679 0.651537 17.1035 1.07874 18.0671 1.64514C18.3467 1.80954 18.4451 2.16594 18.2903 2.45034C18.0995 2.80074 17.9987 3.19674 17.9987 3.59874C17.9987 4.92234 19.0751 5.99874 20.3987 5.99874C20.7995 5.99874 21.1967 5.89794 21.5471 5.70714C21.8315 5.55234 22.1879 5.65074 22.3523 5.93034C22.9187 6.89514 23.3459 7.92954 23.6231 9.00714C23.7011 9.31194 23.5307 9.62514 23.2331 9.72474C22.2563 10.0535 21.5987 10.9679 21.5987 11.9987C21.5987 13.0295 22.2551 13.9439 23.2331 14.2727C23.5307 14.3735 23.7011 14.6855 23.6231 14.9903C23.3459 16.0679 22.9187 17.1035 22.3523 18.0671C22.1879 18.3467 21.8315 18.4451 21.5471 18.2903C21.1967 18.0995 20.8007 17.9987 20.3987 17.9987C19.0751 17.9987 17.9987 19.0751 17.9987 20.3987C17.9987 20.7995 18.0995 21.1967 18.2903 21.5471C18.4451 21.8315 18.3467 22.1879 18.0671 22.3523C17.1023 22.9187 16.0679 23.3459 14.9903 23.6231C14.6855 23.7011 14.3723 23.5307 14.2727 23.2331C13.9439 22.2563 13.0295 21.5987 11.9987 21.5987C10.9679 21.5987 10.0535 22.2551 9.72474 23.2331C9.64074 23.4815 9.40794 23.6423 9.15594 23.6423H9.15714ZM11.9999 20.3999C13.3523 20.3999 14.5703 21.1535 15.1859 22.3223C15.8099 22.1291 16.4171 21.8795 16.9979 21.5759C16.8683 21.1991 16.8011 20.8007 16.8011 20.3999C16.8011 18.4151 18.4163 16.7999 20.4011 16.7999C20.8019 16.7999 21.2003 16.8671 21.5771 16.9967C21.8807 16.4159 22.1315 15.8099 22.3235 15.1847C21.1547 14.5703 20.4011 13.3523 20.4011 11.9987C20.4011 10.6451 21.1547 9.42834 22.3235 8.81274C22.1303 8.18874 21.8807 7.58154 21.5771 7.00074C21.2003 7.13034 20.8019 7.19754 20.4011 7.19754C18.4163 7.19754 16.8011 5.58234 16.8011 3.59754C16.8011 3.19674 16.8683 2.79834 16.9979 2.42154C16.4171 2.11794 15.8111 1.86714 15.1859 1.67514C14.5715 2.84394 13.3535 3.59754 11.9999 3.59754C10.6463 3.59754 9.42954 2.84394 8.81394 1.67514C8.18994 1.86714 7.58274 2.11794 7.00194 2.42154C7.13154 2.79834 7.19874 3.19674 7.19874 3.59754C7.19874 5.58234 5.58354 7.19754 3.59874 7.19754C3.19794 7.19754 2.79954 7.13034 2.42274 7.00074C2.11914 7.58154 1.86834 8.18754 1.67634 8.81274C2.84514 9.42714 3.59874 10.6451 3.59874 11.9987C3.59874 13.3523 2.84514 14.5691 1.67634 15.1847C1.86834 15.8087 2.11914 16.4159 2.42274 16.9967C2.79954 16.8671 3.19794 16.7999 3.59874 16.7999C5.58354 16.7999 7.19874 18.4151 7.19874 20.3999C7.19874 20.8007 7.13154 21.1991 7.00194 21.5759C7.58274 21.8795 8.18874 22.1303 8.81394 22.3223C9.42834 21.1535 10.6463 20.3999 11.9999 20.3999V20.3999Z" fill="white"/>
  <path d="M11.9999 15.5999C10.0151 15.5999 8.3999 13.9847 8.3999 11.9999C8.3999 10.0151 10.0151 8.3999 11.9999 8.3999C13.9847 8.3999 15.5999 10.0151 15.5999 11.9999C15.5999 13.9847 13.9847 15.5999 11.9999 15.5999ZM11.9999 9.5999C10.6763 9.5999 9.5999 10.6763 9.5999 11.9999C9.5999 13.3235 10.6763 14.3999 11.9999 14.3999C13.3235 14.3999 14.3999 13.3235 14.3999 11.9999C14.3999 10.6763 13.3235 9.5999 11.9999 9.5999Z" fill="white"/>
</svg>
