<?xml version="1.0" encoding="UTF-8"?>
<svg width="23px" height="24px" viewBox="0 0 23 24" version="1.1" xmlns="http://www.w3.org/2000/svg" xmlns:xlink="http://www.w3.org/1999/xlink">
    <title>Combined Shape 2</title>
    <defs>
        <path  fill="currentColor" d="M773.625,616 C774.65875,616 775.5,616.850105 775.5,617.894737 L775.5,617.894737 L775.5,618.526316 L776.125,618.526316 C777.15875,618.526316 778,619.376421 778,620.421053 L778,620.421053 L778,621.052632 L778.625,621.052632 C779.65875,621.052632 780.5,621.902737 780.5,622.947368 L780.5,622.947368 L780.5,638.105263 C780.5,639.149895 779.65875,640 778.625,640 L778.625,640 L764.875,640 C763.84125,640 763,639.149895 763,638.105263 L763,638.105263 L763,637.473684 L762.375,637.473684 C761.34125,637.473684 760.5,636.623579 760.5,635.578947 L760.5,635.578947 L760.5,634.947368 L759.875,634.947368 C758.84125,634.947368 758,634.097263 758,633.052632 L758,633.052632 L758,617.894737 C758,616.850105 758.84125,616 759.875,616 L759.875,616 Z M778.625,622.315789 L778,622.315789 L778,635.578947 C778,636.623579 777.15875,637.473684 776.125,637.473684 L776.125,637.473684 L764.25,637.473684 L764.25,638.105263 C764.25,638.453895 764.53,638.736842 764.875,638.736842 L764.875,638.736842 L778.625,638.736842 C778.97,638.736842 779.25,638.453895 779.25,638.105263 L779.25,638.105263 L779.25,622.947368 C779.25,622.598737 778.97,622.315789 778.625,622.315789 L778.625,622.315789 Z M776.125,619.789474 L775.5,619.789474 L775.5,633.052632 C775.5,634.097263 774.65875,634.947368 773.625,634.947368 L773.625,634.947368 L761.75,634.947368 L761.75,635.578947 C761.75,635.927579 762.03,636.210526 762.375,636.210526 L762.375,636.210526 L776.125,636.210526 C776.47,636.210526 776.75,635.927579 776.75,635.578947 L776.75,635.578947 L776.75,620.421053 C776.75,620.072421 776.47,619.789474 776.125,619.789474 L776.125,619.789474 Z M773.625,617.263158 L759.875,617.263158 C759.53,617.263158 759.25,617.546105 759.25,617.894737 L759.25,617.894737 L759.25,633.052632 C759.25,633.401263 759.53,633.684211 759.875,633.684211 L759.875,633.684211 L773.625,633.684211 C773.97,633.684211 774.25,633.401263 774.25,633.052632 L774.25,633.052632 L774.25,617.894737 C774.25,617.546105 773.97,617.263158 773.625,617.263158 L773.625,617.263158 Z M770.890625,630.25 C771.227,630.25 771.5,630.586 771.5,631 C771.5,631.414 771.227,631.75 770.890625,631.75 L762.359375,631.75 C762.023,631.75 761.75,631.414 761.75,631 C761.75,630.586 762.023,630.25 762.359375,630.25 L770.890625,630.25 Z M770.890625,627.25 C771.227,627.25 771.5,627.586 771.5,628 C771.5,628.414 771.227,628.75 770.890625,628.75 L762.359375,628.75 C762.023,628.75 761.75,628.414 761.75,628 C761.75,627.586 762.023,627.25 762.359375,627.25 L770.890625,627.25 Z M771.59375,619.75 C771.956,619.75 772.25,620.0188 772.25,620.35 L772.25,625.15 C772.25,625.4812 771.956,625.75 771.59375,625.75 L767.65625,625.75 C767.294,625.75 767,625.4812 767,625.15 L767,620.35 C767,620.0188 767.294,619.75 767.65625,619.75 L771.59375,619.75 Z M764.875,624.25 C765.22,624.25 765.5,624.586 765.5,625 C765.5,625.414 765.22,625.75 764.875,625.75 L762.375,625.75 C762.03,625.75 761.75,625.414 761.75,625 C761.75,624.586 762.03,624.25 762.375,624.25 L764.875,624.25 Z M770.9375,620.95 L768.3125,620.95 L768.3125,624.55 L770.9375,624.55 L770.9375,620.95 Z M764.875,622 C765.22,622 765.5,622.336 765.5,622.75 C765.5,623.164 765.22,623.5 764.875,623.5 L762.375,623.5 C762.03,623.5 761.75,623.164 761.75,622.75 C761.75,622.336 762.03,622 762.375,622 L764.875,622 Z M764.875,619.75 C765.22,619.75 765.5,620.086 765.5,620.5 C765.5,620.914 765.22,621.25 764.875,621.25 L762.375,621.25 C762.03,621.25 761.75,620.914 761.75,620.5 C761.75,620.086 762.03,619.75 762.375,619.75 L764.875,619.75 Z" id="path-1"></path>
    </defs>
    <g id="Thank-you-for-Downloading" stroke="none" stroke-width="1" fill="none" fill-rule="evenodd">
        <g id="download-copy" transform="translate(-758.000000, -616.000000)">
            <mask id="mask-2" fill="white">
                <use xlink:href="#path-1"></use>
            </mask>
            <use id="Combined-Shape" fill="#512FC9" fill-rule="nonzero" xlink:href="#path-1"></use>
        </g>
    </g>
</svg>