<svg id="Layer_1" data-name="Layer 1" xmlns="http://www.w3.org/2000/svg" viewBox="0 0 24 24"><defs><style>.cls-1{opacity:0.85;}.cls-2{fill:#5e2ad8;}.cls-3{fill:#c9d7dd;}.cls-4{fill:#fff;}</style></defs><g class="cls-1"><path class="cls-2" d="M16,12A8,8,0,0,1,0,12v-.11A8,8,0,0,1,16,12Z"/></g><path class="cls-3" d="M23.79,12a7.93,7.93,0,0,1-1,3.9,8,8,0,0,1-7,4.09,8.13,8.13,0,0,1-2.8-.5,9,9,0,0,0,2.88-3.1A9,9,0,0,0,13,4.52,7.9,7.9,0,0,1,15.78,4,8,8,0,0,1,23.79,12Z"/><path class="cls-4" d="M7.11,16a5.32,5.32,0,0,1-1.25-.38,3.9,3.9,0,0,1-1-.65l.55-.79A.63.63,0,0,1,5.59,14,.5.5,0,0,1,5.83,14a.58.58,0,0,1,.28.07l.31.17.37.21a1.83,1.83,0,0,0,.45.17l.21-2.15a8.45,8.45,0,0,1-.81-.26,3.09,3.09,0,0,1-.73-.42,2,2,0,0,1-.52-.67,2.19,2.19,0,0,1-.21-1,2.08,2.08,0,0,1,.19-.88,2.13,2.13,0,0,1,.53-.77,2.8,2.8,0,0,1,.86-.57,3.05,3.05,0,0,1,1.17-.22L8,7a.46.46,0,0,1,.15-.29.41.41,0,0,1,.32-.13h.65L9,7.68a3.39,3.39,0,0,1,1.06.37,3.82,3.82,0,0,1,.75.54l-.43.63a.66.66,0,0,1-.19.21.48.48,0,0,1-.24.07.79.79,0,0,1-.2,0l-.26-.1-.29-.13a1.61,1.61,0,0,0-.33-.12l-.2,2,.55.17a4.77,4.77,0,0,1,.52.22,2.43,2.43,0,0,1,.47.28,1.67,1.67,0,0,1,.38.37,1.7,1.7,0,0,1,.26.5,2.11,2.11,0,0,1,.09.64,2.88,2.88,0,0,1-.18,1,2.52,2.52,0,0,1-.54.84,2.68,2.68,0,0,1-.86.59A3.47,3.47,0,0,1,8.18,16l-.07.71A.49.49,0,0,1,8,17a.44.44,0,0,1-.33.13H7ZM6.85,9.89a.74.74,0,0,0,.21.55,1.79,1.79,0,0,0,.56.35l.17-1.72a1.55,1.55,0,0,0-.44.12.9.9,0,0,0-.29.18.54.54,0,0,0-.16.24A.69.69,0,0,0,6.85,9.89Zm2.41,3.68a.65.65,0,0,0-.21-.51,1.71,1.71,0,0,0-.55-.33l-.18,1.88A1,1,0,0,0,9.26,13.57Z"/></svg>