<svg width="24" height="24" viewBox="0 0 24 24" fill="none" xmlns="http://www.w3.org/2000/svg">
<path fill-rule="evenodd" clip-rule="evenodd" d="M20.4852 3.5148C18.2184 1.248 15.2052 0 12 0C8.7948 0 5.7816 1.248 3.5148 3.5148C1.248 5.7816 0 8.7948 0 12C0 15.2052 1.248 18.2184 3.5148 20.4852C5.7816 22.752 8.7948 24 12 24C15.2052 24 18.2184 22.752 20.4852 20.4852C22.752 18.2184 24 15.2052 24 12C24 8.7948 22.752 5.7816 20.4852 3.5148ZM12 1.19998C15.0384 1.19998 17.7876 2.46118 19.752 4.48798L3.462 18.606C2.0448 16.7784 1.2 14.4864 1.2 12C1.2 6.04438 6.0444 1.19998 12 1.19998ZM4.248 19.512C6.2124 21.5388 8.9616 22.8 12 22.8C17.9556 22.8 22.8 17.9556 22.8 12C22.8 9.51363 21.9552 7.22163 20.538 5.39403L4.248 19.512Z" fill="currentColor"/>
</svg>
