<svg id="Layer_1" data-name="Layer 1" xmlns="http://www.w3.org/2000/svg" viewBox="0 0 24 24"><defs><style>.cls-1{fill:#c9d7dd;}.cls-2{opacity:0.85;}.cls-3{fill:#5e2ad8;}.cls-4{fill:#fff;}</style></defs><circle class="cls-1" cx="19.87" cy="18.89" r="3.94"/><g class="cls-2"><path class="cls-3" d="M20.35,5h-5V3.06a1.14,1.14,0,0,0-1.13-1.13H7.84A1.14,1.14,0,0,0,6.71,3.06V5H1.33a.9.9,0,0,0-.9.9V19.07a.9.9,0,0,0,.9.9h19a.9.9,0,0,0,.9-.9V5.88A.9.9,0,0,0,20.35,5ZM7.64,3.06a.2.2,0,0,1,.2-.2h6.43a.2.2,0,0,1,.2.2V5H7.64Z"/></g><polygon class="cls-4" points="14.91 11.33 14.91 14.56 12.67 14.56 12.67 16.79 9.44 16.79 9.44 14.56 7.21 14.56 7.21 11.33 9.44 11.33 9.44 9.09 12.67 9.09 12.67 11.33 14.91 11.33"/></svg>