<svg height="33" viewBox="0 0 32 33" width="32" xmlns="http://www.w3.org/2000/svg" xmlns:xlink="http://www.w3.org/1999/xlink" fill="currentColor"><defs><path id="a" d="m16 0c4.2745263 0 8.2930526 1.66408758 11.3145263 4.6857203s4.6854737 7.0386862 4.6854737 11.3134376c0 4.2747513-1.6623158 8.2934891-4.6854737 11.3151218s-7.04 4.6857203-11.3145263 4.6857203-8.29305263-1.6624033-11.31452632-4.6857203c-3.02147368-3.023317-4.68547368-7.0420548-4.68547368-11.3151218 0-4.2730671 1.66231579-8.29180488 4.68547368-11.3134376 3.0231579-3.02163272 7.04000002-4.6857203 11.31452632-4.6857203zm0 1.68429917c-7.89389474 0-14.31578947 6.42223275-14.31578947 14.31654293 0 7.8943103 6.42189473 14.316543 14.31578947 14.316543 7.8938947 0 14.3157895-6.4222327 14.3157895-14.316543 0-7.89431018-6.4218948-14.31654293-14.3157895-14.31654293zm0 23.58018843c.4648421 0 .8421053.377283.8421053.8421496v1.6842992c0 .4291076-.321455.7835878-.7365206.8355841l-.1055847.0065655c-.4648421 0-.8421053-.3772831-.8421053-.8421496v-1.6842992c0-.4291076.321455-.7835878.7365206-.8355841zm0-20.21159008c4.1785263 0 7.5789474 3.40060003 7.5789474 7.57934628 0 3.8940997-2.9524211 7.1127954-6.7368421 7.5321859v2.5736091c0 .4648666-.3772632.8421496-.8421053.8421496s-.8421053-.377283-.8421053-.8421496v-3.3685983c0-.4648666.3772632-.8421496.8421053-.8421496 3.2505263 0 5.8947368-2.6443497 5.8947368-5.8950471s-2.6442105-5.89504711-5.8947368-5.89504711-5.8947368 2.64434971-5.8947368 5.89504711c0 .4648666-.3772632.8421496-.84210531.8421496-.4648421 0-.84210526-.377283-.84210526-.8421496 0-4.17874625 3.40042107-7.57934628 7.57894737-7.57934628z"/><mask id="b"><use fill-rule="evenodd" xlink:href="#a"/></mask></defs><g fill-rule="evenodd" transform="translate(0 .646739)"><use fill-rule="nonzero" xlink:href="#a"/><g mask="url(#b)"><path d="m0 0h32v32h-32z"/></g></g></svg>
