<svg xmlns="http://www.w3.org/2000/svg" width="32" height="27" viewBox="0 0 32 27"><g><g><g opacity=".85"><path fill="#5e2ad8" d="M3.584 8.785a9.107 9.107 0 0 0 2.12 5.426 87.04 87.04 0 0 0 12 12.414 87.853 87.853 0 0 0 12-12.414 9.107 9.107 0 0 0 2.134-5.426 6.667 6.667 0 0 0-1.414-4.574 6.667 6.667 0 0 0-4.68-2.306 8 8 0 0 0-5.333 1.413 8.84 8.84 0 0 0-2.667 2.787 9.08 9.08 0 0 0-2.666-2.787 8 8 0 0 0-5.334-1.413A6.667 6.667 0 0 0 5.078 4.21a6.453 6.453 0 0 0-1.494 4.574z"/></g><g><path fill="#c9d7dd" d="M.195 6.973c.1 1.994.85 3.9 2.134 5.427a86.84 86.84 0 0 0 12 12.4 86.04 86.04 0 0 0 12-12.4 9.133 9.133 0 0 0 2.12-5.427A6.453 6.453 0 0 0 26.995 2.4 6.667 6.667 0 0 0 22.33.08a8.16 8.16 0 0 0-5.334 1.413A9.08 9.08 0 0 0 14.33 4.28a8.84 8.84 0 0 0-2.667-2.787A8.16 8.16 0 0 0 6.329.08a6.667 6.667 0 0 0-4.72 2.32A6.667 6.667 0 0 0 .195 6.973z"/></g></g></g></svg>