<svg xmlns="http://www.w3.org/2000/svg" width="32" height="32" viewBox="0 0 32 32"><defs><clipPath id="bkuka"><path d="M26.4 17.286h-8a.793.793 0 0 1-.8-.786c0-.434.358-.786.8-.786h8c.442 0 .8.352.8.786a.793.793 0 0 1-.8.786zM9.6 11c-1.765 0-3.2-1.41-3.2-3.143 0-1.733 1.435-3.143 3.2-3.143 1.765 0 3.2 1.41 3.2 3.143C12.8 9.59 11.365 11 9.6 11zm0-4.714c-.882 0-1.6.705-1.6 1.571S8.718 9.43 9.6 9.43c.882 0 1.6-.706 1.6-1.572 0-.866-.718-1.571-1.6-1.571zm15.2 7.857h-6.4a.793.793 0 0 1-.8-.786c0-.434.358-.786.8-.786h6.4c.442 0 .8.352.8.786a.793.793 0 0 1-.8.786zm0-3.143h-6.4a.793.793 0 0 1-.8-.786c0-.433.358-.785.8-.785h6.4c.442 0 .8.352.8.785a.793.793 0 0 1-.8.786zm1.6-3.143h-8a.793.793 0 0 1-.8-.786c0-.433.358-.785.8-.785h8c.442 0 .8.352.8.785a.793.793 0 0 1-.8.786zm-12.798 9.429H5.6a.793.793 0 0 1-.8-.786c0-.104.018-1.039.62-1.988.564-.885 1.746-1.94 4.18-1.94 2.434 0 3.614 1.055 4.18 1.94a4.035 4.035 0 0 1 .622 1.988.793.793 0 0 1-.8.786zm-7.015-1.572h6.026a2.442 2.442 0 0 0-.224-.42c-.515-.765-1.453-1.151-2.789-1.151s-2.274.388-2.789 1.152a2.385 2.385 0 0 0-.224.42zM29.6 22H2.4C1.077 22 0 20.942 0 19.643V2.357C0 1.057 1.077 0 2.4 0h27.2C30.923 0 32 1.058 32 2.357v17.286c0 1.3-1.077 2.357-2.4 2.357zM2.4 1.571c-.442 0-.8.352-.8.786v17.286c0 .434.358.786.8.786h27.2c.442 0 .8-.352.8-.786V2.357a.793.793 0 0 0-.8-.786z"/></clipPath></defs><g><g><g><path d="M26.4 17.286h-8a.793.793 0 0 1-.8-.786c0-.434.358-.786.8-.786h8c.442 0 .8.352.8.786a.793.793 0 0 1-.8.786zM9.6 11c-1.765 0-3.2-1.41-3.2-3.143 0-1.733 1.435-3.143 3.2-3.143 1.765 0 3.2 1.41 3.2 3.143C12.8 9.59 11.365 11 9.6 11zm0-4.714c-.882 0-1.6.705-1.6 1.571S8.718 9.43 9.6 9.43c.882 0 1.6-.706 1.6-1.572 0-.866-.718-1.571-1.6-1.571zm15.2 7.857h-6.4a.793.793 0 0 1-.8-.786c0-.434.358-.786.8-.786h6.4c.442 0 .8.352.8.786a.793.793 0 0 1-.8.786zm0-3.143h-6.4a.793.793 0 0 1-.8-.786c0-.433.358-.785.8-.785h6.4c.442 0 .8.352.8.785a.793.793 0 0 1-.8.786zm1.6-3.143h-8a.793.793 0 0 1-.8-.786c0-.433.358-.785.8-.785h8c.442 0 .8.352.8.785a.793.793 0 0 1-.8.786zm-12.798 9.429H5.6a.793.793 0 0 1-.8-.786c0-.104.018-1.039.62-1.988.564-.885 1.746-1.94 4.18-1.94 2.434 0 3.614 1.055 4.18 1.94a4.035 4.035 0 0 1 .622 1.988.793.793 0 0 1-.8.786zm-7.015-1.572h6.026a2.442 2.442 0 0 0-.224-.42c-.515-.765-1.453-1.151-2.789-1.151s-2.274.388-2.789 1.152a2.385 2.385 0 0 0-.224.42zM29.6 22H2.4C1.077 22 0 20.942 0 19.643V2.357C0 1.057 1.077 0 2.4 0h27.2C30.923 0 32 1.058 32 2.357v17.286c0 1.3-1.077 2.357-2.4 2.357zM2.4 1.571c-.442 0-.8.352-.8.786v17.286c0 .434.358.786.8.786h27.2c.442 0 .8-.352.8-.786V2.357a.793.793 0 0 0-.8-.786z"/></g><g clip-path="url(#bkuka)"><g><path fill="currentColor" d="M0-5h32v32H0z"/></g></g></g></g></svg>