<svg xmlns="http://www.w3.org/2000/svg" width="32" height="32" viewBox="0 0 32 32"><defs><clipPath id="xps1a"><path d="M5.65 25.15c-.446 0-.807-.375-.807-.838 0-1.386-1.087-2.515-2.422-2.515-.445 0-.807-.375-.807-.838 0-.463.362-.838.807-.838 1.335 0 2.422-1.129 2.422-2.516 0-.462.361-.838.807-.838.445 0 .807.376.807.838 0 1.387 1.086 2.516 2.421 2.516.446 0 .807.375.807.838 0 .463-.361.838-.807.838-1.335 0-2.421 1.129-2.421 2.515 0 .463-.362.839-.807.839zm-.81-4.191c.306.24.579.523.81.842.23-.319.503-.602.81-.842a4.183 4.183 0 0 1-.81-.842c-.231.319-.504.602-.81.842zm.81-12.575c-.446 0-.807-.376-.807-.839 0-1.386-1.087-2.515-2.422-2.515-.445 0-.807-.375-.807-.838 0-.463.362-.839.807-.839 1.335 0 2.422-1.128 2.422-2.515 0-.462.361-.838.807-.838.445 0 .807.376.807.838 0 1.387 1.086 2.515 2.421 2.515.446 0 .807.376.807.839 0 .463-.361.838-.807.838-1.335 0-2.421 1.129-2.421 2.515 0 .463-.362.839-.807.839zm-.81-4.192c.306.24.579.523.81.841.23-.318.503-.601.81-.841a4.183 4.183 0 0 1-.81-.842c-.231.319-.504.602-.81.842zM30 28.504c0 .674-.25 1.305-.707 1.78l-.946.982a2.364 2.364 0 0 1-3.425 0L7.834 13.516a2.552 2.552 0 0 1-.707-1.779c0-.674.25-1.305.707-1.779l.946-.983a2.364 2.364 0 0 1 3.425 0l17.088 17.75c.455.475.707 1.105.707 1.78zM8.978 11.144a.862.862 0 0 0 0 1.185l2.323 2.413 2.087-2.168-2.323-2.413a.79.79 0 0 0-1.142 0l-.946.982zm19.174 17.954a.862.862 0 0 0 0-1.186l-13.623-14.15-2.087 2.168 13.623 14.15a.787.787 0 0 0 1.14 0l.945-.982zm-25.73-12.33c-.446 0-.808-.376-.808-.84 0-.462-.361-.838-.807-.838-.445 0-.807-.375-.807-.838 0-.463.362-.838.807-.838.446 0 .807-.376.807-.839 0-.462.362-.838.807-.838.446 0 .807.376.807.838 0 .463.362.839.808.839.445 0 .807.375.807.838 0 .463-.362.838-.807.838-.446 0-.808.376-.808.839 0 .463-.361.838-.807.838zm16.141-5.031c-.445 0-.807-.376-.807-.838 0-2.31-1.81-4.192-4.035-4.192-.446 0-.807-.376-.807-.839 0-.462.361-.838.807-.838 2.224 0 4.035-1.881 4.035-4.192 0-.462.362-.838.807-.838.446 0 .807.376.807.838 0 2.31 1.812 4.192 4.036 4.192.445 0 .807.376.807.838 0 .463-.362.839-.807.839-2.224 0-4.036 1.881-4.036 4.192 0 .462-.361.838-.807.838zm-1.935-5.869a5.823 5.823 0 0 1 1.935 2.01 5.823 5.823 0 0 1 1.936-2.01 5.823 5.823 0 0 1-1.936-2.01 5.823 5.823 0 0 1-1.935 2.01z"/></clipPath></defs><g><g><g><path d="M5.65 25.15c-.446 0-.807-.375-.807-.838 0-1.386-1.087-2.515-2.422-2.515-.445 0-.807-.375-.807-.838 0-.463.362-.838.807-.838 1.335 0 2.422-1.129 2.422-2.516 0-.462.361-.838.807-.838.445 0 .807.376.807.838 0 1.387 1.086 2.516 2.421 2.516.446 0 .807.375.807.838 0 .463-.361.838-.807.838-1.335 0-2.421 1.129-2.421 2.515 0 .463-.362.839-.807.839zm-.81-4.191c.306.24.579.523.81.842.23-.319.503-.602.81-.842a4.183 4.183 0 0 1-.81-.842c-.231.319-.504.602-.81.842zm.81-12.575c-.446 0-.807-.376-.807-.839 0-1.386-1.087-2.515-2.422-2.515-.445 0-.807-.375-.807-.838 0-.463.362-.839.807-.839 1.335 0 2.422-1.128 2.422-2.515 0-.462.361-.838.807-.838.445 0 .807.376.807.838 0 1.387 1.086 2.515 2.421 2.515.446 0 .807.376.807.839 0 .463-.361.838-.807.838-1.335 0-2.421 1.129-2.421 2.515 0 .463-.362.839-.807.839zm-.81-4.192c.306.24.579.523.81.841.23-.318.503-.601.81-.841a4.183 4.183 0 0 1-.81-.842c-.231.319-.504.602-.81.842zM30 28.504c0 .674-.25 1.305-.707 1.78l-.946.982a2.364 2.364 0 0 1-3.425 0L7.834 13.516a2.552 2.552 0 0 1-.707-1.779c0-.674.25-1.305.707-1.779l.946-.983a2.364 2.364 0 0 1 3.425 0l17.088 17.75c.455.475.707 1.105.707 1.78zM8.978 11.144a.862.862 0 0 0 0 1.185l2.323 2.413 2.087-2.168-2.323-2.413a.79.79 0 0 0-1.142 0l-.946.982zm19.174 17.954a.862.862 0 0 0 0-1.186l-13.623-14.15-2.087 2.168 13.623 14.15a.787.787 0 0 0 1.14 0l.945-.982zm-25.73-12.33c-.446 0-.808-.376-.808-.84 0-.462-.361-.838-.807-.838-.445 0-.807-.375-.807-.838 0-.463.362-.838.807-.838.446 0 .807-.376.807-.839 0-.462.362-.838.807-.838.446 0 .807.376.807.838 0 .463.362.839.808.839.445 0 .807.375.807.838 0 .463-.362.838-.807.838-.446 0-.808.376-.808.839 0 .463-.361.838-.807.838zm16.141-5.031c-.445 0-.807-.376-.807-.838 0-2.31-1.81-4.192-4.035-4.192-.446 0-.807-.376-.807-.839 0-.462.361-.838.807-.838 2.224 0 4.035-1.881 4.035-4.192 0-.462.362-.838.807-.838.446 0 .807.376.807.838 0 2.31 1.812 4.192 4.036 4.192.445 0 .807.376.807.838 0 .463-.362.839-.807.839-2.224 0-4.036 1.881-4.036 4.192 0 .462-.361.838-.807.838zm-1.935-5.869a5.823 5.823 0 0 1 1.935 2.01 5.823 5.823 0 0 1 1.936-2.01 5.823 5.823 0 0 1-1.936-2.01 5.823 5.823 0 0 1-1.935 2.01z"/></g><g clip-path="url(#xps1a)"><g><path fill="currentColor" d="M-1 0h32v32H-1z"/></g></g></g></g></svg>