<svg xmlns="http://www.w3.org/2000/svg" width="32" height="32" viewBox="0 0 32 32"><defs><clipPath id="ht4oa"><path d="M27.115 27.333h-4.904v-5h4.904zm-16.315 0H5.895v-5H10.8zm3.253-21.666h4.904v5h-4.904zm17.131 10H17.316v-3.334h2.447c.45 0 .816-.373.816-.833V4.833A.825.825 0 0 0 19.763 4h-6.526a.825.825 0 0 0-.816.833V11.5c0 .46.366.833.816.833h2.447v3.334H1.816A.825.825 0 0 0 1 16.5c0 .46.365.833.816.833h5.71v3.334H5.08a.825.825 0 0 0-.816.833v6.667c0 .46.366.833.816.833h6.526c.45 0 .816-.373.816-.833V21.5a.825.825 0 0 0-.816-.833H9.158v-3.334h14.684v3.334h-2.447a.825.825 0 0 0-.816.833v6.667c0 .46.365.833.816.833h6.526c.45 0 .816-.373.816-.833V21.5a.825.825 0 0 0-.816-.833h-2.447v-3.334h5.71c.45 0 .816-.373.816-.833a.825.825 0 0 0-.816-.833z"/></clipPath></defs><g><g><g/><g><path d="M27.115 27.333h-4.904v-5h4.904zm-16.315 0H5.895v-5H10.8zm3.253-21.666h4.904v5h-4.904zm17.131 10H17.316v-3.334h2.447c.45 0 .816-.373.816-.833V4.833A.825.825 0 0 0 19.763 4h-6.526a.825.825 0 0 0-.816.833V11.5c0 .46.366.833.816.833h2.447v3.334H1.816A.825.825 0 0 0 1 16.5c0 .46.365.833.816.833h5.71v3.334H5.08a.825.825 0 0 0-.816.833v6.667c0 .46.366.833.816.833h6.526c.45 0 .816-.373.816-.833V21.5a.825.825 0 0 0-.816-.833H9.158v-3.334h14.684v3.334h-2.447a.825.825 0 0 0-.816.833v6.667c0 .46.365.833.816.833h6.526c.45 0 .816-.373.816-.833V21.5a.825.825 0 0 0-.816-.833h-2.447v-3.334h5.71c.45 0 .816-.373.816-.833a.825.825 0 0 0-.816-.833z"/></g><g clip-path="url(#ht4oa)"><g><path fill="currentColor" d="M0 0h32v32H0z"/></g></g></g></g></svg>