<svg id="Layer_1" data-name="Layer 1" xmlns="http://www.w3.org/2000/svg" viewBox="0 0 24 24"><defs><style>.cls-1{fill:#c9d7dd;}.cls-2{fill:#5e2ad8;opacity:0.85;}</style></defs><circle class="cls-1" cx="5.28" cy="5.66" r="3.94"/><path class="cls-1" d="M20.6,13.89v7a1.25,1.25,0,0,1-1.24,1.24H13.5V16.48a.57.57,0,0,0-.57-.56H10.48a.56.56,0,0,0-.56.56v5.65H4.7a1.25,1.25,0,0,1-1.24-1.24v-7L12,6.82Z"/><path class="cls-2" d="M23.89,12.63a1.38,1.38,0,0,1-2.26,1.07L12,5.75l-9.63,8A1.39,1.39,0,0,1,.61,11.56l10.53-8.7a1.37,1.37,0,0,1,1.73,0l3.89,3.21V3.66A.63.63,0,0,1,17.38,3h2.27a.63.63,0,0,1,.64.63V8.91a.12.12,0,0,1,0,.08l3.12,2.57A1.37,1.37,0,0,1,23.89,12.63Z"/></svg>