<svg id="Layer_1" data-name="Layer 1" xmlns="http://www.w3.org/2000/svg" viewBox="0 0 24 24"><defs><style>.cls-1{fill:#c9d7dd;}.cls-2{opacity:0.85;}.cls-3{fill:#5e2ad8;}</style></defs><path class="cls-1" d="M18.63,11.29v2.8A3.8,3.8,0,0,1,17.82,16c-1.17,1.44-3.17,1.42-5.94,1.4S7.32,17.37,6.23,16a3.84,3.84,0,0,1-.82-1.94V11.35l6.15,2.08.24.08h.28a1.6,1.6,0,0,0,.53-.09Z"/><g class="cls-2"><path class="cls-3" d="M23.94,7.79l-9.8,3.48-2,.72h-.06l-2.13-.72-5-1.7a6.42,6.42,0,0,0-1,2,6.58,6.58,0,0,0-.22,1.24,1.35,1.35,0,0,1,.79,1.23,1.32,1.32,0,0,1-.7,1.17L5,19.64a.58.58,0,0,1-.11.52.57.57,0,0,1-.47.24H2.32a.57.57,0,0,1-.48-.23.61.61,0,0,1-.12-.5l1-4.38a1.33,1.33,0,0,1,.06-2.47A6.86,6.86,0,0,1,3,11.33a7.65,7.65,0,0,1,.92-2.09L.06,7.93a.1.1,0,0,1,0-.18L12,3.82h0L23.94,7.63A.08.08,0,0,1,23.94,7.79Z"/></g></svg>