<?xml version="1.0" encoding="UTF-8"?>
<svg width="24px" height="24px" viewBox="0 0 24 24" version="1.1" xmlns="http://www.w3.org/2000/svg" xmlns:xlink="http://www.w3.org/1999/xlink">
    <title>Combined Shape</title>
    <defs>
        <path fill="currentColor" d="M763.179049,535 C763.875061,535 764.525098,535.298808 765.113835,535.886209 C766.043554,536.815834 766.076758,537.741629 765.941387,538.354569 C765.51484,540.280221 762.794645,542.166288 757.857428,543.961691 C757.785911,543.98723 757.71184,544 757.639046,544 L757.639046,543.998723 C757.473025,543.998723 757.309558,543.933598 757.186958,543.812287 C757.011997,543.637344 756.953251,543.375568 757.038816,543.143161 C759.004252,537.740352 761.070578,535 763.179049,535 Z M781,520 L781,520.592105 C781,523.665132 780.478908,526.404211 779.450934,528.732368 C778.602975,530.651974 777.413936,532.295658 775.914611,533.618421 C775.633932,533.865921 775.350884,534.094474 775.067836,534.305263 C774.999146,535.326053 774.594115,536.369342 773.859848,537.412632 C773.239275,538.294868 772.379472,539.180658 771.305311,540.0475 C769.500436,541.504079 767.720431,542.399342 767.64582,542.437237 C767.561735,542.479868 767.471728,542.5 767.381721,542.5 C767.195786,542.5 767.015772,542.412368 766.900895,542.253684 C766.73154,542.018026 766.757595,541.693553 766.962479,541.488684 C766.967216,541.483947 767.522653,540.919079 768.0698,539.952763 C768.519835,539.156974 769.049217,537.930132 769.142777,536.446316 C768.182309,536.070921 767.033537,534.996842 766.518366,534.481711 C766.003195,533.966579 764.929034,532.817895 764.55361,531.8575 C763.069681,531.951053 761.842745,532.480395 761.046895,532.930395 C760.081689,533.476316 759.515593,534.032895 759.509672,534.038816 C759.394795,534.1525 759.243204,534.210526 759.091613,534.210526 C758.970815,534.210526 758.848832,534.173816 758.744613,534.098026 C758.510122,533.928684 758.433142,533.613684 758.562231,533.354342 C758.600128,533.279737 759.49546,531.499868 760.95215,529.695132 C761.819059,528.621053 762.704916,527.761316 763.587221,527.140789 C764.629406,526.406579 765.673959,526.000395 766.694827,525.932895 C766.906817,525.648684 767.135387,525.365658 767.381721,525.086184 C768.704586,523.586974 770.348396,522.398026 772.268148,521.550132 C774.597668,520.522237 777.335772,520.001184 780.409034,520.001184 L780.409034,520.001184 L780.407849,520 L781,520 Z M763.180326,536.275681 C762.548168,536.275681 761.803626,536.829881 761.028434,537.878263 C760.266014,538.908768 759.499762,540.37727 758.745003,542.254398 C760.449914,541.568672 761.820228,540.87273 762.830404,540.179342 C764.193055,539.243331 764.596615,538.519296 764.69495,538.077469 C764.793286,537.635641 764.634927,537.212968 764.210935,536.789018 C763.866121,536.44424 763.52897,536.276958 763.179049,536.276958 L763.180326,536.275681 Z M773.691678,535.207632 C772.346312,535.975 771.108717,536.372895 770.325894,536.516184 C770.242993,537.8875 769.843883,539.069342 769.386743,540.0025 L769.386,540.001 L769.611015,539.844943 C771.128073,538.770376 772.903079,537.216876 773.59602,535.470931 Z M779.810962,521.193684 C774.852293,521.313289 770.871857,522.925 768.271131,525.871316 C766.097939,528.334474 765.606454,530.885263 765.606454,531.252368 C765.606454,531.254737 765.611191,531.4975 766.071884,532.151184 C766.39283,532.607105 766.84997,533.138816 767.356851,533.645658 C767.863732,534.1525 768.395483,534.609605 768.851439,534.930526 C769.505173,535.391184 769.747955,535.395921 769.750324,535.395921 C770.117457,535.395921 772.668442,534.904474 775.131788,532.731447 L775.131788,532.731447 C778.080698,530.132105 779.691347,526.151974 779.810962,521.193684 Z M765.793574,527.308947 C763.848951,527.947237 762.123424,529.978158 760.994785,531.615921 C761.928015,531.158816 763.111131,530.759737 764.483736,530.675658 C764.627037,529.891711 765.024962,528.655395 765.793574,527.308947 Z M773.125,526 C774.5719,526 775.75,527.1781 775.75,528.625 C775.75,530.0719 774.5719,531.25 773.125,531.25 C771.6781,531.25 770.5,530.0719 770.5,528.625 C770.5,527.1781 771.6781,526 773.125,526 Z M773.125,527.05 C772.25665,527.05 771.55,527.75665 771.55,528.625 C771.55,529.49335 772.25665,530.2 773.125,530.2 C773.99335,530.2 774.7,529.49335 774.7,528.625 C774.7,527.75665 773.99335,527.05 773.125,527.05 Z" id="path-1"></path>
    </defs>
    <g id="Thank-you-for-Downloading" stroke="none" stroke-width="1" fill="none" fill-rule="evenodd">
        <g id="download-copy" transform="translate(-757.000000, -520.000000)">
            <mask id="mask-2" fill="white">
                <use xlink:href="#path-1"></use>
            </mask>
            <use id="Combined-Shape" fill="#512FC9" fill-rule="nonzero" xlink:href="#path-1"></use>
        </g>
    </g>
</svg>