<svg id="Layer_1" data-name="Layer 1" xmlns="http://www.w3.org/2000/svg" viewBox="0 0 24 24"><defs><style>.cls-1{fill:#c9d7dd;}.cls-2{opacity:0.85;}.cls-3{fill:#5e2ad8;}.cls-4{fill:#fff;}</style></defs><path class="cls-1" d="M18.88,5.8A4.51,4.51,0,0,1,18.3,8,4.56,4.56,0,0,1,9.77,5.8V5.74a4.56,4.56,0,0,1,9.11.06Z"/><g class="cls-2"><path class="cls-3" d="M23.66,12.07a1.79,1.79,0,0,0-1.56-.63.49.49,0,0,0-.45.54.52.52,0,0,0,.55.45.83.83,0,0,1,.67.25A.81.81,0,0,1,23,13a.75.75,0,0,1-.22.5.9.9,0,0,1-.61.24,1.67,1.67,0,0,1-.73-.15,3.88,3.88,0,0,1-.74-.36V13a6.06,6.06,0,0,0-.53-2.2,8.26,8.26,0,0,0-1-1.69,5.9,5.9,0,0,1-10.83-3l-.52.19a11.6,11.6,0,0,0-1.17.49A4.87,4.87,0,0,0,4.57,4.64c-.41-.2-.57-.19-.68-.12-.29.18-.12.81,0,2.44.07,1.12,0,1.3,0,1.47-.21.45-.47.47-1.06,1.26-.46.58-.4.69-.65.92a1.66,1.66,0,0,1-1,.37A1.16,1.16,0,0,0,0,12.12V14a1.16,1.16,0,0,0,1,1.14,1.64,1.64,0,0,1,.84.37,2.15,2.15,0,0,1,.48.74,7.69,7.69,0,0,0,2.35,2.43,10.08,10.08,0,0,0,1.17.79c0,.73,0,1.47-.06,2.19a.71.71,0,0,0,.69.73l2.44,0a.7.7,0,0,0,.71-.69l0-1.43a5.76,5.76,0,0,0,1.32.18,5.84,5.84,0,0,0,1.65-.18V21.8a.69.69,0,0,0,.7.69l2.27,0a.69.69,0,0,0,.7-.69v-2.6A7.24,7.24,0,0,0,19.2,17a6.64,6.64,0,0,0,1.35-2.66,5.89,5.89,0,0,0,.58.24,2.8,2.8,0,0,0,1,.21h.17a1.92,1.92,0,0,0,1.24-.55A1.73,1.73,0,0,0,24,13,1.68,1.68,0,0,0,23.66,12.07ZM4.11,12a.7.7,0,1,1,.69-.69A.69.69,0,0,1,4.11,12Z"/></g><path class="cls-4" d="M13.82,8.08a3.26,3.26,0,0,1-.71-.22,2.22,2.22,0,0,1-.58-.37L12.84,7A.31.31,0,0,1,13,7a.23.23,0,0,1,.14,0,.32.32,0,0,1,.16,0l.18.1.2.12.26.1L14,6a4.11,4.11,0,0,1-.46-.15,1.52,1.52,0,0,1-.41-.24.94.94,0,0,1-.3-.38,1.25,1.25,0,0,1-.12-.58,1.38,1.38,0,0,1,.41-.94,1.6,1.6,0,0,1,.49-.32,1.74,1.74,0,0,1,.67-.12l0-.37a.35.35,0,0,1,.08-.16.26.26,0,0,1,.19-.08H15l-.07.64a1.7,1.7,0,0,1,.6.21,2.51,2.51,0,0,1,.43.31l-.25.36a.43.43,0,0,1-.11.12.25.25,0,0,1-.13,0,.27.27,0,0,1-.12,0l-.14-.06L15,4.22l-.19-.07L14.7,5.3l.31.1.3.13a.92.92,0,0,1,.27.16,1.45,1.45,0,0,1,.22.21.92.92,0,0,1,.14.28,1.07,1.07,0,0,1,.05.37,1.65,1.65,0,0,1-.1.58,1.33,1.33,0,0,1-.31.47,1.48,1.48,0,0,1-.49.34,1.89,1.89,0,0,1-.67.16l0,.41a.35.35,0,0,1-.08.16.25.25,0,0,1-.19.07h-.37ZM13.67,4.6a.41.41,0,0,0,.12.31.92.92,0,0,0,.32.2l.1-1A1.38,1.38,0,0,0,14,4.2a.62.62,0,0,0-.16.1.42.42,0,0,0-.09.14A.41.41,0,0,0,13.67,4.6ZM15,6.7a.38.38,0,0,0-.12-.3,1,1,0,0,0-.31-.18l-.1,1.07A.56.56,0,0,0,15,6.7Z"/></svg>