<svg xmlns="http://www.w3.org/2000/svg" width="32" height="32" viewBox="0 0 32 32"><g><g><g><path fill="#c9d7dd" d="M2.44 8.16c0-.862.698-1.56 1.56-1.56h22.48c.862 0 1.56.698 1.56 1.56v16.187a1.56 1.56 0 0 1-1.56 1.56H4a1.56 1.56 0 0 1-1.56-1.56z"/></g><g><path fill="#fff" d="M4.49 9.63c0-.585.475-1.06 1.06-1.06h19.427c.585 0 1.06.475 1.06 1.06v13.533a1.06 1.06 0 0 1-1.06 1.06H5.55a1.06 1.06 0 0 1-1.06-1.06z"/></g><g><path fill="#c9d7dd" d="M.72 26.45h29.04a.587.587 0 0 1 .587.587v.186a3.92 3.92 0 0 1-3.92 3.92H4a3.92 3.92 0 0 1-3.88-3.92v-.186c0-.324.263-.587.587-.587z"/></g><g opacity=".85"><path fill="#5e2ad8" d="M18.69 2.03c0-.652.528-1.18 1.18-1.18h10.827c.651 0 1.18.528 1.18 1.18v13.613a1.18 1.18 0 0 1-1.18 1.18H19.87a1.18 1.18 0 0 1-1.18-1.18z"/></g><g><path fill="#fff" d="M20.72 4.09h9.133v1.493H20.72z"/></g><g><path fill="#fff" d="M20.72 7.08h9.133v1.493H20.72z"/></g><g><path fill="#fff" d="M20.72 10.07h9.133v1.493H20.72z"/></g></g></g></svg>