<svg id="Layer_1" data-name="Layer 1"
    xmlns="http://www.w3.org/2000/svg"
    xmlns:xlink="http://www.w3.org/1999/xlink" viewBox="0 0 201 201">
    <defs>
        <linearGradient id="linear-gradient" x1="15.07" y1="100.22" x2="185.96" y2="100.22" gradientUnits="userSpaceOnUse">
            <stop offset="0" stop-color="#6e17f4"/>
            <stop offset="1" stop-color="#572dcf"/>
        </linearGradient>
        <linearGradient id="linear-gradient-2" x1="11.7" y1="185.82" x2="168.1" y2="26.94" gradientUnits="userSpaceOnUse">
            <stop offset="0" stop-color="#9e99f7"/>
            <stop offset="0.41" stop-color="#a495f7"/>
            <stop offset="0.94" stop-color="#b48bf7"/>
            <stop offset="1" stop-color="#b68af7"/>
        </linearGradient>
        <linearGradient id="linear-gradient-3" x1="125.11" y1="76.17" x2="72.27" y2="124.75" gradientUnits="userSpaceOnUse">
            <stop offset="0" stop-color="#c77ff7"/>
            <stop offset="0.66" stop-color="#8346f5"/>
            <stop offset="1" stop-color="#662df4"/>
        </linearGradient>
        <linearGradient id="linear-gradient-4" x1="135.23" y1="61.4" x2="52.71" y2="143.5" xlink:href="#linear-gradient-3"/>
    </defs>
    <path class="cls-1" d="M124.2,7.15H22A14.88,14.88,0,0,0,7.15,22V147A46.83,46.83,0,0,0,54,193.85H179A14.88,14.88,0,0,0,193.85,179V76.8a14.91,14.91,0,0,0-9.91-14,76.09,76.09,0,0,1-45.72-45.72A14.91,14.91,0,0,0,124.2,7.15Z"/>
    <path class="cls-2" d="M124.21,16.5a5.3,5.3,0,0,1,5,3.53,85.32,85.32,0,0,0,51.53,51.53,5.3,5.3,0,0,1,3.54,5V178.68a5.26,5.26,0,0,1-5.25,5.25H54a37.24,37.24,0,0,1-37.2-37.2v-125a5.26,5.26,0,0,1,5.26-5.25H124.21m0-1.73H22.05a7,7,0,0,0-7,7v125A39,39,0,0,0,54,185.66H179a7,7,0,0,0,7-7V76.51a7.05,7.05,0,0,0-4.68-6.58,83.51,83.51,0,0,1-50.49-50.49,7,7,0,0,0-6.58-4.67Z"/>
    <path class="cls-3" d="M99.8,163.89H98.35a.65.65,0,0,1-.4-.11.58.58,0,0,1-.22-.29l-.47-1.41H94.19l-.48,1.41a.55.55,0,0,1-.21.28.65.65,0,0,1-.39.12H91.64l3.13-8.06h1.91Zm-5.18-3.08h2.2l-.74-2.21c0-.14-.1-.3-.17-.49l-.19-.62q-.09.34-.18.63c-.06.19-.12.36-.18.5Z"/>
    <path class="cls-3" d="M103.53,162.42a1.57,1.57,0,0,0,.67-.13,1.29,1.29,0,0,0,.5-.35,1.59,1.59,0,0,0,.32-.57,2.54,2.54,0,0,0,.1-.76v-4.78H107v4.78a3.74,3.74,0,0,1-.24,1.36,3.21,3.21,0,0,1-.68,1.07,3.07,3.07,0,0,1-1.09.69,4.33,4.33,0,0,1-2.9,0A3,3,0,0,1,101,163a3.08,3.08,0,0,1-.69-1.07,4,4,0,0,1-.23-1.36v-4.78h1.87v4.77a2.5,2.5,0,0,0,.1.76,1.57,1.57,0,0,0,.32.57,1.22,1.22,0,0,0,.5.36A1.6,1.6,0,0,0,103.53,162.42Z"/>
    <path class="cls-3" d="M115.53,159.86a4.23,4.23,0,0,1-.3,1.61,3.77,3.77,0,0,1-.85,1.28,3.92,3.92,0,0,1-1.32.84,4.74,4.74,0,0,1-1.72.3h-3.13v-8.06h3.13a4.54,4.54,0,0,1,1.72.31,3.92,3.92,0,0,1,1.32.84,3.73,3.73,0,0,1,.85,1.27A4.27,4.27,0,0,1,115.53,159.86Zm-1.92,0a3.61,3.61,0,0,0-.15-1.08A2.25,2.25,0,0,0,113,158a1.93,1.93,0,0,0-.71-.51,2.42,2.42,0,0,0-1-.18h-1.25v5.19h1.25a2.42,2.42,0,0,0,1-.18,2,2,0,0,0,.71-.52,2.13,2.13,0,0,0,.45-.81A3.73,3.73,0,0,0,113.61,159.86Z"/>
    <path class="cls-3" d="M118.47,163.89h-1.88v-8.06h1.88Z"/>
    <path class="cls-3" d="M125.82,155.83v1.49h-2.27v6.57h-1.87v-6.57h-2.27v-1.49Z"/>
    <g id="Social-Tiles-Templates">
        <path id="Combined-Shape-as-symbol-Copy-2" class="cls-4" d="M76.75,151.56a8.23,8.23,0,0,1,3.28,0,.32.32,0,0,1,.28.27h0l.42,2.08a6.93,6.93,0,0,1,1.72,1h0l2.08-.7a.33.33,0,0,1,.38.1A8,8,0,0,1,86.55,157a.32.32,0,0,1-.11.37h0l-1.65,1.38a5.22,5.22,0,0,1,.08,1,5.15,5.15,0,0,1-.08,1h0l1.65,1.39a.31.31,0,0,1,.11.37,7.91,7.91,0,0,1-1.64,2.74.32.32,0,0,1-.38.1h0l-2.08-.7a6.35,6.35,0,0,1-1.72,1h0l-.42,2.09A.34.34,0,0,1,80,168a9,9,0,0,1-3.28,0,.34.34,0,0,1-.28-.27h0l-.42-2.09a6.07,6.07,0,0,1-1.72-1h0l-2.08.7a.31.31,0,0,1-.38-.1,7.91,7.91,0,0,1-1.64-2.74.31.31,0,0,1,.1-.37h0L72,160.72a5.15,5.15,0,0,1-.08-1,5.22,5.22,0,0,1,.08-1h0l-1.66-1.38a.31.31,0,0,1-.1-.37,8,8,0,0,1,1.64-2.75.34.34,0,0,1,.38-.1h0l2.08.7a6.59,6.59,0,0,1,1.72-1h0l.42-2.08A.32.32,0,0,1,76.75,151.56Zm1.64,3.3a4.89,4.89,0,1,0,5,4.89A4.93,4.93,0,0,0,78.39,154.86Zm3.15,2.76v1.45h-2.4v3.5h-1.5v-3.5h-2.4v-1.45Z"/>
    </g>
    <rect class="cls-5" x="58.76" y="57.5" width="79.87" height="79.87" rx="11.31"/>
    <path class="cls-7" d="M116.5,70.48H106.2V66.33a1.89,1.89,0,0,0-1.89-1.89H93.07a1.89,1.89,0,0,0-1.88,1.89v4.15H80.88a7.75,7.75,0,0,0-7.73,7.73v44.5a7.75,7.75,0,0,0,7.73,7.73H116.5a7.75,7.75,0,0,0,7.73-7.73V78.21A7.75,7.75,0,0,0,116.5,70.48Zm3,52.23a3.07,3.07,0,0,1-3,3H80.88a3.06,3.06,0,0,1-3-3V78.21a3.06,3.06,0,0,1,3-3h10.4a1.87,1.87,0,0,0,1.79,1.34h11.24a1.88,1.88,0,0,0,1.8-1.34H116.5a3.07,3.07,0,0,1,3,3Z"/>
    <polygon class="cls-8" points="90.78 96.17 87.42 99.68 96.74 108.91 113.3 92.67 109.89 89.25 96.83 102.08 90.78 96.17"/>
</svg>