<svg id="Layer_1" data-name="Layer 1"
    xmlns="http://www.w3.org/2000/svg"
    xmlns:xlink="http://www.w3.org/1999/xlink" viewBox="0 0 201 201">
    <defs>
        <style>
        .cls-1{fill:#fff;}
        </style>
        <linearGradient id="linear-gradient" x1="186.25" y1="99.8" x2="15.36" y2="99.8" gradientUnits="userSpaceOnUse">
            <stop offset="0" stop-color="#6e17f4"/>
            <stop offset="1" stop-color="#572dcf"/>
        </linearGradient>
        <linearGradient id="linear-gradient-2" x1="47.21" y1="150.97" x2="156.87" y2="38.3" gradientUnits="userSpaceOnUse">
            <stop offset="0" stop-color="#9e99f7"/>
            <stop offset="0.41" stop-color="#a495f7"/>
            <stop offset="0.94" stop-color="#b48bf7"/>
            <stop offset="1" stop-color="#b68af7"/>
        </linearGradient>
        <linearGradient id="linear-gradient-3" x1="119.64" y1="70.51" x2="77.53" y2="114.32" gradientUnits="userSpaceOnUse">
            <stop offset="0" stop-color="#c77ff7"/>
            <stop offset="0.66" stop-color="#8346f5"/>
            <stop offset="1" stop-color="#662df4"/>
        </linearGradient>
        <linearGradient id="linear-gradient-4" x1="128.96" y1="64.1" x2="65.52" y2="131.57" xlink:href="#linear-gradient-3"/>
    </defs>
    <path class="cls-1" d="M76.8,7.15H179A14.88,14.88,0,0,1,193.85,22V147A46.83,46.83,0,0,1,147,193.85H22A14.88,14.88,0,0,1,7.15,179V76.8a14.91,14.91,0,0,1,9.91-14A76.06,76.06,0,0,0,62.78,17.06,14.91,14.91,0,0,1,76.8,7.15Z"/>
    <path class="cls-2" d="M179.27,16.09a5.25,5.25,0,0,1,5.25,5.25v125a37.24,37.24,0,0,1-37.19,37.2h-125a5.26,5.26,0,0,1-5.25-5.25V76.1a5.32,5.32,0,0,1,3.54-5A85.27,85.27,0,0,0,72.16,19.61a5.29,5.29,0,0,1,5-3.52H179.27m0-1.73H77.11A7,7,0,0,0,70.53,19,83.54,83.54,0,0,1,20,69.52a7.05,7.05,0,0,0-4.68,6.58V178.27a7,7,0,0,0,7,7h125a39,39,0,0,0,38.92-38.93v-125a7,7,0,0,0-7-7Z"/>
    <path class="cls-3" d="M86.66,164.91H85.22a.7.7,0,0,1-.4-.11.61.61,0,0,1-.22-.29l-.48-1.41H81.07l-.48,1.41a.67.67,0,0,1-.21.28.65.65,0,0,1-.39.12H78.53l3.11-8h1.91Zm-5.16-3.07h2.19L83,159.63c0-.14-.1-.3-.16-.49s-.13-.39-.19-.61c-.06.22-.12.43-.19.62s-.12.35-.17.5Z"/>
    <path class="cls-3" d="M90.38,163.44a1.74,1.74,0,0,0,.67-.13,1.29,1.29,0,0,0,.5-.35,1.57,1.57,0,0,0,.31-.57,2.21,2.21,0,0,0,.11-.76v-4.76h1.87v4.76A3.74,3.74,0,0,1,93.6,163a3,3,0,0,1-.69,1.06,3.15,3.15,0,0,1-1.09.7,4.27,4.27,0,0,1-2.88,0,3.15,3.15,0,0,1-1.09-.7,2.8,2.8,0,0,1-.68-1.06,3.74,3.74,0,0,1-.24-1.36v-4.76h1.86v4.76a2.47,2.47,0,0,0,.11.75,1.56,1.56,0,0,0,.31.57,1.36,1.36,0,0,0,.5.36A1.78,1.78,0,0,0,90.38,163.44Z"/>
    <path class="cls-3" d="M100.89,156.87v1.48H98.63v6.56H96.76v-6.56H94.5v-1.48Z"/>
    <path class="cls-3" d="M108.68,164.91H106.8v-3.4h-3.26v3.4h-1.88v-8h1.88v3.36h3.26v-3.36h1.88Z"/>
    <path class="cls-3" d="M117.94,160.89a4.32,4.32,0,0,1-.3,1.62,4,4,0,0,1-.85,1.3,3.8,3.8,0,0,1-1.32.87,4.7,4.7,0,0,1-3.41,0,3.78,3.78,0,0,1-2.17-2.17,4.14,4.14,0,0,1-.31-1.62,4.19,4.19,0,0,1,.31-1.63,3.73,3.73,0,0,1,2.17-2.16,4.7,4.7,0,0,1,3.41,0,3.8,3.8,0,0,1,1.32.87,4,4,0,0,1,.85,1.3A4.32,4.32,0,0,1,117.94,160.89Zm-1.91,0a3.31,3.31,0,0,0-.16-1.08,2.44,2.44,0,0,0-.44-.81,1.91,1.91,0,0,0-.71-.5,2.4,2.4,0,0,0-1-.18,2.5,2.5,0,0,0-1,.18,1.91,1.91,0,0,0-.71.5,2.44,2.44,0,0,0-.44.81,3.73,3.73,0,0,0,0,2.16,2.29,2.29,0,0,0,.44.8,1.93,1.93,0,0,0,.71.51,2.7,2.7,0,0,0,1,.17,2.59,2.59,0,0,0,1-.17,1.93,1.93,0,0,0,.71-.51,2.29,2.29,0,0,0,.44-.8A3.31,3.31,0,0,0,116,160.89Z"/>
    <path class="cls-3" d="M120.7,161.93v3h-1.87v-8h2.62a5.3,5.3,0,0,1,1.48.18,2.73,2.73,0,0,1,1,.5,1.77,1.77,0,0,1,.56.75,2.47,2.47,0,0,1,.18.95,2.55,2.55,0,0,1-.1.74,2.31,2.31,0,0,1-.32.65,2.23,2.23,0,0,1-.5.52,2.61,2.61,0,0,1-.7.38,1.45,1.45,0,0,1,.35.24,1.32,1.32,0,0,1,.29.33l1.71,2.8h-1.69a.72.72,0,0,1-.67-.35l-1.34-2.34a.62.62,0,0,0-.2-.22.78.78,0,0,0-.34-.07Zm0-1.28h.75a1.81,1.81,0,0,0,.65-.1,1.15,1.15,0,0,0,.43-.26,1,1,0,0,0,.25-.41,1.53,1.53,0,0,0,.08-.49,1.08,1.08,0,0,0-.34-.83,1.69,1.69,0,0,0-1.07-.29h-.75Z"/>
    <path class="cls-3" d="M128.21,164.91h-1.87v-8h1.87Z"/>
    <path class="cls-3" d="M135.58,156.87v.67a.86.86,0,0,1,0,.28,1.05,1.05,0,0,1-.13.26l-3.78,5.39h3.83v1.44h-6.2v-.72a.73.73,0,0,1,0-.25.76.76,0,0,1,.13-.23l3.78-5.41h-3.64v-1.43Z"/>
    <path class="cls-3" d="M141.61,156.87v1.43h-3.3v1.88h2.53v1.38h-2.53v1.91h3.3v1.44h-5.18v-8Z"/>
    <g id="Social-Tiles-Templates">
        <g id="logos">
            <path id="Combined-Shape-as-symbol-Copy-2" class="cls-4" d="M63.9,152.61a8.13,8.13,0,0,1,3.26,0,.32.32,0,0,1,.28.26h0l.42,2.08a6.7,6.7,0,0,1,1.71,1h0l2.08-.7a.34.34,0,0,1,.38.1,8,8,0,0,1,1.63,2.74.3.3,0,0,1-.1.37h0l-1.65,1.38a5.15,5.15,0,0,1,.08,1,5.22,5.22,0,0,1-.08,1h0l1.65,1.38a.3.3,0,0,1,.1.37A8,8,0,0,1,72,166.24a.32.32,0,0,1-.38.09h0l-2.08-.7a6.15,6.15,0,0,1-1.71,1h0l-.42,2.08a.33.33,0,0,1-.28.27,8.92,8.92,0,0,1-1.63.16A8.75,8.75,0,0,1,63.9,169a.33.33,0,0,1-.29-.27h0l-.41-2.08a6.07,6.07,0,0,1-1.72-1h0l-2.08.7a.33.33,0,0,1-.38-.09,8,8,0,0,1-1.63-2.74.31.31,0,0,1,.1-.37h0l1.65-1.38a5.22,5.22,0,0,1-.07-1,5.16,5.16,0,0,1,.07-1h0l-1.65-1.38a.31.31,0,0,1-.1-.37A8,8,0,0,1,59,155.32a.35.35,0,0,1,.38-.1h0l2.08.7a6.43,6.43,0,0,1,1.72-1h0l.41-2.08A.32.32,0,0,1,63.9,152.61Zm1.63,3.29a4.88,4.88,0,1,0,5,4.88A4.92,4.92,0,0,0,65.53,155.9Zm3.14,2.75v1.45h-2.4v3.48H64.78V160.1H62.39v-1.45Z"/>
        </g>
    </g>
    <rect class="cls-5" x="59.04" y="58.08" width="79.64" height="79.64" rx="11.28"/>
    <path class="cls-6" d="M98.86,69.62a.39.39,0,0,1,.28.11,42.19,42.19,0,0,0,24.1,11.36,47.8,47.8,0,0,1-24.38,44.82A47.81,47.81,0,0,1,74.49,81.09a42.19,42.19,0,0,0,24.1-11.36.39.39,0,0,1,.27-.11m0-4.89a5.26,5.26,0,0,0-3.64,1.45A37.45,37.45,0,0,1,73.33,76.3a4.1,4.1,0,0,0-3.68,3.76,52.75,52.75,0,0,0,27.78,50.65,3,3,0,0,0,2.87,0,52.75,52.75,0,0,0,27.78-50.65,4.1,4.1,0,0,0-3.68-3.76,37.45,37.45,0,0,1-21.89-10.12,5.27,5.27,0,0,0-3.65-1.45Z"/>
    <polygon class="cls-8" points="90.04 94.87 86.53 98.52 96.25 108.15 113.53 91.21 109.97 87.65 96.35 101.03 90.04 94.87"/>
</svg>