<svg id="Layer_1" data-name="Layer 1"
    xmlns="http://www.w3.org/2000/svg"
    xmlns:xlink="http://www.w3.org/1999/xlink" viewBox="0 0 201 201">
    <defs>
        <style>
        .cls-1{fill:#fff;}
        </style>
        <linearGradient id="linear-gradient" x1="15.05" y1="100.78" x2="185.93" y2="100.78" gradientUnits="userSpaceOnUse">
            <stop offset="0" stop-color="#6e17f4"/>
            <stop offset="1" stop-color="#572dcf"/>
        </linearGradient>
        <linearGradient id="linear-gradient-2" x1="24.33" y1="198.79" x2="104.09" y2="101.42" gradientUnits="userSpaceOnUse">
            <stop offset="0" stop-color="#9e99f7"/>
            <stop offset="0.41" stop-color="#a495f7"/>
            <stop offset="0.94" stop-color="#b48bf7"/>
            <stop offset="1" stop-color="#b68af7"/>
        </linearGradient>
        <linearGradient id="linear-gradient-3" x1="123.97" y1="80.37" x2="81.3" y2="125.76" gradientUnits="userSpaceOnUse">
            <stop offset="0" stop-color="#c77ff7"/>
            <stop offset="0.66" stop-color="#8346f5"/>
            <stop offset="1" stop-color="#662df4"/>
        </linearGradient>
        <linearGradient id="linear-gradient-4" x1="136.47" y1="76.43" x2="71.28" y2="103.54" xlink:href="#linear-gradient-3"/>
        <linearGradient id="linear-gradient-5" x1="138.71" y1="81.83" x2="73.52" y2="108.94" xlink:href="#linear-gradient-3"/>
        <linearGradient id="linear-gradient-6" x1="140.96" y1="87.23" x2="75.77" y2="114.34" xlink:href="#linear-gradient-3"/>
    </defs>
    <path class="cls-1" d="M76.8,193.85H179A14.88,14.88,0,0,0,193.85,179V54A46.83,46.83,0,0,0,147,7.15H22A14.88,14.88,0,0,0,7.15,22V124.2a14.91,14.91,0,0,0,9.91,14,76.06,76.06,0,0,1,45.72,45.72A14.91,14.91,0,0,0,76.8,193.85Z"/>
    <path class="cls-2" d="M147,17.07a37.24,37.24,0,0,1,37.19,37.2v125A5.26,5.26,0,0,1,179,184.5H76.79a5.3,5.3,0,0,1-5-3.53,85.32,85.32,0,0,0-51.53-51.53,5.3,5.3,0,0,1-3.54-5V22.32A5.26,5.26,0,0,1,22,17.07H147m0-1.73H22a7,7,0,0,0-7,7V124.49a7,7,0,0,0,4.68,6.58,83.56,83.56,0,0,1,50.49,50.49,7,7,0,0,0,6.57,4.67H179a7,7,0,0,0,7-7v-125A39,39,0,0,0,147,15.34Z"/>
    <path class="cls-3" d="M74,47.48H72.53a.63.63,0,0,1-.4-.12.53.53,0,0,1-.22-.29l-.48-1.41H68.36l-.48,1.41a.64.64,0,0,1-.22.28.65.65,0,0,1-.39.13H65.8l3.13-8.1h1.93Zm-5.2-3.1H71l-.75-2.21c0-.15-.1-.31-.16-.5s-.13-.4-.2-.62q-.09.33-.18.63c-.06.19-.12.36-.18.5Z"/>
    <path class="cls-3" d="M77.73,46a1.83,1.83,0,0,0,.68-.12,1.39,1.39,0,0,0,.5-.36,1.57,1.57,0,0,0,.31-.57,2.25,2.25,0,0,0,.11-.76v-4.8h1.88v4.8A3.74,3.74,0,0,1,81,45.54a3,3,0,0,1-.69,1.07,3,3,0,0,1-1.1.7,4.33,4.33,0,0,1-2.9,0,3,3,0,0,1-1.1-.7,3,3,0,0,1-.69-1.07,3.74,3.74,0,0,1-.23-1.36v-4.8h1.87v4.79a2.49,2.49,0,0,0,.11.76,1.69,1.69,0,0,0,.31.58,1.57,1.57,0,0,0,.51.36A1.78,1.78,0,0,0,77.73,46Z"/>
    <path class="cls-3" d="M88.31,39.38v1.49H86v6.61H84.15V40.87H81.88V39.38Z"/>
    <path class="cls-3" d="M96.15,47.48H94.26V44.05H91v3.43H89.09v-8.1H91v3.38h3.28V39.38h1.89Z"/>
    <path class="cls-3" d="M102.7,39.38v1.45H99.37v1.88h2.55V44.1H99.37V46h3.33v1.45H97.49v-8.1Z"/>
    <path class="cls-3" d="M105,39.39l.15,0a1,1,0,0,1,.13.09l.13.15,3.85,4.86a3.52,3.52,0,0,1,0-.45c0-.15,0-.29,0-.41V39.38h1.66v8.1h-1a1,1,0,0,1-.36-.07.75.75,0,0,1-.29-.25l-3.82-4.82,0,.42c0,.13,0,.26,0,.38v4.34h-1.66v-8.1H105Z"/>
    <path class="cls-3" d="M118,39.38v1.49h-2.28v6.61h-1.88V40.87h-2.27V39.38Z"/>
    <path class="cls-3" d="M120.87,47.48H119v-8.1h1.89Z"/>
    <path class="cls-3" d="M127.81,45.38a.35.35,0,0,1,.14,0,.28.28,0,0,1,.12.08l.75.79a3.22,3.22,0,0,1-1.23,1,4.22,4.22,0,0,1-1.74.32,4.15,4.15,0,0,1-1.65-.31,3.56,3.56,0,0,1-1.24-.87,3.66,3.66,0,0,1-.78-1.31,4.82,4.82,0,0,1-.27-1.64,4.32,4.32,0,0,1,.31-1.67,3.82,3.82,0,0,1,2.2-2.16,4.54,4.54,0,0,1,1.72-.31,4.74,4.74,0,0,1,.86.08,4.11,4.11,0,0,1,.75.23,3.22,3.22,0,0,1,.64.33,3.35,3.35,0,0,1,.53.44l-.64.85a.62.62,0,0,1-.14.14.33.33,0,0,1-.23.07.41.41,0,0,1-.19,0l-.19-.11-.22-.14a2.24,2.24,0,0,0-.67-.24,2.51,2.51,0,0,0-.51,0,2.34,2.34,0,0,0-.93.18,2,2,0,0,0-.73.52,2.4,2.4,0,0,0-.47.81,3.06,3.06,0,0,0-.17,1.08,3.14,3.14,0,0,0,.17,1.1,2.43,2.43,0,0,0,.46.82,2,2,0,0,0,.68.5A2.12,2.12,0,0,0,126,46l.47,0a2.23,2.23,0,0,0,.39-.09,1.58,1.58,0,0,0,.35-.16,2.09,2.09,0,0,0,.33-.24.42.42,0,0,1,.14-.09A.32.32,0,0,1,127.81,45.38Z"/>
    <path class="cls-3" d="M137.2,47.48h-1.45a.63.63,0,0,1-.4-.12.53.53,0,0,1-.22-.29l-.48-1.41h-3.08l-.48,1.41a.61.61,0,0,1-.21.28.66.66,0,0,1-.4.13H129l3.13-8.1h1.92ZM132,44.38h2.21l-.75-2.21c-.05-.15-.1-.31-.17-.5s-.13-.4-.19-.62q-.09.33-.18.63l-.18.5Z"/>
    <path class="cls-3" d="M142.85,39.38v1.49h-2.28v6.61h-1.88V40.87h-2.27V39.38Z"/>
    <path class="cls-3" d="M148.84,39.38v1.45h-3.32v1.88h2.54V44.1h-2.54V46h3.32v1.45h-5.21v-8.1Z"/>
    <g id="Social-Tiles-Templates">
        <g id="logos">
            <path id="Combined-Shape-as-symbol-Copy-2" class="cls-4" d="M50.9,35.09a8.67,8.67,0,0,1,3.29,0,.35.35,0,0,1,.29.27h0l.41,2.09a6.56,6.56,0,0,1,1.73,1h0l2.09-.71a.35.35,0,0,1,.38.1,8.09,8.09,0,0,1,1.64,2.76.3.3,0,0,1-.1.37h0L59,42.34a5.26,5.26,0,0,1,.08,1,5.15,5.15,0,0,1-.08,1h0l1.66,1.39a.3.3,0,0,1,.1.37,7.91,7.91,0,0,1-1.64,2.76.32.32,0,0,1-.38.1h0l-2.09-.71a6.56,6.56,0,0,1-1.73,1h0l-.41,2.1a.37.37,0,0,1-.29.27,9.1,9.1,0,0,1-3.29,0,.37.37,0,0,1-.29-.27h0l-.41-2.1a6.26,6.26,0,0,1-1.73-1h0l-2.09.71a.31.31,0,0,1-.38-.1,7.76,7.76,0,0,1-1.64-2.76.3.3,0,0,1,.1-.37h0l1.66-1.39a5.15,5.15,0,0,1-.08-1,5.26,5.26,0,0,1,.08-1h0L44.46,41a.3.3,0,0,1-.1-.37A7.94,7.94,0,0,1,46,37.82a.34.34,0,0,1,.38-.1h0l2.09.71a6.26,6.26,0,0,1,1.73-1h0l.41-2.09A.35.35,0,0,1,50.9,35.09Zm1.64,3.32a4.91,4.91,0,1,0,5,4.9A4.95,4.95,0,0,0,52.54,38.41Zm3.16,2.76v1.46H53.3v3.51H51.79V42.63H49.38V41.17Z"/>
        </g>
    </g>
    <rect class="cls-5" x="62.3" y="63.41" width="80.18" height="80.18" rx="11.36"/>
    <path class="cls-6" d="M130,104.34V88.2a4.9,4.9,0,0,0-4.89-4.91H71.41a4.9,4.9,0,0,0-4.89,4.91v21.54a4.89,4.89,0,0,0,4.89,4.9h43.06a8.89,8.89,0,0,0-.06,1A11.93,11.93,0,1,0,130,104.34Zm-14,5.37H71.45V88.22h53.66v15.59A11.88,11.88,0,0,0,116,109.71Zm8.26,11.75-5.3-5.25,1.91-2,3.44,3.35,7.43-7.28,1.93,1.93Z"/>
    <path class="cls-8" d="M82.53,103.3a.87.87,0,0,1-.88-.87v-1.3a4.36,4.36,0,0,1,0-.51,2.25,2.25,0,0,1,.11-.48,2.17,2.17,0,0,1-.36.32l-.43.28-1.09.63a.87.87,0,0,1-1.19-.3h0A.87.87,0,0,1,79,99.86l1.06-.62q.24-.13.48-.24a2.13,2.13,0,0,1,.49-.15,2.16,2.16,0,0,1-.49-.16q-.24-.1-.48-.24L79,97.8a.87.87,0,0,1-.3-1.2h0a.87.87,0,0,1,1.2-.3L81,97l.43.28a2.35,2.35,0,0,1,.37.33,3,3,0,0,1-.15-1V95.26a.87.87,0,0,1,.88-.87h.08a.87.87,0,0,1,.88.87v1.3a4.41,4.41,0,0,1,0,.52,4.15,4.15,0,0,1-.11.48,2.35,2.35,0,0,1,.37-.33c.13-.09.27-.19.42-.28l1.09-.64a.87.87,0,0,1,1.19.3h0a.88.88,0,0,1-.31,1.21l-1.07.62-.49.24a4.58,4.58,0,0,1-.49.15,2.3,2.3,0,0,1,.49.15l.49.25,1.08.64a.89.89,0,0,1,.3,1.21h0a.89.89,0,0,1-1.2.3l-1.09-.65-.44-.29a2.8,2.8,0,0,1-.38-.32,2.78,2.78,0,0,1,.17,1v1.33a.87.87,0,0,1-.88.87Z"/>
    <path class="cls-9" d="M97.76,103.3a.87.87,0,0,1-.87-.87v-1.3a4.36,4.36,0,0,1,0-.51,1.78,1.78,0,0,1,.11-.48,2.24,2.24,0,0,1-.37.32l-.43.28-1.09.63a.88.88,0,0,1-1.19-.3h0a.88.88,0,0,1,.31-1.21l1.07-.62q.24-.13.48-.24a2,2,0,0,1,.49-.15,2,2,0,0,1-.49-.16q-.24-.1-.48-.24l-1.08-.65a.87.87,0,0,1-.31-1.2h0a.87.87,0,0,1,1.2-.3l1.08.65.44.28a2.35,2.35,0,0,1,.37.33,3,3,0,0,1-.15-1V95.26a.87.87,0,0,1,.87-.87h.09a.87.87,0,0,1,.87.87v1.3a4.41,4.41,0,0,1,0,.52,2.77,2.77,0,0,1-.11.48,2.35,2.35,0,0,1,.37-.33l.42-.28,1.09-.64a.89.89,0,0,1,1.2.3h0a.88.88,0,0,1-.31,1.21l-1.07.62-.49.24a4,4,0,0,1-.49.15,2.38,2.38,0,0,1,.5.15l.48.25,1.08.64a.88.88,0,0,1,.3,1.21h0a.89.89,0,0,1-1.2.3l-1.09-.65c-.15-.1-.3-.19-.43-.29a2.3,2.3,0,0,1-.38-.32,2.78,2.78,0,0,1,.16,1v1.33a.87.87,0,0,1-.87.87Z"/>
    <path class="cls-10" d="M113,103.3a.87.87,0,0,1-.88-.87v-1.3a4.36,4.36,0,0,1,0-.51,2.25,2.25,0,0,1,.11-.48,1.89,1.89,0,0,1-.37.32l-.42.28-1.1.63a.86.86,0,0,1-1.18-.3h0a.87.87,0,0,1,.3-1.21l1.07-.62q.24-.13.48-.24a2.13,2.13,0,0,1,.49-.15,2.16,2.16,0,0,1-.49-.16q-.24-.1-.48-.24l-1.08-.65a.87.87,0,0,1-.3-1.2h0a.87.87,0,0,1,1.2-.3l1.09.65.43.28a2.35,2.35,0,0,1,.37.33,3,3,0,0,1-.15-1V95.26a.87.87,0,0,1,.88-.87h.08a.88.88,0,0,1,.88.87v1.3a4.41,4.41,0,0,1,0,.52,4.15,4.15,0,0,1-.11.48,2.82,2.82,0,0,1,.36-.33l.43-.28,1.09-.64a.88.88,0,0,1,1.19.3h0a.87.87,0,0,1-.31,1.21l-1.06.62-.5.24a4.42,4.42,0,0,1-.48.15A2.3,2.3,0,0,1,115,99l.49.25,1.07.64a.87.87,0,0,1,.3,1.21h0a.87.87,0,0,1-1.19.3l-1.09-.65c-.16-.1-.31-.19-.44-.29a2.8,2.8,0,0,1-.38-.32,2.78,2.78,0,0,1,.17,1v1.33a.88.88,0,0,1-.88.87Z"/>
</svg>