<svg id="Layer_1" data-name="Layer 1"
    xmlns="http://www.w3.org/2000/svg"
    xmlns:xlink="http://www.w3.org/1999/xlink" viewBox="0 0 201 201">
    <defs>
        <linearGradient id="linear-gradient" x1="15.07" y1="100.78" x2="185.96" y2="100.78" gradientUnits="userSpaceOnUse">
            <stop offset="0" stop-color="#6e17f4"/>
            <stop offset="1" stop-color="#572dcf"/>
        </linearGradient>
        <linearGradient id="linear-gradient-2" x1="203.66" y1="-33.12" x2="93.48" y2="110.49" gradientUnits="userSpaceOnUse">
            <stop offset="0" stop-color="#9e99f7"/>
            <stop offset="0.41" stop-color="#a495f7"/>
            <stop offset="0.94" stop-color="#b48bf7"/>
            <stop offset="1" stop-color="#b68af7"/>
        </linearGradient>
        <linearGradient id="linear-gradient-3" x1="70.12" y1="89.6" x2="105.67" y2="89.6" gradientUnits="userSpaceOnUse">
            <stop offset="0" stop-color="#c77ff7"/>
            <stop offset="0.66" stop-color="#8346f5"/>
            <stop offset="1" stop-color="#662df4"/>
        </linearGradient>
        <linearGradient id="linear-gradient-4" x1="66.62" y1="121.19" x2="118.7" y2="121.19" xlink:href="#linear-gradient-3"/>
        <linearGradient id="linear-gradient-5" x1="107.19" y1="101.96" x2="130.92" y2="101.96" xlink:href="#linear-gradient-3"/>
    </defs>
    <path class="cls-1" d="M124.2,193.85H22A14.88,14.88,0,0,1,7.15,179V54A46.83,46.83,0,0,1,54,7.15H179A14.88,14.88,0,0,1,193.85,22V124.2a14.91,14.91,0,0,1-9.91,14,76.09,76.09,0,0,0-45.72,45.72A14.91,14.91,0,0,1,124.2,193.85Z"/>
    <path class="cls-2" d="M179,17.07a5.26,5.26,0,0,1,5.25,5.25V124.49a5.3,5.3,0,0,1-3.54,5A85.32,85.32,0,0,0,129.16,181a5.3,5.3,0,0,1-5,3.53H22.05a5.26,5.26,0,0,1-5.26-5.25v-125A37.24,37.24,0,0,1,54,17.07H179m0-1.73H54A39,39,0,0,0,15.07,54.27v125a7,7,0,0,0,7,7H124.21a7,7,0,0,0,6.58-4.67,83.51,83.51,0,0,1,50.49-50.49,7.05,7.05,0,0,0,4.68-6.58V22.32a7,7,0,0,0-7-7Z"/>
    <path class="cls-3" d="M86.07,45.2l.13,0a.38.38,0,0,1,.13.09l.75.79a3.12,3.12,0,0,1-1.23,1,4.3,4.3,0,0,1-1.75.33,4.16,4.16,0,0,1-1.66-.31,3.66,3.66,0,0,1-2-2.19,4.7,4.7,0,0,1-.28-1.66,4.36,4.36,0,0,1,.32-1.67,3.71,3.71,0,0,1,.87-1.31,3.81,3.81,0,0,1,1.34-.86,4.59,4.59,0,0,1,1.73-.31,4.74,4.74,0,0,1,.86.08,4.47,4.47,0,0,1,.76.22,3.87,3.87,0,0,1,.64.34,3.35,3.35,0,0,1,.53.44l-.64.86-.14.14a.43.43,0,0,1-.24.06.43.43,0,0,1-.19,0l-.19-.11-.22-.14a1.46,1.46,0,0,0-.28-.14,2.66,2.66,0,0,0-.39-.11,2.57,2.57,0,0,0-.51,0,2.35,2.35,0,0,0-.94.18,2,2,0,0,0-.73.52,2.3,2.3,0,0,0-.47.81,3.1,3.1,0,0,0-.17,1.08,3.16,3.16,0,0,0,.17,1.11,2.25,2.25,0,0,0,.46.82,2,2,0,0,0,.68.51,2.14,2.14,0,0,0,.84.17,3.38,3.38,0,0,0,.47,0,1.59,1.59,0,0,0,.39-.08,2.21,2.21,0,0,0,.35-.16,3.43,3.43,0,0,0,.33-.24.56.56,0,0,1,.15-.1A.41.41,0,0,1,86.07,45.2Z"/>
    <path class="cls-3" d="M96,43.23a4.39,4.39,0,0,1-.31,1.64,3.9,3.9,0,0,1-2.19,2.2,4.56,4.56,0,0,1-1.73.32A4.63,4.63,0,0,1,90,47.07a3.9,3.9,0,0,1-2.19-2.2,4.49,4.49,0,0,1,0-3.28A3.85,3.85,0,0,1,90,39.4a4.63,4.63,0,0,1,1.73-.32,4.56,4.56,0,0,1,1.73.32,4,4,0,0,1,1.33.88,3.82,3.82,0,0,1,.86,1.32A4.38,4.38,0,0,1,96,43.23Zm-1.94,0a3.61,3.61,0,0,0-.15-1.08,2.39,2.39,0,0,0-.45-.82,2.08,2.08,0,0,0-.72-.52,2.63,2.63,0,0,0-1-.17,2.66,2.66,0,0,0-1,.17,2.08,2.08,0,0,0-.72.52,2.23,2.23,0,0,0-.45.82,3.76,3.76,0,0,0,0,2.17,2.23,2.23,0,0,0,.45.82,2.05,2.05,0,0,0,.72.51,2.47,2.47,0,0,0,1,.18,2.43,2.43,0,0,0,1-.18,2.05,2.05,0,0,0,.72-.51,2.39,2.39,0,0,0,.45-.82A3.64,3.64,0,0,0,94,43.23Z"/>
    <path class="cls-3" d="M98.07,39.18l.15,0a.51.51,0,0,1,.13.09l.14.15,3.86,4.88c0-.15,0-.31,0-.45s0-.29,0-.42v-4.3H104V47.3h-1a.82.82,0,0,1-.37-.07.7.7,0,0,1-.29-.24l-3.84-4.85c0,.14,0,.28,0,.42s0,.26,0,.38V47.3H96.87V39.17h1.2Z"/>
    <path class="cls-3" d="M106.51,39.18l.15,0a.38.38,0,0,1,.13.09l.14.15,3.86,4.88c0-.15,0-.31,0-.45s0-.29,0-.42v-4.3h1.66V47.3h-1a.82.82,0,0,1-.37-.07.7.7,0,0,1-.29-.24l-3.84-4.85c0,.14,0,.28,0,.42s0,.26,0,.38V47.3h-1.66V39.17h1.2Z"/>
    <path class="cls-3" d="M119,39.17v1.45h-3.34v1.9h2.55v1.39h-2.55v1.94H119V47.3h-5.24V39.17Z"/>
    <path class="cls-3" d="M125.52,45.2l.14,0,.13.09.74.79a3,3,0,0,1-1.23,1,4.24,4.24,0,0,1-1.75.33,4.16,4.16,0,0,1-1.66-.31,3.72,3.72,0,0,1-1.24-.88,3.92,3.92,0,0,1-.79-1.31,4.94,4.94,0,0,1-.27-1.66,4.35,4.35,0,0,1,.31-1.67,3.85,3.85,0,0,1,.87-1.31,4,4,0,0,1,1.35-.86,4.54,4.54,0,0,1,1.72-.31,4.85,4.85,0,0,1,.87.08,4.36,4.36,0,0,1,.75.22,4,4,0,0,1,.65.34,3.26,3.26,0,0,1,.52.44L126,41a.67.67,0,0,1-.15.14.37.37,0,0,1-.23.06.41.41,0,0,1-.19,0l-.19-.11-.22-.14a1.57,1.57,0,0,0-.29-.14,2.9,2.9,0,0,0-.38-.11,2.68,2.68,0,0,0-.52,0,2.42,2.42,0,0,0-.94.18,2,2,0,0,0-.72.52,2.18,2.18,0,0,0-.48.81,3.35,3.35,0,0,0-.17,1.08,3.41,3.41,0,0,0,.17,1.11,2.4,2.4,0,0,0,.46.82,2,2,0,0,0,1.53.68,3.23,3.23,0,0,0,.46,0,1.57,1.57,0,0,0,.4-.08,2.11,2.11,0,0,0,.34-.16l.34-.24a.71.71,0,0,1,.14-.1A.45.45,0,0,1,125.52,45.2Z"/>
    <path class="cls-3" d="M133.3,39.17v1.49H131V47.3h-1.89V40.66h-2.29V39.17Z"/>
    <g id="Social-Tiles-Templates">
        <g id="logos">
            <path id="Combined-Shape-as-symbol-Copy-2" class="cls-4" d="M65.4,34.85a8.72,8.72,0,0,1,3.3,0,.34.34,0,0,1,.29.28h0l.42,2.1a6.62,6.62,0,0,1,1.74,1h0l2.1-.71a.35.35,0,0,1,.38.1,8.07,8.07,0,0,1,1.65,2.77.29.29,0,0,1-.1.37h0l-1.67,1.4a5.33,5.33,0,0,1,.08,1,5.26,5.26,0,0,1-.08,1h0l1.67,1.4a.3.3,0,0,1,.1.37,8,8,0,0,1-1.65,2.77.32.32,0,0,1-.38.1h0L71.15,48a6.1,6.1,0,0,1-1.74,1h0L69,51.12a.34.34,0,0,1-.29.27,8.59,8.59,0,0,1-3.3,0,.37.37,0,0,1-.29-.27h0L64.7,49A5.84,5.84,0,0,1,63,48h0l-2.1.71a.31.31,0,0,1-.38-.1,7.85,7.85,0,0,1-1.66-2.77.31.31,0,0,1,.11-.37h0l1.66-1.4a5.26,5.26,0,0,1-.07-1,5.32,5.32,0,0,1,.07-1h0l-1.66-1.4a.3.3,0,0,1-.11-.37,7.94,7.94,0,0,1,1.66-2.77.34.34,0,0,1,.38-.1h0l2.1.71a6.31,6.31,0,0,1,1.74-1h0l.41-2.1A.36.36,0,0,1,65.4,34.85Zm1.65,3.34a4.93,4.93,0,1,0,5,4.93A5,5,0,0,0,67.05,38.19ZM70.23,41v1.47H67.81V46H66.3V42.44H63.88V41Z"/>
        </g>
    </g>
    <rect class="cls-5" x="58.48" y="63.32" width="80.57" height="80.57" rx="11.41"/>
    <path class="cls-7" d="M105.67,80.58a7.66,7.66,0,0,1-14.28,3.86c-.44.12-.87.27-1.3.43s-.85.32-1.26.51a23,23,0,0,0-13.74,20.07,7.2,7.2,0,0,0-.81,0,10.29,10.29,0,0,0-4.16.87A27.92,27.92,0,0,1,87.65,80.49c.45-.18.91-.35,1.37-.5s.93-.31,1.4-.45a7.66,7.66,0,0,1,15.18,0A8.93,8.93,0,0,1,105.67,80.58Z"/>
    <path class="cls-8" d="M118.7,125.07a27.88,27.88,0,0,1-41,.47c-.34-.36-.68-.73-1-1.11s-.63-.76-.93-1.15a7.81,7.81,0,0,1-1.54.15,7.66,7.66,0,0,1-4-14.18,7.57,7.57,0,0,1,4-1.14,8.46,8.46,0,0,1,.87,0,7.66,7.66,0,0,1,5,12.56c.28.35.57.7.88,1s.61.65.94,1a22.89,22.89,0,0,0,33-.86A10.4,10.4,0,0,0,118.7,125.07Z"/>
    <path class="cls-9" d="M130.92,115.78a7.66,7.66,0,1,1-10.08-7.27c0-.47.07-1,.08-1.43,0-.24,0-.46,0-.7s0-.47,0-.7a23,23,0,0,0-13.73-20.31,10.17,10.17,0,0,0,1.18-4.79v-.09a27.89,27.89,0,0,1,17.52,25.25v1.41c0,.47,0,.93-.08,1.4A7.65,7.65,0,0,1,130.92,115.78Z"/>
</svg>