<svg id="Layer_1" data-name="Layer 1" xmlns="http://www.w3.org/2000/svg" xmlns:xlink="http://www.w3.org/1999/xlink" viewBox="0 0 92 92"><defs><style>.cls-1{fill:url(#linear-gradient);}.cls-2{fill:url(#linear-gradient-2);}.cls-3,.cls-4{fill:none;stroke:#572dcf;stroke-miterlimit:10;stroke-width:0.48px;}.cls-3{opacity:0.5;}.cls-4{opacity:0.2;}</style><linearGradient id="linear-gradient" x1="18.95" y1="69.41" x2="83.59" y2="13.48" gradientUnits="userSpaceOnUse"><stop offset="0" stop-color="#6e17f4"/><stop offset="1" stop-color="#572dcf"/></linearGradient><linearGradient id="linear-gradient-2" x1="30.04" y1="77.48" x2="51.13" y2="30.71" gradientUnits="userSpaceOnUse"><stop offset="0.16" stop-color="#75fafc"/><stop offset="0.27" stop-color="#91f5e1"/><stop offset="0.53" stop-color="#d0eba5"/><stop offset="0.54" stop-color="#d1e8a5"/><stop offset="0.77" stop-color="#e59b9a"/><stop offset="0.88" stop-color="#ed7c96"/></linearGradient></defs><path class="cls-1" d="M77.37,46a31,31,0,0,1-1.55,9.74A31.4,31.4,0,0,1,55.74,75.82a31.38,31.38,0,0,1-19.48,0A31.4,31.4,0,0,1,16.18,55.74a31.38,31.38,0,0,1,0-19.48A31.4,31.4,0,0,1,36.26,16.18a31.38,31.38,0,0,1,19.48,0A31.4,31.4,0,0,1,75.82,36.26,31,31,0,0,1,77.37,46Z"/><path class="cls-2" d="M43.36,67.41a.62.62,0,0,1-.45-.2.6.6,0,0,1,0-.85c4.81-4.45,7.69-10.15,7.9-15.62.08-2.17-.55-6.46-3.57-7.17a3.56,3.56,0,0,0-3,.78c-1.72,1.39-1.81,3.36-1.91,5.44a23,23,0,0,1-.21,2.48,12.52,12.52,0,0,1-4.87,8.35.61.61,0,0,1-.71-1A11.16,11.16,0,0,0,41,52.07a18,18,0,0,0,.2-2.33c.11-2.26.22-4.6,2.35-6.33a4.71,4.71,0,0,1,4-1c3.78.88,4.61,5.69,4.51,8.39-.23,5.79-3.25,11.79-8.29,16.45A.62.62,0,0,1,43.36,67.41Zm4.2-.19a.63.63,0,0,1-.42-.17.61.61,0,0,1,0-.86,23.4,23.4,0,0,0,4.67-6.85A22.55,22.55,0,0,0,53.7,52c.18-2.34.37-5-1.1-7.59A6.89,6.89,0,0,0,44,41a7.26,7.26,0,0,0-3.95,3.7,11.15,11.15,0,0,0-.54,4.5c0,.42,0,.79.05,1.12A5.81,5.81,0,0,1,39.35,53a8.92,8.92,0,0,1-1.47,2.4,26.19,26.19,0,0,1-2.5,2.88.6.6,0,0,1-.86,0,.61.61,0,0,1,0-.85,25.82,25.82,0,0,0,2.39-2.76,8,8,0,0,0,1.3-2.07,5,5,0,0,0,.19-2.23c0-.34,0-.73-.06-1.18a12.38,12.38,0,0,1,.63-5A8.09,8.09,0,0,1,50.3,40.33a8.5,8.5,0,0,1,3.35,3.51c1.66,2.91,1.45,5.76,1.26,8.27a23.87,23.87,0,0,1-2,7.73A24.74,24.74,0,0,1,48,67,.58.58,0,0,1,47.56,67.22Zm-7.09-1.44a.58.58,0,0,1-.47-.24.61.61,0,0,1,.1-.85,21.43,21.43,0,0,0,2.19-2,20.13,20.13,0,0,0,4.86-8,16.88,16.88,0,0,0,.78-4.61v-.27C48,48.33,48,47,47,46.65a1.4,1.4,0,0,0-1.3.15.91.91,0,0,0-.38.87c0,.44.11.88.19,1.35a15,15,0,0,1,.25,2.25,10.16,10.16,0,0,1-1.16,4.55,23.8,23.8,0,0,1-3.4,5,22.8,22.8,0,0,1-2.75,2.63.6.6,0,0,1-.76-.94,20.41,20.41,0,0,0,2.6-2.49,22.76,22.76,0,0,0,3.23-4.79,9,9,0,0,0,1-4,14.92,14.92,0,0,0-.23-2.06c-.08-.47-.16-.95-.21-1.43a2.15,2.15,0,0,1,.87-2,2.61,2.61,0,0,1,2.48-.3c1.81.75,1.74,2.92,1.7,4.35v.27a18,18,0,0,1-.83,4.94,21.6,21.6,0,0,1-5.15,8.48,24,24,0,0,1-2.31,2.08A.7.7,0,0,1,40.47,65.78Zm14.49-5a.54.54,0,0,1-.22,0A.6.6,0,0,1,54.4,60l1.22-3.08a.61.61,0,0,1,.79-.34.59.59,0,0,1,.33.78l-1.22,3.09A.59.59,0,0,1,55,60.83ZM33,56.15a.61.61,0,0,1-.51-.28.6.6,0,0,1,.18-.83,6.07,6.07,0,0,0,1.41-1.26,6.14,6.14,0,0,0,1.3-3.2.6.6,0,1,1,1.2.14A7.42,7.42,0,0,1,35,54.54a7.15,7.15,0,0,1-1.69,1.51A.56.56,0,0,1,33,56.15Zm23.9-1.33h-.11a.6.6,0,0,1-.49-.7,22.88,22.88,0,0,0,.1-7,12.15,12.15,0,0,0-1.31-4.3,9.82,9.82,0,0,0-2-2.46.6.6,0,0,1,0-.85.59.59,0,0,1,.85-.05,11.17,11.17,0,0,1,2.25,2.75,13.67,13.67,0,0,1,1.46,4.74,24.1,24.1,0,0,1-.11,7.43A.6.6,0,0,1,56.88,54.82ZM31.65,53.29a.61.61,0,0,1-.33-1.11,2.73,2.73,0,0,0,1-1.06,2.87,2.87,0,0,0,.15-1.57l0-.36a20.48,20.48,0,0,1,.36-4.55,13.28,13.28,0,0,1,1-2.84,13.49,13.49,0,0,1,2.41-3.58.6.6,0,1,1,.88.83,12.19,12.19,0,0,0-2.19,3.26A11.71,11.71,0,0,0,34,44.88a18.67,18.67,0,0,0-.34,4.25l0,.34a4,4,0,0,1-.27,2.16A3.81,3.81,0,0,1,32,53.19.58.58,0,0,1,31.65,53.29ZM60,50.72h-.1a.6.6,0,0,1-.49-.7,13.3,13.3,0,0,0-1.78-9.2A13.11,13.11,0,0,0,46,34.76a.61.61,0,0,1-.62-.58.59.59,0,0,1,.58-.63,14.4,14.4,0,0,1,12.66,6.61,14.59,14.59,0,0,1,2,10.06A.61.61,0,0,1,60,50.72Zm-24-2.6h0a.61.61,0,0,1-.59-.62,10.81,10.81,0,0,1,1-4.4,11.52,11.52,0,0,1,3.15-3.94,11.75,11.75,0,0,1,5.16-2.35A.6.6,0,1,1,44.91,38a10.58,10.58,0,0,0-4.63,2.12,10.07,10.07,0,0,0-2.81,3.51,9.55,9.55,0,0,0-.9,3.9A.62.62,0,0,1,36,48.12Zm-5.86-.78h-.05a.6.6,0,0,1-.55-.65,18.08,18.08,0,0,1,2.9-8.32A17.66,17.66,0,0,1,39.8,32a17,17,0,0,1,8.83-1.3.6.6,0,1,1-.14,1.2,15.89,15.89,0,0,0-8.2,1.2A16.5,16.5,0,0,0,33.41,39a16.78,16.78,0,0,0-2.7,7.76A.62.62,0,0,1,30.1,47.34Zm31.8-4.59a.61.61,0,0,1-.59-.45,11.29,11.29,0,0,0-3.16-5.37.6.6,0,0,1,0-.86.61.61,0,0,1,.86,0,13.44,13.44,0,0,1,1.88,2.25A12.74,12.74,0,0,1,62.48,42a.59.59,0,0,1-.43.73A.39.39,0,0,1,61.9,42.75ZM51.13,38.86a.55.55,0,0,1-.32-.1,7.18,7.18,0,0,0-1.46-.68,6.71,6.71,0,0,0-1.47-.29.6.6,0,0,1-.55-.65.62.62,0,0,1,.65-.56,8,8,0,0,1,1.74.35,7.8,7.8,0,0,1,1.73.81.61.61,0,0,1-.32,1.12Zm-12.4-1.81a.61.61,0,0,1-.33-1.12,16,16,0,0,1,2.16-1.16,16.34,16.34,0,0,1,2-.72.61.61,0,0,1,.75.42.6.6,0,0,1-.41.74,14.4,14.4,0,0,0-1.84.67,13.6,13.6,0,0,0-2,1.07A.58.58,0,0,1,38.73,37.05Zm-7.5-.73a.57.57,0,0,1-.35-.12.59.59,0,0,1-.13-.84,18.13,18.13,0,0,1,8-6.16.61.61,0,0,1,.45,1.13,16.66,16.66,0,0,0-4.09,2.3,17,17,0,0,0-3.39,3.44A.58.58,0,0,1,31.23,36.32Zm25-1.19a.59.59,0,0,1-.41-.16,10.54,10.54,0,0,0-1.64-1.24,11.13,11.13,0,0,0-2.42-1.13.6.6,0,1,1,.37-1.15,12.43,12.43,0,0,1,2.69,1.25,12.27,12.27,0,0,1,1.82,1.38.6.6,0,0,1,0,.85A.62.62,0,0,1,56.24,35.13Zm3.81-.65a.63.63,0,0,1-.42-.17,19.28,19.28,0,0,0-17.44-5.09A.6.6,0,1,1,42,28a20.49,20.49,0,0,1,8.4,0,20.72,20.72,0,0,1,10.12,5.4.6.6,0,0,1,0,.85A.63.63,0,0,1,60.05,34.48ZM56.8,28.37a.6.6,0,0,1-.33-.1,10.28,10.28,0,0,0-.91-.53,9.56,9.56,0,0,0-1.23-.54.6.6,0,0,1-.36-.77.6.6,0,0,1,.78-.36,11,11,0,0,1,1.37.6,11.69,11.69,0,0,1,1,.59.61.61,0,0,1,.17.84A.6.6,0,0,1,56.8,28.37ZM36.9,28a.6.6,0,0,1-.54-.35.59.59,0,0,1,.28-.8,22.69,22.69,0,0,1,14.85-1.62.6.6,0,0,1,.45.72.6.6,0,0,1-.72.46A21.43,21.43,0,0,0,43.61,26a21.7,21.7,0,0,0-6.45,1.91A.58.58,0,0,1,36.9,28Z"/><circle class="cls-3" cx="46.38" cy="46" r="38.66"/><circle class="cls-4" cx="46" cy="46" r="45.53"/></svg>