<svg width="359" height="299" viewBox="0 0 359 299" fill="none" xmlns="http://www.w3.org/2000/svg">
<g clip-path="url(#clip0_3_675)">
<path d="M288.261 238.618L179.497 287.706L70.7331 238.618V3.01367H288.261V238.618Z" fill="#FDD86F"/>
<path d="M179.497 290.72C179.071 290.715 178.65 290.622 178.261 290.447L69.5084 241.359C68.9803 241.128 68.5295 240.75 68.2095 240.271C67.8895 239.791 67.7138 239.23 67.7032 238.653V3.0136C67.7047 2.61632 67.7845 2.22324 67.9378 1.85679C68.0912 1.49034 68.3153 1.1577 68.5972 0.877861C68.8791 0.598024 69.2133 0.376471 69.5808 0.225851C69.9483 0.0752311 70.3418 -0.00150559 70.739 2.23772e-05H288.29C289.089 2.23772e-05 289.855 0.317523 290.42 0.882678C290.985 1.44783 291.303 2.21435 291.303 3.0136V238.647C291.293 239.224 291.118 239.786 290.798 240.266C290.478 240.746 290.026 241.123 289.497 241.353L180.739 290.476C180.346 290.641 179.923 290.724 179.497 290.72ZM73.7166 236.673L179.474 284.397L285.231 236.673V6.03298H73.7166V236.673Z" fill="#FDD86F"/>
<path d="M77.7798 234.461V9.87109H281.928V234.461L179.851 280.53L77.7798 234.461Z" fill="#E9C05B"/>
<path d="M141.797 273.62C137.362 267.363 132.442 261.465 127.083 255.98C119.142 247.973 111.585 241.08 108.543 238.334C107.754 237.631 107.104 237.91 107.145 238.961C107.278 242.573 108.346 250.951 115.567 259.731C121.098 266.594 129.538 271.135 135.702 273.707C136.672 274.113 136.608 274.288 135.598 274.079C125.433 272.188 115.543 269.036 106.158 264.695C105.113 264.127 104.336 263.169 103.993 262.03C102.137 254.932 99.6541 248.012 96.5746 241.353C91.9775 231.633 87.0843 223.068 85.0643 219.59C84.5303 218.685 83.8164 218.748 83.5436 219.77C81.6808 227.069 82.1849 234.772 84.9831 241.765C87.9259 249.749 93.9336 256.316 98.5191 260.445C99.3085 261.136 99.2098 261.293 98.2869 260.788C88.8558 255.596 80.148 249.187 72.3874 241.725C71.5883 240.845 71.1708 239.684 71.2265 238.496C71.8304 231.636 71.7487 224.733 70.9827 217.889C70.0249 210.17 68.6256 202.512 66.7919 194.953C66.5481 193.931 65.8922 193.792 65.2944 194.692C61.6648 200.81 59.9843 207.889 60.4767 214.986C60.8481 222.842 64.087 230.28 66.7919 235.274C67.3085 236.18 67.1576 236.313 66.4494 235.535C59.2207 227.561 53.0161 218.715 47.9797 209.203C47.7389 208.665 47.6073 208.085 47.5923 207.495C47.5774 206.906 47.6794 206.32 47.8926 205.771C50.6058 199.511 52.6563 192.983 54.0105 186.296C55.4261 178.711 56.3855 171.048 56.8837 163.349C56.9475 162.303 56.3033 161.961 55.5197 162.634C50.2356 167.314 46.5122 173.501 44.8511 180.362C42.8369 187.991 43.6205 196.086 44.6885 201.637C44.8859 202.664 44.6885 202.728 44.2822 201.77C40.5996 193.656 37.7279 185.197 35.709 176.518C35.614 175.938 35.6364 175.346 35.7751 174.775C35.9137 174.204 36.1656 173.668 36.5159 173.196C40.496 168.203 43.916 162.788 46.7143 157.049C49.8079 150.419 52.4776 143.601 54.707 136.633C55.0205 135.628 54.4865 135.141 53.5461 135.611C47.6661 138.697 42.8506 143.482 39.7257 149.343C36.1095 155.893 34.8964 163.552 34.5539 168.894C34.4843 169.945 34.3044 169.962 34.1244 168.894C32.616 160.024 32.0112 151.025 32.3192 142.033C32.379 141.45 32.5552 140.885 32.8374 140.371C33.1195 139.857 33.5019 139.406 33.9619 139.043C38.3438 135.778 42.3226 132.005 45.8146 127.801C49.8454 122.765 53.5133 117.448 56.7908 111.891C57.3248 110.991 56.9185 110.405 55.8853 110.678C50.3648 112.28 45.4091 115.41 41.5889 119.707C37.282 124.381 34.6236 130.315 33.1551 134.659C32.8126 135.663 32.6327 135.628 32.7313 134.577C33.4795 126.39 35.0191 118.295 37.3285 110.405C37.7435 109.296 38.5774 108.396 39.6503 107.897C44.3742 105.894 48.836 103.322 52.9367 100.238C57.8404 96.455 62.4704 92.3298 66.7919 87.8931C67.5233 87.1325 67.2621 86.4821 66.2115 86.546C60.7757 86.935 55.5466 88.789 51.0792 91.9112C46.5705 95.1317 42.7369 99.2053 39.7954 103.902C39.5287 104.373 39.226 104.824 38.8899 105.249C38.9059 105.151 38.9372 105.057 38.9827 104.97C39.1627 104.442 39.3426 103.931 39.5632 103.408C39.7838 102.885 39.9289 102.392 40.1436 101.881L40.7241 100.336L41.3045 98.8209C41.5251 98.3042 41.7283 97.7874 41.9488 97.2822L42.5873 95.7725L43.2664 94.2512C43.4928 93.7519 43.725 93.2583 43.963 92.759L44.6711 91.2435L45.4141 89.7686C45.6695 89.2751 45.9191 88.7699 46.1803 88.2705C46.4415 87.7712 46.6853 87.295 46.9465 86.8189L47.7591 85.3266C48.0319 84.8389 48.3047 84.3628 48.5833 83.8808C48.8619 83.3989 49.1638 82.8995 49.4308 82.4118L50.3363 80.9834L50.5801 80.5885C51.2275 80.1991 51.957 79.9664 52.7103 79.9092C57.0997 79.1203 61.3725 77.7821 65.4279 75.9259C70.4912 73.51 75.367 70.719 80.0145 67.5762C80.92 66.9955 80.7574 66.3161 79.7068 66.2C74.9433 65.7596 70.1449 66.5077 65.7413 68.3775C61.3851 70.2648 57.3901 72.8956 53.935 76.1524C53.1688 76.8666 53.0353 76.733 53.6216 75.8911C55.5564 73.0575 57.6209 70.282 59.815 67.5645C60.6243 66.6096 61.544 65.7539 62.5547 65.0155C67.2476 61.7392 71.7496 58.1973 76.0384 54.407C81.0443 49.8781 85.8104 45.0909 90.3174 40.065C91.0197 39.2753 90.7585 38.8514 89.766 39.1591C83.1322 41.4124 77.0007 44.9367 71.7141 49.5354C67.2322 53.5239 63.5538 58.3329 60.8772 63.7032C60.3075 64.8305 59.6331 65.9016 58.863 66.9026C56.638 69.6549 54.5329 72.4691 52.5478 75.3453C51.9673 76.2453 51.8164 76.1407 52.1937 75.1653C53.61 71.5536 55.4906 66.4555 56.9882 61.1193C58.4096 56.0993 59.2108 50.9239 59.3738 45.7089C59.3738 44.6521 58.7585 44.4431 58.1259 45.2792C55.8041 48.3624 50.7658 55.818 49.0999 63.6916C48.0033 68.3142 48.0431 73.1338 49.216 77.7375C49.4832 78.4488 49.594 79.2093 49.5411 79.9672L49.2857 80.3911C49.0012 80.8614 48.7052 81.2969 48.4382 81.8021C48.1712 82.3073 47.8578 82.8008 47.5385 83.3176C47.2193 83.8344 46.9581 84.264 46.7259 84.7344L45.8959 86.2673L45.1355 87.7305C44.8627 88.2473 44.6131 88.7641 44.3519 89.2867C44.0907 89.8093 43.8643 90.2505 43.6263 90.7325C43.3883 91.2144 43.1329 91.7777 42.8891 92.2944C42.6454 92.8112 42.4248 93.2757 42.2042 93.7635C41.9837 94.2512 41.7689 94.797 41.5251 95.337C41.2813 95.877 41.0898 96.3183 40.8866 96.8177C40.6835 97.3171 40.4513 97.8745 40.2365 98.4087C40.0217 98.9429 39.8302 99.4016 39.6561 99.8951C39.4819 100.389 39.2381 100.964 39.0408 101.498C38.8434 102.032 38.6693 102.496 38.4603 102.996L37.8799 104.61C37.863 104.717 37.8297 104.821 37.7812 104.918C37.751 104.384 37.794 103.849 37.9089 103.327C38.4313 98.9487 39.0698 92.4919 39.2439 85.9073C39.3972 79.8413 38.8243 73.7788 37.5374 67.8491C37.2995 66.8271 36.6319 66.7632 36.1908 67.7213C34.4495 71.5594 30.7114 81.2679 31.1467 90.6744C31.2669 96.2487 32.7901 101.703 35.5755 106.532C36.1541 107.575 36.3316 108.793 36.0747 109.958C33.7238 117.984 32.1684 126.223 31.4311 134.554C31.3383 135.605 31.1699 135.605 31.0248 134.554C30.3921 129.909 29.3357 123.156 27.7453 116.397C26.2495 110.086 24.0087 103.975 21.0702 98.1938C20.5826 97.2938 19.9093 97.3751 19.7177 98.4145C18.9632 102.7 17.6456 113.68 20.6174 123.382C22.2589 129.174 25.3517 134.451 29.6027 138.712C30.427 139.57 30.9028 140.704 30.9378 141.894C30.6303 151.06 31.2624 160.234 32.8242 169.271C33.0042 170.311 32.8242 170.357 32.4353 169.387C30.3805 164.376 27.1475 156.88 23.4094 149.477C19.9308 142.68 15.6915 136.3 10.7731 130.461C10.0823 129.665 9.44386 129.926 9.4961 130.977C9.75149 135.832 11.162 149.036 17.4308 159.342C22.5968 167.953 28.7147 172.18 32.1741 174.05C33.1746 174.666 33.9125 175.629 34.2463 176.756C36.2872 185.635 39.2178 194.286 42.9936 202.577C43.4232 203.535 43.278 203.622 42.6396 202.786C39.1569 198.269 33.9329 191.533 28.1981 185.042C22.8099 178.959 16.7523 173.506 10.1404 168.783C9.2407 168.203 8.71249 168.598 9.02013 169.608C10.4596 174.485 15.3238 187.829 24.6051 196.858C32.2496 204.406 39.6967 206.99 43.7192 207.89C44.8551 208.211 45.8264 208.952 46.4357 209.963C51.5654 219.655 57.8893 228.665 65.2595 236.783C65.9619 237.561 65.84 237.683 64.9867 237.091C60.2561 233.793 53.2501 229.055 45.9771 224.654C39.0496 220.514 31.6704 217.182 23.984 214.725C22.9857 214.417 22.5677 214.986 23.1656 215.851C26.0098 220.032 34.6584 231.331 46.2209 237.097C55.8389 241.957 63.7852 242.131 67.9122 241.783C69.0998 241.725 70.2652 242.119 71.1743 242.886C79.0591 250.488 87.9164 257.012 97.5149 262.286C98.4146 262.791 98.4146 262.942 97.3698 262.634C91.339 260.828 82.3769 258.238 73.3742 255.98C65.011 253.908 56.4475 252.751 47.8345 252.531C46.7781 252.531 46.5343 253.181 47.3586 253.849C51.4217 257.199 63.849 266.222 77.7856 268.44C89.3945 270.374 97.7355 267.929 101.833 266.228C102.956 265.806 104.194 265.806 105.316 266.228C109.319 268.092 113.419 269.74 117.598 271.164C118.591 271.495 119.404 271.744 119.404 271.744C119.404 271.744 120.222 271.988 121.209 272.296C125.858 273.708 130.583 274.861 135.36 275.751C136.393 275.954 136.382 276.093 135.36 276.105C128.546 276.157 118.411 276.279 108.613 276.686C99.6825 277.075 90.8173 278.399 82.1621 280.634C81.1521 280.919 81.1057 281.61 82.0809 282.016C87.0959 284.066 102.217 289.239 117.163 287.37C129.654 285.843 137.426 281.046 141.066 278.184C142.041 277.483 143.227 277.136 144.427 277.202C145.129 277.29 145.831 277.365 146.539 277.435C147.584 277.545 148.432 277.226 148.432 276.755C148.432 276.285 147.584 275.803 146.545 275.681L144.74 275.466C143.565 275.236 142.516 274.578 141.797 273.62Z" fill="#CCA650"/>
<path d="M217.191 272.714C221.631 266.459 226.554 260.563 231.917 255.08C239.858 247.067 247.415 240.18 250.491 237.434C251.263 236.731 251.914 237.01 251.879 238.055C251.745 241.667 250.718 250.045 243.451 258.825C237.925 265.688 229.485 270.229 223.327 272.807C222.351 273.213 222.421 273.388 223.425 273.173C233.59 271.284 243.48 268.134 252.865 263.795C253.91 263.227 254.688 262.269 255.031 261.13C256.883 254.029 259.366 247.107 262.449 240.447C267.046 230.733 271.939 222.163 273.959 218.685C274.493 217.785 275.207 217.848 275.474 218.865C276.443 222.348 277.941 230.605 274.04 240.865C271.068 248.849 265.061 255.411 260.475 259.551C259.691 260.247 259.79 260.398 260.713 259.893C270.142 254.699 278.85 248.29 286.613 240.831C287.411 239.953 287.829 238.794 287.773 237.608C287.17 230.748 287.251 223.845 288.017 217.001C288.986 209.3 290.387 201.66 292.214 194.117C292.458 193.095 293.16 192.956 293.711 193.856C297.344 199.97 299.023 207.049 298.523 214.144C298.152 222 294.913 229.444 292.202 234.467C291.697 235.372 291.842 235.506 292.545 234.728C299.776 226.756 305.981 217.91 311.015 208.395C311.258 207.858 311.391 207.278 311.407 206.689C311.423 206.1 311.321 205.513 311.107 204.964C308.398 198.701 306.346 192.175 304.984 185.489C303.559 177.905 302.59 170.242 302.081 162.541C302.018 161.49 302.662 161.148 303.457 161.827C308.73 166.492 312.453 172.657 314.126 179.496C316.146 187.132 315.362 195.22 314.3 200.777C314.097 201.805 314.3 201.869 314.7 200.911C318.402 192.774 321.285 184.29 323.308 175.583C323.401 175.003 323.377 174.41 323.238 173.84C323.098 173.27 322.846 172.733 322.496 172.262C318.508 167.27 315.082 161.855 312.28 156.114C309.191 149.483 306.523 142.665 304.293 135.698C303.974 134.693 304.508 134.206 305.454 134.676C311.324 137.769 316.129 142.555 319.245 148.414C322.908 154.987 324.121 162.646 324.469 167.965C324.533 169.01 324.713 169.027 324.893 167.965C326.405 159.094 327.014 150.092 326.71 141.098C326.649 140.515 326.473 139.95 326.191 139.437C325.909 138.923 325.527 138.471 325.067 138.108C320.691 134.844 316.72 131.071 313.238 126.866C309.209 121.84 305.541 116.535 302.261 110.991C301.733 110.086 302.139 109.499 303.167 109.772C308.683 111.38 313.635 114.509 317.457 118.801C321.77 123.481 324.423 129.415 325.886 133.759C326.228 134.757 326.408 134.723 326.309 133.677C325.566 125.488 324.028 117.391 321.718 109.499C321.301 108.392 320.468 107.491 319.396 106.991C314.648 104.996 310.164 102.424 306.046 99.3319C301.158 95.5472 296.544 91.422 292.237 86.9872C291.494 86.2324 291.755 85.5821 292.818 85.6459C298.258 86.0345 303.492 87.8862 307.967 91.0053C312.474 94.2288 316.305 98.3043 319.245 103.002C319.517 103.468 319.82 103.916 320.151 104.343C320.134 104.246 320.103 104.152 320.058 104.064C319.878 103.542 319.698 103.025 319.477 102.502C319.257 101.98 319.106 101.492 318.897 100.975C318.688 100.458 318.508 99.9474 318.317 99.4306L317.736 97.9151C317.533 97.3983 317.312 96.8873 317.109 96.3822L316.459 94.8725L315.763 93.3454C315.536 92.8518 315.304 92.3525 315.066 91.8531C314.828 91.3537 314.596 90.8428 314.346 90.3376C314.097 89.8324 313.864 89.3621 313.615 88.8686L312.86 87.3705C312.611 86.8827 312.344 86.395 312.083 85.913L311.27 84.4266L310.457 82.9808L309.627 81.5059L308.728 80.0833L308.484 79.6827C307.833 79.2998 307.105 79.0677 306.354 79.0033C301.963 78.2209 297.69 76.8844 293.636 75.0259C288.572 72.6058 283.694 69.8129 279.044 66.6703C278.144 66.0896 278.306 65.4161 279.351 65.3C284.135 64.8484 288.957 65.5947 293.381 67.4716C297.71 69.37 301.68 72.0001 305.117 75.2465C305.883 75.9607 306.017 75.8271 305.431 74.9852C303.496 72.1516 301.431 69.3761 299.237 66.6587C298.421 65.7037 297.493 64.8499 296.474 64.1154C291.767 60.8358 287.248 57.2941 282.938 53.507C277.942 48.9815 273.184 44.2002 268.683 39.1823C267.98 38.3984 268.241 37.9746 269.263 38.2765C275.897 40.5342 282.029 44.0581 287.321 48.6527C291.8 52.6448 295.476 57.4554 298.152 62.8264C298.72 63.9525 299.395 65.0219 300.166 66.02C302.395 68.78 304.5 71.5942 306.481 74.4626C307.062 75.3684 307.213 75.2581 306.835 74.2826C305.419 70.671 303.538 65.5729 302.041 60.2425C300.624 55.2197 299.825 50.0427 299.661 44.8262C299.661 43.7694 300.276 43.5604 300.903 44.4024C303.225 47.4798 308.269 54.9412 309.935 62.8148C311.022 67.4362 310.984 72.2511 309.825 76.8549C309.552 77.5648 309.437 78.3257 309.488 79.0846L309.743 79.5143L310.591 80.9195C310.887 81.4188 311.171 81.924 311.496 82.4349L312.297 83.8575C312.576 84.3685 312.878 84.8737 313.127 85.3905C313.377 85.9072 313.644 86.3485 313.894 86.8247C314.143 87.3008 314.422 87.8582 314.683 88.3808C314.944 88.9034 315.171 89.3447 315.403 89.8266L316.151 91.3886L316.831 92.8576C317.063 93.3802 317.301 93.9086 317.521 94.4312C317.742 94.9538 317.957 95.4125 318.166 95.9118L318.816 97.497C319.019 97.9964 319.216 98.4899 319.396 98.9893C319.576 99.4886 319.808 100.058 319.977 100.586C320.145 101.114 320.348 101.591 320.557 102.09L321.137 103.704L321.248 104.012C321.26 103.478 321.213 102.945 321.108 102.421C320.586 98.0428 319.948 91.586 319.773 85.0014C319.62 78.9355 320.193 72.873 321.48 66.9432C321.718 65.9213 322.385 65.8574 322.827 66.8155C324.568 70.6536 328.306 80.362 327.871 89.7686C327.755 95.3463 326.233 100.805 323.448 105.638C322.87 106.679 322.695 107.896 322.954 109.058C325.296 117.088 326.852 125.328 327.598 133.66C327.685 134.705 327.859 134.705 328.004 133.66C328.637 129.015 329.699 122.262 331.278 115.497C332.775 109.179 335.022 103.062 337.97 97.2764C338.464 96.3706 339.131 96.4518 339.323 97.4912C340.072 101.782 341.389 112.762 338.417 122.459C336.79 128.256 333.709 133.541 329.467 137.812C328.644 138.668 328.168 139.8 328.132 140.988C328.44 150.156 327.806 159.332 326.24 168.371C326.06 169.405 326.24 169.451 326.628 168.487C328.689 163.476 331.922 155.98 335.701 148.577C339.194 141.776 343.449 135.394 348.384 129.555C349.074 128.759 349.713 129.026 349.661 130.071C349.405 134.932 348.001 148.13 341.726 158.436C336.56 167.053 330.448 171.274 326.983 173.144C325.962 173.751 325.206 174.719 324.864 175.856C322.82 184.732 319.89 193.381 316.117 201.671C315.681 202.63 315.826 202.722 316.465 201.88C319.948 197.363 325.172 190.628 330.912 184.136C336.298 178.054 342.354 172.6 348.964 167.878C349.864 167.297 350.392 167.686 350.084 168.696C348.604 173.539 343.699 186.911 334.459 195.906C326.808 203.425 319.367 206.038 315.339 206.938C314.192 207.244 313.205 207.977 312.582 208.988C307.457 218.68 301.135 227.688 293.764 235.802C293.061 236.58 293.183 236.708 294.036 236.11C298.761 232.818 305.767 228.074 313.046 223.678C319.972 219.538 327.349 216.204 335.033 213.743C336.043 213.435 336.45 214.004 335.863 214.875C333.013 219.056 324.376 230.35 312.802 236.121C303.196 240.981 295.25 241.167 291.134 240.807C289.948 240.749 288.785 241.144 287.878 241.911C279.986 249.505 271.125 256.022 261.526 261.293C260.62 261.798 260.667 261.955 261.671 261.647C267.696 259.841 276.664 257.251 285.661 254.993C294.024 252.921 302.587 251.765 311.2 251.544C312.245 251.544 312.489 252.194 311.676 252.862C307.578 256.212 295.18 265.229 281.238 267.453C269.629 269.387 261.299 266.937 257.19 265.241C256.076 264.823 254.849 264.823 253.736 265.241C249.725 267.094 245.617 268.73 241.431 270.142C240.438 270.479 239.625 270.722 239.625 270.722C239.625 270.722 238.801 270.966 237.82 271.274C233.172 272.692 228.45 273.855 223.675 274.758C222.636 274.955 222.647 275.1 223.675 275.112C230.489 275.164 240.63 275.28 250.422 275.693C259.352 276.07 268.217 277.383 276.873 279.612C277.883 279.902 277.929 280.588 276.954 280.994C271.945 283.044 256.824 288.217 241.883 286.348C229.381 284.826 221.608 280.03 217.969 277.168C216.994 276.465 215.808 276.117 214.608 276.181C213.906 276.273 213.204 276.343 212.501 276.419C211.451 276.523 210.603 276.21 210.603 275.739C210.603 275.269 211.451 274.781 212.501 274.665L214.306 274.45C215.446 274.238 216.47 273.622 217.191 272.714Z" fill="#CCA650"/>
<path d="M166.832 255.115L175.318 269.782L183.682 269.758L192.197 255.115H166.832Z" fill="#F58722"/>
<path d="M166.855 255.097L154.184 277.069L171.127 277.04L175.289 269.787L166.855 255.097Z" fill="#1A6178"/>
<path d="M166.832 298.948H192.197L183.682 284.298L175.318 284.281L166.832 298.948Z" fill="#1298B6"/>
<path d="M166.855 298.965L175.289 284.275L171.127 277.022L154.184 276.993L166.855 298.965Z" fill="#89BB48"/>
<path d="M187.873 277.057L183.717 284.309L192.139 299L204.816 277.028L187.873 277.057Z" fill="#A7529E"/>
<path d="M45.8843 162.181H0L17.4482 192.236L0 222.29H65.0564V200.452V162.181H45.8843Z" fill="#E87C61"/>
<path d="M359 162.181H313.116H293.938V200.452V222.29H359L341.546 192.236L359 162.181Z" fill="#E87C61"/>
<path d="M309.871 202.31V161.717V159.017V156.305V130.066H49.9184V156.305V159.017V161.717V202.31H65.4569H67.2679H69.0905H290.699H292.51H294.338H309.871Z" fill="#FF8A6A"/>
<path d="M113.442 139.054H113.593C114.638 139.112 116.147 139.135 118.121 139.135H121.534H121.743C122.103 139.135 122.503 139.135 122.95 139.135C125.721 139.135 127.834 139.683 129.289 140.778C129.98 141.278 130.54 141.938 130.92 142.701C131.3 143.465 131.489 144.309 131.471 145.162C131.471 146.392 131.115 147.595 130.445 148.625C129.775 149.656 128.821 150.47 127.698 150.969C125.993 151.736 124.133 152.094 122.265 152.014H120.634V157.553C120.616 158.103 120.703 158.651 120.889 159.168C120.975 159.356 121.103 159.522 121.263 159.653C121.423 159.784 121.611 159.876 121.812 159.923C122.504 160.075 123.211 160.147 123.919 160.137V160.84C121.4 160.776 119.52 160.747 118.289 160.747C117.267 160.747 115.967 160.747 114.418 160.811L113.431 160.84V160.224H113.611C114.056 160.205 114.497 160.127 114.923 159.992C115.078 159.933 115.217 159.838 115.329 159.715C115.441 159.592 115.522 159.444 115.567 159.284C115.707 158.73 115.765 158.159 115.741 157.588V142.137C115.756 141.627 115.7 141.116 115.573 140.622C115.526 140.465 115.443 140.322 115.331 140.203C115.22 140.084 115.082 139.993 114.928 139.937C114.445 139.785 113.943 139.703 113.437 139.693L113.442 139.054ZM122.55 139.669C122.132 139.642 121.714 139.716 121.331 139.884C121.193 139.968 121.075 140.079 120.983 140.211C120.891 140.343 120.828 140.493 120.797 140.651C120.674 141.195 120.621 141.753 120.64 142.311V151.422H121.963C123.623 151.422 124.773 150.89 125.411 149.825C126.108 148.487 126.437 146.988 126.363 145.482C126.363 143.496 126.071 142.029 125.487 141.08C124.9 140.14 123.925 139.669 122.55 139.669Z" fill="white"/>
<path d="M150.08 160.84C149.923 159.285 149.851 157.723 149.865 156.16C149.865 155.115 149.9 154.255 149.958 153.576H149.25C148.886 155.957 148.256 157.644 147.358 158.639C146.916 159.131 146.371 159.52 145.762 159.778C145.153 160.036 144.495 160.157 143.834 160.131H142.331C141.864 160.151 141.396 160.1 140.944 159.98C140.809 159.935 140.687 159.858 140.586 159.758C140.485 159.657 140.409 159.535 140.363 159.4C140.238 158.935 140.185 158.453 140.207 157.971V150.191H141.193C143.264 150.191 144.514 151.546 144.943 154.255H145.651C145.531 152.386 145.469 150.928 145.466 149.883V148.408C145.466 147.34 145.5 146.376 145.558 145.505H144.85C144.665 146.527 144.27 147.5 143.689 148.362C143.413 148.756 143.041 149.073 142.609 149.283C142.176 149.493 141.697 149.59 141.217 149.564H140.23V141.946C140.209 141.462 140.262 140.979 140.387 140.511C140.432 140.376 140.508 140.253 140.608 140.152C140.709 140.052 140.832 139.976 140.967 139.931C141.418 139.805 141.887 139.752 142.354 139.774H143.614C144.24 139.737 144.867 139.836 145.451 140.064C146.035 140.293 146.563 140.645 146.998 141.098C147.799 141.98 148.352 143.519 148.658 145.714H149.366C149.296 145.019 149.265 144.322 149.273 143.624C149.273 142.288 149.349 140.773 149.488 139.071C148.327 139.124 146.365 139.158 143.684 139.158H142.273C138.198 139.158 135.122 139.129 133.044 139.071V139.687C133.55 139.698 134.052 139.78 134.536 139.931C134.692 139.989 134.831 140.084 134.943 140.207C135.055 140.33 135.136 140.478 135.18 140.639C135.317 141.191 135.374 141.76 135.348 142.329V157.594C135.374 158.164 135.317 158.735 135.18 159.29C135.136 159.45 135.054 159.597 134.942 159.72C134.83 159.843 134.691 159.939 134.536 159.998C134.052 160.148 133.55 160.231 133.044 160.242V160.84C135.257 160.774 138.601 160.743 143.074 160.747C146.367 160.747 148.702 160.778 150.08 160.84Z" fill="white"/>
<path d="M152.512 139.054H152.657C153.702 139.112 155.211 139.135 157.185 139.135H160.598H160.807C161.167 139.135 161.567 139.135 162.014 139.135C164.843 139.135 166.971 139.596 168.399 140.517C169.077 140.928 169.633 141.513 170.01 142.212C170.387 142.91 170.57 143.696 170.541 144.489C170.543 145.205 170.403 145.914 170.128 146.575C169.853 147.236 169.448 147.836 168.939 148.339C167.877 149.442 166.112 150.144 163.651 150.429C165.497 150.591 166.867 151.01 167.772 151.631C168.703 152.322 169.328 153.349 169.513 154.493L170.222 157.664L170.256 157.844C170.347 158.383 170.527 158.903 170.79 159.383C170.884 159.538 171.017 159.666 171.176 159.753C171.335 159.84 171.515 159.882 171.696 159.876C171.919 159.865 172.136 159.802 172.329 159.69C172.547 159.546 172.743 159.37 172.909 159.168L173.339 159.539L173.188 159.708C172.731 160.215 172.176 160.624 171.557 160.91C170.819 161.205 170.029 161.345 169.235 161.322C168.24 161.379 167.253 161.114 166.42 160.567C166.038 160.248 165.724 159.858 165.494 159.417C165.264 158.977 165.123 158.496 165.079 158.001L164.498 154.923L164.446 154.662C164.287 153.607 163.978 152.581 163.529 151.613C163.351 151.271 163.078 150.988 162.741 150.8C162.405 150.611 162.021 150.524 161.637 150.551H159.634V157.809C159.622 158.319 159.679 158.829 159.803 159.324C159.848 159.483 159.928 159.628 160.038 159.751C160.147 159.874 160.283 159.97 160.435 160.033C160.924 160.186 161.432 160.269 161.944 160.277V160.84H161.753C160.662 160.786 159.176 160.759 157.295 160.759H157.016C154.962 160.759 153.435 160.79 152.437 160.852V160.236H152.617C153.062 160.217 153.503 160.139 153.928 160.004C154.084 159.944 154.223 159.849 154.335 159.726C154.447 159.603 154.528 159.456 154.573 159.295C154.712 158.742 154.771 158.171 154.747 157.6V142.137C154.762 141.627 154.706 141.116 154.579 140.622C154.535 140.461 154.454 140.313 154.342 140.19C154.23 140.067 154.09 139.972 153.934 139.913C153.451 139.762 152.949 139.68 152.443 139.669L152.512 139.054ZM161.619 139.669C161.204 139.641 160.787 139.715 160.406 139.884C160.268 139.967 160.149 140.079 160.056 140.211C159.963 140.343 159.898 140.492 159.866 140.651C159.744 141.195 159.691 141.753 159.71 142.311V149.86H161.033C162.716 149.86 163.877 149.415 164.516 148.524C165.207 147.392 165.535 146.075 165.456 144.75C165.456 143.07 165.158 141.798 164.562 140.935C163.966 140.072 162.985 139.65 161.619 139.669Z" fill="white"/>
<path d="M195.03 160.84V160.224C194.57 160.051 194.142 159.802 193.764 159.487C193.397 159.144 193.077 158.753 192.813 158.326L185.644 147.154L189.492 142.567C190.616 141.121 192.181 140.083 193.95 139.611V139.031C193.215 139.089 192.248 139.118 191.048 139.118C189.51 139.118 187.989 139.118 186.497 139.031V139.611C187.09 139.616 187.669 139.787 188.169 140.105C188.354 140.235 188.504 140.41 188.605 140.612C188.707 140.815 188.756 141.04 188.749 141.266C188.749 142.091 188.273 143.043 187.333 144.129L185.551 146.324C184.87 147.136 184.09 147.86 183.229 148.478C182.561 148.923 181.785 149.178 180.983 149.215V142.311C180.96 141.743 181.017 141.174 181.151 140.622C181.195 140.463 181.274 140.316 181.384 140.193C181.494 140.07 181.631 139.974 181.784 139.913C182.271 139.76 182.777 139.678 183.287 139.669V139.054C182.185 139.112 180.637 139.141 178.644 139.141H178.359C176.309 139.141 174.784 139.112 173.785 139.054V139.669C174.299 139.687 174.807 139.777 175.295 139.937C175.45 139.996 175.589 140.092 175.701 140.215C175.812 140.337 175.894 140.485 175.939 140.645C176.073 141.198 176.13 141.766 176.107 142.335V157.6C176.13 158.17 176.073 158.741 175.939 159.295C175.893 159.455 175.811 159.602 175.7 159.725C175.588 159.848 175.449 159.943 175.295 160.004C174.811 160.154 174.309 160.237 173.803 160.248V160.84C174.848 160.774 176.467 160.743 178.661 160.747C180.654 160.747 182.202 160.778 183.305 160.84V160.224C182.795 160.216 182.288 160.134 181.801 159.981C181.649 159.919 181.512 159.823 181.403 159.7C181.293 159.577 181.213 159.431 181.169 159.272C181.035 158.718 180.978 158.147 181 157.577V149.883C181.406 149.899 181.797 150.039 182.121 150.284C182.528 150.672 182.876 151.118 183.154 151.608L187.612 158.843C187.787 159.066 187.904 159.329 187.954 159.609C187.954 159.812 187.826 159.957 187.565 160.039C187.159 160.145 186.743 160.208 186.323 160.224V160.84C187.571 160.776 188.877 160.747 190.23 160.747C191.971 160.747 193.59 160.776 195.03 160.84Z" fill="white"/>
<path d="M203.795 161.27C205.112 161.287 206.421 161.058 207.655 160.596C208.745 160.195 209.7 159.495 210.412 158.576C211.108 157.618 211.466 156.455 211.427 155.272C211.449 154.311 211.221 153.36 210.766 152.514C210.326 151.724 209.745 151.022 209.053 150.441C208.144 149.686 207.19 148.986 206.198 148.345L205.211 147.671C204.05 146.897 203.199 146.297 202.657 145.871C202.137 145.469 201.698 144.973 201.362 144.408C201.046 143.834 200.888 143.187 200.904 142.532C200.882 142.104 200.954 141.677 201.117 141.28C201.28 140.883 201.528 140.528 201.844 140.239C202.52 139.653 203.395 139.349 204.288 139.391C205.269 139.375 206.223 139.709 206.981 140.332C207.771 140.984 208.383 141.825 208.763 142.776C209.187 143.784 209.442 144.855 209.518 145.946H210.226C210.226 142.644 210.276 140.304 210.377 138.926H209.669C209.641 139.281 209.558 139.63 209.425 139.96C209.394 140.051 209.337 140.131 209.261 140.189C209.184 140.247 209.091 140.281 208.995 140.285C208.839 140.277 208.686 140.233 208.548 140.157C208.374 140.076 208.177 139.977 207.968 139.85C207.357 139.482 206.707 139.184 206.029 138.961C205.199 138.729 204.337 138.625 203.475 138.653C202.297 138.639 201.127 138.848 200.027 139.269C199.026 139.644 198.155 140.301 197.52 141.162C196.878 142.074 196.55 143.171 196.585 144.286C196.563 145.271 196.808 146.244 197.294 147.102C197.759 147.914 198.368 148.635 199.093 149.227C199.828 149.819 200.813 150.516 202.047 151.317C203.321 152.09 204.491 153.02 205.53 154.087C206.264 154.894 206.66 155.952 206.639 157.043C206.667 157.522 206.585 158.002 206.399 158.445C206.213 158.888 205.927 159.282 205.565 159.598C204.786 160.21 203.815 160.525 202.825 160.486C202.018 160.534 201.212 160.36 200.496 159.983C199.78 159.607 199.18 159.042 198.762 158.349C197.8 156.641 197.272 154.723 197.224 152.763H196.516C196.516 157.021 196.475 159.791 196.394 161.072H197.102C197.136 160.72 197.218 160.375 197.346 160.045C197.377 159.952 197.435 159.872 197.513 159.814C197.59 159.756 197.684 159.723 197.781 159.719C198.16 159.772 198.52 159.92 198.826 160.149C199.487 160.509 200.188 160.787 200.916 160.979C201.858 161.202 202.826 161.3 203.795 161.27Z" fill="white"/>
<path d="M232.434 161.27C234.332 161.307 236.218 160.973 237.989 160.288C239.451 159.738 240.742 158.808 241.727 157.594C242.595 156.496 243.062 155.133 243.05 153.733C243.074 152.64 242.82 151.559 242.313 150.592C241.842 149.724 241.094 149.04 240.189 148.646L240.74 148.461C242.415 148.186 244.004 147.528 245.384 146.539C245.907 146.112 246.324 145.568 246.599 144.951C246.874 144.333 247.001 143.66 246.968 142.985C246.998 142.388 246.893 141.791 246.662 141.24C246.431 140.688 246.079 140.195 245.633 139.797C244.631 138.989 243.367 138.576 242.081 138.636C241.098 138.586 240.123 138.829 239.277 139.333C238.952 139.528 238.684 139.806 238.5 140.139C238.317 140.471 238.224 140.846 238.232 141.226C238.219 141.509 238.272 141.791 238.387 142.05C238.502 142.309 238.675 142.538 238.894 142.718C239.395 143.092 240.011 143.281 240.635 143.252C241.257 143.273 241.869 143.09 242.377 142.73C242.602 142.564 242.784 142.346 242.906 142.094C243.027 141.842 243.085 141.563 243.073 141.284C243.067 140.876 242.926 140.482 242.673 140.163C242.388 139.791 242.004 139.507 241.564 139.344C241.848 139.23 242.153 139.178 242.458 139.193C243.33 139.184 244.18 139.466 244.873 139.995C245.199 140.216 245.465 140.514 245.649 140.862C245.834 141.21 245.93 141.598 245.929 141.992C245.916 142.365 245.801 142.728 245.597 143.04C245.392 143.353 245.105 143.603 244.768 143.763C243.674 144.352 242.501 144.782 241.286 145.041C240.444 145.325 239.358 145.621 238.023 145.935L236.7 146.272C234.858 146.536 233.101 147.22 231.563 148.269C231 148.695 230.548 149.25 230.245 149.888C229.941 150.526 229.796 151.227 229.822 151.933C229.793 152.486 229.897 153.038 230.124 153.542C230.351 154.047 230.695 154.491 231.128 154.836C232.076 155.533 233.232 155.889 234.407 155.846C235.498 155.89 236.581 155.646 237.547 155.138C237.929 154.942 238.247 154.641 238.465 154.271C238.683 153.901 238.792 153.477 238.778 153.048C238.789 152.763 238.739 152.48 238.63 152.217C238.52 151.954 238.355 151.719 238.145 151.526C237.66 151.118 237.037 150.91 236.404 150.946C235.78 150.926 235.168 151.114 234.663 151.48C234.435 151.655 234.252 151.883 234.131 152.144C234.01 152.405 233.953 152.691 233.966 152.978C233.954 153.431 234.095 153.875 234.367 154.238C234.666 154.606 235.071 154.874 235.528 155.005C235.38 155.118 235.206 155.192 235.023 155.219C234.785 155.28 234.542 155.311 234.297 155.312C233.482 155.321 232.684 155.08 232.01 154.621C231.696 154.438 231.435 154.175 231.254 153.859C231.072 153.543 230.977 153.185 230.977 152.821C230.988 152.446 231.108 152.082 231.321 151.773C231.534 151.464 231.832 151.223 232.178 151.079C233.383 150.512 234.655 150.099 235.963 149.848L237.704 149.355L239.678 148.774C241.233 149.488 242 150.795 242 152.682C242.005 153.219 241.901 153.751 241.692 154.245C241.483 154.74 241.175 155.186 240.786 155.556C239.895 156.419 238.807 157.053 237.617 157.403C236.305 157.827 234.933 158.04 233.554 158.036C230.745 158.036 228.545 157.538 226.954 156.543C226.188 156.083 225.562 155.424 225.142 154.635C224.721 153.847 224.523 152.959 224.569 152.066C224.527 151.001 224.823 149.95 225.416 149.064C226.049 148.217 226.878 147.536 227.831 147.079C228.26 147.328 228.62 147.52 228.91 147.659C229.185 147.801 229.49 147.875 229.799 147.874C230.016 147.882 230.231 147.823 230.414 147.706C230.493 147.655 230.558 147.584 230.601 147.501C230.645 147.417 230.666 147.324 230.663 147.23C230.662 147.117 230.635 147.005 230.584 146.904C230.532 146.804 230.458 146.716 230.367 146.649C230.12 146.482 229.824 146.403 229.526 146.422C228.939 146.447 228.356 146.529 227.784 146.666C227.001 145.809 226.571 144.687 226.583 143.525C226.548 142.98 226.625 142.434 226.811 141.92C226.997 141.406 227.287 140.937 227.663 140.541C228.031 140.19 228.465 139.916 228.941 139.737C229.416 139.557 229.923 139.475 230.431 139.495C230.835 139.492 231.238 139.545 231.627 139.652C231.93 139.718 232.215 139.853 232.457 140.047C231.909 140.137 231.41 140.416 231.046 140.837C230.681 141.212 230.474 141.713 230.466 142.236C230.451 142.506 230.5 142.775 230.61 143.021C230.72 143.268 230.888 143.484 231.099 143.653C231.587 143.984 232.167 144.154 232.757 144.14C233.347 144.125 233.918 143.926 234.39 143.571C234.61 143.399 234.787 143.177 234.907 142.924C235.027 142.671 235.086 142.394 235.081 142.114C235.093 141.573 234.907 141.047 234.558 140.633C234.182 140.205 233.722 139.859 233.206 139.617C232.794 139.383 232.347 139.216 231.882 139.124C231.264 139.013 230.636 138.963 230.008 138.973C228.502 138.933 227.015 139.3 225.701 140.035C225.153 140.305 224.692 140.724 224.371 141.244C224.05 141.763 223.881 142.363 223.884 142.973C223.884 144.634 225.045 145.927 227.366 146.852C226.451 147.093 225.568 147.444 224.737 147.897C223.754 148.431 222.898 149.172 222.23 150.069C221.471 151.084 221.08 152.327 221.121 153.594C221.097 155.07 221.592 156.509 222.52 157.658C223.572 158.895 224.946 159.815 226.49 160.317C228.402 160.975 230.413 161.297 232.434 161.27Z" fill="white"/>
<path d="M105.937 170.409H106.088C107.133 170.467 108.642 170.49 110.61 170.49L114.029 170.461H114.238C114.597 170.461 114.998 170.461 115.445 170.461C117.906 170.461 119.787 170.903 121.087 171.785C121.685 172.148 122.18 172.66 122.522 173.27C122.865 173.881 123.044 174.569 123.043 175.269C123.023 175.899 122.874 176.519 122.607 177.09C122.339 177.661 121.958 178.172 121.487 178.591C120.454 179.618 118.916 180.332 116.89 180.687V180.745H117.169C119.692 180.969 121.557 181.577 122.764 182.568C123.336 182.988 123.803 183.535 124.128 184.165C124.453 184.796 124.628 185.493 124.639 186.203C124.676 187.07 124.488 187.931 124.094 188.704C123.701 189.477 123.115 190.135 122.393 190.616C120.899 191.669 118.817 192.195 116.147 192.195C115.567 192.195 115.05 192.195 114.644 192.166C113.293 192.127 111.97 192.106 110.674 192.102C108.561 192.102 106.982 192.133 105.937 192.195V191.58H106.117C106.563 191.56 107.004 191.482 107.429 191.347C107.584 191.288 107.723 191.193 107.835 191.07C107.947 190.947 108.029 190.799 108.073 190.639C108.21 190.085 108.267 189.514 108.242 188.944V173.492C108.257 172.982 108.2 172.472 108.073 171.977C108.03 171.816 107.948 171.668 107.836 171.545C107.724 171.422 107.585 171.327 107.429 171.269C106.945 171.118 106.443 171.036 105.937 171.025V170.409ZM114.429 181.163H113.135V189.129C113.124 189.618 113.177 190.106 113.291 190.581C113.328 190.738 113.399 190.884 113.499 191.01C113.6 191.136 113.727 191.237 113.872 191.307C114.311 191.462 114.777 191.529 115.242 191.504C118.094 191.504 119.518 189.71 119.514 186.122C119.514 184.496 119.108 183.265 118.283 182.429C117.459 181.592 116.176 181.163 114.412 181.163H114.429ZM115.044 171.042C114.627 171.014 114.208 171.088 113.825 171.257C113.688 171.341 113.57 171.452 113.478 171.584C113.386 171.716 113.323 171.866 113.291 172.023C113.169 172.568 113.116 173.126 113.135 173.684V180.652H114.458C115.793 180.652 116.722 180.199 117.256 179.282C117.84 178.158 118.116 176.9 118.057 175.635C118.137 174.443 117.888 173.252 117.337 172.192C117.095 171.809 116.754 171.499 116.351 171.293C115.947 171.088 115.496 170.995 115.044 171.025V171.042Z" fill="white"/>
<path d="M143.591 192.195C143.431 190.64 143.359 189.078 143.376 187.515C143.376 186.47 143.405 185.611 143.469 184.931H142.79C142.418 187.312 141.791 188.996 140.897 189.994C140.455 190.486 139.91 190.874 139.302 191.132C138.693 191.39 138.035 191.511 137.374 191.487H135.824C135.359 191.507 134.893 191.456 134.443 191.336C134.308 191.29 134.186 191.213 134.086 191.113C133.985 191.012 133.909 190.89 133.862 190.755C133.743 190.289 133.692 189.808 133.712 189.327V181.546H134.692C136.763 181.546 138.015 182.901 138.448 185.611H139.156C139.036 183.741 138.974 182.283 138.97 181.238V179.763C138.97 178.695 138.97 177.731 139.063 176.86H138.355C138.17 177.884 137.774 178.859 137.194 179.723C136.916 180.116 136.543 180.431 136.109 180.641C135.676 180.85 135.196 180.946 134.716 180.919H133.735V173.301C133.715 172.818 133.766 172.335 133.886 171.867C133.931 171.732 134.008 171.609 134.108 171.509C134.209 171.408 134.331 171.332 134.466 171.286C134.915 171.161 135.382 171.108 135.848 171.129H137.113C137.734 171.096 138.356 171.197 138.935 171.426C139.513 171.654 140.036 172.004 140.468 172.453C141.269 173.336 141.822 174.874 142.128 177.069H142.836C142.763 176.375 142.732 175.677 142.743 174.979C142.743 173.643 142.815 172.126 142.958 170.427C141.797 170.479 139.835 170.514 137.154 170.514H135.737C131.666 170.514 128.592 170.485 126.514 170.427V171.042C127.02 171.053 127.522 171.135 128.006 171.286C128.16 171.346 128.299 171.442 128.411 171.565C128.522 171.688 128.604 171.835 128.65 171.994C128.784 172.547 128.841 173.116 128.818 173.684V188.949C128.841 189.519 128.784 190.09 128.65 190.645C128.604 190.804 128.521 190.951 128.41 191.073C128.298 191.196 128.16 191.292 128.006 191.353C127.522 191.504 127.02 191.586 126.514 191.597V192.195C128.727 192.129 132.069 192.098 136.538 192.102C139.847 192.102 142.198 192.133 143.591 192.195Z" fill="white"/>
<path d="M163.988 192.259V175.083C163.969 174.29 164.025 173.497 164.156 172.714C164.227 172.264 164.456 171.852 164.8 171.553C165.246 171.257 165.759 171.077 166.292 171.031V170.415C165.659 170.473 164.765 170.502 163.616 170.502H163.337C162.055 170.502 161.045 170.467 160.296 170.415V171.031C160.992 171.065 161.672 171.247 162.293 171.565C162.504 171.704 162.684 171.885 162.822 172.097C162.96 172.308 163.052 172.546 163.094 172.796C163.241 173.676 163.303 174.569 163.279 175.461V185.094L151.374 170.415C150.635 170.473 149.753 170.502 148.728 170.502C147.602 170.502 146.708 170.473 146.052 170.415V171.031C146.558 171.041 147.06 171.123 147.544 171.274C147.699 171.333 147.839 171.428 147.951 171.551C148.063 171.674 148.144 171.822 148.188 171.983C148.328 172.535 148.386 173.104 148.362 173.672V187.521C148.383 188.316 148.324 189.112 148.188 189.896C148.119 190.348 147.89 190.76 147.544 191.057C147.096 191.349 146.584 191.529 146.052 191.58V192.195C146.708 192.131 147.602 192.102 148.728 192.102C150.144 192.102 151.253 192.131 152.054 192.195V191.58C151.356 191.54 150.674 191.356 150.051 191.04C149.84 190.901 149.659 190.72 149.521 190.509C149.383 190.297 149.291 190.058 149.25 189.809C149.103 188.93 149.04 188.04 149.064 187.149V175.356L162.415 192.282L163.245 192.247L163.988 192.259Z" fill="white"/>
<path d="M185.307 192.195C185.147 190.64 185.076 189.078 185.093 187.515C185.093 186.47 185.122 185.611 185.185 184.931H184.477C184.106 187.312 183.479 188.996 182.585 189.994C182.143 190.486 181.598 190.874 180.989 191.132C180.38 191.39 179.722 191.511 179.062 191.487H177.553C177.087 191.507 176.621 191.456 176.171 191.336C176.037 191.29 175.914 191.213 175.814 191.113C175.713 191.012 175.637 190.89 175.591 190.755C175.468 190.289 175.417 189.808 175.44 189.327V181.546H176.421C178.491 181.546 179.743 182.901 180.176 185.611H180.884C180.757 183.741 180.699 182.283 180.699 181.238V179.763C180.699 178.695 180.728 177.731 180.791 176.86H180.083C179.898 177.884 179.503 178.859 178.922 179.723C178.644 180.115 178.27 180.431 177.837 180.64C177.404 180.849 176.924 180.945 176.444 180.919H175.463V173.301C175.441 172.818 175.492 172.334 175.614 171.867C175.66 171.732 175.736 171.609 175.837 171.509C175.937 171.408 176.06 171.332 176.194 171.286C176.644 171.161 177.11 171.108 177.576 171.129H178.841C179.464 171.096 180.086 171.196 180.666 171.425C181.246 171.653 181.77 172.004 182.202 172.453C182.997 173.336 183.554 174.874 183.862 177.069H184.582C184.509 176.375 184.478 175.677 184.489 174.979C184.489 173.643 184.561 172.126 184.704 170.427C183.543 170.479 181.581 170.514 178.899 170.514H177.489C173.422 170.514 170.345 170.485 168.26 170.427V171.042C168.766 171.052 169.268 171.134 169.751 171.286C169.907 171.345 170.047 171.44 170.16 171.563C170.273 171.686 170.356 171.834 170.401 171.994C170.536 172.547 170.592 173.116 170.57 173.684V188.949C170.592 189.519 170.536 190.09 170.401 190.645C170.355 190.805 170.272 190.952 170.159 191.075C170.046 191.198 169.907 191.293 169.751 191.353C169.268 191.505 168.766 191.587 168.26 191.597V192.195C170.477 192.129 173.82 192.098 178.29 192.102C181.575 192.102 183.914 192.133 185.307 192.195Z" fill="white"/>
<path d="M198.228 192.195V191.516C197.52 191.528 196.812 191.456 196.121 191.301C195.92 191.255 195.732 191.162 195.572 191.031C195.412 190.901 195.284 190.735 195.198 190.546C194.991 189.97 194.903 189.358 194.937 188.746V181.668H196.011C198.081 181.668 199.333 183.023 199.766 185.733H200.474C200.353 183.863 200.289 182.411 200.289 181.36V179.885C200.289 178.817 200.318 177.853 200.382 176.982H199.673C199.488 178.006 199.093 178.981 198.513 179.845C198.234 180.238 197.861 180.554 197.427 180.763C196.994 180.972 196.515 181.068 196.034 181.041H194.96V173.301C194.941 172.818 194.992 172.335 195.111 171.867C195.157 171.732 195.233 171.609 195.334 171.509C195.434 171.408 195.557 171.332 195.692 171.286C196.141 171.161 196.607 171.108 197.073 171.129H198.089C198.733 171.094 199.376 171.202 199.973 171.448C200.569 171.693 201.104 172.068 201.537 172.546C202.353 173.491 202.968 175.122 203.382 177.441H204.091C204.02 176.669 203.989 175.894 203.998 175.118C203.998 173.744 204.069 172.196 204.212 170.473C203.052 170.525 201.09 170.56 198.408 170.56H196.992C192.925 170.56 189.85 170.531 187.768 170.473V171.089C188.261 171.09 188.751 171.158 189.225 171.292C189.38 171.352 189.519 171.448 189.63 171.571C189.742 171.694 189.824 171.841 189.87 172C190.004 172.553 190.061 173.122 190.038 173.69V188.955C190.06 189.526 190.004 190.096 189.87 190.651C189.823 190.81 189.741 190.957 189.629 191.079C189.518 191.202 189.38 191.298 189.225 191.359C188.742 191.51 188.24 191.592 187.734 191.603V192.195L188.715 192.166C190.276 192.126 191.565 192.102 192.592 192.102C193.822 192.102 195.699 192.133 198.222 192.195H198.228Z" fill="white"/>
<path d="M215.456 192.195V191.58C214.944 191.571 214.435 191.489 213.947 191.336C213.795 191.274 213.659 191.178 213.55 191.055C213.442 190.932 213.363 190.786 213.32 190.627C213.18 190.074 213.121 189.503 213.146 188.932V173.667C213.121 173.098 213.18 172.529 213.32 171.977C213.362 171.818 213.441 171.672 213.549 171.549C213.658 171.426 213.794 171.33 213.947 171.269C214.435 171.115 214.944 171.033 215.456 171.025V170.409C214.345 170.467 212.797 170.496 210.812 170.496H210.528C208.473 170.496 206.952 170.467 205.948 170.409V171.025C206.454 171.035 206.956 171.117 207.44 171.269C207.596 171.327 207.735 171.422 207.847 171.545C207.959 171.668 208.04 171.816 208.084 171.977C208.224 172.529 208.283 173.098 208.258 173.667V188.932C208.282 189.503 208.224 190.074 208.084 190.627C208.04 190.788 207.958 190.935 207.846 191.058C207.734 191.181 207.595 191.276 207.44 191.336C206.956 191.487 206.454 191.569 205.948 191.58V192.195C206.993 192.129 208.614 192.098 210.812 192.102C212.797 192.102 214.345 192.133 215.456 192.195Z" fill="white"/>
<path d="M232.469 192.195V191.58C231.759 191.588 231.052 191.51 230.362 191.347C230.159 191.294 229.971 191.196 229.811 191.06C229.651 190.925 229.524 190.755 229.439 190.563C229.231 189.961 229.143 189.324 229.177 188.688V171.112H229.886C230.546 171.084 231.203 171.209 231.807 171.477C232.412 171.744 232.946 172.148 233.368 172.656C234.22 173.678 234.891 175.451 235.382 177.975H236.091C236.033 177.394 235.998 176.605 235.998 175.652C235.998 174.114 236.073 172.366 236.212 170.427C234.471 170.485 231.569 170.514 227.454 170.514H226.026C221.928 170.514 218.996 170.485 217.232 170.427C217.377 172.372 217.447 174.119 217.447 175.652C217.455 176.428 217.424 177.203 217.354 177.975H218.062C218.313 176.573 218.738 175.207 219.327 173.91C219.7 173.051 220.302 172.311 221.069 171.774C221.826 171.323 222.696 171.098 223.576 171.123H224.255V188.711C224.29 189.347 224.201 189.984 223.994 190.587C223.909 190.778 223.782 190.948 223.622 191.084C223.462 191.219 223.274 191.317 223.071 191.371C222.381 191.534 221.673 191.612 220.964 191.603V192.195C223.425 192.129 225.302 192.098 226.594 192.102C227.887 192.106 229.835 192.137 232.44 192.195H232.469Z" fill="white"/>
<path d="M246.109 192.625C247.426 192.641 248.735 192.412 249.969 191.951C251.058 191.55 252.011 190.849 252.72 189.931C253.42 188.974 253.777 187.811 253.736 186.627C253.757 185.666 253.529 184.716 253.074 183.869C252.635 183.081 252.057 182.379 251.368 181.796C250.457 181.04 249.502 180.34 248.506 179.7L247.52 179.026C246.359 178.265 245.523 177.667 244.971 177.226C244.451 176.825 244.011 176.329 243.677 175.763C243.359 175.19 243.199 174.543 243.213 173.887C243.186 173.455 243.257 173.021 243.419 172.619C243.582 172.217 243.833 171.857 244.153 171.565C244.829 170.979 245.703 170.675 246.597 170.717C247.578 170.7 248.532 171.034 249.29 171.658C250.081 172.31 250.696 173.15 251.078 174.102C251.497 175.112 251.75 176.182 251.826 177.273H252.535C252.535 173.971 252.587 171.631 252.691 170.252H251.972C251.938 170.606 251.856 170.954 251.728 171.286C251.696 171.378 251.638 171.458 251.56 171.516C251.483 171.574 251.389 171.607 251.292 171.611C251.136 171.602 250.983 171.559 250.846 171.483C250.671 171.402 250.474 171.303 250.265 171.176C249.655 170.807 249.004 170.509 248.326 170.287C247.496 170.055 246.634 169.951 245.772 169.98C244.596 169.965 243.428 170.174 242.33 170.595C241.329 170.97 240.458 171.627 239.823 172.488C239.177 173.399 238.847 174.496 238.882 175.612C238.863 176.597 239.108 177.569 239.591 178.428C240.063 179.235 240.679 179.95 241.407 180.536C242.143 181.128 243.127 181.825 244.362 182.626C245.634 183.4 246.804 184.33 247.845 185.396C248.578 186.203 248.975 187.261 248.953 188.351C248.982 188.832 248.899 189.312 248.712 189.755C248.525 190.198 248.238 190.592 247.874 190.906C247.095 191.519 246.124 191.834 245.134 191.795C244.326 191.843 243.521 191.67 242.804 191.293C242.088 190.916 241.489 190.351 241.071 189.658C240.106 187.951 239.578 186.032 239.533 184.072H238.824C238.824 188.322 238.784 191.086 238.703 192.381H239.411C239.439 192.028 239.521 191.681 239.654 191.353C239.684 191.262 239.741 191.181 239.818 191.123C239.895 191.065 239.988 191.032 240.084 191.028C240.464 191.079 240.823 191.227 241.129 191.458C241.792 191.817 242.495 192.096 243.224 192.288C244.167 192.528 245.137 192.641 246.109 192.625Z" fill="white"/>
<path d="M95.228 92.1609H95.3905C96.3482 92.2073 97.6716 92.2364 99.3723 92.2364L101.694 92.2073H101.799C102.176 92.2073 102.698 92.2073 103.354 92.2073C105.39 92.2073 106.901 92.5209 107.887 93.148C108.348 93.4191 108.727 93.809 108.985 94.2768C109.244 94.7446 109.372 95.2732 109.356 95.8074C109.356 96.7528 109.035 97.67 108.445 98.4087C107.76 99.2621 106.875 99.9324 105.868 100.36C104.649 100.9 103.348 101.234 102.019 101.347C104.004 101.434 105.502 101.869 106.576 102.653C107.063 102.976 107.462 103.414 107.738 103.929C108.015 104.444 108.16 105.019 108.16 105.603C108.186 106.779 107.772 107.922 106.999 108.808C106.142 109.752 105.045 110.444 103.824 110.811C102.324 111.29 100.756 111.522 99.1808 111.497L97.602 111.468H97.0215C96.0986 111.468 95.2164 111.433 94.3863 111.433C92.5463 111.433 91.1416 111.433 90.1549 111.514L90.2652 110.968H90.4567C90.891 110.949 91.3216 110.879 91.7395 110.759C92.0673 110.653 92.3444 110.43 92.5173 110.132C92.7798 109.662 92.9752 109.158 93.0977 108.634L96.7023 95.099L96.7429 94.9248C96.8429 94.5451 96.9013 94.1557 96.9171 93.7635C96.9271 93.6119 96.8956 93.4605 96.8261 93.3254C96.7565 93.1904 96.6515 93.0769 96.5224 92.997C96.0721 92.7961 95.5812 92.7027 95.0887 92.7241L95.228 92.1609ZM100.452 101.689H99.2563L97.4395 108.582L97.4046 108.721C97.3111 109.077 97.2489 109.44 97.2189 109.807C97.2077 109.951 97.229 110.096 97.2813 110.23C97.3335 110.365 97.4153 110.486 97.5207 110.585C97.8163 110.788 98.1738 110.88 98.5307 110.846C99.5041 110.874 100.463 110.607 101.282 110.08C102.051 109.572 102.656 108.852 103.023 108.007C103.419 107.091 103.617 106.101 103.604 105.104C103.65 104.215 103.385 103.338 102.855 102.624C102.554 102.296 102.182 102.042 101.767 101.881C101.353 101.72 100.907 101.656 100.464 101.695L100.452 101.689ZM102.965 92.7067C102.543 92.6759 102.126 92.8137 101.804 93.0899C101.467 93.5514 101.239 94.0835 101.137 94.6461L99.3956 101.225H100.353C101.27 101.245 102.168 100.957 102.901 100.406C103.633 99.8435 104.199 99.093 104.538 98.2345C104.924 97.3152 105.121 96.328 105.119 95.3312C105.161 94.6433 104.993 93.9587 104.637 93.3686C104.439 93.1267 104.183 92.9391 103.892 92.8233C103.602 92.7075 103.287 92.6674 102.977 92.7067H102.965Z" fill="black"/>
<path d="M119.781 96.9685C120.506 96.941 121.221 97.1443 121.824 97.5492C122.081 97.7261 122.289 97.9654 122.428 98.2448C122.567 98.5241 122.633 98.8342 122.619 99.146C122.619 100.656 121.774 101.974 120.083 103.1C118.269 104.283 116.278 105.167 114.185 105.719C114.079 106.333 114.025 106.954 114.023 107.577C113.955 108.3 114.144 109.024 114.557 109.621C114.76 109.826 115.006 109.984 115.276 110.084C115.547 110.185 115.836 110.225 116.124 110.202C116.793 110.172 117.447 109.99 118.034 109.667C118.831 109.241 119.535 108.661 120.106 107.96L120.541 108.181L120.402 108.396C119.74 109.347 118.893 110.154 117.912 110.771C116.811 111.483 115.525 111.855 114.214 111.839C113.099 111.884 112.005 111.525 111.132 110.829C110.728 110.479 110.409 110.042 110.2 109.549C109.992 109.057 109.9 108.523 109.931 107.989C109.964 106.235 110.414 104.513 111.242 102.967C112.084 101.277 113.306 99.8064 114.812 98.6698C116.233 97.5659 117.982 96.9673 119.781 96.9685ZM119.2 97.4911C118.678 97.4911 118.074 97.8627 117.401 98.606C116.648 99.4798 116.024 100.458 115.549 101.509C114.991 102.681 114.569 103.912 114.29 105.179C115.369 104.737 116.369 104.121 117.25 103.356C117.969 102.723 118.56 101.958 118.991 101.103C119.409 100.26 119.624 99.3316 119.618 98.3911C119.635 98.1478 119.597 97.9038 119.508 97.6769C119.473 97.6225 119.423 97.5787 119.365 97.55C119.307 97.5214 119.242 97.5091 119.177 97.5143L119.2 97.4911Z" fill="black"/>
<path d="M126.63 111.868C127.563 111.886 128.488 111.7 129.341 111.322C130.062 111.001 130.681 110.486 131.129 109.836C131.549 109.201 131.767 108.454 131.755 107.693C131.752 107.056 131.628 106.426 131.39 105.835C131.036 105.013 130.62 104.22 130.148 103.46L129.764 102.88C129.312 102.148 128.987 101.585 128.795 101.184C128.601 100.766 128.504 100.309 128.511 99.8485C128.489 99.2277 128.696 98.6204 129.091 98.1414C129.288 97.9344 129.528 97.7722 129.793 97.666C130.059 97.5598 130.344 97.512 130.629 97.5259C130.963 97.5107 131.294 97.587 131.587 97.7466C131.342 98.0444 131.146 98.3796 131.007 98.7395C130.838 99.1419 130.753 99.5747 130.757 100.011C130.74 100.483 130.886 100.946 131.169 101.323C131.297 101.49 131.463 101.624 131.652 101.713C131.842 101.803 132.051 101.847 132.26 101.84C132.501 101.849 132.74 101.797 132.955 101.687C133.169 101.577 133.352 101.414 133.485 101.213C133.772 100.805 133.924 100.318 133.92 99.8195C133.959 99.3807 133.87 98.9401 133.664 98.5508C133.458 98.1614 133.144 97.8399 132.76 97.6246C131.842 97.1656 130.824 96.944 129.799 96.9801C128.491 96.9064 127.2 97.304 126.16 98.1008C125.732 98.451 125.39 98.8949 125.16 99.3983C124.931 99.9016 124.82 100.451 124.837 101.004C124.84 101.51 124.926 102.012 125.092 102.49C125.292 103.045 125.559 103.574 125.887 104.064L126.526 105.045C126.979 105.707 127.368 106.411 127.686 107.147C127.932 107.716 128.062 108.328 128.07 108.947C128.09 109.265 128.045 109.584 127.937 109.883C127.829 110.183 127.661 110.457 127.443 110.689C127.222 110.902 126.961 111.067 126.674 111.175C126.388 111.283 126.083 111.331 125.777 111.316C125.413 111.33 125.051 111.265 124.715 111.125C124.895 110.672 125.034 110.283 125.127 109.963C125.219 109.613 125.264 109.252 125.26 108.889C125.284 108.348 125.135 107.814 124.837 107.362C124.713 107.177 124.544 107.027 124.346 106.925C124.148 106.824 123.927 106.774 123.705 106.781C123.485 106.776 123.267 106.826 123.072 106.927C122.877 107.029 122.711 107.179 122.59 107.362C122.307 107.771 122.163 108.259 122.178 108.756C122.146 109.238 122.249 109.719 122.476 110.146C122.702 110.573 123.043 110.928 123.461 111.171C124.438 111.676 125.531 111.917 126.63 111.868Z" fill="black"/>
<path d="M137.757 111.868C139.777 111.868 141.132 110.794 141.82 108.645L142.366 107.066H141.849L141.437 108.181C141.224 108.821 140.887 109.413 140.445 109.923C140.302 110.095 140.126 110.236 139.926 110.336C139.726 110.436 139.507 110.493 139.284 110.504C139.071 110.513 138.863 110.44 138.703 110.3C138.626 110.22 138.567 110.124 138.529 110.019C138.491 109.914 138.475 109.802 138.483 109.691C138.484 109.506 138.511 109.322 138.564 109.145L141.809 97.8976H144.978L145.059 97.3518H141.977L143.26 92.9041C141.956 93.1633 140.63 93.2917 139.301 93.2873L138.14 97.3518H135.656L135.522 97.8976H137.978L135.244 107.525C135.086 108.059 135.004 108.612 135 109.168C134.98 109.527 135.032 109.886 135.151 110.225C135.271 110.564 135.456 110.875 135.697 111.142C135.973 111.397 136.298 111.593 136.652 111.718C137.006 111.842 137.382 111.894 137.757 111.868Z" fill="black"/>
<path d="M159.176 111.868C160.14 111.882 161.099 111.724 162.008 111.404C162.896 111.069 163.74 110.629 164.522 110.091C164.674 109.956 164.865 109.87 165.067 109.847C165.305 109.847 165.421 110.085 165.421 110.556C165.414 110.867 165.387 111.177 165.34 111.485H165.92C166.141 110.265 166.679 108.082 167.534 104.935H166.954C166.602 105.828 166.197 106.698 165.741 107.542C165.395 108.158 164.978 108.731 164.498 109.249C163.948 109.817 163.288 110.267 162.56 110.573C161.881 110.874 161.149 111.036 160.406 111.049C159.877 111.07 159.351 110.957 158.877 110.721C158.404 110.484 157.997 110.132 157.696 109.696C157.045 108.796 156.726 107.444 156.726 105.632C156.719 103.482 157.113 101.349 157.887 99.3435C158.567 97.4689 159.646 95.7649 161.051 94.3499C161.582 93.7686 162.223 93.2988 162.938 92.9678C163.652 92.6369 164.426 92.4514 165.212 92.4221C165.864 92.3737 166.515 92.5159 167.087 92.8314C167.659 93.1469 168.127 93.622 168.434 94.1989C168.764 94.8384 168.924 95.5524 168.898 96.2718C168.885 96.9948 168.811 97.7154 168.678 98.426H169.258C169.684 96.2939 170.266 94.1959 170.999 92.1492H170.419C170.024 93.2408 169.659 93.7866 169.328 93.7866C169.247 93.7769 169.169 93.7501 169.099 93.7081C169.029 93.666 168.968 93.6097 168.921 93.5428C168.453 93.0137 167.895 92.5714 167.273 92.2363C166.516 91.8915 165.689 91.7322 164.858 91.7718C162.504 91.7519 160.198 92.4309 158.23 93.7228C156.264 94.9856 154.646 96.7202 153.522 98.7686C152.436 100.701 151.865 102.881 151.862 105.098C151.862 107.281 152.472 108.955 153.69 110.12C154.909 111.285 156.738 111.868 159.176 111.868Z" fill="black"/>
<path d="M178.626 96.9687C179.222 96.9306 179.82 97.0139 180.382 97.2135C180.945 97.4131 181.461 97.7249 181.9 98.13C182.306 98.5822 182.618 99.111 182.818 99.6852C183.017 100.26 183.1 100.868 183.061 101.475C183.032 103.075 182.685 104.655 182.039 106.12C181.378 107.703 180.338 109.099 179.01 110.184C177.658 111.282 175.961 111.862 174.221 111.822C173.625 111.86 173.028 111.777 172.465 111.577C171.902 111.377 171.386 111.066 170.947 110.66C170.541 110.208 170.229 109.679 170.03 109.105C169.83 108.531 169.748 107.923 169.786 107.316C169.814 105.715 170.161 104.136 170.808 102.671C171.468 101.087 172.508 99.6905 173.838 98.6062C175.189 97.5086 176.886 96.9281 178.626 96.9687ZM178.487 97.5145C177.814 97.5145 177.077 98.1649 176.281 99.4539C175.397 100.939 174.717 102.536 174.262 104.204C173.744 105.898 173.468 107.658 173.443 109.429C173.413 109.914 173.487 110.398 173.658 110.852C173.719 110.988 173.82 111.102 173.948 111.18C174.075 111.257 174.223 111.295 174.372 111.288C175.039 111.288 175.776 110.66 176.566 109.406C177.444 107.943 178.118 106.367 178.568 104.72C179.093 102.999 179.368 101.212 179.387 99.4133C179.421 98.9081 179.348 98.4015 179.172 97.9268C179.106 97.805 179.006 97.7048 178.885 97.6379C178.763 97.571 178.625 97.5403 178.487 97.5494V97.5145Z" fill="black"/>
<path d="M201.653 111.868C203.452 111.868 204.677 110.927 205.333 109.058L206.018 107.066H205.478L204.99 108.373C204.462 109.813 203.887 110.527 203.249 110.527C202.901 110.527 202.727 110.341 202.727 109.946C202.745 109.677 202.8 109.411 202.889 109.157L205.565 101.103C205.803 100.465 205.933 99.7919 205.948 99.1113C205.964 98.8287 205.924 98.5459 205.83 98.2789C205.736 98.0119 205.591 97.7659 205.402 97.5551C205.175 97.3469 204.907 97.1879 204.615 97.0879C204.324 96.988 204.015 96.9494 203.708 96.9745C202.5 96.9711 201.339 97.4424 200.474 98.2867C199.538 99.1577 198.615 100.677 197.706 102.845L198.199 101.103C198.391 100.455 198.5 99.7862 198.524 99.1113C198.524 97.6887 197.81 96.9803 196.371 96.9803C195.742 96.9732 195.118 97.0958 194.539 97.3406C193.96 97.5854 193.437 97.947 193.004 98.4029C192.064 99.3474 191.149 100.929 190.259 103.147L190.839 100.824C190.99 100.291 191.072 99.7407 191.083 99.1867C191.111 98.6146 190.927 98.0521 190.566 97.6074C190.343 97.3936 190.075 97.231 189.783 97.1307C189.49 97.0304 189.179 96.995 188.871 97.0267C188.1 97.0191 187.344 97.2481 186.706 97.6828C185.985 98.2212 185.454 98.9759 185.191 99.8371L184.454 101.916H184.971L185.493 100.522C185.689 99.9356 185.969 99.3802 186.323 98.8732C186.421 98.7246 186.552 98.6013 186.706 98.5134C186.861 98.4256 187.034 98.3758 187.211 98.368C187.536 98.368 187.699 98.5596 187.699 98.9487C187.69 99.2186 187.645 99.486 187.565 99.7442L184.297 111.485H188.146L188.854 108.727V108.756C189.572 106.199 190.544 103.721 191.756 101.358C192.783 99.4654 193.706 98.5248 194.525 98.5248C194.815 98.5248 194.96 98.6932 194.96 99.0416C194.942 99.422 194.868 99.7977 194.74 100.156L191.419 111.485H195.32L196.028 108.947V109.029C196.794 106.316 197.851 103.693 199.18 101.207C200.225 99.419 201.125 98.5248 201.867 98.5248C202.123 98.5248 202.251 98.7048 202.251 99.0706C202.227 99.4409 202.153 99.8063 202.03 100.156L199.575 107.525C199.328 108.209 199.191 108.929 199.168 109.656C199.148 110.087 199.252 110.514 199.47 110.887C199.865 111.537 200.596 111.868 201.653 111.868Z" fill="black"/>
<path d="M216.872 92.7646L214.55 101.085L214.666 100.841C215.13 99.7714 215.794 98.7998 216.622 97.9789C217.244 97.3683 218.073 97.0156 218.944 96.9918C219.42 96.9606 219.897 97.0422 220.336 97.2299C220.774 97.4175 221.163 97.7059 221.469 98.0718C222.101 98.9857 222.404 100.087 222.328 101.196C222.3 102.824 221.964 104.432 221.336 105.934C220.711 107.535 219.735 108.976 218.48 110.149C217.327 111.271 215.781 111.897 214.173 111.891C213.688 111.896 213.207 111.813 212.751 111.647C212.349 111.505 211.993 111.258 211.718 110.933L210.98 113.552L210.934 113.715C210.863 113.984 210.825 114.261 210.818 114.539C210.796 114.746 210.836 114.955 210.933 115.139C211.03 115.323 211.18 115.474 211.364 115.573C211.916 115.796 212.51 115.899 213.105 115.875L212.942 116.455H212.316H212.072C210.505 116.409 209.407 116.386 208.792 116.38H208.63C208.034 116.38 206.751 116.416 204.781 116.49L204.95 115.909H205.095C205.546 115.932 205.992 115.807 206.366 115.555C206.728 115.19 206.975 114.725 207.074 114.22L212.014 96.504L211.84 96.8757C211.399 97.8127 210.872 98.7068 210.267 99.5466C209.534 100.537 208.731 101.472 207.863 102.345L207.567 101.991L207.782 101.753C208.483 100.979 209.075 100.3 209.558 99.715C210.152 98.9664 210.685 98.1723 211.155 97.3402C211.767 96.2372 212.3 95.0924 212.751 93.9143L212.832 93.5834H213.233C214.476 93.4704 215.704 93.2251 216.895 92.8518L216.872 92.7646ZM217.452 98.4376C216.907 98.4376 216.292 98.966 215.595 100.023C214.808 101.283 214.167 102.629 213.685 104.035L211.857 110.422L211.938 110.515C212.082 110.682 212.26 110.816 212.461 110.909C212.661 111.001 212.879 111.049 213.099 111.049C213.952 111.049 214.782 110.504 215.595 109.4C216.473 108.164 217.14 106.79 217.569 105.336C218.06 103.836 218.318 102.269 218.335 100.691C218.374 100.091 218.295 99.4889 218.103 98.9195C218.053 98.7837 217.964 98.6655 217.847 98.5798C217.73 98.4941 217.591 98.4447 217.447 98.4376H217.452Z" fill="black"/>
<path d="M237.664 96.9685L234.088 109.162L234.053 109.29C233.991 109.495 233.956 109.708 233.949 109.923C233.949 110.323 234.123 110.503 234.471 110.503C235.104 110.503 235.667 109.789 236.16 108.349L236.654 107.043H237.17L236.485 109.034L236.416 109.22C236.155 110.015 235.651 110.707 234.976 111.2C234.36 111.62 233.632 111.845 232.887 111.845C232.506 111.881 232.123 111.822 231.77 111.674C231.418 111.526 231.108 111.294 230.867 110.997C230.589 110.598 230.455 110.117 230.483 109.632C230.496 109.088 230.58 108.547 230.733 108.024C230.275 109.136 229.571 110.128 228.672 110.927C227.97 111.508 227.088 111.826 226.177 111.827C225.755 111.854 225.332 111.789 224.938 111.635C224.544 111.482 224.188 111.244 223.895 110.939C223.342 110.24 223.066 109.361 223.118 108.471C223.161 106.681 223.605 104.923 224.418 103.327C225.209 101.613 226.325 100.069 227.703 98.7801C229.034 97.5723 230.333 96.9685 231.598 96.9685C231.815 96.9586 232.032 96.9921 232.237 97.0668C232.441 97.1416 232.628 97.2562 232.788 97.404C233.114 97.7651 233.301 98.2301 233.316 98.7162L233.699 97.3807H234.094C235.292 97.3574 236.485 97.2233 237.658 96.9801L237.664 96.9685ZM232.12 97.9788C231.505 97.9788 230.797 98.5595 230.008 99.6453C229.133 100.93 228.452 102.337 227.988 103.82C227.453 105.385 227.173 107.026 227.158 108.68C227.132 109.119 227.193 109.559 227.337 109.975C227.378 110.095 227.456 110.199 227.561 110.27C227.666 110.341 227.791 110.376 227.918 110.37C228.184 110.331 228.439 110.236 228.667 110.094C228.894 109.951 229.09 109.762 229.241 109.54C229.83 108.808 230.316 107.999 230.687 107.136C231.223 105.935 231.646 104.687 231.952 103.408L231.819 104.064L233.02 99.7788V99.7208C233.027 99.6047 233.027 99.4884 233.02 99.3724C233.043 99.0109 232.963 98.6502 232.788 98.333C232.713 98.2264 232.613 98.1402 232.496 98.0824C232.38 98.0245 232.25 97.9969 232.12 98.002V97.9788Z" fill="black"/>
<path d="M249.284 111.868C251.066 111.868 252.285 110.927 252.941 109.058L253.62 107.066H253.103L252.61 108.373C252.429 108.985 252.138 109.56 251.751 110.068C251.65 110.202 251.52 110.313 251.372 110.392C251.224 110.471 251.06 110.517 250.892 110.527C250.549 110.527 250.375 110.341 250.375 109.946C250.388 109.676 250.442 109.41 250.538 109.157L253.214 101.103C253.427 100.477 253.546 99.8239 253.568 99.1635C253.568 97.7119 252.749 96.9803 251.113 96.9803C250.296 96.972 249.492 97.189 248.791 97.6074C247.948 98.1696 247.241 98.9111 246.719 99.779C245.863 101.146 245.145 102.595 244.577 104.105L245.418 100.801C245.56 100.286 245.634 99.7554 245.639 99.2216C245.639 97.7313 244.865 96.9841 243.317 96.9803C242.554 96.9596 241.806 97.1902 241.187 97.6364C240.52 98.2013 240.036 98.9508 239.794 99.7906L239.062 101.869H239.579L240.096 100.476C240.283 99.8754 240.565 99.3088 240.931 98.7977C241.037 98.6537 241.174 98.5358 241.332 98.4532C241.49 98.3706 241.665 98.3256 241.843 98.3216C242.15 98.3216 242.307 98.4842 242.307 98.8093C242.297 99.1081 242.242 99.4037 242.145 99.6861L238.807 111.485H242.655L243.009 110.12C243.572 108.174 244.254 106.263 245.053 104.401C245.684 102.87 246.461 101.404 247.374 100.023C248.148 98.9119 248.808 98.3564 249.354 98.3564C249.696 98.3564 249.87 98.5655 249.87 98.9835C249.848 99.3807 249.766 99.7723 249.627 100.145L247.171 107.513C246.913 108.206 246.766 108.935 246.736 109.673C246.719 110.127 246.843 110.575 247.09 110.957C247.353 111.277 247.69 111.528 248.073 111.687C248.456 111.846 248.872 111.908 249.284 111.868Z" fill="black"/>
<path d="M253.759 116.618C254.423 116.596 255.077 116.456 255.692 116.205C256.938 115.771 258.105 115.135 259.146 114.324C260.276 113.458 261.306 112.469 262.216 111.374C263.735 109.531 265.009 107.5 266.007 105.33C266.945 103.514 267.484 101.518 267.586 99.4768C267.586 97.8239 266.986 96.9955 265.786 96.9917C265.541 96.9786 265.295 97.0167 265.066 97.1037C264.836 97.1907 264.626 97.3245 264.451 97.4968C264.284 97.6785 264.154 97.8916 264.069 98.1239C263.984 98.3561 263.947 98.6028 263.958 98.8497C263.945 99.5735 264.187 100.279 264.643 100.841C265.133 101.478 265.757 101.999 266.471 102.368C266.164 103.552 265.734 104.7 265.188 105.794C264.589 107.008 263.897 108.173 263.116 109.278L261.857 99.9181C261.807 99.0688 261.492 98.2565 260.957 97.5955C260.712 97.3684 260.424 97.1931 260.11 97.0803C259.796 96.9676 259.462 96.9196 259.128 96.9394C258.419 96.9224 257.724 97.1431 257.155 97.5665C256.494 98.1457 256.014 98.9039 255.773 99.7497L255.094 101.747H255.611L256.104 100.406C256.286 99.8473 256.523 99.3085 256.812 98.7975C256.992 98.5246 257.184 98.3852 257.393 98.3852C257.48 98.3845 257.566 98.4086 257.64 98.4549C257.714 98.5012 257.773 98.5677 257.811 98.6465C257.958 98.9706 258.056 99.3151 258.101 99.6685L260.226 112.716C259.189 113.741 257.991 114.589 256.679 115.224C255.808 113.97 254.833 113.343 253.777 113.343C253.282 113.323 252.798 113.494 252.424 113.819C252.252 113.97 252.115 114.157 252.023 114.366C251.93 114.576 251.885 114.803 251.89 115.032C251.881 115.246 251.922 115.458 252.009 115.653C252.097 115.848 252.229 116.019 252.395 116.153C252.782 116.462 253.265 116.626 253.759 116.618Z" fill="black"/>
<path d="M211.863 31.3552H148.014C144.167 31.3552 141.048 34.4748 141.048 38.323V59.2264C141.048 63.0746 144.167 66.1942 148.014 66.1942H211.863C215.71 66.1942 218.828 63.0746 218.828 59.2264V38.323C218.828 34.4748 215.71 31.3552 211.863 31.3552Z" fill="#463A1C"/>
<path d="M168.103 56.3231V53.6695H161.602V53.5244L163.523 51.7185C164.478 50.8808 165.372 49.9766 166.199 49.0127C166.664 48.4542 167.043 47.83 167.325 47.1604C167.567 46.5448 167.69 45.8885 167.685 45.2269C167.701 44.4845 167.499 43.7537 167.105 43.1249C166.691 42.5 166.11 42.0048 165.427 41.6965C164.652 41.3425 163.807 41.1678 162.954 41.1856C162.31 41.1784 161.667 41.2486 161.039 41.3946C160.489 41.5214 159.956 41.7165 159.454 41.9752C158.804 42.3562 158.193 42.8017 157.632 43.3049L159.344 45.3314C159.866 44.8906 160.437 44.5107 161.045 44.1991C161.569 43.9421 162.144 43.8071 162.728 43.8043C163.208 43.7798 163.68 43.9351 164.051 44.2398C164.226 44.4142 164.361 44.6245 164.446 44.8561C164.531 45.0877 164.565 45.3351 164.545 45.5811C164.544 45.9785 164.469 46.3723 164.324 46.7424C164.135 47.1803 163.887 47.5905 163.587 47.9617C163.25 48.403 162.525 49.1869 161.416 50.325L157.672 54.1108V56.3231H168.103Z" fill="white"/>
<path d="M174.349 41.168C175.113 41.1267 175.874 41.2855 176.558 41.6286C177.242 41.9718 177.825 42.4875 178.249 43.1248C179.131 44.4332 179.573 46.3455 179.573 48.8617C179.573 51.4668 179.145 53.4023 178.29 54.6682C177.435 55.934 176.121 56.5591 174.349 56.5437C173.585 56.5839 172.824 56.424 172.141 56.0798C171.458 55.7356 170.876 55.219 170.454 54.5811C169.583 53.292 169.146 51.3836 169.142 48.8558C169.142 46.2236 169.568 44.2881 170.419 43.0493C171.272 41.8068 172.578 41.168 174.349 41.168ZM174.349 43.7171C173.988 43.7153 173.638 43.832 173.35 44.0492C173.063 44.2664 172.855 44.572 172.758 44.919C172.371 46.1956 172.208 47.5295 172.276 48.8617C172.207 50.1916 172.368 51.5234 172.752 52.7985C172.856 53.1394 173.068 53.4373 173.356 53.6469C173.644 53.8564 173.992 53.9663 174.349 53.9598C174.708 53.9587 175.057 53.8409 175.344 53.6241C175.631 53.4074 175.84 53.1034 175.939 52.7578C176.33 51.49 176.495 50.1634 176.427 48.8384C176.498 47.5053 176.331 46.1702 175.933 44.8958C175.829 44.556 175.619 44.2583 175.334 44.0463C175.049 43.8342 174.704 43.7189 174.349 43.7171Z" fill="white"/>
<path d="M191.205 56.3231V53.6696H184.704V53.5244L186.619 51.7186C187.575 50.8805 188.471 49.9763 189.301 49.0127C189.764 48.4542 190.141 47.8299 190.421 47.1605C190.668 46.546 190.792 45.8891 190.787 45.2269C190.803 44.4845 190.601 43.7538 190.206 43.1249C189.796 42.5021 189.218 42.0072 188.54 41.6965C187.767 41.3424 186.924 41.1677 186.074 41.1856C185.427 41.1785 184.782 41.2487 184.152 41.3946C183.604 41.5224 183.074 41.7174 182.573 41.9753C181.922 42.3573 181.309 42.8027 180.745 43.3049L182.457 45.3314C182.98 44.8891 183.553 44.5092 184.164 44.1991C184.688 43.9415 185.263 43.8065 185.847 43.8043C186.327 43.7799 186.799 43.9351 187.171 44.2398C187.343 44.4157 187.476 44.6263 187.561 44.8575C187.646 45.0887 187.681 45.3353 187.664 45.5811C187.664 45.9792 187.587 46.3735 187.438 46.7424C187.248 47.1791 187.002 47.589 186.706 47.9618C186.364 48.4031 185.638 49.1869 184.53 50.325L180.786 54.1108V56.3231H191.205Z" fill="white"/>
<path d="M200.12 56.3231V41.4004H197.526L192.708 45.2269L194.229 47.1256L195.97 45.7495C196.173 45.5869 196.551 45.2443 197.061 44.7159L197.009 46.272L196.98 47.6888V56.3231H200.12Z" fill="white"/>
</g>
<defs>
<clipPath id="clip0_3_675">
<rect width="359" height="299" fill="white"/>
</clipPath>
</defs>
</svg>
