<?xml version="1.0" encoding="UTF-8"?>
<svg width="70px" height="78px" viewBox="0 0 70 72" version="1.1" xmlns="http://www.w3.org/2000/svg" xmlns:xlink="http://www.w3.org/1999/xlink">
    <title>Ansible_logo</title>
    <g id="Homepage" stroke="none" stroke-width="1" fill="none" fill-rule="evenodd">
        <g id="Unified-Access-Homepage" transform="translate(-1322.000000, -4022.000000)" fill-rule="nonzero">
            <g id="block/integrations" transform="translate(0.000000, 3813.000000)">
                <g id="Ansible_logo" transform="translate(1322.000000, 209.500000)">
                    <g id="Group" transform="translate(0.000000, 0.500000)">
                        <path d="M69.9667954,34.9639139 C69.9667954,54.2289921 54.3507601,69.8448898 35.0854074,69.8448898 C15.8217026,69.8448898 0.20401919,54.2289921 0.20401919,34.9639139 C0.20401919,15.7002091 15.8217026,0.0825257738 35.0854074,0.0825257738 C54.3507601,0.0825257738 69.9667954,15.7002091 69.9667954,34.9639139" id="Path" fill="#1A1918"></path>
                        <path d="M35.6726188,21.3907107 L44.6992273,43.6693737 L31.0646894,32.9293494 L35.6726188,21.3907107 Z M51.7082185,48.801518 L37.8234527,15.3868886 C37.4270985,14.4231952 36.6345268,13.9132631 35.6726188,13.9132631 C34.7089255,13.9132631 33.8586724,14.4231952 33.4623179,15.3868886 L18.2228606,52.0385499 L23.4360339,52.0385499 L29.4686968,36.9269532 L47.4715109,51.4710738 C48.1955512,52.0565413 48.7179812,52.3213266 49.3971125,52.3213266 C50.7571602,52.3213266 51.9459489,51.3017373 51.9459489,49.8300346 C51.9459489,49.5905189 51.8613493,49.2103702 51.7082185,48.801518 L51.7082185,48.801518 Z" id="Shape" fill="#FFFFFF"></path>
                    </g>
                </g>
            </g>
        </g>
    </g>
</svg>
