<svg width="55" height="55" viewBox="0 0 55 55" fill="none" xmlns="http://www.w3.org/2000/svg">
<path d="M49.1071 0H5.89286C2.63832 0 0 2.63832 0 5.89286V49.1071C0 52.3617 2.63832 55 5.89286 55H49.1071C52.3617 55 55 52.3617 55 49.1071V5.89286C55 2.63832 52.3617 0 49.1071 0Z" fill="url(#paint0_linear_15_25)"/>
<path d="M18.9063 35.2344H35.2344V19.7656H18.9063V35.2344ZM36.9531 19.7656H39.5313V21.4844H36.9531V23.2031H39.5313V24.9219H36.9531V26.6406H39.5313V28.3594H36.9531V30.9375H39.5313V32.6563H36.9531V34.375H39.5313V36.0938H36.8354C36.6162 36.5982 36.1135 36.9531 35.53 36.9531H35.2344V39.5313H33.5156V36.9531H31.7969V39.5313H30.0781V36.9531H28.3594V39.5313H26.6406V36.9531H24.9219V39.5313H23.2031V36.9531H20.625V39.5313H18.9063V36.9531H18.6106C18.0271 36.9531 17.5244 36.5982 17.3052 36.0938H15.4688V34.375H17.1875V32.6563H15.4688V30.9375H17.1875V28.3594H15.4688V26.6406H17.1875V24.9219H15.4688V23.2031H17.1875V21.4844H15.4688V19.7656H17.1875V19.47C17.1875 18.6854 17.826 18.0469 18.6106 18.0469H18.9063V15.4688H20.625V18.0469H23.2031V15.4688H24.9219V18.0469H26.6406V15.4688H28.3594V18.0469H30.0781V15.4688H31.7969V18.0469H33.5156V15.4688H35.2344V18.0469H35.53C36.3146 18.0469 36.9531 18.6854 36.9531 19.47V19.7656ZM27.5 44.6875H10.3125V27.5H13.75V25.7813H10.1776C9.30359 25.7813 8.59375 26.492 8.59375 27.3651V44.8224C8.59375 45.6955 9.30359 46.4063 10.1776 46.4063H27.6349C28.5089 46.4063 29.2188 45.6955 29.2188 44.8224V41.25H27.5V44.6875ZM46.4063 10.1776V27.6349C46.4063 28.508 45.6964 29.2188 44.8224 29.2188H41.25V27.5H44.6875V10.3125H27.5V13.75H25.7813V10.1776C25.7813 9.30445 26.4911 8.59375 27.3651 8.59375H44.8224C45.6964 8.59375 46.4063 9.30445 46.4063 10.1776Z" fill="white"/>
<defs>
<linearGradient id="paint0_linear_15_25" x1="0" y1="55" x2="55" y2="0" gradientUnits="userSpaceOnUse">
<stop stop-color="#C8511B"/>
<stop offset="1" stop-color="#FF9900"/>
</linearGradient>
</defs>
</svg>
