<svg width="55" height="55" viewBox="0 0 55 55" fill="none" xmlns="http://www.w3.org/2000/svg">
<path d="M49 0H6C2.68629 0 0 2.68629 0 6V49C0 52.3137 2.68629 55 6 55H49C52.3137 55 55 52.3137 55 49V6C55 2.68629 52.3137 0 49 0Z" fill="url(#paint0_linear_15_30)"/>
<path d="M31.1207 13.7597H29.3879V12.0361H31.1207V10.3125H32.8536V12.0361H34.5864V13.7597H32.8536V15.4834H31.1207V13.7597ZM38.9185 20.6542H37.1857V18.9306H38.9185V17.207H40.6514V18.9306H42.3842V20.6542H40.6514V21.516V22.3778H38.9185V21.516V20.6542ZM35.9675 40.1104C34.6826 37.2811 32.1154 34.7284 29.2709 33.4504C32.1154 32.1723 34.6826 29.6188 35.9675 26.7894C37.2515 29.6188 39.8187 32.1723 42.6632 33.4504C39.8187 34.7284 37.2515 37.2811 35.9675 40.1104ZM46.3992 32.5886C41.9293 32.5886 36.8339 27.5194 36.8339 23.0742C36.8339 22.5976 36.4457 22.2124 35.9675 22.2124C35.4884 22.2124 35.1011 22.5976 35.1011 23.0742C35.1011 27.5194 30.0056 32.5886 25.5358 32.5886C25.0566 32.5886 24.6693 32.9738 24.6693 33.4504C24.6693 33.9261 25.0566 34.3122 25.5358 34.3122C30.0056 34.3122 35.1011 39.3805 35.1011 43.8257C35.1011 44.3014 35.4884 44.6875 35.9675 44.6875C36.4457 44.6875 36.8339 44.3014 36.8339 43.8257C36.8339 39.3805 41.9293 34.3122 46.3992 34.3122C46.8783 34.3122 47.2656 33.9261 47.2656 33.4504C47.2656 32.9738 46.8783 32.5886 46.3992 32.5886ZM19.424 15.4834C25.3105 15.4834 28.5215 17.1915 28.5215 18.0688C28.5215 18.9461 25.3105 20.6542 19.424 20.6542C13.5376 20.6542 10.3266 18.9461 10.3266 18.0688C10.3266 17.1915 13.5376 15.4834 19.424 15.4834ZM19.1234 28.5027C14.8155 28.5027 11.7146 27.5892 10.3266 26.6214V20.5077C12.3601 21.7392 15.9012 22.3778 19.424 22.3778C22.9469 22.3778 26.488 21.7392 28.5215 20.5077V26.0802C27.649 27.2884 24.0126 28.5027 19.1234 28.5027ZM28.5215 39.5097C28.5215 40.743 24.9761 42.5347 19.4206 42.5347C13.8694 42.5347 10.3266 40.743 10.3266 39.5097V35.7221C12.2665 36.8864 15.4948 37.606 19.1572 37.606C21.6854 37.606 24.1296 37.2509 26.04 36.6046L25.4812 34.9732C23.7466 35.5592 21.5 35.8824 19.1572 35.8824C14.5244 35.8824 11.206 34.6776 10.3266 33.5098V28.6061C12.3982 29.617 15.5797 30.2263 19.1234 30.2263C22.4929 30.2263 26.2913 29.6032 28.5215 28.2761V30.1341H30.2543V18.0688C30.2543 15.2395 24.8062 13.7597 19.424 13.7597C14.0418 13.7597 8.59375 15.2395 8.59375 18.0688V39.5097C8.59375 42.5942 14.1718 44.2583 19.4206 44.2583C24.6728 44.2583 30.2543 42.5942 30.2543 39.5097V37.0286H28.5215V39.5097Z" fill="white"/>
<defs>
<linearGradient id="paint0_linear_15_30" x1="0" y1="55" x2="55" y2="0" gradientUnits="userSpaceOnUse">
<stop stop-color="#2E27AD"/>
<stop offset="1" stop-color="#527FFF"/>
</linearGradient>
</defs>
</svg>
