<svg width="48" height="48" viewBox="0 0 48 48" fill="none" xmlns="http://www.w3.org/2000/svg">
<path d="M42 0H6C2.68629 0 0 2.68629 0 6V42C0 45.3137 2.68629 48 6 48H42C45.3137 48 48 45.3137 48 42V6C48 2.68629 45.3137 0 42 0Z" fill="#232F3E"/>
<path fill-rule="evenodd" clip-rule="evenodd" d="M29.388 36.3002C29.388 37.127 28.7154 37.8002 27.888 37.8002C27.0606 37.8002 26.388 37.127 26.388 36.3002C26.388 35.4734 27.0606 34.8002 27.888 34.8002C28.7154 34.8002 29.388 35.4734 29.388 36.3002ZM33.582 18.0002C33.297 18.0002 33.0504 18.2012 32.994 18.4808L30.4158 31.2002H12.4794L10.776 22.6826L9.59998 22.9178L11.4 31.9178C11.4558 32.1986 11.7018 32.4002 11.988 32.4002H28.2126L27.5166 33.638C26.2038 33.821 25.188 34.9382 25.188 36.3002C25.188 37.7888 26.3994 39.0002 27.888 39.0002C29.3766 39.0002 30.588 37.7888 30.588 36.3002C30.588 35.1386 29.847 34.1546 28.8156 33.7748L29.5884 32.4002H30.906C31.1916 32.4002 31.4376 32.1992 31.4946 31.9196L34.0728 19.2002H38.988V18.0002H33.582ZM15.888 37.8002C15.0606 37.8002 14.388 37.127 14.388 36.3002C14.388 35.4734 15.0606 34.8002 15.888 34.8002C16.7154 34.8002 17.388 35.4734 17.388 36.3002C17.388 37.127 16.7154 37.8002 15.888 37.8002ZM15.888 33.6002C14.3994 33.6002 13.188 34.8116 13.188 36.3002C13.188 37.7888 14.3994 39.0002 15.888 39.0002C17.3766 39.0002 18.588 37.7888 18.588 36.3002C18.588 34.8116 17.3766 33.6002 15.888 33.6002ZM16.188 10.5932L19.788 12.6716L16.188 14.75L12.588 12.6716L16.188 10.5932ZM25.788 10.5932L29.388 12.6716L25.788 14.75L22.188 12.6716L25.788 10.5932ZM26.388 19.946V15.7892L29.988 13.7108V17.8676L26.388 19.946ZM21.588 28.2866V24.1292L25.188 22.0508V26.2082L21.588 28.2866ZM16.788 22.0508L20.388 24.1292V28.2866L16.788 26.2082V22.0508ZM20.388 17.8676L16.788 19.946V15.7892L20.388 13.7108V17.8676ZM25.188 19.946L21.588 17.8676V13.7108L25.188 15.7892V19.946ZM20.988 23.09L17.3652 20.9984L20.988 18.9068L24.6108 20.9984L20.988 23.09ZM11.988 13.7108L15.588 15.7892V19.946L11.988 17.8676V13.7108ZM11.088 18.734L15.588 21.332V26.5544C15.588 26.7686 15.702 26.9666 15.888 27.074L20.688 29.8454C20.7804 29.8988 20.8842 29.9252 20.988 29.9252C21.0918 29.9252 21.1956 29.8988 21.288 29.8454L26.088 27.074C26.274 26.9666 26.388 26.7686 26.388 26.5544V21.332L30.888 18.734C31.074 18.6266 31.188 18.4286 31.188 18.2138V12.6716C31.188 12.4568 31.074 12.2588 30.888 12.1514L26.088 9.38055C25.9026 9.27315 25.6734 9.27315 25.488 9.38055L20.988 11.9786L16.488 9.38055C16.3026 9.27315 16.0734 9.27315 15.888 9.38055L11.088 12.1514C10.902 12.2588 10.788 12.4568 10.788 12.6716V18.2138C10.788 18.4286 10.902 18.6266 11.088 18.734Z" fill="white"/>
</svg>
