<svg width="55" height="55" viewBox="0 0 55 55" fill="none" xmlns="http://www.w3.org/2000/svg">
<path d="M49 0H6C2.68629 0 0 2.68629 0 6V49C0 52.3137 2.68629 55 6 55H49C52.3137 55 55 52.3137 55 49V6C55 2.68629 52.3137 0 49 0Z" fill="#232F3E"/>
<path fill-rule="evenodd" clip-rule="evenodd" d="M18.3346 23.9918C18.3346 24.5023 18.3898 24.9162 18.4863 25.2197C18.5967 25.5232 18.7347 25.8543 18.9278 26.2129C18.9968 26.3233 19.0244 26.4337 19.0244 26.5303C19.0244 26.6683 18.9417 26.8061 18.7623 26.9441L17.8931 27.5235C17.7689 27.6063 17.6449 27.6477 17.5345 27.6477C17.3965 27.6477 17.2586 27.5788 17.1206 27.4546C16.9275 27.2477 16.762 27.0269 16.624 26.8061C16.486 26.5716 16.3481 26.3095 16.1963 25.9922C15.1201 27.2615 13.7682 27.896 12.1403 27.896C10.9815 27.896 10.0572 27.5649 9.38125 26.9027C8.7053 26.2404 8.36035 25.3576 8.36035 24.2539C8.36035 23.0812 8.77424 22.1294 9.61582 21.412C10.4574 20.6946 11.5749 20.3359 12.9957 20.3359C13.4647 20.3359 13.9477 20.3772 14.4581 20.4463C14.9686 20.5153 15.4928 20.6256 16.0446 20.7498V19.7427C16.0446 18.6942 15.8238 17.9631 15.3961 17.5354C14.9546 17.1077 14.2097 16.9008 13.1474 16.9008C12.6646 16.9008 12.1679 16.9559 11.6575 17.0801C11.147 17.2043 10.6504 17.356 10.1676 17.5491C9.94683 17.6457 9.78132 17.7008 9.68476 17.7284C9.58819 17.7561 9.51925 17.7698 9.464 17.7698C9.27087 17.7698 9.17431 17.6317 9.17431 17.3421V16.6661C9.17431 16.4453 9.20193 16.2798 9.27087 16.1833C9.33981 16.0867 9.464 15.9901 9.65713 15.8936C10.14 15.6452 10.7195 15.4383 11.3954 15.2728C12.0715 15.0934 12.7888 15.0107 13.5476 15.0107C15.1893 15.0107 16.3895 15.3831 17.1621 16.1282C17.9209 16.8732 18.3071 18.0043 18.3071 19.5219V23.9917H18.3348L18.3346 23.9918ZM12.7335 26.0888C13.1888 26.0888 13.6578 26.006 14.1545 25.8405C14.6511 25.675 15.0926 25.3715 15.4651 24.9576C15.6858 24.6955 15.8513 24.4057 15.9342 24.0747C16.017 23.7436 16.0721 23.3435 16.0721 22.8745V22.2951C15.672 22.1985 15.2443 22.1158 14.8029 22.0605C14.3614 22.0054 13.9339 21.9778 13.5062 21.9778C12.5818 21.9778 11.9059 22.1571 11.4505 22.5297C10.9952 22.9021 10.7746 23.4264 10.7746 24.1161C10.7746 24.7646 10.9401 25.2474 11.285 25.5784C11.6162 25.9234 12.099 26.0889 12.7336 26.0889L12.7335 26.0888ZM23.8115 27.5787C23.5631 27.5787 23.3976 27.5374 23.2872 27.4407C23.1768 27.3579 23.0803 27.1648 22.9975 26.9026L19.7555 16.2385C19.6727 15.9626 19.6313 15.7833 19.6313 15.6868C19.6313 15.466 19.7417 15.3418 19.9624 15.3418H21.3145C21.5765 15.3418 21.756 15.3833 21.8525 15.4798C21.9629 15.5626 22.0457 15.7557 22.1284 16.0179L24.4461 25.1506L26.5983 16.0179C26.6672 15.742 26.75 15.5626 26.8603 15.4798C26.9707 15.3971 27.1638 15.3418 27.4122 15.3418H28.5159C28.7779 15.3418 28.9574 15.3833 29.0678 15.4798C29.1781 15.5626 29.2747 15.7557 29.3298 16.0179L31.5095 25.261L33.8962 16.0179C33.979 15.742 34.0756 15.5626 34.1721 15.4798C34.2825 15.3971 34.4618 15.3418 34.7102 15.3418H35.9932C36.2139 15.3418 36.3381 15.4522 36.3381 15.6868C36.3381 15.7557 36.3243 15.8248 36.3105 15.9075C36.2967 15.9903 36.2691 16.1007 36.2139 16.2525L32.8892 26.9165C32.8064 27.1924 32.7098 27.3717 32.5995 27.4546C32.4891 27.5374 32.3098 27.5926 32.0752 27.5926H30.8888C30.6266 27.5926 30.4473 27.5512 30.3369 27.4546C30.2265 27.358 30.13 27.1787 30.0748 26.9027L27.9365 18.0044L25.8119 26.8889C25.743 27.1648 25.6601 27.3441 25.5497 27.4407C25.4394 27.5372 25.2462 27.5787 24.998 27.5787H23.8116H23.8115ZM41.5389 27.9511C40.8215 27.9511 40.1041 27.8684 39.4144 27.7029C38.7246 27.5374 38.1865 27.3579 37.8279 27.151C37.6071 27.0268 37.4555 26.8889 37.4002 26.7647C37.3451 26.6405 37.3175 26.5026 37.3175 26.3784V25.6749C37.3175 25.3852 37.4278 25.2472 37.6348 25.2472C37.7175 25.2472 37.8003 25.261 37.883 25.2886C37.9658 25.3162 38.09 25.3714 38.228 25.4266C38.697 25.6336 39.2074 25.7991 39.7455 25.9094C40.2974 26.0198 40.8353 26.0749 41.3872 26.0749C42.2563 26.0749 42.9324 25.9231 43.4014 25.6196C43.8704 25.3161 44.1188 24.8746 44.1188 24.309C44.1188 23.9228 43.9946 23.6054 43.7463 23.3434C43.498 23.0812 43.029 22.8467 42.353 22.626L40.3526 22.0052C39.3456 21.6878 38.6005 21.2188 38.1453 20.598C37.6901 19.991 37.4556 19.315 37.4556 18.5976C37.4556 18.0183 37.5798 17.5078 37.828 17.0663C38.0763 16.6248 38.4074 16.2385 38.8213 15.935C39.2352 15.6177 39.7042 15.3833 40.2561 15.2176C40.808 15.052 41.3874 14.9831 41.9944 14.9831C42.2979 14.9831 42.6152 14.9969 42.9187 15.0382C43.236 15.0796 43.5257 15.1348 43.8154 15.1899C44.0913 15.2588 44.3535 15.3279 44.6017 15.4106C44.85 15.4934 45.0433 15.5761 45.1811 15.659C45.3743 15.7694 45.5123 15.8798 45.595 16.0038C45.6778 16.1142 45.7192 16.266 45.7192 16.4592V17.1076C45.7192 17.3973 45.6088 17.5491 45.4019 17.5491C45.2915 17.5491 45.1122 17.4939 44.8776 17.3835C44.0913 17.0249 43.2083 16.8454 42.2288 16.8454C41.4425 16.8454 40.8217 16.9696 40.394 17.2317C39.9663 17.4937 39.7455 17.8938 39.7455 18.4595C39.7455 18.8458 39.8835 19.1769 40.1594 19.439C40.4353 19.701 40.9457 19.9632 41.6769 20.1977L43.636 20.8185C44.6292 21.1358 45.3466 21.5773 45.7743 22.1429C46.202 22.7085 46.409 23.3569 46.409 24.0743C46.409 24.6675 46.2848 25.2056 46.0503 25.6746C45.802 26.1438 45.4709 26.5575 45.0433 26.8886C44.6156 27.2335 44.1051 27.4819 43.5119 27.6612C42.8911 27.8543 42.2428 27.9509 41.539 27.9509L41.5389 27.9511Z" fill="white"/>
<path fill-rule="evenodd" clip-rule="evenodd" d="M44.1464 34.656C39.6076 38.0084 33.0132 39.788 27.3433 39.788C19.3969 39.788 12.237 36.8495 6.82902 31.9659C6.40132 31.5796 6.78771 31.0554 7.29816 31.3589C13.1475 34.7526 20.3628 36.8082 27.8261 36.8082C32.8616 36.8082 38.3936 35.7597 43.4843 33.6075C44.243 33.2625 44.8915 34.1041 44.1464 34.656Z" fill="#FF9900"/>
<path fill-rule="evenodd" clip-rule="evenodd" d="M46.0365 32.5038C45.4571 31.7588 42.2013 32.1451 40.7252 32.3245C40.2837 32.3796 40.2147 31.9934 40.6148 31.7037C43.2084 29.8827 47.4713 30.4069 47.9679 31.0139C48.4645 31.6348 47.8299 35.8977 45.402 37.9393C45.0295 38.2567 44.6708 38.0912 44.8364 37.6773C45.3883 36.3114 46.616 33.235 46.0366 32.5038H46.0365Z" fill="#FF9900"/>
</svg>
