<svg width="55" height="55" viewBox="0 0 55 55" fill="none" xmlns="http://www.w3.org/2000/svg">
<path d="M49.1071 0H5.89286C2.63832 0 0 2.63832 0 5.89286V49.1071C0 52.3617 2.63832 55 5.89286 55H49.1071C52.3617 55 55 52.3617 55 49.1071V5.89286C55 2.63832 52.3617 0 49.1071 0Z" fill="url(#paint0_linear_15_40)"/>
<path d="M32.4053 21.4847L28.0586 26.9331L32.6279 32.6745H30.7244L26.6406 27.5003V32.6564H24.9219V21.4847H26.6406V25.9886L30.476 21.4847H32.4053ZM42.9688 31.266L37.8125 28.6879V21.4847C37.8125 21.1728 37.6432 20.8849 37.3699 20.7336L30.0781 16.6826V10.9567L42.9688 18.5388V31.266ZM44.2638 17.3065L29.6545 8.71287C29.3898 8.55733 29.0598 8.55475 28.7925 8.70772C28.5244 8.86068 28.3594 9.14513 28.3594 9.45364V17.1879C28.3594 17.4999 28.5287 17.7877 28.802 17.939L36.0938 21.99V29.219C36.0938 29.5447 36.2777 29.842 36.569 29.9881L43.444 33.4256C43.5652 33.4857 43.6966 33.5158 43.8281 33.5158C43.9854 33.5158 44.1418 33.4728 44.2793 33.3878C44.5328 33.2305 44.6875 32.9546 44.6875 32.6564V18.0473C44.6875 17.7431 44.5259 17.4612 44.2638 17.3065ZM27.5 44.5397L12.8906 35.6118V18.5234L24.9219 11.0039V16.7118L18.4508 20.756C18.1998 20.9132 18.0469 21.1882 18.0469 21.4847V32.6564C18.0469 32.9581 18.2059 33.2382 18.4637 33.3929L27.0574 38.5491C27.3187 38.7064 27.6435 38.7132 27.9116 38.5671L36.9428 33.6413L41.2801 36.1188L27.5 44.5397ZM43.395 35.348L37.3794 31.9105C37.1198 31.7618 36.8027 31.7593 36.5415 31.9019L27.5198 36.8226L19.7656 32.17V21.9608L26.2367 17.9166C26.4877 17.7594 26.6406 17.4844 26.6406 17.1879V9.45364C26.6406 9.14083 26.4713 8.85381 26.1972 8.7017C25.9256 8.54959 25.5905 8.55905 25.3258 8.7249L11.5758 17.3185C11.3248 17.4758 11.1719 17.7508 11.1719 18.0473V36.0939C11.1719 36.393 11.3283 36.6705 11.5835 36.8278L27.0523 46.2808C27.1898 46.3641 27.3445 46.4063 27.5 46.4063C27.6555 46.4063 27.8102 46.3641 27.9477 46.2808L43.4165 36.8278C43.676 36.6688 43.8324 36.3852 43.8283 36.081C43.8238 35.7776 43.6588 35.4984 43.395 35.348Z" fill="white"/>
<defs>
<linearGradient id="paint0_linear_15_40" x1="0" y1="55" x2="55" y2="0" gradientUnits="userSpaceOnUse">
<stop offset="0.000801567" stop-color="#3231B6"/>
<stop offset="1" stop-color="#5079F9"/>
</linearGradient>
</defs>
</svg>
