<svg width="55" height="55" viewBox="0 0 55 55" fill="none" xmlns="http://www.w3.org/2000/svg">
<path d="M49.1071 0H5.89286C2.63832 0 0 2.63832 0 5.89286V49.1071C0 52.3617 2.63832 55 5.89286 55H49.1071C52.3617 55 55 52.3617 55 49.1071V5.89286C55 2.63832 52.3617 0 49.1071 0Z" fill="url(#paint0_linear_15_14)"/>
<path fill-rule="evenodd" clip-rule="evenodd" d="M27.3696 8.97807C27.5374 8.92257 27.7188 8.92405 27.8857 8.98229L42.6603 14.1385C42.9872 14.2526 43.204 14.5636 43.198 14.9099C43.1919 15.2561 42.9644 15.5593 42.6336 15.6619L27.8591 20.2452C27.7082 20.2921 27.5468 20.2933 27.3952 20.2487L11.8052 15.6654C11.4685 15.5664 11.2353 15.2601 11.2294 14.9093C11.2236 14.5584 11.4464 14.2445 11.7795 14.1343L27.3696 8.97807ZM14.7219 14.8508L27.6152 18.6413L39.8334 14.851L27.6145 10.5867L14.7219 14.8508ZM10.4221 17.3964C10.6345 17.246 10.9066 17.208 11.1521 17.2945L26.1901 22.5919C26.511 22.705 26.7257 23.0082 26.7257 23.3484V45.2604C26.7257 45.5226 26.5975 45.7683 26.3824 45.9183C26.1673 46.0683 25.8925 46.1037 25.6464 46.0131L10.6084 40.4749C10.293 40.3587 10.0835 40.0583 10.0835 39.7222V18.051C10.0835 17.7908 10.2097 17.5468 10.4221 17.3964ZM44.5782 17.3964C44.7906 17.5468 44.9168 17.7908 44.9168 18.051V39.7222C44.9168 40.0583 44.7073 40.3587 44.3919 40.4749L29.3539 46.0131C29.1078 46.1037 28.833 46.0683 28.6179 45.9183C28.4028 45.7683 28.2746 45.5226 28.2746 45.2604V23.3484C28.2746 23.0082 28.4893 22.705 28.8102 22.5919L43.8483 17.2945C44.0937 17.208 44.3658 17.246 44.5782 17.3964ZM11.6877 19.184V39.1629L25.1215 44.1103V23.9163L11.6877 19.184ZM29.8788 23.9163V44.1103L43.3127 39.1629V19.184L29.8788 23.9163Z" fill="white"/>
<defs>
<linearGradient id="paint0_linear_15_14" x1="0" y1="55" x2="55" y2="0" gradientUnits="userSpaceOnUse">
<stop stop-color="#C8511B"/>
<stop offset="1" stop-color="#FF9900"/>
</linearGradient>
</defs>
</svg>
