<svg width="55" height="55" viewBox="0 0 55 55" fill="none" xmlns="http://www.w3.org/2000/svg">
<path d="M49.1071 0H5.89286C2.63832 0 0 2.63832 0 5.89286V49.1071C0 52.3617 2.63832 55 5.89286 55H49.1071C52.3617 55 55 52.3617 55 49.1071V5.89286C55 2.63832 52.3617 0 49.1071 0Z" fill="url(#paint0_linear_15_35)"/>
<path d="M46.4063 9.45313V16.3281H44.6875V11.5277L39.2795 16.9357L38.0643 15.7205L43.4723 10.3125H38.7793V8.59375H45.5469C46.0221 8.59375 46.4063 8.97875 46.4063 9.45313ZM10.3125 16.2207H8.59375V9.45313C8.59375 8.97875 8.97789 8.59375 9.45313 8.59375H16.3281V10.3125H11.5277L16.9357 15.7205L15.7205 16.9357L10.3125 11.5277V16.2207ZM16.9357 39.2795L11.5277 44.6875H16.2207V46.4063H9.45313C8.97789 46.4063 8.59375 46.0213 8.59375 45.5469V38.6719H10.3125V43.4723L15.7205 38.0643L16.9357 39.2795ZM44.2578 27.3118C44.2578 25.2244 41.7948 23.1447 37.669 21.7482L38.2198 20.1205C43.1492 21.7886 45.9766 24.4097 45.9766 27.3118C45.9766 30.2139 43.1492 32.835 38.2198 34.5039L37.669 32.8754C41.7948 31.4798 44.2578 29.3992 44.2578 27.3118ZM10.7791 27.3118C10.7791 29.309 13.0831 31.3328 16.9426 32.7259L16.3582 34.3415C11.721 32.6683 9.06039 30.1065 9.06039 27.3118C9.06039 24.518 11.721 21.9553 16.3582 20.2821L16.9426 21.8986C13.0831 23.2916 10.7791 25.3155 10.7791 27.3118ZM44.6875 38.7793H46.4063V45.5469C46.4063 46.0213 46.0221 46.4063 45.5469 46.4063H38.6719V44.6875H43.4723L38.0643 39.2795L39.2795 38.0643L44.6875 43.4723V38.7793ZM27.5189 26.9861C23.2023 26.9861 20.7333 25.832 20.625 25.337V22.5646C22.4804 23.4317 25.4452 23.7127 27.5 23.7127C29.5548 23.7127 32.5196 23.4317 34.375 22.5646V25.337C34.2839 25.8302 31.8407 26.9861 27.5189 26.9861ZM27.5189 31.9086C23.2023 31.9086 20.7333 30.7536 20.625 30.2586V27.4622C22.3034 28.3052 24.9691 28.7048 27.5189 28.7048C30.0549 28.7048 32.7035 28.3061 34.375 27.4656V30.2586C34.2839 30.7527 31.8416 31.9086 27.5189 31.9086ZM27.5 36.3241C23.1602 36.3241 20.7144 35.163 20.625 34.6723V32.3838C22.3034 33.2277 24.9691 33.6273 27.5189 33.6273C30.0549 33.6273 32.7035 33.2286 34.375 32.3873V34.6689C34.2856 35.163 31.8398 36.3241 27.5 36.3241ZM27.5 19.0721C31.772 19.0721 34.0673 20.0836 34.3595 20.5339C34.0673 20.9834 31.772 21.994 27.5 21.994C23.1249 21.994 20.8252 20.9352 20.625 20.5812V20.5648C20.8252 20.1317 23.1249 19.0721 27.5 19.0721ZM27.5 17.3534C24.3083 17.3534 18.9063 18.0237 18.9063 20.5339V34.6723C18.9063 36.9884 23.3612 38.0428 27.5 38.0428C31.6388 38.0428 36.0938 36.9884 36.0938 34.6723V20.5339C36.0938 18.0237 30.6917 17.3534 27.5 17.3534Z" fill="white"/>
<defs>
<linearGradient id="paint0_linear_15_35" x1="0" y1="55" x2="55" y2="0" gradientUnits="userSpaceOnUse">
<stop stop-color="#2E27AD"/>
<stop offset="1" stop-color="#527FFF"/>
</linearGradient>
</defs>
</svg>
