<svg width="55" height="55" viewBox="0 0 55 55" fill="none" xmlns="http://www.w3.org/2000/svg">
<path d="M49 0H6C2.68629 0 0 2.68629 0 6V49C0 52.3137 2.68629 55 6 55H49C52.3137 55 55 52.3137 55 49V6C55 2.68629 52.3137 0 49 0Z" fill="url(#paint0_linear_15_56)"/>
<path fill-rule="evenodd" clip-rule="evenodd" d="M35.0886 37.5997C36.4813 37.5997 37.6166 36.4654 37.6166 35.0689C37.6166 33.6746 36.4813 32.5381 35.0886 32.5381C33.6959 32.5381 32.5606 33.6746 32.5606 35.0689C32.5606 36.4654 33.6959 37.5997 35.0886 37.5997ZM43.2569 44.8333L41.797 43.3875L40.3595 44.8288L38.7742 43.244L40.2072 41.8094L37.5225 39.1486C36.8082 39.579 35.9798 39.8413 35.0886 39.8413C32.4599 39.8413 30.3215 37.7005 30.3215 35.0689C30.3215 32.4373 32.4599 30.2965 35.0886 30.2965C37.7173 30.2965 39.8557 32.4373 39.8557 35.0689C39.8557 35.9947 39.5803 36.851 39.1235 37.5817L44.8332 43.2396L43.2569 44.8333ZM28.9937 24.9884C28.9937 22.6683 27.5562 21.227 25.2387 21.227C22.9212 21.227 21.4837 22.6683 21.4837 24.9884C21.4837 27.3062 22.9212 28.7476 25.2387 28.7476C27.5562 28.7476 28.9937 27.3062 28.9937 24.9884ZM31.1343 26.1092C30.6641 29.0278 28.3779 30.9892 25.2387 30.9892C21.7076 30.9892 19.2446 28.5212 19.2446 24.9884C19.2446 21.4534 21.7076 18.9854 25.2387 18.9854C28.3779 18.9854 30.6641 20.9468 31.1343 23.8676H37.3277V26.1092H31.1343ZM14.9768 37.2746H28.3712V39.5162H14.9365C13.9558 39.5162 12.7377 39.5162 12.7377 37.7857V31.7468H10.4583V27.2636H12.7377V20.3259H10.4583V15.8427H12.7377V12.1911C12.7377 10.4583 13.9558 10.4583 14.9365 10.4583H39.5668C40.6103 10.4583 41.7925 10.4583 41.7925 12.1911V28.3441H39.5534V12.6999H14.979L14.9768 37.2746Z" fill="white"/>
<defs>
<linearGradient id="paint0_linear_15_56" x1="0" y1="55" x2="55" y2="0" gradientUnits="userSpaceOnUse">
<stop stop-color="#BD0816"/>
<stop offset="1" stop-color="#FF5252"/>
</linearGradient>
</defs>
</svg>
