<svg width="55" height="55" viewBox="0 0 55 55" fill="none" xmlns="http://www.w3.org/2000/svg">
<path d="M49 0H6C2.68629 0 0 2.68629 0 6V49C0 52.3137 2.68629 55 6 55H49C52.3137 55 55 52.3137 55 49V6C55 2.68629 52.3137 0 49 0Z" fill="url(#paint0_linear_15_17)"/>
<path fill-rule="evenodd" clip-rule="evenodd" d="M18.9062 13.75H21.4844V12.0312H18.9062V13.75ZM15.4688 13.75H18.0469V12.0312H15.4688V13.75ZM12.0312 13.75H14.6094V12.0312H12.0312V13.75ZM10.3125 15.4688H44.6875V10.3125H10.3125V15.4688ZM45.5469 8.59375H9.45312C8.97789 8.59375 8.59375 8.97875 8.59375 9.45312V45.5469C8.59375 46.0212 8.97789 46.4062 9.45312 46.4062H31.7969V44.6875H10.3125V17.1875H44.6875V44.6875H40.3906V46.4062H45.5469C46.0221 46.4062 46.4062 46.0212 46.4062 45.5469V9.45312C46.4062 8.97875 46.0221 8.59375 45.5469 8.59375ZM27.5 34.2177C25.6223 34.2177 24.0952 32.6906 24.0952 30.8129C24.0952 28.9352 25.6223 27.4089 27.5 27.4089C29.3777 27.4089 30.9048 28.9352 30.9048 30.8129C30.9048 32.6906 29.3777 34.2177 27.5 34.2177ZM27.5 25.6902C24.6752 25.6902 22.3764 27.9881 22.3764 30.8129C22.3764 33.6385 24.6752 35.9365 27.5 35.9365C30.3248 35.9365 32.6236 33.6385 32.6236 30.8129C32.6236 27.9881 30.3248 25.6902 27.5 25.6902ZM37.2995 32.022L36.4392 31.973C36.0482 31.9447 35.6452 32.2309 35.5523 32.6416C35.3461 33.5552 34.9877 34.4205 34.4867 35.2155C34.2624 35.5704 34.3277 36.0353 34.6414 36.3155L35.2842 36.8878L33.5749 38.5971L33.0043 37.9577C32.7241 37.6432 32.2584 37.5796 31.9043 37.803C31.1102 38.3049 30.2431 38.6641 29.3279 38.8704C28.918 38.9632 28.6352 39.3387 28.6602 39.7581L28.7083 40.6132H26.2917L26.3398 39.7573C26.3648 39.337 26.082 38.9623 25.6721 38.8695C24.7595 38.6633 23.8932 38.3041 23.0974 37.8013C22.7434 37.5779 22.2759 37.6406 21.9974 37.956L21.4251 38.598L19.7158 36.8878L20.3569 36.3172C20.6705 36.037 20.7359 35.5721 20.5116 35.2163C20.0105 34.424 19.6522 33.5577 19.4459 32.6416C19.3531 32.2309 18.9544 31.9447 18.5591 31.973L17.7005 32.022V29.6046L18.5625 29.6536C18.975 29.6699 19.3548 29.3949 19.4494 28.9859C19.6556 28.0741 20.0148 27.2095 20.5167 26.4155C20.741 26.0605 20.6757 25.5948 20.362 25.3155L19.7158 24.738L21.4251 23.0287L22.0017 23.6741C22.2802 23.9877 22.7477 24.0522 23.1009 23.8296C23.8941 23.3295 24.7586 22.9711 25.6712 22.7657C26.082 22.6729 26.3648 22.2973 26.3398 21.878L26.2917 21.0134H28.7083L28.6602 21.8788C28.6352 22.2982 28.918 22.6737 29.3279 22.7657C30.2397 22.972 31.1042 23.3303 31.8974 23.8305C32.2498 24.0539 32.7164 23.9903 32.9966 23.6758L33.5741 23.0287L35.2842 24.738L34.6397 25.3137C34.326 25.593 34.2607 26.058 34.485 26.4138C34.986 27.207 35.3452 28.0723 35.5515 28.985C35.6443 29.3949 36.0482 29.6699 36.4384 29.6536L37.2995 29.6046V32.022ZM38.1107 27.8369L37.0408 27.897C36.8534 27.2852 36.6085 26.6948 36.3069 26.1293L37.1078 25.4152C37.284 25.2579 37.388 25.0345 37.3948 24.7981C37.4009 24.5618 37.3098 24.3332 37.143 24.1665L34.1464 21.1698C33.9797 21.0023 33.7623 20.9052 33.5148 20.9189C33.2784 20.9258 33.055 21.0289 32.8977 21.2059L32.1802 22.0095C31.6164 21.7087 31.0269 21.4638 30.4159 21.2773L30.476 20.2022C30.4898 19.9667 30.4055 19.7355 30.2423 19.5637C30.0807 19.3918 29.8547 19.2947 29.6184 19.2947H25.3816C25.1453 19.2947 24.9193 19.3918 24.7577 19.5637C24.5945 19.7355 24.5102 19.9667 24.524 20.2022L24.5841 21.2764C23.9731 21.4629 23.3819 21.707 22.8181 22.0077L22.1023 21.2059C21.945 21.0289 21.7216 20.9258 21.4852 20.9189C21.2429 20.9077 21.0212 21.0023 20.8536 21.1698L17.857 24.1665C17.6902 24.3332 17.5991 24.5618 17.6052 24.7981C17.612 25.0345 17.716 25.2579 17.8922 25.4152L18.6948 26.131C18.3932 26.6956 18.1474 27.286 17.9609 27.8979L16.8893 27.8369C16.6512 27.8266 16.4209 27.9082 16.2508 28.0698C16.0789 28.2322 15.9818 28.4582 15.9818 28.6945V32.9312C15.9818 33.1676 16.0789 33.3936 16.2508 33.556C16.4209 33.7184 16.6521 33.8009 16.8893 33.7898L17.9566 33.7288C18.1423 34.3423 18.388 34.9345 18.6897 35.5008L17.893 36.2106C17.716 36.3679 17.612 36.5913 17.6052 36.8277C17.5991 37.064 17.6902 37.2934 17.857 37.4602L20.8536 40.4559C21.0203 40.6235 21.2403 40.7146 21.4852 40.7077C21.7216 40.7009 21.945 40.5969 22.1023 40.4207L22.813 39.6232C23.3793 39.9257 23.9723 40.1715 24.5841 40.358L24.524 41.4236C24.5102 41.6599 24.5945 41.8911 24.7577 42.0621C24.9193 42.2348 25.1453 42.332 25.3816 42.332H29.6184C29.8547 42.332 30.0807 42.2348 30.2423 42.0621C30.4055 41.8911 30.4898 41.6599 30.476 41.4236L30.4159 40.3597C31.0286 40.1732 31.6224 39.9274 32.1888 39.6249L32.8977 40.4207C33.055 40.5969 33.2784 40.7009 33.5148 40.7077C33.7648 40.7163 33.9797 40.6235 34.1464 40.4559L37.143 37.4602C37.3098 37.2934 37.4009 37.064 37.3948 36.8277C37.388 36.5913 37.284 36.3679 37.1078 36.2106L36.3086 35.4991C36.6102 34.9327 36.8552 34.3406 37.0416 33.7288L38.1107 33.7898C38.3445 33.8001 38.5782 33.7184 38.7492 33.556C38.9211 33.3936 39.0182 33.1676 39.0182 32.9312V28.6945C39.0182 28.4582 38.9211 28.2322 38.7492 28.0698C38.5782 27.9082 38.3453 27.8266 38.1107 27.8369Z" fill="white"/>
<defs>
<linearGradient id="paint0_linear_15_17" x1="0" y1="55" x2="55" y2="0" gradientUnits="userSpaceOnUse">
<stop stop-color="#B0084D"/>
<stop offset="1" stop-color="#FF4F8B"/>
</linearGradient>
</defs>
</svg>
