<?xml version="1.0" encoding="UTF-8"?>
<svg width="76px" height="77px" viewBox="0 0 76 77" version="1.1" xmlns="http://www.w3.org/2000/svg" xmlns:xlink="http://www.w3.org/1999/xlink">
    <title>Chef_logo</title>
    <g id="Homepage" stroke="none" stroke-width="1" fill="none" fill-rule="evenodd">
        <g id="Unified-Access-Homepage" transform="translate(-1006.000000, -4017.000000)" fill-rule="nonzero">
            <g id="block/integrations" transform="translate(0.000000, 3813.000000)">
                <g id="Chef_logo" transform="translate(1006.000000, 204.500000)">
                    <path d="M38.7429565,54.0817532 C29.2267528,54.0817532 21.483322,46.4192682 21.483322,37.0007366 C21.483322,27.5807338 29.2267528,19.9167797 38.7429565,19.9167797 C46.5993212,19.9167797 53.2401585,25.1393286 55.3220143,32.2591145 L62,32.2591145 C59.7769751,21.565464 50.1953888,13.5 38.7429565,13.5 C25.6514896,13.5 15,24.0421663 15,37.0007366 C15,49.9578347 25.6514896,60.5 38.7429565,60.5 C50.1953888,60.5 59.7769751,52.4360112 62,41.7423587 L55.3220143,41.7423587 C53.2401585,48.8606724 46.5993212,54.0817532 38.7429565,54.0817532" id="path16" fill="#435363"></path>
                    <path d="M27,49.5168711 C29.8181349,52.593559 33.7095783,54.5 38,54.5 L38,47.3972369 C35.4993617,47.3972369 33.2347382,46.2883408 31.595274,44.5 L27,49.5168711 L27,49.5168711 L27,49.5168711 Z" id="path18" fill="#435363"></path>
                    <path d="M22,37.1871785 C22,39.4316423 22.4882186,41.56707 23.3577688,43.5 L29.476393,40.8618683 C28.9708404,39.7375122 28.6877315,38.4956223 28.6877315,37.1871785 C28.6877315,32.1445672 32.857814,28.0578004 38,28.0578004 L38,21.5 C29.1773949,21.5 22,28.5378478 22,37.1871785" id="path20" fill="#F38B00"></path>
                    <path d="M44.4403835,22.5 L42,28.5811389 C43.9929793,29.334766 45.6562182,30.7251031 46.7137138,32.5 L54,32.5 C52.5619177,27.9204821 49.0059302,24.2284132 44.4403835,22.5" id="path22" fill="#435363"></path>
                    <path d="M42,47.4197188 L44.4389301,53.5 C49.0044811,51.7718313 52.5604669,48.0788737 54,43.5 L46.713716,43.5 C45.6533136,45.2760586 43.9915259,46.6676057 42,47.4197188" id="path24" fill="#F38B00"></path>
                    <path d="M7.6999522,47.0519194 C7.59379703,46.6789649 7.49200362,46.3029295 7.39748117,45.923812 C7.39166886,45.900695 7.38584643,45.8775781 7.38003108,45.8544611 C7.29277959,45.5030842 7.21279805,45.1517073 7.13572569,44.7972461 C7.11972817,44.7248111 7.10518828,44.6523814 7.09064636,44.5799463 C7.02666133,44.2763427 6.96849468,43.9696592 6.91178061,43.6629757 C6.88705854,43.5258133 6.86524668,43.3886521 6.84343381,43.251494 C6.80271827,43.0064547 6.76199868,42.7629558 6.72564491,42.5148334 C6.69510648,42.3036997 6.66893083,42.0941055 6.64275619,41.8829709 C6.45952766,40.4435563 6.36064244,38.9810238 6.36209703,37.5 L0,37.5 C-0.00143929094,39.1151019 0.0945377521,40.7101711 0.273403508,42.2852053 L0.273403508,42.2852053 C0.276314722,42.3191089 0.28212704,42.3530146 0.286490827,42.3869204 C0.335933945,42.8153538 0.391192413,43.2437873 0.453722849,43.6675993 C0.471172945,43.7847235 0.490077637,43.9018477 0.508982328,44.0205156 C0.564241807,44.3688105 0.620954871,44.7171086 0.684939904,45.063863 C0.716931914,45.2487976 0.754741297,45.4306491 0.791096085,45.6140454 C0.844900968,45.8899041 0.900160447,46.1657682 0.959781692,46.4400876 C1.01213299,46.6805044 1.06884605,46.9209201 1.12701371,47.1613358 C1.17791042,47.3755558 1.22735252,47.5897714 1.28115741,47.8039871 C1.35386698,48.0875569 1.43093933,48.3680392 1.50801168,48.6500663 C1.54000369,48.7671948 1.56908752,48.8874043 1.60253312,49.0029891 L1.60544433,49.0029891 C2.04460996,50.5425761 2.56520971,52.0451774 3.17015276,53.5 L9,50.7829918 C8.49830494,49.5778278 8.06495568,48.3295131 7.69995422,47.0519194 L7.69995422,47.0519194 L7.6999522,47.0519194 Z" id="path26" fill="#435363"></path>
                    <path d="M38.0442727,68.9094394 C29.2866272,68.9094394 21.3477875,65.2871893 15.5968739,59.4439851 L11,64.113428 C17.9227521,71.1454663 27.4814016,75.5 38.0442727,75.5 C57.551691,75.5 73.6459377,60.6674686 76,41.5 L69.4510521,41.5 C67.1370408,56.9939964 53.9353038,68.9094394 38.0442727,68.9094394" id="path28" fill="#F38B00"></path>
                    <path d="M38.330613,7.05262652 C45.3814503,7.05262652 51.8943231,9.42709294 57.1475405,13.4344725 L61,8.17169759 C54.6767357,3.35385335 46.8307163,0.5 38.330613,0.5 C22.2461228,0.5 8.50309194,10.7109526 3,25.1210401 L8.99842828,27.5 C13.5769895,15.5437777 24.9991386,7.05262652 38.330613,7.05262652" id="path30" fill="#F38B00"></path>
                    <path d="M69.4610212,33.5 L76,33.5 C75.2994509,27.679448 73.3770041,22.2515338 70.5066652,17.5 L65,21.0582818 C67.2482834,24.7745394 68.7989776,28.9877307 69.4610212,33.5" id="path32" fill="#435363"></path>
                    <path d="M61.6463625,32.5 L68,32.5 C66.3420315,21.9742165 59.0460997,13.2707468 49.2689517,9.5 L47,15.2645241 C54.435052,18.1326166 60.0586689,24.6042447 61.6463625,32.5" id="path34" fill="#F38B00"></path>
                    <path d="M37.9985184,13.9452953 L37.9985184,13.9452953 L38,7.5 L37.9985184,7.5 C24.818322,7.5 13.5280372,15.665222 9,27.1624353 L15.0587478,29.5 C18.6418297,20.4053665 27.5727052,13.9452953 37.9985184,13.9452953" id="path36" fill="#435363"></path>
                    <path d="M14.2124113,37.5 L14.2124113,37.5 L8,37.5 C8,50.6278094 15.7491358,61.8851381 26.6927768,66.5 L29,60.4411231 C20.342218,56.7899367 14.2124113,47.8849302 14.2124113,37.5" id="path38" fill="#F38B00"></path>
                    <path d="M38,62.0747392 L38,68.5 C53.1476085,68.5 65.738622,57.2075606 68,42.5 L61.5561584,42.5 C59.370401,53.6481183 49.6399256,62.0747392 38,62.0747392" id="path40" fill="#435363"></path>
                </g>
            </g>
        </g>
    </g>
</svg>