<?xml version="1.0" encoding="UTF-8"?>
<svg width="85px" height="188px" viewBox="0 0 85 188" version="1.1" xmlns="http://www.w3.org/2000/svg" xmlns:xlink="http://www.w3.org/1999/xlink">
    <title>mongodb-icon-1</title>
    <g id="Page-1" stroke="none" stroke-width="1" fill="none" fill-rule="evenodd">
        <g id="mongodb-icon-1" transform="translate(0.438050, 0.132725)" fill-rule="nonzero">
            <path d="M40.7052857,0.867274772 L45.7276187,10.2494238 C46.8567615,11.980793 48.0799996,13.5132886 49.5208328,14.9404983 C53.7450271,19.0895034 57.6824743,23.5177037 61.3062607,28.1948311 C69.8159982,39.3083493 75.5558074,51.6502037 79.654831,64.998124 C82.1130689,73.1519368 83.448045,81.5163216 83.5480212,89.9742938 C83.9596879,115.260472 75.244117,136.972777 57.6718323,155.017621 C54.8135119,157.879158 51.7256049,160.504388 48.4387376,162.867275 C46.6979758,162.867275 45.8746425,161.539502 45.1571664,160.317015 C43.8505891,158.050129 42.9809942,155.560558 42.5930713,152.976244 C41.9755714,149.917101 41.5697857,146.857959 41.769738,143.69938 L41.769738,142.272171 C41.6285952,141.968011 40.0936667,1.58672885 40.7052857,0.867274772 Z" id="Path" fill="#599636"></path>
            <path d="M41.4162402,0.0682011396 C41.20954,-0.340624902 41.0028398,-0.0310851847 40.7961396,0.167487464 C40.8965369,2.21161767 40.176039,4.03381374 39.0480465,5.7742446 C37.8078453,7.50299472 36.1660552,8.82875917 34.5183593,10.2538099 C25.3644934,18.0915892 18.1595151,27.5588322 12.3896267,38.1474267 C4.71219077,52.3979344 0.755358406,67.6705073 -0.366728384,83.7490514 C-0.880526019,89.5485408 1.48766768,110.013204 3.33615802,115.91782 C8.37964286,131.593379 17.4390173,144.728376 29.1736828,156.128782 C32.0556741,158.873757 35.1384599,161.420159 38.3275487,163.867275 C39.2547467,163.867275 39.355144,163.049623 39.5677499,162.442224 C39.9742548,161.142517 40.2841465,159.815163 40.4949479,158.470771 L42.5619499,143.204039 L41.4162402,0.0682011396 Z" id="Path" fill="#6CAC48"></path>
            <path d="M46.9166107,168.200902 C47.1289659,165.835824 48.2938859,163.87281 49.5619499,161.915709 C48.2878186,161.401304 47.3413211,160.378408 46.6011115,159.237258 C45.962842,158.1568 45.4344969,157.018117 45.0236156,155.83746 C43.5431964,151.509368 43.2276973,146.96842 42.8029869,142.545725 L42.8029869,139.867275 C42.2751325,140.281163 42.1659212,143.781478 42.1659212,144.301795 C41.8571791,148.976229 41.2206498,153.624604 40.2607916,158.214362 C39.9452924,160.070948 39.7329372,161.921621 38.5619499,163.571263 C38.5619499,163.778207 38.5619499,163.985151 38.6650939,164.292611 C40.5702235,169.75594 41.0920106,175.319785 41.413577,180.990058 L41.413577,183.0595 C41.413577,185.531006 41.3104331,185.010689 43.4157833,185.838466 C44.2652042,186.145926 45.2117017,186.252355 46.0611225,186.867275 C46.6981882,186.867275 46.8013321,186.35287 46.8013321,185.938982 L46.485833,182.539183 L46.485833,173.055223 C46.382689,171.399669 46.6981882,169.75594 46.9105434,168.206814 L46.9166107,168.200902 Z" id="Path" fill="#C2BFBF"></path>
        </g>
    </g>
</svg>