<?xml version="1.0" encoding="UTF-8"?>
<svg width="103px" height="101px" viewBox="0 0 103 101" version="1.1" xmlns="http://www.w3.org/2000/svg" xmlns:xlink="http://www.w3.org/1999/xlink">
    <title>mysql-6</title>
    <g id="Page-1" stroke="none" stroke-width="1" fill="none" fill-rule="evenodd">
        <g id="mysql-6" transform="translate(0.208852, 0.801954)" fill="#00546B" fill-rule="nonzero">
            <path d="M93.7437723,77.541291 C88.1941056,77.4031012 83.8928947,77.9574534 80.2854917,79.4815236 C79.2447797,79.8968894 77.5796404,79.8972877 77.4408788,81.213874 C77.9959252,81.7682262 78.065306,82.6690485 78.5509717,83.4308844 C79.3843388,84.8163666 80.8401394,86.6873051 82.1583746,87.6578196 C83.6149727,88.7661257 85.0723683,89.8744318 86.5979485,90.8445481 C89.3037997,92.5076045 92.356555,93.4773226 94.9926267,95.140379 C96.5194031,96.1096988 98.0445845,97.3577877 99.5709622,98.3967997 C100.334151,98.9503554 100.819418,99.8519741 101.791148,100.198046 L101.791148,99.9905622 C101.305083,99.3665178 101.166322,98.4660937 100.681055,97.7731536 C99.9880445,97.0802134 99.293439,96.4565672 98.599631,95.763627 C96.5879864,93.0619567 94.0906763,90.70596 91.3852238,88.7661257 C89.1654369,87.2416573 84.3087807,85.1632349 83.407229,82.5993562 C83.407229,82.5993562 83.3374495,82.5304604 83.2684674,82.4611664 C84.7944463,82.3225784 86.5979485,81.7682262 88.055344,81.3524621 C90.4138926,80.7284177 92.5642987,80.8674039 94.9926267,80.2437578 C96.1023208,79.9665817 97.2124137,79.6201116 98.3221078,79.2736415 L98.3221078,78.6503936 C97.0740508,77.4031012 96.1721004,75.740443 94.8538651,74.5624446 C91.315843,71.5131095 87.4305181,68.5342632 83.407229,66.0400767 C81.2564242,64.6541963 78.4811921,63.753374 76.1920244,62.575774 C75.3602523,62.1596116 73.9722375,61.9521278 73.4869706,61.2591876 C72.2377174,59.7351174 71.5439094,57.7259891 70.6423577,55.9243445 C68.631112,52.1131735 66.6880508,47.8870347 64.9535307,43.8687781 C63.7054738,41.1663113 62.9422849,38.4638445 61.4159073,35.9700563 C54.2704822,24.1912677 46.5006299,17.0547801 34.5687269,10.0564824 C32.0016372,8.60170621 28.9492807,7.97806004 25.6887817,7.21622406 C23.9550592,7.1465318 22.2201404,7.008342 20.4860191,6.93864974 C19.3759262,6.4535916 18.2658334,5.13740347 17.2945022,4.51375729 C13.3409927,2.01917258 3.14241356,-3.38456623 0.22881862,3.75192132 C-1.64446303,8.25523612 3.0040507,12.6892569 4.59901166,14.9763578 C5.77928277,16.569722 7.30486293,18.3709683 8.13743255,20.1726128 C8.62309817,21.3498146 8.76146103,22.5979035 9.24712664,23.8447976 C10.3576182,26.8925397 11.3975328,30.2883449 12.8549283,33.1293997 C13.6181172,34.5841759 14.450288,36.1082461 15.4216193,37.4248325 C15.9766657,38.1866685 16.9475982,38.5335368 17.1561393,39.7804309 C16.1852068,41.1663113 16.1154273,43.2451319 15.5599821,44.9770842 C13.062672,52.8065119 14.034402,62.5064799 17.5720254,68.2570871 C18.6817195,69.9886411 21.31819,73.8006087 24.8562121,72.345036 C27.9783482,71.0981419 27.2845402,67.148781 28.1856931,63.6844783 C28.394633,62.8521535 28.2558714,62.2985979 28.6717575,61.7442457 L28.6717575,61.883232 C29.6430887,63.8226681 30.6140212,65.6940048 31.5159716,67.6338391 C33.6667765,71.0284496 37.4125423,74.5624446 40.5342796,76.9184413 C42.1998176,78.1649372 43.5176541,80.3130518 45.5990782,81.075286 L45.5990782,80.8670057 L45.4599178,80.8670057 C45.043633,80.2433595 44.4192058,79.9665817 43.8645581,79.4811253 C42.6161024,78.2346294 41.2280876,76.710161 40.2571552,75.3242806 C37.343959,71.4438155 34.7764706,67.1483828 32.4873028,62.7139637 C31.3776087,60.5666456 30.4058788,58.210649 29.5043271,56.0629326 C29.0876435,55.2306079 29.0876435,53.984112 28.3942343,53.5687461 C27.3535222,55.0928163 25.8275433,56.4094027 25.0643545,58.279943 C23.7469168,61.2591876 23.6077564,64.9313724 23.1220908,68.741747 C22.8445676,68.8118375 22.9829305,68.741747 22.8441689,68.8811315 C20.6247807,68.3259829 19.8615919,66.0400767 19.0286235,64.0998441 C16.9471994,59.1807652 16.6002954,51.2820435 18.404595,45.6007303 C18.8902606,44.1455559 20.9716847,39.5729471 20.1391151,38.1870667 C19.7228302,36.8704803 18.3348155,36.1082461 17.5720254,35.0692341 C16.6704737,33.7526477 15.6987437,32.0903877 15.0747153,30.634815 C13.409576,26.7547482 12.5770064,22.4589172 10.7735043,18.5788503 C9.94093466,16.7772058 8.4847353,14.9070638 7.30486293,13.2440073 C5.98702644,11.373467 4.5300296,10.0564824 3.48931757,7.839472 C3.1428123,7.07763602 2.65674795,5.83034367 3.21179436,4.99881543 C3.35055596,4.44446327 3.62768043,4.23697946 4.18312559,4.09839142 C5.08507601,3.33575896 7.65216568,4.30587523 8.55331862,4.72163935 C11.1204083,5.76025317 13.2708144,6.73116592 15.4216193,8.1859421 C16.3925518,8.87888229 17.4332638,10.1954687 18.6817195,10.5419388 L20.1387163,10.5419388 C22.358902,11.0265987 24.8558134,10.6805268 26.9372374,11.3037747 C30.6144199,12.4813748 33.9439009,14.2137253 36.9272754,16.0846639 C46.015363,21.835271 53.5068946,30.0111689 58.5716932,39.7804309 C59.4042628,41.3733969 59.750768,42.8293678 60.5139569,44.4916278 C61.9713525,47.8870347 63.7748546,51.3513375 65.2310539,54.6770522 C66.6880508,57.9330746 68.0752681,61.2591876 70.1566921,63.9616543 C71.1974041,65.4160323 75.3594548,66.1786647 77.2327364,66.940899 C78.6203525,67.5641469 80.7711573,68.1188973 82.019613,68.8807333 C84.3781615,70.3351112 86.7367101,71.9989641 88.9568957,73.5919301 C90.0669885,74.4234584 93.5352312,76.1558088 93.7437723,77.541291 Z" id="Path"></path>
            <path d="M22.8657275,17.198046 C21.5909754,17.198046 20.6912772,17.3447175 19.7911478,17.5630484 L19.7911478,17.7088817 L19.9411694,17.7088817 C20.5416867,18.8755484 21.5909754,19.6776317 22.3406521,20.698046 C22.9411694,21.8642936 23.4658137,23.0313793 24.0663311,24.198046 C24.1409107,24.1247103 24.2159215,24.0522127 24.2159215,24.0522127 C25.2665035,23.3226269 25.7911478,22.1563793 25.7911478,20.4063793 C25.3410832,19.8963817 25.2660724,19.3859651 24.8910185,18.8755484 C24.441385,18.1459627 23.4658137,17.7817984 22.8657275,17.198046 L22.8657275,17.198046 Z" id="Path"></path>
        </g>
    </g>
</svg>