<?xml version="1.0" encoding="UTF-8"?>
<svg width="44px" height="68px" viewBox="0 0 44 68" version="1.1" xmlns="http://www.w3.org/2000/svg" xmlns:xlink="http://www.w3.org/1999/xlink">
    <title>Shape</title>
    <g id="Homepage" stroke="none" stroke-width="1" fill="none" fill-rule="evenodd">
        <g id="Unified-Access-Homepage" transform="translate(-858.000000, -3861.000000)" fill="#FFAE1A" fill-rule="nonzero">
            <g id="block/integrations" transform="translate(0.000000, 3813.000000)">
                <g id="puppet" transform="translate(858.000000, 48.000000)">
                    <path d="M14,61 L7,61 L7,54 L14,54 L14,61 Z M7.00082418,7 L14,7 L14,14 L7,14 L7,7 L7.00082418,7 Z M44,23.8478125 L28.5289819,23.8478125 L28.5334809,23.8430312 L20.2299064,15.5085156 L20.2299064,0 L0,0 L0,20.304375 L15.4712828,20.304375 L23.76533,28.6290625 L23.7700936,28.62375 L23.7700936,39.37625 L23.7603017,39.3661563 L15.4614908,47.6958906 L0,47.6958906 L0,68 L20.2299064,68 L20.2299064,52.4816563 L28.5284526,44.1521875 L44,44.1521875 L44,23.8478125 L44,23.8478125 Z" id="Shape"></path>
                </g>
            </g>
        </g>
    </g>
</svg>