<svg id="Layer_1" data-name="Layer 1" xmlns="http://www.w3.org/2000/svg" viewBox="0 0 32 32"><defs><style>.cls-1,.cls-2,.cls-3{fill:#fff;}.cls-1{opacity:0.5;}.cls-2{opacity:0.3;}</style></defs><path class="cls-1" d="M30.18,11.36H11.49a1.8,1.8,0,0,0-1.8,1.8V27.25a1.81,1.81,0,0,0,1.8,1.8H30.18a1.81,1.81,0,0,0,1.8-1.8V13.16A1.8,1.8,0,0,0,30.18,11.36Z"/><path class="cls-2" d="M22.29,10.36V4.78A1.8,1.8,0,0,0,20.49,3H1.8A1.8,1.8,0,0,0,0,4.78V18.87a1.81,1.81,0,0,0,1.8,1.8H8.71V13.16a2.8,2.8,0,0,1,2.8-2.8Z"/><path class="cls-3" d="M17.32,20.2V15.71a.43.43,0,0,1,.64-.37l3.9,2.25,3.89,2.25a.42.42,0,0,1,0,.73l-3.89,2.25L18,25.07a.43.43,0,0,1-.64-.37Z"/></svg>