<svg width="24" height="24" viewBox="0 0 24 24" fill="none" xmlns="http://www.w3.org/2000/svg">
<g clip-path="url(#clip0_84:743)">
<path d="M12 14.4001C11.9208 14.4001 11.8416 14.3845 11.7672 14.3533L0.3672 9.5533C0.1452 9.4597 0 9.2413 0 9.0001C0 8.7589 0.1452 8.5405 0.3672 8.4469L11.7672 3.6469C11.916 3.5845 12.084 3.5845 12.2328 3.6469L23.6328 8.4469C23.8548 8.5405 24 8.7589 24 9.0001C24 9.2413 23.8548 9.4597 23.6328 9.5533L12.2328 14.3533C12.1584 14.3845 12.0792 14.4001 12 14.4001V14.4001ZM2.1456 9.0001L12 13.1485L21.8544 9.0001L12 4.8517L2.1456 9.0001V9.0001Z" fill="white"/>
<path d="M12 17.9999C11.9208 17.9999 11.8416 17.9843 11.7672 17.9531L0.367249 13.1531C0.0624488 13.0247 -0.0815512 12.6731 0.0468488 12.3671C0.175249 12.0611 0.526849 11.9182 0.832849 12.0466L12 16.7483L23.1673 12.0466C23.4721 11.9182 23.8249 12.0611 23.9533 12.3671C24.0817 12.6731 23.9389 13.0247 23.6329 13.1531L12.2328 17.9531C12.1584 17.9843 12.0792 17.9999 12 17.9999V17.9999Z" fill="white"/>
<path d="M12 21.5999C11.9208 21.5999 11.8416 21.5843 11.7672 21.5531L0.367249 16.7531C0.0624488 16.6247 -0.0815512 16.2731 0.0468488 15.9671C0.175249 15.6611 0.526849 15.5183 0.832849 15.6467L12 20.3483L23.1673 15.6467C23.4721 15.5183 23.8249 15.6611 23.9533 15.9671C24.0817 16.2731 23.9389 16.6247 23.6329 16.7531L12.2328 21.5531C12.1584 21.5843 12.0792 21.5999 12 21.5999V21.5999Z" fill="white"/>
</g>
<defs>
<clipPath id="clip0_84:743">
<rect width="24" height="24" fill="white"/>
</clipPath>
</defs>
</svg>
