<svg width="744" height="72" viewBox="0 0 744 72" fill="none" xmlns="http://www.w3.org/2000/svg">
<path fill-rule="evenodd" clip-rule="evenodd" d="M91 27.5326H94.5876V27.1615C94.5876 22.3918 96.3746 20 102.546 20C104.152 20 104.465 20.0269 105.244 20.0942L105.268 20.0962V25.4296H103.426C101.543 25.4296 101.144 25.8969 101.144 27.1203V27.5326H105.254V33.0997H101.144V46.5292H94.5739V33.0997H91V27.5326ZM107.22 40.1924V20.055H113.79V39.3677C113.79 40.7285 114.093 41.0584 115.481 41.0584H116.045L116.814 46.3917C116.32 46.4605 114.285 46.5979 113.062 46.5979C109.447 46.5979 107.22 45.3333 107.22 40.1924ZM157.515 27.9038L162.629 27.5052L163.124 29.0309C164.155 28.0687 165.942 27.1065 169.79 27.1065C176.43 27.1065 177.942 31.7801 177.942 36.9897C177.942 42.2268 176.251 46.8454 169.392 46.8454C166.34 46.8454 164.911 46.1443 164.086 45.3883V52H157.515V27.9038ZM171.275 37.2509C171.275 35.0241 170.876 33.0722 168.031 33.0722C164.979 33.0722 164.086 34.6254 164.086 37.2509C164.086 39.8763 164.746 41.2921 168.031 41.2921C170.808 41.2921 171.275 39.4639 171.275 37.2509ZM206.478 27.5052L201.364 27.9038V46.5567H207.935V37.567C207.935 34.9691 208.608 33.6632 212.979 33.6357V27.3127C210.258 27.4089 207.962 28.3711 207.137 29.4983L206.478 27.5052ZM214.808 27.3127H218.189L219.247 23.4502L224.32 22.3505V27.299H228.471V33.622H224.32V39.1065C224.32 40.3986 224.526 41.0584 226.574 41.0584H228.471V46.5292C227.481 46.5979 226.381 46.6254 225.158 46.6254C219.619 46.6254 217.79 44.866 217.79 40.0962V33.622H214.808V27.3127ZM230.285 41.0584H235.756V46.5292H230.285V41.0584ZM127.302 41.6495C129.46 41.6495 130.024 41.4983 131.11 40.866L134.959 44.8385C132.732 46.2818 130.629 46.9003 127.302 46.9003C118.863 46.9003 117.089 42.2268 117.089 36.921C117.089 31.7388 118.863 27.0928 127.302 27.0928C135.701 27.0928 136.265 32.4949 136.031 39.189H123.412C123.742 40.7423 124.732 41.6495 127.302 41.6495ZM130.093 35.3127C129.997 33.7732 129.804 32.4811 127.096 32.4811C124.457 32.4811 123.605 33.4983 123.33 35.3127H130.093ZM149.048 46.5429L145.832 41.9381L142.615 46.5429H135.275L142.148 36.7423L135.907 27.9038H143.316L145.859 31.5052L148.402 27.9038H155.907L149.543 36.701L156.443 46.5429H149.048ZM189.612 27.0928C182.189 27.0928 179.302 30.6804 179.302 36.976C179.302 43.2852 182.189 46.9003 189.612 46.8866C197.048 46.8866 199.893 43.2715 199.893 36.976C199.893 30.6804 197.034 27.0928 189.612 27.0928ZM189.612 33.0722C192.704 33.0722 193.296 34.7904 193.296 37.1821C193.296 39.5327 192.704 41.2921 189.612 41.2921C186.519 41.2921 185.928 39.5327 185.928 37.1821C185.928 34.7904 186.533 33.0722 189.612 33.0722Z" fill="#D2DBDF"/>
<path d="M507.001 24.6752C501.806 24.6752 497.578 28.9214 497.578 34.1414C497.578 39.3614 501.806 43.6076 507.001 43.6076C512.196 43.6076 516.422 39.3614 516.422 34.1414C516.422 28.9214 512.196 24.6752 507.001 24.6752V24.6752ZM507.001 39.1213C504.269 39.1213 502.043 36.8848 502.043 34.1414C502.043 31.3967 504.269 29.1615 507.001 29.1615C509.731 29.1615 511.958 31.3967 511.958 34.1414C511.958 36.886 509.732 39.1213 507 39.1213H507.001ZM479.252 32.2243L477.604 31.3979C476.889 31.042 476.44 30.7666 476.26 30.5631C476.088 30.3827 475.99 30.1443 475.986 29.8952C475.986 29.5759 476.13 29.3065 476.412 29.0969C476.693 28.8775 477.091 28.7776 477.597 28.7776C478.522 28.7776 479.547 29.3358 480.676 30.4607L483.457 27.6661C482.774 26.7355 481.88 25.9796 480.849 25.4601C479.831 24.9481 478.707 24.6842 477.568 24.6898C475.87 24.6898 474.469 25.1907 473.377 26.1999C472.286 27.209 471.737 28.4217 471.737 29.844C471.737 32.05 473.182 33.8879 476.08 35.3467L477.597 36.1085C478.905 36.7703 479.556 37.4442 479.556 38.1414C479.556 38.5192 479.374 38.8458 479.013 39.1359C478.653 39.4272 478.175 39.5649 477.582 39.5649C477.034 39.5649 476.405 39.376 475.697 38.9921C474.991 38.6143 474.364 38.1065 473.847 37.4954L471.08 40.5229C472.64 42.5704 474.721 43.6015 477.336 43.6015C479.302 43.6015 480.871 43.064 482.033 41.9963C483.203 40.9299 483.788 39.5942 483.788 37.9963C483.788 36.7983 483.464 35.7465 482.821 34.8531C482.171 33.9598 480.979 33.0896 479.252 32.2255V32.2243ZM451.274 41.5454V25.0518H446.801V26.156C445.294 25.1873 443.54 24.6732 441.748 24.6752C436.554 24.6752 432.327 28.9214 432.327 34.1414C432.327 39.3614 436.554 43.6076 441.749 43.6076C443.52 43.6102 445.254 43.1093 446.75 42.1633C446.75 42.3083 446.743 42.4388 446.743 42.5265C446.743 45.27 444.517 47.5064 441.786 47.5064C440.857 47.5043 439.948 47.2398 439.163 46.7435L436.951 50.635C438.41 51.5247 440.085 51.9969 441.793 52C446.989 52 451.274 47.7526 451.274 42.5326C451.274 42.3303 451.288 41.7343 451.274 41.5454V41.5454ZM441.749 39.12C439.019 39.12 436.793 36.8848 436.793 34.1414C436.793 31.3967 439.018 29.1615 441.749 29.1615C444.481 29.1615 446.706 31.3967 446.706 34.1414C446.706 36.8848 444.481 39.1213 441.749 39.1213V39.12ZM469.091 25.0457H464.596V34.0451C464.604 35.3236 464.604 37.5308 463.665 38.4741C463.217 38.9238 462.726 39.3309 461.692 39.3309C460.651 39.3309 460.16 38.9238 459.713 38.4741C458.773 37.5296 458.781 35.3163 458.787 34.0451V25.0457H454.293V34.0183C454.278 35.8684 454.256 39.3029 456.511 41.582C457.834 42.9177 459.409 43.6002 461.685 43.6002C463.962 43.6002 465.536 42.925 466.859 41.582C469.113 39.3029 469.091 35.8611 469.077 34.0183L469.091 25.0445V25.0457ZM494.562 38.3157C494.202 38.5911 493.327 39.2017 492.337 39.064C491.528 38.9543 490.871 38.3595 490.77 36.3705V28.908H496.052V25.0311H490.77V20H486.289V20.9872H486.282V35.7831C486.282 38.1353 486.874 43.6002 492.33 43.6002C495.09 43.5576 496.766 42.0548 497.468 41.4674L497.562 41.3943L494.873 38.0695C494.866 38.0756 494.678 38.2279 494.562 38.3157V38.3157Z" fill="#D2DBDF"/>
<path fill-rule="evenodd" clip-rule="evenodd" d="M589.04 20L592.247 29.8884C594.153 35.7862 592.058 42.2448 587.059 45.8863L587.062 45.8884L578.682 52L570.3 45.8884L578.68 39.7769L587.054 45.8828L583.855 36L592.241 29.8884H581.882L578.68 20H589.04ZM565.121 29.8884L573.501 36L570.3 45.8884C565.303 42.2441 563.212 35.7848 565.121 29.8884ZM565.121 29.8884L568.321 20H578.68L575.48 29.8884H565.121ZM604.2 37.7451C604.218 37.7673 604.245 37.7802 604.274 37.7799H608.194C608.222 37.7797 608.249 37.7668 608.266 37.7451C608.283 37.7232 608.289 37.6946 608.281 37.6681L606.322 31.1145C606.311 31.0756 606.275 31.0484 606.233 31.0484C606.192 31.0484 606.155 31.0756 606.145 31.1145L604.185 37.6681C604.177 37.6946 604.183 37.7232 604.2 37.7451ZM612.566 43.456H610.019L608.886 39.6962C608.875 39.6581 608.839 39.632 608.798 39.6323H603.665C603.624 39.632 603.588 39.6581 603.577 39.6962L602.455 43.4575H599.9L603.785 30.4666C604.109 29.4171 605.104 28.6981 606.234 28.6981C607.363 28.6981 608.359 29.4171 608.683 30.4666L612.566 43.456ZM625.872 35.9959H624.374L624.365 34.1436H625.864C625.914 34.1436 625.955 34.1039 625.955 34.055V30.9794H628.425V34.055C628.425 34.1039 628.466 34.1436 628.517 34.1436H630.015V35.9945H628.517C628.466 35.9945 628.425 36.0341 628.425 36.0831V41.0705C628.425 41.4717 628.761 41.7969 629.174 41.7969C629.41 41.7969 629.727 41.7809 630.009 41.7577V43.4415C629.523 43.5811 629.018 43.6516 628.511 43.6507C627.113 43.6563 625.974 42.5641 625.964 41.2085V36.0845C625.964 36.0356 625.923 35.9959 625.872 35.9959ZM640.986 43.456H638.536L638.529 43.4502V37.1494C638.528 36.7918 638.379 36.4496 638.115 36.1993C637.85 35.9441 637.491 35.8014 637.118 35.8027C636.205 35.8027 635.294 36.1862 634.833 36.4143C634.802 36.4292 634.783 36.4596 634.784 36.4928V43.456H632.328V28.8888H634.79V34.732C634.79 34.7642 634.808 34.7937 634.837 34.809C634.867 34.8256 634.903 34.8256 634.932 34.809C635.778 34.2686 636.765 33.9719 637.778 33.9533C639.538 33.9452 640.972 35.3186 640.986 37.0245V43.456ZM613.94 40.5751V34.1436H616.397V40.4458C616.402 41.1967 617.034 41.8016 617.808 41.7984C618.72 41.7984 619.631 41.4148 620.093 41.1867C620.123 41.1716 620.142 41.1413 620.142 41.1083V34.1436H622.604V43.4575H620.687L620.428 42.6454C620.419 42.6176 620.397 42.5959 620.368 42.5872C620.34 42.5786 620.308 42.584 620.284 42.6018C619.379 43.2645 618.281 43.6317 617.147 43.6507C615.386 43.6587 613.951 42.2827 613.94 40.5751ZM646.34 40.5461C646.815 41.3887 647.415 41.7984 648.164 41.7984C648.919 41.7984 649.515 41.3872 649.987 40.5461C650.558 39.5291 650.872 37.9761 650.872 36.1746C650.872 34.3731 650.558 32.8201 649.987 31.8031C649.512 30.9605 648.919 30.5508 648.164 30.5508C647.409 30.5508 646.812 30.9605 646.34 31.8031C645.77 32.8201 645.455 34.3731 645.455 36.1746C645.455 37.9761 645.77 39.5291 646.34 40.5461ZM644.301 30.76C645.248 29.4104 646.585 28.6971 648.164 28.6971V28.6956C649.743 28.6956 651.084 29.4118 652.026 30.7586C652.968 32.1053 653.466 33.9736 653.466 36.1732C653.466 38.3727 652.973 40.2395 652.026 41.5892C651.079 42.9388 649.743 43.6521 648.164 43.6521C646.585 43.6521 645.244 42.9359 644.301 41.5892C643.359 40.2424 642.862 38.3756 642.862 36.1746C642.862 33.9736 643.355 32.1097 644.301 30.76Z" fill="#D2DBDF"/>
<path fill-rule="evenodd" clip-rule="evenodd" d="M295.926 33.6461L303.634 37.1429L311.402 30.3568C311.521 29.7938 311.566 29.2456 311.566 28.6529C311.566 23.882 307.667 20 302.875 20C300.003 20 297.339 21.4076 295.717 23.7634L294.423 30.4457L295.926 33.6461ZM288.11 41.6435C287.991 42.2041 287.946 42.7794 287.946 43.3696C287.946 48.1347 291.847 52 296.637 52C299.513 52 302.198 50.5837 303.814 48.2233L305.089 41.5992L303.384 38.3536L295.673 34.8571L288.11 41.6435ZM293.234 29.5239L287.825 28.2717C287.657 27.8245 287.566 27.3325 287.566 26.8406C287.566 24.5301 289.486 22.6667 291.832 22.6667C292.777 22.6667 293.691 22.9648 294.423 23.5164L293.234 29.5239ZM287.718 29.5237C285.391 30.3032 283.756 32.5817 283.756 35.085C283.756 37.5284 285.244 39.7019 287.468 40.5713L294.803 33.8258L293.463 30.9028L287.718 29.5237ZM307.527 49.3334C306.647 49.3334 305.796 49.0203 305.089 48.4688L306.215 42.4762L311.32 43.7135C311.479 44.1607 311.566 44.6526 311.566 45.1594C311.566 47.47 309.748 49.3334 307.527 49.3334ZM306.252 41.1122L312.102 42.4762C314.486 41.6968 316.136 39.4183 316.136 36.9C316.136 34.4716 314.621 32.283 312.357 31.4286L304.708 38.1291L306.252 41.1122ZM332.058 42.9532L331.362 43.0274C330.116 43.1311 328.9 43.1756 327.684 43.146C326.483 43.146 325.653 42.8198 325.164 42.1823C324.674 41.5449 324.437 40.5516 324.437 39.2174H332.414L332.518 37.8387C332.518 35.8966 332.118 34.4586 331.317 33.5543C330.516 32.65 329.301 32.1904 327.67 32.1904C324.304 32.1904 322.613 34.3104 322.613 38.5503C322.613 40.6702 322.969 42.2416 323.696 43.2497C324.422 44.2578 325.653 44.7619 327.388 44.7619C328.693 44.7619 330.264 44.6284 332.103 44.3764L332.058 42.9532ZM329.997 34.6513C330.472 35.2592 330.709 36.3117 330.709 37.7942H324.437C324.452 36.371 324.734 35.3333 325.267 34.6958C325.801 34.0583 326.617 33.7322 327.684 33.7322C328.752 33.7322 329.523 34.0435 329.997 34.6513ZM334.803 44.7619V27.238H336.708V44.7619H334.803ZM348.183 42.0341V36.0893C348.183 34.7551 347.875 33.7619 347.246 33.1392C346.632 32.5017 345.651 32.1904 344.305 32.1904H339.725V33.7915H344.422C345.022 33.7915 345.505 33.9694 345.856 34.3252C346.207 34.681 346.383 35.274 346.383 36.0893V37.1271L342.637 37.4829C341.379 37.6015 340.457 37.9573 339.872 38.5058C339.286 39.0543 338.994 39.929 338.994 41.1001C338.994 42.2861 339.286 43.1904 339.857 43.8131C340.428 44.4505 341.262 44.7619 342.359 44.7619C343.793 44.7619 345.212 44.495 346.646 43.8575C347.193 44.386 348.05 44.3766 349.091 44.3651L349.092 44.3651C349.248 44.3634 349.409 44.3616 349.573 44.3616L349.66 42.7605C349.66 42.7605 348.183 42.6419 348.183 42.0341ZM342.652 43.2349C341.437 43.2349 340.837 42.4937 340.837 41.0112C340.837 40.3441 340.984 39.8252 341.306 39.4694C341.628 39.1136 342.14 38.9061 342.857 38.8468L346.383 38.5058V42.4937L345.842 42.6864C344.803 43.057 343.735 43.2349 342.652 43.2349ZM355.27 33.7934C353.513 33.7934 352.62 34.4019 352.62 35.6338C352.62 36.1978 352.828 36.5986 353.23 36.8361C353.632 37.0735 354.555 37.311 356 37.5633C357.444 37.8157 358.457 38.157 359.052 38.6171C359.648 39.0624 359.946 39.9084 359.946 41.1552C359.946 42.4019 359.544 43.3073 358.74 43.8862C357.936 44.465 356.774 44.7619 355.225 44.7619C354.228 44.7619 350.877 44.3908 350.877 44.3908L350.982 42.8175C351.282 42.8454 351.57 42.8726 351.846 42.8985C353.329 43.0385 354.449 43.1441 355.24 43.1441C356.178 43.1441 356.893 42.9956 357.385 42.6988C357.876 42.4019 358.129 41.8973 358.129 41.1997C358.129 40.5021 357.921 40.0272 357.504 39.7748C357.087 39.5225 356.164 39.285 354.734 39.0624C353.305 38.8398 352.292 38.5132 351.696 38.068C351.101 37.6376 350.803 36.8212 350.803 35.6487C350.803 34.4761 351.22 33.6004 352.054 33.0364C352.888 32.4724 353.93 32.1904 355.166 32.1904C356.149 32.1904 359.574 32.4427 359.574 32.4427V34.0309C358.973 33.9963 358.41 33.9584 357.887 33.9232C356.839 33.8528 355.955 33.7934 355.27 33.7934ZM365.031 34.0214H368.923V32.4406H365.031V28.7619H363.213V32.4554H361.47V34.0214H363.213V40.3593C363.213 42.0731 363.453 43.2402 363.949 43.846C364.445 44.4517 365.317 44.7619 366.594 44.7619C367.165 44.7619 367.992 44.6733 369.089 44.496L368.969 43.0038L366.79 43.1516C366.023 43.1516 365.542 42.93 365.332 42.5015C365.136 42.0731 365.031 41.1571 365.031 39.7832V34.0214ZM371.375 29.6904V27.6191H373.28V29.7051L371.375 29.6904ZM371.375 44.381V32.4082H373.28V44.381H371.375ZM383.732 32.4869C382.452 32.2942 381.544 32.1904 381.008 32.1904C379.192 32.1904 377.896 32.6648 377.107 33.584C376.333 34.5031 375.946 36.119 375.946 38.4168C375.946 40.7147 376.318 42.3454 377.033 43.309C377.748 44.2726 379.058 44.7619 380.948 44.7619C381.692 44.7619 382.824 44.6433 384.327 44.4209L384.253 42.9236L381.395 43.146C379.936 43.146 378.983 42.805 378.522 42.1082C378.06 41.4115 377.837 40.181 377.837 38.4168C377.837 36.6527 378.09 35.4371 378.581 34.7848C379.072 34.1325 380.01 33.8063 381.38 33.8063C381.99 33.8063 382.943 33.8804 384.238 34.0287L384.312 32.561L383.732 32.4869Z" fill="#D2DBDF"/>
</svg>
