<svg width="744" height="72" viewBox="0 0 744 72" fill="none" xmlns="http://www.w3.org/2000/svg">
<path fill-rule="evenodd" clip-rule="evenodd" d="M509.334 22.7011C508.715 21.0857 507.137 20 505.407 20C504.893 20 504.387 20.0941 503.903 20.2794C501.738 21.1087 500.651 23.5449 501.481 25.7101C501.62 26.0753 501.81 26.4129 502.039 26.7176L496.883 31.6904C495.617 30.5638 493.956 29.897 492.203 29.897C491.343 29.897 490.497 30.0542 489.688 30.3643C488.723 30.7337 487.869 31.2985 487.169 32.0169L484.669 29.9024C484.695 29.8476 484.72 29.7916 484.742 29.7339C484.947 29.2038 484.934 28.6255 484.704 28.1057C484.363 27.3363 483.599 26.8389 482.757 26.8389C482.46 26.8389 482.171 26.9003 481.897 27.0214C480.824 27.4963 480.338 28.7551 480.812 29.8277C481.153 30.5976 481.917 31.095 482.759 31.095C483.056 31.095 483.346 31.0336 483.619 30.9125C483.741 30.8585 483.857 30.7934 483.965 30.7192L486.478 32.8448C486.209 33.224 485.975 33.6327 485.781 34.0672C485.016 35.783 484.965 37.6937 485.637 39.4479C486.672 42.151 489.312 43.9671 492.206 43.9671C492.66 43.9671 493.111 43.9228 493.554 43.8355L494.486 47.1798C494.024 47.422 493.647 47.7991 493.403 48.2732C493.091 48.8808 493.034 49.5734 493.243 50.2237C493.584 51.2864 494.562 52 495.677 52C495.942 52 496.205 51.9588 496.458 51.8772C497.109 51.6686 497.639 51.2193 497.951 50.6116C498.264 50.0043 498.321 49.3114 498.112 48.6608C497.771 47.5984 496.793 46.8848 495.678 46.8848C495.626 46.8848 495.576 46.8868 495.525 46.8899L494.593 43.5473C494.636 43.532 494.678 43.5163 494.721 43.5001C498.342 42.1124 500.16 38.0368 498.772 34.4154C498.497 33.6975 498.108 33.0418 497.632 32.4666L502.79 27.4912C503.522 28.0727 504.441 28.4123 505.408 28.4123C505.922 28.4123 506.428 28.3182 506.912 28.1329C507.961 27.7314 508.79 26.9449 509.248 25.9189C509.706 24.8927 509.736 23.7501 509.334 22.7011ZM496.129 50.8501C495.982 50.8973 495.83 50.9211 495.677 50.9211C495.032 50.9211 494.467 50.5082 494.27 49.8934C494.149 49.5174 494.182 49.117 494.363 48.7657C494.543 48.4144 494.849 48.1546 495.225 48.0339C495.373 47.9864 495.525 47.9625 495.678 47.9625C496.323 47.9625 496.888 48.3755 497.085 48.9899C497.206 49.3659 497.173 49.7667 496.992 50.1182C496.812 50.4695 496.505 50.7296 496.129 50.8501ZM483.297 30.1855C483.126 30.2614 482.945 30.3 482.759 30.3C482.231 30.3 481.753 29.9883 481.539 29.506C481.242 28.8341 481.546 28.0457 482.218 27.7484C482.39 27.6725 482.571 27.6342 482.757 27.6342C483.284 27.6342 483.763 27.9456 483.976 28.4277C484.121 28.7534 484.129 29.1155 484.001 29.4474C483.873 29.7791 483.623 30.0414 483.297 30.1855ZM494.335 42.4926C493.649 42.7552 492.933 42.8885 492.206 42.8885C489.756 42.8885 487.521 41.3507 486.644 39.0619C486.075 37.5772 486.118 35.9592 486.766 34.5063C487.414 33.0535 488.589 31.9402 490.074 31.3712C490.759 31.1086 491.476 30.9753 492.203 30.9753C494.653 30.9753 496.889 32.5126 497.765 34.8008C498.94 37.8671 497.401 41.3177 494.335 42.4926ZM505.409 27.3335C504.122 27.3335 502.949 26.526 502.488 25.3244C502.19 24.5459 502.213 23.6967 502.554 22.933C502.894 22.1694 503.511 21.5848 504.289 21.2866C504.649 21.1485 505.025 21.0786 505.407 21.0786C506.694 21.0786 507.867 21.8857 508.327 23.0871C508.626 23.867 508.603 24.7165 508.263 25.4796C507.923 26.2424 507.306 26.827 506.526 27.1257C506.166 27.2633 505.79 27.3335 505.409 27.3335ZM509.301 23.7266L509.304 23.7487C509.303 23.7413 509.302 23.7339 509.301 23.7266ZM506.172 26.1988C505.071 26.6206 503.837 26.0701 503.416 24.9693C502.994 23.8692 503.545 22.6348 504.645 22.2134C505.745 21.7916 506.979 22.3424 507.401 23.4426C507.823 24.5427 507.272 25.7771 506.172 26.1988ZM538.599 27.4911L531.823 47.2949C531.813 47.3303 531.803 47.3649 531.793 47.3987C531.743 47.5703 531.7 47.7206 531.7 47.8493C531.7 48.2802 532.285 48.5266 533.578 48.5266H534.811C535.55 48.5266 536.073 48.3422 536.227 47.88L537.46 44.1222H544.728L545.96 47.88C546.114 48.3726 546.792 48.5266 547.685 48.5266H549.04C550.117 48.5266 550.579 48.2799 550.579 47.8493C550.579 47.695 550.549 47.5103 550.488 47.2949L543.712 27.4911C543.526 26.998 542.85 26.844 541.956 26.844H540.355C539.462 26.844 538.784 26.998 538.599 27.4911ZM541.648 34.5748L543.404 40.0572H538.783L540.6 34.5748C540.786 34.0515 541.063 32.6041 541.063 32.6041H541.186C541.186 32.6041 541.494 34.1746 541.648 34.5748ZM515.571 26.9058C514.709 26.9058 514.338 27.2755 514.338 28.1381V47.2324C514.338 48.095 514.709 48.4648 515.571 48.4648H522.47C528.815 48.4648 532.326 44.6461 532.326 37.6853C532.326 30.725 528.815 26.9058 522.47 26.9058H515.571ZM527.459 37.6855C527.459 42.059 525.765 44.4301 522.47 44.4301H519.113V30.941H522.47C525.766 30.941 527.459 33.3121 527.459 37.6855ZM552.706 28.1381C552.706 27.2755 553.075 26.9058 553.937 26.9058H559.943C565.271 26.9058 567.612 29.0004 567.612 32.6962C567.612 35.0674 566.134 36.7926 564.009 37.5929V37.7162C564.779 38.0243 565.702 39.2254 566.226 40.5501L568.937 47.3254C569.029 47.5721 569.091 47.7565 569.091 47.9111C569.091 48.2803 568.505 48.5267 567.243 48.5267H565.98C565.087 48.5267 564.378 48.3727 564.194 47.8801L561.76 41.8742C561.145 40.6419 560.652 40.0263 558.65 40.0263H557.448V47.5411C557.448 48.1879 556.894 48.5267 555.601 48.5267H554.553C553.26 48.5267 552.706 48.1877 552.706 47.5411V28.1381ZM560.374 35.93C561.637 35.93 562.746 34.7599 562.746 33.2817C562.746 31.8646 561.76 30.9413 560.159 30.9413H557.448V35.9303H560.374V35.93ZM573.341 26.8446C572.048 26.8446 571.493 27.1834 571.493 27.8302V47.541C571.493 48.1876 572.048 48.5267 573.341 48.5267H574.419C575.713 48.5267 576.267 48.1879 576.267 47.541V38.61L576.39 38.5788L582.181 47.9423C582.458 48.4042 583.166 48.5269 584.06 48.5269H585.846C587.047 48.5269 587.571 48.3425 587.571 48.0654C587.571 47.9113 587.509 47.6956 587.324 47.4182L580.579 37.0702L586.523 27.9536C586.707 27.6762 586.769 27.4611 586.769 27.3067C586.769 27.0296 586.246 26.8446 585.045 26.8446H583.598C582.704 26.8446 582.027 26.968 581.749 27.4298L576.39 36.1149L576.267 36.0845V27.8302C576.267 27.1837 575.713 26.8446 574.419 26.8446H573.341ZM589.421 29.2468H595.334V47.8497C595.334 48.2806 595.704 48.527 596.566 48.527H596.812C597.675 48.527 598.045 48.2803 598.045 47.8497V29.2468H603.866C604.297 29.2468 604.481 28.9697 604.481 28.3225V27.83C604.481 27.1831 604.297 26.9058 603.866 26.9058H589.421C588.99 26.9058 588.805 27.1831 588.805 27.83V28.3225C588.805 28.9697 588.99 29.2468 589.421 29.2468ZM606.398 27.8303C606.398 27.1834 606.676 26.906 607.322 26.906H612.497C617.301 26.906 619.919 28.4768 619.919 32.3571C619.919 35.0065 618.533 36.7001 616.377 37.5627V37.6855C617.67 38.1169 618.348 39.503 619.148 41.5357L621.551 47.6027C621.613 47.7877 621.644 47.9421 621.644 48.0333C621.644 48.3419 621.243 48.5264 620.35 48.5264H620.043C619.427 48.5264 618.934 48.3419 618.81 48.0333L616.47 41.9978C615.546 39.5951 614.282 38.9792 611.881 38.9792H609.11V47.8494C609.11 48.28 608.74 48.5267 607.876 48.5267H607.63C606.768 48.5267 606.398 48.2803 606.398 47.8494V27.8303ZM613.174 36.6382C615.391 36.6382 617.116 34.8829 617.116 32.85C617.116 30.3557 615.453 29.2468 612.958 29.2468H609.109V36.6382H613.174ZM630.251 27.3372L622.953 47.5723C622.891 47.7568 622.859 47.8804 622.859 48.0029C622.859 48.342 623.259 48.5264 624.184 48.5264H624.338C624.954 48.5264 625.447 48.4036 625.569 48.0333L627.325 42.9832H636.38L638.197 48.0333C638.32 48.4036 638.814 48.5264 639.429 48.5264H639.675C640.6 48.5264 640.999 48.3113 640.999 48.0029C640.999 47.8801 640.968 47.7565 640.908 47.6027L633.607 27.3372C633.485 26.9677 632.992 26.8444 632.376 26.8444H631.483C630.867 26.8444 630.375 26.9677 630.251 27.3372ZM632.315 31.4645L635.548 40.6419H628.188L631.422 31.4645L631.915 29.6785L632.315 31.4645ZM650.835 26.7216C653.885 26.7216 656.718 27.799 656.718 28.6306C656.718 29.1541 656.071 30.4171 655.67 30.4171C655.585 30.4171 655.427 30.3306 655.19 30.2012C654.491 29.8186 653.107 29.0617 650.897 29.0617C645.97 29.0617 643.659 31.6489 643.659 37.7165C643.659 43.6295 645.938 46.3096 650.774 46.3096C653.114 46.3096 654.667 45.4711 655.481 45.0315C655.77 44.8753 655.966 44.7694 656.071 44.7694C656.471 44.7694 657.149 46.0626 657.149 46.4323C657.149 47.2639 654.377 48.65 650.774 48.65C644.029 48.65 640.856 45.2006 640.856 37.6855C640.856 30.3248 644.244 26.7216 650.835 26.7216ZM660.333 26.906C659.686 26.906 659.409 27.1834 659.409 27.8303H659.409V47.5413C659.409 48.1882 659.686 48.4656 660.334 48.4656H671.113C671.544 48.4656 671.729 48.1882 671.729 47.5413V47.0482C671.729 46.4022 671.544 46.1248 671.113 46.1248H662.12V38.61H670.158C670.589 38.61 670.774 38.3329 670.774 37.6858V37.193C670.774 36.5458 670.589 36.269 670.158 36.269H662.12V29.247H671.081C671.513 29.247 671.697 28.9699 671.697 28.3228V27.8303C671.697 27.1834 671.513 26.906 671.081 26.906H660.333ZM488.056 38.5567C488.933 40.8474 491.501 41.9928 493.791 41.1154C496.082 40.2375 497.228 37.6694 496.35 35.3783C495.473 33.0885 492.904 31.9423 490.613 32.8199C488.323 33.6975 487.178 36.2665 488.056 38.5567ZM496.029 50.3593C495.522 50.5534 494.954 50.2999 494.76 49.7934C494.566 49.287 494.819 48.7191 495.326 48.525C495.832 48.3309 496.4 48.5844 496.594 49.0906C496.788 49.5973 496.535 50.1652 496.029 50.3593ZM482.092 29.2224C482.233 29.5907 482.646 29.7752 483.014 29.6339C483.383 29.4927 483.567 29.0797 483.426 28.7111C483.285 28.343 482.871 28.1586 482.503 28.2998C482.135 28.4411 481.951 28.854 482.092 29.2224Z" fill="#8097A2"/>
<mask id="mask0_60:547" style="mask-type:alpha" maskUnits="userSpaceOnUse" x="73" y="20" width="141" height="32">
<path d="M73 20H213.8V52H73V20Z" fill="white"/>
</mask>
<g mask="url(#mask0_60:547)">
<path d="M160.097 30.0132L160.092 30.0106C160.092 30.0106 160.09 30.009 160.088 30.009C159.992 29.9674 159.887 29.9458 159.786 29.9458C159.623 29.9469 159.467 29.9955 159.33 30.0806C159.191 30.1685 159.073 30.2966 159.006 30.457V30.4609L155.819 39.1539L153.364 33.3272L153.36 33.3247C153.291 33.1618 153.167 33.0359 153.027 32.9483C152.885 32.8604 152.722 32.8121 152.55 32.8121C152.383 32.8121 152.227 32.8643 152.089 32.9494C151.954 33.0371 151.831 33.1618 151.763 33.3247L151.761 33.3272L149.3 39.1576L146.097 30.4685H146.095C146.039 30.3005 145.925 30.1696 145.79 30.0831C145.652 29.9955 145.491 29.9469 145.325 29.9458C145.22 29.9458 145.112 29.9674 145.011 30.009H145.007L145.003 30.0132C144.704 30.1519 144.522 30.4494 144.521 30.7736C144.521 30.8755 144.541 30.977 144.58 31.0775H144.579L148.52 41.6247V41.6284C148.55 41.7071 148.593 41.7848 148.657 41.8612C148.703 41.9157 148.771 41.9617 148.841 41.9999C148.854 42.0124 148.874 42.0301 148.905 42.0492C148.938 42.0697 148.98 42.0839 149.023 42.0913C149.094 42.1145 149.187 42.1483 149.312 42.1483C149.471 42.1483 149.619 42.0913 149.752 42.0062C149.876 41.9236 149.987 41.8 150.048 41.6399L150.058 41.6323L152.55 35.6947L155.045 41.6081H155.047C155.105 41.7657 155.206 41.8893 155.323 41.9769C155.447 42.0697 155.586 42.1269 155.733 42.1483H155.837C155.937 42.1483 156.034 42.1295 156.115 42.0977C156.201 42.0648 156.27 42.0213 156.327 41.9783C156.461 41.8764 156.564 41.7365 156.628 41.5812V41.5778L160.543 31.0775C160.582 30.977 160.602 30.8767 160.602 30.7752C160.601 30.4533 160.41 30.1468 160.097 30.0132ZM142.084 36.0345C142.084 34.796 141.607 33.6742 140.848 32.8643C140.085 32.0528 139.052 31.5568 137.929 31.5568C136.806 31.5568 135.771 32.0528 135.009 32.8643C134.248 33.6742 133.771 34.796 133.771 36.0345C133.771 37.2719 134.248 38.3831 135.009 39.1879C135.771 39.9957 136.806 40.484 137.929 40.484C139.052 40.484 140.089 39.9957 140.848 39.1879C141.607 38.3831 142.084 37.2719 142.084 36.0345ZM142.062 31.7348C143.116 32.8489 143.756 34.3775 143.759 36.0345C143.756 37.6915 143.116 39.2185 142.062 40.3328C141.016 41.4452 139.556 42.1486 137.932 42.1486C136.32 42.1486 134.857 41.4452 133.807 40.3328C132.756 39.2185 132.105 37.6915 132.105 36.0345C132.105 34.3775 132.756 32.8489 133.807 31.7348C134.857 30.6233 136.32 29.9202 137.932 29.9202C139.556 29.9202 141.016 30.6233 142.062 31.7348ZM125.472 29.9418C124.165 29.9418 122.973 30.4494 122.082 31.2593V30.7752C122.081 30.5525 121.998 30.3449 121.853 30.1924C121.711 30.0424 121.502 29.9418 121.272 29.9418C121.035 29.9418 120.821 30.0371 120.672 30.191C120.525 30.3424 120.437 30.5525 120.437 30.7752V41.5676L120.471 41.6017L120.473 41.607C120.482 41.6426 120.504 41.682 120.528 41.7199C120.642 41.9196 120.828 42.071 121.059 42.1382L121.092 42.1486H121.272C121.392 42.1486 121.513 42.1233 121.628 42.0697C121.724 42.0239 121.813 41.9502 121.885 41.8561L121.887 41.8573C121.896 41.8486 121.899 41.837 121.909 41.8283C121.913 41.8269 121.917 41.823 121.919 41.8191C121.964 41.762 122.001 41.7036 122.024 41.6488C122.048 41.584 122.063 41.5228 122.075 41.4758L122.082 41.4452V34.9649C122.107 34.0379 122.489 33.2 123.103 32.5907C123.713 31.9819 124.548 31.6053 125.472 31.6053C126.411 31.6053 127.249 31.9819 127.856 32.5907C128.466 33.1977 128.836 34.0342 128.836 34.9561V41.3196C128.836 41.552 128.935 41.7671 129.086 41.9146C129.24 42.0618 129.451 42.1486 129.67 42.1486C129.893 42.1486 130.103 42.0618 130.256 41.9146C130.411 41.7671 130.506 41.552 130.506 41.3196V34.9561C130.506 32.2095 128.255 29.9458 125.472 29.9418ZM207.707 34.8542C207.232 32.9354 205.542 31.5683 203.613 31.5722C201.635 31.5722 199.968 32.9101 199.452 34.8542H207.707ZM209.534 35.6404V35.7228C209.534 35.9531 209.431 36.1604 209.274 36.2966C209.119 36.4337 208.916 36.505 208.698 36.5076H199.336C199.574 38.7849 201.398 40.4665 203.576 40.484H204.128C204.849 40.4865 205.551 40.2385 206.168 39.8278C206.787 39.421 207.321 38.8525 207.697 38.2267C207.775 38.0932 207.887 37.9915 208.007 37.9292C208.131 37.8618 208.264 37.8312 208.398 37.8312C208.546 37.8312 208.693 37.8694 208.821 37.9469L208.83 37.9508L208.84 37.9584C209.075 38.1301 209.222 38.3921 209.222 38.6797C209.222 38.8258 209.184 38.9747 209.103 39.1093L209.101 39.1145L209.098 39.1169C208.575 39.9463 207.862 40.7028 207.015 41.251C206.167 41.8002 205.183 42.1486 204.128 42.1486H203.567C201.924 42.1371 200.439 41.4452 199.368 40.339C198.3 39.2365 197.643 37.7219 197.643 36.0575C197.643 34.3648 198.306 32.8286 199.383 31.7171C200.459 30.607 201.956 29.9202 203.613 29.9202C205.195 29.9202 206.616 30.5472 207.668 31.5736C208.721 32.5997 209.408 34.025 209.531 35.6287L209.534 35.6404ZM171.132 24.8972C170.904 24.8972 170.695 24.9927 170.545 25.1427C170.394 25.2915 170.298 25.5014 170.298 25.7289V41.3196C170.298 41.5472 170.394 41.7556 170.545 41.9033C170.695 42.0506 170.904 42.1486 171.132 42.1486C171.606 42.1486 171.988 41.7772 171.991 41.3196V25.7289C171.988 25.2699 171.606 24.8972 171.132 24.8972ZM116.577 35.7368C115.903 35.4202 115.139 35.1862 114.376 34.9345C113.674 34.698 112.962 34.4969 112.455 34.2326C112.2 34.0963 112.001 33.9528 111.872 33.7913C111.74 33.63 111.677 33.4657 111.673 33.2418C111.674 32.9354 111.763 32.6887 111.914 32.4699C112.142 32.1432 112.525 31.8888 112.943 31.7245C113.357 31.5597 113.804 31.482 114.125 31.482C115.071 31.4834 115.67 31.7974 116.129 32.1227C116.356 32.287 116.547 32.4534 116.728 32.5907C116.821 32.662 116.908 32.7269 117.009 32.775C117.104 32.8222 117.217 32.8604 117.339 32.8604C117.417 32.8604 117.495 32.8463 117.566 32.816C117.642 32.7856 117.707 32.7421 117.769 32.6887C117.831 32.6317 117.883 32.5629 117.92 32.4865C117.953 32.4076 117.968 32.3264 117.968 32.2463C117.968 32.0986 117.921 31.9601 117.853 31.8301C117.727 31.6014 117.533 31.3828 117.286 31.164C116.918 30.8385 116.434 30.5281 115.912 30.2943C115.389 30.0603 114.828 29.9011 114.293 29.9011C113.054 29.9011 112.02 30.1809 111.268 30.6963C110.877 30.9657 110.532 31.2606 110.289 31.6677C110.041 32.0758 109.903 32.5794 109.886 33.2342C109.884 33.2635 109.884 33.2927 109.884 33.3219C109.882 33.9578 110.087 34.482 110.41 34.8924C110.9 35.5106 111.627 35.8806 112.34 36.1426C113.052 36.4045 113.764 36.5609 114.213 36.7109C114.845 36.9208 115.518 37.1483 116.007 37.4497C116.251 37.6036 116.449 37.7691 116.583 37.9508C116.713 38.1379 116.787 38.3309 116.79 38.5752V38.5932C116.788 38.9466 116.684 39.2238 116.512 39.4615C116.251 39.8151 115.819 40.0744 115.359 40.2385C114.902 40.3988 114.426 40.4665 114.119 40.4665C113.039 40.4665 112.316 40.2067 111.792 39.9463C111.529 39.8151 111.316 39.6854 111.123 39.5759C111.027 39.5239 110.938 39.4755 110.844 39.4373C110.752 39.3994 110.654 39.3748 110.543 39.3748C110.475 39.3748 110.401 39.3865 110.333 39.413C110.265 39.4424 110.202 39.4831 110.15 39.5326C110.077 39.603 110.013 39.6815 109.969 39.7719C109.925 39.8623 109.903 39.9576 109.903 40.0567C109.903 40.2196 109.964 40.3685 110.051 40.5031C110.188 40.6975 110.388 40.8719 110.638 41.046C110.896 41.2177 111.203 41.387 111.558 41.5536C112.344 41.9236 113.352 42.1168 114.117 42.1295H114.119C115.31 42.1295 116.338 41.8561 117.204 41.2204V41.2188H117.205C118.052 40.5831 118.579 39.6382 118.579 38.5713C118.579 37.9851 118.442 37.4879 118.201 37.0811C117.837 36.4643 117.246 36.0575 116.577 35.7368ZM183.713 36.0345C183.713 34.7843 183.24 33.664 182.484 32.8555C181.728 32.0491 180.691 31.5597 179.557 31.557C178.432 31.557 177.399 32.0491 176.636 32.8555C175.878 33.664 175.399 34.7843 175.399 36.0345C175.399 37.2834 175.878 38.3962 176.636 39.1983C177.395 40.0008 178.432 40.484 179.557 40.484C180.694 40.484 181.731 40.0008 182.486 39.2011C183.24 38.3963 183.713 37.2845 183.713 36.0345ZM185.132 30.1519C185.286 30.3005 185.382 30.5157 185.382 30.748V41.3196C185.382 41.5472 185.284 41.7556 185.137 41.9033C184.986 42.0506 184.779 42.1486 184.549 42.1486C184.319 42.1486 184.109 42.0506 183.961 41.9033C183.81 41.7556 183.713 41.5472 183.713 41.3196V40.2882C182.663 41.4188 181.189 42.1486 179.557 42.1486C177.933 42.1486 176.471 41.4531 175.424 40.339C174.373 39.2303 173.73 37.7028 173.73 36.0345C173.73 34.3662 174.373 32.8374 175.424 31.7275C176.471 30.6146 177.933 29.9202 179.557 29.9202C181.188 29.9202 182.663 30.6289 183.713 31.7539V30.748C183.713 30.5157 183.809 30.3005 183.963 30.1519C184.118 30.0056 184.326 29.9202 184.549 29.9202C184.77 29.9202 184.98 30.0056 185.132 30.1519ZM196.91 31.2238C197.076 31.0598 197.167 30.8421 197.167 30.6261C197.167 30.4137 197.076 30.2011 196.909 30.0472H196.91C196.909 30.0424 196.905 30.0424 196.905 30.0424C196.904 30.0385 196.901 30.0371 196.901 30.0371H196.899C196.738 29.8795 196.531 29.793 196.318 29.793C196.103 29.793 195.892 29.8825 195.732 30.0424L189.209 36.3792V25.7289C189.209 25.2699 188.824 24.8972 188.35 24.8972C188.122 24.8972 187.913 24.9927 187.764 25.1427C187.616 25.2915 187.516 25.5014 187.516 25.7289V41.3196C187.516 41.5472 187.616 41.7556 187.764 41.9033C187.913 42.0506 188.122 42.1486 188.35 42.1486C188.824 42.1486 189.209 41.7772 189.209 41.3196V38.7469L191.333 36.6323L195.663 41.8396C195.744 41.9592 195.856 42.0416 195.965 42.0851C196.09 42.1322 196.211 42.1486 196.319 42.1486C196.469 42.1486 196.68 42.1168 196.865 41.9719L196.875 41.9657L196.886 41.9539C197.059 41.7837 197.158 41.5573 197.158 41.3258C197.158 41.1312 197.085 40.9328 196.951 40.7741V40.7716L192.544 35.4303L196.906 31.2238H196.91ZM167.691 24.9342H167.505C167.48 24.9342 167.456 24.9368 167.43 24.9377C167.408 24.9368 167.383 24.9342 167.359 24.9342C166.878 24.9342 166.411 24.9888 165.975 25.1337C165.545 25.2761 165.148 25.5115 164.841 25.8688L164.84 25.8674L164.839 25.8688V25.8699C164.521 26.2222 164.311 26.6432 164.184 27.1216C164.056 27.6022 164.004 28.1438 163.999 28.7593V29.9511H162.681C162.223 29.9536 161.86 30.3185 161.86 30.7598C161.857 30.9974 161.95 31.2162 162.101 31.3741C162.253 31.5291 162.46 31.6308 162.691 31.6435H163.999V41.3399L163.997 41.3626C163.997 41.5902 164.093 41.8 164.248 41.9502C164.4 42.0977 164.615 42.1854 164.849 42.1854C165.293 42.1831 165.657 41.8219 165.659 41.3626V31.6435H167.076C167.304 31.6308 167.515 31.5354 167.665 31.3814C167.82 31.2277 167.914 31.0117 167.914 30.7775V30.746C167.909 30.3095 167.543 29.9511 167.085 29.9511H165.659V28.7643C165.668 28.2393 165.722 27.8463 165.801 27.5603C165.878 27.2727 165.983 27.0921 166.077 26.9803C166.169 26.8811 166.289 26.7983 166.484 26.732C166.68 26.6688 166.952 26.6281 167.32 26.6281H167.363C167.385 26.6281 167.408 26.6241 167.428 26.6241C167.454 26.6241 167.478 26.6281 167.505 26.6281H167.612H167.691C168.161 26.6281 168.54 26.2491 168.54 25.7809C168.54 25.3132 168.161 24.9342 167.691 24.9342ZM83.6702 36.5849C83.7378 36.3725 83.766 36.1537 83.7609 35.9376C83.753 35.7812 83.7327 35.625 83.6882 35.4685C83.5541 34.9828 83.2365 34.5489 82.7606 34.2753L75.9917 30.3792C75.0362 29.831 73.818 30.157 73.2696 31.1081C72.7159 32.0579 73.0425 33.2708 73.998 33.8205L77.7805 36.0012L73.998 38.1758C73.0425 38.7264 72.7171 39.9396 73.2696 40.8933C73.818 41.8419 75.0362 42.1663 75.9917 41.618L82.7606 37.7194C83.2173 37.4573 83.5273 37.0464 83.6702 36.5849ZM85.5072 40.2359C85.1182 40.2028 84.7139 40.2843 84.3501 40.4955L77.5762 44.3891C76.6232 44.9385 76.2978 46.1579 76.8478 47.1093C77.4003 48.0581 78.6174 48.3848 79.569 47.8328L83.3641 45.6506V50.0112C83.3641 51.1098 84.2557 52 85.3592 52C86.4574 52 87.3518 51.1098 87.3518 50.0112V42.2158C87.3518 41.1691 86.5379 40.3096 85.5072 40.2359ZM92.4442 31.7638C92.832 31.7958 93.2352 31.7132 93.599 31.5045L100.371 27.6073C101.326 27.0576 101.65 25.8433 101.101 24.8894C100.551 23.9398 99.3331 23.614 98.3801 24.1632L94.5875 26.348V21.986C94.5875 20.8904 93.6959 20 92.5924 20C91.4889 20 90.5996 20.8904 90.5996 21.986V29.7815C90.5996 30.827 91.4112 31.6879 92.4442 31.7638ZM77.5762 27.6073L84.3501 31.5045C84.7139 31.7132 85.1182 31.7958 85.5072 31.7638C86.5379 31.6879 87.3518 30.827 87.3518 29.7815V21.986C87.3518 20.8904 86.4574 20 85.3592 20C84.2557 20 83.3641 20.8904 83.3641 21.986V26.348L79.569 24.1632C78.6174 23.614 77.4003 23.9398 76.8478 24.8894C76.2978 25.8433 76.6232 27.0576 77.5762 27.6073ZM90.3063 35.9848C90.3063 35.8716 90.2375 35.7138 90.1572 35.63L89.342 34.8211C89.2617 34.7412 89.1033 34.675 88.9895 34.675H88.9579C88.8444 34.675 88.6863 34.7412 88.6071 34.8211L87.7919 35.63C87.7102 35.7138 87.6476 35.8716 87.6476 35.9848V36.0166C87.6476 36.1284 87.7102 36.2848 87.7919 36.3663L88.6071 37.1775C88.6874 37.2576 88.8444 37.3236 88.9579 37.3236H88.9895C89.1033 37.3236 89.2617 37.2576 89.342 37.1775L90.1572 36.3663C90.2375 36.2848 90.3063 36.1284 90.3063 36.0166V35.9848ZM92.5566 36.7629L89.7413 39.566C89.6607 39.6483 89.5052 39.7157 89.3879 39.7157H89.1837H88.7677H88.56C88.4462 39.7157 88.2881 39.6483 88.2064 39.566L85.3924 36.7629C85.3119 36.684 85.2468 36.5253 85.2468 36.4132V36.2059V35.7913V35.5868C85.2468 35.4722 85.3119 35.3132 85.3924 35.2332L88.2064 32.4304C88.2881 32.3478 88.4462 32.2829 88.56 32.2829H88.7677H89.1837H89.3879C89.5026 32.2829 89.6607 32.3478 89.7413 32.4304L92.5566 35.2332C92.637 35.3132 92.7021 35.4722 92.7021 35.5868V35.7913V36.2059V36.4132C92.7021 36.5253 92.637 36.684 92.5566 36.7629ZM100.371 44.3891L93.599 40.4955C93.2352 40.2843 92.832 40.2028 92.4442 40.2359C91.4112 40.3096 90.5996 41.1691 90.5996 42.2158V50.0112C90.5996 51.1098 91.4889 52 92.5924 52C93.6959 52 94.5875 51.1098 94.5875 50.0112V45.6506L98.3801 47.8328C99.3329 48.3848 100.551 48.0581 101.101 47.1093C101.65 46.1579 101.326 44.9385 100.371 44.3891ZM103.952 33.8205L100.17 36.0012L103.952 38.1758C104.908 38.7264 105.234 39.9396 104.682 40.8933C104.131 41.8419 102.912 42.1663 101.96 41.618L95.1858 37.7194C94.7341 37.4573 94.4204 37.0464 94.2812 36.5849C94.215 36.3725 94.1843 36.1537 94.1919 35.9376C94.1958 35.7812 94.2187 35.625 94.2621 35.4685C94.3976 34.9828 94.7151 34.5491 95.1858 34.2753L101.96 30.3792C102.912 29.831 104.131 30.157 104.682 31.1081C105.234 32.0579 104.908 33.2708 103.952 33.8205ZM213.8 29.9313C213.8 31.0244 213.066 31.9366 211.84 31.9366C210.622 31.9366 209.897 31.0156 209.897 29.9313C209.897 28.8382 210.622 27.9257 211.84 27.9257C213.066 27.9257 213.8 28.8382 213.8 29.9313ZM213.411 29.9313C213.411 29.0018 212.79 28.2956 211.84 28.2956C210.907 28.2956 210.286 28.967 210.286 29.9313C210.286 30.852 210.907 31.5664 211.84 31.5664C212.79 31.5664 213.411 30.8608 213.411 29.9313ZM211.071 29.0273H211.909C212.366 29.0273 212.669 29.2769 212.669 29.6641C212.669 29.9053 212.548 30.0859 212.366 30.1979L212.695 30.6712V30.766H212.22L211.9 30.3097H211.529V30.766H211.071V29.0273ZM211.9 29.4493H211.529V29.9053H211.9C212.073 29.9053 212.185 29.8277 212.185 29.6816C212.185 29.5266 212.081 29.4493 211.9 29.4493Z" fill="#8097A2"/>
</g>
<path d="M296.837 27.0912V45.0875H292.661V43.1806C291.713 44.73 289.966 45.6238 287.418 45.6238C283.183 45.6238 281.08 43.419 281.08 39.9032V27.0912H285.641V38.6816C285.641 40.5587 286.648 41.6611 288.603 41.6611C290.884 41.6611 292.276 40.3501 292.276 37.9367V27.0912H296.837ZM326.454 32.514V45.0875H321.893V33.8845C321.893 31.7393 321.034 30.4283 319.049 30.4283C317.065 30.4283 315.91 31.9181 315.91 34.0037V45.0875H311.349V33.8845C311.349 31.5903 310.401 30.4283 308.506 30.4283C306.492 30.4283 305.366 31.9181 305.366 34.0037V45.0875H300.805V27.0912H305.041V29.0875C306.077 27.3594 307.795 26.4953 310.135 26.4953C312.415 26.4953 314.133 27.4488 315.11 29.1471C316.325 27.3892 318.131 26.4953 320.471 26.4953C324.292 26.4953 326.454 28.7896 326.454 32.514ZM363.06 45.0875H358.499V20.0596H363.06V45.0875ZM412.521 45.0875H407.96V27.0912H412.521V45.0875ZM407.871 24.3799H412.58V20H407.871V24.3799ZM429.61 38.9497C427.744 40.946 426.47 41.7207 424.752 41.7207C422.709 41.7207 421.258 40.5289 420.606 38.6816V33.4376C421.287 31.5605 422.738 30.3687 424.812 30.3687C426.322 30.3687 427.536 30.905 429.462 32.7225L432.305 29.892C430.024 27.3892 427.803 26.4655 424.812 26.4655C420.636 26.4655 417.407 28.6704 416.134 32.365V39.7542C417.378 43.4488 420.547 45.6238 424.693 45.6238C427.921 45.6238 430.143 44.5512 432.631 41.4525L429.61 38.9497ZM271.188 34.0037C269.944 33.7356 269.056 33.4972 268.552 33.378C267.931 33.1993 267.457 32.9609 267.22 32.6331V31.2626C267.634 30.6071 268.641 30.1899 270.033 30.1899C271.958 30.1899 273.291 30.6369 275.394 32.3054L277.852 29.3259C275.364 27.2402 273.232 26.4953 270.152 26.4953C266.598 26.4953 264.14 27.9553 263.162 30.041V34.5698C263.932 36.0894 265.709 36.9534 269.263 37.7281C270.537 38.0261 271.396 38.2346 271.899 38.324C272.551 38.5326 273.143 38.8007 273.469 39.2775V40.8566C273.025 41.5717 271.958 41.959 270.566 41.959C269.559 41.9888 268.582 41.7803 267.664 41.3929C266.775 41.0354 265.739 40.3501 264.436 39.2775L261.8 42.2272C264.643 44.7598 267.042 45.6238 270.448 45.6238C274.091 45.6238 276.668 44.2235 277.645 41.9888V37.4302C276.816 35.7318 274.831 34.838 271.188 34.0037ZM338.419 26.4655C334.302 26.4655 331.074 28.7002 329.741 32.2756V39.8436C331.044 43.419 334.302 45.6536 338.419 45.6536C342.536 45.6536 345.734 43.419 347.037 39.8734V32.2458C345.705 28.7002 342.476 26.4655 338.419 26.4655ZM342.625 38.7114C341.914 40.6183 340.403 41.7505 338.389 41.7505C336.405 41.7505 334.835 40.6183 334.124 38.7114V33.4078C334.835 31.5009 336.346 30.3389 338.389 30.3389C340.403 30.3389 341.884 31.5009 342.595 33.4078L342.625 38.7114ZM375.262 26.4655C371.146 26.4655 367.917 28.7002 366.585 32.2756V39.8436C367.917 43.419 371.146 45.6536 375.262 45.6536C379.379 45.6536 382.578 43.419 383.881 39.8734V32.2458C382.578 28.7002 379.35 26.4655 375.262 26.4655ZM379.468 38.7114C378.757 40.6183 377.247 41.7505 375.262 41.7505C373.278 41.7505 371.708 40.6183 370.998 38.7114V33.4078C371.708 31.5009 373.219 30.3389 375.262 30.3389C377.306 30.3389 378.757 31.5009 379.468 33.4078V38.7114ZM399.756 27.0912V29.0875C398.601 27.3594 396.794 26.4953 394.306 26.4953C390.93 26.4953 388.205 28.581 387.02 31.8883V39.3073C388.175 42.6145 390.9 44.6704 394.306 44.6704C396.587 44.6704 398.304 43.8957 399.519 42.3762V43.8063C399.519 46.7858 397.801 48.1862 395.135 48.1862C393.151 48.1862 391.522 47.5903 388.916 46.041L386.695 49.3482C389.212 51.0466 392.174 51.9702 395.195 52C400.23 52 403.932 49.2886 403.932 44.2235V27.0912H399.756ZM399.193 38.0261C398.512 39.7244 397.09 40.797 395.313 40.797C393.536 40.797 392.115 39.7542 391.433 38.0261V33.1099C392.115 31.4115 393.507 30.3687 395.313 30.3687C397.12 30.3687 398.512 31.4115 399.193 33.1099V38.0261Z" fill="#8097A2"/>
</svg>
