<svg width="24" height="24" viewBox="0 0 24 24" fill="none" xmlns="http://www.w3.org/2000/svg">
<g clip-path="url(#clip0_86:1674)">
<path d="M16.2 10.7998C14.5464 10.7998 13.2 9.4534 13.2 7.7998C13.2 6.1462 14.5464 4.7998 16.2 4.7998C17.8536 4.7998 19.2 6.1462 19.2 7.7998C19.2 9.4534 17.8536 10.7998 16.2 10.7998ZM16.2 5.9998C15.2076 5.9998 14.4 6.8074 14.4 7.7998C14.4 8.7922 15.2076 9.5998 16.2 9.5998C17.1924 9.5998 18 8.7922 18 7.7998C18 6.8074 17.1924 5.9998 16.2 5.9998Z" fill="white"/>
<path d="M0.600106 23.9999C0.444106 23.9999 0.290506 23.9387 0.175306 23.8247C0.0109064 23.6603 -0.0442936 23.4143 0.0361064 23.1959C1.88291 18.1187 3.82451 15.5435 5.80571 15.5435C6.45971 15.5435 7.07051 15.8243 7.62371 16.3763C8.49731 17.2499 8.52851 18.1199 8.40131 18.6959C8.00051 20.5055 5.44451 22.2779 0.805306 23.9651C0.738106 23.9891 0.668506 24.0011 0.600106 24.0011V23.9999ZM5.80691 16.7423C5.21291 16.7423 4.51331 17.2631 3.78491 18.2483C3.06851 19.2167 2.34851 20.5967 1.63931 22.3607C3.24131 21.7163 4.52891 21.0623 5.47811 20.4107C6.75851 19.5311 7.13771 18.8507 7.23011 18.4355C7.32251 18.0203 7.17371 17.6231 6.77531 17.2247C6.45131 16.9007 6.13451 16.7435 5.80571 16.7435L5.80691 16.7423Z" fill="white"/>
<path d="M23.3999 0.000223438C20.2859 0.000223438 17.5115 0.528224 15.1511 1.56982C13.2059 2.42902 11.5403 3.63382 10.1999 5.15302C9.9503 5.43622 9.7187 5.72302 9.5039 6.01102C8.4695 6.07942 7.4111 6.49102 6.3551 7.23502C5.4611 7.86382 4.5635 8.73502 3.6851 9.82342C2.2091 11.6522 1.3019 13.4558 1.2635 13.5314C1.1327 13.7942 1.2107 14.1134 1.4483 14.285C1.5539 14.3618 1.6775 14.399 1.7999 14.399C1.9535 14.399 2.1071 14.3402 2.2235 14.225C2.2295 14.219 2.8031 13.655 3.7811 13.1018C4.5875 12.6458 5.8307 12.1094 7.3343 12.0146C7.7147 12.9878 8.8031 14.1518 9.3251 14.6738C9.8471 15.1958 11.0111 16.2842 11.9843 16.6646C11.8895 18.1682 11.3531 19.4114 10.8971 20.2178C10.3427 21.197 9.7799 21.7694 9.7751 21.7742C9.5675 21.9818 9.5411 22.3106 9.7127 22.5494C9.8291 22.7102 10.0115 22.799 10.1999 22.799C10.2911 22.799 10.3823 22.7786 10.4675 22.7354C10.5431 22.697 12.3467 21.7898 14.1755 20.3138C15.2639 19.4354 16.1351 18.5378 16.7639 17.6438C17.5079 16.5866 17.9183 15.5294 17.9879 14.495C18.2747 14.2814 18.5615 14.0498 18.8459 13.799C20.3651 12.4586 21.5699 10.793 22.4291 8.84782C23.4707 6.48862 23.9987 3.71302 23.9987 0.599023V-0.000976562H23.3987L23.3999 0.000223438ZM3.7283 11.7698C4.8719 10.1102 6.6203 8.05222 8.5907 7.40542C7.8119 8.76982 7.4087 10.0226 7.2635 10.817C5.8727 10.9022 4.6739 11.3066 3.7283 11.7698V11.7698ZM12.2315 20.2682C12.6947 19.3226 13.0991 18.125 13.1831 16.7354C13.9763 16.5902 15.2303 16.187 16.5935 15.4094C15.9455 17.3762 13.8887 19.1246 12.2303 20.2682H12.2315ZM18.0527 12.9002C15.5567 15.1022 12.9719 15.6002 12.5999 15.6002C12.5975 15.6002 12.3515 15.5954 11.6891 15.1286C11.2271 14.8034 10.6883 14.3402 10.1747 13.8266C9.6611 13.313 9.1979 12.7742 8.8727 12.3122C8.4059 11.6498 8.4011 11.4038 8.4011 11.4014C8.4011 11.0294 8.8991 8.44462 11.1011 5.94862C13.7363 2.96302 17.7695 1.32982 22.7939 1.20862C22.6727 6.23302 21.0407 10.2662 18.0539 12.9014L18.0527 12.9002Z" fill="white"/>
</g>
<defs>
<clipPath id="clip0_86:1674">
<rect width="24" height="24" fill="white"/>
</clipPath>
</defs>
</svg>
