<?xml version="1.0" encoding="UTF-8" standalone="no"?>
<svg width="415px" height="202px" viewBox="0 0 415 202" version="1.1" xmlns="http://www.w3.org/2000/svg" xmlns:xlink="http://www.w3.org/1999/xlink">
    <!-- Generator: Sketch 49.3 (51167) - http://www.bohemiancoding.com/sketch -->
    <title>teleport-pricing</title>
    <desc>Created with Sketch.</desc>
    <defs></defs>
    <g id="Page-1" stroke="none" stroke-width="1" fill="none" fill-rule="evenodd">
        <g id="teleport-pricing">
            <polygon id="Triangle" fill="#B8E986" fill-rule="nonzero" points="77 31 393 178 77 178"></polygon>
            <path d="M0.3150625,2.796 L1.3350625,2.796 L1.3350625,3.636 L1.3590625,3.636 C1.52706334,3.29199828 1.7910607,3.04200078 2.1510625,2.886 C2.5110643,2.72999922 2.90706034,2.652 3.3390625,2.652 C3.8190649,2.652 4.23706072,2.73999912 4.5930625,2.916 C4.94906428,3.09200088 5.24506132,3.3299985 5.4810625,3.63 C5.71706368,3.9300015 5.8950619,4.27599804 6.0150625,4.668 C6.1350631,5.06000196 6.1950625,5.4759978 6.1950625,5.916 C6.1950625,6.3560022 6.13706308,6.77199804 6.0210625,7.164 C5.90506192,7.55600196 5.72906368,7.89799854 5.4930625,8.19 C5.25706132,8.48200146 4.96106428,8.71199916 4.6050625,8.88 C4.24906072,9.04800084 3.83506486,9.132 3.3630625,9.132 C3.21106174,9.132 3.04106344,9.11600016 2.8530625,9.084 C2.66506156,9.05199984 2.47906342,9.00000036 2.2950625,8.928 C2.11106158,8.85599964 1.93706332,8.75800062 1.7730625,8.634 C1.60906168,8.50999938 1.47106306,8.35600092 1.3590625,8.172 L1.3350625,8.172 L1.3350625,11.364 L0.3150625,11.364 L0.3150625,2.796 Z M5.1150625,5.844 C5.1150625,5.55599856 5.07706288,5.27400138 5.0010625,4.998 C4.92506212,4.72199862 4.80906328,4.47600108 4.6530625,4.26 C4.49706172,4.04399892 4.29706372,3.87200064 4.0530625,3.744 C3.80906128,3.61599936 3.52306414,3.552 3.1950625,3.552 C2.85106078,3.552 2.5590637,3.61999932 2.3190625,3.756 C2.0790613,3.89200068 1.88306326,4.0699989 1.7310625,4.29 C1.57906174,4.5100011 1.46906284,4.7599986 1.4010625,5.04 C1.33306216,5.3200014 1.2990625,5.60399856 1.2990625,5.892 C1.2990625,6.19600152 1.33506214,6.48999858 1.4070625,6.774 C1.47906286,7.05800142 1.59306172,7.30799892 1.7490625,7.524 C1.90506328,7.74000108 2.10706126,7.91399934 2.3550625,8.046 C2.60306374,8.17800066 2.90306074,8.244 3.2550625,8.244 C3.60706426,8.244 3.90106132,8.17600068 4.1370625,8.04 C4.37306368,7.90399932 4.56306178,7.72400112 4.7070625,7.5 C4.85106322,7.27599888 4.95506218,7.02000144 5.0190625,6.732 C5.08306282,6.44399856 5.1150625,6.14800152 5.1150625,5.844 Z M7.3590625,2.796 L7.3590625,9 L8.3790625,9 L8.3790625,6.24 C8.3790625,5.839998 8.4190621,5.48600154 8.4990625,5.178 C8.5790629,4.86999846 8.70706162,4.60800108 8.8830625,4.392 C9.05906338,4.17599892 9.29106106,4.01200056 9.5790625,3.9 C9.86706394,3.78799944 10.2150605,3.732 10.6230625,3.732 L10.6230625,2.652 C10.0710597,2.63599992 9.6150643,2.7479988 9.2550625,2.988 C8.8950607,3.2280012 8.59106374,3.59999748 8.3430625,4.104 L8.3190625,4.104 L8.3190625,2.796 L7.3590625,2.796 Z M12.4710625,1.68 L12.4710625,0.432 L11.4510625,0.432 L11.4510625,1.68 L12.4710625,1.68 Z M11.4510625,2.796 L11.4510625,9 L12.4710625,9 L12.4710625,2.796 L11.4510625,2.796 Z M18.2670625,4.788 L19.3230625,4.788 C19.2830623,4.41999816 19.1870633,4.10200134 19.0350625,3.834 C18.8830617,3.56599866 18.6890637,3.34400088 18.4530625,3.168 C18.2170613,2.99199912 17.945064,2.86200042 17.6370625,2.778 C17.329061,2.69399958 16.9990643,2.652 16.6470625,2.652 C16.1590601,2.652 15.7310643,2.73799914 15.3630625,2.91 C14.9950607,3.08200086 14.6890637,3.3179985 14.4450625,3.618 C14.2010613,3.9180015 14.0190631,4.26999798 13.8990625,4.674 C13.7790619,5.07800202 13.7190625,5.51199768 13.7190625,5.976 C13.7190625,6.44000232 13.7810619,6.86599806 13.9050625,7.254 C14.0290631,7.64200194 14.2130613,7.9759986 14.4570625,8.256 C14.7010637,8.5360014 15.0050607,8.75199924 15.3690625,8.904 C15.7330643,9.05600076 16.1510601,9.132 16.6230625,9.132 C17.4150665,9.132 18.0410602,8.92400208 18.5010625,8.508 C18.9610648,8.09199792 19.2470619,7.50000384 19.3590625,6.732 L18.3150625,6.732 C18.2510622,7.2120024 18.0770639,7.58399868 17.7930625,7.848 C17.5090611,8.11200132 17.115065,8.244 16.6110625,8.244 C16.2910609,8.244 16.0150637,8.18000064 15.7830625,8.052 C15.5510613,7.92399936 15.3630632,7.75400106 15.2190625,7.542 C15.0750618,7.32999894 14.9690628,7.08800136 14.9010625,6.816 C14.8330622,6.54399864 14.7990625,6.26400144 14.7990625,5.976 C14.7990625,5.66399844 14.8310622,5.36200146 14.8950625,5.07 C14.9590628,4.77799854 15.0650618,4.52000112 15.2130625,4.296 C15.3610632,4.07199888 15.5590613,3.89200068 15.8070625,3.756 C16.0550637,3.61999932 16.3630607,3.552 16.7310625,3.552 C17.1630647,3.552 17.5070612,3.65999892 17.7630625,3.876 C18.0190638,4.09200108 18.1870621,4.39599804 18.2670625,4.788 Z M24.8070625,5.304 C24.7910624,5.0639988 24.737063,4.83600108 24.6450625,4.62 C24.553062,4.40399892 24.4290633,4.21800078 24.2730625,4.062 C24.1170617,3.90599922 23.9330636,3.78200046 23.7210625,3.69 C23.5090614,3.59799954 23.2750638,3.552 23.0190625,3.552 C22.7550612,3.552 22.5170636,3.59799954 22.3050625,3.69 C22.0930614,3.78200046 21.9110633,3.9079992 21.7590625,4.068 C21.6070617,4.2280008 21.4870629,4.41399894 21.3990625,4.626 C21.3110621,4.83800106 21.2590626,5.0639988 21.2430625,5.304 L24.8070625,5.304 Z M25.7910625,7.032 C25.6550618,7.72800348 25.3550648,8.25199824 24.8910625,8.604 C24.4270602,8.95600176 23.843066,9.132 23.1390625,9.132 C22.64306,9.132 22.2130643,9.0520008 21.8490625,8.892 C21.4850607,8.7319992 21.1790637,8.50800144 20.9310625,8.22 C20.6830613,7.93199856 20.4970631,7.588002 20.3730625,7.188 C20.2490619,6.787998 20.1790626,6.35200236 20.1630625,5.88 C20.1630625,5.40799764 20.2350618,4.97600196 20.3790625,4.584 C20.5230632,4.19199804 20.7250612,3.85200144 20.9850625,3.564 C21.2450638,3.27599856 21.5530607,3.0520008 21.9090625,2.892 C22.2650643,2.7319992 22.6550604,2.652 23.0790625,2.652 C23.6310653,2.652 24.0890607,2.76599886 24.4530625,2.994 C24.8170643,3.22200114 25.1090614,3.51199824 25.3290625,3.864 C25.5490636,4.21600176 25.7010621,4.59999792 25.7850625,5.016 C25.8690629,5.43200208 25.9030626,5.82799812 25.8870625,6.204 L21.2430625,6.204 C21.2350625,6.47600136 21.2670621,6.73399878 21.3390625,6.978 C21.4110629,7.22200122 21.5270617,7.43799906 21.6870625,7.626 C21.8470633,7.81400094 22.0510613,7.96399944 22.2990625,8.076 C22.5470637,8.18800056 22.8390608,8.244 23.1750625,8.244 C23.6070647,8.244 23.9610611,8.144001 24.2370625,7.944 C24.5130639,7.743999 24.6950621,7.44000204 24.7830625,7.032 L25.7910625,7.032 Z M30.3150625,2.796 L31.3350625,2.796 L31.3350625,3.636 L31.3590625,3.636 C31.5270633,3.29199828 31.7910607,3.04200078 32.1510625,2.886 C32.5110643,2.72999922 32.9070603,2.652 33.3390625,2.652 C33.8190649,2.652 34.2370607,2.73999912 34.5930625,2.916 C34.9490643,3.09200088 35.2450613,3.3299985 35.4810625,3.63 C35.7170637,3.9300015 35.8950619,4.27599804 36.0150625,4.668 C36.1350631,5.06000196 36.1950625,5.4759978 36.1950625,5.916 C36.1950625,6.3560022 36.1370631,6.77199804 36.0210625,7.164 C35.9050619,7.55600196 35.7290637,7.89799854 35.4930625,8.19 C35.2570613,8.48200146 34.9610643,8.71199916 34.6050625,8.88 C34.2490607,9.04800084 33.8350649,9.132 33.3630625,9.132 C33.2110617,9.132 33.0410634,9.11600016 32.8530625,9.084 C32.6650616,9.05199984 32.4790634,9.00000036 32.2950625,8.928 C32.1110616,8.85599964 31.9370633,8.75800062 31.7730625,8.634 C31.6090617,8.50999938 31.4710631,8.35600092 31.3590625,8.172 L31.3350625,8.172 L31.3350625,11.364 L30.3150625,11.364 L30.3150625,2.796 Z M35.1150625,5.844 C35.1150625,5.55599856 35.0770629,5.27400138 35.0010625,4.998 C34.9250621,4.72199862 34.8090633,4.47600108 34.6530625,4.26 C34.4970617,4.04399892 34.2970637,3.87200064 34.0530625,3.744 C33.8090613,3.61599936 33.5230641,3.552 33.1950625,3.552 C32.8510608,3.552 32.5590637,3.61999932 32.3190625,3.756 C32.0790613,3.89200068 31.8830633,4.0699989 31.7310625,4.29 C31.5790617,4.5100011 31.4690628,4.7599986 31.4010625,5.04 C31.3330622,5.3200014 31.2990625,5.60399856 31.2990625,5.892 C31.2990625,6.19600152 31.3350621,6.48999858 31.4070625,6.774 C31.4790629,7.05800142 31.5930617,7.30799892 31.7490625,7.524 C31.9050633,7.74000108 32.1070613,7.91399934 32.3550625,8.046 C32.6030637,8.17800066 32.9030607,8.244 33.2550625,8.244 C33.6070643,8.244 33.9010613,8.17600068 34.1370625,8.04 C34.3730637,7.90399932 34.5630618,7.72400112 34.7070625,7.5 C34.8510632,7.27599888 34.9550622,7.02000144 35.0190625,6.732 C35.0830628,6.44399856 35.1150625,6.14800152 35.1150625,5.844 Z M41.7030625,5.304 C41.6870624,5.0639988 41.633063,4.83600108 41.5410625,4.62 C41.449062,4.40399892 41.3250633,4.21800078 41.1690625,4.062 C41.0130617,3.90599922 40.8290636,3.78200046 40.6170625,3.69 C40.4050614,3.59799954 40.1710638,3.552 39.9150625,3.552 C39.6510612,3.552 39.4130636,3.59799954 39.2010625,3.69 C38.9890614,3.78200046 38.8070633,3.9079992 38.6550625,4.068 C38.5030617,4.2280008 38.3830629,4.41399894 38.2950625,4.626 C38.2070621,4.83800106 38.1550626,5.0639988 38.1390625,5.304 L41.7030625,5.304 Z M42.6870625,7.032 C42.5510618,7.72800348 42.2510648,8.25199824 41.7870625,8.604 C41.3230602,8.95600176 40.739066,9.132 40.0350625,9.132 C39.53906,9.132 39.1090643,9.0520008 38.7450625,8.892 C38.3810607,8.7319992 38.0750637,8.50800144 37.8270625,8.22 C37.5790613,7.93199856 37.3930631,7.588002 37.2690625,7.188 C37.1450619,6.787998 37.0750626,6.35200236 37.0590625,5.88 C37.0590625,5.40799764 37.1310618,4.97600196 37.2750625,4.584 C37.4190632,4.19199804 37.6210612,3.85200144 37.8810625,3.564 C38.1410638,3.27599856 38.4490607,3.0520008 38.8050625,2.892 C39.1610643,2.7319992 39.5510604,2.652 39.9750625,2.652 C40.5270653,2.652 40.9850607,2.76599886 41.3490625,2.994 C41.7130643,3.22200114 42.0050614,3.51199824 42.2250625,3.864 C42.4450636,4.21600176 42.5970621,4.59999792 42.6810625,5.016 C42.7650629,5.43200208 42.7990626,5.82799812 42.7830625,6.204 L38.1390625,6.204 C38.1310625,6.47600136 38.1630621,6.73399878 38.2350625,6.978 C38.3070629,7.22200122 38.4230617,7.43799906 38.5830625,7.626 C38.7430633,7.81400094 38.9470613,7.96399944 39.1950625,8.076 C39.4430637,8.18800056 39.7350608,8.244 40.0710625,8.244 C40.5030647,8.244 40.8570611,8.144001 41.1330625,7.944 C41.4090639,7.743999 41.5910621,7.44000204 41.6790625,7.032 L42.6870625,7.032 Z M43.8030625,2.796 L43.8030625,9 L44.8230625,9 L44.8230625,6.24 C44.8230625,5.839998 44.8630621,5.48600154 44.9430625,5.178 C45.0230629,4.86999846 45.1510616,4.60800108 45.3270625,4.392 C45.5030634,4.17599892 45.7350611,4.01200056 46.0230625,3.9 C46.3110639,3.78799944 46.6590605,3.732 47.0670625,3.732 L47.0670625,2.652 C46.5150597,2.63599992 46.0590643,2.7479988 45.6990625,2.988 C45.3390607,3.2280012 45.0350637,3.59999748 44.7870625,4.104 L44.7630625,4.104 L44.7630625,2.796 L43.8030625,2.796 Z M10.4970625,16.796 L10.4970625,23 L11.5170625,23 L11.5170625,19.496 C11.5170625,19.2159986 11.5550621,18.9580012 11.6310625,18.722 C11.7070629,18.4859988 11.8210617,18.2800009 11.9730625,18.104 C12.1250633,17.9279991 12.3150614,17.7920005 12.5430625,17.696 C12.7710636,17.5999995 13.0410609,17.552 13.3530625,17.552 C13.7450645,17.552 14.0530614,17.6639989 14.2770625,17.888 C14.5010636,18.1120011 14.6130625,18.4159981 14.6130625,18.8 L14.6130625,23 L15.6330625,23 L15.6330625,18.92 C15.6330625,18.5839983 15.5990628,18.2780014 15.5310625,18.002 C15.4630622,17.7259986 15.3450633,17.488001 15.1770625,17.288 C15.0090617,17.087999 14.7890639,16.9320006 14.5170625,16.82 C14.2450611,16.7079994 13.9050645,16.652 13.4970625,16.652 C12.5770579,16.652 11.9050646,17.0279962 11.4810625,17.78 L11.4570625,17.78 L11.4570625,16.796 L10.4970625,16.796 Z M17.9130625,19.904 C17.9130625,20.2800019 17.963062,20.6139985 18.0630625,20.906 C18.163063,21.1980015 18.3010616,21.441999 18.4770625,21.638 C18.6530634,21.834001 18.8590613,21.9839995 19.0950625,22.088 C19.3310637,22.1920005 19.5810612,22.244 19.8450625,22.244 C20.1090638,22.244 20.3590613,22.1920005 20.5950625,22.088 C20.8310637,21.9839995 21.0370616,21.834001 21.2130625,21.638 C21.3890634,21.441999 21.527062,21.1980015 21.6270625,20.906 C21.727063,20.6139985 21.7770625,20.2800019 21.7770625,19.904 C21.7770625,19.5279981 21.727063,19.1940015 21.6270625,18.902 C21.527062,18.6099985 21.3890634,18.364001 21.2130625,18.164 C21.0370616,17.963999 20.8310637,17.8120005 20.5950625,17.708 C20.3590613,17.6039995 20.1090638,17.552 19.8450625,17.552 C19.5810612,17.552 19.3310637,17.6039995 19.0950625,17.708 C18.8590613,17.8120005 18.6530634,17.963999 18.4770625,18.164 C18.3010616,18.364001 18.163063,18.6099985 18.0630625,18.902 C17.963062,19.1940015 17.9130625,19.5279981 17.9130625,19.904 Z M16.8330625,19.904 C16.8330625,19.4479977 16.8970619,19.022002 17.0250625,18.626 C17.1530631,18.229998 17.3450612,17.8860015 17.6010625,17.594 C17.8570638,17.3019985 18.1730606,17.0720008 18.5490625,16.904 C18.9250644,16.7359992 19.3570601,16.652 19.8450625,16.652 C20.341065,16.652 20.7750606,16.7359992 21.1470625,16.904 C21.5190644,17.0720008 21.8330612,17.3019985 22.0890625,17.594 C22.3450638,17.8860015 22.5370619,18.229998 22.6650625,18.626 C22.7930631,19.022002 22.8570625,19.4479977 22.8570625,19.904 C22.8570625,20.3600023 22.7930631,20.783998 22.6650625,21.176 C22.5370619,21.568002 22.3450638,21.9099985 22.0890625,22.202 C21.8330612,22.4940015 21.5190644,22.7219992 21.1470625,22.886 C20.7750606,23.0500008 20.341065,23.132 19.8450625,23.132 C19.3570601,23.132 18.9250644,23.0500008 18.5490625,22.886 C18.1730606,22.7219992 17.8570638,22.4940015 17.6010625,22.202 C17.3450612,21.9099985 17.1530631,21.568002 17.0250625,21.176 C16.8970619,20.783998 16.8330625,20.3600023 16.8330625,19.904 Z M24.8010625,19.952 C24.8010625,20.2400014 24.8390621,20.5219986 24.9150625,20.798 C24.9910629,21.0740014 25.1070617,21.3199989 25.2630625,21.536 C25.4190633,21.7520011 25.6190613,21.9239994 25.8630625,22.052 C26.1070637,22.1800006 26.3930609,22.244 26.7210625,22.244 C27.0650642,22.244 27.3570613,22.1760007 27.5970625,22.04 C27.8370637,21.9039993 28.0330617,21.7260011 28.1850625,21.506 C28.3370633,21.2859989 28.4470622,21.0360014 28.5150625,20.756 C28.5830628,20.4759986 28.6170625,20.1920014 28.6170625,19.904 C28.6170625,19.5999985 28.5810629,19.3060014 28.5090625,19.022 C28.4370621,18.7379986 28.3230633,18.4880011 28.1670625,18.272 C28.0110617,18.0559989 27.8090637,17.8820007 27.5610625,17.75 C27.3130613,17.6179993 27.0130643,17.552 26.6610625,17.552 C26.3170608,17.552 26.0250637,17.6199993 25.7850625,17.756 C25.5450613,17.8920007 25.3530632,18.0719989 25.2090625,18.296 C25.0650618,18.5200011 24.9610628,18.7759986 24.8970625,19.064 C24.8330622,19.3520014 24.8010625,19.6479985 24.8010625,19.952 Z M29.6010625,23 L28.5810625,23 L28.5810625,22.16 L28.5570625,22.16 C28.3890617,22.5040017 28.1250643,22.7519992 27.7650625,22.904 C27.4050607,23.0560008 27.0090647,23.132 26.5770625,23.132 C26.0970601,23.132 25.6790643,23.0440009 25.3230625,22.868 C24.9670607,22.6919991 24.6710637,22.4560015 24.4350625,22.16 C24.1990613,21.8639985 24.0210631,21.520002 23.9010625,21.128 C23.7810619,20.735998 23.7210625,20.3200022 23.7210625,19.88 C23.7210625,19.4399978 23.7790619,19.024002 23.8950625,18.632 C24.0110631,18.239998 24.1870613,17.8980015 24.4230625,17.606 C24.6590637,17.3139985 24.9550607,17.0820009 25.3110625,16.91 C25.6670643,16.7379991 26.0810601,16.652 26.5530625,16.652 C26.7130633,16.652 26.8850616,16.6679998 27.0690625,16.7 C27.2530634,16.7320002 27.4370616,16.7859996 27.6210625,16.862 C27.8050634,16.9380004 27.9790617,17.0379994 28.1430625,17.162 C28.3070633,17.2860006 28.4450619,17.4399991 28.5570625,17.624 L28.5810625,17.624 L28.5810625,14.432 L29.6010625,14.432 L29.6010625,23 Z M35.4810625,19.304 C35.4650624,19.0639988 35.411063,18.8360011 35.3190625,18.62 C35.227062,18.4039989 35.1030633,18.2180008 34.9470625,18.062 C34.7910617,17.9059992 34.6070636,17.7820005 34.3950625,17.69 C34.1830614,17.5979995 33.9490638,17.552 33.6930625,17.552 C33.4290612,17.552 33.1910636,17.5979995 32.9790625,17.69 C32.7670614,17.7820005 32.5850633,17.9079992 32.4330625,18.068 C32.2810617,18.2280008 32.1610629,18.4139989 32.0730625,18.626 C31.9850621,18.8380011 31.9330626,19.0639988 31.9170625,19.304 L35.4810625,19.304 Z M36.4650625,21.032 C36.3290618,21.7280035 36.0290648,22.2519982 35.5650625,22.604 C35.1010602,22.9560018 34.517066,23.132 33.8130625,23.132 C33.31706,23.132 32.8870643,23.0520008 32.5230625,22.892 C32.1590607,22.7319992 31.8530637,22.5080014 31.6050625,22.22 C31.3570613,21.9319986 31.1710631,21.588002 31.0470625,21.188 C30.9230619,20.787998 30.8530626,20.3520024 30.8370625,19.88 C30.8370625,19.4079976 30.9090618,18.976002 31.0530625,18.584 C31.1970632,18.191998 31.3990612,17.8520014 31.6590625,17.564 C31.9190638,17.2759986 32.2270607,17.0520008 32.5830625,16.892 C32.9390643,16.7319992 33.3290604,16.652 33.7530625,16.652 C34.3050653,16.652 34.7630607,16.7659989 35.1270625,16.994 C35.4910643,17.2220011 35.7830614,17.5119982 36.0030625,17.864 C36.2230636,18.2160018 36.3750621,18.5999979 36.4590625,19.016 C36.5430629,19.4320021 36.5770626,19.8279981 36.5610625,20.204 L31.9170625,20.204 C31.9090625,20.4760014 31.9410621,20.7339988 32.0130625,20.978 C32.0850629,21.2220012 32.2010617,21.4379991 32.3610625,21.626 C32.5210633,21.8140009 32.7250613,21.9639994 32.9730625,22.076 C33.2210637,22.1880006 33.5130608,22.244 33.8490625,22.244 C34.2810647,22.244 34.6350611,22.144001 34.9110625,21.944 C35.1870639,21.743999 35.3690621,21.440002 35.4570625,21.032 L36.4650625,21.032 Z" id="price-per-node" fill="#6C6C6C" fill-rule="nonzero"></path>
            <path d="M346.888359,195.912 L346.636359,197.712 L348.124359,197.712 L348.376359,195.912 L346.888359,195.912 Z M345.688359,198.528 L344.524359,198.528 L344.524359,197.712 L345.808359,197.712 L346.060359,195.912 L344.836359,195.912 L344.836359,195.096 L346.168359,195.096 L346.516359,192.636 L347.344359,192.636 L346.996359,195.096 L348.484359,195.096 L348.832359,192.636 L349.660359,192.636 L349.312359,195.096 L350.380359,195.096 L350.380359,195.912 L349.204359,195.912 L348.952359,197.712 L350.044359,197.712 L350.044359,198.528 L348.832359,198.528 L348.484359,201 L347.656359,201 L348.004359,198.528 L346.516359,198.528 L346.168359,201 L345.340359,201 L345.688359,198.528 Z M355.636359,197.904 C355.636359,198.280002 355.686359,198.613999 355.786359,198.906 C355.88636,199.198001 356.024358,199.441999 356.200359,199.638 C356.37636,199.834001 356.582358,199.983999 356.818359,200.088 C357.054361,200.192001 357.304358,200.244 357.568359,200.244 C357.832361,200.244 358.082358,200.192001 358.318359,200.088 C358.554361,199.983999 358.760358,199.834001 358.936359,199.638 C359.11236,199.441999 359.250359,199.198001 359.350359,198.906 C359.45036,198.613999 359.500359,198.280002 359.500359,197.904 C359.500359,197.527998 359.45036,197.194001 359.350359,196.902 C359.250359,196.609999 359.11236,196.364001 358.936359,196.164 C358.760358,195.963999 358.554361,195.812001 358.318359,195.708 C358.082358,195.603999 357.832361,195.552 357.568359,195.552 C357.304358,195.552 357.054361,195.603999 356.818359,195.708 C356.582358,195.812001 356.37636,195.963999 356.200359,196.164 C356.024358,196.364001 355.88636,196.609999 355.786359,196.902 C355.686359,197.194001 355.636359,197.527998 355.636359,197.904 Z M354.556359,197.904 C354.556359,197.447998 354.620359,197.022002 354.748359,196.626 C354.87636,196.229998 355.068358,195.886001 355.324359,195.594 C355.580361,195.301999 355.896357,195.072001 356.272359,194.904 C356.648361,194.735999 357.080357,194.652 357.568359,194.652 C358.064362,194.652 358.498358,194.735999 358.870359,194.904 C359.242361,195.072001 359.556358,195.301999 359.812359,195.594 C360.068361,195.886001 360.260359,196.229998 360.388359,196.626 C360.51636,197.022002 360.580359,197.447998 360.580359,197.904 C360.580359,198.360002 360.51636,198.783998 360.388359,199.176 C360.260359,199.568002 360.068361,199.909999 359.812359,200.202 C359.556358,200.494001 359.242361,200.721999 358.870359,200.886 C358.498358,201.050001 358.064362,201.132 357.568359,201.132 C357.080357,201.132 356.648361,201.050001 356.272359,200.886 C355.896357,200.721999 355.580361,200.494001 355.324359,200.202 C355.068358,199.909999 354.87636,199.568002 354.748359,199.176 C354.620359,198.783998 354.556359,198.360002 354.556359,197.904 Z M362.200359,195.696 L362.200359,201 L363.220359,201 L363.220359,195.696 L364.420359,195.696 L364.420359,194.796 L363.220359,194.796 L363.220359,193.932 C363.220359,193.659999 363.288359,193.476 363.424359,193.38 C363.56036,193.284 363.752358,193.236 364.000359,193.236 C364.08836,193.236 364.184359,193.242 364.288359,193.254 C364.39236,193.266 364.488359,193.288 364.576359,193.32 L364.576359,192.432 C364.480359,192.4 364.37036,192.376 364.246359,192.36 C364.122359,192.344 364.01236,192.336 363.916359,192.336 C363.356357,192.336 362.930361,192.465999 362.638359,192.726 C362.346358,192.986001 362.200359,193.367997 362.200359,193.872 L362.200359,194.796 L361.156359,194.796 L361.156359,195.696 L362.200359,195.696 Z M368.668359,194.796 L368.668359,201 L369.688359,201 L369.688359,197.496 C369.688359,197.215999 369.726359,196.958001 369.802359,196.722 C369.87836,196.485999 369.992359,196.280001 370.144359,196.104 C370.29636,195.927999 370.486358,195.792 370.714359,195.696 C370.942361,195.6 371.212358,195.552 371.524359,195.552 C371.916361,195.552 372.224358,195.663999 372.448359,195.888 C372.67236,196.112001 372.784359,196.415998 372.784359,196.8 L372.784359,201 L373.804359,201 L373.804359,196.92 C373.804359,196.583998 373.77036,196.278001 373.702359,196.002 C373.634359,195.725999 373.51636,195.488001 373.348359,195.288 C373.180359,195.087999 372.960361,194.932001 372.688359,194.82 C372.416358,194.707999 372.076361,194.652 371.668359,194.652 C370.748355,194.652 370.076361,195.027996 369.652359,195.78 L369.628359,195.78 L369.628359,194.796 L368.668359,194.796 Z M376.084359,197.904 C376.084359,198.280002 376.134359,198.613999 376.234359,198.906 C376.33436,199.198001 376.472358,199.441999 376.648359,199.638 C376.82436,199.834001 377.030358,199.983999 377.266359,200.088 C377.502361,200.192001 377.752358,200.244 378.016359,200.244 C378.280361,200.244 378.530358,200.192001 378.766359,200.088 C379.002361,199.983999 379.208358,199.834001 379.384359,199.638 C379.56036,199.441999 379.698359,199.198001 379.798359,198.906 C379.89836,198.613999 379.948359,198.280002 379.948359,197.904 C379.948359,197.527998 379.89836,197.194001 379.798359,196.902 C379.698359,196.609999 379.56036,196.364001 379.384359,196.164 C379.208358,195.963999 379.002361,195.812001 378.766359,195.708 C378.530358,195.603999 378.280361,195.552 378.016359,195.552 C377.752358,195.552 377.502361,195.603999 377.266359,195.708 C377.030358,195.812001 376.82436,195.963999 376.648359,196.164 C376.472358,196.364001 376.33436,196.609999 376.234359,196.902 C376.134359,197.194001 376.084359,197.527998 376.084359,197.904 Z M375.004359,197.904 C375.004359,197.447998 375.068359,197.022002 375.196359,196.626 C375.32436,196.229998 375.516358,195.886001 375.772359,195.594 C376.028361,195.301999 376.344357,195.072001 376.720359,194.904 C377.096361,194.735999 377.528357,194.652 378.016359,194.652 C378.512362,194.652 378.946358,194.735999 379.318359,194.904 C379.690361,195.072001 380.004358,195.301999 380.260359,195.594 C380.516361,195.886001 380.708359,196.229998 380.836359,196.626 C380.96436,197.022002 381.028359,197.447998 381.028359,197.904 C381.028359,198.360002 380.96436,198.783998 380.836359,199.176 C380.708359,199.568002 380.516361,199.909999 380.260359,200.202 C380.004358,200.494001 379.690361,200.721999 379.318359,200.886 C378.946358,201.050001 378.512362,201.132 378.016359,201.132 C377.528357,201.132 377.096361,201.050001 376.720359,200.886 C376.344357,200.721999 376.028361,200.494001 375.772359,200.202 C375.516358,199.909999 375.32436,199.568002 375.196359,199.176 C375.068359,198.783998 375.004359,198.360002 375.004359,197.904 Z M382.972359,197.952 C382.972359,198.240001 383.010359,198.521999 383.086359,198.798 C383.16236,199.074001 383.278359,199.319999 383.434359,199.536 C383.59036,199.752001 383.790358,199.923999 384.034359,200.052 C384.278361,200.180001 384.564358,200.244 384.892359,200.244 C385.236361,200.244 385.528358,200.176001 385.768359,200.04 C386.008361,199.903999 386.204359,199.726001 386.356359,199.506 C386.50836,199.285999 386.618359,199.036001 386.686359,198.756 C386.75436,198.475999 386.788359,198.192001 386.788359,197.904 C386.788359,197.599998 386.75236,197.306001 386.680359,197.022 C386.608359,196.737999 386.49436,196.488001 386.338359,196.272 C386.182359,196.055999 385.980361,195.882001 385.732359,195.75 C385.484358,195.617999 385.184361,195.552 384.832359,195.552 C384.488358,195.552 384.196361,195.619999 383.956359,195.756 C383.716358,195.892001 383.52436,196.071999 383.380359,196.296 C383.236359,196.520001 383.13236,196.775999 383.068359,197.064 C383.004359,197.352001 382.972359,197.647998 382.972359,197.952 Z M387.772359,201 L386.752359,201 L386.752359,200.16 L386.728359,200.16 C386.560359,200.504002 386.296361,200.751999 385.936359,200.904 C385.576358,201.056001 385.180362,201.132 384.748359,201.132 C384.268357,201.132 383.850361,201.044001 383.494359,200.868 C383.138358,200.691999 382.842361,200.456001 382.606359,200.16 C382.370358,199.863999 382.19236,199.520002 382.072359,199.128 C381.952359,198.735998 381.892359,198.320002 381.892359,197.88 C381.892359,197.439998 381.950359,197.024002 382.066359,196.632 C382.18236,196.239998 382.358358,195.898001 382.594359,195.606 C382.830361,195.313999 383.126358,195.082001 383.482359,194.91 C383.838361,194.737999 384.252357,194.652 384.724359,194.652 C384.88436,194.652 385.056358,194.668 385.240359,194.7 C385.42436,194.732 385.608358,194.786 385.792359,194.862 C385.97636,194.938 386.150359,195.037999 386.314359,195.162 C386.47836,195.286001 386.616359,195.439999 386.728359,195.624 L386.752359,195.624 L386.752359,192.432 L387.772359,192.432 L387.772359,201 Z M393.652359,197.304 C393.636359,197.063999 393.58236,196.836001 393.490359,196.62 C393.398359,196.403999 393.27436,196.218001 393.118359,196.062 C392.962359,195.905999 392.77836,195.782 392.566359,195.69 C392.354358,195.598 392.120361,195.552 391.864359,195.552 C391.600358,195.552 391.36236,195.598 391.150359,195.69 C390.938358,195.782 390.75636,195.907999 390.604359,196.068 C390.452359,196.228001 390.33236,196.413999 390.244359,196.626 C390.156359,196.838001 390.104359,197.063999 390.088359,197.304 L393.652359,197.304 Z M394.636359,199.032 C394.500359,199.728003 394.200362,200.251998 393.736359,200.604 C393.272357,200.956002 392.688363,201.132 391.984359,201.132 C391.488357,201.132 391.058361,201.052001 390.694359,200.892 C390.330358,200.731999 390.024361,200.508001 389.776359,200.22 C389.528358,199.931999 389.34236,199.588002 389.218359,199.188 C389.094359,198.787998 389.024359,198.352002 389.008359,197.88 C389.008359,197.407998 389.080359,196.976002 389.224359,196.584 C389.36836,196.191998 389.570358,195.852001 389.830359,195.564 C390.090361,195.275999 390.398358,195.052001 390.754359,194.892 C391.110361,194.731999 391.500357,194.652 391.924359,194.652 C392.476362,194.652 392.934358,194.765999 393.298359,194.994 C393.662361,195.222001 393.954358,195.511998 394.174359,195.864 C394.39436,196.216002 394.546359,196.599998 394.630359,197.016 C394.71436,197.432002 394.748359,197.827998 394.732359,198.204 L390.088359,198.204 C390.080359,198.476001 390.112359,198.733999 390.184359,198.978 C390.25636,199.222001 390.372359,199.437999 390.532359,199.626 C390.69236,199.814001 390.896358,199.963999 391.144359,200.076 C391.392361,200.188001 391.684358,200.244 392.020359,200.244 C392.452362,200.244 392.806358,200.144001 393.082359,199.944 C393.358361,199.743999 393.540359,199.440002 393.628359,199.032 L394.636359,199.032 Z M396.412359,199.044 L395.392359,199.044 C395.408359,199.428002 395.488359,199.753999 395.632359,200.022 C395.77636,200.290001 395.968358,200.505999 396.208359,200.67 C396.448361,200.834001 396.724358,200.952 397.036359,201.024 C397.348361,201.096 397.676358,201.132 398.020359,201.132 C398.332361,201.132 398.646358,201.102 398.962359,201.042 C399.278361,200.982 399.562358,200.876001 399.814359,200.724 C400.066361,200.571999 400.270359,200.372001 400.426359,200.124 C400.58236,199.875999 400.660359,199.564002 400.660359,199.188 C400.660359,198.891999 400.60236,198.644001 400.486359,198.444 C400.370359,198.243999 400.21836,198.078001 400.030359,197.946 C399.842358,197.813999 399.626361,197.708 399.382359,197.628 C399.138358,197.548 398.888361,197.48 398.632359,197.424 C398.392358,197.368 398.152361,197.314 397.912359,197.262 C397.672358,197.21 397.45636,197.146 397.264359,197.07 C397.072358,196.994 396.91436,196.898001 396.790359,196.782 C396.666359,196.665999 396.604359,196.520001 396.604359,196.344 C396.604359,196.183999 396.644359,196.054001 396.724359,195.954 C396.80436,195.853999 396.908359,195.774 397.036359,195.714 C397.16436,195.654 397.306359,195.612 397.462359,195.588 C397.61836,195.564 397.772359,195.552 397.924359,195.552 C398.09236,195.552 398.258359,195.57 398.422359,195.606 C398.58636,195.642 398.736359,195.7 398.872359,195.78 C399.00836,195.86 399.120359,195.965999 399.208359,196.098 C399.29636,196.230001 399.348359,196.395999 399.364359,196.596 L400.384359,196.596 C400.360359,196.219998 400.28036,195.906001 400.144359,195.654 C400.008359,195.401999 399.826361,195.202001 399.598359,195.054 C399.370358,194.905999 399.108361,194.802 398.812359,194.742 C398.516358,194.682 398.192361,194.652 397.840359,194.652 C397.568358,194.652 397.294361,194.686 397.018359,194.754 C396.742358,194.822 396.49436,194.925999 396.274359,195.066 C396.054358,195.206001 395.87436,195.387999 395.734359,195.612 C395.594359,195.836001 395.524359,196.103998 395.524359,196.416 C395.524359,196.816002 395.624358,197.127999 395.824359,197.352 C396.02436,197.576001 396.274358,197.749999 396.574359,197.874 C396.874361,197.998001 397.200358,198.094 397.552359,198.162 C397.904361,198.23 398.230358,198.306 398.530359,198.39 C398.830361,198.474 399.080358,198.583999 399.280359,198.72 C399.48036,198.856001 399.580359,199.055999 399.580359,199.32 C399.580359,199.512001 399.53236,199.669999 399.436359,199.794 C399.340359,199.918001 399.21836,200.012 399.070359,200.076 C398.922359,200.14 398.76036,200.184 398.584359,200.208 C398.408358,200.232 398.24036,200.244 398.080359,200.244 C397.872358,200.244 397.67036,200.224 397.474359,200.184 C397.278358,200.144 397.10236,200.078 396.946359,199.986 C396.790359,199.894 396.66436,199.770001 396.568359,199.614 C396.472359,199.457999 396.420359,199.268001 396.412359,199.044 Z" id="#-of-nodes" fill="#6C6C6C" fill-rule="nonzero"></path>
            <g id="Group-2" transform="translate(67.000000, 183.000000)">
                <path d="M339.503314,4 L0.499631272,4" id="Line-Copy" stroke="#BDBBBD" stroke-linecap="square"></path>
                <polygon id="Triangle-2" fill="#BDBBBD" fill-rule="nonzero" points="348 4 340 8 340 0"></polygon>
            </g>
            <g id="Group" transform="translate(63.000000, 8.000000)">
                <path d="M4,0.5 L4,176.5" id="Line" stroke="#BDBBBD" stroke-linecap="square"></path>
                <polygon id="Triangle-2-Copy" fill="#BDBBBD" fill-rule="nonzero" transform="translate(4.000000, 176.000000) rotate(90.000000) translate(-4.000000, -176.000000) " points="8 176 0 180 0 172"></polygon>
            </g>
            <circle id="Oval-2-Copy" stroke="#9B9B9B" fill="#FFFFFF" fill-rule="nonzero" cx="391" cy="176" r="5"></circle>
            <g id="Group-3" transform="translate(79.000000, 31.000000)">
                <path d="M0.5,0.5 L302,141" id="Line-2" stroke="#F5A623" stroke-width="2" stroke-linecap="square"></path>
                <polygon id="Triangle-2-Copy-2" fill="#F5A623" fill-rule="nonzero" transform="translate(303.409677, 141.409677) rotate(28.000000) translate(-303.409677, -141.409677) " points="307.409677 141.409677 299.409677 145.409677 299.409677 137.409677"></polygon>
            </g>
            <circle id="Oval-2" stroke="#9B9B9B" fill="#FFFFFF" fill-rule="nonzero" cx="79" cy="31" r="5"></circle>
        </g>
    </g>
</svg>