<svg height="40" viewBox="0 0 40 40" width="40" xmlns="http://www.w3.org/2000/svg"><path d="m17.583 20.367c-5.624 0-10.183-4.56-10.183-10.184s4.56-10.183 10.183-10.183c5.624 0 10.184 4.56 10.184 10.183-.01 5.62-4.563 10.174-10.184 10.184z" fill="#cdd8dd"/><path d="m32.4 37.02h-29.617a2.767 2.767 0 0 1 -2.783-2.768 11.15 11.15 0 0 1 2.267-6.117 13.233 13.233 0 0 1 5.316-4.1 24.7 24.7 0 0 1 10-1.817 24.85 24.85 0 0 1 10 1.817c2.091.887 3.917 2.3 5.3 4.1a11 11 0 0 1 2.267 6.117 2.767 2.767 0 0 1 -2.75 2.766z" fill="#cdd8dd"/><path d="m31.137 40c4.897 0 8.866-3.962 8.866-8.85s-3.97-8.85-8.866-8.85c-4.897 0-8.867 3.962-8.867 8.85s3.97 8.85 8.867 8.85z" fill="#572dd1" opacity=".8"/><path d="m29.175 30.143a.874.874 0 0 1 -.621-.26.892.892 0 0 1 .182-1.396.87.87 0 0 1 .878 0 .89.89 0 0 1 .44.769c0 .247-.101.484-.28.652a.873.873 0 0 1 -.665.235zm3.338 1.177c.254-.46.386-.975.384-1.5a3.183 3.183 0 1 0 -3.184 3.167 3.117 3.117 0 0 0 1.667-.467v1.367h1.15v1.116h1.383v1.184h2.317v-1.4z" fill="#fff"/></svg>