<svg width="128" height="32" viewBox="0 0 128 32" fill="none" xmlns="http://www.w3.org/2000/svg">
<path fill-rule="evenodd" clip-rule="evenodd" d="M67.8553 31.3954L67.5203 25.8721C66.8416 26.2488 66.0786 26.4462 65.3028 26.4472C62.7183 26.4472 61.966 25.4217 61.966 21.6773V12.0103H67.0497V6.64276H62.0385C62.0385 4.73903 62.1847 1.93574 62.3523 0H57.6346C56.9964 4.68674 55.6465 7.11335 51.3568 7.82511V12.0103H54.2134C54.2097 12.2513 54.2056 12.5104 54.2012 12.7855C54.1573 15.5553 54.0875 19.9534 54.0875 23.9886C54.0875 29.6486 57.0274 31.9717 62.5411 31.9717C64.3296 32.0005 66.1149 31.8073 67.8553 31.3954ZM93.8427 14.9811V19.8664C93.8224 23.7272 93.9889 29.4501 94.0934 31.4381H85.7241C85.8714 29.4501 85.9855 23.2982 85.9855 19.8664V16.1005C85.9855 12.3134 85.0443 10.9432 82.1151 10.9432C81.08 10.9432 80.0513 11.1129 79.0707 11.4447C78.9554 15.0119 78.9554 17.6699 78.9554 19.8659V19.8664C78.9245 23.7272 79.1016 29.4501 79.2905 31.4381H70.9212C71.0674 29.4501 71.1613 23.2352 71.1826 19.8664C71.2029 16.4986 71.1933 11.0478 70.9212 6.63208C73.4314 6.63208 75.475 6.43063 77.4621 6.23476C79.3421 6.04943 81.1715 5.8691 83.2975 5.8691C91.0917 5.8691 93.8427 8.70441 93.8427 14.9811ZM34.6501 20.9132C35.4238 20.9762 36.9508 20.9762 37.8514 20.9762C45.5613 20.9762 49.5267 18.5592 49.484 13.3389C49.484 8.85061 46.2208 5.8691 39.1277 5.8691C30.5172 5.8691 27.1067 9.70856 26.332 16.5711C25.0771 16.4559 23.7069 16.4559 21.8341 16.4559V15.3269C21.8341 8.36934 18.9465 5.84776 11.2783 5.84776C8.21141 5.76452 5.15521 6.22552 2.24947 7.20832L2.54185 12.753C4.66113 11.6198 7.01411 10.9934 9.41511 10.9219C12.9515 10.9219 13.9983 12.3763 13.9983 15.8498V16.3727H12.7946C4.04861 16.3727 0 18.8729 0 23.9363C0 28.9998 2.52158 31.9717 9.68722 31.9717C11.4676 31.9717 13.2343 31.8537 15.1066 31.7288C17.217 31.5879 19.4616 31.4381 22.0113 31.4381C21.7167 29.1342 21.594 26.8122 21.6452 24.4912C21.6452 23.5632 21.6856 22.473 21.7308 21.2503C21.7371 21.081 21.7435 20.9093 21.7498 20.735C22.9157 20.741 23.8905 20.7771 24.7067 20.8073C25.3339 20.8305 25.8675 20.8502 26.3224 20.8502C27.0544 28.9891 31.2706 31.9919 40.0475 31.9919C42.8562 32.0677 45.6541 31.6088 48.292 30.642L47.989 25.0877C45.954 26.2562 43.6501 26.8762 41.3035 26.8869C36.9828 26.8869 34.6501 24.6374 34.6501 21.0807V20.9132ZM13.8625 21.5197C13.8401 23.3838 13.8159 25.4004 13.9247 26.8549C13.1447 27.0555 12.3443 27.1611 11.5397 27.1697C8.87195 27.1697 7.73121 26.1858 7.73121 24.0302C7.73121 21.8757 9.18568 20.6518 12.8267 20.6518H13.8724C13.8695 20.9354 13.866 21.2256 13.8625 21.5197ZM41.9203 13.1927C41.9203 15.6193 40.309 16.7493 36.9412 16.7493H36.9092C36.1035 16.7493 35.2456 16.7387 34.6394 16.6864V16.5605C34.6394 13.0774 35.7482 10.5249 38.9388 10.5249C40.7486 10.5249 41.9203 11.4661 41.9203 13.1927ZM119.03 31.3955C119.053 31.3954 119.075 31.3954 119.098 31.3954L119.035 31.4381C119.033 31.4239 119.032 31.4097 119.03 31.3955ZM119.03 31.3955C118.756 29.0832 118.657 26.7552 118.732 24.4283C118.732 23.4445 118.778 22.2808 118.83 20.9712C118.896 19.2861 118.972 17.3595 118.972 15.2639C118.972 8.30638 116.095 5.7848 108.416 5.7848C105.331 5.70157 102.256 6.17003 99.3351 7.16564L99.6285 12.7114C101.748 11.5781 104.1 10.9517 106.502 10.8802C110.038 10.8802 111.084 12.3347 111.084 15.8082V16.331H109.881C101.125 16.331 97.0856 18.8313 97.0856 23.8947C97.0856 28.9581 99.6072 31.929 106.774 31.929C108.554 31.929 110.321 31.8111 112.193 31.6861C114.284 31.5465 116.508 31.3981 119.03 31.3955ZM110.959 21.5159C110.937 23.3695 110.914 25.3686 111.021 26.8133L110.99 26.8549C110.219 27.0395 109.429 27.1302 108.636 27.127C105.968 27.127 104.827 26.1442 104.827 23.9886C104.827 21.8341 106.282 20.6101 109.923 20.6101H110.969C110.966 20.906 110.962 21.2089 110.959 21.5159ZM121.106 10.1266C121.246 10.5342 121.463 10.9098 121.744 11.2353C122.043 11.5565 122.407 11.8105 122.812 11.978C123.692 12.3462 124.683 12.3462 125.564 11.978C125.959 11.8051 126.316 11.5522 126.609 11.2353C126.895 10.9109 127.115 10.5353 127.258 10.1266C127.412 9.69653 127.49 9.24408 127.489 8.78736C127.491 8.33063 127.413 7.87711 127.258 7.44813C127.109 7.06184 126.889 6.70756 126.609 6.40237C126.317 6.0833 125.961 5.8304 125.564 5.65966C124.683 5.29151 123.692 5.29151 122.812 5.65966C122.416 5.83253 122.059 6.08544 121.766 6.40237C121.485 6.70649 121.265 7.06184 121.117 7.44813C120.962 7.87818 120.884 8.33063 120.886 8.78736C120.883 9.24301 120.958 9.69547 121.106 10.1266ZM124.161 11.7059C123.768 11.7112 123.378 11.6291 123.021 11.4658C122.539 11.2321 122.141 10.8554 121.881 10.388C121.617 9.90035 121.484 9.35293 121.494 8.79803C121.498 8.44161 121.558 8.08947 121.672 7.75226C121.785 7.41399 121.963 7.10132 122.195 6.83135C122.425 6.56137 122.71 6.34368 123.031 6.19321C123.755 5.87842 124.578 5.87842 125.302 6.19321C125.623 6.34368 125.908 6.56137 126.139 6.83135C126.37 7.10132 126.547 7.41399 126.662 7.75226C126.775 8.08947 126.836 8.44161 126.84 8.79803C126.84 9.17152 126.78 9.5418 126.662 9.89608C126.549 10.2376 126.371 10.5534 126.139 10.8277C125.907 11.0966 125.622 11.3143 125.302 11.4658C124.945 11.6323 124.555 11.7144 124.161 11.7059ZM123.544 6.69476H122.948L122.968 10.8693H123.586V9.23768H124.098L124.935 10.6292C124.987 10.7263 125.067 10.8074 125.166 10.8586C125.254 10.9002 125.35 10.9216 125.448 10.9216H125.616C125.678 10.9066 125.739 10.8821 125.793 10.8479L124.747 9.16405C124.873 9.1363 124.994 9.08615 125.103 9.01785C125.218 8.94849 125.321 8.85992 125.407 8.75641C125.496 8.64756 125.568 8.52271 125.616 8.39039C125.667 8.23886 125.692 8.0788 125.688 7.91873C125.697 7.58579 125.559 7.26459 125.312 7.0405C124.953 6.77586 124.51 6.65314 124.067 6.69476H123.544ZM125.04 7.87711C125.04 8.36905 124.758 8.60915 124.192 8.60915L123.554 8.5782V7.21871H123.795H124.098C124.35 7.19736 124.603 7.25606 124.821 7.38518C124.97 7.50256 125.052 7.68717 125.04 7.87711Z" fill="#7D3F98"/>
</svg>
