<svg width="171" height="32" viewBox="0 0 171 32" fill="none" xmlns="http://www.w3.org/2000/svg">
<path fill-rule="evenodd" clip-rule="evenodd" d="M21.4212 4.56167V0C21.4212 0 10.173 0.00320342 10.0726 0.00747464C8.94515 0.0467334 7.83414 0.289845 6.79335 0.72504C5.33457 1.3402 4.05277 2.31036 3.06457 3.54725C2.08257 4.77996 1.408 6.22865 1.09661 7.77363C0.801914 9.25338 0.842414 10.7803 1.21513 12.2424C1.56006 13.5876 2.1852 14.8448 3.04962 15.9317C3.95006 17.0646 5.09669 17.9775 6.40253 18.6012C7.81897 19.2774 9.38502 19.5796 10.9514 19.4789C12.0697 19.402 13.1656 19.1272 14.1879 18.6674L14.2349 18.646L14.2904 18.6193C14.6582 18.4473 15.0145 18.2519 15.3572 18.0342C15.4287 17.9893 15.4981 17.9423 15.5686 17.8964L15.5899 17.8815L15.5921 17.8804L15.6134 17.8644C16.6655 17.1439 17.5648 16.2225 18.2594 15.1532C18.4052 14.9296 18.5406 14.6994 18.6652 14.4634C19.1562 13.5367 19.4999 12.5392 19.6839 11.5067C19.9974 9.73573 19.8322 7.91319 19.2055 6.22744C19.0287 5.74861 18.8115 5.28565 18.5563 4.84357C18.5147 4.77309 18.4068 4.62573 18.3684 4.5606H21.4212V4.56167ZM10.3758 14.9535H10.3705C7.58139 14.9535 5.32191 12.6268 5.32191 9.75761C5.32191 6.88735 7.58139 4.56167 10.3705 4.56167C10.4153 4.56167 10.4613 4.56167 10.505 4.56487H10.5264C10.9365 4.57697 11.3434 4.6412 11.7373 4.75601C13.8622 5.36893 15.4191 7.37533 15.4191 9.75761C15.4191 12.425 13.465 14.6247 10.9492 14.9183L10.8179 14.9333H10.8147C10.6961 14.9443 10.5771 14.9507 10.4581 14.9525L10.3758 14.9535Z" fill="#29AA6B"/>
<path fill-rule="evenodd" clip-rule="evenodd" d="M10.5051 32C4.71329 32 0 27.15 0 21.1885C0 19.0518 0.605446 17.0571 1.65083 15.3796C2.67592 17.1276 3.83022 18.1004 4.93113 18.7475C4.60998 19.5212 4.44521 20.3508 4.44634 21.1885C4.44634 24.6268 7.16498 27.4245 10.5051 27.4245C13.8473 27.4245 16.5638 24.6268 16.5638 21.1885C16.5667 20.0135 16.242 18.8609 15.6263 17.8601C14.5574 16.1228 12.6759 14.9642 10.535 14.9536H10.4517L10.3214 14.9557C8.18473 14.9354 6.36519 13.5505 5.64869 11.6049C7.14016 10.7981 8.80934 10.376 10.5051 10.377C12.1139 10.3756 13.7002 10.7554 15.134 11.4853C16.5212 12.1906 17.7357 13.1932 18.6909 14.4218C20.1997 16.3541 21.0164 18.7369 21.0101 21.1885C21.0101 27.15 16.2979 32 10.5051 32V32Z" fill="#008EB1"/>
<path fill-rule="evenodd" clip-rule="evenodd" d="M19.3764 6.72597C17.4907 5.84182 14.362 5.12105 11.7437 4.75586C11.3478 4.64031 10.9387 4.57572 10.5264 4.56366L18.3684 4.56152C18.4079 4.62559 18.5147 4.77508 18.5563 4.84556C18.8126 5.28443 19.0262 5.74999 19.2056 6.22837C19.2664 6.39281 19.323 6.55939 19.3764 6.72597V6.72597ZM15.6263 17.8557C15.6227 17.8593 15.6187 17.8625 15.6145 17.8653L15.5921 17.8813H15.59L15.5676 17.8973C15.4971 17.9433 15.4287 17.9902 15.3561 18.0362C15.0138 18.2535 14.6578 18.4486 14.2905 18.6203C13.7736 17.3677 12.3716 15.7553 10.5659 14.9972L10.4613 14.9545C10.4962 14.9535 10.5311 14.9535 10.5659 14.9545C12.6962 14.9726 14.5595 16.1259 15.6252 17.8557" fill="#0D7B4D"/>
<path fill-rule="evenodd" clip-rule="evenodd" d="M43.008 14.9279V19.3401H48.2371C47.4725 21.4597 45.4255 23.2461 42.4357 23.2461C38.2093 23.2461 35.5772 20.0299 35.5772 16.284C35.5772 11.6295 38.5019 8.75493 42.6023 8.75493C44.2947 8.75493 46.4859 9.24185 47.7801 11.3625H53.0166C51.3828 6.54137 47.0422 4.1687 42.535 4.1687C36 4.1687 30.8297 9.12012 30.8297 16.3171C30.8297 22.6086 35.6402 27.8644 42.4047 27.8644C45.4533 27.8644 47.7352 26.8179 49.2654 25.1554V27.3945H53.5761V14.929H43.008V14.9279ZM67.2814 21.6711C66.2403 22.977 65.0048 23.6786 63.8666 23.6786C61.7523 23.6786 60.5168 22.3075 60.5168 19.764V11.3625H55.9958V20.1986C55.9958 24.851 58.7272 27.8975 62.8244 27.8975C64.5809 27.8975 66.0118 27.2942 67.2803 26.2563V27.3945H71.8003V11.3625H67.2803V21.6711H67.2814ZM85.9295 12.3011C84.7261 11.4971 83.2632 11.0283 81.5067 11.0283C77.2141 11.0283 73.7341 14.6759 73.7341 19.3956C73.7341 24.048 77.2141 27.7288 81.5067 27.7288C83.2632 27.7288 84.7261 27.2611 85.9295 26.4581V27.3945H90.4496V11.3625H85.9295V12.3V12.3011ZM85.9295 21.9391C84.9215 23.3113 83.5878 23.78 82.2542 23.78C79.8804 23.78 78.2221 21.7384 78.2221 19.3956C78.2221 17.0187 79.8804 14.9439 82.2542 14.9439C83.5889 14.9439 84.9215 15.4127 85.9295 16.819V21.9391ZM97.7897 11.3625H93.2686V27.3945H97.7886V17.8217C99.0892 16.3481 100.814 15.6113 103.253 15.512V11.0945C100.943 11.0945 99.1874 11.8313 97.7886 13.1703V11.3614L97.7897 11.3625ZM115.868 12.3011C114.664 11.4971 113.201 11.0283 111.446 11.0283C107.153 11.0283 103.672 14.7101 103.672 19.3625C103.672 24.0811 107.153 27.7288 111.446 27.7288C113.201 27.7288 114.664 27.2611 115.869 26.4581V27.3945H120.389V4.49331H115.869V12.3L115.868 12.3011ZM115.868 21.9391C114.86 23.3444 113.527 23.8131 112.193 23.8131C109.82 23.8131 108.16 21.7384 108.16 19.3625C108.16 17.0187 109.82 14.9781 112.193 14.9781C113.527 14.9781 114.86 15.4458 115.869 16.819V21.9391H115.868ZM142.403 12.3011C141.198 11.4971 139.735 11.0283 137.979 11.0283C133.686 11.0283 130.206 14.6759 130.206 19.3956C130.206 24.048 133.686 27.7288 137.98 27.7288C139.735 27.7288 141.198 27.2611 142.402 26.4581V27.3945H146.922V11.3625H142.402V12.3L142.403 12.3011ZM142.403 21.9391C141.394 23.3113 140.061 23.78 138.727 23.78C136.353 23.78 134.694 21.7384 134.694 19.3956C134.694 17.0187 136.353 14.9439 138.727 14.9439C140.061 14.9439 141.394 15.4127 142.402 16.819V21.9391H142.403ZM158.579 10.8606C156.822 10.8606 155.391 11.4629 154.123 12.5008V11.3614H149.603V27.3935H154.123V17.0849C155.164 15.78 156.399 15.0774 157.538 15.0774C159.652 15.0774 160.887 16.4495 160.887 18.993V27.3935H165.408V18.5916C165.408 13.905 162.676 10.8606 158.579 10.8606V10.8606ZM123.565 27.3945H128.085V11.3614H123.565V27.3945ZM123.565 9.14574H128.085V4.49545H123.565V9.14574ZM170.702 10.2103C170.702 11.1319 169.965 11.8206 169.089 11.8206C168.215 11.8206 167.479 11.1319 167.479 10.2103C167.479 9.2899 168.215 8.59369 169.09 8.59369C169.966 8.59369 170.702 9.2899 170.702 10.2103V10.2103ZM170.343 10.2103C170.345 9.87288 170.214 9.54825 169.978 9.30694C169.742 9.06563 169.42 8.92712 169.083 8.9215C168.413 8.9215 167.83 9.48744 167.83 10.2103C167.83 10.9268 168.413 11.4864 169.083 11.4864C169.76 11.4864 170.343 10.9268 170.343 10.2103ZM169.382 10.4026L169.773 10.9204H169.442L169.077 10.4357H168.818V10.9204H168.56V9.42551H169.169C169.487 9.42551 169.727 9.63053 169.727 9.93806C169.727 10.1698 169.588 10.3331 169.382 10.4015V10.4026ZM169.163 10.1901C169.336 10.1901 169.454 10.0875 169.454 9.93058C169.454 9.78109 169.336 9.67858 169.163 9.67858H168.818V10.1911H169.163V10.1901Z" fill="#123F50"/>
</svg>
