<svg width="308" height="50" viewBox="0 0 308 50" fill="none" xmlns="http://www.w3.org/2000/svg">
<path d="M21.9082 5.5153C14.526 5.5153 7.22876 5.17589 0.0163402 4.49707C-0.40792 12.9823 7.48332 21.1281 17.411 23.0797L19.108 23.3342C19.6172 20.1947 21.8233 8.40026 22.6718 5.60015L21.9082 5.5153Z" fill="#A0A0FF"/>
<path d="M22.6718 5.5153C22.6718 5.5153 34.3813 14.0005 38.9633 25.4555C40.9998 18.5825 42.612 11.5398 43.7151 4.49707C36.5875 5.17589 29.6296 5.5153 22.6718 5.5153Z" fill="#4B4BD7"/>
<path d="M19.108 23.2495L18.8535 24.9466C18.8535 24.9466 16.7322 41.917 31.6661 46.8384C34.4662 39.8805 36.9269 32.7529 38.9634 25.4557C29.9691 24.7769 19.108 23.2495 19.108 23.2495Z" fill="#6BDBDB"/>
<path d="M22.6718 5.51538C21.8233 8.3155 19.6171 20.1099 19.108 23.2495C19.108 23.2495 30.0539 24.7768 38.9634 25.4556C34.3814 14.0854 22.6718 5.51538 22.6718 5.51538Z" fill="#7C7CF7"/>
<path d="M233.953 8.65462C232.256 8.65462 230.984 7.29699 230.984 5.6848C230.984 4.07261 232.341 2.63013 233.953 2.63013C235.65 2.63013 236.923 3.98776 236.923 5.6848C236.923 7.29699 235.65 8.65462 233.953 8.65462Z" fill="#324063"/>
<path d="M140.701 8.65462C139.004 8.65462 137.646 7.38184 137.646 5.6848C137.646 3.98776 138.919 2.63013 140.616 2.63013C141.465 2.63013 142.228 2.96954 142.822 3.5635C143.416 4.15746 143.671 4.92113 143.671 5.6848C143.671 7.29699 142.313 8.65462 140.701 8.65462Z" fill="#324063"/>
<path d="M138.749 15.5278H142.483C142.822 15.5278 143.162 15.7824 143.162 16.2066V48.9595C143.162 49.2989 142.907 49.6383 142.483 49.6383H138.749C138.41 49.6383 138.071 49.3838 138.071 48.9595V16.2066C138.155 15.8672 138.41 15.5278 138.749 15.5278Z" fill="#324063"/>
<path d="M232.087 15.5278H235.82C236.16 15.5278 236.499 15.7824 236.499 16.2066V48.9595C236.499 49.2989 236.244 49.6383 235.82 49.6383H232.087C231.747 49.6383 231.408 49.3838 231.408 48.9595V16.2066C231.408 15.8672 231.662 15.5278 232.087 15.5278Z" fill="#324063"/>
<path d="M221.056 49.6384C220.716 49.6384 220.377 49.3839 220.377 48.9596V0.678815C220.377 0.339407 220.716 0 221.056 0H224.874C225.214 0 225.553 0.254555 225.553 0.678815V48.9596C225.553 49.299 225.298 49.6384 224.874 49.6384H221.056Z" fill="#324063"/>
<path d="M116.773 49.9778C113.124 49.9778 109.645 48.5353 107.1 45.9049C104.554 43.4441 103.027 40.0501 102.942 36.4863V16.2066C102.942 15.8672 103.196 15.5278 103.621 15.5278H107.354C107.694 15.5278 108.033 15.8672 108.033 16.2066V35.4681C107.948 38.0985 108.797 40.644 110.494 42.6805C112.106 44.4624 114.482 45.4806 116.942 45.3957C122.458 45.4806 127.04 41.1531 127.125 35.6378C127.125 35.5529 127.125 35.4681 127.125 35.3832V16.2066C127.125 15.8672 127.379 15.5278 127.804 15.5278H131.537C131.876 15.5278 132.216 15.7824 132.216 16.2066L132.131 48.9595C132.131 49.2989 131.876 49.6383 131.452 49.6383H127.719C127.379 49.6383 127.04 49.3838 127.04 48.9595V45.82C124.24 48.5353 120.591 49.9778 116.773 49.9778Z" fill="#324063"/>
<path d="M162.932 49.9778C153.429 49.9778 147.065 42.9351 147.065 32.4135C147.065 22.0615 153.429 15.1037 162.932 15.1037C167.599 14.934 172.096 17.0553 175.066 20.7887V0.678816C175.066 0.339407 175.321 0 175.745 0H179.478C179.818 0 180.157 0.254555 180.157 0.678816L180.072 48.9596C180.072 49.299 179.818 49.6384 179.394 49.6384H175.66C175.321 49.6384 174.981 49.299 174.981 48.9596V44.2928C172.011 47.9414 167.599 49.9778 162.932 49.9778ZM163.102 19.8554C156.738 19.9402 152.241 25.1162 152.241 32.4983C152.156 35.7227 153.174 38.8622 155.126 41.4078C157.077 43.8685 160.047 45.311 163.272 45.3958C169.975 45.3958 174.981 39.8804 174.981 32.4983C175.066 29.2739 173.878 26.0496 171.757 23.5889C169.551 21.213 166.496 19.8554 163.272 19.8554H163.102Z" fill="#324063"/>
<path d="M267.215 49.6384C266.876 49.6384 266.537 49.3838 266.537 48.9596V29.783C266.621 27.1526 265.773 24.6071 264.076 22.5706C262.464 20.7887 260.088 19.7705 257.627 19.8553C252.112 19.7705 247.53 24.0979 247.445 29.6133C247.445 29.6982 247.445 29.783 247.445 29.783V48.9596C247.445 49.299 247.19 49.6384 246.766 49.6384H243.033C242.693 49.6384 242.354 49.3838 242.354 48.9596L242.439 16.2067C242.439 15.8673 242.693 15.5279 243.117 15.5279H246.851C247.19 15.5279 247.53 15.7824 247.53 16.2067V19.3462C250.33 16.631 253.978 15.1885 257.797 15.1885C261.445 15.1885 264.924 16.631 267.47 19.2614C270.016 21.7221 271.543 25.1162 271.628 28.6799V48.9596C271.628 49.299 271.373 49.6384 270.949 49.6384H267.215Z" fill="#324063"/>
<path d="M76.2135 49.978C70.0193 50.0628 64.0797 47.6021 59.8371 43.105C55.6793 38.6927 53.3883 32.4985 53.3883 25.7103C53.3883 11.4552 63.316 1.52748 77.5711 1.44263H78.1651C80.0318 1.44263 81.8137 1.69718 83.5956 2.12144L84.3593 2.29115C87.8382 3.13967 91.1475 4.83671 93.7779 7.29742C93.9476 7.38227 94.0324 7.55197 93.9476 7.80653C93.9476 7.97623 93.8627 8.14594 93.7779 8.31564L91.0626 10.9461C90.9778 11.0309 90.808 11.1158 90.5535 11.1158C90.3838 11.1158 90.2141 11.0309 90.1292 10.9461C88.517 9.50357 86.5654 8.40049 84.529 7.63683C82.3228 6.87316 80.0318 6.4489 77.656 6.4489C66.2858 6.36404 58.5643 14.1704 58.5643 25.7103C58.4794 30.8014 60.2613 35.638 63.6554 39.4563C66.8798 43.0201 71.4618 44.9717 76.2984 44.9717C85.9715 44.9717 92.7596 38.523 93.2688 28.8498H75.7892C75.4498 28.8498 75.1104 28.5953 75.1104 28.171V24.7769C75.1104 24.4375 75.365 24.0981 75.7892 24.0981H98.0205C98.3599 24.0981 98.6993 24.3527 98.6993 24.7769V27.1528C98.7841 40.814 89.705 50.0628 76.2135 49.978Z" fill="#324063"/>
<path d="M200.691 49.978C195.77 49.978 191.697 48.3658 188.812 45.2263C185.842 41.7474 184.23 37.2502 184.4 32.6682C184.4 22.486 191.188 15.1887 200.607 15.1887C204.934 15.1038 209.092 16.8857 212.062 19.9404C215.031 23.2496 216.644 27.4922 216.559 31.9894C216.559 32.7531 216.474 33.5167 216.389 34.2804C216.219 34.7895 215.795 35.0441 215.371 35.0441L189.661 34.9592C190.509 41.3231 195.006 45.3112 201.031 45.396C205.613 45.396 208.074 43.699 210.534 41.5777L210.704 41.4928L210.959 41.408H211.128C211.298 41.408 211.553 41.4928 211.637 41.5777L214.098 43.8687C214.268 43.9535 214.268 44.1232 214.268 44.3778C214.268 44.5475 214.183 44.7172 214.098 44.8869C210.449 48.281 205.698 50.1477 200.691 49.978ZM211.383 30.5469C211.043 24.183 206.716 19.9404 200.607 19.8556H200.437C194.667 19.9404 190.17 24.2679 189.491 30.4621L211.383 30.5469Z" fill="#324063"/>
<path d="M291.568 49.978C286.647 49.978 282.574 48.3658 279.689 45.2263C276.719 41.7474 275.107 37.2502 275.276 32.6682C275.276 22.486 282.064 15.1887 291.398 15.1887C295.726 15.1038 299.883 16.8857 302.853 19.9404C305.823 23.2496 307.435 27.4922 307.35 31.9894C307.35 32.7531 307.266 33.5167 307.181 34.2804C307.011 34.7895 306.587 35.0441 306.162 35.0441L280.452 34.9592C281.301 41.3231 285.798 45.3112 291.822 45.396C296.489 45.396 298.95 43.6141 301.411 41.4928L301.665 41.3231H301.92C302.09 41.3231 302.344 41.408 302.429 41.4928L304.89 43.7838C305.059 43.8687 305.059 44.0384 305.059 44.2929C305.059 44.4626 304.975 44.6323 304.89 44.8021C301.326 48.281 296.574 50.2326 291.568 49.978ZM302.259 30.5469C301.92 24.183 297.592 19.9404 291.483 19.8556H291.313C285.543 19.9404 281.046 24.2679 280.367 30.4621L302.259 30.5469Z" fill="#324063"/>
</svg>
