<svg width="288" height="32" viewBox="0 0 288 32" fill="none" xmlns="http://www.w3.org/2000/svg">
<path fill-rule="evenodd" clip-rule="evenodd" d="M21.2234 4.02963C21.1642 5.86667 20.0975 7.82223 17.4308 7.76297C14.4086 7.70371 13.7567 5.62963 13.6975 4.02963C13.579 1.24445 15.2975 0 17.4308 0C19.5642 0 21.3419 1.18519 21.2234 4.02963ZM9.43082 6.8741C9.66786 2.25188 2.43823 2.42965 2.73452 6.8741C2.49749 11.4963 9.84564 11.5556 9.43082 6.8741ZM31.4753 9.24448C31.5346 4.62226 24.779 4.62226 24.8975 9.18522C24.8383 13.4519 31.6531 13.6889 31.4753 9.24448ZM17.4308 23.7038L15.2382 8.71125C16.6605 8.17792 18.3197 8.23718 19.5642 8.71125L17.4308 23.7038ZM20.1568 8.88895C20.6308 9.00747 21.1049 9.36302 21.4605 9.65932C22.6457 10.6075 23.5345 11.9112 23.179 13.5112L19.3864 23.9408L20.1568 8.88895ZM13.4012 9.65932C12.216 10.6667 11.3271 11.9704 11.6827 13.5112L15.4753 23.9408L14.7049 8.88895C14.2308 9.00747 13.7568 9.30377 13.4012 9.65932ZM7.67485 14.3674L7.67481 14.3673C7.05037 13.2618 6.42959 12.1627 5.81601 11.0816C5.81601 11.0816 8.83823 10.7853 10.3197 12.8594C11.2651 14.1056 11.9924 17.658 12.6597 20.9176L12.6598 20.9176C12.9126 22.1528 13.1569 23.346 13.4012 24.3557C11.5259 21.1856 9.58338 17.7464 7.67494 14.3675L7.67486 14.3674L7.67485 14.3674ZM1.37156 13.2742L11.6827 25.1261L5.28268 11.1409C3.62342 11.2002 2.20119 12.0298 1.37156 13.2742ZM21.1642 24.5925L22.8827 16.474C23.5938 14.1629 25.6679 13.3925 27.6827 13.274C26.1226 16.0476 24.5307 18.7894 22.9304 21.546L22.9302 21.5463L22.9301 21.5464C22.3423 22.5591 21.7532 23.5737 21.1642 24.5925ZM28.2753 13.274L22.8234 25.3036L32.3642 14.9333C31.2975 13.8073 29.8753 13.274 28.2753 13.274ZM5.04565 22.489C3.37157 21.1853 1.6975 19.8816 0.00861264 18.6075C-0.0506466 16.7705 0.186398 15.1112 1.01603 13.6297L10.0827 26.3705C8.39388 25.0965 6.71988 23.7928 5.04588 22.4892L5.04565 22.489ZM33.5494 16.4149C33.3716 16.0001 33.1346 15.6445 32.779 15.3482L24.542 26.5482C26.885 24.8016 29.1668 23.0243 31.4314 21.2605L31.4317 21.2603C32.3171 20.5706 33.1999 19.883 34.0827 19.2001C34.142 18.1927 34.0234 17.2445 33.5494 16.4149ZM8.77899 27.852L0.00861468 23.8223V19.3186C1.16581 20.4522 2.33242 21.5764 3.50094 22.7024L3.50098 22.7024L3.50103 22.7025L3.50107 22.7025L3.50111 22.7026L3.50115 22.7026L3.50119 22.7026L3.50123 22.7027L3.50127 22.7027L3.50132 22.7028L3.50136 22.7028L3.5014 22.7028L3.50144 22.7029C5.26487 24.4022 7.03265 26.1056 8.77899 27.852ZM34.1419 24.1185V20.0296L25.8456 28.0296C28.6901 26.6666 31.2975 25.4222 34.1419 24.1185ZM4.37712 28.8087L4.37684 28.8086L4.37633 28.8085C2.93689 28.4664 1.4469 28.1123 0.00861468 27.7927V24.4149L7.8901 29.6297C6.79844 29.3841 5.60622 29.1008 4.37712 28.8087ZM34.142 28.0297V24.889C31.6531 26.4297 29.1049 28.089 26.7938 29.689L34.142 28.0297ZM7.71232 31.7037H0.00861468V28.4445L7.71232 31.7037ZM34.1419 31.7038V28.7408C33.1086 29.1734 32.1337 29.5767 31.1817 29.9706L31.1813 29.9707L31.181 29.9709C29.7858 30.5481 28.4397 31.105 27.0308 31.7038H34.1419ZM74.2012 13.5112H77.342V31.526H74.2012V13.5112ZM57.7864 28.8001L63.1197 13.5112H66.9123L73.1938 31.526H69.9346L68.216 26.3112H61.579L59.9197 31.526H56.8383H56.1272L49.4901 22.6371V31.526H46.3494V13.5112H49.4901V22.0445L55.8901 13.5112H59.5049L52.5716 22.2815L57.7864 28.8001ZM64.779 16.3556L62.3494 23.8223H67.3272L64.8383 16.3556H64.779ZM179.149 26.5482L176.009 13.5112H170.498V31.526H173.579V16.1778L177.549 31.526H180.69C180.749 31.526 184.661 16.1778 184.661 16.1778V31.526H187.742V13.5112H182.349L179.149 26.5482ZM189.342 31.5852L195.624 13.5112H199.535L205.816 31.5852H202.557L200.779 26.3704H194.083L192.423 31.5852H189.342ZM197.342 16.3556L194.912 23.8223H199.949L197.401 16.3556H197.342ZM211.327 13.5112L218.498 27.3229V13.5112H221.52V31.526H217.253L210.142 17.9556V31.526H207.179V13.5112H211.327ZM270.527 28.9186H277.994L277.935 31.5852H267.387V13.5112H277.342V16.1186H270.527V21.2149H276.038V23.8223H270.527V28.9186ZM249.372 13.4517H248.779V27.5554L241.549 13.511H237.401V28.9184H227.861V23.8221H233.372V21.2147H227.861V16.1184H234.675V13.511H224.779V31.5851H240.127H240.364V17.7777L247.475 31.5258H251.742V16.2369H257.253V31.5851H260.394V16.2369H265.787V13.511H249.372V13.4517ZM167.712 18.6075C167.712 20.2667 167.001 21.6297 165.994 22.4593C165.342 22.9926 164.572 23.4075 163.505 23.6445L168.364 31.5852H164.631C164.631 31.5852 161.549 26.1334 160.127 23.8815H158.586V31.6445H142.705V13.5704H152.661V16.1778H145.846V21.2741H151.357V23.8815H145.846V28.9778H155.446V21.1556V13.5112H160.72C163.327 13.5112 164.868 13.8667 165.994 14.8149C167.001 15.6445 167.712 16.9482 167.712 18.6075ZM158.646 16.1186V21.1556H161.312C163.683 21.1556 164.631 20.326 164.631 18.6075C164.631 17.0667 163.683 16.1186 161.312 16.1186H158.646ZM116.453 22.4593C117.461 21.6297 118.172 20.2667 118.172 18.6075C118.172 16.9482 117.461 15.6445 116.453 14.8149C115.386 13.8667 113.786 13.5112 111.179 13.5112H105.905V21.1556V28.9778H96.3049V23.8815H101.816V21.2741H96.3049V16.1778H103.12V13.5704H93.1642V31.6445H109.046V23.8815H110.586C112.009 26.1334 115.09 31.5852 115.09 31.5852H118.823L113.964 23.6445C115.09 23.4075 115.861 22.9926 116.453 22.4593ZM109.105 21.1556V16.1186H111.772C114.142 16.1186 115.09 17.0667 115.09 18.6075C115.09 20.326 114.142 21.1556 111.772 21.1556H109.105ZM133.875 13.5112C136.483 13.5112 138.023 13.926 139.149 14.8741C140.098 15.7038 140.809 17.126 140.809 18.7852C140.809 20.4445 140.098 21.8667 139.09 22.6964C138.023 23.6445 136.483 24.1186 133.875 24.1186H131.742V31.5852H128.601V13.5112H133.875ZM131.742 21.4519H134.409C136.661 21.4519 137.727 20.3852 137.727 18.726C137.727 17.1852 136.779 16.1186 134.409 16.1186H131.742V21.4519ZM86.5272 21.0371C84.0383 20.1482 82.9123 19.4371 82.9123 18.0148C82.9123 16.9482 84.0383 15.7037 86.1716 15.7037C87.7716 15.7037 89.3123 16.2371 90.0827 16.6519V14.0445C89.2531 13.6297 87.7716 13.2148 86.2309 13.2148C82.3197 13.2148 79.6531 15.4074 79.6531 18.3111C79.6531 20.9186 81.6679 22.5186 84.6901 23.526C87.0605 24.3556 88.0679 25.1852 88.0679 26.6074C88.0679 28.1482 86.7642 29.2148 84.5716 29.2148C82.8531 29.2148 80.7198 28.6223 79.5938 27.9111V30.6963C80.6605 31.2889 82.5568 31.763 84.3346 31.763C89.0161 31.763 91.2679 29.2741 91.2679 26.3704C91.3272 23.7037 89.6679 22.163 86.5272 21.0371ZM283.861 25.3036C282.142 25.3036 280.838 26.6073 280.838 28.3259C280.838 30.1036 282.201 31.4073 283.861 31.3481C285.52 31.3481 286.824 30.1036 286.824 28.3259C286.824 26.6073 285.52 25.3036 283.861 25.3036ZM287.594 28.3259C287.594 30.4592 285.875 31.9999 283.861 31.9999C281.846 31.9999 280.127 30.4592 280.127 28.3259C280.127 26.1925 281.846 24.6518 283.861 24.6518C285.875 24.6518 287.594 26.2518 287.594 28.3259ZM283.801 28.6222H283.149V30.4592H282.498V26.2518H284.098C285.105 26.2518 285.579 26.6073 285.579 27.437C285.579 28.2073 285.105 28.5629 284.453 28.6222L285.638 30.4592H284.927L283.801 28.6222ZM283.09 26.7851V28.0888H283.92C284.453 28.0888 284.927 28.0296 284.927 27.3777C284.927 26.9036 284.453 26.7851 283.979 26.7851H283.09Z" fill="#006BA6"/>
</svg>
