<svg width="250" height="32" viewBox="0 0 250 32" fill="none" xmlns="http://www.w3.org/2000/svg">
<path d="M19.2625 16.6316C17.7429 16.6316 16.5107 17.8716 16.5107 19.4008C16.5107 20.9305 17.7429 22.1701 19.2625 22.1701C20.7825 22.1701 22.0143 20.9305 22.0143 19.4008C22.0143 17.8716 20.7825 16.6316 19.2625 16.6316ZM11.0071 8.32432C9.48752 8.32432 8.25535 9.56386 8.25535 11.0931C8.25535 12.6228 9.48752 13.8624 11.0071 13.8624C12.5272 13.8624 13.7589 12.6228 13.7589 11.0931C13.7589 9.56386 12.5272 8.32432 11.0071 8.32432ZM11.0071 24.9393C9.48752 24.9393 8.25535 26.1789 8.25535 27.7086C8.25535 29.2378 9.48752 30.4778 11.0071 30.4778C12.5272 30.4778 13.7589 29.2378 13.7589 27.7086C13.7589 26.1789 12.5272 24.9393 11.0071 24.9393ZM11.0071 16.6316C9.48752 16.6316 8.25535 17.8716 8.25535 19.4008C8.25535 20.9301 9.48752 22.1701 11.0071 22.1701C12.5272 22.1701 13.7589 20.9301 13.7589 19.4008C13.7589 17.8716 12.5272 16.6316 11.0071 16.6316ZM2.75223 16.6316C1.23217 16.6316 0 17.8716 0 19.4008C0 20.9305 1.23217 22.1701 2.75223 22.1701C4.27184 22.1701 5.50357 20.9305 5.50357 19.4008C5.50357 17.8716 4.27184 16.6316 2.75223 16.6316ZM245.184 30.4778H249.824V0.396439H245.184V30.4778ZM194.39 30.4778H198.985V8.32432H194.39V30.4778ZM196.665 0C195.146 0 193.914 1.23954 193.914 2.76924C193.914 4.29849 195.146 5.53848 196.665 5.53848C198.185 5.53848 199.417 4.29849 199.417 2.76924C199.417 1.23954 198.185 0 196.665 0ZM236.563 22.1535C236.563 25.677 234.55 27.835 231.355 27.835C228.773 27.835 227.373 26.426 227.373 24.2675C227.373 21.8454 229.035 20.3475 232.712 20.3475H236.563V22.1535ZM232.099 7.66329C228.467 7.66329 225.928 8.9405 224.002 10.6142V14.0938C225.884 11.9797 228.204 10.9666 230.873 10.9666C234.374 10.9666 236.563 12.9044 236.563 16.8684V17.7492H232.405C225.884 17.7492 222.689 20.4798 222.689 24.3998C222.689 28.1875 225.622 31.05 229.779 31.05C233.149 31.05 235.425 29.3324 236.563 26.8659V30.4778H241.158V16.6921C241.158 10.9666 237.876 7.66329 232.099 7.66329ZM150.624 16.6038C151.15 13.0807 153.163 10.6586 156.489 10.6586C159.553 10.6586 161.653 12.6842 161.741 16.6038H150.624ZM156.62 7.66329C149.924 7.66329 145.591 12.4641 145.591 19.2466C145.591 26.426 150.493 31.1384 157.496 31.1384C160.997 31.1384 163.885 29.9051 165.636 28.1436V25.2806C163.973 26.9103 161.347 27.835 158.721 27.835C153.994 27.835 150.668 24.9281 150.449 19.291H166.336V17.8371C166.336 11.407 162.529 7.66329 156.62 7.66329ZM214.303 27.835C209.401 27.835 206.732 24.1352 206.732 19.3345C206.732 14.4019 209.62 11.0106 214.172 11.0106C216.623 11.0106 218.68 11.9353 220.474 14.0938V10.6142C218.855 8.80866 216.404 7.66329 213.209 7.66329C206.513 7.66329 201.786 12.7726 201.786 19.4233C201.786 26.0295 206.513 31.1384 213.165 31.1384C215.966 31.1384 218.504 30.2132 220.737 27.9669V24.9281C219.205 26.7341 216.754 27.835 214.303 27.835ZM179.358 27.7471C175.682 27.7471 173.275 24.4882 173.275 19.5112C173.275 14.4458 175.726 11.0106 179.533 11.0106C183.385 11.0106 185.748 14.4019 185.748 19.291C185.748 24.2675 183.166 27.7471 179.358 27.7471ZM185.66 12.4641C184.26 9.42529 181.766 7.66329 178.439 7.66329C172.794 7.66329 168.329 12.7726 168.329 19.5991C168.329 26.2937 172.487 31.1384 178.001 31.1384C181.809 31.1384 184.479 28.8921 185.66 25.8972V30.4778H190.256V0.396439H185.66V12.4641ZM66.9889 7.66329C63.3561 7.66329 60.9492 9.68943 59.7237 12.7282V8.32432H55.1283V30.4778H59.7237V18.2779C59.7237 14.1377 61.7807 11.4949 65.3694 11.4949C68.652 11.4949 70.0521 13.4771 70.0521 17.6169V30.4778H74.6475V16.6482C74.6475 10.9666 71.6279 7.66329 66.9889 7.66329ZM41.2549 28.0557C37.4906 28.0557 35.2148 24.664 35.2148 19.4233C35.2148 14.1377 37.4906 10.7465 41.2549 10.7465C45.1061 10.7465 47.3819 14.1377 47.3819 19.4233C47.3819 24.664 45.1061 28.0557 41.2549 28.0557ZM41.2549 7.66329C34.9086 7.66329 30.2696 12.7726 30.2696 19.4233C30.2696 26.0735 34.9086 31.1384 41.2549 31.1384C47.6881 31.1384 52.3271 26.0735 52.3271 19.4233C52.3271 12.7726 47.6881 7.66329 41.2549 7.66329ZM82.4381 16.6038C83.0067 13.0807 84.9764 10.6586 88.3463 10.6586C91.3659 10.6586 93.4666 12.6842 93.5544 16.6038H82.4381ZM88.4336 7.66329C81.7375 7.66329 77.4488 12.4641 77.4488 19.2466C77.4488 26.426 82.3066 31.1384 89.3093 31.1384C92.8106 31.1384 95.6987 29.9051 97.4933 28.1436V25.2806C95.7861 26.9103 93.2041 27.835 90.5784 27.835C85.8079 27.835 82.4817 24.9281 82.3066 19.291H98.1497V17.8371C98.1497 11.407 94.3422 7.66329 88.4336 7.66329ZM136.007 7.66329C132.987 7.66329 130.623 9.42529 129.354 12.3762C128.391 9.38134 126.029 7.66329 123.096 7.66329C120.12 7.66329 118.063 9.42529 116.969 12.2878V8.32432H112.33V30.4778H116.969V17.2204C116.969 13.8292 118.676 11.451 121.433 11.451C124.015 11.451 125.328 13.2125 125.328 16.6038V30.4778H129.923V16.8684C129.923 13.6973 131.63 11.451 134.431 11.451C137.013 11.451 138.239 13.2125 138.239 16.7361V30.4778H142.834V15.8993C142.834 10.7465 140.164 7.66329 136.007 7.66329Z" fill="black"/>
</svg>
