<?xml version="1.0" encoding="UTF-8"?>
<svg width="2008px" height="917px" viewBox="0 0 2008 917" version="1.1" xmlns="http://www.w3.org/2000/svg" xmlns:xlink="http://www.w3.org/1999/xlink">
    <title>touchups/wave</title>
    <defs>
        <filter color-interpolation-filters="auto" id="filter-1">
            <feColorMatrix in="SourceGraphic" type="matrix" values="0 0 0 0 0.941176 0 0 0 0 0.949020 0 0 0 0 0.956863 0 0 0 1.000000 0"></feColorMatrix>
        </filter>
    </defs>
    <g id="touchups/wave" stroke="none" stroke-width="1" fill="none" fill-rule="evenodd">
        <g filter="url(#filter-1)">
            <g transform="translate(0.343400, 0.592337)">
                <path d="M1.5376,132.985863 C24.8136,89.6378632 55.2256,53.9968632 100.0066,30.8238632 C146.1396,6.95086317 189.0936,4.67286317 242.9886,1.59186317 C294.8696,-1.37413683 427.7626,-7.41613683 558.9926,61.2478632 C585.9366,75.3458632 613.4286,89.7308632 641.6216,116.730863 C706.7116,179.063863 690.6596,227.343863 734.1326,275.127863 C787.3006,333.568863 884.7026,342.021863 966.1116,349.085863 C1166.3766,366.464863 1235.6316,287.320863 1321.5696,334.088863 C1359.0766,354.499863 1357.1686,377.826863 1386.0036,430.959863 C1390.4976,439.240863 1392.7036,445.962863 1437.6536,507.967863 C1516.7096,617.023863 1556.5416,671.652863 1571.4286,676.570863 C1653.2576,703.610863 1714.0156,582.390863 1819.7556,594.969863 C1898.1056,604.289863 1960.9116,682.279863 2007.1416,763.097863" id="Stroke-1" stroke="#D0D8DC" stroke-width="1.184"></path>
                <path d="M1.729,135.463963 C26.707,94.3009632 57.501,59.7779632 101.881,37.5489632 C113.694,31.6319632 125.116,27.0649632 136.358,23.3089632 C170.106,12.0339632 201.749,8.36496317 241.619,5.54096317 C265.996,3.81496317 308.328,3.35596317 360.131,8.08796317 C386.141,10.4629632 412.81,13.5459632 441.757,20.4579632 C479.037,29.3989632 518.06,44.2399632 557.051,65.3519632 C583.926,79.9489632 611.265,94.8599632 639.759,120.893963 C658.728,138.223963 670.771,153.329963 679.724,168.895963 C701.884,207.422963 701.926,242.657963 732.366,277.542963 C756.107,304.752963 789.218,321.713963 826.296,332.849963 C869.81,345.825963 918.631,350.633963 962.765,354.507963 C986.644,356.605963 1008.683,357.217963 1028.989,356.672963 C1066.232,355.623963 1096.809,350.712963 1125.39,345.533963 C1175.157,336.516963 1213.29,324.776963 1249.738,323.350963 C1273.2,322.431963 1295.135,325.838963 1318.254,338.182963 C1355.859,358.278963 1354.178,381.987963 1384.469,433.387963 C1389.577,442.054963 1392.762,449.109963 1436.903,509.978963 C1490.308,583.594963 1523.479,632.186963 1545.879,658.351963 C1556.089,670.276963 1563.429,677.043963 1568.303,678.752963 C1648.252,706.791963 1709.345,589.693963 1815.608,602.423963 C1893.37,611.717963 1956.555,687.358963 2004.276,765.575963" id="Stroke-3" stroke="#D0D8DC" stroke-width="1.184"></path>
                <path d="M1.9204,137.942463 C28.5994,98.9634632 59.7944,65.5784632 103.7564,44.2744632 C115.7894,38.4434632 127.2354,33.9404632 138.3004,30.0584632 C171.7894,18.3094632 200.8594,12.8244632 240.2504,9.49046317 C264.6034,7.42946317 306.9474,8.57446317 358.9064,12.7164632 C385.5684,14.8414632 411.2984,16.6034632 440.3574,23.2744632 C477.6264,31.9034632 516.3244,47.7424632 555.1104,69.4564632 C581.9154,84.5514632 609.1164,99.9844632 637.8964,125.056463 C657.2914,141.952463 669.4034,155.537463 678.6904,170.877463 C701.3504,208.303463 700.8054,244.346463 730.5984,279.958463 C753.6654,307.528463 786.1324,325.161463 823.0434,336.974463 C866.2224,350.612463 915.1704,356.002463 959.4174,359.931463 C983.3784,362.059463 1005.5074,362.582463 1025.7754,361.780463 C1063.0684,360.209463 1092.3794,354.223463 1121.5454,348.722463 C1170.0394,339.577463 1208.0124,328.331463 1246.2244,327.366463 C1269.6754,326.774463 1291.7224,330.117463 1314.9374,342.277463 C1352.6414,362.057463 1351.4354,386.069463 1382.9334,435.815463 C1388.6724,444.879463 1392.8204,452.256463 1436.1534,511.988463 C1489.3674,585.289463 1520.1444,633.550463 1542.9534,660.511463 C1552.9294,672.304463 1560.2214,679.097463 1565.1774,680.934463 C1643.2564,709.879463 1704.6744,596.996463 1811.4624,609.879463 C1888.6354,619.147463 1952.1984,692.436463 2001.4104,768.053463" id="Stroke-5" stroke="#D0D8DC" stroke-width="1.184"></path>
                <path d="M2.1113,140.420963 C30.4913,103.626963 62.1033,71.3999632 105.6313,50.9999632 C117.8873,45.2559632 129.3553,40.8149632 140.2433,36.8079632 C173.4733,24.5799632 199.9713,17.2759632 238.8813,13.4399632 C263.2123,11.0409632 305.5703,13.7779632 357.6823,17.3459632 C384.9993,19.2159632 409.7873,19.6619632 438.9573,26.0899632 C476.2153,34.4089632 514.5903,51.2449632 553.1703,73.5599632 C579.9033,89.1539632 606.9823,105.102963 636.0333,129.218963 C655.8633,145.679963 668.0293,157.743963 677.6573,172.857963 C700.7963,209.184963 699.6863,246.027963 728.8323,282.372963 C751.2263,310.298963 783.0143,328.711963 819.7913,341.098963 C862.5953,355.516963 911.7083,361.369963 956.0703,365.353963 C980.1113,367.513963 1002.3323,367.946963 1022.5603,366.887963 C1059.9043,364.793963 1087.9493,357.736963 1117.7003,351.911963 C1164.9243,342.664963 1202.7643,333.167963 1242.7113,331.381963 C1266.1273,330.334963 1288.3103,334.395963 1311.6223,346.371963 C1349.4243,365.835963 1348.9013,390.072963 1381.3993,438.243963 C1387.7863,447.711963 1392.8793,455.403963 1435.4033,513.998963 C1488.4263,586.984963 1516.8123,634.911963 1540.0273,662.671963 C1549.7753,674.327963 1557.0133,681.149963 1562.0513,683.116963 C1638.2743,712.874963 1700.0053,604.298963 1807.3143,617.333963 C1883.9003,626.575963 1947.8423,697.513963 1998.5453,770.531963" id="Stroke-7" stroke="#D0D8DC" stroke-width="1.184"></path>
                <path d="M2.3027,142.899463 C32.3847,108.289463 64.4277,77.2414632 107.5057,57.7254632 C119.9897,52.0694632 131.4737,47.6864632 142.1857,43.5574632 C175.1577,30.8454632 199.0857,21.7204632 237.5117,17.3884632 C261.8227,14.6484632 304.1967,18.9674632 356.4577,21.9744632 C384.4307,23.5844632 408.2767,22.7204632 437.5577,28.9064632 C474.8037,36.9144632 512.9087,54.6584632 551.2297,77.6644632 C577.9297,93.6944632 604.8627,110.215463 634.1707,133.381463 C654.4437,149.406463 666.6487,159.947463 676.6237,174.839463 C700.2197,210.067463 698.5707,247.701463 727.0657,284.788463 C748.7907,313.064463 779.9177,332.188463 816.5387,345.223463 C858.9937,360.335463 908.2467,366.738463 952.7227,370.776463 C976.8447,372.968463 999.1597,373.359463 1019.3467,371.995463 C1056.7467,369.467463 1083.5167,361.253463 1113.8557,355.100463 C1159.8117,345.777463 1197.4717,337.064463 1239.1977,335.397463 C1262.5997,334.462463 1284.8997,338.674463 1308.3057,350.466463 C1346.2067,369.614463 1346.5387,394.003463 1379.8647,440.671463 C1386.9147,450.546463 1392.9377,458.551463 1434.6537,516.008463 C1487.4877,588.679463 1513.4837,636.269463 1537.1007,664.832463 C1546.6237,676.348463 1553.8047,683.199463 1558.9267,685.298463 C1633.3067,715.787463 1695.3347,611.602463 1803.1667,624.788463 C1879.1647,634.004463 1943.4867,702.591463 1995.6787,773.009463" id="Stroke-9" stroke="#D0D8DC" stroke-width="1.184"></path>
                <path d="M2.4942,145.377963 C34.2762,112.951963 66.7652,83.1029632 109.3802,64.4509632 C122.0942,58.8859632 133.5942,54.5569632 144.1282,50.3069632 C176.8442,37.1069632 198.2012,26.1569632 236.1432,21.3379632 C260.4342,18.2529632 302.8262,24.1429632 355.2332,26.6039632 C383.8642,27.9479632 406.7782,25.7159632 436.1582,31.7229632 C473.4102,39.3399632 511.1862,58.1439632 549.2882,81.7689632 C575.9282,98.2859632 602.7572,115.321963 632.3082,137.544963 C653.0332,153.130963 665.2602,162.149963 675.5902,176.819963 C699.6232,210.953963 697.4582,249.367963 725.2982,287.202963 C746.3582,315.822963 776.8212,335.661963 813.2862,349.346963 C855.3922,365.149963 904.7852,372.106963 949.3762,376.198963 C973.5792,378.422963 995.9862,378.733963 1016.1322,377.102963 C1053.5852,374.069963 1079.0822,364.774963 1110.0112,358.288963 C1154.7012,348.914963 1192.1682,340.913963 1235.6832,339.412963 C1259.0742,338.606963 1281.4872,342.953963 1304.9902,354.560963 C1342.9902,373.393963 1344.3212,397.862963 1378.3292,443.099963 C1386.0592,453.381963 1392.9962,461.697963 1433.9042,518.018963 C1486.5472,590.373963 1510.1562,637.622963 1534.1752,666.991963 C1543.4762,678.364963 1550.5952,685.244963 1555.8022,687.480963 C1628.3542,718.618963 1690.6652,618.904963 1799.0202,632.241963 C1874.4312,641.433963 1939.1302,707.669963 1992.8122,775.487963" id="Stroke-11" stroke="#D0D8DC" stroke-width="1.184"></path>
                <path d="M2.6856,147.856563 C36.1686,117.614563 69.1166,88.9835632 111.2546,71.1765632 C124.2026,65.7055632 135.7126,61.4255632 146.0716,57.0555632 C178.5296,43.3635632 197.3176,30.5865632 234.7736,25.2875632 C259.0466,21.8535632 301.4566,29.3065632 354.0096,31.2325632 C383.2986,32.3065632 405.2686,28.7645632 434.7586,34.5395632 C471.9996,41.8335632 509.4636,61.6315632 547.3486,85.8735632 C573.9246,102.877563 600.6646,120.419563 630.4446,141.707563 C651.6306,156.852563 663.8656,164.352563 674.5566,178.801563 C699.0046,211.844563 696.3496,251.027563 723.5316,289.618563 C743.9296,318.575563 773.7246,339.132563 810.0346,353.471563 C851.7916,369.962563 901.3246,377.474563 946.0296,381.621563 C970.3126,383.877563 992.8126,384.106563 1012.9166,382.210563 C1050.4246,378.671563 1074.6466,368.301563 1106.1656,361.477563 C1149.5946,352.074563 1186.8556,344.717563 1232.1686,343.428563 C1255.5506,342.763563 1278.0756,347.232563 1301.6736,358.654563 C1339.7726,377.172563 1342.2226,401.660563 1376.7936,445.527563 C1385.2176,456.216563 1393.0546,464.845563 1433.1546,520.029563 C1485.6066,592.068563 1506.8326,638.972563 1531.2486,669.151563 C1540.3316,680.378563 1547.3836,687.290563 1552.6756,689.662563 C1623.4186,721.378563 1685.9946,626.207563 1794.8736,639.697563 C1869.6956,648.863563 1934.7746,712.747563 1989.9476,777.966563" id="Stroke-13" stroke="#D0D8DC" stroke-width="1.184"></path>
                <path d="M2.877,150.335063 C38.062,122.277063 71.48,94.8840632 113.13,77.9020632 C126.313,72.5270632 137.832,68.2920632 148.014,63.8050632 C180.215,49.6150632 196.435,35.0080632 233.405,29.2360632 C257.66,25.4500632 300.089,34.4580632 352.785,35.8620632 C382.734,36.6600632 403.758,31.8130632 433.358,37.3560632 C470.59,44.3280632 507.739,65.1220632 545.407,89.9770632 C571.921,107.472063 598.586,125.509063 628.582,145.871063 C650.237,160.569063 662.462,166.555063 673.523,180.782063 C698.365,212.740063 695.245,252.681063 721.765,292.033063 C741.505,321.323063 770.628,342.601063 806.782,357.596063 C848.191,374.771063 897.862,382.842063 942.682,387.044063 C967.047,389.332063 989.639,389.480063 1009.703,387.317063 C1047.264,383.271063 1070.21,371.831063 1102.321,364.666063 C1144.491,355.255063 1181.551,345.871063 1228.655,347.445063 C1252.021,348.225063 1274.664,351.511063 1298.358,362.749063 C1336.556,380.951063 1340.224,405.399063 1375.259,447.956063 C1384.391,459.046063 1393.113,467.993063 1432.404,522.039063 C1484.666,593.764063 1503.513,640.317063 1528.323,671.312063 C1537.19,682.390063 1544.174,689.331063 1549.551,691.844063 C1618.502,724.068063 1681.324,633.510063 1790.726,647.151063 C1864.961,656.292063 1930.418,717.825063 1987.081,780.444063" id="Stroke-15" stroke="#D0D8DC" stroke-width="1.184"></path>
                <path d="M3.0679,152.813063 C39.9539,126.940063 73.8549,100.803063 115.0049,84.6270632 C128.4259,79.3520632 139.9509,75.1570632 149.9559,70.5550632 C181.9009,55.8620632 195.5529,39.4210632 232.0359,33.1860632 C256.2749,29.0430632 298.7229,39.5990632 351.5609,40.4910632 C382.1699,41.0080632 402.2479,34.8630632 431.9589,40.1720632 C469.1809,46.8240632 506.0139,68.6140632 543.4669,94.0820632 C569.9169,112.067063 596.5189,130.589063 626.7189,150.033063 C648.8509,164.282063 661.0519,168.757063 672.4889,182.764063 C697.7039,213.644063 694.1449,254.328063 719.9989,294.448063 C739.0849,324.066063 767.5319,346.067063 803.5289,361.720063 C844.5909,379.576063 894.4009,388.210063 939.3349,392.467063 C963.7799,394.786063 986.4659,394.851063 1006.4879,392.425063 C1044.1039,387.868063 1065.7739,375.366063 1098.4769,367.854063 C1139.3909,358.456063 1176.2509,349.333063 1225.1419,351.460063 C1248.4869,352.477063 1271.2519,355.790063 1295.0419,366.844063 C1333.3379,384.730063 1338.3079,409.085063 1373.7249,450.383063 C1383.5759,461.871063 1393.1719,471.140063 1431.6539,524.049063 C1483.7269,595.459063 1500.1959,641.659063 1525.3979,673.472063 C1534.0519,684.397063 1540.9629,691.369063 1546.4249,694.026063 C1613.6029,726.694063 1676.6539,640.813063 1786.5789,654.606063 C1860.2259,663.721063 1926.0629,722.903063 1984.2159,782.923063" id="Stroke-17" stroke="#D0D8DC" stroke-width="1.184"></path>
                <path d="M3.2593,155.291563 C41.8463,131.602563 76.2393,106.739563 116.8793,91.3535632 C130.5423,86.1805632 142.0693,82.0205632 151.8993,77.3045632 C183.5853,62.1035632 194.6713,43.8275632 230.6663,37.1355632 C254.8893,32.6315632 297.3703,46.3435632 350.3363,45.1205632 C381.5993,44.3975632 400.7373,37.9145632 430.5593,42.9885632 C467.7703,49.3205632 504.2883,72.1085632 541.5263,98.1855632 C567.9123,116.663563 594.4643,135.659563 624.8563,154.196563 C647.4723,167.990563 659.6343,170.961563 671.4553,184.744563 C697.0223,214.554563 693.0503,255.968563 718.2313,296.863563 C736.6683,326.804563 764.4363,349.529563 800.2773,365.844563 C840.9913,384.377563 890.9393,393.578563 935.9873,397.889563 C960.5143,400.240563 983.2923,400.220563 1003.2743,397.532563 C1040.9423,392.464563 1061.3353,378.906563 1094.6323,371.042563 C1134.2943,361.675563 1170.9503,352.777563 1221.6283,355.476563 C1244.9533,356.717563 1267.8403,360.068563 1291.7263,370.937563 C1330.1213,388.508563 1336.4623,412.722563 1372.1893,452.811563 C1382.7743,464.688563 1393.2303,474.286563 1430.9043,526.059563 C1482.7863,597.153563 1496.8843,642.997563 1522.4703,675.631563 C1530.9163,686.403563 1537.7533,693.405563 1543.3003,696.208563 C1608.7233,729.259563 1671.9843,648.115563 1782.4313,662.060563 C1855.4903,671.149563 1921.7063,727.980563 1981.3493,785.400563" id="Stroke-19" stroke="#D0D8DC" stroke-width="1.184"></path>
                <path d="M3.4507,157.770063 C43.7397,136.266063 78.6347,112.695063 118.7537,98.0790632 C132.6607,93.0120632 144.1867,88.8810632 153.8417,84.0540632 C185.2687,68.3390632 193.7887,48.2260632 229.2977,41.0840632 C253.5047,36.2160632 296.0227,51.5260632 349.1117,49.7490632 C381.0267,48.6810632 399.2257,40.9660632 429.1597,45.8050632 C466.3597,51.8190632 502.5607,75.6040632 539.5857,102.290063 C565.9067,121.261063 592.4197,140.719063 622.9937,158.359063 C646.1017,171.691063 658.2087,173.169063 670.4217,186.726063 C696.3207,215.475063 691.9607,257.604063 716.4647,299.278063 C734.2567,329.538063 761.3417,352.990063 797.0257,369.969063 C837.3927,389.177063 887.4787,398.946063 932.6407,403.312063 C957.2477,405.694063 980.1187,405.590063 1000.0597,402.640063 C1037.7827,397.059063 1056.8977,382.453063 1090.7867,374.231063 C1129.1997,364.912063 1165.6497,356.207063 1218.1147,359.492063 C1241.4187,360.951063 1264.4277,364.348063 1288.4097,375.032063 C1326.9037,392.287063 1334.6737,416.316063 1370.6547,455.239063 C1381.9867,467.498063 1393.2887,477.434063 1430.1557,528.069063 C1481.8457,598.848063 1493.5757,644.330063 1519.5447,677.792063 C1527.7837,688.407063 1534.5427,695.438063 1540.1747,698.390063 C1603.8637,731.770063 1667.3147,655.418063 1778.2837,669.516063 C1850.7557,678.579063 1917.3497,733.059063 1978.4847,787.879063" id="Stroke-21" stroke="#D0D8DC" stroke-width="1.184"></path>
                <path d="M3.6421,160.248563 C45.6321,140.928563 81.0391,118.667563 120.6281,104.804563 C134.7821,99.8475632 146.3041,95.7405632 155.7841,90.8025632 C186.9521,74.5695632 192.9071,52.6165632 227.9291,45.0335632 C252.1201,39.7955632 294.6761,56.6815632 347.8871,54.3785632 C380.4531,52.9695632 397.7151,44.0201436 427.7601,48.6215632 C464.9481,54.3175632 500.8331,79.1025632 537.6441,106.394563 C563.9011,125.860563 590.3861,145.767563 621.1311,162.521563 C644.7381,175.386563 656.7751,175.378563 669.3881,188.706563 C695.6001,216.404563 690.8781,259.233563 714.6981,301.693563 C731.8501,332.267563 758.2471,356.447563 793.7721,374.093563 C833.7951,393.972563 884.0171,404.314563 929.2931,408.734563 C953.9821,411.148563 976.9451,410.958563 996.8461,407.747563 C1034.6221,401.650563 1052.4601,386.005563 1086.9421,377.419563 C1124.1081,368.165563 1160.3501,359.621563 1214.6001,363.507563 C1237.8861,365.175563 1261.0171,368.626563 1285.0951,379.126563 C1323.6861,396.065563 1332.9351,419.869563 1369.1191,457.667563 C1381.2101,470.296563 1393.3481,480.581563 1429.4051,530.079563 C1480.9051,600.542563 1490.2721,645.658563 1516.6191,679.952563 C1524.6521,690.409563 1531.3341,697.467563 1537.0491,700.571563 C1599.0231,734.228563 1662.6431,662.720563 1774.1381,676.970563 C1846.0201,686.007563 1912.9941,738.135563 1975.6181,790.356563" id="Stroke-23" stroke="#D0D8DC" stroke-width="1.184"></path>
                <path d="M3.8335,162.727163 C47.5245,145.591163 83.4515,124.658163 122.5035,111.530163 C136.9055,106.688163 148.4215,102.598163 157.7265,97.5521632 C188.6325,80.7951632 192.0245,56.9991632 226.5595,48.9831632 C250.7345,43.3711632 293.2655,60.0611632 346.6625,59.0081632 C379.9185,58.3511632 396.2035,47.0741632 426.3605,51.4381632 C463.5365,56.8191632 499.1045,82.6021632 535.7045,110.498163 C561.8945,130.461163 588.3605,150.805163 619.2685,166.685163 C643.3805,179.074163 655.3345,177.593163 668.3545,190.687163 C694.8605,217.347163 689.8015,260.859163 712.9315,304.108163 C729.4485,334.993163 755.1535,359.903163 790.5205,378.218163 C830.1975,398.765163 880.5555,409.683163 925.9465,414.157163 C950.7155,416.603163 973.7725,416.326163 993.6305,412.854163 C1031.4605,406.242163 1048.0225,389.564163 1083.0975,380.608163 C1119.0195,371.436163 1155.0505,363.019163 1211.0855,367.523163 C1234.3525,369.393163 1257.6045,372.906163 1281.7785,383.221163 C1320.4685,399.845163 1331.2385,423.386163 1367.5845,460.095163 C1380.4465,473.085163 1393.4065,483.728163 1428.6555,532.090163 C1479.9655,602.238163 1486.9745,646.982163 1513.6935,682.112163 C1521.5245,692.408163 1528.1255,699.494163 1533.9235,702.753163 C1594.2035,736.640163 1657.9735,670.023163 1769.9905,684.425163 C1841.2855,693.436163 1908.6375,743.214163 1972.7525,792.835163" id="Stroke-25" stroke="#D0D8DC" stroke-width="1.184"></path>
                <path d="M4.0244,165.205663 C49.4164,150.253663 85.8704,130.664663 124.3784,118.254663 C139.0314,113.532663 150.5374,109.453663 159.6694,104.301663 C190.3124,87.0156632 191.1414,61.3746632 225.1904,52.9326632 C249.3494,46.9416632 291.9014,65.1556632 345.4384,63.6366632 C379.3574,62.6746632 394.6914,50.1286632 424.9604,54.2546632 C462.1254,59.3206632 497.3744,86.1026632 533.7634,114.602663 C559.8864,135.061663 586.3434,155.830663 617.4054,170.847663 C642.0284,182.752663 653.8854,179.810663 667.3204,192.668663 C694.1034,218.300663 688.7324,262.479663 711.1644,306.523663 C727.0514,337.715663 752.0614,363.354663 787.2684,382.342663 C826.6014,403.554663 877.0944,415.050663 922.5984,419.580663 C947.4504,422.057663 970.5984,421.692663 990.4164,417.962663 C1028.3004,410.830663 1043.5874,393.130663 1079.2534,383.796663 C1113.9344,374.720663 1149.7534,366.401663 1207.5724,371.538663 C1230.8194,373.603663 1254.1924,377.184663 1278.4624,387.315663 C1317.2524,403.623663 1329.5754,426.867663 1366.0494,462.523663 C1379.6944,475.861663 1393.4644,486.875663 1427.9054,534.099663 C1479.0254,603.932663 1483.6814,648.302663 1510.7674,684.272663 C1518.3984,694.406663 1524.9204,701.517663 1530.7984,704.935663 C1589.4044,739.006663 1653.3034,677.326663 1765.8424,691.879663 C1836.5504,700.865663 1904.2824,748.291663 1969.8864,795.312663" id="Stroke-27" stroke="#D0D8DC" stroke-width="1.184"></path>
                <path d="M4.2158,167.684163 C51.3088,154.916163 88.2968,136.688163 126.2528,124.980163 C141.1598,120.382163 152.6528,116.307163 161.6118,111.051163 C191.9888,93.2301632 190.2568,65.7431632 223.8208,56.8811632 C247.9628,50.5081632 290.5378,70.2421632 344.2138,68.2661632 C378.7938,66.9931632 393.1798,53.1841632 423.5608,57.0711632 C460.7138,61.8241632 495.6428,89.6051632 531.8228,118.706163 C557.8778,139.664163 584.3338,160.844163 615.5418,175.010163 C640.6828,186.423163 652.4298,182.035163 666.2868,194.650163 C693.3298,219.267163 687.6688,264.096163 709.3978,308.938163 C724.6598,340.435163 748.9698,366.805163 784.0158,386.466163 C823.0078,408.342163 873.6328,420.418163 919.2518,425.002163 C944.1838,427.512163 967.4248,427.059163 987.2018,423.070163 C1025.1398,415.418163 1039.1518,396.705163 1075.4078,386.985163 C1108.8528,378.019163 1144.4568,369.768163 1204.0588,375.555163 C1227.2878,377.809163 1250.7798,381.463163 1275.1468,391.410163 C1314.0338,407.402163 1327.9408,430.318163 1364.5148,464.951163 C1378.9548,478.624163 1393.5238,490.022163 1427.1558,536.110163 C1478.0848,605.627163 1480.3958,649.617163 1507.8418,686.433163 C1515.2748,696.402163 1521.7148,703.537163 1527.6728,707.117163 C1584.6248,741.333163 1648.6338,684.629163 1761.6958,699.334163 C1831.8158,708.294163 1899.9258,753.369163 1967.0218,797.791163" id="Stroke-29" stroke="#D0D8DC" stroke-width="1.184"></path>
                <path d="M4.4072,170.162163 C53.2012,159.579163 90.7282,142.727163 128.1272,131.706163 C143.2892,127.238163 154.7672,123.159163 163.5542,117.800163 C193.6632,99.4381632 189.3712,70.1041632 222.4522,60.8301632 C246.5752,54.0681632 289.1732,75.3211632 342.9892,72.8951632 C378.2312,71.3061632 391.6672,56.2411632 422.1612,59.8871632 C459.3012,64.3281632 493.9102,93.1091632 529.8822,122.811163 C555.8682,144.268163 582.3302,165.845163 613.6792,179.173163 C639.3422,190.083163 650.9662,184.266163 665.2532,196.631163 C692.5412,220.247163 686.6132,265.708163 707.6312,311.353163 C722.2732,343.153163 745.8802,370.252163 780.7632,390.591163 C819.4152,413.126163 870.1722,425.787163 915.9052,430.425163 C940.9182,432.966163 964.2512,432.423163 983.9872,428.177163 C1021.9782,420.003163 1034.7182,400.289163 1071.5632,390.174163 C1103.7732,381.331163 1139.1622,373.120163 1200.5452,379.570163 C1223.7572,382.009163 1247.3692,385.742163 1271.8312,395.504163 C1310.8172,411.181163 1326.3292,433.740163 1362.9792,467.379163 C1378.2262,481.373163 1393.5822,493.170163 1426.4062,538.120163 C1477.1442,607.322163 1477.1152,650.928163 1504.9152,688.593163 C1512.1522,698.397163 1518.5112,705.554163 1524.5482,709.299163 C1579.8662,743.622163 1643.9642,691.932163 1757.5492,706.789163 C1827.0812,715.724163 1895.5692,758.447163 1964.1552,800.269163" id="Stroke-31" stroke="#D0D8DC" stroke-width="1.184"></path>
                <path d="M4.5986,172.640663 C55.0946,164.241663 93.1646,148.782663 130.0016,138.431663 C145.4216,134.098663 156.8816,130.009663 165.4966,124.549663 C195.3336,105.641663 188.4836,74.4576632 221.0836,64.7806632 C245.1876,57.6246632 287.8076,80.3936632 341.7656,77.5246632 C377.6676,75.6156632 390.1556,59.2996632 420.7616,62.7036632 C457.8896,66.8336632 492.1766,96.6146632 527.9406,126.914663 C553.8586,148.872663 580.3316,170.834663 611.8166,183.335663 C638.0046,193.734663 649.4956,186.503663 664.2196,198.611663 C691.7396,221.243663 685.5646,267.317663 705.8646,313.768663 C719.8916,345.867663 742.7916,373.697663 777.5116,394.715663 C815.8236,417.907663 866.7096,431.154663 912.5576,435.847663 C937.6516,438.420663 961.0776,437.787663 980.7736,433.284663 C1018.8176,424.587663 1030.2866,403.882663 1067.7186,393.362663 C1098.6976,384.655663 1133.8706,376.454663 1197.0316,383.585663 C1220.2256,386.204663 1243.9566,390.020663 1268.5146,399.598663 C1307.5996,414.959663 1324.7376,437.134663 1361.4456,469.807663 C1377.5106,484.107663 1393.6406,496.316663 1425.6566,540.129663 C1476.2046,609.016663 1473.8416,652.232663 1501.9896,690.752663 C1509.0326,700.390663 1515.3116,707.566663 1521.4216,711.480663 C1575.1276,745.877663 1639.2936,699.234663 1753.4016,714.243663 C1822.3456,723.152663 1891.2136,763.525663 1961.2896,802.746663" id="Stroke-33" stroke="#D0D8DC" stroke-width="1.184"></path>
                <path d="M4.7901,175.119163 C56.9871,168.904163 95.6061,154.852163 131.8761,145.157163 C147.5551,140.966163 158.9941,136.859163 167.4391,131.299163 C197.0021,111.840163 187.5941,78.8041632 219.7141,68.7291632 C243.7981,61.1751632 286.4421,85.4591632 340.5401,82.1531632 C377.1041,79.9191632 388.6431,62.3581632 419.3621,65.5201632 C456.4771,69.3401632 490.4421,100.121163 526.0001,131.019163 C551.8471,153.478163 578.3371,175.812163 609.9541,187.499163 C636.6711,197.375163 648.0191,188.750163 663.1861,200.593163 C690.9251,222.253163 684.5241,268.925163 704.0981,316.183163 C717.5161,348.580163 739.7051,377.140163 774.2601,398.839163 C812.2331,422.686163 863.2491,436.523163 909.2111,441.270163 C934.3861,443.875163 957.9021,443.150163 977.5591,438.392163 C1015.6551,429.170163 1025.8581,407.487163 1063.8741,396.551163 C1093.6251,387.992163 1128.5811,379.775163 1193.5171,387.601163 C1216.6961,390.395163 1240.5451,394.300163 1265.1991,403.693163 C1304.3831,418.739163 1323.1611,440.503163 1359.9101,472.235163 C1376.8071,486.825163 1393.6991,499.464163 1424.9061,542.140163 C1475.2651,610.712163 1470.5761,653.531163 1499.0631,692.913163 C1505.9141,702.383163 1512.1131,709.576163 1518.2971,713.662163 C1570.4101,748.101163 1634.6231,706.537163 1749.2551,721.698163 C1817.6101,730.581163 1886.8571,768.602163 1958.4241,805.225163" id="Stroke-35" stroke="#D0D8DC" stroke-width="1.184"></path>
                <path d="M4.9815,177.597763 C58.8795,173.566763 98.0505,160.936763 133.7515,151.882763 C149.6905,147.840763 161.1055,143.705763 169.3825,138.048763 C198.6655,118.032763 186.7025,83.1447632 218.3455,72.6787632 C242.4065,64.7207632 285.0755,90.5187632 339.3165,86.7827632 C376.5405,84.2187632 387.1305,65.4187632 417.9615,68.3367632 C455.0645,71.8487632 488.7055,103.629763 524.0595,135.123763 C549.8355,158.084763 576.3465,180.777763 608.0905,191.661763 C635.3405,201.004763 646.5365,191.004763 662.1525,202.574763 C690.0995,223.278763 683.4915,270.529763 702.3315,318.598763 C715.1445,351.291763 736.6195,380.580763 771.0065,402.963763 C808.6455,427.462763 859.7885,441.890763 905.8635,446.692763 C931.1195,449.328763 954.7285,448.512763 974.3445,443.499763 C1012.4925,433.750763 1021.4325,411.104763 1060.0295,399.739763 C1088.5545,391.339763 1123.2945,383.079763 1190.0025,391.617763 C1213.1685,394.581763 1237.1335,398.578763 1261.8825,407.786763 C1301.1655,422.516763 1321.5975,443.848763 1358.3755,474.662763 C1376.1145,489.526763 1393.7575,502.611763 1424.1565,544.150763 C1474.3245,612.406763 1467.3185,654.825763 1496.1375,695.073763 C1502.7965,704.372763 1508.9175,711.580763 1515.1715,715.844763 C1565.7135,750.297763 1629.9535,713.839763 1745.1075,729.152763 C1812.8765,738.009763 1882.5015,773.680763 1955.5575,807.702763" id="Stroke-37" stroke="#D0D8DC" stroke-width="1.184"></path>
                <path d="M5.1724,180.076263 C60.7724,178.230263 100.4984,167.035263 135.6264,158.608263 C151.8274,154.721263 163.2164,150.552263 171.3244,144.798263 C200.3254,124.219263 185.8074,87.4772632 216.9764,76.6282632 C241.0134,68.2612632 283.7084,95.5732632 338.0914,91.4112632 C375.9754,88.5132632 385.6184,68.4792632 416.5624,71.1532632 C453.6514,74.3582632 486.9684,107.139263 522.1194,139.228263 C547.8224,162.692263 574.3574,185.731263 606.2284,195.825263 C634.0124,204.624263 645.0474,193.269263 661.1194,204.555263 C689.2654,224.321263 682.4664,272.132263 700.5644,321.013263 C712.7774,354.002263 733.5354,384.019263 767.7554,407.088263 C805.0594,432.237263 856.3264,447.259263 902.5164,452.116263 C927.8534,454.784263 951.5534,453.874263 971.1304,448.607263 C1009.3294,438.329263 1017.0114,414.735263 1056.1844,402.928263 C1083.4874,394.699263 1118.0124,386.368263 1186.4894,395.633263 C1209.6394,398.765263 1233.7214,402.857263 1258.5674,411.882263 C1297.9484,426.296263 1320.0444,447.171263 1356.8394,477.091263 C1375.4334,492.210263 1393.8164,505.758263 1423.4074,546.160263 C1473.3834,614.101263 1464.0684,656.113263 1493.2124,697.232263 C1499.6824,706.362263 1505.7244,713.582263 1512.0464,718.026263 C1561.0384,752.468263 1625.2834,721.142263 1740.9604,736.607263 C1808.1404,745.439263 1878.1454,778.759263 1952.6924,810.181263" id="Stroke-39" stroke="#D0D8DC" stroke-width="1.184"></path>
                <path d="M5.3638,182.554763 C62.6648,182.892763 102.9478,173.147763 137.5008,165.333763 C153.9658,161.609763 165.3248,157.396763 173.2678,151.547763 C201.9808,130.400763 184.9098,91.8047632 215.6078,80.5767632 C239.6168,71.7957632 282.3398,100.621763 336.8668,96.0407632 C375.4098,92.8027632 384.1058,71.5417632 415.1628,73.9697632 C452.2388,76.8677632 485.2298,110.649763 520.1778,143.331763 C545.8088,167.300763 572.3688,190.673763 604.3648,199.987763 C632.6848,208.231763 643.5538,195.543763 660.0858,206.535763 C688.4238,225.378763 681.4488,273.732763 698.7978,323.428763 C710.4168,356.711763 730.4538,387.455763 764.5028,411.212763 C801.4758,437.009763 852.8648,452.626763 899.1688,457.537763 C924.5868,460.237763 948.3778,459.234763 967.9158,453.714763 C1006.1658,442.906763 1012.5958,418.381763 1052.3398,406.116763 C1078.4238,398.067763 1112.7328,389.641763 1182.9758,399.648763 C1206.1138,402.944763 1230.3098,407.136763 1255.2508,415.975763 C1294.7308,430.074763 1318.4958,450.472763 1355.3048,479.518763 C1374.7638,494.874763 1393.8748,508.905763 1422.6568,548.170763 C1472.4448,615.796763 1460.8278,657.394763 1490.2848,699.392763 C1496.5698,708.351763 1502.5358,715.578763 1508.9208,720.207763 C1556.3838,754.616763 1620.6138,728.445763 1736.8138,744.061763 C1803.4058,752.867763 1873.7888,783.835763 1949.8258,812.658763" id="Stroke-41" stroke="#D0D8DC" stroke-width="1.184"></path>
                <path d="M5.5552,185.033263 C64.5562,187.555263 105.3982,179.273263 139.3752,172.059263 C156.1052,168.507263 167.4332,164.240263 175.2102,158.297263 C203.6312,136.577263 184.0102,96.1252632 214.2382,84.5262632 C238.2192,75.3252632 280.9702,105.665263 335.6432,100.670263 C374.8432,97.0882632 382.5932,74.6042632 413.7632,76.7852632 C450.8262,79.3802632 483.4902,114.160263 518.2382,147.436263 C543.7932,171.909263 570.3812,195.604263 602.5022,204.150263 C631.3592,211.827263 642.0552,197.830263 659.0522,208.517263 C687.5752,226.452263 680.4392,275.332263 697.0312,325.844263 C708.0602,359.420263 727.3742,390.890263 761.2502,415.337263 C797.8932,441.780263 849.4032,457.995263 895.8222,462.961263 C921.3212,465.692263 945.2032,464.594263 964.7012,458.822263 C1003.0012,447.483263 1008.1842,422.045263 1048.4952,409.305263 C1073.3632,401.445263 1107.4572,392.900263 1179.4622,403.664263 C1202.5882,407.121263 1226.8972,411.415263 1251.9352,420.070263 C1291.5132,433.853263 1316.9542,453.753263 1353.7702,481.947263 C1374.1052,497.519263 1393.9332,512.053263 1421.9072,550.180263 C1471.5042,617.491263 1457.5982,658.670263 1487.3592,701.553263 C1493.4572,710.339263 1499.3502,717.572263 1505.7962,722.389263 C1551.7502,756.743263 1615.9432,735.748263 1732.6662,751.516263 C1798.6712,760.297263 1869.4332,788.914263 1946.9612,815.137263" id="Stroke-43" stroke="#D0D8DC" stroke-width="1.184"></path>
                <path d="M5.7466,187.511263 C66.4496,192.218263 107.8506,185.412263 141.2496,178.784263 C158.2456,175.412263 169.5396,171.081263 177.1526,165.046263 C205.2756,142.748263 183.1056,100.440263 212.8696,88.4752632 C236.8166,78.8492632 279.5986,110.703263 334.4186,105.299263 C374.2756,101.369263 381.0806,77.6682632 412.3636,79.6022632 C449.4146,81.8922632 481.7476,117.673263 516.2966,151.540263 C541.7776,176.519263 568.3926,200.525263 600.6396,208.313263 C630.0336,215.412263 640.5526,200.127263 658.0176,210.498263 C686.7226,227.543263 679.4366,276.931263 695.2646,328.259263 C705.7076,362.129263 724.2956,394.323263 757.9976,419.461263 C794.3126,446.548263 845.9426,463.363263 892.4756,468.384263 C918.0546,471.147263 942.0276,469.953263 961.4866,463.929263 C999.8366,452.057263 1003.7816,425.729263 1044.6506,412.493263 C1068.3066,404.832263 1102.1846,396.143263 1175.9476,407.680263 C1199.0636,411.295263 1223.4866,415.694263 1248.6196,424.165263 C1288.2956,437.632263 1315.4136,457.014263 1352.2356,484.375263 C1373.4576,500.144263 1393.9926,515.200263 1421.1576,552.190263 C1470.5636,619.186263 1454.3786,659.938263 1484.4336,703.713263 C1490.3466,712.325263 1496.1696,719.560263 1502.6696,724.571263 C1547.1376,758.852263 1611.2726,743.051263 1728.5186,758.970263 C1793.9356,767.725263 1865.0776,793.992263 1944.0946,817.615263" id="Stroke-45" stroke="#D0D8DC" stroke-width="1.184"></path>
                <path d="M5.938,189.989863 C68.342,196.880863 110.302,191.562863 143.125,185.509863 C160.387,182.326863 171.646,177.922863 179.095,171.795863 C206.916,148.914863 182.198,104.749863 211.5,92.4248632 C235.412,82.3678632 278.227,115.737863 333.194,109.927863 C373.708,105.645863 379.569,80.7338632 410.963,82.4188632 C448.002,84.4068632 480.006,121.185863 514.356,155.644863 C539.761,181.129863 566.402,205.434863 598.776,212.475863 C628.707,218.985863 639.046,202.436863 656.984,212.479863 C685.868,228.649863 678.443,278.530863 693.497,330.673863 C703.361,364.837863 721.22,397.754863 754.746,423.585863 C790.734,451.314863 842.48,468.730863 889.128,473.805863 C914.789,476.600863 938.851,475.311863 958.272,469.036863 C996.671,456.629863 999.386,429.436863 1040.806,415.681863 C1063.253,408.227863 1096.916,399.371863 1172.434,411.695863 C1195.539,415.466863 1220.074,419.972863 1245.304,428.259863 C1285.079,441.410863 1313.873,460.256863 1350.7,486.803863 C1372.821,502.748863 1394.05,518.346863 1420.407,554.200863 C1469.623,620.880863 1451.171,661.199863 1481.508,705.872863 C1487.238,714.311863 1492.994,721.544863 1499.545,726.753863 C1542.547,760.947863 1606.603,750.352863 1724.372,766.425863 C1789.201,775.154863 1860.721,799.069863 1941.23,820.093863" id="Stroke-47" stroke="#D0D8DC" stroke-width="1.184"></path>
                <path d="M6.1289,192.468363 C70.2339,201.543363 112.7529,197.726363 144.9999,192.235363 C162.5279,189.251363 173.7499,184.762363 181.0379,178.545363 C208.5489,155.077363 181.2859,109.053363 210.1309,96.3743632 C234.0039,85.8813632 276.8529,120.767363 331.9699,114.557363 C373.1379,109.918363 378.0559,83.8003632 409.5639,85.2353632 C446.5899,86.9213632 478.2619,124.700363 512.4159,159.749363 C537.7429,185.740363 564.4099,210.335363 596.9139,216.639363 C627.3789,222.548363 637.5379,204.758363 655.9509,214.460363 C685.0119,229.772363 677.4559,280.130363 691.7309,333.089363 C701.0179,367.547363 718.1459,401.183363 751.4939,427.710363 C787.1589,456.080363 839.0199,474.099363 885.7809,479.229363 C911.5229,482.055363 935.6749,480.669363 955.0579,474.144363 C993.5039,461.201363 995.0009,433.171363 1036.9609,418.870363 C1058.2019,411.632363 1091.6519,402.585363 1168.9199,415.711363 C1192.0169,419.635363 1216.6619,424.252363 1241.9869,432.353363 C1281.8609,445.190363 1312.3319,463.481363 1349.1649,489.231363 C1372.1949,505.330363 1394.1079,521.494363 1419.6579,556.211363 C1468.6839,622.575363 1447.9759,662.453363 1478.5819,708.033363 C1484.1299,716.297363 1489.8219,723.523363 1496.4189,728.935363 C1537.9789,763.028363 1601.9329,757.655363 1720.2249,773.880363 C1784.4659,782.584363 1856.3649,804.147363 1938.3629,822.571363" id="Stroke-49" stroke="#D0D8DC" stroke-width="1.184"></path>
                <path d="M6.3203,194.946863 C72.1273,206.205863 115.2013,203.901863 146.8743,198.960863 C164.6703,196.184863 175.8513,191.600863 182.9803,185.294863 C210.1763,161.234863 180.3703,113.351863 208.7613,100.323863 C232.5913,89.3888632 275.4783,125.793863 330.7453,119.186863 C372.5673,114.186863 376.5443,86.8668632 408.1643,88.0508632 C445.1773,89.4378632 476.5163,128.214863 510.4753,163.853863 C535.7243,190.351863 562.4143,215.224863 595.0503,220.801863 C626.0493,226.098863 636.0263,207.092863 654.9173,216.441863 C684.1553,230.910863 676.4773,281.729863 689.9643,335.503863 C698.6793,370.256863 715.0743,404.611863 748.2413,431.834863 C783.5853,460.843863 835.5583,479.467863 882.4333,484.651863 C908.2573,487.509863 932.4973,486.026863 951.8433,479.251863 C990.3373,465.771863 990.6283,436.935863 1033.1163,422.058863 C1053.1563,415.042863 1086.3913,405.782863 1165.4063,419.726863 C1188.4963,423.801863 1213.2503,428.530863 1238.6723,436.447863 C1278.6443,448.968863 1310.7883,466.688863 1347.6313,491.658863 C1371.5793,507.889863 1394.1673,524.640863 1418.9083,558.220863 C1467.7433,624.270863 1444.7943,663.697863 1475.6553,710.193863 C1481.0243,718.280863 1486.6563,725.497863 1493.2943,731.116863 C1533.4313,765.098863 1597.2623,764.957863 1716.0773,781.334863 C1779.7303,790.012863 1852.0083,809.224863 1935.4983,825.049863" id="Stroke-51" stroke="#D0D8DC" stroke-width="1.184"></path>
                <path d="M6.5117,197.425363 C74.0197,210.868363 117.6487,210.087363 148.7487,205.686363 C166.8117,203.130363 177.9527,198.439363 184.9227,192.044363 C211.7967,167.387363 179.4497,117.646363 207.3927,104.273363 C231.1757,92.8913632 274.1017,130.815363 329.5207,123.815363 C371.9957,118.450363 375.0327,89.9353632 406.7637,90.8673632 C443.7647,91.9553632 474.7697,131.730363 508.5337,167.957363 C533.7047,194.964363 560.4147,220.107363 593.1877,224.965363 C624.7177,229.638363 634.5137,209.440363 653.8837,218.423363 C683.3027,232.064363 675.5057,283.329363 688.1967,337.919363 C696.3447,372.967363 712.0047,408.038363 744.9887,435.959363 C780.0137,465.606363 832.0967,484.835363 879.0867,490.074363 C904.9907,492.964363 929.3207,491.383363 948.6287,484.359363 C987.1677,470.340363 986.2707,440.737363 1029.2717,425.247363 C1048.1137,418.460363 1081.1367,408.967363 1161.8927,423.742363 C1184.9757,427.966363 1209.8387,432.809363 1235.3557,440.542363 C1275.4267,452.747363 1309.2407,469.880363 1346.0957,494.087363 C1370.9727,510.426363 1394.2257,527.788363 1418.1577,560.231363 C1466.8027,625.966363 1441.6267,664.934363 1472.7297,712.353363 C1477.9187,720.265363 1483.4967,727.467363 1490.1687,733.299363 C1528.9077,767.160363 1592.5927,772.260363 1711.9297,788.789363 C1774.9957,797.441363 1847.6527,814.302363 1932.6317,827.528363" id="Stroke-53" stroke="#D0D8DC" stroke-width="1.184"></path>
                <path d="M6.7031,199.903863 C75.9121,215.530863 120.0921,216.283863 150.6231,212.411863 C168.9531,210.087863 180.0521,205.276863 186.8661,198.793863 C213.4111,173.535863 178.5241,121.935863 206.0241,108.221863 C229.7541,96.3878632 272.7241,135.833863 328.2961,128.444863 C371.4231,122.709863 373.5191,93.0588632 405.3651,93.6838632 C442.3521,94.5368632 472.9581,135.304863 506.5941,172.061863 C531.6351,199.620863 558.4111,224.979863 591.3251,229.127863 C623.3821,233.166863 633.0011,211.800863 652.8501,220.403863 C682.4521,233.233863 674.5411,284.930863 686.4301,340.333863 C694.0151,375.678863 708.9371,411.463863 741.7371,440.082863 C776.4441,470.366863 828.6361,490.203863 875.7391,495.496863 C901.7241,498.418863 926.1421,496.738863 945.4151,489.466863 C983.9991,474.906863 981.9321,444.581863 1025.4281,428.435863 C1043.0751,421.884863 1075.8861,412.135863 1158.3781,427.758863 C1181.4561,432.128863 1206.4271,437.088863 1232.0401,444.636863 C1272.2101,456.525863 1307.6851,473.054863 1344.5601,496.514863 C1370.3771,512.939863 1394.2841,530.935863 1417.4081,562.240863 C1465.8621,627.659863 1438.4751,666.161863 1469.8041,714.513863 C1474.8151,722.248863 1480.3441,729.431863 1487.0431,735.481863 C1524.4051,769.215863 1587.9231,779.563863 1707.7831,796.243863 C1770.2611,804.869863 1843.2971,819.380863 1929.7661,830.005863" id="Stroke-55" stroke="#D0D8DC" stroke-width="1.184"></path>
                <path d="M6.8945,202.382363 C77.8045,220.194363 122.5325,222.491363 152.4985,219.137363 C171.0935,217.056363 182.1495,212.113363 188.8085,205.542363 C215.0175,179.681363 177.5945,126.221363 204.6545,112.171363 C228.3285,99.8803632 271.3445,140.849363 327.0725,133.073363 C370.8495,126.965363 372.0075,96.1173632 403.9645,96.4968275 C440.9405,97.0423632 471.2235,138.807363 504.6525,176.166363 C529.6235,204.223363 556.4035,229.845363 589.4625,233.290363 C622.0435,236.685363 631.4895,214.174363 651.8165,222.384363 C681.6065,234.416363 673.5835,286.534363 684.6635,342.749363 C691.6885,378.391363 705.8715,414.887363 738.4845,444.207363 C772.8765,475.127363 825.1735,495.571363 872.3925,500.919363 C898.4575,503.873363 922.9515,502.062363 942.2005,494.573363 C980.8035,479.409363 977.6155,448.478363 1021.5825,431.624363 C1038.0415,425.315363 1070.6395,415.290363 1154.8645,431.774363 C1177.9385,436.290363 1203.0145,441.367363 1228.7235,448.731363 C1268.9925,460.304363 1306.1245,476.214363 1343.0255,498.943363 C1369.7895,515.427363 1394.3425,534.082363 1416.6585,564.251363 C1464.9225,629.355363 1435.3415,667.381363 1466.8775,716.674363 C1471.7125,724.231363 1477.1975,731.390363 1483.9175,737.663363 C1519.9255,771.268363 1583.2515,786.866363 1703.6355,803.698363 C1765.5255,812.299363 1838.9405,824.458363 1926.9005,832.484363" id="Stroke-57" stroke="#D0D8DC" stroke-width="1.184"></path>
                <path d="M7.0855,204.860463 C79.6965,224.857463 124.9675,228.708463 154.3735,225.862463 C173.2335,224.037463 184.2455,218.949463 190.7505,212.292463 C216.6165,185.822463 176.6595,130.503463 203.2855,116.120463 C226.8975,103.366463 269.9635,145.860463 325.8475,137.702463 C370.2735,131.217463 370.4965,99.1754632 402.5655,99.3169927 C439.5305,99.5474632 469.4885,142.310463 502.7125,180.270463 C527.6135,208.826463 554.3895,234.703463 587.5995,237.453463 C620.7015,240.194463 629.9775,216.561463 650.7825,224.365463 C680.7675,235.613463 672.6325,288.138463 682.8975,345.164463 C689.3655,381.105463 702.8575,418.257463 735.2325,448.332463 C769.3635,479.830463 821.7125,500.939463 869.0445,506.341463 C895.1915,509.327463 919.7765,507.426463 938.9855,499.681463 C977.6395,483.994463 973.3285,452.436463 1017.7385,434.813463 C1033.0145,428.751463 1065.3985,418.430463 1151.3505,435.790463 C1174.4215,440.449463 1199.6035,445.646463 1225.4085,452.825463 C1265.7755,464.083463 1304.5555,479.359463 1341.4915,501.371463 C1369.2105,517.890463 1394.4015,537.230463 1415.9095,566.261463 C1463.9825,631.049463 1432.2265,668.588463 1463.9525,718.834463 C1468.6125,726.214463 1474.0575,733.343463 1480.7935,739.844463 C1515.4705,773.319463 1578.5825,794.169463 1699.4885,811.153463 C1760.7915,819.728463 1834.5855,829.536463 1924.0355,834.962463" id="Stroke-59" stroke="#D0D8DC" stroke-width="1.184"></path>
                <path d="M7.2769,207.338963 C81.5899,229.519963 127.3969,234.934963 156.2479,232.588963 C175.3719,231.032963 186.3389,225.784963 192.6939,219.041963 C218.2079,191.961963 175.7179,134.781963 201.9169,120.069963 C225.4619,106.847963 268.5689,150.786963 324.6229,142.331963 C369.6879,135.398963 368.9849,102.233963 401.1659,102.132854 C438.1189,102.052963 467.7539,145.812963 500.7719,184.374963 C525.6019,213.428963 552.3699,239.554963 585.7369,241.615963 C619.3539,243.692963 628.4679,218.960963 649.7489,226.346963 C679.9359,236.822963 671.7929,289.727963 681.1299,347.578963 C687.1109,383.809963 699.7739,421.705963 731.9799,452.455963 C765.7759,484.616963 818.2509,506.307963 865.6979,511.764963 C891.9259,514.781963 916.6009,512.791963 935.7719,504.788963 C974.4759,488.578963 969.0779,456.470963 1013.8939,438.001963 C1027.9929,432.190963 1060.1629,421.555963 1147.8369,439.805963 C1170.9059,444.607963 1196.1919,449.924963 1222.0919,456.919963 C1262.5579,467.861963 1302.9769,482.488963 1339.9559,503.798963 C1368.6409,520.328963 1394.4599,540.376963 1415.1589,568.271963 C1463.0419,632.744963 1429.1329,669.783963 1461.0259,720.993963 C1465.5119,728.196963 1470.9269,735.291963 1477.6669,742.025963 C1511.0389,775.370963 1573.9119,801.471963 1695.3419,818.607963 C1756.0559,827.156963 1830.2289,834.613963 1921.1689,837.440963" id="Stroke-61" stroke="#D0D8DC" stroke-width="1.184"></path>
                <path d="M7.4683,209.817463 C135.5463,250.870463 179.3743,242.592463 194.6353,225.791463 C219.7913,198.097463 174.7723,139.057463 200.5483,124.019463 C224.0203,110.324463 267.1973,155.875463 323.3993,146.961463 C369.1193,139.709463 367.4743,105.292463 399.7653,104.946912 C464.5853,104.262463 505.9103,242.572463 583.8733,245.778463 C618.0023,247.182463 626.9613,221.373463 648.7153,228.328463 C698.0553,244.101463 645.2783,374.723463 728.7273,456.580463 C780.6973,507.558463 878.8403,533.088463 932.5563,509.896463 C971.3113,493.163463 964.8763,460.598463 1010.0493,441.190463 C1022.9793,435.634463 1054.9313,424.668463 1144.3233,443.821463 C1232.2123,462.652463 1353.7623,488.696463 1414.4093,570.281463 C1462.1013,634.439463 1426.0603,670.969463 1458.0993,723.153463 C1493.0893,780.142463 1599.0413,839.135463 1918.3033,839.918463" id="Stroke-63" stroke="#D0D8DC" stroke-width="1.184"></path>
                <path d="M7.2276,212.138263 C133.3646,253.427263 177.8946,246.756263 193.9596,230.919263 C220.0906,205.159263 177.1046,147.710263 203.1226,133.498263 C220.2496,124.142263 246.8106,143.691263 280.4676,152.362263 C294.5466,155.989263 309.8216,157.658263 326.1036,154.854263 C371.2216,147.218263 370.2686,113.267263 402.1106,112.061263 C427.7426,111.090263 449.7916,131.150263 472.1206,156.887263 C505.8826,195.802263 538.9406,246.934263 586.9116,249.850263 C620.4856,251.890263 629.8396,226.956263 651.6906,234.073263 C655.7516,235.382263 659.1446,237.494263 662.0266,240.285263 C694.1916,271.427263 659.1006,384.568263 735.4476,456.501263 C761.0426,480.615263 797.0276,498.443263 832.5986,508.042263 C871.4686,518.532263 910.7706,519.063263 938.3396,507.139263 C977.0446,490.390263 971.3786,458.131263 1015.7726,439.393263 C1020.3366,437.466263 1027.1586,434.916263 1037.8536,433.371263 C1058.1236,430.442263 1091.0406,431.257263 1147.2836,444.615263 C1232.3386,464.971263 1349.5616,493.210263 1409.6446,574.809263 C1417.1466,584.975263 1422.6006,594.456263 1426.6046,603.422263 C1447.3346,650.107263 1427.4926,682.723263 1454.7796,725.818263 C1490.7586,782.639263 1597.2206,840.958263 1912.3316,842.356263" id="Stroke-65" stroke="#D0D8DC" stroke-width="1.184"></path>
                <path d="M6.9863,214.458563 C131.1833,255.983563 176.3693,250.944563 193.2833,236.047563 C220.3193,212.234563 179.4583,156.377563 205.6973,142.977563 C223.3453,133.965563 249.9623,153.045563 283.2643,161.052563 C297.4043,164.451563 312.6443,165.707563 328.8093,162.746563 C373.3003,154.599563 373.0693,121.231563 404.4563,119.172563 C430.0093,117.496563 452.0743,136.012563 474.6583,161.115563 C508.6103,198.855563 541.0163,250.006563 589.9493,253.921563 C622.9623,256.562563 632.6973,232.604563 654.6653,239.818563 C658.6543,241.127563 662.0313,243.216563 664.9573,245.966563 C698.2183,277.227563 666.0073,387.534563 742.1683,456.421563 C768.2853,480.043563 804.3873,497.005563 839.1053,506.082563 C877.8353,516.209563 916.7673,516.233563 944.1233,504.381563 C982.7773,487.617563 977.8883,455.674563 1021.4963,437.596563 C1026.1013,435.686563 1032.8933,433.196563 1043.4553,431.848563 C1063.8823,429.241563 1095.8753,431.144563 1150.2433,445.407563 C1232.4653,467.288563 1345.3603,497.723563 1404.8813,579.337563 C1412.2703,589.427563 1417.7163,598.842563 1421.7433,607.771563 C1442.4393,653.668563 1423.8223,686.144563 1451.4593,728.482563 C1488.4413,785.136563 1595.3993,842.780563 1906.3593,844.794563" id="Stroke-67" stroke="#D0D8DC" stroke-width="1.184"></path>
                <path d="M6.7456,216.778863 C129.0016,258.539863 174.7986,255.150863 192.6076,241.175863 C220.4736,219.307863 181.8296,165.059863 208.2726,152.456863 C226.4516,143.792863 253.1206,162.390863 286.0616,169.742863 C300.2646,172.912863 315.4716,173.779863 331.5146,170.639863 C375.3906,162.050863 375.8796,129.181863 406.8006,126.283863 C432.2836,123.894863 454.3526,140.875863 477.1956,165.343863 C511.3316,201.909863 543.0736,253.057863 592.9876,257.992863 C625.4326,261.200863 635.5656,238.218863 657.6406,245.563863 C661.5596,246.866863 664.9196,248.936863 667.8876,251.646863 C702.2546,283.022863 672.9836,390.466863 748.8886,456.341863 C775.5446,479.475863 811.7526,495.558863 845.6126,504.122863 C884.2036,513.883863 922.7646,513.404863 949.9056,501.623863 C988.5106,484.844863 984.4036,453.227863 1027.2196,435.799863 C1031.8676,433.906863 1038.6306,431.480863 1049.0566,430.325863 C1069.6466,428.044863 1100.7486,430.890863 1153.2036,446.200863 C1232.6556,469.391863 1341.1596,502.237863 1400.1166,583.865863 C1407.3946,593.878863 1412.8236,603.232863 1416.8816,612.120863 C1437.4896,657.253863 1420.1646,689.560863 1448.1386,731.146863 C1486.1356,787.632863 1593.5786,844.601863 1900.3866,847.233863" id="Stroke-69" stroke="#D0D8DC" stroke-width="1.184"></path>
                <path d="M6.5049,219.099663 C126.8209,261.096663 173.1789,259.367663 191.9309,246.303663 C220.5489,226.367663 184.2189,173.758663 210.8479,161.936663 C229.5689,153.624663 256.2849,171.726663 288.8589,178.433663 C303.1279,181.370663 318.2979,181.854663 334.2199,178.532663 C377.4789,169.505663 378.6959,137.119663 409.1459,133.394663 C434.5649,130.286663 456.6279,145.738663 479.7339,169.573663 C514.0459,204.966663 545.1149,256.087663 596.0259,262.063663 C627.8999,265.805663 638.4339,243.831663 660.6149,251.307663 C664.4659,252.605663 667.8089,254.657663 670.8179,257.327663 C706.2999,288.813663 680.0289,393.365663 755.6089,456.261663 C782.8229,478.909663 819.1209,494.104663 852.1189,502.163663 C890.5789,511.557663 928.7619,510.576663 955.6889,498.866663 C994.2429,482.071663 990.9249,450.792663 1032.9429,434.001663 C1037.6329,432.127663 1044.3699,429.770663 1054.6579,428.803663 C1075.4139,426.851663 1105.6019,430.733663 1156.1629,446.994663 C1232.8109,471.643663 1336.9589,506.750663 1395.3529,588.393663 C1402.5189,598.330663 1407.9289,607.622663 1412.0199,616.470663 C1432.5349,660.840663 1416.5199,692.972663 1444.8179,733.810663 C1483.8439,790.125663 1591.7579,846.423663 1894.4149,849.671663" id="Stroke-71" stroke="#D0D8DC" stroke-width="1.184"></path>
                <path d="M6.2637,221.419963 C124.6397,263.652963 171.5117,263.584963 191.2547,251.431963 C220.5487,233.400963 186.6237,182.472963 213.4227,171.415963 C232.6967,163.462963 259.4557,181.052963 291.6567,187.123963 C305.9937,189.827963 321.1237,189.930963 336.9247,186.424963 C379.5677,176.964963 381.5187,145.042963 411.4917,140.505963 C436.8527,136.667963 458.8967,150.601963 482.2707,173.801963 C516.7517,208.024963 547.1427,259.094963 599.0637,266.134963 C630.3637,270.378963 641.3027,249.442963 663.5907,257.052963 C667.3717,258.343963 670.6987,260.376963 673.7487,263.008963 C710.3547,294.598963 687.1417,396.223963 762.3287,456.181963 C790.1197,478.343963 826.4937,492.639963 858.6257,500.203963 C896.9567,509.227963 934.7587,507.747963 961.4707,496.108963 C999.9767,479.298963 997.4507,448.367963 1038.6667,432.204963 C1043.3987,430.348963 1050.1117,428.064963 1060.2597,427.279963 C1081.1877,425.664963 1110.4547,430.579963 1159.1237,447.787963 C1232.9687,473.897963 1332.5627,511.402963 1390.5877,592.921963 C1397.6187,602.798963 1403.0347,612.013963 1407.1587,620.819963 C1427.5787,664.427963 1412.8867,696.380963 1441.4977,736.474963 C1481.5637,792.617963 1589.9377,848.245963 1888.4427,852.109963" id="Stroke-73" stroke="#D0D8DC" stroke-width="1.184"></path>
                <path d="M6.023,223.740263 C122.459,266.210263 169.798,267.795263 190.579,256.560263 C220.475,240.397263 189.042,191.204263 215.998,180.895263 C235.834,173.308263 262.632,190.368263 294.454,195.815263 C308.862,198.281263 323.95,198.008263 339.63,194.318263 C381.656,184.429263 384.346,152.950263 413.836,147.617263 C439.147,143.040263 461.162,155.467263 484.809,178.031263 C519.451,211.086263 549.16,262.077263 602.101,270.206263 C632.825,274.923263 644.171,255.052263 666.565,262.798263 C670.277,264.082263 673.59,266.095263 676.679,268.689263 C714.418,300.378263 694.321,399.041263 769.049,456.102263 C797.437,477.778263 833.871,491.167263 865.134,498.244263 C903.341,506.895263 940.755,504.919263 967.254,493.352263 C1005.709,476.526263 1003.982,445.952263 1044.391,430.408263 C1049.165,428.571263 1055.854,426.363263 1065.861,425.758263 C1086.964,424.482263 1115.313,430.428263 1162.084,448.581263 C1233.131,476.156263 1328.329,515.939263 1385.823,597.450263 C1392.739,607.253263 1398.14,616.404263 1402.297,625.170263 C1422.618,668.016263 1409.265,699.784263 1438.178,739.138263 C1479.296,795.105263 1588.117,850.068263 1882.471,854.549263" id="Stroke-75" stroke="#D0D8DC" stroke-width="1.184"></path>
                <path d="M5.7818,226.061063 C120.2768,268.767063 168.0428,271.990063 189.9028,261.688063 C220.3358,247.347063 191.4728,199.952063 218.5728,190.374063 C238.9788,183.163063 265.8128,199.673063 297.2508,204.505063 C311.7328,206.731063 326.7758,206.087063 342.3348,202.211063 C383.7438,191.897063 387.1778,160.844063 416.1808,154.729063 C441.4448,149.403063 463.4218,160.332063 487.3468,182.259063 C522.1428,214.150063 551.1678,265.035063 605.1388,274.277063 C635.2848,279.439063 647.0408,260.661063 669.5408,268.543063 C673.1828,269.820063 676.4818,271.813063 679.6098,274.370063 C718.4888,306.151063 701.5648,401.813063 775.7698,456.023063 C804.7708,477.209063 841.2518,489.684063 871.6408,496.285063 C909.7278,504.560063 946.7518,502.091063 973.0358,490.595063 C1011.4428,473.753063 1010.5198,443.548063 1050.1148,428.611063 C1054.9318,426.793063 1061.5978,424.666063 1071.4638,424.235063 C1092.7428,423.306063 1120.1708,430.279063 1165.0438,449.375063 C1233.2968,478.418063 1324.0968,520.473063 1381.0598,601.978063 C1387.8598,611.708063 1393.2438,620.795063 1397.4358,629.520063 C1417.6558,671.606063 1405.6548,703.182063 1434.8578,741.803063 C1477.0408,797.590063 1586.2958,851.891063 1876.4978,856.987063" id="Stroke-77" stroke="#D0D8DC" stroke-width="1.184"></path>
                <path d="M5.541,228.381463 C118.096,271.323463 166.249,276.161463 189.227,266.817463 C220.141,254.245463 193.915,208.715463 221.148,199.853463 C242.131,193.025463 268.999,208.968463 300.048,213.196463 C314.605,215.178463 329.601,214.167463 345.041,210.104463 C385.832,199.370463 390.011,168.721463 418.526,161.840463 C443.747,155.754463 465.677,165.199463 489.884,186.488463 C524.826,217.217463 553.169,267.965463 608.177,278.348463 C637.745,283.929463 649.91,266.267463 672.515,274.288463 C676.089,275.556463 679.374,277.530463 682.54,280.050463 C722.568,311.917463 708.872,404.537463 782.49,455.943463 C812.124,476.635463 848.637,488.191463 878.147,494.325463 C916.12,502.219463 952.749,499.262463 978.819,487.837463 C1017.175,470.980463 1017.062,441.153463 1055.838,426.814463 C1060.699,425.016463 1067.351,422.249463 1077.065,422.712463 C1098.51,423.736463 1125.031,430.133463 1168.004,450.167463 C1233.467,480.686463 1319.867,525.004463 1376.295,606.506463 C1382.979,616.161463 1388.348,625.185463 1392.573,633.869463 C1412.687,675.197463 1402.055,706.574463 1431.537,744.466463 C1474.799,800.069463 1584.476,853.712463 1870.526,859.425463" id="Stroke-79" stroke="#D0D8DC" stroke-width="1.184"></path>
                <path d="M5.3003,230.702263 C115.9143,273.880263 164.4233,280.302263 188.5503,271.945263 C219.8983,261.087263 196.3653,217.495263 223.7223,209.332263 C245.2903,202.897263 272.1883,218.252263 302.8453,221.887263 C317.4803,223.622263 332.4263,222.248263 347.7453,217.997263 C387.9193,206.848263 392.8463,176.583263 420.8713,168.952263 C446.0513,162.094263 467.9273,170.069263 492.4223,190.717263 C527.5023,220.289263 555.1663,270.869263 611.2153,282.419263 C640.2063,288.394263 652.7803,271.872263 675.4903,280.034263 C678.9953,281.293263 682.2673,283.247263 685.4703,285.731263 C726.6543,317.676263 716.2393,407.213263 789.2103,455.863263 C819.4963,476.056263 856.0253,486.688263 884.6543,492.366263 C922.5163,499.875263 958.7463,496.433263 984.6023,485.080263 C1022.9083,468.207263 1023.6073,438.768263 1061.5613,425.016263 C1066.4673,423.239263 1073.1133,420.513263 1082.6673,421.190263 C1104.2593,422.720263 1129.8943,429.993263 1170.9643,450.961263 C1233.6383,482.959263 1315.6403,529.534263 1371.5313,611.034263 C1378.1003,620.615263 1383.4513,629.577263 1387.7123,638.219263 C1407.7173,678.789263 1398.4663,709.962263 1428.2173,747.131263 C1472.5703,802.542263 1582.6543,855.534263 1864.5533,861.864263" id="Stroke-81" stroke="#D0D8DC" stroke-width="1.184"></path>
                <path d="M5.0591,233.022563 C113.7331,276.436563 162.5711,284.406563 187.8741,277.073563 C219.6211,267.872563 198.8241,226.291563 226.2981,218.812563 C248.4551,212.779563 275.3821,227.524563 305.6421,230.577563 C320.3561,232.061563 335.2521,230.331563 350.4511,225.889563 C390.0071,214.329563 395.6831,184.430563 423.2161,176.063563 C448.3571,168.422563 470.1731,174.940563 494.9601,194.945563 C530.1711,223.364563 557.1621,273.742563 614.2531,286.490563 C642.6691,292.835563 655.6501,277.475563 678.4651,285.778563 C681.9011,287.029563 685.1611,288.962563 688.4011,291.412563 C730.7481,323.428563 723.6651,409.836563 795.9311,455.783563 C826.8871,475.466563 863.4181,485.175563 891.1611,490.406563 C928.9171,497.526563 964.7431,493.605563 990.3851,482.322563 C1028.6411,465.434563 1030.1581,436.393563 1067.2851,423.219563 C1072.2341,421.463563 1078.8781,418.790563 1088.2681,419.667563 C1110.0071,421.697563 1134.7591,429.856563 1173.9251,451.753563 C1233.8141,485.240563 1311.4161,534.061563 1366.7671,615.562563 C1373.2231,625.067563 1378.5541,633.967563 1382.8511,642.568563 C1402.7431,682.382563 1394.8871,713.342563 1424.8961,749.794563 C1470.3531,805.009563 1580.8341,857.356563 1858.5821,864.302563" id="Stroke-83" stroke="#D0D8DC" stroke-width="1.184"></path>
                <path d="M4.8184,235.342863 C111.5514,278.992863 160.7004,288.470863 187.1984,282.201863 C219.3184,274.601863 201.2894,235.102863 228.8734,228.290863 C251.6254,222.672863 278.5794,236.786863 308.4404,239.267863 C323.2354,240.497863 338.0774,238.416863 353.1554,233.782863 C392.0964,221.815863 398.5184,192.261863 425.5614,183.174863 C450.6634,174.738863 472.4144,179.815863 497.4974,199.174863 C532.8324,226.445863 559.1564,276.585863 617.2914,290.561863 C645.1334,297.255863 658.5214,283.076863 681.4404,291.523863 C684.8084,292.764863 688.0554,294.677863 691.3314,297.092863 C734.8484,329.172863 731.1454,412.406863 802.6504,455.703863 C834.2964,474.865863 870.8134,483.651863 897.6684,488.447863 C935.3234,495.172863 970.7394,490.775863 996.1684,479.565863 C1034.3744,462.660863 1036.7144,434.027863 1073.0084,421.422863 C1078.0034,419.687863 1084.6444,417.080863 1093.8704,418.144863 C1115.7534,420.666863 1139.6254,429.723863 1176.8844,452.547863 C1233.9924,487.527863 1307.1934,538.586863 1362.0024,620.090863 C1368.3434,629.520863 1373.6564,638.359863 1377.9894,646.917863 C1397.7654,685.977863 1391.3164,716.718863 1421.5764,752.458863 C1468.1494,807.469863 1579.0134,859.178863 1852.6094,866.740863" id="Stroke-85" stroke="#D0D8DC" stroke-width="1.184"></path>
                <path d="M4.5772,237.663663 C109.3702,281.549663 158.8172,292.493663 186.5222,287.329663 C219.0002,281.276663 203.7602,243.928663 231.4482,237.770663 C254.7992,232.577663 281.7792,246.038663 311.2372,247.958663 C326.1152,248.928663 340.9032,246.502663 355.8612,241.675663 C394.1852,229.307663 401.3512,200.078663 427.9062,190.285663 C452.9692,181.042663 474.6502,184.693663 500.0352,203.403663 C535.4862,229.532663 561.1552,279.396663 620.3282,294.633663 C647.6012,301.655663 661.3932,288.675663 684.4152,297.268663 C687.7142,298.500663 690.9512,300.392663 694.2622,302.773663 C738.9552,334.908663 738.6772,414.920663 809.3712,455.624663 C841.7232,474.251663 878.2142,482.117663 904.1762,486.487663 C941.7322,492.810663 976.7362,487.947663 1001.9502,476.808663 C1040.1062,459.888663 1043.2732,431.671663 1078.7322,419.625663 C1083.7712,417.913663 1090.4112,415.385663 1099.4722,416.622663 C1121.4972,419.628663 1144.4912,429.598663 1179.8452,453.340663 C1234.1712,489.824663 1302.9742,543.110663 1357.2382,624.618663 C1363.4662,633.973663 1368.7582,642.751663 1373.1272,651.266663 C1392.7852,689.574663 1387.7572,720.086663 1418.2562,755.122663 C1465.9582,809.920663 1577.1922,861.000663 1846.6382,869.178663" id="Stroke-87" stroke="#D0D8DC" stroke-width="1.184"></path>
                <path d="M4.3364,239.983963 C107.1894,284.106963 156.9284,296.470963 185.8454,292.457963 C218.6744,287.901963 206.2344,252.768963 234.0234,247.249963 C257.9754,242.492963 284.9824,255.277963 314.0344,256.649963 C328.9954,257.355963 343.7294,254.590963 358.5664,249.567963 C396.2754,236.802963 404.1824,207.880963 430.2514,197.396963 C455.2714,187.334963 476.8814,189.574963 502.5734,207.631963 C538.1334,232.624963 563.1574,282.174963 623.3664,298.704963 C650.0714,306.035963 664.2654,294.272963 687.3904,303.013963 C690.6214,304.234963 693.8454,306.106963 697.1914,308.454963 C743.0674,340.636963 746.2554,417.379963 816.0904,455.544963 C849.1684,473.621963 885.6164,480.570963 910.6824,484.527963 C948.1474,490.442963 982.7334,485.118963 1007.7334,474.050963 C1045.8394,457.114963 1049.8364,429.324963 1084.4564,417.828963 C1089.5414,416.139963 1096.0844,414.579963 1105.0734,415.099963 C1127.4754,416.395963 1149.3574,429.478963 1182.8044,454.133963 C1234.3494,492.129963 1298.7574,547.630963 1352.4734,629.146963 C1358.5884,638.425963 1363.8584,647.143963 1368.2654,655.615963 C1387.8004,693.171963 1384.2054,723.449963 1414.9354,757.787963 C1463.7794,812.363963 1575.3724,862.822963 1840.6654,871.616963" id="Stroke-89" stroke="#D0D8DC" stroke-width="1.184"></path>
                <path d="M4.0957,242.304763 C105.0087,286.662763 156.4107,307.007763 185.1697,297.586763 C216.8387,287.211763 208.7117,261.622763 236.5977,256.728763 C261.1557,252.419763 288.2157,266.883763 316.8317,265.339763 C331.8617,264.529763 346.5557,262.680763 361.2717,257.461763 C398.3667,244.304763 407.0097,215.669763 432.5957,204.508763 C457.5717,193.614763 479.1087,194.461763 505.1107,211.860763 C540.7737,235.723763 565.1667,284.919763 626.4047,302.775763 C652.5457,310.397763 667.1377,299.867763 690.3657,308.759763 C693.5277,309.970763 696.7417,311.820763 700.1227,314.135763 C747.1867,346.357763 753.8787,419.781763 822.8117,455.465763 C856.6307,472.972763 893.0237,479.014763 917.1897,482.568763 C954.5667,488.066763 988.7307,482.289763 1013.5157,471.293763 C1051.5727,454.342763 1056.4037,426.987763 1090.1797,416.031763 C1095.3107,414.367763 1101.8327,412.913763 1110.6747,413.576763 C1133.2697,415.272763 1154.2227,429.364763 1185.7647,454.927763 C1234.5277,494.444763 1294.5447,552.150763 1347.7097,633.674763 C1353.7117,642.877763 1358.9587,651.535763 1363.4047,659.965763 C1382.8127,696.771763 1380.6617,726.805763 1411.6157,760.451763 C1461.6137,814.797763 1573.5507,864.644763 1834.6937,874.055763" id="Stroke-91" stroke="#D0D8DC" stroke-width="1.184"></path>
                <path d="M3.8545,244.625063 C102.8265,289.220063 154.2145,310.958063 184.4935,302.714063 C216.8945,293.893063 211.1905,270.489063 239.1725,266.208063 C264.3355,262.359063 291.4665,276.108063 319.6285,274.031063 C334.7205,272.917063 349.3825,270.772063 363.9765,265.354063 C400.4585,251.810063 409.8305,223.445063 434.9415,211.620063 C459.8655,199.881063 481.3305,199.353063 507.6485,216.090063 C543.4075,238.831063 567.1845,287.627063 629.4425,306.847063 C655.0245,314.744063 670.0115,305.459063 693.3405,314.504063 C696.4355,315.704063 699.6375,317.533063 703.0525,319.816063 C751.3105,352.070063 761.5415,422.125063 829.5325,455.386063 C864.1095,472.301063 900.4325,477.446063 923.6965,480.609063 C960.9895,485.681063 994.7275,479.461063 1019.2985,468.536063 C1057.3055,451.570063 1062.9735,424.659063 1095.9025,414.234063 C1101.0805,412.595063 1107.5825,411.251063 1116.2765,412.054063 C1139.0635,414.159063 1159.0855,429.258063 1188.7245,455.721063 C1234.7025,496.771063 1290.3335,556.668063 1342.9455,638.202063 C1348.8345,647.330063 1354.0585,655.929063 1358.5425,664.315063 C1377.8215,700.373063 1377.1255,730.155063 1408.2945,763.116063 C1459.4585,817.221063 1571.7305,866.467063 1828.7205,876.494063" id="Stroke-93" stroke="#D0D8DC" stroke-width="1.184"></path>
                <path d="M3.6138,246.945363 C100.6458,291.776363 152.0238,314.782363 183.8178,307.842363 C216.9448,300.612363 213.6708,279.368363 241.7478,275.687363 C267.5178,272.309363 294.7168,285.300363 322.4258,282.721363 C337.5778,281.311363 352.2098,278.866363 366.6818,273.247363 C402.5528,259.319363 412.6468,231.209363 437.2868,218.731363 C462.1548,206.136363 483.5488,204.249363 510.1868,220.318363 C546.0358,241.944363 569.2148,290.298363 632.4808,310.918363 C657.5088,319.075363 672.8858,311.049363 696.3158,320.249363 C699.3418,321.438363 702.5338,323.245363 705.9838,325.496363 C755.4398,357.773363 769.2388,424.410363 836.2518,455.305363 C871.6048,471.604363 907.8448,475.865363 930.2028,478.650363 C967.4168,483.284363 1000.7238,476.633363 1025.0818,465.779363 C1063.0378,448.797363 1069.5468,422.340363 1101.6258,412.437363 C1106.8508,410.824363 1113.3308,409.593363 1121.8778,410.531363 C1144.8568,413.054363 1163.9468,429.157363 1191.6858,456.513363 C1234.8728,499.106363 1286.1268,561.182363 1338.1808,642.730363 C1343.9578,651.781363 1349.1568,660.321363 1353.6808,668.665363 C1372.8268,703.976363 1373.5988,733.498363 1404.9748,765.780363 C1457.3168,819.632363 1569.9098,868.289363 1822.7488,878.932363" id="Stroke-95" stroke="#D0D8DC" stroke-width="1.184"></path>
                <path d="M3.3726,249.266163 C98.4646,294.333163 149.8516,318.486163 183.1416,312.971163 C216.9856,307.364163 216.1496,288.259163 244.3226,285.167163 C270.7006,282.272163 297.9646,294.461163 325.2236,291.412163 C340.4366,289.710163 355.0386,286.961163 369.3876,281.140163 C404.6476,266.834163 415.4556,238.962163 439.6316,225.842163 C464.4366,212.380163 485.7626,209.151163 512.7246,224.547163 C548.6586,245.066163 571.2586,292.931163 635.5186,314.989163 C659.9976,323.392163 675.7626,316.637163 699.2896,325.995163 C702.2486,327.171163 705.4316,328.957163 708.9136,331.177163 C759.5736,363.469163 776.9656,426.638163 842.9726,455.226163 C879.1146,470.880163 915.2596,474.274163 936.7106,476.690163 C973.8486,480.875163 1006.7206,473.804163 1030.8646,463.021163 C1068.7716,446.024163 1076.1236,420.029163 1107.3496,410.641163 C1112.6226,409.055163 1119.0806,407.939163 1127.4806,409.009163 C1150.6486,411.960163 1168.8026,429.064163 1194.6456,457.307163 C1235.0376,501.452163 1281.9236,565.694163 1333.4166,647.259163 C1339.0816,656.232163 1344.2546,664.715163 1348.8196,673.015163 C1367.8296,707.581163 1370.0776,736.834163 1401.6546,768.444163 C1455.1856,822.032163 1568.0886,870.111163 1816.7766,881.371163" id="Stroke-97" stroke="#D0D8DC" stroke-width="1.184"></path>
                <path d="M3.1319,251.586463 C96.2829,296.889463 147.7119,322.077463 182.4649,318.099463 C217.0109,314.145463 218.6289,297.160463 246.8979,294.646463 C273.8819,292.246463 301.0099,301.317463 328.0209,300.102463 C343.4089,299.410463 357.8669,295.058463 372.0919,289.032463 C406.7449,274.354463 418.2579,246.705463 441.9769,232.953463 C466.7119,218.612463 487.9729,214.060463 515.2619,228.775463 C551.2759,248.196463 573.3189,295.523463 638.5559,319.060463 C662.4909,327.695463 678.6389,322.221463 702.2649,331.739463 C705.1559,332.904463 708.3279,334.669463 711.8439,336.857463 C763.7119,369.155463 784.7199,428.806463 849.6929,455.146463 C886.6379,470.124463 922.6779,472.669463 943.2179,474.731463 C980.2839,478.451463 1012.7179,470.975463 1036.6479,460.263463 C1074.5039,443.251463 1082.7029,417.727463 1113.0729,408.843463 C1118.3939,407.287463 1124.8279,406.288463 1133.0819,407.486463 C1156.4389,410.876463 1173.6539,428.976463 1197.6059,458.100463 C1235.1949,503.806463 1277.7239,570.204463 1328.6529,651.786463 C1334.2059,660.683463 1339.3529,669.108463 1343.9579,677.364463 C1362.8269,711.187463 1366.5639,740.162463 1398.3339,771.108463 C1453.0669,824.419463 1566.2689,871.933463 1810.8049,883.809463" id="Stroke-99" stroke="#D0D8DC" stroke-width="1.184"></path>
                <path d="M2.8911,253.906763 C94.1011,299.446763 145.7341,319.484763 181.7881,323.227763 C216.9031,326.872763 221.1061,306.071763 249.4731,304.125763 C277.0621,302.232763 304.2141,310.493763 330.8181,308.792763 C346.2911,307.803763 360.6971,303.157763 374.7971,296.925763 C408.8451,281.877763 421.0521,254.438763 444.3211,240.064763 C468.9771,224.834763 490.1801,218.975763 517.7991,233.004763 C553.8891,251.336763 575.3971,298.073763 641.5941,323.131763 C664.9911,331.987763 681.5161,327.802763 705.2401,337.484763 C708.0641,338.636763 711.2251,340.379763 714.7741,342.538763 C767.8541,374.834763 792.4931,430.918763 856.4131,455.066763 C894.1741,469.332763 930.0981,471.052763 949.7241,472.771763 C986.7241,476.011763 1018.7151,468.146763 1042.4301,457.506763 C1080.2371,440.477763 1089.2851,415.434763 1118.7971,407.046763 C1124.1651,405.520763 1130.5751,404.640763 1138.6831,405.963763 C1162.2261,409.803763 1178.4991,428.894763 1200.5651,458.893763 C1235.3411,506.169763 1273.5271,574.712763 1323.8881,656.314763 C1329.3311,665.134763 1334.4481,673.502763 1339.0971,681.713763 C1357.8221,714.795763 1363.0551,743.483763 1395.0141,773.772763 C1450.9591,826.793763 1564.4471,873.754763 1804.8321,886.247763" id="Stroke-101" stroke="#D0D8DC" stroke-width="1.184"></path>
                <path d="M2.6499,256.227563 C91.9209,302.002563 143.9219,323.203563 181.1119,328.355563 C216.6689,333.282563 223.5819,314.992563 252.0479,313.604563 C280.2409,312.230563 307.4179,319.660563 333.6149,317.483563 C349.1719,316.191563 363.5269,311.259563 377.5029,304.818563 C410.9459,289.406563 423.8379,262.164563 446.6669,247.176563 C471.2329,231.046563 492.3839,223.898563 520.3369,237.233563 C556.4989,254.484563 577.4969,300.583563 644.6319,327.202563 C667.4969,336.268563 684.3959,333.380563 708.2149,343.229563 C710.9719,344.369563 714.1229,346.089563 717.7049,348.219563 C772.0019,380.503563 800.2819,432.972563 863.1329,454.987563 C901.7219,468.503563 937.5189,469.423563 956.2319,470.812563 C993.1649,473.552563 1024.7109,465.317563 1048.2129,454.749563 C1085.9699,437.705563 1095.8699,413.150563 1124.5209,405.249563 C1129.9379,403.755563 1136.3209,402.997563 1144.2849,404.441563 C1168.0119,408.742563 1183.3369,428.816563 1203.5249,459.687563 C1235.4759,508.540563 1269.3349,579.217563 1319.1239,660.842563 C1324.4559,669.584563 1329.5439,677.897563 1334.2339,686.063563 C1352.8139,718.406563 1359.5519,746.796563 1391.6929,776.436563 C1448.8619,829.154563 1562.6269,875.577563 1798.8599,888.686563" id="Stroke-103" stroke="#D0D8DC" stroke-width="1.184"></path>
                <path d="M2.4092,258.547963 C89.7392,304.559963 142.1302,326.896963 180.4362,333.483963 C216.4562,339.677963 226.0742,321.731963 254.6232,323.083963 C283.3982,324.446963 310.6182,328.817963 336.4122,326.173963 C352.0522,324.571963 366.3592,319.361963 380.2082,312.711963 C413.0512,296.939963 426.6152,269.883963 449.0122,254.286963 C473.4782,237.248963 494.5862,228.828963 522.8752,241.462963 C559.1062,257.642963 579.6202,303.047963 647.6702,331.273963 C670.0102,340.539963 687.2762,338.955963 711.1902,348.974963 C713.8792,350.101963 717.0212,351.799963 720.6352,353.900963 C776.1512,386.164963 808.0812,434.970963 869.8532,454.907963 C909.2782,467.631963 944.9682,470.293963 962.7382,468.852963 C999.5552,465.867963 1030.7082,462.488963 1053.9962,451.991963 C1091.7032,434.931963 1102.4562,410.873963 1130.2442,403.451963 C1135.7102,401.992963 1142.0662,401.356963 1149.8872,402.918963 C1173.7932,407.692963 1188.1662,428.741963 1206.4862,460.480963 C1235.5972,510.915963 1265.1462,583.720963 1314.3592,665.370963 C1319.5822,674.034963 1324.6382,682.292963 1329.3732,690.412963 C1347.8022,722.018963 1356.0542,750.104963 1388.3732,779.100963 C1446.7762,831.499963 1560.8062,877.399963 1792.8882,891.124963" id="Stroke-105" stroke="#D0D8DC" stroke-width="1.184"></path>
                <path d="M2.168,260.868763 C87.558,307.116763 140.357,330.570763 179.76,338.612763 C216.265,346.062763 228.574,330.836763 257.198,332.563763 C286.541,334.333763 313.816,337.965763 339.21,334.865763 C354.93,332.945763 369.192,327.467763 382.913,320.604763 C415.158,304.476763 429.383,277.597763 451.356,261.398763 C475.713,243.443763 496.786,233.767763 525.413,245.691763 C561.711,260.809763 581.771,305.468763 650.708,335.345763 C672.529,344.802763 690.159,344.527763 714.165,354.720763 C716.787,355.833763 719.919,357.508763 723.566,359.580763 C780.306,391.817763 815.885,436.914763 876.573,454.827763 C916.843,466.713763 952.425,468.499763 969.246,466.892763 C1005.927,463.389763 1036.705,459.660763 1059.778,449.234763 C1097.436,432.159763 1109.044,408.606763 1135.968,401.655763 C1141.482,400.231763 1147.811,399.719763 1155.488,401.395763 C1179.57,406.655763 1192.987,428.668763 1209.446,461.273763 C1235.706,513.294763 1260.963,588.222763 1309.596,669.898763 C1314.708,678.485763 1319.732,686.689763 1324.512,694.762763 C1342.786,725.633763 1352.561,753.403763 1385.053,781.764763 C1444.701,833.829763 1558.985,879.221763 1786.916,893.563763" id="Stroke-107" stroke="#D0D8DC" stroke-width="1.184"></path>
                <path d="M1.9273,263.189063 C85.3763,309.673063 138.6043,334.226063 179.0843,343.741063 C216.0943,352.439063 231.0633,339.963063 259.7733,342.043063 C289.6863,344.210063 317.0113,347.105063 342.0073,343.556063 C357.8063,341.313063 372.0263,335.574063 385.6183,328.497063 C417.2673,312.019063 432.1423,285.306063 453.7013,268.510063 C477.9363,249.630063 498.9843,238.714063 527.9503,249.920063 C564.3153,263.988063 583.9493,307.842063 653.7453,339.416063 C675.0563,349.057063 693.0433,350.095063 717.1403,360.465063 C719.6953,361.565063 722.8173,363.218063 726.4963,365.262063 C784.4623,397.462063 823.6863,438.805063 883.2943,454.748063 C924.4123,465.746063 959.8773,466.669063 975.7533,464.934063 C1012.3023,460.940063 1042.7023,456.832063 1065.5613,446.477063 C1103.1693,429.386063 1115.6343,406.347063 1141.6913,399.858063 C1147.2573,398.473063 1153.5523,398.085063 1161.0903,399.874063 C1185.3433,405.629063 1197.8003,428.597063 1212.4063,462.067063 C1235.8003,515.673063 1256.7833,592.720063 1304.8313,674.427063 C1309.8353,682.936063 1314.8253,691.086063 1319.6503,699.112063 C1337.7673,729.251063 1349.0713,756.695063 1381.7323,784.429063 C1442.6363,836.145063 1557.1653,881.044063 1780.9433,896.002063" id="Stroke-109" stroke="#D0D8DC" stroke-width="1.184"></path>
                <path d="M1.6865,265.509363 C83.1955,312.229363 136.8715,337.867363 178.4075,348.868363 C215.9445,358.810363 233.5415,349.110363 262.3485,351.522363 C292.8345,354.074363 320.2015,356.235363 344.8045,352.246363 C360.6795,349.673363 374.8625,343.683363 388.3235,336.390363 C419.3815,319.564363 434.8915,293.011363 456.0465,275.621363 C480.1475,255.809363 501.1815,243.670363 530.4885,254.149363 C566.9175,267.175363 586.1615,310.168363 656.7835,343.487363 C677.5905,353.303363 695.9295,355.658363 720.1155,366.210363 C722.6035,367.296363 725.7145,368.926363 729.4265,370.942363 C788.6225,403.097363 831.4815,440.643363 890.0145,454.668363 C931.9835,464.725363 967.3225,464.798363 982.2595,462.974363 C1018.6815,458.528363 1048.6995,454.003363 1071.3435,443.719363 C1108.9015,426.613363 1122.2245,404.095363 1147.4155,398.061363 C1153.0305,396.716363 1159.2935,396.452363 1166.6915,398.350363 C1191.1095,404.616363 1202.6035,428.523363 1215.3665,462.860363 C1235.8795,518.051363 1252.6085,597.216363 1300.0665,678.955363 C1304.9605,687.385363 1309.9155,695.483363 1314.7885,703.462363 C1332.7465,732.870363 1345.5855,759.979363 1378.4125,787.092363 C1440.5815,838.441363 1555.3435,882.865363 1774.9715,898.440363" id="Stroke-111" stroke="#D0D8DC" stroke-width="1.184"></path>
                <path d="M1.4453,267.830163 C81.0143,314.786163 135.1563,341.497163 177.7313,353.997163 C215.8133,365.178163 235.9083,359.715163 264.9233,361.001163 C296.0943,362.382163 323.3873,365.358163 347.6013,360.937163 C363.5493,358.025163 377.6993,351.794163 391.0283,344.283163 C421.4983,327.113163 437.6313,300.714163 458.3913,282.732163 C482.3473,261.984163 503.3793,248.634163 533.0263,258.377163 C569.5213,270.372163 588.4073,312.446163 659.8213,347.559163 C680.1323,357.545163 698.8173,361.218163 723.0903,371.955163 C725.5123,373.027163 728.6133,374.634163 732.3573,376.623163 C792.7853,408.725163 839.2623,442.431163 896.7343,454.589163 C939.5553,463.647163 974.7593,462.889163 988.7663,461.015163 C1025.0703,456.158163 1054.6953,451.175163 1077.1273,440.962163 C1114.6343,423.840163 1128.8163,401.851163 1153.1383,396.264163 C1158.8043,394.962163 1165.0333,394.823163 1172.2933,396.828163 C1196.8693,403.617163 1207.3993,428.446163 1218.3263,463.653163 C1235.9473,520.425163 1248.4383,601.710163 1295.3023,683.483163 C1300.0893,691.834163 1305.0073,699.881163 1309.9263,707.811163 C1327.7203,736.491163 1342.1023,763.257163 1375.0913,789.758163 C1438.5353,840.722163 1553.5233,884.687163 1768.9993,900.879163" id="Stroke-113" stroke="#D0D8DC" stroke-width="1.184"></path>
                <path d="M1.2046,270.150463 C78.8326,317.342463 133.4596,345.115463 177.0556,359.125463 C215.7006,371.544463 238.3616,368.679463 267.4976,370.480463 C299.2546,372.443463 326.5686,374.472463 350.3986,369.628463 C366.4166,366.370463 380.5386,359.906463 393.7336,352.175463 C423.6186,334.666463 440.3626,308.414463 460.7366,289.843463 C484.5356,268.152463 505.5776,253.608463 535.5636,262.606463 C572.1266,273.578463 590.6916,314.673463 662.8596,351.629463 C682.6826,361.780463 701.7076,366.773463 726.0646,377.700463 C728.4206,378.757463 731.5116,380.341463 735.2876,382.303463 C796.9506,414.343463 847.0236,444.172463 903.4546,454.509463 C947.1226,462.508463 982.1856,460.941463 995.2736,459.055463 C1031.4686,453.839463 1060.6926,448.346463 1082.9096,438.205463 C1120.3676,421.067463 1135.4086,399.615463 1158.8626,394.466463 C1164.5796,393.212463 1170.7706,393.195463 1177.8956,395.305463 C1202.6216,402.629463 1212.1876,428.366463 1221.2866,464.446463 C1236.0006,522.793463 1244.2736,606.201463 1290.5376,688.010463 C1295.2166,696.283463 1300.0956,704.280463 1305.0656,712.161463 C1322.6926,740.116463 1338.6226,766.526463 1371.7716,792.421463 C1436.4966,842.984463 1551.7036,886.509463 1763.0276,903.316463" id="Stroke-115" stroke="#D0D8DC" stroke-width="1.184"></path>
                <path d="M0.9634,272.471263 C76.6514,319.899263 131.7804,348.728263 176.3794,364.253263 C215.6054,377.909263 240.8094,377.649263 270.0734,379.960263 C302.4094,382.513263 329.7444,383.581263 353.1954,378.318263 C369.2804,374.709263 383.3804,368.021263 396.4394,360.069263 C425.7434,342.222263 443.0834,316.114263 463.0824,296.955263 C486.7114,274.317263 507.7754,258.590263 538.1014,266.835263 C574.7334,276.795263 593.0164,316.851263 665.8974,355.700263 C685.2414,366.012263 704.6014,372.323263 729.0404,383.445263 C731.3294,384.487263 734.4094,386.049263 738.2174,387.985263 C801.1184,419.953263 854.7594,445.867263 910.1744,454.430263 C954.6834,461.306263 989.5994,458.956263 1001.7814,457.096263 C1037.8804,451.582263 1066.6894,445.517263 1088.6924,435.448263 C1126.1004,418.294263 1142.0004,397.388263 1164.5864,392.670263 C1170.3554,391.465263 1176.5054,391.570263 1183.4974,393.783263 C1208.3674,401.655263 1216.9684,428.281263 1224.2474,465.240263 C1236.0444,525.153263 1240.1144,610.689263 1285.7744,692.539263 C1290.3444,700.732263 1295.1844,708.681263 1300.2044,716.511263 C1317.6614,743.743263 1335.1454,769.789263 1368.4514,795.086263 C1434.4684,845.227263 1549.8814,888.332263 1757.0544,905.755263" id="Stroke-117" stroke="#D0D8DC" stroke-width="1.184"></path>
                <path d="M0.7227,274.791563 C74.4707,322.456563 130.1157,352.334563 175.7027,369.381563 C215.5267,384.273563 243.2527,386.622563 272.6487,389.438563 C305.5607,392.592563 332.9127,392.682563 355.9937,387.008563 C372.1397,383.039563 386.2237,376.138563 399.1437,367.961563 C427.8717,349.782563 445.7967,323.813563 465.4267,304.066563 C488.8747,280.479563 509.9757,263.581563 540.6397,271.063563 C577.3437,280.020563 595.3857,318.978563 668.9357,359.771563 C687.8087,370.239563 707.4967,377.867563 732.0147,389.190563 C734.2387,390.217563 737.3077,391.755563 741.1487,393.665563 C805.2877,425.555563 862.4637,447.519563 916.8957,454.350563 C962.2337,460.039563 996.8817,455.924563 1008.2877,455.136563 C1044.6777,452.621563 1072.6867,442.688563 1094.4757,432.690563 C1131.8327,415.521563 1148.5917,395.167563 1170.3097,390.873563 C1176.1307,389.721563 1182.2387,389.946563 1189.0987,392.260563 C1214.1047,400.694563 1221.7447,428.190563 1227.2067,466.033563 C1236.0777,527.505563 1235.9607,615.175563 1281.0097,697.067563 C1285.4737,705.181563 1290.2707,713.081563 1295.3417,720.859563 C1312.6267,747.372563 1331.6697,773.043563 1365.1307,797.749563 C1432.4487,847.453563 1548.0617,890.154563 1751.0827,908.193563" id="Stroke-119" stroke="#D0D8DC" stroke-width="1.184"></path>
                <path d="M0.4819,277.111863 C72.2889,325.012863 128.4659,355.936863 175.0269,374.509863 C215.4619,390.639863 245.6909,395.600863 275.2229,398.918863 C308.7069,402.678863 336.0759,401.778863 358.7909,395.699863 C374.9929,391.362863 389.0689,384.256863 401.8499,375.854863 C430.0049,357.344863 448.4999,331.513863 467.7719,311.177863 C491.0269,286.638863 512.1789,268.581863 543.1769,275.292863 C579.9569,283.254863 597.8019,321.053863 671.9729,363.842863 C690.3849,374.464863 710.3959,383.405863 734.9899,394.935863 C737.1479,395.946863 740.2069,397.462863 744.0789,399.345863 C809.4599,431.149863 870.1299,449.133863 923.6149,454.269863 C969.7679,458.702863 1004.2849,454.178863 1014.7949,453.176863 C1051.0729,449.716863 1078.6839,439.860863 1100.2579,429.932863 C1137.5649,412.748863 1155.1819,392.954863 1176.0329,389.075863 C1181.9069,387.982863 1187.9689,388.324863 1194.6999,390.737863 C1219.8309,399.746863 1226.5179,428.093863 1230.1669,466.826863 C1236.1059,529.847863 1231.9379,619.591863 1276.2449,701.595863 C1280.6149,709.623863 1285.3569,717.483863 1290.4809,725.208863 C1307.5889,751.004863 1328.1949,776.291863 1361.8109,800.413863 C1430.4349,849.658863 1546.2399,891.975863 1745.1099,910.631863" id="Stroke-121" stroke="#D0D8DC" stroke-width="1.184"></path>
                <path d="M0.2407,279.432663 C70.1077,327.569663 126.8307,359.536663 174.3507,379.638663 C215.4117,397.007663 248.1237,404.582663 277.7987,408.397663 C311.8467,412.774663 339.2307,410.869663 361.5877,404.390663 C377.8427,399.679663 391.9167,392.376663 404.5547,383.747663 C432.1427,364.910663 451.1957,339.215663 470.1167,318.288663 C493.1677,292.795663 514.3847,273.591663 545.7147,279.521663 C582.5747,286.498663 600.2677,323.077663 675.0117,367.914663 C692.9697,378.687663 713.2987,388.937663 737.9647,400.680663 C740.0567,401.676663 743.1087,403.161663 747.0097,405.026663 C813.6917,436.613663 877.7517,450.710663 930.3357,454.190663 C977.2817,457.297663 1011.6777,452.422663 1021.3017,451.217663 C1057.4377,446.693663 1084.6797,437.031663 1106.0407,427.175663 C1143.2987,409.975663 1161.7707,390.749663 1181.7567,387.278663 C1187.6847,386.249663 1193.6967,386.703663 1200.3017,389.215663 C1225.5487,398.811663 1231.2187,427.994663 1233.1267,467.620663 C1236.0167,532.185663 1227.7367,624.105663 1271.4817,706.122663 C1275.7397,714.075663 1280.4247,721.896663 1285.6187,729.558663 C1302.4997,754.673663 1324.7227,779.532663 1358.4907,803.078663 C1428.4287,851.844663 1544.4197,893.797663 1739.1387,913.070663" id="Stroke-123" stroke="#D0D8DC" stroke-width="1.184"></path>
                <path d="M4.54747351e-13,281.752963 C194.196,420.046963 301.378,432.761963 364.385,413.080963 C459.288,383.435963 478.927,272.492963 548.252,283.750963 C593.797,291.146963 609.927,343.065963 740.94,406.425963 C742.966,407.405963 746.003,408.874963 749.939,410.707963 C880.405,471.462963 1009.566,452.167963 1027.809,449.257963 C1146.778,430.278963 1166.914,372.007963 1205.903,387.691963 C1276.561,416.115963 1187.559,598.290963 1280.758,733.907963 C1332.688,809.476963 1451.886,886.151963 1733.166,915.508963" id="Stroke-125" stroke="#D0D8DC" stroke-width="1.184"></path>
            </g>
        </g>
    </g>
</svg>