<svg width="137" height="151" viewBox="0 0 137 151" fill="none" xmlns="http://www.w3.org/2000/svg"><path fill-rule="evenodd" clip-rule="evenodd" d="M108.765 122.156 93.3896 75.4977 133.638 46.6695H83.8868L68.5102.0134943 68.5056 899614e-9H118.265L133.645 46.665 133.646 46.6641 133.658 46.6569C142.59 73.7282 133.391 104.519 108.765 122.156zm-80.5137.0L28.2386 122.165 68.4974 151 108.765 122.156 68.5102 93.3201 28.2513 122.156zM3.36821 46.6578C-6.03424 75.1946 4.88024 105.433 28.2431 122.161L28.2468 122.147 43.6243 75.4914 3.38464 46.6686H53.1244L68.5019.0125946 68.5056.0H18.7439L3.36821 46.6578z" fill="#eb5424"/></svg>