<svg height="104" viewBox="0 0 104 104" width="104" xmlns="http://www.w3.org/2000/svg" xmlns:xlink="http://www.w3.org/1999/xlink"><defs><linearGradient id="a" x1="16.363995%" x2="78.761878%" y1="10.415297%" y2="87.610597%"><stop offset="0" stop-color="#2a3874"/><stop offset="1" stop-color="#1d2958"/></linearGradient><filter id="b" height="131.8%" width="131.8%" x="-15.9%" y="-15.9%"><feOffset dx="0" dy="1" in="SourceAlpha" result="shadowOffsetOuter1"/><feGaussianBlur in="shadowOffsetOuter1" result="shadowBlurOuter1" stdDeviation="2"/><feColorMatrix in="shadowBlurOuter1" result="shadowMatrixOuter1" type="matrix" values="0 0 0 0 0   0 0 0 0 0   0 0 0 0 0  0 0 0 0.24 0"/><feMerge><feMergeNode in="shadowMatrixOuter1"/><feMergeNode in="SourceGraphic"/></feMerge></filter><path id="c" d="m25.8633257.62934374c4.2657706-.83912501 8.662199-.83912501 12.9279696 0 .5650031.06346324 1.0346618.54648896 1.1335372 1.06477201l1.6314452 8.24316893c2.4648246.93784552 4.767211 2.22473892 6.7976902 3.83599992l8.231384-2.7712279c.5332214-.2256471 1.0982245-.0634633 1.4972578.3878309 2.8320762 3.1238013 5.1309316 6.896338 6.4657506 10.8592644.2330635.5147573.0670937 1.1247095-.3990333 1.4490771l-6.532845 5.4754668c.2330635 1.2234301.3001579 2.5455808.3001579 3.8324742 0 1.2939448-.0670944 2.6125697-.3001579 3.8359997l6.532845 5.4789927c.466127.3208422.6320968.9343196.3990333 1.4490771-1.331288 3.9629263-3.6301428 7.7319371-6.4622196 10.8557386-.4025643.4512939-.9675674.6134781-1.5007888.3878308l-8.231384-2.7712275c-2.0304792 1.6112607-4.329334 2.9016799-6.7941585 3.8324739l-1.6349769 8.2502202c-.0988754.5182832-.5685341.9977833-1.1335372 1.0647719-2.132885.3843052-4.2657706.6099525-6.462219.6099525-2.19998 0-4.332865-.2256473-6.4657506-.6099525-.5650031-.0669886-1.0346618-.5464887-1.1335372-1.0647719l-1.6314452-8.2502202c-2.4648246-.930794-4.8343054-2.2212132-6.7976902-3.8324739l-8.231384 2.7712275c-.53322141.2256473-1.09822451.0634631-1.50078881-.3878308-2.83207617-3.1238015-5.1309316-6.8928123-6.46221962-10.8557386-.23306351-.5147575-.06709371-1.1282349.39903331-1.4490771l6.52931333-5.4789927c-.23306351-1.22343-.30015723-2.5420549-.30015723-3.8359997 0-1.2868934.06709372-2.6090441.30015723-3.8324742l-6.52931333-5.4754668c-.46612702-.3243676-.63562782-.9343198-.39903331-1.4490771 1.33128802-3.9629264 3.63014345-7.7354631 6.46221962-10.8592644.4025643-.4512942.9675674-.6099522 1.50078881-.3878309l8.231384 2.7712279c1.9633848-1.611261 4.3293339-2.8981544 6.7976902-3.83599992l1.6314452-8.24316893c.0988754-.51828305.5685341-1.00130877 1.1335372-1.06477201zm6.4614397 13.05954516c-10.8506889 0-19.6428189 8.6471288-19.6428189 19.3111111s8.79213 19.3111111 19.6428189 19.3111111c10.8506883 0 19.6463494-8.6471288 19.6463494-19.3111111s-8.7956611-19.3111111-19.6463494-19.3111111zm12.4350459 10.8777778v5.751634l-9.4730716-.0002054.0000956 13.804127h-5.9206094l-.000629-13.804127-9.472347.0002054v-5.751634z"/><linearGradient id="d" x1="0%" x2="100%" y1="1.443915%" y2="93.608097%"><stop offset="0" stop-color="#651fff"/><stop offset="1" stop-color="#512fc9"/></linearGradient><mask id="e" fill="#fff"><use fill="#fff" fill-rule="evenodd" xlink:href="#c"/></mask></defs><g fill="none" fill-rule="evenodd"><circle cx="52" cy="52" fill="url(#a)" r="51" stroke="#651fff" stroke-width="2"/><g filter="url(#b)" transform="translate(19 19)"><use fill="#512fc9" fill-rule="nonzero" xlink:href="#c"/><g fill="url(#d)" mask="url(#e)"><path d="m0 0h194v194h-194z"/></g></g></g></svg>