<?xml version="1.0" encoding="UTF-8"?>
<svg width="510px" height="300px" viewBox="0 0 510 300" version="1.1" xmlns="http://www.w3.org/2000/svg" xmlns:xlink="http://www.w3.org/1999/xlink">
    <title>banner</title>
    <g id="Newsletter" stroke="none" stroke-width="1" fill="none" fill-rule="evenodd">
        <g id="newsletter-copy" transform="translate(-232.000000, -340.000000)">
            <g id="text_left" transform="translate(232.000000, 340.000000)">
                <g id="banner" transform="translate(0.000000, -0.000000)">
                    <rect id="Rectangle" x="0" y="0" width="510" height="300"></rect>
                    <g id="Group" transform="translate(46.000000, 45.000000)">
                        <g id="confetti" fill-rule="nonzero">
                            <path d="M245.906628,0.0906175859 C246.466786,-0.0670288571 247.0647,-0.0178409832 247.591804,0.229249903 L257.656814,4.9797173 C258.862143,5.55139901 259.377497,6.99550988 258.807891,8.20522922 C258.238284,9.41494855 256.799414,9.93218023 255.594086,9.36049852 L249.369066,6.43997771 L250.041294,13.279172 C250.128681,14.148522 249.742633,14.9976977 249.031124,15.5012062 C248.319614,16.0047147 247.39301,16.0844536 246.606483,15.7098586 L240.427505,12.8078221 L241.108942,19.6562586 C241.17595,20.5173526 240.782633,21.3494585 240.075752,21.8420829 C239.368872,22.3347074 238.454616,22.413849 237.674131,22.0499766 L231.467528,19.1202137 L232.139756,25.9778923 C232.221105,26.8453321 231.833638,27.6901225 231.124155,28.1921966 C230.414673,28.6942706 229.491708,28.7768237 228.704945,28.4085789 L218.649143,23.6673537 C217.441272,23.098224 216.921794,21.6541132 217.488858,20.4418418 C218.055922,19.2295704 219.494791,18.7082009 220.702663,19.2773303 L226.909266,22.2070932 L226.237038,15.3494146 C226.155689,14.4819748 226.543156,13.6371844 227.252639,13.1351103 C227.962121,12.6330363 228.885086,12.5504832 229.671849,12.918728 L235.878452,15.848491 L235.197015,9.0000545 C235.115666,8.13261469 235.503133,7.28782423 236.212616,6.7857502 C236.922098,6.28367616 237.845064,6.20112305 238.631826,6.56936787 L244.83843,9.49913084 L244.156992,2.65069438 C244.075594,1.78279936 244.461731,0.93725087 245.169939,0.432577301 C245.395898,0.280134324 245.644563,0.164707661 245.906628,0.0906175859 Z" id="Path" fill="#00C8F7"></path>
                            <path d="M31.928467,31.8414589 C32.2148743,32.3611565 32.3015697,32.9674125 32.1722808,33.5464354 L29.7997846,44.5913102 C29.5149382,45.9183912 28.2071273,46.763522 26.8787072,46.4789627 C25.5502871,46.1944034 24.7043035,44.8879109 24.9891499,43.56083 L26.452033,36.7409242 L19.8878142,38.9798768 C19.0491418,39.260922 18.1241436,39.0753952 17.4590532,38.4927407 C16.7972037,37.9047172 16.5034101,37.0063288 16.6901018,36.1413721 L18.1529849,29.3214663 L11.5887661,31.5604189 C10.7568055,31.8363727 9.84074263,31.6504124 9.18257557,31.0719635 C8.52440851,30.4935146 8.22306756,29.6095248 8.39105377,28.7500182 L9.85393682,21.9207444 L3.23345327,24.159697 C2.40267904,24.4313211 1.4900477,24.2433337 0.834587138,23.6655691 C0.179126576,23.0878046 -0.121221111,22.2065953 0.0451184182,21.3492963 L2.41761465,10.2950534 C2.70246106,8.96797247 4.01027194,8.12284166 5.33869202,8.40740093 C6.6671121,8.6919602 7.5130957,9.99845273 7.22824929,11.3255337 L5.76536624,18.1548074 L12.3858498,15.9158549 C13.216624,15.6442308 14.1292554,15.8322181 14.7847159,16.4099827 C15.4401765,16.9877472 15.7405242,17.8689566 15.5741846,18.7262556 L14.0081496,25.5180573 L20.6192557,23.2791047 C21.4516872,22.9969149 22.3716077,23.1805165 23.0316014,23.7605708 C23.6915951,24.3406251 23.9910857,25.2287378 23.816968,26.0895055 L22.3728398,32.9000432 L28.9839459,30.6610906 C29.8209947,30.3781404 30.7457233,30.5679125 31.4033295,31.1575948 C31.6198685,31.3505289 31.7980298,31.5825407 31.928467,31.8414589 Z" id="Path" fill="#00C8F7"></path>
                            <path d="M418.722957,142.310745 C418.990986,142.810398 419.067768,143.389163 418.939164,143.940459 L416.485683,154.482377 C416.295933,155.300841 415.679841,155.956847 414.869484,156.203283 C414.059126,156.449719 413.177615,156.249146 412.557007,155.677118 C411.9364,155.10509 411.67098,154.248512 411.86073,153.430048 L413.37418,146.911194 L406.963169,148.959976 C406.148361,149.220178 405.255295,149.028307 404.622492,148.457093 C403.990595,147.885267 403.720802,147.019291 403.917468,146.19412 L405.430918,139.675266 L399.019907,141.724048 C398.200239,141.993851 397.297309,141.800305 396.66354,141.218954 C396.029771,140.637603 395.765627,139.760602 395.974206,138.930254 L397.487656,132.4114 L391.067244,134.45087 C390.255655,134.715554 389.362999,134.522998 388.735967,133.947987 C388.105844,133.374899 387.833318,132.511658 388.021544,131.685013 L390.475025,121.143094 C390.768353,119.877859 392.041473,119.087755 393.318619,119.378347 C394.595764,119.66894 395.393305,120.930188 395.099977,122.195424 L393.586527,128.714278 L400.006939,126.674808 C400.826607,126.405005 401.729537,126.598551 402.363306,127.179902 C402.997075,127.761253 403.261219,128.638254 403.05264,129.468602 L401.53919,135.987457 L407.950201,133.938674 C408.766484,133.67687 409.661857,133.872799 410.290879,134.45087 C410.921171,135.019758 411.190982,135.88223 410.995902,136.704531 L409.482452,143.223385 L415.893464,141.174602 C416.708271,140.9144 417.601337,141.106271 418.234141,141.677485 C418.431022,141.860596 418.596164,142.074537 418.722957,142.310745 L418.722957,142.310745 Z" id="Path" fill="#FFF675"></path>
                            <path d="M412.932372,20.7999597 C413.072667,21.0425494 413.063122,21.3496463 412.908065,21.5820532 C412.753008,21.8144602 412.481921,21.9279854 412.21768,21.8711716 C409.826381,21.1614211 407.269229,21.4231742 405.052438,22.604614 C404.801432,22.7267326 404.505166,22.6760948 404.303707,22.4766406 C404.102248,22.2771864 404.035954,21.9688731 404.136166,21.6974616 C404.556902,20.321964 404.706562,18.8704722 404.575977,17.431915 C404.45772,16.1360193 404.116171,14.8736816 403.568078,13.7067997 C403.434166,13.4572914 403.457121,13.1472076 403.626133,12.9225757 C403.795145,12.6979438 404.076518,12.6035475 404.337746,12.6838406 C405.378696,13.0796849 406.486246,13.2439834 407.590509,13.1663685 C408.825302,13.072417 410.021506,12.6722934 411.081503,11.998651 C411.325009,11.8782037 411.61333,11.9231296 411.813293,12.1126777 C412.013255,12.3022257 412.08594,12.5995041 411.997775,12.8672012 C411.303557,15.5356841 411.632623,18.3846189 412.914046,20.7999597 L412.932372,20.7999597 Z" id="Path" fill="#FFA600"></path>
                            <path d="M387.827634,61.6176724 C389.523975,61.6138982 391.055391,62.6323656 391.707178,64.197773 C392.358965,65.7631804 392.002631,67.5669234 390.804474,68.7672066 C389.606318,69.9674898 387.802543,70.3276894 386.234961,69.6797026 C384.667378,69.0317158 383.645017,67.5032866 383.645017,65.8077233 C383.650137,63.4993978 385.51826,61.6279593 387.827634,61.6176724 M387.837052,58.4750957 C383.785457,58.4750957 380.500991,61.7580479 380.500991,65.8077746 C380.500991,69.8575012 383.785457,73.1404534 387.837052,73.1404534 C391.888646,73.1404534 395.173113,69.8575012 395.173113,65.8077746 C395.173113,61.7580479 391.888646,58.4750957 387.837052,58.4750957 L387.837052,58.4750957 Z" id="Shape" fill="#00EAB3"></path>
                            <ellipse id="Oval" fill="#7808FF" cx="18.502849" cy="143.778409" rx="5.37179487" ry="5.36931818"></ellipse>
                            <ellipse id="Oval" fill="#7808FF" cx="380.203704" cy="197.471591" rx="5.37179487" ry="5.36931818"></ellipse>
                            <path d="M16.1697857,86.6334285 C16.0181292,86.9389695 15.6975811,87.1231999 15.3573391,87.1003703 C15.0170972,87.0775407 14.7240143,86.8521368 14.6145047,86.5290719 C14.1095956,85.0250534 13.3492705,83.6193713 12.3669339,82.3737833 C11.3576151,81.0980826 10.1351752,80.0067843 8.75375046,79.1482168 C8.46547096,78.9684796 8.31299228,78.633375 8.36682089,78.2978562 C8.4206495,77.9623374 8.67029447,77.6917953 9.00031941,77.6113292 C12.1293293,76.8501267 14.8016325,74.8228165 16.378421,72.0140226 C16.5485052,71.718461 16.8796291,71.5542778 17.2177453,71.597855 C17.5558615,71.6414322 17.8345739,71.8842127 17.9242186,72.2132487 C18.6974039,75.2052901 20.6986667,77.7310614 23.4340862,79.1671907 C23.7365198,79.3318594 23.90864,79.6638019 23.8690135,80.0059696 C23.8293869,80.3481372 23.5859593,80.631919 23.2539012,80.7230522 C21.9259011,81.0988411 20.6785328,81.7163259 19.5743339,82.5445485 C18.1352352,83.6221747 16.9691059,85.022702 16.1697857,86.6334285 L16.1697857,86.6334285 Z" id="Path" fill="#7808FF"></path>
                            <path d="M57.108403,209.07119 C57.2117337,209.32195 57.1532195,209.609408 56.9597874,209.801283 C56.7663553,209.993157 56.4754802,210.052275 56.221017,209.951431 C55.0370381,209.47421 53.7783546,209.202844 52.5006613,209.149343 C51.1907867,209.092636 49.8809558,209.262465 48.6303249,209.651162 C48.3684102,209.731708 48.0831343,209.648758 47.9072462,209.44091 C47.731358,209.233062 47.6994072,208.941144 47.8262615,208.700996 C49.0111838,206.420292 49.1802617,203.75533 48.2928683,201.346464 C48.2017541,201.089384 48.2772142,200.80343 48.4838011,200.622929 C48.690388,200.442429 48.9870438,200.403255 49.2344141,200.523809 C51.4680619,201.605711 54.0595981,201.710207 56.3751639,200.811738 C56.634483,200.712749 56.9287237,200.779825 57.1178367,200.981041 C57.3069496,201.182257 57.3527297,201.476961 57.233387,201.724885 C56.1401723,204.047189 56.0947574,206.718078 57.108403,209.075304 L57.108403,209.07119 Z" id="Path" fill="#FFA600"></path>
                        </g>
                        <g id="stacked-square-(1)" transform="translate(231.000000, 60.000000)">
                            <path d="M23.1130582,46.197347 C26.2177796,44.4037114 26.2229364,38.5970477 23.1245439,33.2276331 C20.0262294,27.8582185 14.9976215,24.95946 11.8929002,26.7530956 C8.78817877,28.5466531 8.78302195,34.3533949 11.8813364,39.7227313 C14.9796508,45.0922241 20.0083368,47.9909044 23.1130582,46.197347 Z M23.131654,57.6945801 C26.2299684,63.0639947 26.2248116,68.8706583 23.1200902,70.6642158 C20.0152907,72.4578514 14.986761,69.5590148 11.8884465,64.1896783 C8.79005398,58.8203418 8.79521081,53.0136 11.8999322,51.2199644 C15.0047317,49.426407 20.0332615,52.3251654 23.131654,57.6945801 Z M44.289327,69.9337996 C47.3877196,75.3031361 47.3825627,81.1094088 44.2778414,82.9035917 C41.17312,84.6969927 36.1445121,81.7981562 33.0461195,76.4288979 C29.9478051,71.0594832 29.9529619,65.2528196 33.0576833,63.4591058 C36.1624047,61.6655484 41.1910126,64.5643068 44.289327,69.9337996 Z M44.2824512,45.4671654 C47.3808438,50.8365018 47.375687,56.6433218 44.2709656,58.4368792 C41.1662442,60.2304367 36.1376363,57.3316782 33.0393219,51.9622636 C29.9409293,46.592849 29.9460862,40.7861853 33.0508075,38.9926279 C36.1555289,37.1989923 41.1840587,40.0978289 44.2824512,45.4671654 Z" id="Shape" fill="#F26E7E"></path>
                            <path d="M87.3010252,39.728907 C90.3997364,34.35713 90.3950485,28.5476707 87.2900867,26.753298 C84.1851249,24.9589254 79.1565556,27.8590014 76.0586256,33.2309348 C72.9606957,38.6027117 72.9653836,44.4120147 76.0703454,46.2064655 C79.1745259,48.0009164 84.2030952,45.1007622 87.3010252,39.728907 Z M87.3018065,51.2255781 C90.4067683,53.0199508 90.4122376,58.8292537 87.3143076,64.2011871 C84.2155963,69.5729641 79.187027,72.47304 76.0820652,70.6786674 C72.9778847,68.8842948 72.9724154,63.0749136 76.0711267,57.7030584 C79.1690567,52.3312815 84.197626,49.4312055 87.3018065,51.2255781 Z M66.1490782,63.4502599 C69.2538056,65.2446325 69.2589623,71.0539355 66.1607199,76.4258689 C63.0623992,81.7974112 58.0339081,84.6975654 54.9292588,82.9033492 C51.8246095,81.109133 51.8194528,75.2995954 54.9176952,69.9277402 C58.0160159,64.555885 63.044507,61.655809 66.1490782,63.4502599 Z M66.1372022,38.9778234 C69.2418515,40.772196 69.2470082,46.5816554 66.1486875,51.9534324 C63.0504451,57.3252875 58.0219539,60.2254417 54.9172265,58.4309909 C51.8125772,56.6366182 51.8074204,50.8272371 54.9057411,45.4554601 C58.0040617,40.0835267 63.0324747,37.1834507 66.1372022,38.9778234 Z" id="Shape" fill="#8A3391"></path>
                            <path d="M60.9694255,6.41162552 C60.9694255,9.95266927 55.8718312,12.8232665 49.5835666,12.8232665 C43.2952227,12.8232665 38.1976284,9.95266927 38.1976284,6.41162552 C38.1976284,2.87057405 43.2952227,0 49.5835666,0 C55.8718312,0 60.9694255,2.87057405 60.9694255,6.41162552 Z M39.5035837,18.4612808 C39.5035837,22.0022783 34.4059101,24.8728755 28.1176455,24.8728755 C21.8293809,24.8728755 16.7317073,22.0022783 16.7317073,18.4612808 C16.7317073,14.9202834 21.8293809,12.0496862 28.1176455,12.0496862 C34.4059101,12.0496862 39.5035837,14.9202834 39.5035837,18.4612808 Z M71.077635,24.8728755 C77.3659789,24.8728755 82.4634146,22.0022783 82.4634146,18.4612808 C82.4634146,14.9202834 77.3659789,12.0496862 71.077635,12.0496862 C64.7892119,12.0496862 59.6915383,14.9202834 59.6915383,18.4612808 C59.6915383,22.0022783 64.7892119,24.8728755 71.077635,24.8728755 Z M60.9694255,30.5379775 C60.9694255,34.0789749 55.8718312,36.9494949 49.5835666,36.9494949 C43.2952227,36.9494949 38.1976284,34.0789749 38.1976284,30.5379775 C38.1976284,26.99698 43.2952227,24.1263828 49.5835666,24.1263828 C55.8718312,24.1263828 60.9694255,26.99698 60.9694255,30.5379775 Z" id="Shape" fill="#F7BF2A"></path>
                            <path d="M3.83538733,117.093949 C3.83538733,117.676925 3.51032727,118 2.92529951,118 L0.910087823,118 C0.325060066,118 0,117.676925 0,117.093949 L0,96.2595859 C0,95.6766107 0.325060066,95.3535354 0.910087823,95.3535354 L7.65454175,95.3535354 C12.4974947,95.3535354 15.5365854,98.2508178 15.5365854,102.573151 C15.5365854,106.911477 12.4974947,109.792766 7.65454175,109.792766 L3.83538733,109.792766 L3.83538733,117.093949 Z M7.41072661,98.5746929 L3.83538733,98.5746929 L3.83538733,106.587602 L7.41072661,106.587602 C10.1409901,106.587602 11.6848848,105.017808 11.6848848,102.573151 C11.6848848,100.144487 10.1409901,98.5746929 7.41072661,98.5746929 Z" id="Shape" fill="#000000" fill-rule="nonzero"></path>
                            <path d="M17.9268293,110.183822 L17.9268293,101.004758 C17.9268293,100.436764 18.2512098,100.121212 18.8350948,100.121212 L20.7163416,100.121212 C21.3001464,100.121212 21.624527,100.436764 21.624527,101.004758 L21.624527,109.884631 C21.624527,112.092718 23.1651942,113.637755 25.4032196,113.637755 C27.7385189,113.637755 29.749518,111.729638 29.749518,109.016668 L29.749518,101.004758 C29.749518,100.436764 30.0738985,100.121212 30.6577033,100.121212 L32.5551491,100.121212 C33.1390341,100.121212 33.4634146,100.436764 33.4634146,101.004758 L33.4634146,115.562234 C33.4634146,116.130228 33.1390341,116.44578 32.5551491,116.44578 L30.6577033,116.44578 C30.0738985,116.44578 29.749518,116.130228 29.749518,115.562234 L29.749518,114.284442 C28.6143063,115.782731 26.7817366,116.808081 24.6409854,116.808081 C20.6027884,116.808081 17.9268293,114.205749 17.9268293,110.183822 Z" id="Path" fill="#000000" fill-rule="nonzero"></path>
                            <path d="M39.1245172,94.1616162 L40.9486535,94.1616162 C41.5147352,94.1616162 41.8292683,94.4721568 41.8292683,95.03113 L41.8292683,115.938567 C41.8292683,116.49754 41.5147352,116.808081 40.9486535,116.808081 L39.1245172,116.808081 C38.5584355,116.808081 38.2439024,116.49754 38.2439024,115.938567 L38.2439024,95.03113 C38.2439024,94.4721568 38.5584355,94.1616162 39.1245172,94.1616162 Z" id="Path" fill="#000000" fill-rule="nonzero"></path>
                            <path d="M44.2195122,110.183822 L44.2195122,101.004758 C44.2195122,100.436764 44.5438944,100.121212 45.1277022,100.121212 L47.0089587,100.121212 C47.5928468,100.121212 47.9171488,100.436764 47.9171488,101.004758 L47.9171488,109.884631 C47.9171488,112.092718 49.4579042,113.637755 51.6959411,113.637755 C54.0312525,113.637755 56.0422619,111.729638 56.0422619,109.016668 L56.0422619,101.004758 C56.0422619,100.436764 56.3666441,100.121212 56.9504519,100.121212 L58.8479075,100.121212 C59.4317955,100.121212 59.7560976,100.436764 59.7560976,101.004758 L59.7560976,115.562234 C59.7560976,116.130228 59.4317955,116.44578 58.8479075,116.44578 L56.9504519,116.44578 C56.3666441,116.44578 56.0422619,116.130228 56.0422619,115.562234 L56.0422619,114.284442 C54.9070444,115.782731 53.0743851,116.808081 50.933703,116.808081 C46.8954851,116.808081 44.2195122,114.205749 44.2195122,110.183822 Z" id="Path" fill="#000000" fill-rule="nonzero"></path>
                            <path d="M89.6341463,106.749145 L89.6341463,115.926223 C89.6341463,116.493132 89.3237009,116.808081 88.7656656,116.808081 L86.9520509,116.808081 C86.3940156,116.808081 86.0843366,116.493132 86.0843366,115.926223 L86.0843366,107.064094 C86.0843366,104.860227 84.7352403,103.317364 82.7514555,103.317364 C80.7515735,103.317364 78.860539,105.363368 78.860539,107.834748 L78.860539,115.926223 C78.860539,116.493132 78.5500935,116.808081 77.9920582,116.808081 L76.1784435,116.808081 C75.6204082,116.808081 75.3107293,116.493132 75.3107293,115.926223 L75.3107293,107.064094 C75.3107293,104.860227 73.961633,103.317364 71.9778481,103.317364 C70.0707165,103.317364 68.0865484,105.174398 68.0865484,107.834748 L68.0865484,115.926223 C68.0865484,116.493132 67.7764862,116.808081 67.2184509,116.808081 L65.4046829,116.808081 C64.8466476,116.808081 64.5365854,116.493132 64.5365854,115.926223 L64.5365854,101.381009 C64.5365854,100.814101 64.8466476,100.499151 65.4046829,100.499151 L67.2184509,100.499151 C67.7764862,100.499151 68.0865484,100.814101 68.0865484,101.381009 L68.0865484,102.624476 C69.2183329,101.113497 70.8456803,100.121212 72.7213842,100.121212 C75.1397926,100.121212 77.1703359,101.396562 78.1783255,103.506334 C79.232307,101.459552 81.1854306,100.121212 83.4796609,100.121212 C86.9673815,100.121212 89.6341463,102.734902 89.6341463,106.749145 Z" id="Path" fill="#000000" fill-rule="nonzero"></path>
                            <path d="M95.6009853,95.3535354 C96.9525194,95.3535354 98,96.3010412 98,97.5295739 C98,98.7419821 96.9525194,99.6894879 95.6009853,99.6894879 C94.2494513,99.6894879 93.2195122,98.7419821 93.2195122,97.5295739 C93.2195122,96.3010412 94.2494513,95.3535354 95.6009853,95.3535354 Z M94.6211649,101.912364 L96.5808057,101.912364 C97.1889125,101.912364 97.5272137,102.223337 97.5272137,102.783087 L97.5272137,117.129277 C97.5272137,117.689028 97.1889125,118 96.5808057,118 L94.6211649,118 C94.0130581,118 93.6755923,117.689028 93.6755923,117.129277 L93.6755923,102.783087 C93.6755923,102.223337 94.0130581,101.912364 94.6211649,101.912364 Z" id="Shape" fill="#000000" fill-rule="nonzero"></path>
                        </g>
                        <g id="temporary_teleport_logo" transform="translate(75.000000, 55.000000)" fill="#512FC9" fill-rule="nonzero">
                            <path d="M57.6308676,112.170746 C58.2989793,112.170746 58.9176019,112.316453 59.4867342,112.607869 C60.0558676,112.899284 60.5466411,113.320218 60.9590558,113.87067 C61.3714715,114.421122 61.6952171,115.09502 61.9302935,115.892366 C62.16537,116.689712 62.2829077,117.594315 62.2829077,118.606175 C62.2829077,119.553276 62.1488729,120.427523 61.8808033,121.228916 C61.6127337,122.030308 61.2374357,122.726468 60.7549102,123.317395 C60.2723847,123.908321 59.6950043,124.369728 59.0227681,124.701619 C58.3505318,125.033509 57.6061225,125.199454 56.7895411,125.199454 C56.1214283,125.199454 55.560544,125.106363 55.1068882,124.92018 C54.6532313,124.733998 54.2408166,124.483057 53.8696431,124.167357 L53.8696431,124.167357 L53.8696431,129 L50.0341833,129 L50.0341833,112.413592 L52.4096941,112.413592 L52.5485132,112.419906 C52.7273357,112.436744 52.8810837,112.487255 53.0097573,112.571442 C53.1705994,112.676676 53.2840137,112.834525 53.3499999,113.044993 L53.3499999,113.044993 L53.6345666,113.967808 L53.8882014,113.708772 C54.0614161,113.541479 54.2428778,113.384977 54.4325896,113.23927 C54.7171553,113.020708 55.0223426,112.832502 55.3481504,112.674652 C55.6739583,112.516801 56.0245112,112.393354 56.3998082,112.304311 C56.7751063,112.215268 57.1854587,112.170746 57.6308676,112.170746 Z M21.5528058,112.219315 C22.4023814,112.219315 23.1797828,112.348833 23.8850132,112.607869 C24.5902426,112.866905 25.1964926,113.243317 25.7037632,113.737105 C26.2110328,114.230893 26.6069514,114.835984 26.8915181,115.552382 C27.1760838,116.268778 27.3183676,117.08029 27.3183676,117.986916 C27.3183676,118.270238 27.3059951,118.500941 27.28125,118.679028 C27.2565049,118.857116 27.2111392,118.998776 27.1451529,119.10401 C27.0791666,119.209244 26.9904975,119.282097 26.8791456,119.322571 C26.7677936,119.363046 26.6255098,119.383283 26.452296,119.383283 L26.452296,119.383283 L19.0535715,119.383283 L19.0887128,119.640337 C19.2330003,120.560765 19.5470944,121.238023 20.0309951,121.672111 C20.5588863,122.145661 21.2393706,122.382436 22.072449,122.382436 C22.5178568,122.382436 22.9014029,122.329819 23.2230862,122.224585 C23.5447706,122.119353 23.8313985,122.001977 24.082972,121.872459 C24.3345446,121.742941 24.5654975,121.625565 24.7758289,121.520331 C24.9861602,121.415098 25.2068029,121.362481 25.4377549,121.362481 C25.7429421,121.362481 25.9738941,121.471762 26.1306117,121.690324 L26.1306117,121.690324 L27.2441323,123.038121 L27.0028701,123.295295 C26.6762367,123.624919 26.3298083,123.90144 25.9635838,124.124859 C25.5058034,124.404132 25.0356505,124.622694 24.553125,124.780544 C24.0705995,124.938395 23.588074,125.047675 23.1055485,125.108386 C22.623023,125.169098 22.1631804,125.199454 21.7260206,125.199454 C20.8269559,125.199454 19.9835671,125.05577 19.1958544,124.768402 C18.4081416,124.481033 17.7194093,124.054028 17.1296554,123.487387 C16.5399024,122.920745 16.073873,122.216491 15.7315691,121.374624 C15.3892642,120.532756 15.2181117,119.553276 15.2181117,118.436182 C15.2181117,117.594315 15.3645191,116.796969 15.6573338,116.044145 C15.9501485,115.291321 16.3708122,114.631589 16.919324,114.064947 C17.4678358,113.498306 18.131824,113.04904 18.9112887,112.717149 C19.6907524,112.38526 20.5712588,112.219315 21.5528058,112.219315 Z M42.0663264,112.219315 C42.9159009,112.219315 43.6933034,112.348833 44.3985328,112.607869 C45.1037632,112.866905 45.7100132,113.243317 46.2172828,113.737105 C46.7245534,114.230893 47.120472,114.835984 47.4050387,115.552382 C47.6896043,116.268778 47.8318882,117.08029 47.8318882,117.986916 C47.8318882,118.270238 47.8195156,118.500941 47.7947705,118.679028 C47.7700254,118.857116 47.7246597,118.998776 47.6586735,119.10401 C47.5926872,119.209244 47.5040181,119.282097 47.3926661,119.322571 C47.2813142,119.363046 47.1390303,119.383283 46.9658166,119.383283 L46.9658166,119.383283 L39.5670921,119.383283 L39.6022334,119.640337 C39.7465209,120.560765 40.060615,121.238023 40.5445156,121.672111 C41.0724068,122.145661 41.7528911,122.382436 42.5859696,122.382436 C43.0313774,122.382436 43.4149235,122.329819 43.7366068,122.224585 C44.0582911,122.119353 44.3449191,122.001977 44.5964926,121.872459 C44.8480651,121.742941 45.0790181,121.625565 45.2893494,121.520331 C45.4996808,121.415098 45.7203235,121.362481 45.9512754,121.362481 C46.2564627,121.362481 46.4874146,121.471762 46.6441323,121.690324 L46.6441323,121.690324 L47.7576529,123.038121 L47.5163906,123.295295 C47.1897573,123.624919 46.8433288,123.90144 46.4771043,124.124859 C46.019324,124.404132 45.549171,124.622694 45.0666455,124.780544 C44.58412,124.938395 44.1015946,125.047675 43.6190691,125.108386 C43.1365436,125.169098 42.6767009,125.199454 42.2395411,125.199454 C41.3404764,125.199454 40.4970877,125.05577 39.7093749,124.768402 C38.9216622,124.481033 38.2329299,124.054028 37.6431759,123.487387 C37.053423,122.920745 36.5873936,122.216491 36.2450897,121.374624 C35.9027848,120.532756 35.7316323,119.553276 35.7316323,118.436182 C35.7316323,117.594315 35.8780396,116.796969 36.1708544,116.044145 C36.4636691,115.291321 36.8843328,114.631589 37.4328446,114.064947 C37.9813563,113.498306 38.6453446,113.04904 39.4248083,112.717149 C40.204273,112.38526 41.0847784,112.219315 42.0663264,112.219315 Z M70.0528058,112.219315 C71.0261058,112.219315 71.9127979,112.36907 72.7128822,112.668581 C73.5129675,112.968091 74.1996386,113.397119 74.7728955,113.955666 C75.3461524,114.514213 75.7915602,115.192159 76.10912,115.989504 C76.4266798,116.78685 76.5854587,117.683358 76.5854587,118.679028 C76.5854587,119.682794 76.4266798,120.587396 76.10912,121.392837 C75.7915602,122.198277 75.3461524,122.882295 74.7728955,123.444889 C74.1996386,124.007483 73.5129675,124.44056 72.7128822,124.744117 C71.9127979,125.047675 71.0261058,125.199454 70.0528058,125.199454 C69.0712587,125.199454 68.1783798,125.047675 67.374171,124.744117 C66.5699612,124.44056 65.8771043,124.007483 65.2955994,123.444889 C64.7140945,122.882295 64.2645622,122.198277 63.9470024,121.392837 C63.6294425,120.587396 63.4706636,119.682794 63.4706636,118.679028 C63.4706636,117.683358 63.6294425,116.78685 63.9470024,115.989504 C64.2645622,115.192159 64.7140945,114.514213 65.2955994,113.955666 C65.8771043,113.397119 66.5699612,112.968091 67.374171,112.668581 C68.1783798,112.36907 69.0712587,112.219315 70.0528058,112.219315 Z M93.4862244,108.758754 L93.4862244,112.437876 L96.6040812,112.437876 L96.6040812,115.012048 L93.4862244,115.012048 L93.4862244,121.265342 L93.4948847,121.434121 C93.5179808,121.651064 93.587266,121.835627 93.7027425,121.987811 C93.8470876,122.178041 94.0553567,122.273155 94.3275508,122.273155 C94.4677724,122.273155 94.5853102,122.258989 94.6801661,122.230657 C94.7750209,122.202325 94.8575043,122.169946 94.9276151,122.133518 C94.9977249,122.097091 95.0637111,122.064712 95.1255739,122.036379 C95.1874356,122.008048 95.2596087,121.993882 95.342092,121.993882 C95.4575675,121.993882 95.5503611,122.02019 95.6204719,122.072807 C95.6905827,122.125424 95.7627548,122.208396 95.8369901,122.321724 L95.8369901,122.321724 L96.9999999,124.106645 L96.7473957,124.281191 C96.3177968,124.559453 95.8452381,124.774473 95.3297195,124.926252 C94.7110969,125.108386 94.0718538,125.199454 93.4119901,125.199454 C92.8016156,125.199454 92.2634141,125.112434 91.7973847,124.938395 C91.3313562,124.764355 90.9395621,124.517461 90.6220023,124.197713 C90.3044425,123.877965 90.0631803,123.491435 89.8982146,123.038121 C89.7332479,122.584808 89.6507656,122.078878 89.6507656,121.520331 L89.6507656,121.520331 L89.6507656,115.012048 L88.5619901,115.012048 L88.4466783,115.00452 C88.2975489,114.984444 88.1668959,114.924218 88.0547195,114.823842 C87.9144979,114.698372 87.8443881,114.514213 87.8443881,114.271367 L87.8443881,114.271367 L87.8443881,112.802146 L89.885842,112.413592 L90.6405606,109.341585 L90.6756989,109.230847 C90.797444,108.916118 91.0661734,108.758754 91.4818881,108.758754 L91.4818881,108.758754 L93.4862244,108.758754 Z M14.3272961,107.313818 L14.3272961,110.567959 L9.25459215,110.567959 L9.25459215,125.005177 L5.07270391,125.005177 L5.07270391,110.567959 L0,110.567959 L0,107.313818 L14.3272961,107.313818 Z M33.479847,106.828125 L33.479847,125.005177 L29.6443882,125.005177 L29.6443882,106.828125 L33.479847,106.828125 Z M85.7905606,112.170746 C86.3761901,112.170746 86.846343,112.308358 87.2010205,112.583584 L87.2010205,112.583584 L86.7061224,115.352033 L86.6823675,115.447957 C86.6454146,115.567762 86.5873469,115.655187 86.5081636,115.710232 C86.4091832,115.779038 86.2772107,115.813442 86.112245,115.813442 C85.9720234,115.813442 85.8070577,115.795227 85.6173469,115.758801 C85.4276362,115.722374 85.1884352,115.70416 84.899745,115.70416 C83.8934518,115.70416 83.1016156,116.230327 82.5242342,117.282662 L82.5242342,117.282662 L82.5242342,125.005177 L78.6887754,125.005177 L78.6887754,112.413592 L80.9653058,112.413592 L81.1017898,112.416628 C81.2324741,112.422699 81.345759,112.437876 81.4416455,112.462161 C81.5694935,112.494541 81.6767219,112.545134 81.7633288,112.61394 C81.8499357,112.682747 81.9159229,112.773814 81.9612886,112.887142 C82.0066533,113.000471 82.0458332,113.138083 82.0788264,113.299981 L82.0788264,113.299981 L82.2891577,114.477786 L82.4681722,114.217675 C82.8921865,113.627128 83.3604055,113.151237 83.8728312,112.790004 C84.4584607,112.377165 85.0977038,112.170746 85.7905606,112.170746 Z M56.2946431,115.048476 C56.0142009,115.048476 55.7605651,115.074784 55.5337367,115.1274 C55.3069092,115.180017 55.0965769,115.254895 54.9027426,115.352033 C54.7089073,115.449172 54.5295068,115.572619 54.3645411,115.722374 C54.1995744,115.87213 54.0346087,116.044145 53.8696431,116.238422 L53.8696431,116.238422 L53.8696431,121.581043 L54.0160504,121.730967 C54.2634994,121.96763 54.5281316,122.13824 54.8099489,122.2428 C55.1481293,122.36827 55.5028058,122.431006 55.8739793,122.431006 C56.2286568,122.431006 56.5544646,122.362199 56.8514029,122.224585 C57.1483421,122.086973 57.4061014,121.866388 57.6246808,121.56283 C57.8432612,121.259271 58.0144137,120.864646 58.1381382,120.378953 C58.2618617,119.89326 58.3237244,119.302334 58.3237244,118.606175 C58.3237244,117.942394 58.2742342,117.383848 58.1752548,116.930534 C58.0762754,116.477221 57.9381161,116.110928 57.7607779,115.831655 C57.5834396,115.552382 57.371046,115.352033 57.123597,115.23061 C56.876148,115.109186 56.5998303,115.048476 56.2946431,115.048476 Z M70.0528058,115.012048 C69.145493,115.012048 68.4815048,115.315606 68.0608421,115.922722 C67.6401783,116.529838 67.429847,117.456702 67.429847,118.703314 C67.429847,119.949924 67.6401783,120.878812 68.0608421,121.489976 C68.4815048,122.101138 69.145493,122.40672 70.0528058,122.40672 C70.9353744,122.40672 71.5849278,122.101138 72.0014671,121.489976 C72.4180063,120.878812 72.6262754,119.949924 72.6262754,118.703314 C72.6262754,117.456702 72.4180063,116.529838 72.0014671,115.922722 C71.5849278,115.315606 70.9353744,115.012048 70.0528058,115.012048 Z M21.6270412,114.817771 C20.8929421,114.817771 20.3196853,115.022167 19.9072706,115.430959 C19.4948559,115.83975 19.2226617,116.428652 19.0906892,117.197666 L19.0906892,117.197666 L23.8788264,117.197666 C23.8788264,116.898155 23.8396475,116.606739 23.7612887,116.323419 C23.6829299,116.040098 23.5550809,115.787133 23.3777426,115.564524 C23.2004034,115.341914 22.9673892,115.161803 22.678699,115.02419 C22.3900088,114.886578 22.0394559,114.817771 21.6270412,114.817771 Z M42.1405607,114.817771 C41.4064627,114.817771 40.8332058,115.022167 40.4207911,115.430959 C40.0083754,115.83975 39.7361823,116.428652 39.6042088,117.197666 L39.6042088,117.197666 L44.392347,117.197666 C44.392347,116.898155 44.3531671,116.606739 44.2748083,116.323419 C44.1964494,116.040098 44.0686014,115.787133 43.8912632,115.564524 C43.7139239,115.341914 43.4809097,115.161803 43.1922196,115.02419 C42.9035284,114.886578 42.5529764,114.817771 42.1405607,114.817771 Z M58.1991875,0.941780751 C58.9938904,1.03081464 59.662868,1.67167313 59.8656182,2.39049429 L59.8998512,2.53515761 L62.347534,14.8706384 C65.8144231,16.1863614 69.067115,17.9611655 71.9702816,20.164619 L72.546215,20.611016 L84.8958892,16.4640152 C85.6958897,16.126346 86.5435727,16.3690457 87.1422486,17.0443843 C91.3912568,21.7189933 94.8402656,27.3644016 96.8429154,33.2947182 C97.17073,34.016882 96.972365,34.8642496 96.3700516,35.3673066 L96.2442395,35.4631881 L86.4429099,43.656944 C86.7925787,45.4877447 86.8932415,47.4662755 86.8932415,49.3920457 C86.8932415,51.113221 86.8137055,52.8635776 86.5504475,54.5171265 L86.4429099,55.1324233 L96.2442395,63.3314554 C96.9435772,63.8115789 97.1925843,64.7296173 96.8429154,65.4999253 C94.8455632,71.4302418 91.3965554,77.0703738 87.1475462,81.744983 C86.5838378,82.3752992 85.8078307,82.6287389 85.0564394,82.3851919 L84.8958892,82.325352 L72.546215,78.1783517 C69.6902531,80.4388228 66.4804009,82.2773106 63.0432544,83.6459946 L62.3528326,83.9134529 L59.8998512,96.2594856 C59.7515068,97.0350698 59.0468705,97.7526172 58.1991875,97.8528623 C54.9991868,98.4279554 51.7991851,98.765625 48.5038193,98.765625 C45.2031548,98.765625 42.0031541,98.4279554 38.8031524,97.8528623 C38.0084496,97.7588828 37.339472,97.1223525 37.1367217,96.4040915 L37.1024888,96.2594856 L34.654806,83.9134529 C31.1743207,82.6025015 27.8205487,80.8148406 24.9821843,78.5988565 L24.456125,78.1783517 L12.1064508,82.325352 C11.3064503,82.6630216 10.4587673,82.4203212 9.8547938,81.744983 C5.6057856,77.0703738 2.15677681,71.4302418 0.159424552,65.4999253 C-0.168389979,64.7777615 0.0299750208,63.9257566 0.632288437,63.4264675 L0.758100468,63.3314554 L10.5541315,55.1324233 C10.2044626,53.3016227 10.1038009,51.3283679 10.1038009,49.3920457 C10.1038009,47.6802501 10.1833358,45.9267669 10.4465948,44.2724074 L10.5541315,43.656944 L0.758100468,35.4631881 C0.058762802,34.9777885 -0.195541896,34.0650262 0.159424552,33.2947182 C2.15677681,27.3644016 5.6057856,21.7189933 9.8547938,17.0443843 C10.4185022,16.4140684 11.1945093,16.1652248 11.9459006,16.4050951 L12.1064508,16.4640152 L24.456125,20.611016 C27.2285456,18.3416799 30.5359738,16.5023171 34.002966,15.1237184 L34.654806,14.8706384 L37.1024888,2.53515761 C37.2508332,1.75957353 37.9554694,1.03675025 38.8031524,0.941780751 C45.2031548,-0.313926917 51.7991851,-0.313926917 58.1991875,0.941780751 Z M48.4973516,20.4847222 C32.2178932,20.4847222 19.0269228,33.4247084 19.0269228,49.3828125 C19.0269228,65.3409166 32.2178932,78.2809027 48.4973516,78.2809027 C64.7768091,78.2809027 77.973077,65.3409166 77.973077,49.3828125 C77.973077,33.4247084 64.7768091,20.4847222 48.4973516,20.4847222 Z M67.1538456,36.7627605 L67.1538456,45.3697866 L52.941248,45.3694792 L52.9413915,66.0266493 L44.0586084,66.0266493 L44.0576647,45.3694792 L29.8461543,45.3697866 L29.8461543,36.7627605 L67.1538456,36.7627605 Z" id="temporary_teleport_logo-copy"></path>
                        </g>
                    </g>
                </g>
            </g>
        </g>
    </g>
</svg>