<svg width="48" height="48" viewBox="0 0 48 48" fill="none" xmlns="http://www.w3.org/2000/svg">
<path d="M42 0H6C2.68629 0 0 2.68629 0 6V42C0 45.3137 2.68629 48 6 48H42C45.3137 48 48 45.3137 48 42V6C48 2.68629 45.3137 0 42 0Z" fill="url(#paint0_linear_9_150)"/>
<path fill-rule="evenodd" clip-rule="evenodd" d="M31.4956 33.687C32.711 33.687 33.7018 32.6971 33.7018 31.4783C33.7018 30.2615 32.711 29.2696 31.4956 29.2696C30.2801 29.2696 29.2893 30.2615 29.2893 31.4783C29.2893 32.6971 30.2801 33.687 31.4956 33.687ZM38.6243 40L37.3502 38.7382L36.0956 39.9961L34.7121 38.613L35.9627 37.3609L33.6197 35.0388C32.9963 35.4144 32.2733 35.6433 31.4956 35.6433C29.2014 35.6433 27.3352 33.775 27.3352 31.4783C27.3352 29.1816 29.2014 27.3133 31.4956 27.3133C33.7897 27.3133 35.6559 29.1816 35.6559 31.4783C35.6559 32.2863 35.4156 33.0336 35.0169 33.6713L40 38.6091L38.6243 40ZM26.1764 22.6808C26.1764 20.656 24.9218 19.3981 22.8993 19.3981C20.8768 19.3981 19.6222 20.656 19.6222 22.6808C19.6222 24.7036 20.8768 25.9615 22.8993 25.9615C24.9218 25.9615 26.1764 24.7036 26.1764 22.6808ZM28.0446 23.659C27.6342 26.2061 25.639 27.9178 22.8993 27.9178C19.8176 27.9178 17.6681 25.7639 17.6681 22.6808C17.6681 19.5957 19.8176 17.4418 22.8993 17.4418C25.639 17.4418 27.6342 19.1536 28.0446 21.7026H33.4497V23.659H28.0446ZM13.9435 33.4033H25.6331V35.3596H13.9083C13.0524 35.3596 11.9893 35.3596 11.9893 33.8494V28.5791H10V24.6664H11.9893V18.6117H10V14.6991H11.9893V11.5122C11.9893 10 13.0524 10 13.9083 10H35.4039C36.3145 10 37.3463 10 37.3463 11.5122V25.6094H35.3921V11.9563H13.9454L13.9435 33.4033Z" fill="white"/>
<defs>
<linearGradient id="paint0_linear_9_150" x1="0" y1="48" x2="48" y2="0" gradientUnits="userSpaceOnUse">
<stop stop-color="#BD0816"/>
<stop offset="1" stop-color="#FF5252"/>
</linearGradient>
</defs>
</svg>
