<svg width="48" height="48" viewBox="0 0 48 48" fill="none" xmlns="http://www.w3.org/2000/svg">
<path d="M42.8571 0H5.14286C2.30254 0 0 2.30254 0 5.14286V42.8571C0 45.6975 2.30254 48 5.14286 48H42.8571C45.6975 48 48 45.6975 48 42.8571V5.14286C48 2.30254 45.6975 0 42.8571 0Z" fill="url(#paint0_linear_9_126)"/>
<path d="M16.5 30.75H30.75V17.25H16.5V30.75ZM32.25 17.25H34.5V18.75H32.25V20.25H34.5V21.75H32.25V23.25H34.5V24.75H32.25V27H34.5V28.5H32.25V30H34.5V31.5H32.1472C31.956 31.9403 31.5172 32.25 31.008 32.25H30.75V34.5H29.25V32.25H27.75V34.5H26.25V32.25H24.75V34.5H23.25V32.25H21.75V34.5H20.25V32.25H18V34.5H16.5V32.25H16.242C15.7327 32.25 15.294 31.9403 15.1028 31.5H13.5V30H15V28.5H13.5V27H15V24.75H13.5V23.25H15V21.75H13.5V20.25H15V18.75H13.5V17.25H15V16.992C15 16.3072 15.5572 15.75 16.242 15.75H16.5V13.5H18V15.75H20.25V13.5H21.75V15.75H23.25V13.5H24.75V15.75H26.25V13.5H27.75V15.75H29.25V13.5H30.75V15.75H31.008C31.6927 15.75 32.25 16.3072 32.25 16.992V17.25ZM24 39H9V24H12V22.5H8.88225C8.1195 22.5 7.5 23.1203 7.5 23.8823V39.1178C7.5 39.8798 8.1195 40.5 8.88225 40.5H24.1178C24.8805 40.5 25.5 39.8798 25.5 39.1178V36H24V39ZM40.5 8.88225V24.1178C40.5 24.8798 39.8805 25.5 39.1178 25.5H36V24H39V9H24V12H22.5V8.88225C22.5 8.12025 23.1195 7.5 23.8823 7.5H39.1178C39.8805 7.5 40.5 8.12025 40.5 8.88225Z" fill="white"/>
<defs>
<linearGradient id="paint0_linear_9_126" x1="0" y1="48" x2="48" y2="0" gradientUnits="userSpaceOnUse">
<stop stop-color="#C8511B"/>
<stop offset="1" stop-color="#FF9900"/>
</linearGradient>
</defs>
</svg>
