<svg width="48" height="48" viewBox="0 0 48 48" fill="none" xmlns="http://www.w3.org/2000/svg">
<path d="M42.8571 0H5.14286C2.30254 0 0 2.30254 0 5.14286V42.8571C0 45.6975 2.30254 48 5.14286 48H42.8571C45.6975 48 48 45.6975 48 42.8571V5.14286C48 2.30254 45.6975 0 42.8571 0Z" fill="url(#paint0_linear_9_141)"/>
<path d="M28.281 18.7503L24.4875 23.5052L28.4752 28.5159H26.814L23.25 24.0002V28.5002H21.75V18.7503H23.25V22.681L26.5972 18.7503H28.281ZM37.5 27.2867L33 25.0367V18.7503C33 18.4781 32.8523 18.2268 32.6138 18.0948L26.25 14.5594V9.56218L37.5 16.1793V27.2867ZM38.6303 15.1039L25.8802 7.60396C25.6492 7.46821 25.3613 7.46596 25.128 7.59946C24.894 7.73296 24.75 7.98121 24.75 8.25045V15.0004C24.75 15.2726 24.8977 15.5238 25.1362 15.6558L31.5 19.1913V25.5002C31.5 25.7845 31.6605 26.044 31.9148 26.1715L37.9148 29.1714C38.0205 29.2239 38.1353 29.2502 38.25 29.2502C38.3873 29.2502 38.5237 29.2127 38.6437 29.1384C38.865 29.0012 39 28.7604 39 28.5002V15.7503C39 15.4849 38.859 15.2389 38.6303 15.1039ZM24 38.871L11.25 31.0794V16.1658L21.75 9.60343V14.5849L16.1025 18.1143C15.8835 18.2516 15.75 18.4916 15.75 18.7503V28.5002C15.75 28.7634 15.8888 29.0079 16.1138 29.1429L23.6138 33.6428C23.8418 33.7801 24.1252 33.7861 24.3592 33.6586L32.241 29.3597L36.0262 31.5219L24 38.871ZM37.872 30.8491L32.622 27.8492C32.3955 27.7194 32.1188 27.7172 31.8908 27.8417L24.0172 32.1361L17.25 28.0757V19.1658L22.8975 15.6363C23.1165 15.4991 23.25 15.2591 23.25 15.0004V8.25045C23.25 7.97746 23.1023 7.72696 22.863 7.59421C22.626 7.46146 22.3335 7.46971 22.1025 7.61446L10.1025 15.1144C9.8835 15.2516 9.75 15.4916 9.75 15.7503V31.5001C9.75 31.7611 9.8865 32.0034 10.1092 32.1406L23.6092 40.3905C23.7292 40.4633 23.8643 40.5 24 40.5C24.1358 40.5 24.2708 40.4633 24.3908 40.3905L37.8908 32.1406C38.1173 32.0019 38.2537 31.7544 38.2501 31.4889C38.2462 31.2241 38.1022 30.9804 37.872 30.8491Z" fill="white"/>
<defs>
<linearGradient id="paint0_linear_9_141" x1="0" y1="48" x2="48" y2="0" gradientUnits="userSpaceOnUse">
<stop offset="0.000801567" stop-color="#3231B6"/>
<stop offset="1" stop-color="#5079F9"/>
</linearGradient>
</defs>
</svg>
