<svg width="48" height="48" viewBox="0 0 48 48" fill="none" xmlns="http://www.w3.org/2000/svg">
<path d="M42 0H6C2.68629 0 0 2.68629 0 6V42C0 45.3137 2.68629 48 6 48H42C45.3137 48 48 45.3137 48 42V6C48 2.68629 45.3137 0 42 0Z" fill="url(#paint0_linear_9_113)"/>
<path fill-rule="evenodd" clip-rule="evenodd" d="M15 31.4804H17.25V29.9706H15V31.4804ZM16.5 28.4608H21V26.951H16.5V28.4608ZM35.22 22.5477C35.0505 20.7971 34.167 19.51 32.784 19.0442C31.6785 18.6728 30.4718 18.8993 29.5133 19.6021C28.9995 18.5196 28.266 17.3336 27.5265 16.5999C25.104 14.194 22.3057 13.6316 19.212 14.9308C16.6942 15.9839 14.5417 19.0578 14.277 21.8547C12.8925 22.3454 11.256 23.4309 10.5555 25.1559L11.9445 25.7266C12.4897 24.3836 13.965 23.4664 15.1852 23.1531C15.5175 23.0678 15.75 22.7666 15.75 22.4216C15.75 20.1147 17.6745 17.2091 19.7888 16.3243C22.3418 15.2516 24.4673 15.6819 26.4735 17.6748C27.2693 18.4645 28.1513 20.0709 28.545 21.1678C28.638 21.4289 28.866 21.6169 29.139 21.6584C29.4165 21.703 29.6842 21.5875 29.8492 21.3655C30.462 20.5457 31.4467 20.1886 32.3085 20.4763C33.225 20.7843 33.75 21.7687 33.75 23.1765C33.75 23.5457 34.0155 23.8605 34.377 23.9209C37.4445 24.4342 39 25.9614 39 28.4608C39 32.8355 34.9583 32.9872 34.5 32.9902H21.75V34.5H34.5C36.5752 34.5 40.5 33.2378 40.5 28.4608C40.5 25.3816 38.6317 23.2996 35.22 22.5477ZM16.5 34.5H19.5V32.9902H16.5V34.5ZM18.75 31.4804H27V29.9706H18.75V31.4804ZM8.25 31.4804H13.5V29.9706H8.25V31.4804ZM9.75 28.4608H14.25V26.951H9.75V28.4608ZM10.5 34.5H15V32.9902H10.5V34.5ZM7.5 34.5H9V32.9902H7.5V34.5Z" fill="white"/>
<defs>
<linearGradient id="paint0_linear_9_113" x1="0" y1="48" x2="48" y2="0" gradientUnits="userSpaceOnUse">
<stop stop-color="#B0084D"/>
<stop offset="1" stop-color="#FF4F8B"/>
</linearGradient>
</defs>
</svg>
