<?xml version="1.0" encoding="UTF-8"?>
<svg width="195px" height="24px" viewBox="0 0 195 24" version="1.1" xmlns="http://www.w3.org/2000/svg" xmlns:xlink="http://www.w3.org/1999/xlink">
    <title>aws-marketplace</title>
    <g id="Page-1" stroke="none" stroke-width="1" fill="none" fill-rule="evenodd">
        <g id="aws-marketplace" fill-rule="nonzero">
            <g id="Group" transform="translate(32.000000, 5.000000)">
                <path d="M10.2468838,9.71590642 C10.2468838,10.1486431 10.2881893,10.6246535 10.4121059,11.0573903 C10.5360226,11.4035796 10.7012448,11.7930427 10.8664669,12.1392321 C10.949078,12.2257794 10.949078,12.3556004 10.949078,12.4854215 C10.949078,12.6585162 10.8251614,12.8316108 10.6599392,12.9181582 L9.79252274,13.5239896 C9.66860611,13.6105369 9.54468947,13.6538106 9.42077283,13.6538106 C9.25555064,13.6538106 9.09032846,13.5672633 9.00771737,13.4374423 C8.80118964,13.2210739 8.63596745,13.0047055 8.51205082,12.7450635 C8.38813418,12.4854215 8.22291199,12.1825058 8.05768981,11.8363164 C7.02505116,13.1778002 5.49674595,13.9134527 3.88582965,13.9134527 C2.853191,13.9567263 1.82055235,13.6105369 1.03574697,12.8316108 C0.333552689,12.0526847 -0.0381972255,11.0141166 0.00310832057,9.97554846 C-0.0381972255,8.8071593 0.416163781,7.68204381 1.2422747,6.94639138 C2.23360781,6.1241916 3.47277419,5.73472855 4.71194057,5.77800222 C5.20760713,5.77800222 5.70327368,5.82127589 6.19894023,5.90782324 C6.73591233,5.99437058 7.27288443,6.08091793 7.80985653,6.21073895 L7.80985653,5.12889713 C7.89246762,4.26342368 7.64463435,3.39795023 7.14896779,2.74884515 C6.48807906,2.22956108 5.66196813,1.96991904 4.83585721,2.05646639 C4.34019066,2.05646639 3.80321856,2.14301373 3.30755201,2.27283475 C2.77057991,2.40265577 2.27491336,2.57575046 1.7792468,2.79211882 C1.61402462,2.87866616 1.44880243,2.92193984 1.28358025,3.00848718 L1.07705252,3.00848718 C0.870524788,3.00848718 0.787913696,2.83539249 0.787913696,2.53247678 L0.787913696,1.84009802 C0.787913696,1.66700333 0.829219242,1.49390864 0.870524788,1.32081395 C0.994441427,1.19099294 1.11835806,1.06117192 1.28358025,1.01789825 C1.86185789,0.714982537 2.44013554,0.498614175 3.05971873,0.325519485 C3.76191301,0.152424795 4.50541284,0.0226037772 5.29021822,0.0226037772 C6.61199569,-0.10721724 7.97507872,0.325519485 9.00771737,1.23426661 C9.87513384,2.22956108 10.2881893,3.57104492 10.2055782,4.91252877 L10.2055782,9.71590642 L10.2468838,9.71590642 L10.2468838,9.71590642 Z M4.4641073,12.0094111 C4.95977385,12.0094111 5.4554404,11.9228637 5.95110696,11.749769 C6.48807906,11.5766743 6.94244006,11.230485 7.27288443,10.7977482 C7.47941216,10.5381062 7.64463435,10.2351905 7.76855099,9.88900111 C7.85116208,9.45626439 7.89246762,9.02352766 7.89246762,8.59079094 L7.89246762,7.98495952 C7.47941216,7.89841218 7.02505116,7.81186483 6.57069015,7.72531749 C6.11632914,7.68204381 5.70327368,7.63877014 5.24891267,7.63877014 C4.50541284,7.59549647 3.76191301,7.81186483 3.14232982,8.24460156 C2.68796882,8.67733828 2.44013554,9.2831697 2.48144109,9.88900111 C2.44013554,10.4515589 2.64666327,11.0573903 3.01841319,11.4468533 C3.3901631,11.8363164 3.9271352,12.0094111 4.4641073,12.0094111 Z M15.864438,13.6105369 C15.6579103,13.6105369 15.4926881,13.5672633 15.3274659,13.4807159 C15.1622437,13.3076212 15.0796326,13.1345265 15.0383271,12.9181582 L11.7338834,1.4073613 C11.6512723,1.23426661 11.6099668,1.01789825 11.6099668,0.801529883 C11.5686612,0.628435192 11.6925779,0.455340502 11.8578,0.455340502 C11.8991056,0.455340502 11.8991056,0.455340502 11.9404111,0.455340502 L13.3447997,0.455340502 C13.5513274,0.455340502 13.7165496,0.498614175 13.8817718,0.58516152 C14.0056884,0.75825621 14.1296051,0.9313509 14.1709106,1.14771926 L16.5666323,10.9708429 L18.7558262,1.14771926 C18.7971318,0.9313509 18.8797429,0.714982537 19.0449651,0.58516152 C19.2101873,0.455340502 19.416715,0.41206683 19.6232427,0.455340502 L20.779798,0.455340502 C20.9863257,0.455340502 21.1928535,0.498614175 21.3580756,0.58516152 C21.5232978,0.75825621 21.6059089,0.9313509 21.6472145,1.14771926 L23.877714,11.1006639 L26.3560467,1.14771926 C26.3973523,0.9313509 26.5212689,0.714982537 26.6451855,0.58516152 C26.8104077,0.455340502 27.0169355,0.41206683 27.1821576,0.455340502 L28.5039351,0.455340502 C28.6691573,0.41206683 28.8343795,0.541887847 28.8343795,0.714982537 C28.8343795,0.75825621 28.8343795,0.75825621 28.8343795,0.801529883 C28.8343795,0.888077228 28.8343795,0.974624573 28.8343795,1.01789825 C28.7930739,1.14771926 28.7930739,1.27754028 28.7517684,1.36408763 L25.3234081,12.8748845 C25.2821025,13.0912529 25.1581859,13.3076212 25.0342693,13.4374423 C24.8690471,13.5672633 24.6625193,13.6105369 24.4972972,13.5672633 L23.2581308,13.5672633 C23.051603,13.6105369 22.8450753,13.5239896 22.6798531,13.3941686 C22.5146309,13.2210739 22.4320198,13.0047055 22.3907143,12.7883372 L20.1602148,3.22485554 L17.9297153,12.8316108 C17.8884098,13.0479792 17.8057987,13.2643476 17.6405765,13.4374423 C17.4753543,13.5672633 17.2688266,13.6105369 17.0622989,13.6105369 L15.864438,13.6105369 Z M34.0801838,14 C33.336684,14 32.5931842,13.9134527 31.8909899,13.740358 C31.3127123,13.6105369 30.7757402,13.4374423 30.2387681,13.1345265 C29.9083237,13.0047055 29.701796,12.6585162 29.701796,12.3123268 L29.701796,11.5334007 C29.701796,11.230485 29.8257126,11.0573903 30.0322403,11.0573903 C30.1148514,11.0573903 30.1974625,11.0573903 30.2800736,11.1006639 L30.6518235,11.2737586 C31.1474901,11.490127 31.6844622,11.6632217 32.2214343,11.7930427 C32.7997119,11.9228637 33.336684,11.9661374 33.9149617,11.9661374 C34.6171559,12.0094111 35.3606558,11.8363164 35.980239,11.490127 C36.4346,11.1872113 36.7237388,10.6679272 36.7237388,10.1053695 C36.7237388,9.71590642 36.5998222,9.32644337 36.3519889,9.06680133 C35.9389334,8.67733828 35.4019613,8.41769625 34.8649892,8.28787523 L32.7997119,7.59549647 C31.9322954,7.33585443 31.1474901,6.81657036 30.5692124,6.08091793 C30.1148514,5.47508651 29.8670181,4.69616041 29.8670181,3.9172343 C29.8670181,3.35467656 29.9909348,2.74884515 30.2387681,2.27283475 C30.4866013,1.79682435 30.8583512,1.36408763 31.2714067,1.06117192 C31.7257677,0.714982537 32.1801287,0.455340502 32.7171008,0.282245812 C33.2953785,0.109151122 33.9149617,0.0226037772 34.4932393,0.0226037772 C34.8236837,0.0226037772 35.1128225,0.0226037772 35.4432669,0.0658774497 C35.7737112,0.109151122 36.0628501,0.152424795 36.3519889,0.23897214 C36.6411277,0.325519485 36.9302665,0.368793157 37.1780998,0.455340502 C37.3846275,0.541887847 37.5911553,0.628435192 37.7563774,0.714982537 C37.9215996,0.801529883 38.0455163,0.9313509 38.1694329,1.06117192 C38.252044,1.19099294 38.2933495,1.36408763 38.2933495,1.53718232 L38.2933495,2.22956108 C38.2933495,2.53247678 38.1694329,2.70557147 37.9629052,2.70557147 C37.7563774,2.6622978 37.5911553,2.61902413 37.4259331,2.53247678 C36.5585166,2.14301373 35.6497946,1.92664537 34.699767,1.96991904 C34.0388783,1.92664537 33.3779896,2.09974006 32.7997119,2.40265577 C32.3453509,2.6622978 32.0975176,3.18158187 32.1388232,3.74413961 C32.1388232,4.13360267 32.2627398,4.52306572 32.5518786,4.78270775 C33.0062396,5.17217081 33.5432117,5.43181284 34.1214894,5.60490753 L36.1454611,6.25401262 C37.0128776,6.47038098 37.7563774,6.98966505 38.3346551,7.68204381 C38.7890161,8.28787523 39.0368494,9.06680133 38.9955438,9.84572744 C38.9955438,10.4515589 38.8716272,11.0573903 38.6237939,11.5766743 C38.3759606,12.0959584 38.0042107,12.5286951 37.5911553,12.8748845 C37.1367943,13.2643476 36.5998222,13.5239896 36.0215445,13.6970843 C35.4432669,13.9134527 34.7823781,14 34.0801838,14 Z" id="Shape" fill="#FFFFFF"></path>
                <path d="M10.2468838,9.71590642 C10.2468838,10.1486431 10.2881893,10.6246535 10.4121059,11.0573903 C10.5360226,11.4035796 10.7012448,11.7930427 10.8664669,12.1392321 C10.949078,12.2257794 10.949078,12.3556004 10.949078,12.4854215 C10.949078,12.6585162 10.8251614,12.8316108 10.6599392,12.9181582 L9.79252274,13.5239896 C9.66860611,13.6105369 9.54468947,13.6538106 9.42077283,13.6538106 C9.25555064,13.6538106 9.09032846,13.5672633 9.00771737,13.4374423 C8.80118964,13.2210739 8.63596745,13.0047055 8.51205082,12.7450635 C8.38813418,12.4854215 8.22291199,12.1825058 8.05768981,11.8363164 C7.02505116,13.1778002 5.49674595,13.9134527 3.88582965,13.9134527 C2.853191,13.9567263 1.82055235,13.6105369 1.03574697,12.8316108 C0.333552689,12.0526847 -0.0381972255,11.0141166 0.00310832057,9.97554846 C-0.0381972255,8.8071593 0.416163781,7.68204381 1.2422747,6.94639138 C2.23360781,6.1241916 3.47277419,5.73472855 4.71194057,5.77800222 C5.20760713,5.77800222 5.70327368,5.82127589 6.19894023,5.90782324 C6.73591233,5.99437058 7.27288443,6.08091793 7.80985653,6.21073895 L7.80985653,5.12889713 C7.89246762,4.26342368 7.64463435,3.39795023 7.14896779,2.74884515 C6.48807906,2.22956108 5.66196813,1.96991904 4.83585721,2.05646639 C4.34019066,2.05646639 3.80321856,2.14301373 3.30755201,2.27283475 C2.77057991,2.40265577 2.27491336,2.57575046 1.7792468,2.79211882 C1.61402462,2.87866616 1.44880243,2.92193984 1.28358025,3.00848718 L1.07705252,3.00848718 C0.870524788,3.00848718 0.787913696,2.83539249 0.787913696,2.53247678 L0.787913696,1.84009802 C0.787913696,1.66700333 0.829219242,1.49390864 0.870524788,1.32081395 C0.994441427,1.19099294 1.11835806,1.06117192 1.28358025,1.01789825 C1.86185789,0.714982537 2.44013554,0.498614175 3.05971873,0.325519485 C3.76191301,0.152424795 4.50541284,0.0226037772 5.29021822,0.0226037772 C6.61199569,-0.10721724 7.97507872,0.325519485 9.00771737,1.23426661 C9.87513384,2.22956108 10.2881893,3.57104492 10.2055782,4.91252877 L10.2055782,9.71590642 L10.2468838,9.71590642 L10.2468838,9.71590642 Z M4.4641073,12.0094111 C4.95977385,12.0094111 5.4554404,11.9228637 5.95110696,11.749769 C6.48807906,11.5766743 6.94244006,11.230485 7.27288443,10.7977482 C7.47941216,10.5381062 7.64463435,10.2351905 7.76855099,9.88900111 C7.85116208,9.45626439 7.89246762,9.02352766 7.89246762,8.59079094 L7.89246762,7.98495952 C7.47941216,7.89841218 7.02505116,7.81186483 6.57069015,7.72531749 C6.11632914,7.68204381 5.70327368,7.63877014 5.24891267,7.63877014 C4.50541284,7.59549647 3.76191301,7.81186483 3.14232982,8.24460156 C2.68796882,8.67733828 2.44013554,9.2831697 2.48144109,9.88900111 C2.44013554,10.4515589 2.64666327,11.0573903 3.01841319,11.4468533 C3.3901631,11.8363164 3.9271352,12.0094111 4.4641073,12.0094111 Z M15.864438,13.6105369 C15.6579103,13.6105369 15.4926881,13.5672633 15.3274659,13.4807159 C15.1622437,13.3076212 15.0796326,13.1345265 15.0383271,12.9181582 L11.7338834,1.4073613 C11.6512723,1.23426661 11.6099668,1.01789825 11.6099668,0.801529883 C11.5686612,0.628435192 11.6925779,0.455340502 11.8578,0.455340502 C11.8991056,0.455340502 11.8991056,0.455340502 11.9404111,0.455340502 L13.3447997,0.455340502 C13.5513274,0.455340502 13.7165496,0.498614175 13.8817718,0.58516152 C14.0056884,0.75825621 14.1296051,0.9313509 14.1709106,1.14771926 L16.5666323,10.9708429 L18.7558262,1.14771926 C18.7971318,0.9313509 18.8797429,0.714982537 19.0449651,0.58516152 C19.2101873,0.455340502 19.416715,0.41206683 19.6232427,0.455340502 L20.779798,0.455340502 C20.9863257,0.455340502 21.1928535,0.498614175 21.3580756,0.58516152 C21.5232978,0.75825621 21.6059089,0.9313509 21.6472145,1.14771926 L23.877714,11.1006639 L26.3560467,1.14771926 C26.3973523,0.9313509 26.5212689,0.714982537 26.6451855,0.58516152 C26.8104077,0.455340502 27.0169355,0.41206683 27.1821576,0.455340502 L28.5039351,0.455340502 C28.6691573,0.41206683 28.8343795,0.541887847 28.8343795,0.714982537 C28.8343795,0.75825621 28.8343795,0.75825621 28.8343795,0.801529883 C28.8343795,0.888077228 28.8343795,0.974624573 28.8343795,1.01789825 C28.7930739,1.14771926 28.7930739,1.27754028 28.7517684,1.36408763 L25.3234081,12.8748845 C25.2821025,13.0912529 25.1581859,13.3076212 25.0342693,13.4374423 C24.8690471,13.5672633 24.6625193,13.6105369 24.4972972,13.5672633 L23.2581308,13.5672633 C23.051603,13.6105369 22.8450753,13.5239896 22.6798531,13.3941686 C22.5146309,13.2210739 22.4320198,13.0047055 22.3907143,12.7883372 L20.1602148,3.22485554 L17.9297153,12.8316108 C17.8884098,13.0479792 17.8057987,13.2643476 17.6405765,13.4374423 C17.4753543,13.5672633 17.2688266,13.6105369 17.0622989,13.6105369 L15.864438,13.6105369 Z M34.0801838,14 C33.336684,14 32.5931842,13.9134527 31.8909899,13.740358 C31.3127123,13.6105369 30.7757402,13.4374423 30.2387681,13.1345265 C29.9083237,13.0047055 29.701796,12.6585162 29.701796,12.3123268 L29.701796,11.5334007 C29.701796,11.230485 29.8257126,11.0573903 30.0322403,11.0573903 C30.1148514,11.0573903 30.1974625,11.0573903 30.2800736,11.1006639 L30.6518235,11.2737586 C31.1474901,11.490127 31.6844622,11.6632217 32.2214343,11.7930427 C32.7997119,11.9228637 33.336684,11.9661374 33.9149617,11.9661374 C34.6171559,12.0094111 35.3606558,11.8363164 35.980239,11.490127 C36.4346,11.1872113 36.7237388,10.6679272 36.7237388,10.1053695 C36.7237388,9.71590642 36.5998222,9.32644337 36.3519889,9.06680133 C35.9389334,8.67733828 35.4019613,8.41769625 34.8649892,8.28787523 L32.7997119,7.59549647 C31.9322954,7.33585443 31.1474901,6.81657036 30.5692124,6.08091793 C30.1148514,5.47508651 29.8670181,4.69616041 29.8670181,3.9172343 C29.8670181,3.35467656 29.9909348,2.74884515 30.2387681,2.27283475 C30.4866013,1.79682435 30.8583512,1.36408763 31.2714067,1.06117192 C31.7257677,0.714982537 32.1801287,0.455340502 32.7171008,0.282245812 C33.2953785,0.109151122 33.9149617,0.0226037772 34.4932393,0.0226037772 C34.8236837,0.0226037772 35.1128225,0.0226037772 35.4432669,0.0658774497 C35.7737112,0.109151122 36.0628501,0.152424795 36.3519889,0.23897214 C36.6411277,0.325519485 36.9302665,0.368793157 37.1780998,0.455340502 C37.3846275,0.541887847 37.5911553,0.628435192 37.7563774,0.714982537 C37.9215996,0.801529883 38.0455163,0.9313509 38.1694329,1.06117192 C38.252044,1.19099294 38.2933495,1.36408763 38.2933495,1.53718232 L38.2933495,2.22956108 C38.2933495,2.53247678 38.1694329,2.70557147 37.9629052,2.70557147 C37.7563774,2.6622978 37.5911553,2.61902413 37.4259331,2.53247678 C36.5585166,2.14301373 35.6497946,1.92664537 34.699767,1.96991904 C34.0388783,1.92664537 33.3779896,2.09974006 32.7997119,2.40265577 C32.3453509,2.6622978 32.0975176,3.18158187 32.1388232,3.74413961 C32.1388232,4.13360267 32.2627398,4.52306572 32.5518786,4.78270775 C33.0062396,5.17217081 33.5432117,5.43181284 34.1214894,5.60490753 L36.1454611,6.25401262 C37.0128776,6.47038098 37.7563774,6.98966505 38.3346551,7.68204381 C38.7890161,8.28787523 39.0368494,9.06680133 38.9955438,9.84572744 C38.9955438,10.4515589 38.8716272,11.0573903 38.6237939,11.5766743 C38.3759606,12.0959584 38.0042107,12.5286951 37.5911553,12.8748845 C37.1367943,13.2643476 36.5998222,13.5239896 36.0215445,13.6970843 C35.4432669,13.9134527 34.7823781,14 34.0801838,14 Z" id="Shape" fill="#F8981D"></path>
            </g>
            <g id="Group" transform="translate(76.000000, 0.000000)" fill="#221F1F">
                <path d="M0.372910864,18.7266436 C0.124303621,18.7266436 0,18.6020761 0,18.3529412 L0,6.39446367 C0,6.14532872 0.124303621,6.02076125 0.372910864,6.02076125 L0.828690808,6.02076125 C1.07729805,6.02076125 1.20160167,6.14532872 1.24303621,6.39446367 L1.32590529,7.39100346 C2.03029248,6.80968858 2.77611421,6.39446367 3.56337047,6.06228374 C4.35062674,5.73010381 5.09644847,5.60553633 5.84227019,5.60553633 C7.33391365,5.60553633 8.28690808,6.26989619 8.78412256,7.55709343 C9.52994429,6.93425606 10.3172006,6.43598616 11.1458914,6.10380623 C11.9745822,5.7716263 12.803273,5.60553633 13.6319638,5.60553633 C14.7092618,5.60553633 15.5379526,5.93771626 16.1180362,6.60207612 C16.6981198,7.26643599 16.946727,8.22145329 16.946727,9.46712803 L16.946727,18.3529412 C16.946727,18.6020761 16.8224234,18.7266436 16.5738162,18.7266436 L15.9108635,18.7266436 C15.6622563,18.7266436 15.5379526,18.6020761 15.5379526,18.3529412 L15.5379526,10.0899654 C15.5379526,9.01038062 15.3722145,8.1799308 14.9993036,7.6816609 C14.6263928,7.183391 14.0877437,6.93425606 13.3004875,6.93425606 C11.808844,6.93425606 10.4000696,7.47404844 9.03272981,8.51211073 C9.07416435,8.92733564 9.11559889,9.30103806 9.11559889,9.71626298 L9.11559889,18.3529412 C9.11559889,18.6020761 8.99129526,18.7266436 8.74268802,18.7266436 L8.12116992,18.7266436 C7.87256267,18.7266436 7.74825905,18.6020761 7.74825905,18.3529412 L7.74825905,10.0899654 C7.74825905,9.01038062 7.58252089,8.1799308 7.20961003,7.6816609 C6.83669916,7.183391 6.29805014,6.93425606 5.51079387,6.93425606 C4.06058496,6.93425606 2.65181058,7.43252595 1.32590529,8.47058824 L1.32590529,18.3529412 C1.32590529,18.6020761 1.20160167,18.7266436 0.952994429,18.7266436 L0.372910864,18.7266436 Z" id="Path"></path>
                <path d="M22.7889972,19.017301 C21.7116992,19.017301 20.8415738,18.6851211 20.2200557,18.0207612 C19.5985376,17.3564014 19.2670613,16.4429066 19.2670613,15.3633218 C19.2670613,14.1176471 19.6399721,13.1626298 20.4272284,12.4567474 C21.2144847,11.7508651 22.2917827,11.3771626 23.617688,11.3771626 C24.6535515,11.3771626 25.7722841,11.5847751 26.9738858,11.9584775 L26.9738858,9.84083045 C26.9738858,8.80276817 26.7667131,8.05536332 26.3109331,7.64013841 C25.8551532,7.183391 25.1093315,6.97577855 24.073468,6.97577855 C22.9961699,6.97577855 21.8774373,7.183391 20.6344011,7.59861592 C20.5100975,7.64013841 20.3857939,7.6816609 20.2614903,7.6816609 C20.0957521,7.6816609 20.012883,7.55709343 20.012883,7.34948097 L20.012883,6.93425606 C20.012883,6.80968858 20.0543175,6.68512111 20.0957521,6.60207612 C20.1371866,6.51903114 20.2200557,6.47750865 20.3443593,6.39446367 C21.5873955,5.85467128 22.8718663,5.60553633 24.2806407,5.60553633 C25.689415,5.60553633 26.683844,5.93771626 27.3467967,6.56055363 C28.0097493,7.183391 28.3412256,8.1384083 28.3412256,9.38408304 L28.3412256,18.3529412 C28.3412256,18.6020761 28.216922,18.7266436 27.9683148,18.7266436 L27.4711003,18.7266436 C27.222493,18.7266436 27.0981894,18.6020761 27.0981894,18.3529412 L27.0153203,17.2733564 C25.6479805,18.4359862 24.2392061,19.017301 22.7889972,19.017301 Z M22.9547354,17.6885813 C23.5348189,17.6885813 24.1977716,17.5640138 24.8607242,17.3148789 C25.5651114,17.0657439 26.2280641,16.6920415 26.9324513,16.1937716 L26.9324513,13.0380623 C25.8965877,12.7474048 24.8607242,12.5813149 23.8662953,12.5813149 C21.6702646,12.5813149 20.5929666,13.4948097 20.5929666,15.3217993 C20.5929666,16.1107266 20.8001393,16.6920415 21.1730501,17.1072664 C21.6288301,17.4809689 22.2089136,17.6885813 22.9547354,17.6885813 Z" id="Shape"></path>
                <path d="M31.821727,18.7266436 C31.5731198,18.7266436 31.4488162,18.6020761 31.4488162,18.3529412 L31.4488162,6.39446367 C31.4488162,6.14532872 31.5731198,6.02076125 31.821727,6.02076125 L32.277507,6.02076125 C32.5261142,6.02076125 32.6504178,6.14532872 32.6918524,6.39446367 L32.816156,7.84775087 C33.3962396,7.14186851 33.9763231,6.64359862 34.5564067,6.35294118 C35.1364903,6.06228374 35.7580084,5.89619377 36.5038301,5.89619377 C36.7524373,5.89619377 36.95961,5.89619377 37.1253482,5.93771626 C37.3739554,5.93771626 37.4982591,6.10380623 37.4982591,6.35294118 L37.4982591,6.97577855 C37.4982591,7.05882353 37.4568245,7.10034602 37.41539,7.183391 C37.3739554,7.22491349 37.2910864,7.26643599 37.2082173,7.26643599 C37.0839136,7.26643599 36.95961,7.26643599 36.8353064,7.26643599 C36.7110028,7.26643599 36.5452646,7.26643599 36.3380919,7.26643599 C35.6337047,7.26643599 34.9707521,7.39100346 34.4321031,7.6816609 C33.893454,7.97231834 33.354805,8.42906574 32.816156,9.09342561 L32.816156,18.3944637 C32.816156,18.6435986 32.6918524,18.7681661 32.4432451,18.7681661 L31.821727,18.7681661 L31.821727,18.7266436 Z" id="Path"></path>
                <path d="M39.7357242,18.7266436 C39.487117,18.7266436 39.3628134,18.6020761 39.3628134,18.3529412 L39.3628134,0.373702422 C39.3628134,0.124567474 39.487117,0 39.7357242,0 L40.3572423,0 C40.6058496,0 40.7301532,0.124567474 40.7301532,0.373702422 L40.7301532,11.6678201 L46.3652507,6.26989619 C46.5309889,6.10380623 46.7381616,6.02076125 46.9453343,6.02076125 L47.7740251,6.02076125 C47.9811978,6.02076125 48.0640669,6.10380623 48.0640669,6.2283737 C48.0640669,6.31141869 47.9811978,6.43598616 47.8154596,6.60207612 L42.1389276,12 L48.3126741,18.1453287 C48.4369777,18.2698962 48.5198468,18.3944637 48.5198468,18.4775087 C48.5198468,18.6435986 48.4369777,18.7266436 48.229805,18.7266436 L47.235376,18.7266436 C47.0282033,18.7266436 46.8624652,18.6435986 46.7381616,18.5190311 L40.7715877,12.4982699 L40.7715877,18.3529412 C40.7715877,18.6020761 40.6472841,18.7266436 40.3986769,18.7266436 C40.3986769,18.7266436 39.7357242,18.7266436 39.7357242,18.7266436 Z" id="Path"></path>
                <path d="M54.8178969,19.100346 C52.9533426,19.100346 51.5445682,18.5190311 50.5915738,17.3979239 C49.6385794,16.2768166 49.1827994,14.5743945 49.1827994,12.3321799 C49.1827994,10.2145329 49.6385794,8.55363322 50.5915738,7.39100346 C51.5445682,6.2283737 52.8704735,5.64705882 54.5692897,5.64705882 C55.9780641,5.64705882 57.0967967,6.10380623 57.8426184,6.97577855 C58.5884401,7.84775087 59.0027855,9.09342561 59.0027855,10.7543253 C59.0027855,11.4186851 58.961351,11.916955 58.9199164,12.2906574 C58.8784819,12.5397924 58.7541783,12.6643599 58.505571,12.6643599 L50.5501393,12.6643599 C50.5501393,14.449827 50.9230501,15.7370242 51.6274373,16.6089965 C52.3318245,17.4394464 53.4091226,17.8546713 54.900766,17.8546713 C56.0194986,17.8546713 57.0967967,17.6470588 58.1326602,17.2318339 C58.3398329,17.1487889 58.4641365,17.1072664 58.5470056,17.1072664 C58.6298747,17.1072664 58.6713092,17.1487889 58.7127437,17.1903114 C58.7541783,17.2318339 58.7956128,17.3148789 58.7956128,17.3979239 L58.7956128,17.7716263 C58.7956128,18.0622837 58.7127437,18.2283737 58.5470056,18.3114187 C57.3868384,18.8096886 56.1852368,19.100346 54.8178969,19.100346 Z M57.7183148,11.4186851 C57.7183148,11.1695502 57.7597493,10.9204152 57.7597493,10.5882353 C57.7597493,9.38408304 57.4697075,8.47058824 56.9310585,7.84775087 C56.3924095,7.22491349 55.5637187,6.89273356 54.5278552,6.89273356 C52.0417827,6.89273356 50.757312,8.38754325 50.5915738,11.4186851 L57.7183148,11.4186851 Z" id="Shape"></path>
                <path d="M65.3837047,18.8927336 C64.4721448,18.8927336 63.7677577,18.6435986 63.2705432,18.1038062 C62.7733287,17.5640138 62.5247214,16.816609 62.5247214,15.7785467 L62.5247214,7.26643599 L60.6601671,7.26643599 C60.4115599,7.26643599 60.2872563,7.14186851 60.2872563,6.89273356 L60.2872563,6.64359862 C60.2872563,6.51903114 60.3286908,6.39446367 60.3701253,6.35294118 C60.4115599,6.26989619 60.494429,6.2283737 60.6601671,6.2283737 L62.566156,6.06228374 L62.7318942,2.74048443 C62.7318942,2.61591696 62.7733287,2.49134948 62.8561978,2.44982699 C62.8976323,2.4083045 62.9805014,2.36678201 63.104805,2.36678201 L63.5191504,2.36678201 C63.7677577,2.36678201 63.8920613,2.49134948 63.8920613,2.74048443 L63.8920613,6.06228374 L67.2896936,6.06228374 C67.5383008,6.06228374 67.6626045,6.18685121 67.6626045,6.43598616 L67.6626045,6.93425606 C67.6626045,7.183391 67.5383008,7.30795848 67.2896936,7.30795848 L63.8920613,7.30795848 L63.8920613,15.7370242 C63.8920613,16.4429066 64.0163649,16.899654 64.3064067,17.1903114 C64.5964485,17.4809689 65.0522284,17.6055363 65.6737465,17.6055363 C66.1295265,17.6055363 66.5438719,17.5640138 66.8753482,17.4809689 C67.0410864,17.4394464 67.16539,17.3979239 67.2896936,17.3979239 C67.3725627,17.3564014 67.4554318,17.3564014 67.4968663,17.3564014 C67.6626045,17.3564014 67.7454735,17.4394464 67.7454735,17.6470588 L67.7454735,18.0207612 C67.7454735,18.3114187 67.6626045,18.4775087 67.4968663,18.5605536 C66.8753482,18.7681661 66.170961,18.8927336 65.3837047,18.8927336 Z" id="Path"></path>
                <path d="M70.1901114,23.9584775 C69.9415042,23.9584775 69.8172006,23.83391 69.8172006,23.5847751 L69.8172006,6.39446367 C69.8172006,6.14532872 69.9415042,6.02076125 70.1901114,6.02076125 L70.6458914,6.02076125 C70.8944986,6.02076125 71.0188022,6.14532872 71.0602368,6.39446367 L71.1431058,7.43252595 C71.847493,6.80968858 72.5518802,6.35294118 73.2562674,6.06228374 C73.9606546,5.7716263 74.6236072,5.64705882 75.369429,5.64705882 C76.902507,5.64705882 78.1041086,6.2283737 78.974234,7.39100346 C79.8443593,8.55363322 80.3001393,10.1730104 80.3001393,12.2076125 C80.3001393,14.283737 79.8443593,15.9446367 78.9327994,17.1903114 C78.0212396,18.4359862 76.7782033,19.0588235 75.2036908,19.0588235 C73.7534819,19.0588235 72.4275766,18.4775087 71.2674095,17.3564014 L71.2674095,23.6262976 C71.2674095,23.8754325 71.1431058,24 70.8944986,24 L70.1901114,24 L70.1901114,23.9584775 L70.1901114,23.9584775 Z M74.9965181,17.6885813 C76.2809889,17.6885813 77.2339833,17.2318339 77.8969359,16.3183391 C78.5598886,15.4048443 78.8913649,14.0761246 78.8913649,12.2906574 C78.8913649,8.71972318 77.6483287,6.93425606 75.1208217,6.93425606 C73.836351,6.93425606 72.5104457,7.47404844 71.2259749,8.55363322 L71.2259749,15.9861592 C71.847493,16.567474 72.5104457,17.0242215 73.0905292,17.2733564 C73.6706128,17.5224913 74.3335655,17.6885813 74.9965181,17.6885813 Z" id="Shape"></path>
                <path d="M84.8993733,18.8096886 C84.2778552,18.8096886 83.7806407,18.6020761 83.4491643,18.2283737 C83.0762535,17.8131488 82.9105153,17.2733564 82.9105153,16.567474 L82.9105153,0.373702422 C82.9105153,0.124567474 83.0348189,0 83.2834262,0 L83.9049443,0 C84.1535515,0 84.2778552,0.124567474 84.2778552,0.373702422 L84.2778552,16.5259516 C84.2778552,16.899654 84.3607242,17.1487889 84.4850279,17.3148789 C84.6093315,17.4809689 84.8579387,17.5224913 85.189415,17.5224913 C85.2722841,17.5224913 85.3965877,17.5224913 85.5208914,17.4809689 C85.645195,17.4809689 85.7280641,17.4394464 85.8109331,17.4394464 C86.0181058,17.4394464 86.1424095,17.5640138 86.1424095,17.8131488 L86.1424095,18.3114187 C86.1424095,18.5190311 86.0595404,18.6435986 85.8523677,18.6851211 C85.5208914,18.7681661 85.2308496,18.8096886 84.8993733,18.8096886 Z" id="Path"></path>
                <path d="M91.2388579,19.017301 C90.1615599,19.017301 89.2914345,18.6851211 88.6699164,18.0207612 C88.0483983,17.3564014 87.716922,16.4429066 87.716922,15.3633218 C87.716922,14.1176471 88.0898329,13.1626298 88.8770891,12.4567474 C89.6643454,11.7508651 90.7416435,11.3771626 92.0675487,11.3771626 C93.1034123,11.3771626 94.2221448,11.5847751 95.4237465,11.9584775 L95.4237465,9.84083045 C95.4237465,8.80276817 95.2165738,8.05536332 94.7607939,7.64013841 C94.3050139,7.183391 93.5591922,6.97577855 92.5233287,6.97577855 C91.4460306,6.97577855 90.3272981,7.183391 89.0842618,7.59861592 C88.9599582,7.64013841 88.8356546,7.6816609 88.711351,7.6816609 C88.5456128,7.6816609 88.4627437,7.55709343 88.4627437,7.34948097 L88.4627437,6.93425606 C88.4627437,6.80968858 88.5041783,6.68512111 88.5456128,6.60207612 C88.5870474,6.51903114 88.6699164,6.47750865 88.7942201,6.39446367 C90.0372563,5.85467128 91.321727,5.60553633 92.7305014,5.60553633 C94.1392758,5.60553633 95.1337047,5.93771626 95.7966574,6.56055363 C96.45961,7.183391 96.7910864,8.1384083 96.7910864,9.38408304 L96.7910864,18.3529412 C96.7910864,18.6020761 96.6667827,18.7266436 96.4181755,18.7266436 L95.920961,18.7266436 C95.6723538,18.7266436 95.5480501,18.6020761 95.5480501,18.3529412 L95.4651811,17.2733564 C94.0978412,18.4359862 92.6890669,19.017301 91.2388579,19.017301 Z M91.4045961,17.6885813 C91.9846797,17.6885813 92.6476323,17.5640138 93.310585,17.3148789 C94.0149721,17.0657439 94.6779248,16.6920415 95.382312,16.1937716 L95.382312,13.0380623 C94.3464485,12.7474048 93.310585,12.5813149 92.316156,12.5813149 C90.1201253,12.5813149 89.0428273,13.4948097 89.0428273,15.3217993 C89.0428273,16.1107266 89.25,16.6920415 89.6229109,17.1072664 C90.0786908,17.4809689 90.6587744,17.6885813 91.4045961,17.6885813 Z" id="Shape"></path>
                <path d="M104.912256,19.017301 C103.089136,19.017301 101.721797,18.4359862 100.768802,17.3148789 C99.8158078,16.1937716 99.3600279,14.532872 99.3600279,12.3737024 C99.3600279,10.2145329 99.8572423,8.55363322 100.810237,7.43252595 C101.763231,6.31141869 103.172006,5.73010381 104.953691,5.73010381 C105.823816,5.73010381 106.652507,5.89619377 107.439763,6.2283737 C107.646936,6.31141869 107.729805,6.47750865 107.729805,6.76816609 L107.729805,7.14186851 C107.729805,7.34948097 107.646936,7.47404844 107.439763,7.47404844 C107.398329,7.47404844 107.31546,7.47404844 107.274025,7.43252595 C107.191156,7.43252595 107.108287,7.39100346 106.942549,7.34948097 C106.321031,7.183391 105.699513,7.10034602 105.077994,7.10034602 C103.586351,7.10034602 102.509053,7.51557093 101.8461,8.34602076 C101.183148,9.17647059 100.851671,10.4636678 100.851671,12.2906574 L100.851671,12.5813149 C100.851671,14.3252595 101.183148,15.6124567 101.8461,16.4844291 C102.509053,17.3148789 103.586351,17.7301038 105.03656,17.7301038 C105.658078,17.7301038 106.321031,17.6055363 107.066852,17.3979239 C107.232591,17.3564014 107.356894,17.3148789 107.439763,17.3148789 C107.522632,17.3148789 107.564067,17.2733564 107.605501,17.2733564 C107.812674,17.2733564 107.895543,17.3979239 107.895543,17.6055363 L107.895543,17.9792388 C107.895543,18.2698962 107.812674,18.4359862 107.646936,18.5190311 C106.735376,18.8096886 105.865251,19.017301 104.912256,19.017301 Z" id="Path"></path>
                <path d="M114.815111,19.100346 C112.950557,19.100346 111.541783,18.5190311 110.588788,17.3979239 C109.635794,16.2768166 109.180014,14.5743945 109.180014,12.3321799 C109.180014,10.2145329 109.635794,8.55363322 110.588788,7.39100346 C111.541783,6.2283737 112.867688,5.64705882 114.566504,5.64705882 C115.975279,5.64705882 117.094011,6.10380623 117.839833,6.97577855 C118.585655,7.84775087 119,9.09342561 119,10.7543253 C119,11.4186851 118.958565,11.916955 118.917131,12.2906574 C118.875696,12.5397924 118.751393,12.6643599 118.502786,12.6643599 L110.547354,12.6643599 C110.547354,14.449827 110.920265,15.7370242 111.624652,16.6089965 C112.329039,17.4394464 113.406337,17.8546713 114.897981,17.8546713 C116.016713,17.8546713 117.094011,17.6470588 118.129875,17.2318339 C118.337047,17.1487889 118.461351,17.1072664 118.54422,17.1072664 C118.627089,17.1072664 118.668524,17.1487889 118.709958,17.1903114 C118.751393,17.2318339 118.792827,17.3148789 118.792827,17.3979239 L118.792827,17.7716263 C118.792827,18.0622837 118.709958,18.2283737 118.54422,18.3114187 C117.384053,18.8096886 116.141017,19.100346 114.815111,19.100346 Z M117.715529,11.4186851 C117.715529,11.1695502 117.756964,10.9204152 117.756964,10.5882353 C117.756964,9.38408304 117.466922,8.47058824 116.928273,7.84775087 C116.389624,7.22491349 115.560933,6.89273356 114.52507,6.89273356 C112.038997,6.89273356 110.754526,8.38754325 110.588788,11.4186851 L117.715529,11.4186851 Z" id="Shape"></path>
            </g>
            <g id="Group" transform="translate(0.000000, 2.000000)">
                <ellipse id="Oval" fill="#59595C" cx="5.66197183" cy="19.3051181" rx="1.73239437" ry="1.69488189"></ellipse>
                <ellipse id="Oval" fill="#59595C" cx="15.6338028" cy="19.3051181" rx="1.73239437" ry="1.69488189"></ellipse>
                <polygon id="Path" fill="#59595C" points="27 3.51377953 19.2253521 3.51377953 16.1408451 13.8484252 4.90140845 13.8484252 2.95774648 7.77165354 0 7.77165354 3.08450704 16.8248031 17.9577465 16.8248031 21.4647887 5.82874016 27 5.82874016"></polygon>
                <g transform="translate(3.295775, 0.000000)" id="Path">
                    <g transform="translate(7.605634, 0.000000)">
                        <polygon fill="#00A5CB" points="0 5.37401575 3.38028169 6.90354331 6.71830986 1.65354331 0 1.65354331"></polygon>
                        <polygon fill="#008EBA" points="6.71830986 5.37401575 3.38028169 6.90354331 3.38028169 1.65354331 6.71830986 1.65354331"></polygon>
                        <polygon fill="#36C1DA" points="3.38028169 0 0 1.65354331 3.38028169 3.14173228 6.71830986 1.65354331"></polygon>
                    </g>
                    <g>
                        <polygon fill="#F17C22" points="0 5.37401575 3.38028169 6.90354331 6.71830986 1.65354331 0 1.65354331"></polygon>
                        <polygon fill="#E66024" points="6.71830986 5.37401575 3.38028169 6.90354331 3.38028169 1.65354331 6.71830986 1.65354331"></polygon>
                        <polygon fill="#F7972A" points="3.38028169 0 0 1.65354331 3.38028169 3.14173228 6.71830986 1.65354331"></polygon>
                    </g>
                    <g transform="translate(3.802817, 6.118110)">
                        <polygon fill="#1D66B0" points="0 5.37401575 3.38028169 6.90354331 6.71830986 1.52952756 0 1.52952756"></polygon>
                        <polygon fill="#13509F" points="6.71830986 5.37401575 3.38028169 6.90354331 3.38028169 1.52952756 6.71830986 1.52952756"></polygon>
                        <polygon fill="#177EBC" points="3.38028169 0 6.71830986 1.52952756 3.38028169 3.14173228 0 1.52952756"></polygon>
                    </g>
                </g>
            </g>
        </g>
    </g>
</svg>