<svg width="48" height="48" viewBox="0 0 48 48" fill="none" xmlns="http://www.w3.org/2000/svg">
<path d="M42.8571 0H5.14286C2.30254 0 0 2.30254 0 5.14286V42.8571C0 45.6975 2.30254 48 5.14286 48H42.8571C45.6975 48 48 45.6975 48 42.8571V5.14286C48 2.30254 45.6975 0 42.8571 0Z" fill="url(#paint0_linear_9_136)"/>
<path d="M40.5 8.25V14.25H39V10.0605L34.2803 14.7803L33.2197 13.7197L37.9395 9H33.8438V7.5H39.75C40.1648 7.5 40.5 7.836 40.5 8.25ZM9 14.1563H7.5V8.25C7.5 7.836 7.83525 7.5 8.25 7.5H14.25V9H10.0605L14.7803 13.7197L13.7197 14.7803L9 10.0605V14.1563ZM14.7803 34.2803L10.0605 39H14.1563V40.5H8.25C7.83525 40.5 7.5 40.164 7.5 39.75V33.75H9V37.9395L13.7197 33.2197L14.7803 34.2803ZM38.625 23.8357C38.625 22.014 36.4755 20.199 32.8747 18.9803L33.3555 17.5598C37.6575 19.0155 40.125 21.303 40.125 23.8357C40.125 26.3685 37.6575 28.656 33.3555 30.1125L32.8747 28.6913C36.4755 27.4733 38.625 25.6575 38.625 23.8357ZM9.40725 23.8357C9.40725 25.5787 11.418 27.345 14.7863 28.5607L14.2762 29.9707C10.2292 28.5105 7.90725 26.2747 7.90725 23.8357C7.90725 21.3975 10.2292 19.161 14.2762 17.7008L14.7863 19.1115C11.418 20.3272 9.40725 22.0935 9.40725 23.8357ZM39 33.8438H40.5V39.75C40.5 40.164 40.1648 40.5 39.75 40.5H33.75V39H37.9395L33.2197 34.2803L34.2803 33.2197L39 37.9395V33.8438ZM24.0165 23.5515C20.2493 23.5515 18.0945 22.5442 18 22.1122V19.6927C19.6193 20.4495 22.2068 20.6948 24 20.6948C25.7933 20.6948 28.3808 20.4495 30 19.6927V22.1122C29.9205 22.5427 27.7883 23.5515 24.0165 23.5515ZM24.0165 27.8475C20.2493 27.8475 18.0945 26.8395 18 26.4075V23.967C19.4648 24.7028 21.7913 25.0515 24.0165 25.0515C26.2298 25.0515 28.5413 24.7035 30 23.97V26.4075C29.9205 26.8388 27.789 27.8475 24.0165 27.8475ZM24 31.701C20.2125 31.701 18.078 30.6877 18 30.2595V28.2623C19.4648 28.9988 21.7913 29.3475 24.0165 29.3475C26.2298 29.3475 28.5413 28.9995 30 28.2652V30.2565C29.922 30.6878 27.7875 31.701 24 31.701ZM24 16.6447C27.7283 16.6447 29.7315 17.5275 29.9865 17.9205C29.7315 18.3127 27.7283 19.1948 24 19.1948C20.1818 19.1948 18.1748 18.2708 18 17.9618V17.9475C18.1748 17.5695 20.1818 16.6447 24 16.6447ZM24 15.1447C21.2145 15.1447 16.5 15.7297 16.5 17.9205V30.2595C16.5 32.2807 20.388 33.201 24 33.201C27.612 33.201 31.5 32.2807 31.5 30.2595V17.9205C31.5 15.7297 26.7855 15.1447 24 15.1447Z" fill="white"/>
<defs>
<linearGradient id="paint0_linear_9_136" x1="0" y1="48" x2="48" y2="0" gradientUnits="userSpaceOnUse">
<stop stop-color="#2E27AD"/>
<stop offset="1" stop-color="#527FFF"/>
</linearGradient>
</defs>
</svg>
