<svg width="48" height="48" viewBox="0 0 48 48" fill="none" xmlns="http://www.w3.org/2000/svg">
<path d="M42 0H6C2.68629 0 0 2.68629 0 6V42C0 45.3137 2.68629 48 6 48H42C45.3137 48 48 45.3137 48 42V6C48 2.68629 45.3137 0 42 0Z" fill="url(#paint0_linear_9_109)"/>
<path fill-rule="evenodd" clip-rule="evenodd" d="M16.5 12H18.75V10.5H16.5V12ZM13.5 12H15.75V10.5H13.5V12ZM10.5 12H12.75V10.5H10.5V12ZM9 13.5H39V9H9V13.5ZM39.75 7.5H8.25C7.83525 7.5 7.5 7.836 7.5 8.25V39.75C7.5 40.164 7.83525 40.5 8.25 40.5H27.75V39H9V15H39V39H35.25V40.5H39.75C40.1647 40.5 40.5 40.164 40.5 39.75V8.25C40.5 7.836 40.1647 7.5 39.75 7.5ZM24 29.8628C22.3613 29.8628 21.0285 28.53 21.0285 26.8912C21.0285 25.2525 22.3613 23.9205 24 23.9205C25.6387 23.9205 26.9715 25.2525 26.9715 26.8912C26.9715 28.53 25.6387 29.8628 24 29.8628ZM24 22.4205C21.5348 22.4205 19.5285 24.426 19.5285 26.8912C19.5285 29.3572 21.5348 31.3628 24 31.3628C26.4652 31.3628 28.4715 29.3572 28.4715 26.8912C28.4715 24.426 26.4652 22.4205 24 22.4205ZM32.5522 27.9465L31.8015 27.9038C31.4603 27.879 31.1085 28.1288 31.0275 28.4873C30.8475 29.2845 30.5348 30.0398 30.0975 30.7335C29.9018 31.0433 29.9588 31.449 30.2325 31.6935L30.7935 32.193L29.3018 33.6847L28.8037 33.1267C28.5592 32.8522 28.1528 32.7967 27.8438 32.9917C27.1507 33.4297 26.394 33.7432 25.5952 33.9232C25.2375 34.0042 24.9907 34.332 25.0125 34.698L25.0545 35.4442H22.9455L22.9875 34.6973C23.0092 34.3305 22.7625 34.0035 22.4047 33.9225C21.6082 33.7425 20.8523 33.429 20.1578 32.9902C19.8488 32.7952 19.4408 32.85 19.1978 33.1252L18.6982 33.6855L17.2065 32.193L17.766 31.695C18.0397 31.4505 18.0968 31.0448 17.901 30.7343C17.4638 30.0428 17.151 29.2868 16.971 28.4873C16.89 28.1288 16.542 27.879 16.197 27.9038L15.4478 27.9465V25.8368L16.2 25.8795C16.56 25.8938 16.8915 25.6538 16.974 25.2968C17.154 24.501 17.4675 23.7465 17.9055 23.0535C18.1013 22.7438 18.0443 22.3373 17.7705 22.0935L17.2065 21.5895L18.6982 20.0978L19.2015 20.661C19.4445 20.9348 19.8525 20.991 20.1608 20.7968C20.853 20.3603 21.6075 20.0475 22.404 19.8682C22.7625 19.7872 23.0092 19.4595 22.9875 19.0935L22.9455 18.339H25.0545L25.0125 19.0942C24.9907 19.4602 25.2375 19.788 25.5952 19.8682C26.391 20.0482 27.1455 20.361 27.8378 20.7975C28.1453 20.9925 28.5525 20.937 28.797 20.6625L29.301 20.0978L30.7935 21.5895L30.231 22.092C29.9572 22.3357 29.9002 22.7415 30.096 23.052C30.5332 23.7443 30.8467 24.4995 31.0267 25.296C31.1077 25.6538 31.4603 25.8938 31.8008 25.8795L32.5522 25.8368V27.9465ZM33.2603 24.294L32.3265 24.3465C32.163 23.8125 31.9493 23.2973 31.686 22.8038L32.385 22.1805C32.5388 22.0432 32.6295 21.8483 32.6355 21.642C32.6407 21.4358 32.5613 21.2363 32.4158 21.0908L29.8005 18.4755C29.655 18.3293 29.4653 18.2445 29.2493 18.2565C29.043 18.2625 28.848 18.3525 28.7107 18.507L28.0845 19.2083C27.5925 18.9458 27.078 18.732 26.5448 18.5693L26.5973 17.631C26.6093 17.4255 26.5358 17.2237 26.3933 17.0737C26.2523 16.9237 26.055 16.839 25.8488 16.839H22.1512C21.945 16.839 21.7478 16.9237 21.6068 17.0737C21.4643 17.2237 21.3908 17.4255 21.4028 17.631L21.4553 18.5685C20.922 18.7312 20.406 18.9442 19.914 19.2067L19.2892 18.507C19.152 18.3525 18.957 18.2625 18.7507 18.2565C18.5392 18.2467 18.3458 18.3293 18.1995 18.4755L15.5842 21.0908C15.4387 21.2363 15.3593 21.4358 15.3645 21.642C15.3705 21.8483 15.4612 22.0432 15.615 22.1805L16.3155 22.8052C16.0522 23.298 15.8377 23.8133 15.675 24.3473L14.7397 24.294C14.532 24.285 14.331 24.3562 14.1825 24.4972C14.0325 24.639 13.9478 24.8362 13.9478 25.0425V28.74C13.9478 28.9462 14.0325 29.1435 14.1825 29.2853C14.331 29.427 14.5327 29.499 14.7397 29.4893L15.6713 29.436C15.8333 29.9715 16.0477 30.4883 16.311 30.9825L15.6157 31.602C15.4612 31.7393 15.3705 31.9343 15.3645 32.1405C15.3593 32.3468 15.4387 32.547 15.5842 32.6925L18.1995 35.307C18.345 35.4533 18.537 35.5327 18.7507 35.5267C18.957 35.5207 19.152 35.43 19.2892 35.2762L19.9095 34.5802C20.4037 34.8442 20.9213 35.0588 21.4553 35.2215L21.4028 36.1515C21.3908 36.3577 21.4643 36.5595 21.6068 36.7087C21.7478 36.8595 21.945 36.9442 22.1512 36.9442H25.8488C26.055 36.9442 26.2523 36.8595 26.3933 36.7087C26.5358 36.5595 26.6093 36.3577 26.5973 36.1515L26.5448 35.223C27.0795 35.0603 27.5978 34.8458 28.092 34.5818L28.7107 35.2762C28.848 35.43 29.043 35.5207 29.2493 35.5267C29.4675 35.5342 29.655 35.4533 29.8005 35.307L32.4158 32.6925C32.5613 32.547 32.6407 32.3468 32.6355 32.1405C32.6295 31.9343 32.5388 31.7393 32.385 31.602L31.6875 30.981C31.9508 30.4867 32.1645 29.97 32.3273 29.436L33.2603 29.4893C33.4643 29.4983 33.6683 29.427 33.8175 29.2853C33.9675 29.1435 34.0522 28.9462 34.0522 28.74V25.0425C34.0522 24.8362 33.9675 24.639 33.8175 24.4972C33.6683 24.3562 33.465 24.285 33.2603 24.294Z" fill="white"/>
<defs>
<linearGradient id="paint0_linear_9_109" x1="0" y1="48" x2="48" y2="0" gradientUnits="userSpaceOnUse">
<stop stop-color="#B0084D"/>
<stop offset="1" stop-color="#FF4F8B"/>
</linearGradient>
</defs>
</svg>
