<svg width="48" height="48" viewBox="0 0 48 48" fill="none" xmlns="http://www.w3.org/2000/svg">
<path d="M42.8571 0H5.14286C2.30254 0 0 2.30254 0 5.14286V42.8571C0 45.6975 2.30254 48 5.14286 48H42.8571C45.6975 48 48 45.6975 48 42.8571V5.14286C48 2.30254 45.6975 0 42.8571 0Z" fill="url(#paint0_linear_9_108)"/>
<path fill-rule="evenodd" clip-rule="evenodd" d="M23.8861 7.83539C24.0325 7.78695 24.1909 7.78825 24.3365 7.83908L37.2307 12.3391C37.516 12.4387 37.7052 12.7101 37.6999 13.0122C37.6947 13.3144 37.4961 13.579 37.2075 13.6686L24.3133 17.6686C24.1816 17.7094 24.0407 17.7105 23.9085 17.6716L10.3026 13.6716C10.0088 13.5852 9.80527 13.3179 9.80015 13.0117C9.79502 12.7055 9.98951 12.4316 10.2802 12.3354L23.8861 7.83539ZM12.8481 12.9607L24.1005 16.2688L34.7636 12.9609L24.0998 9.23928L12.8481 12.9607ZM9.09558 15.1823C9.28093 15.0511 9.51843 15.0179 9.73263 15.0934L22.8567 19.7166C23.1368 19.8152 23.3241 20.0799 23.3241 20.3768V39.5C23.3241 39.7288 23.2123 39.9432 23.0245 40.0742C22.8368 40.2051 22.597 40.2359 22.3822 40.1569L9.25814 35.3235C8.9829 35.2222 8.80005 34.96 8.80005 34.6667V15.7536C8.80005 15.5265 8.91022 15.3135 9.09558 15.1823ZM38.9045 15.1823C39.0899 15.3135 39.2001 15.5265 39.2001 15.7536V34.6667C39.2001 34.96 39.0172 35.2222 38.742 35.3235L25.6179 40.1569C25.4031 40.2359 25.1633 40.2051 24.9755 40.0742C24.7878 39.9432 24.676 39.7288 24.676 39.5V20.3768C24.676 20.0799 24.8633 19.8152 25.1434 19.7166L38.2675 15.0934C38.4817 15.0179 38.7192 15.0511 38.9045 15.1823ZM10.2 16.7424V34.1785L21.9241 38.4962V20.8724L10.2 16.7424ZM26.076 20.8724V38.4962L37.8 34.1785V16.7424L26.076 20.8724Z" fill="white"/>
<defs>
<linearGradient id="paint0_linear_9_108" x1="0" y1="48" x2="48" y2="0" gradientUnits="userSpaceOnUse">
<stop stop-color="#C8511B"/>
<stop offset="1" stop-color="#FF9900"/>
</linearGradient>
</defs>
</svg>
