<svg width="48" height="48" viewBox="0 0 48 48" fill="none" xmlns="http://www.w3.org/2000/svg">
<path d="M42 0H6C2.68629 0 0 2.68629 0 6V42C0 45.3137 2.68629 48 6 48H42C45.3137 48 48 45.3137 48 42V6C48 2.68629 45.3137 0 42 0Z" fill="#232F3E"/>
<path fill-rule="evenodd" clip-rule="evenodd" d="M16.0012 20.9383C16.0012 21.3838 16.0493 21.745 16.1336 22.0099C16.2299 22.2748 16.3504 22.5638 16.5189 22.8768C16.5791 22.9731 16.6032 23.0694 16.6032 23.1537C16.6032 23.2741 16.531 23.3945 16.3745 23.5149L15.6159 24.0205C15.5075 24.0928 15.3992 24.1289 15.3029 24.1289C15.1825 24.1289 15.0621 24.0688 14.9417 23.9604C14.7732 23.7798 14.6287 23.5871 14.5083 23.3945C14.3878 23.1897 14.2675 22.961 14.135 22.6841C13.1958 23.7918 12.016 24.3456 10.5953 24.3456C9.58397 24.3456 8.77728 24.0566 8.18735 23.4787C7.59743 22.9008 7.29639 22.1302 7.29639 21.167C7.29639 20.1436 7.65759 19.3129 8.39207 18.6868C9.12654 18.0607 10.1018 17.7477 11.3418 17.7477C11.7511 17.7477 12.1726 17.7838 12.6181 17.8441C13.0636 17.9042 13.5211 18.0005 14.0026 18.1089V17.23C14.0026 16.3149 13.81 15.6769 13.4367 15.3036C13.0514 14.9304 12.4013 14.7498 11.4742 14.7498C11.0528 14.7498 10.6194 14.7979 10.1739 14.9063C9.72841 15.0147 9.29498 15.147 8.8736 15.3156C8.68095 15.3999 8.53651 15.448 8.45223 15.4721C8.36796 15.4962 8.30779 15.5081 8.25957 15.5081C8.09102 15.5081 8.00675 15.3877 8.00675 15.1349V14.545C8.00675 14.3523 8.03086 14.2079 8.09102 14.1236C8.15119 14.0393 8.25957 13.955 8.42812 13.8708C8.8495 13.654 9.35525 13.4734 9.94517 13.329C10.5352 13.1725 11.1612 13.1002 11.8234 13.1002C13.2562 13.1002 14.3037 13.4253 14.9779 14.0755C15.6401 14.7257 15.9772 15.7129 15.9772 17.0373V20.9382H16.0013L16.0012 20.9383ZM11.113 22.7684C11.5103 22.7684 11.9197 22.6961 12.3531 22.5517C12.7865 22.4073 13.1718 22.1424 13.4969 21.7812C13.6895 21.5525 13.834 21.2995 13.9063 21.0107C13.9785 20.7217 14.0266 20.3725 14.0266 19.9632V19.4575C13.6775 19.3733 13.3042 19.301 12.919 19.2528C12.5337 19.2047 12.1605 19.1806 11.7873 19.1806C10.9806 19.1806 10.3907 19.3371 9.99329 19.6623C9.59591 19.9873 9.40336 20.4448 9.40336 21.0468C9.40336 21.6127 9.5478 22.0341 9.84885 22.323C10.1378 22.624 10.5592 22.7685 11.1131 22.7685L11.113 22.7684ZM20.781 24.0687C20.5642 24.0687 20.4198 24.0326 20.3234 23.9482C20.2271 23.876 20.1428 23.7074 20.0706 23.4786L17.2412 14.1718C17.169 13.931 17.1328 13.7745 17.1328 13.6903C17.1328 13.4976 17.2292 13.3892 17.4218 13.3892H18.6018C18.8305 13.3892 18.9871 13.4254 19.0714 13.5097C19.1677 13.5819 19.2399 13.7504 19.3122 13.9793L21.3349 21.9496L23.2131 13.9793C23.2733 13.7385 23.3455 13.5819 23.4418 13.5097C23.5382 13.4374 23.7067 13.3892 23.9235 13.3892H24.8867C25.1154 13.3892 25.272 13.4254 25.3683 13.5097C25.4646 13.5819 25.5489 13.7504 25.597 13.9793L27.4993 22.0459L29.5823 13.9793C29.6545 13.7385 29.7388 13.5819 29.823 13.5097C29.9194 13.4374 30.0759 13.3892 30.2926 13.3892H31.4123C31.605 13.3892 31.7133 13.4856 31.7133 13.6903C31.7133 13.7504 31.7013 13.8107 31.6892 13.8829C31.6772 13.9551 31.6531 14.0515 31.605 14.184L28.7034 23.4908C28.6311 23.7316 28.5469 23.888 28.4505 23.9604C28.3542 24.0326 28.1977 24.0808 27.993 24.0808H26.9576C26.7288 24.0808 26.5723 24.0446 26.4759 23.9604C26.3796 23.8761 26.2953 23.7196 26.2472 23.4787L24.381 15.713L22.5269 23.4667C22.4667 23.7074 22.3944 23.8639 22.298 23.9482C22.2017 24.0325 22.0332 24.0687 21.8165 24.0687H20.7811H20.781ZM36.2522 24.3937C35.6261 24.3937 35.0001 24.3215 34.3981 24.177C33.7961 24.0326 33.3265 23.876 33.0135 23.6954C32.8209 23.587 32.6885 23.4667 32.6403 23.3583C32.5921 23.2499 32.568 23.1296 32.568 23.0212V22.4072C32.568 22.1543 32.6644 22.0339 32.845 22.0339C32.9172 22.0339 32.9894 22.0459 33.0616 22.0701C33.1339 22.0942 33.2422 22.1423 33.3627 22.1905C33.772 22.3711 34.2175 22.5155 34.6871 22.6119C35.1687 22.7082 35.6382 22.7563 36.1198 22.7563C36.8783 22.7563 37.4684 22.6238 37.8777 22.3589C38.287 22.0941 38.5038 21.7087 38.5038 21.2151C38.5038 20.8781 38.3954 20.6011 38.1787 20.3724C37.9619 20.1436 37.5526 19.939 36.9627 19.7463L35.2169 19.2045C34.338 18.9276 33.6878 18.5183 33.2906 17.9764C32.8933 17.4467 32.6886 16.8568 32.6886 16.2307C32.6886 15.725 32.797 15.2795 33.0136 14.8942C33.2303 14.5089 33.5193 14.1718 33.8805 13.9069C34.2417 13.63 34.651 13.4254 35.1327 13.2808C35.6143 13.1363 36.12 13.0761 36.6497 13.0761C36.9146 13.0761 37.1915 13.0882 37.4564 13.1242C37.7333 13.1604 37.9862 13.2085 38.239 13.2566C38.4798 13.3168 38.7086 13.3771 38.9252 13.4493C39.1419 13.5215 39.3106 13.5937 39.4309 13.666C39.5994 13.7624 39.7199 13.8587 39.7921 13.967C39.8643 14.0633 39.9005 14.1958 39.9005 14.3644V14.9303C39.9005 15.1831 39.8042 15.3156 39.6235 15.3156C39.5272 15.3156 39.3707 15.2674 39.166 15.171C38.4798 14.8581 37.7091 14.7015 36.8543 14.7015C36.1681 14.7015 35.6263 14.8098 35.253 15.0386C34.8797 15.2673 34.6871 15.6164 34.6871 16.1101C34.6871 16.4472 34.8075 16.7362 35.0483 16.9649C35.289 17.1936 35.7345 17.4225 36.3727 17.6271L38.0824 18.1689C38.9492 18.4458 39.5753 18.8311 39.9486 19.3247C40.3219 19.8183 40.5025 20.3842 40.5025 21.0103C40.5025 21.528 40.3941 21.9976 40.1895 22.4069C39.9727 22.8164 39.6838 23.1775 39.3106 23.4665C38.9373 23.7674 38.4918 23.9842 37.9741 24.1407C37.4323 24.3092 36.8665 24.3935 36.2523 24.3935L36.2522 24.3937Z" fill="white"/>
<path fill-rule="evenodd" clip-rule="evenodd" d="M38.5279 30.2452C34.5667 33.171 28.8116 34.7241 23.8633 34.7241C16.9282 34.7241 10.6796 32.1596 5.95993 27.8975C5.58667 27.5604 5.92388 27.1029 6.36936 27.3677C11.4743 30.3295 17.7712 32.1235 24.2847 32.1235C28.6792 32.1235 33.5072 31.2084 37.95 29.3302C38.6121 29.0291 39.1781 29.7636 38.5279 30.2452Z" fill="#FF9900"/>
<path fill-rule="evenodd" clip-rule="evenodd" d="M40.1772 28.367C39.6716 27.7168 36.8301 28.0539 35.5419 28.2105C35.1566 28.2586 35.0964 27.9215 35.4456 27.6687C37.7091 26.0794 41.4294 26.5369 41.8628 27.0667C42.2963 27.6085 41.7424 31.3289 39.6235 33.1107C39.2984 33.3876 38.9853 33.2432 39.1299 32.882C39.6115 31.69 40.683 29.0051 40.1773 28.367H40.1772Z" fill="#FF9900"/>
</svg>
