<svg width="48" height="48" viewBox="0 0 48 48" fill="none" xmlns="http://www.w3.org/2000/svg">
<path d="M42 0H6C2.68629 0 0 2.68629 0 6V42C0 45.3137 2.68629 48 6 48H42C45.3137 48 48 45.3137 48 42V6C48 2.68629 45.3137 0 42 0Z" fill="url(#paint0_linear_9_131)"/>
<path d="M27.1599 12.0085H25.6476V10.5042H27.1599V9H28.6722V10.5042H30.1845V12.0085H28.6722V13.5127H27.1599V12.0085ZM33.9653 18.0255H32.4529V16.5212H33.9653V15.017H35.4776V16.5212H36.9899V18.0255H35.4776V18.7776V19.5297H33.9653V18.7776V18.0255ZM31.3898 35.0055C30.2684 32.5362 28.028 30.3084 25.5455 29.193C28.028 28.0776 30.2684 25.8491 31.3898 23.3799C32.5104 25.8491 34.7509 28.0776 37.2333 29.193C34.7509 30.3084 32.5104 32.5362 31.3898 35.0055ZM40.4938 28.4409C36.5929 28.4409 32.146 24.0169 32.146 20.1375C32.146 19.7215 31.8072 19.3853 31.3898 19.3853C30.9717 19.3853 30.6337 19.7215 30.6337 20.1375C30.6337 24.0169 26.1867 28.4409 22.2858 28.4409C21.8676 28.4409 21.5296 28.7771 21.5296 29.193C21.5296 29.6082 21.8676 29.9452 22.2858 29.9452C26.1867 29.9452 30.6337 34.3684 30.6337 38.2479C30.6337 38.663 30.9717 39 31.3898 39C31.8072 39 32.146 38.663 32.146 38.2479C32.146 34.3684 36.5929 29.9452 40.4938 29.9452C40.912 29.9452 41.25 29.6082 41.25 29.193C41.25 28.7771 40.912 28.4409 40.4938 28.4409ZM16.9519 13.5127C22.0892 13.5127 24.8915 15.0035 24.8915 15.7691C24.8915 16.5348 22.0892 18.0255 16.9519 18.0255C11.8146 18.0255 9.0123 16.5348 9.0123 15.7691C9.0123 15.0035 11.8146 13.5127 16.9519 13.5127ZM16.6895 24.8751C12.9299 24.8751 10.2237 24.0778 9.0123 23.2332V17.8976C10.787 18.9724 13.8774 19.5297 16.9519 19.5297C20.0264 19.5297 23.1168 18.9724 24.8915 17.8976V22.7609C24.13 23.8154 20.9564 24.8751 16.6895 24.8751ZM24.8915 34.4812C24.8915 35.5575 21.7973 37.1212 16.9489 37.1212C12.1042 37.1212 9.0123 35.5575 9.0123 34.4812V31.1756C10.7053 32.1918 13.5227 32.8198 16.719 32.8198C18.9254 32.8198 21.0585 32.5099 22.7258 31.9458L22.2381 30.5221C20.7243 31.0335 18.7636 31.3155 16.719 31.3155C12.6758 31.3155 9.77979 30.2641 9.0123 29.2449V24.9654C10.8203 25.8476 13.5968 26.3793 16.6895 26.3793C19.6302 26.3793 22.9451 25.8356 24.8915 24.6773V26.2989H26.4038V15.7691C26.4038 13.2999 21.6491 12.0085 16.9519 12.0085C12.2547 12.0085 7.5 13.2999 7.5 15.7691V34.4812C7.5 37.1731 12.3681 38.6254 16.9489 38.6254C21.5326 38.6254 26.4038 37.1731 26.4038 34.4812V32.3159H24.8915V34.4812Z" fill="white"/>
<defs>
<linearGradient id="paint0_linear_9_131" x1="0" y1="48" x2="48" y2="0" gradientUnits="userSpaceOnUse">
<stop stop-color="#2E27AD"/>
<stop offset="1" stop-color="#527FFF"/>
</linearGradient>
</defs>
</svg>
