<svg width="744" height="72" viewBox="0 0 744 72" fill="none" xmlns="http://www.w3.org/2000/svg">
<path d="M548.83 24.6752C543.635 24.6752 539.407 28.9214 539.407 34.1414C539.407 39.3614 543.635 43.6076 548.83 43.6076C554.025 43.6076 558.251 39.3614 558.251 34.1414C558.251 28.9214 554.025 24.6752 548.83 24.6752V24.6752ZM548.83 39.1213C546.098 39.1213 543.872 36.8848 543.872 34.1414C543.872 31.3967 546.098 29.1615 548.83 29.1615C551.56 29.1615 553.787 31.3967 553.787 34.1414C553.787 36.886 551.561 39.1213 548.829 39.1213H548.83ZM521.081 32.2243L519.434 31.3979C518.718 31.042 518.27 30.7666 518.089 30.5631C517.917 30.3827 517.819 30.1443 517.815 29.8952C517.815 29.5759 517.959 29.3065 518.242 29.0969C518.522 28.8775 518.92 28.7776 519.426 28.7776C520.351 28.7776 521.376 29.3358 522.505 30.4607L525.286 27.6661C524.603 26.7355 523.709 25.9796 522.678 25.4601C521.66 24.9481 520.536 24.6842 519.397 24.6898C517.699 24.6898 516.298 25.1907 515.206 26.1999C514.115 27.209 513.566 28.4217 513.566 29.844C513.566 32.05 515.011 33.8879 517.909 35.3467L519.426 36.1085C520.734 36.7703 521.385 37.4442 521.385 38.1414C521.385 38.5192 521.203 38.8458 520.842 39.1359C520.482 39.4272 520.004 39.5649 519.412 39.5649C518.863 39.5649 518.234 39.376 517.526 38.9921C516.821 38.6143 516.193 38.1065 515.676 37.4954L512.909 40.5229C514.469 42.5704 516.55 43.6015 519.165 43.6015C521.131 43.6015 522.7 43.064 523.863 41.9963C525.033 40.9299 525.618 39.5942 525.618 37.9963C525.618 36.7983 525.293 35.7465 524.65 34.8531C524 33.9598 522.808 33.0896 521.081 32.2255V32.2243ZM493.103 41.5454V25.0518H488.63V26.156C487.123 25.1873 485.369 24.6732 483.577 24.6752C478.383 24.6752 474.156 28.9214 474.156 34.1414C474.156 39.3614 478.383 43.6076 483.579 43.6076C485.349 43.6102 487.083 43.1093 488.579 42.1633C488.579 42.3083 488.572 42.4388 488.572 42.5265C488.572 45.27 486.346 47.5064 483.615 47.5064C482.686 47.5043 481.777 47.2398 480.992 46.7435L478.78 50.635C480.239 51.5247 481.914 51.9969 483.622 52C488.818 52 493.103 47.7526 493.103 42.5326C493.103 42.3303 493.117 41.7343 493.103 41.5454V41.5454ZM483.579 39.12C480.849 39.12 478.622 36.8848 478.622 34.1414C478.622 31.3967 480.847 29.1615 483.579 29.1615C486.31 29.1615 488.535 31.3967 488.535 34.1414C488.535 36.8848 486.31 39.1213 483.579 39.1213V39.12ZM510.92 25.0457H506.426V34.0451C506.433 35.3236 506.433 37.5308 505.494 38.4741C505.046 38.9238 504.555 39.3309 503.521 39.3309C502.48 39.3309 501.989 38.9238 501.542 38.4741C500.602 37.5296 500.61 35.3163 500.616 34.0451V25.0457H496.122V34.0183C496.108 35.8684 496.086 39.3029 498.34 41.582C499.663 42.9177 501.239 43.6002 503.514 43.6002C505.791 43.6002 507.365 42.925 508.688 41.582C510.942 39.3029 510.92 35.8611 510.906 34.0183L510.92 25.0445V25.0457ZM536.391 38.3157C536.031 38.5911 535.156 39.2017 534.166 39.064C533.357 38.9543 532.7 38.3595 532.599 36.3705V28.908H537.881V25.0311H532.599V20H528.118V20.9872H528.111V35.7831C528.111 38.1353 528.703 43.6002 534.159 43.6002C536.919 43.5576 538.595 42.0548 539.297 41.4674L539.391 41.3943L536.702 38.0695C536.695 38.0756 536.507 38.2279 536.391 38.3157V38.3157Z" fill="#8097A2"/>
<path fill-rule="evenodd" clip-rule="evenodd" d="M257.777 23.3116C257.869 23.1895 257.914 23.0522 257.914 22.8997C257.914 22.6858 257.869 22.3144 257.778 21.7856C257.635 20.9204 257.548 20.3812 257.518 20.1677C257.477 20.0559 257.324 20 257.06 20C256.866 20 256.668 20.0759 256.465 20.2285C256.953 22.1413 257.197 23.1998 257.197 23.4033C257.319 23.454 257.411 23.4793 257.472 23.4793C257.584 23.4793 257.685 23.4236 257.777 23.3116ZM258.968 23.4793C259.497 23.3062 259.919 22.294 260.235 20.4424C259.858 20.2388 259.619 20.1372 259.518 20.1372C259.396 20.1372 259.304 20.1929 259.243 20.3052C259.152 20.8136 259.029 21.4194 258.876 22.1207C258.765 22.6403 258.709 22.9503 258.709 23.0523C258.709 23.1945 258.796 23.337 258.968 23.4793ZM262.86 21.5262C262.86 21.6076 262.718 21.8314 262.433 22.1976C261.364 23.5916 260.779 24.2882 260.678 24.2882C260.596 24.2882 260.5 24.2423 260.387 24.1512C260.285 24.0598 260.235 23.9728 260.235 23.8916C260.235 23.851 260.383 23.6319 260.678 23.2354C261.125 22.6451 261.517 22.0956 261.853 21.587C261.914 21.4953 261.98 21.4035 262.051 21.3122C262.122 21.2107 262.235 21.1596 262.387 21.1596C262.489 21.1596 262.59 21.2004 262.693 21.2818C262.804 21.3633 262.86 21.4447 262.86 21.5262ZM264.524 23.6931C264.524 23.856 264.259 24.0798 263.73 24.3644C262.559 24.9851 261.857 25.2956 261.624 25.2956C261.522 25.2956 261.42 25.2549 261.318 25.1738C261.227 25.092 261.181 25.0109 261.181 24.9295C261.181 24.8378 261.415 24.6598 261.883 24.3949C263.236 23.6422 263.979 23.2657 264.111 23.2657C264.202 23.2657 264.294 23.3115 264.386 23.4033C264.478 23.4946 264.524 23.5916 264.524 23.6931ZM265.042 26.2113C265.042 26.496 264.89 26.6542 264.585 26.6846C264.574 26.6846 264.279 26.7252 263.699 26.8067C263.282 26.8676 262.916 26.8981 262.601 26.8981C262.091 26.8981 261.837 26.7506 261.837 26.4557C261.837 26.2417 262.031 26.1251 262.417 26.1044C262.703 26.0943 263.094 26.0077 263.592 25.8451C264.091 25.672 264.417 25.5857 264.57 25.5857C264.884 25.5858 265.042 25.7942 265.042 26.2113ZM264.89 28.3633L264.829 28.73C264.595 28.8924 264.452 28.9739 264.401 28.9739C264.35 28.9739 264.091 28.8975 263.623 28.7449C262.982 28.5313 262.366 28.348 261.776 28.1954C261.806 27.7684 261.985 27.5545 262.31 27.5545C262.442 27.5545 262.712 27.6308 263.119 27.7834C263.526 27.9257 263.801 27.9969 263.943 27.9969C264.055 27.9969 264.371 28.119 264.89 28.3633ZM256.266 23.8457C256.338 23.7339 256.373 23.6221 256.373 23.5101C256.373 23.3575 256.134 23.0013 255.656 22.4417C254.954 21.3937 254.506 20.8697 254.313 20.8697C254.201 20.8697 254.084 20.9306 253.962 21.0528C253.839 21.175 253.779 21.2973 253.779 21.4194C253.779 21.4597 253.881 21.6377 254.084 21.953C254.358 22.3706 254.699 22.8182 255.106 23.2965C255.524 23.7646 255.839 23.998 256.053 23.998C256.124 23.998 256.195 23.9474 256.266 23.8457ZM264.096 30.8968C264.096 30.9985 264.035 31.1005 263.913 31.2017C263.801 31.2934 263.679 31.3393 263.546 31.3393C263.404 31.3393 263.119 31.1614 262.692 30.8051C261.633 29.9301 261.104 29.4368 261.104 29.3244C261.104 29.2635 261.237 29.0604 261.501 28.714C263.231 29.9049 264.096 30.6324 264.096 30.8968ZM262.219 33.0181C262.351 32.9264 262.417 32.8347 262.417 32.7433C262.417 32.5603 261.985 31.858 261.121 30.6372C260.764 30.1288 260.53 29.8741 260.418 29.8741C260.337 29.8741 260.251 29.9251 260.159 30.0268C260.067 30.1288 260.021 30.2355 260.021 30.3474C260.021 30.3983 260.128 30.6269 260.342 31.0341C260.637 31.5939 260.993 32.1634 261.41 32.7433C261.614 33.0181 261.761 33.1553 261.853 33.1553C261.975 33.1553 262.097 33.1095 262.219 33.0181ZM255.047 24.7378C255.047 24.8393 255.001 24.9362 254.909 25.0275C254.818 25.109 254.721 25.1498 254.619 25.1498C254.548 25.1498 254.115 25.0007 253.687 24.6852C252.65 23.9423 252.049 23.5148 251.886 23.4033C251.907 23.1791 251.978 22.991 252.1 22.8387C252.222 22.6857 252.344 22.6095 252.466 22.6095C252.771 22.6095 253.321 22.9859 254.115 23.7386C254.233 23.8498 254.348 23.9531 254.454 24.0487L254.454 24.0487L254.454 24.0487L254.454 24.0487L254.454 24.0487C254.795 24.3553 255.047 24.5825 255.047 24.7378ZM260.006 28.5314C260.464 28.0531 260.693 27.5034 260.693 26.8827C260.693 26.2521 260.393 25.7029 259.792 25.2348C259.233 24.7971 258.694 24.5785 258.174 24.5785C257.646 24.5785 257.147 24.8177 256.679 25.2956C256.211 25.7736 255.976 26.3079 255.976 26.8982C255.976 27.5596 256.195 28.114 256.633 28.5618C257.081 29.0095 257.655 29.2332 258.358 29.2332C258.999 29.2332 259.548 28.9992 260.006 28.5314ZM258.22 25.7385C259.044 25.8298 259.457 26.2624 259.457 27.0352C259.457 27.3817 259.35 27.6663 259.136 27.8901C258.922 28.104 258.648 28.2104 258.312 28.2104C258.006 28.2104 257.753 28.0989 257.549 27.875C257.345 27.6509 257.243 27.3916 257.243 27.0967C257.243 26.6898 257.33 26.3639 257.504 26.1196C257.686 25.8753 257.925 25.7485 258.22 25.7385ZM254.614 26.7152C254.517 26.8108 254.313 26.8219 254.282 26.8219C253.998 26.8219 253.239 26.6641 252.008 26.349C251.693 26.2675 251.53 26.2267 251.52 26.2267C251.429 26.1758 251.383 26.0536 251.383 25.8602C251.383 25.4127 251.469 25.1889 251.642 25.1889C251.693 25.1889 251.953 25.2802 252.42 25.4633C252.959 25.6771 253.469 25.8298 253.946 25.9211C254.191 25.9622 254.202 25.9655 254.354 26.0287C254.38 26.0394 254.405 26.048 254.428 26.056L254.428 26.056C254.498 26.0808 254.556 26.1012 254.614 26.166C254.755 26.3269 254.766 26.5647 254.614 26.7152ZM259.64 33.9488C259.894 33.9488 260.021 33.7915 260.021 33.4759C260.021 33.4554 259.838 32.6109 259.472 30.9424C259.411 30.668 259.263 30.5304 259.029 30.5304C258.836 30.5304 258.643 30.5866 258.45 30.6984C258.836 32.4279 259.029 33.44 259.029 33.7353V33.7811C259.131 33.8931 259.335 33.9488 259.64 33.9488ZM257.991 30.6984C257.991 30.8917 257.94 31.2073 257.838 31.6446C257.706 32.1735 257.625 32.5603 257.594 32.8046C257.554 33.0995 257.518 33.3893 257.487 33.674C257.436 33.8574 257.315 33.9487 257.121 33.9487C256.724 33.9487 256.526 33.7455 256.526 33.3383C256.526 33.257 256.597 32.9619 256.739 32.453C256.923 31.8327 257.06 31.2579 257.152 30.7288C257.182 30.5354 257.355 30.439 257.671 30.439C257.884 30.439 257.991 30.5257 257.991 30.6984ZM251.78 29.2177C251.872 29.2177 252.899 28.8057 254.862 27.9818V27.4933C254.761 27.3406 254.628 27.2647 254.465 27.2647C254.385 27.2647 254.232 27.3106 254.008 27.4019C253.682 27.5445 253.438 27.6411 253.275 27.6917L252.528 27.936L251.78 28.1803C251.505 28.282 251.367 28.4089 251.367 28.5618C251.367 28.9991 251.505 29.2177 251.78 29.2177ZM256.831 30.2406C256.831 30.3628 256.327 31.0903 255.32 32.4228C254.995 32.8605 254.801 33.079 254.74 33.079C254.435 33.079 254.282 32.9466 254.282 32.6821C254.282 32.5805 254.451 32.2753 254.786 31.7663C255.468 30.7392 255.91 30.0623 256.114 29.737C256.592 29.8488 256.831 30.0165 256.831 30.2406ZM252.71 31.2635C252.924 31.2635 253.906 30.6779 255.656 29.508C255.605 29.0296 255.438 28.7907 255.152 28.7906C254.97 28.7906 254.054 29.3146 252.405 30.3627C252.253 30.4644 252.177 30.6071 252.177 30.7898C252.177 30.9119 252.227 31.0238 252.328 31.1258C252.43 31.2176 252.558 31.2635 252.71 31.2635ZM299.372 41.2261V42.2049C299.372 42.3528 299.355 42.5506 299.317 42.7964C299.292 43.0431 299.213 43.2891 299.076 43.5358C298.941 43.77 298.732 43.9731 298.448 44.1463C298.166 44.3186 297.765 44.4041 297.247 44.4041C297.038 44.4041 296.835 44.386 296.638 44.3488C296.44 44.3124 296.268 44.2507 296.12 44.1637C295.972 44.0657 295.855 43.9359 295.77 43.7763C295.683 43.6165 295.64 43.4189 295.64 43.1848C295.64 42.9381 295.683 42.7356 295.77 42.5751C295.855 42.4147 295.966 42.2849 296.101 42.187C296.249 42.0761 296.416 41.99 296.601 41.9283C296.798 41.8666 296.995 41.8168 297.192 41.7804C297.401 41.7433 297.61 41.7124 297.821 41.6879C298.03 41.6633 298.227 41.6325 298.411 41.5955C298.608 41.559 298.788 41.5155 298.947 41.4658C299.12 41.4039 299.262 41.324 299.372 41.2261ZM293.311 39.2855H295.935C295.984 38.7676 296.157 38.3983 296.453 38.1762C296.748 37.9548 297.155 37.8441 297.672 37.8441C297.906 37.8441 298.122 37.8622 298.319 37.8994C298.528 37.924 298.708 37.9855 298.855 38.0845C299.016 38.1707 299.138 38.2995 299.225 38.4719C299.323 38.6323 299.372 38.8547 299.372 39.1377C299.385 39.4089 299.305 39.6185 299.133 39.7655C298.959 39.9016 298.725 40.0059 298.431 40.0802C298.135 40.1546 297.795 40.2091 297.413 40.2463C297.031 40.2836 296.644 40.3324 296.249 40.3942C295.855 40.4558 295.461 40.5421 295.066 40.6527C294.684 40.7516 294.34 40.9058 294.031 41.1146C293.736 41.324 293.49 41.6079 293.293 41.9654C293.108 42.3102 293.015 42.7538 293.015 43.2954C293.015 43.7889 293.095 44.2135 293.256 44.5709C293.428 44.9284 293.662 45.2241 293.958 45.458C294.254 45.6922 294.599 45.8638 294.993 45.9753C295.387 46.0859 295.812 46.1415 296.268 46.1415C296.859 46.1415 297.438 46.0551 298.005 45.8828C298.572 45.7104 299.065 45.4084 299.484 44.9774C299.495 45.1378 299.514 45.2977 299.539 45.458C299.576 45.6059 299.619 45.7531 299.669 45.9017H302.33C302.206 45.7041 302.12 45.4083 302.071 45.0145C302.021 44.6199 301.997 44.2072 301.997 43.7762V38.8047C301.997 38.2259 301.868 37.7642 301.609 37.4186C301.35 37.0613 301.018 36.7845 300.61 36.5872C300.204 36.3898 299.755 36.261 299.262 36.1993C298.769 36.1254 298.282 36.0886 297.802 36.0886C297.272 36.0886 296.742 36.1436 296.212 36.2546C295.695 36.3531 295.227 36.5258 294.808 36.7722C294.389 37.0185 294.044 37.345 293.774 37.7516C293.501 38.1579 293.348 38.6695 293.311 39.2855ZM286.233 36.3472V45.9017H288.858V41.5955C288.858 41.1643 288.9 40.7636 288.986 40.3942C289.073 40.0249 289.215 39.7039 289.412 39.4334C289.621 39.1504 289.893 38.9282 290.225 38.7676C290.558 38.6079 290.964 38.5281 291.445 38.5281C291.605 38.5281 291.771 38.5399 291.944 38.5651C292.116 38.577 292.264 38.5953 292.388 38.6205V36.1812C292.178 36.1191 291.987 36.0886 291.814 36.0886C291.482 36.0886 291.161 36.1375 290.853 36.236C290.545 36.335 290.255 36.4764 289.984 36.6612C289.714 36.8334 289.473 37.0493 289.264 37.308C289.054 37.5546 288.888 37.825 288.765 38.1207L288.728 36.3472H286.233ZM284.237 45.9016V36.3472H281.613V41.3551C281.613 42.3283 281.453 43.0313 281.133 43.4624C280.813 43.8806 280.295 44.0902 279.58 44.0902C278.952 44.0902 278.514 43.8996 278.269 43.5169C278.022 43.123 277.898 42.5315 277.898 41.7433V36.3471H275.275V42.2239C275.275 42.8147 275.324 43.3571 275.423 43.8505C275.533 44.3305 275.718 44.7432 275.977 45.0881C276.235 45.421 276.587 45.6795 277.03 45.8638C277.486 46.0489 278.065 46.1414 278.767 46.1414C279.322 46.1414 279.863 46.0187 280.393 45.772C280.924 45.5254 281.355 45.1252 281.687 44.5708L281.743 45.9016H284.237ZM272.096 36.3472V33.9908H269.472V36.3472H267.883V38.1026H269.472V43.739C269.472 44.2198 269.552 44.6082 269.712 44.9038C269.872 45.1996 270.088 45.4273 270.359 45.587C270.642 45.7468 270.962 45.8528 271.32 45.9017C271.689 45.9626 272.078 45.9936 272.484 45.9936C272.743 45.9936 273.008 45.9872 273.279 45.9754C273.549 45.9626 273.796 45.9381 274.018 45.9017V43.8688C273.895 43.8934 273.765 43.9114 273.63 43.9241C273.494 43.9359 273.353 43.9424 273.205 43.9424C272.761 43.9424 272.466 43.8687 272.317 43.7209C272.17 43.573 272.096 43.2773 272.096 42.8337V38.1026H274.018V36.3472H272.096ZM264.076 33.9907V45.9017H266.7V33.9907H264.076ZM259.345 41.2261V42.2049C259.345 42.3528 259.327 42.5506 259.289 42.7964C259.264 43.0431 259.185 43.2891 259.049 43.5358C258.913 43.77 258.704 43.9731 258.421 44.1463C258.138 44.3186 257.737 44.4041 257.22 44.4041C257.01 44.4041 256.807 44.386 256.61 44.3488C256.413 44.3124 256.24 44.2507 256.093 44.1637C255.944 44.0657 255.827 43.9359 255.742 43.7763C255.655 43.6165 255.612 43.4189 255.612 43.1848C255.612 42.9381 255.655 42.7356 255.742 42.5751C255.827 42.4147 255.939 42.2849 256.074 42.187C256.221 42.0761 256.388 41.99 256.573 41.9283C256.77 41.8666 256.967 41.8168 257.164 41.7804C257.374 41.7433 257.582 41.7124 257.793 41.6879C258.002 41.6633 258.199 41.6325 258.384 41.5955C258.581 41.559 258.76 41.5155 258.92 41.4658C259.092 41.4039 259.234 41.324 259.345 41.2261ZM253.283 39.2855H255.908C255.957 38.7676 256.129 38.3983 256.425 38.1762C256.721 37.9548 257.127 37.8441 257.645 37.8441C257.879 37.8441 258.094 37.8622 258.291 37.8994C258.501 37.924 258.679 37.9855 258.827 38.0845C258.988 38.1707 259.111 38.2995 259.197 38.4719C259.295 38.6323 259.345 38.8547 259.345 39.1377C259.357 39.4089 259.277 39.6185 259.105 39.7655C258.932 39.9016 258.697 40.0059 258.403 40.0802C258.107 40.1546 257.768 40.2091 257.385 40.2463C257.004 40.2836 256.616 40.3324 256.221 40.3942C255.827 40.4558 255.433 40.5421 255.039 40.6527C254.657 40.7516 254.312 40.9058 254.004 41.1146C253.709 41.324 253.462 41.6079 253.265 41.9654C253.08 42.3102 252.987 42.7538 252.987 43.2954C252.987 43.7889 253.067 44.2135 253.228 44.5709C253.4 44.9284 253.634 45.2241 253.93 45.458C254.226 45.6922 254.571 45.8638 254.965 45.9753C255.359 46.0859 255.784 46.1415 256.24 46.1415C256.831 46.1415 257.411 46.0551 257.977 45.8828C258.544 45.7104 259.037 45.4084 259.456 44.9774C259.468 45.1378 259.487 45.2977 259.511 45.458C259.548 45.6059 259.591 45.7531 259.641 45.9017H262.302C262.178 45.7041 262.092 45.4083 262.043 45.0145C261.994 44.6199 261.969 44.2072 261.969 43.7762V38.8047C261.969 38.2259 261.84 37.7642 261.581 37.4186C261.322 37.0613 260.99 36.7845 260.583 36.5872C260.176 36.3898 259.727 36.261 259.234 36.1993C258.741 36.1254 258.255 36.0886 257.774 36.0886C257.244 36.0886 256.714 36.1436 256.185 36.2546C255.667 36.3531 255.199 36.5258 254.78 36.7722C254.361 37.0185 254.016 37.345 253.745 37.7516C253.474 38.1579 253.32 38.6695 253.283 39.2855ZM243.026 33.9907V45.9017H245.651V40.2004L249.292 45.9017H252.47L248.784 40.2004L252.47 33.9907H249.291L245.651 40.2004V33.9907H243.026ZM252.988 49.3605C252.988 49.8351 253.126 50.212 253.4 50.4913C253.675 50.7706 254.045 50.9102 254.511 50.9102C254.98 50.9102 255.351 50.7706 255.625 50.4913C255.899 50.212 256.036 49.8351 256.036 49.3605C256.036 48.875 255.899 48.4893 255.625 48.2036C255.351 47.918 254.98 47.7751 254.511 47.7751C254.045 47.7751 253.675 47.918 253.4 48.2036C253.126 48.4893 252.988 48.875 252.988 49.3605ZM255.228 49.3522C255.228 49.6461 255.167 49.8698 255.045 50.0231C254.922 50.1764 254.744 50.2531 254.511 50.2531C254.277 50.2531 254.1 50.1764 253.978 50.0231C253.857 49.8698 253.796 49.6461 253.796 49.3522C253.796 49.051 253.857 48.8224 253.978 48.6664C254.1 48.5103 254.277 48.4322 254.511 48.4322C254.744 48.4322 254.922 48.5103 255.045 48.6664C255.167 48.8224 255.228 49.051 255.228 49.3522ZM256.569 47.8546H256.942H257.317V48.2954L257.369 48.2215C257.581 47.924 257.86 47.7752 258.207 47.7752C258.585 47.7752 258.888 47.9148 259.117 48.1941C259.346 48.4734 259.461 48.8412 259.461 49.2976C259.461 49.7814 259.346 50.171 259.117 50.4668C258.888 50.7625 258.585 50.9103 258.207 50.9103C257.862 50.9103 257.583 50.7716 257.372 50.4941L257.355 50.4722V52.0001H256.964H256.569V47.8546ZM257.982 50.2641C258.192 50.2641 258.356 50.1852 258.475 50.0272C258.594 49.8693 258.653 49.6499 258.653 49.3687C258.653 49.0821 258.594 48.8581 258.476 48.6965C258.359 48.535 258.195 48.4542 257.985 48.4542C257.775 48.4542 257.611 48.5373 257.493 48.7034C257.376 48.8695 257.317 49.1004 257.317 49.3961C257.317 49.6681 257.376 49.8808 257.493 50.0341C257.611 50.1874 257.774 50.2641 257.982 50.2641ZM260.144 50.4913C260.39 50.7706 260.739 50.9103 261.192 50.9103C261.56 50.9103 261.868 50.8245 262.113 50.6529C262.359 50.4814 262.515 50.244 262.583 49.941H261.783C261.763 50.036 261.702 50.1172 261.601 50.1847C261.5 50.2523 261.39 50.286 261.271 50.286C261.016 50.286 260.833 50.213 260.724 50.067C260.638 49.9502 260.586 49.774 260.568 49.5385H262.596C262.609 49.4783 262.614 49.419 262.61 49.3606C262.61 48.8531 262.487 48.462 262.242 48.1873C261.996 47.9126 261.646 47.7752 261.192 47.7752C260.748 47.7752 260.401 47.9098 260.151 48.179C259.901 48.4483 259.776 48.8211 259.776 49.2975C259.776 49.8142 259.899 50.2121 260.144 50.4913ZM261.649 48.6185C261.726 48.7189 261.773 48.8586 261.791 49.0374H260.576C260.605 48.8786 260.652 48.7499 260.718 48.6513C260.824 48.4962 260.978 48.4186 261.181 48.4186C261.393 48.4186 261.549 48.4852 261.649 48.6185ZM263.13 47.8546H263.503H263.878V48.2954C263.909 48.2425 263.943 48.1922 263.979 48.1447C264.173 47.8983 264.454 47.7751 264.823 47.7751C265.137 47.7751 265.382 47.8682 265.56 48.0544C265.738 48.2405 265.827 48.4989 265.827 48.8292V50.8335H265.436H265.042V48.9716C265.042 48.7873 265.002 48.6508 264.923 48.5622C264.843 48.4738 264.721 48.4295 264.557 48.4295C264.351 48.4295 264.192 48.4915 264.082 48.6156C263.971 48.7398 263.916 48.9187 263.916 49.1523V50.8335H263.525H263.13V47.8546ZM269.657 48.4706C269.752 48.54 269.8 48.6321 269.8 48.7472V48.7472H270.578C270.578 48.4552 270.453 48.2202 270.205 48.0422C269.957 47.8642 269.63 47.7752 269.225 47.7752C268.866 47.7752 268.576 47.866 268.356 48.0476C268.136 48.2293 268.026 48.468 268.026 48.7636C268.026 49.0247 268.111 49.2173 268.28 49.3414C268.45 49.4673 268.787 49.5869 269.291 49.7001C269.506 49.7475 269.657 49.7941 269.743 49.8397C269.829 49.8872 269.871 49.9447 269.871 50.0122C269.871 50.1089 269.827 50.1842 269.739 50.2381C269.65 50.2919 269.527 50.3188 269.37 50.3188C269.171 50.3188 269.014 50.2801 268.898 50.2024C268.782 50.1249 268.721 50.0176 268.716 49.8807H267.916C267.933 50.2166 268.064 50.4722 268.312 50.6474C268.559 50.8227 268.912 50.9103 269.37 50.9103C269.757 50.9103 270.069 50.8213 270.305 50.6433C270.542 50.4653 270.66 50.2304 270.66 49.9383C270.66 49.6645 270.579 49.4637 270.416 49.3359C270.253 49.2082 269.931 49.0904 269.449 48.9827C269.206 48.9279 269.037 48.8777 268.942 48.8321C268.845 48.7847 268.797 48.728 268.797 48.6623C268.797 48.5692 268.839 48.4967 268.924 48.4446C269.009 48.3926 269.128 48.3666 269.279 48.3666C269.436 48.3666 269.562 48.4013 269.657 48.4706ZM271.472 50.4913C271.197 50.212 271.06 49.8351 271.06 49.3605C271.06 48.875 271.197 48.4893 271.472 48.2036C271.747 47.918 272.117 47.7751 272.582 47.7751C273.051 47.7751 273.423 47.918 273.696 48.2036C273.97 48.4893 274.107 48.875 274.107 49.3605C274.107 49.8351 273.97 50.212 273.696 50.4913C273.423 50.7706 273.051 50.9102 272.582 50.9102C272.117 50.9102 271.747 50.7706 271.472 50.4913ZM273.116 50.0231C273.238 49.8698 273.299 49.6461 273.299 49.3522C273.299 49.051 273.238 48.8224 273.116 48.6664C272.994 48.5103 272.816 48.4322 272.582 48.4322C272.348 48.4322 272.171 48.5103 272.05 48.6664C271.928 48.8224 271.867 49.051 271.867 49.3522C271.867 49.6461 271.928 49.8698 272.05 50.0231C272.171 50.1764 272.348 50.2531 272.582 50.2531C272.816 50.2531 272.994 50.1764 273.116 50.0231ZM275.567 50.1245C275.488 50.0368 275.449 49.9018 275.449 49.7192H275.449V47.8546H275.055H274.663V49.8616C274.663 50.1902 274.751 50.4471 274.927 50.6324C275.103 50.8177 275.348 50.9103 275.662 50.9103C276.029 50.9103 276.31 50.7871 276.503 50.5407C276.541 50.4933 276.574 50.4421 276.602 50.3874V50.8337H276.977H277.349V47.8546H276.955H276.563V49.5331C276.563 49.7668 276.509 49.9456 276.399 50.0697C276.29 50.1939 276.133 50.2559 275.928 50.2559C275.766 50.2559 275.645 50.2121 275.567 50.1245ZM278.078 47.8546H278.45H278.825V48.3885C278.852 48.3301 278.883 48.2735 278.918 48.2188C279.102 47.9231 279.341 47.7752 279.633 47.7752L279.811 47.7779V48.5802C279.741 48.5729 279.663 48.5693 279.575 48.5693C279.336 48.5693 279.158 48.6287 279.04 48.7473C278.922 48.8659 278.863 49.0457 278.863 49.2867V50.8337H278.472H278.078V47.8546ZM282.426 50.5981C282.661 50.39 282.799 50.1007 282.839 49.7301H282.04C282.023 49.8908 281.966 50.0204 281.867 50.119C281.769 50.2175 281.648 50.2668 281.506 50.2668C281.309 50.2668 281.159 50.1897 281.056 50.0355C280.952 49.8812 280.901 49.6562 280.901 49.3605C280.901 49.0575 280.952 48.8271 281.056 48.6692C281.159 48.5113 281.309 48.4323 281.506 48.4323C281.659 48.4323 281.785 48.4779 281.882 48.5692C281.98 48.6604 282.033 48.78 282.04 48.9278H282.839C282.823 48.5828 282.693 48.3044 282.448 48.0927C282.203 47.881 281.889 47.7751 281.506 47.7751C281.073 47.7751 280.73 47.918 280.475 48.2036C280.22 48.4893 280.093 48.875 280.093 49.3605C280.093 49.857 280.216 50.2394 280.461 50.5077C280.707 50.776 281.055 50.9102 281.506 50.9102C281.884 50.9102 282.191 50.8062 282.426 50.5981ZM284.565 50.9103C284.112 50.9103 283.763 50.7706 283.517 50.4913C283.272 50.2121 283.149 49.8142 283.149 49.2975C283.149 48.8211 283.274 48.4483 283.524 48.179C283.774 47.9098 284.121 47.7752 284.565 47.7752C285.019 47.7752 285.369 47.9126 285.615 48.1873C285.86 48.462 285.983 48.8531 285.983 49.3606C285.986 49.419 285.982 49.4783 285.969 49.5385H283.94C283.958 49.774 284.011 49.9502 284.096 50.067C284.206 50.213 284.388 50.286 284.644 50.286C284.763 50.286 284.873 50.2523 284.974 50.1847C285.075 50.1172 285.136 50.036 285.156 49.941H285.956C285.888 50.244 285.731 50.4814 285.486 50.6529C285.24 50.8245 284.933 50.9103 284.565 50.9103ZM285.164 49.0374C285.146 48.8586 285.098 48.7189 285.022 48.6185C284.921 48.4852 284.765 48.4186 284.554 48.4186C284.351 48.4186 284.197 48.4962 284.091 48.6513C284.025 48.7499 283.978 48.8786 283.948 49.0374H285.164ZM288.203 47.8545H287.77L288.846 50.8335H289.257H289.665L290.741 47.8545H290.328H289.914L289.275 50.0772H289.272L288.638 47.8545H288.203ZM291.201 46.7784H292.001V47.5068H291.201V46.7784ZM291.209 47.8545H291.601H291.995V50.8336H291.604H291.209V47.8545ZM292.914 50.4667C293.147 50.7623 293.453 50.9102 293.833 50.9102C294.185 50.9102 294.47 50.7642 294.687 50.472L294.701 50.4529V50.8335H295.081H295.462V46.8085H295.067H294.676V48.246L294.643 48.2022C294.437 47.9174 294.165 47.7751 293.827 47.7751C293.449 47.7751 293.144 47.9147 292.913 48.194C292.681 48.4733 292.565 48.8411 292.565 49.2975C292.565 49.7812 292.681 50.171 292.914 50.4667ZM293.551 48.6965C293.669 48.5349 293.834 48.4541 294.043 48.4541C294.253 48.4541 294.418 48.5308 294.536 48.6841C294.655 48.8374 294.714 49.0501 294.714 49.3221C294.714 49.6178 294.655 49.8488 294.536 50.0149C294.418 50.181 294.252 50.264 294.041 50.264C293.831 50.264 293.667 50.185 293.549 50.0271C293.432 49.8693 293.373 49.6498 293.373 49.3686C293.373 49.0821 293.432 48.858 293.551 48.6965ZM297.343 50.9103C296.89 50.9103 296.541 50.7706 296.295 50.4913C296.05 50.2121 295.927 49.8142 295.927 49.2975C295.927 48.8211 296.052 48.4483 296.302 48.179C296.552 47.9098 296.899 47.7752 297.343 47.7752C297.797 47.7752 298.147 47.9126 298.393 48.1873C298.638 48.462 298.761 48.8531 298.761 49.3606C298.765 49.419 298.76 49.4783 298.747 49.5385H296.718C296.737 49.774 296.789 49.9502 296.875 50.067C296.984 50.213 297.167 50.286 297.422 50.286C297.541 50.286 297.651 50.2523 297.752 50.1847C297.853 50.1172 297.914 50.036 297.934 49.941H298.734C298.666 50.244 298.51 50.4814 298.264 50.6529C298.019 50.8245 297.711 50.9103 297.343 50.9103ZM297.942 49.0374C297.924 48.8586 297.877 48.7189 297.8 48.6185C297.7 48.4852 297.544 48.4186 297.332 48.4186C297.129 48.4186 296.975 48.4962 296.869 48.6513C296.803 48.7499 296.756 48.8786 296.727 49.0374H297.942ZM299.109 49.3605C299.109 49.8351 299.246 50.212 299.521 50.4913C299.796 50.7706 300.166 50.9102 300.631 50.9102C301.1 50.9102 301.472 50.7706 301.746 50.4913C302.019 50.212 302.156 49.8351 302.156 49.3605C302.156 48.875 302.019 48.4893 301.746 48.2036C301.472 47.918 301.1 47.7751 300.631 47.7751C300.166 47.7751 299.796 47.918 299.521 48.2036C299.246 48.4893 299.109 48.875 299.109 49.3605ZM301.349 49.3522C301.349 49.6461 301.287 49.8698 301.165 50.0231C301.043 50.1764 300.865 50.2531 300.631 50.2531C300.398 50.2531 300.22 50.1764 300.099 50.0231C299.977 49.8698 299.917 49.6461 299.917 49.3522C299.917 49.051 299.977 48.8224 300.099 48.6664C300.22 48.5103 300.398 48.4322 300.631 48.4322C300.865 48.4322 301.043 48.5103 301.165 48.6664C301.287 48.8224 301.349 49.051 301.349 49.3522Z" fill="#8097A2"/>
<path fill-rule="evenodd" clip-rule="evenodd" d="M622.87 20L626.076 29.8884C627.982 35.7862 625.887 42.2448 620.888 45.8863L620.891 45.8884L612.511 52L604.129 45.8884L612.509 39.7769L620.883 45.8828L617.684 36L626.07 29.8884H615.711L612.509 20H622.87ZM598.95 29.8884L607.33 36L604.129 45.8884C599.132 42.2441 597.041 35.7848 598.95 29.8884ZM598.95 29.8884L602.151 20H612.509L609.309 29.8884H598.95ZM638.029 37.7451C638.047 37.7673 638.074 37.7802 638.103 37.7799H642.023C642.052 37.7797 642.078 37.7668 642.095 37.7451C642.112 37.7232 642.118 37.6946 642.11 37.6681L640.151 31.1145C640.14 31.0756 640.104 31.0484 640.062 31.0484C640.021 31.0484 639.984 31.0756 639.974 31.1145L638.014 37.6681C638.006 37.6946 638.012 37.7232 638.029 37.7451ZM646.395 43.456H643.848L642.715 39.6962C642.704 39.6581 642.668 39.632 642.627 39.6323H637.494C637.453 39.632 637.417 39.6581 637.406 39.6962L636.284 43.4575H633.729L637.614 30.4666C637.938 29.4171 638.933 28.6981 640.063 28.6981C641.193 28.6981 642.188 29.4171 642.512 30.4666L646.395 43.456ZM659.702 35.9959H658.203L658.194 34.1436H659.693C659.743 34.1436 659.784 34.1039 659.784 34.055V30.9794H662.254V34.055C662.254 34.1039 662.295 34.1436 662.346 34.1436H663.844V35.9945H662.346C662.295 35.9945 662.254 36.0341 662.254 36.0831V41.0705C662.254 41.4717 662.59 41.7969 663.004 41.7969C663.239 41.7969 663.556 41.7809 663.838 41.7577V43.4415C663.352 43.5811 662.847 43.6516 662.34 43.6507C660.942 43.6563 659.803 42.5641 659.793 41.2085V36.0845C659.793 36.0356 659.752 35.9959 659.702 35.9959ZM674.815 43.456H672.366L672.358 43.4502V37.1494C672.357 36.7918 672.208 36.4496 671.945 36.1993C671.679 35.9441 671.32 35.8014 670.947 35.8027C670.034 35.8027 669.124 36.1862 668.662 36.4143C668.632 36.4292 668.612 36.4596 668.613 36.4928V43.456H666.157V28.8888H668.619V34.732C668.619 34.7642 668.637 34.7937 668.667 34.809C668.696 34.8256 668.732 34.8256 668.761 34.809C669.607 34.2686 670.594 33.972 671.607 33.9533C673.367 33.9452 674.801 35.3186 674.815 37.0245V43.456ZM647.769 40.5751V34.1436H650.226V40.4458C650.232 41.1967 650.863 41.8016 651.637 41.7984C652.549 41.7984 653.46 41.4148 653.922 41.1867C653.952 41.1716 653.971 41.1413 653.971 41.1083V34.1436H656.433V43.4575H654.516L654.257 42.6454C654.248 42.6176 654.226 42.5959 654.197 42.5872C654.169 42.5786 654.137 42.584 654.113 42.6018C653.209 43.2645 652.11 43.6317 650.976 43.6507C649.215 43.6587 647.78 42.2827 647.769 40.5751ZM680.169 40.5461C680.644 41.3887 681.244 41.7984 681.993 41.7984C682.748 41.7984 683.344 41.3872 683.816 40.5461C684.387 39.5291 684.701 37.9761 684.701 36.1746C684.701 34.3731 684.387 32.8201 683.816 31.8031C683.341 30.9605 682.748 30.5508 681.993 30.5508C681.238 30.5508 680.641 30.9605 680.169 31.8031C679.599 32.8201 679.284 34.3731 679.284 36.1746C679.284 37.9761 679.599 39.5291 680.169 40.5461ZM678.13 30.76C679.077 29.4104 680.414 28.6971 681.993 28.6971V28.6956C683.572 28.6956 684.913 29.4118 685.855 30.7586C686.797 32.1053 687.295 33.9736 687.295 36.1732C687.295 38.3727 686.802 40.2395 685.855 41.5892C684.908 42.9388 683.572 43.6521 681.993 43.6521C680.414 43.6521 679.073 42.9359 678.13 41.5892C677.188 40.2424 676.691 38.3756 676.691 36.1746C676.691 33.9736 677.184 32.1097 678.13 30.76Z" fill="#8097A2"/>
<path fill-rule="evenodd" clip-rule="evenodd" d="M353.442 34.4595L360.48 37.6522L367.572 31.4562C367.681 30.9422 367.722 30.4416 367.722 29.9005C367.722 25.5444 364.162 22 359.787 22C357.164 22 354.732 23.2852 353.251 25.4362L352.069 31.5374L353.442 34.4595ZM346.305 41.7614C346.197 42.2733 346.156 42.7986 346.156 43.3374C346.156 47.6882 349.717 51.2174 354.091 51.2174C356.717 51.2174 359.168 49.9242 360.644 47.769L361.808 41.721L360.251 38.7576L353.211 35.5652L346.305 41.7614ZM350.984 30.6956L346.045 29.5523C345.892 29.144 345.809 28.6949 345.809 28.2457C345.809 26.1361 347.562 24.4348 349.704 24.4348C350.567 24.4348 351.402 24.707 352.069 25.2106L350.984 30.6956ZM345.948 30.6956C343.823 31.4073 342.33 33.4877 342.33 35.7733C342.33 38.0042 343.688 39.9888 345.719 40.7826L352.417 34.6236L351.193 31.9548L345.948 30.6956ZM364.034 48.7826C363.231 48.7826 362.454 48.4968 361.809 47.9932L362.836 42.5217L367.498 43.6514C367.643 44.0597 367.722 44.5089 367.722 44.9716C367.722 47.0813 366.062 48.7826 364.034 48.7826ZM362.87 41.2762L368.211 42.5217C370.388 41.81 371.895 39.7297 371.895 37.4303C371.895 35.2131 370.512 33.2149 368.444 32.4348L361.46 38.5526L362.87 41.2762ZM386.432 42.9573L385.796 43.025C384.659 43.1197 383.549 43.1603 382.439 43.1332C381.342 43.1332 380.584 42.8355 380.137 42.2534C379.69 41.6714 379.474 40.7645 379.474 39.5463H386.757L386.852 38.2875C386.852 36.5143 386.487 35.2013 385.755 34.3757C385.024 33.55 383.914 33.1304 382.425 33.1304C379.352 33.1304 377.809 35.066 377.809 38.9372C377.809 40.8728 378.134 42.3076 378.797 43.228C379.46 44.1484 380.584 44.6086 382.168 44.6086C383.359 44.6086 384.794 44.4868 386.473 44.2567L386.432 42.9573ZM384.551 35.3773C384.984 35.9323 385.2 36.8933 385.2 38.2469H379.474C379.487 36.9474 379.745 35.9999 380.232 35.4179C380.719 34.8359 381.464 34.5381 382.439 34.5381C383.413 34.5381 384.117 34.8223 384.551 35.3773ZM388.938 44.6087V28.6087H390.678V44.6087H388.938ZM401.154 42.1181V36.6903C401.154 35.472 400.874 34.5652 400.299 33.9967C399.738 33.4146 398.843 33.1304 397.614 33.1304H393.433V34.5922H397.721C398.269 34.5922 398.71 34.7547 399.03 35.0795C399.351 35.4044 399.511 35.9458 399.511 36.6903V37.6378L396.091 37.9626C394.942 38.0709 394.101 38.3958 393.566 38.8966C393.032 39.3974 392.765 40.196 392.765 41.2653C392.765 42.3482 393.032 43.1739 393.553 43.7423C394.074 44.3244 394.835 44.6086 395.837 44.6086C397.147 44.6086 398.442 44.365 399.752 43.783C400.251 44.2655 401.033 44.2568 401.984 44.2464C402.127 44.2448 402.274 44.2432 402.424 44.2432L402.504 42.7813C402.504 42.7813 401.154 42.673 401.154 42.1181ZM396.105 43.2145C394.996 43.2145 394.448 42.5377 394.448 41.1841C394.448 40.575 394.582 40.1012 394.875 39.7764C395.169 39.4515 395.637 39.262 396.292 39.2079L399.511 38.8966V42.5377L399.017 42.7136C398.068 43.052 397.093 43.2145 396.105 43.2145ZM407.626 34.594C406.021 34.594 405.206 35.1496 405.206 36.2744C405.206 36.7893 405.396 37.1552 405.763 37.372C406.13 37.5889 406.973 37.8057 408.292 38.0361C409.611 38.2665 410.535 38.5781 411.079 38.9982C411.623 39.4048 411.895 40.1772 411.895 41.3156C411.895 42.4539 411.528 43.2806 410.793 43.8091C410.059 44.3376 408.999 44.6086 407.585 44.6086C406.674 44.6086 403.615 44.2698 403.615 44.2698L403.71 42.8334C403.981 42.8585 404.24 42.8829 404.488 42.9063L404.491 42.9066L404.497 42.9071L404.499 42.9073C405.854 43.0351 406.876 43.1315 407.598 43.1315C408.455 43.1315 409.108 42.996 409.556 42.725C410.005 42.4539 410.236 41.9932 410.236 41.3562C410.236 40.7193 410.046 40.2857 409.665 40.0553C409.284 39.8249 408.441 39.6081 407.136 39.4048C405.831 39.2015 404.906 38.9034 404.363 38.4968C403.819 38.1038 403.547 37.3585 403.547 36.2879C403.547 35.2173 403.928 34.4178 404.689 33.9028C405.45 33.3879 406.402 33.1304 407.53 33.1304C408.428 33.1304 411.555 33.3607 411.555 33.3607V34.8108C411.007 34.7792 410.493 34.7446 410.016 34.7126L410.016 34.7126L410.015 34.7125L410.015 34.7125C409.058 34.6482 408.251 34.594 407.626 34.594ZM416.538 34.8021H420.092V33.3588H416.538V30H414.878V33.3723H413.286V34.8021H414.878V40.5889C414.878 42.1537 415.097 43.2193 415.55 43.7724C416.003 44.3254 416.799 44.6087 417.965 44.6087C418.486 44.6087 419.241 44.5278 420.243 44.3659L420.133 43.0035L418.143 43.1384C417.444 43.1384 417.005 42.936 416.812 42.5449C416.634 42.1537 416.538 41.3174 416.538 40.0629V34.8021ZM422.33 30.8478V28.9565H424.069V30.8612L422.33 30.8478ZM422.33 44.2609V33.3292H424.069V44.2609H422.33ZM433.612 33.4011C432.444 33.2251 431.614 33.1304 431.125 33.1304C429.467 33.1304 428.284 33.5635 427.564 34.4027C426.857 35.2419 426.504 36.7173 426.504 38.8154C426.504 40.9134 426.844 42.4023 427.496 43.2821C428.149 44.162 429.345 44.6086 431.071 44.6086C431.75 44.6086 432.783 44.5003 434.156 44.2973L434.088 42.9302L431.478 43.1332C430.146 43.1332 429.277 42.8219 428.855 42.1857C428.434 41.5496 428.23 40.4261 428.23 38.8154C428.23 37.2046 428.461 36.0947 428.91 35.4991C429.358 34.9035 430.214 34.6058 431.465 34.6058C432.022 34.6058 432.892 34.6734 434.075 34.8088L434.142 33.4688L433.612 33.4011Z" fill="#8097A2"/>
<path d="M114.994 38.4212L112.435 31.522C112.331 31.2398 111.932 31.2398 111.827 31.522L109.268 38.4212C109.189 38.6331 109.346 38.8584 109.572 38.8584H114.69C114.916 38.8584 115.073 38.6331 114.994 38.4212ZM116.176 42.2988H108.086C107.95 42.2988 107.829 42.3831 107.782 42.5103L106.189 46.803C106.142 46.9302 106.02 47.0145 105.885 47.0145H102.378C102.149 47.0145 101.992 46.7825 102.077 46.5695L110.151 26.4567C110.2 26.3339 110.32 26.2532 110.452 26.2532H113.81C113.942 26.2532 114.062 26.3339 114.111 26.4567L122.185 46.5693C122.27 46.7825 122.113 47.0145 121.884 47.0145H118.377C118.242 47.0145 118.12 46.9302 118.073 46.803L116.48 42.5103C116.433 42.3831 116.312 42.2988 116.176 42.2988ZM123.828 33.3121H126.827C127.006 33.3121 127.151 33.4574 127.151 33.6364V46.6902C127.151 46.8693 127.006 47.0146 126.827 47.0146H123.828C123.649 47.0146 123.503 46.8693 123.503 46.6902V33.6364C123.503 33.4574 123.649 33.3121 123.828 33.3121ZM138.09 36.4875C138.09 36.6666 137.945 36.8119 137.766 36.8119H137.675C136.192 36.8119 135.104 37.1678 134.412 37.8795C133.72 38.5913 133.374 39.768 133.374 41.409V46.6903C133.374 46.8694 133.229 47.0147 133.05 47.0147H130.08C129.901 47.0147 129.756 46.8694 129.756 46.6903V33.6363C129.756 33.4573 129.901 33.312 130.08 33.312H133.02C133.199 33.312 133.345 33.4573 133.345 33.6363V36.2186H133.404C133.76 35.1509 134.323 34.3308 135.095 33.7569C135.866 33.1838 136.815 32.8968 137.942 32.8968H138.09V36.4875ZM146.291 36.367C146.112 36.367 145.967 36.5123 145.967 36.6913V42.1209C145.967 42.6746 146.075 43.0699 146.293 43.3073C146.51 43.5445 146.886 43.6632 147.42 43.6632H147.718C147.897 43.6632 148.043 43.8083 148.043 43.9875V46.7198C148.043 46.8991 147.897 47.0442 147.718 47.0442H146.441C145.116 47.0442 144.098 46.7032 143.386 46.021C142.674 45.3389 142.318 44.3259 142.318 42.981V36.6913C142.318 36.5123 142.173 36.367 141.994 36.367H140.122C139.943 36.367 139.798 36.2217 139.798 36.0427V33.6364C139.798 33.4574 139.943 33.3121 140.122 33.3121H141.994C142.173 33.3121 142.318 33.167 142.318 32.9877V28.1495C142.318 27.9704 142.464 27.8251 142.643 27.8251H145.642C145.821 27.8251 145.967 27.9704 145.967 28.1495V32.9877C145.967 33.167 146.112 33.3121 146.291 33.3121H148.46C148.639 33.3121 148.784 33.4574 148.784 33.6364V36.0427C148.784 36.2217 148.639 36.367 148.46 36.367H146.291ZM160.025 42.9513C160.708 42.2395 161.048 41.3102 161.048 40.1632C161.048 39.0168 160.708 38.0871 160.025 37.3753C159.343 36.6635 158.448 36.3076 157.341 36.3076C156.234 36.3076 155.339 36.6635 154.657 37.3753C153.975 38.0871 153.634 39.0168 153.634 40.1632C153.634 41.3102 153.975 42.2395 154.657 42.9513C155.339 43.6631 156.234 44.019 157.341 44.019C158.448 44.019 159.343 43.6631 160.025 42.9513ZM153.1 46.5993C152.092 46.0261 151.295 45.1904 150.713 44.0932C150.129 42.9959 149.837 41.686 149.837 40.1632C149.837 38.6411 150.129 37.3308 150.713 36.2335C151.295 35.1362 152.092 34.3012 153.1 33.7273C154.108 33.1539 155.215 32.8672 156.422 32.8672C157.489 32.8672 158.404 33.0748 159.165 33.4901C159.926 33.9053 160.534 34.4886 160.989 35.24H161.048V33.6363C161.048 33.4573 161.194 33.312 161.373 33.312H164.343C164.522 33.312 164.667 33.4573 164.667 33.6363V46.6901C164.667 46.8694 164.522 47.0144 164.343 47.0144H161.373C161.194 47.0144 161.048 46.8694 161.048 46.6901V45.0867H160.989C160.534 45.8384 159.926 46.4214 159.165 46.8365C158.404 47.2518 157.489 47.4594 156.422 47.4594C155.215 47.4594 154.108 47.1725 153.1 46.5993ZM177.018 42.9513C177.7 42.2395 178.041 41.3102 178.041 40.1632C178.041 39.0168 177.7 38.0871 177.018 37.3753C176.336 36.6635 175.441 36.3076 174.334 36.3076C173.226 36.3076 172.332 36.6635 171.65 37.3753C170.968 38.0871 170.626 39.0168 170.626 40.1632C170.626 41.3102 170.968 42.2395 171.65 42.9513C172.332 43.6631 173.226 44.019 174.334 44.019C175.441 44.019 176.336 43.6631 177.018 42.9513ZM172.51 46.8365C171.748 46.4214 171.14 45.8384 170.686 45.0867H170.626V46.6901C170.626 46.8694 170.481 47.0144 170.302 47.0144H167.303C167.123 47.0144 166.978 46.8694 166.978 46.6901V26.5775C166.978 26.3985 167.123 26.2532 167.303 26.2532H170.302C170.481 26.2532 170.626 26.3985 170.626 26.5775V35.24H170.686C171.14 34.4886 171.748 33.9053 172.51 33.4901C173.271 33.0748 174.185 32.8672 175.253 32.8672C176.459 32.8672 177.567 33.1539 178.575 33.7273C179.583 34.3012 180.379 35.1362 180.962 36.2335C181.545 37.3308 181.837 38.6411 181.837 40.1632C181.837 41.686 181.545 42.9959 180.962 44.0932C180.379 45.1904 179.583 46.0261 178.575 46.5993C177.567 47.1725 176.459 47.4594 175.253 47.4594C174.185 47.4594 173.271 47.2518 172.51 46.8365ZM186.891 47.0146H183.892C183.712 47.0146 183.567 46.8693 183.567 46.6902V26.5776C183.567 26.3986 183.712 26.2533 183.892 26.2533H186.891C187.07 26.2533 187.215 26.3986 187.215 26.5776V46.6902C187.215 46.8693 187.07 47.0146 186.891 47.0146ZM193.966 36.4856C193.468 36.8735 193.133 37.4335 192.959 38.1661C192.911 38.368 193.069 38.5617 193.276 38.5617H198.984C199.182 38.5617 199.338 38.3844 199.306 38.189C199.192 37.496 198.895 36.9434 198.415 36.5302C197.851 36.0459 197.114 35.8035 196.205 35.8035C195.295 35.8035 194.549 36.0309 193.966 36.4856ZM201.277 34.7801C202.443 36.0556 203.027 37.8601 203.027 40.1929V40.5803C203.027 40.7596 202.881 40.9047 202.702 40.9047H193.166C192.965 40.9047 192.81 41.088 192.845 41.2865C192.998 42.1531 193.381 42.8415 193.995 43.3516C194.697 43.9351 195.582 44.2266 196.65 44.2266C198.028 44.2266 199.304 43.6887 200.477 42.6125C200.621 42.4811 200.848 42.509 200.959 42.6685L202.417 44.7615C202.511 44.8962 202.491 45.0822 202.368 45.1903C201.652 45.8164 200.863 46.3408 200.001 46.7624C199.052 47.2268 197.935 47.4595 196.65 47.4595C195.167 47.4595 193.872 47.1576 192.764 46.5548C191.657 45.952 190.797 45.1016 190.184 44.0041C189.571 42.9068 189.265 41.6365 189.265 40.1929C189.265 38.7498 189.561 37.4746 190.155 36.3669C190.748 35.2599 191.578 34.3998 192.646 33.7866C193.714 33.1741 194.959 32.8673 196.383 32.8673C198.478 32.8673 200.11 33.5049 201.277 34.7801ZM127.543 28.4859C127.543 29.7095 126.551 30.7013 125.327 30.7013C124.104 30.7013 123.112 29.7095 123.112 28.4859C123.112 27.2623 124.104 26.2706 125.327 26.2706C126.551 26.2706 127.543 27.2623 127.543 28.4859Z" fill="#8097A2"/>
<path d="M73.0815 20.4038L58.8201 26.305C58.027 26.6332 58.0352 27.7597 58.8333 28.076L73.1543 33.7551C74.4127 34.2541 75.814 34.2541 77.0722 33.7551L91.3935 28.076C92.1913 27.7597 92.1997 26.6332 91.4064 26.305L77.1453 20.4038C75.8441 19.8654 74.3824 19.8654 73.0815 20.4038Z" fill="#8097A2"/>
<path d="M76.3828 36.8564V51.0436C76.3828 51.7184 77.0632 52.1805 77.6905 51.9318L93.6485 45.7377C94.0128 45.5932 94.2518 45.2412 94.2518 44.8494V30.6622C94.2518 29.9874 93.5713 29.5254 92.9441 29.774L76.9861 35.9682C76.6219 36.1126 76.3828 36.4646 76.3828 36.8564Z" fill="#8097A2"/>
<path d="M72.6568 37.5884L67.9209 39.8751L67.44 40.1076L57.4426 44.8978C56.8089 45.2035 56 44.7417 56 44.0377V30.7218C56 30.4671 56.1306 30.2472 56.3057 30.0816C56.3788 30.0083 56.4616 29.948 56.5477 29.9002C56.7866 29.7569 57.1273 29.7186 57.4171 29.8332L72.5773 35.8399C73.3479 36.1456 73.4084 37.2254 72.6568 37.5884Z" fill="#8097A2"/>
<path d="M72.6573 37.5884L67.9213 39.8751L56.3062 30.0816C56.3792 30.0083 56.462 29.948 56.5481 29.9002C56.787 29.7569 57.1278 29.7186 57.4175 29.8332L72.5777 35.8399C73.3483 36.1456 73.4088 37.2254 72.6573 37.5884Z" fill="#8097A2"/>
</svg>
