<svg fill="none" height="72" viewBox="0 0 744 72" width="744" xmlns="http://www.w3.org/2000/svg" xmlns:xlink="http://www.w3.org/1999/xlink"><mask id="a" height="32" maskUnits="userSpaceOnUse" width="141" x="73" y="20"><path d="m73 20h140.8v32h-140.8z" fill="#fff"/></mask><path clip-rule="evenodd" d="m509.335 22.7011c-.619-1.6154-2.198-2.7011-3.928-2.7011-.514 0-1.02.0941-1.504.2794-2.164.8293-3.251 3.2655-2.422 5.4307.14.3652.329.7028.558 1.0075l-5.155 4.9728c-1.267-1.1266-2.927-1.7934-4.681-1.7934-.86 0-1.706.1572-2.515.4673-.965.3694-1.818.9342-2.519 1.6526l-2.5-2.1145c.027-.0548.052-.1108.074-.1685.205-.5301.191-1.1084-.039-1.6282-.341-.7694-1.105-1.2668-1.947-1.2668-.297 0-.586.0614-.86.1825-1.072.4749-1.559 1.7337-1.084 2.8063.34.7699 1.104 1.2673 1.946 1.2673.298 0 .587-.0614.86-.1825.123-.054.238-.1191.346-.1933l2.514 2.1256c-.27.3792-.503.7879-.697 1.2224-.765 1.7158-.816 3.6265-.144 5.3807 1.035 2.7031 3.675 4.5192 6.569 4.5192.454 0 .904-.0443 1.348-.1316l.931 3.3443c-.462.2422-.839.6193-1.082 1.0934-.312.6076-.369 1.3002-.161 1.9505.341 1.0627 1.32 1.7763 2.435 1.7763.264 0 .527-.0412.781-.1228.65-.2086 1.18-.6579 1.493-1.2656.312-.6073.369-1.3002.16-1.9508-.34-1.0624-1.319-1.776-2.434-1.776-.051 0-.102.002-.153.0051l-.931-3.3426c.043-.0153.085-.031.127-.0472 3.622-1.3877 5.439-5.4633 4.052-9.0847-.276-.7179-.664-1.3736-1.14-1.9488l5.158-4.9754c.731.5815 1.651.9211 2.618.9211.514 0 1.02-.0941 1.503-.2794 1.049-.4015 1.879-1.188 2.336-2.214.458-1.0262.489-2.1688.087-3.2178zm-13.206 28.149c-.147.0472-.299.071-.451.071-.645 0-1.211-.4129-1.408-1.0277-.121-.376-.088-.7764.093-1.1277s.487-.6111.863-.7318c.147-.0475.3-.0714.452-.0714.645 0 1.211.413 1.408 1.0274.121.376.088.7768-.093 1.1283-.181.3513-.488.6114-.864.7319zm-12.831-20.6646c-.172.0759-.353.1145-.539.1145-.527 0-1.006-.3117-1.219-.794-.298-.6719.007-1.4603.679-1.7576.171-.0759.353-.1142.538-.1142.528 0 1.007.3114 1.22.7935.144.3257.153.6878.024 1.0197-.128.3317-.378.594-.703.7381zm11.038 12.3071c-.686.2626-1.402.3959-2.129.3959-2.451 0-4.686-1.5378-5.562-3.8266-.569-1.4847-.526-3.1027.122-4.5556.647-1.4528 1.822-2.5661 3.307-3.1351.686-.2626 1.402-.3959 2.129-.3959 2.451 0 4.686 1.5373 5.563 3.8255 1.175 3.0663-.364 6.5169-3.43 7.6918zm11.073-15.1591c-1.286 0-2.46-.8075-2.92-2.0091-.298-.7785-.275-1.6277.065-2.3914.341-.7636.957-1.3482 1.736-1.6464.36-.1381.736-.208 1.117-.208 1.287 0 2.461.8071 2.921 2.0085.299.7799.276 1.6294-.064 2.3925-.34.7628-.957 1.3474-1.737 1.6461-.36.1376-.736.2078-1.118.2078zm3.893-3.6069.003.0221c-.002-.0074-.002-.0148-.003-.0221zm-3.13 2.4722c-1.1.4218-2.334-.1287-2.756-1.2295-.421-1.1001.129-2.3345 1.229-2.7559 1.1-.4218 2.335.129 2.756 1.2292.422 1.1001-.128 2.3345-1.229 2.7562zm32.427 1.2923-6.775 19.8038c-.01.0354-.021.07-.03.1038-.05.1716-.094.3219-.094.4506 0 .4309.586.6773 1.879.6773h1.232c.739 0 1.263-.1844 1.417-.6466l1.232-3.7578h7.269l1.231 3.7578c.154.4926.832.6466 1.726.6466h1.354c1.078 0 1.54-.2467 1.54-.6773 0-.1543-.03-.339-.092-.5544l-6.776-19.8038c-.185-.4931-.862-.6471-1.755-.6471h-1.602c-.893 0-1.571.154-1.756.6471zm3.05 7.0837 1.755 5.4824h-4.62l1.817-5.4824c.186-.5233.462-1.9707.462-1.9707h.124s.307 1.5705.462 1.9707zm-26.077-7.669c-.863 0-1.233.3697-1.233 1.2323v19.0943c0 .8626.37 1.2324 1.233 1.2324h6.899c6.345 0 9.855-3.8187 9.855-10.7795 0-6.9603-3.51-10.7795-9.855-10.7795zm11.888 10.7797c0 4.3735-1.694 6.7446-4.989 6.7446h-3.357v-13.4891h3.357c3.295 0 4.989 2.3711 4.989 6.7445zm25.246-9.5474c0-.8626.369-1.2323 1.232-1.2323h6.005c5.329 0 7.67 2.0946 7.67 5.7904 0 2.3712-1.479 4.0964-3.604 4.8967v.1233c.77.3081 1.694 1.5092 2.218 2.8339l2.711 6.7753c.092.2467.153.4311.153.5857 0 .3692-.585.6156-1.848.6156h-1.262c-.893 0-1.602-.154-1.787-.6466l-2.433-6.0059c-.616-1.2323-1.108-1.8479-3.111-1.8479h-1.201v7.5148c0 .6468-.554.9856-1.847.9856h-1.049c-1.292 0-1.847-.339-1.847-.9856zm7.669 7.7919c1.263 0 2.371-1.1701 2.371-2.6483 0-1.4171-.985-2.3404-2.586-2.3404h-2.711v4.989h2.926zm12.966-9.0854c-1.292 0-1.848.3388-1.848.9856v19.7108c0 .6466.555.9857 1.848.9857h1.078c1.295 0 1.848-.3388 1.848-.9857v-8.931l.123-.0312 5.791 9.3635c.277.4619.985.5846 1.879.5846h1.786c1.201 0 1.725-.1844 1.725-.4615 0-.1541-.061-.3698-.247-.6472l-6.744-10.348 5.944-9.1166c.184-.2774.246-.4925.246-.6469 0-.2771-.524-.4621-1.724-.4621h-1.448c-.894 0-1.571.1234-1.849.5852l-5.359 8.6852-.123-.0305v-8.2543c0-.6465-.553-.9856-1.848-.9856zm16.08 2.4022h5.914v18.6029c0 .4309.369.6773 1.232.6773h.246c.862 0 1.232-.2467 1.232-.6773v-18.6029h5.821c.432 0 .616-.2771.616-.9243v-.4925c0-.6469-.184-.9242-.616-.9242h-14.445c-.431 0-.615.2773-.615.9242v.4925c0 .6472.184.9243.615.9243zm16.977-1.4165c0-.6469.279-.9243.925-.9243h5.175c4.804 0 7.422 1.5708 7.422 5.4511 0 2.6494-1.387 4.343-3.543 5.2056v.1228c1.293.4314 1.971 1.8175 2.772 3.8502l2.403 6.067c.061.185.092.3394.092.4306 0 .3086-.4.4931-1.293.4931h-.308c-.616 0-1.108-.1845-1.232-.4931l-2.341-6.0355c-.923-2.4027-2.187-3.0186-4.589-3.0186h-2.771v8.8702c0 .4306-.37.6773-1.233.6773h-.246c-.863 0-1.233-.2464-1.233-.6773zm6.776 8.8079c2.218 0 3.943-1.7553 3.943-3.7882 0-2.4943-1.663-3.6032-4.158-3.6032h-3.849v7.3914zm17.077-9.301-7.298 20.2351c-.062.1845-.093.3081-.094.4306 0 .3391.401.5235 1.325.5235h.154c.616 0 1.109-.1228 1.232-.4931l1.755-5.0501h9.055l1.818 5.0501c.123.3703.616.4931 1.232.4931h.246c.924 0 1.324-.2151 1.324-.5235 0-.1228-.031-.2464-.092-.4002l-7.3-20.2655c-.122-.3695-.616-.4928-1.231-.4928h-.893c-.616 0-1.109.1233-1.233.4928zm2.065 4.1273 3.232 9.1774h-7.36l3.235-9.1774.492-1.786zm18.519-4.7429c3.05 0 5.883 1.0774 5.883 1.909 0 .5235-.647 1.7865-1.047 1.7865-.086 0-.244-.0865-.48-.2159-.7-.3826-2.084-1.1395-4.294-1.1395-4.927 0-7.238 2.5872-7.238 8.6548 0 5.913 2.279 8.5931 7.116 8.5931 2.34 0 3.892-.8385 4.706-1.2781.289-.1562.485-.2621.59-.2621.4 0 1.078 1.2932 1.078 1.6629 0 .8316-2.771 2.2177-6.374 2.2177-6.745 0-9.919-3.4494-9.919-10.9645 0-7.3607 3.389-10.9639 9.979-10.9639zm9.499.1844c-.647 0-.925.2774-.925.9243v19.711c0 .6469.278.9243.925.9243h10.78c.43 0 .615-.2774.615-.9243v-.4931c0-.646-.185-.9234-.615-.9234h-8.993v-7.5148h8.038c.43 0 .615-.2771.615-.9242v-.4928c0-.6472-.185-.924-.615-.924h-8.038v-7.022h8.961c.432 0 .616-.2771.616-.9242v-.4925c0-.6469-.184-.9243-.616-.9243zm-172.278 11.6507c.877 2.2907 3.446 3.4361 5.736 2.5587 2.29-.8779 3.436-3.446 2.559-5.7371-.878-2.2898-3.447-3.436-5.737-2.5584-2.291.8776-3.436 3.4466-2.558 5.7368zm7.973 11.8026c-.506.1941-1.074-.0594-1.268-.5659-.195-.5064.059-1.0743.565-1.2684.507-.1941 1.075.0594 1.269.5656.194.5067-.06 1.0746-.566 1.2687zm-13.937-21.1369c.142.3683.555.5528.923.4115.368-.1412.552-.5542.411-.9228-.141-.3681-.554-.5525-.922-.4113-.368.1413-.553.5542-.412.9226z" fill="#d2dbdf" fill-rule="evenodd" opacity=".65"/><g mask="url(#a)"><path d="m160.097 30.0132-.005-.0026s-.002-.0016-.004-.0016c-.096-.0416-.201-.0632-.302-.0632-.163.0011-.319.0497-.456.1348-.139.0879-.257.216-.324.3764v.0039l-3.187 8.693-2.455-5.8267-.004-.0025c-.069-.1629-.193-.2888-.333-.3764-.142-.0879-.305-.1362-.477-.1362-.167 0-.323.0522-.461.1373-.135.0877-.258.2124-.326.3753l-.002.0025-2.461 5.8304-3.203-8.6891h-.002c-.056-.168-.17-.2989-.305-.3854-.138-.0876-.299-.1362-.465-.1373-.105 0-.213.0216-.314.0632h-.004l-.004.0042c-.299.1387-.481.4362-.482.7604 0 .1019.02.2034.059.3039h-.001l3.941 10.5472v.0037c.03.0787.073.1564.137.2328.046.0545.114.1006.184.1387.013.0125.033.0302.064.0493.033.0205.075.0347.118.0421.071.0232.164.057.289.057.159 0 .307-.057.44-.1421.124-.0826.235-.2062.296-.3663l.01-.0076 2.492-5.9376 2.495 5.9134h.002c.058.1576.159.2812.276.3688.124.0928.263.15.41.1714h.104c.1 0 .197-.0188.278-.0506.086-.0329.155-.0764.212-.1194.134-.1019.237-.2418.301-.3971v-.0034l3.915-10.5003c.039-.1005.059-.2009.059-.3023-.001-.3219-.192-.6284-.505-.762zm-18.013 6.0213c0-1.2385-.477-2.3603-1.236-3.1702-.763-.8115-1.796-1.3075-2.919-1.3075s-2.158.496-2.92 1.3075c-.761.8099-1.238 1.9317-1.238 3.1702 0 1.2374.477 2.3486 1.238 3.1534.762.8078 1.797 1.2961 2.92 1.2961s2.16-.4883 2.919-1.2961c.759-.8048 1.236-1.916 1.236-3.1534zm-.022-4.2997c1.054 1.1141 1.694 2.6427 1.697 4.2997-.003 1.657-.643 3.184-1.697 4.2983-1.046 1.1124-2.506 1.8158-4.13 1.8158-1.612 0-3.075-.7034-4.125-1.8158-1.051-1.1143-1.702-2.6413-1.702-4.2983s.651-3.1856 1.702-4.2997c1.05-1.1115 2.513-1.8146 4.125-1.8146 1.624 0 3.084.7031 4.13 1.8146zm-16.59-1.793c-1.307 0-2.499.5076-3.39 1.3175v-.4841c-.001-.2227-.084-.4303-.229-.5828-.142-.15-.351-.2506-.581-.2506-.237 0-.451.0953-.6.2492-.147.1514-.235.3615-.235.5842v10.7924l.034.0341.002.0053c.009.0356.031.075.055.1129.114.1997.3.3511.531.4183l.033.0104h.18c.12 0 .241-.0253.356-.0789.096-.0458.185-.1195.257-.2136l.002.0012c.009-.0087.012-.0203.022-.029.004-.0014.008-.0053.01-.0092.045-.0571.082-.1155.105-.1703.024-.0648.039-.126.051-.173l.007-.0306v-6.4803c.025-.927.407-1.7649 1.021-2.3742.61-.6088 1.445-.9854 2.369-.9854.939 0 1.777.3766 2.384.9854.61.607.98 1.4435.98 2.3654v6.3635c0 .2324.099.4475.25.595.154.1472.365.234.584.234.223 0 .433-.0868.586-.234.155-.1475.25-.3626.25-.595v-6.3635c0-2.7466-2.251-5.0103-5.034-5.0143zm82.235 4.9124c-.475-1.9188-2.165-3.2859-4.094-3.282-1.978 0-3.645 1.3379-4.161 3.282zm1.827.7862v.0824c0 .2303-.103.4376-.26.5738-.155.1371-.358.2084-.576.211h-9.362c.238 2.2773 2.062 3.9589 4.24 3.9764h.552c.721.0025 1.423-.2455 2.04-.6562.618-.4068 1.153-.9753 1.529-1.6011.078-.1335.19-.2352.31-.2975.124-.0674.257-.098.391-.098.148 0 .295.0382.423.1157l.009.0039.01.0076c.235.1717.382.4337.382.7213 0 .1461-.038.295-.119.4296l-.002.0052-.003.0023c-.523.8295-1.236 1.586-2.083 2.1342-.848.5492-1.832.8976-2.887.8976h-.561c-1.643-.0115-3.128-.7034-4.199-1.8096-1.068-1.1025-1.725-2.6171-1.725-4.2815 0-1.6927.663-3.2289 1.74-4.3404 1.076-1.1101 2.573-1.7969 4.23-1.7969 1.582 0 3.003.627 4.055 1.6534 1.053 1.0261 1.74 2.4514 1.863 4.0551zm-38.402-10.7432c-.228 0-.437.0955-.587.2455-.151.1488-.247.3587-.247.5862v15.5907c0 .2276.096.436.247.5837.15.1473.359.2453.587.2453.474 0 .856-.3714.859-.829v-15.5907c-.003-.459-.385-.8317-.859-.8317zm-54.555 10.8396c-.674-.3166-1.438-.5506-2.201-.8023-.702-.2365-1.414-.4376-1.921-.7019-.255-.1363-.454-.2798-.583-.4413-.132-.1613-.195-.3256-.199-.5495.001-.3064.09-.5531.241-.7719.228-.3267.611-.5811 1.029-.7454.414-.1648.861-.2425 1.182-.2425.946.0014 1.545.3154 2.004.6407.227.1643.418.3307.599.468.093.0713.18.1362.281.1843.095.0472.208.0854.33.0854.078 0 .156-.0141.227-.0444.076-.0304.141-.0739.203-.1273.062-.057.114-.1258.151-.2022.033-.0789.048-.1601.048-.2402 0-.1477-.047-.2862-.115-.4162-.126-.2287-.32-.4473-.567-.6661-.368-.3255-.852-.6359-1.374-.8697-.523-.234-1.084-.3932-1.619-.3932-1.239 0-2.273.2798-3.025.7952-.391.2694-.736.5643-.979.9714-.248.4081-.386.9117-.403 1.5665-.002.0293-.002.0585-.002.0877-.002.6359.203 1.1601.526 1.5705.49.6182 1.217.9882 1.93 1.2502.712.2619 1.424.4183 1.873.5683.632.2099 1.305.4374 1.794.7388.244.1539.442.3194.576.5011.13.1871.204.3801.207.6244v.018c-.002.3534-.106.6306-.278.8683-.261.3536-.693.6129-1.153.777-.457.1603-.933.228-1.24.228-1.08 0-1.803-.2598-2.327-.5202-.263-.1312-.476-.2609-.669-.3704-.096-.052-.185-.1004-.279-.1386-.092-.0379-.19-.0625-.301-.0625-.068 0-.142.0117-.21.0382-.068.0294-.131.0701-.183.1196-.073.0704-.137.1489-.181.2393s-.066.1857-.066.2848c0 .1629.061.3118.148.4464.137.1944.337.3688.587.5429.258.1717.565.341.92.5076.786.37 1.794.5632 2.559.5759h.002c1.191 0 2.219-.2734 3.085-.9091v-.0016h.001c.847-.6357 1.374-1.5806 1.374-2.6475 0-.5862-.137-1.0834-.378-1.4902-.364-.6168-.955-1.0236-1.624-1.3443zm67.136.2977c0-1.2502-.473-2.3705-1.229-3.179-.756-.8064-1.793-1.2958-2.927-1.2985-1.125 0-2.158.4921-2.921 1.2985-.758.8085-1.237 1.9288-1.237 3.179 0 1.2489.479 2.3617 1.237 3.1638.759.8025 1.796 1.2857 2.921 1.2857 1.137 0 2.174-.4832 2.929-1.2829.754-.8049 1.227-1.9166 1.227-3.1666zm1.419-5.8826c.154.1486.25.3638.25.5961v10.5716c0 .2276-.098.436-.245.5837-.151.1473-.358.2453-.588.2453s-.44-.098-.588-.2453c-.151-.1477-.248-.3561-.248-.5837v-1.0314c-1.05 1.1306-2.524 1.8604-4.156 1.8604-1.624 0-3.086-.6955-4.133-1.8096-1.051-1.1087-1.694-2.6362-1.694-4.3045s.643-3.1971 1.694-4.307c1.047-1.1129 2.509-1.8073 4.133-1.8073 1.631 0 3.106.7087 4.156 1.8337v-1.0059c0-.2323.096-.4475.25-.5961.155-.1463.363-.2317.586-.2317.221 0 .431.0854.583.2317zm11.778 1.0719c.166-.164.257-.3817.257-.5977 0-.2124-.091-.425-.258-.5789h.001c-.001-.0048-.005-.0048-.005-.0048-.001-.0039-.004-.0053-.004-.0053h-.002c-.161-.1576-.368-.2441-.581-.2441-.215 0-.426.0895-.586.2494l-6.523 6.3368v-10.6503c0-.459-.385-.8317-.859-.8317-.228 0-.437.0955-.586.2455-.148.1488-.248.3587-.248.5862v15.5907c0 .2276.1.436.248.5837.149.1473.358.2453.586.2453.474 0 .859-.3714.859-.829v-2.5727l2.124-2.1146 4.33 5.2073c.081.1196.193.202.302.2455.125.0471.246.0635.354.0635.15 0 .361-.0318.546-.1767l.01-.0062.011-.0118c.173-.1702.272-.3966.272-.6281 0-.1946-.073-.393-.207-.5517v-.0025l-4.407-5.3413 4.362-4.2065zm-29.219-6.2896h-.186c-.025 0-.049.0026-.075.0035-.022-.0009-.047-.0035-.071-.0035-.481 0-.948.0546-1.384.1995-.43.1424-.827.3778-1.134.7351l-.001-.0014-.001.0014v.0011c-.318.3523-.528.7733-.655 1.2517-.128.4806-.18 1.0222-.185 1.6377v1.1918h-1.318c-.458.0025-.821.3674-.821.8087-.003.2376.09.4564.241.6143.152.155.359.2567.59.2694h1.308v9.6964l-.002.0227c0 .2276.096.4374.251.5876.152.1475.367.2352.601.2352.444-.0023.808-.3635.81-.8228v-9.7191h1.417c.228-.0127.439-.1081.589-.2621.155-.1537.249-.3697.249-.6039v-.0315c-.005-.4365-.371-.7949-.829-.7949h-1.426v-1.1868c.009-.525.063-.918.142-1.204.077-.2876.182-.4682.276-.58.092-.0992.212-.182.407-.2483.196-.0632.468-.1039.836-.1039h.043c.022 0 .045-.004.065-.004.026 0 .05.004.077.004h.107.079c.47 0 .849-.379.849-.8472 0-.4677-.379-.8467-.849-.8467zm-84.0208 11.6507c.0676-.2124.0958-.4312.0907-.6473-.0079-.1564-.0282-.3126-.0727-.4691-.1341-.4857-.4517-.9196-.9276-1.1932l-6.7689-3.8961c-.9555-.5482-2.1737-.2222-2.7221.7289-.5537.9498-.2271 2.1627.7284 2.7124l3.7825 2.1807-3.7825 2.1746c-.9555.5506-1.2809 1.7638-.7284 2.7175.5484.9486 1.7666 1.273 2.7221.7247l6.7689-3.8986c.4567-.2621.7667-.673.9096-1.1345zm1.837 3.651c-.389-.0331-.7933.0484-1.1571.2596l-6.7739 3.8936c-.953.5494-1.2784 1.7688-.7284 2.7202.5525.9488 1.7696 1.2755 2.7212.7235l3.7951-2.1822v4.3606c0 1.0986.8916 1.9888 1.9951 1.9888 1.0982 0 1.9926-.8902 1.9926-1.9888v-7.7954c0-1.0467-.8139-1.9062-1.8446-1.9799zm6.937-8.4721c.3878.032.791-.0506 1.1548-.2593l6.772-3.8972c.955-.5497 1.279-1.764.73-2.7179-.55-.9496-1.7679-1.2754-2.7209-.7262l-3.7926 2.1848v-4.362c0-1.0956-.8916-1.986-1.9951-1.986s-1.9928.8904-1.9928 1.986v7.7955c0 1.0455.8116 1.9064 1.8446 1.9823zm-14.868-4.1565 6.7739 3.8972c.3638.2087.7681.2913 1.1571.2593 1.0307-.0759 1.8446-.9368 1.8446-1.9823v-7.7955c0-1.0956-.8944-1.986-1.9926-1.986-1.1035 0-1.9951.8904-1.9951 1.986v4.362l-3.7951-2.1848c-.9516-.5492-2.1687-.2234-2.7212.7262-.55.9539-.2246 2.1682.7284 2.7179zm12.7301 8.3775c0-.1132-.0688-.271-.1491-.3548l-.8152-.8089c-.0803-.0798-.2387-.1461-.3525-.1461h-.0316c-.1135 0-.2716.0663-.3508.1461l-.8152.8089c-.0817.0838-.1443.2416-.1443.3548v.0318c0 .1118.0626.2682.1443.3497l.8152.8112c.0803.0801.2373.1461.3508.1461h.0316c.1138 0 .2722-.066.3525-.1461l.8152-.8112c.0803-.0815.1491-.2379.1491-.3497zm2.2503.7781-2.8153 2.8031c-.0806.0823-.2361.1497-.3534.1497h-.2042-.416-.2077c-.1138 0-.2719-.0674-.3536-.1497l-2.814-2.8031c-.0805-.0789-.1456-.2376-.1456-.3497v-.2073-.4146-.2045c0-.1146.0651-.2736.1456-.3536l2.814-2.8028c.0817-.0826.2398-.1475.3536-.1475h.2077.416.2042c.1147 0 .2728.0649.3534.1475l2.8153 2.8028c.0804.08.1455.239.1455.3536v.2045.4146.2073c0 .1121-.0651.2708-.1455.3497zm7.8144 7.6262-6.772-3.8936c-.3638-.2112-.767-.2927-1.1548-.2596-1.033.0737-1.8446.9332-1.8446 1.9799v7.7954c0 1.0986.8893 1.9888 1.9928 1.9888s1.9951-.8902 1.9951-1.9888v-4.3606l3.7926 2.1822c.9528.552 2.1709.2253 2.7209-.7235.549-.9514.225-2.1708-.73-2.7202zm3.581-10.5686-3.782 2.1807 3.782 2.1746c.956.5506 1.282 1.7638.73 2.7175-.551.9486-1.77 1.273-2.722.7247l-6.7742-3.8986c-.4517-.2621-.7654-.673-.9046-1.1345-.0662-.2124-.0969-.4312-.0893-.6473.0039-.1564.0268-.3126.0702-.4691.1355-.4857.453-.9194.9237-1.1932l6.7742-3.8961c.952-.5482 2.171-.2222 2.722.7289.552.9498.226 2.1627-.73 2.7124zm109.848-3.8892c0 1.0931-.734 2.0053-1.96 2.0053-1.218 0-1.943-.921-1.943-2.0053 0-1.0931.725-2.0056 1.943-2.0056 1.226 0 1.96.9125 1.96 2.0056zm-.389 0c0-.9295-.621-1.6357-1.571-1.6357-.933 0-1.554.6714-1.554 1.6357 0 .9207.621 1.6351 1.554 1.6351.95 0 1.571-.7056 1.571-1.6351zm-2.34-.904h.838c.457 0 .76.2496.76.6368 0 .2412-.121.4218-.303.5338l.329.4733v.0948h-.475l-.32-.4563h-.371v.4563h-.458zm.829.422h-.371v.456h.371c.173 0 .285-.0776.285-.2237 0-.155-.104-.2323-.285-.2323z" fill="#d2dbdf"/></g><path d="m296.837 27.0912v17.9963h-4.176v-1.9069c-.948 1.5494-2.695 2.4432-5.243 2.4432-4.235 0-6.338-2.2048-6.338-5.7206v-12.812h4.561v11.5904c0 1.8771 1.007 2.9795 2.962 2.9795 2.281 0 3.673-1.311 3.673-3.7244v-10.8455zm29.617 5.4228v12.5735h-4.561v-11.203c0-2.1452-.859-3.4562-2.844-3.4562-1.984 0-3.139 1.4898-3.139 3.5754v11.0838h-4.561v-11.203c0-2.2942-.948-3.4562-2.843-3.4562-2.014 0-3.14 1.4898-3.14 3.5754v11.0838h-4.561v-17.9963h4.236v1.9963c1.036-1.7281 2.754-2.5922 5.094-2.5922 2.28 0 3.998.9535 4.975 2.6518 1.215-1.7579 3.021-2.6518 5.361-2.6518 3.821 0 5.983 2.2943 5.983 6.0187zm36.606 12.5735h-4.561v-25.0279h4.561zm49.461 0h-4.561v-17.9963h4.561zm-4.65-20.7076h4.709v-4.3799h-4.709zm21.739 14.5698c-1.866 1.9963-3.14 2.771-4.858 2.771-2.043 0-3.494-1.1918-4.146-3.0391v-5.244c.681-1.8771 2.132-3.0689 4.206-3.0689 1.51 0 2.724.5363 4.65 2.3538l2.843-2.8305c-2.281-2.5028-4.502-3.4265-7.493-3.4265-4.176 0-7.405 2.2049-8.678 5.8995v7.3892c1.244 3.6946 4.413 5.8696 8.559 5.8696 3.228 0 5.45-1.0726 7.938-4.1713zm-158.422-4.946c-1.244-.2681-2.132-.5065-2.636-.6257-.621-.1787-1.095-.4171-1.332-.7449v-1.3705c.414-.6555 1.421-1.0727 2.813-1.0727 1.925 0 3.258.447 5.361 2.1155l2.458-2.9795c-2.488-2.0857-4.62-2.8306-7.7-2.8306-3.554 0-6.012 1.46-6.99 3.5457v4.5288c.77 1.5196 2.547 2.3836 6.101 3.1583 1.274.298 2.133.5065 2.636.5959.652.2086 1.244.4767 1.57.9535v1.5791c-.444.7151-1.511 1.1024-2.903 1.1024-1.007.0298-1.984-.1787-2.902-.5661-.889-.3575-1.925-1.0428-3.228-2.1154l-2.636 2.9497c2.843 2.5326 5.242 3.3966 8.648 3.3966 3.643 0 6.22-1.4003 7.197-3.635v-4.5586c-.829-1.6984-2.814-2.5922-6.457-3.4265zm67.231-7.5382c-4.117 0-7.345 2.2347-8.678 5.8101v7.568c1.303 3.5754 4.561 5.81 8.678 5.81s7.315-2.2346 8.618-5.7802v-7.6276c-1.332-3.5456-4.561-5.7803-8.618-5.7803zm4.206 12.2459c-.711 1.9068-2.222 3.0391-4.236 3.0391-1.984 0-3.554-1.1323-4.265-3.0391v-5.3036c.711-1.9069 2.222-3.0689 4.265-3.0689 2.014 0 3.495 1.162 4.206 3.0689zm32.637-12.2459c-4.116 0-7.345 2.2347-8.677 5.8101v7.568c1.332 3.5754 4.561 5.81 8.677 5.81 4.117 0 7.316-2.2346 8.619-5.7802v-7.6276c-1.303-3.5456-4.531-5.7803-8.619-5.7803zm4.206 12.2459c-.711 1.9068-2.221 3.0391-4.206 3.0391-1.984 0-3.554-1.1323-4.264-3.0391v-5.3036c.71-1.9069 2.221-3.0689 4.264-3.0689 2.044 0 3.495 1.162 4.206 3.0689zm20.288-11.6202v1.9963c-1.155-1.7281-2.962-2.5922-5.45-2.5922-3.376 0-6.101 2.0857-7.286 5.393v7.419c1.155 3.3072 3.88 5.3631 7.286 5.3631 2.281 0 3.998-.7747 5.213-2.2942v1.4301c0 2.9795-1.718 4.3799-4.384 4.3799-1.984 0-3.613-.5959-6.219-2.1452l-2.221 3.3072c2.517 1.6984 5.479 2.622 8.5 2.6518 5.035 0 8.737-2.7114 8.737-7.7765v-17.1323zm-.563 10.9349c-.681 1.6983-2.103 2.7709-3.88 2.7709s-3.198-1.0428-3.88-2.7709v-4.9162c.682-1.6984 2.074-2.7412 3.88-2.7412 1.807 0 3.199 1.0428 3.88 2.7412z" fill="#d2dbdf"/></svg>