<svg fill="none" height="72" viewBox="0 0 744 72" width="744" xmlns="http://www.w3.org/2000/svg"><g fill="#d2dbdf"><path d="m548.83 24.6752c-5.195 0-9.423 4.2462-9.423 9.4662s4.228 9.4662 9.423 9.4662 9.421-4.2462 9.421-9.4662-4.226-9.4662-9.421-9.4662zm0 14.4461c-2.732 0-4.958-2.2365-4.958-4.9799 0-2.7447 2.226-4.9799 4.958-4.9799 2.73 0 4.957 2.2352 4.957 4.9799 0 2.7446-2.226 4.9799-4.958 4.9799zm-27.749-6.897-1.647-.8264c-.716-.3559-1.164-.6313-1.345-.8348-.172-.1804-.27-.4188-.274-.6679 0-.3193.144-.5887.427-.7983.28-.2194.678-.3193 1.184-.3193.925 0 1.95.5582 3.079 1.6831l2.781-2.7946c-.683-.9306-1.577-1.6865-2.608-2.206-1.018-.512-2.142-.7759-3.281-.7703-1.698 0-3.099.5009-4.191 1.5101-1.091 1.0091-1.64 2.2218-1.64 3.6441 0 2.206 1.445 4.0439 4.343 5.5027l1.517.7618c1.308.6618 1.959 1.3357 1.959 2.0329 0 .3778-.182.7044-.543.9945-.36.2913-.838.429-1.43.429-.549 0-1.178-.1889-1.886-.5728-.705-.3778-1.333-.8856-1.85-1.4967l-2.767 3.0275c1.56 2.0475 3.641 3.0786 6.256 3.0786 1.966 0 3.535-.5375 4.698-1.6052 1.17-1.0664 1.755-2.4021 1.755-4 0-1.198-.325-2.2498-.968-3.1432-.65-.8933-1.842-1.7635-3.569-2.6276zm-27.978 9.3211v-16.4936h-4.473v1.1042c-1.507-.9687-3.261-1.4828-5.053-1.4808-5.194 0-9.421 4.2462-9.421 9.4662s4.227 9.4662 9.423 9.4662c1.77.0026 3.504-.4983 5-1.4443 0 .145-.007.2755-.007.3632 0 2.7435-2.226 4.9799-4.957 4.9799-.929-.0021-1.838-.2666-2.623-.7629l-2.212 3.8915c1.459.8897 3.134 1.3619 4.842 1.365 5.196 0 9.481-4.2474 9.481-9.4674 0-.2023.014-.7983 0-.9872zm-9.524-2.4254c-2.73 0-4.957-2.2352-4.957-4.9786 0-2.7447 2.225-4.9799 4.957-4.9799 2.731 0 4.956 2.2352 4.956 4.9799 0 2.7434-2.225 4.9799-4.956 4.9799zm27.341-14.0743h-4.494v8.9994c.007 1.2785.007 3.4857-.932 4.429-.448.4497-.939.8568-1.973.8568-1.041 0-1.532-.4071-1.979-.8568-.94-.9445-.932-3.1578-.926-4.429v-8.9994h-4.494v8.9726c-.014 1.8501-.036 5.2846 2.218 7.5637 1.323 1.3357 2.899 2.0182 5.174 2.0182 2.277 0 3.851-.6752 5.174-2.0182 2.254-2.2791 2.232-5.7209 2.218-7.5637l.014-8.9738zm25.471 13.27c-.36.2754-1.235.886-2.225.7483-.809-.1097-1.466-.7045-1.567-2.6935v-7.4625h5.282v-3.8769h-5.282v-5.0311h-4.481v.9872h-.007v14.7959c0 2.3522.592 7.8171 6.048 7.8171 2.76-.0426 4.436-1.5454 5.138-2.1328l.094-.0731-2.689-3.3248c-.007.0061-.195.1584-.311.2462z"/><g clip-rule="evenodd" fill-rule="evenodd"><path d="m257.777 23.3116c.092-.1221.137-.2594.137-.4119 0-.2139-.045-.5853-.136-1.1141-.143-.8652-.23-1.4044-.26-1.6179-.041-.1118-.194-.1677-.458-.1677-.194 0-.392.0759-.595.2285.488 1.9128.732 2.9713.732 3.1748.122.0507.214.076.275.076.112 0 .213-.0557.305-.1677zm1.191.1677c.529-.1731.951-1.1853 1.267-3.0369-.377-.2036-.616-.3052-.717-.3052-.122 0-.214.0557-.275.168-.091.5084-.214 1.1142-.367 1.8155-.111.5196-.167.8296-.167.9316 0 .1422.087.2847.259.427zm3.892-1.9531c0 .0814-.142.3052-.427.6714-1.069 1.394-1.654 2.0906-1.755 2.0906-.082 0-.178-.0459-.291-.137-.102-.0914-.152-.1784-.152-.2596 0-.0406.148-.2597.443-.6562.447-.5903.839-1.1398 1.175-1.6484.061-.0917.127-.1835.198-.2748.071-.1015.184-.1526.336-.1526.102 0 .203.0408.306.1222.111.0815.167.1629.167.2444zm1.664 2.1669c0 .1629-.265.3867-.794.6713-1.171.6207-1.873.9312-2.106.9312-.102 0-.204-.0407-.306-.1218-.091-.0818-.137-.1629-.137-.2443 0-.0917.234-.2697.702-.5346 1.353-.7527 2.096-1.1292 2.228-1.1292.091 0 .183.0458.275.1376.092.0913.138.1883.138.2898zm.518 2.5182c0 .2847-.152.4429-.457.4733-.011 0-.306.0406-.886.1221-.417.0609-.783.0914-1.098.0914-.51 0-.764-.1475-.764-.4424 0-.214.194-.3306.58-.3513.286-.0101.677-.0967 1.175-.2593.499-.1731.825-.2594.978-.2594.314.0001.472.2085.472.6256zm-.152 2.152-.061.3667c-.234.1624-.377.2439-.428.2439s-.31-.0764-.778-.229c-.641-.2136-1.257-.3969-1.847-.5495.03-.427.209-.6409.534-.6409.132 0 .402.0763.809.2289.407.1423.682.2135.824.2135.112 0 .428.1221.947.3664zm-8.624-4.5176c.072-.1118.107-.2236.107-.3356 0-.1526-.239-.5088-.717-1.0684-.702-1.048-1.15-1.572-1.343-1.572-.112 0-.229.0609-.351.1831-.123.1222-.183.2445-.183.3666 0 .0403.102.2183.305.5336.274.4176.615.8652 1.022 1.3435.418.4681.733.7015.947.7015.071 0 .142-.0506.213-.1523zm7.83 7.0511c0 .1017-.061.2037-.183.3049-.112.0917-.234.1376-.367.1376-.142 0-.427-.1779-.854-.5342-1.059-.875-1.588-1.3683-1.588-1.4807 0-.0609.133-.264.397-.6104 1.73 1.1909 2.595 1.9184 2.595 2.1828zm-1.877 2.1213c.132-.0917.198-.1834.198-.2748 0-.183-.432-.8853-1.296-2.1061-.357-.5084-.591-.7631-.703-.7631-.081 0-.167.051-.259.1527-.092.102-.138.2087-.138.3206 0 .0509.107.2795.321.6867.295.5598.651 1.1293 1.068 1.7092.204.2748.351.412.443.412.122 0 .244-.0458.366-.1372zm-7.172-8.2803c0 .1015-.046.1984-.138.2897-.091.0815-.188.1223-.29.1223-.071 0-.504-.1491-.932-.4646-1.037-.7429-1.638-1.1704-1.801-1.2819.021-.2242.092-.4123.214-.5646.122-.153.244-.2292.366-.2292.305 0 .855.3764 1.649 1.1291.118.1112.233.2145.339.31v.0001c.341.3066.593.5338.593.6891zm4.959 3.7936c.458-.4783.687-1.028.687-1.6487 0-.6306-.3-1.1798-.901-1.6479-.559-.4377-1.098-.6563-1.618-.6563-.528 0-1.027.2392-1.495.7171-.468.478-.703 1.0123-.703 1.6026 0 .6614.219 1.2158.657 1.6636.448.4477 1.022.6714 1.725.6714.641 0 1.19-.234 1.648-.7018zm-1.786-2.7929c.824.0913 1.237.5239 1.237 1.2967 0 .3465-.107.6311-.321.8549-.214.2139-.488.3203-.824.3203-.306 0-.559-.1115-.763-.3354-.204-.2241-.306-.4834-.306-.7783 0-.4069.087-.7328.261-.9771.182-.2443.421-.3711.716-.3811zm-3.606.9767c-.097.0956-.301.1067-.332.1067-.284 0-1.043-.1578-2.274-.4729-.315-.0815-.478-.1223-.488-.1223-.091-.0509-.137-.1731-.137-.3665 0-.4475.086-.6713.259-.6713.051 0 .311.0913.778.2744.539.2138 1.049.3665 1.526.4578.245.0411.256.0444.408.1076.026.0107.051.0193.074.0273.07.0248.128.0452.186.11.141.1609.152.3987 0 .5492zm5.026 7.2336c.254 0 .381-.1573.381-.4729 0-.0205-.183-.865-.549-2.5335-.061-.2744-.209-.412-.443-.412-.193 0-.386.0562-.579.168.386 1.7295.579 2.7416.579 3.0369v.0458c.102.112.306.1677.611.1677zm-1.649-3.2504c0 .1933-.051.5089-.153.9462-.132.5289-.213.9157-.244 1.16-.04.2949-.076.5847-.107.8694-.051.1834-.172.2747-.366.2747-.397 0-.595-.2032-.595-.6104 0-.0813.071-.3764.213-.8853.184-.6203.321-1.1951.413-1.7242.03-.1934.203-.2898.519-.2898.213 0 .32.0867.32.2594zm-6.211-1.4807c.092 0 1.119-.412 3.082-1.2359v-.4885c-.101-.1527-.234-.2286-.397-.2286-.08 0-.233.0459-.457.1372-.326.1426-.57.2392-.733.2898l-.747.2443-.748.2443c-.275.1017-.413.2286-.413.3815 0 .4373.138.6559.413.6559zm5.051 1.0229c0 .1222-.504.8497-1.511 2.1822-.325.4377-.519.6562-.58.6562-.305 0-.458-.1324-.458-.3969 0-.1016.169-.4068.504-.9158.682-1.0271 1.124-1.704 1.328-2.0293.478.1118.717.2795.717.5036zm-4.121 1.0229c.214 0 1.196-.5856 2.946-1.7555-.051-.4784-.218-.7173-.504-.7174-.182 0-1.098.524-2.747 1.5721-.152.1017-.228.2444-.228.4271 0 .1221.05.234.151.336.102.0918.23.1377.382.1377zm46.662 9.9626v.9789c0 .1478-.017.3456-.055.5914-.025.2467-.104.4927-.241.7394-.135.2342-.344.4373-.628.6105-.282.1723-.683.2578-1.201.2578-.209 0-.412-.0181-.609-.0553-.198-.0364-.37-.0981-.518-.1851-.148-.098-.265-.2278-.35-.3874-.087-.1598-.13-.3574-.13-.5915 0-.2467.043-.4492.13-.6097.085-.1604.196-.2902.331-.3881.148-.1109.315-.197.5-.2587.197-.0617.394-.1115.591-.1479.209-.0371.418-.068.629-.0925.209-.0246.406-.0554.59-.0924.197-.0365.377-.08.536-.1297.173-.0619.315-.1418.425-.2397zm-6.061-1.9406h2.624c.049-.5179.222-.8872.518-1.1093.295-.2214.702-.3321 1.219-.3321.234 0 .45.0181.647.0553.209.0246.389.0861.536.1851.161.0862.283.215.37.3874.098.1604.147.3828.147.6658.013.2712-.067.4808-.239.6278-.174.1361-.408.2404-.702.3147-.296.0744-.636.1289-1.018.1661-.382.0373-.769.0861-1.164.1479-.394.0616-.788.1479-1.183.2585-.382.0989-.726.2531-1.035.4619-.295.2094-.541.4933-.738.8508-.185.3448-.278.7884-.278 1.33 0 .4935.08.9181.241 1.2755.172.3575.406.6532.702.8871.296.2342.641.4058 1.035.5173.394.1106.819.1662 1.275.1662.591 0 1.17-.0864 1.737-.2587.567-.1724 1.06-.4744 1.479-.9054.011.1604.03.3203.055.4806.037.1479.08.2951.13.4437h2.661c-.124-.1976-.21-.4934-.259-.8872-.05-.3946-.074-.8073-.074-1.2383v-4.9715c0-.5788-.129-1.0405-.388-1.3861-.259-.3573-.591-.6341-.999-.8314-.406-.1974-.855-.3262-1.348-.3879-.493-.0739-.98-.1106-1.46-.1106-.53 0-1.06.0549-1.59.1659-.517.0985-.985.2712-1.404.5176-.419.2463-.764.5728-1.034.9794-.273.4063-.426.9179-.463 1.5339zm-7.078-2.9383v9.5545h2.625v-4.3062c0-.4312.042-.8319.128-1.2013.087-.3693.229-.6903.426-.9608.209-.283.481-.5052.813-.6658.333-.1597.739-.2395 1.22-.2395.16 0 .326.0118.499.037.172.0119.32.0302.444.0554v-2.4393c-.21-.0621-.401-.0925-.574-.0925-.332 0-.653.0488-.961.1473-.308.099-.598.2404-.869.4252-.27.1722-.511.3881-.72.6468-.21.2466-.376.517-.499.8127l-.037-1.7735zm-1.996 9.5544v-9.5544h-2.624v5.0079c0 .9732-.16 1.6762-.48 2.1073-.32.4182-.838.6278-1.553.6278-.628 0-1.066-.1906-1.311-.5733-.247-.3939-.371-.9854-.371-1.7736v-5.3962h-2.623v5.8768c0 .5908.049 1.1332.148 1.6266.11.48.295.8927.554 1.2376.258.3329.61.5914 1.053.7757.456.1851 1.035.2776 1.737.2776.555 0 1.096-.1227 1.626-.3694.531-.2466.962-.6468 1.294-1.2012l.056 1.3308zm-12.141-9.5544v-2.3564h-2.624v2.3564h-1.589v1.7554h1.589v5.6364c0 .4808.08.8692.24 1.1648.16.2958.376.5235.647.6832.283.1598.603.2658.961.3147.369.0609.758.0919 1.164.0919.259 0 .524-.0064.795-.0182.27-.0128.517-.0373.739-.0737v-2.0329c-.123.0246-.253.0426-.388.0553-.136.0118-.277.0183-.425.0183-.444 0-.739-.0737-.888-.2215-.147-.1479-.221-.4436-.221-.8872v-4.7311h1.922v-1.7554zm-8.02-2.3565v11.911h2.624v-11.911zm-4.731 7.2354v.9789c0 .1478-.018.3456-.056.5914-.025.2467-.104.4927-.24.7394-.136.2342-.345.4373-.628.6105-.283.1723-.684.2578-1.201.2578-.21 0-.413-.0181-.61-.0553-.197-.0364-.37-.0981-.517-.1851-.149-.098-.266-.2278-.351-.3874-.087-.1598-.13-.3574-.13-.5915 0-.2467.043-.4492.13-.6097.085-.1604.197-.2902.332-.3881.147-.1109.314-.197.499-.2587.197-.0617.394-.1115.591-.1479.21-.0371.418-.068.629-.0925.209-.0246.406-.0554.591-.0924.197-.0365.376-.08.536-.1297.172-.0619.314-.1418.425-.2397zm-6.062-1.9406h2.625c.049-.5179.221-.8872.517-1.1093.296-.2214.702-.3321 1.22-.3321.234 0 .449.0181.646.0553.21.0246.388.0861.536.1851.161.0862.284.215.37.3874.098.1604.148.3828.148.6658.012.2712-.068.4808-.24.6278-.173.1361-.408.2404-.702.3147-.296.0744-.635.1289-1.018.1661-.381.0373-.769.0861-1.164.1479-.394.0616-.788.1479-1.182.2585-.382.0989-.727.2531-1.035.4619-.295.2094-.542.4933-.739.8508-.185.3448-.278.7884-.278 1.33 0 .4935.08.9181.241 1.2755.172.3575.406.6532.702.8871.296.2342.641.4058 1.035.5173.394.1106.819.1662 1.275.1662.591 0 1.171-.0864 1.737-.2587.567-.1724 1.06-.4744 1.479-.9054.012.1604.031.3203.055.4806.037.1479.08.2951.13.4437h2.661c-.124-.1976-.21-.4934-.259-.8872-.049-.3946-.074-.8073-.074-1.2383v-4.9715c0-.5788-.129-1.0405-.388-1.3861-.259-.3573-.591-.6341-.998-.8314-.407-.1974-.856-.3262-1.349-.3879-.493-.0739-.979-.1106-1.46-.1106-.53 0-1.06.0549-1.589.1659-.518.0985-.986.2712-1.405.5176-.419.2463-.764.5728-1.035.9794-.271.4063-.425.9179-.462 1.5339zm-10.257-5.2948v11.911h2.625v-5.7013l3.641 5.7013h3.178l-3.686-5.7013 3.686-6.2097h-3.179l-3.64 6.2097v-6.2097zm9.962 15.3698c0 .4746.138.8515.412 1.1308.275.2793.645.4189 1.111.4189.469 0 .84-.1396 1.114-.4189s.411-.6562.411-1.1308c0-.4855-.137-.8712-.411-1.1569-.274-.2856-.645-.4285-1.114-.4285-.466 0-.836.1429-1.111.4285-.274.2857-.412.6714-.412 1.1569zm2.24-.0083c0 .2939-.061.5175-.183.6709-.123.1533-.301.23-.534.23-.234 0-.411-.0767-.533-.23-.121-.1534-.182-.377-.182-.6709 0-.3012.061-.5298.182-.6858.122-.1561.299-.2342.533-.2342.233 0 .411.0781.534.2342.122.156.183.3846.183.6858zm1.341-1.4976h.373.375v.4408l.052-.0739c.212-.2975.491-.4463.838-.4463.378 0 .681.1396.91.4189s.344.6471.344 1.1035c0 .4838-.115.8734-.344 1.1692-.229.2957-.532.4435-.91.4435-.345 0-.624-.1387-.835-.4162l-.017-.0219v1.5279h-.391-.395zm1.413 2.4095c.21 0 .374-.0789.493-.2369.119-.1579.178-.3773.178-.6585 0-.2866-.059-.5106-.177-.6722-.117-.1615-.281-.2423-.491-.2423s-.374.0831-.492.2492c-.117.1661-.176.397-.176.6927 0 .272.059.4847.176.638.118.1533.281.23.489.23zm2.162.2272c.246.2793.595.419 1.048.419.368 0 .676-.0858.921-.2574.246-.1715.402-.4089.47-.7119h-.8c-.02.095-.081.1762-.182.2437-.101.0676-.211.1013-.33.1013-.255 0-.438-.073-.547-.219-.086-.1168-.138-.293-.156-.5285h2.028c.013-.0602.018-.1195.014-.1779 0-.5075-.123-.8986-.368-1.1733-.246-.2747-.596-.4121-1.05-.4121-.444 0-.791.1346-1.041.4038-.25.2693-.375.6421-.375 1.1185 0 .5167.123.9146.368 1.1938zm1.505-1.8728c.077.1004.124.2401.142.4189h-1.215c.029-.1588.076-.2875.142-.3861.106-.1551.26-.2327.463-.2327.212 0 .368.0666.468.1999zm1.481-.7639h.373.375v.4408c.031-.0529.065-.1032.101-.1507.194-.2464.475-.3696.844-.3696.314 0 .559.0931.737.2793.178.1861.267.4445.267.7748v2.0043h-.391-.394v-1.8619c0-.1843-.04-.3208-.119-.4094-.08-.0884-.202-.1327-.366-.1327-.206 0-.365.062-.475.1861-.111.1242-.166.3031-.166.5367v1.6812h-.391-.395zm6.527.616c.095.0694.143.1615.143.2766h.778c0-.292-.125-.527-.373-.705s-.575-.267-.98-.267c-.359 0-.649.0908-.869.2724-.22.1817-.33.4204-.33.716 0 .2611.085.4537.254.5778.17.1259.507.2455 1.011.3587.215.0474.366.094.452.1396.086.0475.128.105.128.1725 0 .0967-.044.172-.132.2259-.089.0538-.212.0807-.369.0807-.199 0-.356-.0387-.472-.1164-.116-.0775-.177-.1848-.182-.3217h-.8c.017.3359.148.5915.396.7667.247.1753.6.2629 1.058.2629.387 0 .699-.089.935-.267.237-.178.355-.4129.355-.705 0-.2738-.081-.4746-.244-.6024-.163-.1277-.485-.2455-.967-.3532-.243-.0548-.412-.105-.507-.1506-.097-.0474-.145-.1041-.145-.1698 0-.0931.042-.1656.127-.2177.085-.052.204-.078.355-.078.157 0 .283.0347.378.104zm1.815 2.0207c-.275-.2793-.412-.6562-.412-1.1308 0-.4855.137-.8712.412-1.1569.275-.2856.645-.4285 1.11-.4285.469 0 .841.1429 1.114.4285.274.2857.411.6714.411 1.1569 0 .4746-.137.8515-.411 1.1308-.273.2793-.645.4189-1.114.4189-.465 0-.835-.1396-1.11-.4189zm1.644-.4682c.122-.1534.183-.377.183-.6709 0-.3012-.061-.5298-.183-.6858-.122-.1561-.3-.2342-.534-.2342s-.411.0781-.532.2342c-.122.156-.183.3846-.183.6858 0 .2939.061.5175.183.6709.121.1533.298.23.532.23s.412-.0767.534-.23zm2.451.1014c-.079-.0877-.118-.2227-.118-.4053v-1.8646h-.394-.392v2.007c0 .3286.088.5855.264.7708s.421.2779.735.2779c.367 0 .648-.1232.841-.3696.038-.0474.071-.0986.099-.1533v.4463h.375.372v-2.9791h-.394-.392v1.6785c0 .2337-.054.4125-.164.5366-.109.1242-.266.1862-.471.1862-.162 0-.283-.0438-.361-.1314zm2.511-2.2699h.372.375v.5339c.027-.0584.058-.115.093-.1697.184-.2957.423-.4436.715-.4436l.178.0027v.8023c-.07-.0073-.148-.0109-.236-.0109-.239 0-.417.0594-.535.178s-.177.2984-.177.5394v1.547h-.391-.394zm4.348 2.7435c.235-.2081.373-.4974.413-.868h-.799c-.017.1607-.074.2903-.173.3889-.098.0985-.219.1478-.361.1478-.197 0-.347-.0771-.45-.2313-.104-.1543-.155-.3793-.155-.675 0-.303.051-.5334.155-.6913.103-.1579.253-.2369.45-.2369.153 0 .279.0456.376.1369.098.0912.151.2108.158.3586h.799c-.016-.345-.146-.6234-.391-.8351s-.559-.3176-.942-.3176c-.433 0-.776.1429-1.031.4285-.255.2857-.382.6714-.382 1.1569 0 .4965.123.8789.368 1.1472.246.2683.594.4025 1.045.4025.378 0 .685-.104.92-.3121zm2.139.3122c-.453 0-.802-.1397-1.048-.419-.245-.2792-.368-.6771-.368-1.1938 0-.4764.125-.8492.375-1.1185.25-.2692.597-.4038 1.041-.4038.454 0 .804.1374 1.05.4121.245.2747.368.6658.368 1.1733.003.0584-.001.1177-.014.1779h-2.029c.018.2355.071.4117.156.5285.11.146.292.219.548.219.119 0 .229-.0337.33-.1013.101-.0675.162-.1487.182-.2437h.8c-.068.303-.225.5404-.47.7119-.246.1716-.553.2574-.921.2574zm.599-1.8729c-.018-.1788-.066-.3185-.142-.4189-.101-.1333-.257-.1999-.468-.1999-.203 0-.357.0776-.463.2327-.066.0986-.113.2273-.143.3861zm3.039-1.1829h-.433l1.076 2.979h.411.408l1.076-2.979h-.413-.414l-.639 2.2227h-.003l-.634-2.2227zm2.998-1.0761h.8v.7284h-.8zm.008 1.0761h.392.394v2.9791h-.391-.395zm1.705 2.6122c.233.2956.539.4435.919.4435.352 0 .637-.146.854-.4382l.014-.0191v.3806h.38.381v-4.025h-.395-.391v1.4375l-.033-.0438c-.206-.2848-.478-.4271-.816-.4271-.378 0-.683.1396-.914.4189-.232.2793-.348.6471-.348 1.1035 0 .4837.116.8735.349 1.1692zm.637-1.7702c.118-.1616.283-.2424.492-.2424.21 0 .375.0767.493.23.119.1533.178.366.178.638 0 .2957-.059.5267-.178.6928-.118.1661-.284.2491-.495.2491-.21 0-.374-.079-.492-.2369-.117-.1578-.176-.3773-.176-.6585 0-.2865.059-.5106.178-.6721zm3.792 2.2138c-.453 0-.802-.1397-1.048-.419-.245-.2792-.368-.6771-.368-1.1938 0-.4764.125-.8492.375-1.1185.25-.2692.597-.4038 1.041-.4038.454 0 .804.1374 1.05.4121.245.2747.368.6658.368 1.1733.004.0584-.001.1177-.014.1779h-2.029c.019.2355.071.4117.157.5285.109.146.292.219.547.219.119 0 .229-.0337.33-.1013.101-.0675.162-.1487.182-.2437h.8c-.068.303-.224.5404-.47.7119-.245.1716-.553.2574-.921.2574zm.599-1.8729c-.018-.1788-.065-.3185-.142-.4189-.1-.1333-.256-.1999-.468-.1999-.203 0-.357.0776-.463.2327-.066.0986-.113.2273-.142.3861zm1.167.3231c0 .4746.137.8515.412 1.1308s.645.4189 1.11.4189c.469 0 .841-.1396 1.115-.4189.273-.2793.41-.6562.41-1.1308 0-.4855-.137-.8712-.41-1.1569-.274-.2856-.646-.4285-1.115-.4285-.465 0-.835.1429-1.11.4285-.275.2857-.412.6714-.412 1.1569zm2.24-.0083c0 .2939-.062.5175-.184.6709-.122.1533-.3.23-.534.23-.233 0-.411-.0767-.532-.23-.122-.1534-.182-.377-.182-.6709 0-.3012.06-.5298.182-.6858.121-.1561.299-.2342.532-.2342.234 0 .412.0781.534.2342.122.156.184.3846.184.6858z"/><path d="m622.87 20 3.206 9.8884c1.906 5.8978-.189 12.3564-5.188 15.9979l.003.0021-8.38 6.1116-8.382-6.1116 8.38-6.1115 8.374 6.1059-3.199-9.8828 8.386-6.1116h-10.359l-3.202-9.8884zm-23.92 9.8884 8.38 6.1116-3.201 9.8884c-4.997-3.6443-7.088-10.1036-5.179-16zm0 0 3.201-9.8884h10.358l-3.2 9.8884zm39.079 7.8567c.018.0222.045.0351.074.0348h3.92c.029-.0002.055-.0131.072-.0348.017-.0219.023-.0505.015-.077l-1.959-6.5536c-.011-.0389-.047-.0661-.089-.0661-.041 0-.078.0272-.088.0661l-1.96 6.5536c-.008.0265-.002.0551.015.077zm8.366 5.7109h-2.547l-1.133-3.7598c-.011-.0381-.047-.0642-.088-.0639h-5.133c-.041-.0003-.077.0258-.088.0639l-1.122 3.7613h-2.555l3.885-12.9909c.324-1.0495 1.319-1.7685 2.449-1.7685s2.125.719 2.449 1.7685zm13.307-7.4601h-1.499l-.009-1.8523h1.499c.05 0 .091-.0397.091-.0886v-3.0756h2.47v3.0756c0 .0489.041.0886.092.0886h1.498v1.8509h-1.498c-.051 0-.092.0396-.092.0886v4.9874c0 .4012.336.7264.75.7264.235 0 .552-.016.834-.0392v1.6838c-.486.1396-.991.2101-1.498.2092-1.398.0056-2.537-1.0866-2.547-2.4422v-5.124c0-.0489-.041-.0886-.091-.0886zm15.113 7.4601h-2.449l-.008-.0058v-6.3008c-.001-.3576-.15-.6998-.413-.9501-.266-.2552-.625-.3979-.998-.3966-.913 0-1.823.3835-2.285.6116-.03.0149-.05.0453-.049.0785v6.9632h-2.456v-14.5672h2.462v5.8432c0 .0322.018.0617.048.077.029.0166.065.0166.094 0 .846-.5404 1.833-.8371 2.846-.8557 1.76-.0081 3.194 1.3653 3.208 3.0712zm-27.046-2.8809v-6.4315h2.457v6.3022c.006.7509.637 1.3558 1.411 1.3526.912 0 1.823-.3836 2.285-.6117.03-.0151.049-.0454.049-.0784v-6.9647h2.462v9.3139h-1.917l-.259-.8121c-.009-.0278-.031-.0495-.06-.0582-.028-.0086-.06-.0032-.084.0146-.904.6627-2.003 1.0299-3.137 1.0489-1.761.008-3.196-1.368-3.207-3.0756zm32.4-.029c.475.8426 1.075 1.2523 1.824 1.2523.755 0 1.351-.4112 1.823-1.2523.571-1.017.885-2.57.885-4.3715s-.314-3.3545-.885-4.3715c-.475-.8426-1.068-1.2523-1.823-1.2523s-1.352.4097-1.824 1.2523c-.57 1.017-.885 2.57-.885 4.3715s.315 3.3545.885 4.3715zm-2.039-9.7861c.947-1.3496 2.284-2.0629 3.863-2.0629v-.0015c1.579 0 2.92.7162 3.862 2.063.942 1.3467 1.44 3.215 1.44 5.4146 0 2.1995-.493 4.0663-1.44 5.416-.947 1.3496-2.283 2.0629-3.862 2.0629s-2.92-.7162-3.863-2.0629c-.942-1.3468-1.439-3.2136-1.439-5.4146s.493-4.0649 1.439-5.4146z"/><path d="m353.442 34.4595 7.038 3.1927 7.092-6.196c.109-.514.15-1.0146.15-1.5557 0-4.3561-3.56-7.9005-7.935-7.9005-2.623 0-5.055 1.2852-6.536 3.4362l-1.182 6.1012zm-7.137 7.3019c-.108.5119-.149 1.0372-.149 1.576 0 4.3508 3.561 7.88 7.935 7.88 2.626 0 5.077-1.2932 6.553-3.4484l1.164-6.048-1.557-2.9634-7.04-3.1924zm4.679-11.0658-4.939-1.1433c-.153-.4083-.236-.8574-.236-1.3066 0-2.1096 1.753-3.8109 3.895-3.8109.863 0 1.698.2722 2.365.7758zm-5.036 0c-2.125.7117-3.618 2.7921-3.618 5.0777 0 2.2309 1.358 4.2155 3.389 5.0093l6.698-6.159-1.224-2.6688zm18.086 18.087c-.803 0-1.58-.2858-2.225-.7894l1.027-5.4715 4.662 1.1297c.145.4083.224.8575.224 1.3202 0 2.1097-1.66 3.811-3.688 3.811zm-1.164-7.5064 5.341 1.2455c2.177-.7117 3.684-2.792 3.684-5.0914 0-2.2172-1.383-4.2154-3.451-4.9955l-6.984 6.1178zm23.562 1.6811-.636.0677c-1.137.0947-2.247.1353-3.357.1082-1.097 0-1.855-.2977-2.302-.8798-.447-.582-.663-1.4889-.663-2.7071h7.283l.095-1.2588c0-1.7732-.365-3.0862-1.097-3.9118-.731-.8257-1.841-1.2453-3.33-1.2453-3.073 0-4.616 1.9356-4.616 5.8068 0 1.9356.325 3.3704.988 4.2908s1.787 1.3806 3.371 1.3806c1.191 0 2.626-.1218 4.305-.3519zm-1.881-7.58c.433.555.649 1.516.649 2.8696h-5.726c.013-1.2995.271-2.247.758-2.829s1.232-.8798 2.207-.8798c.974 0 1.678.2842 2.112.8392zm4.387 9.2314v-16h1.74v16zm12.216-2.4906v-5.4278c0-1.2183-.28-2.1251-.855-2.6936-.561-.5821-1.456-.8663-2.685-.8663h-4.181v1.4618h4.288c.548 0 .989.1625 1.309.4873.321.3249.481.8663.481 1.6108v.9475l-3.42.3248c-1.149.1083-1.99.4332-2.525.934-.534.5008-.801 1.2994-.801 2.3687 0 1.0829.267 1.9086.788 2.477.521.5821 1.282.8663 2.284.8663 1.31 0 2.605-.2436 3.915-.8256.499.4825 1.281.4738 2.232.4634.143-.0016.29-.0032.44-.0032l.08-1.4619s-1.35-.1083-1.35-.6632zm-5.049 1.0964c-1.109 0-1.657-.6768-1.657-2.0304 0-.6091.134-1.0829.427-1.4077.294-.3249.762-.5144 1.417-.5685l3.219-.3113v3.6411l-.494.1759c-.949.3384-1.924.5009-2.912.5009zm11.521-8.6205c-1.605 0-2.42.5556-2.42 1.6804 0 .5149.19.8808.557 1.0976.367.2169 1.21.4337 2.529.6641s2.243.542 2.787.9621c.544.4066.816 1.179.816 2.3174 0 1.1383-.367 1.965-1.102 2.4935-.734.5285-1.794.7995-3.208.7995-.911 0-3.97-.3388-3.97-.3388l.095-1.4364c.275.0254.538.0502.789.0739 1.355.1278 2.377.2242 3.099.2242.857 0 1.51-.1355 1.958-.4065.449-.2711.68-.7318.68-1.3688 0-.6369-.19-1.0705-.571-1.3009s-1.224-.4472-2.529-.6505-2.23-.5014-2.773-.908c-.544-.393-.816-1.1383-.816-2.2089s.381-1.8701 1.142-2.3851c.761-.5149 1.713-.7724 2.841-.7724.898 0 4.025.2303 4.025.2303v1.4501c-.548-.0316-1.062-.0662-1.539-.0982l-.001-.0001c-.957-.0643-1.764-.1185-2.389-.1185zm8.912.2081h3.554v-1.4433h-3.554v-3.3588h-1.66v3.3723h-1.592v1.4298h1.592v5.7868c0 1.5648.219 2.6304.672 3.1835.453.553 1.249.8363 2.415.8363.521 0 1.276-.0809 2.278-.2428l-.11-1.3624-1.99.1349c-.699 0-1.138-.2024-1.331-.5935-.178-.3912-.274-1.2275-.274-2.482zm5.792-3.9543v-1.8913h1.739v1.9047zm0 13.4131v-10.9317h1.739v10.9317zm11.282-10.8598c-1.168-.176-1.998-.2707-2.487-.2707-1.658 0-2.841.4331-3.561 1.2723-.707.8392-1.06 2.3146-1.06 4.4127 0 2.098.34 3.5869.992 4.4667.653.8799 1.849 1.3265 3.575 1.3265.679 0 1.712-.1083 3.085-.3113l-.068-1.3671-2.61.203c-1.332 0-2.201-.3113-2.623-.9475-.421-.6361-.625-1.7596-.625-3.3703 0-1.6108.231-2.7207.68-3.3163.448-.5956 1.304-.8933 2.555-.8933.557 0 1.427.0676 2.61.203l.067-1.34z"/></g><path d="m114.994 38.4212-2.559-6.8992c-.104-.2822-.503-.2822-.608 0l-2.559 6.8992c-.079.2119.078.4372.304.4372h5.118c.226 0 .383-.2253.304-.4372zm1.182 3.8776h-8.09c-.136 0-.257.0843-.304.2115l-1.593 4.2927c-.047.1272-.169.2115-.304.2115h-3.507c-.229 0-.386-.232-.301-.445l8.074-20.1128c.049-.1228.169-.2035.301-.2035h3.358c.132 0 .252.0807.301.2035l8.074 20.1126c.085.2132-.072.4452-.301.4452h-3.507c-.135 0-.257-.0843-.304-.2115l-1.593-4.2927c-.047-.1272-.168-.2115-.304-.2115zm7.652-8.9867h2.999c.179 0 .324.1453.324.3243v13.0538c0 .1791-.145.3244-.324.3244h-2.999c-.179 0-.325-.1453-.325-.3244v-13.0538c0-.179.146-.3243.325-.3243zm14.262 3.1754c0 .1791-.145.3244-.324.3244h-.091c-1.483 0-2.571.3559-3.263 1.0676-.692.7118-1.038 1.8885-1.038 3.5295v5.2813c0 .1791-.145.3244-.324.3244h-2.97c-.179 0-.324-.1453-.324-.3244v-13.054c0-.179.145-.3243.324-.3243h2.94c.179 0 .325.1453.325.3243v2.5823h.059c.356-1.0677.919-1.8878 1.691-2.4617.771-.5731 1.72-.8601 2.847-.8601h.148zm8.201-.1205c-.179 0-.324.1453-.324.3243v5.4296c0 .5537.108.949.326 1.1864.217.2372.593.3559 1.127.3559h.298c.179 0 .325.1451.325.3243v2.7323c0 .1793-.146.3244-.325.3244h-1.277c-1.325 0-2.343-.341-3.055-1.0232-.712-.6821-1.068-1.6951-1.068-3.04v-6.2897c0-.179-.145-.3243-.324-.3243h-1.872c-.179 0-.324-.1453-.324-.3243v-2.4063c0-.179.145-.3243.324-.3243h1.872c.179 0 .324-.1451.324-.3244v-4.8382c0-.1791.146-.3244.325-.3244h2.999c.179 0 .325.1453.325.3244v4.8382c0 .1793.145.3244.324.3244h2.169c.179 0 .324.1453.324.3243v2.4063c0 .179-.145.3243-.324.3243zm13.734 6.5843c.683-.7118 1.023-1.6411 1.023-2.7881 0-1.1464-.34-2.0761-1.023-2.7879-.682-.7118-1.577-1.0677-2.684-1.0677s-2.002.3559-2.684 1.0677-1.023 1.6415-1.023 2.7879c0 1.147.341 2.0763 1.023 2.7881s1.577 1.0677 2.684 1.0677 2.002-.3559 2.684-1.0677zm-6.925 3.648c-1.008-.5732-1.805-1.4089-2.387-2.5061-.584-1.0973-.876-2.4072-.876-3.93 0-1.5221.292-2.8324.876-3.9297.582-1.0973 1.379-1.9323 2.387-2.5062 1.008-.5734 2.115-.8601 3.322-.8601 1.067 0 1.982.2076 2.743.6229.761.4152 1.369.9985 1.824 1.7499h.059v-1.6037c0-.179.146-.3243.325-.3243h2.97c.179 0 .324.1453.324.3243v13.0538c0 .1793-.145.3243-.324.3243h-2.97c-.179 0-.325-.145-.325-.3243v-1.6034h-.059c-.455.7517-1.063 1.3347-1.824 1.7498-.761.4153-1.676.6229-2.743.6229-1.207 0-2.314-.2869-3.322-.8601zm23.918-3.648c.682-.7118 1.023-1.6411 1.023-2.7881 0-1.1464-.341-2.0761-1.023-2.7879s-1.577-1.0677-2.684-1.0677c-1.108 0-2.002.3559-2.684 1.0677s-1.024 1.6415-1.024 2.7879c0 1.147.342 2.0763 1.024 2.7881s1.576 1.0677 2.684 1.0677c1.107 0 2.002-.3559 2.684-1.0677zm-4.508 3.8852c-.762-.4151-1.37-.9981-1.824-1.7498h-.06v1.6034c0 .1793-.145.3243-.324.3243h-2.999c-.18 0-.325-.145-.325-.3243v-20.1126c0-.179.145-.3243.325-.3243h2.999c.179 0 .324.1453.324.3243v8.6625h.06c.454-.7514 1.062-1.3347 1.824-1.7499.761-.4153 1.675-.6229 2.743-.6229 1.206 0 2.314.2867 3.322.8601 1.008.5739 1.804 1.4089 2.387 2.5062s.875 2.4076.875 3.9297c0 1.5228-.292 2.8327-.875 3.93-.583 1.0972-1.379 1.9329-2.387 2.5061s-2.116.8601-3.322.8601c-1.068 0-1.982-.2076-2.743-.6229zm14.381.1781h-2.999c-.18 0-.325-.1453-.325-.3244v-20.1126c0-.179.145-.3243.325-.3243h2.999c.179 0 .324.1453.324.3243v20.1126c0 .1791-.145.3244-.324.3244zm7.075-10.529c-.498.3879-.833.9479-1.007 1.6805-.048.2019.11.3956.317.3956h5.708c.198 0 .354-.1773.322-.3727-.114-.693-.411-1.2456-.891-1.6588-.564-.4843-1.301-.7267-2.21-.7267-.91 0-1.656.2274-2.239.6821zm7.311-1.7055c1.166 1.2755 1.75 3.08 1.75 5.4128v.3874c0 .1793-.146.3244-.325.3244h-9.536c-.201 0-.356.1833-.321.3818.153.8666.536 1.555 1.15 2.0651.702.5835 1.587.875 2.655.875 1.378 0 2.654-.5379 3.827-1.6141.144-.1314.371-.1035.482.056l1.458 2.093c.094.1347.074.3207-.049.4288-.716.6261-1.505 1.1505-2.367 1.5721-.949.4644-2.066.6971-3.351.6971-1.483 0-2.778-.3019-3.886-.9047-1.107-.6028-1.967-1.4532-2.58-2.5507-.613-1.0973-.919-2.3676-.919-3.8112 0-1.4431.296-2.7183.89-3.826.593-1.107 1.423-1.9671 2.491-2.5803 1.068-.6125 2.313-.9193 3.737-.9193 2.095 0 3.727.6376 4.894 1.9128zm-73.734-6.2942c0 1.2236-.992 2.2154-2.216 2.2154-1.223 0-2.215-.9918-2.215-2.2154s.992-2.2153 2.215-2.2153c1.224 0 2.216.9917 2.216 2.2153z"/><path d="m73.082 20.4038-14.2614 5.9012c-.7931.3282-.7849 1.4547.0132 1.771l14.321 5.6791c1.2584.499 2.6597.499 3.9179 0l14.3212-5.6791c.7979-.3163.8063-1.4428.013-1.771l-14.2612-5.9012c-1.3011-.5384-2.7628-.5384-4.0637 0z"/><path d="m76.3828 36.8564v14.1872c0 .6748.6804 1.1369 1.3077.8882l15.958-6.1941c.3643-.1445.6033-.4965.6033-.8883v-14.1872c0-.6748-.6805-1.1368-1.3077-.8882l-15.958 6.1942c-.3642.1444-.6033.4964-.6033.8882z"/><path d="m72.6568 37.5884-4.736 2.2867-.4808.2325-9.9974 4.7902c-.6337.3057-1.4426-.1561-1.4426-.8601v-13.3159c0-.2547.1306-.4746.3057-.6402.0731-.0733.1559-.1336.242-.1814.2389-.1433.5796-.1816.8694-.067l15.1602 6.0067c.7706.3057.8311 1.3855.0795 1.7485z"/><path d="m72.6578 37.5884-4.736 2.2867-11.6152-9.7935c.0731-.0733.1559-.1336.242-.1814.2389-.1433.5797-.1816.8694-.067l15.1602 6.0067c.7706.3057.8311 1.3855.0796 1.7485z"/></g></svg>