<?xml version="1.0" encoding="UTF-8"?> <svg xmlns="http://www.w3.org/2000/svg" width="673.26" height="144.8" viewBox="0 0 673.26 144.8"><defs><style>.cls-1{fill:#00607e;}</style></defs><title>Decisiv-Logo-096126</title><g id="Layer_2" data-name="Layer 2"><g id="Layer_1-2" data-name="Layer 1"><g id="Decisiv_logo" data-name="Decisiv logo"><path class="cls-1" d="M560.12,27.41h28.59l28,62.38L645,27.41h28.29L616.78,144.8Zm-153.59,0h-28v97.83h28Zm143.92,0h-28v97.83h28Zm-85.3-.2c-36.85,0-44.55,20.62-44.07,27.1,2.12,28.51,59.59,29.36,59.61,44,0,4.58-10.65,8.68-24.7,5-9.77-2.58-18.78-9.07-18.78-9.07L416.1,110s21.82,19.56,56.28,15.77c29.51-3.25,40.45-17.58,40.44-29.63s-11.9-19.06-11.9-19.06c-8.31-5.84-28-12-28-12-20.85-5.16-19.46-10.28-19.46-10.28C454,48.6,465.73,49,465.73,49c11.17-.24,23.44,8.81,23.44,8.81l21.19-14.69S495,27.21,465.15,27.21ZM315.67,104.82c-19.33,0-35-12.49-35-27.91S296.34,49,315.67,49c11,0,20.88,4.08,27.3,10.45l24.69-10.88c-11.4-13-30.43-21.53-52-21.53-34.9,0-63.19,22.33-63.19,49.87s28.29,49.88,63.19,49.88c21,0,39.58-8.09,51.08-20.52L343.5,93.83C337.11,100.51,327,104.82,315.67,104.82ZM220.06,83.14H154.39c3.53,12.85,16.89,22.42,32.84,22.42,9.75,0,20.31-3.08,26.47-8.8L237,106.15c-13.52,13.15-30.61,19.74-50.34,19.74-32.31,0-58.5-22.16-58.5-49.5s26.19-49.49,58.5-49.49c27.9,0,51.22,16.52,57.08,38.62a42.26,42.26,0,0,1,1.43,10.87,43.09,43.09,0,0,1-.55,6.75Zm-3-17.62c-4.75-10.82-15.61-18.29-29.8-18.29s-25,7.47-29.8,18.29Zm-96.65-2.31h0c0,34.91-25.29,63.21-69.21,63.21H0V0H50.17C94,0,120.38,28.3,120.38,63.21Zm-28.65,0c0-22-14.82-39.75-37.79-39.75H28.64V103H55.46c23,0,36.27-17.8,36.27-39.75Z"></path></g></g></g></svg> 