<?xml version="1.0" encoding="UTF-8"?>
<svg width="83px" height="83px" viewBox="0 0 83 83" version="1.1" xmlns="http://www.w3.org/2000/svg" xmlns:xlink="http://www.w3.org/1999/xlink">
    <title>fingerprint</title>
    <defs>
        <linearGradient x1="21.2024853%" y1="123.564156%" x2="64.0021198%" y2="0.623587159%" id="linearGradient-1">
            <stop stop-color="#0AFDFD" offset="22%"></stop>
            <stop stop-color="#88F1BC" offset="42%"></stop>
            <stop stop-color="#C8EB9C" offset="53%"></stop>
            <stop stop-color="#CDE09B" offset="56%"></stop>
            <stop stop-color="#EF9396" offset="78%"></stop>
            <stop stop-color="#FD7494" offset="88%"></stop>
        </linearGradient>
    </defs>
    <g id="Page-1" stroke="none" stroke-width="1" fill="none" fill-rule="evenodd">
        <g id="fingerprint" transform="translate(0.499891, 0.499891)">
            <path d="M82.0003913,41.0001087 C82.0162462,45.3229212 81.341056,49.6205067 80.0001087,53.7301087 C75.9254875,66.1655906 66.1686903,75.9149597 53.7301087,79.9801087 C45.4571545,82.673587 36.5430629,82.673587 28.2701087,79.9801087 C15.839172,75.9095612 6.09065623,66.1610454 2.0201087,53.7301087 C-0.673369565,45.4571545 -0.673369565,36.5430629 2.0201087,28.2701087 C6.09065623,15.839172 15.839172,6.09065623 28.2701087,2.0201087 C36.5430629,-0.673369565 45.4571545,-0.673369565 53.7301087,2.0201087 C66.1610454,6.09065623 75.9095612,15.839172 79.9801087,28.2701087 C81.3278443,32.378605 82.0097906,36.676217 82.0003913,41.0001087 Z" id="Path" opacity="0.5"></path>
            <path d="M48.8101087,11.3601087 C46.4302893,10.8005449 43.9947987,10.5120433 41.5501087,10.5000946 C40.1520455,10.498773 38.7555034,10.5923212 37.3701087,10.7801087 C34.0100494,11.2190869 30.7400307,12.1842317 27.6801087,13.6401087 C27.3247669,13.8167526 27.1364236,14.2135946 27.2242661,14.600576 C27.3121085,14.9875575 27.6533268,15.2641922 28.0501087,15.2701087 C28.1779578,15.2722987 28.3045842,15.24492 28.4201087,15.1901087 C34.6474598,12.2192459 41.6989508,11.4506334 48.4201087,13.0101087 C48.8708542,13.0979885 49.3111175,12.81622 49.4201087,12.3701087 C49.5060233,11.9267999 49.2424587,11.4904062 48.8101087,11.3601087 Z M56.8101087,14.3601087 C56.3584211,14.0444438 55.8875093,13.757221 55.4001087,13.5001087 C54.7864103,13.1690154 54.1517236,12.8783958 53.5001087,12.6301087 C53.2107236,12.5247153 52.887094,12.581713 52.6511281,12.7796312 C52.4151622,12.9775494 52.3027089,13.2863197 52.3561281,13.5896312 C52.4095474,13.8929427 52.6207236,14.1447153 52.9101087,14.2501087 C53.5105144,14.4621621 54.0952863,14.7161202 54.6601087,15.0101087 C55.1001087,15.2401087 55.5401087,15.5001087 55.9501087,15.7701087 C56.0927124,15.8632836 56.2597745,15.91201 56.4301087,15.9101087 C56.7059388,15.8877779 56.9546928,15.7355553 57.1001087,15.5001087 C57.3461564,15.1065454 57.2355155,14.5887458 56.8501087,14.3301087 L56.8101087,14.3601087 Z M61.5501087,23.1501087 C57.5823477,19.2881185 52.6105895,16.6168811 47.2001087,15.4401087 C43.2435191,14.6067022 39.1566983,14.6067022 35.2001087,15.4401087 C34.7450093,15.5402228 34.4495977,15.9811356 34.5301087,16.4401087 C34.6301371,16.8943188 35.0731476,17.1867057 35.5301087,17.1001087 C37.5035263,16.6921956 39.5150975,16.4977438 41.5301087,16.5201087 C43.308294,16.5378524 45.0803224,16.7321391 46.8201087,17.1001087 C51.9382029,18.1982562 56.6441307,20.7140909 60.4001087,24.3601087 C60.561541,24.5225482 60.7810956,24.6138909 61.0101087,24.6138909 C61.2391218,24.6138909 61.4586764,24.5225482 61.6201087,24.3601087 C61.7876233,24.1953146 61.8794434,23.9685259 61.8740089,23.7336091 C61.8680764,23.4986922 61.7653966,23.2766092 61.5901087,23.1201087 L61.5501087,23.1501087 Z M56.1101087,24.0701087 C55.3185477,23.3195487 54.4542933,22.6495841 53.5301087,22.0701087 C52.329611,21.3250207 51.0436669,20.7273756 49.7001087,20.2901087 C49.2475368,20.1449257 48.7622107,20.389815 48.6101087,20.8401087 C48.4715651,21.2950726 48.7195685,21.7777934 49.1701087,21.9301087 C50.3930742,22.3092661 51.5651009,22.8365102 52.6601087,23.5001087 C53.4912619,24.0147193 54.2714585,24.6074009 54.9901087,25.2701087 C55.1517092,25.4091075 55.3569761,25.4869674 55.5701087,25.4901087 C55.9227091,25.4878997 56.2382364,25.2706792 56.3661441,24.9420889 C56.4940517,24.6134986 56.408421,24.2401226 56.1501087,24.0001087 L56.1101087,24.0701087 Z M31.8001087,17.5701087 C31.7155921,17.3576518 31.549949,17.1875977 31.3397862,17.0975279 C31.1296234,17.0074581 30.8922441,17.0047884 30.6801087,17.0901087 C26.1375366,18.8850175 22.1908269,21.920415 19.2901087,25.8501087 C19.0149027,26.2424407 19.1087975,26.7834533 19.5001087,27.0601087 C19.6530702,27.1652216 19.8345149,27.2210507 20.0201087,27.2201204 C20.2900869,27.2186212 20.5444418,27.0932869 20.7101087,26.8801087 C22.0652314,25.0240453 23.678137,23.3707329 25.5001087,21.9701087 C27.2728652,20.6089514 29.228811,19.5047342 31.3101087,18.6901087 C31.5243778,18.6075395 31.6967275,18.4427093 31.7887667,18.2323341 C31.8808058,18.0219588 31.8848897,17.7835123 31.8001087,17.5701087 L31.8001087,17.5701087 Z M37.1601087,24.5701087 C37.0952719,24.3512114 36.9460589,24.1670767 36.7453512,24.0582819 C36.5446436,23.9494872 36.3089138,23.9249612 36.0901087,23.9901087 C35.1253237,24.2593045 34.1798358,24.5933991 33.2601087,24.9901087 C32.1906052,25.4599874 31.1606189,26.0151099 30.1801087,26.6501087 C29.7825497,26.9097414 29.6706373,27.4424444 29.9301087,27.8401087 C30.0901064,28.0819862 30.3601079,28.2282369 30.6501087,28.2301087 C30.8165567,28.2268265 30.9789947,28.1784407 31.1201087,28.0901087 C32.0237744,27.5099216 32.9697727,26.9984808 33.9501087,26.5601087 C34.8010792,26.1876338 35.6764398,25.8735731 36.5701087,25.6201087 C37.0115829,25.4849191 37.2705631,25.0284116 37.1601087,24.5801087 L37.1601087,24.5701087 Z M48.7601087,29.2301087 C47.9870756,28.7468886 47.1575057,28.3606516 46.2901087,28.0801087 C45.4884252,27.8220746 44.6595826,27.6576483 43.8201087,27.5901087 C43.3686963,27.5850797 42.9902329,27.9299458 42.9533962,28.3798808 C42.9165594,28.8298157 43.2338896,29.2316474 43.6801087,29.3001087 C44.3866919,29.3637813 45.0841806,29.5046204 45.7601087,29.7201087 C46.4902323,29.9707842 47.1883564,30.3064208 47.8401087,30.7201087 C47.9774723,30.8085735 48.136752,30.8570499 48.3001087,30.8601087 C48.6831094,30.8543263 49.0172676,30.5987275 49.1231056,30.2305953 C49.2289435,29.8624631 49.0815574,29.4684203 48.7601087,29.2601087 L48.7601087,29.2301087 Z M64.5001087,35.3001087 C63.6548308,32.0690798 61.9229649,29.1387627 59.5001087,26.8401087 C59.2791097,26.6166188 58.9537925,26.5314916 58.6516515,26.6180891 C58.3495105,26.7046867 58.1186766,26.9492141 58.0496155,27.2558391 C57.9805544,27.5624641 58.0842675,27.8823414 58.3201087,28.0901087 C60.5063803,30.1688016 62.0654808,32.8192724 62.8201087,35.7401087 C62.9198042,36.1168621 63.2603884,36.3794812 63.6501087,36.3801087 L63.8701087,36.3801087 C64.1005136,36.3264328 64.2986321,36.1802139 64.4178351,35.9758658 C64.5370382,35.7715177 64.5667974,35.5270892 64.5001087,35.3001087 L64.5001087,35.3001087 Z M44.7501087,19.2401087 C43.68867,19.1099795 42.6192339,19.0565077 41.5501087,19.0801087 C38.322911,19.0993753 35.133926,19.7800551 32.1801087,21.0801087 C27.8943444,23.0355482 24.242781,26.1535815 21.6401087,30.0801087 C19.2926038,33.6373883 17.8696393,37.7241147 17.5001087,41.9701087 C17.4779309,42.1973489 17.5481053,42.4239571 17.6948264,42.5988938 C17.8415476,42.7738306 18.0524777,42.8823856 18.2801087,42.9001087 L18.3601087,42.9001087 C18.801674,42.8968877 19.1690435,42.5597721 19.2101087,42.1201087 C19.5665104,38.1920166 20.8891314,34.4130993 23.0601087,31.1201087 C25.4691225,27.4507716 28.8616387,24.5329997 32.8501087,22.7001087 C36.5085579,21.090583 40.5302396,20.4864677 44.5001087,20.9501087 C44.9723121,21.0080986 45.4021187,20.6723121 45.4601086,20.2001087 C45.5180985,19.7279052 45.1823121,19.2980986 44.7101087,19.2401087 L44.7501087,19.2401087 Z M39.1201087,27.9101087 C36.436354,28.4157467 33.9166919,29.5691615 31.7801087,31.2701087 C29.888158,32.7836743 28.3576598,34.7002133 27.3001087,36.8801087 C26.3861636,38.8395116 25.8922505,40.9684474 25.8500473,43.1301087 C25.8445042,43.6067747 26.2235349,43.999183 26.7001087,44.0101087 L26.7001087,44.0101087 C27.1690017,44.004842 27.5493584,43.628908 27.5601087,43.1601087 C27.5918558,41.2374843 28.0279785,39.3430765 28.8401087,37.6001087 C29.7850486,35.656734 31.1515592,33.9485957 32.8401087,32.6001087 C34.7607476,31.0800983 37.0225227,30.0504586 39.4301087,29.6001087 C39.6548862,29.5615063 39.8543051,29.4331644 39.9825501,29.2445688 C40.1107951,29.0559732 40.1568409,28.8233377 40.1101087,28.6001087 C40.0145939,28.1444351 39.5806777,27.8420087 39.1201087,27.9101087 L39.1201087,27.9101087 Z M59.0201087,32.6901087 C56.7360755,29.1368623 53.4116149,26.3746266 49.5001087,24.7801087 C46.9630039,23.7409231 44.2414531,23.2272303 41.5001087,23.2701087 L41.0001087,23.2701087 C40.6928603,23.2808267 40.414669,23.4546455 40.2703268,23.7260895 C40.1259846,23.9975334 40.1374206,24.3253635 40.3003268,24.5860895 C40.4632331,24.8468154 40.7528603,25.0008267 41.0601087,24.9901087 L41.5501087,24.9901087 C48.0126258,24.9138792 54.0588328,28.1712732 57.5501087,33.6101087 C59.9544626,37.5253594 60.8536278,42.1811161 60.0801087,46.7101087 C60.0394579,46.9356489 60.090509,47.1680856 60.2219319,47.3558325 C60.3533547,47.5435794 60.5542777,47.6711057 60.7801087,47.71011 L60.9201087,47.71011 C61.3415972,47.71083 61.7014948,47.4059755 61.7701087,46.9901087 C62.6202989,42.0476523 61.6428083,36.9647016 59.0201087,32.6901087 L59.0201087,32.6901087 Z M28.2001087,29.8901087 C28.0386764,29.7276692 27.8191218,29.6363265 27.5901087,29.6363265 C27.3610956,29.6363265 27.141541,29.7276692 26.9801087,29.8901087 C24.5745722,32.4324718 22.9230985,35.5934687 22.2101087,39.0201087 C21.7915016,41.1567612 21.6170491,43.3340623 21.6901087,45.5101087 L21.6901087,46.0101087 C21.8413705,46.7695946 21.77552,47.5563356 21.5001087,48.2801087 C21.1878525,48.9035 20.7105223,49.429255 20.1201087,49.8001087 C19.7960807,50.0032223 19.6475902,50.3977195 19.7572653,50.7640809 C19.8669403,51.1304423 20.2077742,51.3784539 20.5901087,51.370313 C20.7558935,51.3719153 20.9188163,51.3268515 21.0601087,51.2401087 C21.9216164,50.7021229 22.6146212,49.9328876 23.0601087,49.0201087 C23.4685607,48.0482203 23.6034261,46.9831302 23.4501087,45.9401087 L23.4501087,45.4501087 C23.3864808,43.4384817 23.5474765,41.4260349 23.9301087,39.4501087 C24.2000926,38.1855014 24.6092515,36.9546709 25.1501087,35.7801087 C25.9349925,34.0769879 26.9921814,32.513159 28.2801087,31.1501087 C28.4453777,30.9765145 28.530704,30.7418256 28.5155165,30.5026225 C28.500329,30.2634194 28.3860058,30.0414066 28.2001087,29.8901087 Z M57.5001087,42.2701087 C57.2287768,39.9034703 56.5200832,37.6078456 55.4101087,35.5001087 C54.5604051,34.0334381 53.4760282,32.7159708 52.2001087,31.6001087 C51.843885,31.2853064 51.299911,31.3188851 50.9851087,31.6751087 C50.6703064,32.0313324 50.7038851,32.5753064 51.0601087,32.8901087 C52.1904327,33.8963869 53.1555459,35.074095 53.9201087,36.3801087 C54.9076699,38.2898003 55.538019,40.3638522 55.7801087,42.5001087 C56.2450747,45.8212958 56.1944787,49.1943616 55.6301087,52.5001087 C55.586611,52.7259832 55.6365152,52.9598432 55.7684257,53.1482868 C55.9003362,53.3367303 56.1029891,53.4636663 56.3301087,53.5001147 L56.5001087,53.5001147 C56.9184078,53.5016561 57.2771519,53.2019993 57.3501087,52.7901087 C57.9386002,49.31182 57.9891904,45.763762 57.5001087,42.2701087 L57.5001087,42.2701087 Z M26.8001087,46.7601087 C26.5728439,46.7350105 26.3450512,46.8025304 26.1681725,46.9474204 C25.9912938,47.0923104 25.8802467,47.3023508 25.8601087,47.5301087 C25.685205,49.1897162 25.039892,50.7648351 24.0001087,52.0701087 C23.4325716,52.7690482 22.7574704,53.3732638 22.0001087,53.8601087 C21.8075495,53.9831992 21.6719035,54.1778726 21.6231213,54.4011451 C21.5743391,54.6244176 21.616433,54.8579249 21.7401087,55.0501087 C21.889508,55.3302849 22.1826107,55.5038326 22.5001087,55.5001674 C22.6670426,55.5000467 22.8303501,55.451402 22.9701087,55.3601087 C23.880431,54.7770481 24.6908237,54.0510713 25.3701087,53.2101087 C26.6195237,51.644191 27.3934715,49.7527042 27.6001087,47.7601087 C27.6402742,47.5190711 27.5760041,47.2723274 27.4233528,47.0815134 C27.2707016,46.8906993 27.0440842,46.7738336 26.8001087,46.7601087 L26.8001087,46.7601087 Z M55.8001087,56.0601087 C55.5879733,55.9747884 55.350594,55.9774581 55.1404312,56.0675279 C54.9302684,56.1575977 54.7646253,56.3276518 54.6801087,56.5401087 L52.9401087,60.9301087 C52.8547884,61.1422441 52.8574581,61.3796234 52.9475279,61.5897862 C53.0375977,61.799949 53.2076518,61.9655921 53.4201087,62.0501087 C53.5223012,62.0891826 53.6307025,62.1095079 53.7401087,62.1101518 C54.0930227,62.11365 54.4114102,61.8987385 54.5401087,61.5701087 L56.2801087,57.1801087 C56.4589247,56.7410457 56.2486987,56.2400817 55.8101087,56.0601087 L55.8001087,56.0601087 Z M43.0701087,40.3301087 C41.8959968,39.8605415 40.563027,40.0266907 39.5401087,40.7701087 C38.6690449,41.3934836 38.1964319,42.4339945 38.3001087,43.5001087 C38.3701087,44.2001087 38.4801087,44.8801087 38.5901087,45.5001087 C38.7799043,46.489713 38.890256,47.4929107 38.9201087,48.5001087 C38.9014086,50.4885013 38.414959,52.4445766 37.5001087,54.2101087 C36.2637416,56.6678546 34.7215051,58.9593693 32.9101087,61.0301087 C31.7815713,62.3119374 30.5435624,63.4930648 29.2101087,64.5601087 C28.8373165,64.8583425 28.776875,65.4023165 29.0751087,65.7751087 C29.3733425,66.1479009 29.9173165,66.2083424 30.2901087,65.9101087 C31.6961233,64.7754173 33.0040787,63.5243294 34.2001087,62.1701087 C36.117361,59.9890073 37.7442117,57.5688989 39.0401087,54.9701087 C40.075888,52.969223 40.6273556,50.7530767 40.6501087,48.5001087 C40.6071036,47.4261814 40.4867922,46.3567471 40.2901087,45.3001087 C40.1801087,44.6401087 40.0701087,44.0101087 40.0101087,43.3701087 C39.956836,42.8907084 40.1672973,42.4200404 40.5601087,42.1401087 C40.8522256,41.9298751 41.2003857,41.8115007 41.5601087,41.8001087 C41.8531885,41.7685945 42.1494382,41.8133764 42.4201087,41.9301087 C43.7901087,42.4901087 43.8301087,44.3201087 43.7701087,46.4701087 L43.7701087,46.8601087 C43.7182315,49.088051 43.3478105,51.2971065 42.6701087,53.4201087 C42.3629103,54.4036901 41.9989668,55.3686412 41.5801087,56.3101087 C40.1469211,59.4585345 38.1738285,62.3318717 35.7501087,64.8001087 C34.7737732,65.8014599 33.7350295,66.7400032 32.6401087,67.6101087 C32.4583844,67.7470326 32.3391432,67.9510987 32.3090715,68.1766371 C32.2789997,68.4021755 32.3406081,68.6303548 32.4801087,68.8101087 C32.6468292,69.0207327 32.9014968,69.1425303 33.1701087,69.1402727 C33.3576732,69.1438372 33.5409686,69.0839137 33.6901087,68.9701087 C34.8550988,68.0477083 35.9544257,67.0452825 36.9801087,65.9701087 C38.7535635,64.1662045 40.2984879,62.1510857 41.5801087,59.9701087 C42.7290551,58.0558974 43.6455312,56.0114508 44.3101087,53.8801087 C45.0302615,51.6134418 45.4307858,49.2574167 45.5001087,46.8801087 L45.5001087,46.5001087 C45.5501087,44.5001087 45.6401087,41.3901087 43.0701087,40.3301087 Z M51.8901087,37.9201087 C50.8119617,35.830878 49.1562908,34.095374 47.1201087,32.9201087 C45.4132834,31.9880639 43.4946419,31.5127093 41.5501087,31.5401087 C40.2166561,31.5405573 38.8923416,31.7601503 37.6301087,32.1901087 C34.6929147,33.3275963 32.3122407,35.5612709 30.9901087,38.4201087 C30.2166903,40.6954044 29.9138922,43.1041809 30.1001087,45.5001087 C30.1001087,46.1401087 30.1001087,46.6901087 30.1801087,47.1901087 C30.332406,48.2495846 30.2435297,49.3297741 29.9201087,50.3501087 C29.4587407,51.4379301 28.8349739,52.4494439 28.0701087,53.3501087 C27.0323034,54.7395936 25.8924863,56.0498819 24.6601087,57.2701087 C24.4313683,57.4879567 24.3386778,57.8126724 24.4179507,58.1184431 C24.4972236,58.4242138 24.7360036,58.6629938 25.0417743,58.7422667 C25.347545,58.8215395 25.6722607,58.7288491 25.8901087,58.5001087 C27.1886073,57.1989763 28.3948621,55.8089431 29.5001087,54.3401087 C30.3416933,53.3191902 31.0166825,52.1717086 31.5001087,50.9401087 C31.9158408,49.6983503 32.0390449,48.3773284 31.8601087,47.0801087 C31.8601087,46.6101087 31.7901087,46.0801087 31.7801087,45.4801087 C31.5967071,43.3173089 31.8552855,41.1398068 32.5401087,39.0801087 C33.6719132,36.6631277 35.6920016,34.7755628 38.1801087,33.8101087 C39.2547322,33.4558152 40.3785931,33.2735675 41.5101087,33.2701087 C43.1663194,33.2465944 44.8011668,33.6458413 46.2601087,34.4301087 C48.014604,35.4506238 49.4353582,36.9582212 50.3501087,38.7701087 C52.5001087,42.5001087 52.2101087,46.2401087 51.9601087,49.5601087 C51.6581559,53.1647434 50.7451289,56.691733 49.2601087,59.9901087 C47.636789,63.6074156 45.3853156,66.908448 42.6101087,69.7401087 C42.4482667,69.8998254 42.357164,70.1177273 42.357164,70.3451087 C42.357164,70.57249 42.4482667,70.7903919 42.6101087,70.9501087 C42.7664008,71.1063426 42.9791368,71.1928793 43.2001087,71.1902175 C43.4320329,71.1937964 43.6556128,71.1036432 43.8201087,70.9401087 C46.7466463,67.9687333 49.1174014,64.4972706 50.8201087,60.6901087 C52.3798924,57.2096831 53.3400873,53.4906184 53.6601087,49.6901087 C53.9401087,46.1201087 54.2501087,42.0701087 51.8901087,37.9201087 Z M43.2101087,35.8701087 C42.6667249,35.7418479 42.1068346,35.698001 41.5501087,35.7401087 C40.083804,35.8250302 38.6827006,36.3749633 37.5501087,37.3101087 C34.5501087,39.7801087 34.3501087,43.1001087 34.2001087,46.3101087 C34.1676761,47.4210697 34.0742018,48.5294082 33.9201087,49.6301087 C33.3912344,53.919295 31.1381447,57.8080412 27.6801087,60.4001087 C27.3981232,60.5650324 27.233925,60.8754806 27.2563073,61.2013865 C27.2786896,61.5272924 27.4837875,61.8123784 27.7856721,61.9372035 C28.0875567,62.0620286 28.4340985,62.005038 28.6801087,61.7901087 C32.4873017,58.9189726 34.9808289,54.6381774 35.6001087,49.9101087 C35.7785904,48.7447898 35.8788147,47.5688242 35.9001087,46.3901087 C36.0501087,43.3901087 36.1801087,40.6201087 38.6201087,38.6401087 C39.4707034,37.9388757 40.5201165,37.5226085 41.6201087,37.4501087 C42.0488225,37.4095992 42.4812816,37.4400065 42.9001087,37.5401087 C47.1901087,38.5401087 48.1001087,44.6501087 47.9701087,47.7401087 C47.5612942,53.8446238 45.3242282,59.6846902 41.5501087,64.5001087 C40.0881799,66.460792 38.4478447,68.2818988 36.6501087,69.9401087 C36.3937768,70.184188 36.3108679,70.5592307 36.4404265,70.888617 C36.5699851,71.2180033 36.8861816,71.4360646 37.2401087,71.4401088 C37.4576212,71.4401088 37.6662584,71.3538676 37.8201087,71.2001087 C39.1496063,69.978225 40.3957312,68.6686246 41.5501087,67.2801087 C46.5001087,61.4001087 49.3501087,54.5001087 49.6201087,47.8201087 C49.7701087,43.9701087 48.5901087,37.1201087 43.2101087,35.8701087 Z" id="Shape" fill="url(#linearGradient-1)" fill-rule="nonzero"></path>
        </g>
    </g>
</svg>