<svg id="Layer_1" data-name="Layer 1" xmlns="http://www.w3.org/2000/svg" xmlns:xlink="http://www.w3.org/1999/xlink" viewBox="0 0 664 440"><defs><style>.cls-1{fill:#edf2f5;}.cls-2{opacity:0.7;}.cls-11,.cls-12,.cls-13,.cls-15,.cls-3,.cls-9{fill:none;}.cls-11,.cls-12,.cls-13,.cls-3,.cls-7,.cls-9{stroke:#cad8de;}.cls-13,.cls-15,.cls-3,.cls-7,.cls-9{stroke-miterlimit:10;}.cls-11,.cls-3,.cls-9{stroke-width:1.04px;}.cls-10,.cls-3{opacity:0.7;}.cls-4{fill:#cad8de;}.cls-5{fill:#bac9ce;}.cls-6{fill:#4d0db2;}.cls-14,.cls-7{fill:#fff;}.cls-13,.cls-7{stroke-width:0.51px;}.cls-8{opacity:0.8;}.cls-14,.cls-9{opacity:0.6;}.cls-11,.cls-12{stroke-linecap:round;stroke-linejoin:round;}.cls-12{stroke-width:1.08px;}.cls-15{stroke-width:0.73px;opacity:0.3;stroke:url(#linear-gradient);}</style><linearGradient id="linear-gradient" x1="269.57" y1="220" x2="394.43" y2="220" gradientUnits="userSpaceOnUse"><stop offset="0" stop-color="#7808fd"/><stop offset="1" stop-color="#5e2ad6"/></linearGradient></defs><rect class="cls-1" width="664" height="440" rx="8"/><g class="cls-2"><circle class="cls-3" cx="332" cy="220" r="114.69"/><circle class="cls-3" cx="332" cy="220" r="128.92"/><circle class="cls-4" cx="204.61" cy="241.19" r="2.04"/><circle class="cls-5" cx="411.65" cy="302.25" r="2.04"/><circle class="cls-5" cx="409.7" cy="135.32" r="2.04"/><circle class="cls-5" cx="442.14" cy="287.26" r="3.6"/><circle class="cls-5" cx="453.23" cy="176.45" r="3.43"/><circle class="cls-5" cx="222.2" cy="187.54" r="2.81"/><circle class="cls-5" cx="232.5" cy="137.63" r="2.86"/><circle class="cls-5" cx="250.46" cy="300.38" r="2.79"/></g><path class="cls-6" d="M382.79,220a50.72,50.72,0,0,1-50.16,50.78H332a50.42,50.42,0,0,1-15.77-2.5,50.74,50.74,0,0,1-35-48.29A50.74,50.74,0,0,1,332,169.22h.63a49.94,49.94,0,0,1,15.15,2.49,50.74,50.74,0,0,1,35,48.28Z"/><path class="cls-7" d="M417.82,220a85.71,85.71,0,0,1-84.76,85.81H332a85.82,85.82,0,1,1,0-171.64c.36,0,.7,0,1.06,0A85.71,85.71,0,0,1,417.82,220Z"/><g class="cls-8"><circle class="cls-9" cx="28.24" cy="220" r="7.85"/><circle class="cls-9" cx="58.59" cy="220" r="4.21"/><circle class="cls-9" cx="605.41" cy="220" r="4.21"/><circle class="cls-9" cx="635.76" cy="220" r="7.85"/></g><g class="cls-8"><g class="cls-10"><polyline class="cls-11" points="412.02 119.67 449.72 119.65 472.14 153.36 537.85 153.33 663.02 114.43"/><polyline class="cls-11" points="412.4 320.5 450.09 320.49 472.49 286.77 538.2 286.75 663.4 325.57"/><polyline class="cls-11" points="393.22 422.12 430.92 422.11 453.32 388.39 519.02 388.37 660.81 438.1"/><polyline class="cls-11" points="271.09 422.12 233.4 422.11 211 388.39 145.29 388.37 2.92 438.23"/></g><g class="cls-10"><polyline class="cls-11" points="251.98 119.67 214.28 119.65 191.86 153.36 126.15 153.33 0.98 114.43"/><polyline class="cls-12" points="270.52 11.78 230.15 11.76 206.14 45.47 135.77 45.44 3.75 1.44"/><polyline class="cls-12" points="393.51 12.07 433.88 12.05 457.89 45.75 528.26 45.73 660.82 1.68"/><polyline class="cls-11" points="251.6 320.5 213.91 320.49 191.51 286.77 125.8 286.75 0.6 325.57"/></g></g><path class="cls-13" d="M423.62,190.07a96.34,96.34,0,0,0-30.38-44.46V0h-35l0,22.86-11.12,9.43.12,92.51a95.15,95.15,0,0,0-14.12-1.19H332a96.84,96.84,0,0,0-15.13,1.18l-.12-92.45L305.6,23l0-22.93H270.74V145.62a96.32,96.32,0,0,0,0,148.77V440h30.18V399L312,383.16V314.31a95.87,95.87,0,0,0,9.5,1.5v67.35L310.41,399v41h43.18V399l-11.13-15.84V315.81a95.67,95.67,0,0,0,9.49-1.5v68.85L363.08,399v41h30.16V294.39a96.48,96.48,0,0,0,30.38-104.32Zm-10,56.59a85.7,85.7,0,0,1-80.55,59.15H332a85.82,85.82,0,1,1,0-171.64c.36,0,.71,0,1.06,0A85.88,85.88,0,0,1,413.6,246.66Z"/><path class="cls-14" d="M423.62,190.07a96.34,96.34,0,0,0-30.38-44.46V0h-35l0,22.86-11.12,9.43.12,92.51a95.15,95.15,0,0,0-14.12-1.19H332a96.84,96.84,0,0,0-15.13,1.18l-.12-92.45L305.6,23l0-22.93H270.74V145.62a96.32,96.32,0,0,0,0,148.77V440h30.18V399L312,383.16V314.31a95.87,95.87,0,0,0,9.5,1.5v67.35L310.41,399v41h43.18V399l-11.13-15.84V315.81a95.67,95.67,0,0,0,9.49-1.5v68.85L363.08,399v41h30.16V294.39a96.48,96.48,0,0,0,30.38-104.32Zm-10,56.59a85.7,85.7,0,0,1-80.55,59.15H332a85.82,85.82,0,1,1,0-171.64c.36,0,.71,0,1.06,0A85.88,85.88,0,0,1,413.6,246.66Z"/><line class="cls-7" x1="331.84" y1="0.3" x2="332.16" y2="440"/><path class="cls-7" d="M394.07,220a62,62,0,0,1-61.3,62.06H332a62.07,62.07,0,1,1,0-124.14c.26,0,.51,0,.77,0a61.25,61.25,0,0,1,18.51,3,62,62,0,0,1,42.79,59Z"/><path class="cls-15" d="M394.07,220a62,62,0,0,1-61.3,62.06H332a62.07,62.07,0,1,1,0-124.14c.26,0,.51,0,.77,0a61.25,61.25,0,0,1,18.51,3,62,62,0,0,1,42.79,59Z"/></svg>