<svg viewBox="0 0 276 168" xmlns="http://www.w3.org/2000/svg" xmlns:xlink="http://www.w3.org/1999/xlink"><clipPath id="a"><path d="m-296 0h276v168h-276z"/></clipPath><linearGradient id="b" gradientTransform="matrix(.70710678 -.70710678 .70710678 .70710678 -56.65 -1.74)" gradientUnits="userSpaceOnUse" x1="-191.53" x2="40.28" y1="176.26" y2="19.78"><stop offset="0" stop-color="#9cd1ed"/><stop offset=".19" stop-color="#8fa8f1"/><stop offset=".54" stop-color="#795ff9"/><stop offset=".8" stop-color="#6a31fd"/><stop offset=".92" stop-color="#651fff"/></linearGradient><clipPath id="c"><path d="m296 0h276v168.15h-276z"/></clipPath><linearGradient id="d" gradientTransform="matrix(-.70710678 .70710678 -.70710678 -.70710678 519.84 -187)" gradientUnits="userSpaceOnUse" x1="275.89" x2="322.6" y1="-86.6" y2="120.22"><stop offset=".27" stop-color="#66cce7"/><stop offset=".52" stop-color="#5cafeb"/><stop offset=".75" stop-color="#559aed"/><stop offset=".91" stop-color="#5293ee"/></linearGradient><clipPath id="e"><path d="m0 0h276v168h-276z"/></clipPath><linearGradient id="f" gradientUnits="userSpaceOnUse" x1="-10.42" x2="389.86" y1="186.17" y2="-89.12"><stop offset=".02" stop-color="#f5c15a"/><stop offset=".22" stop-color="#f3a96e"/><stop offset=".75" stop-color="#ed6e9f"/><stop offset="1" stop-color="#eb57b2"/></linearGradient><linearGradient id="g" gradientTransform="matrix(-.70710678 -.70710678 .70710678 -.70710678 385.84 229.37)" x1="146.17" x2="433.72" xlink:href="#f" y1="79.49" y2="-56.93"/><linearGradient id="h" gradientTransform="matrix(-.70710678 -.70710678 .70710678 -.70710678 2.49 70.48)" x1="141.89" x2="-227.34" xlink:href="#f" y1="27.19" y2="49.25"/><linearGradient id="i" gradientTransform="matrix(-.70710678 -.70710678 .70710678 -.70710678 -57.18 327.36)" x1="-80.85" x2="307.72" xlink:href="#f" y1="256.85" y2="-6.37"/><linearGradient id="j" x1="293.97" x2="242.86" xlink:href="#f" y1="-23.39" y2="15.37"/><linearGradient id="k" gradientUnits="userSpaceOnUse" x1=".25" x2="184.79" y1="169.29" y2="42.28"><stop offset=".12" stop-color="#f5c15a"/><stop offset=".29" stop-color="#f3a96e"/><stop offset=".77" stop-color="#ed6e9f"/><stop offset="1" stop-color="#eb57b2"/></linearGradient><g clip-path="url(#a)"><rect fill="url(#b)" height="173.48" rx="58.96" transform="matrix(.70710678 .70710678 -.70710678 .70710678 38.83 41.29)" width="117.92" x="-89.39" y="-19.22"/></g><g clip-path="url(#c)"><rect fill="url(#d)" height="269.54" rx="7.37" transform="matrix(-.70710678 -.70710678 .70710678 -.70710678 499.81 235.36)" width="198.98" x="199.16" y="-120.61"/></g><g clip-path="url(#e)"><path d="m.28 0h275.72v168h-275.72z" fill="url(#f)"/><rect fill="url(#g)" height="90.41" rx="2.65" transform="matrix(-.70710678 .70710678 -.70710678 -.70710678 435.02 -110.64)" width="132.87" x="173.99" y="-10.43"/><rect fill="url(#h)" height="160.63" rx="4.71" transform="matrix(-.70710678 .70710678 -.70710678 -.70710678 51.59 48.07)" width="236.06" x="-102.19" y="-45.59"/><rect fill="url(#i)" height="176.05" rx="5.16" transform="matrix(-.70710678 .70710678 -.70710678 -.70710678 191.04 271.91)" width="258.72" x="-90.15" y="87.5"/><path d="m277.76 10c-.58 1.22-3.07 1.22-3.92 2.25s-.27 3.49-1.31 4.32a3.3 3.3 0 0 1 -2.28.24 4.52 4.52 0 0 0 -2.22.09c-1.18.58-1.73 3-3.07 3.31s-2.82-1.67-4.19-1.67-2.92 1.95-4.2 1.67-1.85-2.73-3-3.31a4.5 4.5 0 0 0 -2.22-.09 3.31 3.31 0 0 1 -2.28-.24c-1.06-.83-.48-3.29-1.34-4.32s-3.31-1-3.92-2.25 1-3.13.7-4.44-2.55-2.37-2.55-3.74 2.25-2.46 2.55-3.71-1.24-3.28-.7-4.47 3.1-1.21 3.92-2.25.27-3.53 1.27-4.39 3.29.24 4.5-.34 1.73-3 3-3.31 2.86 1.67 4.2 1.67 3-2 4.19-1.67 1.89 2.76 3.07 3.31 3.47-.49 4.5.34.49 3.28 1.34 4.31 3.31 1 3.89 2.25-1 3.13-.67 4.47 2.56 2.34 2.56 3.71-2.28 2.46-2.56 3.74 1.32 3.29.74 4.52z" fill="url(#j)"/><path d="m95.88 139.6c-1 2.21-5.59 2.21-7.14 4.09s-.49 6.36-2.37 7.86c-1 .77-2.55.6-4.15.44a8.16 8.16 0 0 0 -4 .16c-2.15 1-3.15 5.48-5.58 6-2.27.5-5.14-3-7.63-3s-5.31 3.54-7.63 3-3.37-5-5.53-6a8.12 8.12 0 0 0 -4-.16c-1.6.16-3.15.33-4.14-.44-1.94-1.5-.89-6-2.44-7.86s-6-1.88-7.13-4.09 1.83-5.69 1.27-8.07-4.64-4.31-4.64-6.8 4.09-4.48 4.64-6.75c.56-2.43-2.26-6-1.27-8.12s5.64-2.21 7.13-4.09.5-6.36 2.44-7.86 6 .45 8.18-.6 3.15-5.48 5.53-6 5.2 3 7.63 3 5.36-3.54 7.63-3c2.43.55 3.43 5 5.58 6s6.31-.89 8.19.6.88 6 2.43 7.86 6 1.88 7.08 4.09-1.77 5.69-1.22 8.12c.5 2.27 4.64 4.26 4.64 6.75s-4.14 4.48-4.64 6.8 2.19 5.92 1.14 8.07z" fill="url(#k)"/></g></svg>