<svg viewBox="0 0 276 168" xmlns="http://www.w3.org/2000/svg" xmlns:xlink="http://www.w3.org/1999/xlink"><clipPath id="a"><path d="m-296 0h276v168h-276z"/></clipPath><linearGradient id="b" gradientTransform="matrix(.70710678 .70710678 -.70710678 .70710678 17.61 10.62)" gradientUnits="userSpaceOnUse" x1="-181.99" x2="19.04" y1="26.99" y2="26.51"><stop offset="0" stop-color="#603bff"/><stop offset="1" stop-color="#5781ff"/></linearGradient><linearGradient id="c" gradientUnits="userSpaceOnUse" x1="-117.77" x2="150.76" y1="102.98" y2="-50.47"><stop offset="0" stop-color="#603bff"/><stop offset=".25" stop-color="#5e48ff"/><stop offset=".72" stop-color="#5a69ff"/><stop offset="1" stop-color="#5781ff"/></linearGradient><clipPath id="d"><path d="m0 0h276v168h-276z"/></clipPath><linearGradient id="e" gradientUnits="userSpaceOnUse" x1="-29.94" x2="283.59" y1="189.05" y2="-7.07"><stop offset="0" stop-color="#9cd1ed"/><stop offset=".19" stop-color="#8fa8f1"/><stop offset=".54" stop-color="#795ff9"/><stop offset=".8" stop-color="#6a31fd"/><stop offset=".92" stop-color="#651fff"/></linearGradient><linearGradient id="f" gradientTransform="matrix(.70710678 -.70710678 .70710678 .70710678 30.04 207.56)" x1="104.47" x2="336.28" xlink:href="#e" y1="176.26" y2="19.78"/><linearGradient id="g" gradientTransform="matrix(.70710678 -.70710678 .70710678 .70710678 -44.15 25.58)" x1="-129.32" x2="169.48" xlink:href="#e" y1="182.48" y2="-69.29"/><linearGradient id="h" gradientTransform="matrix(.70710678 -.70710678 .70710678 .70710678 -93.82 79.64)" x1="26.91" x2="80.23" xlink:href="#e" y1="233.47" y2="41.39"/><clipPath id="i"><path d="m296 0h276v168h-276z"/></clipPath><linearGradient id="j" gradientTransform="matrix(-.70710678 -.70710678 .70710678 -.70710678 507.79 279.78)" gradientUnits="userSpaceOnUse" x1="437.89" x2="68.66" y1="27.19" y2="49.25"><stop offset=".02" stop-color="#f5c15a"/><stop offset=".22" stop-color="#f3a96e"/><stop offset=".75" stop-color="#ed6e9f"/><stop offset="1" stop-color="#eb57b2"/></linearGradient><linearGradient id="k" gradientTransform="matrix(-.70710678 -.70710678 .70710678 -.70710678 448.12 536.66)" x1="215.15" x2="603.72" xlink:href="#j" y1="256.85" y2="-6.37"/><g clip-path="url(#a)"><rect fill="url(#b)" height="159.73" rx="11.61" transform="matrix(.70710678 -.70710678 .70710678 .70710678 -19.96 4.94)" width="225.33" x="-116.68" y="-53.31"/><path d="m-20.84 47.94-32.93-32.94a1.17 1.17 0 0 1 .53-2l44.88-12 44.89-11.86a1.17 1.17 0 0 1 1.47 1.44l-12 44.88-12 44.89a1.18 1.18 0 0 1 -2 .52z" fill="url(#c)"/></g><g clip-path="url(#d)"><path d="m0 0h276v168h-276z" fill="url(#e)"/><rect fill="url(#f)" height="173.48" rx="58.96" transform="matrix(.70710678 .70710678 -.70710678 .70710678 125.52 -168.01)" width="117.92" x="206.61" y="-19.22"/><rect fill="url(#g)" height="235.17" rx="79.93" transform="matrix(.70710678 .70710678 -.70710678 .70710678 49.31 13.13)" width="159.86" x="-71.12" y="-51.5"/><rect fill="url(#h)" height="99.79" rx="33.92" transform="matrix(.70710678 .70710678 -.70710678 .70710678 122.66 10.03)" width="67.83" x="15.31" y="103.18"/></g><g clip-path="url(#i)"><rect fill="url(#j)" height="160.63" rx="4.71" transform="matrix(-.70710678 .70710678 -.70710678 -.70710678 556.9 -161.23)" width="236.06" x="193.81" y="-45.59"/><rect fill="url(#k)" height="176.05" rx="5.16" transform="matrix(-.70710678 .70710678 -.70710678 -.70710678 696.35 62.61)" width="258.72" x="205.85" y="87.5"/></g></svg>