<svg id="Layer_1" data-name="Layer 1" xmlns="http://www.w3.org/2000/svg" xmlns:xlink="http://www.w3.org/1999/xlink" viewBox="0 0 276 168"><defs><style>.cls-1{fill:none;}.cls-2{clip-path:url(#clip-path);}.cls-3{fill:url(#linear-gradient);}.cls-4{clip-path:url(#clip-path-2);}.cls-5{fill:url(#linear-gradient-2);}.cls-6{fill:url(#linear-gradient-3);}.cls-7{fill:url(#linear-gradient-4);}.cls-8{fill:url(#linear-gradient-5);}.cls-9{fill:url(#linear-gradient-6);}.cls-10{fill:url(#linear-gradient-7);}.cls-11{clip-path:url(#clip-path-3);}.cls-12{fill:url(#linear-gradient-8);}</style><clipPath id="clip-path"><rect class="cls-1" x="-295.97" width="275.93" height="168"/></clipPath><linearGradient id="linear-gradient" x1="-120.74" y1="91.83" x2="-20.15" y2="20.97" gradientUnits="userSpaceOnUse"><stop offset="0" stop-color="#00a4f7"/><stop offset="0.38" stop-color="#197dfb"/><stop offset="0.69" stop-color="#2965fe"/><stop offset="0.88" stop-color="#2f5cff"/></linearGradient><clipPath id="clip-path-2"><rect class="cls-1" width="276" height="168"/></clipPath><linearGradient id="linear-gradient-2" x1="-24.18" y1="198.26" x2="209.13" y2="33.89" gradientUnits="userSpaceOnUse"><stop offset="0" stop-color="#603bff"/><stop offset="0.42" stop-color="#5b60ff"/><stop offset="0.78" stop-color="#5878ff"/><stop offset="1" stop-color="#5781ff"/></linearGradient><linearGradient id="linear-gradient-3" x1="116.44" y1="72.4" x2="201.4" y2="5.96" gradientTransform="translate(70.6 -114.03) rotate(45)" gradientUnits="userSpaceOnUse"><stop offset="0" stop-color="#603bff"/><stop offset="1" stop-color="#5781ff"/></linearGradient><linearGradient id="linear-gradient-4" x1="114.01" y1="26.99" x2="315.04" y2="26.51" gradientTransform="translate(104.3 -198.68) rotate(45)" xlink:href="#linear-gradient-3"/><linearGradient id="linear-gradient-5" x1="-73.82" y1="78.71" x2="40.68" y2="-1.96" gradientTransform="translate(-14.05 161.6)" xlink:href="#linear-gradient-3"/><linearGradient id="linear-gradient-6" x1="178.23" y1="102.98" x2="446.76" y2="-50.47" gradientUnits="userSpaceOnUse"><stop offset="0" stop-color="#603bff"/><stop offset="0.25" stop-color="#5e48ff"/><stop offset="0.72" stop-color="#5a69ff"/><stop offset="1" stop-color="#5781ff"/></linearGradient><linearGradient id="linear-gradient-7" x1="148.81" y1="163.8" x2="42.8" y2="228.45" gradientTransform="translate(169.46 7.08) rotate(45)" xlink:href="#linear-gradient-3"/><clipPath id="clip-path-3"><rect class="cls-1" x="296" width="276" height="168"/></clipPath><linearGradient id="linear-gradient-8" x1="166.68" y1="182.48" x2="465.48" y2="-69.29" gradientTransform="translate(42.54 234.89) rotate(-45)" gradientUnits="userSpaceOnUse"><stop offset="0" stop-color="#9cd1ed"/><stop offset="0.19" stop-color="#8fa8f1"/><stop offset="0.54" stop-color="#795ff9"/><stop offset="0.8" stop-color="#6a31fd"/><stop offset="0.92" stop-color="#651fff"/></linearGradient></defs><g class="cls-2"><circle class="cls-3" cx="-50.82" cy="42.57" r="69.49"/></g><g class="cls-4"><rect class="cls-5" width="276" height="168"/><rect class="cls-6" x="106.2" y="-19.1" width="133.49" height="94.63" rx="6.88" transform="translate(30.71 130.55) rotate(-45)"/><rect class="cls-7" x="179.32" y="-53.31" width="225.33" height="159.73" rx="11.61" transform="translate(66.74 214.24) rotate(-45)"/><rect class="cls-8" x="-75.02" y="136.92" width="133.49" height="94.63" rx="6.88" transform="translate(-132.7 48.11) rotate(-45)"/><path class="cls-9" d="M275.16,47.94,242.23,15a1.17,1.17,0,0,1,.53-2l44.88-12,44.89-11.95A1.17,1.17,0,0,1,334-9.42L322,35.46,310.06,80.35a1.18,1.18,0,0,1-2,.52Z"/><rect class="cls-10" x="9.44" y="160.77" width="133.49" height="94.63" rx="6.88" transform="translate(-124.83 114.82) rotate(-45)"/></g><g class="cls-11"><rect class="cls-12" x="224.88" y="-51.5" width="159.86" height="235.17" rx="79.93" transform="translate(136.01 -196.17) rotate(45)"/></g></svg>