<svg viewBox="0 0 276 168" xmlns="http://www.w3.org/2000/svg" xmlns:xlink="http://www.w3.org/1999/xlink"><clipPath id="a"><path d="m-295.97 0h275.93v168h-275.93z"/></clipPath><linearGradient id="b" gradientUnits="userSpaceOnUse" x1="-120.74" x2="-20.15" y1="91.83" y2="20.97"><stop offset="0" stop-color="#00a4f7"/><stop offset=".38" stop-color="#197dfb"/><stop offset=".69" stop-color="#2965fe"/><stop offset=".88" stop-color="#2f5cff"/></linearGradient><clipPath id="c"><path d="m0 0h276v168h-276z"/></clipPath><linearGradient id="d" gradientUnits="userSpaceOnUse" x1="-24.18" x2="209.13" y1="198.26" y2="33.89"><stop offset="0" stop-color="#603bff"/><stop offset=".42" stop-color="#5b60ff"/><stop offset=".78" stop-color="#5878ff"/><stop offset="1" stop-color="#5781ff"/></linearGradient><linearGradient id="e" gradientTransform="matrix(.70710678 .70710678 -.70710678 .70710678 70.6 -114.03)" gradientUnits="userSpaceOnUse" x1="116.44" x2="201.4" y1="72.4" y2="5.96"><stop offset="0" stop-color="#603bff"/><stop offset="1" stop-color="#5781ff"/></linearGradient><linearGradient id="f" gradientTransform="matrix(.70710678 .70710678 -.70710678 .70710678 104.3 -198.68)" x1="114.01" x2="315.04" xlink:href="#e" y1="26.99" y2="26.51"/><linearGradient id="g" gradientTransform="translate(-14.05 161.6)" x1="-73.82" x2="40.68" xlink:href="#e" y1="78.71" y2="-1.96"/><linearGradient id="h" gradientUnits="userSpaceOnUse" x1="178.23" x2="446.76" y1="102.98" y2="-50.47"><stop offset="0" stop-color="#603bff"/><stop offset=".25" stop-color="#5e48ff"/><stop offset=".72" stop-color="#5a69ff"/><stop offset="1" stop-color="#5781ff"/></linearGradient><linearGradient id="i" gradientTransform="matrix(.70710678 .70710678 -.70710678 .70710678 169.46 7.08)" x1="148.81" x2="42.8" xlink:href="#e" y1="163.8" y2="228.45"/><clipPath id="j"><path d="m296 0h276v168h-276z"/></clipPath><linearGradient id="k" gradientTransform="matrix(.70710678 -.70710678 .70710678 .70710678 42.54 234.89)" gradientUnits="userSpaceOnUse" x1="166.68" x2="465.48" y1="182.48" y2="-69.29"><stop offset="0" stop-color="#9cd1ed"/><stop offset=".19" stop-color="#8fa8f1"/><stop offset=".54" stop-color="#795ff9"/><stop offset=".8" stop-color="#6a31fd"/><stop offset=".92" stop-color="#651fff"/></linearGradient><g clip-path="url(#a)"><circle cx="-50.82" cy="42.57" fill="url(#b)" r="69.49"/></g><g clip-path="url(#c)"><path d="m0 0h276v168h-276z" fill="url(#d)"/><rect fill="url(#e)" height="94.63" rx="6.88" transform="matrix(.70710678 -.70710678 .70710678 .70710678 30.71 130.55)" width="133.49" x="106.2" y="-19.1"/><rect fill="url(#f)" height="159.73" rx="11.61" transform="matrix(.70710678 -.70710678 .70710678 .70710678 66.74 214.24)" width="225.33" x="179.32" y="-53.31"/><rect fill="url(#g)" height="94.63" rx="6.88" transform="matrix(.70710678 -.70710678 .70710678 .70710678 -132.7 48.11)" width="133.49" x="-75.02" y="136.92"/><path d="m275.16 47.94-32.93-32.94a1.17 1.17 0 0 1 .53-2l44.88-12 44.89-11.95a1.17 1.17 0 0 1 1.47 1.53l-12 44.88-11.94 44.89a1.18 1.18 0 0 1 -2 .52z" fill="url(#h)"/><rect fill="url(#i)" height="94.63" rx="6.88" transform="matrix(.70710678 -.70710678 .70710678 .70710678 -124.83 114.82)" width="133.49" x="9.44" y="160.77"/></g><g clip-path="url(#j)"><rect fill="url(#k)" height="235.17" rx="79.93" transform="matrix(.70710678 .70710678 -.70710678 .70710678 136.01 -196.17)" width="159.86" x="224.88" y="-51.5"/></g></svg>