<svg id="Layer_1" data-name="Layer 1" xmlns="http://www.w3.org/2000/svg" xmlns:xlink="http://www.w3.org/1999/xlink" viewBox="0 0 276 168"><defs><style>.cls-1{fill:none;}.cls-2{clip-path:url(#clip-path);}.cls-3{fill:url(#linear-gradient);}.cls-4{fill:url(#linear-gradient-2);}.cls-5{fill:url(#linear-gradient-3);}.cls-6{fill:url(#linear-gradient-4);}.cls-7{clip-path:url(#clip-path-2);}.cls-8{fill:url(#linear-gradient-5);}</style><clipPath id="clip-path"><rect class="cls-1" x="0.03" width="275.93" height="168"/></clipPath><linearGradient id="linear-gradient" x1="-5.03" y1="8.85" x2="269.83" y2="153.23" gradientUnits="userSpaceOnUse"><stop offset="0" stop-color="#00a4f7"/><stop offset="0.38" stop-color="#197dfb"/><stop offset="0.69" stop-color="#2965fe"/><stop offset="0.88" stop-color="#2f5cff"/></linearGradient><linearGradient id="linear-gradient-2" x1="-36.18" y1="207.74" x2="44.96" y2="150.57" xlink:href="#linear-gradient"/><linearGradient id="linear-gradient-3" x1="175.26" y1="91.83" x2="275.85" y2="20.97" xlink:href="#linear-gradient"/><linearGradient id="linear-gradient-4" x1="220.59" y1="56.64" x2="291.61" y2="29.55" xlink:href="#linear-gradient"/><clipPath id="clip-path-2"><rect class="cls-1" x="296" width="276" height="168"/></clipPath><linearGradient id="linear-gradient-5" x1="222.18" y1="78.71" x2="336.68" y2="-1.96" gradientTransform="translate(-14.05 161.6)" gradientUnits="userSpaceOnUse"><stop offset="0" stop-color="#603bff"/><stop offset="1" stop-color="#5781ff"/></linearGradient></defs><g class="cls-2"><rect class="cls-3" x="0.07" width="275.93" height="168"/><circle class="cls-4" cx="20.22" cy="168" r="56.06"/><circle class="cls-5" cx="245.18" cy="42.57" r="69.49"/><path class="cls-6" d="M235,51.47l-20.06-20a.72.72,0,0,1,.32-1.2l27.34-7.28,27.34-7.28a.71.71,0,0,1,.87.87l-7.28,27.34L256.2,71.21a.72.72,0,0,1-1.2.32Z"/></g><g class="cls-7"><rect class="cls-8" x="220.98" y="136.92" width="133.49" height="94.63" rx="6.88" transform="translate(-46 257.41) rotate(-45)"/></g></svg>