<svg viewBox="0 0 276 168" xmlns="http://www.w3.org/2000/svg" xmlns:xlink="http://www.w3.org/1999/xlink"><clipPath id="a"><path d="m.03 0h275.93v168h-275.93z"/></clipPath><linearGradient id="b" gradientUnits="userSpaceOnUse" x1="-5.03" x2="269.83" y1="8.85" y2="153.23"><stop offset="0" stop-color="#00a4f7"/><stop offset=".38" stop-color="#197dfb"/><stop offset=".69" stop-color="#2965fe"/><stop offset=".88" stop-color="#2f5cff"/></linearGradient><linearGradient id="c" x1="-36.18" x2="44.96" xlink:href="#b" y1="207.74" y2="150.57"/><linearGradient id="d" x1="175.26" x2="275.85" xlink:href="#b" y1="91.83" y2="20.97"/><linearGradient id="e" x1="220.59" x2="291.61" xlink:href="#b" y1="56.64" y2="29.55"/><clipPath id="f"><path d="m296 0h276v168h-276z"/></clipPath><linearGradient id="g" gradientUnits="userSpaceOnUse" x1="208.13" x2="322.63" y1="240.31" y2="159.64"><stop offset="0" stop-color="#603bff"/><stop offset="1" stop-color="#5781ff"/></linearGradient><g clip-path="url(#a)"><path d="m.07 0h275.93v168h-275.93z" fill="url(#b)"/><circle cx="20.22" cy="168" fill="url(#c)" r="56.06"/><circle cx="245.18" cy="42.57" fill="url(#d)" r="69.49"/><path d="m235 51.47-20.06-20a.72.72 0 0 1 .32-1.2l27.34-7.28 27.34-7.28a.71.71 0 0 1 .87.87l-7.28 27.34-7.33 27.29a.72.72 0 0 1 -1.2.32z" fill="url(#e)"/></g><g clip-path="url(#f)"><rect fill="url(#g)" height="94.63" rx="6.88" transform="matrix(.70710678 -.70710678 .70710678 .70710678 -46 257.41)" width="133.49" x="220.98" y="136.92"/></g></svg>