<svg id="Layer_1" data-name="Layer 1" xmlns="http://www.w3.org/2000/svg" xmlns:xlink="http://www.w3.org/1999/xlink" viewBox="0 0 276 168"><defs><style>.cls-1{fill:none;}.cls-2{clip-path:url(#clip-path);}.cls-3{fill:url(#linear-gradient);}.cls-4{fill:url(#linear-gradient-2);}.cls-5{fill:url(#linear-gradient-3);}.cls-6{fill:url(#linear-gradient-4);}.cls-7{fill:url(#linear-gradient-5);}.cls-8{fill:url(#linear-gradient-6);}.cls-9{clip-path:url(#clip-path-2);}.cls-10{fill:url(#linear-gradient-7);}</style><clipPath id="clip-path"><rect class="cls-1" width="276" height="168.15"/></clipPath><linearGradient id="linear-gradient" x1="295.31" y1="-29.11" x2="-23.27" y2="199.96" gradientUnits="userSpaceOnUse"><stop offset="0.27" stop-color="#66cce7"/><stop offset="0.55" stop-color="#5cafeb"/><stop offset="0.82" stop-color="#559aed"/><stop offset="1" stop-color="#5293ee"/></linearGradient><linearGradient id="linear-gradient-2" x1="-20.11" y1="-86.6" x2="26.6" y2="120.22" gradientTransform="translate(14.53 22.31) rotate(135)" gradientUnits="userSpaceOnUse"><stop offset="0.27" stop-color="#66cce7"/><stop offset="0.52" stop-color="#5cafeb"/><stop offset="0.75" stop-color="#559aed"/><stop offset="0.91" stop-color="#5293ee"/></linearGradient><linearGradient id="linear-gradient-3" x1="366.39" y1="-24.28" x2="89.91" y2="29.34" gradientTransform="translate(-0.52 5.66) rotate(-1.28)" xlink:href="#linear-gradient-2"/><linearGradient id="linear-gradient-4" x1="136.05" y1="594.27" x2="193.56" y2="594.27" gradientTransform="translate(-44.62 610.42) rotate(-136.28)" xlink:href="#linear-gradient-2"/><linearGradient id="linear-gradient-5" x1="365.64" y1="105.52" x2="89.16" y2="159.14" gradientTransform="translate(-0.52 5.66) rotate(-1.28)" xlink:href="#linear-gradient-2"/><linearGradient id="linear-gradient-6" x1="44.8" y1="501.95" x2="102.31" y2="501.95" gradientTransform="translate(-44.62 610.42) rotate(-136.28)" xlink:href="#linear-gradient-2"/><clipPath id="clip-path-2"><rect class="cls-1" x="-296" width="276" height="168"/></clipPath><linearGradient id="linear-gradient-7" x1="-149.83" y1="79.49" x2="137.72" y2="-56.93" gradientTransform="translate(-119.46 20.06) rotate(-135)" gradientUnits="userSpaceOnUse"><stop offset="0.02" stop-color="#f5c15a"/><stop offset="0.22" stop-color="#f3a96e"/><stop offset="0.75" stop-color="#ed6e9f"/><stop offset="1" stop-color="#eb57b2"/></linearGradient></defs><g class="cls-2"><rect class="cls-3" width="276" height="168"/><rect class="cls-4" x="-96.84" y="-120.61" width="198.98" height="269.54" rx="7.37" transform="translate(-5.5 26.05) rotate(-135)"/><path class="cls-5" d="M353.73-2.95,286.59,67.26l-79.16-.44L169,30a4.27,4.27,0,0,1-.14-6L270.61-82.45a4.26,4.26,0,0,1,6-.13L353.6-9A4.26,4.26,0,0,1,353.73-2.95Z"/><path class="cls-6" d="M207.43,66.82l34.65-36.23a4.27,4.27,0,0,1,6-.13l38.48,36.8Z"/><path class="cls-7" d="M355.87,126.84,288.73,197l-79.16-.43L171.09,159.8a4.25,4.25,0,0,1-.14-6L272.75,47.34a4.24,4.24,0,0,1,6-.14l77,73.61A4.26,4.26,0,0,1,355.87,126.84Z"/><path class="cls-8" d="M209.57,196.61l34.65-36.24a4.28,4.28,0,0,1,6-.13L288.73,197Z"/></g><g class="cls-9"><rect class="cls-10" x="-122.01" y="-10.43" width="132.87" height="90.41" rx="2.65" transform="translate(-70.29 98.66) rotate(135)"/></g></svg>