<svg viewBox="0 0 24 24" xmlns="http://www.w3.org/2000/svg"><ellipse cx="5.84" cy="19.12" fill="#cdd8dd" rx="4.84" ry="4.88"/><path d="m22.72 3a29.3 29.3 0 0 1 -6.85-1.48 26.85 26.85 0 0 1 -3.52-1.52.37.37 0 0 0 -.29 0 25.74 25.74 0 0 1 -3.52 1.51 29.34 29.34 0 0 1 -6.84 1.49.3.3 0 0 0 -.28.31 25.62 25.62 0 0 0 3.17 11.31 28.18 28.18 0 0 0 7.41 8.61.32.32 0 0 0 .39 0 28 28 0 0 0 7.42-8.61 25.67 25.67 0 0 0 3.19-11.32.31.31 0 0 0 -.28-.3z" fill="#572dd1" opacity=".8"/><path d="m11.27 14.89-3.31-3.28 1.39-1.31 1.86 1.77 5.35-5.17 1.46 1.42z" fill="#fff"/></svg>