<?xml version="1.0" encoding="UTF-8"?>
<svg width="1006px" height="415px" viewBox="0 0 1006 415" version="1.1" xmlns="http://www.w3.org/2000/svg" xmlns:xlink="http://www.w3.org/1999/xlink">
    <title>edge</title>
    <defs>
        <rect id="path-1" x="0" y="0" width="1006" height="415"></rect>
        <linearGradient x1="89.012919%" y1="3.03244606%" x2="5.49057658%" y2="91.8635283%" id="linearGradient-3">
            <stop stop-color="#1E2B3E" offset="0%"></stop>
            <stop stop-color="#0A1340" offset="100%"></stop>
        </linearGradient>
    </defs>
    <g id="New-Home" stroke="none" stroke-width="1" fill="none" fill-rule="evenodd" opacity="0.56">
        <g id="Artboard" transform="translate(-39.000000, -13.000000)">
            <g id="edge" transform="translate(39.000000, 13.000000)">
                <mask id="mask-2" fill="white">
                    <use xlink:href="#path-1"></use>
                </mask>
                <g id="Rectangle"></g>
                <path d="M701.669662,566.255753 L701.388023,565.734199 L988.920957,402.602417 L988.602809,235.360787 L1103.12572,168.977344 L1103.41258,169.498899 L989.192165,235.736306 L989.515529,402.983152 L989.369494,403.0666 L701.669662,566.255753 Z M687.358209,555.303111 L687.071355,554.781557 L974.609505,391.681068 L974.286141,224.439438 L1088.80905,158.035133 L1089.10112,158.53061 L974.880713,224.768017 L975.198861,392.014863 L975.052826,392.098312 L687.358209,555.303111 Z M672.514772,543.583784 L672.233132,543.06223 L959.766067,379.930448 L959.447919,212.688817 L1073.97083,146.321022 L1074.25769,146.842576 L960.037275,213.079983 L960.360639,380.326829 L960.214604,380.410278 L672.514772,543.583784 Z M658.432803,532.109587 L658.145948,531.588033 L945.699745,368.508407 L945.376381,201.266776 L1059.89929,134.862472 L1060.19136,135.384026 L945.970953,201.621433 L946.289101,368.863064 L946.143066,368.946512 L658.432803,532.109587 Z M643.052164,521.156945 L642.770525,520.635391 L930.303459,357.503609 L929.985311,190.261979 L1044.52387,123.930692 L1044.81073,124.452246 L930.590314,190.689653 L930.908462,357.910422 L930.762427,357.99387 L643.052164,521.156945 Z M628.67291,510.3712 L628.39127,509.849646 L915.939851,346.790882 L915.621703,179.549252 L1030.14462,113.144947 L1030.43147,113.640424 L916.21106,179.877831 L916.534423,347.124677 L916.388388,347.208125 L628.67291,510.3712 Z M614.069387,502.141072 L613.782532,501.619518 L901.336329,338.560754 L901.012965,171.319123 L1015.54109,104.914819 L1015.82795,105.410295 L901.607537,171.647703 L901.910038,338.915411 L901.764003,338.998859 L614.069387,502.141072 Z M599.465864,493.373743 L599.179009,492.852189 L886.732806,329.793424 L886.409442,162.551794 L1000.93235,96.1474893 L1001.21921,96.6690437 L886.998798,162.906451 L887.316947,330.153297 L887.170911,330.23153 L599.465864,493.373743 Z M584.862341,485.143615 L584.580702,484.62206 L872.113636,321.490279 L871.795488,154.248648 L986.328832,87.9173611 L986.615687,88.4389154 L872.395276,154.676323 L872.718639,321.917953 L872.572604,322.001402 L584.862341,485.143615 Z M569.471271,476.433656 L569.189632,475.912102 L856.722566,312.78032 L856.404418,145.53869 L970.927331,79.181325 L971.214186,79.7028794 L856.993774,145.940287 L857.317138,313.187133 L857.171103,313.270581 L569.471271,476.433656 Z M555.389302,467.671543 L555.102448,467.149988 L842.651029,304.039069 L842.327665,136.797438 L956.850578,70.3931336 L957.142648,70.914688 L842.922237,137.152095 L843.240385,304.398941 L843.09435,304.48239 L555.389302,467.671543 Z M540.78578,459.170206 L540.50414,458.648652 L828.037075,295.51687 L827.718927,128.27524 L942.247055,61.8917971 L942.53391,62.4133514 L828.313499,128.650759 L828.636862,295.897605 L828.490827,295.975838 L540.78578,459.170206 Z M525.916264,451.472063 L525.634625,450.950509 L813.167559,287.818727 L812.849411,120.577097 L940.004371,46.1304234 L940.291226,46.6259001 L813.428336,120.905676 L813.746485,288.152522 L813.600449,288.235971 L525.916264,451.472063 Z M511.578734,442.18318 L511.291879,441.661625 L798.835245,278.54549 L798.511881,111.30386 L798.657916,111.220411 L938.142422,30.9896995 L938.434492,31.5112539 L799.090806,111.632439 L799.408954,278.879285 L799.262919,278.962734 L511.578734,442.18318 Z M496.975211,433.947836 L496.693572,433.426281 L784.226506,270.310146 L783.908358,103.068516 L784.054393,102.985067 L945.047802,10.2787747 L945.334657,10.8003291 L784.482068,103.402311 L784.805431,270.649157 L784.659396,270.72739 L496.975211,433.947836 Z M481.57371,425.9837 L481.29207,425.462146 L768.825005,262.346011 L768.506857,95.1043805 L768.647677,95.0209318 L938.408415,-3 L938.695269,-2.47844561 L769.080567,95.4329598 L769.40393,262.679806 L769.257895,262.763254 L481.57371,425.9837 Z" id="Shape-Copy" fill="url(#linearGradient-3)" fill-rule="nonzero" mask="url(#mask-2)"></path>
            </g>
        </g>
    </g>
</svg>