<svg height="30" viewBox="0 0 116 30" width="116" xmlns="http://www.w3.org/2000/svg"><path d="m21.838 22.389c-.093-.049-.248-.044-.372.125-.762 1.041-3.533 4.438-7.139 4.438-5.678 0-9.494-4.875-9.494-12.133 0-6.41 3.357-11.062 7.998-11.062h.001c.748 0 1.488.25 2.082.704l4.815 3.678c.119.091.275.106.407.037.1311718-.06732549.2134717-.20256003.213-.35v-4.206c.00048-.15088926-.0848314-.28893853-.22-.356-1.692-.812-3.859-1.26-6.105-1.26-8.256-.001-14.024 5.975-14.024 14.53 0 7.803 5.088 13.465 12.101 13.465 5.693 0 9.078-4.414 9.874-7.195.06-.207-.026-.358-.137-.415zm19.783 5.359c-.0329764-.0368287-.0511449-.0845654-.051-.134v-13.06c0-3.002-2.178-5.046-5.418-5.087-2.697-.03-5.06 1.755-6.198 2.614-.152.114-.284.214-.394.292-.0135796.0105159-.0321936.011704-.047.003-.0149854-.0086509-.0241549-.0246975-.024-.042v-11.94c.000871-.12125126-.0549925-.23593795-.151-.31-.0926326-.07443468-.2151259-.10041811-.33-.07-.04.005-4.065.658-5.385.959-.1522228.03903874-.2634938.16952196-.278.326-.0213497.15848677.0596137.3131989.202.386.046.031 1.122.76 1.45.942.1170605.06613.189036.19055576.188.325v24.66c-.0000426.0482644-.0170307.0949817-.048.132l-1.41 1.012c-.1141025.1103395-.1497217.2789371-.09.426.0561333.1502795.2005931.2491204.361.247h6.68c.1600422.0016962.3039911-.0970687.36-.247.0600982-.1520243.0203421-.3253611-.1-.436l-1.388-.994c-.0380905-.0373866-.0593812-.0886286-.059-.142v-13.224c0-.057.026-.114.07-.151 1.259-1.096 2.467-1.716 3.69-1.893 1-.145 2.017.165 2.787.85.7831521.6973907 1.2307703 1.6963435 1.23 2.745v11.677c.0008018.0477587-.0155154.0942274-.046.131l-1.426 1.053c-.1117156.1117904-.1455978.2796252-.086.426.06.152.198.246.36.246h6.673c.1590239-.0032476.3004984-.1017942.3586648-.2498341.0581663-.1480399.0216149-.3165346-.0926648-.4271659zm19.984-4.925c-.152-.082-.333-.036-.442.11-1.04 1.4-3.2 3.75-5.997 3.75-4.12 0-6.894-3.253-7.072-8.286-.0018201-.0521834.0172571-.102936.053-.141.0376989-.0399245.0900903-.0626876.145-.063h13.048c.1176828.0002522.2288419-.0540348.301-.147.0734369-.0903808.1027647-.2087922.08-.323-1.082-5.426-3.832-8.294-7.954-8.294-5.262 0-9.232 4.594-9.232 10.685 0 5.914 3.634 9.885 9.042 9.885 3.79 0 6.772-2.464 8.18-6.758.0620026-.1577276-.0031656-.3369404-.152-.418zm-13.452-6.26c.37-3.51 2.146-5.607 4.747-5.607 2.353 0 3.725 1.67 4.588 5.584.0127222.0586104-.0018072.1198285-.03951.1664711-.0377027.0466426-.0945149.0736822-.15449.0735295h-8.941c-.0576836-.0002989-.1125445-.0250045-.151-.0680006-.0371442-.0402247-.0550196-.0945804-.049-.149zm31.88 7.055c-.12-.061-.293-.05-.405.118l-.073.11c-.815 1.213-1.93 2.874-4.82 2.874-4.08 0-7.042-3.516-7.042-8.358 0-4.132 2.18-7.368 4.965-7.368.174 0 .35.01.524.03.35.04.688.179.975.4l4.203 3.228c.119.091.275.106.409.038.1311119-.0672489.2131275-.2026519.212-.35v-3.562c.0011826-.1494761-.0825358-.2866813-.216-.354-1.281-.623-3.042-.993-4.711-.993-5.835 0-9.91 4.409-9.91 10.723 0 5.89 3.436 9.848 8.55 9.848 4.958 0 6.655-3.393 7.501-5.944.0643168-.1665366-.0050466-.354931-.162-.44zm34.906-13.82c-.488777-.25152959-1.032403-.37764263-1.582-.367-1.404 0-3.161 1.091-5.221 3.245-.009509.0107004-.024702.0142987-.038.009-.012946-.0047321-.021407-.0172223-.021-.031l-.111-2.768c-.007907-.11657605-.067277-.22358862-.162-.292-.095326-.06971873-.217648-.09115291-.331-.058l-5.075 1.468c-.137283.0386675-.241709.150415-.271.29-.032754.1380161.011609.2829598.116.379l1.669 1.535c.04.038.064.09.064.147v14.258c.000451.0507546-.018508.0997635-.053.137l-1.218 1.009c-.113503.1107071-.148686.2791104-.089.426.05662.1498977.200773.2485283.361.2470175h6.411c.162 0 .306-.1000175.363-.2550175.057614-.1532484.014187-.3261601-.109-.434l-1.295-.99c-.04153-.0371453-.065187-.090282-.065-.146v-12.375c0-.169.04-.335.118-.48.294-.553.759-1.073 1.348-1.503.589-.432 1.179-.804 1.928-.623.565.137 1.717 1.018 2.407 1.544.248.191.445.341.553.41.119307.0779377.272192.0825706.396.012.123462-.0698219.199283-.2011682.198016-.343v-3.984c-.000436-.1983043-.113185-.37924491-.291016-.467zm-22.919 7.288c-.033-.047.05-.132.148-.223l6.703-6.285c.1227096-.1149896.1415095-.3029885.044-.44-.0639245-.0887489-.1676686-.14005914-.277-.137h-4.847c-.1499188-.00318121-.2885168.0794419-.3570204.2128324-.0685036.1333906-.0549084.2941735.0350204.4141676l1.269 1.714c.06.081.05.194-.023.263l-7.05 6.664v-6.614l.001.002v-12.262c.0010238-.11985927-.0534074-.23346294-.1474613-.30776745-.0940538-.07430452-.2171702-.10096712-.3335387-.07223255-.04.006-4.064.658-5.386.959-.1532898.0396246-.2645414.17216258-.277.33-.0220955.1570433.0589031.3105779.201.381.043.03 1.046.708 1.448.927.1181473.0657819.1909977.19077777.19.326v24.635c-.0004243.0475914-.0173945.0935524-.048.13l-1.426 1.054c-.1140245.1138016-.1470497.2856664-.0833243.433624s.2112944.2420405.3723243.237376h6.676c.1597876.0018506.3036608-.0964628.36-.246.0602638-.1523287.0205132-.3260391-.1-.437l-1.387-.993c-.0380905-.0373866-.0593812-.0886286-.059-.142v-6.38c-.0003099-.0536508.0209489-.1051765.059-.143l1.363-1.345c.041892-.0413114.0999864-.0618527.1585352-.0560558.0585489.0057969.1114872.0373316.1444648.0860558.039.056 3.865 5.433 5.789 8.11.0321793.0438373.0247356.1051381-.017.14l-.942.801c-.1171565.1123007-.1527635.2852982-.0894792.4347379.0632842.1494396.2123027.2442525.3744792.2385303h6.222c.198 0 .276-.0902682.306-.1652682.072-.177-.069-.417-.177-.53-.217-.285-8.716-11.552-8.837-11.715z" fill="#043f93"/></svg>