<svg viewBox="0 0 341.8 89.8" xmlns="http://www.w3.org/2000/svg"><path d="m26.7 66.8 16.5-6.8 30.3 12.4v13.5zm-20.4 6.3v-12.7l15.6 6.4zm30.2-41.3c3 1.2 10.8 4.4 13.7 5.6.9.3 1.2 1.7 0 2.3-12.6 5.1-31.6 12.9-44 18v-13.5zm-30.2-14.4v-13.5l46.7 19.1-16.5 6.7zm67.2 12c-3-1.2-12.4-5.1-15.6-6.4l15.6-6.4zm-30.3 28.6-13.7-5.6c-.4-.2-.7-.5-.7-.9 0-.1 0-.2 0-.2 0-.2 0-.8.7-1.1.1 0 21.4-8.8 21.5-8.8 4.7-1.9 18-7.4 22.5-9.2v13.5zm-14.4-3.9 12 4.9-16.5 6.7c-2.8-1.1-13.9-5.7-16.5-6.7l19.1-7.8v.1c0 .6.2 1.2.5 1.7.1.1.2.2.3.4.3.3.7.6 1.1.7m22.2-18.4c-3-1.2-9-3.7-12-4.9l16.5-6.8c2.8 1.2 13.5 5.5 16.5 6.7-2.2.9-17.3 7.1-19.1 7.8v-.1c0-1.1-.8-2.3-1.9-2.7m-46.6 40.2 19.9-8.1 51.1 20.9v-17.5l-29.7-12.2 29.7-12.1v-33l-19.9 8.1-51.1-20.8v17.5l29.7 12.1-29.7 12.1z" fill="#eb3226"/><g fill="#11133c"><path d="m109.1 60.2h-3.1v-30.6h4.2l9.8 22.8 9.8-22.8h4.2v30.6h-3.1v-25.9l-9.6 22.4h-2.8l-9.4-22.4z"/><path d="m156.3 49.3-4.5-12.6-4.5 12.6zm3.9 10.9-2.9-8h-11l-2.9 8h-3.2l10-27.1h3.4l10 27.1z"/><path d="m172.7 60.2v-9.6l-9.6-17.5h3.3l7.9 14.3 7.9-14.3h3.3l-9.7 17.5v9.6z"/><path d="m198.1 60.2c-4.1 0-6-1.9-6-6v-3.7l3.1.9v3.1c0 2.3.9 3.1 3.1 3.1h8.6c2.3 0 3.1-.9 3.1-3.1v-4.1c0-2.4-1.1-3.1-3.1-3.5l-8.5-1.9c-3.6-.8-6.2-1.8-6.2-6.2v-3.2c0-4.1 1.9-6 6-6h8.4c4.1 0 6 1.9 6 6v2.7l-3.1-.9v-2.1c0-2.3-.9-3.1-3.1-3.1h-8.1c-2.3 0-3.1.9-3.1 3.1v3.1c0 2.4 1.1 3.1 3.1 3.5l8.5 1.9c3.6.8 6.2 1.8 6.2 6.2v4.1c0 4.1-1.9 6-6 6h-8.9z"/><path d="m226.6 60.2v-24.3h-8.2v-2.8h19.5v2.8h-8.2v24.3z"/><path d="m257.3 46.3c1.9 0 2.6-.7 2.6-2.6v-5.2c0-1.9-.7-2.6-2.6-2.6h-10v10.4zm3.2 13.9-6-11.1h-7.2v11.1h-3.1v-27.1h13.2c3.7 0 5.5 1.8 5.5 5.5v5c0 3.5-1.6 5.4-5 5.5l6 11.1z"/><path d="m270 60.2v-27.1h17.3v2.8h-14.2v9h12v2.9h-12v9.6h14.2v2.8z"/><path d="m294.3 60.2v-27.1h17.3v2.8h-14.2v9h12v2.9h-12v9.6h14.2v2.8z"/><path d="m326.1 60.2v-24.3h-8.2v-2.8h19.6v2.8h-8.3v24.3z"/></g></svg>