<svg height="140" viewBox="0 0 400 140" width="400" xmlns="http://www.w3.org/2000/svg" xmlns:xlink="http://www.w3.org/1999/xlink"><mask id="a" fill="#fff"><path d="m.00447857.00001389h349.93192543v75.58531511h-349.93192543z" fill="#fff" fill-rule="evenodd"/></mask><path d="m.00201536 9.68109405c.25430795-.05598209.48547664-.11196417.71992962-.15100235l8.98743868-1.52114523c5.02935594-.91818085 9.85956494-2.49672638 14.52182764-4.58381318 2.2614524-1.01327575 4.5018555-2.07693538 6.7245682-3.17261676.6930582-.34141608 1.2718383-.33007038 1.9526551-.00552357l7.9074323 3.68138196c4.6718917 2.03312007 9.5808488 3.47178503 14.6113244 4.28203242l7.7129878 1.33804649c.1983259.03470889.3918746.08830241.6214012.13995521 0 .37410966.0113457.72776716 0 1.07709536l-.4400192 11.2955427c-.1306249 2.6442205-.3172318 5.2853061-.5598209 7.9237791-.2332586 2.5667413-.8271913 5.075112-1.4441885 7.5730326-1.0878439 4.4103434-2.5191938 8.703199-4.5794092 12.7613031-1.4832267 2.9081574-3.1863511 5.6987524-5.0943698 8.3474515-1.8194178 2.5375559-3.7350502 4.9963638-6.0280017 7.120772-1.75 1.6234805-3.605321 3.1294732-5.4034656 4.7024952-1.2680316 1.1068031-2.631158 2.0798464-4.0548944 2.9737684-1.2528791.7837492-2.5696524 1.4333653-3.918746 2.0255811-.4113564.1801877-.7723289.0839731-1.1196418-.0991256l-2.74984-1.4981553c-2.303103-1.235338-4.2636703-2.9334612-6.2608872-4.5870228-2.6647473-2.2068884-5.1868522-4.5642567-7.3785882-7.2417679-3.5700149-4.3633931-6.60588609-9.0732033-8.85860522-14.2588612-1.48001706-3.3973662-2.56494988-6.9242376-3.42826829-10.5150032-.43098741-1.7914268-.83069951-3.5962146-1.15554489-5.4107059-.21922585-1.2260823-.31342504-2.4783643-.40851994-3.7228087l-.41486458-6.365611-.24408189-5.1425144-.21661335-6.2644701c-.00671785-.2207187-.00059714-.44225843-.00059714-.70320959zm3.47088931 2.84956285c0 1.3642461-.0460546 2.631158.00903178 3.8962785.15279377 3.5412028.33096609 7.0809128.53391981 10.619727.09121348 1.5814566.20056515 3.16881.42449349 4.7351141.22392835 1.5663788.55982086 3.1192472.91788228 4.6610685 1.46135637 6.2732032 3.66861804 12.2376839 7.27214757 17.634357 2.2952655 3.4394647 4.7024952 6.7782363 7.8185327 9.5371081 1.4385904 1.2735551 2.9221156 2.4950096 4.3710067 3.7586372 1.7281296 1.5074856 3.7201215 2.610482 5.689422 3.7507998.2731926.1577948.5796758.2575176.8621988.3985924.3600767.1801877.6907443.1557049 1.0636596-.0040307 2.0567818-.8770527 3.9327788-2.0713372 5.696737-3.4149072 1.7500747-1.3310301 3.4239391-2.7711133 5.0608552-4.2400832 4.7176477-4.2345596 8.213617-9.3936447 11.0798252-14.9929729 1.8934634-3.6995202 3.1743335-7.6343144 4.1370761-11.6746535.7502346-3.1440285 1.3325229-6.3090317 1.4634464-9.5481552l.3620921-6.6496268.2858072-7.830177c.0066432-.1970569 0-.3953828 0-.5878119-.1994455-.0521753-.3236511-.0953188-.4507678-.116592l-6.501834-1.12524c-4.6841331-.7365003-9.2128599-2.01535504-13.5575923-3.9059074-2.4072297-1.04902964-4.7782576-2.19203455-7.1467477-3.3309341-.6125933-.29446577-1.1164321-.30931968-1.7354446.00731499-1.5412242.79278098-3.1116336 1.53077416-4.6858499 2.25622734-3.4776072 1.60101301-7.0479207 2.95130092-10.7608019 3.90762427-3.2134463.8260716-6.49944548 1.3042333-9.7743975 1.8337492l-2.43178716.4256877zm77.06053533 1.805982h4.903956v19.3272553c.1624227-.0801663.2670719-.1064406.3396993-.1679462.4915974-.4300917.9881212-.8542867 1.4613564-1.3045319 3.1151418-2.9614524 6.8018234-4.7488484 11.0631798-5.2812007 7.8133075-.9753572 15.0367135 2.8673278 19.0225635 8.9571337 1.660503 2.5369589 2.71334 5.3013542 3.091779 8.3121455.35836 2.8471742.005896 5.6340371-.945799 8.3206547-2.6172 7.3974728-7.803978 11.9002239-15.512935 13.3493389-5.215664.9808807-10.1511193.0897952-14.5981869-2.8964385-4.6388995-3.1152165-7.4514395-7.4780124-8.5652591-12.9452975-.2799104-1.3770847-.3836639-2.7711133-.3808123-4.1706654.0149134-10.0195991.0320812-20.0389742.0516376-30.0582747 0-.2604286-.0326189-.521977-.0224675-.7837492.0079122-.2151951.0577736-.4256878.0918853-.6578268zm5.0048692 32.0815419c-.0058183 8.1599489 6.6370907 14.8279378 14.7874108 14.8450696 3.945841.0196671 7.736649-1.5349928 10.531947-4.3198403 2.795596-2.7848475 4.364513-6.569759 4.359301-10.5156003 0-8.2110045-6.622545-14.8465985-14.820711-14.8465985-8.1885368-.0002985-14.8530175 6.65627-14.8576454 14.8375667zm169.7309698-13.7356899c.033515-.5519833.097931-.9981232.078151-1.4409789-.087183-1.9984858 1.450011-2.5556195 2.802613-2.4156643 1.364843.1410749 2.087908.9630412 2.135156 2.3468437.006718.2049691.003807.4102367.003807.6158029 0 9.9062167-.001493 19.8124334-.004404 29.7186501.008211.4650245-.030902.930049-.11689 1.3872361-.184891.8817551-.731276 1.4707613-1.631915 1.6322883-.456068.0897953-.923705.1034549-1.384102.040531-1.103892-.1764555-1.75209-.9887182-1.791426-2.1710599-.022169-.6898486-.004404-1.3805929-.005598-2.0713372 0-.0895713-.009331-.1775751-.020079-.365675-.195938.1557049-.335893.2586373-.466219.3729154-1.63311 1.4331414-3.385797 2.6927383-5.318298 3.6875773-3.512018 1.8056835-7.232214 2.4970249-11.160589 2.0742482-3.834773-.4056088-7.344999-1.6514715-10.36512-4.0785562-4.042952-3.2469609-6.616113-7.413521-7.378589-12.5735018-.916986-6.2049797.775912-11.6667413 4.982406-16.3231819 2.025581-2.2392834 4.387951-4.0347409 7.221689-5.1503519 2.67781-1.0551503 5.448401-1.34357 8.294978-1.015515 3.901876.4516635 7.454126 1.9089145 10.856195 3.7866283.912284.5038387 1.794636 1.0636596 2.690947 1.6010876zm-14.944604-1.1599697c-8.078066-.0133401-14.818309 6.3819787-14.934379 14.6539663-.119279 8.4733739 6.712327 15.0647047 14.812786 15.1390489 8.069332.0746427 14.794423-6.5078802 14.954532-14.5821391.162422-8.1247174-6.31575-15.1486777-14.832939-15.210258zm109.611207 14.9624649c-.068821 9.0443165-6.186021 16.8506078-14.997377 19.0198763-5.167296 1.2718384-10.172169.8184581-14.844882-1.8053849-5.573128-3.1294732-8.974077-7.8934741-9.989592-14.2194498-1.696108-10.5750906 5.052943-19.7056942 14.677532-22.1298678 5.998518-1.5115163 11.644274-.6073683 16.729537 2.9927277 4.558808 3.2280017 7.263713 7.6695458 8.135989 13.1951269.154063.9741629.195937 1.9648966.289315 2.9469716zm-34.872212-.0320964c.011122 8.1996588 6.653434 14.8448817 14.851898 14.8594607 8.214737.0145317 14.941694-6.6721179 14.878397-14.876106-.064417-8.3973129-6.917595-14.8661548-14.947217-14.8559409-8.134048.0110593-14.794423 6.7131599-14.783688 14.8725862zm-29.320057 11.3801131 2.015355-4.4730433c2.761783-6.1542227 5.523566-12.3096396 8.285348-18.4661762.53183-1.1902538 1.007678-2.4072297 1.528162-3.6024099.209075-.4986137.457187-.979985.742323-1.4391874.576764-.8957134 1.416496-1.3526765 2.49792-1.3214758.242589.007315.484357.0314992.727767.0376199.761282.0204522 1.523236.0382171 2.285338.0530711.181382.0041053.362764 0 .628045 0l-.253636.6003518c-3.228301 7.2328109-6.456601 14.4655471-9.684901 21.6986565l-5.113329 11.5547025c-.137343.325965-.302901.6394647-.494807.9365429-.447857.6662615-1.105311.9461719-1.88906.8216678-.64469-.1049478-1.302516-.1029324-1.946833.0058221-.072926.0122414-.148464.0166453-.223928.0238857-1.427543.125997-2.001994-.2069844-2.584208-1.5170399-4.8947-11.0194391-9.788729-22.0394007-14.682533-33.0597355-.279911-.6298358-.380455-1.0222329.636553-1.0076776.801813.0113457 1.603924-.0157496 2.40723-.0111218 1.204734.0079122 2.119407.5227981 2.679825 1.6045959.34261.661559.679697 1.3266262.983792 2.0068458 3.734154 8.3337919 7.465174 16.6687034 11.192312 25.0048091.067327.1536149.143463.300288.263265.5486991zm-108.552698-29.0340265.433824-.0699403c1.080603-.0250799 2.162028-.0711345 3.242557-.0591917 1.027234.0110471 1.828225.4827895 2.356846 1.3680529.301183.4930156.573182 1.0032736.814651 1.5283856 2.653327 5.9376093 5.301354 11.8787268 7.943634 17.8230539 1.152261 2.5880145 2.302506 5.1768501 3.450736 7.7663575.072926.1650352.156899.3256664.27991.5763915.434421-.8764555.853167-1.6581893 1.217648-2.4632117l10.552623-23.7602901c.216912-.514662.479281-1.0091704.783749-1.4774045.727767-1.115835 1.796055-1.5916827 3.108126-1.5115164.947888.0559821 1.892343.1539881 2.916592.239678-.046354.1830988-.102336.363585-.167947.540563l-2.127319 4.9871082c-4.120804 9.322734-8.248027 18.6437513-12.381371 27.9630518-.133238.3073043-.291555.6035615-.473161.8848901-.401802.6114737-.980881 1.0038708-1.709543 1.0313394-1.059256.0390381-2.124707.0390381-3.182769-.02508-.743218-.044935-1.334538-.4551717-1.735444-1.0963532-.163916-.2705801-.309096-.5522073-.434496-.8429409-4.641213-10.4602154-9.281307-20.9203562-13.920281-31.3808701-.106441-.2378866-.238484-.464726-.350448-.6997761l-.618117-1.322894zm-21.816144-.3469396v-13.5852847h5.018831v13.7995841h.612369 8.061421c.242813-.0064193.4857.0008957.727767.0212732 1.847409.2069844 2.363489 1.4858392 2.222339 2.830305-.123011 1.1712198-.912358 1.8447963-2.216816 1.959373-.315216.027991-.633642.0169439-.951695.0169439-2.575176 0-5.150352 0-7.725528 0h-.503839v30.5437513h-5.132885v-30.1894967c-.42218-.0915867-.795095-.2172851-1.175624-.2460972-.761282-.0588932-1.528385-.0588932-2.292056-.0953935-1.603327-.076061-2.255033-.7644914-2.235178-2.360578.001717-.2422904.024184-.4839837.067029-.7221689.207059-1.1141181.793976-1.6514715 1.932577-1.7410428.500927-.0393368 1.007677-.0157497 1.511516-.0338132.503839-.017765 1.007677-.0419492 1.507112-.0792706.177277-.0134357.354255-.072926.57266-.1174878zm-22.714694 35.6705161h4.826701v-35.3246961h-4.826701zm5.490573-44.5241949c.07845 1.2080187-.85869 2.3422158-2.222339 2.6816165-.791661.196833-1.563169.090691-2.295266-.235274-1.550927-.68955-2.065813-2.7655897-1.058136-4.1919386 1.083814-1.5348795 3.534709-1.7089465 4.826701-.3358925.540265.5726594.740606 1.2782576.750235 2.0814886zm-81.1136378-4.3228621v1.1812221l-.1839945 5.2007357-.7076136 10.7188526c-.128908 1.6946151-.5974408 3.3364577-.9797611 4.9879292-.9484858 4.107443-2.3133291 8.0614204-4.3403284 11.7673598-2.2868309 4.1764875-4.9209 8.1118042-8.4223929 11.3801131-1.8249413 1.7042439-3.7306462 3.3320537-5.6950202 4.8744721-1.3292387 1.0435807-2.8122414 1.8955534-4.3779484 2.575176-.2898379.125997-.567733.179068-.8598849.0391128-.520708-.2484112-1.0467157-.4825656-1.5552569-.7540414-2.5879399-1.3861164-4.7584773-3.3254105-6.9697697-5.2214864-3.7283323-3.2000107-6.5956601-7.0744189-9.1081361-11.2602368-2.3474408-3.9103113-3.89075493-8.1285242-5.01039665-12.5175943-.4648006-1.8217318-.85107699-3.6679463-1.17010023-5.5197591-.22042014-1.2820644-.30439326-2.5932394-.38075283-3.8953828l-.46129239-9.1659095c-.05919172-1.287588-.08277884-2.575176-.11636809-3.8598529-.01515249-.5665387.01462998-.5962465.55982086-.6904457l7.43837703-1.287588c4.1852207-.7837492 8.1587546-2.2168159 12.0124867-3.99689697 1.4893474-.68872894 2.9670505-1.39955215 4.4284069-2.14717424.5441459-.27991043.9963318-.2533376 1.5281617 0l7.4596502 3.44872041c3.6221902 1.5451056 7.4149392 2.4877692 11.2972595 3.0997654 1.7488804.2764022 3.4892515.6055769 5.2326083.9152698.1303263.0335146.2580401.076061.3822457.1276391zm-36.3629772 3.0099702h-2.8793453c-.8872041 0-.9181062.0291107-.9195991.9053423-.0067178 2.7991043-.0119428 5.5982085-.0157496 8.3973128-.0038068 4.6838345-.0067178 9.367669-.0090318 14.0515036 0 1.2910215.0827789 2.5695777.3594797 3.8347728 1.5674984 7.1700363 8.3938793 13.3485178 17.7519194 11.4549798 5.4302623-1.0988911 9.1641181-4.3817552 11.0844529-9.6289188.8073363-2.2068884 1.1586799-4.4785668.8006185-6.8183941-.5711666-3.7286308-2.2992962-6.8242909-5.1631904-9.2787695-3.1842611-2.7305822-6.895948-3.8794092-11.0424291-3.5044039-3.3440713.3023779-6.2297612 1.704244-8.6582641 4.0307102-.3096929.2967797-.6272232.5860951-.9461719.8732459-.116592.0915867-.2381851.1766795-.3638835.2554276zm.0950202 24.1256664c-.076061-5.6244828 4.5593304-11.1293879 11.414822-11.0734058 5.9576882.0504585 10.8660482 5.0719023 10.870155 11.2299317.0032081 6.0977181-5.0133092 11.0203349-11.1404366 11.0934848-4.8465557.0583707-11.1092343-3.737364-11.1445404-11.2506078z" fill="#1956d8" fill-rule="evenodd" mask="url(#a)" transform="translate(25 32)"/></svg>