<svg height="140" viewBox="0 0 400 140" width="400" xmlns="http://www.w3.org/2000/svg"><g fill="#f15a2b" transform="translate(24 29)"><path d="m42.9469027 19.7315387c13.7026548 0 26.9159292 5.0265551 37.0530973 14.2419062-1.5380531-7.4002062-5.1734513-14.2419062-10.4867257-19.6175277-24.818584-10.47198986-53.6221239-1.5358918-68.09380527 21.1534195-.20973452 1.1868255-.34955753 2.3038378-.41946903 3.4906633 10.4867257-12.2173215 25.7973451-19.2684613 41.9469027-19.2684613"/><path d="m19.4982394 43.8251196c19.6109155 0 37.5528169 10.8841836 46.5237676 28.1748804 7.7887324-6.4065131 12.7957747-15.4996286 13.977993-25.4193909-18.4286972-21.9061417-51.3221831-24.8682929-73.43661972-6.6131748-2.01672535 1.6532937-3.82482394 3.4443619-5.56338028 5.3043173.06954225.6199851.13908451 1.2399703.20862676 1.7910682 5.8415493-2.1355044 12.03080984-3.2377002 18.28961264-3.2377002"/><path d="m41.5353794 83c-20.7323103 0-38.28047744-15.3543176-41.18158571-35.8739127-.07075874-.636815-.14151747-1.27363-.21227621-1.910445-.07075874-1.2028728-.14151748-2.4765029-.14151748-3.6793757 0-1.0613583.07075874-2.1227167.14151748-3.1840751.07075874-1.2028728.21227621-2.4057456.42455243-3.6086184 3.82097186-22.713069 25.19011079-37.92587217 47.83290709-34.17573928 16.9113384 2.83028896 30.28474 15.70810378 33.7519181 32.47756588.5660699 2.7595318.8491049 5.5898207.8491049 8.4201097 0 1.6981734-.0707587 3.3963468-.283035 5.0237629-2.5473145 20.8733812-20.2369991 36.5107277-41.1815856 36.5107277m0-80.87577541c-19.3171356-.07048907-35.73316286 13.86868411-38.84654735 32.90237741-.21227621 1.1321156-.35379369 2.3349884-.42455243 3.467104-.07075873.9906011-.14151747 1.9812023-.14151747 3.0425606 0 1.1321156.07075874 2.3349884.14151747 3.5378612.07075874.6368151.14151748 1.2028728.21227622 1.7689306 2.97186701 21.5101962 22.78431376 36.5814849 44.36572886 33.6804388 17.6896846-2.4057457 31.5583973-16.4864333 33.7519182-34.1757393.2122762-1.6274162.283035-3.1840751.283035-4.8114913 0-10.1890403-3.9624894-20.0242944-11.0383632-27.3830457-7.4296675-7.71253748-17.6896846-12.02899631-28.3034953-12.02899631"/><path d="m229 7v52.5033467h-5.249428l.283753-4.7536814-.141876-.0709504c-1.631579 3.5475234-5.533181 5.3212851-11.56293 5.3212851-5.53318 0-9.292906-1.3480589-11.279176-4.1151272-1.98627-2.7670682-3.050343-7.875502-3.050343-15.3962516 0-6.8821955.993135-11.7068274 3.050343-14.3319947s5.675057-4.0441767 10.924485-4.0441767c6.526316 0 10.427918 1.7028112 11.704806 5.1793842l.141876-.0709505v-20.2208835zm-15.89016 19.6532798c-3.901602 0-6.455378.9223561-7.732266 2.7670683-1.276888 1.8447121-1.915331 5.5341365-1.915331 11.1392235 0 6.1726908.638443 10.2168675 1.915331 12.1325301 1.276888 1.9156627 3.901602 2.9089693 7.874142 2.9089693 4.327231 0 7.16476-.9933066 8.441648-2.9089693 1.276888-1.9156626 1.98627-6.1726907 1.98627-12.6291834 0-5.2503346-.709382-8.7978581-2.128147-10.6425702-1.489702-1.9156627-4.256292-2.7670683-8.441647-2.7670683"/><path d="m239 23.7693762h5.240793l-.495751 4.1965973.070822.1398866c2.053824-3.4272212 5.524079-5.1058601 10.269122-5.1058601 6.586402 0 9.915014 3.4272212 9.915014 10.2816635v2.5179584h-5.169972l.070822-.9092627c.070821-.9792061.141643-1.6086957.141643-1.9584121 0-3.7069944-1.983003-5.5954632-6.01983-5.5954632-5.878187 0-8.78187 3.6370511-8.78187 10.9810964v21.6824197h-5.240793z"/><path d="m283.5 23c6.504464 0 10.725446 1.1779026 12.59375 3.4644195 1.9375 2.2865168 2.90625 7.3445693 2.90625 15.0355805s-.96875 12.6797753-2.90625 15.0355805c-1.9375 2.2865169-6.158482 3.4644195-12.59375 3.4644195s-10.65625-1.1779026-12.59375-3.4644195c-1.9375-2.2865168-2.90625-7.3445693-2.90625-15.0355805s.96875-12.7490637 2.90625-15.0355805c1.9375-2.2865169 6.089286-3.4644195 12.59375-3.4644195m0 4.3651685c-4.566964 0-7.404018.7621723-8.441964 2.2865169-1.107143 1.5243446-1.660715 5.4737828-1.660715 11.8483146s.553572 10.32397 1.660715 11.8483146 3.944196 2.2865169 8.441964 2.2172285c4.566964 0 7.404018-.7621723 8.511161-2.2865169s1.660714-5.4737828 1.660714-11.8483146-.553571-10.32397-1.660714-11.8483146c-1.107143-1.4550562-3.944197-2.2172285-8.511161-2.2172285"/><path d="m308.141553 23.5676037h5.237442l-.283105 4.6117805.141553.1419009c1.840183-3.5475234 5.732877-5.3212851 11.819635-5.3212851 5.308219 0 8.988584 1.4190094 10.970319 4.1151272 1.981735 2.7670682 2.972603 7.875502 2.972603 15.3253012 0 6.8821954-.990868 11.7068273-3.043379 14.3319946-2.052511 2.6251674-5.6621 4.0441767-10.828767 4.0441767-5.874429 0-9.8379-1.6318607-11.748859-4.8955823h-.141552v20.0789826h-5.237443zm15.429223 3.9022758c-4.175799 0-6.936073.9223561-8.210045 2.7670683-1.273973 1.8447122-1.910959 5.8179384-1.910959 11.9906292 0 5.6760375.707762 9.4364123 2.052511 11.3520749 1.344749 1.9156627 4.175799 2.8380188 8.280822 2.8380188 3.96347 0 6.582192-.9223561 7.856164-2.6961178 1.273973-1.7737617 1.910959-5.5341366 1.910959-11.2811245 0-6.2436413-.636986-10.287818-1.840182-12.1325301-1.203197-1.8447122-3.892694-2.8380188-8.13927-2.8380188"/><path d="m107.141553 23.5676037h5.237442l-.283105 4.6117805.141553.1419009c1.840183-3.5475234 5.732877-5.3212851 11.748858-5.3212851 5.30822 0 8.988585 1.4190094 11.041096 4.1151272 1.981735 2.7670682 2.972603 7.875502 2.972603 15.3253012 0 6.8821954-.990868 11.7068273-3.043379 14.3319946-2.052511 2.6251674-5.6621 4.0441767-10.828767 4.0441767-5.874429 0-9.8379-1.6318607-11.748859-4.8955823h-.141552v20.0789826h-5.237443zm15.429223 3.9022758c-4.175799 0-6.936073.9223561-8.210045 2.7670683-1.273973 1.8447122-1.910959 5.8179384-1.910959 11.9906292 0 5.6760375.707762 9.4364123 2.052511 11.3520749 1.344749 1.9156627 4.175799 2.8380188 8.280822 2.8380188 3.96347 0 6.582192-.9223561 7.856164-2.6961178 1.273973-1.7737617 1.910959-5.605087 1.910959-11.2811245 0-6.2436413-.636986-10.287818-1.840182-12.1325301-1.203197-1.9156627-3.963471-2.8380188-8.13927-2.8380188"/><path d="m150 12.972973h-5v-5.972973h5zm0 46.027027h-5v-36.4h5z"/><path d="m160 23.5616698h5.058548l-.140515 4.914611.140515.1404175c1.615925-3.7210626 5.550351-5.6166983 11.873536-5.6166983 5.128806 0 8.571429.9127135 10.327869 2.7381404 1.75644 1.825427 2.669789 5.3358634 2.740047 10.5313093v23.6603416h-5.199063v-24.5730551c0-3.089184-.562061-5.1954459-1.756441-6.3187855-1.194379-1.053131-3.442622-1.6148008-6.74473-1.6148008-7.306792 0-10.960188 3.5104364-10.960188 10.601518v21.9753321h-5.339578z"/><path d="m341 15.5345912c0-3.0440252 2.421384-5.5345912 5.534591-5.5345912 3.113208 0 5.465409 2.490566 5.465409 5.4654088 0 2.9748428-2.421384 5.5345912-5.534591 5.5345912-3.113208 0-5.465409-2.490566-5.465409-5.4654088zm10.446541-.0691824c0-2.7672956-2.144654-4.9811321-4.91195-4.9811321-2.836478 0-4.981132 2.2138365-4.981132 4.9811321 0 2.6981132 2.144654 4.9119497 4.91195 4.9119497 2.836478.0691824 4.981132-2.1446541 4.981132-4.9119497zm-7.194969-3.0440252h2.559749c.761006 0 1.383648.2075472 1.72956.6226416.276729.2767295.484276.6918239.484276 1.245283 0 .899371-.553459 1.5220126-1.314465 1.7295597l1.522012 2.1446541h-1.314465l-1.383648-2.0062893h-1.1761v2.0754717h-1.106919zm2.559749 2.836478c.691824 0 1.1761-.3459119 1.1761-.899371 0-.5534592-.415094-.8993711-1.1761-.8993711h-1.45283v1.7987421z"/></g></svg>