<svg height="140" viewBox="0 0 400 140" width="400" xmlns="http://www.w3.org/2000/svg"><g fill="none" transform="translate(152 20)"><path d="m97 20.379663-13.1463079-.0142139-13.9322632 18.3242339v-18.31002h-11.3676342v-20.379663h-13.0036158l-5.5703526 7.40543326-.0056158 12.98692064h-6.1296342s-3.0868974-.5787081-4.7999684-.7218622c-1.1754868-.0992433-2.3323395-.1261482-3.7630895-.1261482-5.884071 0-10.5416026 1.5488057-13.8424105 4.6012371-.8929105.8254205-1.6760579 1.7503382-2.34944211 2.7686615-.08704474.1248791-5.1438079 7.3247187-5.22804474 7.4508669-2.17688421 3.0991342-3.28396052 7.1188712-3.28396052 12.0051474 0 4.6921045.98710263 8.6011762 2.93425 11.615281.78467894 1.2127488 1.72328158 2.2864046 2.79589736 3.1915244-.91588421 2.3404682-1.10682105 3.4509279-1.10682105 4.3842216 0 1.1701072.07989737 2.2183811.24096842 3.1773106-.06841052.0992434-2.73463421 3.8976499-2.81861579 4.022529-1.82870526 2.524741-2.62333947 5.3190382-2.62333947 8.9047441 0 5.1644623.57485263 10.4494887 4.75453158 14.1230161 3.35926316 2.9516652 8.35067892 4.2111168 16.68680792 4.2111168 7.4376026 0 12.6556921-1.2807724 16.4215894-4.0283669 1.3794422-1.0056322 2.6062369-2.3176244 3.6390316-3.6225097 2.2595895-2.8595287 2.7045132-3.5077833 4.7986921-7.0366337.3167816-.5347974.5975711-1.1076676 1.0654685-2.1389356.3109105-.6807435.8245-1.9871517 1.0570447-3.1049721h4.2266474l3.7544105-4.9020131c1.5050316 1.9787757 3.4435 3.4042251 5.8955579 4.3375189 2.3379552.890652 4.1082052 1.3048852 7.68725 1.3048852 2.6718395 0 5.5090895-.4624588 8.4418079-1.3744317v.6226188h12.6242947l5.9468658-7.8224584z" fill="#212721"/><g fill="#fff"><path d="m46.0119873 67.1576129c-.740695-2.1192638-1.9492106-3.8036512-3.5917194-5.0046179-3.0259245-2.21256-7.2310476-2.6661461-12.6108589-2.6661461-2.3383511 0-4.7230583-.018457-6.3530384-.1468972-1.0333647-.0806544-1.5851274-.1936717-1.8652685-.2740733-.0238045-.2386763-.0363331-.5989663-.0363331-1.079353.076926-.430831.4397563-1.5597398.9030666-2.8555196 1.0571692.0763562 2.0920374.125659 2.488194.125659 5.9734197 0 10.0958535-1.169868 12.9761949-3.6820375 3.1098667-2.7141848 4.6208244-6.9061908 4.6208244-12.8207623 0-2.9457817-.6805574-6.4541216-.9606985-7.2679977-.0405929-.1200967-.0826892-.2386764-.1260384-.3559919h3.1715077v-8.3076557h-11.6025514c-.4425127-.127176-.9003103-.2275515-1.3681309-.3008737-2.1088259-.3291913-4.2539849-.521346-6.3866152-.521346-5.21318 0-9.2907612 1.3465997-12.1192339 3.9998513-3.042713 2.8555196-4.58449123 7.1463841-4.58449123 12.7542666 0 4.2499052.85270133 7.7468674 2.53730643 10.3932924.9466664 1.4864175 2.1381429 2.6972448 3.5553862 3.6170589-.0363332.0960774-.0784295.1906377-.1175189.286715-1.1929801 2.8752408-1.436788 4.0041495-1.436788 4.8180257 0 1.6616323.1721439 3.0378137.5322179 4.2076817.0588848.1936717.1232821.3800112.1904358.5610411-3.3915112 2.6858673-5.8278365 5.4834876-5.8278365 11.2749284 0 4.6329504.47608949 9.3506005 3.9375107 12.4377171 2.8690656 2.5586912 7.3415505 3.6494218 14.9534697 3.6494218 6.8178521 0 11.5366507-1.1402863 14.8427164-3.5902584 1.8106435-1.3395204 3.1702548-3.0843354 4.0452572-5.1810969.8191245-1.9738836 1.221046-4.231701 1.221046-6.9006283.0004994-2.9174643-.3257472-5.2630155-.9880127-7.1704035m-27.1020207-35.0935118c1.1145505-1.1162669 3.1687514-1.6588511 6.2801215-1.6588511 3.5215588 0 5.7997723.5509277 6.967695 1.6884328 1.1538906 1.1233464 1.6916211 3.239829 1.6916211 6.6604351 0 2.1222978-.1693876 5.1047406-1.6537845 6.5006432-1.1621595 1.0907306-3.3872515 1.5994348-7.0055316 1.5994348-3.2023283 0-5.2089202-.5001078-6.3167053-1.5726343-1.1411113-1.1021082-1.6956303-3.2383119-1.6956303-6.5276966 0-3.3328723.5642914-5.5198959 1.7322141-6.6897639m17.2722761 47.6740807c-1.7194347 1.2320655-4.8170233 1.8580852-9.2095753 1.8580852-4.7426031 0-7.6650408-.5410671-8.9281814-1.6517717-1.0208361-.8957948-1.4352846-2.6646292-1.4352846-6.1163339 0-2.4413758.4199611-3.472943 4.0943697-6.1517308 1.9477071.0677598 6.3472752.214657 8.9449698.214657 3.4559086 0 6.0057436.1696523 7.2155121 1.0060308.39766.2728091 1.4435535.9933891 1.4435535 5.4311508.0002505 3.4446254-1.1355988 4.6976761-2.1253638 5.4099126"/><path d="m86.2548673 23v36.6836722c-2.0158151 1.069832-6.160748 2.9200656-10.7093064 2.9200656-4.6058521 0-5.6122181-1.1319611-6.2499-2.291956-.803911-1.4678621-1.5505282-4.0590984-1.5505282-13.0210885v-24.2906933h-8.7451327v24.4558656c0 7.8752368.5125607 13.9313045 3.0149872 17.891653 1.3367684 2.1128931 3.1642592 3.5847961 5.5908935 4.4965274 2.0946902.7874731 4.6186982 1.155954 7.9396802 1.155954 4.0760777 0 7.910905-1.1531759 10.7093064-2.2934714v1.5441344h8.7451327v-47.250663z"/><path d="m47 2v62.7395108c0 2.9051981 2.4464941 5.2604892 5.4661458 5.2604892h3.5338542v-68z"/></g></g></svg>