<svg height="140" viewBox="0 0 400 140" width="400" xmlns="http://www.w3.org/2000/svg"><g transform="translate(33 44)"><path d="m277.592152 39.8733334-.663021-38.8733334h12.070869v49h-17.35553l-12.051367-40.20969697h-.263258l.672771 40.20969697h-12.002616v-49h18.116052l11.212842 38.8733334z"/><path d="m61.9813543 5.54538186-6.3861628 44.45461814h-12.5951915l8.6422965-49h20.7433757l8.6143278 49h-12.548577l-6.2090284-44.45461814z"/><path d="m117.642934 38.4602158 5.888889-37.4602158h19.439051l1.029126 49h-11.911183l-.314455-44.0529788h-.247753l-7.966199 44.0529788h-12.092233l-7.975728-44.0529788h-.257282l-.295397 44.0529788h-11.93977l1.0577132-49h19.4485798l5.87936 37.4602158z"/><path d="m22.4754544 36.3912638c.474084 1.1745382.3289562 2.6888185.106427 3.6012695-.4063578 1.6113494-1.4996537 3.2615268-4.711815 3.2615268-3.0380081 0-4.8762932-1.7472465-4.8762932-4.4069441v-4.6981519h-12.98409801l-.00967519 3.7565803c0 10.8232218 8.49481228 14.0944556 17.5991612 14.0944556 8.7560423 0 15.9640551-2.9994399 17.1057267-11.0950157.5901863-4.1933918.1451277-6.9404518-.0483758-7.9790929-2.041464-10.163151-20.41464-13.2014187-21.7788411-18.8799701-.2322044-.9706926-.1644781-2.0093336-.0483759-2.5626284.3386315-1.54340114 1.3932266-3.25182005 4.4215594-3.25182005 2.825154 0 4.498961 1.75695353 4.498961 4.40694415v2.99944h12.0649556v-3.4071308c0-10.58054886-9.4623309-12.2307262-16.3123617-12.2307262-8.61091453 0-15.64477391 2.8538361-16.9315735 10.7552735-.34830665 2.1840582-.39668257 4.1254434.10642704 6.5618817 2.11886547 9.9107709 19.30199376 12.7840209 21.79819146 19.0741086z"/><path d="m178.481077 36.4088253c.478736 1.1766923.322414 2.6671693.107471 3.5889118-.400575 1.627758-1.49483 3.2653215-4.718974 3.2653215-3.018971 0-4.865526-1.7650386-4.865526-4.392985l-.009771-4.7067698h-12.974737l-.01954 3.7458044c0 10.8255703 8.500016 14.0908918 17.59601 14.0908918 8.744269 0 15.954628-2.99076 17.097733-11.0903263.595979-4.2066753.175863-6.9424854-.03908-7.9720913-2.051728-10.1685837-20.409809-13.2083725-21.777627-18.8957193-.234483-.980577-.166093-2.0101829-.048851-2.5396945.351725-1.57872904 1.397129-3.25551577 4.42587-3.25551577 2.833339 0 4.484492 1.72581557 4.484492 4.39298507v3.0005657h12.095425v-3.412408c0-10.57062042-9.47703-12.2277956-16.335663-12.2277956-8.597718 0-15.641983 2.84367339-16.912101 10.7765416-.351725 2.176881-.390805 4.098812.117242 6.5502545 2.100578 9.9136338 19.286243 12.7965302 21.777627 19.0820292z"/><path d="m218.012995 43.1222588c3.355628 0 4.400031-2.3753153 4.632121-3.5926645.096704-.534446.125715-1.2470407.116044-1.890355v-36.6392393h12.233053v35.5109644c.029011.9105375-.058023 2.7810984-.106375 3.2462643-.860665 9.2439355-7.997418 12.2427713-16.884513 12.2427713-8.896765 0-16.043189-2.9988358-16.894184-12.2427713-.038681-.4651659-.125715-2.3456238-.106374-3.2462643v-35.5109644h12.223382v36.6293421c0 .6433146.019341 1.3658062.116045 1.890355.270771 1.2173492 1.286162 3.6025617 4.670801 3.6025617z"/><path d="m318.44432 42.2354402c3.359391 0 4.537965-2.2300936 4.751407-3.5253007.08352-.5550888.111359-1.2367767.102079-1.8502961v-7.0700784h-4.760685v-7.1090318h16.462879v13.0786712c-.009281.9154096-.027842 1.5873591-.167041 3.2136718-.770249 8.861944-8.10152 12.0269238-16.32368 12.0269238-8.240718 0-15.553428-3.1649798-16.342235-12.0269238-.129921-1.6263127-.148483-2.2982622-.167044-3.2136718l.009281-20.5090702c0-.8667176.102082-2.3956464.194883-3.213672 1.030088-9.10540384 8.064397-12.0366622 16.305115-12.0366622 8.231441 0 15.442071 2.91178155 16.295838 12.0366622.148482 1.5484056.102082 3.213672.102082 3.213672v1.6263127h-11.702195v-2.7267519c.009281.0097384-.018558-1.1588696-.148479-1.850296-.194883-1.0809624-1.08577-3.55451594-4.630766-3.55451594-3.387233 0-4.370921 2.33721594-4.621483 3.55451594-.139202.6427344-.194883 1.509452-.194883 2.2982624v22.2814589c-.009281.6135191.027839 1.2952071.120641 1.8502958.185602 1.2757305 1.354892 3.5058241 4.714286 3.5058241z"/></g></svg>