<svg height="51" viewBox="0 0 226 51" width="226" xmlns="http://www.w3.org/2000/svg" xmlns:xlink="http://www.w3.org/1999/xlink"><mask id="a" fill="#fff"><path d="m0 .00003668h225.786682v51.01527652h-225.786682z" fill="#fff" fill-rule="evenodd"/></mask><path d="m139.668089 15.9632844-.006662-.0040348s-.003332-.0025675-.007773-.0025675c-.15323-.0663899-.321264-.1008686-.483006-.1008686-.261675.0018339-.512616.0792277-.731727.2149418-.223182.1401157-.411944.3444205-.520389.6000766v.0062355l-5.109504 13.8586148-3.938075-9.2890829-.005922-.0040347c-.110666-.2596909-.30905-.4603277-.534083-.6000766-.227253-.1401157-.489298-.2171427-.765037-.2171427-.267967 0-.517798.0832625-.738389.2189766-.217261.1397489-.413424.3385518-.52372.5982427l-.002591.0040347-3.945847 9.2949516-5.136893-13.8523792h-.004072c-.089569-.2677604-.272038-.4764667-.488928-.6143816-.220591-.1397489-.478565-.2171427-.744681-.2189766-.169515 0-.341251.0344787-.503363.1008686h-.007773l-.005921.0066023c-.478935.2211774-.77133.6954433-.773181 1.2122574 0 .1624902.032571.3242468.095491.4845362h-.00148l6.318685 16.8146155v.0058687c.049226.1254439.118439.2494206.220962.3711966.073654.0869304.182469.1602894.294615.2211773.020727.019807.053298.0480502.102153.0784942.052927.0326447.12103.055386.190242.0671234.112516.0370463.262045.0909652.46228.0909652.255752 0 .492999-.0909652.705818-.2266793.198754-.1316794.376412-.3286483.474494-.5839376l.016285-.0121042 3.995814-9.4658781 4.000995 9.4273646h.004071c.09216.2512545.254273.4482235.441923.5879723.198755.1478184.421197.2391504.656963.2732623h.167664c.159892 0 .314972-.0300772.445625-.0806949.137314-.0524517.24798-.1217759.33977-.1903666.214669-.1624902.380483-.3855015.483006-.6330881v-.005502l6.278343-16.7397893c.061439-.1602894.09364-.320212.09364-.4819686-.001481-.5131462-.306829-1.0017171-.809822-1.214825zm-28.885262 9.5993915c0-1.9744574-.765038-3.7629498-1.981992-5.0540681-1.223616-1.2936859-2.880642-2.0844959-4.680535-2.0844959-1.800633 0-3.46136.79081-4.6827559 2.0844959-1.2195448 1.2911183-1.9845825 3.0796107-1.9845825 5.0540681 0 1.9726234.7650377 3.7442431 1.9845825 5.027292 1.2213959 1.2878172 2.8821229 2.0661561 4.6827559 2.0661561 1.799893 0 3.462841-.7783389 4.680535-2.0661561 1.216954-1.2830489 1.981992-3.0546686 1.981992-5.027292zm-.034791-6.8546647c1.689967 1.7760213 2.716679 4.2130072 2.720751 6.8546647-.004072 2.6416574-1.030784 5.0760757-2.720751 6.8524638-1.677013 1.7734537-4.019501 2.894746-6.623665 2.894746-2.584176 0-4.9303657-1.1212923-6.6136707-2.894746-1.6858958-1.7763881-2.7292636-4.2108064-2.7292636-6.8524638 0-2.6416575 1.0433678-5.0786434 2.7292636-6.8546647 1.683305-1.7719865 4.0294947-2.892912 6.6136707-2.892912 2.604164 0 4.946652 1.1209255 6.623665 2.892912zm-26.6042132-2.8584333c-2.0948782 0-4.0072874.8091498-5.4352097 2.1002681v-.7717366c-.0022207-.3550576-.1350937-.6859066-.3686393-.9290917-.2265133-.2391503-.5625821-.3994398-.9304813-.3994398-.3808533 0-.7243245.1518532-.9634219.397239-.2353962.2413511-.3764118.5762349-.3764118.9312925v17.205619l.0551478.0542856.0022207.0084363c.0144347.0568532.0507065.1195752.089569.1800963.182099.3183781.4807857.5597292.8509055.6668333l.0532973.0165058h.2886934c.1924624 0 .3864051-.0403475.5707248-.1258107.1535997-.0729922.296466-.1903666.4112031-.3403857l.0040714.0018339c.0140645-.0139382.018506-.0322779.0347912-.0462161.0062921-.0022008.012214-.0084363.0162853-.0146718.0714331-.0909652.1310224-.1841311.1680344-.2714283.0388626-.1034362.0632905-.2010037.0817965-.2758298l.0122139-.0487838v-10.3311474c.0388626-1.477817.6525213-2.8136843 1.6366699-3.7849574.9774865-.9705395 2.3173202-1.5709829 3.7985398-1.5709829 1.5060176 0 2.8495525.6004434 3.8233378 1.5709829.9778566.9676051 1.5711586 2.3012717 1.5711586 3.7710192v10.1448156c0 .3704629.1595217.7134162.4012099.9485318.2472401.2347488.5847894.3730305.9367733.3730305.3579059 0 .6936046-.1382817.938994-.3730305.2494608-.2351156.4008398-.5780689.4008398-.9485318v-10.1448156c0-4.3787985-3.6086683-7.9876943-8.0723134-7.9939299zm131.8714732 7.8314397c-.760966-3.0590701-3.471724-5.2385659-6.564445-5.2323438-3.171187 0-5.844562 2.1329262-6.672891 5.2323438zm2.930979 1.2533385v.1313126c0 .3671617-.165444.697644-.416755.9147866-.249831.2186098-.574796.3323163-.924929.336351h-15.012801c.382334 3.6305368 3.307021 6.3114413 6.799472 6.3393177h.885696c1.155514.0040347 2.281049-.3913702 3.271119-1.0460993.991921-.6484935 1.849119-1.5548439 2.452784-2.5525263.124361-.212741.303129-.3748644.496701-.4742659.198755-.1074709.411573-.1562546.626243-.1562546.237247 0 .472643.0608879.67917.1844978l.014434.0062356.016286.0121042c.376412.273629.612178.6914085.612178 1.1499023 0 .2329148-.06144.4702311-.190612.6848062l-.004071.0084363-.004071.0036679c-.839062 1.3222959-1.982732 2.5283178-3.340702 3.4023903-1.36056.8755396-2.937641 1.4308672-4.629459 1.4308672h-.900131c-2.634513-.0183398-5.015864-1.1212923-6.73248-2.8848425-1.712544-1.7576816-2.767386-4.1722929-2.767386-6.8256878 0-2.6985107 1.063725-5.1476008 2.790334-6.9195874 1.726609-1.7697858 4.125725-2.8646688 6.783556-2.8646688 2.536431 0 4.815259.9995163 6.503005 2.6357888 1.687747 1.6359056 2.790334 3.9082005 2.986867 6.4647615zm-61.581277-17.12712492c-.365678 0-.701377.15221992-.942325.39137025-.242058.23731635-.394918.57183337-.394918.93459361v24.85512836c0 .3627602.15286.6950765.394918.9305588.240948.2347488.576647.3910035.942325.3910035.759116 0 1.372774-.5920071 1.377216-1.3215623v-24.85512836c-.004442-.73175599-.6181-1.32596386-1.377216-1.32596386zm-87.4855933 17.28081192c-1.0803798-.5047098-2.3058465-.8777403-3.5287224-1.2790141-1.1251643-.3770652-2.266984-.697644-3.0812476-1.1190914-.4089824-.2171427-.7280257-.4460227-.9345525-.7035128-.2109683-.2571233-.3131214-.5190149-.3194135-.8759064.0022208-.4885709.1454571-.8817752.3867753-1.2305972.3660485-.5208489.9797071-.9265241 1.6507344-1.1884157.6628846-.2626252 1.3809171-.3866019 1.8942733-.3866019 1.5178614.0022007 2.4775821.5028759 3.2141205 1.021524.3638278.2618916.6710273.5270844.9615713.746061.1491583.1137064.2883234.2171426.4500657.2938028.1528595.0751929.3331079.1360809.5296415.1360809.1247304 0 .2498309-.0223745.3638278-.0707914.1206591-.048417.225403-.1177412.3257054-.2028377.0980818-.0909651.182099-.2006368.2413182-.3224128.0532972-.1258106.0777251-.2552893.0777251-.3829339 0-.2354824-.0758745-.456293-.1843196-.6635321-.2024556-.3645942-.5137264-.7130495-.9101247-1.0618715-.5892308-.5190149-1.3664824-1.0138213-2.2033233-1.386485-.8390617-.3730305-1.738823-.6268527-2.5960205-.6268527-1.9864331 0-3.6453101.4460227-4.8504203 1.2676435-.6280933.4295169-1.1803121.8997481-1.5707885 1.5486084-.3971386.6506943-.6181001 1.4536085-.6465994 2.497507-.0018879.046583-.0018879.093166-.0018879.1397489-.004034 1.0138214.3250025 1.8493803.8424301 2.5037426.7857643.9855781 1.9520119 1.5753844 3.0956822 1.9931639 1.1414495.4174127 2.2825289.6668333 3.0027821.9059836 1.0144985.334517 2.0926575.6972773 2.8780518 1.1777787.3912167.2453858.7080392.5091114.9230788.7988795.2087476.2982043.3268158.6059453.3312573.9954815v.02861c-.0022207.5633971-.1695149 1.0053851-.4459944 1.3842843-.417125.5637639-1.1107296.9771418-1.8476382 1.2386667-.7339476.2556561-1.4971347.3634938-1.9882837.3634938-1.7325309 0-2.8921163-.4141115-3.7330285-.8293235-.4215665-.2090731-.7631871-.4159455-1.0722372-.5905399-.1532296-.0828957-.296466-.1599226-.447845-.2208106-.1473077-.0605211-.3046086-.0997682-.4826362-.0997682-.1084451 0-.2268835.0187065-.3356987.060888-.1102957.0469497-.2105982.1118724-.2946154.1907334-.1165877.1122392-.2187408.2373163-.2901739.3814667-.0695826.1441505-.1047439.2960036-.1047439.4540922 0 .2596909.0980817.4970072.2376169.7115823.2187408.3099417.5400048.5879723.9408446.8656361.4130537.2736291.9064234.5435902 1.4749275.8091498 1.260258.5898063 2.8762012.8979141 4.1038886.9180878h.0037012c1.9090781 0 3.5575918-.4357524 4.9466515-1.449207v-.0025675h.0018506c1.3583398-1.0134546 2.2033233-2.5198815 2.2033233-4.2207099 0-.9345936-.2209615-1.7272375-.6073666-2.3757311-.5829387-.9833773-1.5304455-1.6318708-2.6041631-2.1431831zm107.6604553.4746328c0-1.993164-.759116-3.7790887-1.971999-5.0680063-1.211402-1.2856164-2.87435-2.0657893-4.693119-2.0701909-1.804334 0-3.460991.7845745-4.684607 2.0701909-1.214733 1.2889176-1.983842 3.0748423-1.983842 5.0680063 0 1.9909631.769109 3.7651504 1.983842 5.0437977 1.217324 1.2793809 2.880273 2.0496504 4.684607 2.0496504 1.82284 0 3.485788-.7702695 4.697191-2.0452488 1.208811-1.2830489 1.967927-3.0554022 1.967927-5.0481993zm2.274756-9.3782141c.24761.2369495.40084.5799028.40084.9503658v16.8534958c0 .3627602-.156931.6950765-.392327.9305588-.242059.2347488-.575166.3910035-.943436.3910035-.367899 0-.705818-.1562547-.943065-.3910035-.241318-.2354823-.396768-.5677986-.396768-.9305588v-1.6443419c-1.684046 1.8024305-4.048371 2.9659042-6.665118 2.9659042-2.604163 0-4.948502-1.1088212-6.628106-2.8848425-1.685156-1.767585-2.716309-4.2027369-2.716309-6.8623673 0-2.6596305 1.031153-5.0969831 2.716309-6.8664021 1.679604-1.7741873 4.023943-2.8811746 6.628106-2.8811746 2.614896 0 4.981072 1.1297286 6.665118 2.923356v-1.6036276c0-.370463.153599-.7134163.400839-.9503658.247611-.2332816.581089-.3693626.938994-.3693626.353835 0 .691754.136081.934923.3693626zm18.887955 1.7088978c.266116-.2615248.410833-.6085129.410833-.9529334 0-.3385517-.144717-.6774703-.413054-.9228561h.002221c-.002221-.0077027-.008513-.0077027-.008513-.0077027-.00148-.0062356-.005922-.0084363-.005922-.0084363h-.004071c-.257603-.2512546-.589231-.3891695-.930851-.3891695-.345692 0-.682871.1426832-.940845.3976058l-10.459586 10.1022673v-16.97893966c0-.73175599-.6181-1.32596386-1.377216-1.32596386-.365678 0-.701007.15221992-.940475.39137025-.237616.23731635-.397138.57183337-.397138.93459361v24.85512836c0 .3627602.159522.6950765.397138.9305588.239468.2347488.574797.3910035.940475.3910035.759116 0 1.377216-.5920071 1.377216-1.3215623v-4.1015015l3.405842-3.3712127 6.943448 8.3016708c.130653.1907334.30905.322046.484487.3913703.200605.075193.395288.1012354.568504.1012354.239468 0 .577387-.0506177.874223-.2816985l.016286-.0099035.017765-.0187066c.27796-.2714282.435631-.6323545.435631-1.0013503 0-.3103085-.115847-.6264858-.330887-.8795743v-.0040348l-7.067808-8.5151455 6.996005-6.7061126zm-46.85643-10.02707443h-.298686c-.039233 0-.077726.00403475-.118809.00550193-.036642-.00146718-.075874-.00550193-.114367-.00550193-.77133 0-1.520082.08693042-2.219979.31801125-.689533.2270461-1.325399.60227736-1.818398 1.17190997l-.001851-.00220077-.00185.00220077v.00183397c-.509655.56156312-.845354 1.23279794-1.04966 1.99536474-.204677.7662347-.288694 1.6296701-.296836 2.6108466v1.899998h-2.113385c-.733947.0040348-1.316967.5857716-1.316967 1.2892844-.00399.3788992.144798.7277213.386486.9793426.243539.2472198.576647.4093432.946767.4295169h2.097099v15.4582077l-.002221.0363127c0 .3627603.1536.6972773.40121.9367944.245019.2351156.589231.3748645.963792.3748645.71174-.003668 1.29653-.5795361 1.29875-1.3116589v-15.4945204h2.272536c.366419-.0201737.703968-.1723936.945656-.4177795.24724-.245019.398619-.5894395.398619-.9628368v-.0502509c-.008142-.6958101-.595523-1.2672767-1.32984-1.2672767h-2.286971v-1.8919285c.014435-.8370261.102153-1.4635119.229104-1.9194381.12251-.4584937.290545-.7464278.441553-.9246902.147678-.1580886.33977-.2901348.652892-.3957717.314972-.1008687.750603-.1657914 1.340204-.1657914h.069212c.034791 0 .071803-.0062355.104374-.0062355.041083 0 .079576.0062355.12288.0062355h.171735.126951c.754305 0 1.362411-.60411131 1.362411-1.35053909 0-.7456942-.608106-1.34980554-1.362411-1.34980554zm-134.7354601 18.57376433c.1084451-.3385518.1535997-.6873738.1454571-1.0317943-.0125841-.2494206-.0451547-.4984744-.1165878-.747895-.2150396-.7743042-.7243245-1.4660795-1.4875116-1.9021988l-10.8545041-6.2113062c-1.53229608-.8740724-3.48578852-.3543239-4.36519323 1.1620065-.88791746 1.5141297-.36419791 3.4478728 1.16809817 4.324146l6.06552371 3.4764829-6.06552371 3.4669461c-1.53229608.8777404-2.05416503 2.8118504-1.16809817 4.3322156.87940471 1.5122957 2.83289715 2.0294766 4.36519323 1.1554042l10.8545041-6.215341c.7324672-.4177795 1.2295381-1.0728753 1.4586423-1.808666zm2.9457837 5.8206695c-.6236519-.0528185-1.2721019.077027-1.8554107.4137448l-10.8626468 6.2072714c-1.52822476.8759064-2.05009371 2.8199198-1.16809817 4.3366171.88606686 1.5126625 2.83770871 2.0335114 4.36371277 1.1535702l6.0858803-3.4790504v6.9518653c0 1.751446 1.4297729 3.1705758 3.1993158 3.1705758 1.7610301 0 3.1952444-1.4191298 3.1952444-3.1705758v-12.4277476c0-1.6685503-1.3050425-3.0388964-2.9579976-3.1562708zm11.1243214-13.5064916c.6218014.0509845 1.2684007-.0806949 1.8517095-.4133779l10.8604261-6.2131402c1.5304455-.8762732 2.0497236-2.81221715 1.1699488-4.33294915-.8816255-1.51376289-2.8351179-2.03314458-4.3633427-1.15760496l-6.0818089 3.48308511v-6.95406602c0-1.7466777-1.4297729-3.16617428-3.1993158-3.16617428s-3.1956146 1.41949658-3.1956146 3.16617428v12.42774752c0 1.6667164 1.3013413 3.0392633 2.9579976 3.1603056zm-23.8423789-6.6265181 10.8626468 6.2131402c.5833088.332683 1.2317588.4643624 1.8554107.4133779 1.6529551-.1210423 2.9579976-1.4935892 2.9579976-3.1603056v-12.42774752c0-1.7466777-1.4342143-3.16617428-3.1952444-3.16617428-1.7695429 0-3.1993158 1.41949658-3.1993158 3.16617428v6.95406602l-6.0858803-3.48308511c-1.52600406-.87553962-3.47764591-.35615793-4.36371277 1.15760496-.88199554 1.520732-.36012659 3.45667595 1.16809817 4.33294915zm20.413959 13.3557388c0-.1804631-.1102957-.4320844-.2390974-.5655978l-1.3072632-1.2896512c-.1288017-.1272778-.3827039-.2329148-.565173-.2329148h-.0507064c-.182099 0-.4356311.105637-.5625822.2329148l-1.3072632 1.2896512c-.1310224.1335134-.2313249.3851347-.2313249.5655978v.0506177c0 .1782624.1003025.427683.2313249.5575284l1.3072632 1.2933191c.1288017.1276447.3804832.2329148.5625822.2329148h.0507064c.1824691 0 .4363713-.1052701.565173-.2329148l1.3072632-1.2933191c.1288017-.1298454.2390974-.379266.2390974-.5575284zm3.6086683 1.2405007-4.5147216 4.4686632c-.1291719.1313126-.3786326.2387836-.5666535.2387836h-.327556-.666956-.3331078c-.1824691 0-.4360012-.107471-.5670236-.2387836l-4.5125009-4.4686632c-.1291718-.1258107-.2335456-.3788992-.2335456-.5575284v-.3304823-.6609645-.3260808c0-.1826639.1043738-.4361192.2335456-.5637639l4.5125009-4.4682964c.1310224-.1316794.3845545-.2351156.5670236-.2351156h.3331078.666956.327556c.1839496 0 .4374816.1034362.5666535.2351156l4.5147216 4.4682964c.1288017.1276447.2331755.3811.2331755.5637639v.3260808.6609645.3304823c0 .1786292-.1043738.4317177-.2331755.5575284zm12.5318872 12.1577864-10.8604261-6.2072714c-.5833088-.3367178-1.2299081-.4665633-1.8517095-.4137448-1.6566563.1173744-2.9579976 1.4877205-2.9579976 3.1562708v12.4277476c0 1.751446 1.4260717 3.1705758 3.1956146 3.1705758s3.1993158-1.4191298 3.1993158-3.1705758v-6.9518653l6.0818089 3.4790504c1.5278547.8799412 3.4817172.3590923 4.3633427-1.1535702.8797748-1.5166973.3604967-3.4607107-1.1699488-4.3366171zm5.7424091-16.8487275-6.0658938 3.4764829 6.0658938 3.4669461c1.5319259.8777404 2.0556455 2.8118504 1.1699488 4.3322156-.8838462 1.5122957-2.8391892 2.0294766-4.3655634 1.1554042l-10.8626468-6.215341c-.7243245-.4177795-1.2273173-1.0728753-1.4504996-1.808666-.1062243-.3385518-.1554503-.6873738-.1432363-1.0317943.006292-.2494206.0429339-.4984744.1125164-.747895.2172603-.7743042.7265452-1.4657127 1.4812195-1.9021988l10.8626468-6.2113062c1.5263742-.8740724 3.4817172-.3543239 4.3655634 1.1620065.8856967 1.5141297.3619771 3.4478728-1.1699488 4.324146zm176.1514993-6.2003023c0 1.7426429-1.176981 3.196985-3.143058 3.196985-1.952752 0-3.115669-1.4682803-3.115669-3.196985 0-1.742643 1.162917-3.1973519 3.115669-3.1973519 1.966077 0 3.143058 1.4547089 3.143058 3.1973519zm-.623282 0c0-1.4818517-.996733-2.6075455-2.519776-2.6075455-1.495654 0-2.492757 1.0703077-2.492757 2.6075455 0 1.4679135.997103 2.6068119 2.492757 2.6068119 1.523043 0 2.519776-1.1249602 2.519776-2.6068119zm-3.752645-1.4411375h1.343165c.733947 0 1.218434.3979726 1.218434 1.0152885 0 .3844011-.193572.6723352-.484487.8509644l.526311.7544972v.1511196h-.761707l-.512246-.7273545h-.595152v.7273545h-.734318zm1.32947.672702h-.595152v.7269876h.595152c.27685 0 .457098-.1236099.457098-.3565247 0-.2472198-.166554-.3704629-.457098-.3704629z" fill="#29b5e8" fill-rule="evenodd" mask="url(#a)"/></svg>