<svg height="140" viewBox="0 0 400 140" width="400" xmlns="http://www.w3.org/2000/svg"><g fill="#f4811f" transform="translate(25 30)"><path d="m35.1164583 76.885c-9.8794583 0-19.7589166.00375-29.63837497-.0070833-.870125-.00125-1.7473625-.0404167-2.60795-.1558334-1.62951666-.2179166-2.53771125-1.1654166-2.70792333-2.7841666-.09165292-.8654167-.15354838-1.7391667-.15473867-2.6091667-.00952236-11.4270833-.00952236-22.85375-.00238058-34.2805833.00119029-.9903334.11664925-1.9830417.09403342-2.9721667-.04285084-1.9818333.901055-3.476875 2.274655-4.757625 4.19580416-3.9137083 8.41659583-7.8012083 12.61001253-11.7184583 4.7064166-4.3981667 9.3890416-8.8212917 14.0919166-13.22300003 1.2379167-1.15816667 2.5007917-2.28895 3.7649167-3.41854167 1.422375-1.271235 3.151875-1.27956708 4.5564583.0261875 6.0216667 5.59202083 12.0241667 11.2054375 18.0425 16.8010208 3.9970834 3.716125 8.02625 7.3977084 12.0029167 11.13525.7641667.71775 1.4270833 1.5735417 2.0020833 2.4532084.8379167 1.2819166.77125 2.8043333.795 4.254125.05625 3.411375.0204167 6.8239166.0204167 10.2364166 0 8.3716667.0083333 16.7429167-.0095833 25.1154167-.0025 1.0654167-.1033334 2.1329167-.225 3.1933333-.1545834 1.3558334-1.0591667 2.3116667-2.4270834 2.52-.8975.1370834-1.815.1845834-2.7245833.1858334-9.92.0104166-19.83875.0058333-29.7572917.0058333zm.1261667-15.2216667c5.9502917 0 11.9007083.00375 17.8507083-.0008333 2.1270834-.00125 2.1283334-.0108333 2.1295834-2.0654167 0-6.70375-.0120834-13.4075.0142077-20.1111666.0037089-.8617917-.2487911-1.4712084-.8912911-2.0651667-6.1075-5.639625-12.18625-11.3114167-18.2735833-16.9736667-.882-.8200833-1.04625-.8153333-1.941375.0238334-5.774125 5.4134583-11.5292083 10.8471666-17.3390417 16.2201666-1.1295833 1.0450834-1.647375 2.1365834-1.6283333 3.7042084.077375 6.3455416.0321667 12.6934583.0321667 19.040125 0 .3175-.0059584.6354166.0190416.9508333.0749584.95125.29875 1.1854167 1.226 1.2558333.4344584.0333334.8725.0204167 1.308125.0204167 5.83125.0024624 11.6625417.0024624 17.4937917.0008333z"/><path d="m275.407083 27.60875c.385417-.4797083.756667-.9712917 1.156667-1.4390833 1.711667-1.9997084 3.932917-3.197125 6.346667-4.15175 3.505416-1.3842917 7.164583-1.41525 10.765-.9712917 4.545833.560625 8.505 2.579375 11.412916 6.2359583 1.3425 1.6890417 2.34125 3.6149584 3.067084 5.680125 1.191666 3.3899584 1.733333 6.8584584 1.72024 10.450625-.036907 10.4745834-.013157 20.9495834-.013157 31.4241667 0 .1583333.00125.3175-.00125.4758333-.015417 1.4391667-.087917 1.5475-1.562917 1.5545834-4.0075.0204166-8.014166.0204166-12.022083.0025-1.53875-.0058334-1.64375-.1416667-1.64375-1.74625-.002083-9.5616667 0-19.1245834-.003333-28.68625 0-1.1104167.059166-2.2316667-.069167-3.3304167-.333333-2.8327917-1.310417-5.34075-3.743333-7.1071667-1.090417-.79275-2.340417-1.189125-3.584167-1.383125-2.79125-.4356666-5.526667-.1809166-7.9275 1.5462084-1.431667 1.0295833-2.475833 2.3579583-3.198333 3.9850833-.955834 2.1485833-1.135417 4.379-1.123334 6.69525.0475 9.32375.02 18.64875.02 27.9720833 0 .3179167-.0275.6370834.0025.9525.07625.79-.35 1.06625-1.055833 1.0816667-.317917.0070833-.634583.02875-.95125.02875-3.729167.0025-7.459583.0025-11.18875 0-.31625 0-.634167-.0179167-.950833-.02625-.719167-.0191667-1.107084-.35-1.07125-1.1070833.016666-.3558334-.005-.7141667-.005-1.07125 0-16.8225 0-33.646-.000834-50.4685 0-2.434125.02375-2.0960834 2.155417-2.1067917 3.809167-.017875 7.617917-.0095417 11.426667-.0024167 1.616666.0035834 1.632083.0262084 1.636666 1.6866667.005 1.1831667.00125 2.365125.00125 3.5482917.135834.0940416.270417.1856666.405.2773333z"/><path d="m121.2525 58.1525c1.084167-2.9566667 2.081667-5.5895833 3.015-8.245.830833-2.3654167 1.559167-4.765 2.39-7.13.828333-2.360375 1.749583-4.688625 2.5875-7.0477917.665417-1.8735 1.239167-3.778 1.9-5.6527083.637917-1.806875 1.334167-3.5922917 2.009167-5.384875.234583-.6213333.5475-1.2224583.705833-1.861625.169167-.6796667.6225-.7296667 1.161667-.7296667.952083 0 1.904583-.00475 2.855416-.00475 3.49125-.0013637 6.98125-.0013637 10.4725.0011667.357084 0 .71625-.0130833 1.07.02025.734167.0690417.87.2570833.627084.8962917-.545 1.4283333-1.105834 2.8495833-1.6675 4.2707916-.836667 2.1139584-1.675834 4.22675-2.522084 6.3383334-.875 2.1841666-1.76875 4.36125-2.635416 6.549-.837917 2.1164166-1.640417 4.2480833-2.477084 6.3655833-1.037916 2.6258333-2.105416 5.23875-3.14 7.8654167-.830833 2.1104166-1.624583 4.23625-2.449583 6.3504166-.7975 2.045-1.611667 4.08375-2.41875 6.1241667-.689167 1.7425-1.379583 3.485-2.072083 5.2266667-.563334 1.415-1.116667 2.83375-1.714167 4.235-.087917.2058333-.379583.3904166-.612917.4545833-.337083.0916667-.707083.0833333-1.062916.0845833-3.96625.0045834-7.933334.0116667-11.899584-.0025-1.625833-.0058333-1.69125-.12-2.284166-1.6641666-.825834-2.1529167-1.727084-4.2779167-2.575834-6.4225-.8475-2.1425-1.654583-4.3020834-2.504166-6.4433334-.995417-2.5079166-2.02125-5.00375-3.024584-7.5083333-.842916-2.1020833-1.67-4.21-2.505833-6.3145833-.649583-1.6366667-1.303333-3.2720834-1.952917-4.90875-.8512497-2.1448334-1.7012497-4.2909167-2.550833-6.4370417-.8083333-2.0425417-1.6129167-4.0862917-2.4270833-6.1264583-.8725-2.183-1.7570834-4.3624167-2.6308334-6.54425-.2045833-.5094584-.4308333-1.0153334-.5745833-1.542625-.1404167-.5142084.0675-.849875.6570833-.8510417.3570834 0 .7141667-.0142917 1.07-.0142917 4.1254167-.0012083 8.2499997-.0012083 12.3754167-.0012083 2.198333 0 2.159167.013125 2.825833 2.0604167.690417 2.1235 1.481667 4.2124583 2.202084 6.3264166.807083 2.3687084 1.555416 4.7564167 2.379166 7.118.837917 2.4055834 1.754584 4.78375 2.602084 7.1870834.6525 1.8483333 1.2425 3.7195833 1.87375 5.57625.428333 1.2620833.877083 2.5154166 1.32 3.7720833.29875.8475.589166 1.69875.910416 2.5379167.165417.4270833.389167.8320833.692917 1.4770833z"/><path d="m203.00125 57.9404167c.37125-.92125.76875-1.8341667 1.109167-2.7670834.537083-1.47 1.044166-2.9520833 1.5475-4.4341666.629583-1.8554167 1.22375-3.7229167 1.87-5.5716667.47625-1.3604167 1.030833-2.69375 1.516666-4.05175.4475-1.253375.837917-2.527 1.273334-3.785125.487083-1.403375 1.005833-2.796 1.495-4.1982083.437083-1.251.841666-2.513875 1.280833-3.764875.687917-1.956875 1.56625-3.8672917 2.032917-5.8753334.335833-1.4462083 1.142916-1.4092916 2.216666-1.4033333 4.402917.025 8.806667.0059583 13.209584.0142917 1.335833.002375 1.52375.360625 1.02375 1.5652083-.915417 2.208-1.76625 4.443375-2.652084 6.6645-.799583 2.0068333-1.611666 4.0100833-2.4175 6.01575-.861666 2.1460833-1.72 4.293375-2.5875 6.4372083-.867916 2.145-1.755833 4.2804167-2.61625 6.4275-.830833 2.0758334-1.629583 4.16625-2.455833 6.2441667-1.056667 2.6579167-2.14125 5.3041667-3.19 7.9654167-.830833 2.1095833-1.61375 4.2375-2.4375 6.3491666-.783333 2.0070834-1.56875 4.01375-2.398333 6.0016667-.3.71875-.805834 1.1341667-1.717917 1.1233333-4.085-.0508333-8.17375-.0904166-12.25625.0120834-1.55.0391666-1.76875-1.0295834-2.1675-2.0033334-1.334583-3.2541666-2.6425-6.5191666-3.932917-9.79125-1.01875-2.5841666-1.974583-5.1933333-3.000833-7.775-1.011667-2.5425-2.095833-5.0566666-3.11-7.59875-.840417-2.1058333-1.609167-4.24-2.437917-6.3504166-.614166-1.56625-1.285416-3.11025-1.906666-4.6742917-.869167-2.183-1.707084-4.379125-2.573334-6.5632917-.634583-1.6021666-1.29625-3.19475-1.939166-4.7945416-.59875-1.4914167-1.19625-2.9840417-1.773334-4.4850417-.15375-.3999167-.033333-.7117917.459167-.7439167.316667-.02025.634583-.0285833.95125-.0285833 4.363333-.0011667 8.727083-.0035417 13.090833 0 1.56875.0012083 1.702084.1464167 2.22 1.6842917.686667 2.0401666 1.447084 4.0553333 2.148334 6.0895416.65 1.8854584 1.235416 3.7935 1.899583 5.6741667.837083 2.365125 1.74375 4.7052083 2.585417 7.0679167.658333 1.84875 1.24375 3.7233333 1.89625 5.5754166.82 2.3295834 1.678333 4.6470834 2.515 6.9716667.319166.8854167.6225 1.7783333.933333 2.6675.1.0354167.19875.0725.29625.1091667z"/><path d="m321.537083 50.5275c0-3.9670833.00375-7.9345833-.002083-11.9017083-.00125-1.3069167-.019167-1.3271667-1.332083-1.333125-2.181667-.0107084-4.36375.0059583-6.545417-.0095-1.067917-.0071667-1.145-.077375-1.1475-1.1653334-.012917-4.2445833-.012917-8.4891666-.00125-12.7349583.00375-1.148625.137083-1.2700417 1.334167-1.28075 2.142916-.017875 4.285416.002375 6.426666-.0155 1.234167-.0095 1.261667-.0452083 1.264167-1.287875.005833-4.363625 0-8.72725.004583-13.09208333.00125-1.42954167.008334-1.43908334 1.459167-1.44145834 3.9675-.00475 7.934583-.00595833 11.902083 0 1.47.002375 1.552084.077375 1.555417 1.55216667.010833 3.96725.005 7.9345.00625 11.90175 0 .357125-.010833.715375.008333 1.0712917.060417 1.123625.21875 1.2890833 1.3675 1.2962083 2.499584.0142917 4.997917.0059583 7.4975.0071667.833334 0 1.666667-.0012084 2.5 0 2.120834.0035416 2.159167.0357083 2.1625 2.2187083.005834 3.3328333.0025 6.6644583.00125 9.9972917 0 .5154166.009584 1.032-.014166 1.547375-.060834 1.2950416-.189167 1.426-1.467917 1.428375-3.490833.007125-6.982083 0-10.473333.00475-1.4225.002375-1.574584.1357083-1.577084 1.56525-.009583 6.029875-.02375 12.059875.016667 18.0902916.008333 1.2616667.145417 2.5425.395417 3.7791667.282916 1.4033333 1.277083 2.29 2.575416 2.8504167 1.155834.49875 2.3725.5679166 3.604584.5583333 1.229583-.0095833 2.46125.0191667 3.68875-.05.661666-.0379167 1.31375-.245 1.969583-.3783333.840417-.1704167 1.092917-.0120834 1.2275.82.05.3108333.050833.6320833.050833.95.00375 2.7766666.010834 5.55375-.002083 8.3308333-.007083 1.6283333-.113333 1.765-1.652083 2.2970833-1.909167.6608334-3.86125 1.10375-5.895834 1.1525-.509166.0116667-1.014166.195-1.523333.2070834-1.258333.0283333-2.5175.02125-3.775833-.0095834-.47-.0120833-.935417-.1691666-1.405834-.1975-2.96-.1775-5.540416-1.2808333-7.945-2.99-2.29375-1.6320833-3.91125-3.7804166-4.877916-6.3375-.675-1.78625-1.185417-3.7266666-1.278334-5.6216666-.192916-3.9170834-.058333-7.85125-.058333-11.7791667-.012917 0-.028333 0-.042917 0z"/><path d="m251.325833 49.4483333c0 8.3704167 0 16.7416667-.000833 25.1116667 0 .4358333-.005.8725-.025 1.3083333-.024167.5154167-.322917.79625-.819167.8545834-.314166.0360447-.633333.0333333-.95.0333333-3.8875.0027114-7.775.0045833-11.663333 0-1.72375-.0025-1.730833-.0120833-1.730833-1.7141667-.00125-15.47125-.00125-30.9429166-.00125-46.4143333 0-1.6664167-.008334-3.3328333.004583-4.9980417.009583-1.3224166.12625-1.4569166 1.42125-1.4605 4.125833-.0130833 8.25125-.0119166 12.376667 0 1.308333.0035834 1.383333.0892917 1.384583 1.45575.005833 7.1405834.003333 14.2811667.003333 21.4217084z"/><path d="m154.654167 49.4408333c0-8.206875 0-16.4127916 0-24.619875 0-.316625-.00125-.6344583 0-.9510416.007083-1.6580834.05-1.7069167 1.765-1.7116667 2.577083-.007125 5.154166-.002375 7.73125-.0012083 1.387916.0012083 2.775833-.0178334 4.1625.0155.99125.0237916 1.145.2106666 1.186666 1.2140833.011667.2773333.003334.5547083.003334.8320417v50.6671666c0 1.8641667-.00125 1.8654167-1.895 1.8666667-3.765834.0010973-7.533334.0020833-11.299167-.00125-1.65125-.00125-1.655833-.0070833-1.655833-1.61875 0-8.5641667.00125-17.1283333.00125-25.6916667z"/><path d="m252.62875 9.11920833c.336667 4.96233337-4.234167 9.12362497-8.957083 8.97483337-5.217084-.1642917-8.939167-3.8160834-9.01875-9.06650003-.072917-4.767125 3.735-8.97126334 9.272083-9.02720714 4.320833-.04285078 9.092917 4.03629464 8.70375 9.1188738z"/><path d="m162.13625.05457208c4.850417-.33328291 9.110417 4.30767792 8.992917 9.09742792-.12625 5.1468333-4.084167 8.959375-9.09625 8.9380481-4.895834-.0203398-8.90375-3.8840481-9.019167-9.0522981-.102083-4.56004167 4.172083-9.28194208 9.1225-8.98317792z"/><path d="m83.4920833 76.74625c-4.9554166.3320833-9.1595833-4.2645833-9.0641666-8.9091667.1070833-5.2254166 3.93375-9.0429166 9.1058333-9.0904166 4.83125-.0441667 8.86625 3.6029166 8.9604167 9.1879166.07625 4.53375-3.9254167 9.12625-9.0020834 8.8116667z"/></g></svg>