<?xml version="1.0" encoding="UTF-8"?>
<svg width="400px" height="140px" viewBox="0 0 400 140" version="1.1" xmlns="http://www.w3.org/2000/svg" xmlns:xlink="http://www.w3.org/1999/xlink">
    <title>Artboard</title>
    <g id="Artboard" stroke="none" stroke-width="1" fill="none" fill-rule="evenodd">
        <g id="expel" transform="translate(48.000000, 22.000000)" fill-rule="nonzero">
            <g id="b98b3951-c4a9-468c-bc36-474d00def6ce">
                <path d="M29.7051133,21.005782 C33.1273519,21.0634887 36.4321935,22.2604509 39.0949127,24.406621 L43.3217851,27.80746 C46.641252,30.611292 48.5694855,34.7210446 48.601719,39.0608801 L48.601719,50.7375806 C48.601719,53.5545846 46.3785889,55.6563907 43.0877714,55.6563907 L9.85782685,55.6563907 L9.85782685,58.2398607 C9.87177036,59.6515989 10.5151031,60.983778 11.6129296,61.8742337 L15.8398019,65.3918397 C16.6875546,66.1176579 17.7807759,66.4934981 18.8966058,66.4427428 L43.0877714,66.4427428 C46.4955958,66.4427428 48.601719,68.5445489 48.601719,71.3615528 C48.601719,74.1785568 46.3785889,76.2803629 43.0877714,76.2803629 L18.7795989,76.2803629 C15.3936032,76.2458635 12.1213959,75.0560677 9.50680631,72.9087157 L5.27993397,69.3911096 C1.95932472,66.6383888 0.02686289,62.5623611 0,58.2544566 L0,39.0462843 C0.0322334884,34.7064487 1.96046707,30.5966961 5.27993397,27.7928642 L9.50680631,24.406621 C12.1174403,22.2487544 15.3900395,21.0485137 18.7795989,21.005782 L29.7051133,21.005782 Z M15.8544278,31.9089011 L11.7006847,35.4119112 C10.6028582,36.302367 9.95952549,37.634546 9.94558199,39.0462843 L9.94558199,45.7311953 L38.7438922,45.7311953 L38.7438922,39.0462843 C38.7046496,37.6405632 38.0661373,36.3183661 36.9887895,35.4119112 L32.7619171,31.8943052 C31.8916333,31.1935325 30.8218446,30.7848834 29.7051133,30.7266352 L18.8966058,30.7266352 C17.7843134,30.7849487 16.7192032,31.1937668 15.8544278,31.8943052 L15.8544278,31.9089011 Z" id="Shape" fill="#231F20"></path>
                <path d="M124.436782,9.8837248 L64.4707726,9.8837248 C63.2106612,9.8837248 62.1891391,10.903153 62.1891391,12.1606814 L62.1891391,12.1606814 L62.1891391,84.3518821 C62.1891391,85.6094105 63.2106612,86.6288387 64.4707726,86.6288387 L124.436782,86.6288387 C125.696893,86.6288387 126.718415,85.6094105 126.718415,84.3518821 L126.718415,12.1606814 C126.718415,10.903153 125.696893,9.8837248 124.436782,9.8837248 Z M113.569771,76.1927877 C111.923196,76.1325774 110.382655,75.3665459 109.342898,74.0909816 L94.2051376,55.6855824 L78.9796217,74.0763857 C77.9732178,75.3928674 76.4119716,76.1691948 74.7527493,76.1781918 C73.5151753,76.2175151 72.3126929,75.7642959 71.4101494,74.9183558 C70.5076058,74.0724158 69.9790307,72.9031415 69.9408427,71.6680662 L69.9408427,71.4929157 C69.9583278,70.1420631 70.4798107,68.8462326 71.4034283,67.8585427 L87.8575162,48.0665354 L72.354109,29.4421981 C71.3740895,28.3493912 70.8507106,26.9234957 70.8915234,25.4575241 C71.1569238,23.0405481 73.1520862,21.1797325 75.5864231,21.0787614 C77.2959786,21.0646512 78.9159059,21.8406224 79.9741799,23.1805675 L94.2928927,40.4037007 L108.231333,23.1075881 C109.251791,21.8081889 110.804186,21.0362629 112.458206,21.005782 C115.109105,21.021719 117.254143,23.1623594 117.270112,25.8078251 C117.227433,27.1535264 116.709378,28.4408382 115.807527,29.4421981 L100.65514,47.9497684 L117.006847,67.8731386 C117.942389,68.8058071 118.468475,70.0710765 118.469797,71.3907446 C118.485044,72.6488694 117.999153,73.8616438 117.118668,74.7622225 C116.238183,75.6628012 115.035244,76.1773983 113.774533,76.1927877 L113.569771,76.1927877 Z" id="Shape" fill="#00A85D"></path>
                <path d="M149.593254,26.3916601 L151.948017,24.0417241 C154.795086,20.8597988 158.834267,18.9949125 163.107545,18.88938 L165.272171,18.88938 C168.718091,18.9295322 172.040801,20.1742857 174.661971,22.4069861 L182.998709,29.3254311 C186.292175,32.0990804 188.218351,36.1618505 188.278643,40.4620842 L188.278643,56.7364855 C188.218351,61.0367192 186.292175,65.0994892 182.998709,67.8731386 L174.720474,74.8207754 C172.075252,77.0461271 168.731851,78.2753812 165.272171,78.2945938 L163.049041,78.2945938 C158.775763,78.1890613 154.736582,76.324175 151.889513,73.1422497 L149.53475,70.7923137 L149.53475,91.4162859 C149.53475,94.8171249 147.414001,96.918931 144.605837,96.918931 C143.20283,96.8925186 141.874211,96.2842553 140.939014,95.2401997 C140.003816,94.1961441 139.546517,92.8106059 139.676923,91.4162859 L139.676923,24.406621 C139.676923,20.889015 141.797673,18.9039759 144.605837,18.9039759 C146.008844,18.9303884 147.337463,19.5386517 148.27266,20.5827073 C149.207857,21.6267628 149.665157,23.0123011 149.53475,24.406621 L149.593254,26.3916601 Z M159.685094,30.2595671 L150.909581,38.9295173 C149.97651,39.8158088 149.447948,41.0448342 149.446995,42.3303563 L149.446995,54.8682134 C149.447948,56.1537355 149.97651,57.3827609 150.909581,58.2690524 L159.685094,66.9390025 C160.561596,67.8175594 161.735101,68.3380479 162.975912,68.3985901 L165.272171,68.3985901 C166.577566,68.3189149 167.818566,67.8050327 168.797003,66.9390025 L176.972856,60.1373245 C177.876507,59.2309063 178.399602,58.0145917 178.435442,56.7364855 L178.435442,40.4474883 C178.411887,39.1151711 177.890233,37.8397382 176.972856,36.8714988 L168.753125,29.9530538 C167.756727,29.1542017 166.505598,28.7397406 165.228294,28.7853837 L163.005164,28.7853837 C161.743573,28.8054705 160.544676,29.337807 159.685094,30.2595671 Z" id="Shape" fill="#231F20"></path>
                <path d="M229.903828,21.005782 C233.326067,21.0634887 236.630909,22.2604509 239.293628,24.406621 L243.5205,27.80746 C246.839967,30.611292 248.768201,34.7210446 248.800434,39.0608801 L248.800434,50.7375806 C248.800434,53.5545846 246.577304,55.6563907 243.286486,55.6563907 L210.071168,55.6563907 L210.071168,58.2398607 C210.085111,59.6515989 210.728444,60.983778 211.82627,61.8742337 L216.053143,65.3918397 C216.900895,66.1176579 217.994117,66.4934981 219.109947,66.4427428 L243.301112,66.4427428 C246.708937,66.4427428 248.81506,68.5445489 248.81506,71.3615528 C248.81506,74.1785568 246.577304,76.2803629 243.286486,76.2803629 L218.99294,76.2803629 C215.60338,76.2376312 212.330781,75.0373905 209.720147,72.8795239 L205.493275,69.3619179 C202.172666,66.609197 200.240204,62.5331693 200.213341,58.2252648 L200.213341,39.0462843 C200.245574,34.7064487 202.173808,30.5966961 205.493275,27.7928642 L209.720147,24.3920252 C212.330781,22.2341585 215.60338,21.0339179 218.99294,20.9911861 L229.903828,21.005782 Z M216.053143,31.9089011 L211.82627,35.4119112 C210.728444,36.302367 210.085111,37.634546 210.071168,39.0462843 L210.071168,45.7311953 L238.957233,45.7311953 L238.957233,39.0462843 C238.91799,37.6405632 238.279478,36.3183661 237.20213,35.4119112 L232.975258,31.8943052 C232.104974,31.1935325 231.035186,30.7848834 229.918454,30.7266352 L219.124573,30.7266352 C218.00042,30.7705059 216.921611,31.1806385 216.053143,31.8943052 L216.053143,31.9089011 Z" id="Shape" fill="#231F20"></path>
                <path d="M280.670174,0.381809783 C284.077998,0.381809783 286.184122,2.48361587 286.184122,5.30061986 L286.184122,66.4573386 L295.222901,66.4573386 C298.630725,66.4573386 300.736848,68.5591447 300.736848,71.3761487 C300.736848,74.1931527 298.513718,76.2803629 295.222901,76.2803629 L267.27289,76.2803629 C263.865066,76.2803629 261.758942,74.1785568 261.758942,71.3615528 C261.785409,69.9614218 262.394922,68.6355265 263.441122,67.7022461 C264.487322,66.7689656 265.875706,66.3126033 267.27289,66.4427428 L276.194662,66.4427428 L276.194662,10.2194299 L267.27289,10.2194299 C263.748059,10.2194299 261.758942,8.10302798 261.758942,5.30061986 C261.789738,3.90197665 262.400522,2.57874597 263.445677,1.64639807 C264.490831,0.714050174 265.876704,0.256129959 267.27289,0.381809783 L280.670174,0.381809783 Z" id="Path" fill="#231F20"></path>
            </g>
            <path d="M294.512312,2.00018492 C297.556576,2.00018492 300.024441,4.50149093 300.024441,7.58700826 C300.024441,10.6725256 297.556576,13.1738316 294.512312,13.1738316 C293.046769,13.1859579 291.637775,12.6012427 290.601446,11.5508699 C289.565116,10.5004971 288.988218,9.07241022 289.000182,7.58700826 C288.988218,6.10160631 289.565116,4.67351942 290.601446,3.62314662 C291.637775,2.57277383 293.046769,1.98805858 294.512312,2.00018492 L294.512312,2.00018492 Z M295.305137,13.7940996 C296.750166,13.7807578 298.129016,13.1896982 299.131014,12.1540942 C300.133012,11.1184903 300.673865,9.7254614 300.631713,8.28887542 C300.631713,5.36315806 298.246924,2.99139551 295.305137,2.99139551 C292.363351,2.99139551 289.978562,5.36315806 289.978562,8.28887542 C289.93157,9.72679954 290.470823,11.1225921 291.473856,12.1592668 C292.47689,13.1959414 293.858578,13.7855169 295.305137,13.7940996 Z M292.408219,4.38810135 L297.770051,4.38810135 C301.03946,4.38810135 302.739553,5.40628726 302.739553,7.46749287 C302.804322,8.2479195 302.433591,9.0130054 301.718185,9.57531558 C301.002778,10.1376258 300.00879,10.4452103 298.979732,10.4227154 L303.066494,15.1908055 L300.745214,15.1908055 L297.050781,10.4227154 L294.7295,10.4227154 L294.7295,15.0666365 L292.57169,15.0666365 L292.408219,4.38810135 Z M293.512713,16 L297.38845,16 C300.751221,16 304,16 304,10.3719688 C304,4.7439375 301.036202,5.20651541 298.300388,5.20651541 L293.341725,5.20651541 L293.512713,16 Z" id="Shape" fill="#231F20"></path>
        </g>
        <g id="expel-io-logo-dark-registered" transform="translate(69.000000, 116.000000)" fill-rule="nonzero">
            <g id="b98b3951-c4a9-468c-bc36-474d00def6ce">
                <path d="M0.282357573,0.210343185 C0.314887158,0.210892834 0.346300843,0.222293751 0.371610927,0.242735757 L0.411788839,0.27512833 C0.443341542,0.301834483 0.461670082,0.340979371 0.461976473,0.382315769 L0.461976473,0.493534902 C0.461976473,0.520366518 0.440844838,0.540385962 0.409564457,0.540385962 L0.0937021194,0.540385962 L0.0937021194,0.564993195 C0.0938346573,0.578439827 0.0999497617,0.591128669 0.110384989,0.59961015 L0.150562901,0.633114913 C0.158621089,0.640028242 0.169012543,0.643608073 0.179618899,0.643124635 L0.409564457,0.643124635 C0.441957029,0.643124635 0.461976473,0.663144079 0.461976473,0.689975695 C0.461976473,0.716807311 0.440844838,0.736826755 0.409564457,0.736826755 L0.178506708,0.736826755 C0.146321625,0.736498152 0.115218141,0.725165494 0.0903655454,0.70471223 L0.0501876337,0.671207466 C0.0186240722,0.644988139 0.000255341239,0.606164478 0,0.565132219 L0,0.382176745 C0.000306390671,0.340840347 0.0186349306,0.301695459 0.0501876337,0.274989306 L0.0903655454,0.242735757 C0.115180542,0.222182344 0.146287751,0.210750199 0.178506708,0.210343185 L0.282357573,0.210343185 Z M0.150701925,0.31419405 L0.111219133,0.34755979 C0.100783905,0.356041271 0.0946688008,0.368730112 0.0945362629,0.382176745 L0.0945362629,0.445849699 L0.368274353,0.445849699 L0.368274353,0.382176745 C0.367901339,0.368787425 0.361832055,0.356193661 0.351591484,0.34755979 L0.311413572,0.314055026 C0.303141217,0.307380253 0.292972499,0.30348792 0.282357573,0.302933113 L0.179618899,0.302933113 C0.169046168,0.303488542 0.15892192,0.307382484 0.150701925,0.314055026 L0.150701925,0.31419405 Z" id="Shape" fill="#231F20"></path>
                <path d="M1.18281548,0.104406961 L0.612817422,0.104406961 C0.600839619,0.104406961 0.591129691,0.114116889 0.591129691,0.126094692 L0.591129691,0.126094692 L0.591129691,0.81370698 C0.591129691,0.825684783 0.600839619,0.835394711 0.612817422,0.835394711 L1.18281548,0.835394711 C1.19479328,0.835394711 1.20450321,0.825684783 1.20450321,0.81370698 L1.20450321,0.126094692 C1.20450321,0.114116889 1.19479328,0.104406961 1.18281548,0.104406961 Z M1.07952071,0.735992611 C1.06386943,0.735419116 1.04922605,0.72812276 1.0393428,0.715973167 L0.895453043,0.540664009 L0.750729146,0.715834143 C0.741162923,0.72837347 0.726322728,0.735767892 0.710551235,0.735853587 C0.698787657,0.736228137 0.687357638,0.73191128 0.678778644,0.723853805 C0.670199649,0.71579633 0.665175356,0.704659137 0.664812366,0.692895197 L0.664812366,0.69122691 C0.664978568,0.678360206 0.669935447,0.66601758 0.678714758,0.656609955 L0.835116663,0.468093525 L0.687751312,0.290699008 C0.678435882,0.280290157 0.673460982,0.266708678 0.673848921,0.252745479 C0.676371646,0.229724081 0.695336367,0.212000042 0.718475598,0.211038304 C0.734725526,0.210903907 0.750123505,0.218294937 0.760182773,0.231057748 L0.896287186,0.395105969 L1.02877698,0.230362629 C1.03847679,0.217986011 1.05323285,0.210633512 1.06895489,0.210343185 C1.09415263,0.210494983 1.11454196,0.230884318 1.11469376,0.256082053 C1.11428807,0.268899693 1.10936378,0.281161179 1.10079137,0.290699008 L0.95676259,0.466981334 L1.11219133,0.656748979 C1.12108398,0.665632532 1.12608462,0.677684067 1.12609719,0.690253743 C1.12624212,0.702237226 1.12162355,0.713788754 1.11325423,0.722366655 C1.10488491,0.730944555 1.09345055,0.73584603 1.08146704,0.735992611 L1.07952071,0.735992611 Z" id="Shape" fill="#00A85D"></path>
                <path d="M1.42193661,0.26164301 L1.44431946,0.239260159 C1.47138186,0.208952713 1.5097757,0.1911899 1.55039471,0.190184717 L1.57097025,0.190184717 C1.60372493,0.190567161 1.63530846,0.202423285 1.6602236,0.223689481 L1.73946724,0.289586817 C1.7707728,0.316005485 1.78908178,0.354702869 1.78965487,0.395662065 L1.78965487,0.550673731 C1.78908178,0.591632927 1.7707728,0.630330311 1.73946724,0.656748979 L1.6607797,0.722924363 C1.63563593,0.744120564 1.60385573,0.755829058 1.57097025,0.756012055 L1.54983862,0.756012055 C1.5092196,0.755006872 1.47082576,0.737244059 1.44376337,0.706936613 L1.42138052,0.684553762 L1.42138052,0.880994556 C1.42138052,0.913387128 1.40122205,0.933406572 1.37452946,0.933406572 C1.36119338,0.933154997 1.34856439,0.927361364 1.33967501,0.917416863 C1.33078563,0.907472362 1.32643884,0.894275282 1.3276784,0.880994556 L1.3276784,0.242735757 C1.3276784,0.209230994 1.34783687,0.190323741 1.37452946,0.190323741 C1.38786553,0.190575316 1.40049452,0.196368949 1.4093839,0.20631345 C1.41827328,0.216257951 1.42262008,0.229455031 1.42138052,0.242735757 L1.42193661,0.26164301 Z M1.51786311,0.298484348 L1.43444877,0.381064554 C1.4255796,0.389506371 1.42054637,0.401212686 1.42054637,0.413457126 L1.42054637,0.53287867 C1.42054637,0.54512311 1.4255796,0.556829425 1.43444877,0.565271242 L1.51786311,0.647851449 C1.52619458,0.656219595 1.53734915,0.661177183 1.5491435,0.66175384 L1.57097025,0.66175384 C1.58337849,0.660994943 1.59517463,0.656100279 1.60447501,0.647851449 L1.68218938,0.583066304 C1.6907789,0.574432782 1.69575111,0.562847535 1.69609178,0.550673731 L1.69609178,0.395523041 C1.69586788,0.382832884 1.69090938,0.370684543 1.68218938,0.361462182 L1.60405794,0.295564845 C1.59458683,0.287955878 1.58269441,0.284008187 1.57055318,0.284442932 L1.54942154,0.284442932 C1.53742968,0.284634257 1.52603374,0.289704696 1.51786311,0.298484348 Z" id="Shape" fill="#231F20"></path>
                <path d="M2.18531694,0.210343185 C2.21784652,0.210892834 2.24926021,0.222293751 2.27457029,0.242735757 L2.3147482,0.27512833 C2.3463009,0.301834483 2.36462944,0.340979371 2.36493584,0.382315769 L2.36493584,0.493534902 C2.36493584,0.520366518 2.3438042,0.540385962 2.31252382,0.540385962 L1.99680051,0.540385962 L1.99680051,0.564993195 C1.99693304,0.578439827 2.00304815,0.591128669 2.01348338,0.59961015 L2.05366129,0.633114913 C2.06171948,0.640028242 2.07211093,0.643608073 2.08271729,0.643124635 L2.31266284,0.643124635 C2.34505542,0.643124635 2.36507486,0.663144079 2.36507486,0.689975695 C2.36507486,0.716807311 2.3438042,0.736826755 2.31252382,0.736826755 L2.08160509,0.736826755 C2.04938614,0.73641974 2.01827893,0.724987596 1.99346393,0.704434182 L1.95328602,0.670929419 C1.92172246,0.644710092 1.90335373,0.60588643 1.90309839,0.564854171 L1.90309839,0.382176745 C1.90340478,0.340840347 1.92173332,0.301695459 1.95328602,0.274989306 L1.99346393,0.242596733 C2.01827893,0.22204332 2.04938614,0.210611175 2.08160509,0.210204161 L2.18531694,0.210343185 Z M2.05366129,0.31419405 L2.01348338,0.34755979 C2.00304815,0.356041271 1.99693304,0.368730112 1.99680051,0.382176745 L1.99680051,0.445849699 L2.27137274,0.445849699 L2.27137274,0.382176745 C2.27099973,0.368787425 2.26493044,0.356193661 2.25468987,0.34755979 L2.21451196,0.314055026 C2.2062396,0.307380253 2.19607089,0.30348792 2.18545596,0.302933113 L2.08285631,0.302933113 C2.07217084,0.303350977 2.06191638,0.307257439 2.05366129,0.314055026 L2.05366129,0.31419405 Z" id="Shape" fill="#231F20"></path>
                <path d="M2.66786895,0.0139023916 C2.70026152,0.0139023916 2.72028096,0.0339218355 2.72028096,0.0607534513 L2.72028096,0.643263659 L2.80619774,0.643263659 C2.83859032,0.643263659 2.85860976,0.663283103 2.85860976,0.690114719 C2.85860976,0.716946335 2.83747813,0.736826755 2.80619774,0.736826755 L2.54052304,0.736826755 C2.50813047,0.736826755 2.48811102,0.716807311 2.48811102,0.689975695 C2.4883626,0.67663962 2.49415623,0.66401063 2.50410073,0.655121249 C2.51404523,0.646231868 2.52724232,0.641885073 2.54052304,0.643124635 L2.62532763,0.643124635 L2.62532763,0.107604511 L2.54052304,0.107604511 C2.50701828,0.107604511 2.48811102,0.0874460432 2.48811102,0.0607534513 C2.48840375,0.0474315472 2.49420946,0.034827938 2.50414403,0.0259474392 C2.51407859,0.0170669404 2.5272518,0.0127053068 2.54052304,0.0139023916 L2.66786895,0.0139023916 Z" id="Path" fill="#231F20"></path>
            </g>
            <path d="M2.8082831,0.0196006604 C2.83684556,0.0196006604 2.86,0.0427568155 2.86,0.0713192689 C2.86,0.0998817223 2.83684556,0.123036166 2.8082831,0.123036166 C2.79453282,0.123148418 2.78131311,0.117735744 2.77158987,0.108012504 C2.76186663,0.0982892647 2.75645395,0.0850695479 2.75656449,0.0713192689 C2.75645395,0.0575689899 2.76186663,0.0443492731 2.77158987,0.0346260337 C2.78131311,0.0249027942 2.79453282,0.0194901194 2.8082831,0.0196006604 L2.8082831,0.0196006604 Z M2.8157217,0.128777951 C2.82927951,0.128654446 2.8422164,0.123183041 2.85161753,0.113596516 C2.86101865,0.104009991 2.86609315,0.0911148044 2.86569766,0.0778164122 C2.86569766,0.0507332177 2.84332266,0.0287779506 2.8157217,0.0287779506 C2.78812074,0.0287779506 2.76574574,0.0507332177 2.76574574,0.0778164122 C2.76530484,0.0911271916 2.77036431,0.104047962 2.77977516,0.113644399 C2.789186,0.123240835 2.80214953,0.1286985 2.8157217,0.128777951 Z M2.78854171,0.0417071748 L2.83884846,0.0417071748 C2.8695233,0.0417071748 2.88547422,0.0511324622 2.88547422,0.0702129219 C2.88608191,0.0774372856 2.88260357,0.084519641 2.87589135,0.0897249134 C2.86917914,0.0949301859 2.85985316,0.0977774778 2.85019815,0.0975692438 L2.88854171,0.141707175 L2.86676257,0.141707175 L2.83209999,0.0975692438 L2.81032085,0.0975692438 L2.81032085,0.14055775 L2.79007545,0.14055775 L2.78854171,0.0417071748 Z M2.79890449,0.149197841 L2.83526813,0.149197841 C2.86681893,0.149197841 2.89730021,0.149197841 2.89730021,0.0970994852 C2.89730021,0.0450011293 2.86949273,0.0492831859 2.84382428,0.0492831859 L2.79730021,0.0492831859 L2.79890449,0.149197841 Z" id="Shape" fill="#231F20"></path>
        </g>
    </g>
</svg>