<svg height="140" viewBox="0 0 400 140" width="400" xmlns="http://www.w3.org/2000/svg"><path d="m102.398914 46.8765341c-1.370563-1.8589773-3.7009981-3.3794621-6.5233106-3.3794621-5.2272447 0-8.9970098 3.9895757-8.9970098 9.3934432 0 5.405803 3.7697651 9.3943977 8.9970098 9.3943977 2.4421833 0 4.7248646-1.0413826 5.9187356-2.0789205.080227-.0698144.121297-.1702272.121297-.2763674v-2.9309583c0-.1836175-.148994-.3337462-.33333-.3337462h-6.7229249c-.2674266 0-.484233-.2170796-.484233-.483875v-4.3500758c0-.26775.2168064-.4848295.484233-.4848295h12.0542759v-6.4557766l-3.892019 2.1315266c-.207255.113803-.482324.0449431-.622724-.1453561zm-56.5869007 3.0547045h7.1804171c2.0563232 0 3.3418832-1.1590038 3.3418832-3.0026818 0-1.7595454-1.28556-3.0026818-3.3418832-3.0026818h-7.1804171c-.2464148 0-.4450751.1998447-.4450751.4456136v5.1141364c0 .2457689.1986603.4456136.4450751.4456136zm29.1930079 16.8445985c0 .2208977-.1786034.3987879-.3982735.3987879h-5.286461c-.2206272 0-.3992306-.1778902-.3992306-.3987879v-27.8121401c0-.2199432.1786034-.3987614.3992306-.3987614h5.286461c.2196701 0 .3982735.1788182.3982735.3987614zm30.3892668-66.58985983-52.4271677 38.37895833h1.3533721c5.4411859 0 8.2252924 3.4731667 8.2252924 7.2905796 0 2.9702007-1.5501208 5.1638787-3.6303222 6.1335378-.3457451.1616099-.3333288.6512122.0200571.7956137 2.4249901.9935492 4.1680432 3.5917424 4.1680432 6.6259772 0 4.3328675-2.8280424 7.7639811-8.3112527 7.7639811h-15.0637853c-.2464151 0-.4460302-.1989167-.4460302-.4456402v-18.1471287l-38.88962792 28.469106c-.74497527.5460265-.36007125 1.7279924.56446224 1.7279924h105.00142198c.527214 0 .955097-.4284053.955097-.9562689v-14.3985758c-2.809896 2.6230644-6.504209 4.2659432-11.0390082 4.2659432-8.3962561 0-15.2509849-5.7902197-15.2509849-14.7992462 0-9.051106 6.8547288-14.7982916 15.2509849-14.7982916 5.2797742 0 8.8164972 2.3945037 11.0390082 5.3197348v-42.45454924c0-.78222349-.888239-1.23359091-1.51956-.77172349zm-59.5822747 61.62664773h7.437338c2.270265 0 3.6408286-1.2010833 3.6408286-3.2599318 0-1.8006705-1.2836499-3.2599318-3.6408286-3.2599318h-7.437338c-.2464148 0-.4450751.1998712-.4450751.4456136v5.6286098c0 .245769.1986603.4456402.4450751.4456402zm91.5743857-.8678144-3.276936-1.7012121c-.211077-.1099849-.477549-.029644-.605532.1711818-1.385846 2.1755152-3.942639 3.7906326-6.721015 3.7906326-5.454557 0-9.504168-4.3749205-9.504168-10.3382311 0-6.0474432 4.049611-10.3372765 9.504168-10.3372765 2.776465 0 5.332305 1.5749735 6.719106 3.7801326.128938.2055985.398273.2849848.612216.1692727l3.252105-1.7738901c.24737-.1348296.334284-.4437046.182421-.6827652-2.057276-3.2417689-5.464107-5.9537386-10.765848-5.9537386-8.141244 0-14.463984 5.9632841-14.463984 14.7982651 0 8.7938561 6.32274 14.7992462 14.463984 14.7992462 5.296011 0 8.663682-2.7837197 10.790682-6.0273712.161411-.2457689.072588-.5594166-.187199-.6942462zm17.080949 2.2608144c-5.584449 0-9.142185-4.4610152-9.142185-10.3382576 0-5.9183409 3.557736-10.3372765 9.142185-10.3372765 5.542428 0 9.141231 4.4189356 9.141231 10.3372765 0 5.8772424-3.598803 10.3382576-9.141231 10.3382576zm-3.906345-24.6363939c-6.144138 1.6438333-10.199477 7.1806212-10.199477 14.2981363 0 8.5366326 5.832774 14.7992462 14.105822 14.7992462 7.044795 0 12.362772-4.5872272 13.749572-11.2619924 2.258805-10.8699129-7.272106-20.6124015-17.655917-17.8353901zm52.328127-.0278409h-6.271168c-.278886 0-.529123.1702272-.631318.4303409l-7.584423 19.6312613-7.627401-19.6331704c-.102195-.2582046-.352432-.4284318-.631321-.4284318h-6.272119c-.185288 0-.336194.1511098-.336194.3366098v27.9374508c0 .1855.150906.3365833.336194.3365833h4.340915c.185288 0 .336193-.1510833.336193-.3365833v-21.754197l8.722899 21.9387424c.036294.0917955.125117.1520379.223494.1520379h1.814683c.098374 0 .187197-.0602424.223491-.1520379l8.679921-21.9387424v21.754197c0 .1855.149948.3365833.336193.3365833h4.339961c.186242 0 .336193-.1510833.336193-.3365833v-27.9374508c0-.1855-.149951-.3366098-.336193-.3366098zm64.103892 0h-18.546068c-.285574 0-.516706.2314242-.516706.5173636v27.5759432c0 .2859394.231132.5173371.516706.5173371h18.546068c.285576 0 .516708-.2313977.516708-.5173371v-3.3832803c0-.2859129-.231132-.5173372-.516708-.5173372h-13.532764c-.285576 0-.516708-.2314242-.516708-.5173371v-6.9444507c0-.2859129.231132-.5173372.516708-.5173372h13.233819c.284618 0 .516708-.2323787.516708-.5173371v-3.3832803c0-.2859394-.23209-.5173371-.516708-.5173371h-13.233819c-.285576 0-.516708-.2314242-.516708-.5173371v-6.3429546c0-.2859128.231132-.5173371.516708-.5173371h13.532764c.285576 0 .516708-.2323788.516708-.5173371v-3.3832803c0-.2859394-.231132-.5173636-.516708-.5173636zm19.551498 13.5115378h-6.385776c-.282708 0-.511931-.2295151-.511931-.5125644v-8.0690113c0-.2830493.229223-.5125644.511931-.5125644h6.385776c2.826131 0 4.88341 1.7595454 4.88341 4.5050038 0 2.7875113-2.057279 4.5891363-4.88341 4.5891363zm3.933088 3.7122273c3.198621-.8070947 6.090652-3.5496629 6.090652-8.2592841 0-5.3187803-3.726787-8.9640833-9.381914-8.9640833h-12.040904c-.28271 0-.511931.2294886-.511931.5125644v27.5845606c0 .2830492.229221.5135189.511931.5135189h3.988483c.28271 0 .512888-.2304697.512888-.5135189v-9.6554659c0-.2830493.229223-.5125644.511931-.5125644h4.208156c.181469 0 .34861.0956401.441254.2514962l5.999918 10.1776023c.091689.155856.259787.2524507.441254.2524507h4.609299c.402094 0 .649464-.4408409.435524-.7822235-1.322809-2.1162272-4.955043-7.9265454-6.149868-9.8381288-.190066-.3021666-.012417-.6799015.333327-.7669242zm45.460503-12.8060758h13.558552c.277934 0 .503337-.2256704.503337-.5049015v-3.4081515c0-.2782765-.225403-.5049015-.503337-.5049015h-18.571854c-.277934 0-.504292.226625-.504292.5049015v27.6008144c0 .2792311.226358.504928.504292.504928h18.571854c.277934 0 .503337-.2256969.503337-.504928v-3.4081515c0-.27825-.225403-.503947-.503337-.503947h-13.558552c-.278889 0-.504292-.226625-.504292-.5049015v-6.97025c0-.2792311.225403-.504928.504292-.504928h13.258652c.278889 0 .504292-.2256705.504292-.5049015v-3.4081516c0-.2782765-.225403-.5049015-.504292-.5049015h-13.258652c-.278889 0-.504292-.2256704-.504292-.5049015v-6.3678257c0-.2792311.225403-.5049016.504292-.5049016zm-10.632231 17.8667576-3.276939-1.7012121c-.211076-.1099583-.477548-.0296439-.605529.1711818-1.385846 2.1755152-3.942641 3.7906591-6.721015 3.7906591-5.454559 0-9.504168-4.374947-9.504168-10.3382311 0-6.0474696 4.049609-10.3372765 9.504168-10.3372765 2.776465 0 5.332303 1.5749735 6.719103 3.7801326.128938.2055985.398277.2849583.612217.1692462l3.252104-1.7738636c.247371-.1348561.334285-.4446856.182424-.6827917-2.057278-3.2417424-5.464107-5.9537386-10.765848-5.9537386-8.141247 0-14.463986 5.9633106-14.463986 14.7982916 0 8.7938561 6.322739 14.7992197 14.463986 14.7992197 5.295054 0 8.66368-2.7836931 10.79068-6.0273712.161414-.2457424.072588-.5594166-.187197-.6942462zm-85.406085-22.2844469h-6.271165c-.278889 0-.529123.1702272-.631321.4303409l-7.584423 19.6312613-7.627401-19.6331704c-.102195-.2582046-.352432-.4284318-.631318-.4284318h-6.272122c-.185288 0-.336193.1511098-.336193.3366098v27.9374508c0 .1855.150905.3365833.336193.3365833h4.340915c.18529 0 .336193-.1510833.336193-.3365833v-21.754197l8.722899 21.9387424c.036294.0917955.125117.1520379.223494.1520379h1.814684c.098373 0 .187199-.0602424.223493-.1520379l8.679918-21.9387424v21.754197c0 .1855.149951.3365833.336193.3365833h4.339961c.186242 0 .336193-.1510833.336193-.3365833v-27.9374508c0-.1855-.149951-.3366098-.336193-.3366098z" fill="#34313f" transform="translate(25 20)"/></svg>