<svg height="140" viewBox="0 0 400 140" width="400" xmlns="http://www.w3.org/2000/svg"><g fill="none"><g fill="#000" transform="translate(127.854839 40.863878)"><path d="m0 56.4194634v-53.93414633h25.0198876c3.8117255-.10323098 7.5076737 1.31849167 10.2716958 3.95121952 2.7511918 2.51142508 4.2728323 6.10048121 4.1670245 9.82865851.2575814 4.7122958-2.5046489 9.066721-6.8714511 10.8322683 6.5042621 1.0012632 11.1846414 6.7920466 10.8117926 13.3768537.1268238 4.3167675-1.5856053 8.4835856-4.7090925 11.4585366-3.1168498 3.0225661-7.3271093 4.6431411-11.661361 4.4885853zm14.6713167-32.4256829h7.0961629c1.2686362.017387 2.4858523-.5018375 3.3528694-1.430224.867017-.9283866 1.3035594-2.1799777 1.2024729-3.4475565.0427989-1.2378459-.4182407-2.4399608-1.277275-3.3303678-.8590343-.8904069-2.042271-1.3926187-3.2780673-1.391342h-7.0961629zm0 20.3487805h9.114627c1.4344611.073455 2.8356927-.4490093 3.8734681-1.4442644s1.6202993-2.3752666 1.6104158-3.8148088c-.0198263-1.4245558-.6305415-2.7765429-1.6856124-3.7312884-1.0550709-.9547454-2.4591833-1.4259983-3.8751466-1.3005896h-9.0377519z"/><path d="m52.7343459 22.832122c3.5102508-3.8716939 8.5290342-6.0189084 13.7468444-5.8813903 5.635536 0 9.189531 1.5488781 10.7309752 4.5656342v-4.0993903h13.9794409v39.0044634h-13.9794409v-4.1013658c-1.5414442 3.0187317-5.0954392 4.5656341-10.7309752 4.5656341-5.2008504.1311027-10.2073995-1.9828166-13.7468444-5.8043414-7.3117548-7.9913754-7.3117548-20.2598442 0-28.2512196zm16.754829 21.5124146c4.0070899-.3610413 7.0021709-3.8489055 6.7615433-7.8740257-.2406276-4.0251201-3.6298085-7.1295972-7.6512433-7.0085102-4.0214347.1210869-7.218559 3.4238801-7.2176662 7.4562188.2263422 4.2795006 3.8364407 7.5855336 8.1093374 7.4263171z"/><path d="m98.2917116 56.4194634v-53.93414633h14.2869414v53.93414633z"/><path d="m119.678758 56.4194634v-53.93414633h13.97747v19.02314633c1.468511-3.0147805 5.09741-4.5676097 10.732946-4.5676097 5.217465-.1395699 10.236107 2.0089211 13.742902 5.8833658 7.318326 7.9888116 7.318326 20.262408 0 28.2512195-3.536225 3.823996-8.542477 5.9391159-13.742902 5.8063171-5.635536 0-9.264435-1.5488781-10.732946-4.5656341v4.1013658h-13.97747zm21.70046-12.0749268c4.00709-.3610413 7.002171-3.8489055 6.761544-7.8740257-.240628-4.0251201-3.629809-7.1295972-7.651244-7.0085102-4.021434.1210869-7.218559 3.4238801-7.217666 7.4562188.229436 4.2764372 3.835189 7.5800973 8.105395 7.4263171z"/><path d="m170.560217 13.3906829c-1.480336-1.4582435-2.314148-3.45137489-2.314148-5.53170729s.833812-4.07346377 2.314148-5.53170732c1.47084-1.48625878 3.472985-2.32225461 5.561618-2.32225461s4.090777.83599583 5.561617 2.32225461c1.480337 1.45824355 2.314148 3.45137492 2.314148 5.53170732s-.833811 4.07346379-2.314148 5.53170729c-3.096357 3.01803-8.026878 3.01803-11.123235 0zm-1.541444 43.0287805v-39.006439h14.286941v39.006439z"/><path d="m186.234852 56.421439 14.586557-20.4297805-13.049055-18.5707317h15.522857l5.716353 8.1276586 5.716353-8.1276586h15.524828l-13.054969 18.5707317 14.600355 20.4297805h-15.601702l-7.182894-9.9057073-7.171067 9.9057073h-15.599731z"/></g><g fill="#662483" transform="translate(28 30)"><path d="m17.9316093 17.9760732h44.8378936v17.9760731h-44.8378936z"/><path d="m17.9316093 44.9411707h44.8378936v17.9740976h-44.8378936z"/><path d="m71.7382643 71.9042927h-62.77738752v-26.963122h-8.96087678v35.9560976h80.710968v-35.9560976h-8.9687614z"/><path d="m0 0v35.9560976h8.96087678v-26.97497565h62.77738752v26.97102435h8.9727037v-35.95609752z"/></g><path d="m1.78842857 11.094c-1.1621751-1.209377-1.80927415-2.88173445-1.78842857-4.622-.02724944-1.73050086.62166511-3.39376232 1.78842857-4.584 2.46748916-2.51687327 6.3316537-2.51687327 8.79914283 0 1.1689459 1.20148888 1.8273869 2.8679864 1.8207628 4.6081773-.0067246 1.7401909-.6779263 3.40077395-1.8560485 4.5918227-2.45339848 2.518096-6.31045864 2.518096-8.76385713 0zm4.39957143-9.282c-1.16644197-.04472583-2.29860995.42923784-3.13075283 1.31063865-.83214287.8814008-1.29098325 2.09262376-1.2688186 3.34936135.04910062 2.56837626 1.99650238 4.6228455 4.38192857 4.6228455 2.3854262 0 4.33282796-2.05446924 4.38192856-4.6228455.0309253-1.25300884-.4201382-2.46412332-1.2464871-3.34684246-.82634888-.88271913-1.95457977-1.35863229-3.1177986-1.31515754zm-2.18771429 7.78v-6.432h2.43285715c.53539602-.02519723 1.05697181.1871051 1.44304194.58737613.38607012.40027102.60286846.95350259.5998152 1.53062387.04008325.75558827-.31930284 1.47082189-.92857143 1.848l1.39471429 2.466h-1.75314286l-1.144-2.118h-.53671429v2.118zm1.50242858-3.4h.82271428c.46428572 0 .715-.27.715-.848.00754532-.20002344-.06048279-.39480509-.18855989-.53989453-.12807709-.14508944-.30527442-.22810625-.49115439-.23010547h-.858z" fill="#000" transform="translate(359 43)"/></g></svg>