<svg height="140" viewBox="0 0 400 140" width="400" xmlns="http://www.w3.org/2000/svg"><g fill="#231f20" transform="translate(30 48)"><path d="m294.876543.62962963v41.97530867h44.703704v-9.4444445h-34.419753v-7.1358024h33.37037v-8.8148149h-33.37037v-7.1358024h34.419753v-9.44444447z"/><path d="m102.62963 16.1604938c.202801 1.3502793-.231683 2.7183044-1.176427 3.7041244-.944744.9858199-2.2930506 1.4780977-3.6507339 1.3329127h-26.2345679v-10.4938272h26.4444445c1.3576832-.145185 2.7059903.3470928 3.6507343 1.3329127.944744.98582 1.379227 2.3538451 1.176426 3.7041243zm-1.049383-15.32098763h-41.1358026v41.97530863h11.3333334v-11.9629629h25.8148148l4.6172844-.4197531c7.345679-1.2592593 11.333333-6.2962963 11.333333-14.6913581 0-8.39506169-4.197531-13.64197527-11.962963-14.90123453"/><path d="m119.839506.62962963v10.07407407h19.518519v31.9012346h11.123456v-31.9012346h19.518519v-10.07407407z"/><path d="m15.9506173 42.6049383h19.308642c10.2839506-.2098766 15.7407407-5.4567902 15.9506172-15.9506173v-26.02469137h-10.9135802v26.02469137c.1281876 1.5944123-.4496484 3.1647797-1.580706 4.2958372-1.1310575 1.1310576-2.7014249 1.7088936-4.2958372 1.580706h-17.6296296c-3.7777778-.2098765-5.8765433-2.0987654-5.8765433-5.8765432v-26.02469137h-10.9135802v26.02469137c.20987654 10.2839506 5.45679012 15.7407407 15.9506173 15.9506173"/><path d="m197.074074 0-28.333333 28.3333333v14.9012346l28.333333-28.3333333 28.123457 28.3333333v-14.9012346z"/><path d="m268.222222.62962963-24.555555 24.55555557v-24.55555557h-10.074074v41.97530867h6.925926l16.580246-16.7901235 16.580247 16.7901235h14.271605l-23.716049-23.7160494 18.259259-18.25925927z"/></g></svg>