<svg height="233" viewBox="0 0 802 233" width="802" xmlns="http://www.w3.org/2000/svg"><g fill="#d29a7c" fill-rule="evenodd"><path d="m279.144 96.798c0 17.291 8.646 29.176 23.773 29.176 16.209 0 21.612-9.725 21.612-20.531l-1.081-1.081h-21.611l-1.081-1.08v-7.565l1.081-1.08h32.418l1.081 1.08v37.821l-1.081 1.081h-6.484l-1.08-1.081-1.081-6.482h-1.081c-5.403 5.403-11.886 8.645-21.612 8.645-21.611 0-34.58-16.209-34.58-38.902s12.969-38.902 35.661-38.902c20.531 0 29.176 11.887 31.338 22.693l-1.081 1.08h-8.645l-1.081-1.08c-2.16-7.564-8.645-12.968-20.531-12.968-16.209 0-24.854 11.886-24.854 29.176"/><path d="m396.931 100.04-1.08 1.081h-8.645l-1.081-1.081c0-7.564-4.322-10.806-11.886-10.806-9.726 0-15.129 4.322-15.129 17.29v27.015l-1.08 1.08h-8.646l-1.08-1.08v-51.869l1.08-1.081h7.565l1.081 1.081 1.08 4.322h1.081s4.322-6.483 15.129-6.483c10.805 0 21.611 5.402 21.611 20.531"/><path d="m447.72 134.619h-49.707l-1.081-1.081v-7.563l1.081-1.08h20.532l1.078-1.081v-32.418l-1.078-1.081h-15.129l-1.082-1.08v-7.565l1.082-1.08h25.934l1.081 1.08v42.144l1.081 1.081h16.208l1.081 1.08v7.563zm-17.289-62.675h-12.967l-1.081-1.081v-10.805l1.081-1.081h12.967l1.081 1.081v10.805z"/><path d="m500.672 134.62h-7.565l-1.081-1.081-1.08-4.322h-1.08s-4.322 6.483-15.129 6.483c-15.128 0-23.773-11.887-23.773-28.096s8.646-28.095 23.773-28.095c10.807 0 15.129 6.483 15.129 6.483h1.08v-25.934l1.08-1.081h8.646l1.08 1.081v73.481zm-24.855-45.386c-8.645 0-14.048 6.484-14.048 18.37 0 11.887 5.403 18.37 14.048 18.37s15.128-5.401 15.128-18.37c0-12.967-6.483-18.37-15.128-18.37z"/><path d="m512.882 94.637c0-9.726 8.644-15.129 22.691-15.129 11.888 0 22.693 4.323 22.693 16.209l-1.081 1.081h-8.645l-1.08-1.081c0-4.322-3.242-6.483-11.888-6.483-8.644 0-11.886 2.161-11.886 5.403 0 5.403 4.322 6.484 15.128 7.564 10.806 1.081 20.532 4.322 20.532 16.209 0 10.807-8.646 17.29-23.774 17.29-14.048 0-23.772-6.483-23.772-18.37l1.081-1.081h8.644l1.081 1.081c0 5.402 4.323 8.645 12.967 8.645 8.646 0 12.968-2.161 12.968-7.564 0-5.402-4.322-6.483-15.129-7.564-10.806-1.081-20.53-4.324-20.53-16.21"/><path d="m597.17 135.7c-10.807 0-15.129-6.483-15.129-6.483h-1.081v25.935l-1.08 1.081h-8.646l-1.079-1.081v-73.482l1.079-1.081h7.564l1.081 1.081 1.08 4.322h1.081s4.322-6.483 15.129-6.483c15.127 0 23.773 11.886 23.773 28.095.001 16.209-8.645 28.096-23.772 28.096m-1.081-46.466c-8.645 0-15.129 5.403-15.129 18.37 0 12.968 6.484 18.37 15.129 18.37 8.646 0 14.048-6.482 14.048-18.37 0-11.886-5.403-18.37-14.048-18.37"/><path d="m677.136 134.62h-7.565l-1.08-1.081-1.081-4.322h-1.08s-4.322 6.483-16.209 6.483-19.45-5.403-19.45-17.289c0-12.968 10.806-17.29 24.854-17.29 6.483 0 10.806 1.08 10.806 1.08l1.08-1.08v-2.162c0-7.564-4.321-9.725-11.886-9.725s-11.887 2.161-11.887 6.484l-1.081 1.08h-8.646l-1.08-1.08c0-8.645 6.483-16.209 22.693-16.209 16.209 0 22.693 7.564 22.693 23.773v30.257zm-9.727-22.693-1.08-1.081s-3.241-1.081-9.726-1.081c-9.725 0-15.128 2.162-15.128 8.646 0 6.483 4.323 7.562 10.806 7.562 8.645 0 15.128-5.401 15.128-10.805z"/><path d="m716.038 135.7c-17.289 0-27.016-10.806-27.016-28.096 0-17.289 9.727-28.096 27.016-28.096 10.806 0 22.692 5.403 23.773 19.451l-1.081 1.081h-8.645l-1.081-1.081c-1.081-6.483-5.403-9.725-12.967-9.725-10.807 0-16.209 6.483-16.209 18.37s5.402 18.37 16.209 18.37c7.563 0 11.886-3.242 12.967-9.726l1.081-1.08h8.645l1.081 1.08c-1.081 14.05-12.967 19.452-23.773 19.452"/><path d="m749.537 107.604c0-15.128 7.564-28.096 25.935-28.096s25.936 12.968 25.936 28.096v3.242l-1.08 1.081h-37.822l-1.081 1.08c0 2.162 1.081 12.968 15.129 12.968 5.403 0 9.727-1.08 11.887-6.483l1.08-1.081h8.646l1.081 1.081c-1.081 8.646-8.646 16.209-22.693 16.209-18.372-.001-27.018-11.888-27.018-28.097zm39.983-5.403c0-3.242-1.08-12.967-14.048-12.967-12.967 0-14.048 9.725-14.048 12.967l1.081 1.081h25.935z"/><path d="m116.164.983c-63.707 0-115.537 51.83-115.537 115.537s51.83 115.537 115.537 115.537 115.536-51.83 115.536-115.537-51.829-115.537-115.536-115.537m0 220.075c-57.642 0-104.537-46.896-104.537-104.537 0-57.642 46.895-104.537 104.537-104.537 57.641 0 104.536 46.895 104.536 104.537 0 2.385-.088 4.751-.246 7.096h-64.048v-51.719c0-22.19-18.053-40.243-40.242-40.243-22.191 0-40.243 18.053-40.243 40.243s18.052 40.243 40.243 40.243h29.242v11.476h-29.242c-22.191 0-40.243 18.054-40.243 40.243 0 22.19 18.052 40.243 40.243 40.243 22.189 0 40.242-18.053 40.242-40.243v-18.243h-11v18.243c0 16.124-13.118 29.243-29.242 29.243-16.125 0-29.243-13.119-29.243-29.243 0-16.125 13.118-29.243 29.243-29.243h102.964c-8.595 49.046-51.493 86.441-102.964 86.441m29.242-149.161v29.243h-29.242c-16.125 0-29.243-13.118-29.243-29.243s13.118-29.243 29.243-29.243c16.124 0 29.242 13.118 29.242 29.243"/></g></svg>