<svg height="140" viewBox="0 0 400 140" width="400" xmlns="http://www.w3.org/2000/svg"><g fill="none" transform="translate(25 29)"><path d="m154.058333 27.475c2.45 0 4.433334.6416667 5.425 1.05l.641667.2916667 1.866667-6.5333334-.466667-.2333333c-1.633333-.7583333-4.666667-1.3416667-7.233333-1.3416667-11.9 0-20.241667 9.1-20.241667 22.1666667 0 13.5333333 7 21.5833333 18.783333 21.5833333 3.266667 0 6.475-.5833333 8.516667-1.6333333l.408333-.175-1.283333-6.1833333-.7.2333333c-2.041667.7583333-3.675 1.05-5.541667 1.05-6.941666 0-11.083333-5.6-11.083333-14.9333333 0-7.5833334 3.383333-15.3416667 10.908333-15.3416667zm32.433334 18.2c-.583334 2.1-1.166667 4.2583333-1.691667 6.3583333 0-.1166666-.058333-.2916666-.116667-.4083333-.408333-2.0416667-.933333-4.025-1.458333-6.0666667l-6.708333-24.2666666h-9.625l12.775 39.1416666c.175.4083334.175.875.175 1.3416667s-.058334.8166667-.466667 1.8666667c-.758333 1.8083333-2.333333 4.6083333-4.375 6.7666666-2.1 2.275-4.55 4.0833334-6.825 5.075l-.525.2333334 3.383333 6.7083333.525-.2333333c.816667-.2916667 5.016667-2.1 9.158334-6.475 6.066666-6.475 9.508333-16.9166667 12.483333-26.95l8.341667-27.4166667h-9.041667zm39.491666-25.025c-4.375 0-7.641666 1.5166667-10.091666 4.55v-21.7h-9.1v49.9916667c0 1.9833333-.175 4.9583333-.291667 7.35-.058333.9916666-.116667 1.8666666-.116667 2.5666666v.5833334h7.991667l.408333-4.55c1.691667 2.625 4.433334 5.25 9.683334 5.25 7.816666 0 15.691666-6.9416667 15.691666-22.4583334 0-13.125-5.6-21.5833333-14.175-21.5833333zm5.016667 21.9333333c0 5.775-1.05 15.4583334-8.05 15.4583334-2.158333 0-5.133333-1.1666667-6.825-6.9416667-.233333-.5833333-.233333-1.4583333-.233333-2.3333333v-11.55c0-.9333334 0-1.925.175-2.8.583333-3.325 3.441666-6.8835741 6.825-6.8835741 7.35-.0580926 8.108333 10.5002407 8.108333 15.0502407zm31.85-21.9333333c-12.716667 0-17.266667 11.9-17.266667 22.1083333 0 16.1583334 8.633334 21.9333334 16.741667 21.9333334 7.933333 0 17.15-5.775 17.15-21.9916667 0-16.275-8.575-22.05-16.625-22.05zm-.116667 37.625c-7 0-7.991666-9.8-7.991666-15.6333333 0-4.6666667.758333-15.5166667 7.816666-15.5166667 6.941667 0 7.7 10.85 7.7 15.5166667 0 4.725-.758333 15.6333333-7.525 15.6333333zm22.166667-30.275h17.441667c-.525.8166667-1.05 1.6333333-1.633334 2.5083333-.641666.9916667-1.283333 1.9833334-1.925 2.975l-15.691666 25.6666667-.116667.1166667v4.7833333h29.691667v-6.65h-19.133334c.466667-.8166667 1.05-1.6333333 1.633334-2.5083333.641666-.9916667 1.341666-1.9833334 1.925-2.975l15.516666-25.3166667.058334-.1166667v-5.1333333h-27.708334zm65.1 35.4083333c-.058333-1.05-.116667-2.1-.175-3.2666666-.116667-2.3333334-.291667-4.9583334-.291667-8.05v-30.7416667h-9.1v27.9416667c0 1.4583333-.116666 2.6833333-.408333 3.675-.7 2.975-3.383333 5.075-6.475 5.0166666-4.316667 0-6.066667-3.0916666-6.066667-10.7333333v-25.9h-9.1v26.8333333c0 11.2583334 4.025 16.5083334 12.716667 16.5083334 4.666667 0 8.341667-2.2166667 10.441667-4.375l.466666 3.7333333h7.991667z" fill="#a6a4a5"/><path d="m104.766667 54.95c0 12.25-9.916667 22.1666667-22.166667 22.1666667s-22.1666667-9.9166667-22.1666667-22.1666667 9.9166667-22.1666667 22.1666667-22.1666667 22.166667 9.9166667 22.166667 22.1666667zm-22.166667-8.9833333c-4.9583333 0-8.925 4.025-8.925 8.925 0 4.9583333 4.025 8.925 8.925 8.925 4.9583333.175 9.1-3.675 9.275-8.6333334.175-4.9583333-3.675-9.1-8.6333333-9.275-.2333334.0583334-.4666667.0583334-.6416667.0583334z" fill="#9dd0e0"/><path d="m124.483333 16.45c0 7.5833333-6.183333 13.7666667-13.766666 13.7666667-7.583334-.175-13.591667-6.4166667-13.4750003-14 .175-7.35000003 6.0666663-13.30000003 13.4750003-13.47500003 7.583333-.05833334 13.766666 6.125 13.766666 13.70833333zm-13.766666-5.5416667c-3.033334 0-5.541667 2.5083334-5.541667 5.5416667s2.508333 5.5416667 5.541667 5.5416667c3.033333.1166666 5.6-2.3333334 5.716666-5.3666667.116667-3.0333333-2.333333-5.6-5.366666-5.7166667-.116667 0-.233334 0-.35 0z" fill="#bcdee9"/><path d="m70.6416667 35.7c0 19.4833333-15.8083334 35.2916667-35.2916667 35.2916667s-35.35-15.8083334-35.35-35.2916667 15.8083333-35.29166667 35.35-35.29166667c19.4833333 0 35.2916667 15.80833337 35.2916667 35.29166667zm-35.35-14.2333333c-7.875 0-14.2333334 6.3583333-14.2333334 14.2333333s6.3583334 14.2333333 14.2333334 14.2333333 14.2333333-6.3583333 14.2333333-14.2333333-6.3583333-14.2333333-14.2333333-14.2333333z" fill="#63bbd3"/></g></svg>