<svg enable-background="new 0 0 236.7 67.5" viewBox="0 0 236.7 67.5" xmlns="http://www.w3.org/2000/svg"><g fill="#214893"><path d="m89.6 48.4c-1.4 1-3 1.7-4.7 2.2-1.9.5-3.8.8-5.7.8-2.3.1-4.5-.4-6.6-1.2-1.7-.8-3.3-2-4.4-3.5-1.2-1.6-2-3.5-2.4-5.4-.5-2.3-.8-4.7-.7-7 0-5.5 1.2-9.7 3.7-12.7s6.1-4.5 10.8-4.5c1.9-.1 3.9.1 5.8.6 1.4.4 2.7.9 3.9 1.5l-2 6.9c-.9-.5-1.9-.8-2.9-1.1-1.1-.3-2.2-.4-3.3-.4-2.3 0-4.1.8-5.3 2.3s-1.8 4-1.8 7.4c0 1.3.1 2.6.5 3.8.3 1.1.7 2.1 1.4 3.1.6.9 1.4 1.6 2.3 2 1.1.5 2.2.8 3.4.8s2.5-.2 3.6-.6c.9-.3 1.8-.8 2.7-1.3z"/><path clip-rule="evenodd" d="m109.2 42.8c-1.2.8-2.6 1.2-4 1.1-1.1.1-2.2-.3-3-1-.7-.7-1.1-1.8-1.1-2.8 0-.8.3-1.6.8-2.1.6-.6 1.4-1.1 2.3-1.3 1.1-.3 2.2-.5 3.3-.6 1.3-.1 2.6-.1 3.9.1v4.2c-.5.9-1.3 1.8-2.2 2.4zm-8.5-24.9c-2.1.4-4.2 1-6.2 1.9l2 6.3c1.5-.6 3-1.1 4.6-1.4 1.8-.3 3.6-.5 5.4-.5 2.3 0 3.7.5 4.3 1.6.7 1.1.8 2.8.5 5.2-2.6-.1-5.2 0-7.8.3-2.1.3-4.1.8-6 1.8-1.6.7-2.9 1.9-3.8 3.3-.9 1.5-1.4 3.3-1.3 5 0 1.3.2 2.6.7 3.9.9 2.3 2.8 4.1 5.1 4.9 1.3.5 2.7.7 4.1.7 2.1.1 4.1-.4 5.9-1.5 1.4-.9 2.7-2.1 3.6-3.5h.3l1.4 4.5h6.9c-.5-1.6-.9-3.3-1-5-.1-1.8-.2-3.6-.2-5.4 0-1.9.1-3.8.2-5.7s.2-3.8.2-5.8c0-1.6-.2-3.2-.6-4.7-.7-2.8-2.8-5-5.5-5.9-1.8-.6-3.7-.9-5.7-.8-2.1.1-4.6.3-7.1.8z" fill-rule="evenodd"/><path d="m140.4 41.4c0-.8-.4-1.6-1.1-2.1-.9-.6-1.8-1.1-2.7-1.4-1.1-.4-2.3-.9-3.6-1.3s-2.5-1.1-3.6-1.9-2-1.9-2.7-3.1c-.8-1.5-1.2-3.1-1.1-4.8 0-3.2 1-5.7 2.9-7.3 1.9-1.7 4.7-2.5 8.2-2.5 2.3 0 4.5.2 6.7.8 1.6.4 3.2 1 4.7 1.8l-1.9 6.1c-1-.4-2.3-.8-3.8-1.2s-3.1-.6-4.6-.6c-2.5 0-3.8 1-3.8 2.9 0 .8.4 1.5 1.1 1.9.9.5 1.8 1 2.7 1.3 1.1.4 2.3.9 3.6 1.3s2.5 1.1 3.6 1.8c1.1.8 2 1.8 2.7 2.9.8 1.4 1.2 3.1 1.1 4.7 0 3.3-1 5.9-3.1 7.8s-5.3 2.8-9.5 2.8c-2.2 0-4.4-.3-6.4-.9-1.7-.5-3.4-1.2-4.9-2l2.3-6.3c1.3.7 2.6 1.2 3.9 1.6 1.6.5 3.3.8 5.1.8 1.1.1 2.1-.2 3-.7.8-.5 1.3-1.4 1.2-2.4z"/><path d="m151 17.9h4.5v-6.1l8.4-2.4v8.5h7.9v7.1h-7.9v12.5c0 2.3.2 3.9.7 4.8.5 1 1.5 1.6 2.6 1.5.8 0 1.5-.1 2.2-.3s1.4-.5 2.1-.8l1.5 6.5c-1.3.6-2.7 1.1-4.1 1.4-1.6.4-3.1.6-4.7.6-3 0-5.2-.8-6.6-2.3s-2.1-4.1-2.1-7.6v-16.3h-4.5z"/><path clip-rule="evenodd" d="m184.2 38.1c-.3-1.3-.4-2.6-.4-4 0-3.6.6-6.1 1.8-7.7 1.1-1.5 3-2.4 4.9-2.3 2.4 0 4.1.9 5.1 2.8 1 1.8 1.5 4.3 1.5 7.2 0 3.5-.5 6-1.6 7.6s-2.7 2.4-4.9 2.4c-1.1 0-2.1-.2-3-.7s-1.6-1.2-2-2.1c-.8-1-1.2-2.1-1.4-3.2zm-5.1-16.7c-2.7 3-4 7.2-4 12.7 0 2.4.3 4.7 1 7 .6 2 1.5 3.8 2.8 5.4 1.3 1.5 2.9 2.7 4.8 3.5 2.1.9 4.4 1.3 6.7 1.3 4.8 0 8.6-1.5 11.3-4.5s4-7.2 4-12.7c0-2.4-.3-4.8-.9-7-.6-2-1.5-3.8-2.8-5.4-1.3-1.5-2.9-2.7-4.7-3.5-2.1-.9-4.4-1.3-6.7-1.2-5 0-8.8 1.5-11.5 4.4z" fill-rule="evenodd"/><path d="m229.5 25.8c-1.2-.4-2.4-.7-3.6-.7-1.4-.1-2.7.4-3.8 1.2-1 .8-1.7 1.9-2 3.1v21h-8.4v-32.5h6.6l1 4.3h.3c.6-1.5 1.7-2.8 3-3.7s2.8-1.3 4.4-1.3c1.3 0 2.6.3 3.8.7z"/><path d="m43.2 27.7c-2.4-2.8-5.1-4.4-5.8-3.7-.8.7 1 2.9 1.8 5.3 2.3 7.1.1 14.9-5.4 19.8-5.6 5-13.5 6.2-20.3 3.1-2.5-1.1-3.8-3-4.8-2.2-.9.8-.3 2.9 2.1 5.7 5 5.8 12.7 8.4 20.2 7s13.7-6.8 16.1-14c2.6-7.3 1.1-15.3-3.9-21z"/><path d="m11.3 39.8c2.4 2.8 5.1 4.4 5.8 3.7.8-.7-1.1-2.9-1.8-5.3-2.3-7.1-.1-14.9 5.4-19.8 5.6-5 13.5-6.2 20.3-3.1 2.4 1.1 3.8 2.9 4.7 2.1s.3-2.9-2.1-5.7c-7.7-8.9-21.2-9.9-30.2-2.1-8.9 7.8-9.8 21.3-2.1 30.2z"/><path d="m27.3 25.7c-3.1 0-5.7 3.3-5.7 7.4s2.5 7.4 5.7 7.4 5.6-3.3 5.6-7.4-2.5-7.4-5.6-7.4z"/><path d="m89.6 48.4c-1.4 1-3 1.7-4.7 2.2-1.9.5-3.8.8-5.7.8-2.3.1-4.5-.4-6.6-1.2-1.7-.8-3.3-2-4.4-3.5-1.2-1.6-2-3.5-2.4-5.4-.5-2.3-.8-4.7-.7-7 0-5.5 1.2-9.7 3.7-12.7s6.1-4.5 10.8-4.5c1.9-.1 3.9.1 5.8.6 1.4.4 2.7.9 3.9 1.5l-2 6.9c-.9-.5-1.9-.8-2.9-1.1-1.1-.3-2.2-.4-3.3-.4-2.3 0-4.1.8-5.3 2.3s-1.8 4-1.8 7.4c0 1.3.1 2.6.5 3.8.3 1.1.7 2.1 1.4 3.1.6.9 1.4 1.6 2.3 2 1.1.5 2.2.8 3.4.8s2.5-.2 3.6-.6c.9-.3 1.8-.8 2.7-1.3z"/><path clip-rule="evenodd" d="m109.2 42.8c-1.2.8-2.6 1.2-4 1.1-1.1.1-2.2-.3-3-1-.7-.7-1.1-1.8-1.1-2.8 0-.8.3-1.6.8-2.1.6-.6 1.4-1.1 2.3-1.3 1.1-.3 2.2-.5 3.3-.6 1.3-.1 2.6-.1 3.9.1v4.2c-.5.9-1.3 1.8-2.2 2.4zm-8.5-24.9c-2.1.4-4.2 1-6.2 1.9l2 6.3c1.5-.6 3-1.1 4.6-1.4 1.8-.3 3.6-.5 5.4-.5 2.3 0 3.7.5 4.3 1.6.7 1.1.8 2.8.5 5.2-2.6-.1-5.2 0-7.8.3-2.1.3-4.1.8-6 1.8-1.6.7-2.9 1.9-3.8 3.3-.9 1.5-1.4 3.3-1.3 5 0 1.3.2 2.6.7 3.9.9 2.3 2.8 4.1 5.1 4.9 1.3.5 2.7.7 4.1.7 2.1.1 4.1-.4 5.9-1.5 1.4-.9 2.7-2.1 3.6-3.5h.3l1.4 4.5h6.9c-.5-1.6-.9-3.3-1-5-.1-1.8-.2-3.6-.2-5.4 0-1.9.1-3.8.2-5.7s.2-3.8.2-5.8c0-1.6-.2-3.2-.6-4.7-.7-2.8-2.8-5-5.5-5.9-1.8-.6-3.7-.9-5.7-.8-2.1.1-4.6.3-7.1.8z" fill-rule="evenodd"/><path d="m140.4 41.4c0-.8-.4-1.6-1.1-2.1-.9-.6-1.8-1.1-2.7-1.4-1.1-.4-2.3-.9-3.6-1.3s-2.5-1.1-3.6-1.9-2-1.9-2.7-3.1c-.8-1.5-1.2-3.1-1.1-4.8 0-3.2 1-5.7 2.9-7.3 1.9-1.7 4.7-2.5 8.2-2.5 2.3 0 4.5.2 6.7.8 1.6.4 3.2 1 4.7 1.8l-1.9 6.1c-1-.4-2.3-.8-3.8-1.2s-3.1-.6-4.6-.6c-2.5 0-3.8 1-3.8 2.9 0 .8.4 1.5 1.1 1.9.9.5 1.8 1 2.7 1.3 1.1.4 2.3.9 3.6 1.3s2.5 1.1 3.6 1.8c1.1.8 2 1.8 2.7 2.9.8 1.4 1.2 3.1 1.1 4.7 0 3.3-1 5.9-3.1 7.8s-5.3 2.8-9.5 2.8c-2.2 0-4.4-.3-6.4-.9-1.7-.5-3.4-1.2-4.9-2l2.3-6.3c1.3.7 2.6 1.2 3.9 1.6 1.6.5 3.3.8 5.1.8 1.1.1 2.1-.2 3-.7.8-.5 1.3-1.4 1.2-2.4z"/><path d="m151 17.9h4.5v-6.1l8.4-2.4v8.5h7.9v7.1h-7.9v12.5c0 2.3.2 3.9.7 4.8.5 1 1.5 1.6 2.6 1.5.8 0 1.5-.1 2.2-.3s1.4-.5 2.1-.8l1.5 6.5c-1.3.6-2.7 1.1-4.1 1.4-1.6.4-3.1.6-4.7.6-3 0-5.2-.8-6.6-2.3s-2.1-4.1-2.1-7.6v-16.3h-4.5z"/><path clip-rule="evenodd" d="m184.2 38.1c-.3-1.3-.4-2.6-.4-4 0-3.6.6-6.1 1.8-7.7 1.1-1.5 3-2.4 4.9-2.3 2.4 0 4.1.9 5.1 2.8 1 1.8 1.5 4.3 1.5 7.2 0 3.5-.5 6-1.6 7.6s-2.7 2.4-4.9 2.4c-1.1 0-2.1-.2-3-.7s-1.6-1.2-2-2.1c-.8-1-1.2-2.1-1.4-3.2zm-5.1-16.7c-2.7 3-4 7.2-4 12.7 0 2.4.3 4.7 1 7 .6 2 1.5 3.8 2.8 5.4 1.3 1.5 2.9 2.7 4.8 3.5 2.1.9 4.4 1.3 6.7 1.3 4.8 0 8.6-1.5 11.3-4.5s4-7.2 4-12.7c0-2.4-.3-4.8-.9-7-.6-2-1.5-3.8-2.8-5.4-1.3-1.5-2.9-2.7-4.7-3.5-2.1-.9-4.4-1.3-6.7-1.2-5 0-8.8 1.5-11.5 4.4z" fill-rule="evenodd"/><path d="m229.5 25.8c-1.2-.4-2.4-.7-3.6-.7-1.4-.1-2.7.4-3.8 1.2-1 .8-1.7 1.9-2 3.1v21h-8.4v-32.5h6.6l1 4.3h.3c.6-1.5 1.7-2.8 3-3.7s2.8-1.3 4.4-1.3c1.3 0 2.6.3 3.8.7z"/><path d="m43.2 27.7c-2.4-2.8-5.1-4.4-5.8-3.7-.8.7 1 2.9 1.8 5.3 2.3 7.1.1 14.9-5.4 19.8-5.6 5-13.5 6.2-20.3 3.1-2.5-1.1-3.8-3-4.8-2.2-.9.8-.3 2.9 2.1 5.7 5 5.8 12.7 8.4 20.2 7s13.7-6.8 16.1-14c2.6-7.3 1.1-15.3-3.9-21z"/><path d="m11.3 39.8c2.4 2.8 5.1 4.4 5.8 3.7.8-.7-1.1-2.9-1.8-5.3-2.3-7.1-.1-14.9 5.4-19.8 5.6-5 13.5-6.2 20.3-3.1 2.4 1.1 3.8 2.9 4.7 2.1s.3-2.9-2.1-5.7c-7.7-8.9-21.2-9.9-30.2-2.1-8.9 7.8-9.8 21.3-2.1 30.2z"/><path d="m27.3 25.7c-3.1 0-5.7 3.3-5.7 7.4s2.5 7.4 5.7 7.4 5.6-3.3 5.6-7.4-2.5-7.4-5.6-7.4z"/></g></svg>