<svg viewBox="0 0 400 140" xmlns="http://www.w3.org/2000/svg"><g fill="#4c4c4c" transform="translate(29 32)"><path d="m35.3607595 22h-34.07278482c-.70253164 0-1.28797468.5851064-1.28797468 1.287234v7.9574469c0 .7021276.46835443 1.1702127 1.17088608 1.1702127h.1170886 10.77215192c.585443 0 1.1708861.3510638 1.1708861.9361702v.1170213 42.2446809c0 .7021276.585443 1.287234 1.2879746 1.287234h7.9620254c.7025316 0 1.2879746-.5851064 1.2879746-1.287234v-42.1276596c0-.5851064.4683545-1.0531915 1.0537975-1.1702128h10.8892405c.7025317 0 1.2879747-.5851064 1.2879747-1.287234v-7.9574468c-.2341772-.7021277-.9367089-1.1702128-1.6392405-1.1702128z"/><path d="m86.5742574 22h-8.0792079c-.7128713 0-1.3069307.5851064-1.3069307 1.287234v19.8936171c0 .5851063-.4752475 1.0531915-1.0693069 1.1702127h-12.3564357c-.5940594 0-1.1881188-.3510638-1.1881188-.9361702 0 0 0 0 0-.1170213v-20.0106383c0-.7021276-.5940594-1.287234-1.3069307-1.287234h-7.960396c-.7128713 0-1.3069307.5851064-1.3069307 1.287234v52.425532c0 .7021276.5940594 1.287234 1.3069307 1.287234h7.7227723c.7128713 0 1.6633663-.5851064 1.6633663-1.287234v-19.8936171c0-.5851063.3564357-1.1702127.9504951-1.1702127h.1188118 12.3564357c.5940594 0 1.0693069.4680851 1.1881188 1.0531915v20.0106383c0 .7021276.5940594 1.287234 1.3069307 1.287234h8.0792079c.7128713 0 1.3069307-.5851064 1.3069307-1.287234v-52.425532c-.1188119-.7021276-.7128713-1.287234-1.4257426-1.287234z"/><path d="m138.8203 38.3741007c0-9.0057554-7.547421-16.3741007-16.772047-16.3741007h-17.730449c-.718802 0-1.317804.5847893-1.317804 1.2865365v52.3971222c0 .7017472.599002 1.2865365 1.317804 1.2865365h8.146422c.718802 0 1.317804-.5847893 1.317804-1.2865365v-19.8828366c0-.5847893.359401-1.1695786.958403-1.1695786h.1198 2.276206c.838603 0 1.557405.4678315 1.797005 1.2865365l8.266223 19.6489208c.239601.8187051 1.078203 1.4034944 2.036606 1.4034944h8.386023c.479202.1169578.958403-.1169579 1.198004-.5847893.2396-.4678315.2396-.9356629 0-1.4034944l-8.745425-19.8828365c-.599001-1.2865365-.718802-2.1052416.599002-3.0409045 5.750416-3.7426515 8.146423-7.9531346 8.146423-13.6840698zm-16.772047 5.8478931h-7.30782c-.599002 0-1.198004-.3508736-1.198004-.9356629 0 0 0 0 0-.1169579v-9.5905447c0-.5847893.479202-1.0526207 1.078203-1.1695786h7.427621c3.234609 0 5.990017 2.6900308 5.990017 5.8478931.1198 3.1578623-2.396007 5.8478931-5.630616 5.964851-.1198 0-.239601 0-.359401 0z"/><path d="m185.660517 66.7021277h-19.483395c-.608856 0-1.217712-.3510639-1.217712-.9361703 0 0 0 0 0-.1170212v-9.5957447c0-.5851064.365313-1.1702128.974169-1.1702128h.121772 14.369003c.730628 0 1.339484-.5851064 1.339484-1.287234v-7.9574468c0-.7021277-.608856-1.2872341-1.339484-1.2872341h-14.247232c-.608856 0-1.217712-.3510638-1.217712-.9361702 0 0 0 0 0-.1170213v-9.5957446c0-.5851064.487084-1.0531915 1.095941-1.1702128h19.605166c.730627 0 1.339483-.5851064 1.339483-1.287234v-7.9574469c0-.7021276-.608856-1.287234-1.339483-1.287234h-30.321034c-.730627 0-1.339483.5851064-1.339483 1.287234v52.425532c0 .7021276.608856 1.287234 1.339483 1.287234h30.321034c.730627 0 1.339483-.5851064 1.339483-1.287234v-7.9574469c-.121771-.5851063-.730627-1.0531914-1.339483-1.0531914z"/><path d="m219.043938 22h-16.755085c-.703011 0-1.288853.5851064-1.288853 1.287234v52.425532c0 .7021276.585842 1.287234 1.288853 1.287234h16.755085c9.021969 0 16.169243-7.1382979 17.340928-17.2021277.820179-6.787234.820179-13.574468 0-20.3617021-1.171685-10.2978723-8.318959-17.4361702-17.340928-17.4361702zm6.795769 37.7978723c-.468674 3.9787234-3.280716 6.7872341-6.912937 6.7872341h-6.327095c-.585843 0-1.171685-.3510638-1.171685-.9361702 0 0 0 0 0-.1170213v-31.9468085c0-.5851064.468674-1.0531915 1.054516-1.1702128h6.444264c3.632221 0 6.444263 2.8085107 6.912937 6.7872341.820179 6.787234.820179 13.6914893 0 20.5957446z"/><path d="m287.917787 0h-7.955732c-.701976 0-1.286956.5870021-1.286956 1.29140461v37.45073379c0 3.9916142-3.27589 6.6918239-8.072727 6.6918239-4.796838 0-7.955732-2.8176101-7.955732-6.6918239v-37.45073379c0-.70440251-.58498-1.29140461-1.286956-1.29140461h-8.072727c-.701977 0-1.286957.5870021-1.286957 1.29140461v37.45073379c0 9.6268343 8.072727 17.2578616 18.368379 17.2578616 10.295653 0 18.602372-7.6310273 18.602372-17.2578616v-37.45073379c.116996-.58700209-.116996-1.05660377-.701976-1.29140461-.116996 0-.233992 0-.350988 0z"/><path d="m323.948042.08762613h-17.645364c-.710552 0-1.302678.58417419-1.302678 1.28518322v52.34200745c0 .701009.592126 1.2851832 1.302678 1.2851832h8.052918c.710552 0 1.302678-.5841742 1.302678-1.2851832v-19.8619225c0-.5841742.355276-1.1683484.947402-1.1683484h.118425 7.342367c9.118745.7010091 17.171663-5.9585767 17.882215-14.9548592.710551-8.99628256-6.039689-16.94105154-15.158434-17.64206057-.947402-.11683484-1.894805-.11683484-2.842207 0zm0 22.19861927h-7.223941c-.592126 0-1.184252-.3505046-1.184252-.9346788 0 0 0 0 0-.1168348v-9.5804567c0-.5841742.355275-1.1683484.947402-1.1683484h.118425 7.342366c3.197483.1168349 5.802838 2.6872013 5.921264 5.8417419 0 3.2713755-2.605356 5.8417419-5.921264 5.9585768z"/></g></svg>
