<svg height="140" viewBox="0 0 400 140" width="400" xmlns="http://www.w3.org/2000/svg"><g fill="none"><g transform="translate(38 23)"><g fill="#231f20"><path d="m46.0307692 33.6769231v29.4461538h-7.276923v-27.4153846c0-2.5384615-.5076924-4.5692308-1.3538462-5.7538461-1.0153846-1.1846154-2.3692308-1.8615385-4.4-1.8615385-1.5230769 0-3.2153846.5076923-4.9076923 1.3538461-1.6923077.8461539-3.3846154 2.2-5.0769231 3.8923077v29.9538462h-7.1076923v-40.6153846h6.6v5.4153846c2.3692308-2.2 4.5692308-3.7230769 6.6-4.5692308 2.0307692-.8461538 4.0615385-1.3538461 6.0923077-1.3538461 3.3846154 0 6.0923077 1.0153846 7.9538462 3.0461538 1.8615384 1.8615385 2.876923 4.7384616 2.876923 8.4615385"/><path d="m69.5538462 7.10769231v5.92307689c-1.6923077-.1692307-2.3692308-.1692307-3.0461539-.1692307s-1.1846154-.1692308-1.5230769-.1692308c-1.6923077 0-2.8769231.3384615-3.5538462 1.1846154-.676923.8461538-1.0153846 2.0307692-1.0153846 3.8923077v4.7384615h8.9692308v6.0923077h-8.9692308v34.5230769h-7.1076923v-34.5230769-6.0923077-5.7538461c0-3.3846154.8461539-5.923077 2.7076923-7.61538466 1.6923077-1.69230769 4.2307692-2.70769231 7.6153846-2.70769231.6769231 0 1.523077 0 2.3692308.16923077.6769231.16923077 1.6923077.33846154 3.5538462.50769231"/><path d="m87.8307692 21.8307692c5.2461539 0 9.4769231 1.8615385 12.3538458 5.4153846 2.876923 3.5538462 4.4 8.6307693 4.4 15.2307693s-1.523077 11.6769231-4.4 15.2307692c-2.8769227 3.5538462-7.1076919 5.4153846-12.3538458 5.4153846-5.2461538 0-9.476923-1.8615384-12.3538461-5.4153846-2.8769231-3.5538461-4.4-8.6307692-4.4-15.2307692 0-6.4307693 1.5230769-11.5076923 4.4-15.2307693 2.8769231-3.5538461 6.9384615-5.4153846 12.3538461-5.4153846m0 6.2615385c-3.0461538 0-5.4153846 1.1846154-7.1076923 3.5538461-1.5230769 2.3692308-2.3692307 5.923077-2.3692307 10.6615385s.8461538 8.2923077 2.3692307 10.8307692c1.5230769 2.3692308 3.8923077 3.723077 7.1076923 3.723077 3.0461539 0 5.4153846-1.1846154 6.9384616-3.723077 1.6923077-2.3692307 2.3692307-6.0923077 2.3692307-10.6615384 0-4.7384616-.8461538-8.2923077-2.3692307-10.8307693-1.523077-2.3692307-3.8923077-3.5538461-6.9384616-3.5538461"/><path d="m151.123077 6.769231h7.107692v56.523077h-7.107692z"/><path d="m1.353846 6.769231h7.107692v56.523077h-7.107692z"/><path d="m118.292308 63.2923077v-4.4c1.184615 1.1846154 2.36923 2.2 3.892307 2.8769231 1.692308.8461538 3.723077 1.3538461 5.923077 1.3538461 5.076923 0 8.969231-1.8615384 11.676923-5.4153846 2.876923-3.7230769 4.23077-8.8 4.23077-15.2307692 0-6.2615385-1.523077-11.1692308-4.4-14.8923077s-6.769231-5.4153846-11.676923-5.4153846c-2.03077 0-3.723077.5076923-5.415385 1.1846154-1.692308.8461538-3.046154 2.0307692-4.230769 3.7230769v-20.30769233h-7.107693v56.52307693zm15.907692-9.9846154c-1.692308 2.5384615-4.061538 3.7230769-7.107692 3.7230769-1.692308 0-3.215385-.3384615-4.569231-1.1846154-1.353846-.8461538-2.876923-2.0307692-4.061539-3.7230769v-19.2923077c1.353847-1.5230769 2.707693-2.876923 4.061539-3.5538461 1.353846-.8461539 2.876923-1.1846154 4.4-1.1846154 3.215385 0 5.753846 1.1846154 7.446154 3.7230769 1.692307 2.5384616 2.538461 6.2615385 2.538461 11-.338461 4.5692308-1.015384 8.1230769-2.707692 10.4923077"/><path d="m181.923077 21.8307692c5.246154 0 9.476923 1.8615385 12.353846 5.4153846 2.876923 3.5538462 4.4 8.6307693 4.4 15.2307693s-1.523077 11.6769231-4.4 15.2307692c-2.876923 3.5538462-7.107692 5.4153846-12.353846 5.4153846s-9.476923-1.8615384-12.353846-5.4153846c-2.876923-3.5538461-4.4-8.6307692-4.4-15.2307692 0-6.4307693 1.523077-11.5076923 4.4-15.2307693 2.876923-3.5538461 7.107692-5.4153846 12.353846-5.4153846m0 6.2615385c-3.046154 0-5.415385 1.1846154-7.107692 3.5538461-1.523077 2.3692308-2.369231 5.923077-2.369231 10.6615385s.846154 8.2923077 2.369231 10.8307692c1.523077 2.3692308 3.892307 3.723077 7.107692 3.723077 3.046154 0 5.415385-1.1846154 6.938461-3.723077 1.692308-2.3692307 2.369231-6.0923077 2.369231-10.6615384 0-4.7384616-.846154-8.2923077-2.369231-10.8307693-1.523076-2.3692307-3.892307-3.5538461-6.938461-3.5538461"/><path d="m201.046154 22h8.292308l7.446153 13.5384615 7.615385-13.5384615h7.784615l-11.338461 19.4615385 12.861538 21.4923077h-8.292307l-8.8-16.0769231-8.8 16.0769231h-7.784616l12.692308-21.4923077z"/></g><path d="m257.569231 35.7076923-12.184616-9.1384615c-.338461-.3384616-.507692-.6769231-.507692-.8461539 0-.3384615.169231-.6769231.507692-.8461538 0 0 12.184616-9.1384616 12.184616-9.1384616.846154-.676923 2.538461-.676923 3.553846 0 0 0 12.184615 9.1384616 12.184615 9.1384616.338462.3384615.507693.6769231.507693.8461538 0 .3384616-.169231.6769231-.507693.8461539l-12.184615 9.1384615c-1.015385.6769231-2.707692.6769231-3.553846 0" fill="#95c840"/><path d="m257.569231 65.1538462-12.184616-9.1384616c-.338461-.3384615-.507692-.6769231-.507692-.8461538 0-.3384616.169231-.6769231.507692-.8461539 0 0 12.184616-9.1384615 12.184616-9.1384615.846154-.6769231 2.538461-.6769231 3.553846 0 0 0 12.184615 9.1384615 12.184615 9.1384615.338462.3384616.507693.6769231.507693.8461539 0 .3384615-.169231.676923-.507693.8461538l-12.184615 9.1384616c-1.015385.8461538-2.707692.8461538-3.553846 0" fill="#59c9e6"/><path d="m277.2 21.1538462-12.184615-9.1384616c-.338462-.3384615-.507693-.6769231-.507693-1.0153846s.169231-.6769231.507693-.8461538c0 0 12.184615-9.13846158 12.184615-9.13846158 1.015385-.67692308 2.538462-.67692308 3.553846 0l12.184616 9.13846158c.338461.3384615.507692.676923.507692.8461538 0 .3384615-.169231.6769231-.507692 1.0153846l-12.184616 9.1384616c-1.015384.676923-2.538461.676923-3.553846 0" fill="#ebe719"/><path d="m277.2 50.6-12.184615-9.1384615c-.338462-.3384616-.507693-.6769231-.507693-.8461539 0-.3384615.169231-.6769231.507693-.8461538 0 0 12.184615-9.1384616 12.184615-9.1384616 1.015385-.676923 2.538462-.676923 3.553846 0l12.184616 9.1384616c.338461.3384615.507692.676923.507692.8461538 0 .3384616-.169231.6769231-.507692.8461539l-12.184616 9.1384615c-1.015384.6769231-2.538461.6769231-3.553846 0" fill="#50c0af"/><path d="m277.2 80.5538462-12.184615-9.1384616c-.338462-.3384615-.507693-.6769231-.507693-1.0153846s.169231-.6769231.507693-.8461538c0 0 12.184615-9.1384616 12.184615-9.1384616 1.015385-.6769231 2.538462-.6769231 3.553846 0l12.184616 9.1384616c.338461.3384615.507692.676923.507692.8461538 0 .3384615-.169231.6769231-.507692 1.0153846l-12.184616 9.1384616c-1.015384.676923-2.538461.676923-3.553846 0" fill="#0377bb"/><path d="m296.830769 35.7076923-12.184615-9.1384615c-.338462-.3384616-.507692-.6769231-.507692-.8461539 0-.3384615.16923-.6769231.507692-.8461538 0 0 12.184615-9.1384616 12.184615-9.1384616.846154-.676923 2.538462-.676923 3.553846 0 0 0 12.184616 9.1384616 12.184616 9.1384616.338461.3384615.507692.6769231.507692.8461538 0 .3384616-.169231.6769231-.507692.8461539l-12.184616 9.1384615c-.846153.6769231-2.538461.6769231-3.553846 0" fill="#78bc43"/><path d="m296.830769 65.1538462-12.184615-9.1384616c-.338462-.3384615-.507692-.6769231-.507692-.8461538 0-.3384616.16923-.6769231.507692-.8461539 0 0 12.184615-9.1384615 12.184615-9.1384615.846154-.6769231 2.538462-.6769231 3.553846 0 0 0 12.184616 9.1384615 12.184616 9.1384615.338461.3384616.507692.6769231.507692.8461539 0 .3384615-.169231.676923-.507692.8461538l-12.184616 9.1384616c-.846153.8461538-2.538461.8461538-3.553846 0" fill="#109fda"/><path d="m323.4 40.4461538c0 2.8769231-2.2 5.2461539-5.246154 5.2461539-2.876923 0-5.246154-2.3692308-5.246154-5.2461539 0-2.876923 2.2-5.2461538 5.246154-5.2461538 3.046154.1692308 5.246154 2.3692308 5.246154 5.2461538m-9.646154 0c0 2.5384616 1.861539 4.4 4.4 4.4 2.538462 0 4.4-2.0307692 4.4-4.4 0-2.5384615-1.861538-4.4-4.4-4.4-2.369231 0-4.4 2.0307693-4.4 4.4m3.384616 3.0461539h-.676924v-6.0923077h2.369231c1.353846 0 2.030769.5076923 2.030769 1.6923077 0 1.0153846-.676923 1.5230769-1.523076 1.6923077l1.861538 2.7076923h-.846154l-1.692308-2.7076923h-1.184615v2.7076923zm1.015384-3.2153846c.846154 0 1.861539 0 1.861539-1.0153846 0-.8461539-.676923-1.0153847-1.353847-1.0153847h-1.353846v2.0307693z" fill="#231f20"/></g><g fill="#231f20" transform="translate(38 95.769231)"><path d="m9.98461538 14.2153846-7.61538461-10.32307691v10.32307691h-1.69230769v-12.86153845h1.69230769l7.44615385 10.15384615v-10.15384615h1.69230768v12.86153845z"/><path d="m14.5538462 14.2153846v-12.86153845h8.4615384v1.35384616h-6.9384615v4.23076923h6.7692307v1.52307692h-6.7692307v4.40000004h6.9384615v1.3538461z"/><path d="m34.5230769 14.2153846-4.0615384-5.4153846-4.0615385 5.5846154h-2.0307692l5.076923-6.60000002-4.7384615-6.26153846h2.0307692l3.8923077 5.24615385 3.8923077-5.24615385h2.0307693l-4.7384616 6.26153846 5.0769231 6.60000002h-2.3692308z"/><path d="m41.4615385 14.2153846v-11.50769229h-4.0615385v-1.35384616h9.8153846v1.35384616h-4.0615384v11.50769229z"/><path d="m54.3230769 14.2153846v-12.86153845h1.6923077v11.50769235h6.0923077v1.3538461z"/><path d="m64.3076923 14.2153846v-12.86153845h8.4615385v1.35384616h-6.9384616v4.23076923h6.7692308v1.52307692h-6.7692308v4.40000004h6.9384616v1.3538461z"/><path d="m79.2 14.2153846-5.2461538-12.86153845h1.8615384l4.4 11.16923075 4.4-11.16923075h1.8615385l-5.2461539 12.86153845z"/><path d="m88 14.2153846v-12.86153845h8.4615385v1.35384616h-6.7692308v4.23076923h6.7692308v1.52307692h-6.7692308v4.40000004h6.9384615v1.3538461z"/><path d="m99.1692308 14.2153846v-12.86153845h1.6923072v11.50769235h6.092308v1.3538461z"/><path d="m123.2 14.2153846-7.615385-10.32307691v10.32307691h-1.692307v-12.86153845h1.692307l7.446154 10.15384615v-10.15384615h1.692308v12.86153845z"/><path d="m127.769231 14.2153846v-12.86153845h8.461538v1.35384616h-6.938461v4.23076923h6.76923v1.52307692h-6.76923v4.40000004h6.938461v1.3538461z"/><path d="m141.984615 14.2153846v-11.50769229h-4.061538v-1.35384616h9.815385v1.35384616h-4.061539v11.50769229z"/><path d="m159.753846 14.2153846-2.876923-10.49230768-2.876923 10.49230768h-1.692308l-3.723077-12.86153845h1.861539l2.876923 10.83076925 3.046154-10.83076925h1.353846l3.046154 10.83076925 2.876923-10.83076925h1.861538l-3.723077 12.86153845z"/><path d="m166.184615 7.78461538c0-3.89230769 2.538462-6.6 6.43077-6.6 3.892307 0 6.430769 2.87692308 6.430769 6.6 0 3.89230772-2.538462 6.60000002-6.430769 6.60000002-3.892308.1692308-6.43077-2.7076923-6.43077-6.60000002zm11.169231 0c0-3.04615384-1.861538-5.24615384-4.738461-5.24615384s-4.738462 2.2-4.738462 5.24615384c0 3.04615382 1.861539 5.24615382 4.738462 5.24615382s4.738461-2.2 4.738461-5.24615382z"/><path d="m189.030769 14.2153846-3.384615-5.07692306h-2.538462v5.07692306h-1.692307v-12.86153845h5.246153c2.369231 0 4.061539 1.52307693 4.061539 3.8923077s-1.523077 3.55384615-3.384615 3.72307692l3.553846 5.24615383zm0-8.96923075c0-1.52307693-1.015384-2.53846154-2.538461-2.53846154h-3.384616v4.90769231h3.384616c1.523077.16923076 2.538461-.84615385 2.538461-2.36923077z"/><path d="m201.046154 14.2153846-4.907692-5.75384614-1.353847 1.52307692v4.40000002h-1.692307v-12.86153848h1.692307v6.6l5.753847-6.6h2.030769l-5.415385 6.0923077 5.923077 6.76923078h-2.030769z"/><path d="m204.938462 14.2153846v-12.86153845h1.692307v12.86153845z"/><path d="m218.815385 14.2153846-7.615385-10.32307691v10.32307691h-1.692308v-12.86153845h1.692308l7.446154 10.15384615v-10.15384615h1.692308v12.86153845z"/><path d="m222.876923 7.78461538c0-4.06153846 3.046154-6.6 6.6-6.6 2.369231 0 3.892308 1.01538462 5.076923 2.36923077l-1.353846.84615385c-.846154-1.01538462-2.2-1.86153846-3.723077-1.86153846-2.876923 0-4.907692 2.2-4.907692 5.24615384 0 3.04615382 2.2 5.24615382 4.907692 5.24615382 1.523077 0 2.876923-.676923 3.553846-1.3538461v-2.70769233h-4.569231v-1.35384615h6.092308v4.73846158c-1.184615 1.3538461-3.046154 2.2-5.076923 2.2-3.723077 0-6.6-2.7076924-6.6-6.76923082z"/></g></g></svg>