<svg height="140" viewBox="0 0 400 140" width="400" xmlns="http://www.w3.org/2000/svg"><g fill="none"><g transform="translate(25 44)"><path d="m21.7716788 14.669075c-.9892478-1.4757018-1.5663495-3.2495398-1.5663495-5.15867463 0-1.75450989.487126-3.39450069 1.3336707-4.79385642-.6022561.95480901-19.91024797 31.80200195-19.91024797 31.80200195-.03869918.0613667-.06820732.1261159-.10545528.1879658-.0764309.126116-.14947561.2546479-.22058537.3841464-.62644309 1.0514497-1.0492317 2.2367463-1.21805691 3.5032213-.00435366.0328579-.00870732.066682-.01306097.100023-.0120935.1014727-.02370326.2034284-.03241057.3058674-.00870732.0937415-.01596342.1879661-.0217683.2821907-.00290243.0497698-.00532113.1005062-.00725609.1507592-.00580488.1246664-.00919106.2502991-.0096748.3768984 0 .0067647-.00048374.0140128-.00048374.0212609v.0043489.0072479c0 5.1282329 4.16209756 9.285711 9.29602846 9.285711 2.72248784 0 5.16585774-1.1727336 6.86426834-3.0364472.0145121-.016429.0290243-.0323747.0435365-.0483203.074496-.083111.1475407-.1671882.2191342-.2527152.0217683-.0256098.0435366-.0507364.0643374-.0768293.0720772-.0879429.1427032-.1778186.211878-.2686608.0406342-.0541188.0807846-.1087206.1204512-.1633227.0290244-.0396225.0570813-.0792451.0851383-.119351.1562479-.2222734.302821-.4513115.4392357-.6871145.0009675-.0009666.0014512-.0024161.0024187-.0038658.0145122-.0222273.0314432-.040589.0454715-.0628162l12.1094595-19.3648414-7.6305122-12.2023239c-.0353131-.057018-.0677236-.1145191-.0991668-.1725035" fill="#79bc43"/><path d="m59.0027154 41.830879c0-.0072481-.0004837-.0144962-.0004837-.0212609-.0004837-.1265993-.0043537-.252232-.0096748-.3768984-.0024186-.050253-.0043537-.1009894-.0072561-.1507592-.0058049-.0942246-.013061-.1884492-.0217683-.2821907-.0087074-.102439-.0203171-.2043947-.0328942-.3058674-.00387-.033341-.0082237-.0671651-.0125773-.100023-.1688252-1.266475-.5920976-2.4517716-1.2180569-3.5032213-.0711097-.1294985-.1441546-.2580304-.2205853-.3841464-.0367644-.0618499-.0667561-.1265991-.1054554-.1879658 0 0-19.3079919-30.84719294-19.910248-31.80200195.846061 1.39935573 1.3336707 3.03934653 1.3336707 4.79385642 0 1.90913483-.5775853 3.68297283-1.5663495 5.15867463-.0319268.0579844-.0638537.1154855-.0996505.1725035l-7.6300283 12.2023239 12.1094593 19.3648414c.0140285.0222272.0309593.0405889.0449878.0628162.0009675.0014497.0019349.0028992.0029024.0038658.1364147.235803.2829878.4648411.4392358.6871145.0280569.0401059.0561138.0797285.0851381.119351.0396668.0546021.0793334.1092039.1204513.1633227.0691748.0908422.139317.1807179.2113943.2686608.0212846.0260929.0430529.0512195.0643374.0768293.0715936.085527.1451219.1696042.219618.2527152.0145122.0159456.0285405.0318913.0435366.0483203 1.6979268 1.8637136 4.1417804 3.0364472 6.8642682 3.0364472 5.1339308 0 9.2960284-4.1574781 9.2960284-9.285711v-.0072479z" fill="#57c1e9"/><path d="m37.2310366 14.669075c.9887642-1.4757018 1.5663495-3.2495398 1.5663495-5.15867463 0-1.75450989-.4876097-3.39450069-1.3336707-4.79385642-.0290244-.0478371-.0595-.09374137-.0890081-.14061206-.0357968-.05701795-.0720773-.11403589-.1088414-.17008743-.0382154-.05750116-.0769147-.1145191-.1160976-.17153705-.0319268-.04590428-.0648212-.09132536-.0977154-.13722964-.0672399-.09374137-.1364146-.18554992-.2070407-.27639208-.0324105-.04203865-.0648212-.08359412-.0981992-.12514957-.044504-.05556834-.0899757-.11065347-.1359308-.16573861-.039183-.04590427-.0793334-.09132536-.1194839-.13722963-.068691-.07779568-.1383495-.15510814-.2094593-.23048781-.0435366-.04638748-.0870731-.09277496-.132061-.13867924-.0430529-.04445467-.0865894-.08842615-.1306097-.1319144-.0788495-.07731247-.1581829-.15317535-.2394512-.22758859-.0338618-.0314082-.0691749-.06184999-.1044878-.09277496-.0653049-.05846757-.1315773-.11596871-.1988171-.17202026-.0333781-.02802578-.0667561-.05701795-.1011017-.08456051-.0957805-.07827888-.1934959-.15510815-.2926625-.2300046-.0208009-.0154625-.0420853-.03044179-.0628863-.04590429-.0948129-.07006442-.1905934-.13819603-.2878251-.20439484-.016931-.01159687-.0338617-.02367694-.0507927-.03479062-.1160976-.07827886-.23413-.15365853-.3536139-.22662217-.0058049-.00338242-.0116097-.00676484-.0174146-.01014726-.1102927-.06716521-.223004-.130948-.3366829-.19376439-.0246708-.01352968-.0498252-.02705936-.0749796-.04058904-.1180326-.06378279-.2370326-.12466636-.3574839-.18313392-.0101585-.00483203-.0208007-.00966406-.0309592-.01449609-.1238374-.05943396-.2496098-.11645191-.3768334-.17008744-.0067723-.00289921-.013061-.00579843-.0193496-.00869765-.1320609-.05556834-.2655731-.10775425-.4005366-.15752416-.0116097-.00434882-.0237032-.00869765-.0357968-.01304648-.2708942-.0985734-.5480771-.18458352-.8300975-.25754717-.013061-.00386562-.026122-.00724804-.0396666-.01063046-.1378659-.03527382-.277183-.06716521-.4174676-.09615739-.0154795-.00338242-.0304756-.00579843-.0454715-.00869765-.1315772-.02657616-.2641219-.05025311-.3971504-.07103083-.0145122-.00241602-.0285406-.00483203-.0425691-.00724805-.1320609-.01981132-.2655731-.03624022-.3990853-.05073631-.0382154-.00386562-.0759471-.00773124-.1141627-.01111366-.1272235-.01208008-.2544471-.02222734-.3826381-.02899218-.0203171-.00144961-.0406341-.00193281-.0609512-.00289922-.0014512-.0004832-.0033863-.0004832-.0048375-.0004832-.1465732-.00676484-.2941137-.01111367-.4421381-.01111367-.1485083 0-.2955651.00434883-.4421383.01111367-.0019349 0-.0033861 0-.0053212.0004832-.0198332.00096641-.0406341.00144961-.0609512.00289922-.128191.00676484-.2554146.0169121-.3821544.02899218-.0382154.00338242-.076431.00724804-.1141627.01111366-.1339959.01449609-.2670244.03092499-.3990853.05073631-.0140284.00241602-.0285406.00483203-.0425691.00724805-.1335122.02077772-.2655732.04445467-.3971505.07103083-.0149958.00289922-.0304756.00531523-.0454714.00869765-.1402847.02899218-.2796017.06088357-.4174676.09615739-.0135446.00338242-.0266056.00676484-.0396666.01063046-.2825041.07296365-.5592032.15897377-.8305812.25754717-.0116098.00434883-.0237034.00869766-.0357968.01304648-.1344798.04976991-.267992.10195582-.3995691.15752416-.0067724.00289922-.013061.00579844-.0198334.00869765-.1272236.05363553-.2529959.11065348-.377317.17008744-.0101586.00483203-.0203171.00966406-.0304757.01449609-.1209349.05846756-.2399349.11935113-.3574836.18313392-.0251546.01352968-.0498254.02705936-.0749798.04058904-.1136788.06281639-.2263902.12659918-.3371666.19376439-.0053212.00338242-.0111261.00676484-.0169309.01014726-.1199676.07296364-.2375164.14834331-.3536139.22662217-.0169308.01111368-.0338617.02319375-.0507927.03479062-.0972317.06619881-.1934959.13433042-.2878251.20439484-.0208008.0154625-.0420854.03044179-.0628862.04590429-.0991667.07489645-.1968821.15172572-.2931463.2300046-.0338619.02754256-.06724.05653473-.1011017.08456051-.0672398.05605155-.1335122.11355269-.1988171.17202026-.0348292.03092497-.0701422.06136676-.1044878.09277496-.0807846.07441324-.1601178.15027612-.2389675.22758859-.0440203.04348825-.0875569.08745973-.1310934.1319144-.0445042.04590428-.0880407.09229176-.132061.13867924-.0711098.07537967-.1407683.15269213-.2089756.23048781-.0401505.04590427-.0803008.09132536-.1194837.13722963-.0459554.05508514-.0909432.11017027-.135931.16573861-.033378.04155545-.0657885.08311092-.0981992.12514957-.0706259.09084216-.1398008.18265071-.2070405.27639208-.0328944.04590428-.0657888.09132536-.0977156.13722964-.0391829.05701795-.077882.11403589-.1160976.17153705-.0372478.05605154-.0730446.11306948-.1088414.17008743-.0295081.04687069-.0604674.09277496-.0890081.14061206-.8465447 1.39935573-1.3336707 3.03934653-1.3336707 4.79385642 0 1.90913483.5771017 3.68297283 1.5663495 5.15867463.0314432.0579844.0638537.1154855.0991668.1725035l7.6305122 12.2023239 7.6300283-12.2023239c.0357968-.057018.0677237-.1145191.0996505-.1725035" fill="#4e9d2d"/></g><g fill="#5c676e" transform="translate(98.414634 57.658537)"><path d="m12.5665935 7.82160608-2.90195528 7.41474922h5.83728858zm-2.0244512-6.94265992h4.352691l10.392183 23.86152794h-5.9383902l-2.0583131-5.0552692h-9.27861381l-1.99107317 5.0552692h-5.80342683z"/><path d="m50.5590366 15.5398067c0 1.4153015-.2142968 2.7189831-.641439 3.9095951-.4276261 1.1910953-1.0627764 2.2246663-1.9064188 3.1007132-.8436422.8765303-1.8952927 1.5621951-3.1544674 2.0555454-1.2601424.4943166-2.710878.7417166-4.3526911.7417166-1.6650325 0-3.1268942-.2474-4.3865528-.7417166-1.2596585-.4933503-2.311309-1.1790151-3.1544675-2.0555454-.8436422-.8760469-1.4797602-1.9096179-1.9064188-3.1007132-.4276259-1.190612-.641439-2.4942936-.641439-3.9095951v-14.66086054h5.264057v14.45888174c0 .7412333.1180325 1.4268983.3540976 2.0555454.2360649.6296134.5679105 1.174183.9950527 1.6346755.4271424.4609756.9389391.8204785 1.5353903 1.0785089.5959675.2585136 1.2427277.3875287 1.9402805.3875287.6970692 0 1.3380244-.1290151 1.9233497-.3875287.5843576-.2580304 1.0903495-.6175333 1.5179756-1.0785089.4271422-.4604925.7594715-1.0050621.9955366-1.6346755.2360649-.6286471.3540975-1.3143121.3540975-2.0555454v-14.45888174h5.2640569z"/><path d="m73.7722602 7.08037275c-.5176017-.62913022-1.1527521-1.11233317-1.9064187-1.44912562-.7536666-.33727566-1.6248822-.50591349-2.6146139-.50591349-.9902154 0-1.9064186.19134836-2.750061.57307869-.8436422.38221353-1.5745732.91566958-2.1932764 1.60085136-.6187032.68566498-1.1019592 1.49986193-1.4507358 2.44355729-.3487764.94369532-.5229227 1.96615282-.5229227 3.06688912 0 1.12393.1741463 2.1517027.5229227 3.0838012.3487766.9325817.8267115 1.7414634 1.4342887 2.4266452.6070935.6856649 1.3210935 1.2191211 2.142 1.6008514.8213903.3826966 1.7042154.5730785 2.6489593.5730785 1.0797074 0 2.0355773-.224206 2.8680935-.674068.8320326-.4488955 1.5179756-1.078509 2.0583131-1.8873907l4.386069 3.2693512c-1.0119836 1.4153014-2.294378 2.4604694-3.8466992 3.1340543-1.5518373.6745512-3.1491463 1.0113438-4.7909593 1.0113438-1.8672358 0-3.5878983-.292338-5.1624715-.8760471-1.5745731-.5841924-2.9353334-1.4210997-4.0822805-2.5107225-1.1474309-1.0896225-2.0413821-2.4102162-2.6828212-3.9603312-.6409553-1.5505983-.961191-3.2804649-.961191-5.1905661 0-1.9096181.3202357-3.6399678.961191-5.19056606.6414391-1.55011505 1.5353903-2.8697423 2.6828212-3.95984813 1.1469471-1.08962265 2.5077074-1.92604694 4.0822805-2.51072251 1.5745732-.58419236 3.2952357-.87653014 5.1624715-.87653014.6748171 0 1.377691.06233318 2.108622.18554993.7309309.12369995 1.4512195.31988035 2.1594146.58950759.7086788.26962725 1.3888171.62961344 2.0418659 1.07899218.6520812.44937874 1.236439.9997469 1.7545243 1.65110446z"/><path d="m88.6182358 5.5297745h-6.8158943v-4.65082834h18.8953615v4.65082834h-6.815894v19.2106996h-5.2635732z"/><path d="m106.028516 24.7409572h5.26309v-23.86201104h-5.26309z"/><path d="m122.999561 12.8097101c0 1.12393.174146 2.1517027.523407 3.0838012.347808.9325817.848479 1.7414634 1.501044 2.4266452.652081.6856649 1.434289 1.2191211 2.345171 1.6008514.910882.3826966 1.928187.5730785 3.053366.5730785 1.124695 0 2.142483-.1903819 3.053849-.5730785.910882-.3817303 1.692122-.9151865 2.344687-1.6008514.652082-.6851818 1.152269-1.4940635 1.501529-2.4266452.348776-.9320985.522923-1.9598712.522923-3.0838012 0-1.1007363-.174147-2.1231938-.522923-3.06688912-.34926-.94369536-.849447-1.75789231-1.501529-2.44355729-.652565-.68518178-1.433805-1.21863783-2.344687-1.60085136-.911366-.38173033-1.929154-.57307869-3.053849-.57307869-1.125179 0-2.142484.19134836-3.053366.57307869-.910882.38221353-1.69309.91566958-2.345171 1.60085136-.652565.68566498-1.153236 1.49986193-1.501044 2.44355729-.349261.94369532-.523407 1.96615282-.523407 3.06688912zm-5.465776 0c0-1.9096181.320235-3.6399678.961191-5.19056606.641439-1.55011505 1.53539-2.8697423 2.682821-3.95984813 1.146947-1.08962265 2.507707-1.92604694 4.08228-2.51072251 1.57409-.58419236 3.295236-.87653014 5.162472-.87653014s3.587414.29233778 5.162471.87653014c1.57409.58467557 2.935817 1.42109986 4.082765 2.51072251 1.146947 1.09010583 2.040898 2.40973308 2.682337 3.95984813.640955 1.55059826.961675 3.28094796.961675 5.19056606 0 1.9101012-.32072 3.6399678-.961675 5.1905661-.641439 1.550115-1.53539 2.8707087-2.682337 3.9603312-1.146948 1.0896228-2.508675 1.9265301-4.082765 2.5107225-1.575057.5837091-3.295235.8760471-5.162471.8760471s-3.588382-.292338-5.162472-.8760471c-1.574573-.5841924-2.935333-1.4210997-4.08228-2.5107225-1.147431-1.0896225-2.041382-2.4102162-2.682821-3.9603312-.640956-1.5505983-.961191-3.2804649-.961191-5.1905661z"/><path d="m149.620732.87894616h7.153061l10.156118 16.58207544h.067239v-16.58207544h5.264057v23.86152794h-6.883618l-10.426044-16.98603324h-.06724v16.98603324h-5.263573z"/><path d="m179.312683 21.8422228c0-.4261851.078366-.8306258.236066-1.2133227.156731-.3817303.375865-.7127243.657402-.9944316.281052-.280741.612898-.4996318.995537-.6566729.382153-.1570409.787527-.2362862 1.215153-.2362862.426659 0 .831549.0792453 1.214188.2362862.382154.1570411.714.3759319.995537.6566729.281051.2817073.500185.6127013.657885.9944316.157215.3826969.236549.7871376.236549 1.2133227 0 .4271514-.079334.8315923-.236549 1.2133226-.1577.3822135-.376834.7136906-.657885.9944316-.281537.2812241-.613383.500115-.995537.6571561-.382639.1570409-.787529.235803-1.214188.235803-.427626 0-.833-.0787621-1.215153-.235803-.382639-.1570411-.714485-.375932-.995537-.6571561-.281537-.280741-.500671-.6122181-.657402-.9944316-.1577-.3817303-.236066-.7861712-.236066-1.2133226"/><path d="m208.19437 7.08037275c-.518085-.62913022-1.153236-1.11233317-1.906902-1.44912562-.753668-.33727566-1.624883-.50591349-2.614614-.50591349-.990215 0-1.905935.19134836-2.749578.57307869-.844125.38221353-1.574573.91566958-2.193759 1.60085136-.618705.68566498-1.101961 1.49986193-1.450737 2.44355729-.348775.94369532-.522922 1.96615282-.522922 3.06688912 0 1.12393.174147 2.1517027.522922 3.0838012.348776.9325817.826712 1.7414634 1.434289 2.4266452.607094.6856649 1.321577 1.2191211 2.142484 1.6008514.820906.3826966 1.703732.5730785 2.648476.5730785 1.079707 0 2.035576-.224206 2.868093-.674068.832032-.4488955 1.518459-1.078509 2.058312-1.8873907l4.386071 3.2693512c-1.011985 1.4153014-2.294378 2.4604694-3.846217 3.1340543-1.55232.6745512-3.149629 1.0113438-4.791442 1.0113438-1.866753 0-3.587899-.292338-5.161988-.8760471-1.575058-.5841924-2.935817-1.4210997-4.082765-2.5107225-1.146947-1.0896225-2.041381-2.4102162-2.682337-3.9603312-.640956-1.5505983-.962158-3.2804649-.962158-5.1905661 0-1.9096181.321202-3.6399678.962158-5.19056606.640956-1.55011505 1.53539-2.8697423 2.682337-3.95984813 1.146948-1.08962265 2.507707-1.92604694 4.082765-2.51072251 1.574089-.58419236 3.295235-.87653014 5.161988-.87653014.674817 0 1.378174.06233318 2.108622.18554993.73093.12369995 1.45122.31988035 2.159415.58950759.708678.26962725 1.388817.62961344 2.041866 1.07899218.65208.44937874 1.236922.9997469 1.754524 1.65110446z"/><path d="m222.601593 12.8097101c0 1.12393.173663 2.1517027.522924 3.0838012.348776.9325817.848963 1.7414634 1.502012 2.4266452.651598.6856649 1.43332 1.2191211 2.344203 1.6008514.911366.3826966 1.929154.5730785 3.053849.5730785s2.142485-.1903819 3.053366-.5730785c.911365-.3817303 1.692606-.9151865 2.34517-1.6008514.652083-.6851818 1.152753-1.4940635 1.501529-2.4266452.348293-.9320985.522923-1.9598712.522923-3.0838012 0-1.1007363-.17463-2.1231938-.522923-3.06688912-.348776-.94369536-.849446-1.75789231-1.501529-2.44355729-.652564-.68518178-1.433805-1.21863783-2.34517-1.60085136-.910881-.38173033-1.928671-.57307869-3.053366-.57307869s-2.142483.19134836-3.053849.57307869c-.910883.38221353-1.692605.91566958-2.344203 1.60085136-.653049.68566498-1.153236 1.49986193-1.502012 2.44355729-.349261.94369532-.522924 1.96615282-.522924 3.06688912zm-5.466259 0c0-1.9096181.320719-3.6399678.961674-5.19056606.641439-1.55011505 1.53539-2.8697423 2.682338-3.95984813 1.146947-1.08962265 2.508191-1.92604694 4.082764-2.51072251 1.574573-.58419236 3.295236-.87653014 5.162471-.87653014 1.866753 0 3.587899.29233778 5.162472.87653014 1.574089.58467557 2.935333 1.42109986 4.082764 2.51072251 1.146947 1.09010583 2.041383 2.40973308 2.682337 3.95984813.640956 1.55059826.961192 3.28094796.961192 5.19056606 0 1.9101012-.320236 3.6399678-.961192 5.1905661-.640954 1.550115-1.53539 2.8707087-2.682337 3.9603312-1.147431 1.0896228-2.508675 1.9265301-4.082764 2.5107225-1.574573.5837091-3.295719.8760471-5.162472.8760471-1.867235 0-3.587898-.292338-5.162471-.8760471-1.574573-.5841924-2.935817-1.4210997-4.082764-2.5107225-1.146948-1.0896225-2.040899-2.4102162-2.682338-3.9603312-.640955-1.5505983-.961674-3.2804649-.961674-5.1905661z"/><path d="m249.222764.87894616h7.962841l5.499639 15.57073174h.067724l5.533015-15.57073174h7.929464v23.86152794h-5.263574v-18.30082845h-.067722l-6.275558 18.30082845h-4.01504l-6.039492-18.30082845h-.067724v18.30082845h-5.263573z"/></g></g></svg>