<svg height="140" viewBox="0 0 400 140" width="400" xmlns="http://www.w3.org/2000/svg"><g fill="#0067db" transform="translate(27 41)"><path d="m6.07733464 0v18.4089758h22.76021396v-18.4089758h6.1624514v44h-6.1624514v-20.6384365h-22.76021396v20.6384365h-6.07733464v-44z"/><path d="m78 27.745542c0 11.3195182-9.1877256 16.254458-17.8339349 16.254458-9.6931408 0-17.1660651-6.0761445-17.1660651-15.745542 0-10.2245785 7.8519854-16.254458 17.7617328-16.254458 10.2888088.0154217 17.2382672 6.3845783 17.2382672 15.745542zm-28.3935017.3084338c0 6.7238555 4.5126354 11.766747 10.8844765 11.766747 6.2093863 0 10.8844765-4.9966264 10.8844765-11.8901203 0-5.1971085-3.0324911-11.7667471-10.7220216-11.7667471-7.725632.0154217-11.0469314 6.0915663-11.0469314 11.8901204z"/><path d="m81.2693791 21.1968504c0-3.2283465-.0673448-5.8740157-.2693791-8.4566929h5.3202386l.2693792 5.023622h.2020343c1.8688179-2.9606299 4.9666782-5.7480315 10.5057875-5.7480315 4.5457734 0 7.9971944 2.5669292 9.4619434 6.2519685h.151526c1.043844-1.7322834 2.357067-3.1023622 3.737635-4.0787401 2.003508-1.4015748 4.20905-2.1889764 7.374255-2.1889764 4.411084 0 10.977201 2.7086614 10.977201 13.5748031v18.4094488h-5.960014v-17.6850392c0-6.0000001-2.357068-9.6062993-7.256401-9.6062993-3.451421 0-6.145213 2.3779527-7.172221 5.1653543-.269379.7716536-.471413 1.8110236-.471413 2.8503937v19.2913386h-5.943178v-18.7244094c0-4.976378-2.3402314-8.5984253-6.987022-8.5984253-3.7881446 0-6.549281 2.8503938-7.5257804 5.6692914-.3535602.8346457-.4714135 1.8110236-.4714135 2.7716535v18.8661417h-5.943178z"/><path d="m144.463346 30.0840811c.166201 7.9981108 6.020146 11.2905055 12.83436 11.2905055 4.875209 0 7.792949-.7387812 10.359821-1.6863484l1.144935 4.2399622c-2.400671.9315067-6.50028 2.0717996-12.428092 2.0717996-11.504756 0-18.37437-6.6329713-18.37437-16.4619744 0-9.8290034 6.648013-17.5380256 17.543369-17.5380256 12.206491 0 15.456631 9.331129 15.456631 15.3056211 0 1.2205953-.1662 2.1521021-.2216 2.7463392h-26.315054zm19.907107-4.207841c.092334-3.7581485-1.754336-9.604157-9.418019-9.604157-6.88808 0-9.879686 5.5087388-10.415221 9.604157z"/><path d="m185.34379 30.1553743-4.968207 13.8446257h-6.375583l16.244171-44h7.443832l16.311997 44h-6.596015l-5.103858-13.8446257zm15.667655-4.448386-4.679949-12.6583895c-1.068249-2.8719404-1.763459-5.49414686-2.475625-8.03831147h-.152607c-.712166 2.60659809-1.492158 5.29123807-2.4078 7.96026957l-4.679949 12.7364314z"/><path d="m220.57449 12 4.631633 16.2687748c1.006122 3.5889328 1.960204 6.8616599 2.619387 10.1976284h.22551c.79796-3.256917 1.942857-6.6719368 3.105103-10.1976284l5.724489-16.2687748h5.377551l5.429592 16.0158103c1.301021 3.8418973 2.32449 7.2094862 3.105102 10.4505929h.208163c.572449-3.256917 1.526531-6.6086956 2.688776-10.403162l4.995918-16.0632412h6.314286l-11.292857 32h-5.828572l-5.360204-15.2727274c-1.231632-3.5573121-2.255102-6.750988-3.122449-10.5138339h-.156122c-.884694 3.8418973-1.960204 7.1462451-3.209184 10.5928854l-5.655102 15.1936759h-5.793877l-10.581633-32z"/><path d="m291.447956 37.4718941c0 2.8266416.150558 5.5729808.552044 7.7893246h-5.587361l-.501858-4.095418h-.200744c-1.907063 2.5375531-5.537175 4.8341993-10.355018 4.8341993-6.875465 0-10.355019-4.6254134-10.355019-9.3471893 0-7.8535664 7.276952-12.1417101 20.358736-12.0935287v-.6745394c0-2.6820974-.769517-7.5162967-7.678439-7.5162967-3.144981 0-6.44052.9315069-8.815985 2.4251299l-1.388476-3.9026925c2.793681-1.7505904 6.858736-2.8908833 11.124536-2.8908833 10.355019 0 12.881041 6.7775153 12.881041 13.2980633zm-5.955391-8.817194c-6.708178-.1445441-14.336431 1.0118092-14.336431 7.323571 0 3.8223901 2.659851 5.653283 5.804833 5.653283 4.416356 0 7.210037-2.6820974 8.180297-5.4444971.200743-.6102975.351301-1.2687763.351301-1.8951346z"/><path d="m303.940064 12.0159004 7.68612 19.0169374c.798107 2.1306604 1.682965 4.6429313 2.255519 6.5827861h.156153c.641954-1.9239543 1.370662-4.3885239 2.255519-6.7099896l6.957412-18.9056343h6.749213l-9.577286 22.9284479c-4.025238 9.6674734-7.217667 15.4393364-12.058362 19.2713447-3.105678 2.5122709-6.228704 3.5139992-7.842269 3.8002074l-1.578864-4.9132388c1.578864-.4770134 3.695583-1.3992395 5.58675-2.8620808 1.735014-1.2561356 3.903786-3.5298999 5.378549-6.5191843.277601-.604217.520505-1.0653301.520505-1.3992396s-.156153-.7950225-.451106-1.5105426l-12.977917-28.7798135z"/><path d="m9.59659091 4.18295455c0 2.27045454-2.04545455 4.09602272-4.63636364 4.09602272s-4.67045454-1.82556818-4.67045454-4.09602272c0-2.28579546 2.0625-4.06534091 4.6875-4.06534091 2.57386363 0 4.61931818 1.77954545 4.61931818 4.06534091zm-8.13068182 0c0 1.82556818 1.51704546 3.25227272 3.52840909 3.25227272 1.96022727.04602273 3.44318182-1.42670454 3.44318182-3.20625 0-1.81022727-1.5-3.26761363-3.49431818-3.26761363-1.94318182-.03068182-3.47727273 1.42670454-3.47727273 3.22159091zm2.79545455 2.10170454h-1.05681819v-4.06534091c.42613637-.06136363.98863637-.13806818 1.73863637-.13806818.86931818 0 1.24431818.13806818 1.53409091.32215909.27272727.16875.46022727.47556818.46022727.87443182 0 .49090909-.42613636.81306818-.92045455.96647727v.06136364c.44318182.13806818.64772728.44488636.80113637.98181818.15340909.61363636.25568182.82840909.34090909.98181818h-1.09090909c-.15340909-.15340909-.20454546-.49090909-.35795455-.98181818-.08522727-.41420455-.35795454-.62897727-.95454545-.62897727h-.51136364zm.01704545-2.27045454h.51136364c.5625 0 1.03977272-.16875 1.03977272-.58295455 0-.38352273-.28977272-.62897727-.9715909-.62897727-.27272728 0-.46022728.01534091-.5625.06136363z" transform="translate(336 14)"/></g></svg>