<svg height="140" viewBox="0 0 400 140" width="400" xmlns="http://www.w3.org/2000/svg"><g fill="none" transform="translate(25 40)"><path d="m5.79296976 0 7.69414144 12.8840651-13.4871112 12.863272h23.3178525l2.1917356-5.155417h-12.8658038l7.7850496-7.7420335-4.5473543-7.69596988h21.2155248l-18.6245012 43.99496088h6.3815052l20.8251683-49.1488776z" fill="#00cdff"/><path d="m310.954475 42.0430842c-4.110793-.5559745-6.529002-1.3497918-6.529002-4.0449449 0-2.4572868 2.418209-3.963179 5.40259-3.963179 2.415232 0 5.480065.9528714 7.412556 2.379975l2.580615-3.8085789c-2.418209-1.9816013-6.286143-3.0102842-9.914195-3.0102842-6.20569 0-10.799225 3.7253363-10.799225 8.6399099 0 5.6296492 3.626551 7.4521728 9.750288 8.4035674 3.467146.5559745 6.450026.9514181 6.450026 3.8844139 0 2.4572868-2.418185 3.807102-5.642472 3.807102-3.14381 0-5.964307-.8726293-8.705829-3.0147616l-2.334755 4.203999c2.01292 1.8225471 6.20269 3.2496507 10.879678 3.2496507 6.447049 0 11.121061-3.7268366 11.121061-8.7202223 0-6.0250458-4.834918-7.3733607-9.671336-8.006647m-147.190083-.0093768c-4.110793-.5559746-6.529002-1.3497918-6.529002-4.0449449 0-2.4572868 2.418209-3.963179 5.401112-3.963179 2.416709 0 5.480066.9528714 7.412533 2.379975l2.580615-3.8070786c-2.416709-1.9831016-6.286143-3.0117845-9.914195-3.0117845-6.205666 0-10.800702 3.7268131-10.800702 8.6399099 0 5.631126 3.628052 7.4536497 9.754766 8.4050677 3.465645.5544742 6.447049.9513946 6.447049 3.8843904 0 2.4573103-2.419686 3.8056252-5.640995 3.8056252-3.14381 0-5.965784-.8726293-8.707306-3.0132847l-2.336255 4.2010453c2.01442 1.8240239 6.207166 3.2511275 10.881155 3.2511275 6.448549 0 11.122561-3.7253363 11.122561-8.7201988 0-6.0250693-4.834918-7.3719074-9.671336-8.0066705m173.906537 12.1274268c-5.15973 0-8.704328-4.0449448-8.704328-9.9109365 0-5.4690947 3.063357-10.1488027 8.05918-10.1488027 5.724426 0 7.254604 4.7584966 7.41701 7.6929927h-9.894808l-1.853514 4.2813108h17.147935c.078999-1.111949.078999-1.4271036.078999-1.9830781 0-8.086936-4.109316-14.5074253-12.976051-14.5074253-7.656892 0-13.540747 6.1811462-13.540747 14.6650026 0 8.7216757 5.640972 14.5074019 13.701653 14.5074019 4.837895 0 9.109618-1.7422582 11.688733-4.8343082l-3.225764-3.0935502c-2.094873 2.1421322-4.834917 3.331393-7.898274 3.331393m-96.935282-23.3881786c-1.692584-.7120515-3.546098-.8726059-4.595012-.8726059-2.981403 0-6.20569 1.1892608-7.734391 3.331393h-.245836v-3.0935502h-5.156754v28.1436981h5.32066v-15.378531c0-5.9462806 3.222763-8.3233019 7.494486-8.3233019 1.451202 0 2.418185.1561239 3.708505.4742321zm-148.0646815-.0787652c-1.6925845-.7135518-3.5460986-.7923404-4.5950354-.7923404-2.9829039 0-5.8823542 1.1892608-7.415533 3.326939h-.2413591v-3.0890728h-5.1582534v28.1436981h5.3206598v-15.3800313c0-5.9462806 2.9009506-8.3247787 7.1726501-8.3247787 1.4512255 0 2.418209.1591713 3.7085284.475709zm-46.9918128-10.0685138v5.0751281h11.928615v32.5811093h5.6439488v-32.5811093h11.928615v-5.0751281zm65.7712663 26.79686c0 4.199545-3.465646 6.8961749-8.302064 6.8961749-2.90095 0-5.3996125-1.3468147-5.3996125-4.6782312 0-3.0890728 2.5791155-5.1509395 6.5290025-5.1509395 3.546099 0 5.883854.6332628 7.172674 1.5846809zm-7.495986-17.8388184c-3.142334 0-6.1252375.4742322-8.3810166 1.3468381l.886507 4.284288c2.5791385-.7938408 4.6740116-1.111949 6.7703846-1.111949 4.513082 0 8.220111 2.0618667 8.220111 6.6598089v.7923404c-1.449726-.5529973-3.707029-1.268026-7.011745-1.268026-7.2546264 0-12.0090676 3.6465477-12.0090676 9.5928048 0 6.1841234 4.6739881 8.9580651 9.9126946 8.9580651 4.353653 0 7.335057-1.7422582 8.868235-3.8056252h.239883v3.2526278h5.15973v-17.6009755c0-7.6885154-4.997324-11.1001974-12.655716-11.1001974zm32.723965 0c-3.546099 0-6.770362 1.3498153-8.382493 4.1237335h-.239906v-3.567759h-5.159707v28.1422213h5.319136v-15.218c0-5.5508371 2.821998-8.8822301 7.256104-8.8822301 4.188269 0 6.688431 2.219444 6.688431 7.3718839v16.7283462h5.31916v-17.6782639c0-7.1340412-4.18977-11.0199319-10.800725-11.0199319m47.958819 0c0-3.48747 1.692585-5.4705715 4.916848-5.4705715 1.209866 0 3.143833.3181317 4.675512.8741062l1.691084-3.8858907c-2.094873-1.0301832-4.593535-1.4271036-6.527502-1.4271036-5.40109 0-10.075101 2.695153-10.075101 9.9094596v.8726294h-3.546099v4.4403649h3.546099v23.3852015h5.319159v-23.3852015h5.399613l1.854991-4.4403649h-7.254604zm21.036733 24.577416c-5.158254 0-8.704352-4.0449448-8.704352-9.9109365 0-5.4690713 3.06188-10.1488027 8.060681-10.1488027 5.722948 0 7.254603 4.75852 7.415533 7.6929927h-9.893332l-1.852014 4.2813108h17.144958c.079-1.111949.079-1.4271036.079-1.9830781 0-8.086936-4.109317-14.5074019-12.976052-14.5074019-7.656915 0-13.539269 6.1811463-13.539269 14.6649792 0 8.7216991 5.639494 14.5074019 13.700175 14.5074019 4.837895 0 9.108118-1.7422582 11.688733-4.8343082l-3.224286-3.0935502c-2.094873 2.1421556-4.836395 3.331393-7.899752 3.331393m73.992853-33.5354576-6.610956 29.25267h-.239882l-6.850838-19.7371536h-4.755941l-7.819299 19.7371536h-.241382l-5.238683-29.25267h-5.722949l7.171174 37.6562374h5.320659l8.464447-20.849126h.239882l7.338057 20.849126h5.317659l9.108118-37.6562374zm8.866759-.0015003h5.801901v5.7084144h-5.801901zm.241359 9.5140396h5.317659v28.1436981h-5.317659z" fill="#22314c"/></g></svg>