<svg height="140" viewBox="0 0 400 140" width="400" xmlns="http://www.w3.org/2000/svg"><g fill="none"><circle cx="200" cy="70" fill="#f90" r="45"/><circle cx="200.5" cy="70.5" fill="#900" r="41.5"/><path d="m8.58610271 10.9075145h-4.58912386v-10.61271681h-3.70090634v13.51156071h8.2900302zm14.06344409 2.8988439h3.7009063v-10.56358384h5.4773415v10.56358384h3.7009063v-10.56358384h2.7633434v-2.94797687h-18.4551863v2.94797687h2.8126888zm21.1691843.2456647c3.7995972 0 5.082578-1.9653179 5.082578-7.02601153 0-5.06069365-1.2829808-7.02601157-5.082578-7.02601157s-5.082578 1.96531792-5.082578 7.02601157c.0493454 5.06069363 1.2829808 7.02601153 5.082578 7.02601153zm0-11.64450865c1.1349446 0 1.2336354.98265896 1.2336354 4.61849712 0 3.63583813-.0986908 4.61849713-1.2336354 4.61849713s-1.2336354-.982659-1.2336354-4.61849713c0-3.63583816.0986908-4.61849712 1.2336354-4.61849712zm-29.5085599 11.64450865c3.7995972 0 5.0825781-1.9653179 5.0825781-7.02601153 0-5.06069365-1.2829809-7.02601157-5.0825781-7.02601157s-5.08257803 1.96531792-5.08257803 7.02601157c0 5.06069363 1.28298083 7.02601153 5.08257803 7.02601153zm0-11.64450865c1.1349446 0 1.2336355.98265896 1.2336355 4.61849712 0 3.63583813-.0986909 4.61849713-1.2336355 4.61849713s-1.2336354-.982659-1.2336354-4.61849713c0-3.63583816.0986908-4.61849712 1.2336354-4.61849712zm-6.06948639 33.01734105c-3.01007049 2.6040462-8.24068481 7.4190751-8.24068481 15.5751445h23.2416919v-6.3381503h-12.8791541c.8882175-1.9653179 3.55287-4.0780347 7.1057401-7.3208092 4.5397785-4.0780347 5.773414-6.0433527 5.773414-11.2023122 0-5.4046243-2.4179255-9.6791907-11.2507553-9.6791907-7.79657607 0-11.74420951 3.4884393-11.74420951 10.4161849v1.1300579h8.04330312c0-2.6040463 0-6.3381503 3.30614299-6.3381503 2.4672709 0 3.0100705 1.817919 3.0100705 4.5202312-.0493454 2.5549133-.0986908 3.9797687-6.36555889 9.2369942zm37.30513599-18.2774567h-9.2275932l-11.8429003 20.83237v6.3381503h13.0765357v6.6820809h8.0433032v-6.6820809h3.4048338v-6.3381503h-3.4048338zm-7.9939578 20.83237h-6.2175226l6.1188318-11.5462428h.0986908z" fill="#fff" transform="translate(176 45)"/></g></svg>