<svg height="140" viewBox="0 0 400 140" width="400" xmlns="http://www.w3.org/2000/svg"><g fill="none" transform="translate(25 28)"><path d="m59.3352018 1.6558296c-5.437584-.8654359-10.9946024-.61175174-16.3307175.74551569 26.5168161 6.69394619 54.3991031 26.34417041 58.6681617 45.42152471 1.575326-2.0887749 2.892776-4.3600587 3.923767-6.764574 6.325112-16.4091929-30.817265-37.04820631-46.2612112-39.4024664z" fill="#6778f2"/><path d="m12.0930493 31.853139c5.9562781-14.588565 16.8957399-25.8340807 30.9192825-29.45179371-11.8183856-2.98991031-23.3934977-3.39798206-32.4338565-.0470852-18.5358744 7.61210762-9.13452911 49.16479821 1.0672646 63.75336321 15.9618834 22.8284754 46.543722 21.9730942 69.9136771 11.1748879 17.366592-7.9887892 22.545964-18.6457399 20.121076-29.4753363-24.2567262 32.4495516-111.18385623 37.1345291-89.5874437-15.9540359z" fill="#92deff"/><path d="m43.0123318 2.40134529c-14.0235426 3.61771301-24.9630044 14.86322871-30.9192825 29.45179371-21.59641253 53.088565 65.3307175 48.411435 89.5874437 15.969731-4.269058-19.0852018-32.1591926-38.72757852-58.6681612-45.42152471z" fill="#3b69f2"/><path d="m64.6872197 27.5526906c-3.2038193-.0015075-6.2602528 1.3458299-8.4204036 3.7118834-3.1767966-3.4810835-8.1668716-4.6509509-12.5598253-2.9445109-4.3929536 1.7064401-7.2848296 5.9380464-7.2787493 10.6507889v14.0078476h6.0033728v-14.0078476c.0000001-2.9905104 2.4242878-5.414798 5.4147983-5.414798 2.9905104 0 5.4147981 2.4242876 5.4147982 5.414798v14.0078476h6.0033632v-14.0078476c0-2.9905105 2.4242877-5.4147982 5.4147982-5.4147982s5.4147982 2.4242877 5.4147982 5.4147982v14.0078476h6.0269058v-14.0078476c-.0086597-6.3086144-5.1252361-11.4181674-11.4338565-11.4181614z" fill="#fff"/><path d="m33.7443946 18.9988139c2.3783263-.0128681 4.3172346 1.9038764 4.3317255 4.2821941.0143292 2.3783178-1.9012109 4.3184161-4.2795192 4.334303-2.3783084.015887-4.3195958-1.8984479-4.3370259-4.276746-.0129823-2.38071 1.9041365-4.3224073 4.2848196-4.3397511z" fill="#fff"/><g fill="#333e48"><path d="m129.397982 31.923767h6.850897v27.497758h-6.850897z"/><path d="m184.934978 59.4215247h-7.227579v-23.6446189l-10.986547 23.6446189h-5.493274l-10.986547-23.6446189v23.6446189h-7.227578v-40.4226458h6.913677l14.086323 29.1771301 14.007847-29.1771301h6.913678z"/><path d="m219.056054 30.1423767v29.279148h-6.850897v-3.9237669c-1.820628 2.9506727-5.658072 4.7085202-9.048206 4.7085202-8.922646 0-15.02018-7.0627802-15.02018-15.3890134s6.097534-15.3890135 15.02018-15.3890135c3.390134 0 7.227578 1.7578476 9.048206 4.7085202v-3.9237668h6.850897zm-6.850897 14.6356502c0-5.0224215-3.390135-9.2993273-8.632287-9.2993273-5.147982 0-8.545964 4.2690582-8.545964 9.2993273s3.390134 9.2993381 8.545964 9.2993381c5.242152.0078368 8.632287-4.269069 8.632287-9.2914906z"/><path d="m223.152466 30.1423767h6.850897v4.0807175c1.820628-3.1390135 5.21861-4.8340807 9.550449-4.8340807 4.206278 0 7.164798 1.5067264 8.797085 3.9237668 1.443946 2.1973094 1.883408 4.6457399 1.883408 8.632287v17.4764574h-6.850897v-15.1378924c0-5.0224215-1.443946-8.8598655-6.348655-8.8598655-4.7713 0-7.06278 3.8295964-7.06278 8.8598655v15.1457399h-6.850897v-29.2869955z"/><path d="m284.496637 30.1423767v29.279148h-6.850897v-3.9237669c-1.820628 2.9506727-5.658072 4.7085202-9.048206 4.7085202-8.922646 0-15.02018-7.0627802-15.02018-15.3890134s6.097534-15.3890135 15.02018-15.3890135c3.390134 0 7.227578 1.7578476 9.048206 4.7085202v-3.9237668h6.850897zm-6.850897 14.6434977c0-5.0224215-3.390135-9.2993273-8.632287-9.2993273-5.147982 0-8.545964 4.2690583-8.545964 9.2993273 0 5.0302691 3.390134 9.2993274 8.545964 9.2993274 5.242152 0 8.632287-4.2769058 8.632287-9.2993274z"/><path d="m318.609865 60.8654709c0 9.8015695-5.909192 13.9450672-15.647982 13.9450672-9.738789 0-14.384529-5.9641255-14.76121-12.030269h6.913677c.376681 3.1390134 2.887892 5.9719731 7.847533 5.9719731 5.493274 0 8.797086-2.3542601 8.797086-7.8475337v-5.4383408c-1.820628 2.9506727-5.658072 4.7085202-9.048207 4.7085202-8.922645 0-15.020179-7.0627803-15.020179-15.3890135 0-8.3262331 6.097534-15.3890134 15.020179-15.3890134 3.390135 0 7.227579 1.7578475 9.048207 4.7085202v-3.9237669h6.850896zm-24.060538-16.087444c0 5.0224215 3.390135 9.2993274 8.545964 9.2993274 5.281391 0 8.632287-4.2690583 8.632287-9.2993274s-3.390134-9.2993273-8.632287-9.2993273c-5.155829.0078475-8.545964 4.2769058-8.545964 9.3071748z"/><path d="m328.725336 46.8576233c.062781 4.206278 2.134529 7.6042601 7.667041 7.6042601 3.923766 0 5.34417-1.7578475 6.223094-3.8295964h6.913677c-.941704 5.0224215-5.658072 9.5504484-13.128924 9.5504484-9.86435 0-14.63565-7.4159193-14.63565-15.3890134 0-8.7970852 5.21861-15.3890135 14.447309-15.3890135 7.60426 0 13.568386 5.720852 13.568386 13.1917041.022744 1.4295289-.082308 2.8582305-.313901 4.2690583h-20.741032zm.086323-5.0930493h14.321749c0-4.0807175-2.950673-6.6625561-7.06278-6.6625561-4.07287.0078476-7.258969 2.3307175-7.258969 6.6625561z"/><path d="m132.795964 18.9988137c2.383688-.0129013 4.326567 1.9089359 4.339623 4.292624.012925 2.3836881-1.908893 4.3265863-4.292581 4.3396657-2.383688.0129481-4.326605-1.9088505-4.339672-4.2925384-.00868-2.3819869 1.91069-4.3224098 4.29263-4.3397513z"/></g></g></svg>