<svg height="140" viewBox="0 0 400 140" width="400" xmlns="http://www.w3.org/2000/svg"><g fill="none" transform="translate(27 36)"><path d="m66.7452209 34.9023037c-1.7058634-10.3637999-11.4338956-17.3349657-21.6690763-15.5689371l2.9967871-17.35820294-10.9959036-1.97516366c-.9220883 2.09134976-5.0714859 11.6186098-7.0770281 22.3077307 4.080241 2.7884664 7.0770281 7.2035381 7.9760643 12.5480986.9220883 5.6466443-.6915663 11.1538654-4.0571888 15.243616.8298795 1.0224377 1.7750201 1.9519264 2.8354217 2.7884663 4.2646586 3.3926341 9.4514056 4.7171556 14.5228916 3.8573785 10.3043373-1.7195543 17.22-11.5256609 15.4449799-21.8429864z" fill="#064752"/><path d="m29.8727274 23.5064833.2318693-1.1613875c-3.9417772-2.6944191-8.8110314-3.9022621-13.865781-3.0660631l3.0143002-17.32790168-11.03697616-1.95113102c-.97385084 2.16018077-5.42574038 12.3107076-7.3270682 23.4600278-1.53033704 9.0123671-1.46077626 18.6751112 3.24616945 25.480842 1.04341161 1.4633483 2.27231862 2.78733 3.7562818 3.9487175 4.31276801 3.3912516 9.55301301 4.7152333 14.65413641 3.8558066 4.6837588-.7665158 8.6487229-3.251885 11.4543408-6.6199088l-.8811031-1.1613876c-4.7301327-6.782503-4.7996935-16.4452471-3.2461695-25.4343865z" fill="#2bb2f0"/><path d="m37.7312721 35.1804511c-.9890368-5.1879699-4.2034062-9.4736842-8.5551679-12.1804511l-.2472592 1.1278195c-1.6071847 8.7518797-1.533007 18.1353384 3.5110805 24.744361l.9148589 1.1278195c3.6099842-4.0601504 5.3902503-9.3834586 4.3517618-14.887218z" fill="#9ef669"/><path d="m288.973185 52.4673965h-6.576859c-.23158 0-.393685.1166111-.463159.3031889-.926319 2.4721562-2.223164 4.5245122-4.0758 5.9704903-1.852637 1.3993336-4.237906 2.2389338-7.341072 2.2389338-4.237906 0-7.642126-1.8657782-9.957921-4.9909567-2.315796-3.1485007-3.612642-7.5097572-3.612642-12.5007139 0-5.0376012 1.273688-9.3988577 3.612642-12.500714 2.315795-3.1018562 5.743173-4.9676344 9.957921-4.9676344 3.080008 0 5.442119.8162779 7.294756 2.2389338 1.852636 1.4459781 3.126324 3.4983341 4.0758 5.9005236.069474.1865778.231579.3265112.463159.3265112h6.600017c.092632 0 .23158-.0466445.301054-.1399334.092632-.0699667.138947-.1865778.138947-.3265112v-.1166111c-1.042108-4.4778677-3.195797-8.1627796-6.391595-10.7282247-3.195798-2.565445-7.36423-4.0580676-12.551612-4.0580676-6.021069 0-11.347399 2.4954784-15.168461 6.763446-3.821063 4.2912899-6.136859 10.3783913-6.136859 17.6782485s2.315796 13.4102808 6.136859 17.6782484c3.821062 4.3146121 9.147392 6.763446 15.191619 6.763446 5.187382 0 9.40213-1.4459781 12.621086-4.0347454 3.195797-2.565445 5.372645-6.2970014 6.368437-10.8448358v-.1166111c0-.1399334-.046316-.2332223-.138947-.3498334-.046316-.0699667-.185264-.1166111-.324212-.1166111zm57.732784-19.6373156c-.463159-.0932889-1.111582-.1865778-2.014742-.1865778-.787371 0-1.760005.0699667-2.871587.2798667-.926318.1865778-1.92211.5597335-2.848428 1.0728225s-1.852637 1.2127558-2.686323 2.052356c-.463159.4664446-.926318 1.0495002-1.343161 1.7025226l-.301054.4664446v-4.5245122c0-.2798667-.231579-.513089-.463159-.513089h-6.298964c-.23158 0-.463159.2332223-.463159.513089v33.1175631c0 .2332223.231579.4664445.463159.4664445h6.34528c.277895 0 .509475-.2332222.509475-.4664445v-16.092337c0-1.8657782.23158-3.4516897.625265-4.7577344.416843-1.3060447 1.042108-2.3322227 1.852636-3.1251785.856845-.7929557 1.806321-1.3993336 2.917903-1.7958115 1.296845-.4664446 2.709481-.6063779 3.936852-.6063779.926318 0 1.852637.0932889 2.38527.1865778h.069473c.277896 0 .46316-.1865778.46316-.4664445v-6.8100905c.069473-.2332223-.092632-.4664445-.34737-.513089zm-136.469833-13.7601142h-.11579l-6.368438 1.1194669c-.23158.0466445-.463159.2332223-.463159.4664446v46.131366c0 .2798667.231579.513089.532633.513089h6.414754c.231579 0 .463159-.2332223.463159-.513089v-47.2041885c0-.2798667-.23158-.513089-.532633-.513089zm-13.130561 27.3802951c-.926319-1.9124227-2.223164-3.5449786-3.821063-4.8976678l-.463159-.3498334c-.694739-.5364112-1.458951-1.026178-2.26948-1.3993337l-.231579-.1166111.162105-.1632556c.741055-.8629224 1.389478-1.8657782 1.852637-2.9386007.694738-1.5625892 1.042108-3.1718229 1.042108-4.8510233 0-1.8191337-.370528-3.4983341-1.065266-5.13089-.694739-1.632556-1.690531-2.9852452-2.941061-4.1513565-1.157897-1.0728225-2.547375-1.9124227-4.122116-2.5188006s-3.543167-.9328891-5.858963-.9328891h-14.033721c-.277895 0-.509475.2332223-.509475.5364112v47.2275107c0 .2798668.23158.513089.509475.513089h17.322151c2.477901 0 4.538959-.2798667 6.206332-.8396001 1.621057-.5597335 3.126324-1.3993337 4.400012-2.4488339 1.574741-1.329367 2.871586-2.9852452 3.821063-4.8976678.231579-.4664446.393685-.8629224.555791-1.2827225l.069473-.1865778.11579-.3265112c.463159-1.4459781.741055-2.9619229.741055-4.5478344-.046316-2.2855783-.532633-4.4312232-1.505267-6.3436459zm-24.779013-20.290338h5.882121c1.852636 0 3.242113.1632556 4.168432.4664446.880002.3498334 1.574741.816278 2.084216 1.3993336.995792 1.119467 1.505267 2.4255117 1.505267 3.9647787 0 1.4926226-.463159 2.7986673-1.505267 3.9181342-.509475.5830557-1.157898 1.0495003-2.084216 1.3993337-.648423.2332223-1.621057.3731556-2.778955.4664445h-7.341072v-11.6144693zm18.063205 29.2927178c-.370527.9328891-.880002 1.7258448-1.528425 2.4255117-.741054.6996668-1.621057 1.3060447-2.70948 1.7258448-1.088424.3964779-2.686323.6297001-4.816855.6297001h-9.031603v-15.3227034h9.031603c2.130532 0 3.705273.2332222 4.793697.6297001 1.042108.4198001 1.945268 1.0028558 2.663164 1.7258448.648423.6996669 1.157898 1.4926226 1.551584 2.3788672.393685.8629225.578948 1.8657782.578948 2.868634 0 1.0495003-.185263 2.0290338-.578948 2.9386007zm50.484344-19.4973822c-2.454743-2.2622561-5.835805-3.381723-10.050553-3.381723-3.797904 0-6.901071.9328891-9.263182 2.7986673-2.084216 1.5625893-3.589483 3.5683008-4.400012 5.947168-.092631.2332223.069474.5364113.34737.5830557l5.974752 1.0495003c.23158.0466444.393686-.0699667.463159-.2332223 1.227372-2.7287006 3.52001-4.0580676 6.901071-4.0580676 2.315796 0 4.0758.6297001 5.32633 1.9124226 1.25053 1.2827226 1.852637 2.9852452 1.852637 5.1308901v1.2127558c-3.126325-.9328891-6.113701-1.3993336-8.892656-1.3993336-3.936852 0-7.225282.9795335-9.842131 2.9852451-2.593691 2.0057116-3.936852 4.8277011-3.936852 8.4426464 0 3.4516896 1.227371 6.157068 3.612641 8.1161351 2.385269 1.9590671 5.256856 2.9386007 8.637917 2.9386007 4.30738 0 7.873705-1.2594003 10.467396-3.8714898v2.6120895c0 .3265112.277896.5830557.578949.5830557h5.511594c.301053 0 .555791-.2332223.555791-.5597335v-21.526416c-.069474-3.9647786-1.320004-7.0433127-3.821063-9.2822465zm-5.604225 23.3222275c-1.852637 1.5625893-4.098958 2.3322228-6.785281 2.3322228-1.968427 0-3.473694-.4664446-4.53896-1.3526892-1.01895-.8862447-1.551583-2.0990005-1.551583-3.6382675 0-1.6792004.694739-2.9386007 1.991585-3.7782009 1.296845-.8396002 3.010534-1.2827225 5.09475-1.2827225 2.616849 0 5.488435.4664446 8.568443 1.3993337 0 2.7287006-.926318 4.8043788-2.778954 6.2970014zm-110.949766-40.2075202h-.092632l-6.391596 1.1194669c-.23158.0466445-.463159.2332223-.463159.4664446v46.131366c0 .2798667.231579.513089.532633.513089h6.414754c.231579 0 .463159-.2332223.463159-.513089v-47.2041885c0-.2798667-.23158-.513089-.509475-.513089zm-13.200035 27.3802951c-.926319-1.9124227-2.176848-3.5449786-3.774747-4.8976678l-.463159-.3498334c-.694739-.5364112-1.458951-1.026178-2.26948-1.3993337l-.231579-.1166111.162105-.1632556c.741055-.8629224 1.389478-1.8657782 1.852637-2.9386007.694738-1.5625892 1.042108-3.1718229 1.042108-4.8510233 0-1.8191337-.34737-3.4983341-1.042108-5.13089-.694739-1.632556-1.690531-2.9852452-2.941061-4.1513565-1.157897-1.0728225-2.547375-1.9124227-4.0757999-2.5188006-1.574741-.6063779-3.5431672-.9328891-5.8589628-.9328891h-14.0105633c-.2778954 0-.509475.2332223-.509475.5364112v47.2275107c0 .2798668.2315796.513089.509475.513089h17.2526771c2.4779013 0 4.5389589-.2798667 6.2063319-.8396001 1.621057-.5597335 3.126324-1.3993337 4.400012-2.4488339 1.574741-1.329367 2.871586-2.9852452 3.821063-4.8976678.231579-.4664446.393685-.8629224.555791-1.2827225l.069473-.1865778c0-.093289.046316-.2332223.092632-.3265112.463159-1.4459781.741055-2.9619229.741055-4.5478344-.046316-2.2855783-.532633-4.4312232-1.505267-6.3436459zm-24.779013-20.290338h5.9284367c1.8526364 0 3.2421138.1632556 4.168432.4664446.8800023.3498334 1.574741.816278 2.084216 1.3993336.9957921 1.119467 1.5052673 2.4255117 1.5052673 3.9647787 0 1.4926226-.4631592 2.7986673-1.5052673 3.9181342-.509475.5830557-1.1578977 1.0495003-2.084216 1.3993337-.6484227.2332223-1.6210569.3731556-2.7789547.4664445h-7.317914zm18.132679 29.2927178c-.393685.9328891-.926318 1.7258448-1.551583 2.4255117-.741054.6996668-1.621057 1.3060447-2.70948 1.7258448-1.0884244.3964779-2.6863234.6297001-4.8168553.6297001h-9.0316028v-15.3227034h9.0316028c2.1536899 0 3.7515889.2332222 4.8168553.6297001 1.088423.4198001 1.991584 1.0028558 2.70948 1.7258448.648423.6996669 1.157898 1.4926226 1.551583 2.3788672.393686.8629225.578949 1.8657782.578949 2.868634 0 1.0495003-.231579 2.0290338-.602107 2.9386007zm50.484344-19.4973822c-2.477901-2.2622561-5.858963-3.381723-10.073711-3.381723-3.774747 0-6.877913.9328891-9.263182 2.7986673-2.084216 1.5625893-3.566325 3.5683008-4.400012 5.947168-.069474.2332223.092632.5364113.370528.5830557l5.951594 1.0495003c.23158.0466444.463159-.0699667.532633-.2332223 1.204214-2.7287006 3.473694-4.0580676 6.877913-4.0580676 2.246322 0 4.029484.6297001 5.280014 1.9124226 1.25053 1.2827226 1.898952 2.9852452 1.898952 5.1308901v1.2127558c-3.17264-.9328891-6.160016-1.3993336-8.938971-1.3993336-3.936852 0-7.225282.9795335-9.842131 2.9852451-2.663165 2.0057116-3.936852 4.8277011-3.936852 8.4426464 0 3.4516896 1.157898 6.157068 3.543167 8.1161351s5.256856 2.9386007 8.637918 2.9386007c4.330537 0 7.873705-1.2594003 10.490554-3.8714898v2.6120895c0 .3265112.231579.5830557.532633.5830557h5.511593c.324211 0 .578949-.2332223.578949-.5597335v-21.526416c-.069474-3.9647786-1.296846-7.0433127-3.797905-9.2822465zm-5.650541 23.3222275c-1.852637 1.5625893-4.168432 2.3322228-6.831597 2.3322228-1.968426 0-3.473694-.4664446-4.538959-1.3526892-1.065266-.8862447-1.621057-2.0990005-1.621057-3.6382675 0-1.6792004.694738-2.9386007 2.014742-3.7782009 1.320003-.8396002 3.010534-1.2827225 5.09475-1.2827225 2.640007 0 5.511594.4664446 8.568444 1.3993337.046316 2.7287006-.880003 4.8043788-2.732639 6.2970014zm169.192025-23.3222275c-2.477901-2.2622561-5.858963-3.381723-10.073711-3.381723-3.751589 0-6.854755.9328891-9.263182 2.7986673-2.084216 1.5625893-3.543167 3.5683008-4.400012 5.947168-.046316.2332223.11579.5364113.393685.5830557l5.974753 1.0495003c.23158.0466444.393685-.0699667.463159-.2332223 1.227372-2.7287006 3.520009-4.0580676 6.901071-4.0580676 2.26948 0 4.052642.6297001 5.32633 1.9124226 1.227372 1.2827226 1.852636 2.9852452 1.852636 5.1308901v1.2127558c-3.149482-.9328891-6.136858-1.3993336-8.915813-1.3993336-3.936852 0-7.225282.9795335-9.842131 2.9852451s-3.936852 4.8277011-3.936852 8.4426464c0 3.4516896 1.204213 6.157068 3.589483 8.1161351 2.385269 1.9590671 5.256856 2.9386007 8.637917 2.9386007 4.353696 0 7.873705-1.2594003 10.513712-3.8714898v2.6120895c0 .3265112.23158.5830557.555791.5830557h5.511594c.301053 0 .555791-.2332223.555791-.5597335v-21.526416c-.092632-3.9647786-1.343162-7.0433127-3.821063-9.2822465zm-5.673699 23.3222275c-1.852637 1.5625893-4.0758 2.3322228-6.762123 2.3322228-1.968427 0-3.473694-.4664446-4.53896-1.3526892-1.01895-.8862447-1.551583-2.0990005-1.551583-3.6382675 0-1.6792004.694739-2.9386007 1.991585-3.7782009 1.320003-.8396002 3.010534-1.2827225 5.09475-1.2827225 2.640007 0 5.557909.4664446 8.568443 1.3993337 0 2.7287006-.926318 4.8043788-2.778954 6.2970014z" fill="#064752"/></g></svg>