<svg height="140" viewBox="0 0 400 140" width="400" xmlns="http://www.w3.org/2000/svg"><g fill="none" transform="translate(35 41)"><path d="m53.2.2c-2.4 0-4.4 2-4.4 4.4s2 4.4 4.4 4.4 4.4-2 4.4-4.4-2-4.4-4.4-4.4m-24.4-.2c-2.6 0-4.6 2.1-4.6 4.6 0 2.6 2.1 4.6 4.6 4.6 2.6 0 4.6-2.1 4.6-4.6s-2.1-4.6-4.6-4.6m0 12.4c-2.4 0-4.4 2-4.4 4.4s2 4.4 4.4 4.4 4.4-2 4.4-4.4-2-4.4-4.4-4.4m0 12.4c-2.3 0-4.2 1.9-4.2 4.2s1.9 4.2 4.2 4.2 4.2-1.9 4.2-4.2-1.9-4.2-4.2-4.2m0 24.9c-2.1 0-3.7 1.7-3.7 3.7 0 2.1 1.7 3.7 3.7 3.7 2.1 0 3.7-1.7 3.7-3.7 0-2.1-1.7-3.7-3.7-3.7m-24.4-49.5c-2.4 0-4.4 2-4.4 4.4s2 4.4 4.4 4.4 4.4-2 4.4-4.4-1.9-4.4-4.4-4.4m24.4 37c-2.2 0-3.9 1.8-3.9 3.9s1.8 3.9 3.9 3.9c2.2 0 3.9-1.8 3.9-3.9s-1.7-3.9-3.9-3.9" fill="#ea1947"/><path d="m53.2 13.1c-2.1 0-3.8 1.7-3.8 3.8s1.7 3.8 3.8 3.8 3.8-1.7 3.8-3.8c-.1-2.1-1.8-3.8-3.8-3.8m0 12.7c-1.8 0-3.3 1.5-3.3 3.3s1.5 3.3 3.3 3.3 3.2-1.5 3.2-3.3c0-1.9-1.5-3.3-3.2-3.3m0 12.6c-1.5 0-2.8 1.2-2.8 2.8 0 1.5 1.2 2.8 2.8 2.8 1.5 0 2.8-1.2 2.8-2.8-.1-1.5-1.3-2.8-2.8-2.8m-12.2-31.8c-2.2 0-4 1.8-4 4s1.8 4 4 4 4-1.8 4-4c-.1-2.2-1.8-4-4-4m0 12.4c-2.1 0-3.8 1.7-3.8 3.8s1.7 3.8 3.8 3.8 3.8-1.7 3.8-3.8c-.1-2.1-1.8-3.8-3.8-3.8m0 12.7c-1.8 0-3.3 1.5-3.3 3.3s1.5 3.3 3.3 3.3 3.3-1.5 3.3-3.3c-.1-1.9-1.5-3.3-3.3-3.3m0 12.6c-1.5 0-2.8 1.2-2.8 2.8 0 1.5 1.2 2.8 2.8 2.8 1.5 0 2.8-1.2 2.8-2.8 0-1.5-1.3-2.8-2.8-2.8m-24.4-37.7c-2.2 0-4 1.8-4 4s1.8 4 4 4 4-1.8 4-4-1.8-4-4-4m0 12.4c-2.1 0-3.8 1.7-3.8 3.8s1.7 3.8 3.8 3.8 3.8-1.7 3.8-3.8-1.7-3.8-3.8-3.8m0 12.7c-1.8 0-3.3 1.5-3.3 3.3s1.5 3.3 3.3 3.3 3.2-1.5 3.2-3.3c0-1.9-1.4-3.3-3.2-3.3m0 12.6c-1.5 0-2.8 1.2-2.8 2.8 0 1.5 1.2 2.8 2.8 2.8 1.5 0 2.8-1.2 2.8-2.8 0-1.5-1.3-2.8-2.8-2.8m-12.2-31.2c-2.1 0-3.8 1.7-3.8 3.8s1.7 3.8 3.8 3.8 3.8-1.7 3.8-3.8-1.7-3.8-3.8-3.8m0 12.7c-1.8 0-3.3 1.5-3.3 3.3s1.5 3.3 3.3 3.3 3.2-1.5 3.2-3.3c.1-1.9-1.4-3.3-3.2-3.3m0 12.6c-1.5 0-2.8 1.2-2.8 2.8 0 1.5 1.2 2.8 2.8 2.8 1.5 0 2.8-1.2 2.8-2.8 0-1.5-1.2-2.8-2.8-2.8" fill="#192b54"/><path d="m75.7 14.4h-2.8v22.5c0 4.5 2.1 6.8 6.3 6.8h4.2v-3.7h-3.1c-2 0-3-1.2-3-3.5v-14.4h6.1v-3.6h-6.8zm45.3 4.1h-3v25.2h4.4v-18.4c1.9-2.1 4.3-3.2 7.3-3.2v-3.7c-3.1 0-5.8 1.1-8 3.2zm16.4 10.1c.3-4.4 2.7-6.6 7.1-6.6 4.2 0 6.4 2.2 6.5 6.6zm7.2-10.1c-7.7 0-11.6 4.1-11.6 12.3 0 8.6 4.3 12.9 13 12.9 3.2 0 5.9-.3 8.1-1v-3.6c-2.2.6-4.8 1-7.6 1-6 0-9-2.6-9-7.7h17.7c.1-1.2.2-2.2.2-3.2-.1-7.2-3.7-10.7-10.8-10.7m32.3 19.1c-2.1 1.6-4.7 2.4-7.8 2.4-3 0-4.6-1.4-4.6-4.1s1.9-4.1 5.8-4.1c2.2 0 4.4.2 6.6.5zm-6.8-19.1c-2.6 0-5.2.4-8 1.2v3.6c2.7-.8 5.4-1.2 8-1.2 4.5 0 6.8 1.4 6.8 4.3v2.4c-2.2-.3-4.4-.5-6.6-.5-6.8 0-10.2 2.6-10.2 7.8 0 5.1 3 7.6 9 7.6 3 0 5.7-.8 8.2-2.5l1.5 2.5h2.5v-17.4c0-5.2-3.7-7.8-11.2-7.8m21.2-4.1h-2.8v22.5c0 4.5 2.1 6.8 6.3 6.8h4.2v-3.7h-3c-2 0-3-1.2-3-3.5v-14.4h6.1v-3.6h-6.8zm-89.9 4.1c-3.1 0-5.7.9-7.8 2.7l-1.7-6.8h-2.8v29.3h4.4v-18.4c2.3-2.1 4.7-3.2 7.2-3.2 3.7 0 5.6 1.9 5.6 5.6v15.9h4.4v-15.8c.1-6.2-3.1-9.3-9.3-9.3" fill="#ea1947"/><path d="m226.5 29h-3.6c-2.6 0-4-1.1-4-3.4 0-2.4 2.1-3.6 6.3-3.6 3 0 6 .5 8.9 1.4v-3.8c-3-.8-5.9-1.2-8.9-1.2-7 0-10.5 2.4-10.5 7.2 0 5 2.7 7.4 8.2 7.4h3.6c2.8 0 4.2 1.1 4.2 3.4 0 2.4-2 3.6-6 3.6-3 0-6-.5-9-1.4v3.8c3 .8 6 1.2 9 1.2 7 0 10.5-2.4 10.5-7.2-.1-4.9-3-7.4-8.7-7.4m17.4-14.6h-2.8v22.5c0 4.5 2.1 6.8 6.3 6.8h4.2v-3.7h-3.1c-2 0-3-1.2-3-3.5v-14.4h6.1v-3.6h-6.8zm29 23.2c-2.1 1.6-4.7 2.5-7.8 2.5-3 0-4.6-1.4-4.6-4.1s1.9-4.1 5.8-4.1c2.2 0 4.4.2 6.6.5zm-6.8-19.1c-2.6 0-5.2.4-8 1.2v3.6c2.7-.8 5.4-1.2 8-1.2 4.5 0 6.8 1.4 6.8 4.3v2.4c-2.2-.3-4.4-.5-6.6-.5-6.8 0-10.2 2.6-10.2 7.8 0 5.1 3 7.6 9 7.6 3 0 5.7-.8 8.2-2.5l1.5 2.5h2.5v-17.4c0-5.2-3.7-7.8-11.2-7.8m17.2 12.1c0 8.7 4.5 13.1 13.4 13.1 2.4 0 4.6-.2 6.7-.7v-3.6c-2.1.5-4.4.7-7 .7-5.8 0-8.8-3.2-8.8-9.5 0-5.7 2.9-8.5 8.8-8.5 2.6 0 4.9.2 7 .7v-3.6c-2.1-.5-4.3-.7-6.7-.7-8.9 0-13.4 4-13.4 12.1m25.8-16.2h4.4v29.3h-4.4zm21.5 4.1h-5.6l-9.5 12.6h.1l9.4 12.5h5.6l-9.6-12.5z" fill="#192b54"/></g></svg>