<svg height="140" viewBox="0 0 400 140" width="400" xmlns="http://www.w3.org/2000/svg"><g fill="#c92027" transform="translate(60 26)"><path d="m49.5539568 30.4172662c-8.8633093-2.618705-18.5323741-3.6258993-27.3956834-.6043166-7.4532374 2.4172662-13.89928059 7.6546763-17.32374103 14.9064749-3.62589928 8.0575539-3.82733813 17.9280575-.60431654 26.1870503 2.82014388 7.4532374 8.86330937 12.8920864 16.31654677 15.5107914 4.2302158 1.6115108 8.6618705 2.2158273 13.294964 2.0143885 5.2374101-.2014389 11.0791367-.8057554 15.9136691-3.2230216v-15.3093525c-8.057554 3.0215827-20.1438849 3.6258993-25.5827338-4.4316547-2.6187051-3.8273381-2.6187051-9.0647482-.8057554-13.0935252 1.6115108-3.8273381 5.23741-6.2446043 9.0647482-7.2517985 5.8417266-1.6115108 11.6834532-.2014389 17.323741 1.4100719z"/><path d="m228.431655 88.2302158c7.654676 0 13.093525-2.8201439 17.122302-7.2517985v6.0431654h19.741007v-33.4388489c0-5.2374101-.402878-11.0791367-3.42446-15.7122302-2.417267-3.8273381-6.446044-6.4460432-10.676259-7.8561151-12.086331-4.2302158-25.784173-1.2086331-37.467626 2.618705v14.705036c6.848921-2.618705 14.906475-4.028777 22.359712-3.4244604 5.438849.4028777 9.669065 3.4244604 9.669065 9.266187v1.0071943c-13.697842-4.8345324-36.661871-2.8201439-36.661871 15.913669v.2014389c0 11.4820144 8.460432 17.9280575 19.33813 17.9280575zm7.453237-12.6906475c-4.230216 0-7.251798-2.4172661-7.251798-6.2446043v-.2014388c0-8.8633094 11.884892-7.6546763 17.323741-5.2374101 0 7.0503597-4.230216 11.6834532-10.071943 11.6834532z"/><path d="m147.856115 29.8129496h19.33813v8.6618705l.805755-1.0071942c5.640288-7.2517986 14.100719-11.0791367 23.366906-8.4604317 7.654677 2.2158274 11.884893 8.8633094 12.690648 16.7194245.402878 3.6258993.201439 7.4532374.201439 11.0791367v18.1294964 12.0863309h-19.539569c0-10.4748201.201439-20.9496403 0-31.2230215 0-4.6330936-2.014388-9.2661871-7.251798-10.0719425-4.834532-.8057554-8.863309 2.0143885-10.071943 6.647482-.201438 2.0143885-.201438 4.2302158-.201438 6.4460432v9.6690647 18.5323741h-19.539569z"/><g transform="translate(54.388489)"><path d="m87.4244604 79.7697842c-6.2446043 4.2302158-13.0935251 7.4532374-20.7482014 8.2589928-8.057554.8057554-16.3165468-1.0071943-22.7625899-5.6402878-8.8633094 4.028777-19.1366907 7.2517986-28.8057554 4.2302158-7.25179859-2.2158273-10.87769787-8.6618705-11.88489212-15.7122302-.4028777-3.4244604-.20143885-7.0503597-.20143885-10.676259 0-5.8417266 0-11.6834532 0-17.7266187 0-4.028777 0-8.2589928 0-12.2877698h18.12949637c0 9.0647482.2014389 18.3309353.4028777 27.3956835.2014389 4.2302158-.2014388 9.4676259 2.4172662 12.8920863 2.6187051 3.6258993 7.6546763 2.8201439 11.4820144 1.8129497-8.0575539-16.7194245.8057554-39.0791367 18.733813-44.7194245 7.4532374-2.4172662 17.323741-2.0143885 23.3669064 3.4244604 4.8345324 4.2302159 6.2446044 10.8776979 4.8345324 16.9208633-1.2086331 4.6330936-3.8273381 8.4604317-6.8489209 11.8848921-4.0287769 4.6330936-8.8633093 8.4604317-13.8992805 12.086331 6.8489208 5.0359712 18.1294964 1.4100719 25.7841726-3.4244605zm-20.7482014-24.9784173c2.2158273-2.8201439 4.8345324-7.8561151 1.4100719-10.8776978-2.2158273-2.0143885-5.8417266-1.6115108-8.2589928-.2014389-7.6546762 4.2302158-8.2589928 13.8992806-4.4316546 20.9496403 4.6330935-3.2230216 8.4604316-6.4460432 11.2805755-9.8705036 6.647482-8.4604316-2.8201439 3.4244604 0 0z"/><path d="m23.1654676 11.4820144c0 5.8417266-4.8345323 10.676259-10.676259 10.676259-5.84172659 0-10.67625896-4.8345324-10.67625896-10.676259 0-5.84172663 4.83453237-10.676259 10.67625896-10.676259 5.6402878 0 10.676259 4.83453237 10.676259 10.676259z"/></g><path d="m275.366906 79.7697842c4.633094 0 4.633094 7.0503597 0 7.0503597-4.633093 0-4.633093-7.0503597 0-7.0503597zm0 6.647482c4.028777 0 3.827339-6.4460432-.201438-6.0431655-3.827339.2014389-3.6259 6.0431655.201438 6.0431655zm-1.410071-5.0359712h1.410071c1.611511 0 2.014389 2.2158273.402878 2.2158273.402878.6043165.805756 1.2086331 1.208633 1.8129496h-.604316l-1.208633-1.8129496h-.805756v1.8129496h-.402877zm.604316 1.8129496h.604317c.805755 0 1.61151-.4028777.805755-1.2086331-.201439-.2014388-1.208633-.2014388-1.410072-.2014388z"/></g></svg>