<svg height="140" viewBox="0 0 400 140" width="400" xmlns="http://www.w3.org/2000/svg" xmlns:xlink="http://www.w3.org/1999/xlink"><mask id="a" fill="#fff"/><g fill="none" fill-rule="nonzero" transform="translate(57 27)"><path d="m28.4872435 75.0945086.010956-42.8134052c0-8.2928953-4.8635978-13.6005338-13.0318308-13.6005338-4.0514764 0-7.5104102 1.4184607-10.16543972 4.4825209v-22.89052356h-5.30092898v45.80422456h5.30092898v-12.8940849c0-6.3575774 3.60775419-9.7183091 9.06298162-9.7183091 5.4488364 0 8.8347295 3.2865639 8.8347295 9.7183091l.0091301 36.12439c0 4.7193945 3.3288299 5.787412 5.0188092 5.787412z" fill="#002039" mask="url(#a)" transform="translate(0 11.184358)"/><path d="m187.187428 63.018747c-2.571886 2.4935843-6.124878 4.0873983-10.667418 4.0873983-4.532223 0-8.028469-1.593814-10.603169-4.0873983-3.782323-3.7103085-4.542539-8.7399785-4.542539-14.2900684 0-5.5347169.760216-10.5643871 4.542539-14.2927815 2.5747-2.4727854 6.070946-4.0783552 10.603169-4.0783552 4.54254 0 8.095532 1.6055698 10.667418 4.0783552 3.785137 3.7283944 4.544416 8.7580646 4.544416 14.2927815 0 5.5500899-.759279 10.5797599-4.544416 14.2900684m-3.852201-25.3748753c-1.742261-1.6679659-4.165012-2.620185-6.815217-2.620185-2.642234 0-4.933201.9522191-6.667957 2.620185-2.729933 2.6292279-3.02586 7.0783428-3.02586 11.0848069 0 4.0127941.295927 8.4637175 3.02586 11.0843546 1.734756 1.677461 4.025723 2.6314888 6.667957 2.6314888 2.650205 0 5.072956-.9540278 6.815217-2.6314888 2.714925-2.6206371 2.944725-7.0715605 2.944725-11.0843546 0-4.0064641-.2298-8.455579-2.944725-11.0848069" fill="#002039"/><path d="m212.502562 35.0655204c5.511456 0 9.021978 3.235224 9.021978 9.6381477v22.4024772h5.358142v-23.2848524c0-4.1883171-1.185875-7.5736451-3.797756-10.0784228-2.23506-2.2105008-5.438031-3.3853282-9.385406-3.3853282h-2.392068c-3.94876 0-7.15127 1.1748274-9.38633 3.3853282-2.611419 2.5047777-3.798217 5.8901057-3.798217 10.0784228v23.2848524h5.359527v-22.4024772c0-6.4029237 3.509137-9.6381477 9.02013-9.6381477" fill="#002039"/><g transform="translate(100.659218)"><path d="m48.4599563 33.3866861c-2.2329864-2.2269128-5.4329849-3.4104629-9.37762-3.4104629h-2.389849c-3.9441736 0-7.1441723 1.1835501-9.3766973 3.4104629-.4110724.3975809-.7833907.819982-1.1243363 1.2616874-.3418684-.4417054-.7132639-.8641065-1.1247977-1.2616874-2.232525-2.2269128-5.4325237-3.4104629-9.3766973-3.4104629h-2.389849c-3.94509637 0-7.14417228 1.1835501-9.37762002 3.4104629-2.60853407 2.523375-3.79423137 5.9338379-3.79423137 10.1532517v23.4577345h5.35363094v-22.5688079c0-6.4504633 3.50680358-9.7097076 9.01268365-9.7097076 5.5068027 0 9.0126836 3.2592443 9.0126836 9.7097076v22.5688079h5.3674717v-22.5688079c0-6.4504633 3.5068036-9.7097076 9.0136064-9.7097076 5.5054187 0 9.0117608 3.2592443 9.0117608 9.7097076v22.5688079h5.3587059v-23.4577345c0-4.2194138-1.1884655-7.6298767-3.798845-10.1532517" fill="#002039"/><path d="m128.489911 11.7215131c0-6.31671062 5.134023-11.43470327 11.473582-11.43470327 6.343711 0 11.480503 5.11799265 11.480503 11.43470327 0 6.3153317-5.136792 11.4324052-11.480503 11.4324052-6.339559 0-11.473582-5.1170735-11.473582-11.4324052" fill="#00a8c8"/></g><path d="m247.653631 11.1856786-11.184357 4.791975v-9.58659215z" fill="#fffffe"/><g fill="#002039"><path d="m239.664804 67.1061453h4.793297v-36.7486034h-4.793297z"/><path d="m271.719852 62.0366863c-.335457.0782213-.5706.1225317-.702667.1464953-.739938.1573468-1.515309.2613404-2.395598.2613404-3.561646 0-6.527384-1.3858271-8.455459-4.0873983-1.713638-2.3353331-2.377192-5.1051784-2.377192-9.6284451 0-4.5169367.663554-7.286782 2.377192-9.6198545 1.928075-2.7015712 4.893813-4.0851374 8.455459-4.0851374.928605 0 1.759196.0791255 2.534567.2423502 1.109909.1908056 3.269905.6859051 5.337869 1.8741444.667693.3834196 1.120492.7315719 1.43432 1.0431003l.08283-.0764125v-4.8479075c-2.77477-2.1318675-5.545401-2.9014197-9.389586-2.9014197-9.203219 0-16.17466 6.1220543-16.17466 18.3711367 0 12.2572208 6.971441 18.3774667 16.17466 18.3774667 3.844185 0 6.614816-.7704566 9.389586-2.9050369v-4.8985478l-.062121-.0583269c-.240205.1926142-.525965.3960798-.872926.6135619-2.036213 1.2786685-4.207712 1.9103161-5.356274 2.1788907"/><path d="m87.7359054 30.3629399c-3.923886 0-7.1065933 1.1633602-9.3278341 3.3522843-2.595272 2.4803291-3.7747325 5.8326134-3.7747325 9.9800488v23.032272h5.3259294v-22.1580577c0-4.132978 1.489241-6.9236871 4.0372428-8.3721269 3.6370521-1.5270513 8.1139536-1.3025116 11.5353069 1.1601977l.3341039-4.999512c-.7480624-.5209144-1.4869463-.9112612-2.4699829-1.2582361-1.6994328-.5986223-3.965649-.7770794-5.6600335-.7368701zm-27.9853382 23.6327012c0 2.9840753-.5934018 5.0257159-1.850881 6.189076-2.2955879 2.1889243-5.029917 2.4080427-8.146079 2.4080427-6.3493523 0-7.9808628-3.760703-7.9808628-6.1068502 0-2.3456955-.1799021-5.8158972 3.6384291-7.7459455 3.5177292-1.4769028 9.7968646-1.622831 14.3393937 2.4410232zm-9.2521101-23.6087564c-5.9248383 0-9.9235305 2.3199435-10.9180406 3.8542236l-.0321253 4.9123163c2.148729-2.9818162 6.2080005-4.2508953 10.8767364-4.2508953 6.6568383 0 9.3255396 2.6271608 9.3255396 7.8701878v4.0430719c-1.5594578-1.101465-4.612287-3.0861799-9.6963582-3.0861799-3.923886 0-7.7298259.8656303-10.3214264 3.417794-3.3800491 3.3278877-2.9683853 9.3660657-2.9683853 9.3660657s.0316666 10.5926765 12.6358307 10.5926765c4.8821403 0 7.3842485-.7806938 10.3503392-3.6988077l.1661342 3.3346646h5.3296009l-.1665931-24.4075217c0-7.7974496-4.8174305-11.9475958-14.5812521-11.9475958z"/><path d="m282.225385 73.3461394h.419357c.439496 0 .85925-.1211726.85925-.52455 0-.3224629-.200202-.5444799-.799624-.5444799-.239294 0-.379474.0207268-.478983.0406565zm0 1.8949175h-.599026v-3.346598c.339592-.0605863.678789-.1008444 1.138425-.1008444.559144 0 .818577.1008444 1.038918.2618766.199018.1411023.338803.4033774.338803.7059105 0 .4233071-.29971.6652539-.659048.786028v.0402581c.300107.1207739.459636.3834477.559539.8063562.099509.5042218.159531.7262388.239294.847013h-.618769c-.100299-.1207742-.180064-.4233072-.259827-.8872709-.079766-.3627209-.319456-.5241516-.778695-.5241516h-.399614zm.559143-4.3749714c-1.417998 0-2.496798 1.1690772-2.496798 2.6008281 0 1.4720087 1.0788 2.641086 2.537076 2.641086 1.417997.0199297 2.476264-1.1690773 2.476264-2.6207577 0-1.4520792-1.058267-2.6211564-2.496403-2.6211564zm.040278-.5644095c1.777335 0 3.175194 1.3906956 3.175194 3.1652376 0 1.8144014-1.397859 3.2258238-3.195333 3.2258238-1.778126 0-3.195728-1.4114224-3.195728-3.2258238 0-1.774542 1.417602-3.1652376 3.195728-3.1652376z"/></g></g></svg>