<svg xmlns="http://www.w3.org/2000/svg" xmlns:xlink="http://www.w3.org/1999/xlink" width="400px" height="140px" viewBox="0 0 400 140" version="1.1">
    <title>Artboard</title>
    <g id="Artboard" stroke="none" stroke-width="1" fill="none" fill-rule="evenodd">
        <g id="anaconda-dark" transform="translate(25.000000, 50.000000)">
            <path d="M91.2214125,2.50724638 C91.0536223,2.16908213 90.885832,2 90.3824618,2 L89.8790911,2 C89.3757206,2 89.2079306,2.16908213 89.0401401,2.50724638 L74.1068152,35.1400969 C73.7712347,35.8164254 74.2746054,36.3236714 74.9457659,36.3236714 L79.1405202,36.3236714 C79.9794711,36.3236714 80.3150514,35.8164254 80.4828416,35.3091788 L82.831904,30.0676332 L97.2618584,30.0676332 L99.6109208,35.3091788 C99.9465013,35.9855074 100.282082,36.3236714 100.953242,36.3236714 L105.147997,36.3236714 C105.819157,36.3236714 106.322528,35.6473431 105.986947,35.1400969 L91.2214125,2.50724638 Z M85.1809663,24.8260871 L89.8790911,14.1739131 L90.0468813,14.1739131 L94.9127961,24.8260871 L85.1809663,24.8260871 Z M137.028129,2.50724638 L132.665585,2.50724638 C132.162214,2.50724638 131.826634,3.01449276 131.826634,3.352657 L131.826634,23.47343 L111.691813,2 L110.517282,2 C110.013912,2 109.678331,2.33816426 109.678331,2.84541063 L109.678331,35.4782611 C109.678331,35.9855074 110.181702,36.3236714 110.517282,36.3236714 L114.879826,36.3236714 C115.383197,36.3236714 115.718777,35.8164252 115.718777,35.4782611 L115.718777,14.6811594 L135.853598,37 L137.028129,37 C137.531499,37 137.86708,36.6618357 137.86708,36.1545895 L137.86708,3.352657 C138.03487,3.01449276 137.531499,2.50724638 137.028129,2.50724638 Z M158.673061,2.50724638 C158.505271,2.16908213 158.33748,2 157.83411,2 L157.330739,2 C156.827369,2 156.659579,2.16908213 156.491789,2.50724638 L141.558463,35.1400969 C141.222883,35.8164252 141.726254,36.3236714 142.397414,36.3236714 L146.592168,36.3236714 C147.431119,36.3236714 147.766699,35.8164252 147.93449,35.3091788 L150.283552,30.2367151 L164.713507,30.2367151 L167.062569,35.4782611 C167.398149,36.1545895 167.73373,36.4927538 168.40489,36.4927538 L172.599645,36.4927538 C173.270805,36.4927538 173.774176,35.8164252 173.438596,35.3091788 L158.673061,2.50724638 Z M152.632615,24.8260871 L157.330739,14.1739131 L157.498529,14.1739131 L162.364444,24.8260871 L152.632615,24.8260871 Z M199.781652,27.8695652 C199.446072,27.5314009 198.942701,27.5314009 198.607121,27.8695652 C196.593639,29.5603865 194.076786,30.5748794 191.224353,30.5748794 C185.016117,30.5748794 180.485783,25.5024157 180.485783,19.415459 C180.485783,13.3285025 185.016117,8.08695653 191.224353,8.08695653 C193.908996,8.08695653 196.593639,9.10144929 198.607121,10.9613527 C198.942701,11.2995169 199.446072,11.2995169 199.781652,10.9613527 L202.634085,7.91787443 C202.969665,7.57971016 202.969665,6.90338167 202.634085,6.5652174 C199.446072,3.69082127 195.922478,2 191.056563,2 C181.492524,2 173.774176,9.77777781 173.774176,19.415459 C173.774176,29.0531403 181.492524,36.8309181 191.056563,36.8309181 C195.419108,36.8309181 199.446072,35.3091788 202.801875,32.0966184 C203.137456,31.7584541 203.305246,31.0821258 202.801875,30.7439615 L199.781652,27.8695652 Z M222.433325,2 C212.869285,2 205.150938,9.77777781 205.150938,19.415459 C205.150938,29.0531403 212.869285,36.8309181 222.433325,36.8309181 C231.997365,36.8309181 239.715712,29.0531403 239.715712,19.415459 C239.715712,9.77777781 232.165155,2 222.433325,2 Z M222.433325,30.5748794 C216.392879,30.5748794 211.359174,25.5024154 211.359174,19.415459 C211.359174,13.3285025 216.392879,8.25603865 222.433325,8.25603865 C228.473771,8.25603865 233.507476,13.3285025 233.507476,19.415459 C233.507476,25.6714976 228.473771,30.5748794 222.433325,30.5748794 Z M272.602585,2.50724638 L268.24004,2.50724638 C267.736672,2.50724638 267.401092,3.01449276 267.401092,3.352657 L267.401092,23.47343 L247.098479,2 L245.923948,2 C245.420579,2 245.084999,2.33816426 245.084999,2.84541063 L245.084999,35.4782611 C245.084999,35.9855074 245.588368,36.3236714 245.923948,36.3236714 L250.286493,36.3236714 C250.789864,36.3236714 251.125444,35.8164252 251.125444,35.4782611 L251.125444,14.6811594 L271.260265,37 L272.434796,37 C272.938165,37 273.273747,36.6618357 273.273747,36.1545895 L273.273747,3.352657 C273.441536,3.01449276 273.105956,2.50724638 272.602585,2.50724638 Z M291.898455,2.50724638 L280.488723,2.50724638 C279.985352,2.50724638 279.649772,3.01449276 279.649772,3.352657 L279.649772,35.4782611 C279.649772,35.9855074 279.985352,36.3236714 280.488723,36.3236714 L291.898455,36.3236714 C301.126914,36.3236714 308.845263,28.714976 308.845263,19.2463769 C308.677472,10.1159421 301.126914,2.50724638 291.898455,2.50724638 Z M291.227295,30.5748791 L285.690219,30.5748791 L285.690219,8.4251208 L291.227295,8.4251208 C297.435531,8.4251208 301.965865,13.1594203 301.965865,19.415459 C302.133656,25.8405797 297.435531,30.5748791 291.227295,30.5748791 Z M340.893185,35.1400969 L326.127651,2.50724638 C325.95986,2.16908213 325.792069,2 325.2887,2 L324.785329,2 C324.281957,2 324.114168,2.16908213 323.94638,2.50724638 L309.013052,35.1400969 C308.677474,35.8164254 309.180843,36.3236714 309.852005,36.3236714 L314.046757,36.3236714 C314.885708,36.3236714 315.221288,35.8164254 315.389079,35.3091788 L317.738141,30.0676329 L332.168098,30.0676329 L334.51716,35.3091788 C334.852738,35.9855074 335.188318,36.3236714 335.85948,36.3236714 L340.054234,36.3236714 C340.725394,36.4927538 341.228765,35.8164254 340.893185,35.1400969 Z M320.087204,24.8260871 L324.785329,14.1739131 L324.95312,14.1739131 L329.819036,24.8260871 L320.087204,24.8260871 Z" id="Shape" fill="#3EB049" fill-rule="nonzero"/>
            <path d="M347.428571,40.9286256 C347.428571,40.7858774 347.285715,40.643129 347.142857,40.643129 L346.571429,40.643129 L346.571429,41.356871 L347.142857,41.356871 C347.285715,41.2141224 347.428571,41.0713742 347.428571,40.9286256 Z" id="Shape"/>
            <path d="M346.5,45 C347.928572,45 349,43.9285711 349,42.5 C349,41.0714284 347.928572,40 346.5,40 C345.07143,40 344,41.0714284 344,42.5 C344,43.9285711 345.25,45 346.5,45 Z M345.428572,41.2500001 C345.428572,41.2500001 345.428572,41.0714284 345.428572,41.2500001 L346.857143,41.0714284 C347.392857,41.0714284 347.928572,41.4285713 347.928572,42.1428571 C347.928572,42.6785714 347.57143,43.0357143 347.214285,43.0357143 C347.392857,43.392857 347.57143,43.7499999 347.57143,43.9285711 C347.57143,44.1071428 347.57143,44.1071428 347.392857,44.1071428 L347.035715,44.1071428 C347.035715,44.1071428 346.857143,44.1071428 346.857143,43.9285711 L346.5,42.8571426 L345.964285,42.8571426 L345.964285,43.9285711 C345.964285,43.9285711 345.964285,44.1071428 345.785713,44.1071428 L345.607143,44.1071428 C345.428572,44.1071428 345.428572,44.1071428 345.428572,43.9285711 L345.428572,41.2500001 Z" id="Shape"/>
            <path d="M346.133332,43.8823529 L346.399999,43.8823529 C346.533333,43.8823529 346.533333,43.8823529 346.533333,43.7647057 L346.533333,43.1764706 L346.933334,43.1764706 L347.2,43.8823529 C347.2,43.8823529 347.2,44 347.333333,44 L347.600001,44 C347.733335,44 347.733335,43.8823529 347.733335,43.8823529 C347.600001,43.6470588 347.466667,43.5294115 347.466667,43.2941175 C347.600001,43.1764706 348,43.0588234 348,42.7058823 C348,42.2352942 347.600001,42 347.2,42 L346.133332,42 C346,42 346,42 346,42.1176469 L346.133332,43.8823529 C346,43.8823529 346,43.8823529 346.133332,43.8823529 Z M346.399999,42.2352942 L346.933334,42.2352942 C347.066666,42.2352942 347.2,42.3529411 347.2,42.4705881 C347.2,42.5882351 347.066666,42.7058823 346.933334,42.7058823 L346.399999,42.7058823 L346.399999,42.2352942 Z" id="Shape" fill="#3EB049" fill-rule="nonzero"/>
            <path d="M347,45 C348.588235,45 350,43.5882354 350,42 C350,40.4117646 348.588235,39 347,39 C345.411765,39 344,40.4117646 344,42 C344,43.5882354 345.411765,45 347,45 Z M347,39.5294116 C348.411765,39.5294116 349.470588,40.5882355 349.470588,42.0000001 C349.470588,43.4117648 348.411765,44.4705882 347,44.4705882 C345.588237,44.4705882 344.529415,43.4117648 344.529415,42.0000001 C344.529415,40.5882355 345.764709,39.5294116 347,39.5294116 Z" id="Shape" fill="#3EB049" fill-rule="nonzero"/>
            <path d="M77.1904763,45.3599999 C78.869674,45.3599999 80.2130327,45.7 81.0526316,46.38 C81.8922307,47.0600003 82.3959898,48.0800002 82.3959898,49.2699999 C82.3959898,49.9500002 82.2280702,50.63 82.0601503,51.1399998 C81.8922307,51.6500001 81.3884713,51.9899999 81.0526316,52.33 C80.5488722,52.67 80.0451126,52.84 79.3734336,53.0100001 C78.7017544,53.1800001 77.8621555,53.1800001 77.0225564,53.1800001 L75.679198,53.1800001 L75.679198,57.7699999 L74,57.7699999 L74,45.7 C74.5037594,45.5300002 75.0075187,45.5300002 75.679198,45.5300002 C76.1829573,45.3599999 76.6867169,45.3599999 77.1904763,45.3599999 Z M77.1904763,46.8900001 L75.5112783,46.8900001 L75.5112783,51.6500001 L76.8546366,51.6500001 C77.3583959,51.6500001 78.0300751,51.6500001 78.3659149,51.4799999 C78.869674,51.4799999 79.2055137,51.3100001 79.5413535,51.1399998 C79.877193,50.9700001 80.0451126,50.63 80.2130327,50.46 C80.3809523,50.12 80.5488722,49.7799999 80.5488722,49.2699999 C80.5488722,48.7600001 80.3809523,48.42 80.2130327,48.0800002 C80.0451126,47.7400002 79.7092731,47.5699999 79.5413535,47.4000001 C79.2055137,47.2300001 78.869674,47.0600003 78.5338345,47.0600003 C78.197995,46.8900001 77.6942354,46.8900001 77.1904763,46.8900001 Z M92.6390976,53.1800001 C92.6390976,53.8600002 92.471178,54.54 92.3032581,55.2200001 C92.1353383,55.7300001 91.7994985,56.2399999 91.463659,56.75 C91.1278195,57.09 90.6240599,57.4300001 90.1203008,57.7699999 C89.6165414,57.9399999 88.9448622,58.1099999 88.4411029,58.1099999 C87.9373433,58.1099999 87.2656643,57.9399999 86.7619047,57.7699999 C86.2581453,57.5999999 85.7543859,57.2599998 85.4185464,56.75 C85.0827067,56.41 84.746867,55.8999999 84.5789473,55.2200001 C84.4110275,54.7099998 84.2431078,54.0299999 84.2431078,53.1800001 C84.2431078,52.4999998 84.4110275,51.8199999 84.5789473,51.1399998 C84.746867,50.63 85.0827067,50.12 85.4185464,49.6100002 C85.7543859,49.2699999 86.2581453,48.9299998 86.7619047,48.59 C87.2656643,48.42 87.9373433,48.25 88.4411029,48.25 C88.9448622,48.25 89.6165414,48.42 90.1203008,48.59 C90.6240599,48.7600001 91.1278195,49.1000001 91.463659,49.6100002 C91.7994985,49.9500002 92.1353383,50.46 92.3032581,51.1399998 C92.471178,51.8199999 92.6390976,52.4999998 92.6390976,53.1800001 Z M90.9598997,53.1800001 C90.9598997,52.16 90.79198,51.3100001 90.2882204,50.8 C89.7844611,50.12 89.2807017,49.9500002 88.4411029,49.9500002 C87.6015038,49.9500002 87.0977442,50.2900002 86.593985,50.8 C86.0902257,51.4799999 85.9223056,52.16 85.9223056,53.1800001 C85.9223056,54.2 86.0902257,55.0499998 86.593985,55.5599999 C87.0977442,56.2399999 87.6015038,56.41 88.4411029,56.41 C89.2807017,56.41 89.7844611,56.0700002 90.2882204,55.5599999 C90.6240599,55.0499998 90.9598997,54.2 90.9598997,53.1800001 Z M102.546366,57.7699999 C102.210526,56.9199998 101.874687,55.8999999 101.538847,54.88 C101.203007,53.8600002 100.867168,52.67 100.531328,51.4799999 C100.195489,52.67 99.8596491,53.8600002 99.5238096,54.88 C99.1879698,55.8999999 98.8521301,56.9199998 98.5162906,57.7699999 L97.1729324,57.7699999 C96.669173,56.58 96.1654134,55.2200001 95.661654,53.6899999 C95.1578947,52.16 94.6541353,50.46 94.1503757,48.59 L95.8295739,48.59 C95.9974938,49.1000001 96.1654134,49.7799999 96.1654134,50.46 C96.3333333,51.1399998 96.5012529,51.8199999 96.669173,52.33 C96.8370926,53.0100001 97.0050125,53.5200001 97.1729324,54.2 C97.340852,54.88 97.5087719,55.3899998 97.6766915,55.7300001 C97.8446116,55.2200001 98.0125312,54.54 98.1804511,54.0299999 C98.348371,53.3499999 98.5162906,52.84 98.6842105,52.16 C98.8521301,51.4799999 99.0200502,50.9700001 99.1879698,50.2900002 C99.3558897,49.6100002 99.5238096,49.1000001 99.5238096,48.59 L100.867168,48.59 C101.035088,49.1000001 101.035088,49.6100002 101.203007,50.2900002 C101.370927,50.9700001 101.538847,51.4799999 101.706767,52.16 C101.874687,52.84 102.042606,53.3499999 102.210526,54.0299999 C102.378446,54.7099998 102.546366,55.2200001 102.714286,55.7300001 L103.218045,54.2 C103.385965,53.6899999 103.553884,53.0100001 103.721805,52.33 C103.889724,51.6500001 104.057644,50.9700001 104.225564,50.46 C104.393484,49.7799999 104.561403,49.2699999 104.561403,48.59 L106.240601,48.59 C105.736842,50.46 105.233083,51.9899999 104.729323,53.6899999 C104.225564,55.2200001 103.721805,56.58 103.218045,57.7699999 L102.546366,57.7699999 Z M108.255639,53.1800001 C108.255639,52.33 108.423559,51.6500001 108.591479,50.9700001 C108.759398,50.2900002 109.095238,49.7799999 109.598998,49.4400001 C109.934837,49.1000001 110.438596,48.7600001 110.942356,48.59 C111.446115,48.42 111.949875,48.25 112.453634,48.25 C113.629073,48.25 114.636591,48.59 115.30827,49.4400001 C115.97995,50.2900002 116.315789,51.3100001 116.315789,53.0100001 L116.315789,53.6899999 L110.102757,53.6899999 C110.102757,54.7099998 110.438596,55.3899998 110.942356,55.8999999 C111.446115,56.41 112.117794,56.58 113.125313,56.58 C113.629073,56.58 114.132832,56.58 114.636591,56.41 C114.972431,56.2399999 115.30827,56.2399999 115.476191,56.0700002 L115.64411,57.4300001 C115.476191,57.5999999 115.140351,57.5999999 114.636591,57.7699999 C114.132832,57.9399999 113.629073,57.9399999 112.957393,57.9399999 C112.117794,57.9399999 111.446115,57.7699999 110.942356,57.5999999 C110.438596,57.4300001 109.934837,57.09 109.598998,56.58 C109.263158,56.2399999 108.927318,55.7300001 108.759398,55.0499998 C108.423559,54.54 108.255639,53.8600002 108.255639,53.1800001 Z M114.468672,52.33 C114.468672,51.6500001 114.300752,50.9700001 113.964912,50.46 C113.629073,49.9500002 113.125313,49.7799999 112.453634,49.7799999 C112.117794,49.7799999 111.781955,49.7799999 111.446115,49.9500002 C111.110276,50.12 110.942356,50.2900002 110.774436,50.46 C110.606516,50.63 110.438596,50.9700001 110.270677,51.3100001 C110.102757,51.6500001 110.102757,51.9899999 110.102757,52.33 L114.468672,52.33 Z M122.025062,48.42 L123.032581,48.42 C123.200501,48.42 123.368421,48.42 123.536341,48.59 L123.87218,48.59 L123.536341,49.9500002 C123.368421,49.9500002 123.200501,49.7799999 122.864662,49.7799999 C122.528822,49.7799999 122.192982,49.6100002 121.689223,49.6100002 C121.353383,49.6100002 121.017544,49.6100002 120.849624,49.7799999 C120.513784,49.7799999 120.345865,49.9500002 120.345865,49.9500002 L120.345865,57.5999999 L118.666667,57.5999999 L118.666667,48.7600001 C119.002506,48.59 119.506266,48.42 120.177945,48.42 L122.025062,48.42 Z M125.047619,53.1800001 C125.047619,52.33 125.215539,51.6500001 125.383459,50.9700001 C125.551378,50.2900002 125.887218,49.7799999 126.390977,49.4400001 C126.726817,49.1000001 127.230576,48.7600001 127.734336,48.59 C128.238095,48.42 128.741855,48.25 129.245614,48.25 C130.421052,48.25 131.428571,48.59 132.10025,49.4400001 C132.77193,50.2900002 133.107769,51.3100001 133.107769,53.0100001 L133.107769,53.6899999 L126.894737,53.6899999 C126.894737,54.7099998 127.230576,55.3899998 127.734336,55.8999999 C128.238095,56.41 128.909774,56.58 129.917293,56.58 C130.421052,56.58 130.924812,56.58 131.428571,56.41 C131.764411,56.2399999 132.10025,56.2399999 132.26817,56.0700002 L132.43609,57.4300001 C132.26817,57.5999999 131.932331,57.5999999 131.428571,57.7699999 C130.924812,57.9399999 130.421052,57.9399999 129.749373,57.9399999 C128.909774,57.9399999 128.238095,57.7699999 127.734336,57.5999999 C127.230576,57.4300001 126.726817,57.09 126.390977,56.58 C126.055138,56.2399999 125.719298,55.7300001 125.551378,55.0499998 C125.215539,54.54 125.047619,53.8600002 125.047619,53.1800001 Z M131.260652,52.33 C131.260652,51.6500001 131.092732,50.9700001 130.756892,50.46 C130.421052,49.9500002 129.917293,49.7799999 129.245614,49.7799999 C128.909774,49.7799999 128.573935,49.7799999 128.238095,49.9500002 C127.902255,50.12 127.734336,50.2900002 127.566416,50.46 C127.398496,50.63 127.230576,50.9700001 127.062656,51.3100001 C126.894737,51.6500001 126.894737,51.9899999 126.894737,52.33 L131.260652,52.33 Z M141.33584,44.34 L143.015038,44 L143.015038,57.4300001 C142.679198,57.5999999 142.175438,57.5999999 141.503759,57.7699999 C141,57.9399999 140.328321,57.9399999 139.488722,57.9399999 C138.817042,57.9399999 138.145363,57.7699999 137.641604,57.5999999 C137.137845,57.4300001 136.634085,57.09 136.130326,56.58 C135.794486,56.2399999 135.458647,55.7300001 135.290726,55.0499998 C135.122807,54.54 134.954887,53.8600002 134.954887,53.0100001 C134.954887,52.33 135.122807,51.6500001 135.290726,51.1399998 C135.458647,50.63 135.794486,50.12 136.130326,49.6100002 C136.466165,49.2699999 136.969925,48.9299998 137.473684,48.59 C137.977443,48.42 138.481203,48.25 139.152882,48.25 C139.656641,48.25 140.160401,48.25 140.49624,48.42 C140.83208,48.59 141.167919,48.7600001 141.33584,48.7600001 L141.33584,44.34 Z M141.33584,50.46 C141.167919,50.2900002 140.83208,50.12 140.49624,49.9500002 C140.160401,49.7799999 139.656641,49.7799999 139.320802,49.7799999 C138.817042,49.7799999 138.481203,49.7799999 138.145363,50.12 C137.809524,50.2900002 137.473684,50.46 137.305764,50.8 L136.802005,51.8199999 C136.634085,52.16 136.634085,52.67 136.634085,53.1800001 C136.634085,54.2 136.969925,55.0499998 137.473684,55.7300001 C137.977443,56.2399999 138.649123,56.58 139.488722,56.58 L140.66416,56.58 C141,56.58 141.167919,56.41 141.33584,56.41 L141.33584,50.46 Z M151.746867,48.9299998 C151.914787,48.7600001 152.250626,48.59 152.586466,48.59 C152.922305,48.42 153.426065,48.42 153.929824,48.42 C154.601504,48.42 155.105263,48.59 155.609022,48.7600001 C156.112782,48.9299998 156.616541,49.2699999 156.952381,49.7799999 C157.28822,50.12 157.62406,50.63 157.79198,51.3100001 C157.959899,51.8199999 158.127819,52.4999998 158.127819,53.1800001 C158.127819,53.8600002 157.959899,54.54 157.79198,55.2200001 C157.62406,55.7300001 157.28822,56.2399999 156.952381,56.75 C156.616541,57.09 156.112782,57.4300001 155.441103,57.7699999 C154.937343,57.9399999 154.265664,58.1099999 153.593985,58.1099999 C152.922305,58.1099999 152.250626,58.1099999 151.578947,57.9399999 C151.075188,57.7699999 150.571428,57.7699999 150.067669,57.5999999 L150.067669,44.5100003 L151.746867,44.1700003 L151.746867,48.9299998 Z M151.746867,56.2399999 C151.914787,56.2399999 152.082707,56.41 152.418546,56.41 L153.593985,56.41 C154.433584,56.41 155.105263,56.0700002 155.609022,55.5599999 C156.112782,55.0499998 156.448621,54.2 156.448621,53.0100001 C156.448621,52.4999998 156.448621,52.16 156.280702,51.6500001 C156.112782,51.3100001 156.112782,50.8 155.776942,50.63 C155.609022,50.2900002 155.273183,50.12 154.937343,49.9500002 C154.601504,49.7799999 154.265664,49.6100002 153.761904,49.6100002 C153.258145,49.6100002 152.922305,49.6100002 152.586466,49.7799999 C152.250626,49.9500002 151.914787,50.12 151.746867,50.2900002 L151.746867,56.2399999 Z M159.471178,59.4699998 C159.639097,59.4699998 159.807018,59.6400001 159.974937,59.6400001 L160.646616,59.6400001 C161.318296,59.6400001 161.822055,59.4699998 162.157895,59.1299998 C162.493734,58.79 162.829574,58.45 163.165413,57.7699999 C162.493734,56.41 161.822055,54.88 161.150376,53.3499999 C160.478697,51.8199999 159.974937,50.12 159.639097,48.59 L161.318296,48.59 C161.486215,49.1000001 161.654135,49.6100002 161.822055,50.2900002 C161.989975,50.9700001 162.157895,51.4799999 162.493734,52.16 C162.661654,52.8400003 162.997494,53.5200001 163.165413,54.0299999 C163.501253,54.7099998 163.669173,55.2200001 164.005012,55.8999999 C164.508772,54.7099998 164.844611,53.5200001 165.180451,52.16 C165.51629,50.9700001 165.85213,49.7799999 166.18797,48.42 L167.867168,48.42 C167.531328,50.12 167.027569,51.8199999 166.523809,53.3499999 C166.02005,54.88 165.51629,56.41 164.844611,57.7699999 C164.676691,58.2799997 164.340852,58.79 164.172932,59.1299998 C164.005012,59.4699998 163.669173,59.8099999 163.333333,60.1499999 C162.997494,60.3199999 162.661654,60.66 162.325814,60.66 C161.989975,60.8299997 161.486215,60.8299997 160.982456,60.8299997 L160.310777,60.8299997 C160.142857,60.8299997 159.974937,60.8299997 159.974937,60.66 C159.974937,60.4899997 159.807018,60.66 159.807018,60.4899997 L159.471178,59.4699998 Z M179.117794,57.9399999 C178.278195,57.9399999 177.438596,57.7699999 176.598997,57.5999999 C175.927318,57.2599998 175.255639,56.9199998 174.75188,56.41 C174.24812,55.8999999 173.91228,55.2200001 173.576441,54.37 C173.240601,53.5200001 173.240601,52.67 173.240601,51.6500001 C173.240601,50.63 173.408521,49.7799999 173.744361,48.9299998 C174.0802,48.0800002 174.41604,47.4000001 175.087719,46.8900001 C175.591478,46.38 176.263158,45.8700002 176.934837,45.7 C177.606516,45.3599999 178.446115,45.3599999 179.285714,45.3599999 C179.789473,45.3599999 180.293233,45.3599999 180.629073,45.5300002 C180.964912,45.5300002 181.468671,45.7 181.636591,45.8700002 C181.972431,46.04 182.140351,46.04 182.30827,46.21 C182.47619,46.38 182.64411,46.38 182.64411,46.38 L181.972431,48.25 C181.636591,48.0800002 181.300752,47.91 180.796992,47.7400002 C180.293233,47.5699999 179.789473,47.5699999 179.117794,47.5699999 C178.614035,47.5699999 178.110275,47.7400002 177.606516,47.91 C177.102757,48.0800002 176.766917,48.42 176.431077,48.7600001 C176.095238,49.1000001 175.759398,49.6100002 175.591478,50.12 C175.423559,50.63 175.255639,51.3100001 175.255639,51.9899999 C175.255639,52.67 175.255639,53.1800001 175.423559,53.6899999 C175.591478,54.2 175.759398,54.7099998 176.095238,55.0499998 C176.431077,55.3899998 176.766917,55.7300001 177.270676,55.8999999 C177.774436,56.0700002 178.278195,56.2399999 178.949875,56.2399999 C179.789473,56.2399999 180.293233,56.2399999 180.796992,56.0700002 C181.300752,55.8999999 181.636591,55.7300001 181.972431,55.5599999 L182.81203,57.09 C182.64411,57.2599998 182.47619,57.2599998 182.30827,57.4300001 C182.140351,57.5999999 181.804511,57.5999999 181.468671,57.7699999 C181.132832,57.9399999 180.796992,57.9399999 180.293233,57.9399999 L179.117794,57.9399999 Z M193.223057,53.1800001 C193.223057,53.8600002 193.055138,54.54 192.887218,55.2200001 C192.719298,55.8999999 192.383458,56.41 192.047619,56.75 C191.711779,57.09 191.20802,57.4300001 190.70426,57.7699999 C190.200501,57.9399999 189.528822,58.1099999 188.857143,58.1099999 C188.185463,58.1099999 187.681704,57.9399999 187.010025,57.7699999 C186.506265,57.5999999 186.002506,57.2599998 185.666666,56.75 C185.330827,56.41 184.994987,55.7300001 184.827068,55.2200001 C184.659147,54.54 184.491228,54.0299999 184.491228,53.1800001 C184.491228,52.4999998 184.659147,51.8199999 184.827068,51.1399998 C184.994987,50.63 185.330827,50.12 185.666666,49.6100002 C186.002506,49.2699999 186.506265,48.9299998 187.010025,48.59 C187.513784,48.42 188.185463,48.25 188.689223,48.25 C189.360902,48.25 189.864661,48.42 190.53634,48.59 C191.0401,48.7600001 191.543859,49.1000001 191.879699,49.6100002 C192.215539,49.9500002 192.551378,50.46 192.719298,51.1399998 C192.887218,51.8199999 193.223057,52.33 193.223057,53.1800001 Z M191.0401,53.1800001 C191.0401,52.33 190.87218,51.4799999 190.53634,50.9700001 C190.200501,50.46 189.528822,50.12 188.857143,50.12 C188.185463,50.12 187.681704,50.46 187.177945,50.9700001 C186.842105,51.4799999 186.674185,52.16 186.674185,53.1800001 C186.674185,54.0299999 186.842105,54.88 187.177945,55.3899998 C187.513784,55.8999999 188.185463,56.2399999 188.857143,56.2399999 C189.528822,56.2399999 190.032581,55.8999999 190.53634,55.3899998 C190.70426,54.7099998 191.0401,54.0299999 191.0401,53.1800001 Z M195.573934,48.7600001 C195.909774,48.59 196.581453,48.59 197.085213,48.42 C197.756892,48.25 198.428571,48.25 199.26817,48.25 C199.939849,48.25 200.611529,48.42 201.115288,48.59 C201.619047,48.7600001 201.954887,49.1000001 202.290726,49.4400001 C202.626566,49.7799999 202.794486,50.2900002 202.962406,50.8 C203.130325,51.3100001 203.130325,51.8199999 203.130325,52.4999998 L203.130325,57.7699999 L200.947368,57.7699999 L200.947368,52.84 C200.947368,52.33 200.947368,51.9899999 200.779448,51.6500001 C200.779448,51.3100001 200.611529,50.9700001 200.443609,50.8 C200.275689,50.63 200.107769,50.46 199.77193,50.2900002 C199.60401,50.12 199.26817,50.12 198.932331,50.12 L198.092732,50.12 C197.756892,50.12 197.588972,50.12 197.421052,50.2900002 L197.421052,57.7699999 L195.238095,57.7699999 L195.238095,48.7600001 L195.573934,48.7600001 Z M205.817042,46.04 L208,45.7 L208,48.42 L211.190476,48.42 L211.190476,50.12 L208,50.12 L208,53.8600002 C208,54.54 208.167919,55.0499998 208.335839,55.3899998 C208.503759,55.7300001 209.007518,55.8999999 209.511278,55.8999999 C209.847117,55.8999999 210.182957,55.8999999 210.518796,55.7300001 C210.854636,55.7300001 211.022556,55.5599999 211.190476,55.5599999 L211.526315,57.2599998 C211.358396,57.4300001 211.022556,57.4300001 210.518796,57.5999999 C210.015037,57.7699999 209.679198,57.7699999 209.175438,57.7699999 C208.503759,57.7699999 208,57.5999999 207.49624,57.4300001 C206.992481,57.2599998 206.656641,56.9199998 206.488722,56.58 C206.152882,56.2399999 205.984962,55.8999999 205.984962,55.3899998 C205.817042,54.88 205.817042,54.37 205.817042,53.6899999 L205.817042,46.04 Z M215.72431,45.8700002 C215.72431,46.21 215.556391,46.55 215.388471,46.8900001 C215.052631,47.0600003 214.884711,47.2300001 214.548872,47.2300001 C214.213032,47.2300001 213.877193,47.0600003 213.541353,46.8900001 C213.205513,46.7200003 213.205513,46.38 213.205513,45.8700002 C213.205513,45.5300002 213.373433,45.1900001 213.541353,44.8500001 C213.877193,44.6800001 214.045112,44.5100003 214.548872,44.5100003 C214.884711,44.5100003 215.220551,44.6800001 215.388471,44.8500001 C215.556391,45.0200001 215.72431,45.3599999 215.72431,45.8700002 Z M215.388471,57.7699999 L213.205513,57.7699999 L213.205513,48.59 L215.388471,48.59 L215.388471,57.7699999 Z M218.243107,48.7600001 C218.578947,48.59 219.250626,48.59 219.754386,48.42 C220.258145,48.25 221.097744,48.25 221.937343,48.25 C222.609022,48.25 223.280701,48.42 223.784461,48.59 C224.28822,48.7600001 224.62406,49.1000001 224.959899,49.4400001 C225.295739,49.7799999 225.463659,50.2900002 225.631579,50.8 C225.799498,51.3100001 225.799498,51.8199999 225.799498,52.4999998 L225.799498,57.7699999 L223.616541,57.7699999 L223.616541,52.84 C223.616541,52.33 223.616541,51.9899999 223.448621,51.6500001 C223.448621,51.3100001 223.280701,50.9700001 223.112781,50.8 C222.944862,50.63 222.776942,50.46 222.441103,50.2900002 C222.273182,50.12 221.937343,50.12 221.601503,50.12 L220.761904,50.12 C220.426065,50.12 220.258145,50.12 220.090225,50.2900002 L220.090225,57.7699999 L217.907268,57.7699999 L217.907268,48.7600001 L218.243107,48.7600001 Z M236.210527,57.4300001 C235.874687,57.5999999 235.203006,57.5999999 234.699249,57.7699999 C234.027568,57.9399999 233.355889,57.9399999 232.51629,57.9399999 C231.844611,57.9399999 231.172932,57.7699999 230.669173,57.5999999 C230.165413,57.4300001 229.829574,57.09 229.493734,56.75 C229.157895,56.41 228.989974,55.8999999 228.822055,55.3899998 C228.654135,54.88 228.654135,54.37 228.654135,53.6899999 L228.654135,48.59 L230.837092,48.59 L230.837092,53.3499999 C230.837092,54.37 231.005012,55.0499998 231.340852,55.3899998 C231.676691,55.7300001 232.180451,56.0700002 232.85213,56.0700002 L233.691729,56.0700002 C234.027568,56.0700002 234.195489,56.0700002 234.363407,55.8999999 L234.363407,48.42 L236.546366,48.42 L236.546366,57.4300001 L236.210527,57.4300001 Z M246.453635,57.4300001 C246.117793,57.5999999 245.446115,57.5999999 244.942354,57.7699999 C244.270676,57.9399999 243.598997,57.9399999 242.759398,57.9399999 C242.08772,57.9399999 241.416039,57.7699999 240.912281,57.5999999 C240.408521,57.4300001 240.072682,57.09 239.736842,56.75 C239.401003,56.41 239.233082,55.8999999 239.065161,55.3899998 C238.897243,54.88 238.897243,54.37 238.897243,53.6899999 L238.897243,48.59 L241.080199,48.59 L241.080199,53.3499999 C241.080199,54.37 241.24812,55.0499998 241.583959,55.3899998 C241.919799,55.7300001 242.423559,56.0700002 243.095237,56.0700002 L243.934837,56.0700002 C244.270676,56.0700002 244.438597,56.0700002 244.606515,55.8999999 L244.606515,48.42 L246.789474,48.42 L246.789474,57.4300001 L246.453635,57.4300001 Z M254.513784,52.84 C254.513784,51.8199999 254.345863,51.1399998 254.177945,50.8 C254.010024,50.2900002 253.506266,50.12 252.834585,50.12 L251.994986,50.12 C251.659147,50.12 251.491228,50.12 251.323308,50.2900002 L251.323308,57.7699999 L249.140351,57.7699999 L249.140351,48.7600001 C249.47619,48.59 250.147869,48.59 250.819547,48.42 C251.491228,48.25 252.162907,48.25 252.834585,48.25 C253.506266,48.25 254.010024,48.25 254.345863,48.42 C254.681705,48.59 255.017544,48.7600001 255.353383,49.1000001 C255.521302,48.9299998 255.689223,48.9299998 255.857143,48.7600001 C256.025062,48.59 256.192983,48.59 256.528822,48.42 C256.69674,48.25 257.032582,48.25 257.368421,48.25 C257.704261,48.25 257.872179,48.0800002 258.208021,48.0800002 C258.879699,48.0800002 259.551378,48.25 259.887217,48.42 C260.390977,48.59 260.726816,48.9299998 260.894737,49.2699999 C261.230576,49.6100002 261.398495,50.12 261.398495,50.63 C261.566416,51.1399998 261.566416,51.6500001 261.566416,52.33 L261.566416,57.5999999 L259.383459,57.5999999 L259.383459,52.67 C259.383459,51.6500001 259.215538,50.9700001 259.047618,50.63 C258.879699,50.12 258.375939,49.9500002 257.704261,49.9500002 C257.368421,49.9500002 257.032582,49.9500002 256.69674,50.12 C256.360901,50.2900002 256.192983,50.2900002 256.025062,50.46 C256.192983,50.8 256.192983,51.1399998 256.192983,51.4799999 L256.192983,57.5999999 L254.010024,57.5999999 L254.010024,52.84 L254.513784,52.84 Z M276.175439,57.7699999 C276.007518,57.2599998 275.8396,56.75 275.671679,56.41 L275.167919,54.88 L270.130325,54.88 L269.626565,56.41 C269.458646,56.9199998 269.290726,57.4300001 269.122807,57.7699999 L266.77193,57.7699999 C267.275688,56.41 267.611529,55.2200001 268.115287,54.2 C268.619047,53.1800001 268.954886,51.9899999 269.290726,51.1399998 C269.626565,50.12 270.130325,49.2699999 270.466164,48.25 C270.802004,47.4000001 271.305764,46.55 271.641603,45.5300002 L273.656641,45.5300002 C273.99248,46.38 274.49624,47.2300001 274.832079,48.25 C275.167919,49.1000001 275.671679,50.12 276.007518,51.1399998 C276.343357,52.16 276.847117,53.1800001 277.182957,54.2 C277.518796,55.2200001 278.022556,56.58 278.526316,57.7699999 L276.175439,57.7699999 Z M272.481202,47.91 C272.145363,48.59 271.977442,49.2699999 271.641603,50.12 C271.305764,50.9700001 270.969924,51.9899999 270.634085,53.0100001 L274.664161,53.0100001 C274.328319,51.9899999 273.99248,50.9700001 273.656641,50.12 C273.152881,49.2699999 272.817041,48.42 272.481202,47.91 Z M280.037594,48.7600001 C280.373433,48.59 281.045112,48.59 281.548872,48.42 C282.22055,48.25 282.892231,48.25 283.731828,48.25 C284.403509,48.25 285.075187,48.42 285.578948,48.59 C286.082705,48.7600001 286.418547,49.1000001 286.754386,49.4400001 C287.090225,49.7799999 287.258144,50.2900002 287.426065,50.8 C287.593985,51.3100001 287.593985,51.8199999 287.593985,52.4999998 L287.593985,57.7699999 L285.411027,57.7699999 L285.411027,52.84 C285.411027,52.33 285.411027,51.9899999 285.243108,51.6500001 C285.243108,51.3100001 285.075187,50.9700001 284.907267,50.8 C284.739348,50.63 284.571427,50.46 284.235588,50.2900002 C284.06767,50.12 283.731828,50.12 283.395989,50.12 L282.556389,50.12 C282.22055,50.12 282.052632,50.12 281.884711,50.2900002 L281.884711,57.7699999 L279.701755,57.7699999 L279.701755,48.7600001 L280.037594,48.7600001 Z M293.471178,48.25 C294.142855,48.25 294.814535,48.42 295.150375,48.59 C295.654135,48.7600001 295.989974,48.9299998 296.325813,49.2699999 C296.661653,49.6100002 296.829573,49.9500002 296.997494,50.46 C297.165413,50.9700001 297.165413,51.4799999 297.165413,51.9899999 L297.165413,57.5999999 C296.829573,57.5999999 296.325813,57.7699999 295.654135,57.9399999 C294.982456,58.1099999 294.310775,58.1099999 293.471178,58.1099999 C292.967416,58.1099999 292.463661,58.1099999 291.959898,57.9399999 C291.45614,57.7699999 291.120301,57.5999999 290.78446,57.4300001 C290.44862,57.2599998 290.280702,56.9199998 290.112781,56.58 C289.944863,56.2399999 289.776942,55.7300001 289.776942,55.2200001 C289.776942,54.7099998 289.944863,54.2 290.112781,53.8600002 C290.280702,53.5200001 290.616541,53.1800001 290.95238,53.0100001 C291.28822,52.84 291.624059,52.67 292.127819,52.4999998 C292.631579,52.33 293.135337,52.33 293.639097,52.33 L294.310775,52.33 C294.646617,52.33 294.814535,52.33 295.150375,52.4999998 L295.150375,51.9899999 C295.150375,51.8199999 295.150375,51.4799999 294.982456,51.3100001 C294.982456,51.1399998 294.814535,50.9700001 294.646617,50.8 C294.478696,50.63 294.310775,50.46 294.142855,50.46 C293.974936,50.2900002 293.639097,50.2900002 293.303258,50.2900002 C292.799498,50.2900002 292.29574,50.2900002 291.959898,50.46 C291.624059,50.46 291.28822,50.63 290.95238,50.63 L290.616541,48.9299998 C290.95238,48.7600001 291.28822,48.7600001 291.79198,48.59 C292.29574,48.42 292.967416,48.25 293.471178,48.25 Z M293.639097,56.2399999 C294.310775,56.2399999 294.814538,56.2399999 295.150375,56.0700002 L295.150375,53.6899999 C294.982456,53.6899999 294.814538,53.6899999 294.646617,53.5200001 L293.303258,53.5200001 C293.135337,53.5200001 292.799498,53.6899999 292.631579,53.6899999 C292.463661,53.8600002 292.29574,53.8600002 292.127819,54.0299999 C291.959898,54.2 291.959898,54.37 291.959898,54.7099998 C291.959898,55.2200001 292.127819,55.5599999 292.463661,55.7300001 C292.631579,56.0700002 293.135337,56.2399999 293.639097,56.2399999 Z M303.042606,57.9399999 C302.370927,57.9399999 301.867167,57.9399999 301.531328,57.7699999 L300.52381,57.2599998 C300.355889,57.09 300.187968,56.75 300.02005,56.41 C299.852129,56.0700002 299.852129,55.5599999 299.852129,55.2200001 L299.852129,44.5100003 L302.035088,44.1700003 L302.035088,55.3899998 C302.035088,55.5599999 302.203006,55.7300001 302.203006,55.8999999 C302.370927,56.0700002 302.370927,56.0700002 302.706766,56.2399999 C302.874687,56.2399999 303.042606,56.41 303.378445,56.41 L303.042606,57.9399999 Z M312.781954,48.42 C311.774436,51.9899999 310.766916,55.0499998 309.591477,57.9399999 C309.423559,58.45 309.087719,58.96 308.919799,59.3 C308.75188,59.6400001 308.416039,59.9799999 308.080199,60.3199999 C307.74436,60.4899997 307.408521,60.8299997 307.072679,60.8299997 C306.736842,61 306.233082,61 305.729322,61 C305.393483,61 305.057644,61 304.721804,60.8299997 C304.385965,60.8299997 304.218044,60.66 304.050126,60.66 L304.385965,58.96 C304.889723,59.1299998 305.225564,59.1299998 305.561404,59.1299998 C306.065161,59.1299998 306.568921,58.96 306.904761,58.79 C307.2406,58.45 307.408521,58.1099999 307.74436,57.5999999 C307.072679,56.2399999 306.401003,54.88 305.897243,53.3499999 C305.225564,51.8199999 304.721804,50.12 304.218044,48.42 L306.401003,48.42 L306.904761,49.9500002 C307.072679,50.46 307.2406,51.1399998 307.408521,51.6500001 C307.576442,52.16 307.74436,52.84 308.080199,53.3499999 C308.248118,53.8600002 308.583959,54.54 308.75188,55.0499998 C309.087719,54.0299999 309.423559,52.84 309.759398,51.6500001 C310.095237,50.46 310.431076,49.2699999 310.598997,48.25 L312.781954,48.25 L312.781954,48.42 Z M314.461152,46.04 L316.644109,45.7 L316.644109,48.42 L319.834585,48.42 L319.834585,50.12 L316.644109,50.12 L316.644109,53.8600002 C316.644109,54.54 316.812029,55.0499998 316.97995,55.3899998 C317.147869,55.7300001 317.651629,55.8999999 318.155389,55.8999999 C318.491228,55.8999999 318.827065,55.8999999 319.162907,55.7300001 C319.498746,55.7300001 319.666667,55.5599999 319.834585,55.5599999 L320.170424,57.2599998 C320.002504,57.4300001 319.666667,57.4300001 319.162907,57.5999999 C318.827065,57.7699999 318.323307,57.7699999 317.819547,57.7699999 C317.147869,57.7699999 316.644109,57.5999999 316.140351,57.4300001 C315.636591,57.2599998 315.300749,56.9199998 315.132831,56.58 C314.796992,56.2399999 314.629073,55.8999999 314.629073,55.3899998 C314.461152,54.88 314.461152,54.37 314.461152,53.6899999 L314.461152,46.04 Z M324.368421,45.8700002 C324.368421,46.21 324.2005,46.55 324.032582,46.8900001 C323.69674,47.0600003 323.528822,47.2300001 323.192983,47.2300001 C322.857143,47.2300001 322.521302,47.0600003 322.185462,46.8900001 C321.849623,46.7200003 321.849623,46.38 321.849623,45.8700002 C321.849623,45.5300002 322.017544,45.1900001 322.185462,44.8500001 C322.521302,44.6800001 322.689222,44.5100003 323.192983,44.5100003 C323.528822,44.5100003 323.864661,44.6800001 324.032582,44.8500001 C324.2005,45.0200001 324.368421,45.3599999 324.368421,45.8700002 Z M324.032582,57.7699999 L321.849623,57.7699999 L321.849623,48.59 L324.032582,48.59 L324.032582,57.7699999 Z M326.383459,53.1800001 C326.383459,52.4999998 326.551377,51.8199999 326.719298,51.3100001 C326.887217,50.8 327.223056,50.12 327.558898,49.7799999 C327.894737,49.2699999 328.398495,48.9299998 328.902255,48.7600001 C329.406015,48.59 330.077693,48.42 330.749372,48.42 C331.588971,48.42 332.42857,48.59 333.26817,48.9299998 L332.76441,50.63 C332.596491,50.46 332.260652,50.46 331.92481,50.2900002 C331.588971,50.2900002 331.253132,50.12 330.917293,50.12 C330.077693,50.12 329.406015,50.46 329.070175,50.9700001 C328.566415,51.4799999 328.398495,52.16 328.398495,53.1800001 C328.398495,54.0299999 328.566415,54.88 329.070175,55.3899998 C329.406015,55.8999999 330.245614,56.2399999 331.085213,56.2399999 C331.421053,56.2399999 331.75689,56.2399999 332.092731,56.0700002 C332.42857,56.0700002 332.76441,55.8999999 332.932328,55.7300001 L333.26817,57.4300001 C333.100249,57.5999999 332.76441,57.5999999 332.260652,57.7699999 C331.75689,57.9399999 331.253132,57.9399999 330.749372,57.9399999 C329.909775,57.9399999 329.238094,57.7699999 328.734336,57.5999999 C328.230574,57.4300001 327.726816,57.09 327.223056,56.58 C326.887217,56.0700002 326.551377,55.5599999 326.383459,55.0499998 C326.551377,54.54 326.383459,53.8600002 326.383459,53.1800001 Z M337.634085,56.2399999 C338.137845,56.2399999 338.641603,56.2399999 338.809523,56.0700002 C339.145363,55.8999999 339.145363,55.7300001 339.145363,55.3899998 C339.145363,55.0499998 338.977442,54.88 338.809523,54.7099998 L337.466164,54.0299999 L336.458646,53.5200001 C336.122807,53.3499999 335.786968,53.1800001 335.619047,53.0100001 C335.451126,52.84 335.283208,52.4999998 335.115287,52.16 C334.947368,51.8199999 334.947368,51.4799999 334.947368,51.1399998 C334.947368,50.2900002 335.283208,49.6100002 335.954886,49.1000001 C336.626565,48.59 337.466164,48.42 338.473684,48.42 C338.977442,48.42 339.481204,48.42 339.984962,48.59 C340.488722,48.7600001 340.824561,48.7600001 341.160401,48.9299998 L340.824561,50.63 C340.656641,50.46 340.320801,50.46 339.984962,50.2900002 C339.649123,50.12 339.145363,50.12 338.809523,50.12 C338.305766,50.12 337.969924,50.12 337.802003,50.2900002 C337.466164,50.46 337.466164,50.63 337.466164,50.9700001 L337.466164,51.3100001 C337.466164,51.4799999 337.634085,51.4799999 337.802003,51.6500001 C337.969924,51.8199999 338.137845,51.8199999 338.305766,51.9899999 C338.473684,52.16 338.809523,52.16 339.145363,52.33 C339.649123,52.4999998 340.152881,52.67 340.488722,52.84 C340.824561,53.0100001 341.160401,53.1800001 341.328319,53.5200001 C341.49624,53.6899999 341.664161,54.0299999 341.832079,54.37 C342,54.7099998 342,55.0499998 342,55.3899998 C342,56.2399999 341.664161,56.92 340.99248,57.4300001 C340.320801,57.9399999 339.481204,58.1099999 338.305766,58.1099999 C337.466164,58.1099999 336.794486,58.1099999 336.290725,57.9399999 C335.786968,57.7699999 335.451126,57.7699999 335.283208,57.5999999 L335.619047,55.8999999 C335.954886,56.0700002 336.290725,56.0700002 336.794486,56.2399999 C337.298246,56.41 337.130325,56.2399999 337.634085,56.2399999 Z" id="Shape" fill="#3EB049" fill-rule="nonzero"/>
            <g id="Group" fill="#3EB049" fill-rule="nonzero">
                <path d="M7.07840237,37.9402392 C6.07037193,39.9547654 5.23034657,41.9692912 4.72633136,43.9838174 C6.91039727,44.6553262 9.09446324,44.9910803 11.4465342,45.1589575 C11.4465342,43.4801859 11.6145393,41.6335371 11.7825444,39.9547654 C10.1024937,39.4511339 8.42244296,38.7796251 7.07840237,37.9402392 Z" id="Shape"/>
                <path d="M11.4465342,45.4947116 L11.2785292,45.4947116 C9.09446324,45.3268347 6.74239223,44.8232031 4.55832627,44.3195718 L4.39032122,44.3195718 L4.39032122,44.1516944 C5.0623415,41.9692912 5.90236686,39.9547654 6.91039727,37.9402392 L7.07840237,37.7723622 C8.59044801,38.6117482 10.1024937,39.2832567 11.6145393,39.9547654 L11.7825444,39.9547654 L11.7825444,40.1226424 C11.6145393,41.8014142 11.4465342,43.4801859 11.4465342,45.1589575 L11.4465342,45.4947116 Z M4.89433643,43.9838174 C6.91039727,44.4874487 8.92645817,44.9910803 11.1105241,45.1589575 C11.1105241,43.4801859 11.2785292,41.9692912 11.4465342,40.4583967 C9.93448858,39.786888 8.59044801,39.1153795 7.07840237,38.4438707 C6.238377,39.9547654 5.39835166,41.9692912 4.89433643,43.9838174 Z" id="Shape"/>
                <path d="M15.9826712,15.2768221 C14.8066357,15.2768221 13.4625951,15.4446992 12.1185545,15.6125764 C12.2865596,16.9555937 12.4545647,18.1307339 12.7905748,19.4737512 C13.7986052,17.9628567 14.8066357,16.6198394 15.9826712,15.2768221 Z M5.39835166,46.1662204 C7.07840237,48.6843779 9.26246828,51.0346583 11.6145393,52.8813071 C11.2785292,50.8667811 11.2785292,49.0201321 11.1105241,47.0056063 C9.26246828,46.8377294 7.4144125,46.5019748 5.39835166,46.1662204 Z" id="Shape"/>
                <path d="M11.9505495,53.3849385 L11.6145393,53.0491843 C9.2624683,51.0346583 7.07840237,48.8522551 5.39835166,46.1662204 L5.0623415,45.6625891 L5.56635673,45.830466 C7.4144125,46.3340976 9.43047337,46.6698519 11.2785292,46.8377294 L11.4465342,46.8377294 L11.4465342,47.0056063 C11.4465342,48.8522551 11.6145393,50.8667811 11.9505495,52.8813071 L11.9505495,53.3849385 Z M5.90236686,46.3340976 C7.4144125,48.5165008 9.2624683,50.5310268 11.2785292,52.3776756 C11.1105241,50.5310268 10.942519,48.8522551 10.942519,47.1734837 C9.2624683,47.0056063 7.58241757,46.8377294 5.90236686,46.3340976 Z" id="Shape"/>
                <path d="M20.6868132,1.67877165 C18.3347422,2.51815749 16.1506763,3.52542047 14.1346154,4.86843779 C15.646661,5.03631498 17.1587067,5.37206928 18.6707523,5.87570079 C19.1747675,4.36480628 19.8467878,3.02178898 20.6868132,1.67877165 Z M30.2631024,0 C29.0870669,0 27.9110314,0 26.9030008,0.167877165 C28.4150466,1.34301732 29.9270921,2.51815749 31.4391379,3.86117482 L32.6151734,4.86843779 L31.4391379,6.04357793 C30.4311073,6.8829638 29.5910821,7.8902268 28.5830515,9.06536696 L28.0790363,9.56899842 C28.7510566,9.56899842 29.4230769,9.40112126 30.2631024,9.40112126 C41.519442,9.40112126 50.591716,18.4664882 50.591716,29.7142585 C50.591716,40.9620283 41.519442,50.0273954 30.2631024,50.0273954 C26.3989856,50.0273954 22.7028739,48.8522551 19.6787828,47.0056063 C18.1667371,47.1734837 16.6546915,47.3413607 15.1426458,47.3413607 L12.9585799,47.3413607 C12.9585799,49.6916411 13.29459,52.0419212 13.6306002,54.5600788 C18.3347422,57.7497448 24.0469146,59.5963939 30.2631024,59.5963939 C46.7275994,59.5963939 60,46.3340976 60,29.8821354 C60,13.2622961 46.7275994,0 30.2631024,0 Z" id="Shape"/>
                <path d="M26.3989856,7.05084093 C27.0710059,6.37933228 27.5750211,5.70782363 28.2470414,5.03631498 C26.9030008,3.86117482 25.3909552,2.68603465 23.8789095,1.84664882 C22.8708791,3.52542047 22.0308538,5.03631498 21.3588335,6.8829638 C22.7028739,7.38659528 24.0469146,7.8902268 25.2229501,8.56173545 C25.8949704,7.55447245 26.2309805,7.2187181 26.3989856,7.05084093 Z M9.59847844,15.9483307 C7.4144125,16.2840851 5.23034657,16.9555937 3.21428572,17.6271024 C4.05431106,19.8095055 5.0623415,21.8240315 6.40638207,23.8385574 C7.75042266,22.8312945 9.26246828,21.9919087 10.774514,21.1525229 C10.2704987,19.4737512 9.93448858,17.6271024 9.59847844,15.9483307 Z" id="Shape"/>
                <path d="M6.238377,24.1743118 L6.07037193,24.0064346 C4.89433643,21.9919087 3.71830095,19.9773827 2.87827556,17.7949795 L2.87827556,17.6271024 L3.04628065,17.6271024 C5.0623415,16.7877165 7.24640746,16.2840851 9.43047337,15.9483307 L9.59847846,15.9483307 L9.59847846,16.1162079 C9.76648351,17.7949795 10.1024937,19.6416284 10.6065089,21.3204 L10.6065089,21.4882772 L10.4385038,21.4882772 C8.92645817,22.327663 7.58241757,23.1670489 6.238377,24.1743118 Z M3.55029586,17.7949795 C4.39032122,19.8095055 5.39835166,21.8240315 6.40638207,23.5028032 L10.4385038,20.9846457 C10.1024937,19.4737512 9.76648351,17.7949795 9.43047337,16.1162079 C7.4144125,16.6198394 5.39835166,17.1234709 3.55029586,17.7949795 Z" id="Shape"/>
                <path d="M5.73436177,27.1961009 C4.05431106,28.5391182 2.71027049,29.8821354 1.19822485,31.3930301 C2.71027049,32.7360473 4.39032122,33.9111874 6.07037193,35.0863277 C6.91039727,33.7433102 7.75042266,32.232416 8.75845308,31.0572757 C7.75042266,29.7142585 6.74239223,28.5391182 5.73436177,27.1961009 Z" id="Shape"/>
                <path d="M6.238377,35.4220821 L6.07037193,35.2542047 C4.39032122,34.0790646 2.71027049,32.9039245 1.19822485,31.560907 L1.03021978,31.3930301 L1.19822485,31.2251527 C2.54226545,29.7142585 4.05431106,28.2033638 5.73436177,26.8603465 L5.90236686,26.8603465 L6.07037193,27.0282237 C7.07840237,28.371241 8.08643278,29.7142585 9.09446324,30.8893983 L9.2624683,31.0572757 L9.09446324,31.2251527 C8.08643278,32.5681702 7.24640746,33.9111874 6.40638207,35.2542047 L6.238377,35.4220821 Z M1.53423499,31.3930301 C3.04628065,32.5681702 4.55832629,33.7433102 6.07037196,34.7505731 C6.74239223,33.4075559 7.58241757,32.232416 8.59044801,30.8893983 C7.58241757,29.7142585 6.57438716,28.5391182 5.7343618,27.3639779 C4.22231616,28.7069953 2.87827556,30.0500126 1.53423499,31.3930301 Z" id="Shape"/>
                <path d="M13.29459,40.7941511 C13.126585,42.3050456 12.9585799,43.8159402 12.9585799,45.3268347 L17.4947168,45.3268347 C15.8146661,44.1516946 14.4706255,42.472923 13.29459,40.7941511 Z" id="Shape"/>
                <path d="M15.1426458,45.6625891 L12.7905748,45.6625891 L12.7905748,45.4947116 C12.7905748,43.9838174 12.9585799,42.3050456 13.126585,40.7941511 L13.126585,40.4583967 L13.4625951,40.6262739 C14.6386306,42.3050456 15.9826712,43.8159402 17.4947168,45.1589575 L17.830727,45.4947116 L17.3267118,45.4947116 C16.6546915,45.6625891 15.9826712,45.6625891 15.1426458,45.6625891 Z M13.126585,45.1589575 L16.8226965,45.1589575 C15.478656,43.9838174 14.3026205,42.8086771 13.29459,41.2977827 C13.29459,42.6407999 13.29459,43.9838174 13.126585,45.1589575 Z" id="Shape"/>
                <path d="M17.6627219,8.39385826 C15.8146661,7.8902268 13.9666103,7.55447245 11.9505494,7.2187181 C11.7825444,9.2332441 11.7825444,11.0798929 11.9505494,13.0944189 C13.4625951,12.9265417 14.9746408,12.7586646 16.4866864,12.7586646 C16.8226965,11.2477701 17.1587067,9.90475275 17.6627219,8.39385826 Z M20.350803,9.2332441 C20.0147929,10.4083843 19.6787828,11.4156473 19.3427726,12.5907874 C20.6868132,11.7514016 22.0308538,11.0798929 23.5428994,10.5762614 C22.534869,10.0726299 21.3588335,9.73687561 20.350803,9.2332441 Z" id="Shape"/>
                <g id="Shape" transform="translate(0.526205, 33.050507)">
                    <path d="M0.336010144,0.692802666 C0.672020288,3.54671448 1.51204565,6.40062629 2.68808114,8.91878376 C3.36010144,7.24001211 4.03212171,5.56124046 4.8721471,3.88246883 C3.19209637,2.87520583 1.68005072,1.86794282 0.336010144,0.692802666 Z" id="Path"/>
                    <path d="M2.68808114,9.42241527 L2.52007607,8.91878376 C1.34404057,6.23274913 0.504015215,3.54671448 0.168005072,0.692802666 L0.168005072,0.18917117 L0.504015215,0.524925501 C1.84805579,1.70006566 3.36010144,2.70732866 4.8721471,3.71459164 L5.04015215,3.88246883 L4.8721471,3.88246883 C4.03212171,5.56124046 3.36010144,7.24001211 2.85608621,8.91878376 L2.68808114,9.42241527 Z M0.504015215,1.19643416 C0.840025361,3.71459164 1.51204565,6.06487194 2.52007607,8.41515227 C3.19209637,6.73638064 3.6961116,5.39336329 4.53613694,3.88246883 C3.19209637,3.04308296 1.84805579,2.20369715 0.504015215,1.19643416 Z"/>
                </g>
                <path d="M9.43047337,8.56173545 C7.58241757,10.2405071 6.07037193,12.2550331 4.89433643,14.4374362 C6.238377,14.1016819 7.91842773,13.7659276 9.43047337,13.4301732 C9.2624683,11.7514016 9.2624683,10.2405071 9.43047337,8.56173545 Z" id="Shape"/>
                <g id="Shape" transform="translate(7.246408, 22.977878)">
                    <path d="M0.336010144,2.87520583 C1.1760355,4.05034599 1.84805579,5.05760899 2.85608621,6.06487194 C2.85608621,4.21822313 3.19209637,2.37157431 3.86411665,0.692802668 C2.52007607,1.19643416 1.51204565,2.03581999 0.336010144,2.87520583 Z" id="Path"/>
                    <path d="M3.0240913,6.40062629 L2.68808114,6.06487194 C1.84805579,5.05760899 1.00803043,4.05034599 0.168005072,2.87520583 L0,2.70732866 L0.168005072,2.53945148 C1.34404057,1.70006566 2.35207101,1.028557 3.52810651,0.357048336 L4.03212171,0.0212940051 L3.86411665,0.524925501 C3.36010144,2.20369717 3.0240913,4.05034599 3.0240913,5.8969948 L3.0240913,6.40062629 Z M0.672020288,2.87520583 L2.68808114,5.39336329 C2.85608621,3.88246883 3.0240913,2.37157431 3.52810651,1.028557 C2.52007607,1.5321885 1.51204565,2.20369717 0.672020288,2.87520583 Z"/>
                </g>
                <g id="Shape" transform="translate(7.246408, 31.896661)">
                    <path d="M0.672020288,4.19692912 C1.84805579,4.86843779 3.19209637,5.53994645 4.53613694,6.04357793 C3.6961116,4.36480628 3.19209637,2.51815749 3.0240913,0.503631498 C2.18406594,1.84664882 1.34404057,3.02178898 0.672020288,4.19692912 Z" id="Path"/>
                    <path d="M5.04015215,6.54720945 L4.53613694,6.37933228 C3.19209637,5.87570079 1.84805579,5.20419212 0.672020288,4.53268347 L0.504015215,4.36480628 L0.672020288,4.19692912 C1.34404057,3.02178898 2.18406594,1.67877165 3.0240913,0.671508661 L3.19209637,0.167877165 L3.19209637,0.671508661 C3.52810651,2.51815749 4.03212171,4.36480628 4.70414201,6.04357793 L5.04015215,6.54720945 Z M1.00803043,4.19692912 C2.01606086,4.70056063 3.19209637,5.37206928 4.20012681,5.70782363 C3.52810651,4.19692912 3.19209637,2.68603465 2.85608621,1.17514016 C2.18406594,2.18240315 1.51204565,3.18966612 1.00803043,4.19692912 Z"/>
                </g>
                <g id="Shape" transform="translate(0.000000, 19.620334)">
                    <path d="M4.55832629,5.56124046 C3.55029586,4.05034599 2.71027049,2.53945148 2.03825022,0.860679831 C1.19822485,3.54671448 0.694209637,6.23274913 0.694209637,9.08666095 C1.87024515,7.91152081 3.21428572,6.73638064 4.55832629,5.56124046 Z" id="Path"/>
                    <path d="M0.358199493,9.75816962 L0.358199493,9.25453811 C0.358199493,6.40062629 0.862214708,3.54671448 1.70224006,0.860679831 L2.03825022,0.357048336 L2.20625529,0.860679831 C2.87827556,2.53945148 3.71830093,4.05034599 4.72633136,5.56124046 L4.89433643,5.72911764 L4.72633136,5.8969948 C3.38229079,7.07213494 2.03825022,8.24727511 0.862214708,9.42241527 L0.358199493,9.75816962 Z M2.03825022,1.5321885 C1.36622992,3.88246883 0.862214708,6.23274913 0.862214708,8.75090662 C2.03825022,7.57576646 3.04628065,6.56850346 4.39032122,5.56124046 C3.38229077,4.21822313 2.71027049,2.87520583 2.03825022,1.5321885 Z"/>
                </g>
            </g>
        </g>
    </g>
</svg>
