<svg width="240" height="73" viewBox="0 0 240 73" fill="none" xmlns="http://www.w3.org/2000/svg">
<path d="M23.9054 72.448L23.9146 36.5207C23.9146 29.5616 19.8332 25.1076 12.9788 25.1076C9.57893 25.1076 6.67633 26.2979 4.44833 28.8692V9.66034H0V48.0974H4.44833V37.2772C4.44833 31.9422 7.47582 29.122 12.0536 29.122C16.6261 29.122 19.4674 31.88 19.4674 37.2772L19.4751 67.5914C19.4751 71.5517 22.2685 72.448 23.6866 72.448H23.9054Z" fill="#002039"/>
<path d="M157.08 52.929C154.922 55.0215 151.941 56.359 148.129 56.359C144.325 56.359 141.392 55.0215 139.231 52.929C136.057 49.8155 135.419 45.5948 135.419 40.9373C135.419 36.2928 136.057 32.0721 139.231 28.9434C141.392 26.8683 144.325 25.521 148.129 25.521C151.941 25.521 154.922 26.8683 157.08 28.9434C160.257 32.0721 160.894 36.2928 160.894 40.9373C160.894 45.5948 160.257 49.8155 157.08 52.929V52.929ZM153.848 31.6354C152.386 30.2357 150.353 29.4366 148.129 29.4366C145.911 29.4366 143.989 30.2357 142.533 31.6354C140.242 33.8417 139.994 37.5753 139.994 40.9373C139.994 44.3047 140.242 48.0398 142.533 50.2389C143.989 51.6466 145.911 52.4471 148.129 52.4471C150.353 52.4471 152.386 51.6466 153.848 50.2389C156.126 48.0398 156.319 44.3047 156.319 40.9373C156.319 37.5753 156.126 33.8417 153.848 31.6354Z" fill="#002039"/>
<path d="M178.324 29.4717C182.949 29.4717 185.895 32.1866 185.895 37.5597V56.359H190.391V36.8192C190.391 33.3046 189.396 30.4637 187.204 28.3618C185.329 26.5069 182.641 25.521 179.328 25.521H177.321C174.007 25.521 171.32 26.5069 169.444 28.3618C167.253 30.4637 166.257 33.3046 166.257 36.8192V56.359H170.754V37.5597C170.754 32.1866 173.699 29.4717 178.324 29.4717Z" fill="#002039"/>
<path d="M125.135 28.0629C123.261 26.1942 120.576 25.201 117.266 25.201H115.26C111.95 25.201 109.265 26.1942 107.392 28.0629C107.047 28.3965 106.734 28.751 106.448 29.1217C106.161 28.751 105.85 28.3965 105.504 28.0629C103.631 26.1942 100.945 25.201 97.6357 25.201H95.6302C92.3196 25.201 89.6351 26.1942 87.7609 28.0629C85.5719 30.1804 84.5769 33.0424 84.5769 36.5831V56.2679H89.0695V37.3291C89.0695 31.9161 92.0122 29.1811 96.6326 29.1811C101.254 29.1811 104.196 31.9161 104.196 37.3291V56.2679H108.7V37.3291C108.7 31.9161 111.643 29.1811 116.264 29.1811C120.884 29.1811 123.826 31.9161 123.826 37.3291V56.2679H128.323V36.5831C128.323 33.0424 127.326 30.1804 125.135 28.0629" fill="#002039"/>
<path d="M192.293 9.88236C192.293 4.58162 196.601 0.286804 201.921 0.286804C207.245 0.286804 211.555 4.58162 211.555 9.88236C211.555 15.1819 207.245 19.476 201.921 19.476C196.601 19.476 192.293 15.1819 192.293 9.88236" fill="#00A8C8"/>
<path d="M207.821 9.4327L198.436 13.4539V5.40924L207.821 9.4327Z" fill="#FFFFFE"/>
<path d="M201.117 56.359H205.14V25.521H201.117V56.359Z" fill="#002039"/>
<path d="M228.017 52.1049C227.735 52.1705 227.538 52.2077 227.427 52.2278C226.806 52.3599 226.155 52.4471 225.417 52.4471C222.428 52.4471 219.939 51.2842 218.321 49.0171C216.883 47.0574 216.326 44.7331 216.326 40.9373C216.326 37.1469 216.883 34.8226 218.321 32.8647C219.939 30.5977 222.428 29.4366 225.417 29.4366C226.196 29.4366 226.893 29.503 227.544 29.64C228.475 29.8001 230.288 30.2156 232.023 31.2127C232.583 31.5345 232.963 31.8266 233.227 32.088L233.296 32.0239V27.9558C230.968 26.1668 228.643 25.521 225.417 25.521C217.694 25.521 211.844 30.6584 211.844 40.9373C211.844 51.2231 217.694 56.359 225.417 56.359C228.643 56.359 230.968 55.7124 233.296 53.9212V49.8105L233.244 49.7616C233.042 49.9232 232.803 50.094 232.511 50.2765C230.803 51.3495 228.98 51.8795 228.017 52.1049" fill="#002039"/>
<path d="M73.6245 25.5255C70.3318 25.5255 67.661 26.5018 65.797 28.3386C63.6191 30.42 62.6294 33.2331 62.6294 36.7135V56.0413H67.0987V37.4471C67.0987 33.9789 68.3484 31.637 70.4866 30.4215C73.5386 29.1401 77.2955 29.3285 80.1665 31.3951L80.4469 27.1997C79.8192 26.7626 79.1991 26.435 78.3742 26.1439C76.9481 25.6415 75.0464 25.4918 73.6245 25.5255V25.5255ZM50.1403 45.3572C50.1403 47.8613 49.6424 49.5745 48.5871 50.5508C46.6608 52.3877 44.3662 52.5715 41.7513 52.5715C36.4231 52.5715 35.054 49.4157 35.054 47.4469C35.054 45.4785 34.9031 42.5664 38.1073 40.9468C41.0592 39.7074 46.3284 39.585 50.1403 42.9952V45.3572ZM42.3763 25.5456C37.4044 25.5456 34.0489 27.4924 33.2143 28.7799L33.1874 32.9022C34.9905 30.3999 38.3969 29.335 42.3147 29.335C47.9009 29.335 50.1403 31.5396 50.1403 35.9393V39.3321C48.8317 38.4078 46.2699 36.7423 42.0035 36.7423C38.7108 36.7423 35.517 37.4687 33.3422 39.6104C30.5058 42.403 30.8512 47.47 30.8512 47.47C30.8512 47.47 30.8778 56.359 41.4547 56.359C45.5516 56.359 47.6513 55.7039 50.1403 53.2551L50.2797 56.0534H54.7521L54.6123 35.5716C54.6123 29.0283 50.5697 25.5456 42.3763 25.5456V25.5456Z" fill="#002039"/>
<path d="M236.832 61.5954H237.184C237.553 61.5954 237.905 61.4937 237.905 61.1552C237.905 60.8846 237.737 60.6983 237.234 60.6983C237.034 60.6983 236.916 60.7157 236.832 60.7324V61.5954ZM236.832 63.1855H236.33V60.3772C236.615 60.3264 236.899 60.2926 237.285 60.2926C237.754 60.2926 237.972 60.3772 238.157 60.5123C238.324 60.6307 238.441 60.8508 238.441 61.1047C238.441 61.4599 238.19 61.663 237.888 61.7643V61.7981C238.14 61.8994 238.274 62.1199 238.358 62.4747C238.441 62.8979 238.492 63.0842 238.559 63.1855H238.039C237.955 63.0842 237.888 62.8303 237.821 62.441C237.754 62.1366 237.553 62.0011 237.168 62.0011H236.832V63.1855ZM237.302 59.5142C236.112 59.5142 235.206 60.4953 235.206 61.6967C235.206 62.932 236.112 63.913 237.336 63.913C238.525 63.9298 239.413 62.932 239.413 61.7138C239.413 60.4953 238.525 59.5142 237.319 59.5142H237.302ZM237.336 59.0406C238.827 59.0406 240 60.2076 240 61.6967C240 63.2193 238.827 64.4037 237.319 64.4037C235.826 64.4037 234.637 63.2193 234.637 61.6967C234.637 60.2076 235.826 59.0406 237.319 59.0406H237.336Z" fill="#002039"/>
</svg>
