<svg height="140" viewBox="0 0 400 140" width="400" xmlns="http://www.w3.org/2000/svg"><g fill="none"><g fill="#59595c"><path d="m0 23.6301329v-.1266829c0-12.5076751 9.33456951-22.86852732 22.3285734-22.86852732 7.1298732 0 11.6702825 2.33835536 15.7702044 5.74899107.5052429.44263611 1.0104858 1.13712992 1.0104858 2.02164809 0 1.32715429-1.1987283 2.46353016-2.5239556 2.46353016-.6934854 0-1.2619778-.3159532-1.6399687-.5678109-3.4071894-3.03209512-7.2541133-5.05374321-12.6800154-5.05374321-9.77581 0-17.09317274 7.95915541-17.09317274 18.12998321v.1259289c0 10.2341693 7.38061224 18.2566661 17.09317274 18.2566661 5.4891515 0 9.3360754-1.8957192 13.1220088-5.3689423.3779909-.3792947.9464833-.6952479 1.5767192-.6952479 1.2612248 0 2.3967036 1.1363759 2.3967036 2.4001887 0 .7578353-.3787439 1.3897417-.8199843 1.7682823-4.3521668 3.9807088-9.146327 6.5068263-16.4004403 6.5068263-12.74251191 0-22.1403309-10.0441449-22.1403309-22.7410903" transform="translate(32.250138 45.075944)"/><path d="m39.9074118 23.6301329v-.1266829c0-10.044145-7.3173628-18.25591211-17.4101731-18.25591211-10.0928104 0-17.28367419 8.08583831-17.28367419 18.12998321v.1259289c0 10.044899 7.31736279 18.2566661 17.41017309 18.2566661 10.0928104 0 17.2836742-8.0858383 17.2836742-18.1299832m-39.86599845 0v-.1266829c0-12.1917219 9.146327-22.86852732 22.58232425-22.86852732 13.4352443 0 22.4558253 10.55012252 22.4558253 22.74259842v.1259289c0 12.1924759-9.145574 22.8677732-22.5823242 22.8677732-13.43675028 0-22.45582535-10.5493684-22.45582535-22.7410903" transform="translate(78.756353 45.075944)"/><path d="m0 3.18517029c0-1.38974168 1.13472584-2.52762567 2.4599531-2.52762567 1.38847674 0 2.52395555 1.13788399 2.52395555 2.52762567v17.43548941h25.48427075v-17.43548941c0-1.38974168 1.1354789-2.52762567 2.5239556-2.52762567 1.3229683 0 2.4584472 1.13788399 2.4584472 2.52762567v39.79803921c0 1.3897416-1.1354789 2.5261175-2.4584472 2.5261175-1.3884767 0-2.5239556-1.1363759-2.5239556-2.5261175v-17.6888553h-25.48427075v17.6888553c0 1.3897416-1.13547881 2.5261175-2.52395555 2.5261175-1.32522726 0-2.4599531-1.1363759-2.4599531-2.5261175z" transform="translate(135.625168 45.495204)"/><path d="m0 42.1808844v-39.16613279c0-1.38974167 1.13472584-2.52611753 2.4599531-2.52611753h27.439734c1.2619777 0 2.2717106 1.01044701 2.2717106 2.27425984 0 1.26305877-1.0097329 2.27350579-2.2717106 2.27350579h-24.91577845v15.09864219h22.07708135c1.2619778 0 2.2724636 1.0730344 2.2724636 2.2735058 0 1.2638128-1.0104858 2.2742598-2.2724636 2.2742598h-22.07708135v15.4764288h25.23127285c1.2612248 0 2.2717106 1.0119551 2.2717106 2.2742598 0 1.2638129-1.0104858 2.2750139-2.2717106 2.2750139h-27.7552284c-1.32522726 0-2.4599531-1.1371299-2.4599531-2.5276256" transform="translate(184.821971 45.981576)"/><path d="m0 3.18517029c0-1.38974168 1.13547881-2.52762567 2.4599531-2.52762567 1.38772377 0 2.52395555 1.13788399 2.52395555 2.52762567v39.79803921c0 1.3897416-1.13623178 2.5261175-2.52395555 2.5261175-1.32447429 0-2.4599531-1.1363759-2.4599531-2.5261175z" transform="translate(277.50957 45.495204)"/><path d="m15.8123707 4.65258065h-12.80500839c-1.26197777 0-2.33571304-1.01044701-2.33571304-2.27425984s1.07373527-2.33684724 2.33571304-2.33684724h30.65717489c1.2612248 0 2.3334542 1.07303441 2.3334542 2.33684724s-1.0722294 2.27425984-2.3334542 2.27425984h-12.8065143v37.39709645c0 1.3897417-1.1354788 2.5268716-2.5224496 2.5268716-1.3877238 0-2.5232026-1.1371299-2.5232026-2.5268716z" transform="translate(292.540358 46.428737)"/><path d="m17.3183108 27.5738925-16.39893439-22.99445615c-.31549444-.5052235-.56849237-1.07378846-.56849237-1.70569488 0-1.32640022 1.19797532-2.46353014 2.58569909-2.46353014 1.07222933 0 1.7664677.63190641 2.39745659 1.51642458l14.57147608 21.03614949 14.6972221-21.03614949c.6309889-.88451817 1.2604718-1.51642458 2.3349601-1.51642458 1.3862178 0 2.4576942 1.13712992 2.4576942 2.46353014 0 .63190642-.377991 1.32715429-.6927325 1.83237779l-16.3371908 22.74184444v15.2879125c0 1.3889876-1.1369847 2.5253634-2.5224496 2.5253634-1.3884767 0-2.5247085-1.1363758-2.5247085-2.5253634z" transform="translate(335.058317 45.743292)"/></g><path d="m22.589101 31.608894h-20.07342812c-1.31995647 0-2.38992688-1.0715263-2.38992688-2.3941562 0-1.3218758 1.06997041-2.3934021 2.38992688-2.3934021h20.07342812c6.0659266 0 11.0008922-4.9428957 11.0008922-11.0168887 0-6.07474713-4.9349656-11.01688872-11.0008922-11.01688872h-8.9166711c-1.3207095 0-2.3906799-1.07152628-2.3906799-2.39415617 0-1.32187584 1.0699704-2.39340211 2.3906799-2.39340211h8.9166711c8.7020747 0 15.7814989 7.08971853 15.7814989 15.804447 0 8.7147285-7.0794242 15.804447-15.7814989 15.804447" fill="#96c93d" transform="translate(228.685487 59.548712)"/><path d="m24.8480111 31.608894h-8.9174241c-8.70132171 0-15.78149893-7.0897185-15.78149893-15.804447 0-8.71472847 7.08017722-15.804447 15.78149893-15.804447h20.0734281c1.3207095 0 2.3906799 1.07152627 2.3906799 2.39340211 0 1.32262989-1.0699704 2.39415617-2.3906799 2.39415617h-20.0734281c-6.06517362 0-11.00013922 4.94214159-11.00013922 11.01688872 0 6.073993 4.9349656 11.0168887 11.00013922 11.0168887h8.9174241c1.3199565 0 2.3906799 1.0715263 2.3906799 2.3934021 0 1.3226299-1.0707234 2.3941562-2.3906799 2.3941562" fill="#96c93d" transform="translate(224.526081 46.299037)"/></g></svg>