<svg height="140" viewBox="0 0 400 140" width="400" xmlns="http://www.w3.org/2000/svg"><g fill="#1e1e1e" transform="translate(26 35)"><path d="m50.6074237 41.4990542c-.8785782 4.1046659-2.5058194 7.9401009-4.8553004 11.3628626-.6958163 1.0261664-1.8188109 1.5800756-2.9748348 1.5800756-.6870085 0-1.3982385-.2074401-2.0169865-.6377679-1.6558666-1.1144389-2.0676313-3.3433166-.9402328-4.9984237 1.8011953-2.6437579 3.058509-5.6185372 3.7543253-8.8051703.7574709-3.5331021.7574709-7.2515763 0-10.7692308-.6936144-3.186633-1.95313-6.1614123-3.7543253-8.8250315-1.1273985-1.6374527-.7156338-3.870744.9622523-4.9962169 1.6316452-1.1144388 3.8666247-.6929382 4.9720038.9599622 2.3494809 3.4249685 3.9767222 7.231715 4.8553004 11.3628625.9710601 4.4886507.9710601 9.2686003 0 13.7704918zm-19.4960679-14.1986128c-.8719723.8650693-2.0808431 1.3616015-3.3337528 1.3616015-1.237496 0-2.4551746-.4965322-3.3293488-1.3616015-.8741743-.8805171-1.3872287-2.1052964-1.3872287-3.3455234s.5130544-2.4363177 1.3872287-3.3212484c1.7483485-1.7698613 4.9279647-1.7698613 6.6631016 0 .8741742.8849307 1.3806228 2.0810214 1.3806228 3.3212484 0 1.2424338-.5042466 2.4650063-1.3806228 3.3455234zm.1034916 14.8584489-4.8817238 10.0189155c-.62095 1.3064313-1.9377162 2.0545397-3.276502 2.0545397-.5350739 0-1.0833596-.1368222-1.6008179-.3597099-1.8122051-.8849307-2.567474-3.0851198-1.6778861-4.8770492l4.8619062-10.0476041c.8939919-1.8250315 3.0805285-2.5775535 4.8817239-1.6771752 1.8232148.880517 2.5784838 3.0608449 1.6932997 4.8858764zm23.6973892-42.1588903h-39.8244732c-8.33217988 0-15.0877634 6.75504414-15.0877634 15.0879571v39.8240858c0 8.332913 6.75558352 15.0879571 15.0877634 15.0879571h39.8244732c8.3321799 0 15.0877634-6.7550441 15.0877634-15.0879571v-39.8240858c0-8.33291296-6.7555835-15.0879571-15.0877634-15.0879571z"/><path d="m97.1059495 51.0549378v-25.2626382h15.1081905v-12.5264904h-15.1081905v-13.2658092l-15.1059495 1.47422402v49.37105618c0 19.367949 19.28586 21.1577629 33 17.7899997l-3.213936-11.0522663c-6.963529 1.3682917-14.6778733.8408373-14.6778733-6.5280758z"/><path d="m155.417938 53.5833528c-18.750545 5.7154414-20.835876 1.1435239-20.835876-9.5576819v-30.0256709h-14.582062v33.1425904c0 15.0618437 6.981609 22.8574096 19.062146 22.8574096 2.501525 0 7.709405-1.1435239 20.103722-5.4039673l1.876144 4.05352h8.957988v-54.6473746h-14.582062v39.5833528z"/><path d="m310.105949 51.0549378v-25.2626382h15.108191v-12.5264904h-15.108191v-13.2658092l-15.105949 1.47422402v49.37105618c0 19.367949 19.28586 21.1577629 33 17.7899997l-3.213936-11.0522663c-6.963529 1.3682917-14.677873.8408373-14.677873-6.5280758z"/><path d="m334 68h14v-54h-14z"/><path d="m268.951143 13.0021781c-2.483974 0-7.763773 1.143524-20.18581 5.4017892l-1.864605-4.0513419h-8.900728v54.6473746h14.492377v-39.5833528c18.843122-5.8178141 21.015246-1.1435239 21.015246 9.5576819v30.0256709h14.492377v-33.1447686c0-15.0618436-6.936504-22.8552314-19.048857-22.8552314z"/><path d="m202.894925 25.8283616c6.070293-.312305 10.463758 2.3791569 12.661585 7.757743l-25.951435 6.4130964c.523188-7.9637775 6.068105-13.7587703 13.28985-14.1708394zm2.092751 31.8616163c-5.336954-.3101362-10.150721-1.6569515-12.766661-6.4152652l37.778985-9.2064911c-.420302-15.9318926-8.476082-29.0682216-26.476812-29.0682216-14.964488 0-27.523188 11.6897496-27.523188 28.862187 0 16.3439617 11.092022 28.137813 29.405789 28.137813 8.791308 0 15.174639-1.964919 19.465218-3.6218705l-3.454354-10.9653755c-5.021728 1.7567156-10.88406 2.4810897-16.428977 2.2750551z"/></g></svg>