<svg height="140" viewBox="0 0 400 140" width="400" xmlns="http://www.w3.org/2000/svg"><g fill="none" transform="translate(51 24.868552)"><path d="m24.5274725 28.4835165-1.2362637 7.1208791c-.1978022 1.1868132.6923077 2.2747253 1.9285714 2.2747253h16.1208791c1.8791209 0 3.4615385-1.3351649 3.8076923-3.2142857l1.2362638-7.1208792c.1978022-1.1868131-.6923077-2.2747252-1.9285714-2.2747252h-16.1208792c-1.8791208 0-3.4615384 1.3846154-3.8076923 3.2142857z" fill="#004dfd"/><path d="m16.3186813 68.8846154-1.2362637 7.1208791c-.1978022 1.1868132.6923077 2.2747253 1.9285714 2.2747253h23.6868132c1.8791209 0 3.4615385-1.3351649 3.8076923-3.2142857l1.2362637-7.1208792c.1978022-1.1868131-.6923077-2.2747252-1.9285714-2.2747252h-23.6868132c-1.8791209 0-3.510989 1.3351648-3.8076923 3.2142857z" fill="#478eff"/><path d="m1.48351648 48.6593407-1.23626373 7.1208791c-.1978022 1.1868132.69230769 2.2747253 1.92857143 2.2747253h30.70879122c1.8791209 0 3.4615384-1.3351649 3.8076923-3.2142858l1.2362637-7.1208791c.1978022-1.1868132-.6923077-2.2747253-1.9285714-2.2747253h-30.70879121c-1.87912088.0494506-3.46153846 1.3846154-3.80769231 3.2142858z" fill="#1573ff"/><g fill="#002769"><path d="m159.28022 88.3186813c-1.236264 0-2.126374-1.1373626-1.879121-2.3241758l.543956-2.6208791c-1.730769 1.8296703-4.104396 3.3131868-7.120879 4.5494505-3.016484 1.2362638-6.230769 1.8296704-9.593407 1.8296704-5.489011 0-10.087912-1.6813187-13.846154-4.9945055-3.758241-3.3131869-5.587912-7.7637363-5.587912-13.3516484 0-7.1208791 2.571429-12.8076923 7.664835-16.9615385 5.142858-4.2032967 11.917583-6.2802197 20.373627-6.2802197 4.994505 0 9.494505 1.2362637 13.54945 3.7087912l.494506-2.4725275c.346154-1.532967.494505-2.8681319.494505-3.956044 0-4.9945054-3.115384-7.5164835-9.346153-7.5164835-5.736264 0-11.571429 1.6318682-17.505495 4.8956044-1.137363.6428572-2.571429-.0494505-2.818681-1.3351648l-1.384616-7.5659341c-.296703-1.5824176.395605-3.2142857 1.829671-4.0054945 7.120879-4.0054945 14.587912-5.9835165 22.401099-5.9835165 2.274725 0 4.598901.2967033 6.972527.8406594 2.324176.5934066 4.747253 1.532967 7.21978 2.8681318 2.472528 1.3351649 4.45055 3.3626374 5.983517 6.0824176s2.274725 5.934066 2.274725 9.7417583c0 1.4835165-.296703 3.9560439-.840659 7.3681318l-5.983517 34.1703297c-.346154 1.8296703-1.928571 3.2142857-3.807692 3.2142857zm-13.648352-12.510989c5.142857 0 9.741758-1.5824176 13.796703-4.6978022.395605-.2967033.642858-.7417582.741759-1.1868132l.791208-4.3516483c.148352-.8901099-.296703-1.8296704-1.186813-2.1758242-3.016483-1.0879121-6.428571-1.6318681-10.186813-1.6318681-3.362637 0-6.230769.6923077-8.554945 2.0274725s-3.510989 3.4120879-3.510989 6.2307692c0 1.7307693.741758 3.1153846 2.225275 4.2032967 1.434066 1.0384616 3.412088 1.5824176 5.884615 1.5824176z"/><path d="m205.318681 89.8021978c-5.142857 0-9.93956-1.0879121-14.291208-3.2142857-3.659341-1.7802198-6.379121-4.0549451-8.258242-6.7747253-.593407-.8406593-.395605-2.0274725.395604-2.6703297l7.318681-5.587912c1.532968-1.1373627 3.609891-.989011 5.043957.2967033 3.214285 2.9175824 7.021978 4.3516483 11.373626 4.3516483 2.472527 0 4.54945-.4945055 6.32967-1.4340659 1.78022-.9395605 2.620879-2.3736264 2.620879-4.2527473 0-1.6318681-1.384615-3.3131868-4.203296-4.9945055-2.769231-1.6813187-5.884616-3.2142857-9.247253-4.5989011s-6.428572-3.5604395-9.247253-6.5769231c-2.769231-2.9670329-4.203297-6.4780219-4.203297-10.532967 0-6.0824176 2.324176-10.9285714 7.021978-14.5384615 4.697803-3.6098901 10.681319-5.3901099 18.098902-5.3901099 4.697802 0 8.901098 1.0384615 12.65934 3.0659341 2.967033 1.6318681 5.291209 3.4120879 7.071429 5.3406593.741758.8406593.593406 2.1758242-.296703 2.8681319l-7.467033 5.4395604c-1.483517 1.0879121-3.510989.989011-4.846154-.2472527-2.324176-2.1263737-5.241759-3.2142858-8.802198-3.2142858-2.373626 0-4.302198.4945055-5.785714 1.4835165-1.483517.989011-2.225275 2.3241758-2.225275 3.956044 0 1.2362637.93956 2.4230769 2.818681 3.6098901s4.153846 2.3736264 6.824176 3.5604395c2.67033 1.1868132 5.291209 2.5714286 7.912088 4.1043957 2.620879 1.532967 4.895604 3.6098901 6.774725 6.2307692 1.879121 2.5714286 2.818682 5.5384615 2.818682 8.8021978 0 6.478022-2.373627 11.5714286-7.071429 15.2307692-4.648352 3.8571429-11.027473 5.6868132-19.137363 5.6868132z"/><path d="m112.994505 29.4230769c-3.164835-3.7087912-7.714285-5.5879121-13.6978017-5.5879121-6.3296703 0-11.4725275 2.5714286-15.478022 7.7637363l.6923077-4.0054945c.1978022-1.1868132-.6923077-2.2747253-1.9285714-2.2747253h-10.434066-3.1153846-3.6593406c-1.8791209 0-3.4615385 1.3351649-3.8076923 3.2142857l-1.2362638 7.1208792c-.1978022 1.1868131.6923077 2.2747252 1.9285715 2.2747252h4.5989011l-8.5054945 47.9175824c-.1978022 1.1868132.6923076 2.2747253 1.9285714 2.2747253h10.1868132c1.8791208 0 3.4615384-1.3351648 3.8076923-3.2142857l5.8351648-32.9835165c.7417583-4.3516483 2.4230769-7.6153846 4.9945055-9.8406593s5.3406593-3.3131868 8.3076923-3.3131868c5.3406594 0 8.0109891 2.8681318 8.0109891 8.6043956 0 1.3846154-.197802 3.4120879-.593407 6.032967l-5.7362634 32.4395604c-.1978022 1.1868132.6923077 2.2747253 1.9285714 2.2747253h10.186813c1.879121 0 3.461539-1.3351648 3.807693-3.1648351l5.835164-32.7362638c.642857-3.6098901.989011-6.478022.989011-8.6043956-.098901-5.7362637-1.681318-10.4835165-4.846154-14.1923077z"/><path d="m294.972527 75.7582418h-4.598901l4.153847-23.3406594c.642857-3.6098901.989011-6.478022.989011-8.6043956 0-5.7362637-1.582418-10.4835165-4.747253-14.1923077s-7.714286-5.5879121-13.697802-5.5879121c-6.329671 0-11.521978 2.6208792-15.626374 7.8626374l5.241758-29.22527473c.247253-1.43406593-1.087912-2.62087912-2.472527-2.17582417l-11.571429 3.6098901c-1.384615.44505495-2.423077 1.58241759-2.67033 3.01648352l-13.846153 78.92307688c-.197803 1.1868132.692307 2.2747253 1.928571 2.2747253h11.818681c.939561 0 1.73077-.6923077 1.928572-1.5824176l6.131868-34.565934c.741758-4.3516484 2.423077-7.6153846 4.994505-9.8406594 2.571429-2.2252747 5.34066-3.3131868 8.307693-3.3131868 5.340659 0 8.010989 2.8681319 8.010989 8.6043956 0 1.3846154-.197802 3.4120879-.593407 6.0329671l-5.835165 32.3901098c-.197802 1.1868132.692308 2.2747253 1.928572 2.2747253h4.054945 9.395604 3.659341c1.879121 0 3.461538-1.3351648 3.807692-3.2142857l1.236264-7.1208791c.197802-1.1373627-.741758-2.2252747-1.928572-2.2252747z"/></g></g></svg>