<svg height="140" viewBox="0 0 400 140" width="400" xmlns="http://www.w3.org/2000/svg"><g fill="none" transform="translate(25 34)"><path d="m0 0h72.83237v72.83237h-72.83237z" fill="#000"/><path d="m57.3271676 64.2320809-48.51242772-55.20491327h6.69046242l48.5124278 55.20491327z" fill="#21d083"/><g fill="#222"><path d="m116.079827 9.56026012h7.290115l29.923989 34.98887278v-34.98887278h10.358381v53.71184968h-7.289306l-29.925203-34.9888728v34.9888728h-10.358381z"/><path d="m198.949913 38.9477168v24.324393h-10.358381v-24.324393l-18.415867-29.38745668h11.816445l11.816243 18.87572258 11.740375-18.87572258h11.815434z"/><path d="m240.768439 9.56026012c3.650055-.08175707 7.293106.35764084 10.819047 1.30491328 2.758703.7925777 5.35613 2.065164 7.673092 3.7593642 3.320071 2.4493097 6.004065 5.6594049 7.826647 9.3607803 1.909839 3.863033 2.882539 8.1217333 2.839249 12.4308671.043679 4.3091755-.929042 8.5679648-2.839249 12.430867-1.822932 3.7014832-4.506845 6.9118972-7.826647 9.3619942-2.316839 1.6941199-4.914325 2.9663244-7.673092 3.7581503-3.525826.947868-7.168963 1.3872762-10.819047 1.3049133h-16.880722v-53.71184968zm18.798035 26.85592488c.01411-2.1657318-.33584-4.3184364-1.035231-6.3681792-.647846-1.9171759-1.621254-3.7083609-2.877486-5.2949133-1.480287-1.8891466-3.386811-3.4009857-5.563584-4.4118208-2.575517-1.1194747-5.366349-1.656779-8.17341-1.5735838h-7.673092v35.2957803h7.673092c2.807109.0837894 5.598069-.4535397 8.17341-1.5735838 2.177187-1.0095153 4.083897-2.5210159 5.563584-4.4104046 1.256232-1.5865525 2.22964-3.3777374 2.877486-5.2949133.699495-2.0497865 1.049448-4.2025753 1.035231-6.3683815z"/><path d="m278.366329 9.56026012h10.358382v53.71184968h-10.358382z"/><path d="m325.402283 18.0011272c-2.442461-.0235706-4.861968.472979-7.097717 1.4566474-2.128703.940641-4.05636 2.2823902-5.677687 3.9519653-1.623056 1.6792271-2.900732 3.6606983-3.760578 5.832052-.90616 2.2824726-1.362188 4.7186984-1.342948 7.1743931-.021844 2.5005758.46121 4.9798397 1.420231 7.2893063 1.799132 4.3953073 5.279504 7.8898091 9.667485 9.7067341 4.452295 1.7948064 9.409011 1.890355 13.927168.2684682 1.908358-.7193204 3.694331-1.7287241 5.294913-2.9926011v-11.5858093h-13.811849v-9.2086416h24.169826v23.8631214c-2.515538 3.1585924-5.716531 5.7036689-9.36078 7.442659-4.119823 1.9560429-8.637679 2.9284143-13.197428 2.8404624-3.940519.0472037-7.851681-.6829725-11.50974-2.1487572-3.349896-1.3471867-6.40089-3.3424294-8.978006-5.8713006-2.524461-2.5061468-4.520594-5.4931925-5.870289-8.7843931-1.417042-3.4298321-2.13426-7.1082993-2.109508-10.8192485-.024853-3.7072864.67897-7.383332 2.071474-10.8192486 1.322392-3.287096 3.292466-6.2746133 5.793005-8.7847977 2.558987-2.5323923 5.597836-4.5283714 8.938353-5.8708959 3.657908-1.46606017 7.56906-2.19624724 11.509538-2.14875725 3.758874-.04451358 7.48897.66008905 10.972601 2.07268785 3.214434 1.3097442 6.155512 3.2092102 8.671503 5.6004046l-6.676301 7.0606937c-1.66889-1.657924-3.617037-3.0086009-5.754971-3.99-2.286917-1.041645-4.775513-1.5658216-7.288295-1.5351445z"/></g></g></svg>