<svg height="46" viewBox="0 0 240 46" width="240" xmlns="http://www.w3.org/2000/svg"><g fill="none"><path d="m20 0-20 11.5v23l20 11.5 20-11.5v-23zm0 0-20 11.5v23l20 11.5 20-11.5v-23z" fill="#fff"/><path d="m27.8957916 37.015625h-2.8456914l-3.4068136-3.1145833v-1.5972223l3.5270541-3.3541666v-5.3107639l4.6092184-2.9947917 5.250501 3.953125zm-11.7835672-8.3854167.5210421-4.9913194-1.7234469-4.4722222h10.1803608l-1.6833668 4.4722222.480962 4.9913194h-3.9278558zm2.3246493 5.2708334-3.4068136 3.1545139h-2.8857715l-7.17434872-12.4583334 5.29058112-3.9131944 4.6492986 2.9548611v5.3107639l3.5270541 3.3541666zm-6.3326653-23.95833337h15.751503l1.8837676 7.98611107h-19.478958zm7.8957916-9.94270833-20 11.5v23l20 11.5 20-11.5v-23z" fill="#03316c"/><g fill="#002e73"><path d="m61.9365854 33c-5.1512195 0-8.9365854-4.0043197-8.9365854-8.9416847s3.8243902-9.0583153 8.9756098-9.0583153c3.2780487 0 5.307317 1.2051836 6.907317 2.9546436l-2.4585366 2.6436285c-1.2097561-1.2829373-2.4975609-2.1382289-4.4878048-2.1382289-2.8878049 0-4.995122 2.4881209-4.995122 5.5205184 0 3.1101511 2.1463415 5.5982721 5.1902439 5.5982721 1.8731707 0 3.2390244-.8941685 4.4878049-2.1382289l2.3804878 2.3714902c-1.7170732 1.8272139-3.7073171 3.187905-7.0634146 3.187905"/><path d="m76.9382239 33h-3.9382239v-17.9905781h3.9382239v4.2055897c1.0810811-2.5700826 3.0501931-4.3613523 6.0617761-4.2055897v4.2055897h-.2316602c-3.4362935 0-5.8301159 2.2585574-5.8301159 6.8535535z"/><path d="m105 15-9.0572034 23h-4.1461864l1.9724576-4.8503401-7.7690678-18.1496599h4.3877119l5.273305 13.4166667 5.0720341-13.4166667z"/><path d="m116.980392 18.4812925c-2.705882 0-5.058823 2.1904762-5.058823 5.5935374 0 3.4030613 2.392156 5.5935374 5.058823 5.5935374 2.745098 0 4.980392-2.1513605 4.980392-5.5935374 0-3.4421768-2.274509-5.5935374-4.980392-5.5935374m.901961 14.6292517c-2.862745 0-4.666667-1.4472789-5.882353-3.0510204v7.9404762h-4v-23h4v3.2465986c1.294118-1.7993197 3.098039-3.2465986 5.882353-3.2465986 4.117647 0 8.117647 3.2465986 8.117647 9.0357143 0 5.7891156-3.960784 9.0748299-8.117647 9.0748299"/><path d="m135.245059 19.3891798v8.7504363c0 1.565445.790514 2.2076788 2.173913 2.2076788h1.581028v3.6527051h-2.766798c-2.924902 0-5.019763-1.3246073-5.019763-5.2181501v-9.3926701h-2.213439v-3.4921466h2.213439v-4.8970332h4.03162v4.8970332h3.754941v3.4921466z"/><path d="m151.439746 18.4211663c-3.293869 0-5.382664 2.488121-5.382664 5.5205184 0 3.0712743 2.249472 5.5982721 5.422833 5.5982721 3.293869 0 5.382664-2.4881209 5.382664-5.5205184.080339-3.0712743-2.209302-5.5982721-5.422833-5.5982721m0 14.5788337c-5.422833 0-9.439746-4.0043197-9.439746-8.9416847 0-4.9762419 4.057082-9.0583153 9.520085-9.0583153 5.463002 0 9.479915 4.0043197 9.479915 8.9805616 0 4.8984881-4.016913 9.0194384-9.560254 9.0194384"/><path d="m199.439746 18.4211663c-3.293869 0-5.382664 2.488121-5.382664 5.5205184 0 3.0712743 2.249472 5.5982721 5.422833 5.5982721 3.293869 0 5.382664-2.4881209 5.382664-5.5205184.040169-3.0712743-2.209302-5.5982721-5.422833-5.5982721m0 14.5788337c-5.422833 0-9.439746-4.0043197-9.439746-8.9416847 0-4.9762419 4.057082-9.0583153 9.520085-9.0583153 5.463002 0 9.479915 4.0043197 9.479915 8.9805616 0 4.8984881-4.057082 9.0194384-9.560254 9.0194384"/><path d="m233.769231 15c3.87426 0 6.230769 2.4978448 6.230769 6.9612069v11.9978448h-4.073964v-10.7284483c0-2.9073275-1.318048-4.4224137-3.594675-4.4224137-2.196746 0-3.794379 1.5969827-3.794379 4.5043103v10.6875h-4.073964v-10.7693966c0-2.825431-1.357988-4.4224137-3.594675-4.4224137-2.236686 0-3.794379 1.7198275-3.794379 4.5452586v10.6465517h-4.073964v-18.9590517h4.073964v3.1120689c1.158285-1.5969827 2.676036-3.1120689 5.392012-3.1120689 2.556213 0 4.31361 1.2693965 5.27219 3.1939655 1.47781-1.9655172 3.355029-3.2349138 6.031065-3.2349138"/><path d="m168 30.0714286v1.8571428l-.118812.1785715-1.782178.8928571h-.237624l-1.742574-.8928571-.118812-.1785715v-1.8571428l.118812-.1785715 1.742574-.8928571h.237624l1.782178.8928571z"/><path d="m180.75967 32.9967419c-5.138299-.1165936-8.836317-4.1973701-8.758464-9.1331664.077853-4.9357964 3.970504-8.9777083 9.147729-8.8611147 3.269827.0777291 5.294005 1.3213943 6.851065 3.109163l-2.491296 2.6039241c-1.167795-1.2825298-2.45237-2.2152787-4.437622-2.2541432-2.880561-.0388646-5.021519 2.3707368-5.060446 5.4410353-.077853 3.109163 2.024179 5.635358 5.060446 5.6742225 1.868472.0388646 3.269827-.8161553 4.515475-2.0598205l2.33559 2.4096014c-1.751693 1.8266333-3.775871 3.1480275-7.162477 3.0702985"/></g></g></svg>