<svg height="140" viewBox="0 0 400 140" width="400" xmlns="http://www.w3.org/2000/svg"><g fill="none" transform="translate(25 47)"><g transform="translate(0 1.842105)"><g fill="#ef7622"><path d="m49.5526316 34.0789474c-2.5789474 0-4.0526316 1.2894737-4.2368421 6.0789473 0 2.9473685-1.6578948 3.6842106-3.131579 3.6842106-2.5789473 0-3.5-2.5789474-3.5-8.8421053v-8.2894737c0-4.9736842.1842106-8.6578947 3.5-8.6578947 1.8421053 0 3.131579 1.2894737 3.131579 3.5 0 3.5 1.4736842 4.7894737 4.2368421 4.7894737 2.3947368 0 4.0526316-1.4736842 4.0526316-4.7894737s-2.0263158-10.131579-11.6052632-10.131579c-10.1315789 0-11.9736842 5.7105263-12.1578947 13.4473685h-25.42105267c-3.13157895 0-4.42105263 2.0263157-4.42105263 4.0526315 0 2.3947369 1.28947368 4.2368421 4.42105263 4.2368421h25.42105267v1.1052632c0 8.8421053 1.1052631 16.0263158 12.1578947 16.0263158 9.7631579 0 11.6052632-7.7368421 11.6052632-11.4210526.1842105-3.131579-1.4736843-4.7894737-4.0526316-4.7894737z"/><path d="m59.8684211 6.26315789c0-3.5 1.6578947-4.97368421 4.2368421-4.97368421 2.5789473 0 4.2368421 1.65789474 4.2368421 4.97368421v9.94736841h.1842105c1.2894737-3.1315789 4.6052631-4.7894737 7.7368421-4.7894737 4.6052632 0 7.9210526 2.9473685 7.9210526 9.2105263v24.6842106c0 3.5-1.6578947 4.9736842-4.2368421 4.9736842-2.5789473 0-4.2368421-1.6578948-4.2368421-4.9736842v-22.6578948c0-2.7631579-1.4736842-3.868421-3.1315789-3.868421-2.5789474 0-4.4210527 2.0263158-4.4210527 6.6315789v19.8947369c0 3.5-1.6578947 4.9736842-4.2368421 4.9736842-2.5789473 0-4.2368421-1.6578948-4.2368421-4.9736842v-39.05263161z"/><path d="m114.947368 41.4473684c0 2.3947369.552632 4.4210527.552632 5.5263158 0 2.2105263-1.473684 3.3157895-4.236842 3.3157895-2.210526 0-4.421053-1.1052632-4.421053-4.7894737h-.18421c-1.473684 3.3157895-4.605263 4.6052632-7.5526318 4.6052632-4.9736843 0-8.6578948-2.9473685-8.6578948-9.9473685 0-5.5263158 1.6578948-8.8421052 5.8947369-11.0526315l7.3684207-3.8684211c1.842106-.9210526 2.578948-2.3947368 2.578948-3.868421 0-2.0263158-1.105263-3.6842106-3.131579-3.6842106-2.947369 0-3.6842108 1.4736842-4.0526318 4.4210527-.1842106 1.6578947-1.8421053 2.5789473-4.0526316 2.5789473-1.8421053 0-4.4210527-.9210526-4.4210527-3.5 0-6.4473684 5.1578948-9.7631579 11.6052631-9.7631579 11.052632 0 12.342105 4.9736842 12.342105 10.8684211v19.1578947zm-8.473684-11.0526316-2.947368 2.0263158c-3.6842107 2.5789474-4.4210528 3.8684211-4.4210528 7 0 2.7631579 1.1052628 4.4210527 2.9473688 4.4210527 2.763157 0 4.421052-2.9473685 4.421052-6.8157895z"/><path d="m121.947368 16.0263158c0-2.7631579 1.105264-4.4210526 3.868421-4.4210526 2.763158 0 3.868422 1.8421052 3.868422 4.4210526v3.5h.18421c1.289474-4.6052632 3.31579-7.9210526 6.263158-7.9210526 2.210526 0 4.052632 1.6578947 4.052632 5.3421052 0 2.5789474-1.289474 4.9736842-5.157895 4.9736842-2.578948 0-4.789474 1.8421053-4.789474 4.9736842v18.2368421c0 3.5-1.657895 4.9736843-4.236842 4.9736843s-4.236842-1.6578948-4.236842-4.9736843v-29.1052631z"/><path d="m143.131579 25.4210526c0-7 1.842105-13.8157894 8.842105-13.8157894 3.131579 0 6.447369 1.8421052 7.736842 4.9736842h.184211c0-3.5 1.473684-4.9736842 4.052631-4.9736842 2.394737 0 4.052632 1.6578947 4.052632 4.9736842v35c0 8.4736842-4.236842 12.1578947-12.526316 12.1578947-6.263158 0-10.868421-2.0263158-10.868421-6.8157895 0-2.3947368 1.842105-3.6842105 4.236842-3.6842105 1.842106 0 3.131579 1.1052632 3.684211 2.3947368.736842 1.6578948 1.842105 2.2105264 2.947368 2.2105264 3.684211 0 4.421053-2.3947369 4.421053-7.3684211v-5.1578947h-.184211c-1.842105 3.5-3.868421 4.2368421-7.368421 4.2368421-7.552631 0-8.842105-6.8157895-8.842105-14.3684211v-9.7631579zm8.842105 7c0 8.1052632.736842 10.3157895 3.5 10.3157895 2.026316 0 4.052632-1.4736842 4.052632-9.0263158v-6.4473684c0-7.3684211-2.394737-9.0263158-4.052632-9.0263158-2.394737 0-3.68421 2.2105263-3.68421 8.1052632v6.0789473z"/><path d="m174.631579 27.0789474c0-9.3947369 1.289474-15.4736842 12.710526-15.4736842 8.657895 0 11.605263 4.7894736 11.605263 14.5526315 0 3.3157895-.368421 5.8947369-4.605263 5.8947369h-10.868421v3.6842105c0 4.4210526.368421 7.9210526 3.684211 7.9210526 1.842105 0 3.131579-1.8421052 3.131579-3.868421.18421-3.6842105 1.842105-4.4210526 4.052631-4.4210526 2.394737 0 4.236842.7368421 4.236842 4.0526315 0 6.631579-4.605263 10.6842106-11.421052 10.6842106-11.421053 0-12.710527-6.0789474-12.710527-15.4736843v-7.5526315zm15.842105-.9210527v-3.1315789c0-2.7631579-.921052-4.9736842-3.68421-4.9736842s-3.684211 2.2105263-3.684211 4.9736842v3.1315789z"/></g><path d="m205.026316 16.5789474c0-3.5 1.657895-4.9736842 4.236842-4.9736842s4.236842 1.6578947 4.236842 4.9736842h.184211c1.473684-3.131579 4.421052-4.9736842 7.368421-4.9736842 7.552631 0 8.842105 6.8157894 8.842105 14.368421v9.9473684c0 7.5526316-1.289474 14.3684211-8.842105 14.3684211-3.131579 0-5.894737-1.2894737-7.368421-4.2368421h-.184211v10.5c0 3.5-1.657895 4.9736842-4.236842 4.9736842s-4.236842-1.6578947-4.236842-4.9736842zm8.473684 18.2368421c0 5.3421052.921053 9.0263158 4.236842 9.0263158 3.131579 0 3.5-3.5 3.5-9.7631579v-5.1578948c0-8.1052631-.736842-10.3157894-3.5-10.3157894-2.026316 0-4.052631 1.4736842-4.052631 9.0263157v7.1842106z" fill="#7c98ab"/><path d="m235.236842 25.9736842c0-7.9210526 2.578947-14.368421 12.526316-14.368421 9.947368 0 12.526316 6.4473684 12.526316 14.368421v10.131579c0 7.9210526-2.578948 14.368421-12.526316 14.368421-9.947369 0-12.526316-6.4473684-12.526316-14.368421zm8.842105 9.3947369c0 6.8157894 1.105264 8.4736842 3.868421 8.4736842 2.763158 0 3.868421-1.6578948 3.868421-8.4736842v-8.8421053c0-6.631579-1.289473-8.2894737-3.868421-8.2894737-2.394736 0-3.868421 1.6578947-3.868421 8.2894737z" fill="#7c98ab"/><path d="m267.105263 16.5789474c0-3.5 1.657895-4.9736842 4.236842-4.9736842 2.578948 0 4.236842 1.6578947 4.236842 4.9736842v28.7368421c0 3.5-1.657894 4.9736842-4.236842 4.9736842-2.578947 0-4.236842-1.6578948-4.236842-4.9736842z" fill="#7c98ab"/><path d="m343.368421 25.0526316h-12.526316v-9.5789474c0-2.7631579-1.657894-4.7894737-4.052631-4.7894737s-4.052632 2.0263158-4.052632 4.7894737v9.3947369h-15.289474v-4.2368422c0-6.2631578-3.315789-9.2105263-7.921052-9.2105263-3.131579 0-6.447369 1.6578948-7.736842 4.7894737h-.184211c0-3.1315789-1.657895-4.7894737-4.236842-4.7894737s-4.236842 1.6578948-4.236842 4.9736842v28.7368421c0 3.5 1.657895 4.9736843 4.236842 4.9736843s4.236842-1.6578948 4.236842-4.9736843v-19.7105263c0-4.6052631 1.657895-6.6315789 4.421053-6.6315789 1.842105 0 3.131579 1.1052631 3.131579 3.868421v22.6578948c0 3.5 1.657894 4.9736842 4.236842 4.9736842 2.578947 0 4.236842-1.6578948 4.236842-4.9736842v-12.1578948h15.289474v12.5263158c0 2.7631579 1.657894 4.7894737 4.052631 4.7894737s4.052632-2.0263158 4.052632-4.7894737v-12.5263158h12.526316c2.947368 0 4.789473-1.6578947 4.789473-4.0526315-.18421-2.3947369-2.026316-4.0526316-4.973684-4.0526316z" fill="#7c98ab"/></g><g fill="#7c98ab"><path d="m271.342105.92105263c2.578948 0 4.789474 2.21052632 4.789474 4.78947369 0 2.57894736-2.210526 4.78947368-4.789474 4.78947368-2.578947 0-4.789473-2.21052632-4.789473-4.78947368 0-2.7631579 2.026315-4.78947369 4.789473-4.78947369z"/><path d="m339.131579 47.5263158c0-2.9473684 2.026316-5.1578947 4.421053-5.1578947 2.578947 0 4.421052 2.2105263 4.421052 4.7894736v.1842106c0 2.7631579-2.026316 4.9736842-4.421052 4.9736842-2.394737.1842105-4.421053-2.0263158-4.421053-4.7894737zm8.473684 0c0-2.5789474-1.657895-4.4210526-3.868421-4.4210526s-3.868421 2.0263157-3.868421 4.4210526v.1842105c0 2.3947369 1.657895 4.4210526 3.868421 4.4210526 2.210526-.1842105 3.868421-2.2105263 3.868421-4.6052631zm-5.710526-2.7631579h1.842105c1.105263 0 1.842105.5526316 1.842105 1.6578947 0 .7368421-.368421 1.2894737-1.105263 1.4736842l1.289474 2.0263158h-1.105263l-1.105263-1.8421052h-.921053v1.8421052h-.921053v-5.1578947zm1.842105 2.5789474c.736842 0 1.105263-.3684211 1.105263-.9210527 0-.5526315-.368421-.9210526-1.105263-.9210526h-.921053v1.6578947h.921053z"/></g></g></svg>