<svg height="140" viewBox="0 0 400 140" width="400" xmlns="http://www.w3.org/2000/svg"><path d="m187.043478 69.0674026v4.9322369h-24.60662v-4.9322369zm-59.05331 0v4.9322369h-24.603397v-4.9322369zm19.199741 0-1.97962 4.9322369-1.953828-4.9322369zm-55.1230859 0c-3.7144691 3.2086989-8.4706077 4.9614977-13.3833966 4.9322369h-39.2732241v-4.9322369zm-57.5766552 0v4.9322369h-34.44668964v-4.9322369zm93.5000001-9.867691v4.9322368h-24.603397v-4.9322368zm23.046138 0-1.915138 4.9322368h-7.795966l-1.928034-4.9322368h11.635914zm-54.0494484 0c-.4435903 1.735535-1.1387384 3.3971394-2.0634483 4.9322368h-55.5132069v-4.9322368zm-62.4966897 0v4.9322368h-34.44668964v-4.9322368zm152.5533101 0v4.9322368h-24.60662v-4.9322368zm-9.843293-9.8676911v4.9354542h-14.763327v-4.9354542h14.766551zm-49.210017 0v4.9354542h-14.763328v-4.9354542h14.766552zm26.905431 0-1.934483 4.9354542h-15.495207l-1.947379-4.9354542zm-58.5954828 0c.4417069 1.5765141.6867414 3.2270278.6867414 4.9354542h-18.2067069v-4.9354542zm-32.2832931 0v4.9354542h-14.7633276v-4.9354542h14.7665517zm-39.3667241 0v4.9354542h-14.76655177v-4.9354542zm152.550086-9.8644737v4.9322369h-14.763327v-4.9322369h14.766551zm-49.210017 0v4.9322369h-14.763328v-4.9322369h14.766552zm30.7615 0-1.92481 4.9322369h-23.278276l-1.905466-4.9322369zm-68.5064828 0c1.6991206 1.3899063 3.1596551 3.0597243 4.2816551 4.9322369h-45.2733448v-4.9322369zm-65.5950862 0v4.9322369h-14.76655177v-4.9322369zm119.186707-9.867691 1.376707 3.9895458 1.379931-3.9895458h30.606741v4.9322368h-14.763327v-4.5332822l-1.673328 4.5364996h-31.148397l-1.624965-4.5364996v4.5364996h-14.763328v-4.9354542h30.61319zm-119.186707 0v4.9322368h-14.76655177v-4.9322368zm69.8767413 0c-1.1338272 1.8764943-2.5820821 3.5448062-4.2816551 4.9322368h-40.9916897v-4.9322368zm82.6733447-9.8676911v4.9354543h-28.901172l1.741034-4.9354543zm-36.797086 0 1.741034 4.9354543h-28.917293v-4.9354543h27.179483zm-43.4162414 0c0 1.7084265-.2450345 3.3621576-.6867414 4.9354543h-17.5231897v-4.9354543zm-32.9700345 0v4.9354543h-14.7633276v-4.9354543h14.7665517zm-39.3667241 0v4.9354543h-14.76655177v-4.9354543zm112.345086-9.86447364 1.708793 4.93223684h-35.313982v-4.93223684h33.608413zm50.048293 0v4.93223684h-35.336551l1.773275-4.93223684zm-92.1232928 0c.9156551 1.52181864 1.6249655 3.17876714 2.0666724 4.93223684h-57.5734311v-4.93223684zm-60.4300173 0v4.93223684h-34.44668964v-4.93223684zm99.0519651-9.86769106 1.741035 4.93223684h-31.896397v-4.93223684zm53.501345 0v4.93223684h-31.857707l1.702345-4.93223684zm-108.3632756 0c5.1618448 0 9.8561897 1.86929524 13.3866207 4.93223684h-52.6533966v-4.93223684zm-44.1868103 0v4.93223684h-34.44991384v-4.93223684h34.44668964z" fill="#161616" fill-rule="evenodd" transform="translate(105.956522 26)"/></svg>