<?xml version="1.0" encoding="UTF-8"?>
<svg width="400px" height="140px" viewBox="0 0 400 140" version="1.1" xmlns="http://www.w3.org/2000/svg" xmlns:xlink="http://www.w3.org/1999/xlink">
    <title>Artboard</title>
    <g id="Artboard" stroke="none" stroke-width="1" fill="none" fill-rule="evenodd">
        <g id="Group" transform="translate(30.000000, 48.000000)" fill="#231F20" fill-rule="nonzero">
            <polygon id="Path" points="294.876543 0.62962963 294.876543 42.6049383 339.580247 42.6049383 339.580247 33.1604938 305.160494 33.1604938 305.160494 26.0246914 338.530864 26.0246914 338.530864 17.2098765 305.160494 17.2098765 305.160494 10.0740741 339.580247 10.0740741 339.580247 0.62962963"></polygon>
            <path d="M102.62963,16.1604938 C102.832431,17.5107731 102.397947,18.8787982 101.453203,19.8646182 C100.508459,20.8504381 99.1601524,21.3427159 97.8024691,21.1975309 L71.5679012,21.1975309 L71.5679012,10.7037037 L98.0123457,10.7037037 C99.3700289,10.5585187 100.718336,11.0507965 101.66308,12.0366164 C102.607824,13.0224364 103.042307,14.3904615 102.839506,15.7407407 L102.62963,16.1604938 Z M101.580247,0.839506173 L60.4444444,0.839506173 L60.4444444,42.8148148 L71.7777778,42.8148148 L71.7777778,30.8518519 L97.5925926,30.8518519 L102.209877,30.4320988 C109.555556,29.1728395 113.54321,24.1358025 113.54321,15.7407407 C113.54321,7.34567901 109.345679,2.09876543 101.580247,0.839506173" id="Shape"></path>
            <polygon id="Path" points="119.839506 0.62962963 119.839506 10.7037037 139.358025 10.7037037 139.358025 42.6049383 150.481481 42.6049383 150.481481 10.7037037 170 10.7037037 170 0.62962963"></polygon>
            <path d="M15.9506173,42.6049383 L35.2592593,42.6049383 C45.5432099,42.3950617 51,37.1481481 51.2098765,26.654321 L51.2098765,0.62962963 L40.2962963,0.62962963 L40.2962963,26.654321 C40.4244839,28.2487333 39.8466479,29.8191007 38.7155903,30.9501582 C37.5845328,32.0812158 36.0141654,32.6590518 34.4197531,32.5308642 L16.7901235,32.5308642 C13.0123457,32.3209877 10.9135802,30.4320988 10.9135802,26.654321 L10.9135802,0.62962963 L0,0.62962963 L0,26.654321 C0.209876543,36.9382716 5.45679012,42.3950617 15.9506173,42.6049383" id="Path"></path>
            <polygon id="Path" points="197.074074 0 168.740741 28.3333333 168.740741 43.2345679 197.074074 14.9012346 225.197531 43.2345679 225.197531 28.3333333"></polygon>
            <polygon id="Path" points="268.222222 0.62962963 243.666667 25.1851852 243.666667 0.62962963 233.592593 0.62962963 233.592593 42.6049383 240.518519 42.6049383 257.098765 25.8148148 273.679012 42.6049383 287.950617 42.6049383 264.234568 18.8888889 282.493827 0.62962963"></polygon>
        </g>
    </g>
</svg>