<?xml version="1.0" encoding="UTF-8"?>
<svg width="400px" height="140px" viewBox="0 0 400 140" version="1.1" xmlns="http://www.w3.org/2000/svg" xmlns:xlink="http://www.w3.org/1999/xlink">
    <title>Artboard</title>
    <g id="Artboard" stroke="none" stroke-width="1" fill="none" fill-rule="evenodd">
        <g id="jump-trading" transform="translate(33.000000, 30.000000)" fill-rule="nonzero">
            <path d="M65.4384,42.5000892 L63.8768,42.5000892 C63.8768,48.1420828 61.5472,53.229952 57.7584,56.9576978 C53.9696,60.6602561 48.7728,62.952316 43.0128,62.952316 C37.2528,62.952316 32.0304,60.6602561 28.2672,56.9576978 C24.504,53.2551395 22.1744,48.1672702 22.1488,42.5000892 C22.1488,36.8580956 24.4784,31.7702263 28.2672,28.0424806 C32.056,24.3399223 37.2528,22.0478624 43.0128,22.0478624 C48.7728,22.0478624 53.9952,24.3399223 57.7584,28.0424806 C61.5216,31.7450389 63.8768,36.8329081 63.8768,42.5000892 L65.4384,42.5000892 L67,42.5000892 C67,36.0017215 64.312,30.1078532 59.96,25.876358 C55.6336,21.6196754 49.6176,18.9749909 42.9872,19 C36.3824,19 30.3664,21.6448628 26.04,25.876358 C21.688,30.1330407 19,36.026909 19,42.5000892 C19,48.9984568 21.688,54.8923251 26.04,59.1238203 C30.3664,63.380503 36.3824,66 42.9872,66 C49.6176,66 55.608,63.3553155 59.96,59.1238203 C64.312,54.8671376 67,48.9732693 67,42.5000892 L65.4384,42.5000892 L65.4384,42.5000892 Z" id="Path" fill="#231815"></path>
            <path d="M25,43.1009818 C25,43.1767181 25.4595745,47.1402525 27.8085106,51.3562412 C28.9829787,53.4768583 30.6170213,55.6479663 32.9404255,57.4151473 C35.2382979,59.1823282 38.2255319,60.5203366 41.9531915,60.8990182 L43,61 L43,25 L41.1361702,25 L41.1361702,59.9901823 L42.0808511,59.9901823 L42.1829787,59.0813464 C38.7617021,58.7026648 36.1574468,57.5413745 34.0893617,55.9761571 C31,53.628331 29.187234,50.371669 28.1404255,47.6704067 C27.6297872,46.3323983 27.2978723,45.1206171 27.1191489,44.2622721 C27.0170213,43.8330996 26.9659574,43.4796634 26.9148936,43.2524544 C26.8893617,43.1262272 26.8893617,43.0504909 26.8638298,43 L26.8638298,42.9242637 L26.8638298,42.8990182 L25,43.1009818 Z" id="Path" fill="#231815"></path>
            <path d="M60.1818182,45.3083392 C59.2467532,48.5122635 57.8181818,50.9593553 56.2077922,52.8262088 C53.7922078,55.6517169 50.9350649,57.1906097 48.7012987,58.0483532 C47.5844156,58.4772249 46.5974026,58.7295025 45.9220779,58.880869 L45.9220779,58.880869 L45.9220779,43.4162579 L61.1168831,43.4162579 L61.1168831,41.5746321 L45.9220779,41.5746321 L45.9220779,25 L44,25 L44,61 L45.038961,60.899089 C45.1168831,60.899089 48.3116883,60.596356 52.025974,58.5781359 C53.8961039,57.5690259 55.8701299,56.1058164 57.6623377,54.0371409 C59.4545455,51.9684653 61.012987,49.269096 62,45.8381219 L60.1818182,45.3083392 Z" id="Path" fill="#231815"></path>
            <path d="M84.1647093,43 L81.3294187,43 C81.3294187,53.3189858 77.1147974,62.6491745 70.2692308,69.4186321 C63.4236641,76.1880896 53.9982384,80.3714623 43.5255432,80.3714623 C33.0783911,80.3714623 23.6274222,76.1880896 16.7818555,69.4186321 C9.9362889,62.6491745 5.72166765,53.3189858 5.72166765,43 C5.72166765,32.6810142 9.9362889,23.3508255 16.7818555,16.5813679 C23.6274222,9.81191038 33.0783911,5.62853774 43.5255432,5.62853774 C53.9726952,5.62853774 63.4236641,9.81191038 70.2692308,16.5813679 C77.1147974,23.3508255 81.3294187,32.6810142 81.3294187,43 L84.1647093,43 L87,43 C87,31.134434 82.1212566,20.3590802 74.2539636,12.6008255 C66.3866706,4.81721698 55.5052848,0 43.5,0 C31.4947152,0 20.6133294,4.81721698 12.7460364,12.6008255 C4.87874339,20.384434 0,31.134434 0,43 C0,54.865566 4.87874339,65.6409198 12.7460364,73.3991745 C20.6133294,81.182783 31.4947152,86 43.5,86 C55.5052848,86 66.3866706,81.182783 74.2539636,73.3991745 C82.1212566,65.615566 87,54.865566 87,43 L84.1647093,43 Z" id="Path" fill="#D50739"></path>
        </g>
        <g id="jump-trading" transform="translate(131.000000, 47.000000)" fill-rule="nonzero">
            <path d="M4.25925926,6.71428571 C4.74074074,7.17857143 5,7.75 5,8.39285714 C5,9.07142857 4.74074074,9.64285714 4.25925926,10.1071429 C3.77777778,10.5714286 3.18518519,10.8214286 2.51851852,10.8214286 C1.85185185,10.8214286 1.25925926,10.5714286 0.740740741,10.1071429 C0.259259259,9.64285714 0,9.07142857 0,8.39285714 C0,7.75 0.259259259,7.17857143 0.740740741,6.71428571 C1.25925926,6.21428571 1.81481481,6 2.51851852,6 C3.18518519,6 3.77777778,6.25 4.25925926,6.71428571 M4.25925926,47 L0.740740741,47 L0.740740741,15.9285714 L4.25925926,15.9285714 L4.25925926,47 Z" id="Shape" fill="#A3A39F"></path>
            <path d="M14.4751131,26.8741259 C14.4751131,27.8181818 14.5113122,28.6223776 14.6199095,29.3216783 C14.7285068,30.020979 14.9095023,30.6503497 15.2352941,31.1748252 C15.5248869,31.7342657 15.9954751,32.1538462 16.6108597,32.4685315 C17.2262443,32.7832168 18.0226244,32.958042 19.0361991,32.958042 C20.0497738,32.958042 20.8461538,32.7832168 21.4615385,32.4685315 C22.0769231,32.1538462 22.5475113,31.7342657 22.8371041,31.1748252 C23.1266968,30.6153846 23.3438914,29.986014 23.4524887,29.3216783 C23.561086,28.6223776 23.5972851,27.8181818 23.5972851,26.8741259 L23.5972851,16 L27,16 L27,27.2237762 C27,29.986014 26.3846154,32.1538462 25.1176471,33.6923077 C23.8868778,35.2307692 21.8235294,36 19,36 C16.1764706,36 14.1493213,35.2307692 12.8823529,33.6923077 C11.6515837,32.1538462 11,29.986014 11,27.2237762 L11,16 L14.438914,16 L14.438914,26.8741259 L14.4751131,26.8741259 Z" id="Path" fill="#A3A39F"></path>
            <path d="M36.6516393,17.6527051 L36.7254098,17.6527051 C37.2786885,16.8150087 37.9795082,16.1867365 38.8278689,15.6980803 C39.6762295,15.2443281 40.6352459,15 41.6311475,15 C42.8483607,15 43.954918,15.2792321 44.9877049,15.8726003 C45.9836066,16.4659686 46.7581967,17.2338569 47.3114754,18.2460733 C47.9016393,17.1989529 48.75,16.3961606 49.8565574,15.8376963 C50.9631148,15.2792321 52.1803279,15 53.4713115,15 C54.7254098,15 55.795082,15.2094241 56.6434426,15.6631763 C57.4918033,16.1169284 58.192623,16.7102967 58.6721311,17.478185 C59.1516393,18.2460733 59.5204918,19.0837696 59.704918,20.061082 C59.8893443,21.0383944 60,22.0506108 60,23.1675393 L60,35 L56.4959016,35 L56.4959016,23.6910995 C56.4959016,22.8534031 56.4590164,22.1553229 56.3852459,21.5619546 C56.3114754,20.9685864 56.1639344,20.4101222 55.942623,19.8516579 C55.7213115,19.3280977 55.3155738,18.8743455 54.7991803,18.5602094 C54.2827869,18.2460733 53.5819672,18.0715532 52.7336066,18.0715532 C51.7745902,18.0715532 51,18.2460733 50.4098361,18.6649215 C49.8196721,19.0488656 49.3770492,19.5724258 49.045082,20.2006981 C48.75,20.8638743 48.5286885,21.5270506 48.4180328,22.2600349 C48.307377,22.9930192 48.2704918,23.7958115 48.2704918,24.6684119 L48.2704918,34.965096 L44.7663934,34.965096 L44.7663934,23.9354276 C44.7663934,23.2024433 44.7295082,22.504363 44.6557377,21.8411867 C44.5819672,21.1780105 44.4344262,20.5846422 44.1762295,19.991274 C43.9180328,19.3979058 43.5491803,18.9441536 43.0327869,18.5951134 C42.5163934,18.2460733 41.8893443,18.0715532 41.0778689,18.0715532 C40.1188525,18.0715532 39.307377,18.2809773 38.6803279,18.6998255 C38.0532787,19.1186736 37.5737705,19.6422339 37.2786885,20.3403141 C36.9836066,21.0034904 36.7622951,21.7364747 36.6516393,22.504363 C36.5409836,23.2722513 36.5040984,24.0750436 36.5040984,24.947644 L36.5040984,35 L33,35 L33,15.5584642 L36.5040984,15.5584642 L36.5040984,17.6527051 L36.6516393,17.6527051 Z" id="Path" fill="#A3A39F"></path>
            <path d="M69.3873874,18.4311512 L69.4594595,18.4311512 C70.2882883,17.3115124 71.2972973,16.4808126 72.4864865,15.8668172 C73.6756757,15.2889391 74.972973,15 76.3783784,15 C77.7837838,15 79.1171171,15.2889391 80.3063063,15.8668172 C81.4954955,16.4446953 82.5045045,17.2392777 83.3693694,18.214447 C84.1981982,19.2257336 84.8468468,20.3453725 85.3153153,21.6455982 C85.7837838,22.9458239 86,24.282167 86,25.6546275 C86,27.0993228 85.7837838,28.4356659 85.3513514,29.7358916 C84.9189189,31.0361174 84.2702703,32.1557562 83.4414414,33.1309255 C82.6126126,34.1060948 81.5675676,34.9006772 80.3783784,35.4063205 C79.1891892,35.9480813 77.8558559,36.2370203 76.3783784,36.2370203 C75.009009,36.2370203 73.7117117,35.9480813 72.5225225,35.3702032 C71.2972973,34.7923251 70.3243243,33.9616253 69.4954955,32.8781038 L69.4234234,32.8781038 L69.4234234,47 L66,47 L66,15.5778781 L69.4234234,15.5778781 L69.4234234,18.4311512 L69.3873874,18.4311512 Z M73.0630631,18.7562077 C72.2342342,19.1534989 71.5495495,19.6591422 71.009009,20.3453725 C69.8198198,21.7539503 69.2072072,23.4153499 69.2072072,25.4018059 C69.2072072,27.496614 69.7837838,29.3024831 70.972973,30.8194131 C72.1621622,32.3002257 73.7477477,33.0586907 75.7657658,33.0586907 C77.8558559,33.0586907 79.5135135,32.3363431 80.7027027,30.8555305 C81.8918919,29.3747178 82.4684685,27.5688488 82.4684685,25.4379233 C82.4684685,23.3431151 81.8558559,21.6094808 80.6306306,20.2370203 C79.4054054,18.8645598 77.7837838,18.1783296 75.7297297,18.1783296 C74.7927928,18.1783296 73.8918919,18.3589165 73.0630631,18.7562077" id="Shape" fill="#A3A39F"></path>
            <polygon id="Path" fill="#3F3D39" points="95.4642857 36 92.0714286 36 92.0714286 19.2585752 90 19.2585752 90 16.1240106 92.0714286 16.1240106 92.0714286 9 95.4642857 9 95.4642857 16.1240106 99 16.1240106 99 19.2585752 95.4642857 19.2585752"></polygon>
            <path d="M108.45098,17.6223776 L108.522876,17.6223776 C109.24183,16.7132867 109.888889,16.048951 110.5,15.6293706 C111.111111,15.2097902 111.937908,15 112.944444,15 C113.879085,15 114.885621,15.3146853 116,15.9090909 L114.382353,18.9160839 L114.130719,18.7412587 C113.771242,18.4965035 113.48366,18.3216783 113.232026,18.2167832 C112.980392,18.1118881 112.69281,18.041958 112.333333,18.041958 C111.434641,18.041958 110.751634,18.2867133 110.212418,18.7412587 C109.673203,19.1958042 109.277778,19.8251748 109.026144,20.5594406 C108.77451,21.2937063 108.594771,22.0629371 108.522876,22.7972028 C108.45098,23.5314685 108.415033,24.3706294 108.415033,25.2447552 L108.415033,35 L105,35 L105,15.5244755 L108.415033,15.5244755 L108.415033,17.6223776 L108.45098,17.6223776 Z" id="Path" fill="#3F3D39"></path>
            <path d="M137,35.4642857 L133.582734,35.4642857 L133.582734,32.7142857 L133.510791,32.7142857 C131.784173,34.9285714 129.482014,36 126.604317,36 C125.165468,36 123.870504,35.7142857 122.683453,35.1785714 C121.496403,34.6428571 120.453237,33.8571429 119.625899,32.8571429 C118.798561,31.8571429 118.151079,30.75 117.683453,29.5 C117.215827,28.25 117,26.9285714 117,25.5357143 C117,24.1071429 117.215827,22.75 117.647482,21.4642857 C118.079137,20.1785714 118.726619,19.0714286 119.553957,18.1071429 C120.381295,17.1428571 121.42446,16.3571429 122.611511,15.8214286 C123.798561,15.2857143 125.129496,15 126.604317,15 C127.971223,15 129.230216,15.2857143 130.453237,15.8928571 C131.640288,16.5 132.647482,17.3214286 133.47482,18.3928571 L133.546763,18.3928571 L133.546763,15.5357143 L136.964029,15.5357143 L136.964029,35.4642857 L137,35.4642857 Z M124.338129,18.7142857 C123.510791,19.1071429 122.827338,19.6071429 122.28777,20.2857143 C121.100719,21.6785714 120.489209,23.3214286 120.489209,25.2857143 C120.489209,27.3571429 121.064748,29.1428571 122.251799,30.6428571 C123.438849,32.1071429 125.021583,32.8571429 127.035971,32.8571429 C129.122302,32.8571429 130.776978,32.1428571 131.964029,30.6785714 C133.151079,29.2142857 133.726619,27.4285714 133.726619,25.3214286 C133.726619,23.25 133.115108,21.5357143 131.892086,20.1785714 C130.669065,18.8214286 129.05036,18.1428571 127,18.1428571 C126.028777,18.1428571 125.165468,18.3214286 124.338129,18.7142857" id="Shape" fill="#3F3D39"></path>
            <path d="M158.612613,32.6283988 L158.540541,32.6283988 C157.711712,33.7160121 156.702703,34.5498489 155.513514,35.1299094 C154.324324,35.7099698 153.027027,36 151.621622,36 C150.18018,36 148.882883,35.7099698 147.693694,35.1661631 C146.504505,34.6223565 145.459459,33.8247734 144.630631,32.8096677 C143.801802,31.7945619 143.153153,30.6706949 142.684685,29.4018127 C142.216216,28.1329305 142,26.7915408 142,25.3776435 C142,23.9274924 142.216216,22.5498489 142.648649,21.244713 C143.081081,19.939577 143.72973,18.81571 144.558559,17.836858 C145.387387,16.858006 146.432432,16.060423 147.621622,15.5166163 C148.810811,14.9728097 150.144144,14.6827795 151.657658,14.6827795 C153.027027,14.6827795 154.324324,14.9728097 155.513514,15.5891239 C156.738739,16.2054381 157.711712,17.0392749 158.504505,18.1268882 L158.576577,18.1268882 L158.576577,0 L162,0 L162,35.4561934 L158.576577,35.4561934 L158.576577,32.6283988 L158.612613,32.6283988 Z M149.351351,18.4169184 C148.558559,18.81571 147.837838,19.3232628 147.297297,20.0120846 C146.108108,21.4259819 145.495495,23.0936556 145.495495,25.0876133 C145.495495,27.1903323 146.072072,29.0030211 147.261261,30.5256798 C148.45045,32.0120846 150.036036,32.7734139 152.054054,32.7734139 C154.144144,32.7734139 155.801802,32.0483384 156.990991,30.5619335 C158.18018,29.0755287 158.756757,27.2628399 158.756757,25.1238671 C158.756757,23.021148 158.144144,21.2809668 156.918919,19.9033233 C155.693694,18.5256798 154.072072,17.836858 152.018018,17.836858 C151.081081,17.836858 150.18018,18.0181269 149.351351,18.4169184" id="Shape" fill="#3F3D39"></path>
            <path d="M171.253731,5.71856287 C171.738806,6.18562874 172,6.76047904 172,7.40718563 C172,8.08982036 171.738806,8.66467066 171.253731,9.13173653 C170.768657,9.5988024 170.171642,9.8502994 169.5,9.8502994 C168.828358,9.8502994 168.231343,9.5988024 167.746269,9.13173653 C167.261194,8.66467066 167,8.08982036 167,7.40718563 C167,6.76047904 167.261194,6.18562874 167.746269,5.71856287 C168.231343,5.21556886 168.828358,5 169.5,5 C170.171642,5 170.768657,5.25149701 171.253731,5.71856287 M171.253731,35 L167.708955,35 L167.708955,14.988024 L171.253731,14.988024 L171.253731,35 Z" id="Shape" fill="#3F3D39"></path>
            <path d="M181.436242,17.8970332 L181.50783,17.8970332 C182.939597,15.9773124 184.836689,15 187.199105,15 C188.52349,15 189.63311,15.2094241 190.527964,15.6631763 C191.422819,16.1169284 192.102908,16.7102967 192.639821,17.478185 C193.14094,18.2460733 193.498881,19.1186736 193.713647,20.1308901 C193.892617,21.1431065 194,22.2600349 194,23.4467714 L194,35 L190.599553,35 L190.599553,24.0401396 C190.599553,23.0977312 190.563758,22.2949389 190.456376,21.6317627 C190.384787,20.9685864 190.205817,20.3752182 189.919463,19.8167539 C189.63311,19.2582897 189.239374,18.8394415 188.630872,18.5253054 C188.022371,18.2111693 187.306488,18.0715532 186.375839,18.0715532 C185.266219,18.0715532 184.371365,18.3158813 183.691275,18.7696335 C183.011186,19.2233857 182.510067,19.8167539 182.187919,20.5148342 C181.865772,21.2478185 181.651007,22.0157068 181.543624,22.8534031 C181.436242,23.6910995 181.400447,24.6684119 181.400447,25.7504363 L181.400447,34.965096 L178,34.965096 L178,15.5235602 L181.400447,15.5235602 L181.400447,17.8970332 L181.436242,17.8970332 Z" id="Path" fill="#3F3D39"></path>
            <path d="M218.963964,34.7508494 C218.963964,36.8527746 218.855856,38.5198188 218.63964,39.7519819 C218.423423,40.984145 217.846847,42.216308 216.945946,43.412231 C216.045045,44.608154 214.891892,45.4779162 213.522523,46.0939977 C212.153153,46.7100793 210.711712,47 209.162162,47 C206.315315,47 203.972973,46.1664779 202.135135,44.4631937 C200.297297,42.7599094 199.36036,40.5130238 199.288288,37.7225368 L202.711712,37.7225368 C202.747748,39.5345413 203.36036,41.0203851 204.54955,42.1438279 C205.738739,43.2672707 207.288288,43.810872 209.126126,43.810872 C210.423423,43.810872 211.468468,43.5934315 212.333333,43.1585504 C213.198198,42.7236693 213.846847,42.1438279 214.315315,41.3465459 C214.783784,40.585504 215.108108,39.6795017 215.288288,38.7010193 C215.468468,37.6862967 215.576577,36.5628539 215.576577,35.3669309 L215.576577,32.9750849 L215.504505,32.9750849 C214.711712,33.9898075 213.702703,34.8233296 212.441441,35.4394111 C211.216216,36.0554926 209.918919,36.3454134 208.54955,36.3454134 C207.108108,36.3454134 205.810811,36.0554926 204.657658,35.5118913 C203.468468,34.9682899 202.459459,34.1710079 201.594595,33.1925255 C200.72973,32.214043 200.081081,31.0906002 199.648649,29.785957 C199.216216,28.5175538 199,27.1766704 199,25.7633069 C199,24.3137033 199.216216,22.9728199 199.684685,21.6681767 C200.153153,20.3635334 200.801802,19.2400906 201.630631,18.2253681 C202.495495,17.2106455 203.504505,16.4496036 204.693694,15.8697622 C205.882883,15.2899207 207.216216,15 208.657658,15 C210.063063,15 211.324324,15.2899207 212.513514,15.9060023 C213.702703,16.5220838 214.675676,17.3556059 215.504505,18.4428086 L215.576577,18.4428086 L215.576577,15.5436014 L219,15.5436014 L219,34.7508494 L218.963964,34.7508494 Z M206.315315,18.7689694 C205.486486,19.1676104 204.801802,19.6749717 204.261261,20.3635334 C203.072072,21.7768969 202.459459,23.4439411 202.459459,25.4371461 C202.459459,27.5390713 203.036036,29.3510759 204.225225,30.8731597 C205.414414,32.3590034 207,33.1200453 209.018018,33.1200453 C211.108108,33.1200453 212.765766,32.3952435 213.954955,30.9093998 C215.144144,29.4235561 215.720721,27.6115515 215.720721,25.4733862 C215.720721,23.3714609 215.108108,21.6319366 213.882883,20.2548131 C212.657658,18.8776897 211.036036,18.189128 208.981982,18.189128 C208.009009,18.189128 207.108108,18.3703284 206.315315,18.7689694" id="Shape" fill="#3F3D39"></path>
        </g>
    </g>
</svg>