<svg width="132" height="40" viewBox="0 0 132 40" fill="none" xmlns="http://www.w3.org/2000/svg">
<path d="M46.0565 24.8741L48.8199 23.3134C49.4647 24.9659 50.7543 26.0675 53.0572 26.0675C55.2219 26.0675 56.0049 25.1495 56.0049 24.1856C56.0049 22.8544 54.7613 22.3495 52.0439 21.5691C49.2344 20.7888 46.5171 19.5954 46.5171 16.1986C46.5171 12.8019 49.4187 10.8281 52.5506 10.8281C55.5443 10.8281 57.8932 12.3429 59.0907 14.8675L56.0509 16.6118C55.4061 15.2347 54.3928 14.3167 52.5506 14.3167C51.0307 14.3167 50.1556 15.097 50.1556 16.1068C50.1556 17.2085 50.8464 17.8052 53.6559 18.6314C56.5575 19.5495 59.6434 20.4675 59.6434 24.1397C59.6434 27.4905 56.8799 29.5561 52.9651 29.5561C49.3726 29.5561 46.9776 27.9495 45.9183 25.4708C45.7341 25.2413 45.8262 24.9659 46.0565 24.8741Z" fill="#090D12"/>
<path d="M74.935 22.5786C74.935 26.4803 72.0334 29.4639 68.533 29.4639C66.5986 29.4639 65.2169 28.7754 64.2958 27.536V34.2836H60.9336V16.5196C60.9336 16.2442 61.1178 16.0606 61.3942 16.0606H63.9734L64.3418 17.6212C65.263 16.4278 66.6907 15.6934 68.5791 15.6934C72.0334 15.6934 74.935 18.677 74.935 22.5786ZM71.5268 22.5786C71.5268 20.4212 69.9608 18.9524 67.8882 18.9524C65.8157 18.9524 64.2497 20.4212 64.2497 22.5786C64.2497 24.736 65.8157 26.2049 67.8882 26.2049C70.0069 26.2049 71.5268 24.736 71.5268 22.5786Z" fill="#090D12"/>
<path d="M75.7188 22.4878C75.7188 18.5862 78.8046 15.5566 82.6273 15.5566C86.4961 15.5566 89.582 18.5862 89.582 22.4878C89.582 26.3895 86.4961 29.419 82.6273 29.419C78.8046 29.3731 75.7188 26.3895 75.7188 22.4878ZM86.2658 22.4878C86.2658 20.3763 84.6999 18.8616 82.6273 18.8616C80.6008 18.8616 78.9888 20.3763 78.9888 22.4878C78.9888 24.5993 80.5548 26.1141 82.6273 26.1141C84.6999 26.1141 86.2658 24.5993 86.2658 22.4878Z" fill="#090D12"/>
<path d="M95.2471 24.6894V19.273L97.2275 18.9517C97.3196 17.9418 97.5039 16.932 97.7802 16.0139H95.2471V12.3418L92.2073 13.2598C92.0231 13.3057 91.8849 13.4893 91.8849 13.7189V16.0139H90.0426C89.7663 16.0139 89.582 16.1975 89.582 16.473V19.2271H91.8388V24.6435C91.8388 28.1779 93.4508 29.555 98.1947 29.0501V25.9746C96.2603 26.1582 95.2471 26.1123 95.2471 24.6894Z" fill="#090D12"/>
<path d="M99.2539 20.0075C99.2539 14.637 103.491 10.5059 108.788 10.5059C114.084 10.5059 118.322 14.637 118.322 20.0075C118.322 25.3321 114.084 29.5092 108.788 29.5092C103.491 29.5092 99.2539 25.3321 99.2539 20.0075ZM114.683 20.0075C114.683 16.519 112.104 14.0862 108.742 14.0862C105.426 14.0862 102.8 16.519 102.8 20.0075C102.8 23.4502 105.38 25.883 108.742 25.883C112.104 25.883 114.683 23.4502 114.683 20.0075Z" fill="#090D12"/>
<path d="M131.999 21.1098V29.1426H128.637V21.5229C128.637 19.7327 127.578 18.8147 126.058 18.8147C124.4 18.8147 123.156 19.7786 123.156 22.0737V29.1426H119.748V16.5196C119.748 16.2442 119.932 16.0606 120.209 16.0606H122.788L123.156 17.5294C123.939 16.336 125.321 15.6934 127.071 15.6934C129.835 15.6934 131.999 17.6212 131.999 21.1098Z" fill="#090D12"/>
<path d="M19.5743 0.5C8.75087 0.5 0 8.99183 0 20.0083C0 31.0706 8.75087 39.5165 19.5743 39.5165C30.3978 39.5165 39.1486 31.0247 39.1486 20.0083C39.1947 8.99183 30.3978 0.5 19.5743 0.5ZM19.5743 29.4181C14.3699 29.4181 10.1786 25.3329 10.1786 20.0542C10.1786 14.7296 14.3699 10.6902 19.5743 10.6902C24.7788 10.6443 29.0161 14.7296 29.0161 20.0083C29.0161 25.3329 24.7788 29.4181 19.5743 29.4181Z" fill="#090D12"/>
<path d="M19.5743 0.5C8.75087 0.5 0 8.99183 0 20.0083C0 31.0706 8.75087 39.5165 19.5743 39.5165C30.3978 39.5165 39.1486 31.0247 39.1486 20.0083C39.1947 8.99183 30.3978 0.5 19.5743 0.5ZM19.5743 29.4181C14.3699 29.4181 10.1786 25.3329 10.1786 20.0542C10.1786 14.7296 14.3699 10.6902 19.5743 10.6902C24.7788 10.6443 29.0161 14.7296 29.0161 20.0083C29.0161 25.3329 24.7788 29.4181 19.5743 29.4181Z" fill="#090D12"/>
</svg>
