<svg height="140" viewBox="0 0 400 140" width="400" xmlns="http://www.w3.org/2000/svg"><g fill="none" transform="translate(95 26)"><path d="m44.4649882 89c-11.8690008 0-23.0377655-4.6215578-31.440598-13.0243902-8.40283237-8.4028325-13.0243902-19.5715972-13.0243902-31.4756098 0-11.8690008 4.62155783-23.0727773 13.0243902-31.4756098 8.4028325-8.40283237 19.5715972-13.0243902 31.4756098-13.0243902 5.9520063 0 11.6939418 1.15538946 17.120771 3.43115657.2800945.14004721.5952007.24508261.8752951.38512982 1.4354839.63021243 2.1007081 2.34579071 1.4704957 3.78127459-.6302125 1.47049567-2.3457908 2.1007081-3.7812746 1.47049567-.2450826-.10503541-.5251771-.21007081-.7702597-.31510622-4.7265932-1.96066089-9.7332808-2.97600314-14.9150275-2.97600314-21.3571991 0-38.75806452 17.36585361-38.75806452 38.75806451 0 21.3571991 17.36585362 38.7580645 38.75806452 38.7580645 21.3571991 0 38.7580645-17.3658536 38.7580645-38.7580645 0-5.1467349-.9803304-10.1534225-2.9409913-14.8450039-.175059-.4201417-.350118-.8402833-.5601889-1.2604249-.6652242-1.4354839-.0350118-3.1510622 1.4004721-3.8162864s3.1510622-.0350118 3.8162864 1.4004721c.2100708.4901652.4201416.9803304.6302124 1.4704957 2.2407553 5.4268292 3.3961448 11.1337529 3.3961448 17.0507474 0 11.8690008-4.6215578 23.0727773-13.0243902 31.4756098-8.4378443 8.3678206-19.606609 12.9893784-31.5106216 12.9893784" fill="#010202"/><path d="m73 11c0 1.6463415-1.3536585 3-3 3s-3-1.3536585-3-3c0-1.64634146 1.3536585-3 3-3s3 1.35365854 3 3" fill="#010202"/><path d="m80 19c0 1.6463415-1.3536585 3-3 3s-3-1.3536585-3-3 1.3536585-3 3-3 3 1.3170732 3 3" fill="#010202"/><path d="m66 41.5518987c0-6.356962-5.3737374-11.5518987-11.9494949-11.5518987-3.6060607 0-6.8585859 1.5721519-9.0505051 4.0329114-2.1919192-2.4607595-5.4444444-4.0329114-9.0505051-4.0329114-6.5757575 0-11.9494949 5.1949367-11.9494949 11.5518987v12.6455697c0 1.5379746 1.3080808 2.8025316 2.8989899 2.8025316s2.8989899-1.264557 2.8989899-2.8025316v-12.6455697c0-3.2810126 2.7575758-5.9468354 6.1515151-5.9468354 3.3939394 0 6.1515152 2.6658228 6.1515152 5.9468354v12.6455697c0 1.5379746 1.3080808 2.8025316 2.8989899 2.8025316s2.8989899-1.264557 2.8989899-2.8025316v-12.6455697c0-3.2810126 2.7575758-5.9468354 6.1515152-5.9468354 3.3939393 0 6.1515151 2.6658228 6.1515151 5.9468354v12.6455697c0 1.5379746 1.3080808 2.8025316 2.8989899 2.8025316s2.8989899-1.264557 2.8989899-2.8025316z" fill="#000"/><g fill="#010202"><path d="m114.03005 36 4.557596 13.0539568h.070117l4.312187-13.0539568h6.03005v19h-3.996661v-13.4640288h-.070117l-4.767947 13.4640288h-3.295492l-4.803005-13.3615108h-.035058v13.3615108h-4.03172v-19z"/><path d="m131.805 40.5709156c.28-.9210054.735-1.7055655 1.295-2.3877917.595-.6822262 1.295-1.1938959 2.205-1.6032316.875-.3752244 1.89-.5798923 3.045-.5798923.875 0 1.715.1364452 2.485.4093357.805.2728905 1.47.6481149 2.1 1.1256733.595.5116696 1.085 1.0915619 1.435 1.8420107.35.7163376.525 1.535009.525 2.4560144 0 .9551167-.14 1.7396769-.455 2.4219031s-.735 1.2621185-1.225 1.8078994c-.525.5116697-1.085.989228-1.715 1.4326751-.63.4093357-1.295.8527827-1.96 1.2621185-.665.4093357-1.295.8527827-1.925 1.3303411-.63.4775583-1.155 1.0233393-1.645 1.6714542h9.03v3.2405745h-14c0-1.0915619.175-2.0125673.49-2.7971275.315-.7845601.77-1.5008976 1.295-2.1490125.56-.6140036 1.19-1.1938959 1.925-1.7396769.735-.5457809 1.505-1.0574506 2.345-1.6373429.42-.2728905.875-.5798923 1.33-.8527827.455-.3070018.91-.6140036 1.295-.9551167.385-.3411132.735-.7504489.98-1.1938959.28-.4434471.385-.9551167.385-1.5008977 0-.9210054-.28-1.6032316-.805-2.1149012-.525-.5116697-1.225-.7504489-2.065-.7504489-.56 0-1.05.1364453-1.435.3752244-.385.2728905-.7.5798923-.945 1.0233394-.245.4093357-.42.886894-.49 1.3644524-.105.5116696-.14.989228-.14 1.5008977h-3.71c-.07-1.091562.07-2.08079.35-3.0017954"/><path d="m150.796774 41.3381643v1.8599033h.070968c.532258-.7101449 1.135484-1.2512077 1.880645-1.6231884.745161-.3719806 1.56129-.5748792 2.519355-.5748792.887097 0 1.73871.1690821 2.483871.5072464.745161.3381642 1.312903.9130435 1.703226 1.7584541.425806-.6086957.993548-1.115942 1.738709-1.589372.709678-.4734299 1.596775-.6763285 2.590323-.6763285.745161 0 1.454839.1014493 2.093548.2705314.63871.1690821 1.206452.47343 1.667742.8454106.461291.3719807.816129.8792271 1.064516 1.5217392.248388.6086956.390323 1.3864734.390323 2.2657004v9.0966184h-3.93871v-7.7101449c0-.4396136-.035484-.8792271-.070967-1.2850242-.035484-.4057971-.141936-.7439613-.319355-1.0483092-.17742-.3043478-.425807-.5410628-.745162-.7101449-.319354-.1690821-.745161-.2705314-1.312903-.2705314s-.993548.1014493-1.348387.3043478c-.354839.2028986-.603226.47343-.816129.7777778-.177419.3381643-.319355.7101449-.390322 1.115942-.070968.4057971-.106452.8454107-.106452 1.2512078v7.5748792h-3.93871v-7.6425121c0-.4057971 0-.8115942-.035484-1.1835749-.035484-.4057971-.106451-.7439613-.248387-1.0821256-.141935-.3381642-.354838-.6086956-.674193-.8115942-.319355-.2028985-.780645-.3043478-1.419355-.3043478-.177419 0-.425807.0338164-.745161.1014493-.319355.0676328-.603226.236715-.887097.4396135-.283871.236715-.532258.5410628-.745161.9468599-.212904.4057971-.319355.9468599-.319355 1.6231884v7.9130435h-3.93871v-13.6280193h3.796774z"/><path d="m173.503597 44.4221698c.335732-.9198113.805756-1.6981132 1.410072-2.370283.604317-.6367925 1.342926-1.1674528 2.182254-1.5212264.839329-.3537736 1.81295-.5306604 2.88729-.5306604 1.074341 0 2.014389.1768868 2.887291.5306604.872901.3537736 1.61151.8490566 2.215827 1.5212264.604316.6367924 1.07434 1.4504717 1.410072 2.370283.335731.9198113.503597 1.9457547.503597 3.1132076 0 1.1320754-.167866 2.1580188-.503597 3.0778301-.335732.9198114-.805756 1.6981133-1.410072 2.3702831-.604317.6367924-1.342926 1.1674528-2.215827 1.485849-.872902.3537736-1.81295.5306604-2.887291.5306604-1.07434 0-2.014388-.1768868-2.88729-.5306604-.839328-.3537736-1.577937-.8490566-2.182254-1.485849-.604316-.6367925-1.07434-1.4504717-1.410072-2.3702831-.335731-.9198113-.503597-1.9457547-.503597-3.0778301 0-1.1320755.167866-2.1933963.503597-3.1132076m3.357314 4.7759434c.10072.5306604.268585 1.0259434.537171 1.4504717.268585.4245283.604316.7783019 1.007194 1.0259434.402877.2476415.940048.3891509 1.577937.3891509.63789 0 1.141487-.1415094 1.577938-.3891509s.772182-.6014151 1.007194-1.0259434c.268585-.4245283.436451-.9198113.537171-1.4504717.100719-.5306604.167865-1.0966981.167865-1.6627358 0-.5660378-.067146-1.1320755-.167865-1.6981132-.10072-.5660378-.268586-1.0259434-.537171-1.4504717s-.604316-.7783019-1.007194-1.0259434c-.436451-.2830189-.940048-.389151-1.577938-.389151-.637889 0-1.141486.1415094-1.577937.389151-.402878.2830188-.738609.6014151-1.007194 1.0259434-.268586.4245283-.436451.9198113-.537171 1.4504717-.100719.5660377-.167865 1.0966981-.167865 1.6981132s.067146 1.0966981.167865 1.6627358"/><path d="m192.802469 35.0706714v7.1378092h.069136c.449383-.7420495 1.106173-1.2720848 1.901235-1.6254417.795061-.3533569 1.624691-.4946997 2.488888-.4946997.691358 0 1.382716.1413428 2.074074.4240283s1.313581.7420495 1.832099 1.3427562c.553087.6007067 1.002469 1.3780918 1.31358 2.3321555.345679.9540636.518519 2.0494699.518519 3.3568904s-.17284 2.4381626-.518519 3.3568905c-.345679.9540636-.795061 1.7314487-1.31358 2.3321554-.553086.6007068-1.175308 1.0600707-1.832099 1.3427562-.691358.2826855-1.382716.4240283-2.074074.4240283-1.037037 0-1.935802-.1766784-2.730864-.4946996s-1.417284-.8833923-1.832099-1.6607774h-.069135v1.8021201h-3.62963v-19.6466431h3.802469zm6.187654 10.8127208c-.138271-.565371-.311111-1.024735-.587654-1.4487632-.276543-.4240283-.622222-.7420495-1.002469-.9893993-.414815-.2473498-.898765-.3886926-1.451852-.3886926-.553086 0-1.037037.1413428-1.451852.3886926s-.760494.565371-1.037037.9893993c-.276543.4240282-.449382.9187279-.587654 1.4487632-.138272.5653711-.17284 1.1307421-.17284 1.7314488s.069136 1.1660777.17284 1.6961131c.138272.565371.311111 1.0247349.587654 1.4487632s.622222.7420495 1.037037.9893993.898766.3886926 1.451852.3886926c.587654 0 1.071605-.1413428 1.451852-.3886926.414815-.2473498.725926-.565371 1.002469-.9893993s.449383-.9187279.587654-1.4487632c.138272-.5653711.17284-1.1307421.17284-1.6961131 0-.6007067-.034568-1.2014134-.17284-1.7314488"/><path d="m206.035714 36h3.964286v3.1097122h-3.964286zm3.928572 19h-3.964286v-13.7715827h3.964286z"/></g></g></svg>