<svg height="140" viewBox="0 0 400 140" width="400" xmlns="http://www.w3.org/2000/svg"><path d="m126.701225 17.8656286c-1.546311-1.8176877-2.125954-4.0426654-1.737147-6.6820475.387023-2.63226778 1.623002-4.8625812 3.702585-6.67849029 2.081367-1.8194662 4.435613-2.72653147 7.068087-2.72653147 2.63069 0 4.720975.90884383 6.265502 2.72653147 1.548095 1.81413053 2.125955 4.04444395 1.738932 6.67849029-.388808 2.6393821-1.623003 4.8643598-3.702586 6.6820475-2.08315 1.8141305-4.440963 2.7247529-7.06987 2.7247529-2.632474 0-4.720975-.9088438-6.267286-2.7247529m-20.98667 9.0724312c-3.089055 0-5.9623042 2.5095472-6.3885653 5.574005l-3.1389936 22.824252c-.3460028 2.486426-1.5409606 4.6420399-3.5813065 6.4703989-2.0421294 1.828359-4.342869 2.7425385-6.8933014 2.7425385-2.4826586 0-4.4944682-.8946154-6.0300782-2.6874032-1.5409605-1.7910092-2.1313053-3.9661873-1.7781686-6.5255342l1.8940974-13.8514202c.0570726-2.7638812-2.0225107-4.9266093-4.8904095-4.9266093h-7.5086155c-2.8678988 0-5.5503116 2.1627281-6.2565851 4.9266093l-1.9565205 13.8514202c-.3531368 2.5611255-1.5516617 4.734525-3.5884405 6.5255342-2.0367789 1.7927878-4.2964976 2.6874032-6.7755892 2.6874032-2.4826586 0-4.5087364-.9141795-6.0782332-2.7425385-1.5712804-1.8265805-2.1830274-3.9839729-1.8388082-6.4703989l4.2055381-30.2853085c.4458798-2.9488514-1.305536-6.0293161-3.9772477-7.2796434 0 0-31.6717327-13.1648962-33.73526434-14.01149045-2.09028442-.85370849-4.45879783 1.06002137-5.26851551 4.25075683l-1.93511826 7.61756962c-.8115012 3.1907355 1.01660591 6.8189966 4.05750603 8.0622095l21.22566118 8.7611834-3.1800146 22.884723c-1.0665445 7.6744836.7365934 14.2409247 5.4183311 19.6868734 4.6799542 5.4495058 10.8509304 8.1707016 18.5164956 8.1707016 7.0752204 0 13.5369102-2.3743767 19.3779354-7.1284659 4.665686 4.7540892 10.5049277 7.1284659 17.5105908 7.1284659 7.6637817 0 14.59097-2.7211958 20.7851321-8.1707016 6.192378-5.4459487 9.823623-12.0123898 10.890168-19.6868734 0 0 3.326263-24.1510573 3.386902-24.5725759.288931-2.1058142-1.997541-3.8239025-5.084813-3.8239025h-7.383769zm31.113491-.2596697h-6.634691c-2.776939 0-5.359475 2.2534347-5.742931 5.0066446 0 0-6.682846 47.5853552-6.713166 47.8183464-.262178 1.8906086 1.792436 3.4379552 4.567592 3.4379552h6.634691c2.775156 0 5.357692-2.2534346 5.739365-5.0066445l6.714949-47.8183465c.262178-1.8906085-1.792436-3.4379552-4.565809-3.4379552m113.740366 6.2551932c-3.804246-4.4766338-8.953266-6.71584-15.450626-6.71584-6.499144 0-12.566676 1.4192903-18.548599 6.5682196l4.235858-29.28042244c.267528-1.92795832-1.829891-3.50554046-4.658552-3.50554046h-6.768455c-2.834012 0-5.470053 2.29789867-5.857077 5.10980099l-10.874116 74.59277881c-.267528 1.9261798 1.828107 3.5055405 4.660335 3.5055405h6.768455c2.780507 0 5.364826-2.216085 5.828541-4.9568449h.008917l3.406522-23.2635562c.688438-4.7007324 2.496927-8.2649653 5.429032-10.6891417 2.930322-2.4259549 6.128172-3.6389324 9.586416-3.6389324 6.991395 0 9.814705 4.6278114 8.461014 13.8798771l-3.629461 25.0919152c-.267528 1.9279583 1.82989 3.5055405 4.662119 3.5055405h6.764888c2.835795 0 5.46827-2.2978987 5.860644-5.109801l4.182352-27.1817224c1.091514-7.462835-.263961-13.4352373-4.066423-17.9118712m-62.879751 8.2454011 3.165747-4.0302154c1.341206-1.707417 1.373309-4.3343491.080258-6.1306941-.567159-.9728719-2.215131-1.9172869-3.720421-2.72831l-.169434-.0924851c-4.761996-2.5753539-9.441951-3.5464473-15.64503-3.2440922-6.738135.3290334-12.488201 2.3121271-17.087897 5.8959242-4.63715 3.6104754-7.258923 8.1831515-7.786844 13.5881934-.53684 5.485077 1.319804 9.5793206 5.512857 12.1706815 1.992191 1.2556629 3.813164 2.2125279 5.411197 2.845695 1.587332.6349457 3.923742 1.3783835 6.946807 2.2143064 2.935673.8163587 5.172206 1.7429881 6.641825 2.744317 1.348341.9248509 1.95117 1.9155084 1.840592 3.0288866-.112362 1.1631778-.715191 2.1040357-1.838808 2.8741519-1.168205.8003517-2.728784 1.2556629-4.633583 1.348148-5.150803.2507768-9.996624-.9479722-14.401917-3.564233l-3.26919-1.8052377c-.539905-.2940949-1.151411-.432071-1.765684-.3983973-1.01077.0428458-1.951974.5251391-2.575402 1.319691l-4.701356 6.2142864c-.48155.6367242-.670603 1.3997262-.535056 2.1467211.130197.7256522.549324 1.3517051 1.184257 1.7750022 1.539177 1.2094204 3.138993 2.2641061 4.758429 3.1373787 2.151392 1.1761986 4.423637 2.1177504 6.777372 2.8083452 4.440963 1.3090197 8.848039 1.8674873 13.091031 1.6611744 6.395699-.3130264 11.921042-2.3227985 16.426211-5.9759593 4.535489-3.6762822 7.116241-8.4570497 7.681617-14.2089106.57251-5.8372318-1.105782-9.9777179-4.990287-12.3111878-1.990407-1.1774063-3.748957-2.0489004-5.229278-2.5895824-1.471403-.5335678-3.959412-1.287677-7.396254-2.2374276-3.39582-.9355223-5.832107-1.7927879-7.246438-2.5433399-1.244896-.6616241-1.769251-1.5473466-1.647971-2.7870025.226507-2.3245771 2.621773-3.6140326 7.112674-3.8310168 3.611626-.177856 7.235737.6545098 10.752837 2.4597476.722325.3966187 1.519558.871494 2.247234 1.3374766.904244.5033323 1.599816.7043095 2.263286.6705169.977368-.0462426 1.82454-.5887032 2.746619-1.7607738z" fill="#2fb7ec" fill-rule="evenodd" transform="translate(73 28)"/></svg>