<?xml version="1.0" encoding="UTF-8"?>
<svg width="400px" height="140px" viewBox="0 0 400 140" version="1.1" xmlns="http://www.w3.org/2000/svg" xmlns:xlink="http://www.w3.org/1999/xlink">
    <title>Artboard</title>
    <defs>
        <polygon id="path-1" points="0 55.2865385 0 0 350 0 350 55.2865385"></polygon>
    </defs>
    <g id="Artboard" stroke="none" stroke-width="1" fill="none" fill-rule="evenodd">
        <g id="Mattermost_logo_horizontal" transform="translate(25.000000, 42.000000)">
            <g id="g16-Clipped" transform="translate(175.000000, 27.791346) scale(-1, 1) rotate(-180.000000) translate(-175.000000, -27.791346) translate(0.000000, 0.026923)">
                <mask id="mask-2" fill="white">
                    <use xlink:href="#path-1"></use>
                </mask>
                <g id="path20"></g>
                <g id="g16" mask="url(#mask-2)">
                    <path d="M129.520865,26.7246875 C129.520865,27.5664375 129.380192,28.2513606 129.099183,28.7783798 C128.818846,29.3040865 128.4325,29.7171202 127.941154,30.0146202 C127.449808,30.3135673 126.844038,30.5157596 126.124856,30.6203894 C125.405,30.7256923 124.606394,30.7784279 123.728702,30.7784279 C121.833317,30.7784279 119.815433,30.4099183 117.674038,29.673101 C117.182356,30.5856923 116.814183,31.4459856 116.568846,32.2531394 C116.323173,33.0601587 116.199663,34.0253846 116.199663,35.1490865 C117.744375,35.6750962 119.288413,36.0611058 120.833125,36.3067788 C122.377163,36.5527885 123.817212,36.675625 125.15024,36.675625 C128.80101,36.675625 131.652837,35.7982692 133.706394,34.0428846 C135.759615,32.2875673 136.786394,29.4802308 136.786394,25.6189904 L136.786394,9.82389423 C135.557692,9.43791827 134.065817,9.06903846 132.310769,8.7180625 C130.556394,8.36705288 128.572837,8.19127885 126.361442,8.19127885 C124.571394,8.19127885 122.930096,8.34958654 121.438221,8.66546154 C119.946683,8.98123558 118.665144,9.50825481 117.595625,10.2452404 C116.524423,10.9815529 115.699904,11.9296154 115.120048,13.0879135 C114.541538,14.24675 114.251779,15.667851 114.251779,17.352899 C114.251779,19.0373077 114.611538,20.4500962 115.331058,21.5909279 C116.050577,22.731726 116.981106,23.6447212 118.121298,24.3287019 C119.2625,25.0134904 120.534615,25.5046346 121.93899,25.8031779 C123.343029,26.1015865 124.746731,26.2506731 126.150769,26.2506731 C127.168798,26.2506731 128.291827,26.1976683 129.520865,26.0930385 L129.520865,26.7246875 L129.520865,26.7246875 Z M129.520865,21.3011683 C129.099183,21.3715048 128.643173,21.4334279 128.151154,21.485625 C127.659808,21.5380577 127.221971,21.564375 126.835288,21.564375 C125.11524,21.564375 123.754952,21.2577885 122.754423,20.6432019 C121.754231,20.0290192 121.254135,19.0373077 121.254135,17.6686731 C121.254135,16.7555433 121.447308,16.0541971 121.833317,15.5622788 C122.219327,15.0712692 122.68476,14.711476 123.228606,14.4836394 C123.772788,14.2551635 124.351298,14.1147596 124.965817,14.0619231 C125.580673,14.009726 126.115769,13.9825 126.571442,13.9825 C127.098462,13.9825 127.625144,14.0269567 128.151154,14.1147596 C128.678173,14.2025962 129.134183,14.2810769 129.520865,14.351649 L129.520865,21.3011683 Z M141.770865,30.3574856 L138.348269,30.3574856 L138.084423,31.4106154 L147.930865,43.9943269 L149.141731,43.9943269 L149.141731,36.0439423 L155.512404,36.0439423 C155.617067,35.5172596 155.68774,35.0434135 155.723413,34.6224038 C155.75774,34.2007212 155.77524,33.7625481 155.77524,33.3057308 C155.77524,32.8146202 155.75774,32.3408077 155.723413,31.8843942 C155.68774,31.4278125 155.617067,30.9189327 155.512404,30.3574856 L149.141731,30.3574856 L149.141731,19.6689567 C149.141731,18.5812644 149.229904,17.7039087 149.405577,17.0365865 C149.58024,16.3706106 149.835,15.8435913 150.168173,15.4572452 C150.502356,15.0712692 150.914279,14.8080962 151.405625,14.6676923 C151.896971,14.5266154 152.476827,14.4566827 153.142837,14.4566827 C153.669856,14.4566827 154.187115,14.5007356 154.696635,14.5885385 C155.205144,14.6761058 155.65274,14.755226 156.03875,14.8251923 C156.285096,14.1591827 156.45976,13.4656106 156.565433,12.7457212 C156.671106,12.0262692 156.723269,11.3851298 156.723269,10.8237837 C156.723269,10.4376731 156.714856,10.1133846 156.697019,9.84980769 C156.679519,9.58700481 156.653606,9.33157212 156.617933,9.08653846 C155.003558,8.69992308 153.336683,8.50772596 151.616635,8.50772596 C148.422212,8.50772596 145.982308,9.25309135 144.297933,10.7443942 C142.613221,12.2366058 141.770865,14.6676923 141.770865,18.037149 L141.770865,30.3574856 L141.770865,30.3574856 Z M161.524327,30.3574856 L158.102404,30.3574856 L157.838558,31.4106154 L167.684663,43.9943269 L168.895529,43.9943269 L168.895529,36.0439423 L175.266202,36.0439423 C175.371202,35.5172596 175.441875,35.0434135 175.477212,34.6224038 C175.511538,34.2007212 175.529375,33.7625481 175.529375,33.3057308 C175.529375,32.8146202 175.511538,32.3408077 175.477212,31.8843942 C175.441875,31.4278125 175.371202,30.9189327 175.266202,30.3574856 L168.895529,30.3574856 L168.895529,19.6689567 C168.895529,18.5812644 168.984038,17.7039087 169.159038,17.0365865 C169.334712,16.3706106 169.589135,15.8435913 169.922308,15.4572452 C170.256154,15.0712692 170.66774,14.8080962 171.15976,14.6676923 C171.650769,14.5266154 172.230625,14.4566827 172.896971,14.4566827 C173.423654,14.4566827 173.940913,14.5007356 174.450433,14.5885385 C174.959279,14.6761058 175.406875,14.755226 175.792885,14.8251923 C176.038894,14.1591827 176.213894,13.4656106 176.318894,12.7457212 C176.424904,12.0262692 176.477404,11.3851298 176.477404,10.8237837 C176.477404,10.4376731 176.468654,10.1133846 176.450817,9.84980769 C176.433654,9.58700481 176.407404,9.33157212 176.372067,9.08653846 C174.757356,8.69992308 173.090817,8.50772596 171.370096,8.50772596 C168.176346,8.50772596 165.736442,9.25309135 164.051731,10.7443942 C162.367019,12.2366058 161.524327,14.6676923 161.524327,18.037149 L161.524327,30.3574856 L161.524327,30.3574856 Z M196.109375,25.3550096 C196.039375,27.0405962 195.573942,28.4004135 194.714087,29.4359423 C193.854231,30.4713365 192.652115,30.9896731 191.107404,30.9896731 C189.352356,30.9896731 188.018654,30.498024 187.105962,29.5153317 C186.193606,28.5324038 185.64976,27.1456298 185.474423,25.3550096 L196.109375,25.3550096 L196.109375,25.3550096 Z M185.42125,20.1431394 C185.561923,18.037149 186.298942,16.5102404 187.632644,15.5622788 C188.966346,14.6145865 190.721394,14.1406731 192.898125,14.1406731 C194.09149,14.1406731 195.310433,14.2551635 196.556971,14.4836394 C197.803173,14.711476 198.987452,15.0361683 200.111154,15.4572452 C200.497163,14.755226 200.830337,13.9128365 201.111346,12.929774 C201.392019,11.9477885 201.549856,10.8941202 201.585192,9.77105769 C198.847115,8.7180625 195.758029,8.19127885 192.317933,8.19127885 C189.791202,8.19127885 187.624231,8.54242308 185.815673,9.24467788 C184.008462,9.94642788 182.534087,10.9210769 181.393558,12.1665385 C180.252692,13.4123702 179.41,14.8954952 178.866154,16.6159135 C178.322308,18.3356923 178.050721,20.2132067 178.050721,22.248625 C178.050721,24.2498173 178.331058,26.1277356 178.89274,27.8826154 C179.45375,29.6382692 180.287692,31.1646394 181.393558,32.4630721 C182.499087,33.7625481 183.867788,34.7889904 185.500337,35.5435096 C187.132548,36.2983654 189.036683,36.675625 191.21274,36.675625 C193.108125,36.675625 194.793173,36.3424519 196.267212,35.6750962 C197.741587,35.0084135 198.996202,34.0957212 200.031731,32.936851 C201.06726,31.7793606 201.848702,30.4011346 202.375048,28.8041587 C202.901731,27.207149 203.164904,25.4955481 203.164904,23.6710048 C203.164904,23.0039856 203.138654,22.3453798 203.085817,21.6963317 C203.033317,21.0474519 202.971058,20.52925 202.901731,20.1431394 L185.42125,20.1431394 Z M206.020096,36.0439423 C206.546442,36.1486058 207.046538,36.2280288 207.520385,36.2805288 C207.994904,36.3337019 208.511827,36.3599519 209.073846,36.3599519 C209.600529,36.3599519 210.118462,36.3242788 210.626635,36.2546154 C211.136154,36.1846154 211.63625,36.0964423 212.126923,35.9911058 C212.232933,35.8150962 212.329519,35.5613462 212.417019,35.2278365 C212.504856,34.8943269 212.583606,34.5433173 212.653942,34.1744712 C212.724279,33.805625 212.785192,33.4379904 212.838029,33.0687067 C212.890865,32.6999615 212.934279,32.3938125 212.969952,32.1471635 C213.741971,33.2355288 214.690337,34.2098077 215.813029,35.0693269 C216.936394,35.9295192 218.340433,36.3599519 220.024808,36.3599519 C220.37649,36.3599519 220.78,36.3424519 221.23601,36.3067788 C221.692019,36.2717788 222.025529,36.2192788 222.236202,36.1486058 C222.306538,35.7982692 222.359375,35.3944231 222.394038,34.9380769 C222.430048,34.4820673 222.447212,34.0078846 222.447212,33.5163365 C222.447212,32.9196538 222.420288,32.2703702 222.368125,31.568351 C222.315288,30.8665 222.218702,30.1997163 222.078029,29.5677981 C221.692019,29.6382692 221.26226,29.673101 220.78875,29.673101 C220.314904,29.673101 220.024808,29.673101 219.920144,29.673101 C219.322788,29.673101 218.656442,29.6114471 217.91875,29.4889135 C217.182067,29.3656058 216.480048,29.0412837 215.813029,28.514399 C215.145673,27.9881538 214.593413,27.1982308 214.154231,26.1449663 C213.715721,25.092476 213.495625,23.6181683 213.495625,21.7222452 L213.495625,8.77025962 C212.864615,8.66546154 212.232933,8.595125 211.600577,8.56015865 C210.969231,8.52482212 210.355048,8.50772596 209.758029,8.50772596 C209.16101,8.50772596 208.555913,8.52482212 207.941394,8.56015865 C207.327212,8.595125 206.686779,8.66546154 206.020096,8.77025962 L206.020096,36.0439423 L206.020096,36.0439423 Z M225.951923,36.0439423 C226.442933,36.1486058 226.934615,36.2280288 227.425625,36.2805288 C227.917308,36.3337019 228.461154,36.3599519 229.058173,36.3599519 C229.654856,36.3599519 230.181202,36.3337019 230.637548,36.2805288 C231.093894,36.2280288 231.56774,36.1486058 232.059087,36.0439423 C232.164087,35.8682692 232.261346,35.6135096 232.348846,35.28 C232.436346,34.9468269 232.515769,34.5954808 232.585769,34.2273077 C232.656106,33.8587981 232.717019,33.4991058 232.769856,33.1481298 C232.823365,32.7971202 232.866779,32.4985769 232.901779,32.2531394 C233.181779,32.7789808 233.550962,33.3057308 234.007644,33.8325481 C234.463654,34.3585577 235.0075,34.8320673 235.639183,35.25375 C236.270865,35.6750962 236.981635,36.0173558 237.771827,36.2805288 C238.561346,36.5440385 239.448125,36.675625 240.430817,36.675625 C244.677596,36.675625 247.397837,35.0605769 248.591538,31.8314231 C249.293221,33.1303606 250.285,34.2619712 251.565865,35.2278365 C252.847404,36.1930288 254.470865,36.675625 256.436923,36.675625 C259.525337,36.675625 261.797981,35.8238462 263.254519,34.1212981 C264.711731,32.4196923 265.44,29.7605337 265.44,26.1449663 L265.44,8.82309615 C264.176635,8.61235577 262.92976,8.50772596 261.701731,8.50772596 C260.473029,8.50772596 259.226827,8.61235577 257.963462,8.82309615 L257.963462,24.1975192 C257.963462,26.0930385 257.726202,27.5492067 257.252019,28.5668654 C256.778846,29.5850288 255.822404,30.0940433 254.383365,30.0940433 C253.78601,30.0940433 253.19875,30.0059375 252.619904,29.8309712 C252.040048,29.6557356 251.513702,29.3311779 251.040192,28.8571298 C250.566346,28.3832163 250.180337,27.7157933 249.88149,26.8559038 C249.582981,25.9968221 249.433894,24.8816346 249.433894,23.5128654 L249.433894,8.82309615 C248.170192,8.61235577 246.92399,8.50772596 245.695625,8.50772596 C244.46726,8.50772596 243.220721,8.61235577 241.957019,8.82309615 L241.957019,24.1975192 C241.957019,26.0930385 241.720433,27.5492067 241.24625,28.5668654 C240.772404,29.5850288 239.816298,30.0940433 238.37726,30.0940433 C237.78125,30.0940433 237.183894,30.0059375 236.586875,29.8309712 C235.990865,29.6557356 235.455096,29.3134087 234.98125,28.8041587 C234.507067,28.295649 234.129808,27.5848462 233.849471,26.6717163 C233.568462,25.7595288 233.427788,24.565726 233.427788,23.0917885 L233.427788,8.82309615 C232.164087,8.61235577 230.918894,8.50772596 229.689856,8.50772596 C228.461154,8.50772596 227.215625,8.61235577 225.951923,8.82309615 L225.951923,36.0439423 Z M280.666346,13.8778702 C282.632067,13.8778702 284.044856,14.6057692 284.904375,16.0630144 C285.764567,17.5191827 286.194663,19.6167596 286.194663,22.3544327 C286.194663,25.092476 285.764567,27.1895481 284.904375,28.6461202 C284.044856,30.1033654 282.632067,30.8315337 280.666346,30.8315337 C278.735962,30.8315337 277.340673,30.1033654 276.480817,28.6461202 C275.620288,27.1895481 275.190192,25.092476 275.190192,22.3544327 C275.190192,19.6167596 275.620288,17.5191827 276.480817,16.0630144 C277.340673,14.6057692 278.735962,13.8778702 280.666346,13.8778702 Z M280.666346,8.19127885 C278.454952,8.19127885 276.532981,8.55150962 274.901106,9.27096154 C273.268894,9.99021154 271.917356,10.9907404 270.846827,12.2722115 C269.776298,13.5534135 268.968942,15.0536683 268.425433,16.7738173 C267.880913,18.4938317 267.60899,20.353476 267.60899,22.3544327 C267.60899,24.3552548 267.880913,26.2334423 268.425433,27.9881538 C268.968942,29.7430337 269.776298,31.2612596 270.846827,32.542226 C271.917356,33.8237981 273.268894,34.8320673 274.901106,35.5700962 C276.532981,36.3067788 278.454952,36.675625 280.666346,36.675625 C282.87774,36.675625 284.807788,36.3067788 286.457837,35.5700962 C288.107212,34.8320673 289.475913,33.8237981 290.564952,32.542226 C291.652981,31.2612596 292.46,29.7430337 292.987019,27.9881538 C293.513365,26.2334423 293.776202,24.3552548 293.776202,22.3544327 C293.776202,20.353476 293.513365,18.4938317 292.987019,16.7738173 C292.46,15.0536683 291.652981,13.5534135 290.564952,12.2722115 C289.475913,10.9907404 288.107212,9.99021154 286.457837,9.27096154 C284.807788,8.55150962 282.87774,8.19127885 280.666346,8.19127885 Z M303.374952,20.6695192 C301.408894,21.2315048 299.873269,22.0650769 298.768077,23.1706731 C297.662212,24.276 297.109279,25.9350337 297.109279,28.1465625 C297.109279,30.8141683 298.066058,32.9018846 299.979279,34.4113942 C301.891827,35.9207692 304.498654,36.675625 307.79774,36.675625 C309.166779,36.675625 310.517644,36.5527885 311.851683,36.3067788 C313.185721,36.0611058 314.536923,35.6929327 315.905625,35.20125 C315.835288,34.2892308 315.659952,33.3413702 315.378606,32.3581731 C315.098606,31.375649 314.765096,30.5157596 314.379087,29.7777308 C313.536394,30.1292788 312.606538,30.4363702 311.588173,30.6999471 C310.570817,30.9625817 309.499952,31.0944375 308.376923,31.0944375 C307.183221,31.0944375 306.253702,30.9102837 305.58601,30.5416394 C304.919327,30.1728942 304.585817,29.5850288 304.585817,28.7783798 C304.585817,28.0059231 304.82274,27.4616731 305.296587,27.1456298 C305.770433,26.8299904 306.446538,26.5309423 307.323558,26.2506731 L310.324808,25.3550096 C311.307837,25.0747404 312.193942,24.7326827 312.983798,24.3287019 C313.773317,23.9249904 314.449423,23.4247933 315.010769,22.8284808 C315.572452,22.231899 316.010962,21.4944087 316.326635,20.6170529 C316.642981,19.7392933 316.801154,18.6690673 316.801154,17.4057356 C316.801154,16.1063942 316.528894,14.8954952 315.984712,13.7724327 C315.440865,12.649101 314.650673,11.6752596 313.615481,10.8507404 C312.579952,10.0251779 311.325,9.37602885 309.850625,8.90248558 C308.376923,8.42830288 306.709375,8.19127885 304.84899,8.19127885 C304.006298,8.19127885 303.234952,8.21796635 302.532933,8.27043269 C301.830577,8.32367308 301.155144,8.41110577 300.505625,8.53360577 C299.856442,8.65677885 299.215673,8.80546154 298.58399,8.98123558 C297.951971,9.15647115 297.267452,9.38467788 296.530433,9.66575481 C296.601106,10.6137163 296.767692,11.570226 297.030529,12.5350144 C297.293702,13.4999375 297.636298,14.4394856 298.057308,15.3522115 C299.215673,14.8954952 300.312788,14.5535721 301.348317,14.3255 C302.383846,14.0968894 303.463125,13.9825 304.585817,13.9825 C305.077837,13.9825 305.612933,14.0269567 306.191442,14.1147596 C306.770962,14.2025962 307.306394,14.3604663 307.79774,14.5885385 C308.289423,14.8167788 308.702019,15.1153221 309.035192,15.4835288 C309.368702,15.8520048 309.534615,16.334601 309.534615,16.9319567 C309.534615,17.7735721 309.280529,18.3793413 308.771683,18.7479519 C308.2625,19.1160577 307.551731,19.4417933 306.639712,19.7221971 L303.374952,20.6695192 L303.374952,20.6695192 Z M321.585721,30.3574856 L318.164135,30.3574856 L317.899952,31.4106154 L327.745721,43.9943269 L328.956587,43.9943269 L328.956587,36.0439423 L335.327596,36.0439423 C335.432933,35.5172596 335.502933,35.0434135 335.538606,34.6224038 C335.573269,34.2007212 335.591106,33.7625481 335.591106,33.3057308 C335.591106,32.8146202 335.573269,32.3408077 335.538606,31.8843942 C335.502933,31.4278125 335.432933,30.9189327 335.327596,30.3574856 L328.956587,30.3574856 L328.956587,19.6689567 C328.956587,18.5812644 329.045096,17.7039087 329.220096,17.0365865 C329.396106,16.3706106 329.650192,15.8435913 329.983365,15.4572452 C330.317548,15.0712692 330.729808,14.8080962 331.220817,14.6676923 C331.711827,14.5266154 332.292019,14.4566827 332.958365,14.4566827 C333.485048,14.4566827 334.002308,14.5007356 334.511827,14.5885385 C335.020337,14.6761058 335.467933,14.755226 335.853942,14.8251923 C336.099952,14.1591827 336.275625,13.4656106 336.380288,12.7457212 C336.486298,12.0262692 336.538462,11.3851298 336.538462,10.8237837 C336.538462,10.4376731 336.529712,10.1133846 336.512212,9.84980769 C336.494712,9.58700481 336.468798,9.33157212 336.433125,9.08653846 C334.819087,8.69992308 333.151875,8.50772596 331.431827,8.50772596 C328.237404,8.50772596 325.797837,9.25309135 324.112788,10.7443942 C322.428413,12.2366058 321.585721,14.6676923 321.585721,18.037149 L321.585721,30.3574856 L321.585721,30.3574856 Z M73.3882692,44.3786538 C74.9097596,44.59 76.3733654,44.6966827 77.7800962,44.6966827 C79.2632212,44.6966827 80.7275,44.59 82.1722596,44.3786538 L91.5835577,24.8449519 L101.279904,44.3786538 C102.458798,44.59 103.769952,44.6966827 105.215385,44.6966827 C106.660481,44.6966827 108.047692,44.59 109.379038,44.3786538 L111.318173,8.50903846 C109.87375,8.29698558 108.504712,8.19127885 107.212067,8.19127885 C105.918413,8.19127885 104.645288,8.29698558 103.390673,8.50903846 L102.363558,34.4433654 L94.0359135,16.5186538 C93.5031731,16.4479135 92.9522596,16.385351 92.3814904,16.3332885 C91.8110577,16.2800481 91.2412981,16.2537644 90.6705288,16.2537644 C90.1758173,16.2537644 89.6821154,16.2712308 89.1880769,16.306601 C88.6937019,16.3419712 88.1804808,16.4129471 87.6477404,16.5186538 L79.8908654,34.8145673 L79.0922596,8.50903846 C77.8756731,8.29698558 76.6967788,8.19127885 75.5555769,8.19127885 C74.3386538,8.19127885 73.0833654,8.29698558 71.7913942,8.50903846 L73.3882692,44.3786538" id="path22" fill="#211F1E"></path>
                    <path d="M43.8879808,50.010625 L44.1790865,44.1430769 C48.9357212,38.8880288 50.8132692,31.445851 48.4453846,24.4513702 C44.9107212,14.0101298 33.2556538,8.52152404 22.4127885,12.192149 C11.5700913,15.8624038 5.64556731,27.3024567 9.18012981,37.7434615 C11.5558894,44.7612981 17.6001875,49.5418269 24.6005577,50.8075481 L28.3828125,55.2764423 C16.5826635,55.5958173 5.4499375,48.2713942 1.46670192,36.505 C-3.42730769,22.0480144 4.32505769,6.36098077 18.7821442,1.46670192 C33.2392308,-3.42730769 48.9262981,4.32519231 53.8205769,18.7822788 C57.7971154,30.5296923 53.4237981,43.089375 43.8879808,50.010625" id="path24" fill="#211F1E"></path>
                    <path d="M37.1111058,32.6976058 L36.9108654,40.8998558 L36.7503365,45.6198077 L36.6416346,49.7090865 C36.6416346,49.7090865 36.6641827,51.6805288 36.5955288,52.1439423 C36.5810577,52.2415385 36.5504327,52.3209615 36.51375,52.3899519 L36.4999519,52.4192308 L36.4841346,52.4444712 C36.40875,52.574375 36.2896154,52.6803846 36.1358173,52.7325481 C35.9786538,52.7857212 35.8157692,52.7725962 35.6744231,52.7116827 L35.6656731,52.7079808 L35.616875,52.6830769 C35.5499038,52.6504327 35.4815865,52.6083654 35.4149519,52.54375 C35.07875,52.2173077 33.8991827,50.6372596 33.8991827,50.6372596 L31.3289712,47.4552885 L28.3343173,43.8035096 L23.19275,37.4092788 C23.19275,37.4092788 20.8333125,34.4645673 21.3546779,30.8399471 C21.8760433,27.2153269 24.5707404,25.4495433 26.661351,24.7419038 C28.7518269,24.0340962 31.9649615,23.7999663 34.5810096,26.3625385 C37.1969231,28.9250769 37.1111058,32.6976058 37.1111058,32.6976058" id="path26" fill="#211F1E"></path>
                    <path d="M344.951923,8.55753365 C342.162019,8.55753365 339.903846,10.8162788 339.903846,13.6052404 C339.903846,16.3934952 342.162019,18.6522404 344.951923,18.6522404 C347.738462,18.6522404 350,16.3934952 350,13.6052404 C350,10.8162788 347.738462,8.55753365 344.951923,8.55753365 M344.951923,17.7510913 C342.663462,17.7510913 340.805769,15.8919856 340.805769,13.6052404 C340.805769,11.3180913 342.663462,9.45871635 344.951923,9.45871635 C347.237019,9.45871635 349.098077,11.3180913 349.098077,13.6052404 C349.098077,15.8919856 347.237019,17.7510913 344.951923,17.7510913 M344.083654,15.4751154 L344.083654,13.8923413 L344.995673,13.8923413 C345.49375,13.8923413 345.773077,14.1850962 345.773077,14.6922596 C345.773077,15.0190721 345.662019,15.2499375 345.436538,15.37375 C345.322115,15.4356731 345.163942,15.4751154 344.776923,15.4751154 L344.083654,15.4751154 M347.065385,10.7207356 L346.207212,10.7207356 C346.139904,10.7207356 346.079327,10.7547596 346.049038,10.8162788 L344.955288,12.8725962 L344.083654,12.8725962 L344.083654,10.9008173 C344.083654,10.7998558 344.00625,10.7207356 343.901923,10.7207356 L343.148077,10.7207356 C343.047115,10.7207356 342.969712,10.7998558 342.969712,10.9008173 L342.969712,16.3089567 C342.969712,16.4105913 343.047115,16.4893413 343.148077,16.4893413 L344.803846,16.4893413 C345.396154,16.4893413 345.655288,16.4381875 345.874038,16.3537837 C346.510096,16.1171635 346.907212,15.4922115 346.907212,14.7263173 C346.907212,14.0329808 346.563942,13.4474712 346.015385,13.1767933 C346.032212,13.148524 346.049038,13.1206587 346.065865,13.0870048 L347.220192,10.9853558 C347.250481,10.9290865 347.250481,10.861375 347.216827,10.8108942 C347.186538,10.7547596 347.125962,10.7207356 347.065385,10.7207356" id="path28" fill="#BDBBBC" fill-rule="nonzero"></path>
                </g>
            </g>
        </g>
    </g>
</svg>