<svg height="140" viewBox="0 0 400 140" width="400" xmlns="http://www.w3.org/2000/svg"><g fill="none" transform="translate(25 47)"><path d="m96.5734374 21.4553473c3.5558096 1.7687838 5.2625986 5.023346 5.2625986 8.8439189-.071116 7.5703946-4.6936691 13.6550108-13.5831934 13.6550108h-20.4103478v-43.22907565h18.632443c7.5383166 0 13.5831932 5.80161082 13.5831932 13.30125415-.0711162 2.5470486-1.3512078 5.7308594-3.4846936 7.4288918zm-17.9212811-10.8957081v7.0043838h7.0405033c4.4092041 0 4.4092041-7.0043838-.0711162-7.0043838zm0 16.2728109v7.3581405h8.8895244c4.4803203 0 4.409204-7.3581405-.0711162-7.3581405zm53.3371457 4.4573351c0-3.0423082-3.626926-3.6790703-7.965014-3.9620757-9.458453-.7075135-15.645562-3.8913244-15.787795-13.301254-.355581-18.67835685 33.495728-18.67835685 33.211264 0h-10.596313c0-5.73085955-11.663057-5.23560008-12.089754-.1415027-.284464 3.2545621 2.98688 3.9620756 6.898271 4.3865837 8.676175.9197676 17.139003 2.1932919 17.139003 13.089 0 18.1830973-35.486981 18.5368541-35.202516-.5660108h10.738545c0 5.447854 13.654309 5.5186054 13.654309.4952595zm15.71668-8.843919c0-29.92782161 44.66097-29.92782161 44.66097 0 0 29.998573-44.66097 29.998573-44.66097 0zm33.282378 0c0-15.56529728-21.832671-15.56529728-21.832671 0 0 15.7068 21.832671 15.7068 21.832671 0zm29.086524 11.6032217h15.787796v9.9759405h-27.024155v-43.29982705h11.165243c.071116 22.35742705.071116 14.85778375.071116 33.32388655zm44.305389-4.6695893v-28.65429725h10.667429v28.86655135c0 9.5514325-8.249479 15.0700379-17.210119 15.0700379-8.889524 0-17.281235-5.5186054-17.281235-15.0700379v-28.86655135h10.667429v28.72504865c0 3.5375676 3.413578 5.2356001 6.684922 5.2356001 3.129114 0 6.471574-1.7687838 6.471574-5.3063515zm16.214493-18.8198594v-9.9051892h32.357868v9.9051892h-10.667429v33.3946378h-11.02301v-33.3946378zm65.284666 0h-16.143376v6.1553676h14.792168v9.8344378h-14.792168v7.641146h16.64119v9.8344378h-27.735316v-43.29982705h27.166386c.071116 3.18381082.071116 6.50912434.071116 9.83443785zm-291.2208167-9.9051892h-4.6936688l-20.0547669 43.299827h11.4497073l10.951894-25.8949945 11.0230101 25.8949945h11.5208236z" fill="#231f20"/><path d="m0 44.011976 20.5214571-44.011976h10.9156686l-20.521457 44.011976z" fill="#78be43"/><path d="m340.568862 4.14638349c0-2.56321888 1.523492-4.14638349 4.715569-4.14638349s4.715569 1.58316461 4.715569 4.14638349v2.18627493c0 2.56321889-1.523492 4.14638348-4.715569 4.14638348-3.264625 0-4.715569-1.58316459-4.715569-4.14638348zm.943114 2.11088614c0 2.26166372 1.233303 3.31710679 3.845002 3.31710679 2.6117 0 3.845003-1.05544307 3.845003-3.31710679v-2.03549735c0-2.26166372-1.233303-3.31710679-3.845003-3.31710679-2.611699 0-3.845002 1.13083186-3.845002 3.31710679zm4.207739-.30155516h-1.450944v1.96010856h-.870567v-5.35260414h2.321511c1.305849 0 1.813679.52772153 1.813679 1.65855339 0 .90466549-.435282 1.35699824-.870566 1.58316461l1.015661 2.11088614h-.943114zm-1.450944-.8292767h1.450944c.652924 0 .870566-.45233274.870566-.90466549 0-.60311032-.217642-.90466549-.870566-.90466549h-1.450944z" fill="#000"/></g></svg>