<svg height="140" viewBox="0 0 400 140" width="400" xmlns="http://www.w3.org/2000/svg"><path d="m101.531818 11.5318182v17.875h4.456818c2.297921-.0341219 4.484271-.9965419 6.061364-2.6681818 1.602217-1.6962578 2.478851-3.9510419 2.443182-6.2840909.068619-2.3405127-.798372-4.6118659-2.409091-6.3113637-1.584336-1.6746807-3.790107-2.6204812-6.095455-2.6136732h-4.454545zm4.456818-5.60454547c8.306819 0 14.590909 6.43636367 14.590909 14.52727277 0 8.090909-6.28409 14.5636363-14.590909 14.5636363h-9.8295451c-.189273-.0023957-.3698404-.0798897-.5019716-.2154307-.1321312-.1355411-.2050003-.3180239-.2026326-.5072966v-27.61590905c0-.4.3159678-.725.7046042-.725zm36.002273 24.10231427c3.772727.0113221 7.179546-2.3091325 8.631818-5.879587 1.453405-3.5639988.671367-7.6496557-1.995454-10.425-2.625442-2.735312-6.665586-3.5686484-10.159091-2.0954545-3.486364 1.4727272-5.763637 4.9568181-5.770455 8.825 0 5.2727272 4.154546 9.55 9.295455 9.5750415m0-24.76140518c8.743182 0 15.427273 6.89090908 15.427273 15.18636368 0 8.2954545-6.684091 15.1863636-15.429546 15.1863636-8.743182 0-15.370454-6.8568182-15.370454-15.1863636 0-8.3295455 6.68409-15.18636368 15.370454-15.18636368m36.668182 24.76136368c5.143182-.0136364 9.304545-4.2954546 9.300004-9.5681819-.006822-5.2772727-4.177277-9.55-9.318186-9.5522727-5.145454 0-9.318182 4.2704546-9.325 9.5454546 0 2.540909.984091 4.9772727 2.736364 6.7727272 1.732776 1.7876287 4.114944 2.7983695 6.604545 2.8022728m0-24.76136368c8.715909 0 15.4 6.85681818 15.4 15.18636368 0 8.3295454-6.711363 15.1863636-15.4 15.1863636-8.686363 0-15.427273-6.8568182-15.427273-15.1863636 0-8.3295455 6.684091-15.18636368 15.427273-15.18636368m35.786364 6.26363638h-6.284091v7.6931818h6.284091c1.003573.0444926 1.980843-.3281533 2.7-1.0295455.727273-.7045454 1.140909-1.6818181 1.15-2.7090909.037007-1.0530843-.356952-2.0757347-1.090909-2.8318181-.721027-.7446401-1.723133-1.1499399-2.759091-1.1159091zm-12.363637-4.85227275c0-.4.318182-.725.706819-.725h11.831818c5.640909 0 9.722727 4.23863635 9.722727 9.56136365.043182 3.6-1.922727 6.9068182-5.061364 8.5181818l5.456819 9.8931818c.153947.2318666.16449.5305843.027272.7727273-.134202.2387069-.395278.3772366-.668181.3545455h-4.788637c-.271048.003843-.520264-.1481606-.640909-.3909091l-5.259091-9.7909091h-5.270454v9.4c.003035.1896633-.069564.3727316-.20176.5087663-.132197.1360347-.313113.2138416-.502786.2162337h-4.613636c-.189673-.0023921-.370589-.080199-.502786-.2162337-.132196-.1360347-.204795-.319103-.20176-.5087663l-.031818-27.59090912zm38.106819 4.98863635v17.8772727h4.454545c2.297369-.0311393 4.484453-.9902427 6.063636-2.6590909 1.602977-1.6942752 2.481224-3.9473835 2.447728-6.2795454.073502-2.3434417-.791203-4.6193259-2.402273-6.3227273-1.587043-1.6775657-3.797525-2.6236224-6.106818-2.6136364zm4.454545-5.61136362c8.306818 0 14.590909 6.44318182 14.590909 14.55000002s-6.284091 14.55-14.590909 14.55h-9.8c-.189672-.0023921-.370589-.080199-.502785-.2162337-.132197-.1360347-.204796-.319103-.201852-.5087663v-27.61363638c0-.40227273.316001-.72727273.704637-.72727273l9.802273-.03409091zm33.127273 7.10909092-3.447727 9.5590909h6.888636zm-5.470455 14.9613636-2.256818 6.3636364c-.093121.3079953-.383075.5137695-.704545.5h-4.895455c-.253941.0236662-.500562-.0931082-.643182-.3045455-.145474-.2135872-.168746-.487671-.061363-.7227272l10.577272-27.5886364c.101395-.29897218.389291-.49399858.704546-.47727273h5.477273c.316075-.01777495.605196.17745139.706818.47727273l10.577272 27.5886364c.106717.235447.082582.5095513-.063636.7227272-.143174.2105745-.389692.3264295-.643182.3022728h-4.893182c-.32147.0137695-.611424-.1920047-.704545-.5l-2.256818-6.3636364h-10.920455zm25.156818-14.3409091c0-4.56818178 3.85-8.51818178 9.929546-8.51818178 3.273892-.07310871 6.443829 1.15156559 8.818182 3.40681818.146236.13823505.229098.33058699.229098.53181818 0 .2012312-.082862.39358314-.229098.53181818l-2.711364 2.76136364c-.131033.1355386-.311478.2120737-.5.2120737s-.368966-.0765351-.5-.2120737c-1.277102-1.1969969-2.954386-1.8752028-4.704545-1.9022727-2.431819 0-4.229546 1.4477272-4.229546 3.1181818 0 5.4 14.370455 2.2840909 14.370455 12.675-.006818 5.2659091-3.886364 9.25-10.745455 9.25-3.848363.0394158-7.548011-1.4844031-10.252273-4.2227273-.146236-.138235-.229098-.330587-.229098-.5318182s.082862-.3935831.229098-.5318181l2.622728-2.6909091c.132022-.1422219.31731-.2230373.511363-.2230373.194054 0 .379342.0808154.511364.2230373 1.650746 1.6361849 3.873633 2.5654447 6.197727 2.5909091 3.038637 0 5.040909-1.6636364 5.040909-3.7477273 0-5.4022727-14.363636-2.2840909-14.363636-12.6772727m46.536364-7.18636368v10.91818178h-12.163637v-10.91818178c.002427-.18927265-.070442-.3717555-.202574-.50729652-.132131-.13554103-.312698-.21303499-.501971-.21543075h-4.613637c-.189273.00239576-.36984.07988972-.501971.21543075-.132131.13554102-.205.31802387-.202633.50729652v27.58409088c0 .4.318241.725.704604.725h4.613637c.386363 0 .704545-.325.704545-.725v-11.0909091h12.154546v11.0909091c0 .4.318182.725.704545.725h4.613637c.388636 0 .704604-.325.704604-.725v-27.58409088c.002367-.18927265-.070502-.3717555-.202633-.50729652-.132131-.13554103-.312698-.21303499-.501971-.21543075h-4.613637c-.390571.00992075-.700557.33206299-.695454.72272727zm-274.4295458 2.95909091c-3.2-5.93181818-9.4613637-9.625-16.2704546-9.60237703h-51.51818178c-.71124231.00299133-1.35189789.43069157-1.62727273 1.08646794-.2715252.65199245-.12050113 1.40351697.38181818 1.9l11.22272723 11.13636366c.9909091.9863636 2.3409091 1.5386363 3.7454546 1.5386363h36.3181818c2.5886364-.0272727 4.7045455 2.0227273 4.7318182 4.575.0272727 2.5522728-2.0477273 4.6431819-4.6363636 4.6681819h-25.0386364c-.7118004.0002922-1.3543986.4263044-1.6318182 1.0818181-.2741654.6528002-.1239222 1.4067151.3795455 1.9045455l11.2295454 11.1454545c.9971234.9858636 2.3432494 1.5380367 3.7454546 1.5363675h11.325c14.7340909 0 25.875-15.5454584 17.6431818-30.97727655" fill="#ff3008" transform="translate(20 50)"/></svg>