<svg height="140" viewBox="0 0 400 140" width="400" xmlns="http://www.w3.org/2000/svg"><g fill="none" fill-rule="nonzero"><g transform="translate(48 22)"><path d="m29.7051133 21.005782c3.4222386.0577067 6.7270802 1.2546689 9.3897994 3.400839l4.2268724 3.400839c3.3194669 2.803832 5.2477004 6.9135846 5.2799339 11.2534201v11.6767005c0 2.817004-2.2231301 4.9188101-5.5139476 4.9188101h-33.22994455v2.58347c.01394351 1.4117382.65727625 2.7439173 1.75510275 3.634373l4.2268723 3.517606c.8477527.7258182 1.940974 1.1016584 3.0568039 1.0509031h24.1911656c3.4078244 0 5.5139476 2.1018061 5.5139476 4.91881 0 2.817004-2.2231301 4.9188101-5.5139476 4.9188101h-24.3081725c-3.3859957-.0344994-6.658203-1.2242952-9.27279259-3.3716472l-4.22687234-3.5176061c-3.32060925-2.7527208-5.25307108-6.8287485-5.27993397-11.136653v-19.2081723c.03223349-4.3398356 1.96046707-8.4495882 5.27993397-11.2534201l4.22687234-3.3862432c2.61063399-2.1578666 5.88323319-3.3581073 9.27279259-3.400839zm-13.8506855 10.9031191-4.1537431 3.5030101c-1.0978265.8904558-1.74115921 2.2226348-1.75510271 3.6343731v6.684911h28.79831021v-6.684911c-.0392426-1.4057211-.6777549-2.7279182-1.7551027-3.6343731l-4.2268724-3.517606c-.8702838-.7007727-1.9400725-1.1094218-3.0568038-1.16767h-10.8085075c-1.1122924.0583135-2.1774026.4671316-3.042178 1.16767z" fill="#231f20"/><path d="m124.436782 9.8837248h-59.9660094c-1.2601114 0-2.2816335 1.0194282-2.2816335 2.2769566v72.1912007c0 1.2575284 1.0215221 2.2769566 2.2816335 2.2769566h59.9660094c1.260111 0 2.281633-1.0194282 2.281633-2.2769566v-72.1912007c0-1.2575284-1.021522-2.2769566-2.281633-2.2769566zm-10.867011 66.3090629c-1.646575-.0602103-3.187116-.8262418-4.226873-2.1018061l-15.1377604-18.4053992-15.2255159 18.3908033c-1.0064039 1.3164817-2.5676501 2.0928091-4.2268724 2.1018061-1.237574.0393233-2.4400564-.4138959-3.3425999-1.259836-.9025436-.84594-1.4311187-2.0152143-1.4693067-3.2502896v-.1751505c.0174851-1.3508526.538968-2.6466831 1.4625856-3.634373l16.4540879-19.7920073-15.5034072-18.6243373c-.9800195-1.0928069-1.5033984-2.5187024-1.4625856-3.984674.2654004-2.416976 2.2605628-4.2777916 4.6948997-4.3787627 1.7095555-.0141102 3.3294828.761861 4.3877568 2.1018061l14.3187128 17.2231332 13.9384403-17.2961126c1.020458-1.2993992 2.572853-2.0713252 4.226873-2.1018061 2.650899.015937 4.795937 2.1565774 4.811906 4.8020431-.042679 1.3457013-.560734 2.6330131-1.462585 3.634373l-15.152387 18.5075703 16.351707 19.9233702c.935542.9326685 1.461628 2.1979379 1.46295 3.517606.015247 1.2581248-.470644 2.4708992-1.351129 3.3714779s-2.083424 1.4151758-3.344135 1.4305652z" fill="#00a85d"/><g fill="#231f20"><path d="m149.593254 26.3916601 2.354763-2.349936c2.847069-3.1819253 6.88625-5.0468116 11.159528-5.1523441h2.164626c3.44592.0401522 6.76863 1.2849057 9.3898 3.5176061l8.336738 6.918445c3.293466 2.7736493 5.219642 6.8364194 5.279934 11.1366531v16.2744013c-.060292 4.3002337-1.986468 8.3630037-5.279934 11.1366531l-8.278235 6.9476368c-2.645222 2.2253517-5.988623 3.4546058-9.448303 3.4738184h-2.22313c-4.273278-.1055325-8.312459-1.9704188-11.159528-5.1523441l-2.354763-2.349936v20.6239722c0 3.400839-2.120749 5.5026451-4.928913 5.5026451-1.403007-.0264124-2.731626-.6346757-3.666823-1.6787313-.935198-1.0440556-1.392497-2.4295938-1.262091-3.8239138v-67.0096649c0-3.517606 2.12075-5.5026451 4.928914-5.5026451 1.403007.0264125 2.731626.6346758 3.666823 1.6787314.935197 1.0440555 1.392497 2.4295938 1.26209 3.8239137zm10.09184 3.867907-8.775513 8.6699502c-.933071.8862915-1.461633 2.1153169-1.462586 3.400839v12.5378571c.000953 1.2855221.529515 2.5145475 1.462586 3.400839l8.775513 8.6699501c.876502.8785569 2.050007 1.3990454 3.290818 1.4595876h2.296259c1.305395-.0796752 2.546395-.5935574 3.524832-1.4595876l8.175853-6.801678c.903651-.9064182 1.426746-2.1227328 1.462586-3.400839v-16.2889972c-.023555-1.3323172-.545209-2.6077501-1.462586-3.5759895l-8.219731-6.918445c-.996398-.7988521-2.247527-1.2133132-3.524831-1.1676701h-2.22313c-1.261591.0200868-2.460488.5524233-3.32007 1.4741834z"/><path d="m229.903828 21.005782c3.422239.0577067 6.727081 1.2546689 9.3898 3.400839l4.226872 3.400839c3.319467 2.803832 5.247701 6.9135846 5.279934 11.2534201v11.6767005c0 2.817004-2.22313 4.9188101-5.513948 4.9188101h-33.215318v2.58347c.013943 1.4117382.657276 2.7439173 1.755102 3.634373l4.226873 3.517606c.847752.7258182 1.940974 1.1016584 3.056804 1.0509031h24.191165c3.407825 0 5.513948 2.1018061 5.513948 4.91881 0 2.817004-2.237756 4.9188101-5.528574 4.9188101h-24.293546c-3.38956-.0427317-6.662159-1.2429724-9.272793-3.400839l-4.226872-3.517606c-3.320609-2.7527209-5.253071-6.8287486-5.279934-11.1366531v-19.1789805c.032233-4.3398356 1.960467-8.4495882 5.279934-11.2534201l4.226872-3.400839c2.610634-2.1578667 5.883233-3.3581073 9.272793-3.4008391zm-13.850685 10.9031191-4.226873 3.5030101c-1.097826.8904558-1.741159 2.2226348-1.755102 3.6343731v6.684911h28.886065v-6.684911c-.039243-1.4057211-.677755-2.7279182-1.755103-3.6343731l-4.226872-3.517606c-.870284-.7007727-1.940072-1.1094218-3.056804-1.16767h-10.793881c-1.124153.0438707-2.202962.4540033-3.07143 1.16767z"/><path d="m280.670174.38180978c3.407824 0 5.513948 2.10180609 5.513948 4.91881008v61.15671874h9.038779c3.407824 0 5.513947 2.1018061 5.513947 4.9188101s-2.22313 4.9042142-5.513947 4.9042142h-27.950011c-3.407824 0-5.513948-2.1018061-5.513948-4.9188101.026467-1.400131.63598-2.7260263 1.68218-3.6593067 1.0462-.9332805 2.434584-1.3896428 3.831768-1.2595033h8.921772v-56.2233129h-8.921772c-3.524831 0-5.513948-2.11640192-5.513948-4.91881004.030796-1.39864321.64158-2.72187389 1.686735-3.65422179 1.045154-.9323479 2.431027-1.39026811 3.827213-1.26458829z"/><path d="m294.512312 2.00018492c3.044264 0 5.512129 2.50130601 5.512129 5.58682334 0 3.08551734-2.467865 5.58682334-5.512129 5.58682334-1.465543.0121263-2.874537-.5725889-3.910866-1.6229617-1.03633-1.0503728-1.613228-2.47845968-1.601264-3.96386164-.011964-1.48540195.564934-2.91348884 1.601264-3.96386164 1.036329-1.05037279 2.445323-1.63508804 3.910866-1.6229617zm.792825 11.79391468c1.445029-.0133418 2.823879-.6044014 3.825877-1.6400054 1.001998-1.0356039 1.542851-2.4286328 1.500699-3.86521878 0-2.92571736-2.384789-5.29747991-5.326576-5.29747991-2.941786 0-5.326575 2.37176255-5.326575 5.29747991-.046992 1.43792412.492261 2.83371668 1.495294 3.87039138 1.003034 1.0366746 2.384722 1.6262501 3.831281 1.6348328zm-2.896918-9.40599825h5.361832c3.269409 0 4.969502 1.01818591 4.969502 3.07939152.064769.78042663-.305962 1.54551253-1.021368 2.10782271-.715407.56231022-1.709395.86989472-2.738453.84739982l4.086762 4.7680901h-2.32128l-3.694433-4.7680901h-2.321281v4.6439211h-2.15781zm1.104494 11.61189865h3.875737c3.362771 0 6.61155 0 6.61155-5.6280312 0-5.6280313-2.963798-5.16545339-5.699612-5.16545339h-4.958663z"/></g></g><g transform="translate(69 116)"><path d="m.28235757.21034319c.03252959.00054964.06394327.01195056.08925336.03239257l.04017791.03239257c.0315527.02670615.04988124.06585104.05018763.10718744v.11121913c0 .02683162-.02113163.04685106-.05241201.04685106h-.31586234v.02460724c.00013254.01344663.00624764.02613547.01668287.03461695l.04017791.03350476c.00805819.00691333.01844964.01049316.029056.01000972h.22994556c.03239257 0 .05241201.02001945.05241201.04685107 0 .02683161-.02113163.04685106-.05241201.04685106h-.23105775c-.03218508-.00032861-.06328857-.01166127-.08814116-.03211453l-.04017792-.03350476c-.03156356-.02621933-.04993229-.06504299-.05018763-.10607525v-.18295547c.00030639-.0413364.01863493-.08048129.05018763-.10718744l.04017792-.03225355c.02481499-.02055342.0559222-.03198556.08814116-.03239257zm-.13165565.10385086-.03948279.03336574c-.01043522.00848148-.01655033.02117032-.01668287.03461696v.06367295h.27373809v-.06367295c-.00037301-.01338932-.00644229-.02598309-.01668287-.03461696l-.04017791-.03350476c-.00827235-.00667478-.01844107-.01056711-.029056-.01112192h-.10273867c-.01057273.00055543-.02069698.00444937-.02891698.01112192z" fill="#231f20"/><path d="m1.18281548.10440696h-.56999806c-.0119778 0-.02168773.00970993-.02168773.02168773v.68761229c0 .0119778.00970993.02168773.02168773.02168773h.56999806c.0119778 0 .02168773-.00970993.02168773-.02168773v-.68761229c0-.0119778-.00970993-.02168773-.02168773-.02168773zm-.10329477.63158565c-.01565128-.00057349-.03029466-.00786985-.04017791-.02001944l-.14388976-.17530916-.14472389.17517013c-.00956623.01253933-.02440642.01993375-.04017791.02001945-.01176358.00037455-.0231936-.00394231-.0317726-.01199978-.00857899-.00805748-.01360328-.01919467-.01396627-.03095861v-.00166829c.0001662-.0128667.00512308-.02520933.01390239-.03461695l.1564019-.18851643-.14736535-.17739452c-.00931543-.01040885-.01429033-.02399033-.01390239-.03795353.00252273-.0230214.02148745-.04074544.04462668-.04170718.01624993-.00013439.03164791.00725664.04170717.02001945l.13610442.16404822.13248979-.16474334c.00969981-.01237662.02445587-.01972912.04017791-.02001944.02519774.00015179.04558707.02054113.04573887.04573886-.00040569.01281764-.00532998.02507913-.01390239.03461696l-.14402878.17628232.15542874.18976765c.00889265.00888355.01389329.02093509.01390586.03350476.00014493.01198349-.00447364.02353501-.01284296.03211292-.00836932.0085779-.01980368.01347937-.03178719.01362595z" fill="#00a85d"/><g fill="#231f20"><path d="m1.42193661.26164301.02238285-.02238285c.0270624-.03030745.06545624-.04807026.10607525-.04907544h.02057554c.03275468.00038244.06433821.01223857.08925335.03350476l.07924364.06589734c.03130556.02641866.04961454.06511605.05018763.10607525v.15501166c-.00057309.0409592-.01888207.07965658-.05018763.10607525l-.07868754.06617538c-.02514377.0211962-.05692397.0329047-.08980945.0330877h-.02113163c-.04061902-.00100519-.07901286-.018768-.10607525-.04907545l-.02238285-.02238285v.1964408c0 .03239257-.02015847.05241201-.04685106.05241201-.01333608-.00025157-.02596507-.00604521-.03485445-.01598971s-.01323617-.02314158-.01199661-.0364223v-.6382588c0-.03350477.02015847-.05241202.04685106-.05241202.01333607.00025158.02596506.00604521.03485444.01598971s.01323618.02314158.01199662.03642231zm.0959265.03684134-.08341434.0825802c-.00886917.00844182-.0139024.02014814-.0139024.03239258v.11942154c0 .01224444.00503323.02395076.0139024.03239257l.08341434.08258021c.00833147.00836815.01948604.01332573.03128039.01390239h.02182675c.01240824-.0007589.02420438-.00565356.03350476-.01390239l.07771437-.06478515c.00858952-.00863352.01356173-.02021877.0139024-.03239257v-.15515069c-.0002239-.01269016-.0051824-.0248385-.0139024-.03406086l-.07813144-.06589733c-.00947111-.00760897-.02136353-.01155666-.03350476-.01112192h-.02113164c-.01199186.00019133-.0233878.00526177-.03155843.01404142z"/><path d="m2.18531694.21034319c.03252958.00054964.06394327.01195056.08925335.03239257l.04017791.03239257c.0315527.02670615.04988124.06585104.05018764.10718744v.11121913c0 .02683162-.02113164.04685106-.05241202.04685106h-.31572331v.02460724c.00013253.01344663.00624764.02613547.01668287.03461695l.04017791.03350476c.00805819.00691333.01844964.01049316.029056.01000972h.22994555c.03239258 0 .05241202.02001945.05241202.04685107 0 .02683161-.02127066.04685106-.05255104.04685106h-.23091873c-.03221895-.00040702-.06332616-.01183916-.08814116-.03239258l-.04017791-.03350476c-.03156356-.02621933-.04993229-.06504299-.05018763-.10607525v-.18267742c.00030639-.0413364.01863493-.08048129.05018763-.10718744l.04017791-.03239258c.024815-.02055341.05592221-.03198555.08814116-.03239257zm-.13165565.10385086-.04017791.03336574c-.01043523.00848148-.01655034.02117032-.01668287.03461696v.06367295h.27457223v-.06367295c-.00037301-.01338932-.0064423-.02598309-.01668287-.03461696l-.04017791-.03350476c-.00827236-.00667478-.01844107-.01056711-.029056-.01112192h-.10259965c-.01068547.00041787-.02093993.00432433-.02919502.01112192z"/><path d="m2.66786895.01390239c.03239257 0 .05241201.02001945.05241201.04685106v.58251021h.08591678c.03239258 0 .05241202.02001944.05241202.04685106s-.02113163.04671204-.05241202.04671204h-.2656747c-.03239257 0-.05241202-.02001945-.05241202-.04685106.00025158-.01333608.00604521-.02596507.01598971-.03485445s.02314159-.01323618.03642231-.01199662h.08480459v-.53552012h-.08480459c-.03350476 0-.05241202-.02015847-.05241202-.04685106.00029273-.0133219.00609844-.02592551.01603301-.03480601.00993456-.0088805.02310777-.01324213.03637901-.01204505z"/><path d="m2.8082831.01960066c.02856246 0 .0517169.02315616.0517169.05171861s-.02315444.0517169-.0517169.0517169c-.01375028.00011225-.02696999-.00530043-.03669323-.01502367s-.01513592-.02294295-.01502538-.03669323c-.00011054-.01375028.00530214-.02697.01502538-.03669324s.02294295-.01513591.03669323-.01502537zm.0074386.10917729c.01355781-.0001235.0264947-.00559491.03589583-.01518143.00940112-.00958653.01447562-.02248172.01408013-.03578011 0-.02708319-.022375-.04903846-.04997596-.04903846s-.04997596.02195527-.04997596.04903846c-.0004409.01331078.00461857.02623155.01402942.03582799.00941084.00959644.02237437.0150541.03594654.01513355zm-.02717999-.08707078h.05030675c.03067484 0 .04662576.00942529.04662576.02850575.00060769.00722437-.00287065.01430672-.00958287.01951199-.00671221.00520528-.01603819.00805257-.0256932.00784433l.03834356.04413794h-.02177914l-.03466258-.04413794h-.02177914v.04298851h-.0202454zm.01036278.10749067h.03636364c.0315508 0 .06203208 0 .06203208-.05209835 0-.05209836-.02780748-.0478163-.05347593-.0478163h-.04652407z"/></g></g></g></svg>