<svg height="140" viewBox="0 0 400 140" width="400" xmlns="http://www.w3.org/2000/svg"><g fill="none" transform="translate(99.926829 15)"><path d="m68.3441655 16.8155127h-63.66779894v-11.80313688h63.66779894zm4.5483178-16.350878h-72.76443451v20.8963125h72.76443451z" fill="#00b188"/><g fill="#231f20"><path d="m4.66892748 0h-4.54831777v20.8963125h4.54831777v-8.2576114h8.12642382v8.2576114h4.5483178v-20.8963125h-4.5483178v8.65982403h-8.12642382z" transform="matrix(1 0 0 -1 .007439 55.897889)"/><path d="m4.32486634 9.5425743h5.4176159c-.10091355 1.5367692-.73522728 2.6078944-2.50842248 2.6078944-1.33782532 0-2.50842247-.5694407-2.90919342-2.6078944zm3.44403523-9.49596486c-4.61463239 0-7.75736859 2.90919343-7.75736859 7.68817073 0 4.64923133 3.07642159 7.85828213 7.15621216 7.85828213 4.44740426 0 6.65452766-2.975508 6.65452766-7.42291225v-1.67228165h-9.49740646c.53628342-2.30515376 2.34119431-2.90631018 4.14754682-2.90631018 1.57136814 0 2.70736634.33301471 4.11150624 1.20375446h.1686698v-3.44403522c-1.2037545-.87073976-2.91063504-1.30466802-4.98368763-1.30466802" transform="matrix(1 0 0 -1 19.914312 56.278954)"/><path d="m10.9841964 8.99379381-2.3411943-8.75929595h-3.97887703l-4.54831776 14.71175364v.1672282h4.34793229l2.47382354-8.79389491 2.34119431 8.79389491h3.54494875l2.3743516-8.79389491 2.5084225 8.79389491h4.1807042v-.1672282l-4.5483178-14.71175364h-3.9803187z" transform="matrix(1 0 0 -1 34.622705 56.132386)"/><path d="m5.21770796 0c-3.61126339 0-5.08315957 1.43729725-5.08315957 4.81357623v16.41575097h4.41424691v-16.11445194c0-1.0365263.40077095-1.40413994 1.27006908-1.40413994.30129903 0 .7366689.09947192 1.00336899.20038547h.06775624v-3.6444207c-.36761363-.13262923-1.00336899-.26670009-1.67228165-.26670009" transform="matrix(1 0 0 -1 58.680495 56.232345)"/><path d="m4.32486634 9.5425743h5.4176159c-.10091355 1.5367692-.73522728 2.6078944-2.50842248 2.6078944-1.3363837 0-2.50842247-.5694407-2.90919342-2.6078944zm3.44403523-9.49596486c-4.61463239 0-7.75736859 2.90919343-7.75736859 7.68817073 0 4.64923133 3.07642159 7.85828213 7.15621216 7.85828213 4.44740426 0 6.65452766-2.975508 6.65452766-7.42291225v-1.67228165h-9.49740646c.5348418-2.30515376 2.34119431-2.90631018 4.14610519-2.90631018 1.57280977 0 2.70880797.33301471 4.11438947 1.20375446h.1672282v-3.44403522c-1.2037545-.87073976-2.90919341-1.30466802-4.98368763-1.30466802" transform="matrix(1 0 0 -1 66.797305 56.278954)"/><path d="m17.2994654 15.3090628h3.276807v-3.5435072h-3.276807v-6.05192963c0-1.30466801.5016844-1.90726606 1.8395098-1.90726606.3676136 0 .8361408.03459894 1.3378253.2018271h.0994719v-3.47719253c-.5679991-.2018271-1.4372972-.43392826-2.7073663-.43392826-3.5795477 0-4.9836877 1.63768272-4.9836877 5.41617428v6.2523151h-5.65115864v-6.05192963c0-1.30466801.5016845-1.90726606 1.8380682-1.90726606.36905526 0 .83758244.03459894 1.33926694.2018271h.0994719v-3.47719253c-.56799909-.2018271-1.43873884-.43392826-2.7073663-.43392826-3.57954771 0-4.98368765 1.63768272-4.98368765 5.41617428v6.2523151h-2.27487969v3.5435072h2.27487969v4.0783489h4.41424691v-4.0783489h5.65115864v4.0783489h4.414247z" transform="matrix(1 0 0 -1 81.444186 56.327968)"/><path d="m7.5521717 10.9841964c2.30947863 0 3.4108779 1.3032264 3.4108779 3.1758935 0 1.9404234-1.10139927 3.2436498-3.4108779 3.2436498h-2.87603611v-6.4195433zm8.0269519 3.1758935c0-4.54831774-3.0432643-7.02069966-7.65933826-7.02069966h-3.24364975v-6.78715691h-4.54543453v20.89631257h7.78908428c4.61607396 0 7.65933826-2.4738236 7.65933826-7.088456" transform="matrix(1 0 0 -1 109.341502 56.250122)"/><path d="m9.5425743 5.21770796v1.27006908c-.66891266.36617202-1.53676917.50024288-2.44066624.50024288-1.43729724 0-2.30659538-.53340018-2.30659538-1.73715465 0-1.23835339.86929814-1.7731952 2.17252453-1.7731952 1.23691177 0 2.17396614.63575535 2.57473709 1.74003789zm.13407086-3.21049244c-.97021168-1.17059716-2.40606731-1.73859627-3.94716135-1.73859627-2.9077518 0-5.28354504 1.77031195-5.28354504 4.9159314 0 2.90775181 2.37579324 4.84673355 5.78522954 4.84673355 1.06968361 0 2.17540777-.16722817 3.31140599-.50024288v.26525847c0 1.60596701-.90245544 2.30659541-3.27536544 2.30659541-1.50649511 0-2.94379235-.4324867-4.18214575-1.1359983h-.16578654v3.5449488c1.13599822.6674711 3.14417783 1.2369118 5.11487526 1.2369118 4.48200317 0 6.92266937-2.1393672 6.92266937-5.88470147v-9.32729507h-4.28017604z" transform="matrix(1 0 0 -1 125.074401 56.434649)"/><path d="m0 8.10095219c0 4.78186051 3.37916223 7.79052591 7.79340914 7.79052591 1.5713681 0 3.04182266-.3344563 4.14610516-1.1359982v-3.7784916h-.1686697c-.9702117.7352273-2.10620996 1.1705972-3.40943635 1.1705972-2.20712345 0-3.8794051-1.5064951-3.8794051-4.04663331 0-2.54013816 1.67228165-4.01203434 3.8794051-4.01203434 1.30322639 0 2.43922465.43536988 3.40943635 1.17203878h.1686697v-3.77849156c-1.1042825-.80298352-2.57473706-1.13743985-4.14610516-1.13743985-4.41424691 0-7.79340914 2.97406642-7.79340914 7.75592697" transform="matrix(1 0 0 -1 141.271503 56.57737)"/><path d="m4.66892748 7.20811056v-6.75255797h-4.41280529v20.89631251h4.41280529v-11.90203215l4.44884584 5.88470145h5.01540328v-.1672282l-5.34985962-6.75399955 5.34985962-7.7905259v-.16722816h-5.05000222z" transform="matrix(1 0 0 -1 155.730018 56.35344)"/><path d="m9.5425743 5.21770796v1.27006908c-.66747104.36617202-1.53821079.50024288-2.44066624.50024288-1.43729724 0-2.30659538-.53340018-2.30659538-1.73715465 0-1.23835339.86929814-1.7731952 2.17108291-1.7731952 1.23979501 0 2.17540776.63575535 2.57617871 1.74003789zm.13407086-3.21049244c-.97021168-1.17059716-2.40895055-1.73859627-3.94571972-1.73859627-2.91063505 0-5.28354505 1.77031195-5.28354505 4.9159314 0 2.90775181 2.37291 4.84673355 5.78667116 4.84673355 1.06968361 0 2.1710829-.16722817 3.30852275-.50024288v.26525847c0 1.60596701-.90245544 2.30659541-3.27680706 2.30659541-1.50361186 0-2.94379236-.4324867-4.18070413-1.1359983h-.16722816v3.5449488c1.13743984.6674711 3.14417782 1.2369118 5.11631688 1.2369118 4.48344477 0 6.92411097-2.1393672 6.92411097-5.88470147v-9.32729507h-4.28161764z" transform="matrix(1 0 0 -1 170.218798 56.434649)"/><path d="m4.32486634 12.974599c.80154189 1.6391244 1.97358067 2.5747371 3.61270501 2.5747371.60115642 0 1.20231284-.1340708 1.434414-.2681417v-4.2124198h-.16578654c-.50168449.2018271-1.10284091.3344563-1.93898174.3344563-1.37098263 0-2.44066624-.8029835-2.8097215-2.33975268v-8.5603521h-4.41280528v14.87898178h4.28017605z" transform="matrix(1 0 0 -1 187.275107 56.401014)"/><path d="m10.9841964 5.76648845v4.78186055c-.7352273 1.0696836-1.70399732 1.5367692-2.80972148 1.5367692-1.93754012 0-3.24220814-1.4055816-3.24220814-3.94571975 0-2.54013816 1.30466802-3.91112079 3.24220814-3.91112079 1.10572416 0 2.07449418.46852718 2.80972148 1.53821079zm.1326292-3.51179147c-.9356127-1.20375446-2.40750888-1.8712255-4.41280524-1.8712255-3.81309049 0-6.25375672 3.47575092-6.25375672 7.75592697s2.44066623 7.79052585 6.25375672 7.79052585c1.93898174 0 3.34312164-.602598 4.28017604-1.7054389v7.3883133h4.4142469v-20.89487089h-4.2816177z" transform="matrix(1 0 0 -1 197.368867 56.615816)"/><path d="m0 21.0755512h12.9082844v-2.5401382h-9.99909098v-6.3849443h9.06203658v-2.47526516h-9.06203658v-6.95438508h9.99909098v-2.54013816h-12.9082844z" transform="matrix(1 0 0 -1 .128049 83.798079)"/><path d="m7.20811056 15.3090628c3.30996434 0 5.14947424-2.1739662 5.14947424-5.74918903v-9.26242208h-2.77512262v9.19466584c0 1.90582447-.97021168 3.27680707-3.07642159 3.27680707-1.73859626 0-3.21049244-1.1042825-3.71217694-2.674209v-9.79726391h-2.77512256v14.71031201h2.77512256v-2.1393672c.86929814 1.3709826 2.34119432 2.4406663 4.41424691 2.4406663" transform="matrix(1 0 0 -1 16.494785 83.91485)"/><path d="m5.76648845 15.3090628h3.77849156v-2.3743517h-3.77849156v-7.9231551c0-1.67084003.86929813-2.24028076 2.44066624-2.24028076.43392825 0 .90245544.06631461 1.23691177.20038547h.10091355v-2.37291c-.40077095-.16722816-.97021168-.30129902-1.73859627-.30129902-3.44547685 0-4.81501786 1.57280973-4.81501786 4.4459626v8.19129681h-2.54157978v2.3743517h2.54157978v3.9096791h2.77512257z" transform="matrix(1 0 0 -1 30.544834 84.216149)"/><path d="m2.88324423 9.5425743h7.32344037c-.099472 2.1725245-1.1705972 3.8433646-3.44403527 3.8433646-2.10620991 0-3.47863416-1.5713681-3.8794051-3.8433646zm4.3810896-9.09519391c-4.31477499 0-7.25712572 2.87603612-7.25712572 7.48922688 0 4.61463243 2.74196526 7.82368323 6.72228391 7.82368323 4.04663328 0 6.15284318-2.9091935 6.15284318-7.22108519v-1.2715107h-10.10000452c.30129902-2.97550804 2.20856507-4.41280529 4.84961678-4.41280529 1.63912435 0 2.80827984.36761364 4.11294794 1.33782532h.1009135v-2.44210786c-1.2037545-.93561275-2.77656419-1.30322639-4.58147507-1.30322639" transform="matrix(1 0 0 -1 41.854359 84.366079)"/><path d="m2.88324423 12.974599c.63575535 1.5713681 2.04133691 2.5069809 3.6444207 2.5069809.63719697 0 1.20519608-.099472 1.43873886-.2335428v-2.7405237h-.09947192c-.40221257.1989439-1.07112523.2998574-1.74003789.2998574-1.50361186 0-2.77512257-1.0019273-3.24364975-2.674209v-9.59543675h-2.77512257v14.71031205h2.77512257z" transform="matrix(1 0 0 -1 57.90538 84.155123)"/><path d="m6.65933008 8.10095219c2.74196525 0 4.34793232 2.17252451 4.34793232 5.14947421 0 2.9409091-1.60596707 5.1465909-4.34793232 5.1465909-1.50505349 0-2.90919343-.9024554-3.64442071-2.338311v-5.6526004c.73522728-1.43585558 2.13936722-2.30515371 3.64442071-2.30515371zm.46852718 12.80448761c4.37964794 0 6.72084234-3.5781061 6.72084234-7.6550134 0-4.08123223-2.3411944-7.65789669-6.72084234-7.65789669-1.8063525 0-3.3445633.93561275-4.11294789 1.94042337v-7.29028303h-2.77656418v20.36147075h2.77656418v-1.6708401c.76838459 1.0365263 2.30659539 1.9721391 4.11294789 1.9721391" transform="matrix(1 0 0 -1 68.173577 89.511226)"/><path d="m2.88324423 12.974599c.63431373 1.5713681 2.03989528 2.5069809 3.6444207 2.5069809.63575535 0 1.20375446-.099472 1.43729724-.2335428v-2.7405237h-.09947192c-.40077095.1989439-1.06968361.2998574-1.73859627.2998574-1.50505349 0-2.77512257-1.0019273-3.24364975-2.674209v-9.59543675h-2.77512257v14.71031205h2.77512257z" transform="matrix(1 0 0 -1 85.192403 84.155123)"/><path d="m1.78568325 3.77608585c.97021168 0 1.77175358-.76838459 1.77175358-1.73859627s-.8015419-1.73859627-1.77175358-1.73859627c-.93561275 0-1.7731952.76838459-1.7731952 1.73859627s.83758245 1.73859627 1.7731952 1.73859627" transform="matrix(1 0 0 -1 95.385158 66.732156)"/><path d="m95.7998587 83.6173982h2.7765642v-14.7103121h-2.7765642z"/><path d="m6.65933008 8.99379381c2.1062099-.66747103 4.44596262-1.53676917 4.44596262-4.34504904 0-3.01010698-2.47382357-4.54831777-5.64971709-4.54831777-1.94042336 0-3.8794051.46852719-4.98368764 1.33782532v2.64105171h.13407085c1.2383534-1.13599822 3.07642159-1.63768272 4.81501786-1.63768272 1.5713681 0 2.97694966.60259804 2.97694966 1.87266713 0 1.30322639-1.16915553 1.60452541-3.47863415 2.37290999-2.0730526.66891266-4.37964798 1.43873887-4.37964798 4.21241977 0 2.8428789 2.33975269 4.5137189 5.31670235 4.5137189 1.73859627 0 3.27680706-.3676137 4.51371884-1.2037545v-2.6756506h-.0994719c-1.20231287.9702117-2.60933606 1.5396524-4.34793232 1.5396524-1.73859627 0-2.70880795-.7698262-2.70880795-1.8063525 0-1.1705972 1.0696836-1.50361188 3.44547685-2.27343809" transform="matrix(1 0 0 -1 101.81527 84.019124)"/><path d="m2.88324423 9.5425743h7.32199867c-.0994719 2.1725245-1.1691555 3.8433646-3.44403519 3.8433646-2.10620991 0-3.47719254-1.5713681-3.87796348-3.8433646zm4.37964797-9.09519391c-4.31333336 0-7.25568409 2.87603612-7.25568409 7.48922688 0 4.61463243 2.74196526 7.82368323 6.72084229 7.82368323 4.0480749 0 6.1528432-2.9091935 6.1528432-7.22108519v-1.2715107h-10.09856292c.30129902-2.97550804 2.20712345-4.41280529 4.84817516-4.41280529 1.64056597 0 2.80972146.36761364 4.11294786 1.33782532h.1009136v-2.44210786c-1.2023129-.93561275-2.77512259-1.30322639-4.5814751-1.30322639" transform="matrix(1 0 0 -1 115.322305 84.366079)"/></g></g></svg>