<?xml version="1.0" encoding="UTF-8"?>
<svg width="400px" height="140px" viewBox="0 0 400 140" version="1.1" xmlns="http://www.w3.org/2000/svg" xmlns:xlink="http://www.w3.org/1999/xlink">
    <title>Artboard</title>
    <g id="Artboard" stroke="none" stroke-width="1" fill="none" fill-rule="evenodd">
        <g id="Vivint" transform="translate(25.000000, 30.000000)" fill="#F4811F" fill-rule="nonzero">
            <path d="M35.1164583,76.885 C25.237,76.885 15.3575417,76.88875 5.47808333,76.8779167 C4.60795833,76.8766667 3.73072083,76.8375 2.87013333,76.7220833 C1.24061667,76.5041667 0.332422083,75.5566667 0.16221,73.9379167 C0.0705570833,73.0725 0.008661625,72.19875 0.00747133333,71.32875 C-0.002051025,59.9016667 -0.002051025,48.475 0.00509075,37.0481667 C0.00628104167,36.0578333 0.12174,35.065125 0.0991241667,34.076 C0.0562733333,32.0941667 1.00017917,30.599125 2.37377917,29.318375 C6.56958333,25.4046667 10.790375,21.5171667 14.9837917,17.5999167 C19.6902083,13.20175 24.3728333,8.778625 29.0757083,4.37691667 C30.313625,3.21875 31.5765,2.08796667 32.840625,0.958375 C34.263,-0.31286 35.9925,-0.321192083 37.3970833,0.9845625 C43.41875,6.57658333 49.42125,12.19 55.4395833,17.7855833 C59.4366667,21.5017083 63.4658333,25.1832917 67.4425,28.9208333 C68.2066667,29.6385833 68.8695833,30.494375 69.4445833,31.3740417 C70.2825,32.6559583 70.2158333,34.178375 70.2395833,35.6281667 C70.2958333,39.0395417 70.26,42.4520833 70.26,45.8645833 C70.26,54.23625 70.2683333,62.6075 70.2504167,70.98 C70.2479167,72.0454167 70.1470833,73.1129167 70.0254167,74.1733333 C69.8708333,75.5291667 68.96625,76.485 67.5983333,76.6933333 C66.7008333,76.8304167 65.7833333,76.8779167 64.87375,76.8791667 C54.95375,76.8895833 45.035,76.885 35.1164583,76.885 Z M35.242625,61.6633333 C41.1929167,61.6633333 47.1433333,61.6670833 53.0933333,61.6625 C55.2204167,61.66125 55.2216667,61.6516667 55.2229167,59.5970833 C55.2229167,52.8933333 55.2108333,46.1895833 55.2371244,39.4859167 C55.2408333,38.624125 54.9883333,38.0147083 54.3458333,37.42075 C48.2383333,31.781125 42.1595833,26.1093333 36.07225,20.4470833 C35.19025,19.627 35.026,19.63175 34.130875,20.4709167 C28.35675,25.884375 22.6016667,31.3180833 16.7918333,36.6910833 C15.66225,37.7361667 15.1444583,38.8276667 15.1635,40.3952917 C15.240875,46.7408333 15.1956667,53.08875 15.1956667,59.4354167 C15.1956667,59.7529167 15.1897083,60.0708333 15.2147083,60.38625 C15.2896667,61.3375 15.5134583,61.5716667 16.4407083,61.6420833 C16.8751667,61.6754167 17.3132083,61.6625 17.7488333,61.6625 C23.5800833,61.6649624 29.411375,61.6649624 35.242625,61.6633333 Z" id="Shape"></path>
            <path d="M275.407083,27.60875 C275.7925,27.1290417 276.16375,26.6374583 276.56375,26.1696667 C278.275417,24.1699583 280.496667,22.9725417 282.910417,22.0179167 C286.415833,20.633625 290.075,20.6026667 293.675417,21.046625 C298.22125,21.60725 302.180417,23.626 305.088333,27.2825833 C306.430833,28.971625 307.429583,30.8975417 308.155417,32.9627083 C309.347083,36.3526667 309.88875,39.8211667 309.875657,43.4133333 C309.83875,53.8879167 309.8625,64.3629167 309.8625,74.8375 C309.8625,74.9958333 309.86375,75.155 309.86125,75.3133333 C309.845833,76.7525 309.773333,76.8608333 308.298333,76.8679167 C304.290833,76.8883333 300.284167,76.8883333 296.27625,76.8704167 C294.7375,76.8645833 294.6325,76.72875 294.6325,75.1241667 C294.630417,65.5625 294.6325,55.9995833 294.629167,46.4379167 C294.629167,45.3275 294.688333,44.20625 294.56,43.1075 C294.226667,40.2747083 293.249583,37.76675 290.816667,36.0003333 C289.72625,35.2075833 288.47625,34.8112083 287.2325,34.6172083 C284.44125,34.1815417 281.705833,34.4362917 279.305,36.1634167 C277.873333,37.193 276.829167,38.521375 276.106667,40.1485 C275.150833,42.2970833 274.97125,44.5275 274.983333,46.84375 C275.030833,56.1675 275.003333,65.4925 275.003333,74.8158333 C275.003333,75.13375 274.975833,75.4529167 275.005833,75.7683333 C275.082083,76.5583333 274.655833,76.8345833 273.95,76.85 C273.632083,76.8570833 273.315417,76.87875 272.99875,76.87875 C269.269583,76.88125 265.539167,76.88125 261.81,76.87875 C261.49375,76.87875 261.175833,76.8608333 260.859167,76.8525 C260.14,76.8333333 259.752083,76.5025 259.787917,75.7454167 C259.804583,75.3895833 259.782917,75.03125 259.782917,74.6741667 C259.782917,57.8516667 259.782917,41.0281667 259.782083,24.2056667 C259.782083,21.7715417 259.805833,22.1095833 261.9375,22.098875 C265.746667,22.081 269.555417,22.0893333 273.364167,22.0964583 C274.980833,22.1000417 274.99625,22.1226667 275.000833,23.783125 C275.005833,24.9662917 275.002083,26.14825 275.002083,27.3314167 C275.137917,27.4254583 275.2725,27.5170833 275.407083,27.60875 Z" id="Path"></path>
            <path d="M121.2525,58.1525 C122.336667,55.1958333 123.334167,52.5629167 124.2675,49.9075 C125.098333,47.5420833 125.826667,45.1425 126.6575,42.7775 C127.485833,40.417125 128.407083,38.088875 129.245,35.7297083 C129.910417,33.8562083 130.484167,31.9517083 131.145,30.077 C131.782917,28.270125 132.479167,26.4847083 133.154167,24.692125 C133.38875,24.0707917 133.701667,23.4696667 133.86,22.8305 C134.029167,22.1508333 134.4825,22.1008333 135.021667,22.1008333 C135.97375,22.1008333 136.92625,22.0960833 137.877083,22.0960833 C141.368333,22.0947196 144.858333,22.0947196 148.349583,22.09725 C148.706667,22.09725 149.065833,22.0841667 149.419583,22.1175 C150.15375,22.1865417 150.289583,22.3745833 150.046667,23.0137917 C149.501667,24.442125 148.940833,25.863375 148.379167,27.2845833 C147.5425,29.3985417 146.703333,31.5113333 145.857083,33.6229167 C144.982083,35.8070833 144.088333,37.9841667 143.221667,40.1719167 C142.38375,42.2883333 141.58125,44.42 140.744583,46.5375 C139.706667,49.1633333 138.639167,51.77625 137.604583,54.4029167 C136.77375,56.5133333 135.98,58.6391667 135.155,60.7533333 C134.3575,62.7983333 133.543333,64.8370833 132.73625,66.8775 C132.047083,68.62 131.356667,70.3625 130.664167,72.1041667 C130.100833,73.5191667 129.5475,74.9379167 128.95,76.3391667 C128.862083,76.545 128.570417,76.7295833 128.337083,76.79375 C128,76.8854167 127.63,76.8770833 127.274167,76.8783333 C123.307917,76.8829167 119.340833,76.89 115.374583,76.8758333 C113.74875,76.87 113.683333,76.7558333 113.090417,75.2116667 C112.264583,73.05875 111.363333,70.93375 110.514583,68.7891667 C109.667083,66.6466667 108.86,64.4870833 108.010417,62.3458333 C107.015,59.8379167 105.989167,57.3420833 104.985833,54.8375 C104.142917,52.7354167 103.315833,50.6275 102.48,48.5229167 C101.830417,46.88625 101.176667,45.2508333 100.527083,43.6141667 C99.6758333,41.4693333 98.8258333,39.32325 97.97625,37.177125 C97.1679167,35.1345833 96.3633333,33.0908333 95.5491667,31.0506667 C94.6766667,28.8676667 93.7920833,26.68825 92.9183333,24.5064167 C92.71375,23.9969583 92.4875,23.4910833 92.34375,22.9637917 C92.2033333,22.4495833 92.41125,22.1139167 93.0008333,22.11275 C93.3579167,22.11275 93.715,22.0984583 94.0708333,22.0984583 C98.19625,22.09725 102.320833,22.09725 106.44625,22.09725 C108.644583,22.09725 108.605417,22.110375 109.272083,24.1576667 C109.9625,26.2811667 110.75375,28.370125 111.474167,30.4840833 C112.28125,32.8527917 113.029583,35.2405 113.853333,37.6020833 C114.69125,40.0076667 115.607917,42.3858333 116.455417,44.7891667 C117.107917,46.6375 117.697917,48.50875 118.329167,50.3654167 C118.7575,51.6275 119.20625,52.8808333 119.649167,54.1375 C119.947917,54.985 120.238333,55.83625 120.559583,56.6754167 C120.725,57.1025 120.94875,57.5075 121.2525,58.1525 Z" id="Path"></path>
            <path d="M203.00125,57.9404167 C203.3725,57.0191667 203.77,56.10625 204.110417,55.1733333 C204.6475,53.7033333 205.154583,52.22125 205.657917,50.7391667 C206.2875,48.88375 206.881667,47.01625 207.527917,45.1675 C208.004167,43.8070833 208.55875,42.47375 209.044583,41.11575 C209.492083,39.862375 209.8825,38.58875 210.317917,37.330625 C210.805,35.92725 211.32375,34.534625 211.812917,33.1324167 C212.25,31.8814167 212.654583,30.6185417 213.09375,29.3675417 C213.781667,27.4106667 214.66,25.50025 215.126667,23.4922083 C215.4625,22.046 216.269583,22.0829167 217.343333,22.088875 C221.74625,22.113875 226.15,22.0948333 230.552917,22.1031667 C231.88875,22.1055417 232.076667,22.4637917 231.576667,23.668375 C230.66125,25.876375 229.810417,28.11175 228.924583,30.332875 C228.125,32.3397083 227.312917,34.3429583 226.507083,36.348625 C225.645417,38.4947083 224.787083,40.642 223.919583,42.7858333 C223.051667,44.9308333 222.16375,47.06625 221.303333,49.2133333 C220.4725,51.2891667 219.67375,53.3795833 218.8475,55.4575 C217.790833,58.1154167 216.70625,60.7616667 215.6575,63.4229167 C214.826667,65.5325 214.04375,67.6604167 213.22,69.7720833 C212.436667,71.7791667 211.65125,73.7858333 210.821667,75.77375 C210.521667,76.4925 210.015833,76.9079167 209.10375,76.8970833 C205.01875,76.84625 200.93,76.8066667 196.8475,76.9091667 C195.2975,76.9483333 195.07875,75.8795833 194.68,74.9058333 C193.345417,71.6516667 192.0375,68.3866667 190.747083,65.1145833 C189.728333,62.5304167 188.7725,59.92125 187.74625,57.3395833 C186.734583,54.7970833 185.650417,52.2829167 184.63625,49.7408333 C183.795833,47.635 183.027083,45.5008333 182.198333,43.3904167 C181.584167,41.8241667 180.912917,40.2801667 180.291667,38.716125 C179.4225,36.533125 178.584583,34.337 177.718333,32.1528333 C177.08375,30.5506667 176.422083,28.9580833 175.779167,27.3582917 C175.180417,25.866875 174.582917,24.37425 174.005833,22.87325 C173.852083,22.4733333 173.9725,22.1614583 174.465,22.1293333 C174.781667,22.1090833 175.099583,22.10075 175.41625,22.10075 C179.779583,22.0995833 184.143333,22.0972083 188.507083,22.10075 C190.075833,22.1019583 190.209167,22.2471667 190.727083,23.7850417 C191.41375,25.8252083 192.174167,27.840375 192.875417,29.8745833 C193.525417,31.7600417 194.110833,33.6680833 194.775,35.54875 C195.612083,37.913875 196.51875,40.2539583 197.360417,42.6166667 C198.01875,44.4654167 198.604167,46.34 199.256667,48.1920833 C200.076667,50.5216667 200.935,52.8391667 201.771667,55.16375 C202.090833,56.0491667 202.394167,56.9420833 202.705,57.83125 C202.805,57.8666667 202.90375,57.90375 203.00125,57.9404167 Z" id="Path"></path>
            <path d="M321.537083,50.5275 C321.537083,46.5604167 321.540833,42.5929167 321.535,38.6257917 C321.53375,37.318875 321.515833,37.298625 320.202917,37.2926667 C318.02125,37.2819583 315.839167,37.298625 313.6575,37.2831667 C312.589583,37.276 312.5125,37.2057917 312.51,36.1178333 C312.497083,31.87325 312.497083,27.6286667 312.50875,23.382875 C312.5125,22.23425 312.645833,22.1128333 313.842917,22.102125 C315.985833,22.08425 318.128333,22.1045 320.269583,22.086625 C321.50375,22.077125 321.53125,22.0414167 321.53375,20.79875 C321.539583,16.435125 321.53375,12.0715 321.538333,7.70666667 C321.539583,6.277125 321.546667,6.26758333 322.9975,6.26520833 C326.965,6.26045833 330.932083,6.25925 334.899583,6.26520833 C336.369583,6.26758333 336.451667,6.34258333 336.455,7.817375 C336.465833,11.784625 336.46,15.751875 336.46125,19.719125 C336.46125,20.07625 336.450417,20.4345 336.469583,20.7904167 C336.53,21.9140417 336.688333,22.0795 337.837083,22.086625 C340.336667,22.1009167 342.835,22.0925833 345.334583,22.0937917 C346.167917,22.0937917 347.00125,22.0925833 347.834583,22.0937917 C349.955417,22.0973333 349.99375,22.1295 349.997083,24.3125 C350.002917,27.6453333 349.999583,30.9769583 349.998333,34.3097917 C349.998333,34.8252083 350.007917,35.3417917 349.984167,35.8571667 C349.923333,37.1522083 349.795,37.2831667 348.51625,37.2855417 C345.025417,37.2926667 341.534167,37.2855417 338.042917,37.2902917 C336.620417,37.2926667 336.468333,37.426 336.465833,38.8555417 C336.45625,44.8854167 336.442083,50.9154167 336.4825,56.9458333 C336.490833,58.2075 336.627917,59.4883333 336.877917,60.725 C337.160833,62.1283333 338.155,63.015 339.453333,63.5754167 C340.609167,64.0741667 341.825833,64.1433333 343.057917,64.13375 C344.2875,64.1241667 345.519167,64.1529167 346.746667,64.08375 C347.408333,64.0458333 348.060417,63.83875 348.71625,63.7054167 C349.556667,63.535 349.809167,63.6933333 349.94375,64.5254167 C349.99375,64.83625 349.994583,65.1575 349.994583,65.4754167 C349.998333,68.2520833 350.005417,71.0291667 349.9925,73.80625 C349.985417,75.4345833 349.879167,75.57125 348.340417,76.1033333 C346.43125,76.7641667 344.479167,77.2070833 342.444583,77.2558333 C341.935417,77.2675 341.430417,77.4508333 340.92125,77.4629167 C339.662917,77.49125 338.40375,77.4841667 337.145417,77.4533333 C336.675417,77.44125 336.21,77.2841667 335.739583,77.2558333 C332.779583,77.0783333 330.199167,75.975 327.794583,74.2658333 C325.500833,72.63375 323.883333,70.4854167 322.916667,67.9283333 C322.241667,66.1420833 321.73125,64.2016667 321.638333,62.3066667 C321.445417,58.3895833 321.58,54.4554167 321.58,50.5275 C321.567083,50.5275 321.551667,50.5275 321.537083,50.5275 Z" id="Path"></path>
            <path d="M251.325833,49.4483333 C251.325833,57.81875 251.325833,66.19 251.325,74.56 C251.325,74.9958333 251.32,75.4325 251.3,75.8683333 C251.275833,76.38375 250.977083,76.6645833 250.480833,76.7229167 C250.166667,76.7589614 249.8475,76.75625 249.530833,76.75625 C245.643333,76.7589614 241.755833,76.7608333 237.8675,76.75625 C236.14375,76.75375 236.136667,76.7441667 236.136667,75.0420833 C236.135417,59.5708333 236.135417,44.0991667 236.135417,28.62775 C236.135417,26.9613333 236.127083,25.2949167 236.14,23.6297083 C236.149583,22.3072917 236.26625,22.1727917 237.56125,22.1692083 C241.687083,22.156125 245.8125,22.1572917 249.937917,22.1692083 C251.24625,22.1727917 251.32125,22.2585 251.3225,23.6249583 C251.328333,30.7655417 251.325833,37.906125 251.325833,45.0466667 C251.325833,46.5133333 251.325833,47.9808333 251.325833,49.4483333 Z" id="Path"></path>
            <path d="M154.654167,49.4408333 C154.654167,41.2339583 154.654167,33.0280417 154.654167,24.8209583 C154.654167,24.5043333 154.652917,24.1865 154.654167,23.8699167 C154.66125,22.2118333 154.704167,22.163 156.419167,22.15825 C158.99625,22.151125 161.573333,22.155875 164.150417,22.1570417 C165.538333,22.15825 166.92625,22.1392083 168.312917,22.1725417 C169.304167,22.1963333 169.457917,22.3832083 169.499583,23.386625 C169.51125,23.6639583 169.502917,23.9413333 169.502917,24.2186667 C169.502917,41.1077917 169.502917,57.9970833 169.502917,74.8858333 C169.502917,76.75 169.501667,76.75125 167.607917,76.7525 C163.842083,76.7535973 160.074583,76.7545833 156.30875,76.75125 C154.6575,76.75 154.652917,76.7441667 154.652917,75.1325 C154.652917,66.5683333 154.654167,58.0041667 154.654167,49.4408333 Z" id="Path"></path>
            <path d="M252.62875,9.11920833 C252.965417,14.0815417 248.394583,18.2428333 243.671667,18.0940417 C238.454583,17.92975 234.7325,14.2779583 234.652917,9.02754167 C234.58,4.26041667 238.387917,0.0562783333 243.925,0.000334533333 C248.245833,-0.04251625 253.017917,4.03662917 252.62875,9.11920833 Z" id="Path"></path>
            <path d="M162.13625,0.0545720833 C166.986667,-0.278710833 171.246667,4.36225 171.129167,9.152 C171.002917,14.2988333 167.045,18.111375 162.032917,18.0900481 C157.137083,18.0697083 153.129167,14.206 153.01375,9.03775 C152.911667,4.47770833 157.185833,-0.244192083 162.13625,0.0545720833 Z" id="Path"></path>
            <path d="M83.4920833,76.74625 C78.5366667,77.0783333 74.3325,72.4816667 74.4279167,67.8370833 C74.535,62.6116667 78.3616667,58.7941667 83.53375,58.7466667 C88.365,58.7025 92.4,62.3495833 92.4941667,67.9345833 C92.5704167,72.4683333 88.56875,77.0608333 83.4920833,76.74625 Z" id="Path"></path>
        </g>
    </g>
</svg>