<?xml version="1.0" encoding="UTF-8"?>
<svg width="400px" height="140px" viewBox="0 0 400 140" version="1.1" xmlns="http://www.w3.org/2000/svg" xmlns:xlink="http://www.w3.org/1999/xlink">
    <title>Artboard</title>
    <g id="Artboard" stroke="none" stroke-width="1" fill="none" fill-rule="evenodd">
        <g id="greenhouse-software-vector-logo" transform="translate(30.000000, 40.000000)" fill="#24B4A6" fill-rule="nonzero">
            <path d="M229.916805,11.9384359 C220.715474,11.8801997 213.261231,19.3344426 213.261231,28.4775374 C213.202995,37.6788686 220.657238,45.1331115 229.800333,45.1331115 C239.001664,45.1913478 246.455907,37.7371048 246.455907,28.59401 C246.514143,19.4509151 239.176373,11.9966722 230.033278,11.9384359 C230.033278,11.9384359 229.975042,11.9384359 229.916805,11.9384359 Z M229.916805,41.2895175 C222.870216,41.2312812 217.221298,35.5241265 217.221298,28.4775374 C217.279534,21.4309484 222.986689,15.78203 230.033278,15.78203 C237.079867,15.8402662 242.728785,21.547421 242.728785,28.59401 C242.670549,35.640599 236.963394,41.2895175 229.916805,41.2895175 Z" id="Path_17603"></path>
            <path d="M129.051581,28.7104825 L129.051581,27.6622296 C129.051581,24.8086522 128.352745,21.9550749 126.955075,19.4509151 C125.382696,16.4808652 122.645591,14.2096506 119.442596,13.2196339 C117.287854,12.5790349 115.016639,12.3460899 112.745424,12.6372712 C110.299501,12.81198 107.97005,13.7437604 106.048253,15.1996672 C101.505824,18.6938436 99.0599002,24.2845258 99.5840266,29.9916805 C99.9334443,33.6605657 101.447587,37.0382696 103.951747,39.7171381 C106.339434,42.3960067 109.658902,44.0848586 113.211314,44.4342762 C115.191348,44.6672213 117.171381,44.5507488 119.093178,44.2013311 C121.422629,43.7354409 123.635607,42.8036606 125.557404,41.40599 C126.25624,40.8818636 126.838602,40.2995008 127.420965,39.6589018 C128.003328,39.0183028 127.886855,38.0282862 127.246256,37.4459235 C127.18802,37.3876872 127.129784,37.3294509 127.071547,37.3294509 C126.314476,36.7470882 125.266223,36.8635607 124.625624,37.562396 C123.577371,38.7853577 122.1797,39.7171381 120.607321,40.2412646 C118.394343,41.1730449 115.948419,41.4642263 113.560732,41.0565724 C110.881864,40.765391 108.43594,39.484193 106.630616,37.562396 C104.708819,35.4076539 103.485857,32.7870216 103.136439,29.9334443 C103.078203,29.5840266 103.078203,29.234609 103.136439,28.8851913 L129.109817,28.8851913 L129.051581,28.7104825 Z M103.718802,24.4009983 C104.359401,22.3044925 105.524126,20.3826955 107.096506,18.8685524 C108.785358,17.296173 110.998336,16.3643927 113.327787,16.1896839 C114.84193,16.014975 116.414309,16.1314476 117.928453,16.5391015 C120.257903,17.1214642 122.237937,18.577371 123.577371,20.5574043 C124.509151,21.9550749 125.14975,23.5274542 125.440932,25.1580699 C125.440932,25.3327787 125.499168,25.5074875 125.557404,25.6239601 L103.602329,25.6239601 C103.485857,25.1580699 103.544093,24.750416 103.718802,24.4009983 Z" id="Path_17604"></path>
            <path d="M87.9950083,19.21797 C86.4808652,16.4808652 83.9767055,14.3843594 80.9484193,13.452579 C78.7354409,12.81198 76.40599,12.5790349 74.1347754,12.7537438 C72.2129784,12.9284526 70.2911814,13.5108153 68.6023295,14.5008319 C65.9234609,16.014975 63.8269551,18.2861897 62.6039933,21.0815308 C61.1480865,23.9933444 60.5657238,27.2545757 60.9733777,30.4575707 C61.3227953,33.4858569 62.4875208,36.3976705 64.3510815,38.7853577 C66.7387687,42.046589 70.4076539,44.1430948 74.4259567,44.5507488 C76.40599,44.7836938 78.3860233,44.6672213 80.3078203,44.3178037 C82.7537438,43.9101498 85.0831947,42.8618968 87.0049917,41.2895175 C87.5873544,40.8236273 88.1697171,40.2412646 88.6356073,39.6589018 C89.21797,38.9018303 89.1014975,37.7953411 88.344426,37.2129784 C88.344426,37.2129784 88.2861897,37.2129784 88.2861897,37.1547421 C87.5873544,36.5723794 86.5391015,36.6888519 85.9567388,37.3876872 C85.0831947,38.3777038 83.9767055,39.1930116 82.81198,39.7171381 C80.3660566,40.8818636 77.6289517,41.2895175 74.9500832,40.8818636 C72.2712146,40.5906822 69.8252912,39.3094842 68.0199667,37.3876872 C66.0399334,35.1747088 64.8169717,32.437604 64.5257903,29.5257903 L64.5257903,28.7104825 L90.3826955,28.7104825 L90.3826955,28.5357737 C90.4991681,25.2745424 89.6838602,22.0133111 87.9950083,19.21797 Z M64.7587354,25.3327787 C64.7587354,25.0998336 64.875208,24.9833611 64.875208,24.750416 C65.3993344,22.7121464 66.4475874,20.7903494 67.9034942,19.21797 C69.4758735,17.5291181 71.5723794,16.422629 73.9018303,16.1896839 C75.5324459,15.9567388 77.2212978,15.9567388 78.8519135,16.3061564 C81.2978369,16.8885191 83.452579,18.344426 84.8502496,20.4409318 C85.78203,21.8386023 86.422629,23.4109817 86.7138103,25.0415973 L86.7138103,25.2745424 L64.7587354,25.2745424 L64.7587354,25.3327787 Z" id="Path_17605"></path>
            <path d="M347.670549,37.0965058 C346.971714,36.5141431 345.923461,36.6306156 345.341098,37.3294509 C344.467554,38.3194676 343.419301,39.0765391 342.312812,39.6589018 C339.866889,40.8236273 337.129784,41.2895175 334.450915,40.9400998 C331.480865,40.5906822 328.74376,39.1347754 326.821963,36.8053245 C325.191348,34.8835275 324.201331,32.4958403 323.91015,29.9916805 C323.793677,29.5257903 323.793677,29.0599002 323.793677,28.59401 L349.883527,28.59401 C349.883527,27.7204659 349.883527,26.7886855 349.767055,25.9151414 C349.475874,23.2362729 348.544093,20.6738769 347.088186,18.4026622 C345.399334,15.8985025 342.953411,14.0349418 340.041597,13.1031614 C337.886855,12.5207987 335.673877,12.4043261 333.460899,12.6372712 C331.24792,12.8702163 329.151414,13.6272879 327.34609,14.8502496 C324.958403,16.5391015 323.036606,18.8685524 321.813644,21.547421 C320.590682,24.2845258 320.124792,27.2545757 320.415973,30.2246256 C320.823627,33.8352745 322.454243,37.2129784 325.016639,39.8336106 C327.404326,42.3960067 330.665557,43.968386 334.159734,44.2595674 C336.023295,44.4925125 337.886855,44.3760399 339.69218,44.0266223 C342.021631,43.6189684 344.234609,42.687188 346.156406,41.2312812 C346.855241,40.6489185 347.554077,40.0665557 348.136439,39.3677205 C348.602329,38.6688852 348.427621,37.6206323 347.670549,37.0965058 Z M324.201331,25.0998336 C324.783694,22.4209651 326.297837,20.0332779 328.452579,18.2861897 C330.083195,17.0049917 332.063228,16.2479201 334.101498,16.0732113 C335.848586,15.9567388 337.595674,16.0732113 339.284526,16.5391015 C341.381032,17.2379368 343.12812,18.577371 344.351082,20.4409318 C345.282862,21.8386023 345.923461,23.4109817 346.214642,25.0415973 L346.214642,25.391015 L324.37604,25.391015 C324.201331,25.3327787 324.201331,25.2163062 324.201331,25.0998336 Z" id="Path_17606"></path>
            <path d="M202.720466,24.6339434 L202.720466,41.9883527 C202.720466,42.2212978 202.720466,42.4542429 202.603993,42.687188 C202.371048,43.5024958 201.55574,44.0848586 200.740433,43.968386 C199.925125,43.8519135 199.284526,43.1530782 199.22629,42.3377704 L199.22629,25.9151414 C199.284526,24.3427621 199.051581,22.7121464 198.527454,21.1980033 C197.65391,18.4608985 195.266223,16.4808652 192.412646,16.1314476 C190.490849,15.7237937 188.452579,15.9567388 186.647255,16.7138103 C183.91015,17.8785358 181.813644,20.266223 180.998336,23.1780366 C180.881864,23.4109817 180.881864,23.7021631 180.881864,23.9933444 L180.881864,42.3377704 C180.881864,43.2113145 180.183028,43.968386 179.309484,43.968386 C179.309484,43.968386 179.251248,43.968386 179.251248,43.968386 C178.377704,43.968386 177.620632,43.327787 177.50416,42.4542429 L177.50416,1.68885191 C177.678869,0.873544093 178.43594,0.291181364 179.251248,0.291181364 C180.124792,0.291181364 180.823627,0.931780366 180.881864,1.80532446 L180.881864,17.296173 L180.998336,17.296173 C180.998336,17.1797005 181.114809,17.1797005 181.114809,17.063228 C183.153078,14.6755408 186.064892,13.1031614 189.209651,12.6955075 C191.131448,12.4625624 193.111481,12.5790349 194.975042,13.1613977 C198.702163,14.2096506 201.55574,17.296173 202.254576,21.1397671 C202.545757,22.3044925 202.720466,23.469218 202.720466,24.6339434 Z" id="Path_17607"></path>
            <path d="M17.7620632,44.608985 C8.26955075,44.4925125 0.524126456,52.063228 0.40765391,61.4975042 C0.291181364,70.9900166 7.86189684,78.7354409 17.296173,78.8519135 C26.7886855,78.968386 34.5341098,71.3976705 34.6505824,61.9633943 C34.6505824,61.9051581 34.6505824,61.7886855 34.6505824,61.7304493 C34.7670549,52.3544093 27.2545757,44.6672213 17.8785358,44.608985 C17.8785358,44.608985 17.8202995,44.608985 17.7620632,44.608985 Z M17.5291181,75.7071547 C9.78369384,75.5906822 3.66888519,69.2429285 3.78535774,61.4975042 C3.90183028,53.7520799 10.249584,47.6372712 17.9950083,47.7537438 C25.6821963,47.8702163 31.797005,54.1597338 31.7387687,61.8469218 C31.6222962,69.5923461 25.2745424,75.765391 17.5291181,75.7071547 Z" id="Path_17608"></path>
            <path d="M164.517471,42.1048253 C164.575707,42.9783694 163.993344,43.7936772 163.1198,43.968386 C162.18802,44.1430948 161.314476,43.5607321 161.139767,42.6289517 C161.139767,42.5707155 161.139767,42.5124792 161.139767,42.4542429 L161.139767,26.1480865 C161.198003,24.5757072 160.965058,23.0615641 160.557404,21.547421 C160.033278,19.5673877 158.693844,17.936772 156.946755,16.9467554 C156.073211,16.5391015 155.083195,16.2479201 154.151414,16.1314476 C152.34609,15.8402662 150.482529,16.0732113 148.735441,16.7138103 C145.881864,17.8785358 143.668885,20.3244592 142.853577,23.2945092 C142.737105,23.5274542 142.737105,23.7603993 142.737105,23.9933444 L142.737105,42.5707155 C142.620632,43.4442596 141.863561,44.0266223 140.990017,43.968386 C140.116473,43.968386 139.359401,43.2695507 139.359401,42.3960067 C139.359401,42.3960067 139.359401,42.3377704 139.359401,42.3377704 L139.359401,14.733777 C139.417637,13.8019967 140.174709,13.1031614 141.106489,13.1031614 C142.03827,13.1031614 142.737105,13.8019967 142.737105,14.733777 C142.737105,14.7920133 142.737105,14.8502496 142.737105,14.8502496 L142.737105,17.4126456 L143.086522,17.063228 C145.124792,14.733777 147.978369,13.2196339 151.064892,12.81198 C153.103161,12.5207987 155.199667,12.7537438 157.1797,13.3943428 C160.732113,14.5008319 163.352745,17.4126456 164.109817,21.0232945 C164.342762,22.1297837 164.459235,23.1780366 164.459235,24.2845258 C164.517471,30.2828619 164.517471,36.2229617 164.517471,42.1048253 Z" id="Path_17609"></path>
            <path d="M281.921797,41.9883527 L281.921797,42.5707155 C281.747088,43.3860233 280.990017,43.968386 280.174709,43.968386 C279.301165,43.968386 278.602329,43.327787 278.544093,42.4542429 L278.544093,39.8918469 L278.427621,39.8918469 C278.311148,40.0083195 278.194676,40.124792 278.194676,40.2412646 C276.272879,42.5707155 273.535774,44.0266223 270.565724,44.3760399 C268.585691,44.7254576 266.489185,44.608985 264.567388,44.0266223 C260.78203,43.0366057 257.870216,40.0083195 257.054908,36.1647255 C256.821963,35 256.705491,33.8352745 256.705491,32.6705491 L256.705491,15.1996672 C256.647255,14.5590682 256.938436,13.9767055 257.404326,13.5690516 C257.870216,13.1613977 258.569052,13.0449251 259.151414,13.3361065 C259.733777,13.5690516 260.141431,14.093178 260.199667,14.733777 L260.199667,31.3893511 C260.199667,32.9617304 260.432612,34.5923461 260.898502,36.1064892 C261.772047,38.7271215 264.043261,40.5906822 266.780366,41.0565724 C268.818636,41.4642263 270.973378,41.2312812 272.895175,40.4742097 C275.63228,39.2512479 277.728785,36.8053245 278.427621,33.8935108 C278.544093,33.6023295 278.544093,33.3693844 278.544093,33.078203 L278.544093,14.5008319 C278.777038,13.6855241 279.592346,13.1031614 280.407654,13.2196339 C281.222962,13.3361065 281.863561,14.0349418 281.921797,14.8502496 L281.921797,15.1996672 C281.921797,24.0515807 281.921797,33.078203 281.921797,41.9883527 Z" id="Path_17610"></path>
            <path d="M14.6173045,13.1031614 C6.81364393,13.1031614 0.524126456,19.3926789 0.524126456,27.1963394 C0.524126456,35 6.81364393,41.2895175 14.6173045,41.2895175 C22.4209651,41.2895175 28.7104825,35 28.7104825,27.1963394 L28.7104825,27.1963394 C28.6522463,19.4509151 22.3627288,13.1613977 14.6173045,13.1031614 Z M14.6173045,38.1447587 C8.56073211,38.0865225 3.66888519,33.1946755 3.66888519,27.0798669 C3.72712146,21.0232945 8.61896839,16.1314476 14.733777,16.1314476 C20.7903494,16.1896839 25.6821963,21.0815308 25.6821963,27.1963394 C25.6821963,27.1963394 25.6821963,27.1963394 25.6821963,27.1963394 C25.5657238,33.2529118 20.6738769,38.1447587 14.6173045,38.1447587 L14.6173045,38.1447587 Z" id="Path_17611"></path>
            <path d="M309.991681,42.5707155 C308.59401,43.5024958 306.963394,44.0848586 305.274542,44.3178037 C304.575707,44.4342762 303.760399,44.4342762 303.410982,44.5507488 C300.965058,44.6672213 298.577371,44.0266223 296.480865,42.8036606 C294.908486,41.8718802 293.685524,40.5324459 292.870216,38.9018303 C292.637271,38.3777038 292.520799,37.7953411 292.637271,37.2712146 C292.870216,36.3394343 293.801997,35.7570715 294.733777,35.9900166 C295.024958,36.0482529 295.257903,36.1647255 295.490849,36.3394343 C295.840266,36.5141431 296.073211,36.8053245 296.189684,37.1547421 C297.354409,39.4259567 299.625624,40.9400998 302.18802,41.1730449 C303.935108,41.40599 305.682196,41.0565724 307.254576,40.2412646 C307.778702,40.0083195 308.302829,39.6589018 308.652246,39.1930116 C310.049917,37.9118136 310.457571,35.8735441 309.584027,34.1264559 C309.176373,33.2529118 308.535774,32.4958403 307.720466,31.9134775 C306.55574,31.0981697 305.216306,30.4575707 303.818636,30.0499168 C302.770383,29.7004992 301.838602,29.4675541 300.790349,29.1181364 C299.159734,28.5357737 297.645591,27.6622296 296.364393,26.5557404 C294.908486,25.1580699 294.034942,23.2945092 293.918469,21.2562396 C293.801997,20.0915141 293.918469,18.9267887 294.267887,17.8785358 C295.024958,15.9567388 296.539101,14.3843594 298.519135,13.6272879 C300.324459,12.81198 302.304493,12.5207987 304.284526,12.81198 C305.915141,12.9284526 307.487521,13.5108153 308.885191,14.4425957 C310.166389,15.374376 311.214642,16.5391015 311.913478,17.936772 C312.146423,18.344426 312.146423,18.8103161 312.02995,19.21797 C311.855241,19.8585691 311.331115,20.3826955 310.63228,20.4991681 C309.933444,20.5574043 309.234609,20.266223 308.885191,19.6838602 C308.768719,19.5673877 308.768719,19.4509151 308.652246,19.3344426 C307.778702,17.6455907 306.08985,16.422629 304.22629,16.1896839 C302.886855,16.014975 301.605657,16.1314476 300.324459,16.655574 C298.227953,17.3544093 297.004992,19.5673877 297.703827,21.7221298 C297.703827,21.7803661 297.703827,21.7803661 297.762063,21.8386023 C298.053245,22.9450915 298.635607,23.9351082 299.509151,24.6339434 C300.499168,25.4492512 301.663894,26.031614 302.886855,26.3810316 C303.935108,26.7304493 304.983361,26.9633943 306.031614,27.312812 C307.545757,27.7787022 308.943428,28.4775374 310.166389,29.4093178 C311.913478,30.6322795 313.019967,32.4958403 313.311148,34.5923461 C314.06822,37.6788686 312.728785,40.9400998 309.991681,42.5707155 Z" id="Path_17612"></path>
            <path d="M55.7903494,15.4908486 C55.5574043,16.422629 54.625624,17.0049917 53.6938436,16.8885191 C52.7620632,16.7138103 51.8302829,16.5973378 50.8985025,16.655574 C47.81198,16.8885191 45.1331115,18.6938436 43.6189684,21.3727121 C43.0366057,22.3044925 42.8036606,23.3527454 42.8036606,24.4009983 L42.8036606,41.9883527 C42.8036606,42.2795341 42.8036606,42.5707155 42.687188,42.8036606 C42.3960067,43.5607321 41.6971714,44.0266223 40.9400998,43.968386 C40.124792,43.968386 39.4259567,43.3860233 39.3094842,42.5707155 L39.3094842,15.1414309 C39.3094842,14.8502496 39.3094842,14.5590682 39.4259567,14.3261231 C39.6589018,13.5108153 40.4742097,13.0449251 41.2895175,13.1613977 C42.1048253,13.2778702 42.7454243,13.9767055 42.8036606,14.7920133 L42.8036606,17.4708819 L42.9201331,17.4708819 L43.2695507,17.1214642 C44.8419301,15.1996672 47.0549085,13.8019967 49.5008319,13.2196339 C51.1896839,12.9284526 52.8785358,12.9284526 54.5673877,13.3361065 C55.4409318,13.5690516 56.0232945,14.5008319 55.7903494,15.4908486 C55.7903494,15.4908486 55.7903494,15.4908486 55.7903494,15.4908486 Z" id="Path_17613"></path>
            <path d="M28.8269551,9.49251248 C28.8269551,11.1231281 27.4875208,12.4043261 25.9151414,12.4043261 C24.3427621,12.4043261 23.0033278,11.0648918 23.0033278,9.49251248 C23.0033278,7.86189684 24.3427621,6.58069884 25.9151414,6.58069884 C27.4875208,6.52246256 28.7687188,7.80366057 28.8269551,9.49251248 C28.8269551,9.43427621 28.8269551,9.43427621 28.8269551,9.49251248 Z" id="Path_17614"></path>
        </g>
    </g>
</svg>