<?xml version="1.0" encoding="UTF-8"?>
<svg width="400px" height="140px" viewBox="0 0 400 140" version="1.1" xmlns="http://www.w3.org/2000/svg" xmlns:xlink="http://www.w3.org/1999/xlink">
    <title>Artboardl</title>
    <g id="Artboard" stroke="none" stroke-width="1" fill="none" fill-rule="evenodd">
        <g id="blablacar" transform="translate(27.000000, 36.000000)" fill-rule="nonzero">
            <path d="M66.7452209,34.9023037 C65.0393575,24.5385038 55.3113253,17.567338 45.0761446,19.3333666 L48.0729317,1.97516366 L37.0770281,0 C36.1549398,2.09134976 32.0055422,11.6186098 30,22.3077307 C34.080241,25.0961971 37.0770281,29.5112688 37.9760643,34.8558293 C38.8981526,40.5024736 37.284498,46.0096947 33.9188755,50.0994453 C34.748755,51.121883 35.6938956,52.0513717 36.7542972,52.8879116 C41.0189558,56.2805457 46.2057028,57.6050672 51.2771888,56.7452901 C61.5815261,55.0257358 68.4971888,45.2196292 66.7221687,34.9023037 L66.7452209,34.9023037 Z" id="Shape" fill="#064752"></path>
            <path d="M29.8727274,23.5064833 L30.1045967,22.3450958 C26.1628195,19.6506767 21.2935653,18.4428337 16.2388157,19.2790327 L19.2531159,1.95113102 L8.21613974,0 C7.2422889,2.16018077 2.79039936,12.3107076 0.889071535,23.4600278 C-0.641265495,32.4723949 -0.571704721,42.135139 4.13524099,48.9408698 C5.1786526,50.4042181 6.40755961,51.7281998 7.89152279,52.8895873 C12.2042908,56.2808389 17.4445358,57.6048206 22.5456592,56.7453939 C27.229418,55.9788781 31.1943821,53.4935089 34,50.1254851 L33.1188969,48.9640975 C28.3887642,42.1815945 28.3192034,32.5188504 29.8727274,23.529711 L29.8727274,23.5064833 Z" id="Shape" fill="#2BB2F0"></path>
            <path d="M37.7312721,35.1804511 C36.7422353,29.9924812 33.5278659,25.7067669 29.1761042,23 L28.928845,24.1278195 C27.3216603,32.8796992 27.395838,42.2631579 32.4399255,48.8721805 L33.3547844,50 C36.9647686,45.9398496 38.7450347,40.6165414 37.7065462,35.112782 L37.7312721,35.1804511 Z" id="Shape" fill="#9EF669"></path>
            <path d="M288.973185,52.4673965 L282.396326,52.4673965 C282.164746,52.4673965 282.002641,52.5840076 281.933167,52.7705854 C281.006848,55.2427416 279.710003,57.2950976 277.857367,58.7410757 C276.00473,60.1404093 273.619461,60.9800095 270.516295,60.9800095 C266.278389,60.9800095 262.874169,59.1142313 260.558374,55.9890528 C258.242578,52.8405521 256.945732,48.4792956 256.945732,43.4883389 C256.945732,38.4507377 258.21942,34.0894812 260.558374,30.9876249 C262.874169,27.8857687 266.301547,26.0199905 270.516295,26.0199905 C273.596303,26.0199905 275.958414,26.8362684 277.811051,28.2589243 C279.663687,29.7049024 280.937375,31.7572584 281.886851,34.1594479 C281.956325,34.3460257 282.11843,34.4859591 282.35001,34.4859591 L288.950027,34.4859591 C289.042659,34.4859591 289.181607,34.4393146 289.251081,34.3460257 C289.343713,34.276059 289.390028,34.1594479 289.390028,34.0195145 L289.390028,33.9029034 C288.34792,29.4250357 286.194231,25.7401238 282.998433,23.1746787 C279.802635,20.6092337 275.634203,19.1166111 270.446821,19.1166111 C264.425752,19.1166111 259.099422,21.6120895 255.27836,25.8800571 C251.457297,30.171347 249.141501,36.2584484 249.141501,43.5583056 C249.141501,50.8581628 251.457297,56.9685864 255.27836,61.236554 C259.099422,65.5511661 264.425752,68 270.469979,68 C275.657361,68 279.872109,66.5540219 283.091065,63.9652546 C286.286862,61.3998096 288.46371,57.6682532 289.459502,53.1204188 L289.459502,53.0038077 C289.459502,52.8638743 289.413186,52.7705854 289.320555,52.6539743 C289.274239,52.5840076 289.135291,52.5373632 288.996343,52.5373632 L288.973185,52.4673965 Z M346.705969,32.8300809 C346.24281,32.736792 345.594387,32.6435031 344.691227,32.6435031 C343.903856,32.6435031 342.931222,32.7134698 341.81964,32.9233698 C340.893322,33.1099476 339.89753,33.4831033 338.971212,33.9961923 C338.044894,34.5092813 337.118575,35.2089481 336.284889,36.0485483 C335.82173,36.5149929 335.358571,37.0980485 334.941728,37.7510709 L334.640674,38.2175155 L334.640674,33.6930033 C334.640674,33.4131366 334.409095,33.1799143 334.177515,33.1799143 L327.878551,33.1799143 C327.646971,33.1799143 327.415392,33.4131366 327.415392,33.6930033 L327.415392,66.8105664 C327.415392,67.0437887 327.646971,67.2770109 327.878551,67.2770109 L334.223831,67.2770109 C334.501726,67.2770109 334.733306,67.0437887 334.733306,66.8105664 L334.733306,50.7182294 C334.733306,48.8524512 334.964886,47.2665397 335.358571,45.960495 C335.775414,44.6544503 336.400679,43.6282723 337.211207,42.8353165 C338.068052,42.0423608 339.017528,41.4359829 340.12911,41.039505 C341.425955,40.5730604 342.838591,40.4331271 344.065962,40.4331271 C344.99228,40.4331271 345.918599,40.526416 346.451232,40.6197049 L346.520705,40.6197049 C346.798601,40.6197049 346.983865,40.4331271 346.983865,40.1532604 L346.983865,33.3431699 C347.053338,33.1099476 346.891233,32.8767254 346.636495,32.8300809 L346.705969,32.8300809 Z M210.236136,19.0699667 L210.120346,19.0699667 L203.751908,20.1894336 C203.520328,20.2360781 203.288749,20.4226559 203.288749,20.6558782 L203.288749,66.7872442 C203.288749,67.0671109 203.520328,67.3003332 203.821382,67.3003332 L210.236136,67.3003332 C210.467715,67.3003332 210.699295,67.0671109 210.699295,66.7872442 L210.699295,19.5830557 C210.699295,19.303189 210.467715,19.0699667 210.166662,19.0699667 L210.236136,19.0699667 Z M197.105575,46.4502618 C196.179256,44.5378391 194.882411,42.9052832 193.284512,41.552594 L192.821353,41.2027606 C192.126614,40.6663494 191.362402,40.1765826 190.551873,39.8034269 L190.320294,39.6868158 L190.482399,39.5235602 C191.223454,38.6606378 191.871877,37.657782 192.335036,36.5849595 C193.029774,35.0223703 193.377144,33.4131366 193.377144,31.7339362 C193.377144,29.9148025 193.006616,28.2356021 192.311878,26.6030462 C191.617139,24.9704902 190.621347,23.617801 189.370817,22.4516897 C188.21292,21.3788672 186.823442,20.539267 185.248701,19.9328891 C183.67396,19.3265112 181.705534,19 179.389738,19 L165.356017,19 C165.078122,19 164.846542,19.2332223 164.846542,19.5364112 L164.846542,66.7639219 C164.846542,67.0437887 165.078122,67.2770109 165.356017,67.2770109 L182.678168,67.2770109 C185.156069,67.2770109 187.217127,66.9971442 188.8845,66.4374108 C190.505557,65.8776773 192.010824,65.0380771 193.284512,63.9885769 C194.859253,62.6592099 196.156098,61.0033317 197.105575,59.0909091 C197.337154,58.6244645 197.49926,58.2279867 197.661366,57.8081866 L197.730839,57.6216088 L197.846629,57.2950976 C198.309788,55.8491195 198.587684,54.3331747 198.587684,52.7472632 C198.541368,50.4616849 198.055051,48.31604 197.082417,46.4036173 L197.105575,46.4502618 Z M172.326562,26.1599238 L178.208683,26.1599238 C180.061319,26.1599238 181.450796,26.3231794 182.377115,26.6263684 C183.257117,26.9762018 183.951856,27.4426464 184.461331,28.025702 C185.457123,29.145169 185.966598,30.4512137 185.966598,31.9904807 C185.966598,33.4831033 185.503439,34.789148 184.461331,35.9086149 C183.951856,36.4916706 183.303433,36.9581152 182.377115,37.3079486 C181.728692,37.5411709 180.756058,37.6811042 179.59816,37.7743931 L172.257088,37.7743931 L172.257088,26.1599238 L172.326562,26.1599238 Z M190.389767,55.4526416 C190.01924,56.3855307 189.509765,57.1784864 188.861342,57.8781533 C188.120288,58.5778201 187.240285,59.184198 186.151862,59.6039981 C185.063438,60.000476 183.465539,60.2336982 181.335007,60.2336982 L172.303404,60.2336982 L172.303404,44.9109948 L181.335007,44.9109948 C183.465539,44.9109948 185.04028,45.144217 186.128704,45.5406949 C187.170812,45.960495 188.073972,46.5435507 188.791868,47.2665397 C189.440291,47.9662066 189.949766,48.7591623 190.343452,49.6454069 C190.737137,50.5083294 190.9224,51.5111851 190.9224,52.5140409 C190.9224,53.5635412 190.737137,54.5430747 190.343452,55.4526416 L190.389767,55.4526416 Z M240.874111,35.9552594 C238.419368,33.6930033 235.038306,32.5735364 230.823558,32.5735364 C227.025654,32.5735364 223.922487,33.5064255 221.560376,35.3722037 C219.47616,36.934793 217.970893,38.9405045 217.160364,41.3193717 C217.067733,41.552594 217.229838,41.855783 217.507734,41.9024274 L223.482486,42.9519277 C223.714066,42.9985721 223.876172,42.881961 223.945645,42.7187054 C225.173017,39.9900048 227.465655,38.6606378 230.846716,38.6606378 C233.162512,38.6606378 234.922516,39.2903379 236.173046,40.5730604 C237.423576,41.855783 238.025683,43.5583056 238.025683,45.7039505 L238.025683,46.9167063 C234.899358,45.9838172 231.911982,45.5173727 229.133027,45.5173727 C225.196175,45.5173727 221.907745,46.4969062 219.290896,48.5026178 C216.697205,50.5083294 215.354044,53.3303189 215.354044,56.9452642 C215.354044,60.3969538 216.581415,63.1023322 218.966685,65.0613993 C221.351954,67.0204664 224.223541,68 227.604602,68 C231.911982,68 235.478307,66.7405997 238.071998,64.1285102 L238.071998,66.7405997 C238.071998,67.0671109 238.349894,67.3236554 238.650947,67.3236554 L244.162541,67.3236554 C244.463594,67.3236554 244.718332,67.0904331 244.718332,66.7639219 L244.718332,45.2375059 C244.648858,41.2727273 243.398328,38.1941932 240.897269,35.9552594 L240.874111,35.9552594 Z M235.269886,59.2774869 C233.417249,60.8400762 231.170928,61.6097097 228.484605,61.6097097 C226.516178,61.6097097 225.010911,61.1432651 223.945645,60.2570205 C222.926695,59.3707758 222.394062,58.15802 222.394062,56.618753 C222.394062,54.9395526 223.088801,53.6801523 224.385647,52.8405521 C225.682492,52.0009519 227.396181,51.5578296 229.480397,51.5578296 C232.097246,51.5578296 234.968832,52.0242742 238.04884,52.9571633 C238.04884,55.6858639 237.122522,57.7615421 235.269886,59.2541647 L235.269886,59.2774869 Z M124.32012,19.0699667 L124.227488,19.0699667 L117.835892,20.1894336 C117.604312,20.2360781 117.372733,20.4226559 117.372733,20.6558782 L117.372733,66.7872442 C117.372733,67.0671109 117.604312,67.3003332 117.905366,67.3003332 L124.32012,67.3003332 C124.551699,67.3003332 124.783279,67.0671109 124.783279,66.7872442 L124.783279,19.5830557 C124.783279,19.303189 124.551699,19.0699667 124.273804,19.0699667 L124.32012,19.0699667 Z M111.120085,46.4502618 C110.193766,44.5378391 108.943237,42.9052832 107.345338,41.552594 L106.882179,41.2027606 C106.18744,40.6663494 105.423228,40.1765826 104.612699,39.8034269 L104.38112,39.6868158 L104.543225,39.5235602 C105.28428,38.6606378 105.932703,37.657782 106.395862,36.5849595 C107.0906,35.0223703 107.43797,33.4131366 107.43797,31.7339362 C107.43797,29.9148025 107.0906,28.2356021 106.395862,26.6030462 C105.701123,24.9704902 104.705331,23.617801 103.454801,22.4516897 C102.296904,21.3788672 100.907426,20.539267 99.3790011,19.9328891 C97.8042601,19.3265112 95.8358339,19 93.5200383,19 L79.509475,19 C79.2315796,19 79,19.2332223 79,19.5364112 L79,66.7639219 C79,67.0437887 79.2315796,67.2770109 79.509475,67.2770109 L96.7621521,67.2770109 C99.2400534,67.2770109 101.301111,66.9971442 102.968484,66.4374108 C104.589541,65.8776773 106.094808,65.0380771 107.368496,63.9885769 C108.943237,62.6592099 110.240082,61.0033317 111.189559,59.0909091 C111.421138,58.6244645 111.583244,58.2279867 111.74535,57.8081866 L111.814823,57.6216088 C111.814823,57.5283198 111.861139,57.3883865 111.907455,57.2950976 C112.370614,55.8491195 112.64851,54.3331747 112.64851,52.7472632 C112.602194,50.4616849 112.115877,48.31604 111.143243,46.4036173 L111.120085,46.4502618 Z M86.341072,26.1599238 L92.2695087,26.1599238 C94.1221451,26.1599238 95.5116225,26.3231794 96.4379407,26.6263684 C97.317943,26.9762018 98.0126817,27.4426464 98.5221567,28.025702 C99.5179488,29.145169 100.027424,30.4512137 100.027424,31.9904807 C100.027424,33.4831033 99.5642648,34.789148 98.5221567,35.9086149 C98.0126817,36.4916706 97.364259,36.9581152 96.4379407,37.3079486 C95.789518,37.5411709 94.8168838,37.6811042 93.658986,37.7743931 L86.341072,37.7743931 L86.341072,26.1599238 Z M104.473751,55.4526416 C104.080066,56.3855307 103.547433,57.1784864 102.922168,57.8781533 C102.181114,58.5778201 101.301111,59.184198 100.212688,59.6039981 C99.1242636,60.000476 97.5263646,60.2336982 95.3958327,60.2336982 L86.3642299,60.2336982 L86.3642299,44.9109948 L95.3958327,44.9109948 C97.5495226,44.9109948 99.1474216,45.144217 100.212688,45.5406949 C101.301111,45.960495 102.204272,46.5435507 102.922168,47.2665397 C103.570591,47.9662066 104.080066,48.7591623 104.473751,49.6454069 C104.867437,50.5083294 105.0527,51.5111851 105.0527,52.5140409 C105.0527,53.5635412 104.821121,54.5430747 104.450593,55.4526416 L104.473751,55.4526416 Z M154.958095,35.9552594 C152.480194,33.6930033 149.099132,32.5735364 144.884384,32.5735364 C141.109637,32.5735364 138.006471,33.5064255 135.621202,35.3722037 C133.536986,36.934793 132.054877,38.9405045 131.22119,41.3193717 C131.151716,41.552594 131.313822,41.855783 131.591718,41.9024274 L137.543312,42.9519277 C137.774892,42.9985721 138.006471,42.881961 138.075945,42.7187054 C139.280159,39.9900048 141.549639,38.6606378 144.953858,38.6606378 C147.20018,38.6606378 148.983342,39.2903379 150.233872,40.5730604 C151.484402,41.855783 152.132824,43.5583056 152.132824,45.7039505 L152.132824,46.9167063 C148.960184,45.9838172 145.972808,45.5173727 143.193853,45.5173727 C139.257001,45.5173727 135.968571,46.4969062 133.351722,48.5026178 C130.688557,50.5083294 129.41487,53.3303189 129.41487,56.9452642 C129.41487,60.3969538 130.572768,63.1023322 132.958037,65.0613993 C135.343306,67.0204664 138.214893,68 141.595955,68 C145.926492,68 149.46966,66.7405997 152.086509,64.1285102 L152.086509,66.7405997 C152.086509,67.0671109 152.318088,67.3236554 152.619142,67.3236554 L158.130735,67.3236554 C158.454946,67.3236554 158.709684,67.0904331 158.709684,66.7639219 L158.709684,45.2375059 C158.64021,41.2727273 157.412838,38.1941932 154.911779,35.9552594 L154.958095,35.9552594 Z M149.307554,59.2774869 C147.454917,60.8400762 145.139122,61.6097097 142.475957,61.6097097 C140.507531,61.6097097 139.002263,61.1432651 137.936998,60.2570205 C136.871732,59.3707758 136.315941,58.15802 136.315941,56.618753 C136.315941,54.9395526 137.010679,53.6801523 138.330683,52.8405521 C139.650686,52.0009519 141.341217,51.5578296 143.425433,51.5578296 C146.06544,51.5578296 148.937027,52.0242742 151.993877,52.9571633 C152.040193,55.6858639 151.113874,57.7615421 149.261238,59.2541647 L149.307554,59.2774869 Z M318.499579,35.9552594 C316.021678,33.6930033 312.640616,32.5735364 308.425868,32.5735364 C304.674279,32.5735364 301.571113,33.5064255 299.162686,35.3722037 C297.07847,36.934793 295.619519,38.9405045 294.762674,41.3193717 C294.716358,41.552594 294.878464,41.855783 295.156359,41.9024274 L301.131112,42.9519277 C301.362692,42.9985721 301.524797,42.881961 301.594271,42.7187054 C302.821643,39.9900048 305.11428,38.6606378 308.495342,38.6606378 C310.764822,38.6606378 312.547984,39.2903379 313.821672,40.5730604 C315.049044,41.855783 315.674308,43.5583056 315.674308,45.7039505 L315.674308,46.9167063 C312.524826,45.9838172 309.53745,45.5173727 306.758495,45.5173727 C302.821643,45.5173727 299.533213,46.4969062 296.916364,48.5026178 C294.299515,50.5083294 292.979512,53.3303189 292.979512,56.9452642 C292.979512,60.3969538 294.183725,63.1023322 296.568995,65.0613993 C298.954264,67.0204664 301.825851,68 305.206912,68 C309.560608,68 313.080617,66.7405997 315.720624,64.1285102 L315.720624,66.7405997 C315.720624,67.0671109 315.952204,67.3236554 316.276415,67.3236554 L321.788009,67.3236554 C322.089062,67.3236554 322.3438,67.0904331 322.3438,66.7639219 L322.3438,45.2375059 C322.251168,41.2727273 321.000638,38.1941932 318.522737,35.9552594 L318.499579,35.9552594 Z M312.82588,59.2774869 C310.973243,60.8400762 308.75008,61.6097097 306.063757,61.6097097 C304.09533,61.6097097 302.590063,61.1432651 301.524797,60.2570205 C300.505847,59.3707758 299.973214,58.15802 299.973214,56.618753 C299.973214,54.9395526 300.667953,53.6801523 301.964799,52.8405521 C303.284802,52.0009519 304.975333,51.5578296 307.059549,51.5578296 C309.699556,51.5578296 312.617458,52.0242742 315.627992,52.9571633 C315.627992,55.6858639 314.701674,57.7615421 312.849038,59.2541647 L312.82588,59.2774869 Z" id="Shape" fill="#064752"></path>
        </g>
    </g>
</svg>