<svg width="129" height="26" viewBox="0 0 129 26" fill="none" xmlns="http://www.w3.org/2000/svg">
<path d="M107.401 10.3481H103.27V19.2825C103.27 20.8757 104.126 21.5635 105.933 21.5635C106.16 21.5635 106.428 21.543 106.695 21.5097C106.809 21.4952 106.938 21.473 107.081 21.4432C107.269 21.4033 107.465 21.4285 107.637 21.5147C107.809 21.6009 107.946 21.743 108.027 21.9176L108.994 24.0544C109.039 24.1543 109.064 24.2621 109.066 24.3715C109.069 24.481 109.05 24.5899 109.01 24.6919C108.971 24.7939 108.911 24.8871 108.835 24.9658C108.759 25.0446 108.668 25.1075 108.568 25.1509C108.507 25.1775 108.443 25.197 108.378 25.2089C107.68 25.3369 107.05 25.4265 106.489 25.4769C105.68 25.5485 104.865 25.5929 104.253 25.5929C99.8791 25.5929 97.7876 23.1874 97.7876 19.4395V11.8551L97.7961 8.0134V3.3414C97.7961 2.88231 98.1733 2.51025 98.64 2.51025C98.7143 2.51025 98.7885 2.51964 98.861 2.53927L102.647 3.55047C103.014 3.6486 103.27 3.97713 103.27 4.3526V6.50897H107.401C107.868 6.50897 108.246 6.88103 108.246 7.34012V9.51612C108.245 9.62624 108.223 9.73512 108.18 9.83654C108.137 9.93797 108.075 10.0299 107.996 10.1072C107.918 10.1845 107.825 10.2455 107.723 10.2869C107.621 10.3282 107.511 10.349 107.401 10.3481V10.3481ZM73.2252 25.2934H69.3989C69.1768 25.295 68.9631 25.2083 68.8049 25.0525C68.6466 24.8966 68.5567 24.6844 68.5549 24.4623V3.34567C68.5549 2.88743 68.9329 2.51537 69.3997 2.51537C69.4731 2.51537 69.5473 2.52391 69.619 2.54353L73.4445 3.559C73.8132 3.65628 74.0692 3.98567 74.0692 4.36113V24.4631C74.0683 24.5732 74.0457 24.6819 74.0028 24.7833C73.9598 24.8846 73.8973 24.9765 73.8189 25.0537C73.7405 25.1308 73.6476 25.1918 73.5456 25.2331C73.4435 25.2744 73.3344 25.2952 73.2244 25.2943L73.2252 25.2934ZM65.7526 17.5562C65.7526 22.4629 61.7419 25.5929 55.0919 25.5929C53.0234 25.5929 51.0778 25.3258 49.2994 24.8428C48.6722 24.673 47.8385 24.3761 46.7983 23.9528C46.6012 23.8744 46.4418 23.7232 46.353 23.5306C46.2642 23.3379 46.2529 23.1185 46.3213 22.9177L47.5441 19.3679C47.5837 19.256 47.6463 19.1537 47.7279 19.0676C47.8095 18.9814 47.9083 18.9134 48.0178 18.8679C48.1274 18.8223 48.2453 18.8003 48.3639 18.8033C48.4825 18.8062 48.5992 18.834 48.7064 18.8849C49.517 19.2646 50.1357 19.536 50.5624 19.6981C51.9567 20.2272 53.3101 20.5207 55.1593 20.5207C58.3337 20.5207 59.7041 19.5325 59.7041 17.9837C59.7041 14.3281 46.1703 16.4691 46.1703 7.80689C46.1694 3.62385 49.1433 0.000599254 56.5622 0.000599254C58.3764 0.000599254 60.3296 0.207106 62.108 0.584279C62.591 0.686679 63.2165 0.854786 63.9828 1.0886C64.0904 1.12044 64.1904 1.17381 64.2768 1.24549C64.3632 1.31716 64.4341 1.40563 64.4853 1.50554C64.5364 1.60545 64.5667 1.71471 64.5744 1.82669C64.582 1.93867 64.5668 2.05104 64.5297 2.15697L63.3035 5.60956C63.2298 5.81181 63.0819 5.97843 62.8898 6.07558C62.6977 6.17273 62.4758 6.19314 62.2693 6.13265C61.2546 5.83996 60.5071 5.64028 60.0276 5.53276C58.9569 5.28674 57.8613 5.16561 56.7627 5.1718C53.1531 5.1718 52.2178 6.25895 52.2178 7.44423C52.2178 11.0675 65.7517 8.72849 65.7517 17.5562H65.7526ZM35.3765 25.2883H31.6141C31.5041 25.2892 31.3949 25.2684 31.2929 25.2271C31.1909 25.1858 31.098 25.1249 31.0196 25.0477C30.9411 24.9705 30.8786 24.8786 30.8357 24.7773C30.7928 24.676 30.7702 24.5672 30.7693 24.4571V7.37767C30.7693 6.91857 31.1482 6.54652 31.6141 6.54652H34.3985C34.8107 6.54652 35.1623 6.83921 35.2314 7.23857L35.6504 9.67057H35.746C37.0772 7.2966 39.2318 6.04732 41.8302 6.04732C42.2014 6.04732 42.553 6.07121 42.8773 6.11132C42.9908 6.12497 43.1136 6.1446 43.2476 6.1702C43.3643 6.19143 43.4751 6.23736 43.5726 6.30493C43.6701 6.3725 43.7521 6.46014 43.8129 6.56196C43.8738 6.66379 43.9121 6.77745 43.9255 6.89532C43.9388 7.0132 43.9268 7.13256 43.8902 7.2454L42.7501 10.6587C42.6812 10.8594 42.5395 11.0268 42.3531 11.128C42.1666 11.2291 41.9489 11.2566 41.7432 11.2049C41.6186 11.1735 41.4928 11.1473 41.366 11.1264C40.9953 11.0696 40.6206 11.0422 40.2456 11.0444C37.2675 11.0444 36.2213 13.0131 36.2213 16.2609V24.4571C36.2204 24.5672 36.1978 24.676 36.1549 24.7773C36.1119 24.8786 36.0495 24.9705 35.971 25.0477C35.8926 25.1249 35.7997 25.1858 35.6977 25.2271C35.5957 25.2684 35.4865 25.2892 35.3765 25.2883V25.2883ZM26.5974 25.2883H22.6763C22.5704 25.2892 22.4654 25.2692 22.3673 25.2295C22.2692 25.1898 22.1798 25.1311 22.1044 25.0569C22.0289 24.9826 21.9689 24.8942 21.9276 24.7967C21.8863 24.6992 21.8647 24.5946 21.8639 24.4887V8.37436C21.8651 8.19743 21.9247 8.02585 22.0335 7.88633C22.1423 7.74681 22.2942 7.64718 22.4655 7.60295L26.3874 6.56871C26.5941 6.51331 26.8143 6.54152 27.0004 6.64725C27.1864 6.75297 27.3234 6.92769 27.3816 7.13361C27.4004 7.20188 27.4097 7.27015 27.4097 7.34097V24.4887C27.409 24.5946 27.3873 24.6992 27.3461 24.7967C27.3048 24.8942 27.2447 24.9826 27.1693 25.0569C27.0938 25.1311 27.0045 25.1898 26.9064 25.2295C26.8082 25.2692 26.7032 25.2892 26.5974 25.2883V25.2883ZM27.4132 0.800173V2.97617C27.4124 3.15339 27.3529 3.32537 27.2441 3.46524C27.1352 3.6051 26.9832 3.70499 26.8116 3.74929L22.8939 4.78268C22.6871 4.83833 22.4667 4.81024 22.2804 4.7045C22.0942 4.59876 21.9571 4.42388 21.8989 4.21777C21.8803 4.15021 21.8709 4.08048 21.8708 4.01041V1.83527C21.8718 1.65808 21.9314 1.48621 22.0404 1.3465C22.1494 1.2068 22.3016 1.10711 22.4732 1.063L26.3909 0.0279059C26.5978 -0.0277136 26.8183 0.000492185 27.0046 0.106405C27.1908 0.212318 27.3278 0.387397 27.3858 0.593666C27.4038 0.661079 27.4132 0.730199 27.4132 0.800173ZM121.056 25.5972C113.547 25.4214 110.186 21.8801 110.186 15.5705C110.186 9.85404 113.323 5.95004 119.883 5.95004C125.397 5.95004 128.947 9.04252 128.947 14.852C128.947 15.2036 128.919 15.7002 128.862 16.3419C128.842 16.5507 128.745 16.7444 128.589 16.885C128.433 17.0256 128.231 17.1028 128.021 17.1014H115.827C116.112 19.8807 118.013 21.0993 121.721 21.0993C123.347 21.0993 123.592 21.0779 125.303 20.6743C125.453 20.6385 125.634 20.577 125.848 20.49C126.055 20.4043 126.287 20.4041 126.495 20.4893C126.702 20.5745 126.867 20.7383 126.954 20.9448L127.961 23.3836C128.005 23.4915 128.026 23.6074 128.022 23.7239C128.018 23.8404 127.99 23.9548 127.939 24.0595C127.888 24.1643 127.815 24.257 127.725 24.3317C127.636 24.4064 127.532 24.4614 127.42 24.493C124.783 25.2661 122.662 25.6347 121.056 25.5972V25.5972ZM115.819 13.8212H124.092C124.028 11.3849 122.507 10.2287 120.035 10.2287C117.214 10.2287 116.073 11.3849 115.819 13.8212ZM90.0632 24.6432L89.7696 23.3828C88.2481 24.7567 86.1251 25.6006 83.5898 25.6006C79.4383 25.6006 76.8706 23.5389 76.8706 19.3542C76.8706 15.9801 79.5646 13.45 84.6667 13.45C86.3469 13.45 87.8044 13.7 89.0085 14.0123V13.0754C89.0085 11.2322 87.8676 10.2952 84.8254 10.2952C83.1392 10.2952 82.419 10.4335 81.5119 10.7466C81.3157 10.8149 81.017 10.9224 80.6159 11.0709C80.4112 11.1475 80.1848 11.1421 79.9839 11.056C79.7829 10.9698 79.623 10.8095 79.5373 10.6084L78.5065 8.13457C78.463 8.02942 78.4417 7.91642 78.444 7.80266C78.4462 7.6889 78.472 7.57684 78.5195 7.47348C78.5671 7.37013 78.6356 7.27773 78.7205 7.20206C78.8055 7.12639 78.9052 7.0691 79.0134 7.03377C79.4435 6.88871 79.7959 6.77777 80.0698 6.70439C81.814 6.23249 83.7101 5.98503 85.8076 5.98503C92.3049 5.98503 94.428 8.73276 94.428 13.8562V24.4571C94.4271 24.5672 94.4045 24.676 94.3616 24.7773C94.3187 24.8786 94.2562 24.9705 94.1777 25.0477C94.0993 25.1249 94.0064 25.1858 93.9044 25.2271C93.8024 25.2684 93.6932 25.2892 93.5832 25.2883H90.8858C90.696 25.2893 90.5115 25.2261 90.3621 25.109C90.2128 24.9919 90.1074 24.8277 90.0632 24.6432V24.6432ZM89.0341 19.3849V17.354C87.9494 17.0595 86.83 16.9125 85.7061 16.9171C83.1401 16.9171 81.9992 17.7295 81.9992 19.2595C81.9992 20.9781 83.3304 21.6027 85.1676 21.6027C87.196 21.6027 89.0341 20.5719 89.0341 19.3841V19.3849ZM14.1396 24.6432L13.846 23.3828C12.3245 24.7567 10.2014 25.6006 7.66532 25.6006C3.51385 25.6006 0.947021 23.5389 0.947021 19.3542C0.947021 15.9801 3.64099 13.45 8.74307 13.45C10.4224 13.45 11.8808 13.7 13.0848 14.0123V13.0754C13.0848 11.2322 11.9439 10.2952 8.90179 10.2952C7.48014 10.2952 6.74713 10.3933 6.009 10.6109C5.73081 10.6937 5.2922 10.8465 4.69486 11.0683C4.49011 11.1452 4.26358 11.1401 4.06248 11.0541C3.86138 10.9681 3.70123 10.8079 3.61539 10.6067L2.58713 8.14396C2.5431 8.03809 2.52159 7.9242 2.52398 7.80956C2.52637 7.69492 2.5526 7.58203 2.601 7.47809C2.6494 7.37414 2.71892 7.2814 2.80512 7.20579C2.89132 7.13018 2.99232 7.07334 3.10169 7.03889C3.87566 6.78631 4.49774 6.60625 4.96878 6.50129C6.48345 6.16167 8.11161 5.98503 9.88398 5.98503C16.3804 5.98503 18.5044 8.73276 18.5044 13.8562V24.4571C18.5035 24.5672 18.4809 24.676 18.438 24.7773C18.395 24.8786 18.3325 24.9705 18.2541 25.0477C18.1757 25.1249 18.0828 25.1858 17.9808 25.2271C17.8787 25.2684 17.7696 25.2892 17.6596 25.2883H14.9622C14.7722 25.2895 14.5875 25.2264 14.438 25.1092C14.2885 24.9921 14.183 24.8278 14.1387 24.6432H14.1396ZM13.0942 19.3849V17.354C12.0096 17.0595 10.8901 16.9125 9.76622 16.9171C7.20025 16.9171 6.05934 17.7295 6.05934 19.2595C6.05934 20.9781 7.39054 21.6027 9.22777 21.6027C11.2561 21.6027 13.0942 20.5719 13.0942 19.3841V19.3849Z" fill="#2C435C"/>
</svg>
