<svg height="140" viewBox="0 0 400 140" width="400" xmlns="http://www.w3.org/2000/svg"><g fill="none" transform="translate(66 24)"><path d="m92 48.2258065c0-7.7317488-4.7827557-14.5263158-11.9763314-17.1426146.3110736-1.640068.4666104-3.2801359.4666104-4.959253 0-14.4091681-11.6652579-26.1239389-25.9746408-26.1239389-8.3989856 0-16.1758242 4.02207131-21.0752325 10.8166384-2.4108199-1.87436336-5.3660185-2.88964349-8.4378698-2.88964349-7.6213017 0-13.8038884 6.20882849-13.8038884 13.86247879 0 1.6791171.3110735 3.319185.8554522 4.8421052-7.15469142 2.5772496-12.0540997 9.4889644-12.0540997 17.1816639 0 7.7707979 4.8216399 14.565365 12.0152156 17.1816638-.3110736 1.6010187-.4666104 3.2801358-.4666104 4.959253 0 14.3701188 11.6263737 26.0458404 25.9357566 26.0458404 8.3989856 0 16.1758242-4.0611205 21.0363483-10.8556876 2.4108199 1.9134126 5.3660186 2.9677419 8.4378698 2.9677419 7.6213018 0 13.8038884-6.2088285 13.8038884-13.8624787 0-1.6791172-.3110735-3.3191851-.8554522-4.8421053 7.1546914-2.5772496 12.0929839-9.4889644 12.0929839-17.1816638" fill="#fff"/><path d="m35.9453125 39.821089 20.234375 9.178911 20.390625-17.8133103c.3125-1.4779602.4296875-2.9170268.4296875-4.4727744 0-12.5237684-10.234375-22.7139153-22.8125-22.7139153-7.5390625 0-14.53125 3.69490061-18.7890625 9.8789974l-3.3984375 17.5410545z" fill="#fed10a"/><path d="m15.4282007 60.8141136c-.3114187 1.4716007-.4282007 2.9819277-.4282007 4.5309811 0 12.5086058 10.2378893 22.6549053 22.8114187 22.6549053 7.5519031 0 14.5977509-3.7177281 18.8408304-9.9139415l3.3477509-17.3881239-4.4766436-8.5197935-20.2422145-9.1781411z" fill="#24bbb1"/><path d="m14.68 25.7130435 14.2 3.2869565 3.12-15.7695652c-1.92-1.4478261-4.32-2.2304348-6.8-2.2304348-6.16 0-11.2 4.8913043-11.2 10.9565217 0 1.2913044.24 2.5826087.68 3.7565218" fill="#ef5098"/><path d="m14.4013333 29c-6.1093333 2.046133-10.4013333 8.027137-10.4013333 14.5983718 0 6.4138399 3.90533333 12.119403 9.744 14.4016282l19.256-17.7069199-3.5186667-7.6729987z" fill="#17a8e0"/><path d="m60 78.7304348c1.8552339 1.4478261 4.0890869 2.2695652 6.3986637 2.2695652 5.830735 0 10.6013363-4.8913043 10.6013363-10.9565217 0-1.3304348-.2271715-2.6217392-.6436526-3.7956522l-13.403118-3.2478261z" fill="#93c83e"/><path d="m63.0551181 59.4192673 15.3543307 3.5807327c6.2598425-2.046133 10.5905512-8.027137 10.5905512-14.6377205 0-6.3744912-3.976378-12.119403-9.9212598-14.3622795l-20.0787402 17.5888738z" fill="#0779a1"/><g fill="#000"><path d="m128.964072 64.446934 1.829341-.1945755.116767 3.735849c-4.826348.6615567-8.952096 1.0117925-12.377246 1.0117925-4.553892 0-7.784431-1.3231132-9.691617-3.9693396-1.907185-2.6462264-2.841317-6.7712264-2.841317-12.3360849 0-11.129717 4.437126-16.6945755 13.272455-16.6945755 4.281437 0 7.473054 1.2063679 9.57485 3.5801887 2.101797 2.3738207 3.152695 6.1485849 3.152695 11.2464622l-.272455 3.6191038h-20.94012c0 3.5023585.622755 6.1096698 1.907186 7.7830189 1.284431 1.673349 3.464072 2.5294811 6.616766 2.5294811 3.191617.0778302 6.383234-.0389151 9.652695-.3113207zm-1.712575-13.7370283c0-3.8915095-.622754-6.6544812-1.868263-8.25-1.245509-1.5955189-3.269462-2.4127359-6.071857-2.4127359s-4.943114.8561321-6.344311 2.5294811c-1.401198 1.6733491-2.140719 4.3974057-2.179641 8.1332548z"/><path d="m138 69v-46h5v46z"/><path d="m173.120713 46.2346698v15.6049528c0 1.5955189 3.879287 1.9068397 3.879287 1.9068397l-.230453 4.2028302c-3.303155 0-6.030178.2724056-7.681756-1.3231133-3.76406 1.6733491-7.489711 2.3738208-11.253772 2.3738208-2.880658 0-5.069959-.817217-6.567901-2.490566-1.497942-1.634434-2.266118-4.0082548-2.266118-7.1214623 0-3.0742925.768176-5.370283 2.304527-6.8101415s3.956104-2.3738208 7.259259-2.6851415l9.832647-.9339623v-2.7240566c0-2.1403302-.460905-3.696934-1.382716-4.6308962-.92181-.9339623-2.1893-1.4009434-3.76406-1.4009434h-12.329218v-4.2028302h12.021948c3.533608 0 6.106996.817217 7.720164 2.490566 1.651578 1.634434 2.458162 4.2417453 2.458162 7.7441038zm-19.281207 12.9198113c0 3.8915095 1.57476 5.8372642 4.762689 5.8372642 2.842249 0 5.64609-.4669811 8.373114-1.4398585l1.421124-.5058962v-10.4681604l-9.256515.8950472c-1.88203.1556603-3.226338.7004717-4.071331 1.6344339-.844993.9339623-1.229081 2.2959906-1.229081 4.0471698z"/><path d="m191.726384 40.2077922c-4.612377 0-6.957654 1.5974026-6.957654 4.8311688 0 1.4805195.547231 2.5324676 1.602606 3.1558442 1.055374.6233766 3.478827 1.2467532 7.270358 1.9090909s6.449511 1.5584416 8.013029 2.7662338c1.563518 1.1688311 2.345277 3.3896104 2.345277 6.6623376 0 3.2727273-1.055375 5.6493507-3.166124 7.1688312s-5.159609 2.2987013-9.224755 2.2987013c-2.618893 0-11.413681-.974026-11.413681-.974026l.273615-4.1298701c5.042346.4675325 8.716613.8571429 11.179153.8571429 2.462541 0 4.338763-.3896104 5.628665-1.1688312s1.954397-2.1038961 1.954397-3.935065c0-1.8311688-.547231-3.077922-1.641693-3.7402597-1.094463-.6623377-3.517916-1.2857143-7.270359-1.8701299-3.752443-.5844155-6.410423-1.4415584-7.973941-2.6103896-1.563518-1.1298701-2.345277-3.2727272-2.345277-6.3506493s1.094463-5.3766234 3.283388-6.8571429 4.925081-2.2207792 8.169381-2.2207792c2.579804 0 11.570032.6623377 11.570032.6623377v4.1688311c-4.729641-.2727272-8.599348-.6233766-11.296417-.6233766z"/><path d="m227.566075 40.8060942h-10.216963v15.1246537c0 3.6066482.276135 6.0110804.788955 7.1357341.552268 1.1246537 1.814596 1.7063712 3.82643 1.7063712l5.719921-.3878116.315582 3.9168975c-2.879684.4653739-5.04931.6980609-6.548323.6980609-3.353058 0-5.641026-.8144044-6.942801-2.4044321s-1.932939-4.6537396-1.932939-9.1523546v-16.6371191h-4.575937v-4.1108033h4.575937v-9.6952909h4.773175v9.6565097h10.216963z"/><path d="m234 29.4373357v-5.4373357h5v5.4758983zm0 38.5626643v-31.4285714h5v31.4285714z"/><path d="m259.285968 36c1.40675 0 3.790409.2724057 7.150977.7783019l1.523979.1945755-.195382 3.8525943c-3.399645-.3891509-5.900533-.5837264-7.502665-.5837264-3.595026 0-6.056838.8561321-7.346358 2.5683962-1.289521 1.7122642-1.953819 4.9033019-1.953819 9.5341981s.586145 7.8608491 1.797513 9.6898585 3.712256 2.7240566 7.541741 2.7240566l7.502664-.5837264.195382 3.9304245c-3.946714.5837264-6.916519.8950472-8.870337.8950472-4.9627 0-8.401421-1.2841981-10.277088-3.8136792-1.875666-2.5294812-2.852575-6.8101416-2.852575-12.8419812s1.015986-10.2735849 3.047957-12.6863207c2.071048-2.4127359 5.470693-3.6580189 10.238011-3.6580189z"/></g></g></svg>