<svg height="140" viewBox="0 0 400 140" width="400" xmlns="http://www.w3.org/2000/svg"><path d="m333.660916 58.1460772c-3.808382 4.09305-8.3537 5.7785003-14.250657 5.7785003-5.405372 0-10.073661-2.0465253-13.390607-6.1397197-3.316945-4.0930503-5.036903-9.0288978-5.036903-15.2888312 0-5.7785004 1.719958-10.7143475 5.405371-14.8073978 3.685561-4.0931946 8.353849-6.1397197 13.390752-6.1397197 5.896809 0 10.5651 2.0465251 13.882044 6.1397197 3.316947 4.0930503 5.405371 9.0288974 5.405371 15.2888312 0 6.0193612-1.596987 11.0755669-5.405371 15.1686172zm4.66829-35.8748736-2.579865-2.5281029c-5.405369-5.7785002-11.793616-8.6676781-18.918947-8.6676781-7.985233 0-15.110562 2.8891779-20.147319 9.0288976-5.405371 5.7785002-7.985234 13.6035254-7.985234 22.2713479 0 9.0288978 2.948331 16.8539231 7.985234 22.6324231 5.405372 5.7785004 12.653523 9.0288975 20.638756 9.0288975 6.756716 0 12.653525-2.8893221 18.42751-7.8250253l2.088428-2.0466693v8.3066031h12.162231v-59.7110245h-12.162231v9.5103309zm-94.22612 20.585898c0 12.3997978-6.265277 20.2248231-16.830374 20.2248231s-16.830521-7.8250253-16.830521-20.2248231v-30.0962289h-12.162086v30.0962289c0 18.057795 12.162086 31.3002456 28.992607 31.3002456s28.992606-13.1220922 28.992606-31.3002456v-30.0962289h-12.162085v30.0962289zm23.587235 29.61494h12.162086v-59.7111689h-12.162086zm-78.132533-29.1333622c0-17.3355007-13.88219-30.9390262-31.081179-31.6613207-.368468 0-.859906.361075-.368468.8426529 1.22852 2.5281028 4.176851 8.1862447 9.213755 11.9182199 6.756714 4.9357029 10.565097 11.0754226 10.565097 18.5392285 0 9.5104753-7.616766 20.2248228-20.147467 20.2248228-12.653523 0-20.147467-10.7143475-20.147467-20.2248228 0-7.4638059 4.176999-13.6035256 10.565097-18.5392285 5.036904-4.0931947 8.35385-9.3659876 9.213902-11.8940905.368468-.3612195 0-.8426528-.368615-.8426528-17.690426.361075-31.572469 13.9406155-31.572469 31.1556134 0 13.964745 12.162085 30.4575928 31.941084 30.4575928 8.84514 0 16.338937-2.5281028 21.867278-6.9823725l6.265277 5.7785003h17.690426l-16.584729-15.2889756c1.719958-3.6116169 2.948478-8.1862447 2.948478-13.4831672zm-166.8304578 8.1862447 14.2505107-30.9390261 14.373481 30.9390261zm13.8820432-51.5249241c-2.0885731 0-3.8083834 1.20387227-4.6682887 2.88917787l-31.9410847 69.58271933h12.6535229l4.6682886-9.8715503h38.6977988l4.6682885 9.8715503h12.6536706l-31.6954397-69.10114154c-.8599053-2.04652506-2.9483309-3.37075566-5.0367563-3.37075566zm66.8303526 23.1140009c5.405519 0 10.565097 2.046525 13.882191 5.2969224 1.228373-3.7319752 3.316946-6.9823725 5.896809-10.3531282-5.405519-4.0931946-12.162233-6.6212975-19.779-6.6212975-17.6904263.1205028-32.4323748 14.2056062-32.4323748 31.9021818 0 17.3355006 14.2506582 31.6613206 32.3095528 31.6613206 7.616766 0 14.250658-2.5281028 19.778852-6.6211531-2.579863-3.2503972-4.176851-6.6211528-5.896809-10.3531282-3.808236 3.2503976-8.353702 5.2969226-13.882043 5.2969226-11.3021806 0-20.6387578-9.0288975-20.6387578-20.2246785.1228229-10.9550644 9.3365772-19.9839619 20.7615798-19.9839619z" fill-opacity=".85" transform="translate(25 33)"/></svg>