<svg height="140" viewBox="0 0 400 140" width="400" xmlns="http://www.w3.org/2000/svg"><g fill="#00a1df" transform="translate(44 24)"><path d="m46.5522079 89.4271186c-23.4330215 0-42.42015314-19.0728813-42.42015314-42.6118644-.05219833-23.538983 18.98713164-42.66440674 42.42015314-42.66440674 23.4330216 0 42.4200457 19.07288134 42.4200457 42.61186444 0 23.538983-18.9870241 42.6644067-42.4200457 42.6644067zm-.0523058-89.4271186c-25.6298673 0-46.4999021 20.859322-46.4999021 46.5s20.8700348 46.5 46.4999021 46.5 46.5000002-20.859322 46.5000002-46.5c.0522077-25.640678-20.8178271-46.5-46.5000002-46.5z"/><path d="m35.8445946 68.779949c-6.9414414-3.3186066-11.759009-10.7986406-11.759009-19.4902294 0-4.5828377 1.3468468-8.8496176 3.6261261-12.2735769l15.1261261 22.9668649h9.168919l15.1261261-22.9668649c2.2792793 3.4766355 3.6261261 7.7434155 3.6261261 12.2735769 0 8.1121496-4.1959459 15.1180969-10.3603604 18.7527613l2.9009009 11.3780798c11.1373874-5.8470688 18.7004505-17.5938827 18.7004505-31.184367 0-12.8530161-6.786036-24.0203908-16.8873874-30.1308411l-17.6126126 27.6023789-17.4054054-27.7077315c-10.204955 6.1104503-17.0945946 17.3831776-17.0945946 30.2361937 0 14.064571 8.1328829 26.2327953 19.8918919 31.7638063z"/><path d="m128.606061 51.2967914-11.560606-24.2967914h-6.045455v39h6.045455v-26.0695187l9.333333 19.0307486h4.507576l9.068181-19.0307486v26.0695187h6.045455v-39h-6.045455z"/><path d="m167.25 54.8518519c0 4.2518518-2.662037 6.1703703-5.856481 6.1703703-3.194445 0-5.69676-1.8666666-5.69676-6.1703703v-16.8518519h-5.696759v17.6814815c0 3.1111111.69213 5.7555555 2.875 7.8296296 1.703704 1.5555556 4.099537 2.4888889 6.974537 2.4888889s5.590278-1.037037 7.560185-3.1111111v2.8h5.590278v-27.637037h-5.696759v16.8z"/><path d="m183.551887 58.0227273v-31.0227273h-5.551887v31.3355615c0 4.118984 2.283019 7.6644385 7.575472 7.6644385h3.424528v-4.7446524h-2.438679c-2.231132 0-3.009434-1.0949198-3.009434-3.2326203z"/><path d="m196.693901 49.7651376c.053214-1.6440367.159642-2.466055.744996-3.6990826.904638-2.0550458 2.979985-3.4422018 5.640686-3.4422018 2.660702 0 4.682834 1.387156 5.587473 3.4422018.53214 1.2330276.744996 2.0550459.79821 3.6990826zm6.332468-11.7651376c-7.237107 0-12.026369 5.1376147-12.026369 13.9743119 0 10.4293578 5.640686 14.0256881 12.771366 14.0256881 5.002118 0 7.716033-1.4385321 10.58959-4.2642202l-3.671767-3.2880734c-2.022133 1.9522936-3.724982 2.8256881-6.864609 2.8256881-4.62962 0-7.237108-2.9284404-7.237108-7.6550459h18.412053v-2.4146789c.053214-7.7577981-4.36355-13.2036697-11.973156-13.2036697z"/><path d="m241.749064 46.4199475c-1.677903-1.4698163-3.722847-2.3622047-7.340824-2.9396325l-4.456929-.6824147c-1.782772-.2624672-3.40824-.9448819-4.404495-1.7847769-1.048689-.9448819-1.468164-2.2047244-1.468164-3.6745407 0-3.464567 2.516854-6.1417323 7.131086-6.1417323 3.303371 0 6.134831.7349081 8.546816 2.992126l3.775281-3.7270341c-3.355805-3.0971129-6.973783-4.4619423-12.164794-4.4619423-8.179775 0-13.108614 4.671916-13.108614 11.5485564 0 3.2020998.94382 5.6692914 2.883895 7.5065617 1.677903 1.6272966 4.247191 2.6771654 7.445693 3.1496063l4.614232.6824147c2.307116.3149606 3.303371.7349081 4.299626 1.67979 1.048689.9448819 1.573033 2.3622048 1.573033 4.0944882 0 3.7795276-2.988764 5.984252-8.074906 5.984252-4.037453 0-7.131086-.8923885-10.014981-3.7270341l-3.985019 3.8845144c3.722846 3.7795276 7.970037 5.1968504 13.895131 5.1968504 8.23221 0 14.104869-4.3044619 14.104869-11.5485564-.052434-3.3070866-1.101124-6.0892389-3.250936-8.0314961z"/><path d="m264.233708 59.5266055c-1.078652 1.0275229-2.534832 1.5926606-4.260674 1.5926606-1.725843 0-3.12809-.5651377-4.206742-1.5926606-1.779775-1.6440367-1.995505-4.5211009-1.995505-7.5009174s.21573-5.8055046 1.995505-7.5009175c1.078652-1.0275229 2.480899-1.5926605 4.206742-1.5926605 1.67191 0 3.182022.5137615 4.260674 1.5926605 1.725843 1.6440367 1.995505 4.521101 1.995505 7.5009175 0 2.9284403-.269662 5.8055046-1.995505 7.5009174zm-4.260674-21.5266055c-3.883146 0-6.687641 1.387156-8.575281 3.2366972-2.696629 2.7229358-3.397753 6.1651377-3.397753 10.7376147 0 4.6238532.701124 8.1174312 3.397753 10.7889909 1.833708 1.8495412 4.638202 3.2366972 8.575281 3.2366972 3.883146 0 6.741573-1.387156 8.629213-3.2366972 2.696629-2.7229358 3.397753-6.1651377 3.397753-10.7889909 0-4.572477-.701124-8.066055-3.397753-10.7376147-1.88764-1.7981651-4.746067-3.2366972-8.629213-3.2366972z"/><path d="m277.116788 34.7068966v4.2413793h-3.116788v4.2413793h3.116788v22.8103448h5.467154v-22.8103448h5.416058v-4.2413793h-5.416058v-3.9827587c0-2.0172413.970803-3.2068965 3.014598-3.2068965h2.40146v-4.7586207h-3.423358c-5.109489.0517241-7.459854 3.7758621-7.459854 7.7068966z"/><path d="m301.678967 31h-5.527675v8.5138686h-3.151292v4.3094891h3.151292v15.3985401c0 4.0467153 2.376383 7.7781022 7.542435 7.7781022h3.306273v-4.7824818h-2.273063c-2.06642 0-3.04797-1.2087591-3.04797-3.2583941v-15.1357664h5.321033v-4.3094891h-5.321033z"/><path d="m311.434783 36.3628319c-.086957.2654867-.217392.4867256-.434783.6637168-.217391.1769911-.391304.3539823-.652174.4424778-.217391.1327434-.521739.1769912-.826087.1769912s-.565217-.0442478-.826087-.1769912c-.260869-.1327433-.478261-.2654867-.652174-.4424778-.173913-.1769912-.347826-.4424779-.434782-.6637168-.086957-.2654868-.173913-.5752213-.173913-.8849558s.043478-.5752212.173913-.840708c.086956-.2654867.217391-.4867256.434782-.6637168.217392-.1769911.391305-.3539823.652174-.4424778.26087-.1327434.521739-.1769912.826087-.1769912s.565218.0442478.826087.1769912c.217391.1327433.478261.2654867.652174.4424778.173913.1769912.347826.3982301.434783.6637168.086956.2654868.173913.5752213.173913.840708-.043479.3539823-.086957.619469-.173913.8849558zm.391304-1.8584071c-.130435-.3097345-.304348-.5752213-.565217-.7964602-.217392-.2212389-.478261-.3982301-.782609-.5309734-.304348-.1327434-.608696-.1769912-.956522-.1769912s-.652174.0884956-.956522.1769912c-.304347.1327433-.565217.3097345-.826087.5309734-.217391.2212389-.391304.4867257-.565217.7964602-.130435.3097345-.173913.619469-.173913.9734513s.086957.7079646.173913 1.0176991c.130435.3097345.304348.5752213.565217.7964602.217392.2212389.478261.3982301.826087.5309734.304348.1327434.608696.1769912.956522.1769912s.652174-.0884956.956522-.1769912c.304348-.1327433.565217-.3097345.782609-.5309734.217391-.2212389.391304-.4867257.565217-.7964602.130435-.3097345.173913-.6637168.173913-1.0176991s-.043478-.6637168-.173913-.9734513z"/><path d="m309.88 35.2985075h-.44v-.9402985h.56c.08 0 .12 0 .2.0447761.08 0 .12.0447761.2.0895522s.12.0895523.12.1343284c.04.0447761.04.1343283.04.2238806 0 .1343283-.04.2238806-.08.2686567-.04.0895522-.08.1343283-.16.1343283-.08.0447762-.12.0447762-.2.0447762-.04 0-.12 0-.24 0zm.92.1343283c.12-.1343283.2-.3134328.2-.5820895 0-.3134329-.08-.4925373-.24-.6268657s-.4-.2238806-.72-.2238806h-1.04v3h.4v-1.2985075h.44l.72 1.2985075h.44l-.76-1.3432836c.28-.0447761.44-.0895522.56-.2238806z"/></g></svg>