<svg height="140" viewBox="0 0 400 140" width="400" xmlns="http://www.w3.org/2000/svg"><path d="m109.18125 25.453125c-1.4625 0-6.046875-.39375-4.725-6.075.196875-.84375 1.29375-5.315625 6.01875-5.259375 4.359375.028125 6.13125 2.86875 5.4 6.159375-.421875 1.9125-1.771875 5.146875-6.69375 5.175zm53.8875-1.96875c.365625 4.134375-3.459375 20.025-13.921875 17.325-.928125 11.446875-11.390625 25.81875-25.875 22.95-3.139295-.5556258-5.847353-2.5270085-7.340625-5.34375-3.15 3.15-6.8625 6.1875-10.209375 7.36875-6.75 2.390625-11.334375.140625-13.134375-3.65625-2.3594909 2.6109559-5.2971657 4.6336173-8.578125 5.90625-10.490625 3.7125-15.440625-3.6-13.471875-10.96875.421875-1.546875 1.40625-4.528125 2.7-8.38125-1.603125.759375-3.459375.984375-5.625.45-.9 11.41875-11.3625 25.790625-25.846875 22.921875-6.946875-1.35-10.828125-8.15625-7.959375-18.84375 1.0125-3.65625 2.53125-7.115625 4.584375-10.06875-3.515625.28125-8.971875.73125-14.90625 1.378125-4.640625 11.30625-9.5625 25.7625-14.203125 42.046875-.47594048 1.5824988-1.74849054 2.798455-3.35098978 3.201962-1.60249923.403507-3.29914677-.0648095-4.46776022-1.233212-1.1667998-1.1828354-1.60728296-2.9017941-1.153125-4.5 1.828125-6.35625 6.69375-22.78125 12.65625-38.165625l-3.65625.5625c-3.515625.5625-4.921875-2.109375-5.203125-3.7125-.28125-1.9125.646875-4.66875 3.740625-5.146875 2.896875-.45 5.90625-.84375 8.94375-1.2375 2.3690536-5.8487816 5.3181575-11.4454836 8.803125-16.70625 5.484375-7.846875 11.3625-11.1375 17.971875-10.125 8.803125 1.321875 8.94375 12.375 8.8875 13.275-.140625 2.334375-.7875 4.5-4.55625 4.725-2.53125.1125-3.346875-1.940625-3.965625-4.696875-1.35-5.7375-4.5-4.05-5.821875-3.2625-2.840625 1.74375-6.46875 7.228125-10.4625 15.58125 7.734375-.759375 13.66875-1.209375 14.146875-1.2375 1.6875-.1125 3.346875.73125 4.21875 2.19375 2.9932564-1.6646028 6.3625235-2.535965 9.7875-2.53125 3.459375 0 6.1875 1.490625 8.690625 3.825 4.21875 3.88125 10.96875 2.475 14.2875-4.359375 3.5238286-9.9883487 7.2369979-19.9088868 11.1375-29.75625.9316425-2.38775821 3.5240343-3.67786869 5.990625-2.98125 3.009375.9 3.965625 3.459375 2.953125 6.075-7.115625 18.225-16.171875 43.48125-17.325 48.0375-1.2375 5.034375 1.4625 4.8375 4.66875 3.178125 4.246875-2.221875 7.509375-7.70625 8.4375-9.95625 2.025-5.934375 4.21875-11.98125 5.90625-15.834375 1.4625-3.375 4.696875-3.15 5.934375-2.784375 3.009375.9 4.078125 3.290625 2.98125 5.878125-2.343711 5.6515805-4.408694 11.4147603-6.1875 17.26875-1.4625 4.95 1.40625 4.8375 4.640625 3.15 2.19375-1.125 4.584375-3.346875 6.58125-5.428125.140625-1.6875.421875-3.346875.84375-4.95 2.896875-10.6875 10.40625-19.603125 21.965625-19.659375 3.4875 0 6.80625 1.6875 9.309375 4.021875 4.5 4.1625 11.278125 2.053125 14.2875-6.046875.45-1.153125 2.08125-1.096875 2.19375.225zm-105.69375 27.309375c.759375-4.66875-2.025-7.790625-5.315625-7.228125-3.65625.675-6.975 4.471875-8.521875 8.60625-.28125.815625-3.234375 10.0125 1.8 10.74375 6.384375.73125 11.053125-6.046875 12.0375-12.121875zm81.534375-8.325c.759375-4.66875-2.053125-7.790625-5.34375-7.228125-3.65625.675-6.975 4.5-8.49375 8.634375-.28125.7875-3.2625 10.0125 1.8 10.74375 6.35625.703125 11.025-6.046875 12.0375-12.15z" fill="#f26161" transform="translate(120 25)"/></svg>