<?xml version="1.0" encoding="UTF-8"?>
<svg width="400px" height="140px" viewBox="0 0 400 140" version="1.1" xmlns="http://www.w3.org/2000/svg" xmlns:xlink="http://www.w3.org/1999/xlink">
    <title>Artboardl</title>
    <g id="Artboard" stroke="none" stroke-width="1" fill="none" fill-rule="evenodd">
        <g id="checkr" transform="translate(53.000000, 12.000000)" fill="#FFFFFF" fill-rule="nonzero">
            <path d="M103.435294,30.6823529 L98.1647059,30.6823529 L92.2352941,20.8 L91.6705882,21.3647059 L89.9764706,23.1529412 L89.9764706,30.6823529 L85.5529412,30.6823529 L85.5529412,27.8588235 C83.7647059,29.3647059 82.0705882,30.2117647 80.5647059,30.6823529 C80.5647059,30.6823529 80.4705882,30.6823529 80.2823529,30.7764706 C79.7176471,30.8705882 78.5882353,31.1529412 77.3647059,31.1529412 L76.7058824,31.1529412 C73.8823529,31.0588235 71.1529412,30.0235294 69.4588235,28.0470588 C67.7647059,25.9764706 66.8235294,23.3411765 66.8235294,20.1411765 C66.8235294,16.9411765 67.6705882,14.3058824 69.4588235,12.2352941 C71.2470588,10.1647059 73.6,9.12941176 76.6117647,9.12941176 C79.0588235,9.12941176 81.0352941,9.78823529 82.4470588,11.1058824 C82.7294118,11.2941176 82.9176471,11.5764706 83.2,11.8588235 L80.6588235,15.0588235 C79.6235294,13.9294118 78.4941176,13.3647059 76.8,13.3647059 C75.2,13.3647059 73.7882353,14.0235294 72.8470588,15.2470588 C71.9058824,16.4705882 71.4352941,18.1647059 71.4352941,20.2352941 C71.4352941,22.3058824 71.9058824,24 72.8470588,25.2235294 C73.7882353,26.3529412 75.1058824,26.9176471 76.5176471,27.1058824 C76.5176471,27.1058824 76.8941176,27.1058824 77.2705882,27.1058824 C77.5529412,27.1058824 77.8352941,27.1058824 78.0235294,27.1058824 C78.0235294,27.1058824 78.1176471,27.1058824 78.1176471,27.1058824 C79.7176471,26.9176471 83.0117647,25.8823529 85.6470588,21.4588235 L85.6470588,0.658823529 L90.0705882,0.658823529 L90.0705882,17.0352941 L97.1294118,9.6 L103.152941,9.6 L95.5294118,17.5058824 L103.435294,30.6823529 Z" id="Shape"></path>
            <path d="M64.6588235,20.1411765 C64.6588235,17.1294118 63.9058824,14.4941176 62.3058824,12.4235294 C60.7058824,10.2588235 58.3529412,9.22352941 55.4352941,9.22352941 C52.6117647,9.22352941 50.2588235,10.2588235 48.4705882,12.4235294 C46.6823529,14.4941176 45.8352941,17.1294118 45.8352941,20.2352941 C45.8352941,23.3411765 46.6823529,25.9764706 48.3764706,28.0470588 C50.0705882,30.1176471 52.7058824,31.1529412 55.6235294,31.1529412 C59.0117647,31.1529412 61.9294118,29.7411765 63.8117647,27.1058824 L60.8941176,24.1882353 C60.4235294,25.1294118 59.3882353,25.7882353 58.7294118,26.1647059 C58.0705882,26.5411765 56.6588235,26.9176471 55.5294118,26.9176471 C54.0235294,26.9176471 52.7058824,26.4470588 51.8588235,25.4117647 C51.1058824,24.4705882 50.6352941,23.3411765 50.4470588,21.8352941 L64.5647059,21.8352941 L64.5647059,20.1411765 L64.6588235,20.1411765 Z M50.8235294,17.4117647 C51.1058824,16.1882353 51.6705882,15.2470588 52.3294118,14.5882353 C53.1764706,13.7411765 54.2117647,13.3647059 55.4352941,13.3647059 C56.6588235,13.3647059 57.6,13.7411765 58.3529412,14.5882353 C59.0117647,15.3411765 59.5764706,16.2823529 59.8588235,17.4117647 L50.8235294,17.4117647 Z" id="Shape"></path>
            <path d="M122.258824,12.8941176 L118.776471,16.3764706 C118.682353,16.0941176 118.305882,14.8705882 116.988235,13.8352941 C116.517647,13.4588235 115.670588,13.2705882 114.729412,13.2705882 C113.411765,13.2705882 112.376471,13.8352941 111.623529,15.1529412 C110.776471,16.4705882 110.305882,18.1647059 110.305882,20.1411765 L110.305882,30.5882353 L105.882353,30.5882353 L105.882353,9.50588235 L110.305882,9.50588235 L110.305882,11.1058824 C111.811765,9.78823529 113.694118,9.12941176 115.952941,9.12941176 C117.552941,9.12941176 118.964706,9.50588235 120.094118,10.3529412 C120.941176,11.0117647 121.694118,11.8588235 122.258824,12.8941176 Z" id="Shape"></path>
            <path d="M43.2941176,16.3764706 L43.2941176,30.6823529 L38.9647059,30.6823529 L38.9647059,16.8470588 C38.9647059,14.4941176 37.9294118,13.3647059 35.6705882,13.3647059 C34.3529412,13.3647059 33.2235294,13.9294118 32.2823529,15.0588235 C32.0941176,15.2470588 31.9058824,15.5294118 31.7176471,15.8117647 C31.3411765,16.3764706 31.1529412,17.0352941 30.9647059,17.7882353 C30.8705882,18.0705882 30.8705882,18.2588235 30.8705882,18.5411765 C30.8705882,18.9176471 30.7764706,19.2941176 30.7764706,19.6705882 L30.7764706,30.5882353 L26.3529412,30.5882353 L26.3529412,24.8470588 C26.2588235,25.0352941 26.0705882,25.1294118 25.9764706,25.3176471 C23.2470588,28.2352941 20.1411765,30.1176471 16.6588235,30.7764706 C16.5647059,30.7764706 16.4705882,30.7764706 16.3764706,30.8705882 C15.6235294,30.9647059 14.9647059,31.0588235 14.5882353,31.0588235 L13.6470588,31.0588235 C10.2588235,31.0588235 6.49411765,29.8352941 4.23529412,26.9176471 C2.25882353,24.2823529 0.752941176,20.1411765 0.752941176,15.6235294 C0.752941176,11.1058824 2.25882353,6.96470588 4.23529412,4.32941176 C6.49411765,1.50588235 10.0705882,0.188235294 13.4588235,0.188235294 C16.1882353,0.188235294 19.5764706,1.12941176 21.3647059,2.82352941 C21.8352941,3.29411765 22.3058824,3.76470588 22.6823529,4.42352941 L19.7647059,8.09411765 C17.8823529,5.08235294 16,4.61176471 13.4588235,4.61176471 C11.7647059,4.61176471 9.22352941,5.45882353 7.62352941,7.62352941 C6.21176471,9.6 5.45882353,12.5176471 5.45882353,15.5294118 C5.45882353,18.5411765 6.30588235,21.3647059 7.62352941,23.3411765 C8.09411765,23.9058824 9.97647059,26.2588235 13.9294118,26.2588235 C14.5882353,26.2588235 15.3411765,26.1647059 16.1882353,26.0705882 C21.3647059,24.8470588 24.5647059,19.9529412 25.9764706,16.9411765 C26.1647059,16.6588235 26.2588235,16.3764706 26.3529412,16.0941176 L26.3529412,0.658823529 L30.7764706,0.658823529 L30.7764706,11.2 C31.2470588,10.8235294 31.9058824,10.4470588 32.5647059,10.0705882 C33.7882353,9.50588235 35.1058824,9.12941176 36.3294118,9.12941176 C38.5882353,9.12941176 40.2823529,9.69411765 41.5058824,10.9176471 C42.7294118,12.1411765 43.2941176,13.9294118 43.2941176,16.3764706 Z" id="Shape"></path>
        </g>
        <g id="checkr-logo" transform="translate(56.000000, 33.000000)" fill="#043F93" fill-rule="nonzero">
            <path d="M54.5807713,55.9677945 C54.3483319,55.8452964 53.9609329,55.8577962 53.6510136,56.2802896 C51.7465101,58.8827494 44.8208156,67.375118 35.8081651,67.375118 C21.6168647,67.375118 12.079351,55.1878065 12.079351,37.0430873 C12.079351,21.0183352 20.4696637,9.38851519 32.0691399,9.38851519 L32.0716392,9.38851519 C33.9411518,9.38851519 35.7906697,10.0135055 37.2752827,11.148488 L49.3096454,20.3433457 C49.6070679,20.5708422 49.9969662,20.6083416 50.3268802,20.4358443 C50.6547243,20.2675331 50.8604204,19.929452 50.8592414,19.5608578 L50.8592414,9.04602049 C50.8604411,8.66880316 50.6472183,8.32368534 50.3093848,8.15603426 C46.0804872,6.12606567 40.6643991,5.006083 35.0508625,5.006083 C14.4162418,5.00358304 0,19.9433519 0,41.330521 C0,60.8377191 12.7166849,74.9925001 30.2446155,74.9925001 C44.4734062,74.9925001 52.9337006,63.9576709 54.923182,57.0052784 C55.0731429,56.4877864 54.8581989,56.1102923 54.5807713,55.9677945 Z M104.025381,69.3650872 C103.942962,69.2730168 103.897553,69.1536769 103.897915,69.0300924 L103.897915,36.3805975 C103.897915,28.8757137 98.4543338,23.7657927 90.3564449,23.6632943 C83.6157021,23.5882955 77.7097417,28.0507264 74.8654832,30.1981932 C74.4855823,30.4831888 74.1556683,30.7331849 73.8807399,30.9281819 C73.8467998,30.9544712 73.8002769,30.9574415 73.7632706,30.9356818 C73.7258169,30.9140549 73.7028991,30.8739389 73.7032862,30.8306834 L73.7032862,0.981145273 C73.7054632,0.678021822 73.5658408,0.391309524 73.3258846,0.206157264 C73.0943634,0.0200734439 72.78821,-0.0448841211 72.5010996,0.031159972 C72.4011257,0.0436597786 62.3412482,1.67613452 59.0421082,2.42862288 C58.6616504,2.52621821 58.3835455,2.85242122 58.3472894,3.24361027 C58.2939291,3.63982105 58.4962847,4.02659541 58.8521578,4.20859534 C58.9671278,4.28609414 61.6564267,6.10856594 62.476213,6.5635589 C62.7687879,6.72888135 62.9486797,7.03994092 62.9460905,7.37604633 L62.9460905,69.0250924 C62.945984,69.1457517 62.9035249,69.2625429 62.8261218,69.3550873 L59.3020405,71.8850482 C59.0168586,72.1608927 58.9278338,72.5823801 59.0770991,72.9500317 C59.2173958,73.3257246 59.5784511,73.5728231 59.9793639,73.5675222 L76.6750115,73.5675222 C77.0750128,73.5717626 77.4347911,73.3248541 77.5747769,72.9500317 C77.7249833,72.5699769 77.6256188,72.1366416 77.3248421,71.8600486 L73.8557464,69.375087 C73.760545,69.2816219 73.7073321,69.1535189 73.7082849,69.0200925 L73.7082849,35.960604 C73.7082849,35.8181063 73.7732679,35.6756085 73.8832393,35.5831099 C77.029919,32.8431523 80.0491319,31.2931763 83.105835,30.8506831 C85.6051835,30.4881887 88.1470208,31.2631767 90.0715191,32.9756502 C92.0288891,34.7191001 93.1476429,37.2164434 93.1457177,39.8380441 L93.1457177,69.0300924 C93.1477217,69.1494872 93.1069392,69.2656571 93.0307477,69.3575873 L89.4666768,71.9900466 C89.1874605,72.2695183 89.1027772,72.6890987 89.2517328,73.0550301 C89.4016938,73.4350242 89.7466038,73.6700206 90.1514983,73.6700206 L106.82965,73.6700206 C107.227107,73.6619016 107.580701,73.4155391 107.726079,73.0454451 C107.871457,72.675351 107.780102,72.2541208 107.494477,71.9775468 L104.025381,69.3650872 L104.025381,69.3650872 Z M153.972361,57.0527777 C153.59246,56.8477809 153.140078,56.9627791 152.867649,57.3277734 C150.268326,60.8277193 144.869734,66.7026284 137.879056,66.7026284 C127.581741,66.7026284 120.648548,58.5702542 120.203664,45.9879489 C120.199115,45.8574924 120.246796,45.7306129 120.336129,45.6354543 C120.430352,45.5356447 120.561296,45.4787377 120.698535,45.4779568 L153.310033,45.4779568 C153.604164,45.4785873 153.881989,45.3428719 154.062337,45.1104625 C154.245882,44.8845139 154.319182,44.5884901 154.262285,44.302975 C151.55799,30.7381849 144.684782,23.5682958 134.382468,23.5682958 C121.230896,23.5682958 111.308483,35.0531181 111.308483,50.2803825 C111.308483,65.0651537 120.391115,74.9925001 133.907591,74.9925001 C143.380122,74.9925001 150.833179,68.8325954 154.352262,58.0977615 C154.507228,57.7034485 154.34435,57.2554236 153.972361,57.0527777 L153.972361,57.0527777 Z M120.351126,41.4030198 C121.275884,32.6281556 125.714727,27.3857367 132.215533,27.3857367 C138.096499,27.3857367 141.525605,31.5606721 143.682543,41.3455207 C143.71434,41.4920444 143.678026,41.6450874 143.583794,41.7616921 C143.489562,41.8782968 143.347568,41.9458946 143.19767,41.9455131 L120.850995,41.9455131 C120.706824,41.9447656 120.569707,41.8830026 120.473594,41.7755141 C120.380757,41.6749538 120.33608,41.5390666 120.351126,41.4030198 L120.351126,41.4030198 Z M200.030354,59.0402469 C199.730432,58.8877493 199.298045,58.9152489 199.018118,59.3352424 L198.835665,59.6102381 C196.798696,62.6426912 194.011923,66.795127 186.788806,66.795127 C176.591464,66.795127 169.188394,58.005263 169.188394,45.9004502 C169.188394,35.5706101 174.636974,27.4807353 181.597659,27.4807353 C182.032546,27.4807353 182.472431,27.5057349 182.907318,27.5557341 C183.78209,27.6557325 184.626869,28.0032272 185.344182,28.5557186 L195.848944,36.6255938 C196.146366,36.8530902 196.536265,36.8905897 196.871177,36.7205923 C197.198872,36.5524727 197.403857,36.2139705 197.401039,35.8456058 L197.401039,26.9407436 C197.403995,26.5670593 197.194753,26.2240515 196.86118,26.0557573 C193.659515,24.4982814 189.258162,23.5732957 185.086749,23.5732957 C170.503051,23.5732957 160.318206,34.5956252 160.318206,50.3803809 C160.318206,65.1051531 168.905968,75 181.687636,75 C194.079405,75 198.320799,66.5176312 200.435248,60.1402299 C200.595998,59.7238947 200.422635,59.2529161 200.030354,59.0402469 L200.030354,59.0402469 Z M287.272611,24.4907815 C286.050987,23.8619673 284.692275,23.5466895 283.318641,23.5732957 C279.809556,23.5732957 275.418201,26.3007535 270.269543,31.6856702 C270.245777,31.7124209 270.207805,31.7214165 270.174568,31.7081698 C270.142211,31.6963397 270.121064,31.6651147 270.122082,31.630671 L269.844654,24.7107781 C269.824891,24.4193425 269.676504,24.1518152 269.439759,23.9807894 C269.201507,23.8064953 268.89578,23.7529106 268.612475,23.8357916 L255.928282,27.5057349 C255.585163,27.6024022 255.324166,27.8817665 255.250958,28.2307236 C255.169095,28.5757586 255.279973,28.9381121 255.540883,29.178209 L259.712295,33.0156496 C259.812269,33.1106481 259.872254,33.2406461 259.872254,33.3831439 L259.872254,69.0275924 C259.873382,69.154477 259.825995,69.2769972 259.739788,69.3700871 L256.695582,71.8925481 C256.411899,72.1693115 256.323965,72.5903133 256.47314,72.9575316 C256.614653,73.3322701 256.97494,73.5788427 257.375404,73.5750658 L273.398727,73.5750658 C273.803622,73.5750658 274.163528,73.3250259 274.305991,72.9375319 C274.449988,72.5544169 274.341449,72.1221442 274.033562,71.8525487 L270.796906,69.377587 C270.693107,69.2847253 270.63398,69.1518856 270.634448,69.0125926 L270.634448,38.0755713 C270.634448,37.6530779 270.734422,37.2380843 270.929371,36.8755899 C271.664179,35.4931113 272.826377,34.1931314 274.298493,33.118148 C275.770609,32.0381647 277.245225,31.1081791 279.117237,31.5606721 C280.529368,31.9031668 283.408618,34.1056327 285.133168,35.4206124 C285.753007,35.898105 286.245378,36.2730992 286.515308,36.4455965 C286.813498,36.6404378 287.195612,36.6520198 287.50505,36.4755961 C287.813624,36.3010439 288.003127,35.9726834 287.999961,35.6181093 L287.999961,25.6582635 C287.99887,25.1625104 287.717072,24.7101659 287.272611,24.4907815 L287.272611,24.4907815 Z M229.990044,42.7104996 C229.907565,42.5930014 230.115011,42.3805047 230.359947,42.1530082 L247.11308,26.4407513 C247.419774,26.1532818 247.466761,25.6832918 247.223051,25.3407684 C247.063281,25.1188995 246.803989,24.9906259 246.530732,24.9982737 L234.41639,24.9982737 C234.04169,24.9903208 233.695286,25.1968754 233.524071,25.5303465 C233.352857,25.8638177 233.386836,26.2657688 233.611599,26.5657494 L236.783273,30.8506831 C236.933234,31.05318 236.90824,31.3356756 236.725788,31.5081729 L219.105381,48.1679152 L219.105381,31.633171 L219.10788,31.6381709 L219.10788,0.983645234 C219.110439,0.684001698 218.974397,0.399996924 218.739323,0.214238508 C218.50425,0.028480091 218.196539,-0.0381753923 217.905694,0.0336599333 C217.80572,0.0486597012 207.748342,1.67863448 204.444203,2.43112284 C204.061079,2.53018282 203.783022,2.86152262 203.751884,3.25611007 C203.696659,3.64871225 203.899103,4.03254282 204.254253,4.20859534 C204.361725,4.28359418 206.868571,5.97856795 207.873309,6.52605948 C208.168601,6.69051167 208.350679,7.00299653 208.348185,7.34104687 L208.348185,68.927594 C208.347125,69.0465707 208.30471,69.1614713 208.228217,69.2525889 L204.664146,71.8875482 C204.379159,72.1720476 204.296617,72.6017032 204.455889,72.9715914 C204.615161,73.3414797 204.983988,73.5766833 205.386458,73.5650222 L222.072108,73.5650222 C222.471473,73.5696487 222.831062,73.3238691 222.971873,72.9500317 C223.122493,72.569216 223.023143,72.1349467 222.721938,71.8575486 L219.255342,69.375087 C219.160141,69.2816219 219.106928,69.1535189 219.10788,69.0200925 L219.10788,53.0703393 C219.107106,52.9362144 219.160239,52.8074022 219.255342,52.7128448 L222.661954,49.3503969 C222.766657,49.2471201 222.911855,49.1957676 223.058189,49.2102596 C223.204523,49.2247517 223.336834,49.3035871 223.419257,49.4253957 C223.516731,49.5653935 233.079238,63.0076856 237.887985,69.700082 C237.968412,69.8096735 237.949808,69.9629232 237.845496,70.0500766 L235.49111,72.0525456 C235.198295,72.333293 235.1093,72.7657801 235.26747,73.1393734 C235.425639,73.5129667 235.798088,73.7499953 236.203424,73.7356901 L251.75437,73.7356901 C252.249241,73.7356901 252.44419,73.5100231 252.51917,73.322526 C252.699124,72.8800328 252.346715,72.2800421 252.076786,71.9975465 C251.534427,71.2850575 230.292465,43.1179933 229.990044,42.7104996 L229.990044,42.7104996 Z" id="Shape"></path>
        </g>
    </g>
</svg>