<?xml version="1.0" encoding="UTF-8"?>
<svg width="400px" height="140px" viewBox="0 0 400 140" version="1.1" xmlns="http://www.w3.org/2000/svg" xmlns:xlink="http://www.w3.org/1999/xlink">
    <title>Artboard</title>
    <g id="Artboard" stroke="none" stroke-width="1" fill="none" fill-rule="evenodd">
        <g id="svgexport-1" transform="translate(29.000000, 32.000000)" fill="#4C4C4C" fill-rule="nonzero">
            <path d="M35.3607595,22 L1.28797468,22 C0.585443038,22 0,22.5851064 0,23.287234 L0,31.2446809 C0,31.9468085 0.46835443,32.4148936 1.17088608,32.4148936 C1.17088608,32.4148936 1.28797468,32.4148936 1.28797468,32.4148936 L12.0601266,32.4148936 C12.6455696,32.4148936 13.2310127,32.7659574 13.2310127,33.3510638 C13.2310127,33.3510638 13.2310127,33.3510638 13.2310127,33.4680851 L13.2310127,75.712766 C13.2310127,76.4148936 13.8164557,77 14.5189873,77 L22.4810127,77 C23.1835443,77 23.7689873,76.4148936 23.7689873,75.712766 L23.7689873,33.5851064 C23.7689873,33 24.2373418,32.5319149 24.8227848,32.4148936 L35.7120253,32.4148936 C36.414557,32.4148936 37,31.8297872 37,31.1276596 L37,23.1702128 C36.7658228,22.4680851 36.0632911,22 35.3607595,22 L35.3607595,22 Z" id="Path"></path>
            <path d="M86.5742574,22 L78.4950495,22 C77.7821782,22 77.1881188,22.5851064 77.1881188,23.287234 L77.1881188,43.1808511 C77.1881188,43.7659574 76.7128713,44.2340426 76.1188119,44.3510638 L63.7623762,44.3510638 C63.1683168,44.3510638 62.5742574,44 62.5742574,43.4148936 C62.5742574,43.4148936 62.5742574,43.4148936 62.5742574,43.2978723 L62.5742574,23.287234 C62.5742574,22.5851064 61.980198,22 61.2673267,22 L53.3069307,22 C52.5940594,22 52,22.5851064 52,23.287234 L52,75.712766 C52,76.4148936 52.5940594,77 53.3069307,77 L61.029703,77 C61.7425743,77 62.6930693,76.4148936 62.6930693,75.712766 L62.6930693,55.8191489 C62.6930693,55.2340426 63.049505,54.6489362 63.6435644,54.6489362 C63.6435644,54.6489362 63.6435644,54.6489362 63.7623762,54.6489362 L76.1188119,54.6489362 C76.7128713,54.6489362 77.1881188,55.1170213 77.3069307,55.7021277 L77.3069307,75.712766 C77.3069307,76.4148936 77.9009901,77 78.6138614,77 L86.6930693,77 C87.4059406,77 88,76.4148936 88,75.712766 L88,23.287234 C87.8811881,22.5851064 87.2871287,22 86.5742574,22 Z" id="Path"></path>
            <path d="M138.8203,38.3741007 C138.8203,29.3683453 131.272879,22 122.048253,22 L104.317804,22 C103.599002,22 103,22.5847893 103,23.2865365 L103,75.6836587 C103,76.3854059 103.599002,76.9701952 104.317804,76.9701952 L112.464226,76.9701952 C113.183028,76.9701952 113.78203,76.3854059 113.78203,75.6836587 L113.78203,55.8008221 C113.78203,55.2160328 114.141431,54.6312435 114.740433,54.6312435 C114.740433,54.6312435 114.740433,54.6312435 114.860233,54.6312435 L117.136439,54.6312435 C117.975042,54.6312435 118.693844,55.099075 118.933444,55.91778 L127.199667,75.5667008 C127.439268,76.3854059 128.27787,76.9701952 129.236273,76.9701952 L137.622296,76.9701952 C138.101498,77.087153 138.580699,76.8532373 138.8203,76.3854059 C139.0599,75.9175744 139.0599,75.449743 138.8203,74.9819115 L130.074875,55.099075 C129.475874,53.8125385 129.356073,52.9938334 130.673877,52.0581705 C136.424293,48.315519 138.8203,44.1050359 138.8203,38.3741007 Z M122.048253,44.2219938 L114.740433,44.2219938 C114.141431,44.2219938 113.542429,43.8711202 113.542429,43.2863309 C113.542429,43.2863309 113.542429,43.2863309 113.542429,43.169373 L113.542429,33.5788283 C113.542429,32.994039 114.021631,32.5262076 114.620632,32.4092497 L122.048253,32.4092497 C125.282862,32.4092497 128.03827,35.0992805 128.03827,38.2571428 C128.15807,41.4150051 125.642263,44.1050359 122.407654,44.2219938 C122.287854,44.2219938 122.168053,44.2219938 122.048253,44.2219938 L122.048253,44.2219938 Z" id="Shape"></path>
            <path d="M185.660517,66.7021277 L166.177122,66.7021277 C165.568266,66.7021277 164.95941,66.3510638 164.95941,65.7659574 C164.95941,65.7659574 164.95941,65.7659574 164.95941,65.6489362 L164.95941,56.0531915 C164.95941,55.4680851 165.324723,54.8829787 165.933579,54.8829787 C165.933579,54.8829787 165.933579,54.8829787 166.055351,54.8829787 L180.424354,54.8829787 C181.154982,54.8829787 181.763838,54.2978723 181.763838,53.5957447 L181.763838,45.6382979 C181.763838,44.9361702 181.154982,44.3510638 180.424354,44.3510638 L166.177122,44.3510638 C165.568266,44.3510638 164.95941,44 164.95941,43.4148936 C164.95941,43.4148936 164.95941,43.4148936 164.95941,43.2978723 L164.95941,33.7021277 C164.95941,33.1170213 165.446494,32.6489362 166.055351,32.5319149 L185.660517,32.5319149 C186.391144,32.5319149 187,31.9468085 187,31.2446809 L187,23.287234 C187,22.5851064 186.391144,22 185.660517,22 L155.339483,22 C154.608856,22 154,22.5851064 154,23.287234 L154,75.712766 C154,76.4148936 154.608856,77 155.339483,77 L185.660517,77 C186.391144,77 187,76.4148936 187,75.712766 L187,67.7553191 C186.878229,67.1702128 186.269373,66.7021277 185.660517,66.7021277 Z" id="Path"></path>
            <path d="M219.043938,22 L202.288853,22 C201.585842,22 201,22.5851064 201,23.287234 L201,75.712766 C201,76.4148936 201.585842,77 202.288853,77 L219.043938,77 C228.065907,77 235.213181,69.8617021 236.384866,59.7978723 C237.205045,53.0106383 237.205045,46.2234043 236.384866,39.4361702 C235.213181,29.1382979 228.065907,22 219.043938,22 Z M225.839707,59.7978723 C225.371033,63.7765957 222.558991,66.5851064 218.92677,66.5851064 L212.599675,66.5851064 C212.013832,66.5851064 211.42799,66.2340426 211.42799,65.6489362 C211.42799,65.6489362 211.42799,65.6489362 211.42799,65.5319149 L211.42799,33.5851064 C211.42799,33 211.896664,32.5319149 212.482506,32.4148936 L218.92677,32.4148936 C222.558991,32.4148936 225.371033,35.2234043 225.839707,39.2021277 C226.659886,45.9893617 226.659886,52.893617 225.839707,59.7978723 Z" id="Shape"></path>
            <path d="M287.917787,0 L279.962055,0 C279.260079,0 278.675099,0.587002096 278.675099,1.29140461 L278.675099,38.7421384 C278.675099,42.7337526 275.399209,45.4339623 270.602372,45.4339623 C265.805534,45.4339623 262.64664,42.6163522 262.64664,38.7421384 L262.64664,1.29140461 C262.64664,0.587002096 262.06166,0 261.359684,0 L253.286957,0 C252.58498,0 252,0.587002096 252,1.29140461 L252,38.7421384 C252,48.3689727 260.072727,56 270.368379,56 C280.664032,56 288.970751,48.3689727 288.970751,38.7421384 L288.970751,1.29140461 C289.087747,0.704402516 288.853755,0.234800839 288.268775,0 C288.151779,0 288.034783,0 287.917787,0 Z" id="Path"></path>
            <path d="M323.948042,0.0876261285 L306.302678,0.0876261285 C305.592126,0.0876261285 305,0.671800319 305,1.37280935 L305,53.7148168 C305,54.4158258 305.592126,55 306.302678,55 L314.355596,55 C315.066148,55 315.658274,54.4158258 315.658274,53.7148168 L315.658274,33.8528943 C315.658274,33.2687201 316.01355,32.6845459 316.605676,32.6845459 C316.605676,32.6845459 316.605676,32.6845459 316.724101,32.6845459 L324.066468,32.6845459 C333.185213,33.385555 341.238131,26.7259692 341.948683,17.7296867 C342.659234,8.73340414 335.908994,0.788635157 326.790249,0.0876261285 C325.842847,-0.0292087095 324.895444,-0.0292087095 323.948042,0.0876261285 L323.948042,0.0876261285 Z M323.948042,22.2862454 L316.724101,22.2862454 C316.131975,22.2862454 315.539849,21.9357408 315.539849,21.3515666 C315.539849,21.3515666 315.539849,21.3515666 315.539849,21.2347318 L315.539849,11.6542751 C315.539849,11.0701009 315.895124,10.4859267 316.487251,10.4859267 C316.487251,10.4859267 316.487251,10.4859267 316.605676,10.4859267 L323.948042,10.4859267 C327.145525,10.6027616 329.75088,13.173128 329.869306,16.3276686 C329.869306,19.5990441 327.26395,22.1694105 323.948042,22.2862454 L323.948042,22.2862454 Z" id="Shape"></path>
        </g>
    </g>
</svg>