<?xml version="1.0" encoding="UTF-8"?>
<svg width="400px" height="140px" viewBox="0 0 400 140" version="1.1" xmlns="http://www.w3.org/2000/svg" xmlns:xlink="http://www.w3.org/1999/xlink">
    <title>Artboard</title>
    <defs>
        <polygon id="path-1" points="0.00447856686 1.3889266e-05 349.936404 1.3889266e-05 349.936404 75.585329 0.00447856686 75.585329"></polygon>
    </defs>
    <g id="Artboard" stroke="none" stroke-width="1" fill="none" fill-rule="evenodd">
        <g id="bitvavo" transform="translate(25.000000, 32.000000)">
            <mask id="mask-2" fill="white">
                <use xlink:href="#path-1"></use>
            </mask>
            <g id="Clip-2"></g>
            <path d="M0.00201535509,9.68109405 C0.25632331,9.62511196 0.487492003,9.56912988 0.721944978,9.5300917 L9.70938366,8.00894647 C14.7387396,7.09076562 19.5689486,5.51222009 24.2312113,3.42513329 C26.4926637,2.41185754 28.7330668,1.34819791 30.9557795,0.252516528 C31.6488377,-0.0888995521 32.2276178,-0.0775538494 32.9084346,0.246992962 L40.8158669,3.92837492 C45.4877586,5.96149499 50.3967157,7.40015995 55.4271913,8.21040734 L63.1401791,9.54845383 C63.338505,9.58316272 63.5320537,9.63675624 63.7615803,9.68840904 C63.7615803,10.0625187 63.772926,10.4161762 63.7615803,10.7655044 L63.3215611,22.0610471 C63.1909362,24.7052676 63.0043293,27.3463532 62.7617402,29.9848262 C62.5284816,32.5515675 61.9345489,35.0599382 61.3175517,37.5578588 C60.2297078,41.9682022 58.7983579,46.2610578 56.7381425,50.3191619 C55.2549158,53.2273193 53.5517914,56.0179143 51.6437727,58.6666134 C49.8243549,61.2041693 47.9087225,63.6629772 45.615771,65.7873854 C43.865771,67.4108659 42.01045,68.9168586 40.2123054,70.4898806 C38.9442738,71.5966837 37.5811474,72.569727 36.157411,73.463649 C34.9045319,74.2473982 33.5877586,74.8970143 32.238665,75.4892301 C31.8273086,75.6694178 31.4663361,75.5732032 31.1190232,75.3901045 L28.3691832,73.8919492 C26.0660802,72.6566112 24.1055129,70.958488 22.108296,69.3049264 C19.4435487,67.098038 16.9214438,64.7406697 14.7297078,62.0631585 C11.1596929,57.6997654 8.12382171,52.9899552 5.87110258,47.8042973 C4.39108552,44.4069311 3.3061527,40.8800597 2.44283429,37.2892941 C2.01184688,35.4978673 1.61213478,33.6930795 1.2872894,31.8785882 C1.06806355,30.6525059 0.973864363,29.4002239 0.87876946,28.1557795 L0.463904884,21.7901685 L0.21982299,16.6476541 L0.00320963958,10.383184 C-0.00350821071,10.1624653 0.00261249733,9.94092557 0.00261249733,9.67997441 L0.00201535509,9.68109405 Z M3.47290467,12.5306569 C3.47290467,13.894903 3.42685007,15.1618149 3.48193645,16.4269354 C3.63473022,19.9681382 3.81290254,23.5078482 4.01585626,27.0466624 C4.10706974,28.628119 4.21642141,30.2154724 4.44034975,31.7817765 C4.6642781,33.3481553 5.00017061,34.9010237 5.35823203,36.442845 C6.8195884,42.7160482 9.02685007,48.6805289 12.6303796,54.077202 C14.9256451,57.5166667 17.3328748,60.8554383 20.4489123,63.6143101 C21.8875027,64.8878652 23.3710279,66.1093197 24.819919,67.3729473 C26.5480486,68.8804329 28.5400405,69.9834293 30.509341,71.1237471 C30.7825336,71.2815419 31.0890168,71.3812647 31.3715398,71.5223395 C31.7316165,71.7025272 32.0622841,71.6780444 32.4351994,71.5183088 C34.4919812,70.6412561 36.3679782,69.4469716 38.1319364,68.1034016 C39.8820111,66.7723715 41.5558755,65.3322883 43.1927916,63.8633184 C47.9104393,59.6287588 51.4064086,54.4696737 54.2726168,48.8703455 C56.1660802,45.1708253 57.4469503,41.2360311 58.4096929,37.195692 C59.1599275,34.0516635 59.7422158,30.8866603 59.8731393,27.6475368 L60.2352314,20.99791 L60.5210386,13.167733 C60.5276818,12.9706761 60.5210386,12.7723502 60.5210386,12.5799211 C60.3215931,12.5277458 60.1973875,12.4846023 60.0702708,12.4633291 L53.5684368,11.3380891 C48.8843037,10.6015888 44.3555769,9.32273406 40.0108445,7.4321817 C37.6036148,6.38315206 35.2325869,5.24014715 32.8640968,4.1012476 C32.2515035,3.80678183 31.7476647,3.79192792 31.1286522,4.10856259 C29.587428,4.90134357 28.0170186,5.63933675 26.4428023,6.36478993 C22.9651951,7.96580294 19.3948816,9.31609085 15.6820004,10.2724142 C12.4685541,11.0984858 9.18255492,11.5766475 5.9076029,12.1061634 L3.47581574,12.5318511 L3.47290467,12.5306569 Z M80.53344,14.3366389 L85.437396,14.3366389 L85.437396,33.6638942 C85.5998187,33.5837279 85.7044679,33.5574536 85.7770953,33.495948 C86.2686927,33.0658563 86.7652165,32.6416613 87.2384517,32.1914161 C90.3535935,29.2299637 94.0402751,27.4425677 98.3016315,26.9102154 C106.114939,25.9348582 113.338345,29.7775432 117.324195,35.8673491 C118.984698,38.404308 120.037535,41.1687033 120.415974,44.1794946 C120.774334,47.0266688 120.42187,49.8135317 119.470175,52.5001493 C116.852975,59.8976221 111.666197,64.4003732 103.95724,65.8494882 C98.741576,66.8303689 93.8061207,65.9392834 89.3590531,62.9530497 C84.7201536,59.8378332 81.9076136,55.4750373 80.793794,50.0077522 C80.5138836,48.6306675 80.4101301,47.2366389 80.4129817,45.8370868 C80.4278951,35.8174877 80.4450629,25.7981126 80.4646193,15.7788121 C80.4646193,15.5183835 80.4320004,15.2568351 80.4421518,14.9950629 C80.450064,14.7798678 80.4999254,14.5693751 80.5340371,14.3372361 L80.53344,14.3366389 Z M85.5383092,46.4181808 C85.5324909,54.5781297 92.1753999,61.2461186 100.32572,61.2632504 C104.271561,61.2829175 108.062369,59.7282576 110.857667,56.9434101 C113.653263,54.1585626 115.22218,50.3736511 115.216968,46.4278098 C115.216968,38.2168053 108.594423,31.5812113 100.396257,31.5812113 C92.2077202,31.5809128 85.5432395,38.2374813 85.5386116,46.418778 L85.5383092,46.4181808 Z M255.269279,32.6824909 C255.302794,32.1305076 255.36721,31.6843677 255.34743,31.241512 C255.260247,29.2430262 256.797441,28.6858925 258.150043,28.8258477 C259.514886,28.9669226 260.237951,29.7888889 260.285199,31.1726914 C260.291917,31.3776605 260.289006,31.5829281 260.289006,31.7884943 C260.289006,41.694711 260.287513,51.6009277 260.284602,61.5071444 C260.292813,61.9721689 260.2537,62.4371934 260.167712,62.8943805 C259.982821,63.7761356 259.436436,64.3651418 258.535797,64.5266688 C258.079729,64.6164641 257.612092,64.6301237 257.151695,64.5671998 C256.047803,64.3907443 255.399605,63.5784816 255.360269,62.3961399 C255.3381,61.7062913 255.355865,61.015547 255.354671,60.3248027 C255.354671,60.2352314 255.34534,60.1472276 255.334592,59.9591277 C255.138654,60.1148326 254.998699,60.217765 254.868373,60.3320431 C253.235263,61.7651845 251.482576,63.0247814 249.550075,64.0196204 C246.038057,65.8253039 242.317861,66.5166453 238.389486,66.0938686 C234.554713,65.6882598 231.044487,64.4423971 228.024366,62.0153124 C223.981414,58.7683515 221.408253,54.6017914 220.645777,49.4418106 C219.728791,43.2368309 221.421689,37.7750693 225.628183,33.1186287 C227.653764,30.8793453 230.016134,29.0838878 232.849872,27.9682768 C235.527682,26.9131265 238.298273,26.6247068 241.14485,26.9527618 C245.046726,27.4044253 248.598976,28.8616763 252.001045,30.7393901 C252.913329,31.2432288 253.795681,31.8030497 254.691992,32.3404777 L255.269279,32.6824909 Z M240.324675,31.5225212 C232.246609,31.5091811 225.506366,37.9044999 225.390296,46.1764875 C225.271017,54.6498614 232.102623,61.2411922 240.203082,61.3155364 C248.272414,61.3901791 254.997505,54.8076562 255.157614,46.7333973 C255.320036,38.6086799 248.841864,31.5847196 240.324675,31.5231393 L240.324675,31.5225212 Z M349.935882,46.4849861 C349.867061,55.5293026 343.749861,63.3355939 334.938505,65.5048624 C329.771209,66.7767008 324.766336,66.3233205 320.093623,63.6994775 C314.520495,60.5700043 311.119546,55.8060034 310.104031,49.4800277 C308.407923,38.9049371 315.156974,29.7743335 324.781563,27.3501599 C330.780081,25.8386436 336.425837,26.7427916 341.5111,30.3428876 C346.069908,33.5708893 348.774813,38.0124334 349.647089,43.5380145 C349.801152,44.5121774 349.843026,45.5029111 349.936404,46.4849861 L349.935882,46.4849861 Z M315.06367,46.4528897 C315.074792,54.6525485 321.717104,61.2977714 329.915568,61.3123504 C338.130305,61.3268821 344.857262,54.6402325 344.793965,46.4362444 C344.729548,38.0389315 337.87637,31.5700896 329.846748,31.5803035 C321.7127,31.5913628 315.052325,38.2934634 315.06306,46.4528897 L315.06367,46.4528897 Z M285.743613,57.8330028 L287.758968,53.3599595 C290.520751,47.2057368 293.282534,41.0503199 296.044316,34.8937833 C296.576146,33.7035295 297.051994,32.4865536 297.572478,31.2913734 C297.781553,30.7927597 298.029665,30.3113884 298.314801,29.852186 C298.891565,28.9564726 299.731297,28.4995095 300.812721,28.5307102 C301.05531,28.5380252 301.297078,28.5622094 301.540488,28.5683301 C302.30177,28.5887823 303.063724,28.6065472 303.825826,28.6214012 C304.007208,28.6255065 304.18859,28.6214012 304.453871,28.6214012 L304.200235,29.221753 C300.971934,36.4545639 297.743634,43.6873001 294.515334,50.9204095 L289.402005,62.475112 C289.264662,62.801077 289.099104,63.1145767 288.907198,63.4116549 C288.459341,64.0779164 287.801887,64.3578268 287.018138,64.2333227 C286.373448,64.1283749 285.715622,64.1303903 285.071305,64.2391448 C284.998379,64.2513862 284.922841,64.2557901 284.847377,64.2630305 C283.419834,64.3890275 282.845383,64.0560461 282.263169,62.7459906 C277.368469,51.7265515 272.47444,40.7065899 267.580636,29.6862551 C267.300725,29.0564193 267.200181,28.6640222 268.217189,28.6785775 C269.019002,28.6899232 269.821113,28.6628279 270.624419,28.6674557 C271.829153,28.6753679 272.743826,29.1902538 273.304244,30.2720516 C273.646854,30.9336106 273.983941,31.5986778 274.288036,32.2788974 C278.02219,40.6126893 281.75321,48.9476008 285.480348,57.2837065 C285.547675,57.4373214 285.623811,57.5839945 285.743613,57.8324056 L285.743613,57.8330028 Z M177.190915,28.7989763 L177.624739,28.729036 C178.705342,28.7039561 179.786767,28.6579015 180.867296,28.6698443 C181.89453,28.6808914 182.695521,29.1526338 183.224142,30.0378972 C183.525325,30.5309128 183.797324,31.0411708 184.038793,31.5662828 C186.69212,37.5038921 189.340147,43.4450096 191.982427,49.3893367 C193.134688,51.9773512 194.284933,54.5661868 195.433163,57.1556942 C195.506089,57.3207294 195.590062,57.4813606 195.713073,57.7320857 C196.147494,56.8556302 196.56624,56.0738964 196.930721,55.268874 L207.483344,31.5085839 C207.700256,30.9939219 207.962625,30.4994135 208.267093,30.0311794 C208.99486,28.9153444 210.063148,28.4394967 211.375219,28.519663 C212.323107,28.5756451 213.267562,28.6736511 214.291811,28.759341 C214.245457,28.9424398 214.189475,29.122926 214.123864,29.299904 L211.996545,34.2870122 C207.875741,43.6097462 203.748518,52.9307635 199.615174,62.250064 C199.481936,62.5573683 199.323619,62.8536255 199.142013,63.1349541 C198.740211,63.7464278 198.161132,64.1388249 197.43247,64.1662935 C196.373214,64.2053316 195.307763,64.2053316 194.249701,64.1412135 C193.506483,64.0962785 192.915163,63.6860418 192.514257,63.0448603 C192.350341,62.7742802 192.205161,62.492653 192.079761,62.2019194 C187.438548,51.741704 182.798454,41.2815632 178.15948,30.8210493 C178.053039,30.5831627 177.920996,30.3563233 177.809032,30.1212732 L177.190915,28.7983792 L177.190915,28.7989763 Z M155.374771,28.4520367 L155.374771,14.866752 L160.393602,14.866752 L160.393602,28.6663361 L161.005971,28.6663361 C163.693112,28.6663361 166.380252,28.6663361 169.067392,28.6663361 C169.310205,28.6599168 169.553092,28.6672318 169.795159,28.6876093 C171.642568,28.8945937 172.158648,30.1734485 172.017498,31.5179143 C171.894487,32.6891341 171.10514,33.3627106 169.800682,33.4772873 C169.485466,33.5052783 169.16704,33.4942312 168.848987,33.4942312 C166.273811,33.4942312 163.698635,33.4942312 161.123459,33.4942312 L160.61962,33.4942312 L160.61962,64.0379825 L155.486735,64.0379825 L155.486735,33.8484858 C155.064555,33.7568991 154.69164,33.6312007 154.311111,33.6023886 C153.549829,33.5434954 152.782726,33.5434954 152.019055,33.5069951 C150.415728,33.4309341 149.764022,32.7425037 149.783877,31.1464171 C149.785594,30.9041267 149.808061,30.6624334 149.850906,30.4242482 C150.057965,29.3101301 150.644882,28.7727767 151.783483,28.6832054 C152.28441,28.6438686 152.79116,28.6674557 153.294999,28.6493922 C153.798838,28.6316272 154.302676,28.607443 154.802111,28.5701216 C154.979388,28.5566859 155.156366,28.4971956 155.374771,28.4526338 L155.374771,28.4520367 Z M132.660077,64.1225528 L137.486778,64.1225528 L137.486778,28.7978567 L132.660077,28.7978567 L132.660077,64.1225528 Z M138.15065,19.5983579 C138.2291,20.8063766 137.29196,21.9405737 135.928311,22.2799744 C135.13665,22.4768074 134.365142,22.3706654 133.633045,22.0447004 C132.082118,21.3551504 131.567232,19.2791107 132.574909,17.8527618 C133.658723,16.3178823 136.109618,16.1438153 137.40161,17.5168693 C137.941875,18.0895287 138.142216,18.7951269 138.151845,19.5983579 L138.15065,19.5983579 Z M57.0370122,15.2754958 L57.0370122,16.4567179 L56.8530177,21.6574536 L56.1454041,32.3763062 C56.0164961,34.0709213 55.5479633,35.7127639 55.165643,37.3642354 C54.2171572,41.4716784 52.8523139,45.4256558 50.8253146,49.1315952 C48.5384837,53.3080827 45.9044146,57.2433994 42.4029217,60.5117083 C40.5779804,62.2159522 38.6722755,63.843762 36.7079015,65.3861804 C35.3786628,66.4297611 33.8956601,67.2817338 32.3299531,67.9613564 C32.0401152,68.0873534 31.7622201,68.1404244 31.4700682,68.0004692 C30.9493602,67.752058 30.4233525,67.5179036 29.9148113,67.2464278 C27.3268714,65.8603114 25.156334,63.9210173 22.9450416,62.0249414 C19.2167093,58.8249307 16.3493815,54.9505225 13.8369055,50.7647046 C11.4894647,46.8543933 9.94615057,42.6361804 8.82650885,38.2471103 C8.36170825,36.4253785 7.97543186,34.579164 7.65640862,32.7273512 C7.43598848,31.4452868 7.35201536,30.1341118 7.27565579,28.8319684 L6.8143634,19.6660589 C6.75517168,18.3784709 6.73158456,17.0908829 6.69799531,15.806206 C6.68284282,15.2396673 6.71262529,15.2099595 7.25781617,15.1157603 L14.6961932,13.8281723 C18.8814139,13.0444231 22.8549478,11.6113564 26.7086799,9.83127533 C28.1980273,9.14254639 29.6757304,8.43172318 31.1370868,7.68410109 C31.6812327,7.40419066 32.1334186,7.43076349 32.6652485,7.68410109 L40.1248987,11.1328215 C43.7470889,12.6779271 47.5398379,13.6205907 51.4221582,14.2325869 C53.1710386,14.5089891 54.9114097,14.8381638 56.6547665,15.1478567 C56.7850928,15.1813713 56.9128066,15.2239177 57.0370122,15.2754958 L57.0370122,15.2754958 Z M20.674035,18.285466 L17.7946897,18.285466 C16.9074856,18.285466 16.8765835,18.3145767 16.8750906,19.1908083 C16.8683728,21.9899126 16.8631478,24.7890168 16.859341,27.5881211 C16.8555342,32.2719556 16.8526232,36.9557901 16.8503092,41.6396247 C16.8503092,42.9306462 16.9330881,44.2092024 17.2097889,45.4743975 C18.7772873,52.6444338 25.6036682,58.8229153 34.9617083,56.9293773 C40.3919706,55.8304862 44.1258264,52.5476221 46.0461612,47.3004585 C46.8534975,45.0935701 47.2048411,42.8218917 46.8467797,40.4820644 C46.2756131,36.7534336 44.5474835,33.6577735 41.6835893,31.2032949 C38.4993282,28.4727127 34.7876413,27.3238857 30.6411602,27.698891 C27.2970889,28.0012689 24.411399,29.403135 21.9828961,31.7296012 C21.6732032,32.0263809 21.3556729,32.3156963 21.0367242,32.6028471 C20.9201322,32.6944338 20.7985391,32.7795266 20.6728407,32.8582747 L20.674035,18.285466 Z M20.7690552,42.4111324 C20.6929942,36.7866496 25.3283856,31.2817445 32.1838772,31.3377266 C38.1415654,31.3881851 43.0499254,36.4096289 43.0540322,42.5676583 C43.0572403,48.6653764 38.040723,53.5879932 31.9135956,53.6611431 C27.0670399,53.7195138 20.8043613,49.9237791 20.7690552,42.4105353 L20.7690552,42.4111324 Z" id="Fill-1" fill="#1956D8" mask="url(#mask-2)"></path>
        </g>
    </g>
</svg>