<?xml version="1.0" encoding="UTF-8"?>
<svg width="400px" height="140px" viewBox="0 0 400 140" version="1.1" xmlns="http://www.w3.org/2000/svg" xmlns:xlink="http://www.w3.org/1999/xlink">
    <title>Artboard</title>
    <defs>
        <polygon id="path-1" points="0.0018952607 0 1128.20131 0 1128.20131 1599.0333 0.0018952607 1599.0333"></polygon>
    </defs>
    <g id="Artboard" stroke="none" stroke-width="1" fill="none" fill-rule="evenodd">
        <g id="GREE_logo-(1)" transform="translate(-700.000000, -710.000000)">
            <g id="g3356" transform="translate(806.000000, 774.000000) scale(-1, 1) rotate(-180.000000) translate(-806.000000, -774.000000) translate(777.000000, 741.000000)" fill="#00A0DC" fill-rule="nonzero">
                <polygon id="path3358" points="29.4957627 0 0.998923162 16.4893179 0.994990394 49.4640113 29.4800316 65.9750128 57.9729383 49.4876661 57.9886694 16.5129727"></polygon>
            </g>
            <g id="g3362-Clipped" transform="translate(564.500000, 800.000000) scale(-1, 1) rotate(-180.000000) translate(-564.500000, -800.000000) ">
                <mask id="mask-2" fill="white">
                    <use xlink:href="#path-1"></use>
                </mask>
                <g id="path3366"></g>
                <g id="g3362" mask="url(#mask-2)">
                    <g transform="translate(843.957883, 800.344726)">
                        <g id="g3368" transform="translate(0.127805, 0.573237)">
                            <path d="M29.1733047,29.0779256 L29.1733047,22.0028932 L37.9464665,22.0028932 C37.9464665,21.2165674 37.9540476,10.1453288 37.9540476,9.62111159 C35.107366,8.09784287 30.9283161,7.21844958 26.4157004,7.21844958 C15.8685746,7.21844958 7.91416547,15.3837018 7.91416547,26.2289192 C7.91416547,36.0997765 15.0441362,45.3115637 25.3448781,45.3115637 C29.1733047,45.3115637 34.6657702,44.4264724 39.0381367,40.198547 L44.3202283,45.8414789 C40.9371879,49.353354 34.3113565,53.1045457 25.8452269,53.1045457 C8.83715743,53.1045457 0.0450430389,39.1786027 0.0450430389,26.2289192 C0.0450430389,14.9031693 7.28493891,0.15291385 26.5445781,0.15291385 C38.2610798,0.15291385 45.4194795,4.82338491 45.4194795,4.82338491 L45.4118984,29.0855229 L29.1733047,29.0779256 Z" id="path3370" fill="#00A0DC" fill-rule="nonzero"></path>
                        </g>
                        <g id="g3372" transform="translate(54.857564, 1.168507)">
                            <path d="M7.5810428,28.4900634 C7.5810428,29.2858859 7.57346176,43.0959693 7.57346176,43.8841943 L16.9948027,43.8841943 C21.7102113,43.8841943 27.058637,42.5508594 27.058637,36.1937766 C27.058637,31.0237797 23.9542,28.5014594 16.9985932,28.4900634 L7.5810428,28.4900634 Z M34.9542931,36.1937766 C34.8633206,40.6135351 33.3888078,50.5736612 18.8597392,50.5698636 L0.0966582957,50.5641645 L0.0966582957,0.727446286 L7.59241436,0.727446286 C7.59241436,0.727446286 7.5810428,20.5774231 7.5810428,21.397937 C8.32588026,21.397937 15.4103648,21.3941383 15.8064742,21.3941383 C16.0585439,21.0389622 30.7581859,0.738842311 30.7581859,0.738842311 L40.1188785,0.738842311 C40.1188785,0.738842311 24.0565441,21.6885356 23.2794872,22.7293726 C30.0834731,23.8157937 35.1097045,29.7949083 34.9542931,36.1937766" id="path3374" fill="#00A0DC" fill-rule="nonzero"></path>
                        </g>
                        <g id="g3376" transform="translate(99.744160, 1.786344)">
                            <path d="M34.1146926,49.9706387 L0.636807595,49.955444 L0.636807595,0.120625111 L34.1146926,0.139618487 L34.1146926,7.22414759 L8.11361106,7.22414759 C8.11361106,8.01997003 8.10223949,21.1785806 8.10223949,21.9782018 L27.814846,21.9782018 L27.814846,29.0665295 L8.10223949,29.0665295 L8.10223949,42.8671163 L34.1146926,42.8671163 L34.1146926,49.9706387 Z" id="path3378" fill="#00A0DC" fill-rule="nonzero"></path>
                        </g>
                        <g id="g3380" transform="translate(142.650209, 1.786344)">
                            <path d="M34.1146926,49.9706387 L0.625436031,49.955444 L0.625436031,0.120625111 L34.1146926,0.139618487 L34.1146926,7.22414759 L8.1211921,7.22414759 C8.1211921,8.01997003 8.10982054,21.1785806 8.10982054,21.9782018 L27.8224271,21.9782018 L27.8224271,29.0665295 L8.10982054,29.0665295 C8.10982054,29.856654 8.10223949,42.0807905 8.10223949,42.8671163 L34.1146926,42.8671163 L34.1146926,49.9706387 Z" id="path3382" fill="#00A0DC" fill-rule="nonzero"></path>
                        </g>
                    </g>
                </g>
            </g>
        </g>
    </g>
</svg>