<svg height="140" viewBox="0 0 400 140" width="400" xmlns="http://www.w3.org/2000/svg"><path d="m132.9302 10.4366708h-7.333434l5.185761-5.16881438c-.407774-.57068818-.862713-1.10621181-1.35833-1.60003678-.495368-.49382496-1.031163-.94595125-1.603893-1.35246589l-5.185511 5.16881683v-7.3095746c-.678541-.11335703-1.376547-.17329303-2.086283-.17459598h-.014474c-.710983.00130295-1.407742.06123895-2.086283.17459598v7.3095746l-5.185512-5.16881683c-.572729.40651464-1.109772.85864093-1.604142 1.35246589l-.002495.00261864c-.495368.49250318-.949059 1.02672996-1.355585 1.59741814l5.185761 5.16881438h-7.333435s-.175188 1.3720158-.175188 2.0821402v.0091029c0 .7088025.060143 1.4058835.175188 2.083437h7.333435l-5.185761 5.1675175c.815797 1.1414013 1.817013 2.1407478 2.962222 2.9525002l5.185512-5.1688393v7.3095871c.678541.1133745 1.373802.173229 2.083787.1747254h.018218c.709735-.0014964 1.407742-.0613509 2.085035-.1747254v-7.3095871l5.187009 5.1688393c.571232-.4052153 1.107027-.8586385 1.602395-1.3524634h.001497c.49412-.493825.949059-1.0293486 1.356833-1.6000368l-5.187009-5.1675175h7.334682c.113798-.6762317.173941-1.370719.173941-2.0795216v-.0169338c0-.7088026-.060143-1.401993-.173941-2.0782247zm12.268642 53.2350592c-2.094268-1.9609847-3.191064-5.0542178-3.292883-9.2796996h26.414439c.049662-.5524076.100571-1.2170424.150233-1.9986431.051159-.7793561.077362-1.5205549.077362-2.2255916 0-2.5655156-.354369-4.9407436-1.060361-7.1284273-.70699-2.1876838-1.741148-4.073102-3.101973-5.6575018-1.363321-1.5843998-3.05356-2.8286262-5.071715-3.7341756-2.018403-.9055495-4.364723-1.3589477-7.03796-1.3589477-3.129425 0-5.841843.5406861-8.137253 1.6220583-2.29541 1.0828685-4.200017 2.5408256-5.71382 4.3753675-1.512555 1.8372852-2.636553 3.9987826-3.367251 6.4874848-.732195 2.4911962-1.098044 5.1686897-1.098044 8.0339768 0 2.9186574.379075 5.5961508 1.135727 8.0352237.756901 2.4393222 1.955766 4.5526866 3.594845 6.3375991 1.63933 1.7851619 3.72162 3.1675525 6.244625 4.1486683 2.521507.9811158 5.548864 1.471175 9.082318 1.471175 2.420937 0 4.627506-.1773191 6.622202-.5277176 1.990953-.3531419 3.820943-.8796125 5.486226-1.5843998-.05091-1.0566822-.201142-2.1238389-.453442-3.2067074-.253549-1.0813722-.580466-1.9986432-.984496-2.7530599-3.229996 1.2571949-6.633931 1.8866653-10.217047 1.8866653-4.087468 0-7.177712-.9823628-9.271732-2.9433474zm-70.7252437-30.477936c.5033532-.0990094 1.0209311-.1745758 1.5504876-.2254522.5305548-.0496293 1.0718404-.0755663 1.6273507-.0755663.5033532 0 1.033908.025937 1.5894183.0755663.5542625.0508764 1.0850668.1264428 1.5896678.2254522.0496615.1027503.1137972.4154903.1881647.9444549.0758649.5277176.1517297 1.0933431.2275945 1.696627.0758649.603284.1514802 1.1831249.227345 1.7355325.0758648.5536546.1125495.9055495.1125495 1.0566822.504601-.8052931 1.1097728-1.5843998 1.8170127-2.3388165.7057427-.7544167 1.5527336-1.434514 2.5357323-2.036551.9832482-.6045309 2.093021-1.0813722 3.3308157-1.433267 1.2340514-.3518949 2.6091016-.5289646 4.1241523-.5289646 2.2694567 0 4.3764528.3778318 6.3204893 1.1322486 1.9410413.7544167 3.6050773 1.9230767 4.9933533 3.5062295 1.387029 1.5856468 2.471846 3.5975078 3.254951 6.0353336.781608 2.4418162 1.172411 5.3185754 1.172411 8.6385077 0 6.6386176-1.803786 11.8322466-5.41036 15.5781438-3.60907 3.7473935-8.7164708 5.6210902-15.3269434 5.6210902-1.1097728 0-2.2442516-.0755663-3.4051832-.2266991-1.1621794-.1511327-2.1698841-.3531418-3.0273564-.6032839v17.7279196c-.6054214.0990094-1.2485256.1745758-1.9295622.2254521-.6810367.04938-1.3006827.0755664-1.8549452.0755664-.5555103 0-1.1724112-.0261864-1.8534479-.0755664-.6810366-.0508763-1.2994349-.1264427-1.8536974-.2254521zm-15.5158565 13.2029158c0-2.9680375-.7569015-5.0295279-2.2704549-6.1864664-1.513803-1.1556916-3.7086426-1.7342855-6.5845188-1.7342855-1.7673513 0-3.4181602.1394112-4.9569187.4144927-1.5397567.2773261-3.0418306.6409425-4.5032269 1.0930937-.9595404-1.6599661-1.4379381-3.6443938-1.4379381-5.9597673 1.7136968-.5524076 3.6053266-.9798688 5.6758877-1.2821343 2.0680654-.3022654 4.0602661-.4521512 5.9790974-.4521512 5.0445126 0 8.8796798 1.1454664 11.5032555 3.4321596 2.6235758 2.289187 3.9359876 5.9480457 3.9359876 10.9760772v24.2166514c-1.7658539.4027712-3.9097843.8170146-6.4325396 1.2444758-2.5242528.4259649-5.098167.6409425-7.720495.6409425-2.4730939 0-4.7046181-.2254522-6.6980665-.6788504-1.9934485-.4533982-3.6836871-1.1803815-5.0704664-2.1889307-1.3882766-1.0033118-2.460117-2.2879401-3.2170184-3.8464029-.7569015-1.5582134-1.1347284-3.4436317-1.1347284-5.6587487 0-2.1602504.4404653-4.0598842 1.3241409-5.6951603.8824278-1.6325328 2.0810424-2.9914804 3.5948453-4.073102 1.513803-1.0801252 3.2549509-1.8866653 5.222196-2.4131359 1.9687425-.5289646 4.0368079-.7933221 6.206692-.7933221 1.6143738 0 2.9385147.0391548 3.9724226.1132248 1.0341576.0770627 1.9046067.1643506 2.6118467.264607zm-58.9577418 24.4428517 20.4353743-31.6852521h-18.01313233c-.15165481-.9055494-.22746974-1.9101083-.22746974-3.0176668 0-1.0554352.07581493-2.037798.22746974-2.9433474h29.13856093l.3778269.9823628-20.5856491 31.7595715h19.2994406c.1502324 1.0073021.227345 2.036551.227345 3.0919862 0 1.0085491-.0771126 1.9622316-.227345 2.869028h-30.27333419zm56.0818655-17.4264023c1.1609317.1015033 2.1189748.2005127 2.8758763.3010185v12.2971169c-.9595405.2516385-2.0560868.4391828-3.2928833.5643785-1.2352992.1276897-2.4339137.1900382-3.5945958.1900382-.9073834 0-1.8666743-.04938-2.8758762-.1511327-1.009202-.1015033-1.9295623-.3778318-2.762079-.8299831-.8327664-.4533982-1.5267799-1.1060622-2.0810424-1.9622316-.5570076-.8534261-.8327663-2.036551-.8327663-3.5453844 0-2.3622595.8182921-4.122482 2.460117-5.2806675 1.637832-1.155941 4.0223337-1.7355325 7.1517582-1.7355325.806563 0 1.7908094.0521233 2.9514915.1523797zm28.834877 12.8991539c-1.0092019-.1498857-1.9946962-.4012748-2.9514915-.7544167v-15.690371c0-1.9126022.2770065-3.5568566.8340141-4.9419906.5542625-1.3823906 1.2849607-2.5278571 2.1933423-3.4334065.9086311-.9055494 1.9412913-1.5843998 3.1032212-2.0350546 1.1594343-.4533982 2.3712753-.6800973 3.6327777-.6800973 3.37898 0 5.814391 1.1828755 7.3032384 3.545135 1.4875993 2.3650028 2.2327723 5.5584924 2.2327723 9.581965 0 2.5148886-.316436 4.6893544-.946564 6.5238963-.631375 1.8372853-1.4888473 3.3578402-2.5736645 4.5644081-1.0838191 1.2078149-2.3830044 2.1028898-3.8968074 2.6787405-1.5138029.5785939-3.1778383.8678909-4.994851.8678909-1.6156216 0-2.9267856-.0768133-3.9359876-.2266991zm33.5280155-27.2335701h-4.920234c-.100571-.4025218-.176436-.8676415-.226097-1.3953591-.051159-.5277176-.075865-1.0437137-.075865-1.5467413 0-.5015312.024706-1.0187743.075865-1.5464919.049661-.5277176.125526-.9928373.226097-1.3968555h12.262902v38.7029485c-.557007.0990094-1.173908.1733288-1.854945.2242052-.681037.04938-1.300683.0755663-1.854945.0755663-.504601 0-1.098044-.0261863-1.777833-.0755663-.682284-.0508764-1.300682-.1251958-1.854945-.2242052zm42.686199 9.732599c0-1.4083277-.189662-2.7530598-.567489-4.0376881-.379074-1.2821343-.934585-2.4001674-1.665283-3.3563438-.733443-.9551788-1.665283-1.722564-2.801259-2.299911-1.134728-.5783446-2.485073-.8688885-4.048537-.8688885-3.078266 0-5.436564.9314864-7.077141 2.7922147-1.63908 1.8604788-2.635305 4.4509338-2.989424 7.7706167zm17.259251-15.8430002c-.504601.0508764-1.035156.1264428-1.589419.2254522v38.7017015c.605172.0990094 1.248276.1745758 1.930561.2254521.681037.0496294 1.298187.0755664 1.854945.0755664.553015 0 1.172661-.025937 1.85245-.0755664.681036-.0508763 1.299185-.1264427 1.854695-.2254521v-19.238c0-2.613898.290233-4.7519523.870699-6.4106715.579218-1.6599661 1.362073-2.9680374 2.345072-3.9244632.984246-.9551789 2.092771-1.6208113 3.330816-1.9986431 1.236547-.3765849 2.535982-.5656255 3.898055-.5656255h1.020931c.428736 0 .844495.0508763 1.249524.1498857.10082-.602037.189662-1.2312579.265527-1.8854182.074367-.652664.1123-1.2821343.1123-1.8854183 0-.5536546-.024706-1.0813722-.075865-1.5843998-.049662-.5015312-.126774-.9811158-.226097-1.434514-.301962-.048133-.670556-.0860409-1.098044-.1119779-.428736-.0261863-.845743-.0379079-1.248276-.0379079-2.725644 0-4.956919.6294704-6.698067 1.8854183-1.7399 1.2574443-3.141153 2.7428347-4.200017 4.4521808 0-.85592-.077112-1.8983867-.227594-3.1321386-.15148-1.230011-.30321-2.2255916-.453442-2.9800083-.45494-.0990094-.959541-.1745758-1.513803-.2254522-.556758-.04938-1.111021-.0755663-1.665283-.0755663-.555511 0-1.086315.0261863-1.589668.0755663zm-55.190671-17.7954305c.310946-.823449.48239-1.7133863.48239-2.6437006v-.0117215c0-.9303143-.171444-1.8215236-.48239-2.6437006-.82503-.31009643-1.718938-.48078165-2.652275-.48078165h-.011978c-.933338 0-1.827245.17068522-2.653523.48078165-.309698.822177-.481143 1.7133863-.48239 2.6437006v.0117215c.001247.9303143.172692 1.8215485.483638 2.6437006.82503.3101214 1.718937.4808066 2.652275.4808066h.011978c.933337 0 1.827245-.1706852 2.652275-.4808066z" fill="#ff4a00" fill-rule="evenodd" transform="translate(101 29)"/></svg>