<?xml version="1.0" encoding="UTF-8"?>
<svg width="400px" height="140px" viewBox="0 0 400 140" version="1.1" xmlns="http://www.w3.org/2000/svg" xmlns:xlink="http://www.w3.org/1999/xlink">
    <title>Artboard</title>
    <g id="Artboard" stroke="none" stroke-width="1" fill="none" fill-rule="evenodd">
        <g id="Decisiv-Logo-096126" transform="translate(24.000000, 32.000000)" fill="#00607E" fill-rule="nonzero">
            <path d="M291.170224,14.3864641 L306.032319,14.3864641 L320.587711,47.1273481 L335.293856,14.3864641 L350,14.3864641 L320.6241,76 L291.170224,14.3864641 Z M211.328699,14.3864641 L196.773307,14.3864641 L196.773307,65.7337017 L211.328699,65.7337017 L211.328699,14.3864641 Z M286.143415,14.3864641 L271.588023,14.3864641 L271.588023,65.7337017 L286.143415,65.7337017 L286.143415,14.3864641 Z M241.801453,14.2814917 C222.645517,14.2814917 218.642784,25.1041436 218.892305,28.5052486 C219.994356,43.4690608 249.869299,43.9151934 249.879695,51.5991713 C249.879695,54.0030387 244.343448,56.1549724 237.03976,54.2234807 C231.960968,52.869337 227.277251,49.4629834 227.277251,49.4629834 L216.303524,57.7348066 C216.303524,57.7348066 227.646334,68.001105 245.559863,66.0118785 C260.900206,64.3060773 266.587206,56.7848066 266.582011,50.460221 C266.576809,44.1356354 260.395966,40.4563536 260.395966,40.4563536 C256.076134,37.3911602 245.840574,34.158011 245.840574,34.158011 C235.002005,31.4497238 235.724576,28.7624309 235.724576,28.7624309 C236.005287,25.5082873 242.102957,25.718232 242.102957,25.718232 C247.909519,25.5922652 254.2879,30.3422652 254.2879,30.3422652 L265.303213,22.6320442 C265.303213,22.6320442 257.31854,14.2814917 241.801453,14.2814917 L241.801453,14.2814917 Z M164.096452,55.0160221 C154.048033,55.0160221 145.902212,48.4604972 145.902212,40.3671271 C145.902212,32.2737569 154.048033,25.718232 164.096452,25.718232 C169.814642,25.718232 174.950616,27.8596685 178.287959,31.2030387 L191.122696,25.4925414 C185.196572,18.669337 175.304104,14.1922652 164.091253,14.1922652 C145.948997,14.1922652 131.242852,25.9124309 131.242852,40.3671271 C131.242852,54.8218232 145.948997,66.5472376 164.091253,66.5472376 C175.007798,66.5472376 184.66634,62.301105 190.644447,55.7770718 L178.563472,49.2477901 C175.241723,52.7538674 169.986187,55.0160221 164.096452,55.0160221 Z M114.394986,43.6370166 L80.2573928,43.6370166 C82.0924119,50.3814917 89.0374133,55.4044199 97.3287885,55.4044199 C102.397184,55.4044199 107.886646,53.7878453 111.088832,50.7856354 L123.200998,55.7140884 C116.172823,62.6160221 107.288835,66.0748619 97.0324823,66.0748619 C80.2365994,66.0748619 66.6221093,54.4439227 66.6221093,40.0941989 C66.6221093,25.7444751 80.2365994,14.1187845 97.0324823,14.1187845 C111.535891,14.1187845 123.658453,22.7895028 126.704689,34.3889503 C127.196789,36.2500411 127.446679,38.1679265 127.448054,40.0941989 C127.444955,41.2808827 127.349356,42.4654796 127.162144,43.6370166 L114.394986,43.6370166 Z M112.83548,34.3889503 C110.366261,28.7099448 104.720848,24.7892265 97.3443835,24.7892265 C89.9679187,24.7892265 84.3484977,28.7099448 81.8532876,34.3889503 L112.83548,34.3889503 Z M62.5933847,33.1765193 L62.5933847,33.1765193 C62.5933847,51.4994475 49.4467466,66.3530387 26.6155743,66.3530387 L0,66.3530387 L0,0 L26.0801438,0 C48.8645309,0 62.5777897,14.8535912 62.5777897,33.1765193 L62.5933847,33.1765193 Z M47.7000995,33.1765193 C47.7000995,21.629558 39.9961384,12.3132597 28.0555184,12.3132597 L14.8880869,12.3132597 L14.8880869,54.0607735 L28.8300732,54.0607735 C40.7862882,54.0607735 47.6845044,44.718232 47.6845044,33.1975138 L47.7000995,33.1765193 Z" id="Shape"></path>
        </g>
    </g>
</svg>