<svg height="140" viewBox="0 0 400 140" width="400" xmlns="http://www.w3.org/2000/svg"><g transform="translate(94 21)"><path d="m105.580645 86.6129032 11.516129-14.8064516c.096774-.0967742.096774-.2903226.096774-.3870968l-10.16129-70.06451609c0-.29032258-.290323-.48387097-.580645-.48387097h-13.2580646c-.1935484 0-.3870968.0967742-.483871.29032258l-31.6451613 64.45161288c-.1935484.3870968-.7741935.3870968-.9677419 0l-31.9354839-64.45161288c-.0967742-.19354838-.2903226-.29032258-.4838709-.29032258h-13.3548388c-.2903225 0-.4838709.19354839-.5806451.48387097l-12.77419356 87.96774189c-.0967742.2903226.19354838.5806452.58064516.5806452h15.483871c.2903225 0 .4838709-.1935484.5806451-.483871l7.7419355-56.4193548c.0967742-.5806452.7741936-.6774194 1.0645161-.1935484l28.1612904 56.8064516c.0967742.1935484.2903225.2903226.4838709.2903226h10.9354839c.1935484 0 .3870968-.0967742.483871-.2903226l27.7741935-56.032258c.2903226-.483871.967742-.3870968 1.0645161.1935483l7.5483874 54.6774194c.096774.483871.677419.6774194.967742.2903226z"/><path d="m199.83871.87096774h-19.451613c-.193549 0-.290323.0967742-.483871.19354839l-23.322581 30.58064517c-.193548.2903226-.677419.2903226-.870968 0l-23.419354-30.58064517c-.096775-.09677419-.290323-.19354839-.483871-.19354839h-19.451613c-.483871 0-.67742.58064516-.483871.87096774l33.483871 43.35483872c.193548.1935484.193548.483871 0 .6774193l-33.483871 43.3548388c-.290323.3870967 0 .8709677.483871.8709677h19.451613c.193548 0 .290322-.0967742.483871-.1935484l23.419354-30.5806451c.193549-.2903226.67742-.2903226.870968 0l23.419355 30.5806451c.096774.0967742.290323.1935484.483871.1935484h19.451613c.483871 0 .677419-.5806452.483871-.8709677l-33.483871-43.3548388c-.193549-.1935483-.193549-.4838709 0-.6774193l33.483871-43.35483872c.096774-.38709677-.096774-.87096774-.580645-.87096774z"/><path d="m207.774194 89.9032258c-2.322581 0-4.258065-1.9354839-4.258065-4.2580645 0-2.4193548 1.935484-4.2580645 4.258065-4.2580645 2.419354 0 4.258064 1.9354838 4.258064 4.2580645 0 2.3225806-1.935484 4.2580645-4.258064 4.2580645zm0-7.8387097c-1.935484 0-3.580646 1.5483871-3.580646 3.5806452 0 1.9354839 1.548387 3.5806452 3.580646 3.5806452 2.032258 0 3.580645-1.6451613 3.580645-3.5806452 0-2.0322581-1.645162-3.5806452-3.580645-3.5806452zm1.16129 6-1.258065-1.9354838h-.774193v1.9354838h-.774194v-4.9354838h2.032258c.870968 0 1.645162.5806451 1.645162 1.4516129 0 1.0645161-.967742 1.4516129-1.258065 1.4516129l1.354839 1.9354838h-.967742zm-.870968-4.2580645h-1.258064v1.7419355h1.258064c.387097 0 .870968-.2903226.870968-.8709677 0-.5806452-.387097-.8709678-.870968-.8709678z"/></g></svg>