<svg height="218" viewBox="0 0 800 218" width="800" xmlns="http://www.w3.org/2000/svg"><path d="m53.81 393.21v58.68l-26.31-.2.2-139.64h40.47c7.83 0 16.59-.63 22.83 1.21 5.52 1.63 11 4.88 14.16 8.91 6 7.63 8.55 18.27 8.55 29.14 0 13.56-3.42 26.67-14.21 34.46s-22.39 7.62-45.69 7.44zm528.57-75.48h24.48v28.94h10.32v17.8h-10.32v49.38 14.57c0 5.86 5.84 5 10.36 4.65-.07 6.41.05 12.7 0 19.11-12.79 1-25.61 2.25-31.75-5.95-3.84-5.14-2.83-15.78-2.83-24.69v-57.07l-9.92-.2v-17.61h9.72v-28.93zm-528.57 14.77v40.27c16.88.22 28.11 1.31 32-12.14.91-3.17 1.18-8.56.92-12.75-.28-4.64-.93-7.66-3.15-10.52-4.76-6.15-18.25-4.75-29.74-4.86zm139 119.16c-3.23 0-21.35.1-22.91 0-1.65-2.6-1.68-6.88-1.57-10.74-1.94 2.2-6.65 10.63-17 13a39 39 0 0 1 -11.66.1c-15.13-2.89-19.52-10.72-20.89-26.91-.42-4.86-.17-10.89 1-14.78 4-13 15.22-18.6 27.12-23.72 7-3 17.71-6 19.83-13.11.71-3.78.49-9-2.19-11.25-2.66-2.41-11-2.17-15.62-1.09-4.82 1.69-7 8.08-6.27 14.57h-23.28c-.23-18.47 6.11-27.94 20-32.18 22-4.22 39.81-1 47 8.79 5.66 7.29 4.41 19.15 4.41 32.29v51.4c.34 7 1.4 10 2 13.53zm112.31.23h-24.26v-105.23h24.28c.07 3.58 0 7.36 0 10.93.14-.07.43-.34.57-.4a21.7 21.7 0 0 1 14-12c5.86-1.77 13-1.66 19.93.2 6.95 2.7 11 7.54 11.46 12.06.13-.07.43-.18.57-.24 5.33-9.78 12.95-13.16 23.93-13.37 25.12.86 26.12 18.61 26.05 24l-.2 84.1-24.29-.2v-67.84c0-10.24.81-21.46-11.53-21.45-13.48.47-12.14 12.52-12.14 27.72q-.11 30.85-.2 61.72l-24.29-.2v-59.3c0-8.09 1.4-19.95-1.82-25.29-1.92-3.19-6.88-5.62-12.95-4.45-9.78 1.87-9.11 13.13-9.11 24.69zm180.1-47.55h-48.54c-.2 11.18-1.52 25.59 5.26 30a14.17 14.17 0 0 0 8.9 1.41c9.08-1.61 9.9-9 9.72-19.63h24.28c.49 27.26-11.37 42.13-44.32 37.85-4.48-.59-9.2-1.87-12.54-4.05-17.15-11.23-15.58-29.38-15.58-56.92 0-13.91-1-25.39 4.85-34.8 5.53-8.87 15.35-14.36 31.21-14.32 9.68 0 19.48 1.7 26.46 7.23 11.68 9.25 10.4 32.29 10.32 53.23zm81.56 47.55h-24.27v-65.77c0-11.08.8-21.72-10.2-21.77-13.17-.06-11.86 13.8-11.85 25l-.21 62.53-24.28-.2v-105h24.48v10.73l.41-.2c5.33-16.78 34.42-17.45 42.5-3 4.31 7.7 3.44 20 3.44 32v65.77zm205.6-73.05h-24.27c0-7.53.07-16.48-10.9-16.48-6.8 0-10.51 3.6-10.57 8.29a8.88 8.88 0 0 0 .63 4.55c2.44 4.68 8.36 7.7 12.55 10.52 3.7 2.5 8.14 5.73 12.52 8.68 15.73 10.6 20.16 17.28 20.16 29.6 0 8.26-2 14-3.54 16.73-8 14.55-33.7 15.75-45.33 12.35-13.38-3.92-23.78-15.55-21.66-36h24.29c-.69 7.13-.57 14.23 3.59 17.4 1.61 1.22 3.87 1.5 6.86 1.5 7.1 0 13.38-4.05 10.59-13.44-1.66-5.6-7.81-7.89-12.14-10.93-11.74-8.23-25.76-15.59-31-30.35-2.46-7-2.72-17.38 1-24.08 7.14-12.82 33.11-16.94 51.61-10.12 8.4 3.1 16.12 13.84 15.58 31.77zm-522.89-32.17h24.89q-10.92 45.12-21.85 90.25c-1.38 6.64-3.55 14.32-5.33 21.92-2.13 9.07-4.23 17.53-8.14 21.76-5 6.37-13.69 9-30.85 6.51q.1-9.42.2-18.82c5 .16 12.94 1.3 14.17-2.84 1.27-4.95-5.17-27.84-6.68-33.39q-10.43-42.6-20.84-85.19v-.21h25.69q2.53 13.05 5.06 26.11c3.67 18.73 7.23 38 9.11 57.47l.4-.2a184.8 184.8 0 0 1 3.68-26.51q5.26-28.42 10.52-56.86zm374.37 0h24.49v65.16c0 11.59-1.5 23 8.5 24.08 8.87 1 11-5.83 12.14-11.74.06-2.77.13-5.53.2-8.3q.1-34.61.2-69.21h24.28v105.23l-23.27-.2v-15.58l-.4.2c-2.09 7.3-6.5 13.26-11 15.46-12.48 6.1-27.74 2-31.71-5.75s-3.44-20.75-3.44-32.38v-67zm-187.18 38.85h24.32c0-12 1.26-21.06-8.45-22.79-2.68-.48-7.36-.45-9.76.53-6.81 2.76-6.24 12.57-6.07 22.26zm-270.56 11.13c-5.88 6.57-18.58 8.43-22.06 17.2-2.87 7.23-1.12 18.89 4.66 21.25 15.67 6.41 17.8-10.31 17.8-23.27 0-2.65.64-14-.4-15.18z" fill="#134e78" transform="translate(0 -291)"/><path d="m0 0h800v218h-800z" fill="none"/></svg>