<svg height="140" viewBox="0 0 400 140" width="400" xmlns="http://www.w3.org/2000/svg"><g fill="none" transform="translate(30 34)"><path d="m139.752183 43.6380512-6.061829-16.3436341c-.247903-.6684147-1.192903-.6684147-1.440805 0l-6.062342 16.3436341c-.185927.5019512.185415 1.0356586.720659 1.0356586h12.124171c.535243 0 .906073-.5337074.720146-1.0356586m2.800683 9.1857073h-19.165829c-.321659 0-.609.1997561-.720659.5009269l-3.773341 10.1691219c-.111659.3011707-.399.5009268-.720147.5009268h-8.306268c-.543951 0-.915805-.5495853-.712976-1.0540975l19.125878-47.6454146c.116781-.2909269.399-.4819757.712976-.4819757h7.95439c.313464 0 .596195.1910488.712976.4819757l19.125878 47.6449024c.202829.5050244-.169024 1.0546097-.712976 1.0546097h-8.306268c-.321146 0-.608488-.1997561-.720146-.5009268l-3.773342-10.1691219c-.111658-.3011708-.399-.5009269-.720146-.5009269m18.124946-21.2887244h7.105171c.42461 0 .768293.3441952.768293.7682927v30.9232683c0 .4240976-.343683.7682927-.768293.7682927h-7.105171c-.424097 0-.768292-.3441951-.768292-.7682927v-30.9232683c0-.4240975.344195-.7682927.768292-.7682927m33.786388 7.5223537c0 .4240976-.344195.7682927-.768293.7682927h-.215122c-3.513146 0-6.09.8430732-7.729024 2.5292195-1.640049 1.6861463-2.459049 4.4735122-2.459049 8.3610732v12.510878c0 .4240976-.343683.7682927-.768292.7682927h-7.035c-.424098 0-.768293-.3441951-.768293-.7682927v-30.9237805c0-.4240975.344195-.7682927.768293-.7682927h6.964829c.42461 0 .768292.3441952.768292.7682927v6.1171464h.140854c.843073-2.5292195 2.177854-4.4719756 4.004854-5.8313415 1.826488-1.3578293 4.075024-2.0375122 6.744585-2.0375122h.351366zm19.427151-.2856c-.424097 0-.768292.3441951-.768292.7682927v12.8622439c0 1.3117317.256609 2.2480244.772902 2.8104146.514756.5618781 1.404951.8430732 2.669561.8430732h.707341c.424098 0 .768293.3436829.768293.7682927v6.4726097c0 .4246098-.344195.7682927-.768293.7682927h-3.026048c-3.13822 0-5.550147-.8077317-7.236293-2.4237073-1.686659-1.6159756-2.529732-4.0156098-2.529732-7.2014634v-14.8997561c0-.4240976-.343683-.7682927-.768292-.7682927h-4.435098c-.42461 0-.768293-.3441951-.768293-.7682927v-5.7002195c0-.4240976.343683-.7682927.768293-.7682927h4.435098c.424609 0 .768292-.3436829.768292-.7682927v-11.4613902c0-.4240976.344195-.7682927.768293-.7682927h7.105683c.424097 0 .768293.3441951.768293.7682927v11.4613902c0 .4246098.344195.7682927.768292.7682927h5.137829c.42461 0 .768293.3441951.768293.7682927v5.7002195c0 .4240976-.343683.7682927-.768293.7682927zm32.535505 15.5976732c1.615976-1.6861464 2.423707-3.887561 2.423707-6.6047561 0-2.7156586-.807731-4.9180976-2.423707-6.6042439-1.615976-1.6861464-3.735951-2.5292195-6.358902-2.5292195-2.623464 0-4.741903.8430731-6.358391 2.5292195-1.615463 1.6861463-2.423707 3.8885853-2.423707 6.6042439 0 2.7171951.808244 4.9186097 2.423707 6.6047561 1.616488 1.6861463 3.734927 2.5292195 6.358391 2.5292195 2.622951 0 4.742926-.8430732 6.358902-2.5292195m-16.40561 8.6417561c-2.388878-1.3578293-4.27478-3.3374634-5.655658-5.9368537-1.382415-2.5993902-2.072854-5.7022683-2.072854-9.3096585 0-3.6058537.690439-6.7097561 2.072854-9.3091464 1.380878-2.5993902 3.26678-4.5774878 5.655658-5.9368536 2.388878-1.3583415 5.011317-2.0375122 7.868854-2.0375122 2.52922 0 4.695293.4917073 6.499244 1.4756341 1.802415.9834147 3.242707 2.3653171 4.320878 4.1451952h.140341v-3.7989513c0-.4240975.344196-.7682927.768293-.7682927h7.035c.42461 0 .768293.3441952.768293.7682927v30.9232683c0 .4246098-.343683.7682927-.768293.7682927h-7.035c-.424097 0-.768293-.3436829-.768293-.7682927v-3.798439h-.140341c-1.078171 1.7809024-2.518463 3.1617805-4.320878 4.1451951-1.803951.9839269-3.970024 1.4756342-6.499244 1.4756342-2.857537 0-5.479976-.679683-7.868854-2.0375122m56.658974-8.6417561c1.615975-1.6861464 2.423707-3.887561 2.423707-6.6047561 0-2.7156586-.807732-4.9180976-2.423707-6.6042439-1.615464-1.6861464-3.73544-2.5292195-6.358391-2.5292195-2.623463 0-4.742414.8430731-6.35839 2.5292195-1.615463 1.6861463-2.424219 3.8885853-2.424219 6.6042439 0 2.7171951.808756 4.9186097 2.424219 6.6047561 1.615976 1.6861463 3.734927 2.5292195 6.35839 2.5292195 2.622951 0 4.742927-.8430732 6.358391-2.5292195m-10.679269 9.2036341c-1.803439-.9834146-3.244244-2.3642927-4.320878-4.1451951h-.140853v3.798439c0 .4246098-.343683.7682927-.768293.7682927h-7.105171c-.424097 0-.768293-.3436829-.768293-.7682927v-47.6449024c0-.4240976.344196-.7682927.768293-.7682927h7.105171c.42461 0 .768293.3441951.768293.7682927v20.5205854h.140853c1.076634-1.7798781 2.517439-3.1617805 4.320878-4.1451952 1.802927-.9839268 3.969512-1.4756341 6.499244-1.4756341 2.856512 0 5.479976.6791707 7.868854 2.0375122 2.388878 1.3593658 4.273756 3.3374634 5.655658 5.9368536 1.380878 2.5993903 2.072854 5.7032927 2.072854 9.3091464 0 3.6073902-.691976 6.7102683-2.072854 9.3096585-1.381902 2.5993903-3.26678 4.5790244-5.655658 5.9368537-2.388878 1.3578292-5.012342 2.0375122-7.868854 2.0375122-2.529732 0-4.696317-.4917073-6.499244-1.4756342m34.067686.4217927h-7.105171c-.42461 0-.768293-.3441951-.768293-.7682927v-47.6449024c0-.4240976.343683-.7682927.768293-.7682927h7.105171c.424097 0 .768292.3441951.768292.7682927v47.6449024c0 .4240976-.344195.7682927-.768292.7682927m16.759843-24.9420073c-1.178048.918878-1.973487 2.2454634-2.385292 3.9807805-.113195.4783902.260195.937317.751902.937317h13.521951c.469171 0 .837952-.42.762147-.8830243-.270439-1.6415854-.974195-2.9507561-2.111781-3.929561-1.33478-1.1473171-3.080341-1.7214878-5.234634-1.7214878-2.154805 0-3.923414.5388292-5.304293 1.6159756m17.318854-4.0401951c2.763293 3.021439 4.145195 7.2962195 4.145195 12.8222926v.9178537c0 .4246098-.343683.7682927-.768292.7682927h-22.589854c-.477366 0-.843073.4343415-.76061.9045366.361098 2.052878 1.26922 3.6837073 2.724878 4.8919756 1.662073 1.3824146 3.759 2.0728536 6.28822 2.0728536 3.265244 0 6.287707-1.2743414 9.066878-3.8235365.339585-.3114147.877902-.2453415 1.141171.1326585l3.454243 4.9580488c.222293.3190975.175171.7595853-.117804 1.0156829-1.694342 1.4833171-3.563342 2.7253902-5.605464 3.7241707-2.248024 1.1001952-4.895049 1.6513171-7.939024 1.6513171-3.512634 0-6.581708-.7150244-9.204147-2.1430244-2.623975-1.428-4.660975-3.4424634-6.112024-6.0423658-1.452585-2.5993903-2.178366-5.6085366-2.178366-9.0284635 0-3.4183902.702732-6.439317 2.107683-9.0632926 1.404951-2.6224391 3.372293-4.6599513 5.902024-6.1125366 2.52922-1.4510488 5.479976-2.1778537 8.852781-2.1778537 4.963683 0 8.828195 1.5104634 11.592512 4.5313903m-174.668832-14.9104098c0 2.8985122-2.349439 5.2479512-5.247951 5.2479512s-5.248463-2.349439-5.248463-5.2479512 2.349951-5.2479512 5.248463-5.2479512 5.247951 2.349439 5.247951 5.2479512" fill="#333"/><path d="m40.4630049.95652439-33.78387807 13.97934151c-1.87873171.7775121-1.85926829 3.4460487.0312439 4.1953902l33.92524387 13.4533171c2.9809756 1.1821463 6.3005122 1.1821463 9.2809756 0l33.9257561-13.4533171c1.89-.7493415 1.9099757-3.4178781.0307317-4.1953902l-33.7833658-13.97934151c-3.0823902-1.27536585-6.5448293-1.27536585-9.6267073 0" fill="#fcb400"/><path d="m48.2859659 39.9311415v33.6081951c0 1.598561 1.611878 2.6931219 3.0977561 2.1040975l37.8030731-14.6733658c.8630488-.3421463 1.4290244-1.176 1.4290244-2.1040976v-33.6081951c0-1.598561-1.611878-2.6931219-3.0977561-2.1040976l-37.8030732 14.6733659c-.8625365.3421463-1.4290243 1.176-1.4290243 2.1040976" fill="#18bfff"/><path d="m39.4586927 41.6652293-11.219122 5.4169756-1.1391219.5506097-23.68287807 11.347683c-1.5012439.7242439-3.41736585-.3698049-3.41736585-2.0375122v-31.5440488c0-.6033659.30936585-1.1242683.7242439-1.5166098.17312195-.1736341.36929268-.3165366.57314634-.4297317.56597561-.3395853 1.37319512-.4302439 2.05953659-.1587805l35.91307319 14.2292927c1.8254634.7242439 1.968878 3.2821464.1884878 4.142122" fill="#f82b60"/><path d="m39.4586927 41.6652293-11.219122 5.4169756-27.51512192-23.1998781c.17312195-.1736341.36929268-.3165366.57314634-.4297317.56597561-.3395853 1.37319512-.4302439 2.05953659-.1587805l35.91307319 14.2292927c1.8254634.7242439 1.968878 3.2821464.1884878 4.142122" fill="#000" fill-opacity=".25"/></g></svg>