<svg height="140" viewBox="0 0 400 140" width="400" xmlns="http://www.w3.org/2000/svg"><path d="m291.170224 14.3864641h14.862095l14.555392 32.740884 14.706145-32.740884h14.706144l-29.3759 61.6135359zm-79.841525 0h-14.555392v51.3472376h14.555392zm74.814716 0h-14.555392v51.3472376h14.555392zm-44.341962-.1049724c-19.155936 0-23.158669 10.8226519-22.909148 14.2237569 1.102051 14.9638122 30.976994 15.4099448 30.98739 23.0939227 0 2.4038674-5.536247 4.5558011-12.839935 2.6243094-5.078792-1.3541437-9.762509-4.7604973-9.762509-4.7604973l-10.973727 8.2718232s11.34281 10.2662984 29.256339 8.2770719c15.340343-1.7058012 21.027343-9.2270719 21.022148-15.5516575-.005202-6.3245856-6.186045-10.0038674-6.186045-10.0038674-4.319832-3.0651934-14.555392-6.2983426-14.555392-6.2983426-10.838569-2.7082872-10.115998-5.3955801-10.115998-5.3955801.280711-3.2541436 6.378381-3.0441989 6.378381-3.0441989 5.806562-.1259668 12.184943 4.6240332 12.184943 4.6240332l11.015313-7.710221s-7.984673-8.3505525-23.50176-8.3505525zm-77.705001 40.7345304c-10.048419 0-18.19424-6.5555249-18.19424-14.648895 0-8.0933702 8.145821-14.6488951 18.19424-14.6488951 5.71819 0 10.854164 2.1414365 14.191507 5.4848067l12.834737-5.7104973c-5.926124-6.8232044-15.818592-11.3002762-27.031443-11.3002762-18.142256 0-32.848401 11.7201657-32.848401 26.1748619 0 14.4546961 14.706145 26.1801105 32.848401 26.1801105 10.916545 0 20.575087-4.2461326 26.553194-10.7701658l-12.080975-6.5292817c-3.321749 3.5060773-8.577285 5.768232-14.46702 5.768232zm-49.701466-11.3790055h-34.1375932c1.8350191 6.7444751 8.7800205 11.7674033 17.0713957 11.7674033 5.0683955 0 10.5578575-1.6165746 13.7600435-4.6187845l12.112166 4.928453c-7.028175 6.9019337-15.912163 10.3607735-26.1685157 10.3607735-16.7958829 0-30.410373-11.6309392-30.410373-25.980663s13.6144901-25.9754144 30.410373-25.9754144c14.5034087 0 26.6259707 8.6707183 29.6722067 20.2701658.4921 1.8610908.74199 3.7789762.743365 5.7052486-.003099 1.1866838-.098698 2.3712807-.28591 3.5428177zm-1.559506-9.2480663c-2.469219-5.6790055-8.114632-9.5997238-15.4910965-9.5997238-7.3764648 0-12.9958858 3.9207183-15.4910959 9.5997238zm-50.2420953-1.212431c0 18.3229282-13.1466381 33.1765194-35.9778104 33.1765194h-26.6155743v-66.3530387h26.0801438c22.7843871 0 36.4976459 14.8535912 36.4976459 33.1765193zm-14.8932852 0c0-11.5469613-7.7039611-20.8632596-19.6445811-20.8632596h-13.1674315v41.7475138h13.9419863c11.956215 0 18.8544312-9.3425415 18.8544312-20.8632597z" fill="#00607e" transform="translate(24 32)"/></svg>