<svg viewBox="0 0 1164 265" xmlns="http://www.w3.org/2000/svg"><g clip-rule="evenodd" fill="#1b1d21" fill-rule="evenodd"><path d="m280.1 79.4c4.5-.6 8.9-.9 13-.9 4.4 0 8.8.3 13.1.9l28 58 28.8-58c3.5-.6 7.4-.9 11.7-.9s8.4.3 12.4.9l5.8 106.6c-4.3.6-8.4.9-12.2.9s-7.6-.3-11.4-.9l-3.1-77.1-24.7 53.3c-1.6.2-3.2.4-4.9.6s-3.4.2-5.1.2c-1.5 0-2.9-.1-4.4-.2s-3-.3-4.6-.6l-23-54.4-2.5 78.2c-3.6.6-7.1.9-10.5.9-3.6 0-7.3-.3-11.2-.9zm737.5 41.7h-10.2l-.8-3.1 29.3-37.4h3.6v23.6h18.9c.3 1.6.5 3 .6 4.2.1 1.3.2 2.6.2 3.9 0 1.5-.1 2.9-.2 4.2-.1 1.4-.3 2.9-.6 4.5h-18.9v31.8c0 3.2.3 5.8.8 7.8s1.3 3.5 2.3 4.7c1 1.1 2.2 1.9 3.7 2.3s3.2.6 5.2.6c1.6 0 3.1-.1 4.6-.4s2.8-.5 4-.7c.7 2 1.3 4 1.6 6.2.3 2.1.5 4 .5 5.7 0 1.1 0 2.1-.1 2.9s-.1 1.5-.2 2.3c-4.8 1.1-9.8 1.7-14.9 1.7-9.5 0-16.7-2.2-21.7-6.6s-7.5-11.7-7.5-21.7v-36.5zm-54.1 28.8c-5.8-1.7-10.4-4.1-13.7-7.4s-4.9-8.2-4.9-14.8c0-7.9 2.8-14.1 8.5-18.6s13.4-6.7 23.2-6.7c4.1 0 8.1.4 12 1.1 4 .7 8 1.8 12 3.3-.2 2.7-.7 5.5-1.6 8.4-.8 2.9-1.8 5.5-3 7.7-2.5-1-5.3-2-8.3-2.7-3-.8-6.2-1.2-9.5-1.2-3.5 0-6.3.5-8.3 1.6s-3 2.8-3 5.2c0 2.3.7 3.9 2.1 4.9 1.4.9 3.4 1.8 6 2.7l8.9 2.7c2.9.8 5.6 1.8 7.9 3s4.4 2.7 6 4.5c1.7 1.8 3 4 3.9 6.6s1.4 5.8 1.4 9.5c0 3.9-.8 7.5-2.4 10.8s-4 6.2-7 8.7c-3.1 2.5-6.8 4.4-11.2 5.8s-9.3 2.1-14.9 2.1c-2.5 0-4.8-.1-6.9-.2-2.1-.2-4.1-.4-6-.8s-3.8-.8-5.7-1.3-3.9-1.2-6.1-2c.2-2.8.7-5.7 1.5-8.5.8-2.9 1.8-5.7 3.1-8.4 3.4 1.4 6.7 2.4 9.8 3.1s6.3 1 9.6 1c1.5 0 3.1-.1 4.8-.4s3.3-.7 4.8-1.4 2.7-1.6 3.7-2.7 1.5-2.5 1.5-4.3c0-2.5-.8-4.3-2.3-5.4s-3.6-2.1-6.3-2.9zm-67.5 37c-6.6 0-12.3-1.1-17.1-3.2-4.9-2.1-8.9-5.1-12-8.9-3.2-3.8-5.6-8.3-7.2-13.4s-2.4-10.6-2.4-16.6c0-5.9.8-11.5 2.4-16.7s4-9.7 7.2-13.5 7.2-6.8 12-9 10.6-3.3 17.1-3.3c6.6 0 12.3 1.1 17.2 3.3s9 5.2 12.2 9 5.6 8.3 7.2 13.5 2.3 10.8 2.3 16.7-.8 11.5-2.3 16.6c-1.6 5.1-4 9.6-7.2 13.4s-7.3 6.8-12.2 8.9c-4.9 2.2-10.6 3.2-17.2 3.2zm0-16.9c5.8 0 10-2.2 12.6-6.5s3.8-10.6 3.8-18.7-1.3-14.4-3.8-18.7c-2.6-4.3-6.8-6.5-12.6-6.5-5.7 0-9.9 2.2-12.4 6.5-2.6 4.3-3.8 10.6-3.8 18.7s1.3 14.4 3.8 18.7c2.5 4.4 6.6 6.5 12.4 6.5zm-162.6-65.8c1.5-.3 2.9-.5 4.4-.7s3.1-.2 4.9-.2 3.3.1 4.7.2c1.4.2 2.8.4 4.2.7.3.5.6 1.3.9 2.3s.5 2 .7 3.1.4 2.2.5 3.2c.2 1 .3 1.9.4 2.7.8-1.6 1.9-3.1 3.3-4.7s3-3 4.8-4.2c1.9-1.3 4-2.3 6.3-3.1s5-1.2 7.9-1.2c12.6 0 20.7 4.8 24.2 14.4 2.1-3.9 5-7.2 8.8-10.1s8.6-4.3 14.5-4.3c9.2 0 15.9 2.5 20.3 7.6 4.3 5.1 6.5 13 6.5 23.7v51.5c-3.8.6-7.5.9-11.1.9-3.7 0-7.4-.3-11.1-.9v-45.7c0-5.6-.7-10-2.1-13s-4.2-4.5-8.5-4.5c-1.8 0-3.5.3-5.2.8s-3.3 1.5-4.7 2.9-2.6 3.4-3.4 5.9c-.9 2.6-1.3 5.9-1.3 9.9v43.6c-3.8.6-7.5.9-11.1.9-3.7 0-7.4-.3-11.1-.9v-45.7c0-5.6-.7-10-2.1-13s-4.2-4.5-8.5-4.5c-1.8 0-3.5.3-5.3.8s-3.4 1.5-4.8 3.1c-1.4 1.5-2.5 3.6-3.4 6.3-.8 2.7-1.3 6.3-1.3 10.6v42.4c-3.8.6-7.5.9-11.1.9-3.7 0-7.4-.3-11.1-.9v-80.8zm-59.2 0c1.6-.3 3-.5 4.5-.7 1.4-.2 2.9-.2 4.6-.2 1.6 0 3.1.1 4.6.3s3 .5 4.5.8c.3.5.6 1.3.9 2.3s.5 2 .7 3.1.4 2.2.5 3.3c.2 1.1.3 2 .4 2.7 2.3-3.2 5.1-6.1 8.4-8.7s7.5-3.8 12.5-3.8c1 0 2.2.1 3.6.2s2.3.3 3 .5c.2 1 .4 2.2.5 3.6s.2 2.8.2 4.2c0 1.8-.1 3.7-.2 5.8-.2 2.1-.4 4.1-.9 5.9-1.1-.2-2.4-.3-3.8-.3h-2.6c-1.8 0-3.8.2-5.9.5-2.2.4-4.3 1.3-6.3 2.9s-3.6 3.9-4.9 7-2 7.5-2 13.1v38.5c-1.9.3-3.8.5-5.6.6-1.9.1-3.7.2-5.5.2s-3.6-.1-5.4-.2-3.7-.3-5.7-.6v-81zm-61.2 47.2c.4 6.3 2.6 10.8 6.6 13.6s9.2 4.2 15.6 4.2c3.5 0 7.2-.3 10.9-1s7.2-1.6 10.6-2.9c1.1 2.1 2.1 4.6 3 7.5.8 2.9 1.3 6 1.4 9.4-8.1 3.1-17.3 4.7-27.5 4.7-7.5 0-13.9-1-19.3-3.1s-9.8-5-13.1-8.7c-3.4-3.7-5.9-8.1-7.5-13.2s-2.4-10.7-2.4-16.7c0-5.9.8-11.5 2.5-16.7s4.1-9.8 7.4-13.6c3.3-3.9 7.4-6.9 12.2-9.2 4.8-2.2 10.5-3.4 17-3.4 5.6 0 10.6 1 15 3s8.1 4.7 11.2 8.1 5.4 7.5 7 12.3c1.6 4.7 2.3 9.8 2.3 15.3 0 2-.1 3.9-.2 5.9-.2 1.9-.3 3.5-.5 4.6h-52.2zm31.7-15.5c-.2-5-1.6-9-4.1-12.1-2.6-3.1-6.1-4.6-10.7-4.6-5.2 0-9.2 1.5-11.9 4.4s-4.3 7-4.8 12.4h31.5zm-102.7-14.8h-10.2l-.8-3.1 29.3-37.4h3.6v23.6h18.9c.3 1.6.5 3 .6 4.2.1 1.3.2 2.6.2 3.9 0 1.5-.1 2.9-.2 4.2-.1 1.4-.3 2.9-.6 4.5h-18.9v31.8c0 3.2.3 5.8.8 7.8s1.3 3.5 2.3 4.7c1 1.1 2.2 1.9 3.7 2.3s3.2.6 5.2.6c1.6 0 3.1-.1 4.6-.4s2.8-.5 4-.7c.7 2 1.3 4 1.6 6.2.3 2.1.5 4 .5 5.7 0 1.1 0 2.1-.1 2.9s-.1 1.5-.2 2.3c-4.8 1.1-9.8 1.7-14.9 1.7-9.5 0-16.7-2.2-21.7-6.6s-7.5-11.7-7.5-21.7v-36.5zm-58.7 0h-10.2l-.8-3.1 29.3-37.4h3.6v23.6h18.9c.3 1.6.5 3 .6 4.2.1 1.3.2 2.6.2 3.9 0 1.5-.1 2.9-.2 4.2-.1 1.4-.3 2.9-.6 4.5h-18.9v31.8c0 3.2.3 5.8.8 7.8s1.3 3.5 2.3 4.7c1 1.1 2.2 1.9 3.7 2.3s3.2.6 5.2.6c1.6 0 3.1-.1 4.6-.4s2.8-.5 4-.7c.7 2 1.3 4 1.6 6.2.3 2.1.5 4 .5 5.7 0 1.1 0 2.1-.1 2.9s-.1 1.5-.2 2.3c-4.8 1.1-9.8 1.7-14.9 1.7-9.5 0-16.7-2.2-21.7-6.6s-7.5-11.7-7.5-21.7v-36.5zm-36.4 26.9c-1.3-.2-2.6-.4-4.1-.5-1.5-.2-2.8-.2-3.9-.2-5.1 0-9.2.9-12.1 2.7-3 1.8-4.5 4.8-4.5 8.8 0 2.7.6 4.8 1.7 6.3s2.5 2.5 4.1 3.2 3.3 1.1 5.2 1.3c1.8.2 3.4.2 4.8.2 1.6 0 3.1-.1 4.7-.4s2.9-.5 4.1-.7zm0-16.1c0-2.5-.4-4.5-1.3-6.1-.8-1.6-2-2.8-3.4-3.7-1.5-.9-3.3-1.5-5.4-1.8s-4.5-.5-7.1-.5c-5.6 0-11.6 1.1-18 3.3-1.5-2.7-2.6-5.3-3.3-7.7s-1.1-5.3-1.1-8.6c4.6-1.6 9.2-2.7 13.8-3.4s8.9-1.1 12.8-1.1c10.8 0 19.3 2.6 25.4 7.8s9.2 13.6 9.2 25v46.9c-3.7 1.1-8.1 2.2-13.3 3.3-5.2 1-11.1 1.6-17.7 1.6-5.3 0-10.2-.5-14.6-1.4s-8.2-2.5-11.4-4.7-5.6-5-7.4-8.4c-1.7-3.4-2.6-7.7-2.6-12.7s1.1-9.2 3.2-12.6 4.9-6.1 8.3-8.1 7.2-3.5 11.3-4.4c4.2-.9 8.3-1.3 12.5-1.3 3 0 6.4.2 10 .5v-1.9z"/><path d="m192.4 62.7.9 17.4c14.1 15.6 19.7 37.7 12.7 58.5-10.5 31-45.1 47.3-77.4 36.4s-49.8-44.9-39.3-75.9c7.1-20.9 25-35.1 45.8-38.8l11.2-13.3c-35.1-.9-68.1 20.8-80 55.8-14.5 43 8.5 89.6 51.5 104.1s89.6-8.5 104.1-51.5c11.8-34.8-1.2-72.2-29.5-92.7z"/><path d="m172.3 114.1-.6-24.4-.5-14-.3-12.2s.1-5.9-.1-7.2c0-.3-.1-.5-.2-.7v-.2c-.2-.4-.6-.7-1-.9-.5-.2-1-.1-1.4.1 0 0-.1 0-.1.1-.2.1-.4.2-.6.4-1 1-4.5 5.7-4.5 5.7l-7.6 9.5-8.9 10.9-15.3 19s-7 8.7-5.5 19.5 9.6 16 15.8 18.1 15.8 2.8 23.5-4.8c7.5-7.7 7.3-18.9 7.3-18.9z"/></g></svg>