<?xml version="1.0" encoding="UTF-8"?>
<svg width="400px" height="140px" viewBox="0 0 400 140" version="1.1" xmlns="http://www.w3.org/2000/svg" xmlns:xlink="http://www.w3.org/1999/xlink">
    <title>Artboard</title>
    <g id="Artboard" stroke="none" stroke-width="1" fill="none" fill-rule="evenodd">
        <g id="Lacework_Logo_color_2019" transform="translate(26.000000, 35.000000)" fill-rule="nonzero">
            <g id="Group" fill="#00AEEF">
                <path d="M63.878481,1.57803468 C63.878481,0.849710983 63.2708861,0.161849711 62.5417722,0 L1.62025316,0 C0.891139241,0.161849711 0.283544304,0.728323699 0.283544304,1.57803468 L0.283544304,34.0289017 C0.283544304,37.7514451 0.810126582,41.2716763 2.06582278,44.5086705 L63.9594937,9.83236994 L63.9594937,1.61849711 L63.878481,1.61849711 L63.878481,1.57803468 Z" id="Path"></path>
                <path d="M32.0810127,69.7572254 C40.0202532,69.7572254 63.878481,55.3121387 63.878481,34.0289017 L63.878481,23.0231214 L2.34936709,45.7630058 C8.3443038,60.0462428 25.5594937,69.7572254 32.0810127,69.7572254" id="Path"></path>
            </g>
            <polygon id="Path" fill="#80888F" points="85 12 93.699187 12 93.699187 45.2177822 110 45.2177822 110 53 85 53"></polygon>
            <g id="Group" transform="translate(111.000000, 23.000000)" fill="#80888F">
                <path d="M23.4585774,16.0415584 C23.4585774,11.4285714 19.7246862,8.35324675 15.8690377,8.35324675 C11.7292887,8.35324675 8.27949791,11.6363636 8.27949791,16.0415584 C8.27949791,20.4051948 11.7292887,23.812987 15.8690377,23.812987 C19.9276151,23.812987 23.4585774,20.5714286 23.4585774,16.0415584 M31.9410042,1.16363636 L31.9410042,30.961039 L23.7832636,30.961039 L23.7832636,27.2623377 C21.7539749,30.1714286 17.6142259,31.5428571 14.4079498,31.5428571 C6.89958159,31.5428571 0.0811715481,25.5584416 0.0811715481,15.9584416 C0.0811715481,6.35844156 6.89958159,0.374025974 14.4079498,0.374025974 C17.776569,0.374025974 21.7539749,1.66233766 23.7832636,4.65454545 L23.7832636,1.03896104 L31.9410042,1.03896104 L31.9410042,1.16363636 Z" id="Shape"></path>
                <path d="M35.5937238,15.9584416 C35.5937238,6.52467532 43.1020921,0.374025974 51.5845188,0.374025974 C56.9012552,0.374025974 61.2033473,2.90909091 63.8820084,6.73246753 L57.7129707,11.2207792 C56.4548117,9.39220779 53.9790795,8.22857143 51.5439331,8.22857143 C46.876569,8.22857143 43.832636,11.5948052 43.832636,16 C43.832636,20.4467532 46.9983264,23.812987 51.5439331,23.812987 C53.9384937,23.812987 56.3330544,22.6493506 57.7129707,20.8207792 L63.8820084,25.2675325 C61.1221757,29.174026 56.9012552,31.625974 51.5845188,31.625974 C43.1020921,31.5428571 35.5937238,25.3922078 35.5937238,15.9584416" id="Path"></path>
                <path d="M88.3146444,13.3402597 C88.0711297,9.80779221 85.148954,7.72987013 81.4962343,7.72987013 C78.2087866,7.72987013 75.2866109,9.35064935 74.3531381,13.3402597 L88.3146444,13.3402597 Z M96.4317992,18.7844156 L74.4748954,18.7844156 C75.3677824,22.2337662 78.0870293,24.1454545 82.0644351,24.1454545 C84.9866109,24.1454545 87.9087866,22.8987013 89.6945607,20.8623377 L94.483682,25.7662338 C91.7238494,29.5480519 86.6100418,31.5844156 81.4962343,31.5844156 C72.567364,31.5844156 65.9924686,25.2675325 65.9924686,16.0831169 C65.9924686,6.4 73.1355649,0.415584416 81.4962343,0.415584416 C89.816318,0.415584416 96.634728,6.4 96.634728,15.625974 C96.4723849,16.4155844 96.4317992,17.412987 96.4317992,18.7844156" id="Shape"></path>
            </g>
            <polygon id="Path" fill="#80888F" points="254 24 243.888792 53 237.01477 53 231.059948 34.137883 225.384883 53 218.51086 53 208 24 216.712424 24 222.187663 41.6504178 227.662902 24 234.456994 24 239.932233 41.6504178 245.287576 24"></polygon>
            <g id="Group" transform="translate(254.000000, 23.000000)" fill="#80888F">
                <path d="M22.923741,16.0415584 C22.923741,11.3454545 19.6604317,8.22857143 15.6316547,8.22857143 C11.6028777,8.22857143 8.33956835,11.387013 8.33956835,16.0415584 C8.33956835,20.6545455 11.6028777,23.812987 15.6316547,23.812987 C19.6604317,23.812987 22.923741,20.6545455 22.923741,16.0415584 M0,16.0415584 C0,6.60779221 7.29208633,0.457142857 15.5510791,0.457142857 C23.8100719,0.457142857 31.1021583,6.60779221 31.1021583,16.0415584 C31.1021583,25.4753247 23.8100719,31.625974 15.5510791,31.625974 C7.29208633,31.625974 0,25.3922078 0,16.0415584" id="Shape"></path>
                <path d="M56,1.37142857 L54.1467626,9.35064935 C52.4546763,8.35324675 50.9640288,8.27012987 49.9971223,8.27012987 C45.847482,8.27012987 42.9870504,12.2597403 42.9870504,20.7792208 L42.9870504,31.0025974 L34.8892086,31.0025974 L34.8892086,1.20519481 L42.9467626,1.20519481 L42.9467626,7.56363636 C44.5985612,2.57662338 47.8618705,0.415584416 51.447482,0.415584416 C52.9381295,0.374025974 54.7107914,0.664935065 56,1.37142857" id="Path"></path>
            </g>
            <polygon id="Path" fill="#80888F" points="332.005666 52 322.050992 39.4241843 322.050992 52 314 52 314 10 322.050992 10 322.050992 31.8867562 329.229462 23.059501 339.501416 23.059501 328.356941 35.756238 342 52"></polygon>
            <polygon id="Path" fill="#80888F" points="342 10.5508475 340.766667 10.5508475 340.766667 15 340.233333 15 340.233333 10.5508475 339 10.5508475 339 10 342 10"></polygon>
            <polygon id="Path" fill="#80888F" points="347.137931 10 345.543103 14.0677966 345.543103 14.0677966 343.862069 10 343 10 343 15 343.732759 15 343.732759 12.9661017 343.646552 11.0169492 343.646552 11.0169492 345.327586 15 345.801724 15 347.396552 10.9322034 347.439655 10.9322034 347.396552 12.9661017 347.396552 15 348 15 348 10"></polygon>
        </g>
    </g>
</svg>