<svg height="140" viewBox="0 0 400 140" width="400" xmlns="http://www.w3.org/2000/svg" xmlns:xlink="http://www.w3.org/1999/xlink"><mask id="a" fill="#fff"><path d="m.00189526 0h1128.19941474v1599.0333h-1128.19941474z" fill="#fff" fill-rule="evenodd"/></mask><g fill="#00a0dc" fill-rule="nonzero" transform="translate(-700 -710)"><path d="m29.4957627 0-28.49683954 16.4893179-.00393277 32.9746934 28.48504121 16.5110015 28.4929067-16.4873467.0157311-32.9746934z" transform="matrix(1 0 0 -1 777 807)"/><g mask="url(#a)" transform="matrix(1 0 0 -1 0 1600)"><path d="m29.1733047 29.0779256v-7.0750324h8.7731618c0-.7863258.0075811-11.8575644.0075811-12.38178161-2.8466816-1.52326872-7.0257315-2.40266201-11.5383472-2.40266201-10.5471258 0-18.50153493 8.16525222-18.50153493 19.01046962 0 9.8708573 7.12997073 19.0826445 17.43071263 19.0826445 3.8284266 0 9.3208921-.8850913 13.6932586-5.1130167l5.2820916 5.6429319c-3.3830404 3.5118751-10.0088718 7.2630668-18.4750014 7.2630668-17.00806947 0-25.80018386-13.925943-25.80018386-26.8756265 0-11.3257499 7.23989587-26.07600535 26.49953506-26.07600535 11.7165017 0 18.8749014 4.67047106 18.8749014 4.67047106l-.0075811 24.26213799z" transform="translate(844.085688 800.917963)"/><path d="m7.5810428 28.4900634c0 .7958225-.00758104 14.6059059-.00758104 15.3941309h9.42134094c4.7154086 0 10.0638343-1.3333349 10.0638343-7.6904177 0-5.1699969-3.104437-7.6923172-10.0600438-7.7037132zm27.3732503 7.7037132c-.0909725 4.4197585-1.5654853 14.3798846-16.0945539 14.376087l-18.7630809-.0056991v-49.83671821h7.49575606s-.01137156 19.84997681-.01137156 20.67049071c.74483746 0 7.829322-.0037987 8.2254314-.0037987.2520697-.3551761 14.9517117-20.65529599 14.9517117-20.65529599h9.3606926s-16.0623344 20.94969329-16.8393913 21.99053029c6.8039859 1.0864211 11.8302173 7.0655357 11.6748059 13.464404" transform="translate(898.815447 801.513233)"/><path d="m34.1146926 49.9706387-33.47788501-.0151947v-49.83481889l33.47788501.01899338v7.0845291h-26.00108154c0 .79582244-.01137157 13.95443301-.01137157 14.75405421h19.71260651v7.0883277h-19.71260651v13.8005868h26.01245311z" transform="translate(943.702043 802.13107)"/><path d="m34.1146926 49.9706387-33.48925657-.0151947v-49.83481889l33.48925657.01899338v7.0845291h-25.9935005c0 .79582244-.01137156 13.95443301-.01137156 14.75405421h19.71260656v7.0883277h-19.71260656c0 .7901245-.00758105 13.014261-.00758105 13.8005868h26.01245311z" transform="translate(986.608092 802.13107)"/></g></g></svg>