<svg height="140" viewBox="0 0 400 140" width="400" xmlns="http://www.w3.org/2000/svg"><g fill="none" transform="translate(25 38)"><g fill="#406997" transform="translate(4.772727)"><path d="m118.443182 21.0795455v11.8522727c0 3.2613636.556818 5.5681818 1.670454 7 1.113637 1.3522727 2.863637 2.0681818 5.329546 2.0681818h3.738636v6.3636364c-2.863636 0-3.181818 0-6.602273 0-3.102272 0-5.647727-1.1136364-7.795454-3.4204546s-3.181818-5.1704545-3.181818-8.6704545v-15.1136364-5.4090909-6.20454545h6.920454v6.04545455 5.4886364z"/><path d="m.63636364 3.5c0-1.90909091 1.51136363-3.42045455 3.42045454-3.42045455s3.42045455 1.51136364 3.42045455 3.42045455-1.51136364 3.42045455-3.42045455 3.42045455c-1.82954545 0-3.42045454-1.5909091-3.42045454-3.42045455"/><path d="m46.2159091 3.5c0-1.90909091 1.5113636-3.42045455 3.4204545-3.42045455s3.4204546 1.51136364 3.4204546 3.42045455-1.5113637 3.42045455-3.4204546 3.42045455-3.4204545-1.5909091-3.4204545-3.42045455"/><path d="m92.0340909 3.5c0-1.90909091 1.5113636-3.42045455 3.4204546-3.42045455 1.9090909 0 3.4204545 1.51136364 3.4204545 3.42045455s-1.5113636 3.42045455-3.4204545 3.42045455c-1.909091 0-3.4204546-1.5909091-3.4204546-3.42045455"/><path d="m137.693182 3.5c0-1.90909091 1.511363-3.42045455 3.420454-3.42045455s3.420455 1.51136364 3.420455 3.42045455-1.511364 3.42045455-3.420455 3.42045455-3.420454-1.5909091-3.420454-3.42045455"/><path d="m182.397727 3.5c0-1.90909091 1.511364-3.42045455 3.420455-3.42045455s3.420454 1.51136364 3.420454 3.42045455-1.511363 3.42045455-3.420454 3.42045455c-1.829546 0-3.420455-1.5909091-3.420455-3.42045455"/></g><path d="m5.32954545 48.2840909v-26.8863636h-5.32954545v-5.8068182h12.25v32.6931818z" fill="#406997"/><g fill="#406997" transform="translate(23.068182 9.545455)"><path d="m24.0227273 38.7386364v-15.9090909c0-4.1363637-.6363637-7-1.9090909-8.6704546-1.2727273-1.6704545-3.3409091-2.4659091-6.2840909-2.4659091-1.5909091 0-3.1818182.4772727-4.9318182 1.4318182-1.75000003.9545455-3.0227273 2.0681818-3.97727275 3.5v22.1931818h-6.92045455v-32.77272725h7.15909091l-.15909091 5.56818185c2.30681818-3.81818185 5.9659091-5.72727276 11.1363636-5.72727276 8.5113637 0 12.8068182 5.17045456 12.8068182 15.51136366v17.3409091z"/><path d="m43.2727273 11.4545455h-4.4545455v-5.40909095h4.4545455v-6.04545455h6.8409091v6.04545455h10.6590909v5.40909095h-10.6590909v11.8522727c0 3.2613636.5568181 5.5681818 1.6704545 7 1.1136364 1.3522727 2.8636364 2.0681818 5.3295455 2.0681818h3.7386363v6.3636364c-2.8636363 0-3.1818182 0-6.6022727 0-3.1022727 0-5.6477273-1.1136364-7.7954545-3.4204546-2.1477273-2.3068182-3.1818182-5.1704545-3.1818182-8.6704545z"/><path d="m139.602273 11.4545455h-4.534091v-5.40909095h4.534091v-6.04545455h6.920454v6.04545455h10.659091v5.40909095h-10.659091v11.8522727c0 3.2613636.556818 5.5681818 1.670455 7 1.113636 1.3522727 2.863636 2.0681818 5.329545 2.0681818h3.738637v6.3636364c-2.863637 0-3.181819 0-6.602273 0-3.102273 0-5.647727-1.1136364-7.795455-3.4204546-2.147727-2.3068182-3.181818-5.1704545-3.181818-8.6704545v-15.1931818z"/></g><path d="m96.7272727 48.2840909v-26.8863636h-5.3295454v-5.8068182h12.2499997v32.6931818z" fill="#406997"/><path d="m142.386364 48.2840909v-26.8863636h-5.329546v-5.8068182h12.25v32.6931818z" fill="#406997"/><path d="m204.590909 54.9659091c-.875 2.4659091-2.784091 4.5340909-5.647727 6.2045454-2.863637 1.6704546-6.045455 2.4659091-9.545455 2.4659091v-6.2045454c2.863637 0 5.329546-.6363637 7.397728-1.9886364 2.068181-1.3522727 3.102272-3.0227273 3.102272-4.9318182 0-2.1477272-.397727-4.2159091-1.113636-6.2840909s-1.75-4.6136363-2.943182-7.7159091l-8.193182-20.8409091h7.079546l9.068182 23.8636364 8.113636-23.8636364h7.079545z" fill="#406997"/><g fill="#333f48"><path d="m254.784091 15.5113636h-7.875c-.397727 0-.636364.3181819-.636364.6363637s.238637.6363636.636364.6363636h3.340909v11.2159091c0 .3977273.318182.6363636.636364.6363636.318181 0 .636363-.2386363.636363-.6363636v-11.2159091h3.340909c.397728 0 .636364-.3181818.636364-.6363636-.159091-.3181818-.318182-.6363637-.715909-.6363637z"/><path d="m257.647727 22.4318182c0-1.1136364.954546-2.0681818 2.068182-2.0681818s2.068182.9545454 2.068182 2.0681818v5.5681818c0 .3977273.318182.6363636.636364.6363636.318181 0 .636363-.2386363.636363-.6363636v-5.5681818c0-1.8295455-1.511363-3.3409091-3.340909-3.3409091-.715909 0-1.511364.3181818-2.068182.875v-3.7386364c0-.7954545-1.272727-.7954545-1.272727 0v11.8522728c0 .7954545 1.272727.7954545 1.272727 0z"/><path d="m271.329545 27.5227273c.079546-.0795455.159091-.2386364.159091-.3977273 0-.3181818-.318181-.6363636-.636363-.6363636-.159091 0-.397728.0795454-.477273.2386363-.477273.6363637-1.352273.7159091-1.75.7159091-1.193182 0-2.227273-.9545454-2.227273-2.0681818v-1.2727273h4.772728c.318181 0 .636363-.3181818.636363-.6363636v-1.1136364c0-1.8295454-1.511363-3.3409091-3.340909-3.3409091-1.829545 0-3.340909 1.5113637-3.340909 3.3409091v3.1022728c0 1.8295454 1.590909 3.340909 3.5 3.340909 1.034091 0 2.068182-.4772727 2.704545-1.2727272zm-5.011363-5.0909091c0-1.1136364.954545-2.0681818 2.068182-2.0681818 1.193181 0 2.068181.9545454 2.068181 2.0681818v.5568182h-4.215909v-.5568182z"/><path d="m284.454545 16.7840909c.397728 0 .636364-.3181818.636364-.6363636s-.238636-.6363637-.636364-.6363637h-6.125c-.318181 0-.636363.3181819-.636363.6363637v11.8522727c0 .3181818.318182.6363636.636363.6363636h6.125c.397728 0 .636364-.3181818.636364-.6363636s-.238636-.6363636-.636364-.6363636h-5.568181v-5.0113637h5.011363c.397728 0 .636364-.3181818.636364-.6363636s-.238636-.6363636-.636364-.6363636h-5.011363v-4.375h5.568181z"/><path d="m292.886364 28.6363636c.318181 0 .636363-.2386363.636363-.6363636v-5.5681818c0-1.8295455-1.511363-3.3409091-3.340909-3.3409091-1.829545 0-3.340909 1.5113636-3.340909 3.3409091v5.5681818c0 .7954545 1.272727.7954545 1.272727 0v-5.5681818c0-1.1136364.954546-2.0681818 2.068182-2.0681818 1.193182 0 2.068182.9545454 2.068182 2.0681818v5.5681818c0 .3977273.318182.6363636.636364.6363636z"/><path d="m300.761364 26.9659091c-.159091 0-.318182.0795454-.556819.2386364-.238636.1590909-.556818.3977272-1.03409.3977272-.795455 0-1.352273-.4772727-1.352273-1.1931818v-5.8863636h2.784091c.397727 0 .636363-.3181818.636363-.6363637 0-.3181818-.238636-.6363636-.636363-.6363636h-2.784091v-1.9886364c0-.7954545-1.272727-.7954545-1.272727 0v1.9886364h-1.352273c-.397727 0-.636364.3181818-.636364.6363636 0 .3181819.238637.6363637.636364.6363637h1.352273v5.8863636c0 1.3522727 1.113636 2.4659091 2.625 2.4659091.636363 0 1.272727-.2386364 1.829545-.6363636.159091-.1590909.397727-.3181819.397727-.5568182-.079545-.4772727-.318182-.7159091-.636363-.7159091z"/><path d="m305.852273 19.0909091c-1.829546 0-3.340909 1.5113636-3.340909 3.3409091v3.0227273c0 1.8295454 1.590909 3.340909 3.5 3.340909 1.113636 0 2.147727-.4772727 2.784091-1.2727272.079545-.0795455.15909-.2386364.15909-.3977273 0-.3181818-.318181-.6363636-.636363-.6363636-.159091 0-.397727.0795454-.477273.2386363-.477273.6363637-1.352273.7159091-1.75.7159091-1.193182 0-2.227273-.9545454-2.227273-2.0681818v-1.2727273h4.772728c.318181 0 .636363-.3181818.636363-.6363636v-1.1136364c-.159091-1.8295454-1.590909-3.2613636-3.420454-3.2613636zm2.068182 3.8181818h-4.21591v-.5568182c0-1.1136363.954546-2.0681818 2.068182-2.0681818 1.193182 0 2.068182.9545455 2.068182 2.0681818v.5568182z"/><path d="m315.318182 20.7613636c.477273.3977273 1.034091 0 1.034091-.4772727 0-.1590909-.079546-.3181818-.238637-.3977273-.556818-.5568181-1.511363-.875-2.147727-.875-1.829545 0-3.022727 1.3522728-3.022727 3.4204546v5.4886363c0 .3977273.318182.6363637.636363.6363637.318182 0 .636364-.2386364.636364-.6363637v-5.4886363c0-1.4318182.636364-2.2272727 1.75-2.2272727.477273.0795454.954546.2386363 1.352273.5568181-.079546 0 0 0 0 0z"/><path d="m318.181818 31.8977273c.318182 0 .636364-.2386364.636364-.6363637v-3.3409091c.636363.5568182 1.352273.875 2.068182.875 1.829545 0 3.340909-1.5113636 3.340909-3.340909v-3.0227273c0-1.8295455-1.511364-3.3409091-3.340909-3.3409091-1.829546 0-3.340909 1.5113636-3.340909 3.3409091v8.8295454c0 .3977273.318181.6363637.636363.6363637zm.636364-9.4659091c0-1.1136364.954545-2.0681818 2.068182-2.0681818 1.193181 0 2.068181.9545454 2.068181 2.0681818v3.0227273c0 1.1931818-.954545 2.0681818-2.068181 2.0681818-1.113637 0-2.068182-.9545455-2.068182-2.0681818z"/><path d="m331.545455 20.3636364c0-.1590909-.079546-.3181819-.238637-.3977273-.556818-.5568182-1.511363-.875-2.147727-.875-1.829546 0-3.022727 1.3522727-3.022727 3.4204545v5.4886364c0 .3977273.318181.6363636.636363.6363636s.636364-.2386363.636364-.6363636v-5.4886364c0-1.4318181.636364-2.2272727 1.75-2.2272727.397727 0 .875.1590909 1.193182.3977273 0 0 .079545.0795454.079545.0795454.477273.3977273 1.113637.0795455 1.113637-.3977272z"/><path d="m333.375 15.75c-.397727 0-.795455.3181818-.795455.7954545 0 .3977273.318182.7954546.795455.7954546.397727 0 .795455-.3181818.795455-.7954546 0-.4772727-.318182-.7954545-.795455-.7954545z"/><path d="m332.738636 19.8863636v8.1136364c0 .3977273.318182.6363636.636364.6363636s.636364-.2386363.636364-.6363636v-8.1136364c0-.875-1.272728-.875-1.272728 0z"/><path d="m338.863636 23.0681818c-.954545-.3977273-1.829545-.7159091-1.829545-1.5113636 0-.7159091.636364-1.2727273 1.511364-1.2727273.556818 0 1.113636.2386364 1.511363.6363636.079546.0795455.079546.159091.079546.159091.159091.2386363.397727.3181818.477272.3181818.318182 0 .636364-.2386364.636364-.6363637 0-.1590909-.079545-.2386363-.079545-.3181818-.477273-.7954545-1.59091-1.3522727-2.625-1.3522727-1.352273 0-2.784091.875-2.784091 2.4659091 0 1.6704545 1.352272 2.2272727 2.625 2.7045454 1.113636.3977273 1.988636.7954546 1.988636 1.75 0 .875-.795455 1.5113637-1.909091 1.5113637-.636364 0-1.193182-.2386364-1.511364-.5568182l-.079545-.0795455c-.159091-.1590909-.318182-.2386363-.477273-.2386363-.318182 0-.636363.3181818-.636363.6363636 0 .0795455.079545.2386364.159091.3181818.556818.7954546 1.75 1.1931818 2.625 1.1931818 1.829545 0 3.181818-1.1931818 3.181818-2.7045454-.079546-1.9090909-1.590909-2.5454546-2.863637-3.0227273z"/><path d="m346.738636 28.7954545c1.113637 0 2.147728-.4772727 2.784091-1.2727272.079546-.0795455.159091-.2386364.159091-.3977273 0-.3181818-.318182-.6363636-.636363-.6363636-.159091 0-.397728.0795454-.477273.2386363-.477273.6363637-1.352273.7159091-1.75.7159091-1.193182 0-2.227273-.9545454-2.227273-2.0681818v-1.2727273h4.772727c.318182 0 .636364-.3181818.636364-.6363636v-1.1136364c0-1.8295454-1.511364-3.3409091-3.340909-3.3409091-1.829546 0-3.340909 1.5113637-3.340909 3.3409091v3.1022728c-.079546 1.75 1.511363 3.340909 3.420454 3.340909zm-2.227272-6.3636363c0-1.1136364.954545-2.0681818 2.068181-2.0681818 1.193182 0 2.068182.9545454 2.068182 2.0681818v.5568182h-4.215909v-.5568182z"/><path d="m254.625 45.8181818c-.159091 0-.318182.0795455-.477273.2386364-.636363.7954545-1.909091 1.1136363-2.784091 1.1136363-1.75 0-3.102272-1.4318181-3.102272-3.1022727v-4.6931818c0-1.75 1.431818-3.1022727 3.102272-3.1022727 1.034091 0 1.988637.3977272 2.625 1.0340909l.159091.1590909c.079546.1590909.318182.2386364.477273.2386364.318182 0 .636364-.3181819.636364-.6363637 0-.1590909-.079546-.2386363-.159091-.3977273-.875-1.1136363-2.545455-1.590909-3.738637-1.590909-2.386363 0-4.375 1.9886363-4.375 4.375v4.6931818c0 2.3863636 1.988637 4.375 4.375 4.375 1.272728 0 2.545455-.4772728 3.5-1.3522728.159091-.1590909.238637-.2386363.238637-.2386363.079545-.1590909.159091-.2386364.159091-.3977273.079545-.3977273-.238637-.7159091-.636364-.7159091z"/><path d="m259.477273 47.25c-.556818-.2386364-.795455-1.0340909-.795455-1.6704545v-9.7045455c0-.7954545-1.272727-.7954545-1.272727 0v9.7045455c0 1.1931818.477273 2.1477272 1.272727 2.625.159091.0795454.318182.1590909.318182.1590909.079545.0795454.159091.0795454.238636.0795454.397728 0 .636364-.3181818.636364-.6363636 0-.2386364-.159091-.3977273-.397727-.5568182z"/><path d="m264.329545 38.8181818c-1.829545 0-3.340909 1.5113637-3.340909 3.3409091v3.0227273c0 1.8295454 1.511364 3.3409091 3.340909 3.3409091 1.829546 0 3.34091-1.5113637 3.34091-3.3409091v-3.0227273c0-1.9090909-1.511364-3.3409091-3.34091-3.3409091zm2.068182 6.3636364c0 1.1136363-.954545 2.0681818-2.068182 2.0681818-1.193181 0-2.068181-.9545455-2.068181-2.0681818v-3.0227273c0-1.1136364.954545-2.0681818 2.068181-2.0681818 1.113637 0 2.068182.9545454 2.068182 2.0681818z"/><path d="m275.068182 39.5340909v5.5681818c0 1.1136364-.954546 2.0681818-2.068182 2.0681818-1.193182 0-2.068182-.9545454-2.068182-2.0681818v-5.5681818c0-.7954545-1.272727-.7954545-1.272727 0v5.5681818c0 1.8295455 1.511364 3.3409091 3.340909 3.3409091s3.340909-1.5113636 3.340909-3.3409091v-5.5681818c-.079545-.7954545-1.272727-.7954545-1.272727 0z"/><path d="m283.659091 35.875v3.7386364c-.636364-.5568182-1.352273-.875-2.068182-.875-1.829545 0-3.340909 1.5113636-3.340909 3.3409091v3.0227272c0 1.8295455 1.511364 3.3409091 3.340909 3.3409091 1.829546 0 3.340909-1.5113636 3.340909-3.3409091v-9.2272727c0-.7954545-1.272727-.7954545-1.272727 0zm0 9.3068182c0 1.1136363-.954546 2.0681818-2.068182 2.0681818s-2.068182-.9545455-2.068182-2.0681818v-3.0227273c0-1.1136364.954546-2.0681818 2.068182-2.0681818s2.068182.9545454 2.068182 2.0681818z"/><path d="m295.829545 40.8863636c-1.511363-.5568181-2.863636-1.1136363-2.863636-2.4659091 0-1.1931818 1.034091-2.1477272 2.465909-2.1477272.954546 0 1.829546.3977272 2.545455 1.1136363.079545.0795455.159091.1590909.159091.1590909.159091.159091.318181.2386364.477272.2386364.318182 0 .636364-.2386364.636364-.6363636 0-.1590909-.079545-.2386364-.159091-.3977273-.795454-1.0340909-2.306818-1.8295455-3.659091-1.8295455-1.829545 0-3.738636 1.1931819-3.738636 3.3409091 0 2.2272728 1.829545 2.9431819 3.579545 3.6590909 1.590909.6363637 3.022728 1.1931819 3.022728 2.784091 0 1.3522727-1.272728 2.3863636-3.102273 2.3863636-.954546 0-1.829546-.3181818-2.386364-.9545455-.079545-.0795454-.159091-.1590909-.159091-.1590909-.159091-.1590909-.318182-.2386363-.477272-.2386363-.318182 0-.636364.3181818-.636364.6363636 0 .0795455.079545.2386364.159091.3181818.715909 1.1136364 2.386363 1.5909091 3.5 1.5909091 2.147727 0 4.295454-1.1931818 4.295454-3.5795454.159091-2.3863637-1.909091-3.1818182-3.659091-3.8181819z"/><path d="m304.659091 38.7386364c-1.829546 0-3.340909 1.5113636-3.340909 3.3409091v3.0227272c0 1.8295455 1.511363 3.3409091 3.340909 3.3409091 1.829545 0 3.340909-1.5113636 3.340909-3.3409091v-3.0227272c0-1.8295455-1.511364-3.3409091-3.340909-3.3409091zm2.068182 6.3636363c0 1.1136364-.954546 2.0681818-2.068182 2.0681818s-2.068182-.9545454-2.068182-2.0681818v-3.0227272c0-1.1136364.954546-2.0681819 2.068182-2.0681819 1.193182 0 2.068182.9545455 2.068182 2.0681819z"/><path d="m312.295455 47.25c-.556819-.2386364-.795455-1.0340909-.795455-1.6704545v-9.7045455c0-.7954545-1.272727-.7954545-1.272727 0v9.7045455c0 1.1931818.477272 2.1477272 1.272727 2.7045454.159091.0795455.238636.1590909.238636.1590909.079546.0795455.159091.0795455.238637.0795455.397727 0 .636363-.3181818.636363-.6363637.079546-.3181818-.079545-.5568181-.318181-.6363636z"/><path d="m319.693182 39.5340909v5.5681818c0 1.1136364-.954546 2.0681818-2.068182 2.0681818s-2.068182-.9545454-2.068182-2.0681818v-5.5681818c0-.7954545-1.272727-.7954545-1.272727 0v5.5681818c0 1.8295455 1.511364 3.3409091 3.340909 3.3409091s3.340909-1.5113636 3.340909-3.3409091v-5.5681818c-.079545-.7954545-1.272727-.7954545-1.272727 0z"/><path d="m328.761364 46.6136364c-.159091 0-.318182.0795454-.556819.2386363-.238636.1590909-.556818.3977273-1.03409.3977273-.795455 0-1.352273-.4772727-1.352273-1.1931818v-5.8863637h2.784091c.397727 0 .636363-.3181818.636363-.6363636s-.238636-.6363636-.636363-.6363636h-2.784091v-1.9886364c0-.7954545-1.272727-.7954545-1.272727 0v1.9886364h-1.352273c-.397727 0-.636364.3181818-.636364.6363636s.238637.6363636.636364.6363636h1.352273v5.8863637c0 1.4318182 1.113636 2.4659091 2.625 2.4659091.636363 0 1.272727-.2386364 1.829545-.6363637.159091-.1590909.397727-.3181818.397727-.5568181-.079545-.3977273-.318182-.7159091-.636363-.7159091z"/><g transform="translate(330.909091 35)"><path d="m.95454546.39772727c-.39772728 0-.79545455.31818182-.79545455.79545455 0 .39772727.31818182.79545454.79545455.79545454.39772727 0 .79545454-.31818181.79545454-.79545454 0-.39772727-.31818182-.79545455-.79545454-.79545455z"/><path d="m.39772727 4.53409091v8.11363639c0 .3977272.31818182.6363636.63636364.6363636s.63636364-.2386364.63636364-.6363636v-8.11363639c-.07954546-.79545455-1.27272728-.79545455-1.27272728 0z"/></g><path d="m337.988636 38.7386364c-1.829545 0-3.340909 1.5113636-3.340909 3.3409091v3.0227272c0 1.8295455 1.511364 3.3409091 3.340909 3.3409091 1.829546 0 3.340909-1.5113636 3.340909-3.3409091v-3.0227272c0-1.8295455-1.511363-3.3409091-3.340909-3.3409091zm2.147728 6.3636363c0 1.1136364-.954546 2.0681818-2.068182 2.0681818-1.193182 0-2.068182-.9545454-2.068182-2.0681818v-3.0227272c0-1.1136364.954545-2.0681819 2.068182-2.0681819 1.113636 0 2.068182.9545455 2.068182 2.0681819z"/><path d="m346.659091 38.8181818c-1.829546 0-3.340909 1.5113637-3.340909 3.3409091v5.5681818c0 .7954546 1.272727.7954546 1.272727 0v-5.5681818c0-1.1931818.954546-2.0681818 2.068182-2.0681818 1.193182 0 2.068182.9545454 2.068182 2.0681818v5.5681818c0 .3977273.318182.6363637.636363.6363637.318182 0 .636364-.2386364.636364-.6363637v-5.5681818c0-1.8295454-1.511364-3.3409091-3.340909-3.3409091z"/><path d="m232.272727.079545h1.034091v63.556818h-1.034091z"/></g></g></svg>