<?xml version="1.0" encoding="UTF-8"?>
<svg width="400px" height="140px" viewBox="0 0 400 140" version="1.1" xmlns="http://www.w3.org/2000/svg" xmlns:xlink="http://www.w3.org/1999/xlink">
    <title>Artboard</title>
    <g id="Artboard" stroke="none" stroke-width="1" fill="none" fill-rule="evenodd">
        <g id="telefonica" transform="translate(38.000000, 26.000000)" fill="#002F40" fill-rule="nonzero">
            <path d="M102.269834,0 C100.386987,0.950499216 96.2167925,1.1874063 92.7274966,1.1874063 L58.2950065,1.1874063 C38.9416752,1.1874063 27.06398,7.44890685 25.1170335,16.8347826 C24.788523,18.4584916 24.9045535,20.1190999 25.4373357,21.5844078 L31.8700723,21.5844078 C32.3467931,11.4460732 43.3764346,5.65997003 60.5504681,5.65997003 L70.1328434,5.62038981 C64.5483824,8.86783732 59.8918883,13.1096622 56.3064634,21.1094453 C56.2463706,21.2678464 56.1730599,21.426011 56.0929287,21.5844078 L65.7553794,21.5844078 C69.3809017,12.7133745 71.8896839,8.19459378 75.6313651,5.62038981 L89.577858,5.62038981 C97.1813803,5.42237899 100.466784,3.52428943 102.790325,0.63328336 L102.269834,0 Z M56.0929287,21.5844078 C54.6868061,24.8714355 50.5588877,35.2479566 47.3380009,43.7229385 C46.2082736,46.6931601 45.1910748,49.4212981 44.4419349,51.5202401 C40.7282996,61.3813484 38.3538865,65.9000996 35.3933967,67.5634184 L35.8738502,68.4737632 C44.1864448,68.9490003 49.1245186,64.7444757 52.3293775,56.982309 C53.8877546,53.2200485 55.7036076,48.3168732 57.3741377,43.7229385 C58.9525146,39.4062259 60.3951045,35.3597564 61.3645698,32.8251876 C63.0391353,28.4688693 64.4694556,24.7526147 65.7553794,21.623988 L56.0929287,21.5844078 Z M25.4373357,21.5844078 C26.3908072,24.3170171 28.7223812,26.4921639 32.3238338,26.8485758 L32.8176331,26.4923539 C32.0965388,25.2250525 31.8246746,23.1683466 31.8567264,21.9010495 C31.8607323,21.82183 31.8660664,21.7032033 31.8700723,21.623988 L25.4373357,21.5844078 Z M178.141426,0.752023989 C168.446744,0.831243517 156.472441,3.01150724 148.099745,20.1199401 C146.537396,20.3575607 145.057643,20.8319532 143.735627,21.5844078 C142.894377,22.0992503 142.134526,22.6526429 141.413436,23.4050975 L141.773776,24.1967017 C143.135859,23.721469 144.735526,23.6029985 146.538272,23.6029985 C145.416548,26.4147935 143.096398,32.5577687 140.732794,38.7754125 C139.3434,40.61985 137.945105,42.2674169 136.555519,43.7229385 L136.515481,43.7229385 C130.947048,49.5841703 125.587525,52.3513948 121.461276,52.3910045 C118.616975,52.4305848 117.457498,50.9281115 117.457498,48.1955024 C117.417439,46.8489857 117.697559,45.0298496 117.977989,43.7229385 C118.058087,43.4457421 118.098043,43.168955 118.178178,42.9313345 C123.746611,40.1987294 129.305802,37.1423858 134.313404,31.994003 C137.077573,29.0237774 138.997802,26.0983123 139.077899,23.0092954 C139.077899,22.4944571 139.037913,22.020035 138.917748,21.5844078 C138.396958,19.6042616 136.63729,18.6158921 133.632761,18.5763119 C133.439969,18.5738378 133.254049,18.5693331 133.058886,18.5763119 C130.131482,18.6810232 126.95065,19.8394166 123.983656,21.5844078 C121.740247,22.9309245 119.620525,24.5914779 117.897914,26.4131934 C113.491239,31.1655291 109.877725,37.5449047 108.635841,43.7229385 C108.355414,45.1090606 108.194986,46.4927975 108.194986,47.8392805 C108.155366,52.9084478 110.847289,57.1407397 117.817838,56.982309 C125.229081,56.7446926 131.987868,52.4736311 137.836728,46.414393 C136.354484,50.2954741 135.074531,53.6565412 134.353441,55.4386807 C132.150108,60.8246797 130.551744,65.1475944 127.226716,67.6821591 L127.627094,68.3154424 C137.401911,68.869865 141.050765,62.0945269 145.096912,50.9661172 C146.018298,48.4711578 146.858049,46.0595305 147.739405,43.7229385 C150.623774,35.6835751 153.143331,28.7118263 155.22647,23.5238381 C159.472922,23.5238381 165.567616,23.6825896 168.972774,22.8905548 C161.922098,25.9795759 155.748003,35.3667477 153.945261,43.7229385 C153.464522,45.9407012 153.264512,48.0756219 153.464808,50.0557722 C153.865442,54.0952547 156.264437,56.9031486 161.552439,56.9031486 C169.12391,56.9427583 175.816796,50.3762389 180.103277,43.7229385 C181.545461,41.4655915 182.745275,39.1723544 183.586564,37.1922039 C185.469403,32.6378791 186.669336,28.7902015 186.909699,24.9487257 C189.313367,24.5131027 191.646876,24.0780708 192.768561,23.9196402 C195.052038,23.6028381 194.610683,26.0558865 193.929657,27.9568216 C192.126919,32.7883684 189.846978,38.6141953 187.763839,43.7229385 C184.919538,50.6534609 182.505544,56.2302343 182.505544,56.3490257 L190.486408,56.3490257 C192.970172,51.1214529 194.80942,47.2872219 196.692263,43.7229385 C197.37332,42.4160612 198.053134,41.1905397 198.774228,39.9232383 C202.059188,34.2600513 209.475961,24.8695652 212.440457,24.8695652 C213.482037,24.8299893 213.761844,25.5418589 213.561515,26.5319341 C213.160915,29.1061085 208.625145,36.7924458 205.820877,43.7229385 L214.72261,43.7229385 C215.363573,42.2576264 215.963533,40.9924193 216.404197,40.0815594 C218.847902,34.8935755 223.210756,27.3258982 222.970393,23.2071964 C222.930329,22.6527822 222.77034,22.0992207 222.529977,21.623988 L210.718832,21.5844078 C206.712744,24.1190105 202.819991,28.5474891 199.414832,33.854273 L199.254681,33.7751124 C201.417968,28.9831419 203.098334,24.4353989 203.05827,22.2968516 C203.058283,22.0592395 203.018228,21.8220242 202.978195,21.5844078 C202.697751,20.0794944 201.578081,19.4470511 199.45487,19.4866567 C197.732246,19.4866567 195.412374,20.1591656 193.128901,20.7532234 C192.047253,21.0304158 190.967523,21.3071859 189.845803,21.5844078 C187.602432,22.1388601 185.269577,22.6923877 182.785808,23.2071964 C180.502369,23.5636379 179.782975,23.91918 179.782975,24.7112444 C180.023338,31.2061142 177.862831,38.3369733 174.938404,43.7229385 C172.094102,48.9109268 168.534037,52.5493255 165.649639,52.5493255 C163.125832,52.5493212 162.513346,50.7696472 162.513346,48.2350824 C162.513346,46.848952 162.673305,45.3466814 163.033837,43.7229385 C164.79652,35.0895173 170.971208,24.2374218 177.020368,22.2572714 C177.661323,22.0592648 178.261296,21.9407142 178.701955,21.8218891 L178.78203,21.5844078 L179.582786,19.4470765 C178.0605,19.7242984 174.459022,19.8032984 172.576174,19.8032984 C170.653263,19.8429081 156.787944,19.8428786 156.787944,19.8428786 C160.954256,10.0213714 166.805853,3.68111575 175.338781,3.36431785 C180.666851,3.12669728 184.226972,5.10408234 184.547471,8.15352325 C184.787834,10.6880921 184.028128,12.7568051 181.985052,14.8953523 L182.585619,15.4494753 C187.232667,13.271314 190.486408,9.5402956 190.486408,7.00569715 C190.526471,3.08503567 185.793032,0.672838238 178.141426,0.752023989 Z M210.718832,21.5844078 L222.529977,21.5844078 C221.808878,20.3171107 220.289318,19.3283359 217.765481,19.3283359 C215.401924,19.3283359 213.042339,20.1587097 210.718832,21.5844078 Z M205.820877,43.7229385 C204.498874,46.9703862 203.538698,50.054417 203.578761,52.4305848 C203.658897,57.1433402 206.272115,60.0029692 210.678794,61.0722641 L211.559626,60.5577212 C211.038827,59.5676503 210.959084,58.2101357 210.919021,56.7448276 C210.878953,53.1805865 212.959931,47.7624251 214.72261,43.7625189 L205.820877,43.7229385 Z M244.04361,4.74962519 C241.840273,4.78923496 239.59969,6.80641556 239.118963,9.22218892 C238.598161,11.6775805 239.998505,13.6288152 242.24191,13.5892054 C244.485316,13.5495999 246.685801,11.5192259 247.206595,9.10344828 C247.687334,6.64806094 246.286986,4.71001964 244.04361,4.74962519 Z M119.41935,4.98710645 L111.638674,6.45157422 C110.476891,6.72879613 109.757117,7.59891058 109.356521,8.47016492 C107.353479,12.5888584 105.353973,16.8716819 103.190703,21.5844078 L112.039052,21.5844078 C115.003548,15.2083674 117.776835,9.34342046 119.41935,4.98710645 Z M103.190703,21.5844078 C101.267788,25.8219348 99.2282184,30.3814779 96.9848474,35.4902548 C96.4640571,36.6387269 95.8947903,37.8643626 95.3699901,39.1316343 C94.232281,40.7157631 93.0111864,42.2576307 91.7132063,43.7229385 C87.382656,48.594095 82.3442593,52.3513948 77.8334429,52.3910045 C75.3897376,52.4305848 74.3021064,51.0468733 74.3101182,48.2350824 C74.3141241,46.848952 74.5848821,45.0298496 74.8573012,43.7229385 C74.9214045,43.4457421 74.9840769,43.168955 75.0441442,42.9313345 C80.5965791,40.1987294 86.1691163,37.1423858 91.1927152,31.994003 C93.9729342,29.0237774 95.9038015,26.0983123 95.9438651,23.0092954 C95.9438607,22.4944571 95.9038784,22.020035 95.7837137,21.5844078 C95.2909652,19.6042616 93.5166359,18.6158921 90.5120729,18.5763119 C90.3205322,18.5738378 90.1191988,18.5693331 89.9248521,18.5763119 C87.0096405,18.6810232 83.8015915,19.8394166 80.8496222,21.5844078 C78.5901889,22.9309245 76.4784789,24.5914779 74.7638797,26.4131934 C70.3491839,31.1655291 66.7370075,37.5449047 65.5151526,43.7229385 C65.2387618,45.1090606 65.0907609,46.4927975 65.0747373,47.8392805 C65.0186458,53.0272728 67.5064932,57.1407397 74.2967723,56.982309 C81.5517888,56.7446926 88.6455351,51.2058442 92.3271188,47.2455773 C91.8503982,48.9088918 91.5530552,50.4903398 91.5530552,51.8764619 C91.5530552,56.4704006 93.8832754,59.7257261 98.466245,61.1514245 L99.3871141,60.716042 C98.9864885,59.4487449 98.8665716,58.170585 98.9867363,56.6656672 C99.2671672,52.9429828 100.547116,48.8317157 102.470023,43.7229385 C102.870614,42.6932832 103.310569,41.6258376 103.751232,40.4773615 C106.194933,34.3389037 109.234785,27.7228402 112.039052,21.623988 L103.190703,21.5844078 Z M264.596337,18.972114 C261.75204,19.0117195 258.459047,19.841878 255.254189,21.5844078 C253.050851,22.8120994 250.851186,24.472543 248.848144,26.6110945 C243.773408,32.062385 240.820174,38.5024462 239.572725,43.7229385 L239.559379,43.7229385 C239.556817,43.7361067 239.561941,43.7493761 239.559379,43.7625189 C239.361663,44.7770388 239.158032,45.7130822 239.078926,46.612294 C236.27465,49.8597414 233.181201,51.9951729 231.098062,52.0347826 C229.936279,52.1140023 229.136211,51.5209746 229.136211,50.2536732 C229.096143,49.1844166 229.696103,47.0097216 230.77776,44.1979011 C230.857848,44.0395 230.897817,43.8813736 230.977948,43.7229385 C233.421645,37.6637257 236.914477,30.2970443 241.16089,21.5844078 C241.481376,20.9507741 241.801332,20.2390902 242.121797,19.5658171 C242.121788,19.5658171 234.875565,20.7926685 233.833977,21.0302849 C233.393309,21.1491142 232.98006,21.3467915 232.619497,21.5844078 C232.098716,21.9408493 231.658757,22.4547925 231.378326,23.0884558 C228.293671,29.5437159 224.613257,37.1098475 222.28975,42.6938531 C222.169564,43.0502649 222.009571,43.3665311 221.889373,43.7229385 C220.687552,46.8515611 220.007597,49.7776509 220.007597,51.5994004 C220.007597,55.0448628 222.207232,57.1802648 226.453679,57.1010497 C230.860325,56.9822203 235.39331,54.4116302 239.118963,50.8473765 C239.840045,54.6096326 242.559031,57.2990308 248.127464,57.1406297 C253.896201,56.9822077 259.46928,53.343315 263.355166,49.1850075 C263.355157,49.5810209 263.315128,50.0159428 263.315128,50.411994 C263.315124,54.2534698 265.354501,57.1010497 269.801248,57.1010497 C274.608514,57.1010454 280.141878,53.5423602 284.468421,47.4038981 L284.628573,47.4830584 C284.227973,48.9087568 283.787809,51.4005536 283.747742,53.0638681 C283.627576,57.6974084 286.387988,60.3198092 290.313936,61.1118441 L291.194767,60.7556223 C289.83269,57.3893877 291.754802,49.0282531 292.596092,46.2560719 C292.87651,45.424398 293.156454,44.5942225 293.436883,43.7229385 C296.201092,35.4459587 300.04172,26.6139696 302.485422,21.5844078 C302.565559,21.4656165 302.605509,21.3074012 302.685611,21.1886057 C301.483802,20.1985348 298.643524,19.4471356 295.638961,19.3679161 C295.10816,19.3481154 294.581208,19.3358804 294.050797,19.3415293 C290.37057,19.3807126 286.712438,20.0540659 283.200558,21.5844078 L283.107137,21.5844078 C277.618813,24.039791 272.526234,28.5199034 268.31985,35.886057 C267.037907,38.064214 265.637866,40.6340779 264.676413,43.406297 C264.556252,43.5250924 264.476279,43.6437572 264.396148,43.7229385 C263.434695,44.9110499 262.51462,45.9787658 262.073957,46.414393 C259.429969,48.9489914 255.656732,52.1534684 251.850977,52.2326837 C249.647652,52.2326794 248.44777,50.7301558 248.487804,48.0767617 C248.487795,46.6906689 248.647797,45.2278267 248.968257,43.7625189 L244.270491,43.736132 L248.968257,43.7229385 C250.93124,33.9410412 258.547562,22.217687 263.915695,22.178111 C265.638319,22.178111 266.357999,22.9293201 266.357999,24.3550225 C266.357999,26.0579468 265.157797,28.4309483 263.515317,29.9358321 L264.235997,30.5691154 C268.362241,28.9849825 272.243522,26.0982574 272.283592,23.0884558 C272.283581,22.5340078 272.163588,22.020035 271.963288,21.5844078 C270.961768,19.4062508 267.640968,18.972114 264.596337,18.972114 Z M88.0964603,22.2968516 C89.2822534,22.3364614 89.755361,23.1274449 89.7513804,24.1967017 C89.7273111,29.0678625 83.6153722,35.368884 75.7915161,39.9628187 C77.7544904,32.3194727 83.2411055,22.2968516 88.0964603,22.2968516 Z M131.230494,22.2968516 C132.432315,22.3364614 132.872043,23.1274449 132.872043,24.1967017 C132.831976,29.0678625 126.750734,35.368884 118.938896,39.9628187 C120.861803,32.3194727 126.383156,22.2968516 131.230494,22.2968516 Z M291.928794,22.5475263 C292.627693,22.5274258 293.276382,22.5985816 293.877299,22.7322339 C293.276374,23.9599255 290.475348,29.5371591 288.27201,34.5667167 C286.869884,37.7745543 285.23021,40.9507577 283.387401,43.7229385 C280.703345,47.722845 277.730378,50.8073909 274.886045,51.5202401 C273.203507,51.9162575 272.243522,51.2044638 272.283592,49.65997 C272.323645,48.0362655 272.763603,45.9803152 273.524761,43.7229385 C276.00853,36.1588079 281.982651,26.3356036 287.951709,23.5634183 C289.453989,22.8703572 290.763961,22.5810312 291.928794,22.5475263 Z M147.405757,83.6857572 C71.9716089,83.7945258 0,84.7092571 0,85.8230887 C0,87.0111661 81.8831691,88 162.513346,88 C243.115477,88 325,87.0111704 325,85.8230887 C325,84.6349984 243.115477,83.6857572 162.513346,83.6857572 C157.473958,83.6857572 152.434699,83.678504 147.405757,83.6857572 Z" id="path2259"></path>
        </g>
    </g>
</svg>