<svg height="140" viewBox="0 0 400 140" width="400" xmlns="http://www.w3.org/2000/svg"><g fill="none" transform="translate(30 44)"><path d="m169.292845 42.9201331c-6.40599 0-8.26955-5.5906822-8.327787-10.6572379.058237-5.0665558 1.921797-10.657238 8.327787-10.657238s8.269551 5.5906822 8.327787 10.657238c0 5.124792-1.921797 10.6572379-8.327787 10.6572379zm1.980034-29.0599002c-4.193012 0-7.454243 1.4559069-10.016639 3.8435941v-11.93843599-3.37770382c0-1.10648919-.873544-1.98003328-1.980034-1.98003328h-4.484193c-1.106489 0-1.980033.87354409-1.980033 1.98003328v3.37770382 36.57237939 5.5906822c0 1.1064892.873544 1.9800333 1.980033 1.9800333h4.484193c1.10649 0 1.980034-.8735441 1.980034-1.9800333v-1.3976706h.116472c2.096506 2.5041598 4.775375 4.251248 9.84193 4.251248 9.026623 0 15.31614-8.2695508 15.31614-18.4026623.058236-10.249584-6.231281-18.5191348-15.257903-18.5191348zm-24.168054 4.4841931v-1.6306157c0-1.1064892-.873544-1.9800333-1.980033-1.9800333h-4.484193c-1.106489 0-1.980033.8735441-1.980033 1.9800333v1.6306157 15.2579035c0 4.2512479-1.921797 8.9101497-8.327787 8.9101497-4.309484 0-6.231281-2.0382695-6.231281-6.8718802v-18.9267887c0-1.1064892-.873545-1.9800333-1.980034-1.9800333h-4.484193c-1.106489 0-1.980033.8735441-1.980033 1.9800333v.8153078 20.4991681c0 10.1913477 6.87188 12.6955075 12.870216 12.6955075 4.775375 0 8.211315-1.8635608 10.074875-4.3094842h.116473v1.3976705.1164726c0 1.1064892.873544 1.9800333 1.980033 1.9800333h4.484193c1.106489 0 1.980034-.8735441 1.980034-1.9800333v-.1164726-29.467554zm-54.0432609 7.1048252h-9.2595674v-17.296173h8.9101497c5.3577371 0 9.0266226 2.0382696 9.0266226 8.9101498 0 4.8918469-2.7953414 8.3860232-8.6772049 8.3860232zm1.1064891-25.04159729h-12.3460898-4.6589018-.640599c-1.1064892 0-1.9800333.87354409-1.9800333 1.98003328v.640599 43.79367721 1.1064892c0 1.1064892.8735441 1.9800333 1.9800333 1.9800333h5.2995008c1.1064892 0 1.9800333-.8735441 1.9800333-1.9800333v-1.1064892-13.6272879h11.0066555c9.7836938 0 16.6555738-6.3477537 16.6555738-16.1314475.058237-9.5507488-5.648918-16.65557409-17.2961728-16.65557409z" fill="#4fc8ed"/><path d="m266.489185 32.3211314c-1.106489.5823628-2.50416.9900167-4.018303 1.2229618l-4.658902.9900166c-3.202995.640599-5.823627 1.5141431-5.823627 4.8336107 0 2.6206322 2.445923 4.3677204 5.474209 4.3677204 3.960067 0 9.026623-1.921797 9.026623-6.4642263zm8.502496 11.297837v4.3094842c0 1.1064892-.873545 1.9800333-1.980034 1.9800333h-2.038269-2.445924c-1.106489 0-1.980033-.8735441-1.980033-1.9800333v-1.1647255c-3.261231 2.6206323-7.104825 4.0183029-11.472546 4.0183029-6.697171 0-11.938436-4.251248-11.938436-11.0648919 0-6.8718802 5.47421-9.9584027 10.715474-11.0066556l3.552413-.6988352c3.086523-.640599 7.046589-1.3394343 9.201331-2.0965059v-1.0482529c0-3.4941764-2.97005-4.4259567-6.697171-4.4259567-4.309484 0-6.173045 1.0482529-6.638935 4.3677204-.058237.3494177-.232945.5823628-.46589.8735441v.0582363c-.407654.4076539-.931781.640599-1.514144.640599l-4.484193-.2329451c-1.572379-.1164725-1.86356-.9317803-1.805324-1.9800333s0 0 0-.0582362c.757072-7.2212979 7.687188-10.0748752 14.966722-10.0748752 7.570716 0 15.141431 1.5141431 15.141431 11.530782v18.0532446zm72.504159-7.1048253h-3.552412c-1.339435 0-2.096506.8735441-2.795341 2.1547421l-.058237.1747088c-1.455907 2.4459235-3.90183 4.1347754-6.697171 4.1347754-6.056573 0-9.143095-5.124792-9.143095-10.657238 0-5.4742096 3.086522-10.6572379 9.143095-10.6572379 2.795341 0 5.241264 1.6306157 6.697171 4.1347754l.058237.1747088c.698835 1.281198 1.455906 2.0965058 2.795341 2.0965058h3.552412c1.688852 0 2.445924-1.1064892 2.096506-2.5041597v-.0582363c-.349418-1.3976705-.873544-2.6788685-1.514143-3.843594l-.116473-.2329451c-2.387687-4.1930116-6.464226-7.5707155-13.685524-7.5707155-11.414309 0-18.053244 7.9201332-18.053244 18.4026623s6.580699 18.4026622 18.053244 18.4026622c7.221298 0 11.297837-3.3194675 13.685524-7.5707155l.116473-.2329451c.640599-1.1647254 1.164725-2.4459234 1.514143-3.843594v-.0582362c.349418-1.3394343-.407654-2.4459235-2.096506-2.4459235zm-35.524126-31.797005c0-2.562396-1.921797-4.60066555-4.367721-4.60066555-2.387687 0-4.36772 2.03826955-4.36772 4.60066555 0 2.56239601 1.980033 4.60066556 4.36772 4.60066556 2.387688 0 4.367721-2.09650582 4.367721-4.60066556zm-.116473 11.9966722c0-1.1064892-.873544-1.9800333-1.980033-1.9800333h-4.484193c-1.106489 0-1.980033.8735441-1.980033 1.9800333v31.2146423c0 1.1064892.873544 1.9800333 1.980033 1.9800333h4.484193c1.106489 0 1.980033-.8735441 1.980033-1.9800333zm-14.850249-1.9800333h-4.309485v-10.48252908c0-1.10648918-.873544-1.98003328-1.980033-1.98003328h-4.484193c-1.106489 0-1.980033.8735441-1.980033 1.98003328v10.48252908h-4.367721c-.873544 0-1.572379.6988353-1.572379 1.5723794v3.5524127c0 .873544.698835 1.5723793 1.572379 1.5723793h4.367721v26.4392679c0 1.1064892.873544 1.9800333 1.980033 1.9800333h4.484193c1.106489 0 1.980033-.8735441 1.980033-1.9800333v-26.4392679h4.309485c.873544 0 1.630615-.6988353 1.630615-1.5723793v-3.5524127c-.058236-.8735441-.757071-1.5723794-1.630615-1.5723794zm-58.643927 32.6705491v.5241265c0 1.1064892-.873544 1.9800333-1.980033 1.9800333h-4.950084c-1.106489 0-1.980033-.8735441-1.980033-1.9800333v-38.84359403-.46589018h-.116472l-4.018303 17.06322791-3.377704 14.3843594-1.805325 7.6289518-.058236.2329451c-.232945 1.0482529-.873544 1.9800333-1.980033 1.9800333h-5.765391c-1.048253-.0582363-1.747088-.9317804-1.980033-1.9800333v-.0582363l-9.143095-38.78535773h-.232945v38.37770383.4658902c0 1.1064892-.873544 1.9800333-1.980034 1.9800333h-5.008319c-1.106489 0-1.980033-.8735441-1.980033-1.9800333v-45.54076541-.05823627c.058236-1.04825292.93178-1.92179701 1.980033-1.92179701h10.715474.058236c.873545 0 1.57238.640599 1.805325 1.39767055v.11647254.05823628l8.677205 36.74708822h.116472l8.677205-36.74708822c.174709-.8735441.93178-1.57237937 1.86356-1.63061564h.058237 10.133111.116473c1.106489 0 1.980033.87354409 1.980033 1.921797v45.13311146z" fill="#000"/><path d="m.29118136 49.9084859h49.44259564v-49.50083199h-49.44259564z" fill="#4fc8ed"/></g></svg>