<?xml version="1.0" encoding="UTF-8"?>
<svg width="400px" height="140px" viewBox="0 0 400 140" version="1.1" xmlns="http://www.w3.org/2000/svg" xmlns:xlink="http://www.w3.org/1999/xlink">
    <title>Artboard</title>
    <g id="Artboard" stroke="none" stroke-width="1" fill="none" fill-rule="evenodd">
        <g id="intility-logo-web" transform="translate(25.000000, 38.000000)" fill-rule="nonzero">
            <g id="Group" transform="translate(4.772727, 0.000000)" fill="#406997">
                <path d="M118.443182,21.0795455 L118.443182,32.9318182 C118.443182,36.1931818 119,38.5 120.113636,39.9318182 C121.227273,41.2840909 122.977273,42 125.443182,42 L129.181818,42 L129.181818,48.3636364 C126.318182,48.3636364 126,48.3636364 122.579545,48.3636364 C119.477273,48.3636364 116.931818,47.25 114.784091,44.9431818 C112.636364,42.6363636 111.602273,39.7727273 111.602273,36.2727273 L111.602273,21.1590909 L111.602273,15.75 L111.602273,9.54545455 L118.522727,9.54545455 L118.522727,15.5909091 L118.522727,21.0795455 L118.443182,21.0795455 Z" id="Path"></path>
                <path d="M0.636363636,3.5 C0.636363636,1.59090909 2.14772727,0.0795454545 4.05681818,0.0795454545 C5.96590909,0.0795454545 7.47727273,1.59090909 7.47727273,3.5 C7.47727273,5.40909091 5.96590909,6.92045455 4.05681818,6.92045455 C2.22727273,6.92045455 0.636363636,5.32954545 0.636363636,3.5" id="Path"></path>
                <path d="M46.2159091,3.5 C46.2159091,1.59090909 47.7272727,0.0795454545 49.6363636,0.0795454545 C51.5454545,0.0795454545 53.0568182,1.59090909 53.0568182,3.5 C53.0568182,5.40909091 51.5454545,6.92045455 49.6363636,6.92045455 C47.7272727,6.92045455 46.2159091,5.32954545 46.2159091,3.5" id="Path"></path>
                <path d="M92.0340909,3.5 C92.0340909,1.59090909 93.5454545,0.0795454545 95.4545455,0.0795454545 C97.3636364,0.0795454545 98.875,1.59090909 98.875,3.5 C98.875,5.40909091 97.3636364,6.92045455 95.4545455,6.92045455 C93.5454545,6.92045455 92.0340909,5.32954545 92.0340909,3.5" id="Path"></path>
                <path d="M137.693182,3.5 C137.693182,1.59090909 139.204545,0.0795454545 141.113636,0.0795454545 C143.022727,0.0795454545 144.534091,1.59090909 144.534091,3.5 C144.534091,5.40909091 143.022727,6.92045455 141.113636,6.92045455 C139.204545,6.92045455 137.693182,5.32954545 137.693182,3.5" id="Path"></path>
                <path d="M182.397727,3.5 C182.397727,1.59090909 183.909091,0.0795454545 185.818182,0.0795454545 C187.727273,0.0795454545 189.238636,1.59090909 189.238636,3.5 C189.238636,5.40909091 187.727273,6.92045455 185.818182,6.92045455 C183.988636,6.92045455 182.397727,5.32954545 182.397727,3.5" id="Path"></path>
            </g>
            <polygon id="Path" fill="#406997" points="5.32954545 48.2840909 5.32954545 21.3977273 0 21.3977273 0 15.5909091 12.25 15.5909091 12.25 48.2840909"></polygon>
            <g id="Group" transform="translate(23.068182, 9.545455)" fill="#406997">
                <path d="M24.0227273,38.7386364 L24.0227273,22.8295455 C24.0227273,18.6931818 23.3863636,15.8295455 22.1136364,14.1590909 C20.8409091,12.4886364 18.7727273,11.6931818 15.8295455,11.6931818 C14.2386364,11.6931818 12.6477273,12.1704545 10.8977273,13.125 C9.14772727,14.0795455 7.875,15.1931818 6.92045455,16.625 L6.92045455,38.8181818 L2.82602224e-15,38.8181818 L2.82602224e-15,6.04545455 L7.15909091,6.04545455 L7,11.6136364 C9.30681818,7.79545455 12.9659091,5.88636364 18.1363636,5.88636364 C26.6477273,5.88636364 30.9431818,11.0568182 30.9431818,21.3977273 L30.9431818,38.7386364 L24.0227273,38.7386364 Z" id="Path"></path>
                <path d="M43.2727273,11.4545455 L38.8181818,11.4545455 L38.8181818,6.04545455 L43.2727273,6.04545455 L43.2727273,0 L50.1136364,0 L50.1136364,6.04545455 L60.7727273,6.04545455 L60.7727273,11.4545455 L50.1136364,11.4545455 L50.1136364,23.3068182 C50.1136364,26.5681818 50.6704545,28.875 51.7840909,30.3068182 C52.8977273,31.6590909 54.6477273,32.375 57.1136364,32.375 L60.8522727,32.375 L60.8522727,38.7386364 C57.9886364,38.7386364 57.6704545,38.7386364 54.25,38.7386364 C51.1477273,38.7386364 48.6022727,37.625 46.4545455,35.3181818 C44.3068182,33.0113636 43.2727273,30.1477273 43.2727273,26.6477273 L43.2727273,11.4545455 Z" id="Path"></path>
                <path d="M139.602273,11.4545455 L135.068182,11.4545455 L135.068182,6.04545455 L139.602273,6.04545455 L139.602273,0 L146.522727,0 L146.522727,6.04545455 L157.181818,6.04545455 L157.181818,11.4545455 L146.522727,11.4545455 L146.522727,23.3068182 C146.522727,26.5681818 147.079545,28.875 148.193182,30.3068182 C149.306818,31.6590909 151.056818,32.375 153.522727,32.375 L157.261364,32.375 L157.261364,38.7386364 C154.397727,38.7386364 154.079545,38.7386364 150.659091,38.7386364 C147.556818,38.7386364 145.011364,37.625 142.863636,35.3181818 C140.715909,33.0113636 139.681818,30.1477273 139.681818,26.6477273 L139.681818,11.4545455 L139.602273,11.4545455 Z" id="Path"></path>
            </g>
            <polygon id="Path" fill="#406997" points="96.7272727 48.2840909 96.7272727 21.3977273 91.3977273 21.3977273 91.3977273 15.5909091 103.647727 15.5909091 103.647727 48.2840909"></polygon>
            <polygon id="Path" fill="#406997" points="142.386364 48.2840909 142.386364 21.3977273 137.056818 21.3977273 137.056818 15.5909091 149.306818 15.5909091 149.306818 48.2840909"></polygon>
            <path d="M204.590909,54.9659091 C203.715909,57.4318182 201.806818,59.5 198.943182,61.1704545 C196.079545,62.8409091 192.897727,63.6363636 189.397727,63.6363636 L189.397727,57.4318182 C192.261364,57.4318182 194.727273,56.7954545 196.795455,55.4431818 C198.863636,54.0909091 199.897727,52.4204545 199.897727,50.5113636 C199.897727,48.3636364 199.5,46.2954545 198.784091,44.2272727 C198.068182,42.1590909 197.034091,39.6136364 195.840909,36.5113636 L187.647727,15.6704545 L194.727273,15.6704545 L203.795455,39.5340909 L211.909091,15.6704545 L218.988636,15.6704545 L204.590909,54.9659091 Z" id="Path" fill="#406997"></path>
            <path d="M254.784091,15.5113636 L246.909091,15.5113636 C246.511364,15.5113636 246.272727,15.8295455 246.272727,16.1477273 C246.272727,16.4659091 246.511364,16.7840909 246.909091,16.7840909 L250.25,16.7840909 L250.25,28 C250.25,28.3977273 250.568182,28.6363636 250.886364,28.6363636 C251.204545,28.6363636 251.522727,28.3977273 251.522727,28 L251.522727,16.7840909 L254.863636,16.7840909 C255.261364,16.7840909 255.5,16.4659091 255.5,16.1477273 C255.340909,15.8295455 255.181818,15.5113636 254.784091,15.5113636 Z" id="Path" fill="#333F48"></path>
            <path d="M257.647727,22.4318182 C257.647727,21.3181818 258.602273,20.3636364 259.715909,20.3636364 C260.829545,20.3636364 261.784091,21.3181818 261.784091,22.4318182 L261.784091,28 C261.784091,28.3977273 262.102273,28.6363636 262.420455,28.6363636 C262.738636,28.6363636 263.056818,28.3977273 263.056818,28 L263.056818,22.4318182 C263.056818,20.6022727 261.545455,19.0909091 259.715909,19.0909091 C259,19.0909091 258.204545,19.4090909 257.647727,19.9659091 L257.647727,16.2272727 C257.647727,15.4318182 256.375,15.4318182 256.375,16.2272727 L256.375,28.0795455 C256.375,28.875 257.647727,28.875 257.647727,28.0795455 L257.647727,22.4318182 L257.647727,22.4318182 Z" id="Path" fill="#333F48"></path>
            <path d="M271.329545,27.5227273 C271.409091,27.4431818 271.488636,27.2840909 271.488636,27.125 C271.488636,26.8068182 271.170455,26.4886364 270.852273,26.4886364 C270.693182,26.4886364 270.454545,26.5681818 270.375,26.7272727 C269.897727,27.3636364 269.022727,27.4431818 268.625,27.4431818 C267.431818,27.4431818 266.397727,26.4886364 266.397727,25.375 L266.397727,24.1022727 L271.170455,24.1022727 C271.488636,24.1022727 271.806818,23.7840909 271.806818,23.4659091 L271.806818,22.3522727 C271.806818,20.5227273 270.295455,19.0113636 268.465909,19.0113636 C266.636364,19.0113636 265.125,20.5227273 265.125,22.3522727 L265.125,25.4545455 C265.125,27.2840909 266.715909,28.7954545 268.625,28.7954545 C269.659091,28.7954545 270.693182,28.3181818 271.329545,27.5227273 Z M266.318182,22.4318182 C266.318182,21.3181818 267.272727,20.3636364 268.386364,20.3636364 C269.579545,20.3636364 270.454545,21.3181818 270.454545,22.4318182 L270.454545,22.9886364 L266.238636,22.9886364 L266.238636,22.4318182 L266.318182,22.4318182 Z" id="Shape" fill="#333F48"></path>
            <path d="M284.454545,16.7840909 C284.852273,16.7840909 285.090909,16.4659091 285.090909,16.1477273 C285.090909,15.8295455 284.852273,15.5113636 284.454545,15.5113636 L278.329545,15.5113636 C278.011364,15.5113636 277.693182,15.8295455 277.693182,16.1477273 L277.693182,28 C277.693182,28.3181818 278.011364,28.6363636 278.329545,28.6363636 L284.454545,28.6363636 C284.852273,28.6363636 285.090909,28.3181818 285.090909,28 C285.090909,27.6818182 284.852273,27.3636364 284.454545,27.3636364 L278.886364,27.3636364 L278.886364,22.3522727 L283.897727,22.3522727 C284.295455,22.3522727 284.534091,22.0340909 284.534091,21.7159091 C284.534091,21.3977273 284.295455,21.0795455 283.897727,21.0795455 L278.886364,21.0795455 L278.886364,16.7045455 L284.454545,16.7045455 L284.454545,16.7840909 Z" id="Path" fill="#333F48"></path>
            <path d="M292.886364,28.6363636 C293.204545,28.6363636 293.522727,28.3977273 293.522727,28 L293.522727,22.4318182 C293.522727,20.6022727 292.011364,19.0909091 290.181818,19.0909091 C288.352273,19.0909091 286.840909,20.6022727 286.840909,22.4318182 L286.840909,28 C286.840909,28.7954545 288.113636,28.7954545 288.113636,28 L288.113636,22.4318182 C288.113636,21.3181818 289.068182,20.3636364 290.181818,20.3636364 C291.375,20.3636364 292.25,21.3181818 292.25,22.4318182 L292.25,28 C292.25,28.3977273 292.568182,28.6363636 292.886364,28.6363636 Z" id="Path" fill="#333F48"></path>
            <path d="M300.761364,26.9659091 C300.602273,26.9659091 300.443182,27.0454545 300.204545,27.2045455 C299.965909,27.3636364 299.647727,27.6022727 299.170455,27.6022727 C298.375,27.6022727 297.818182,27.125 297.818182,26.4090909 L297.818182,20.5227273 L300.602273,20.5227273 C301,20.5227273 301.238636,20.2045455 301.238636,19.8863636 C301.238636,19.5681818 301,19.25 300.602273,19.25 L297.818182,19.25 L297.818182,17.2613636 C297.818182,16.4659091 296.545455,16.4659091 296.545455,17.2613636 L296.545455,19.25 L295.193182,19.25 C294.795455,19.25 294.556818,19.5681818 294.556818,19.8863636 C294.556818,20.2045455 294.795455,20.5227273 295.193182,20.5227273 L296.545455,20.5227273 L296.545455,26.4090909 C296.545455,27.7613636 297.659091,28.875 299.170455,28.875 C299.806818,28.875 300.443182,28.6363636 301,28.2386364 C301.159091,28.0795455 301.397727,27.9204545 301.397727,27.6818182 C301.318182,27.2045455 301.079545,26.9659091 300.761364,26.9659091 Z" id="Path" fill="#333F48"></path>
            <path d="M305.852273,19.0909091 C304.022727,19.0909091 302.511364,20.6022727 302.511364,22.4318182 L302.511364,25.4545455 C302.511364,27.2840909 304.102273,28.7954545 306.011364,28.7954545 C307.125,28.7954545 308.159091,28.3181818 308.795455,27.5227273 C308.875,27.4431818 308.954545,27.2840909 308.954545,27.125 C308.954545,26.8068182 308.636364,26.4886364 308.318182,26.4886364 C308.159091,26.4886364 307.920455,26.5681818 307.840909,26.7272727 C307.363636,27.3636364 306.488636,27.4431818 306.090909,27.4431818 C304.897727,27.4431818 303.863636,26.4886364 303.863636,25.375 L303.863636,24.1022727 L308.636364,24.1022727 C308.954545,24.1022727 309.272727,23.7840909 309.272727,23.4659091 L309.272727,22.3522727 C309.113636,20.5227273 307.681818,19.0909091 305.852273,19.0909091 Z M307.920455,22.9090909 L303.704545,22.9090909 L303.704545,22.3522727 C303.704545,21.2386364 304.659091,20.2840909 305.772727,20.2840909 C306.965909,20.2840909 307.840909,21.2386364 307.840909,22.3522727 L307.840909,22.9090909 L307.920455,22.9090909 Z" id="Shape" fill="#333F48"></path>
            <path d="M315.318182,20.7613636 C315.795455,21.1590909 316.352273,20.7613636 316.352273,20.2840909 C316.352273,20.125 316.272727,19.9659091 316.113636,19.8863636 C315.556818,19.3295455 314.602273,19.0113636 313.965909,19.0113636 C312.136364,19.0113636 310.943182,20.3636364 310.943182,22.4318182 L310.943182,27.9204545 C310.943182,28.3181818 311.261364,28.5568182 311.579545,28.5568182 C311.897727,28.5568182 312.215909,28.3181818 312.215909,27.9204545 L312.215909,22.4318182 C312.215909,21 312.852273,20.2045455 313.965909,20.2045455 C314.443182,20.2840909 314.920455,20.4431818 315.318182,20.7613636 C315.238636,20.7613636 315.318182,20.7613636 315.318182,20.7613636 Z" id="Path" fill="#333F48"></path>
            <path d="M318.181818,31.8977273 C318.5,31.8977273 318.818182,31.6590909 318.818182,31.2613636 L318.818182,27.9204545 C319.454545,28.4772727 320.170455,28.7954545 320.886364,28.7954545 C322.715909,28.7954545 324.227273,27.2840909 324.227273,25.4545455 L324.227273,22.4318182 C324.227273,20.6022727 322.715909,19.0909091 320.886364,19.0909091 C319.056818,19.0909091 317.545455,20.6022727 317.545455,22.4318182 L317.545455,31.2613636 C317.545455,31.6590909 317.863636,31.8977273 318.181818,31.8977273 Z M318.818182,22.4318182 C318.818182,21.3181818 319.772727,20.3636364 320.886364,20.3636364 C322.079545,20.3636364 322.954545,21.3181818 322.954545,22.4318182 L322.954545,25.4545455 C322.954545,26.6477273 322,27.5227273 320.886364,27.5227273 C319.772727,27.5227273 318.818182,26.5681818 318.818182,25.4545455 L318.818182,22.4318182 Z" id="Shape" fill="#333F48"></path>
            <path d="M331.545455,20.3636364 C331.545455,20.2045455 331.465909,20.0454545 331.306818,19.9659091 C330.75,19.4090909 329.795455,19.0909091 329.159091,19.0909091 C327.329545,19.0909091 326.136364,20.4431818 326.136364,22.5113636 L326.136364,28 C326.136364,28.3977273 326.454545,28.6363636 326.772727,28.6363636 C327.090909,28.6363636 327.409091,28.3977273 327.409091,28 L327.409091,22.5113636 C327.409091,21.0795455 328.045455,20.2840909 329.159091,20.2840909 C329.556818,20.2840909 330.034091,20.4431818 330.352273,20.6818182 C330.352273,20.6818182 330.431818,20.7613636 330.431818,20.7613636 C330.909091,21.1590909 331.545455,20.8409091 331.545455,20.3636364 Z" id="Path" fill="#333F48"></path>
            <path d="M333.375,15.75 C332.977273,15.75 332.579545,16.0681818 332.579545,16.5454545 C332.579545,16.9431818 332.897727,17.3409091 333.375,17.3409091 C333.772727,17.3409091 334.170455,17.0227273 334.170455,16.5454545 C334.170455,16.0681818 333.852273,15.75 333.375,15.75 Z" id="Path" fill="#333F48"></path>
            <path d="M332.738636,19.8863636 L332.738636,28 C332.738636,28.3977273 333.056818,28.6363636 333.375,28.6363636 C333.693182,28.6363636 334.011364,28.3977273 334.011364,28 L334.011364,19.8863636 C334.011364,19.0113636 332.738636,19.0113636 332.738636,19.8863636 Z" id="Path" fill="#333F48"></path>
            <path d="M338.863636,23.0681818 C337.909091,22.6704545 337.034091,22.3522727 337.034091,21.5568182 C337.034091,20.8409091 337.670455,20.2840909 338.545455,20.2840909 C339.102273,20.2840909 339.659091,20.5227273 340.056818,20.9204545 C340.136364,21 340.136364,21.0795455 340.136364,21.0795455 C340.295455,21.3181818 340.534091,21.3977273 340.613636,21.3977273 C340.931818,21.3977273 341.25,21.1590909 341.25,20.7613636 C341.25,20.6022727 341.170455,20.5227273 341.170455,20.4431818 C340.693182,19.6477273 339.579545,19.0909091 338.545455,19.0909091 C337.193182,19.0909091 335.761364,19.9659091 335.761364,21.5568182 C335.761364,23.2272727 337.113636,23.7840909 338.386364,24.2613636 C339.5,24.6590909 340.375,25.0568182 340.375,26.0113636 C340.375,26.8863636 339.579545,27.5227273 338.465909,27.5227273 C337.829545,27.5227273 337.272727,27.2840909 336.954545,26.9659091 L336.875,26.8863636 C336.715909,26.7272727 336.556818,26.6477273 336.397727,26.6477273 C336.079545,26.6477273 335.761364,26.9659091 335.761364,27.2840909 C335.761364,27.3636364 335.840909,27.5227273 335.920455,27.6022727 C336.477273,28.3977273 337.670455,28.7954545 338.545455,28.7954545 C340.375,28.7954545 341.727273,27.6022727 341.727273,26.0909091 C341.647727,24.1818182 340.136364,23.5454545 338.863636,23.0681818 Z" id="Path" fill="#333F48"></path>
            <path d="M346.738636,28.7954545 C347.852273,28.7954545 348.886364,28.3181818 349.522727,27.5227273 C349.602273,27.4431818 349.681818,27.2840909 349.681818,27.125 C349.681818,26.8068182 349.363636,26.4886364 349.045455,26.4886364 C348.886364,26.4886364 348.647727,26.5681818 348.568182,26.7272727 C348.090909,27.3636364 347.215909,27.4431818 346.818182,27.4431818 C345.625,27.4431818 344.590909,26.4886364 344.590909,25.375 L344.590909,24.1022727 L349.363636,24.1022727 C349.681818,24.1022727 350,23.7840909 350,23.4659091 L350,22.3522727 C350,20.5227273 348.488636,19.0113636 346.659091,19.0113636 C344.829545,19.0113636 343.318182,20.5227273 343.318182,22.3522727 L343.318182,25.4545455 C343.238636,27.2045455 344.829545,28.7954545 346.738636,28.7954545 Z M344.511364,22.4318182 C344.511364,21.3181818 345.465909,20.3636364 346.579545,20.3636364 C347.772727,20.3636364 348.647727,21.3181818 348.647727,22.4318182 L348.647727,22.9886364 L344.431818,22.9886364 L344.431818,22.4318182 L344.511364,22.4318182 Z" id="Shape" fill="#333F48"></path>
            <path d="M254.625,45.8181818 C254.465909,45.8181818 254.306818,45.8977273 254.147727,46.0568182 C253.511364,46.8522727 252.238636,47.1704545 251.363636,47.1704545 C249.613636,47.1704545 248.261364,45.7386364 248.261364,44.0681818 L248.261364,39.375 C248.261364,37.625 249.693182,36.2727273 251.363636,36.2727273 C252.397727,36.2727273 253.352273,36.6704545 253.988636,37.3068182 L254.147727,37.4659091 C254.227273,37.625 254.465909,37.7045455 254.625,37.7045455 C254.943182,37.7045455 255.261364,37.3863636 255.261364,37.0681818 C255.261364,36.9090909 255.181818,36.8295455 255.102273,36.6704545 C254.227273,35.5568182 252.556818,35.0795455 251.363636,35.0795455 C248.977273,35.0795455 246.988636,37.0681818 246.988636,39.4545455 L246.988636,44.1477273 C246.988636,46.5340909 248.977273,48.5227273 251.363636,48.5227273 C252.636364,48.5227273 253.909091,48.0454545 254.863636,47.1704545 C255.022727,47.0113636 255.102273,46.9318182 255.102273,46.9318182 C255.181818,46.7727273 255.261364,46.6931818 255.261364,46.5340909 C255.340909,46.1363636 255.022727,45.8181818 254.625,45.8181818 Z" id="Path" fill="#333F48"></path>
            <path d="M259.477273,47.25 C258.920455,47.0113636 258.681818,46.2159091 258.681818,45.5795455 L258.681818,35.875 C258.681818,35.0795455 257.409091,35.0795455 257.409091,35.875 L257.409091,45.5795455 C257.409091,46.7727273 257.886364,47.7272727 258.681818,48.2045455 C258.840909,48.2840909 259,48.3636364 259,48.3636364 C259.079545,48.4431818 259.159091,48.4431818 259.238636,48.4431818 C259.636364,48.4431818 259.875,48.125 259.875,47.8068182 C259.875,47.5681818 259.715909,47.4090909 259.477273,47.25 Z" id="Path" fill="#333F48"></path>
            <path d="M264.329545,38.8181818 C262.5,38.8181818 260.988636,40.3295455 260.988636,42.1590909 L260.988636,45.1818182 C260.988636,47.0113636 262.5,48.5227273 264.329545,48.5227273 C266.159091,48.5227273 267.670455,47.0113636 267.670455,45.1818182 L267.670455,42.1590909 C267.670455,40.25 266.159091,38.8181818 264.329545,38.8181818 Z M266.397727,45.1818182 C266.397727,46.2954545 265.443182,47.25 264.329545,47.25 C263.136364,47.25 262.261364,46.2954545 262.261364,45.1818182 L262.261364,42.1590909 C262.261364,41.0454545 263.215909,40.0909091 264.329545,40.0909091 C265.443182,40.0909091 266.397727,41.0454545 266.397727,42.1590909 L266.397727,45.1818182 Z" id="Shape" fill="#333F48"></path>
            <path d="M275.068182,39.5340909 L275.068182,45.1022727 C275.068182,46.2159091 274.113636,47.1704545 273,47.1704545 C271.806818,47.1704545 270.931818,46.2159091 270.931818,45.1022727 L270.931818,39.5340909 C270.931818,38.7386364 269.659091,38.7386364 269.659091,39.5340909 L269.659091,45.1022727 C269.659091,46.9318182 271.170455,48.4431818 273,48.4431818 C274.829545,48.4431818 276.340909,46.9318182 276.340909,45.1022727 L276.340909,39.5340909 C276.261364,38.7386364 275.068182,38.7386364 275.068182,39.5340909 Z" id="Path" fill="#333F48"></path>
            <path d="M283.659091,35.875 L283.659091,39.6136364 C283.022727,39.0568182 282.306818,38.7386364 281.590909,38.7386364 C279.761364,38.7386364 278.25,40.25 278.25,42.0795455 L278.25,45.1022727 C278.25,46.9318182 279.761364,48.4431818 281.590909,48.4431818 C283.420455,48.4431818 284.931818,46.9318182 284.931818,45.1022727 L284.931818,35.875 C284.931818,35.0795455 283.659091,35.0795455 283.659091,35.875 Z M283.659091,45.1818182 C283.659091,46.2954545 282.704545,47.25 281.590909,47.25 C280.477273,47.25 279.522727,46.2954545 279.522727,45.1818182 L279.522727,42.1590909 C279.522727,41.0454545 280.477273,40.0909091 281.590909,40.0909091 C282.704545,40.0909091 283.659091,41.0454545 283.659091,42.1590909 L283.659091,45.1818182 Z" id="Shape" fill="#333F48"></path>
            <path d="M295.829545,40.8863636 C294.318182,40.3295455 292.965909,39.7727273 292.965909,38.4204545 C292.965909,37.2272727 294,36.2727273 295.431818,36.2727273 C296.386364,36.2727273 297.261364,36.6704545 297.977273,37.3863636 C298.056818,37.4659091 298.136364,37.5454545 298.136364,37.5454545 C298.295455,37.7045455 298.454545,37.7840909 298.613636,37.7840909 C298.931818,37.7840909 299.25,37.5454545 299.25,37.1477273 C299.25,36.9886364 299.170455,36.9090909 299.090909,36.75 C298.295455,35.7159091 296.784091,34.9204545 295.431818,34.9204545 C293.602273,34.9204545 291.693182,36.1136364 291.693182,38.2613636 C291.693182,40.4886364 293.522727,41.2045455 295.272727,41.9204545 C296.863636,42.5568182 298.295455,43.1136364 298.295455,44.7045455 C298.295455,46.0568182 297.022727,47.0909091 295.193182,47.0909091 C294.238636,47.0909091 293.363636,46.7727273 292.806818,46.1363636 C292.727273,46.0568182 292.647727,45.9772727 292.647727,45.9772727 C292.488636,45.8181818 292.329545,45.7386364 292.170455,45.7386364 C291.852273,45.7386364 291.534091,46.0568182 291.534091,46.375 C291.534091,46.4545455 291.613636,46.6136364 291.693182,46.6931818 C292.409091,47.8068182 294.079545,48.2840909 295.193182,48.2840909 C297.340909,48.2840909 299.488636,47.0909091 299.488636,44.7045455 C299.647727,42.3181818 297.579545,41.5227273 295.829545,40.8863636 Z" id="Path" fill="#333F48"></path>
            <path d="M304.659091,38.7386364 C302.829545,38.7386364 301.318182,40.25 301.318182,42.0795455 L301.318182,45.1022727 C301.318182,46.9318182 302.829545,48.4431818 304.659091,48.4431818 C306.488636,48.4431818 308,46.9318182 308,45.1022727 L308,42.0795455 C308,40.25 306.488636,38.7386364 304.659091,38.7386364 Z M306.727273,45.1022727 C306.727273,46.2159091 305.772727,47.1704545 304.659091,47.1704545 C303.545455,47.1704545 302.590909,46.2159091 302.590909,45.1022727 L302.590909,42.0795455 C302.590909,40.9659091 303.545455,40.0113636 304.659091,40.0113636 C305.852273,40.0113636 306.727273,40.9659091 306.727273,42.0795455 L306.727273,45.1022727 Z" id="Shape" fill="#333F48"></path>
            <path d="M312.295455,47.25 C311.738636,47.0113636 311.5,46.2159091 311.5,45.5795455 L311.5,35.875 C311.5,35.0795455 310.227273,35.0795455 310.227273,35.875 L310.227273,45.5795455 C310.227273,46.7727273 310.704545,47.7272727 311.5,48.2840909 C311.659091,48.3636364 311.738636,48.4431818 311.738636,48.4431818 C311.818182,48.5227273 311.897727,48.5227273 311.977273,48.5227273 C312.375,48.5227273 312.613636,48.2045455 312.613636,47.8863636 C312.693182,47.5681818 312.534091,47.3295455 312.295455,47.25 Z" id="Path" fill="#333F48"></path>
            <path d="M319.693182,39.5340909 L319.693182,45.1022727 C319.693182,46.2159091 318.738636,47.1704545 317.625,47.1704545 C316.511364,47.1704545 315.556818,46.2159091 315.556818,45.1022727 L315.556818,39.5340909 C315.556818,38.7386364 314.284091,38.7386364 314.284091,39.5340909 L314.284091,45.1022727 C314.284091,46.9318182 315.795455,48.4431818 317.625,48.4431818 C319.454545,48.4431818 320.965909,46.9318182 320.965909,45.1022727 L320.965909,39.5340909 C320.886364,38.7386364 319.693182,38.7386364 319.693182,39.5340909 Z" id="Path" fill="#333F48"></path>
            <path d="M328.761364,46.6136364 C328.602273,46.6136364 328.443182,46.6931818 328.204545,46.8522727 C327.965909,47.0113636 327.647727,47.25 327.170455,47.25 C326.375,47.25 325.818182,46.7727273 325.818182,46.0568182 L325.818182,40.1704545 L328.602273,40.1704545 C329,40.1704545 329.238636,39.8522727 329.238636,39.5340909 C329.238636,39.2159091 329,38.8977273 328.602273,38.8977273 L325.818182,38.8977273 L325.818182,36.9090909 C325.818182,36.1136364 324.545455,36.1136364 324.545455,36.9090909 L324.545455,38.8977273 L323.193182,38.8977273 C322.795455,38.8977273 322.556818,39.2159091 322.556818,39.5340909 C322.556818,39.8522727 322.795455,40.1704545 323.193182,40.1704545 L324.545455,40.1704545 L324.545455,46.0568182 C324.545455,47.4886364 325.659091,48.5227273 327.170455,48.5227273 C327.806818,48.5227273 328.443182,48.2840909 329,47.8863636 C329.159091,47.7272727 329.397727,47.5681818 329.397727,47.3295455 C329.318182,46.9318182 329.079545,46.6136364 328.761364,46.6136364 Z" id="Path" fill="#333F48"></path>
            <g id="Group" transform="translate(330.909091, 35.000000)" fill="#333F48">
                <path d="M0.954545455,0.397727273 C0.556818182,0.397727273 0.159090909,0.715909091 0.159090909,1.19318182 C0.159090909,1.59090909 0.477272727,1.98863636 0.954545455,1.98863636 C1.35227273,1.98863636 1.75,1.67045455 1.75,1.19318182 C1.75,0.795454545 1.43181818,0.397727273 0.954545455,0.397727273 Z" id="Path"></path>
                <path d="M0.397727273,4.53409091 L0.397727273,12.6477273 C0.397727273,13.0454545 0.715909091,13.2840909 1.03409091,13.2840909 C1.35227273,13.2840909 1.67045455,13.0454545 1.67045455,12.6477273 L1.67045455,4.53409091 C1.59090909,3.73863636 0.397727273,3.73863636 0.397727273,4.53409091 Z" id="Path"></path>
            </g>
            <path d="M337.988636,38.7386364 C336.159091,38.7386364 334.647727,40.25 334.647727,42.0795455 L334.647727,45.1022727 C334.647727,46.9318182 336.159091,48.4431818 337.988636,48.4431818 C339.818182,48.4431818 341.329545,46.9318182 341.329545,45.1022727 L341.329545,42.0795455 C341.329545,40.25 339.818182,38.7386364 337.988636,38.7386364 Z M340.136364,45.1022727 C340.136364,46.2159091 339.181818,47.1704545 338.068182,47.1704545 C336.875,47.1704545 336,46.2159091 336,45.1022727 L336,42.0795455 C336,40.9659091 336.954545,40.0113636 338.068182,40.0113636 C339.181818,40.0113636 340.136364,40.9659091 340.136364,42.0795455 L340.136364,45.1022727 Z" id="Shape" fill="#333F48"></path>
            <path d="M346.659091,38.8181818 C344.829545,38.8181818 343.318182,40.3295455 343.318182,42.1590909 L343.318182,47.7272727 C343.318182,48.5227273 344.590909,48.5227273 344.590909,47.7272727 L344.590909,42.1590909 C344.590909,40.9659091 345.545455,40.0909091 346.659091,40.0909091 C347.852273,40.0909091 348.727273,41.0454545 348.727273,42.1590909 L348.727273,47.7272727 C348.727273,48.125 349.045455,48.3636364 349.363636,48.3636364 C349.681818,48.3636364 350,48.125 350,47.7272727 L350,42.1590909 C350,40.3295455 348.488636,38.8181818 346.659091,38.8181818 Z" id="Path" fill="#333F48"></path>
            <rect id="Rectangle" fill="#333F48" x="232.272727" y="0.0795454545" width="1.03409091" height="63.5568182"></rect>
        </g>
    </g>
</svg>