<svg height="140" viewBox="0 0 400 140" width="400" xmlns="http://www.w3.org/2000/svg"><g fill="#6441a5" fill-rule="evenodd" transform="matrix(1 0 0 -1 124 117)"><path d="m33.9118166 19.8591549-6.0125211-6.0243849h-9.4446611l-5.152394-5.16205638v5.16205638h-7.72837091v24.9536901h28.33794711zm-31.77405092 22.3711174-1.71717107-6.8840657v-30.97586857h7.7292517v-4.30325822h4.29226709l4.2949095 4.30325822h6.8686843l13.7391303 13.76548357v24.0944507z" transform="translate(92.074546 51.261642)"/><path d="m107.093957 72.8402911h3.434783v10.3272019h-3.434783zm9.445102 0h3.434782v10.3272019h-3.434782z"/><path d="m147.09801 33.0985915-6.009879 6.0217371h-11.164475v7.7450705h-9.447303v-35.2786855h9.447303v18.0705071h7.72705v-18.0705071h9.447304zm-30.054238 6.0217371h-14.597936l-6.0111996-6.0217371v-15.4874929l6.0111996-6.024385h14.597936v9.4639906h-11.164474v8.6065165h11.164474zm-24.0439181 0h-7.7270497v7.7450705h-9.4473036v-29.2543005l6.0111998-6.024385h11.1631535v9.4639906h-7.7270497v8.6065165h7.7270497zm-20.6091358 7.7450705h-9.4446612v-4.3036996h9.4446612zm0-7.7450705h-9.4446612v-27.5331737h9.4446612zm-12.8794437 0h-9.445542v-18.0696244h-3.4339017v18.0696244h-9.4459824v-18.0696244h-3.4334613v18.0696244h-9.4473036v-27.533615h29.1963124l6.0098786 6.024385zm-38.6409736 0h-7.72749v7.7450705h-9.44554197v-29.2543005l6.01075939-6.024385h11.16227258v9.4639906h-7.72749v8.6065165h7.72749zm129.6598492-4.3006103v-25.81292957l-12.879444-8.60519249h-8.586296v4.30369953l-6.010759-4.30369953h-7.72705v4.30369953l-4.292267-4.30369953h-13.7395706l-4.2949095 4.30369953-.8596866-4.30369953h-12.0197571l-4.9154518 4.30369953-.2752582-4.30369953h-13.6241824l-.4818121 4.30369953-3.6880201-4.30369953h-20.8095238l-4.2940288 1.72112676v-1.72112676h-11.1618322l-12.8807649 7.74595306-7.72749004 7.740216v34.4185633h16.31598794l7.7270496-7.7446291h35.206191v7.7446291h29.1949912v-7.7446291h7.7283708v-4.3010516l4.2949096 4.3010516h8.584975l7.729251 7.7446291h16.314667v-7.7446291h9.445982z" transform="translate(.354841 .160771)"/></g></svg>