<?xml version="1.0" encoding="UTF-8"?>
<svg width="400px" height="140px" viewBox="0 0 400 140" version="1.1" xmlns="http://www.w3.org/2000/svg" xmlns:xlink="http://www.w3.org/1999/xlink">
    <title>Artboard</title>
    <g id="Artboard" stroke="none" stroke-width="1" fill="none" fill-rule="evenodd">
        <g id="absolute-2" transform="translate(25.000000, 47.000000)" fill-rule="nonzero">
            <path d="M96.5734374,21.4553473 C100.129247,23.2241311 101.836036,26.4786933 101.836036,30.2992662 C101.76492,37.8696608 97.1423669,43.954277 88.2528426,43.954277 L67.8424948,43.954277 L67.8424948,0.725201354 L86.4749378,0.725201354 C94.0132544,0.725201354 100.058131,6.52681217 100.058131,14.0264555 C99.9870148,16.5735041 98.7069232,19.7573149 96.5734374,21.4553473 Z M78.6521563,10.5596392 L78.6521563,17.564023 L85.6926596,17.564023 C90.1018637,17.564023 90.1018637,10.5596392 85.6215434,10.5596392 L78.6521563,10.5596392 Z M78.6521563,26.8324501 L78.6521563,34.1905906 L87.5416807,34.1905906 C92.022001,34.1905906 91.9508847,26.8324501 87.4705645,26.8324501 L78.6521563,26.8324501 Z M131.989302,31.2897852 C131.989302,28.247477 128.362376,27.6107149 124.024288,27.3277095 C114.565835,26.620196 108.378726,23.4363851 108.236493,14.0264555 C107.880912,-4.65190135 141.732221,-4.65190135 141.447757,14.0264555 L130.851444,14.0264555 C130.851444,8.29559595 119.188387,8.79085542 118.76169,13.8849528 C118.477226,17.1395149 121.74857,17.8470284 125.659961,18.2715365 C134.336136,19.1913041 142.798964,20.4648284 142.798964,31.3605365 C142.798964,49.5436338 107.311983,49.8973906 107.596448,30.7945257 L118.334993,30.7945257 C118.334993,36.2423797 131.989302,36.3131311 131.989302,31.2897852 L131.989302,31.2897852 Z M147.705982,22.4458662 C147.705982,-7.48195541 192.366952,-7.48195541 192.366952,22.4458662 C192.366952,52.4444392 147.705982,52.4444392 147.705982,22.4458662 L147.705982,22.4458662 Z M180.98836,22.4458662 C180.98836,6.88056892 159.155689,6.88056892 159.155689,22.4458662 C159.155689,38.1526662 180.98836,38.1526662 180.98836,22.4458662 Z M210.074884,34.0490879 L225.86268,34.0490879 L225.86268,44.0250284 L198.838525,44.0250284 L198.838525,0.725201354 L210.003768,0.725201354 C210.074884,23.0826284 210.074884,15.5829851 210.074884,34.0490879 Z M254.380273,29.3794986 L254.380273,0.725201354 L265.047702,0.725201354 L265.047702,29.5917527 C265.047702,39.1431852 256.798223,44.6617906 247.837583,44.6617906 C238.948059,44.6617906 230.556348,39.1431852 230.556348,29.5917527 L230.556348,0.725201354 L241.223777,0.725201354 L241.223777,29.45025 C241.223777,32.9878176 244.637355,34.6858501 247.908699,34.6858501 C251.037813,34.6858501 254.380273,32.9170663 254.380273,29.3794986 Z M270.594766,10.5596392 L270.594766,0.654450003 L302.952634,0.654450003 L302.952634,10.5596392 L292.285205,10.5596392 L292.285205,43.954277 L281.262195,43.954277 L281.262195,10.5596392 L270.594766,10.5596392 Z M335.879432,10.5596392 L319.736056,10.5596392 L319.736056,16.7150068 L334.528224,16.7150068 L334.528224,26.5494446 L319.736056,26.5494446 L319.736056,34.1905906 L336.377246,34.1905906 L336.377246,44.0250284 L308.64193,44.0250284 L308.64193,0.725201354 L335.808316,0.725201354 C335.879432,3.90901217 335.879432,7.23432569 335.879432,10.5596392 Z M44.6586153,0.654450003 L39.9649465,0.654450003 L19.9101796,43.954277 L31.3598869,43.954277 L42.3117809,18.0592825 L53.334791,43.954277 L64.8556146,43.954277 L44.6586153,0.654450003 Z" id="Shape" fill="#231F20"></path>
            <polygon id="Path" fill="#78BE43" points="0 44.011976 20.5214571 0 31.4371257 0 10.9156687 44.011976"></polygon>
            <path d="M340.568862,4.14638349 C340.568862,1.58316461 342.092354,0 345.284431,0 C348.476508,0 350,1.58316461 350,4.14638349 L350,6.33265842 C350,8.89587731 348.476508,10.4790419 345.284431,10.4790419 C342.019806,10.4790419 340.568862,8.89587731 340.568862,6.33265842 L340.568862,4.14638349 Z M341.511976,6.25726963 C341.511976,8.51893335 342.745279,9.57437642 345.356978,9.57437642 C347.968678,9.57437642 349.201981,8.51893335 349.201981,6.25726963 L349.201981,4.22177228 C349.201981,1.96010856 347.968678,0.904665489 345.356978,0.904665489 C342.745279,0.904665489 341.511976,2.03549735 341.511976,4.22177228 L341.511976,6.25726963 Z M345.719715,5.95571447 L344.268771,5.95571447 L344.268771,7.91582303 L343.398204,7.91582303 L343.398204,2.56321889 L345.719715,2.56321889 C347.025564,2.56321889 347.533394,3.09094042 347.533394,4.22177228 C347.533394,5.12643777 347.098112,5.57877052 346.662828,5.80493689 L347.678489,7.91582303 L346.735375,7.91582303 L345.719715,5.95571447 Z M344.268771,5.12643777 L345.719715,5.12643777 C346.372639,5.12643777 346.590281,4.67410503 346.590281,4.22177228 C346.590281,3.61866196 346.372639,3.31710679 345.719715,3.31710679 L344.268771,3.31710679 L344.268771,5.12643777 Z" id="Shape" fill="#000000"></path>
        </g>
    </g>
</svg>