<?xml version="1.0" encoding="UTF-8"?>
<svg width="254px" height="43px" viewBox="0 0 254 43" version="1.1" xmlns="http://www.w3.org/2000/svg" xmlns:xlink="http://www.w3.org/1999/xlink">
    <title>lacework-light</title>
    <defs>
        <linearGradient x1="34.3244906%" y1="2.56808598%" x2="44.5341597%" y2="41.7868806%" id="linearGradient-1">
            <stop stop-color="#01023B" offset="0%"></stop>
            <stop stop-color="#FF646C" offset="100%"></stop>
        </linearGradient>
        <linearGradient x1="63.3479165%" y1="11.5088298%" x2="53.6286431%" y2="48.8411908%" id="linearGradient-2">
            <stop stop-color="#01023B" offset="0%"></stop>
            <stop stop-color="#071573" offset="24%"></stop>
            <stop stop-color="#0D27AA" offset="49%"></stop>
            <stop stop-color="#1135D2" offset="72%"></stop>
            <stop stop-color="#143DEA" offset="89%"></stop>
            <stop stop-color="#1540F3" offset="100%"></stop>
        </linearGradient>
        <linearGradient x1="0%" y1="49.9909338%" x2="100%" y2="49.9909338%" id="linearGradient-3">
            <stop stop-color="#00F8F8" offset="20%"></stop>
            <stop stop-color="#00F4F8" offset="30%"></stop>
            <stop stop-color="#02E7F8" offset="40%"></stop>
            <stop stop-color="#04D3F7" offset="51%"></stop>
            <stop stop-color="#08B6F6" offset="61%"></stop>
            <stop stop-color="#0C90F5" offset="72%"></stop>
            <stop stop-color="#1163F4" offset="83%"></stop>
            <stop stop-color="#1540F3" offset="90%"></stop>
        </linearGradient>
    </defs>
    <g id="Page-1" stroke="none" stroke-width="1" fill="none" fill-rule="evenodd">
        <g id="Artboard" transform="translate(-218.000000, -236.000000)" fill-rule="nonzero">
            <g id="lacework-light" transform="translate(218.000000, 236.000000)">
                <g id="Shield">
                    <path d="M19.5,43 C19.5,43 0,38.7260391 0,19.5566089 L0,0 L7.7490267,7.51862655 L7.7490267,19.5566089 C7.7490267,30.9538379 19.5,34.8256238 19.5,34.8256238 L19.5,43 Z" id="Path" fill="url(#linearGradient-1)"></path>
                    <path d="M19.5,43 C19.5,43 39,38.7260391 39,19.5511556 L39,0 L31.252329,7.51862655 L31.252329,19.5566089 C31.252329,30.9538379 19.5,34.8256238 19.5,34.8256238 L19.5,43 Z" id="Path" fill="url(#linearGradient-2)"></path>
                    <polygon id="Path" fill="url(#linearGradient-3)" points="31.252329 7.51862655 7.7490267 7.51862655 0 0 39 0"></polygon>
                </g>
                <g id="Wordmark-2" transform="translate(53.000000, 7.000000)" fill="#FFFFFF">
                    <path d="M63.7024929,17.3021154 L63.6888949,17.3976923 C63.0701865,21.7444231 60.1371005,24.1392308 55.4281174,24.1392308 C49.7359998,24.1392308 46.0591039,20.1586538 46.0591039,13.9973077 C46.0591039,7.83596154 49.7359998,3.86211538 55.4281174,3.86211538 C59.9154533,3.86211538 62.8036659,6.12769231 63.3693422,10.0759615 L63.3829402,10.1715385 L67.7084601,10.1715385 L67.6948621,10.0476923 C67.3889074,7.32038462 66.1759669,4.85153846 64.2776878,3.09615385 C62.093851,1.07692308 59.0343037,0 55.4281174,0 C47.2516474,0 41.7580604,5.62557692 41.7580604,14 C41.7580604,22.3744231 47.2516474,28 55.4281174,28 C60.694618,28 67.1468632,25.2323077 67.9953776,17.4313462 L68.0089756,17.3075 L63.7024929,17.3021154 Z" id="Path"></path>
                    <polygon id="Path" points="75.8550145 23.7125 75.8550145 15.4969231 87.7954075 15.4969231 87.7954075 11.6428846 75.8550145 11.6428846 75.8550145 4.52038462 89.0817771 4.52038462 89.0817771 0.663653846 71.5906856 0.663653846 71.5906856 27.5678846 89.26535 27.5678846 89.26535 23.7125"></polygon>
                    <polygon id="Path" points="4.26432894 0.651538462 4.26432894 23.6990385 16.5718676 23.6990385 16.5718676 27.5544231 0 27.5544231 0 0.651538462"></polygon>
                    <polygon id="Path" points="120.404742 0.663653846 116.134974 23.3167308 111.827131 0.663653846 105.048534 0.663653846 100.740692 23.3167308 96.4736432 0.663653846 92.3072198 0.663653846 92.3140188 1.82269231 97.2963215 27.5678846 104.112993 27.5678846 108.430354 4.77480769 112.764032 27.5678846 119.580704 27.5678846 124.569805 1.75403846 124.569805 0.663653846"></polygon>
                    <path d="M139.795472,0 C131.400075,0 125.759629,5.62557692 125.759629,14 C125.759629,22.3744231 131.400075,28 139.795472,28 C148.19087,28 153.831315,22.3744231 153.831315,14 C153.831315,5.62557692 148.19087,0 139.795472,0 Z M149.530272,14 C149.530272,20.0873077 145.618131,24.1782692 139.795472,24.1782692 C133.791961,24.1782692 130.060673,20.2744231 130.060673,14 C130.060673,7.72557692 133.791961,3.82172944 139.795472,3.82172944 C145.62493,3.81903846 149.530272,7.91 149.530272,13.9973077 L149.530272,14 Z" id="Shape"></path>
                    <polygon id="Path" points="200.186855 3.43538462 200.186855 0.663653846 196.936936 0.663653846 184.243215 12.5421154 184.243215 0.663653846 179.980245 0.663653846 179.980245 27.5678846 184.243215 27.5678846 184.243215 18.1098077 187.414265 15.1967308 197.252409 27.5678846 200.186855 27.5678846 200.186855 24.7140385 190.456135 12.3886538"></polygon>
                    <path d="M170.672423,16.3678846 C174.443145,15.4767308 176.607944,12.6928846 176.621593,8.70961538 C176.6365,3.70057692 173.348507,0.701346154 167.826364,0.683846154 L156.947974,0.651538462 L156.866386,27.5544231 L161.130715,27.5678846 L161.16471,16.6640385 L165.967519,16.6801923 L173.092865,27.5678846 L176.578029,27.5678846 L176.586188,24.7140385 C176.586188,24.7140385 170.662904,16.3705769 170.672423,16.3678846 Z M161.201424,4.42480769 L167.44698,4.44365385 C170.805683,4.45442308 172.365372,5.775 172.357245,8.60192308 C172.349055,11.4288462 170.781207,12.7467308 167.422504,12.7305769 L161.175588,12.7117308 L161.201424,4.42480769 Z" id="Shape"></path>
                    <path d="M33.2810749,0.651538462 L27.2231713,0.651538462 L19.5457475,25.5675 L19.5457475,27.5544231 L23.4361318,27.5544231 L25.8620128,19.4842308 L34.6422334,19.4842308 L37.0681144,27.5544231 L40.9680173,27.5544231 L40.9680173,25.5675 L33.2810749,0.651538462 Z M27.0260005,15.5238462 L30.2296864,4.77076923 L33.4632879,15.5238462 L27.0260005,15.5238462 Z" id="Shape"></path>
                </g>
            </g>
        </g>
    </g>
</svg>