<svg height="140" viewBox="0 0 400 140" width="400" xmlns="http://www.w3.org/2000/svg"><g fill="none" transform="translate(25 20)"><path d="m349.33067 43.8600515c0 3.8249227-3.059794 7.14-6.884536 7.14s-7.140722-3.0601546-7.140722-6.8850773 3.059794-7.14 6.884536-7.14c3.826547 0 7.140722 3.0599743 7.140722 6.8850773zm-36.210567-40.54504635c-3.824742 0-7.138917 3.31498712-6.884536 7.13998195 0 3.8249949 3.315979 6.8850052 7.140722 6.8850052 3.824742 0 6.884536-3.3150052 6.884536-7.14 0-3.82499488-3.059794-6.88498715-7.140722-6.88498715zm-18.614948-3.31500515c-3.059794 0-5.35464 2.55000258-5.35464 5.60999485 0 3.05999226 2.551031 5.35499995 5.610825 5.35499995s5.354639-2.55000253 5.354639-5.6099948c0-3.06001031-2.551031-5.355-5.610824-5.355zm45.389948 24.7348969c0-4.8449742-4.079124-8.6699149-8.925-8.6699149-4.844072 0-8.668814 4.0800438-8.668814 8.925018s4.079123 8.6698969 8.925 8.6698969c4.844072-.2549227 8.925-4.0798454 8.668814-8.925zm0 32.3851031c-2.803608 0-4.844072 2.2950258-4.844072 5.0998969 0 2.8050516 2.294845 4.8449742 5.100258 4.8449742 2.803608 0 5.100257-2.2948453 4.844072-5.0998969 0-2.8050515-2.294846-4.8449742-5.100258-4.8449742zm-13.004124 9.1799227c-1.529897 0-2.805412 1.2749742-2.805412 3.0599742 0 1.5300773 1.275515 2.8050516 3.059794 2.8050516 1.529897 0 2.805412-1.2749743 2.805412-3.0599743s-1.529897-3.0599742-3.059794-2.8050515zm-44.114433-55.8449356c-1.786082 0-3.315979 1.5300052-3.061598 3.3150052.256186 1.785 1.531701 3.0599922 3.31598 3.0599922 1.784278 0 3.314175-1.5299871 3.059794-3.3149871-.254382-1.785-1.529897-3.0600103-3.314176-3.0600103zm-1.021134 13.5149614c-1.529897 0-2.549226 1.2749742-2.549226 2.5499484 0 1.2751546 1.273711 2.5501289 2.549226 2.5501289 1.275516 0 2.551031-1.2749743 2.551031-2.5501289 0-1.5298969-1.021134-2.5499484-2.551031-2.5499484z" fill="#055992"/><g fill="#1f2438" transform="translate(0 36.082474)"><path d="m307.785309 15.1723196 10.198712-10.19997424c.764948-.76494845.764948-1.785.510567-2.80505155-.510567-1.02005154-1.275516-1.5298969-2.549227-1.5298969-.764949 0-1.275516.25492268-1.786083.76494845l-10.200515 10.19997424-10.454897-10.45507733c-.508763-.50984536-1.273711-.76494846-1.784278-.76494846-1.01933 0-2.040464.76494846-2.549227 1.53007732-.510567 1.01987114-.256186 2.03992268.508763 2.80487114l10.454897 10.45507733-10.198712 10.1999742c-.764948.7649485-1.021134 1.785-.510567 2.8050516.510567 1.0198711 1.275516 1.5298969 2.549227 1.5298969.764949 0 1.275516-.2549227 1.786083-.7649485l10.198711-10.1999742 10.200515 9.4350258c.510567.5100257 1.275516.7649484 1.786083.7649484 1.01933 0 2.03866-.5100258 2.549227-1.5300773.510567-1.0198711.254381-2.0399227-.510567-2.8048711z"/><path d="m22.1849485.38229381h-19.12495623c-1.785 0-3.05999227 1.53007732-3.05999227 3.31507732v23.20499997c0 1.5298969 1.27499227 3.0599743 3.05999227 3.0599743h19.12495623c3.825103 0 7.395103-3.57 7.395103-7.14v-15.04494849c0-3.8251031-3.57-7.3951031-7.395103-7.3951031zm2.040103 22.18494849c0 1.0200515-1.0200515 2.0401031-2.040103 2.0401031-3.314897 0-6.3748712 0-9.6899485 0h-.5100077c-2.29498972 0-4.33500261 0-6.6299923 0v-18.87005159h17.0850515c1.0198712 0 2.0399227 1.02005155 2.0399227 2.0401031v14.78984539z"/><path d="m65.534433.38229381h-14.28c-4.3349485 0-7.6500258 3.31507732-7.6500258 7.3951031v19.63481959c0 1.5300773 1.2749742 2.5501289 2.5499485 2.5501289 1.5300773 0 2.5501288-1.2749743 2.5501288-2.5501289v-8.925h19.1249743v8.925c0 1.5300773 1.2749742 2.5501289 2.5499484 2.5501289 1.5300773 0 2.5499485-1.2749743 2.5499485-2.5501289v-19.63481959c.5100257-4.59005155-3.57-7.3951031-7.3949227-7.3951031zm2.5499484 13.00502579h-19.1249742v-5.60992269c0-1.27515464 1.2749742-2.0401031 2.5499485-2.0401031h14.28c1.2749742 0 2.5501288.76494846 2.5501288 2.0401031v5.60992269z"/><path d="m107.86549.38229381h-20.6548714c-1.5300774 0-2.5501289 1.27497423-2.5501289 2.54994846 0 1.53007732 1.2751546 2.55012886 2.5501289 2.55012886h7.6500257v21.92984537c0 1.5300773 1.2749743 2.5501289 2.5499485 2.5501289 1.5298969 0 2.5499484-1.2749743 2.5499484-2.5501289v-21.67492269h7.6500258c1.530077 0 2.549948-1.27497422 2.549948-2.54994845.510026-1.53007732-.764948-2.80505155-2.295025-2.80505155z"/><path d="m144.839562.38229381h-14.28c-4.334949 0-7.650026 3.31507732-7.650026 7.3951031v19.63481959c0 1.5300773 1.020052 2.5501289 2.550129 2.5501289 1.529897 0 2.549948-1.2749743 2.549948-2.5501289v-8.925h19.124975v8.925c0 1.5300773 1.274974 2.5501289 2.549948 2.5501289 1.530077 0 2.550129-1.2749743 2.550129-2.5501289v-19.63481959c.254923-4.59005155-3.57-7.3951031-7.395103-7.3951031zm2.549948 13.00502579h-19.124974v-5.60992269c0-1.27515464 1.275155-2.0401031 2.550129-2.0401031h14.28c1.274974 0 2.549948.76494846 2.549948 2.0401031v5.60992269z"/><path d="m189.46366 12.6223711h-15.809717c-1.529897 0-2.039922-2.0401031-2.039922-3.56999997 0-1.27497422.510025-3.31507732 2.039922-3.31507732h17.339614c1.529897 0 2.551031-1.27497422 2.551031-2.54994845 0-1.53007732-1.275516-2.54994845-2.551031-2.54994845h-17.339614c-4.844974 0-7.139819 4.33494845-7.139819 8.6698969 0 4.33512889 2.294845 8.67007729 7.394922 8.67007729h15.554614c1.529897 0 2.040464 2.0399227 2.040464 3.57 0 1.2749743-.510567 3.3148969-2.040464 3.3148969h-19.889562c-1.530077 0-2.550129 1.0200516-2.550129 2.5501289 0 1.5298969 1.275155 2.5499485 2.550129 2.5499485h19.889562c5.100258 0 7.140721-4.5900516 7.140721-8.6700774 0-4.3349484-2.55103-8.6698969-7.140721-8.6698969z"/><path d="m231.03067.38229381h-22.441495c-1.529897 0-2.549227 1.27497423-2.549227 2.54994846 0 1.53007732 1.275516 2.55012886 2.549227 2.55012886h9.435567v9.68994847 11.9849742c0 1.5300773 1.275516 2.5499485 2.551031 2.5499485 1.529897 0 2.549227-1.2749743 2.549227-2.5499485v-21.67492267h7.649485c1.529896 0 2.55103-1.27497422 2.55103-2.55012886.508763-1.27497423-.764948-2.54994846-2.294845-2.54994846z"/><path d="m268.004381.38229381h-14.279639c-4.335309 0-7.651288 3.31507732-7.651288 7.3951031v19.63481959c0 1.5300773 1.275515 2.5501289 2.551031 2.5501289 1.529896 0 2.549226-1.2749743 2.549226-2.5501289v-8.925h19.125516v8.925c0 1.5300773 1.275515 2.5501289 2.549227 2.5501289 1.531701 0 2.551031-1.2749743 2.551031-2.5501289v-19.63481959c.254381-4.59005155-3.824743-7.3951031-7.395104-7.3951031zm2.294846 13.00502579h-19.125516v-5.60992269c0-1.27515464 1.275516-2.0401031 2.551031-2.0401031h14.279639c1.275516 0 2.549227.76494846 2.549227 2.0401031v5.60992269z"/></g></g></svg>