<?xml version="1.0" encoding="UTF-8"?>
<svg width="400px" height="140px" viewBox="0 0 400 140" version="1.1" xmlns="http://www.w3.org/2000/svg" xmlns:xlink="http://www.w3.org/1999/xlink">
    <title>Artboard</title>
    <g id="Artboard" stroke="none" stroke-width="1" fill="none" fill-rule="evenodd">
        <g id="infoblox-logo" transform="translate(38.000000, 23.000000)" fill-rule="nonzero">
            <g id="Group">
                <path d="M46.0307692,33.6769231 L46.0307692,63.1230769 L38.7538462,63.1230769 L38.7538462,35.7076923 C38.7538462,33.1692308 38.2461538,31.1384615 37.4,29.9538462 C36.3846154,28.7692308 35.0307692,28.0923077 33,28.0923077 C31.4769231,28.0923077 29.7846154,28.6 28.0923077,29.4461538 C26.4,30.2923077 24.7076923,31.6461538 23.0153846,33.3384615 L23.0153846,63.2923077 L15.9076923,63.2923077 L15.9076923,22.6769231 L22.5076923,22.6769231 L22.5076923,28.0923077 C24.8769231,25.8923077 27.0769231,24.3692308 29.1076923,23.5230769 C31.1384615,22.6769231 33.1692308,22.1692308 35.2,22.1692308 C38.5846154,22.1692308 41.2923077,23.1846154 43.1538462,25.2153846 C45.0153846,27.0769231 46.0307692,29.9538462 46.0307692,33.6769231" id="Path" fill="#231F20"></path>
                <path d="M69.5538462,7.10769231 L69.5538462,13.0307692 C67.8615385,12.8615385 67.1846154,12.8615385 66.5076923,12.8615385 C65.8307692,12.8615385 65.3230769,12.6923077 64.9846154,12.6923077 C63.2923077,12.6923077 62.1076923,13.0307692 61.4307692,13.8769231 C60.7538462,14.7230769 60.4153846,15.9076923 60.4153846,17.7692308 L60.4153846,22.5076923 L69.3846154,22.5076923 L69.3846154,28.6 L60.4153846,28.6 L60.4153846,63.1230769 L53.3076923,63.1230769 L53.3076923,28.6 L53.3076923,22.5076923 L53.3076923,16.7538462 C53.3076923,13.3692308 54.1538462,10.8307692 56.0153846,9.13846154 C57.7076923,7.44615385 60.2461538,6.43076923 63.6307692,6.43076923 C64.3076923,6.43076923 65.1538462,6.43076923 66,6.6 C66.6769231,6.76923077 67.6923077,6.93846154 69.5538462,7.10769231" id="Path" fill="#231F20"></path>
                <path d="M87.8307692,21.8307692 C93.0769231,21.8307692 97.3076923,23.6923077 100.184615,27.2461538 C103.061538,30.8 104.584615,35.8769231 104.584615,42.4769231 C104.584615,49.0769231 103.061538,54.1538462 100.184615,57.7076923 C97.3076923,61.2615385 93.0769231,63.1230769 87.8307692,63.1230769 C82.5846154,63.1230769 78.3538462,61.2615385 75.4769231,57.7076923 C72.6,54.1538462 71.0769231,49.0769231 71.0769231,42.4769231 C71.0769231,36.0461538 72.6,30.9692308 75.4769231,27.2461538 C78.3538462,23.6923077 82.4153846,21.8307692 87.8307692,21.8307692 M87.8307692,28.0923077 C84.7846154,28.0923077 82.4153846,29.2769231 80.7230769,31.6461538 C79.2,34.0153846 78.3538462,37.5692308 78.3538462,42.3076923 C78.3538462,47.0461538 79.2,50.6 80.7230769,53.1384615 C82.2461538,55.5076923 84.6153846,56.8615385 87.8307692,56.8615385 C90.8769231,56.8615385 93.2461538,55.6769231 94.7692308,53.1384615 C96.4615385,50.7692308 97.1384615,47.0461538 97.1384615,42.4769231 C97.1384615,37.7384615 96.2923077,34.1846154 94.7692308,31.6461538 C93.2461538,29.2769231 90.8769231,28.0923077 87.8307692,28.0923077" id="Shape" fill="#231F20"></path>
                <rect id="Rectangle" fill="#231F20" x="151.123077" y="6.76923077" width="7.10769231" height="56.5230769"></rect>
                <rect id="Rectangle" fill="#231F20" x="1.35384615" y="6.76923077" width="7.10769231" height="56.5230769"></rect>
                <path d="M118.292308,63.2923077 L118.292308,58.8923077 C119.476923,60.0769231 120.661538,61.0923077 122.184615,61.7692308 C123.876923,62.6153846 125.907692,63.1230769 128.107692,63.1230769 C133.184615,63.1230769 137.076923,61.2615385 139.784615,57.7076923 C142.661538,53.9846154 144.015385,48.9076923 144.015385,42.4769231 C144.015385,36.2153846 142.492308,31.3076923 139.615385,27.5846154 C136.738462,23.8615385 132.846154,22.1692308 127.938462,22.1692308 C125.907692,22.1692308 124.215385,22.6769231 122.523077,23.3538462 C120.830769,24.2 119.476923,25.3846154 118.292308,27.0769231 L118.292308,6.76923077 L111.184615,6.76923077 L111.184615,63.2923077 L118.292308,63.2923077 Z M134.2,53.3076923 C132.507692,55.8461538 130.138462,57.0307692 127.092308,57.0307692 C125.4,57.0307692 123.876923,56.6923077 122.523077,55.8461538 C121.169231,55 119.646154,53.8153846 118.461538,52.1230769 L118.461538,32.8307692 C119.815385,31.3076923 121.169231,29.9538462 122.523077,29.2769231 C123.876923,28.4307692 125.4,28.0923077 126.923077,28.0923077 C130.138462,28.0923077 132.676923,29.2769231 134.369231,31.8153846 C136.061538,34.3538462 136.907692,38.0769231 136.907692,42.8153846 C136.569231,47.3846154 135.892308,50.9384615 134.2,53.3076923" id="Shape" fill="#231F20"></path>
                <path d="M181.923077,21.8307692 C187.169231,21.8307692 191.4,23.6923077 194.276923,27.2461538 C197.153846,30.8 198.676923,35.8769231 198.676923,42.4769231 C198.676923,49.0769231 197.153846,54.1538462 194.276923,57.7076923 C191.4,61.2615385 187.169231,63.1230769 181.923077,63.1230769 C176.676923,63.1230769 172.446154,61.2615385 169.569231,57.7076923 C166.692308,54.1538462 165.169231,49.0769231 165.169231,42.4769231 C165.169231,36.0461538 166.692308,30.9692308 169.569231,27.2461538 C172.446154,23.6923077 176.676923,21.8307692 181.923077,21.8307692 M181.923077,28.0923077 C178.876923,28.0923077 176.507692,29.2769231 174.815385,31.6461538 C173.292308,34.0153846 172.446154,37.5692308 172.446154,42.3076923 C172.446154,47.0461538 173.292308,50.6 174.815385,53.1384615 C176.338462,55.5076923 178.707692,56.8615385 181.923077,56.8615385 C184.969231,56.8615385 187.338462,55.6769231 188.861538,53.1384615 C190.553846,50.7692308 191.230769,47.0461538 191.230769,42.4769231 C191.230769,37.7384615 190.384615,34.1846154 188.861538,31.6461538 C187.338462,29.2769231 184.969231,28.0923077 181.923077,28.0923077" id="Shape" fill="#231F20"></path>
                <polygon id="Path" fill="#231F20" points="201.046154 22 209.338462 22 216.784615 35.5384615 224.4 22 232.184615 22 220.846154 41.4615385 233.707692 62.9538462 225.415385 62.9538462 216.615385 46.8769231 207.815385 62.9538462 200.030769 62.9538462 212.723077 41.4615385"></polygon>
                <path d="M257.569231,35.7076923 L245.384615,26.5692308 C245.046154,26.2307692 244.876923,25.8923077 244.876923,25.7230769 C244.876923,25.3846154 245.046154,25.0461538 245.384615,24.8769231 C245.384615,24.8769231 257.569231,15.7384615 257.569231,15.7384615 C258.415385,15.0615385 260.107692,15.0615385 261.123077,15.7384615 C261.123077,15.7384615 273.307692,24.8769231 273.307692,24.8769231 C273.646154,25.2153846 273.815385,25.5538462 273.815385,25.7230769 C273.815385,26.0615385 273.646154,26.4 273.307692,26.5692308 L261.123077,35.7076923 C260.107692,36.3846154 258.415385,36.3846154 257.569231,35.7076923" id="Path" fill="#95C840"></path>
                <path d="M257.569231,65.1538462 L245.384615,56.0153846 C245.046154,55.6769231 244.876923,55.3384615 244.876923,55.1692308 C244.876923,54.8307692 245.046154,54.4923077 245.384615,54.3230769 C245.384615,54.3230769 257.569231,45.1846154 257.569231,45.1846154 C258.415385,44.5076923 260.107692,44.5076923 261.123077,45.1846154 C261.123077,45.1846154 273.307692,54.3230769 273.307692,54.3230769 C273.646154,54.6615385 273.815385,55 273.815385,55.1692308 C273.815385,55.5076923 273.646154,55.8461538 273.307692,56.0153846 L261.123077,65.1538462 C260.107692,66 258.415385,66 257.569231,65.1538462" id="Path" fill="#59C9E6"></path>
                <path d="M277.2,21.1538462 L265.015385,12.0153846 C264.676923,11.6769231 264.507692,11.3384615 264.507692,11 C264.507692,10.6615385 264.676923,10.3230769 265.015385,10.1538462 C265.015385,10.1538462 277.2,1.01538462 277.2,1.01538462 C278.215385,0.338461538 279.738462,0.338461538 280.753846,1.01538462 L292.938462,10.1538462 C293.276923,10.4923077 293.446154,10.8307692 293.446154,11 C293.446154,11.3384615 293.276923,11.6769231 292.938462,12.0153846 L280.753846,21.1538462 C279.738462,21.8307692 278.215385,21.8307692 277.2,21.1538462" id="Path" fill="#EBE719"></path>
                <path d="M277.2,50.6 L265.015385,41.4615385 C264.676923,41.1230769 264.507692,40.7846154 264.507692,40.6153846 C264.507692,40.2769231 264.676923,39.9384615 265.015385,39.7692308 C265.015385,39.7692308 277.2,30.6307692 277.2,30.6307692 C278.215385,29.9538462 279.738462,29.9538462 280.753846,30.6307692 L292.938462,39.7692308 C293.276923,40.1076923 293.446154,40.4461538 293.446154,40.6153846 C293.446154,40.9538462 293.276923,41.2923077 292.938462,41.4615385 L280.753846,50.6 C279.738462,51.2769231 278.215385,51.2769231 277.2,50.6" id="Path" fill="#50C0AF"></path>
                <path d="M277.2,80.5538462 L265.015385,71.4153846 C264.676923,71.0769231 264.507692,70.7384615 264.507692,70.4 C264.507692,70.0615385 264.676923,69.7230769 265.015385,69.5538462 C265.015385,69.5538462 277.2,60.4153846 277.2,60.4153846 C278.215385,59.7384615 279.738462,59.7384615 280.753846,60.4153846 L292.938462,69.5538462 C293.276923,69.8923077 293.446154,70.2307692 293.446154,70.4 C293.446154,70.7384615 293.276923,71.0769231 292.938462,71.4153846 L280.753846,80.5538462 C279.738462,81.2307692 278.215385,81.2307692 277.2,80.5538462" id="Path" fill="#0377BB"></path>
                <path d="M296.830769,35.7076923 L284.646154,26.5692308 C284.307692,26.2307692 284.138462,25.8923077 284.138462,25.7230769 C284.138462,25.3846154 284.307692,25.0461538 284.646154,24.8769231 C284.646154,24.8769231 296.830769,15.7384615 296.830769,15.7384615 C297.676923,15.0615385 299.369231,15.0615385 300.384615,15.7384615 C300.384615,15.7384615 312.569231,24.8769231 312.569231,24.8769231 C312.907692,25.2153846 313.076923,25.5538462 313.076923,25.7230769 C313.076923,26.0615385 312.907692,26.4 312.569231,26.5692308 L300.384615,35.7076923 C299.538462,36.3846154 297.846154,36.3846154 296.830769,35.7076923" id="Path" fill="#78BC43"></path>
                <path d="M296.830769,65.1538462 L284.646154,56.0153846 C284.307692,55.6769231 284.138462,55.3384615 284.138462,55.1692308 C284.138462,54.8307692 284.307692,54.4923077 284.646154,54.3230769 C284.646154,54.3230769 296.830769,45.1846154 296.830769,45.1846154 C297.676923,44.5076923 299.369231,44.5076923 300.384615,45.1846154 C300.384615,45.1846154 312.569231,54.3230769 312.569231,54.3230769 C312.907692,54.6615385 313.076923,55 313.076923,55.1692308 C313.076923,55.5076923 312.907692,55.8461538 312.569231,56.0153846 L300.384615,65.1538462 C299.538462,66 297.846154,66 296.830769,65.1538462" id="Path" fill="#109FDA"></path>
                <path d="M323.4,40.4461538 C323.4,43.3230769 321.2,45.6923077 318.153846,45.6923077 C315.276923,45.6923077 312.907692,43.3230769 312.907692,40.4461538 C312.907692,37.5692308 315.107692,35.2 318.153846,35.2 C321.2,35.3692308 323.4,37.5692308 323.4,40.4461538 M313.753846,40.4461538 C313.753846,42.9846154 315.615385,44.8461538 318.153846,44.8461538 C320.692308,44.8461538 322.553846,42.8153846 322.553846,40.4461538 C322.553846,37.9076923 320.692308,36.0461538 318.153846,36.0461538 C315.784615,36.0461538 313.753846,38.0769231 313.753846,40.4461538 M317.138462,43.4923077 L316.461538,43.4923077 L316.461538,37.4 L318.830769,37.4 C320.184615,37.4 320.861538,37.9076923 320.861538,39.0923077 C320.861538,40.1076923 320.184615,40.6153846 319.338462,40.7846154 L321.2,43.4923077 L320.353846,43.4923077 L318.661538,40.7846154 L317.476923,40.7846154 L317.476923,43.4923077 L317.138462,43.4923077 Z M318.153846,40.2769231 C319,40.2769231 320.015385,40.2769231 320.015385,39.2615385 C320.015385,38.4153846 319.338462,38.2461538 318.661538,38.2461538 L317.307692,38.2461538 L317.307692,40.2769231 L318.153846,40.2769231 L318.153846,40.2769231 Z" id="Shape" fill="#231F20"></path>
            </g>
            <g id="Group" transform="translate(0.000000, 72.769231)" fill="#231F20">
                <polygon id="Path" points="9.98461538 14.2153846 2.36923077 3.89230769 2.36923077 14.2153846 0.676923077 14.2153846 0.676923077 1.35384615 2.36923077 1.35384615 9.81538462 11.5076923 9.81538462 1.35384615 11.5076923 1.35384615 11.5076923 14.2153846"></polygon>
                <polygon id="Path" points="14.5538462 14.2153846 14.5538462 1.35384615 23.0153846 1.35384615 23.0153846 2.70769231 16.0769231 2.70769231 16.0769231 6.93846154 22.8461538 6.93846154 22.8461538 8.46153846 16.0769231 8.46153846 16.0769231 12.8615385 23.0153846 12.8615385 23.0153846 14.2153846"></polygon>
                <polygon id="Path" points="34.5230769 14.2153846 30.4615385 8.8 26.4 14.3846154 24.3692308 14.3846154 29.4461538 7.78461538 24.7076923 1.52307692 26.7384615 1.52307692 30.6307692 6.76923077 34.5230769 1.52307692 36.5538462 1.52307692 31.8153846 7.78461538 36.8923077 14.3846154 34.5230769 14.3846154"></polygon>
                <polygon id="Path" points="41.4615385 14.2153846 41.4615385 2.70769231 37.4 2.70769231 37.4 1.35384615 47.2153846 1.35384615 47.2153846 2.70769231 43.1538462 2.70769231 43.1538462 14.2153846"></polygon>
                <polygon id="Path" points="54.3230769 14.2153846 54.3230769 1.35384615 56.0153846 1.35384615 56.0153846 12.8615385 62.1076923 12.8615385 62.1076923 14.2153846 54.3230769 14.2153846"></polygon>
                <polygon id="Path" points="64.3076923 14.2153846 64.3076923 1.35384615 72.7692308 1.35384615 72.7692308 2.70769231 65.8307692 2.70769231 65.8307692 6.93846154 72.6 6.93846154 72.6 8.46153846 65.8307692 8.46153846 65.8307692 12.8615385 72.7692308 12.8615385 72.7692308 14.2153846"></polygon>
                <polygon id="Path" points="79.2 14.2153846 73.9538462 1.35384615 75.8153846 1.35384615 80.2153846 12.5230769 84.6153846 1.35384615 86.4769231 1.35384615 81.2307692 14.2153846"></polygon>
                <polygon id="Path" points="88 14.2153846 88 1.35384615 96.4615385 1.35384615 96.4615385 2.70769231 89.6923077 2.70769231 89.6923077 6.93846154 96.4615385 6.93846154 96.4615385 8.46153846 89.6923077 8.46153846 89.6923077 12.8615385 96.6307692 12.8615385 96.6307692 14.2153846"></polygon>
                <polygon id="Path" points="99.1692308 14.2153846 99.1692308 1.35384615 100.861538 1.35384615 100.861538 12.8615385 106.953846 12.8615385 106.953846 14.2153846 99.1692308 14.2153846"></polygon>
                <polygon id="Path" points="123.2 14.2153846 115.584615 3.89230769 115.584615 14.2153846 113.892308 14.2153846 113.892308 1.35384615 115.584615 1.35384615 123.030769 11.5076923 123.030769 1.35384615 124.723077 1.35384615 124.723077 14.2153846"></polygon>
                <polygon id="Path" points="127.769231 14.2153846 127.769231 1.35384615 136.230769 1.35384615 136.230769 2.70769231 129.292308 2.70769231 129.292308 6.93846154 136.061538 6.93846154 136.061538 8.46153846 129.292308 8.46153846 129.292308 12.8615385 136.230769 12.8615385 136.230769 14.2153846"></polygon>
                <polygon id="Path" points="141.984615 14.2153846 141.984615 2.70769231 137.923077 2.70769231 137.923077 1.35384615 147.738462 1.35384615 147.738462 2.70769231 143.676923 2.70769231 143.676923 14.2153846"></polygon>
                <polygon id="Path" points="159.753846 14.2153846 156.876923 3.72307692 154 14.2153846 152.307692 14.2153846 148.584615 1.35384615 150.446154 1.35384615 153.323077 12.1846154 156.369231 1.35384615 157.723077 1.35384615 160.769231 12.1846154 163.646154 1.35384615 165.507692 1.35384615 161.784615 14.2153846"></polygon>
                <path d="M166.184615,7.78461538 C166.184615,3.89230769 168.723077,1.18461538 172.615385,1.18461538 C176.507692,1.18461538 179.046154,4.06153846 179.046154,7.78461538 C179.046154,11.6769231 176.507692,14.3846154 172.615385,14.3846154 C168.723077,14.5538462 166.184615,11.6769231 166.184615,7.78461538 Z M177.353846,7.78461538 C177.353846,4.73846154 175.492308,2.53846154 172.615385,2.53846154 C169.738462,2.53846154 167.876923,4.73846154 167.876923,7.78461538 C167.876923,10.8307692 169.738462,13.0307692 172.615385,13.0307692 C175.492308,13.0307692 177.353846,10.8307692 177.353846,7.78461538 Z" id="Shape"></path>
                <path d="M189.030769,14.2153846 L185.646154,9.13846154 L183.107692,9.13846154 L183.107692,14.2153846 L181.415385,14.2153846 L181.415385,1.35384615 L186.661538,1.35384615 C189.030769,1.35384615 190.723077,2.87692308 190.723077,5.24615385 C190.723077,7.61538462 189.2,8.8 187.338462,8.96923077 L190.892308,14.2153846 L189.030769,14.2153846 Z M189.030769,5.24615385 C189.030769,3.72307692 188.015385,2.70769231 186.492308,2.70769231 L183.107692,2.70769231 L183.107692,7.61538462 L186.492308,7.61538462 C188.015385,7.78461538 189.030769,6.76923077 189.030769,5.24615385 Z" id="Shape"></path>
                <polygon id="Path" points="201.046154 14.2153846 196.138462 8.46153846 194.784615 9.98461538 194.784615 14.3846154 193.092308 14.3846154 193.092308 1.52307692 194.784615 1.52307692 194.784615 8.12307692 200.538462 1.52307692 202.569231 1.52307692 197.153846 7.61538462 203.076923 14.3846154 201.046154 14.3846154"></polygon>
                <polygon id="Path" points="204.938462 14.2153846 204.938462 1.35384615 206.630769 1.35384615 206.630769 14.2153846"></polygon>
                <polygon id="Path" points="218.815385 14.2153846 211.2 3.89230769 211.2 14.2153846 209.507692 14.2153846 209.507692 1.35384615 211.2 1.35384615 218.646154 11.5076923 218.646154 1.35384615 220.338462 1.35384615 220.338462 14.2153846"></polygon>
                <path d="M222.876923,7.78461538 C222.876923,3.72307692 225.923077,1.18461538 229.476923,1.18461538 C231.846154,1.18461538 233.369231,2.2 234.553846,3.55384615 L233.2,4.4 C232.353846,3.38461538 231,2.53846154 229.476923,2.53846154 C226.6,2.53846154 224.569231,4.73846154 224.569231,7.78461538 C224.569231,10.8307692 226.769231,13.0307692 229.476923,13.0307692 C231,13.0307692 232.353846,12.3538462 233.030769,11.6769231 L233.030769,8.96923077 L228.461538,8.96923077 L228.461538,7.61538462 L234.553846,7.61538462 L234.553846,12.3538462 C233.369231,13.7076923 231.507692,14.5538462 229.476923,14.5538462 C225.753846,14.5538462 222.876923,11.8461538 222.876923,7.78461538 Z" id="Path"></path>
            </g>
        </g>
    </g>
</svg>