<svg xmlns="http://www.w3.org/2000/svg" xmlns:xlink="http://www.w3.org/1999/xlink" viewBox="0 0 710 146" fill="#fff" fill-rule="evenodd" stroke="#000" stroke-linecap="round" stroke-linejoin="round"><use xlink:href="#D" x="1.5" y="2"/><defs><radialGradient id="A" cx="50%" cy="50%" r="60%" fx="36.6%" fy="26.0%"><stop offset="0%" stop-color="#ffea00"/><stop offset="85%" stop-color="#d94c00"/></radialGradient><radialGradient id="B" cx="50%" cy="50%" r="60%" fx="35.8%" fy="32.0%"><stop offset="29%" stop-color="#e5e5e5"/><stop offset="72%" stop-color="#7f7f7f"/></radialGradient><linearGradient id="C" x1="50%" y1="0%" x2="50%" y2="100%"><stop offset="51%" stop-color="#303a55"/><stop offset="100%"/></linearGradient></defs><symbol id="D" overflow="visible"><path d="M29.54 74.859c0-11.539 9.29-20.829 20.829-20.829s20.829 9.29 20.829 20.829-9.29 20.829-20.829 20.829-20.829-9.29-20.829-20.829z" stroke="none" fill="url(#A)"/><path d="M61.396 105.167l4.138 15.442-4.232 1.134-4.138-15.442z" stroke="#303a55" stroke-dasharray="0, 0px" fill="#303a55"/><path d="M101.243 17.168a10.08 10.08 0 1 1 20.198 0 10.08 10.08 0 1 1-20.198 0z" stroke="none" fill="url(#B)"/><g stroke="#303a55"><g fill="none"><path d="M20.703 74.859c0-16.435 13.456-29.666 30.171-29.666s30.171 13.231 30.171 29.666-13.456 29.666-30.171 29.666-30.171-13.231-30.171-29.666z" stroke-width="5"/><path d="M94.173 16.916C94.173 7.545 101.774 0 111.215 0s17.042 7.545 17.042 16.916-7.601 16.916-17.042 16.916-17.042-7.545-17.042-16.916z" stroke-width="4"/></g><path d="M15.95 42.766l11.547 9.69-3.146 3.75-11.547-9.69z" stroke-dasharray="0, 0px" fill="#303a55" stroke-width=".5"/><path d="M0 38.377c0-4.336 3.603-7.827 8.079-7.827s8.079 3.491 8.079 7.827-3.603 7.827-8.079 7.827S0 42.713 0 38.377z" fill="none" stroke-width="3"/><path d="M100.77 31.275L76.752 55.292l-3.275-3.275L97.495 28z" stroke-dasharray="0, 0px" fill="#303a55" stroke-width=".5"/><path d="M57.312 131.793c0-5.175 4.279-9.342 9.594-9.342s9.594 4.167 9.594 9.342-4.279 9.342-9.594 9.342-9.594-4.167-9.594-9.342z" fill="none" stroke-width="4"/></g><g stroke="none"><g fill="url(#B)"><path d="M62.109 131.918c0-2.727 2.139-4.923 4.797-4.923s4.797 2.196 4.797 4.923-2.139 4.923-4.797 4.923-4.797-2.196-4.797-4.923z"/><path d="M4.292 38.376a3.78 3.78 0 0 1 3.787-3.787 3.78 3.78 0 1 1 0 7.574 3.78 3.78 0 0 1-3.787-3.787z"/></g><g fill="url(#C)"><path d="M170.399 104.516h-22.02V33.422h21.875q9.375 0 16.772 4.224 7.397 4.224 11.548 12.012 4.15 7.788 4.15 17.7v3.27q0 9.912-4.077 17.627-4.077 7.715-11.5 11.963-7.422 4.248-16.748 4.297zm-.146-59.23h-7.227v47.46h7.08q8.594 0 13.135-5.615 4.54-5.615 4.64-16.064v-3.76q0-10.84-4.492-16.43-4.492-5.59-13.135-5.59z"/><path d="M257.412 104.516l-4.932-14.648h-25.684l-4.883 14.648h-15.576l26.465-71.094h13.574l26.61 71.094H257.41zM239.6 51.39L230.762 78h17.773L239.6 51.39z"/><path d="M319.277 104.516L305.947 78.5h-11.67v26.025H279.63V33.422h26.416q12.598 0 19.434 5.615 6.836 5.615 6.836 15.87 0 7.275-3.15 12.134-3.15 4.858-9.546 7.74L335 103.832v.684h-15.723zm-25-59.23v21.338h11.816q5.518 0 8.545-2.808 3.027-2.808 3.027-7.74 0-5.03-2.856-7.9-2.856-2.88-8.765-2.88h-11.768z"/><path d="M383.974 104.516L365.713 76l-7.617 8.203v20.313h-14.648V33.422h14.648V65.65l6.445-8.838 18.115-23.39h18.018L375.43 65.014l25.977 39.502h-17.432z"/></g><path d="M460.437 34.406v7.715h-22.852v63.38h-9.326V42.12h-22.803v-7.715h54.98zM512.5 105.5l-15.43-28.76h-16.7v28.76h-9.424V34.406h23.535q12.012 0 18.48 5.47 6.47 5.47 6.47 15.918 0 6.64-3.6 11.572-3.6 4.932-9.985 7.373l16.7 30.176v.586h-10.06zm-32.13-63.38v26.953h14.404q6.982 0 11.108-3.613Q510 61.847 510 55.793q0-6.592-3.93-10.107-3.93-3.516-11.353-3.564H480.36zm98.242 63.38l-6.787-18.555H542.03l-6.7 18.555h-9.668l27.148-71.094h8.203L588.22 105.5h-9.62zm-21.68-59.52L544.86 79.23h24.17l-12.1-33.252zm83.204 36.96h9.424q-1.318 11.28-8.325 17.407-7.007 6.128-18.628 6.128-12.598 0-20.2-9.033-7.593-9.033-7.593-24.17v-6.836q0-9.912 3.54-17.432 3.54-7.52 10.034-11.548 6.494-4.028 15.04-4.028 11.328 0 18.164 6.323 6.836 6.323 7.96 17.505h-9.424q-1.22-8.496-5.298-12.305-4.077-3.8-11.4-3.8-8.984 0-14.087 6.64-5.103 6.64-5.103 18.896v6.885q0 11.572 4.834 18.408 4.834 6.836 13.525 6.836 7.813 0 11.987-3.54 4.175-3.54 5.542-12.33zm62.402-17.968v7.666h-30.8v25.195h35.8v7.666h-45.166V34.406h44.678v7.715h-35.303v22.852h30.8z" fill="#83889b"/></g></symbol></svg>