<?xml version="1.0" encoding="UTF-8"?>
<svg width="400px" height="140px" viewBox="0 0 400 140" version="1.1" xmlns="http://www.w3.org/2000/svg" xmlns:xlink="http://www.w3.org/1999/xlink">
    <title>Artboard</title>
    <g id="Artboard" stroke="none" stroke-width="1" fill="none" fill-rule="evenodd">
        <g id="extrahop" transform="translate(23.000000, 40.000000)" fill-rule="nonzero">
            <path d="M39.1765134,60 C35.6336265,59.7052632 33.8321586,53.9284211 34.0123054,46.7957895 C34.2525011,39.4863158 35.7537244,32.7663158 39.4167091,32.1768421 L40.8578835,32 C41.6385195,40.4884211 44.4608193,46.6189474 49.1446359,47.0905263 L68,46.9726316 C67.099266,54.9894737 64.0968195,59.5873684 60.7941284,59.9410526 L39.1765134,60" id="Path" fill="#FFFFFF"></path>
            <path d="M39.1765134,60 C35.6336265,59.7052632 33.8321586,53.9284211 34.0123054,46.7957895 C34.2525011,39.4863158 35.7537244,32.7663158 39.4167091,32.1768421 L40.8578835,32 C41.6385195,40.4884211 44.4608193,46.6189474 49.1446359,47.0905263 L68,46.9726316 C67.099266,54.9894737 64.0968195,59.5873684 60.7941284,59.9410526 L39.1765134,60" id="Path" fill="#ADAFB2"></path>
            <path d="M16.2971296,34 C14.0312612,33.7667638 12.8386988,30.0932945 13.0175831,25.5451895 C13.1964675,20.8804665 14.1505174,16.6239067 16.476014,16.2157434 L31.2041591,14.1166181 C31.3830435,14.058309 31.5619278,14 31.7408122,14 C33.8277963,14 35.2588711,18.1982507 34.9607305,23.9708455 C34.66259,30.0932945 32.5159777,33.6501458 30.2501092,33.8833819 L16.2971296,34" id="Path" fill="#FFFFFF"></path>
            <path d="M16.2971296,34 C14.0312612,33.7667638 12.8386988,30.0932945 13.0175831,25.5451895 C13.1964675,20.8804665 14.1505174,16.6239067 16.476014,16.2157434 L31.2041591,14.1166181 C31.3830435,14.058309 31.5619278,14 31.7408122,14 C33.8277963,14 35.2588711,18.1982507 34.9607305,23.9708455 C34.66259,30.0932945 32.5159777,33.6501458 30.2501092,33.8833819 L16.2971296,34" id="Path" fill="#ADAFB2"></path>
            <path d="M2.28236594,14 C0.704433931,13.8828452 -0.0553111087,11.3054393 0.00313081747,8.08368201 C0.12001467,4.80334728 0.762875857,1.81589958 2.34080786,1.52301255 L12.4512611,0.0585774059 C12.5681449,0 12.6850288,0 12.8019126,0 C14.2629608,0 15.1980316,2.9874477 14.9642639,6.9707113 C14.7304962,11.2468619 13.32789,13.7656904 11.691516,13.9414226 L2.28236594,14" id="Path" fill="#FFFFFF"></path>
            <path d="M2.28236594,14 C0.704433931,13.8828452 -0.0553111087,11.3054393 0.00313081747,8.08368201 C0.12001467,4.80334728 0.762875857,1.81589958 2.34080786,1.52301255 L12.4512611,0.0585774059 C12.5681449,0 12.6850288,0 12.8019126,0 C14.2629608,0 15.1980316,2.9874477 14.9642639,6.9707113 C14.7304962,11.2468619 13.32789,13.7656904 11.691516,13.9414226 L2.28236594,14" id="Path" fill="#ADAFB2"></path>
            <path d="M50.728466,43 C46.7622565,42.6422487 44.7791518,36.2027257 45.0195281,28.2129472 C45.3199985,20.044293 46.9425388,12.5315162 50.9688424,11.8160136 L76.4487338,8.17887564 C76.7492042,8.05962521 77.1097687,8 77.4102391,8 C81.0158842,8 83.4196475,15.3935264 82.9388948,25.4701874 C82.4581422,36.2027257 78.732309,42.4633731 74.7660995,42.8211244 L50.728466,43" id="Path" fill="#FFFFFF"></path>
            <path d="M50.728466,43 C46.7622565,42.6422487 44.7791518,36.2027257 45.0195281,28.2129472 C45.3199985,20.044293 46.9425388,12.5315162 50.9688424,11.8160136 L76.4487338,8.17887564 C76.7492042,8.05962521 77.1097687,8 77.4102391,8 C81.0158842,8 83.4196475,15.3935264 82.9388948,25.4701874 C82.4581422,36.2027257 78.732309,42.4633731 74.7660995,42.8211244 L50.728466,43" id="Path" fill="#126B95"></path>
            <polygon id="Path" fill="#126B95" points="143.5 31.1968366 135.945055 45 127 45 137.335165 27.3128295 128.087912 11 137.335165 11.059754 143.5 23.6080844 149.725275 11.059754 158.972527 11.059754 149.725275 27.3725835 160 45 151.054945 45"></polygon>
            <path d="M175.896641,34.3240223 C175.896641,34.9692737 175.896641,35.6145251 175.956072,36.2011173 C176.015504,36.7877095 176.193798,37.2569832 176.490956,37.726257 C176.788114,38.1368715 177.263566,38.4888268 177.857881,38.7234637 C178.511628,38.9581006 179.403101,39.075419 180.5323,39.075419 L185.346253,39.075419 L186,39.7206704 L186,41.3631285 C186,42.7122905 185.583979,43.650838 184.81137,44.1787709 C184.03876,44.7067039 182.612403,45 180.591731,45 L178.571059,45 C176.550388,45 174.826873,44.7653631 173.459948,44.4134078 C172.093023,44.0027933 170.963824,43.4162011 170.131783,42.7122905 C169.299742,41.9497207 168.645995,41.0698324 168.289406,40.0139665 C167.932817,38.9581006 167.754522,37.7849162 167.754522,36.4944134 L167.754522,17.6648045 L163,17.6648045 L163,12.3268156 L167.754522,11.9748603 L169.775194,3 L175.837209,3 L175.837209,11.6815642 L185.286822,11.6815642 L185.286822,17.6648045 L175.837209,17.6648045 L175.896641,34.3240223 Z" id="Path" fill="#126B95"></path>
            <path d="M206.941392,17.0418118 L198.970696,17.0418118 L198.970696,45 L191,45 L191,11.6515679 C193.637363,11.4738676 195.747253,11.3554007 197.32967,11.2369338 C198.912088,11.1777003 200.201465,11.0592334 201.25641,11.0592334 C202.311355,11 203.249084,11 204.010989,11 C204.831502,11 205.827839,11 207,11 L206.941392,17.0418118 Z" id="Path" fill="#126B95"></path>
            <path d="M213.3,16.9825784 L212.64,16.3310105 L212.64,14.6724739 C212.64,13.3101045 213.06,12.3623693 213.84,11.8292683 C214.62,11.2961672 216.06,11 218.1,11 L228.36,11 C230.4,11 232.14,11.2369338 233.64,11.7108014 C235.08,12.184669 236.28,12.8362369 237.24,13.6655052 C238.2,14.4947735 238.86,15.5017422 239.34,16.6271777 C239.76,17.7526132 240,18.9965157 240,20.2996516 L240,44.3484321 C237.3,44.5261324 234.96,44.6445993 233.1,44.7630662 C231.24,44.8815331 229.56,44.9407666 228.18,44.9407666 C226.74,45 225.48,45 224.34,45 C223.26,45 222.12,45 220.92,45 C218.88,45 217.14,44.8222997 215.76,44.4076655 C214.38,43.9930314 213.24,43.4006969 212.4,42.6898955 C211.56,41.9198606 210.9,41.0313589 210.54,39.9651568 C210.18,38.8989547 210,37.7142857 210,36.4111498 L210,32.087108 C210,30.7839721 210.18,29.5993031 210.54,28.533101 C210.9,27.466899 211.5,26.5191638 212.4,25.8083624 C213.24,25.097561 214.38,24.5052265 215.76,24.0905923 C217.14,23.6759582 218.88,23.4982578 220.92,23.4982578 C221.94,23.4982578 222.78,23.4982578 223.32,23.4982578 C223.92,23.4982578 224.52,23.4982578 225.18,23.5574913 C225.84,23.6167247 226.62,23.6759582 227.58,23.7351916 C228.54,23.8536585 229.98,23.9721254 231.84,24.1498258 L231.84,22.7874564 C231.84,22.0174216 231.78,21.3066202 231.66,20.5958188 C231.54,19.8850174 231.3,19.2926829 230.88,18.7595819 C230.46,18.2264808 229.86,17.8118467 229.08,17.5156794 C228.3,17.2195122 227.28,17.0418118 226.02,17.0418118 L213.3,16.9825784 Z M231.66,38.8989547 L231.66,30.1324042 L222.18,30.1324042 C221.22,30.1324042 220.5,30.2508711 219.9,30.4285714 C219.36,30.6062718 218.94,30.902439 218.64,31.2578397 C218.34,31.6132404 218.16,31.9686411 218.1,32.3832753 C218.04,32.7979094 217.98,33.271777 217.98,33.7456446 L217.98,35.2264808 C217.98,35.7003484 218.04,36.1149826 218.1,36.5888502 C218.16,37.0627178 218.34,37.4181185 218.64,37.7735192 C218.94,38.1289199 219.36,38.3658537 219.9,38.6027875 C220.44,38.7804878 221.22,38.8989547 222.18,38.8989547 L231.66,38.8989547 Z" id="Shape" fill="#126B95"></path>
            <polygon id="Path" fill="#126B95" points="272.543011 45 272.543011 26.5319149 256.397849 26.5319149 256.397849 44.9404255 248 44.9404255 248.05914 3 256.456989 3 256.397849 20.0382979 272.543011 20.0382979 272.602151 3 281 3 280.94086 45"></polygon>
            <path d="M297.92,45 C295.88,45 294.14,44.8201058 292.76,44.4003527 C291.38,43.9805996 290.24,43.3809524 289.4,42.6613757 C288.56,41.9417989 287.9,40.9823633 287.54,39.9029982 C287.18,38.8236332 287,37.6243386 287,36.3051146 L287,19.6948854 C287,18.3756614 287.18,17.1763668 287.54,16.0970018 C287.9,15.0176367 288.5,14.1181658 289.4,13.3386243 C290.24,12.6190476 291.38,12.0194004 292.76,11.5996473 C294.14,11.1798942 295.88,11 297.92,11 L306.08,11 C308.12,11 309.86,11.1798942 311.24,11.5996473 C312.62,12.0194004 313.76,12.6190476 314.6,13.3386243 C315.44,14.1181658 316.1,15.0176367 316.46,16.0970018 C316.82,17.1763668 317,18.3756614 317,19.6948854 L317,36.3051146 C317,37.6243386 316.82,38.8236332 316.46,39.9029982 C316.1,40.9823633 315.5,41.8818342 314.6,42.6613757 C313.76,43.3809524 312.62,43.9805996 311.24,44.4003527 C309.86,44.8201058 308.12,45 306.08,45 L297.92,45 Z M303.44,38.8835979 C305.48,38.8835979 306.92,38.5837743 307.7,37.9241623 C308.48,37.2645503 308.84,36.2451499 308.84,34.8059965 L308.84,21.1940035 C308.84,19.8148148 308.48,18.7354497 307.7,18.0758377 C306.92,17.4162257 305.54,17.0564374 303.5,17.0564374 L300.62,17.0564374 C298.58,17.0564374 297.14,17.356261 296.36,18.015873 C295.58,18.675485 295.22,19.6948854 295.22,21.1340388 L295.22,34.7460317 C295.22,36.1252205 295.58,37.2045855 296.36,37.8641975 C297.14,38.5238095 298.52,38.8835979 300.56,38.8835979 L303.44,38.8835979 Z" id="Shape" fill="#126B95"></path>
            <path d="M342.982036,44.9737828 L341.305389,44.9737828 C340.646707,44.9737828 339.928144,44.9737828 339.08982,44.9151061 C338.251497,44.8564295 337.293413,44.7977528 336.155689,44.7390762 C335.017964,44.6217228 333.700599,44.5043695 332.143713,44.3283396 L332.143713,58 L324,58 L324.05988,11.6454432 C326.814371,11.4694132 329.08982,11.3520599 330.946108,11.2347066 C332.802395,11.17603 334.479042,11.0586767 335.856287,11.0586767 C337.233533,11 338.491018,11 339.628743,11 C340.766467,11 341.904192,11 343.101796,11 C345.137725,11 346.874251,11.17603 348.251497,11.5867665 C349.628743,11.9975031 350.766467,12.525593 351.60479,13.2883895 C352.443114,13.9925094 353.101796,14.9313358 353.461078,15.9875156 C353.820359,17.0436954 354,18.2172285 354,19.5081149 L354,36.4656679 C354,37.7565543 353.820359,38.9300874 353.461078,39.9862672 C353.101796,41.0424469 352.502994,41.9812734 351.60479,42.6853933 C350.766467,43.4481898 349.628743,43.9762797 348.251497,44.3870162 C346.754491,44.7977528 345.017964,44.9737828 342.982036,44.9737828 M345.736527,34.2946317 L345.736527,21.2097378 C345.736527,20.5642946 345.736527,20.0362047 345.676647,19.4494382 C345.676647,18.9213483 345.497006,18.4519351 345.257485,18.0998752 C345.017964,17.7478152 344.598802,17.454432 344.05988,17.2197253 C343.461078,17.0436954 342.682635,16.9263421 341.54491,16.9263421 L332.083832,16.9263421 L332.083832,38.9300874 L341.005988,38.9300874 C342.203593,38.9300874 343.101796,38.8127341 343.700599,38.5780275 C344.359281,38.3433208 344.778443,38.0499376 345.077844,37.5805243 C345.377246,37.1697878 345.556886,36.6416979 345.616766,36.0549313 C345.676647,35.5855181 345.736527,34.9987516 345.736527,34.2946317" id="Shape" fill="#126B95"></path>
            <path d="M104.912088,10.6851064 C105.758242,9.79148936 107.39011,9.37446809 109.747253,9.37446809 L127.335165,9.37446809 L128,8.71914894 L128,6.69361702 C128,5.32340426 127.576923,4.37021277 126.791209,3.83404255 C126.005495,3.29787234 124.554945,3 122.5,3 L106,3 C103.945055,3 102.192308,3.1787234 100.802198,3.59574468 C99.4120879,4.01276596 98.2637363,4.54893617 97.4175824,5.32340426 C96.5714286,6.03829787 95.9065934,6.99148936 95.543956,8.06382979 C95.1813187,9.13617021 95,10.3276596 95,11.6382979 L95,17 C95,17.2382979 95,17.4170213 95.0604396,17.6553191 L95.0604396,29.212766 C95.0604396,29.4510638 95,29.6893617 95,29.987234 L95,36.3617021 C95,37.6723404 95.1813187,38.8638298 95.543956,39.9361702 C95.9065934,41.0085106 96.510989,41.9617021 97.4175824,42.6765957 C98.2637363,43.3914894 99.4120879,43.987234 100.802198,44.4042553 C102.192308,44.8212766 103.945055,45 106,45 L122.5,45 C124.554945,45 126.005495,44.7021277 126.791209,44.1659574 C127.576923,43.6297872 128,42.6170213 128,41.306383 L128,39.2808511 L127.335165,38.6255319 L109.747253,38.6255319 C107.39011,38.6255319 105.758242,38.2085106 104.912088,37.3148936 C104.065934,36.4212766 103.642857,35.2893617 103.642857,33.9191489 L103.642857,31.3574468 C103.642857,30.0468085 104.005495,28.9148936 104.791209,28.0212766 C105.576923,27.0680851 106.967033,26.6510638 109.082418,26.6510638 L120.505495,26.6510638 L120.505495,20.6340426 L109.082418,20.6340426 C106.967033,20.6340426 105.516484,20.1574468 104.791209,19.2638298 C104.005495,18.3106383 103.642857,17.2382979 103.642857,15.9276596 L103.642857,14.3787234 C103.642857,12.7106383 104.065934,11.5787234 104.912088,10.6851064" id="Path" fill="#126B95"></path>
        </g>
    </g>
</svg>