<svg height="140" viewBox="0 0 400 140" width="400" xmlns="http://www.w3.org/2000/svg"><g fill="none" transform="translate(100 32)"><path d="m152.058098 21-12.055854 16.9607739c-.87001 1.2226805-1.178723 2.65306-.906093 3.50345.677565 2.1161779 1.68389 4.5027563 1.68389 4.5027563s2.634086.0901335 4.89932-.027432c.914112-.0470261 2.17703-.8307957 3.04704-2.0495574l16.273599-22.8899908z" fill="#fac319"/><path d="m121.937892 21 12.059864 16.9595135c.87001 1.2228722 1.178723 2.653476.906093 3.5039993-.673556 2.1204291-1.68389 4.5034622-1.68389 4.5034622s-2.634086.0901476-4.89932-.0274362c-.914112-.0470336-2.17703-.830926-3.04704-2.0498788l-16.273599-22.88966z" fill="#71be4b"/><path d="m95.21338 12.3230924c-4.7348602-8.29141569-12.857862-12.3230924-24.8269675-12.3230924-10.618506 0-18.1088994 3.04211847-22.9485475 9.29643574-4.7736704 6.16541166-7.8513295 15.72083336-7.8513295 29.20356426s3.1048263 23.0342871 7.8629726 29.1996988c4.828005 6.2581827 12.3183984 9.3003012 22.9369044 9.3003012 10.727175 0 18.2913081-3.1696787 23.1464802-9.7409639 4.5679757-6.1615461 7.4671073-15.3033634 7.4671073-28.7706325 0-8.0981426-1.3428374-18.3918675-5.78662-26.1769076m-24.8386106-2.82565263c12.9199585 0 20.3055641 4.94392573 20.3055641 28.99096383 0 24.0470382-7.3739625 28.8479418-20.3055641 28.8479418-13.0480325 0-20.5034967-4.7893072-20.5034967-28.8479418 0-24.0586345 7.4554642-28.99096383 20.5034967-28.99096383m-70.3747694 5.20291163 6.88883338 7.5376506.80725485-.5798193c.8150169-.552761 5.88752687-4.402761 8.68187057-6.5133032v60.7148093h10.2808561v-74.44492975h-8.8603981z" fill="#525151"/><path d="m152.611298 76-12.653271-18.1669194c-.828214-1.1877049-1.127292-2.581635-.866558-3.4141741.648001-2.0622528 1.610417-4.3841967 1.610417-4.3841967s2.519151-.0916556 4.685544.022914c.874226.0496468 2.082038.8096251 2.910253 1.99733l16.702317 23.9450462z" fill="#00a1df"/><path d="m120.327684 75.9923955 12.717342-18.1936802c.828977-1.1824941 1.12313-2.5703088.863358-3.3991954-.645608-2.0532053-1.604471-4.3649623-1.604471-4.3649623s-2.50985-.0912536-4.668246.0228134c-.870998.049429-2.074351.8060731-2.899508 1.9885673l-16.736159 23.9540617z" fill="#e84b50"/><path d="m201.277424 49.2055152h8.632459v-2.9625489h-8.632459v-4.941308h10.098349v-2.9886343h-13.511002v19.3441402h13.59244v-2.9886343h-10.179787zm28.871815 2.5340041-8.92331-13.4264953h-3.210996v19.3441402h3.273044v-13.5531955l8.973725 13.5531955h3.187727v-19.3441402h-3.30019zm18.211155-13.7395193c-3.909039 0-7.868491 2.4445687-7.868491 7.1138439v6.20831c0 4.6096516 3.994355 6.6741196 7.949929 6.6741196s7.837467-2.4557481 7.837467-7.1436557v-5.9623625c0-4.0506801-3.253654-6.8902553-7.918905-6.8902553zm-4.459717 7.0355879c0-2.7948575 2.214346-4.0469537 4.405424-4.0469537 2.788293 0 4.591569 1.4905907 4.591569 3.8121856v6.2083101c0 2.7426868-2.237614 3.972424-4.455838 3.972424-2.71461 0-4.541155-1.5539407-4.541155-3.8680827zm28.778743 4.3525246-5.48739-11.0490031h-3.870258v19.3180548h3.30019v-12.9830446l4.711788 9.4093535h2.590513l4.680763-9.3981741v12.9718652h3.327336v-19.3180548h-3.897404zm36.046142-11.3881125c-4.630349 0-7.864613 2.8917459-7.864613 7.0355879v6.286566c0 3.9910565 3.191606 6.6741196 7.946051 6.6741196 4.397668 0 7.368227-2.463201 7.368227-6.1263275v-1.0098752h-3.273044v.6968511c0 2.079374-1.60162 3.424632-4.079671 3.424632-2.71461 0-4.537276-1.5539407-4.537276-3.8680827v-6.1561394c0-2.7426867 2.210468-3.9686976 4.401546-3.9686976 1.939007 0 4.215401.8943544 4.215401 3.4209056v.8831749h3.249776v-1.1701136c0-3.6035029-3.048119-6.1226011-7.426397-6.1226011zm22.872527 8.7758524-3.556139-.9390721c-2.524587-.6782187-2.819316-1.751444-2.819316-2.4967393 0-1.8147941 1.803277-2.4557481 3.342848-2.4557481 1.970032 0 3.342849.7452953 4.091305 2.1986212l.151243.2981181 2.966681-1.1403018-.124097-.32793c-.930723-2.4855599-3.490213-3.9128004-7.030839-3.9128004-3.974965 0-6.751623 2.2806037-6.751623 5.5487237 0 2.7389603 1.438743 4.3450717 4.653617 5.2170672l3.521237.9129868c1.85369.5328862 2.609903 1.3042668 2.609903 2.6532514 0 1.9899385-2.136786 2.6942426-3.967208 2.6942426-2.326809 0-4.079671-1.0657724-4.781592-2.9215577l-.127974-.3428359-3.102411 1.117943.09695.320477c.919089 2.9811813 3.831478 4.7698901 7.798686 4.7698901 4.3744 0 7.430275-2.4110304 7.430275-5.8654742.027147-2.7948575-1.462011-4.5910192-4.401546-5.3288616zm-41.188388-8.436743h3.408775v19.3180548h-3.408775zm-108.541738 12.0663313h5.212051v1.1775666c0 2.5079187-2.22598 3.3985466-4.130085 3.3985466-2.71461 0-4.541155-1.5539407-4.541155-3.8680827v-6.1561394c0-2.7426867 2.214347-3.9686976 4.405425-3.9686976 2.035957 0 4.211523.8570897 4.211523 3.2643936v.8570896h3.276922v-1.1440283c0-4.1214832-3.75004-5.9623626-7.461299-5.9623626-4.614837 0-7.841345 2.8917458-7.841345 7.0355878v6.2865661c0 3.9910564 3.195484 6.6741196 7.949929 6.6741196 4.428692 0 7.403129-2.463201 7.403129-6.1263276v-4.4941308h-8.485095z" fill="#fff"/></g></svg>