<?xml version="1.0" encoding="UTF-8"?>
<svg width="400px" height="140px" viewBox="0 0 400 140" version="1.1" xmlns="http://www.w3.org/2000/svg" xmlns:xlink="http://www.w3.org/1999/xlink">
    <title>Artboard</title>
    <g id="Artboard" stroke="none" stroke-width="1" fill="none" fill-rule="evenodd">
        <g id="Group" transform="translate(105.956522, 26.000000)" fill="#161616">
            <path d="M187.043478,69.0674026 L187.043478,73.9996395 L162.436858,73.9996395 L162.436858,69.0674026 L187.043478,69.0674026 Z M127.990168,69.0674026 L127.990168,73.9996395 L103.386771,73.9996395 L103.386771,69.0674026 L127.990168,69.0674026 Z M147.189909,69.0674026 L145.210289,73.9996395 L143.256461,69.0674026 L147.189909,69.0674026 Z M92.0668231,69.0674026 C88.352354,72.2761015 83.5962154,74.0289003 78.6834265,73.9996395 L39.4102024,73.9996395 L39.4102024,69.0674026 L92.0668231,69.0674026 Z M34.4901679,69.0674026 L34.4901679,73.9996395 L0.0434782609,73.9996395 L0.0434782609,69.0674026 L34.4901679,69.0674026 L34.4901679,69.0674026 Z M127.990168,59.1997116 L127.990168,64.1319484 L103.386771,64.1319484 L103.386771,59.1997116 L127.990168,59.1997116 Z M151.036306,59.1997116 L149.121168,64.1319484 L141.325202,64.1319484 L139.397168,59.1997116 L151.033082,59.1997116 L151.036306,59.1997116 Z M96.9868576,59.1997116 C96.5432673,60.9352466 95.8481192,62.596851 94.9234093,64.1319484 L39.4102024,64.1319484 L39.4102024,59.1997116 L96.9868576,59.1997116 Z M34.4901679,59.1997116 L34.4901679,64.1319484 L0.0434782609,64.1319484 L0.0434782609,59.1997116 L34.4901679,59.1997116 L34.4901679,59.1997116 Z M187.043478,59.1997116 L187.043478,64.1319484 L162.436858,64.1319484 L162.436858,59.1997116 L187.043478,59.1997116 Z M177.200185,49.3320205 L177.200185,54.2674747 L162.436858,54.2674747 L162.436858,49.3320205 L177.203409,49.3320205 L177.200185,49.3320205 Z M127.990168,49.3320205 L127.990168,54.2674747 L113.22684,54.2674747 L113.22684,49.3320205 L127.993392,49.3320205 L127.990168,49.3320205 Z M154.895599,49.3320205 L152.961116,54.2674747 L137.465909,54.2674747 L135.51853,49.3320205 L154.895599,49.3320205 L154.895599,49.3320205 Z M96.3001162,49.3320205 C96.7418231,50.9085346 96.9868576,52.5590483 96.9868576,54.2674747 L78.7801507,54.2674747 L78.7801507,49.3320205 L96.3001162,49.3320205 Z M64.0168231,49.3320205 L64.0168231,54.2674747 L49.2534955,54.2674747 L49.2534955,49.3320205 L64.0200472,49.3320205 L64.0168231,49.3320205 Z M24.650099,49.3320205 L24.650099,54.2674747 L9.88354723,54.2674747 L9.88354723,49.3320205 L24.650099,49.3320205 L24.650099,49.3320205 Z M177.200185,39.4675468 L177.200185,44.3997837 L162.436858,44.3997837 L162.436858,39.4675468 L177.203409,39.4675468 L177.200185,39.4675468 Z M127.990168,39.4675468 L127.990168,44.3997837 L113.22684,44.3997837 L113.22684,39.4675468 L127.993392,39.4675468 L127.990168,39.4675468 Z M158.751668,39.4675468 L156.826858,44.3997837 L133.548582,44.3997837 L131.643116,39.4675468 L158.751668,39.4675468 Z M90.2451852,39.4675468 C91.9443058,40.8574531 93.4048403,42.5272711 94.5268403,44.3997837 L49.2534955,44.3997837 L49.2534955,39.4675468 L90.2451852,39.4675468 Z M24.650099,39.4675468 L24.650099,44.3997837 L9.88354723,44.3997837 L9.88354723,39.4675468 L24.650099,39.4675468 L24.650099,39.4675468 Z M143.836806,29.5998558 L145.213513,33.5894016 L146.593444,29.5998558 L177.200185,29.5998558 L177.200185,34.5320926 L162.436858,34.5320926 L162.436858,29.9988104 L160.76353,34.53531 L129.615133,34.53531 L127.990168,29.9988104 L127.990168,34.53531 L113.22684,34.53531 L113.22684,29.5998558 L143.84003,29.5998558 L143.836806,29.5998558 Z M24.650099,29.5998558 L24.650099,34.5320926 L9.88354723,34.5320926 L9.88354723,29.5998558 L24.650099,29.5998558 Z M94.5268403,29.5998558 C93.3930131,31.4763501 91.9447582,33.144662 90.2451852,34.5320926 L49.2534955,34.5320926 L49.2534955,29.5998558 L94.5268403,29.5998558 Z M177.200185,19.7321647 L177.200185,24.667619 L148.299013,24.667619 L150.040047,19.7321647 L177.200185,19.7321647 Z M140.403099,19.7321647 L142.144133,24.667619 L113.22684,24.667619 L113.22684,19.7321647 L140.406323,19.7321647 L140.403099,19.7321647 Z M96.9868576,19.7321647 C96.9868576,21.4405912 96.7418231,23.0943223 96.3001162,24.667619 L78.7769265,24.667619 L78.7769265,19.7321647 L96.9868576,19.7321647 Z M64.0168231,19.7321647 L64.0168231,24.667619 L49.2534955,24.667619 L49.2534955,19.7321647 L64.0200472,19.7321647 L64.0168231,19.7321647 Z M24.650099,19.7321647 L24.650099,24.667619 L9.88354723,24.667619 L9.88354723,19.7321647 L24.650099,19.7321647 L24.650099,19.7321647 Z M136.995185,9.86769106 L138.703978,14.7999279 L103.389996,14.7999279 L103.389996,9.86769106 L136.998409,9.86769106 L136.995185,9.86769106 Z M187.043478,9.86769106 L187.043478,14.7999279 L151.706927,14.7999279 L153.480202,9.86769106 L187.043478,9.86769106 L187.043478,9.86769106 Z M94.9201852,9.86769106 C95.8358403,11.3895097 96.5451507,13.0464582 96.9868576,14.7999279 L39.4134265,14.7999279 L39.4134265,9.86769106 L94.9201852,9.86769106 Z M34.4901679,9.86769106 L34.4901679,14.7999279 L0.0434782609,14.7999279 L0.0434782609,9.86769106 L34.4901679,9.86769106 L34.4901679,9.86769106 Z M133.542133,1.42108547e-14 L135.283168,4.93223684 L103.386771,4.93223684 L103.386771,1.42108547e-14 L133.542133,1.42108547e-14 Z M187.043478,1.42108547e-14 L187.043478,4.93223684 L155.185771,4.93223684 L156.888116,1.42108547e-14 L187.043478,1.42108547e-14 Z M78.6802024,1.42108547e-14 C83.8420472,1.42108547e-14 88.5363921,1.86929524 92.0668231,4.93223684 L39.4134265,4.93223684 L39.4134265,1.42108547e-14 L78.6802024,1.42108547e-14 Z M34.4933921,1.42108547e-14 L34.4933921,4.93223684 L0.0434782609,4.93223684 L0.0434782609,1.42108547e-14 L34.4901679,1.42108547e-14 L34.4933921,1.42108547e-14 Z" id="Shape"></path>
        </g>
    </g>
</svg>