<?xml version="1.0" encoding="UTF-8"?>
<svg width="400px" height="140px" viewBox="0 0 400 140" version="1.1" xmlns="http://www.w3.org/2000/svg" xmlns:xlink="http://www.w3.org/1999/xlink">
    <title>Artboard</title>
    <g id="Artboard" stroke="none" stroke-width="1" fill="none" fill-rule="evenodd">
        <g id="InMobi-logo" transform="translate(25.000000, 43.000000)" fill-rule="nonzero">
            <g id="Group" transform="translate(0.537324, 1.170775)" fill="#004291">
                <path d="M55.0165493,1.37535211 L45.1573944,1.37535211 C39.2228597,1.04101837 33.381252,2.96210174 28.8035211,6.75352113 C24.6411394,10.8205042 22.4555746,16.4981136 22.8165493,22.306338 L22.8165493,50.4788732 L34.2605634,50.4788732 L34.2605634,21.3228873 C34.0857258,18.6082934 35.1475118,15.9601701 37.1492958,14.1183099 C39.4056648,12.2918154 42.2584231,11.3654811 45.1573944,11.5179577 L55.0165493,11.5179577 C57.9153346,11.3668937 60.7675994,12.2930677 63.0246479,14.1183099 C65.0125227,15.9697399 66.0715503,18.6109836 65.9133803,21.3228873 L65.9133803,50.481338 L77.3598592,50.481338 L77.3598592,22.306338 C77.7208852,16.4971477 75.5332702,10.8188875 71.3679577,6.75352113 C66.7914637,2.96160795 60.9504116,1.04041776 55.0165493,1.37535211" id="Path"></path>
                <path d="M161.722183,1.37535211 L151.863028,1.37535211 C145.929295,1.04140317 140.088594,2.96247788 135.51162,6.75352113 C135.415493,6.84225352 135.33662,6.93838028 135.242958,7.02957746 C135.149296,6.93838028 135.067958,6.84225352 134.971831,6.75352113 C130.395457,2.96139035 124.554317,1.04017125 118.620423,1.37535211 L108.761268,1.37535211 C102.827438,1.0406642 96.9864734,2.96182551 92.4098592,6.75352113 C88.2448881,10.8189557 86.0580921,16.497426 86.4204225,22.306338 L86.4204225,50.4788732 L97.8521127,50.4788732 L97.8521127,21.3228873 C97.677178,18.6077808 98.7400161,15.9592933 100.74331,14.1183099 C102.999792,12.2920243 105.852468,11.3657168 108.751408,11.5179577 L118.610563,11.5179577 C121.509998,11.3676865 124.362757,12.2937362 126.621127,14.1183099 C128.609002,15.9697399 129.668029,18.6109836 129.509859,21.3228873 L129.509859,50.481338 L140.956338,50.481338 L140.956338,21.3228873 C140.7815,18.6082934 141.843286,15.9601701 143.84507,14.1183099 C146.101779,12.2924419 148.954291,11.3661879 151.853169,11.5179577 L161.712324,11.5179577 C164.611078,11.3671287 167.463261,12.2932761 169.720423,14.1183099 C171.708297,15.9697399 172.767325,18.6109836 172.609155,21.3228873 L172.609155,50.481338 L184.050704,50.481338 L184.050704,22.306338 C184.413035,16.497426 182.226239,10.8189557 178.061268,6.75352113 C173.484533,2.96204301 167.643657,1.04091058 161.709859,1.37535211" id="Path"></path>
                <path d="M321.600704,24.0760563 C322.474674,23.0692221 323.107718,21.876469 323.451761,20.5883803 C323.911777,18.5840039 324.111428,16.5286783 324.045775,14.4732394 C324.391535,10.2129694 322.375289,6.10573163 318.79331,3.77359155 C315.186727,1.97510517 311.173393,1.1484808 307.149648,1.37535211 L270.774296,1.37535211 L270.774296,50.481338 L310.169014,50.481338 C314.536178,50.8220397 318.880096,49.5796705 322.40669,46.981338 C325.103169,44.6126761 326.468662,40.7010563 326.468662,35.3573944 C326.468662,29.9003521 324.832042,26.1119718 321.600704,24.0735915 M307.282746,19.7183099 L282.21831,19.7183099 L282.21831,11.584507 L307.211268,11.584507 C312.007746,11.584507 312.670775,13.5982394 312.670775,15.7746479 C312.670775,17.8179577 312.017606,19.7183099 307.277817,19.7183099 M282.21831,29.9866197 L308.838028,29.9866197 C314.354225,29.9866197 315.098592,32.4390845 315.098592,34.8373239 C315.098592,38.6528169 313.373239,40.2080986 309.183099,40.2080986 L282.21831,40.2080986 L282.21831,29.9866197 Z" id="Shape"></path>
                <rect id="Rectangle" x="335.366549" y="1.42464789" width="11.6288732" height="49.0566901"></rect>
                <path d="M191.703873,18.2714789 C191.728521,18.2320423 191.755634,18.1926056 191.780282,18.153169 L191.940493,17.9214789 C192.085915,17.721831 192.228873,17.534507 192.38169,17.3447183 C192.44331,17.2584507 192.477817,17.2190141 192.509859,17.1795775 L192.581338,17.0933099 C192.899375,16.7256398 193.238441,16.3766987 193.596831,16.0482394 L193.72007,15.9373239 C193.917254,15.7573944 194.134155,15.5774648 194.358451,15.3950704 C194.474296,15.3038732 194.582746,15.2126761 194.703521,15.1190141 L194.762676,15.0795775 C195.406416,14.596451 196.08437,14.1606819 196.791197,13.7757042 L197.037676,13.6450704 C197.552817,13.3690141 198.080282,13.1200704 198.62993,12.8883803 L198.689085,12.8637324 C198.952817,12.7528169 199.231338,12.6443662 199.514789,12.5359155 L199.886972,12.4028169 C200.37993,12.2278169 200.9,12.0602113 201.437324,11.9098592 C201.6,11.8630282 201.77007,11.8112676 201.942606,11.7669014 C202.019014,11.7471831 202.092958,11.7274648 202.164437,11.7028169 C202.235915,11.678169 202.378873,11.6411972 202.497183,11.6116197 C203.409155,11.3651408 204.289085,11.1802817 205.107394,11.0274648 L205.107394,11.0274648 C205.494366,10.9559859 205.869014,10.8919014 206.223944,10.8376761 L206.246127,10.8376761 L206.347183,10.8204225 L206.497535,10.7982394 L206.544366,10.7982394 C206.857394,10.7538732 207.153169,10.7144366 207.426761,10.6799296 L207.513028,10.6676056 L207.513028,10.6676056 C207.794014,10.6330986 208.055282,10.6010563 208.294366,10.5788732 L208.439789,10.5665493 L208.501408,10.5665493 L208.501408,10.5665493 L208.577817,10.5665493 L208.678873,10.5665493 L208.678873,10.5665493 L209.137324,10.5271127 L209.194014,10.5271127 L209.440493,10.5098592 L209.53169,10.5098592 C209.808507,10.4818775 210.086561,10.4678926 210.364789,10.4679577 L244.29507,10.4679577 C246.847863,10.4580019 249.265992,11.6121708 250.863732,13.603169 L250.750352,12.9820423 C250.698592,12.7355634 250.644366,12.5038732 250.582746,12.2598592 L250.516197,11.993662 C250.449648,11.7471831 250.380634,11.5007042 250.301761,11.2542254 L250.109507,10.6626761 C249.994484,10.3258216 249.865493,9.98814554 249.722535,9.64964789 L249.722535,9.61760563 C248.098159,5.4702591 244.428386,2.47034996 240.040845,1.70316901 L239.794366,1.65140845 C239.565141,1.60950704 239.328521,1.57007042 239.089437,1.53556338 L239.000704,1.53556338 C238.769014,1.50352113 238.52993,1.47887324 238.29331,1.45422535 C238.105986,1.43450704 237.917019,1.41889671 237.726408,1.40739437 C237.600704,1.40739437 237.47993,1.38767606 237.346831,1.38028169 L237.270423,1.38028169 C236.930282,1.36549296 236.585211,1.3556338 236.227817,1.3556338 L211.013028,1.3556338 C200.55493,1.3556338 192.009507,8.925 191.703873,18.3330986" id="Path"></path>
                <path d="M252.35,35.35 C252.325352,35.4658451 252.29331,35.5964789 252.258803,35.7123239 C252.258803,35.7246479 252.258803,35.7394366 252.258803,35.7492958 C252.224296,35.875 252.189789,35.9957746 252.150352,36.1362676 L252.135563,36.1830986 C252.096127,36.3137324 252.051761,36.4542254 252.00493,36.5947183 L251.992606,36.6341549 C251.94331,36.7820423 251.889085,36.9348592 251.832394,37.0876761 L251.832394,37.1098592 C251.386714,38.278372 250.807773,39.3915935 250.107042,40.4274648 L250.087324,40.4545775 C249.960798,40.6419014 249.829343,40.8300469 249.692958,41.0190141 L249.66338,41.0584507 C249.517958,41.253169 249.37007,41.4478873 249.212324,41.6475352 L249.212324,41.6475352 C248.690208,42.3019932 248.125359,42.9211861 247.521479,43.5010563 L247.50669,43.5158451 C247.307042,43.7056338 247.102465,43.8978873 246.888028,44.0852113 L246.769718,44.1887324 C246.584859,44.3514085 246.397535,44.5116197 246.202817,44.6816901 C246.146127,44.7260563 246.091901,44.7728873 246.032746,44.8147887 C245.845423,44.9676056 245.650704,45.1179577 245.453521,45.2683099 L245.261268,45.4088028 C245.054225,45.5591549 244.839789,45.7119718 244.620423,45.8623239 L244.445423,45.9855634 C244.184155,46.1605634 243.917958,46.3330986 243.641901,46.503169 L243.580282,46.5450704 C242.973944,46.9180751 242.325704,47.2820423 241.635563,47.6369718 L241.371831,47.7700704 C241.125352,47.8957746 240.859155,48.0165493 240.595423,48.1471831 L240.230634,48.3123239 C239.984155,48.4207746 239.737676,48.5316901 239.491197,48.6376761 L239.074648,48.8102113 C238.824883,48.9120892 238.568545,49.0131455 238.305634,49.1133803 L237.864437,49.2809859 C237.58838,49.3820423 237.307394,49.4806338 237.023944,49.5767606 C236.878521,49.6260563 236.738028,49.6778169 236.590141,49.7246479 C236.261502,49.8330986 235.916432,49.9407277 235.55493,50.0475352 L235.254225,50.1411972 C234.813028,50.2693662 234.361972,50.3876761 233.896127,50.5158451 L241.591197,50.5158451 C253.39507,50.5158451 262.997887,42.6630282 262.997887,33.0158451 L262.997887,18.7940141 C262.997887,9.70140845 254.477113,2.2084507 243.619718,1.36795775 L243.644366,1.38028169 L243.740493,1.42464789 C243.986972,1.53802817 244.196479,1.63908451 244.398592,1.74014085 L244.58838,1.83873239 C244.811854,1.95704225 245.027934,2.07946009 245.23662,2.20598592 L245.372183,2.28978873 C245.594014,2.4278169 245.766549,2.53626761 245.93169,2.65457746 L246.079577,2.7556338 C246.269366,2.88873239 246.451761,3.02922535 246.63169,3.16971831 L246.823944,3.32746479 C246.984155,3.45809859 247.146831,3.59366197 247.302113,3.73661972 C247.341549,3.77112676 247.39331,3.82042254 247.442606,3.86725352 C247.583099,3.99542254 247.716197,4.11373239 247.846831,4.25669014 C247.893662,4.30105634 247.945423,4.35774648 247.997183,4.41197183 C248.162324,4.58204225 248.307746,4.73978873 248.44331,4.90492958 C248.49507,4.95915493 248.546831,5.02323944 248.598592,5.08732394 C248.694718,5.20316901 248.798239,5.33380282 248.896831,5.45704225 L249.032394,5.62957746 C249.153169,5.78485915 249.278873,5.95 249.384859,6.12253521 L249.525352,6.32711268 C249.616549,6.46267606 249.705282,6.60070423 249.784155,6.73380282 L249.919718,6.94577465 C250.01338,7.10105634 250.092254,7.2415493 250.166197,7.38204225 L250.296831,7.62852113 C250.380634,7.78626761 250.466901,7.94894366 250.54331,8.10915493 L250.816901,8.69084507 C250.858803,8.78697183 250.88838,8.85105634 250.915493,8.92007042 C250.979577,9.05809859 251.051056,9.22816901 251.117606,9.40070423 L251.198944,9.6028169 C251.250704,9.73838028 251.3,9.87640845 251.344366,10.0119718 C251.370278,10.0705027 251.392504,10.1305965 251.410915,10.1919014 C251.450352,10.3028169 251.492254,10.4383803 251.534155,10.5542254 L251.632746,10.8746479 C251.686972,11.0471831 251.736268,11.2147887 251.783099,11.3676056 L251.930986,11.9369718 C251.94331,11.9838028 251.960563,12.0478873 251.975352,12.1144366 C252.009859,12.2598592 252.051761,12.4323944 252.086268,12.6073944 L252.11338,12.7306338 L252.303169,13.7683099 C252.311565,13.8056533 252.31733,13.8435397 252.320423,13.8816901 C252.372183,14.1996479 252.416549,14.5348592 252.448592,14.8528169 L252.448592,14.921831 C252.480634,15.1855634 252.507746,15.493662 252.52993,15.7771127 C252.552113,16.0235915 252.569366,16.3267606 252.584155,16.6323944 L252.628521,18.6042254 L252.628521,33.3461268 C252.627868,34.0209116 252.540052,34.6927855 252.367254,35.3450704 L252.367254,35.3450704 C252.367909,35.3557411 252.367909,35.366442 252.367254,35.3771127" id="Path"></path>
                <path d="M194.545775,17.0070423 C194.226664,17.2982962 193.924636,17.6077313 193.641197,17.9338028 C193.621479,17.9584507 193.586972,18.0028169 193.547535,18.0422535 L193.448944,18.1728873 C193.31338,18.340493 193.185211,18.5105634 193.059507,18.6806338 L192.909155,18.8926056 C192.798239,19.0626761 192.682394,19.2426056 192.578873,19.4151408 L192.514789,19.5285211 C192.413732,19.7059859 192.32007,19.8834507 192.238732,20.0485915 C192.140141,20.253169 192.066197,20.4232394 192.004577,20.5809859 C191.942958,20.7387324 191.886268,20.8915493 191.854225,21.0024648 L191.834507,21.0591549 C191.802465,21.1626761 191.775352,21.2464789 191.758099,21.3179577 L191.73838,21.396831 C191.73838,21.4485915 191.713732,21.4929577 191.708803,21.5299296 L191.696479,21.5964789 L191.696479,33.0084507 C191.696479,42.6630282 200.323239,50.5084507 210.921831,50.5084507 L226.834507,50.5084507 C239.555282,48.8471831 245.660563,44.2577465 248.586268,40.2401408 C247.28721,40.9990142 245.809402,41.3980308 244.30493,41.3961268 L210.374648,41.3961268 C205.850979,41.4537326 202.133659,37.8400393 202.06338,33.3165493 L202.06338,18.503169 C202.067386,16.1505077 203.110172,13.9197029 204.912676,12.4077465 L202.832394,12.8859155 C202.733803,12.9105634 202.64507,12.9376761 202.558803,12.9623239 L202.292606,13.0387324 L201.821831,13.1693662 C201.309155,13.3172535 200.813732,13.475 200.342958,13.6426056 L199.995423,13.7658451 C199.724296,13.8693662 199.453169,13.9728873 199.196831,14.081338 L199.137676,14.1059859 C198.644718,14.3204225 198.151761,14.5496479 197.673592,14.8059859 L197.488732,14.9045775 C196.84267,15.2542156 196.222427,15.6495894 195.632746,16.0876761 L195.521831,16.1690141 C195.216197,16.415493 194.917958,16.6619718 194.65669,16.8911972 L194.545775,17.0070423 Z" id="Path"></path>
                <rect id="Rectangle" x="1.92746479" y="1.38028169" width="11.6633803" height="49.2070423"></rect>
            </g>
            <path d="M2.46478873,51.7605634 L2.46478873,2.55352113 L14.128169,2.55352113 L14.128169,51.7605634 L2.46478873,51.7605634 Z M234.401408,51.6816901 C234.864789,51.5609155 235.315845,51.4352113 235.759507,51.3070423 L236.062676,51.2133803 C236.417606,51.1073944 236.757746,50.9964789 237.095423,50.890493 C237.24331,50.843662 237.383803,50.7919014 237.529225,50.7401408 C237.810211,50.6448357 238.089554,50.5462441 238.367254,50.4443662 L238.808451,50.2792254 C239.069718,50.178169 239.326056,50.0795775 239.57993,49.9760563 L239.996479,49.8035211 C240.242958,49.6975352 240.489437,49.5866197 240.735915,49.4757042 L241.100704,49.3105634 C241.364437,49.1873239 241.620775,49.0640845 241.877113,48.9334507 L242.140845,48.8003521 C242.826056,48.4503521 243.474296,48.0806338 244.083099,47.7084507 L244.144718,47.6690141 C244.420775,47.4964789 244.686972,47.3214789 244.948239,47.1514085 L245.125704,47.0257042 C245.347535,46.8753521 245.557042,46.7225352 245.764085,46.5721831 L245.958803,46.4316901 C246.153521,46.281338 246.348239,46.1309859 246.535563,45.978169 C246.592254,45.9362676 246.648944,45.8919014 246.703169,45.8426056 C246.900352,45.6848592 247.085211,45.5246479 247.272535,45.3644366 L247.390845,45.2584507 C247.607746,45.068662 247.809859,44.8788732 248.007042,44.6866197 L248.024296,44.671831 C248.628226,44.0936299 249.19231,43.4751965 249.712676,42.8207746 L249.712676,42.8207746 C249.867958,42.6235915 250.01831,42.4288732 250.161268,42.2341549 L250.190845,42.1922535 C250.326408,42.0024648 250.457042,41.8151408 250.582746,41.6278169 C250.591329,41.6189079 250.59878,41.6089737 250.60493,41.5982394 C251.307208,40.5632904 251.886245,39.4498838 252.330282,38.2806338 C252.32985,38.2740681 252.32985,38.2674812 252.330282,38.2609155 C252.389437,38.1080986 252.441197,37.9552817 252.492958,37.8073944 C252.494444,37.7942908 252.494444,37.7810613 252.492958,37.7679577 C252.542254,37.6274648 252.58662,37.4869718 252.621127,37.356338 C252.621127,37.3390845 252.621127,37.3242958 252.63838,37.309507 C252.677817,37.1764085 252.712324,37.0630282 252.744366,36.9225352 C252.744366,36.9225352 252.744366,36.8978873 252.744366,36.8855634 C252.776408,36.7598592 252.810915,36.6390845 252.838028,36.5232394 C252.839444,36.5134311 252.839444,36.5034703 252.838028,36.493662 C253.01053,35.8413186 253.098341,35.1694833 253.099296,34.4947183 L253.099296,19.7528169 L253.05,17.7809859 C253.05,17.4753521 253.020423,17.1647887 252.998239,16.928169 C252.976056,16.6447183 252.946479,16.3366197 252.916901,16.0753521 L252.916901,16.0038732 C252.884859,15.6859155 252.842958,15.3507042 252.788732,15.0327465 C252.785459,14.9954315 252.779695,14.958377 252.771479,14.921831 L252.58169,13.8792254 L252.552113,13.7584507 C252.517606,13.5883803 252.475704,13.4158451 252.441197,13.265493 C252.430681,13.2047647 252.416691,13.1446896 252.399296,13.0855634 L252.251408,12.5161972 C252.202113,12.3510563 252.155282,12.1859155 252.101056,12.0232394 L252.002465,11.7028169 L251.879225,11.340493 C251.857042,11.2764085 251.82993,11.2049296 251.812676,11.1630282 C251.76338,11.025 251.716549,10.8894366 251.664789,10.7514085 L251.583451,10.5517606 C251.516901,10.3792254 251.445423,10.2091549 251.381338,10.0711268 C251.354225,10.0021127 251.327113,9.93556338 251.282746,9.83943662 L251.00669,9.25774648 C250.927817,9.09507042 250.844014,8.93485915 250.760211,8.77957746 L250.627113,8.53309859 C250.545775,8.39260563 250.469366,8.25211268 250.380634,8.09683099 L250.24507,7.88732394 C250.163732,7.74929577 250.075,7.61373239 249.983803,7.47570423 L249.84331,7.27605634 C249.732394,7.1084507 249.609155,6.94577465 249.49331,6.78309859 C249.441549,6.71901408 249.389789,6.65739437 249.355282,6.61056338 C249.25669,6.47746479 249.150704,6.36408451 249.054577,6.24084507 C249.006896,6.17746601 248.955019,6.11735472 248.899296,6.06091549 C248.763732,5.89823944 248.620775,5.74295775 248.455634,5.56795775 C248.403873,5.51126761 248.352113,5.45704225 248.305282,5.41267606 C248.177113,5.27711268 248.041549,5.14894366 247.901056,5.02077465 C247.851761,4.97394366 247.797535,4.92464789 247.760563,4.89260563 C247.605282,4.74964789 247.442606,4.61408451 247.284859,4.48098592 L247.090141,4.32570423 C246.910211,4.18521127 246.730282,4.0471831 246.542958,3.91161972 C246.491197,3.8721831 246.436972,3.83767606 246.392606,3.81056338 C246.227465,3.6971831 246.057394,3.58626761 245.835563,3.44823944 L245.7,3.36197183 C245.490493,3.23626761 245.273592,3.11549296 245.051761,2.9971831 L244.859507,2.89859155 C244.65493,2.79753521 244.447887,2.69894366 244.198944,2.58309859 L244.102817,2.53873239 L244.080634,2.53873239 C254.925704,3.37676056 263.453873,10.8721831 263.453873,19.9623239 L263.453873,34.1742958 C263.453873,43.8288732 253.841197,51.6742958 242.049648,51.6742958 L234.401408,51.6816901 Z M211.464085,51.6816901 C200.865493,51.6816901 192.238732,43.8264085 192.238732,34.1816901 L192.238732,22.7721831 L192.238732,22.7056338 C192.238732,22.668662 192.255986,22.621831 192.26831,22.5700704 L192.285563,22.4911972 C192.305282,22.4197183 192.32993,22.3383803 192.364437,22.2447183 L192.38169,22.1880282 C192.416197,22.0771127 192.463028,21.9415493 192.534507,21.7665493 C192.605986,21.5915493 192.67007,21.4362676 192.768662,21.2341549 C192.85,21.0690141 192.941197,20.8890845 193.044718,20.7140845 L193.111268,20.6007042 C193.212324,20.4306338 193.325704,20.2482394 193.43662,20.078169 L193.589437,19.8661972 C193.712676,19.6961268 193.835915,19.5235915 193.976408,19.3559859 L194.07993,19.2253521 L194.173592,19.1144366 C194.457371,18.7910412 194.758519,18.4833102 195.075704,18.1926056 L195.189085,18.0915493 C195.450352,17.8450704 195.751056,17.5985915 196.054225,17.3693662 L196.162676,17.2880282 C196.754415,16.8516843 197.375352,16.4563926 198.021127,16.1049296 L198.205986,16.0088028 C198.684155,15.7623239 199.164789,15.5158451 199.667606,15.3088028 L199.726761,15.2841549 C199.973239,15.1732394 200.254225,15.0672535 200.527817,14.9661972 C200.641197,14.9242958 200.752113,14.8848592 200.877817,14.8454225 C201.343662,14.6778169 201.839085,14.5176056 202.35669,14.3697183 L202.827465,14.2390845 L203.096127,14.1651408 C203.17993,14.1380282 203.268662,14.1109155 203.364789,14.0862676 L205.44507,13.6056338 C203.642827,15.1186144 202.600907,17.350399 202.598239,19.7035211 L202.598239,34.5144366 C202.66583,39.0385013 206.382839,42.6540675 210.907042,42.5964789 L244.834859,42.5964789 C246.339552,42.6000545 247.81779,42.2009215 249.116197,41.440493 C246.190493,45.4556338 240.087676,50.0450704 227.366901,51.7088028 L211.464085,51.6816901 Z M271.301761,51.6545775 L271.301761,2.54612676 L307.677113,2.54612676 C311.700757,2.32062707 315.713742,3.1471797 319.320775,4.9443662 C322.903693,7.27589418 324.920942,11.3832466 324.575704,15.6440141 C324.640282,17.6987358 324.439805,19.7532136 323.979225,21.7566901 C323.634801,23.0453663 323.001822,24.2388402 322.128169,25.246831 C325.359507,27.2852113 326.998592,31.0711268 326.998592,36.5306338 C326.998592,41.8742958 325.630634,45.7834507 322.93662,48.1496479 C319.41036,50.7488545 315.066412,51.9921073 310.698944,51.6521127 L271.301761,51.6545775 Z M282.750704,41.3788732 L309.695775,41.3788732 C313.905634,41.3788732 315.611268,39.8211268 315.611268,36.0056338 C315.611268,33.6073944 314.871831,31.1573944 309.350704,31.1573944 L282.730986,31.1573944 L282.750704,41.3788732 Z M282.750704,20.8841549 L307.812676,20.8841549 C312.55,20.8841549 313.203169,18.993662 313.203169,16.940493 C313.203169,14.7591549 312.537676,12.7503521 307.743662,12.7503521 L282.750704,12.7503521 L282.750704,20.8841549 Z M335.896479,51.6521127 L335.896479,2.6028169 L347.535211,2.6028169 L347.535211,51.6521127 L335.896479,51.6521127 Z M173.148944,51.6521127 L173.148944,22.493662 C173.306366,19.7826009 172.247401,17.1424169 170.260211,15.2915493 C168.002407,13.4659344 165.149237,12.5397517 162.249648,12.6911972 L152.390493,12.6911972 C149.491522,12.5387205 146.638763,13.4650548 144.382394,15.2915493 C142.380397,17.1323914 141.317743,19.7795124 141.491197,22.493662 L141.491197,51.6521127 L130.044718,51.6521127 L130.044718,22.493662 C130.202141,19.7826009 129.143176,17.1424169 127.155986,15.2915493 C124.897312,13.4657702 122.043319,12.5396053 119.142958,12.6911972 L109.283803,12.6911972 C106.384832,12.5387205 103.532073,13.4650548 101.275704,15.2915493 C99.2722045,17.1313534 98.2092504,19.7792236 98.384507,22.493662 L98.384507,51.6521127 L86.9429577,51.6521127 L86.9429577,23.4795775 C86.5795898,17.6702577 88.7654698,11.9909292 92.9299296,7.92429577 C97.5065438,4.13260016 103.347508,2.21143885 109.281338,2.54612676 L119.140493,2.54612676 C125.075287,2.20982108 130.917597,4.13113558 135.494366,7.92429577 C135.590493,8.01056338 135.671831,8.10915493 135.763028,8.20035211 C135.85669,8.11161972 135.938028,8.01056338 136.03662,7.92429577 C140.612478,4.13297635 146.452535,2.21182369 152.385563,2.54612676 L162.244718,2.54612676 C168.17871,2.21020604 174.020114,4.13151188 178.596127,7.92429577 C182.76143,11.9903734 184.947465,17.6701043 184.583099,23.4795775 L184.583099,51.6521127 L173.148944,51.6521127 Z M66.4433099,51.6521127 L66.4433099,22.493662 C66.6007321,19.7826009 65.5417671,17.1424169 63.5545775,15.2915493 C61.2968858,13.4657259 58.443634,12.5395165 55.5440141,12.6911972 L45.6848592,12.6911972 C42.7866294,12.5386305 39.9346111,13.4650096 37.6792254,15.2915493 C35.6778367,17.132646 34.6160553,19.7798519 34.790493,22.493662 L34.790493,51.6521127 L23.3440141,51.6521127 L23.3440141,23.4795775 C22.9832802,17.6701839 25.1697731,11.9916009 29.3334507,7.92429577 C33.9100649,4.13260016 39.7510292,2.21143885 45.6848592,2.54612676 L55.5440141,2.54612676 C61.478743,2.21031442 67.3208777,4.13157107 71.8978873,7.92429577 C76.0627493,11.9909777 78.2502158,17.6697522 77.8897887,23.4795775 L77.8897887,51.6521127 L66.4433099,51.6521127 Z M211.552817,2.46478873 L236.747887,2.46478873 C237.107746,2.46478873 237.452817,2.46478873 237.792958,2.48943662 L237.866901,2.48943662 L238.246479,2.5165493 C238.438732,2.5165493 238.623592,2.54366197 238.81338,2.56338028 C239.059859,2.58556338 239.291549,2.60774648 239.523239,2.64225352 L239.609507,2.64225352 C239.855986,2.67922535 240.085211,2.71619718 240.316901,2.75809859 L240.56338,2.80985915 C244.951278,3.57796644 248.620982,6.57875303 250.24507,10.7267606 C250.24507,10.7267606 250.24507,10.7464789 250.24507,10.756338 C250.386385,11.0948357 250.515376,11.4333333 250.632042,11.771831 L250.824296,12.3633803 C250.905634,12.6098592 250.974648,12.856338 251.038732,13.1028169 L251.105282,13.3690141 C251.166901,13.615493 251.221127,13.8619718 251.272887,14.0911972 L251.386268,14.7123239 C249.787866,12.7218556 247.370407,11.5670997 244.817606,11.5746479 L210.911972,11.5746479 C210.621127,11.5746479 210.327817,11.5919014 210.078873,11.6165493 L209.990141,11.6165493 L209.743662,11.6338028 L209.686972,11.6338028 L209.228521,11.6707746 L209.228521,11.6707746 L209.125,11.6707746 L209.051056,11.6707746 L209.051056,11.6707746 L208.991901,11.6707746 L208.844014,11.6707746 C208.597535,11.6954225 208.351056,11.7274648 208.065141,11.759507 L208.065141,11.759507 L207.978873,11.759507 C207.702817,11.7964789 207.407042,11.8334507 207.094014,11.8802817 L207.049648,11.8802817 L206.896831,11.9024648 L206.79331,11.9172535 L206.773592,11.9172535 C206.416197,11.9739437 206.034155,12.0380282 205.654577,12.109507 L205.654577,12.109507 C204.836268,12.2623239 203.956338,12.4521127 203.044366,12.693662 C202.923592,12.7232394 202.817606,12.7577465 202.709155,12.7873239 C202.600704,12.8169014 202.566197,12.8316901 202.487324,12.8514085 C202.314789,12.8957746 202.144718,12.9475352 201.979577,12.9919014 C201.444718,13.1471831 200.919718,13.3147887 200.43169,13.4848592 L200.057042,13.6130282 C199.776056,13.7239437 199.49507,13.8299296 199.233803,13.9408451 L199.174648,13.9679577 C198.622535,14.1996479 198.097535,14.4609155 197.582394,14.7271127 L197.335915,14.8552817 C196.628047,15.2398253 195.949242,15.6756114 195.30493,16.1591549 L195.248239,16.1985915 C195.127465,16.2922535 195.016549,16.3834507 194.900704,16.4746479 C194.678873,16.6570423 194.459507,16.8369718 194.264789,17.0169014 L194.141549,17.1278169 C193.78297,17.4552113 193.443891,17.8033436 193.126056,18.1704225 L193.054577,18.2566901 C193.022535,18.2985915 192.990493,18.3380282 192.926408,18.4242958 C192.771127,18.6140845 192.630634,18.8014085 192.482746,18.9985915 L192.325,19.2302817 C192.300352,19.2697183 192.270775,19.3116197 192.246127,19.3461268 C192.546831,10.0341549 201.092254,2.46478873 211.552817,2.46478873 Z" id="Shape" fill="#0B4DCC"></path>
        </g>
    </g>
</svg>