<svg height="140" viewBox="0 0 400 140" width="400" xmlns="http://www.w3.org/2000/svg"><path d="m102.269834 0c-1.882847.95049922-6.0530415 1.1874063-9.5423374 1.1874063h-34.4324901c-19.3533313 0-31.2310265 6.26150055-33.177973 15.6473763-.3285105 1.623709-.21248 3.2843173.3203022 4.7496252h6.4327366c.4767208-10.1383346 11.5063623-15.92443777 28.6803958-15.92443777l9.5823753-.03958022c-5.584461 3.24744751-10.2409551 7.48927239-13.82638 15.48905549-.0600928.1584011-.1334035.3165657-.2135347.4749625h9.6624507c3.6255223-8.8710333 6.1343045-13.38981402 9.8759857-15.96401799h13.9464929c7.6035223-.19801082 10.888926-2.09610038 13.212467-4.98710645zm-46.1769053 21.5844078c-1.4061226 3.2870277-5.534041 13.6635488-8.7549278 22.1385307-1.1297273 2.9702216-2.1469261 5.6983596-2.896066 7.7973016-3.7136353 9.8611083-6.0880484 14.3798595-9.0485382 16.0431783l.4804535.9103448c8.3125946.4752371 13.2506684-3.7292875 16.4555273-11.4914542 1.5583771-3.7622605 3.3742301-8.6654358 5.0447602-13.2593705 1.5783769-4.3167126 3.0209668-8.3631821 3.9904321-10.8977509 1.6745655-4.3563183 3.1048858-8.0725729 4.3908096-11.2011996zm-30.655593 0c.9534715 2.7326093 3.2850455 4.9077561 6.8864981 5.264168l.4937993-.3562219c-.7210943-1.2673014-.9929585-3.3240073-.9609067-4.5913044.0040059-.0792195.00934-.1978462.0133459-.2770615zm152.7040903-20.83238381c-9.694682.07921953-21.668985 2.25948325-30.041681 19.36791611-1.562349.2376206-3.042102.7120131-4.364118 1.4644677-.84125.5148425-1.601101 1.0682351-2.322191 1.8206897l.36034.7916042c1.362083-.4752327 2.96175-.5937032 4.764496-.5937032-1.121724 2.811795-3.441874 8.9547702-5.805478 15.172414-1.389394 1.8444375-2.787689 3.4920044-4.177275 4.947526h-.040038c-5.568433 5.8612318-10.927956 8.6284563-15.054205 8.668066-2.844301.0395803-4.003778-1.462893-4.003778-4.1955021-.040059-1.3465167.240061-3.1656528.520491-4.4725639.080098-.2771964.120054-.5539835.200189-.791604 5.568433-2.7326051 11.127624-5.7889487 16.135226-10.9373315 2.764169-2.9702256 4.684398-5.8956907 4.764495-8.9847076 0-.5148383-.039986-.9892604-.160151-1.4248876-.52079-1.9801462-2.280458-2.9685157-5.284987-3.0080959-.192792-.0024741-.378712-.0069788-.573875 0-2.927404.1047113-6.108236 1.2631047-9.07523 3.0080959-2.243409 1.3465167-4.363131 3.0070701-6.085742 4.8287856-4.406675 4.7523357-8.020189 11.1317113-9.262073 17.3097451-.280427 1.3861221-.440855 2.769859-.440855 4.116342-.03962 5.0691673 2.652303 9.3014592 9.622852 9.1430285 7.411243-.2376164 14.17003-4.5086779 20.01889-10.567916-1.482244 3.8810811-2.762197 7.2421482-3.483287 9.0242877-2.203333 5.385999-3.801697 9.7089137-7.126725 12.2434784l.400378.6332833c9.774817.5544226 13.423671-6.2209155 17.469818-17.3493252.921386-2.4949594 1.761137-4.9065867 2.642493-7.2431787 2.884369-8.0393634 5.403926-15.0111122 7.487065-20.1991004 4.246452 0 10.341146.1587515 13.746304-.6332833-7.050676 3.0890211-13.224771 12.4761929-15.027513 20.8323837-.480739 2.2177627-.680749 4.3526834-.480453 6.3328337.400634 4.0394825 2.799629 6.8473764 8.087631 6.8473764 7.571471.0396097 14.264357-6.5269097 18.550838-13.1802101 1.442184-2.257347 2.641998-4.5505841 3.483287-6.5307346 1.882839-4.5543248 3.082772-8.4020024 3.323135-12.2434782 2.403668-.435623 4.737177-.8706549 5.858862-1.0290855 2.283477-.3168021 1.842122 2.1362463 1.161096 4.0371814-1.802738 4.8315468-4.082679 10.6573737-6.165818 15.7661169-2.844301 6.9305224-5.258295 12.5072958-5.258295 12.6260872h7.980864c2.483764-5.2275728 4.323012-9.0618038 6.205855-12.6260872.681057-1.3068773 1.360871-2.5323988 2.081965-3.7997002 3.28496-5.663187 10.701733-15.0536731 13.666229-15.0536731 1.04158-.0395759 1.321387.6722937 1.121058 1.6623689-.4006 2.5741744-4.93637 10.2605117-7.740638 17.1910044h8.901733c.640963-1.4653121 1.240923-2.7305192 1.681587-3.6413791 2.443705-5.1879839 6.806559-12.7556612 6.566196-16.874363-.040064-.5544142-.200053-1.1079757-.440416-1.5832084l-11.811145-.0395802c-4.006088 2.5346027-7.898841 6.9630813-11.304 12.2698652l-.160151-.0791606c2.163287-4.7919705 3.843653-9.3397135 3.803589-11.4782608.000013-.2376121-.040042-.4748274-.080075-.7124438-.280444-1.5049134-1.400114-2.1373567-3.523325-2.0977511-1.722624 0-4.042496.6725089-6.325969 1.2665667-1.081648.2771924-2.161378.5539625-3.283098.8311844-2.243371.5544523-4.576226 1.1079799-7.059995 1.6227886-2.283439.3564415-3.002833.7119836-3.002833 1.504048.240363 6.4948698-1.920144 13.6257289-4.844571 19.0116941-2.844302 5.1879883-6.404367 8.826387-9.288765 8.826387-2.523807-.0000043-3.136293-1.7796783-3.136293-4.3142431 0-1.3861304.159959-2.888401.520491-4.5121439 1.762683-8.6334212 7.937371-19.4855167 13.986531-21.4656671.640955-.1980066 1.240928-.3165572 1.681587-.4353823l.080075-.2374813.800756-2.1373313c-1.522286.2772219-5.123764.3562219-7.006612.3562219-1.922911.0396097-15.78823.0395802-15.78823.0395802 4.166312-9.8215072 10.017909-16.16176285 18.550837-16.47856075 5.32807-.23762057 8.888191 1.73976449 9.20869 4.7892054.240363 2.53456885-.519343 4.60328185-2.562419 6.74182905l.600567.554123c4.647048-2.1781613 7.900789-5.9091797 7.900789-8.44377815.040063-3.92066148-4.693376-6.33285891-12.344982-6.25367316zm32.577406 20.83238381h11.811145c-.721099-1.2672971-2.240659-2.2560719-4.764496-2.2560719-2.363557 0-4.723142.8303738-7.046649 2.2560719zm-4.897955 22.1385307c-1.322003 3.2474477-2.282179 6.3314785-2.242116 8.7076463.080136 4.7127554 2.693354 7.5723844 7.100033 8.6416793l.880832-.5145429c-.520799-.9900709-.600542-2.3475855-.640605-3.8128936-.040068-3.5642411 2.04091-8.9824025 3.803589-12.9823087zm38.222733-38.97331331c-2.203337.03960977-4.44392 2.05679037-4.924647 4.47256373-.520802 2.45539158.879542 4.40662628 3.122947 4.36701648 2.243406-.0396055 4.443891-2.0699795 4.964685-4.48575712.480739-2.45538734-.919609-4.39342864-3.162985-4.35382309zm-124.62426.23748126-7.780676 1.46446777c-1.161783.27722191-1.881557 1.14733636-2.282153 2.0185907-2.003042 4.11869348-4.002548 8.40151698-6.165818 13.11424288h8.848349c2.964496-6.3760404 5.737783-12.24098734 7.380298-16.59730135zm-16.228647 16.59730135c-1.922915 4.237527-3.9624846 8.7970701-6.2058556 13.905847-.5207903 1.1484721-1.0900571 2.3741078-1.6148573 3.6413795-1.1377091 1.5841288-2.3588037 3.1259964-3.6567838 4.5913042-4.3305503 4.8711565-9.368947 8.6284563-13.8797634 8.668066-2.4437053.0395803-3.5313365-1.3441312-3.5233247-4.1559221.0040059-1.3861304.2747639-3.2052328.547183-4.5121439.0641033-.2771964.1267757-.5539835.186843-.791604 5.5524349-2.7326051 11.1249721-5.7889487 16.148571-10.9373315 2.780219-2.9702256 4.7110863-5.8956907 4.7511499-8.9847076-.0000044-.5148383-.0399867-.9892604-.1601514-1.4248876-.4927485-1.9801462-2.2670778-2.9685157-5.2716408-3.0080959-.1915407-.0024741-.3928741-.0069788-.5872208 0-2.9152116.1047113-6.1232606 1.2631047-9.0752299 3.0080959-2.2594333 1.3465167-4.3711433 3.0070701-6.0857425 4.8287856-4.4146958 4.7523357-8.0268722 11.1317113-9.2487271 17.3097451-.2763908 1.3861221-.4243917 2.769859-.4404153 4.116342-.0560915 5.1879923 2.4317559 9.3014592 9.222035 9.1430285 7.2550165-.2376164 14.3487628-5.7764648 18.0303465-9.7367317-.4767206 1.6633145-.7740636 3.2447625-.7740636 4.6308846 0 4.5939387 2.3302202 7.8492642 6.9131898 9.2749626l.9208691-.4353825c-.4006256-1.2672971-.5205425-2.545457-.4003778-4.0503748.2804309-3.7226844 1.5603797-7.8339515 3.4832867-12.9427287.400591-1.0296553.840546-2.0971009 1.281209-3.245577 2.443701-6.1384578 5.483553-12.7545213 8.28782-18.8533735zm161.405634-2.6122938c-2.844297.0396055-6.13729.869764-9.342148 2.6122938-2.203338 1.2276916-4.403003 2.8881352-6.406045 5.0266867-5.074736 5.4512905-8.02797 11.8913517-9.275419 17.111844h-.013346c-.002562.0131682.002562.0264376 0 .0395804-.197716 1.0145199-.401347 1.9505633-.480453 2.8497751-2.804276 3.2474474-5.897725 5.3828789-7.980864 5.4224886-1.161783.0792197-1.961851-.513808-1.961851-1.7811094-.040068-1.0692566.559892-3.2439516 1.641549-6.0557721.080088-.1584011.120057-.3165275.200188-.4749626 2.443697-6.0592128 5.936529-13.4258942 10.182942-22.1385307.320486-.6336337.640442-1.3453176.960907-2.0185907-.000009 0-7.246232 1.2268514-8.28782 1.4644678-.440668.1188293-.853917.3165066-1.21448.5541229-.520781.3564415-.96074.8703847-1.241171 1.504048-3.084655 6.4552601-6.765069 14.0213917-9.088576 19.6053973-.120186.3564118-.280179.672678-.400377 1.0290854-1.201821 3.1286226-1.881776 6.0547124-1.881776 7.8764619 0 3.4454624 2.199635 5.5808644 6.446082 5.5016493 4.406646-.1188294 8.939631-2.6894195 12.665284-6.2536732.721082 3.7622561 3.440068 6.4516543 9.008501 6.2932532 5.768737-.158422 11.341816-3.7973147 15.227702-7.9556222-.000009.3960134-.040038.8309353-.040038 1.2269865-.000004 3.8414758 2.039373 6.6890557 6.48612 6.6890557 4.807266-.0000043 10.34063-3.5586895 14.667173-9.6971516l.160152.0791603c-.4006 1.4256984-.840764 3.9174952-.880831 5.5808097-.120166 4.6335403 2.640246 7.2559411 6.566194 8.047976l.880831-.3562218c-1.362077-3.3662346.560035-11.7273692 1.401325-14.4995504.280418-.8316739.560362-1.6618494.840791-2.5331334 2.764209-8.2769798 6.604837-17.1089689 9.048539-22.1385307.080137-.1187913.120087-.2770066.200189-.3958021-1.201809-.9900709-4.042087-1.7414701-7.04665-1.8206896-.530801-.0198007-1.057753-.0320357-1.588164-.0263868-3.680227.0391833-7.338359.7125366-10.850239 2.2428785h-.093421c-5.488324 2.4553832-10.580903 6.9354956-14.787287 14.3016492-1.281943 2.178157-2.681984 4.7480209-3.643437 7.52024-.120161.1187954-.200134.2374602-.280265.3166415-.961453 1.1881114-1.881528 2.2558273-2.322191 2.6914545-2.643988 2.5345984-6.417225 5.7390754-10.22298 5.8182907-2.203325-.0000043-3.403207-1.5025279-3.363173-4.155922-.000009-1.3860928.159993-2.848935.480453-4.3142428l-4.697766-.0263869 4.697766-.0131935c1.962983-9.7818973 9.579305-21.5052515 14.947438-21.5448275 1.722624 0 2.442304.7512091 2.442304 2.1769115 0 1.7029243-1.200202 4.0759258-2.842682 5.5808096l.72068.6332833c4.126244-1.5841329 8.007525-4.470858 8.047595-7.4806596-.000011-.554448-.120004-1.0684208-.320304-1.504048-1.00152-2.178157-4.32232-2.6122938-7.366951-2.6122938zm-176.4998767 3.3247376c1.1857931.0396098 1.6589007.8305933 1.6549201 1.8998501-.0240693 4.8711608-6.1360082 11.1721823-13.9598643 15.766117 1.9629743-7.643346 7.4495894-17.6659671 12.3049442-17.6659671zm43.1340337 0c1.201821.0396098 1.641549.8305933 1.641549 1.8998501-.040067 4.8711608-6.121309 11.1721823-13.933147 15.766117 1.922907-7.643346 7.44426-17.6659671 12.291598-17.6659671zm160.6983.2506747c.698899-.0201005 1.347588.0510553 1.948505.1847076-.600925 1.2276916-3.401951 6.8049252-5.605289 11.8344828-1.402126 3.2078376-3.0418 6.384041-4.884609 9.1562218-2.684056 3.9999065-5.657023 7.0844524-8.501356 7.7973016-1.682538.3960174-2.642523-.3157763-2.602453-1.8602701.040053-1.6237045.480011-3.6796548 1.241169-5.9370315 2.483769-7.5641306 8.45789-17.3873349 14.426948-20.1595202 1.50228-.6930611 2.812252-.9823871 3.977085-1.015892zm-144.523037 61.1382309c-75.4341481.1087686-147.405757 1.0234999-147.405757 2.1373315 0 1.1880774 81.8831691 2.1769113 162.513346 2.1769113 80.602131 0 162.486654-.9888296 162.486654-2.1769113 0-1.1880903-81.884523-2.1373315-162.486654-2.1373315-5.039388 0-10.078647-.0072532-15.107589 0z" fill="#002f40" transform="translate(38 26)"/></svg>