<svg id="Layer_1" data-name="Layer 1" xmlns="http://www.w3.org/2000/svg" viewBox="0 0 375.04 103.05"><defs><style>.cls-1{fill:#351c13;}.cls-2{fill:#76cccd;}</style></defs><path class="cls-1" d="M127.53,44.86c0,2.86-2.13,4.65-5.83,4.65h-6.58a.57.57,0,0,1-.58-.58V40.69a.57.57,0,0,1,.58-.58h6.53c3.64,0,5.88,1.56,5.88,4.64Zm12.21,25h0l-9.35-13.66c4.87-2.07,8.06-6,8.06-12v-.11A12.19,12.19,0,0,0,135,35c-2.63-2.68-6.78-4.25-12.77-4.25H104.26a.57.57,0,0,0-.58.58v38a.57.57,0,0,0,.58.58H114a.57.57,0,0,0,.59-.58V58.61a.57.57,0,0,1,.58-.59h4.12s.06,0,.38.49l7.25,10.9a1.16,1.16,0,0,0,.91.48Zm42.38-19.48c0,5.65-4,10.47-10,10.47s-10-4.93-10-10.58v-.12c0-5.65,4-10.47,9.91-10.47s10.07,4.93,10.07,10.59Zm11.09-.11v-.12c0-11.25-9-20.27-21.05-20.27S151,39,151,50.3v.11c0,11.25,9,20.27,21.06,20.27s21.16-9.13,21.16-20.38m34.38,3.59s.22.55-.37.55h-7.61s-.59,0-.38-.55l4-10s.21-.54.43,0Zm6,15.46a.91.91,0,0,0,.81.54h10.47s.58,0,.36-.54L229,31a.92.92,0,0,0-.81-.54h-9.31a.92.92,0,0,0-.81.54L201.83,69.35s-.22.54.36.54h10.25a.9.9,0,0,0,.8-.54l2.37-5.91a.9.9,0,0,1,.8-.54h14a.92.92,0,0,1,.81.54Zm50.17-19c0,6.33-4.31,9.91-10.81,9.91H269.1a.57.57,0,0,1-.58-.58V40.91a.57.57,0,0,1,.58-.58h3.84c6.5,0,10.81,3.64,10.81,9.91Zm11.14-.17v-.11c0-11.31-8.12-19.37-22.12-19.37H258.24a.57.57,0,0,0-.58.58v38a.57.57,0,0,0,.58.58h14.31c14.11,0,22.34-8.4,22.34-19.71m14.23,19.13a.57.57,0,0,0,.58.58h9.75a.57.57,0,0,0,.58-.58v-38a.57.57,0,0,0-.58-.58H309.7a.57.57,0,0,0-.58.58Zm37.82-8.66a.57.57,0,0,1-.59-.58V55a.57.57,0,0,1,.59-.58h17.64a.58.58,0,0,0,.59-.59V46.46a.58.58,0,0,0-.59-.59H346.94a.57.57,0,0,1-.59-.58V40.52a.57.57,0,0,1,.59-.58h19.6a.58.58,0,0,0,.59-.59V31.28a.57.57,0,0,0-.59-.58H336.19a.57.57,0,0,0-.59.58v38a.57.57,0,0,0,.59.58h30.63a.57.57,0,0,0,.59-.58V61.24a.58.58,0,0,0-.59-.59Z"/><path class="cls-2" d="M49.23,92.77A42.48,42.48,0,1,1,91.71,50.3,42.47,42.47,0,0,1,49.23,92.77Z"/><path class="cls-1" d="M67.79,42.94s1.39-12.33-16.31-12.33H32.63a.6.6,0,0,0-.61.62V49.47H6.78c0,.28,0,.55,0,.83,0,1,0,2,.11,3H57.15C63.23,53.25,67.79,50.09,67.79,42.94ZM57.07,44.59c0,3-2.23,4.88-6.12,4.88H44a.6.6,0,0,1-.61-.61V40.21a.6.6,0,0,1,.61-.62H50.9c3.82,0,6.17,1.65,6.17,4.88Z"/><path class="cls-1" d="M32.63,70.88H42.81a.6.6,0,0,0,.62-.61V59a.63.63,0,0,1,.38-.58h4.6a3.21,3.21,0,0,1,.36.47l7.61,11.45a1.23,1.23,0,0,0,.95.51H69.89L60,57.24h0l-.4-.55a5.73,5.73,0,0,0-4.22-2H7c.13,1.28.33,2.54.57,3.78H32V70.27A.6.6,0,0,0,32.63,70.88Z"/><path class="cls-1" d="M197.91,77.66h2.38l6.45,14.76H204l-1.49-3.54H195.6l-1.5,3.54h-2.64Zm3.68,8.94-2.53-5.86-2.51,5.86Z"/><path class="cls-1" d="M215.92,86.2V77.77h2.58V86.1c0,2.72,1.4,4.18,3.7,4.18s3.68-1.38,3.68-4.08V77.77h2.58v8.31c0,4.37-2.47,6.57-6.3,6.57S215.92,90.45,215.92,86.2Z"/><path class="cls-1" d="M232.58,77.77h5.77c3.42,0,5.57,1.94,5.57,4.9v0c0,3.28-2.64,5-5.86,5h-2.91v4.71h-2.57Zm5.56,7.62c2,0,3.17-1.09,3.17-2.62v0c0-1.72-1.24-2.62-3.17-2.62h-3v5.28Z"/><path class="cls-1" d="M246,90.28l1.55-1.84a6.71,6.71,0,0,0,4.62,1.91c1.59,0,2.6-.74,2.6-1.85v0c0-1-.59-1.61-3.31-2.24-3.12-.75-4.88-1.67-4.88-4.37v0c0-2.51,2.1-4.25,5-4.25a8.12,8.12,0,0,1,5.31,1.84l-1.38,1.95a6.63,6.63,0,0,0-4-1.51c-1.5,0-2.38.77-2.38,1.74v0c0,1.13.67,1.63,3.47,2.3,3.1.75,4.71,1.86,4.71,4.29v0c0,2.74-2.15,4.38-5.23,4.38A9,9,0,0,1,246,90.28Z"/><path class="cls-1" d="M266.61,85.13v0a7.41,7.41,0,0,1,7.56-7.57,7.62,7.62,0,0,1,5.73,2.28l-1.65,1.9a5.82,5.82,0,0,0-4.1-1.82,4.92,4.92,0,0,0-4.84,5.17v0a5,5,0,0,0,4.84,5.21,5.72,5.72,0,0,0,4.2-1.9L280,90.07a7.58,7.58,0,0,1-5.95,2.6A7.37,7.37,0,0,1,266.61,85.13Z"/><path class="cls-1" d="M282,87v0a5.89,5.89,0,0,1,11.78,0v0a5.78,5.78,0,0,1-5.92,5.76A5.72,5.72,0,0,1,282,87Zm9.25,0v0a3.41,3.41,0,0,0-3.39-3.55,3.32,3.32,0,0,0-3.33,3.51v0a3.43,3.43,0,0,0,3.37,3.56A3.33,3.33,0,0,0,291.2,87Z"/><path class="cls-1" d="M296.62,81.37h2.53V83a4,4,0,0,1,3.37-1.9,3.48,3.48,0,0,1,3.29,1.94,4.51,4.51,0,0,1,3.74-1.94c2.41,0,3.88,1.53,3.88,4.23v7h-2.54V86.14c0-1.76-.81-2.7-2.24-2.7s-2.36,1-2.36,2.74v6.24h-2.53v-6.3c0-1.72-.84-2.68-2.24-2.68s-2.37,1-2.37,2.76v6.22h-2.53Z"/><path class="cls-1" d="M316.9,81.37h2.53v1.84a4.43,4.43,0,0,1,3.75-2.07c2.61,0,5.15,2.07,5.15,5.73v0c0,3.66-2.51,5.74-5.15,5.74a4.51,4.51,0,0,1-3.75-2v5.07H316.9Zm8.85,5.54v0a3.27,3.27,0,0,0-3.16-3.53,3.33,3.33,0,0,0-3.22,3.53v0a3.32,3.32,0,0,0,3.22,3.54A3.23,3.23,0,0,0,325.75,86.91Z"/><path class="cls-1" d="M338,92.42V91.06a4.45,4.45,0,0,1-3.58,1.59c-2.09,0-3.93-1.2-3.93-3.41v0c0-2.44,1.9-3.62,4.48-3.62A9.33,9.33,0,0,1,338,86v-.21c0-1.52-1-2.36-2.72-2.36a7.67,7.67,0,0,0-3.16.69l-.69-2a9.54,9.54,0,0,1,4.21-.92c3.26,0,4.85,1.72,4.85,4.67v6.55Zm.06-4.63a7.27,7.27,0,0,0-2.53-.44c-1.59,0-2.53.65-2.53,1.72v0c0,1,.94,1.63,2.13,1.63,1.68,0,2.93-.94,2.93-2.32Z"/><path class="cls-1" d="M343.89,81.37h2.53v1.71a4,4,0,0,1,3.45-1.94c2.49,0,3.94,1.67,3.94,4.25v7h-2.54V86.14c0-1.72-.85-2.7-2.36-2.7a2.45,2.45,0,0,0-2.49,2.74v6.24h-2.53Z"/><path class="cls-1" d="M356.29,95.16l.85-1.88a3.18,3.18,0,0,0,1.49.41c.71,0,1.15-.31,1.57-1.27l-4.6-11h2.7l3.13,8.2,2.87-8.2h2.64l-4.4,11.36c-.88,2.26-1.86,3.1-3.64,3.1A5.1,5.1,0,0,1,356.29,95.16Z"/></svg>