<?xml version="1.0" encoding="UTF-8"?>
<svg width="400px" height="140px" viewBox="0 0 400 140" version="1.1" xmlns="http://www.w3.org/2000/svg" xmlns:xlink="http://www.w3.org/1999/xlink">
    <title>Artboard</title>
    <g id="Artboard" stroke="none" stroke-width="1" fill="none" fill-rule="evenodd">
        <g id="auction" transform="translate(25.000000, 44.000000)" fill-rule="nonzero">
            <g id="Group-7">
                <path d="M21.7716788,14.669075 C20.782431,13.1933732 20.2053293,11.4195352 20.2053293,9.51040037 C20.2053293,7.75589048 20.6924553,6.11589968 21.539,4.71654395 C20.9367439,5.67135296 1.62875203,36.5185459 1.62875203,36.5185459 C1.59005285,36.5799126 1.56054471,36.6446618 1.52329675,36.7065117 C1.44686585,36.8326277 1.37382114,36.9611596 1.30271138,37.0906581 C0.676268293,38.1421078 0.253479675,39.3274044 0.0846544715,40.5938794 C0.080300813,40.6267373 0.0759471544,40.6605614 0.0715934959,40.6939024 C0.0595,40.7953751 0.0478902439,40.8973308 0.0391829268,40.9997698 C0.0304756098,41.0935113 0.0232195122,41.1877359 0.0174146341,41.2819605 C0.0145121951,41.3317303 0.0120934959,41.3824667 0.0101585366,41.4327197 C0.00435365854,41.5573861 0.000967479675,41.6830188 0.000483739837,41.8096181 C0.000483739837,41.8163828 0,41.8236309 0,41.830879 L0,41.8352279 L0,41.8424758 C0,46.9707087 4.16209756,51.1281868 9.29602846,51.1281868 C12.0185163,51.1281868 14.4618862,49.9554532 16.1602968,48.0917396 C16.1748089,48.0753106 16.1893211,48.0593649 16.2038333,48.0434193 C16.2783293,47.9603083 16.351374,47.8762311 16.4229675,47.7907041 C16.4447358,47.7650943 16.4665041,47.7399677 16.4873049,47.7138748 C16.5593821,47.6259319 16.6300081,47.5360562 16.6991829,47.445214 C16.7398171,47.3910952 16.7799675,47.3364934 16.8196341,47.2818913 C16.8486585,47.2422688 16.8767154,47.2026462 16.9047724,47.1625403 C17.0610203,46.9402669 17.2075934,46.7112288 17.3440081,46.4754258 C17.3449756,46.4744592 17.3454593,46.4730097 17.3464268,46.47156 C17.360939,46.4493327 17.37787,46.430971 17.3918983,46.4087438 L29.5013578,27.0439024 L21.8708456,14.8415785 C21.8355325,14.7845605 21.803122,14.7270594 21.7716788,14.669075" id="Fill-25" fill="#79BC43"></path>
                <path d="M59.0027154,41.830879 C59.0027154,41.8236309 59.0022317,41.8163828 59.0022317,41.8096181 C59.001748,41.6830188 58.997878,41.5573861 58.9925569,41.4327197 C58.9901383,41.3824667 58.9882032,41.3317303 58.9853008,41.2819605 C58.9794959,41.1877359 58.9722398,41.0935113 58.9635325,40.9997698 C58.9548251,40.8973308 58.9432154,40.7953751 58.9306383,40.6939024 C58.9267683,40.6605614 58.9224146,40.6267373 58.918061,40.5938794 C58.7492358,39.3274044 58.3259634,38.1421078 57.7000041,37.0906581 C57.6288944,36.9611596 57.5558495,36.8326277 57.4794188,36.7065117 C57.4426544,36.6446618 57.4126627,36.5799126 57.3739634,36.5185459 C57.3739634,36.5185459 38.0659715,5.67135296 37.4637154,4.71654395 C38.3097764,6.11589968 38.7973861,7.75589048 38.7973861,9.51040037 C38.7973861,11.4195352 38.2198008,13.1933732 37.2310366,14.669075 C37.1991098,14.7270594 37.1671829,14.7845605 37.1313861,14.8415785 L29.5013578,27.0439024 L41.6108171,46.4087438 C41.6248456,46.430971 41.6417764,46.4493327 41.6558049,46.47156 C41.6567724,46.4730097 41.6577398,46.4744592 41.6587073,46.4754258 C41.795122,46.7112288 41.9416951,46.9402669 42.0979431,47.1625403 C42.126,47.2026462 42.1540569,47.2422688 42.1830812,47.2818913 C42.222748,47.3364934 42.2624146,47.3910952 42.3035325,47.445214 C42.3727073,47.5360562 42.4428495,47.6259319 42.5149268,47.7138748 C42.5362114,47.7399677 42.5579797,47.7650943 42.5792642,47.7907041 C42.6508578,47.8762311 42.7243861,47.9603083 42.7988822,48.0434193 C42.8133944,48.0593649 42.8274227,48.0753106 42.8424188,48.0917396 C44.5403456,49.9554532 46.9841992,51.1281868 49.706687,51.1281868 C54.8406178,51.1281868 59.0027154,46.9707087 59.0027154,41.8424758 L59.0027154,41.8352279 L59.0027154,41.830879" id="Fill-64" fill="#57C1E9"></path>
                <path d="M37.2310366,14.669075 C38.2198008,13.1933732 38.7973861,11.4195352 38.7973861,9.51040037 C38.7973861,7.75589048 38.3097764,6.11589968 37.4637154,4.71654395 C37.434691,4.66870685 37.4042154,4.62280258 37.3747073,4.57593189 C37.3389105,4.51891394 37.30263,4.461896 37.2658659,4.40584446 C37.2276505,4.3483433 37.1889512,4.29132536 37.1497683,4.23430741 C37.1178415,4.18840313 37.0849471,4.14298205 37.0520529,4.09707777 C36.984813,4.0033364 36.9156383,3.91152785 36.8450122,3.82068569 C36.8126017,3.77864704 36.780191,3.73709157 36.746813,3.69553612 C36.702309,3.63996778 36.6568373,3.58488265 36.6108822,3.52979751 C36.5716992,3.48389324 36.5315488,3.43847215 36.4913983,3.39256788 C36.4227073,3.3147722 36.3530488,3.23745974 36.281939,3.16208007 C36.2384024,3.11569259 36.1948659,3.06930511 36.149878,3.02340083 C36.1068251,2.97894616 36.0632886,2.93497468 36.0192683,2.89148643 C35.9404188,2.81417396 35.8610854,2.73831108 35.7798171,2.66389784 C35.7459553,2.63248964 35.7106422,2.60204785 35.6753293,2.57112288 C35.6100244,2.51265531 35.543752,2.45515417 35.4765122,2.39910262 C35.4431341,2.37107684 35.4097561,2.34208467 35.3754105,2.31454211 C35.27963,2.23626323 35.1819146,2.15943396 35.082748,2.08453751 C35.0619471,2.06907501 35.0406627,2.05409572 35.0198617,2.03863322 C34.9250488,1.9685688 34.8292683,1.90043719 34.7320366,1.83423838 C34.7151056,1.82264151 34.6981749,1.81056144 34.6812439,1.79944776 C34.5651463,1.7211689 34.4471139,1.64578923 34.32763,1.57282559 C34.3218251,1.56944317 34.3160203,1.56606075 34.3102154,1.56267833 C34.1999227,1.49551312 34.0872114,1.43173033 33.9735325,1.36891394 C33.9488617,1.35538426 33.9237073,1.34185458 33.8985529,1.3283249 C33.7805203,1.26454211 33.6615203,1.20365854 33.541069,1.14519098 C33.5309105,1.14035895 33.5202683,1.13552692 33.5101098,1.13069489 C33.3862724,1.07126093 33.2605,1.01424298 33.1332764,0.960607454 C33.1265041,0.957708237 33.1202154,0.95480902 33.1139268,0.951909802 C32.9818659,0.896341463 32.8483537,0.844155545 32.7133902,0.794385642 C32.7017805,0.790036815 32.689687,0.785687989 32.6775934,0.781339162 C32.4066992,0.682765761 32.1295163,0.596755638 31.8474959,0.523791993 C31.8344349,0.519926369 31.8213739,0.516543949 31.8078293,0.513161528 C31.6699634,0.477887712 31.5306463,0.445996318 31.3903617,0.417004142 C31.3748822,0.413621721 31.3598861,0.411205707 31.3448902,0.408306488 C31.213313,0.381730327 31.0807683,0.358053382 30.9477398,0.337275656 C30.9332276,0.33485964 30.9191992,0.332443626 30.9051707,0.330027612 C30.7731098,0.31021629 30.6395976,0.293787391 30.5060854,0.279291303 C30.46787,0.275425679 30.4301383,0.271560056 30.3919227,0.268177635 C30.2646992,0.256097561 30.1374756,0.2459503 30.0092846,0.239185459 C29.9889675,0.237735849 29.9686505,0.237252646 29.9483334,0.23628624 C29.9468822,0.235803038 29.9449471,0.235803038 29.9434959,0.235803038 C29.7969227,0.229038195 29.6493822,0.22468937 29.5013578,0.22468937 C29.3528495,0.22468937 29.2057927,0.229038195 29.0592195,0.235803038 C29.0572846,0.235803038 29.0558334,0.235803038 29.0538983,0.23628624 C29.0340651,0.237252646 29.0132642,0.237735849 28.9929471,0.239185459 C28.8647561,0.2459503 28.7375325,0.256097561 28.6107927,0.268177635 C28.5725773,0.271560056 28.5343617,0.275425679 28.49663,0.279291303 C28.3626341,0.293787391 28.2296056,0.31021629 28.0975447,0.330027612 C28.0835163,0.332443626 28.0690041,0.33485964 28.0549756,0.337275656 C27.9214634,0.358053382 27.7894024,0.381730327 27.6578251,0.408306488 C27.6428293,0.411205707 27.6273495,0.413621721 27.6123537,0.417004142 C27.472069,0.445996318 27.332752,0.477887712 27.1948861,0.513161528 C27.1813415,0.516543949 27.1682805,0.519926369 27.1552195,0.523791993 C26.8727154,0.596755638 26.5960163,0.682765761 26.3246383,0.781339162 C26.3130285,0.785687989 26.3009349,0.790036815 26.2888415,0.794385642 C26.1543617,0.844155545 26.0208495,0.896341463 25.8892724,0.951909802 C25.8825,0.95480902 25.8762114,0.957708237 25.869439,0.960607454 C25.7422154,1.01424298 25.6164431,1.07126093 25.492122,1.13069489 C25.4819634,1.13552692 25.4718049,1.14035895 25.4616463,1.14519098 C25.3407114,1.20365854 25.2217114,1.26454211 25.1041627,1.3283249 C25.0790081,1.34185458 25.0543373,1.35538426 25.0291829,1.36891394 C24.9155041,1.43173033 24.8027927,1.49551312 24.6920163,1.56267833 C24.6866951,1.56606075 24.6808902,1.56944317 24.6750854,1.57282559 C24.5551178,1.64578923 24.437569,1.7211689 24.3214715,1.79944776 C24.3045407,1.81056144 24.2876098,1.82264151 24.2706788,1.83423838 C24.1734471,1.90043719 24.0771829,1.9685688 23.9828537,2.03863322 C23.9620529,2.05409572 23.9407683,2.06907501 23.9199675,2.08453751 C23.8208008,2.15943396 23.7230854,2.23626323 23.6268212,2.31454211 C23.5929593,2.34208467 23.5595812,2.37107684 23.5257195,2.39910262 C23.4584797,2.45515417 23.3922073,2.51265531 23.3269024,2.57112288 C23.2920732,2.60204785 23.2567602,2.63248964 23.2224146,2.66389784 C23.14163,2.73831108 23.0622968,2.81417396 22.9834471,2.89148643 C22.9394268,2.93497468 22.8958902,2.97894616 22.8523537,3.02340083 C22.8078495,3.06930511 22.764313,3.11569259 22.7202927,3.16208007 C22.6491829,3.23745974 22.5795244,3.3147722 22.5113171,3.39256788 C22.4711666,3.43847215 22.4310163,3.48389324 22.3918334,3.52979751 C22.345878,3.58488265 22.3008902,3.63996778 22.2559024,3.69553612 C22.2225244,3.73709157 22.1901139,3.77864704 22.1577032,3.82068569 C22.0870773,3.91152785 22.0179024,4.0033364 21.9506627,4.09707777 C21.9177683,4.14298205 21.8848739,4.18840313 21.8529471,4.23430741 C21.8137642,4.29132536 21.7750651,4.3483433 21.7368495,4.40584446 C21.6996017,4.461896 21.6638049,4.51891394 21.6280081,4.57593189 C21.5985,4.62280258 21.5675407,4.66870685 21.539,4.71654395 C20.6924553,6.11589968 20.2053293,7.75589048 20.2053293,9.51040037 C20.2053293,11.4195352 20.782431,13.1933732 21.7716788,14.669075 C21.803122,14.7270594 21.8355325,14.7845605 21.8708456,14.8415785 L29.5013578,27.0439024 L37.1313861,14.8415785 C37.1671829,14.7845605 37.1991098,14.7270594 37.2310366,14.669075" id="Fill-83" fill="#4E9D2D"></path>
            </g>
            <g id="Group-13" transform="translate(73.414634, 13.658537)" fill="#5C676E">
                <path d="M12.5665935,7.82160608 L9.66463822,15.2363553 L15.5019268,15.2363553 L12.5665935,7.82160608 Z M10.5421423,0.878946158 L14.8948333,0.878946158 L25.2870163,24.7404741 L19.3486261,24.7404741 L17.290313,19.6852049 L8.01169919,19.6852049 L6.02062602,24.7404741 L0.217199188,24.7404741 L10.5421423,0.878946158 L10.5421423,0.878946158 Z" id="Fill-86"></path>
                <path d="M50.5590366,15.5398067 C50.5590366,16.9551082 50.3447398,18.2587898 49.9175976,19.4494018 C49.4899715,20.6404971 48.8548212,21.6740681 48.0111788,22.550115 C47.1675366,23.4266453 46.1158861,24.1123101 44.8567114,24.6056604 C43.596569,25.099977 42.1458334,25.347377 40.5040203,25.347377 C38.8389878,25.347377 37.3771261,25.099977 36.1174675,24.6056604 C34.857809,24.1123101 33.8061585,23.4266453 32.963,22.550115 C32.1193578,21.6740681 31.4832398,20.6404971 31.0565812,19.4494018 C30.6289553,18.2587898 30.4151422,16.9551082 30.4151422,15.5398067 L30.4151422,0.878946158 L35.6791992,0.878946158 L35.6791992,15.3378279 C35.6791992,16.0790612 35.7972317,16.7647262 36.0332968,17.3933733 C36.2693617,18.0229867 36.6012073,18.5675563 37.0283495,19.0280488 C37.4554919,19.4890244 37.9672886,19.8485273 38.5637398,20.1065577 C39.1597073,20.3650713 39.8064675,20.4940864 40.5040203,20.4940864 C41.2010895,20.4940864 41.8420447,20.3650713 42.42737,20.1065577 C43.0117276,19.8485273 43.5177195,19.4890244 43.9453456,19.0280488 C44.3724878,18.5675563 44.7048171,18.0229867 44.9408822,17.3933733 C45.1769471,16.7647262 45.2949797,16.0790612 45.2949797,15.3378279 L45.2949797,0.878946158 L50.5590366,0.878946158 L50.5590366,15.5398067" id="Fill-87"></path>
                <path d="M73.7722602,7.08037275 C73.2546585,6.45124253 72.6195081,5.96803958 71.8658415,5.63124713 C71.1121749,5.29397147 70.2409593,5.12533364 69.2512276,5.12533364 C68.2610122,5.12533364 67.344809,5.316682 66.5011666,5.69841233 C65.6575244,6.08062586 64.9265934,6.61408191 64.3078902,7.29926369 C63.689187,7.98492867 63.205931,8.79912562 62.8571544,9.74282098 C62.508378,10.6865163 62.3342317,11.7089738 62.3342317,12.8097101 C62.3342317,13.9336401 62.508378,14.9614128 62.8571544,15.8935113 C63.205931,16.826093 63.6838659,17.6349747 64.2914431,18.3201565 C64.8985366,19.0058214 65.6125366,19.5392776 66.4334431,19.9210079 C67.2548334,20.3037045 68.1376585,20.4940864 69.0824024,20.4940864 C70.1621098,20.4940864 71.1179797,20.2698804 71.9504959,19.8200184 C72.7825285,19.3711229 73.4684715,18.7415094 74.008809,17.9326277 L78.394878,21.2019789 C77.3828944,22.6172803 76.1005,23.6624483 74.5481788,24.3360332 C72.9963415,25.0105844 71.3990325,25.347377 69.7572195,25.347377 C67.8899837,25.347377 66.1693212,25.055039 64.594748,24.4713299 C63.0201749,23.8871375 61.6594146,23.0502302 60.5124675,21.9606074 C59.3650366,20.8709849 58.4710854,19.5503912 57.8296463,18.0002762 C57.188691,16.4496779 56.8684553,14.7198113 56.8684553,12.8097101 C56.8684553,10.900092 57.188691,9.1697423 57.8296463,7.61914404 C58.4710854,6.06902899 59.3650366,4.74940174 60.5124675,3.65929591 C61.6594146,2.56967326 63.0201749,1.73324897 64.594748,1.1485734 C66.1693212,0.56438104 67.8899837,0.272043259 69.7572195,0.272043259 C70.4320366,0.272043259 71.1349105,0.334376439 71.8658415,0.457593189 C72.5967724,0.581293143 73.317061,0.777473538 74.0252561,1.04710078 C74.7339349,1.31672803 75.4140732,1.67671422 76.067122,2.12609296 C76.7192032,2.5754717 77.303561,3.12583986 77.8216463,3.77719742 L73.7722602,7.08037275" id="Fill-88"></path>
                <polyline id="Fill-89" points="88.6182358 5.5297745 81.8023415 5.5297745 81.8023415 0.878946158 100.697703 0.878946158 100.697703 5.5297745 93.881809 5.5297745 93.881809 24.7404741 88.6182358 24.7404741 88.6182358 5.5297745"></polyline>
                <polygon id="Fill-90" points="106.028516 24.7409572 111.291606 24.7409572 111.291606 0.878946158 106.028516 0.878946158"></polygon>
                <path d="M122.999561,12.8097101 C122.999561,13.9336401 123.173707,14.9614128 123.522968,15.8935113 C123.870776,16.826093 124.371447,17.6349747 125.024012,18.3201565 C125.676093,19.0058214 126.458301,19.5392776 127.369183,19.9210079 C128.280065,20.3037045 129.29737,20.4940864 130.422549,20.4940864 C131.547244,20.4940864 132.565032,20.3037045 133.476398,19.9210079 C134.38728,19.5392776 135.16852,19.0058214 135.821085,18.3201565 C136.473167,17.6349747 136.973354,16.826093 137.322614,15.8935113 C137.67139,14.9614128 137.845537,13.9336401 137.845537,12.8097101 C137.845537,11.7089738 137.67139,10.6865163 137.322614,9.74282098 C136.973354,8.79912562 136.473167,7.98492867 135.821085,7.29926369 C135.16852,6.61408191 134.38728,6.08062586 133.476398,5.69841233 C132.565032,5.316682 131.547244,5.12533364 130.422549,5.12533364 C129.29737,5.12533364 128.280065,5.316682 127.369183,5.69841233 C126.458301,6.08062586 125.676093,6.61408191 125.024012,7.29926369 C124.371447,7.98492867 123.870776,8.79912562 123.522968,9.74282098 C123.173707,10.6865163 122.999561,11.7089738 122.999561,12.8097101 Z M117.533785,12.8097101 C117.533785,10.900092 117.85402,9.1697423 118.494976,7.61914404 C119.136415,6.06902899 120.030366,4.74940174 121.177797,3.65929591 C122.324744,2.56967326 123.685504,1.73324897 125.260077,1.1485734 C126.834167,0.56438104 128.555313,0.272043259 130.422549,0.272043259 C132.289785,0.272043259 134.009963,0.56438104 135.58502,1.1485734 C137.15911,1.73324897 138.520837,2.56967326 139.667785,3.65929591 C140.814732,4.74940174 141.708683,6.06902899 142.350122,7.61914404 C142.991077,9.1697423 143.311797,10.900092 143.311797,12.8097101 C143.311797,14.7198113 142.991077,16.4496779 142.350122,18.0002762 C141.708683,19.5503912 140.814732,20.8709849 139.667785,21.9606074 C138.520837,23.0502302 137.15911,23.8871375 135.58502,24.4713299 C134.009963,25.055039 132.289785,25.347377 130.422549,25.347377 C128.555313,25.347377 126.834167,25.055039 125.260077,24.4713299 C123.685504,23.8871375 122.324744,23.0502302 121.177797,21.9606074 C120.030366,20.8709849 119.136415,19.5503912 118.494976,18.0002762 C117.85402,16.4496779 117.533785,14.7198113 117.533785,12.8097101 L117.533785,12.8097101 Z" id="Fill-91"></path>
                <polyline id="Fill-92" points="149.620732 0.878946158 156.773793 0.878946158 166.929911 17.4610216 166.99715 17.4610216 166.99715 0.878946158 172.261207 0.878946158 172.261207 24.7404741 165.377589 24.7404741 154.951545 7.75444086 154.884305 7.75444086 154.884305 24.7404741 149.620732 24.7404741 149.620732 0.878946158"></polyline>
                <path d="M179.312683,21.8422228 C179.312683,21.4160377 179.391049,21.011597 179.548749,20.6289001 C179.70548,20.2471698 179.924614,19.9161758 180.206151,19.6344685 C180.487203,19.3537275 180.819049,19.1348367 181.201688,18.9777956 C181.583841,18.8207547 181.989215,18.7415094 182.416841,18.7415094 C182.8435,18.7415094 183.24839,18.8207547 183.631029,18.9777956 C184.013183,19.1348367 184.345029,19.3537275 184.626566,19.6344685 C184.907617,19.9161758 185.126751,20.2471698 185.284451,20.6289001 C185.441666,21.011597 185.521,21.4160377 185.521,21.8422228 C185.521,22.2693742 185.441666,22.6738151 185.284451,23.0555454 C185.126751,23.4377589 184.907617,23.769236 184.626566,24.049977 C184.345029,24.3312011 184.013183,24.550092 183.631029,24.7071331 C183.24839,24.864174 182.8435,24.9429361 182.416841,24.9429361 C181.989215,24.9429361 181.583841,24.864174 181.201688,24.7071331 C180.819049,24.550092 180.487203,24.3312011 180.206151,24.049977 C179.924614,23.769236 179.70548,23.4377589 179.548749,23.0555454 C179.391049,22.6738151 179.312683,22.2693742 179.312683,21.8422228" id="Fill-93"></path>
                <path d="M208.19437,7.08037275 C207.676285,6.45124253 207.041134,5.96803958 206.287468,5.63124713 C205.5338,5.29397147 204.662585,5.12533364 203.672854,5.12533364 C202.682639,5.12533364 201.766919,5.316682 200.923276,5.69841233 C200.079151,6.08062586 199.348703,6.61408191 198.729517,7.29926369 C198.110812,7.98492867 197.627556,8.79912562 197.27878,9.74282098 C196.930005,10.6865163 196.755858,11.7089738 196.755858,12.8097101 C196.755858,13.9336401 196.930005,14.9614128 197.27878,15.8935113 C197.627556,16.826093 198.105492,17.6349747 198.713069,18.3201565 C199.320163,19.0058214 200.034646,19.5392776 200.855553,19.9210079 C201.676459,20.3037045 202.559285,20.4940864 203.504029,20.4940864 C204.583736,20.4940864 205.539605,20.2698804 206.372122,19.8200184 C207.204154,19.3711229 207.890581,18.7415094 208.430434,17.9326277 L212.816505,21.2019789 C211.80452,22.6172803 210.522127,23.6624483 208.970288,24.3360332 C207.417968,25.0105844 205.820659,25.347377 204.178846,25.347377 C202.312093,25.347377 200.590947,25.055039 199.016858,24.4713299 C197.4418,23.8871375 196.081041,23.0502302 194.934093,21.9606074 C193.787146,20.8709849 192.892712,19.5503912 192.251756,18.0002762 C191.6108,16.4496779 191.289598,14.7198113 191.289598,12.8097101 C191.289598,10.900092 191.6108,9.1697423 192.251756,7.61914404 C192.892712,6.06902899 193.787146,4.74940174 194.934093,3.65929591 C196.081041,2.56967326 197.4418,1.73324897 199.016858,1.1485734 C200.590947,0.56438104 202.312093,0.272043259 204.178846,0.272043259 C204.853663,0.272043259 205.55702,0.334376439 206.287468,0.457593189 C207.018398,0.581293143 207.738688,0.777473538 208.446883,1.04710078 C209.155561,1.31672803 209.8357,1.67671422 210.488749,2.12609296 C211.140829,2.5754717 211.725671,3.12583986 212.243273,3.77719742 L208.19437,7.08037275" id="Fill-94"></path>
                <path d="M222.601593,12.8097101 C222.601593,13.9336401 222.775256,14.9614128 223.124517,15.8935113 C223.473293,16.826093 223.97348,17.6349747 224.626529,18.3201565 C225.278127,19.0058214 226.059849,19.5392776 226.970732,19.9210079 C227.882098,20.3037045 228.899886,20.4940864 230.024581,20.4940864 C231.149276,20.4940864 232.167066,20.3037045 233.077947,19.9210079 C233.989312,19.5392776 234.770553,19.0058214 235.423117,18.3201565 C236.0752,17.6349747 236.57587,16.826093 236.924646,15.8935113 C237.272939,14.9614128 237.447569,13.9336401 237.447569,12.8097101 C237.447569,11.7089738 237.272939,10.6865163 236.924646,9.74282098 C236.57587,8.79912562 236.0752,7.98492867 235.423117,7.29926369 C234.770553,6.61408191 233.989312,6.08062586 233.077947,5.69841233 C232.167066,5.316682 231.149276,5.12533364 230.024581,5.12533364 C228.899886,5.12533364 227.882098,5.316682 226.970732,5.69841233 C226.059849,6.08062586 225.278127,6.61408191 224.626529,7.29926369 C223.97348,7.98492867 223.473293,8.79912562 223.124517,9.74282098 C222.775256,10.6865163 222.601593,11.7089738 222.601593,12.8097101 Z M217.135334,12.8097101 C217.135334,10.900092 217.456053,9.1697423 218.097008,7.61914404 C218.738447,6.06902899 219.632398,4.74940174 220.779346,3.65929591 C221.926293,2.56967326 223.287537,1.73324897 224.86211,1.1485734 C226.436683,0.56438104 228.157346,0.272043259 230.024581,0.272043259 C231.891334,0.272043259 233.61248,0.56438104 235.187053,1.1485734 C236.761142,1.73324897 238.122386,2.56967326 239.269817,3.65929591 C240.416764,4.74940174 241.3112,6.06902899 241.952154,7.61914404 C242.59311,9.1697423 242.913346,10.900092 242.913346,12.8097101 C242.913346,14.7198113 242.59311,16.4496779 241.952154,18.0002762 C241.3112,19.5503912 240.416764,20.8709849 239.269817,21.9606074 C238.122386,23.0502302 236.761142,23.8871375 235.187053,24.4713299 C233.61248,25.055039 231.891334,25.347377 230.024581,25.347377 C228.157346,25.347377 226.436683,25.055039 224.86211,24.4713299 C223.287537,23.8871375 221.926293,23.0502302 220.779346,21.9606074 C219.632398,20.8709849 218.738447,19.5503912 218.097008,18.0002762 C217.456053,16.4496779 217.135334,14.7198113 217.135334,12.8097101 L217.135334,12.8097101 Z" id="Fill-95"></path>
                <polyline id="Fill-96" points="249.222764 0.878946158 257.185605 0.878946158 262.685244 16.4496779 262.752968 16.4496779 268.285983 0.878946158 276.215447 0.878946158 276.215447 24.7404741 270.951873 24.7404741 270.951873 6.43964565 270.884151 6.43964565 264.608593 24.7404741 260.593553 24.7404741 254.554061 6.43964565 254.486337 6.43964565 254.486337 24.7404741 249.222764 24.7404741 249.222764 0.878946158"></polyline>
            </g>
        </g>
    </g>
</svg>