<?xml version="1.0" encoding="UTF-8"?>
<svg width="400px" height="140px" viewBox="0 0 400 140" version="1.1" xmlns="http://www.w3.org/2000/svg" xmlns:xlink="http://www.w3.org/1999/xlink">
    <title>Artboard</title>
    <g id="Artboard" stroke="none" stroke-width="1" fill="none" fill-rule="evenodd">
        <g id="logo-(1)" transform="translate(27.000000, 38.000000)" fill="#000099" fill-rule="nonzero">
            <path d="M71.1686893,14.4040968 L71.1686893,50.9590317 L62.6861997,50.9590317 L62.6861997,47.0856611 C60.7610957,50.2327747 57.2116852,52.0484171 52.0379681,52.0484171 C43.4351595,52.0484171 39.163835,47.5698324 39.163835,40.4283054 L39.163835,14.4040968 L48.4283981,14.4040968 L48.4283981,37.9469274 C48.4283981,41.7597765 50.4738211,43.9990689 54.4443481,43.9990689 C59.0766297,43.9990689 61.9041262,41.3361266 61.9041262,36.433892 L61.9041262,14.4040968 L71.1686893,14.4040968 Z M131.32819,25.4189944 L131.32819,50.9590317 L122.063627,50.9590317 L122.063627,28.2029795 C122.063627,23.8454376 120.319001,21.1824953 116.288315,21.1824953 C112.257628,21.1824953 109.911408,24.2085661 109.911408,28.4450652 L109.911408,50.9590317 L100.646845,50.9590317 L100.646845,28.2029795 C100.646845,23.5428305 98.7217406,21.1824953 94.8715326,21.1824953 C90.7806865,21.1824953 88.4946255,24.2085661 88.4946255,28.4450652 L88.4946255,50.9590317 L79.2300624,50.9590317 L79.2300624,14.4040968 L87.832871,14.4040968 L87.832871,18.4590317 C89.9384535,14.9487896 93.4277046,13.1936685 98.1803051,13.1936685 C102.812587,13.1936685 106.301838,15.1303538 108.287101,18.5800745 C110.753641,15.009311 114.42337,13.1936685 119.175971,13.1936685 C126.936546,13.1936685 131.32819,17.8538175 131.32819,25.4189944 L131.32819,25.4189944 Z M205.685333,50.9590317 L196.42077,50.9590317 L196.42077,0.121042831 L205.685333,0.121042831 L205.685333,50.9590317 Z M306.151699,50.9590317 L296.887136,50.9590317 L296.887136,14.4040968 L306.151699,14.4040968 L306.151699,50.9590317 Z M296.706657,8.89664804 L306.272018,8.89664804 L306.272018,0 L296.706657,0 L296.706657,8.89664804 Z M340.863731,38.4916201 C337.073682,42.5465549 334.486824,44.1201117 330.997573,44.1201117 C326.846567,44.1201117 323.898752,41.6992551 322.575243,37.9469274 L322.575243,27.2951583 C323.958911,23.4823091 326.906727,21.0614525 331.117892,21.0614525 C334.186026,21.0614525 336.652566,22.150838 340.562933,25.8426443 L346.338245,20.0931099 C341.705964,15.009311 337.194001,13.1331471 331.117892,13.1331471 C322.635402,13.1331471 316.078017,17.6117318 313.491158,25.1163873 L313.491158,40.1256983 C316.017857,47.6303538 322.454924,52.0484171 330.877254,52.0484171 C337.434639,52.0484171 341.946602,49.8696462 347,43.575419 L340.863731,38.4916201 Z M19.0705617,28.4450652 C16.5438627,27.9003724 14.7390777,27.4162011 13.7163662,27.1741155 C12.4530166,26.810987 11.4904646,26.3268156 11.0091886,25.6610801 L11.0091886,22.877095 C11.8514216,21.5456238 13.8968447,20.698324 16.7243412,20.698324 C20.6347087,20.698324 23.3418863,21.6061453 27.6132108,24.9953445 L32.6064494,18.943203 C27.5530513,14.7067039 23.2215673,13.1936685 16.9649792,13.1936685 C9.74583911,13.1936685 4.75260055,16.1592179 2.76733703,20.3957169 L2.76733703,29.5949721 C4.33148405,32.6815642 7.94105409,34.4366853 15.1601942,36.0102421 C17.7470527,36.6154562 19.4916782,37.0391061 20.5143897,37.2206704 C21.8378988,37.6443203 23.0410888,38.189013 23.7028433,39.1573557 L23.7028433,42.3649907 C22.8004508,43.8175047 20.6347087,44.6042831 17.8072122,44.6042831 C15.7617892,44.6648045 13.7765257,44.2411546 11.9115811,43.4543762 C10.1067961,42.7281192 8.00121359,41.3361266 5.35419556,39.1573557 L0,45.1489758 C5.77531207,50.2932961 10.6482316,52.0484171 17.5665742,52.0484171 C24.9661928,52.0484171 30.2000693,49.2039106 32.1853329,44.6648045 L32.1853329,35.4050279 C30.5008669,31.9553073 26.4701803,30.1396648 19.0705617,28.4450652 Z M155.632628,13.1331471 C147.270458,13.1331471 140.713072,17.6722533 138.005895,24.9348231 L138.005895,40.3072626 C140.652913,47.5698324 147.270458,52.1089385 155.632628,52.1089385 C163.994799,52.1089385 170.492025,47.5698324 173.139043,40.367784 L173.139043,24.8743017 C170.431865,17.6722533 163.87448,13.1331471 155.632628,13.1331471 L155.632628,13.1331471 Z M164.175277,38.0074488 C162.731449,41.8808194 159.663315,44.1806331 155.572469,44.1806331 C151.541782,44.1806331 148.353329,41.8808194 146.909501,38.0074488 L146.909501,27.2346369 C148.353329,23.3612663 151.421463,21.0009311 155.572469,21.0009311 C159.663315,21.0009311 162.67129,23.3612663 164.115118,27.2346369 L164.175277,38.0074488 Z M230.471047,13.1331471 C222.108877,13.1331471 215.551491,17.6722533 212.844313,24.9348231 L212.844313,40.3072626 C215.551491,47.5698324 222.108877,52.1089385 230.471047,52.1089385 C238.833218,52.1089385 245.330444,47.5698324 247.977462,40.367784 L247.977462,24.8743017 C245.330444,17.6722533 238.773058,13.1331471 230.471047,13.1331471 Z M239.013696,38.0074488 C237.569868,41.8808194 234.501734,44.1806331 230.471047,44.1806331 C226.440361,44.1806331 223.251907,41.8808194 221.808079,38.0074488 L221.808079,27.2346369 C223.251907,23.3612663 226.320042,21.0009311 230.471047,21.0009311 C234.622053,21.0009311 237.569868,23.3612663 239.013696,27.2346369 L239.013696,38.0074488 Z M280.222954,14.4040968 L280.222954,18.4590317 C277.876734,14.9487896 274.207004,13.1936685 269.153606,13.1936685 C262.295423,13.1936685 256.760749,17.4301676 254.354369,24.1480447 L254.354369,39.2178771 C256.700589,45.9357542 262.235264,50.1117318 269.153606,50.1117318 C273.785888,50.1117318 277.275139,48.538175 279.741678,45.4515829 L279.741678,48.3566108 C279.741678,54.4087523 276.252427,57.2532588 270.838072,57.2532588 C266.807386,57.2532588 263.498613,56.0428305 258.204577,52.8957169 L253.692614,59.613594 C258.806172,63.0633147 264.822122,64.9394786 270.958391,65 C281.185506,65 288.705444,59.4925512 288.705444,49.2039106 L288.705444,14.4040968 L280.222954,14.4040968 Z M279.079924,36.6154562 C277.696255,40.0651769 274.808599,42.2439479 271.199029,42.2439479 C267.589459,42.2439479 264.701803,40.1256983 263.318135,36.6154562 L263.318135,26.6294227 C264.701803,23.179702 267.5293,21.0614525 271.199029,21.0614525 C274.868759,21.0614525 277.696255,23.179702 279.079924,26.6294227 L279.079924,36.6154562 Z" id="Shape"></path>
        </g>
    </g>
</svg>