<?xml version="1.0" encoding="UTF-8"?>
<svg width="400px" height="140px" viewBox="0 0 400 140" version="1.1" xmlns="http://www.w3.org/2000/svg" xmlns:xlink="http://www.w3.org/1999/xlink">
    <title>Artboard</title>
    <g id="Artboard" stroke="none" stroke-width="1" fill="none" fill-rule="evenodd">
        <g id="VMware_logo" transform="translate(40.000000, 34.000000)" fill="#7498BF" fill-rule="nonzero">
            <path d="M17.4892601,0 C14.4801909,0 12.0668258,2.3690566 12.0668258,5.27987421 L12.0668258,23.3385744 L5.42243437,23.3385744 C2.41336518,23.3385737 0,25.7168134 0,28.6184486 L0,67.7201258 C0,70.6309458 2.41336516,73 5.42243437,73 L45.7470167,73 C48.7560859,73 51.2458234,70.6309434 51.2458234,67.7201258 L51.2458234,61.2924528 L69.8806683,61.2924528 C72.8866826,61.2924553 75.3031026,58.9142138 75.3031026,56.0125786 L75.3031026,16.9109015 C75.3031026,14.0062052 72.8866826,11.7075472 69.8806683,11.7075472 L63.2362768,11.7075472 L63.2362768,5.27987421 C63.2362768,2.36905668 60.8168019,0 57.8138425,0 L17.4892601,0 Z M17.4892601,2.98427673 L57.8138425,2.98427673 C59.1304987,2.98427673 60.1813842,4.00046122 60.1813842,5.27987421 L60.1813842,11.7075472 L29.5560859,11.7075472 C26.5531265,11.7075469 24.0572792,14.0062055 24.0572792,16.9109015 L24.0572792,23.3385744 L15.1217184,23.3385744 L15.1217184,5.27987421 C15.1217184,4.00046122 16.1634368,2.98427673 17.4892601,2.98427673 Z M29.5560859,14.615304 L60.1813842,14.615304 L60.1813842,44.3050314 C60.1813842,45.5844469 59.1305012,46.6771488 57.8138425,46.6771488 L51.2458234,46.6771488 L51.2458234,28.6184486 C51.2458258,25.7168134 48.7560859,23.3385744 45.7470167,23.3385744 L27.1121718,23.3385744 L27.1121718,16.9109015 C27.1121718,15.634549 28.2394272,14.615304 29.5560859,14.615304 Z M63.2362768,14.615304 L69.8806683,14.615304 C71.2003819,14.615304 72.24821,15.6345493 72.24821,16.9109015 L72.24821,56.0125786 C72.24821,57.2889308 71.2003819,58.3081761 69.8806683,58.3081761 L51.2458234,58.3081761 L51.2458234,49.6614256 L57.8138425,49.6614256 C60.8167995,49.6614231 63.2362768,47.2158491 63.2362768,44.3050314 L63.2362768,14.615304 Z M141.212411,23.1090147 C137.793986,23.1090147 134.839907,24.4986164 132.582339,26.8584906 C132.27074,24.6883857 130.795229,23.4150941 128.458234,23.4150943 C128.320764,23.4150943 119.369933,23.4150941 119.369928,23.4150943 C116.819093,23.4150943 115.777372,25.2546331 115.322196,26.6289308 L109.441527,44.2285115 L109.365155,44.2285115 L103.484487,26.6289308 C103.038473,25.2546331 101.917329,23.4150941 99.3603819,23.4150943 C96.8798091,23.4150943 94.548926,24.9148847 94.548926,27.7767296 C94.548926,28.5755975 94.7199976,29.2642767 95.1599045,30.3784067 L104.400955,53.4874214 C105.292983,55.7768973 106.233895,57.1603774 109.365155,57.1603774 C112.493365,57.1603774 113.440384,55.7768948 114.329356,53.4874214 L123.875895,29.9958071 L123.875895,52.2631027 C123.875895,55.2320755 125.779096,57.1603774 128.458234,57.1603774 C131.1221,57.1603774 133.04057,55.2320755 133.040573,52.2631027 L133.040573,36.7295597 C133.040573,33.1392453 134.668835,30.5314465 138.463007,30.5314465 C141.811169,30.5314465 143.885444,33.1392453 143.885442,36.7295597 L143.885442,52.2631027 C143.885442,55.2320755 145.800857,57.1603774 148.46778,57.1603774 C151.134702,57.1603774 153.050117,55.2320755 153.050119,52.2631027 L153.050119,36.7295597 C153.050119,33.1392453 155.066351,30.5314465 158.472554,30.5314465 C161.817661,30.5314465 163.894983,33.1392453 163.894988,36.7295597 L163.894988,52.2631027 C163.894988,55.2320755 165.810413,57.1603774 168.477327,57.1603774 C171.147303,57.1603774 173.059666,55.2320755 173.059666,52.2631027 L173.059666,35.1226415 C173.059666,27.3298532 168.009936,23.1090147 160.534606,23.1090147 C157.378902,23.1090147 153.300618,24.7740881 150.75895,27.6236897 C148.333365,24.6516562 145.064635,23.1090147 141.212411,23.1090147 Z M178.4821,23.4150943 C176.563628,23.4150943 175.809069,24.8016352 175.809069,25.8637317 C175.809069,26.4207966 176.007635,27.198239 176.267303,28.0062893 L185.584726,54.3291405 C186.348449,56.4349686 187.274079,57.1603774 188.868735,57.1603774 C190.402291,57.1603774 191.306539,56.434971 192,54.3291405 L199.331742,32.0618449 L199.408115,32.0618449 L206.739857,54.3291405 C207.436372,56.4349686 208.343675,57.1603774 209.871122,57.1603774 C211.47494,57.1603774 212.394473,56.434971 213.155131,54.3291405 L222.472554,28.0062893 C222.723055,27.2043606 222.930788,26.4207966 222.930788,25.8637317 C222.930788,24.804696 222.179279,23.4150943 220.257757,23.4150943 C219.051074,23.4150943 217.88716,23.886457 217.126492,26.2463312 L209.871122,48.8197065 L209.794749,48.8197065 L202.692124,27.0880503 C201.928401,24.7281761 201.372411,23.4150943 199.331742,23.4150943 C197.288019,23.4150943 196.823683,24.7281761 196.047733,27.0880503 L188.945107,48.8197065 L188.792363,48.8197065 L181.613365,26.2463312 C180.837422,23.8833962 179.694895,23.4150943 178.4821,23.4150943 Z M240.190931,23.4150943 C230.595506,23.4150943 225.221957,31.5537526 225.221957,40.3259958 C225.221957,49.0982365 230.595513,57.1603774 240.190931,57.1603774 C243.838465,57.1603774 247.079714,55.5810063 249.508353,52.2631027 L249.584726,52.2631027 L249.584726,54.5587002 C249.584726,56.4716981 251.096897,57.1603774 252.257757,57.1603774 C253.345298,57.1603774 254.854415,56.4716981 254.854415,54.5587002 L254.854415,26.0932914 C254.854415,24.1864144 253.345298,23.4150943 252.257757,23.4150943 C251.096897,23.4150943 249.584726,24.1864151 249.584726,26.0932914 L249.584726,27.8532495 L249.508353,27.8532495 C246.89031,25.0862893 244.098138,23.4150943 240.190931,23.4150943 Z M295.560859,23.4150943 C286.035704,23.4150943 280.286396,31.3486792 280.286396,40.3259958 C280.286396,49.0859983 285.079523,57.1603774 295.942721,57.1603774 C302.581002,57.1603774 309.536993,53.1721593 309.536993,50.5031447 C309.536993,48.9513183 308.498329,48.0545073 307.47494,48.0545073 C305.373174,48.0545073 303.424153,52.4926625 295.942721,52.4926625 C289.628258,52.4926625 285.937947,48.1249057 285.937947,42.4685535 L307.093079,42.4685535 C309.518663,42.4685535 310.224344,41.4890985 310.224344,39.5607966 C310.224344,31.5843606 304.823294,23.4150943 295.560859,23.4150943 Z M316.257757,23.4150943 C314.189594,23.4150943 312.515513,25.0128302 312.515513,27.0115304 C312.515513,29.0132914 314.189594,30.6079665 316.257757,30.6079665 C318.319809,30.6079665 320,29.0132914 320,27.0115304 C320,25.0128302 318.319809,23.4150943 316.257757,23.4150943 Z M265.088305,23.4916143 C263.362291,23.4916143 262.26253,24.5996226 262.26253,26.3993711 L262.26253,54.2526205 C262.26253,56.0554298 263.362291,57.1603774 265.088305,57.1603774 C266.81432,57.1603774 267.837709,56.0554298 267.837709,54.2526205 L267.837709,38.5660377 C267.837709,32.1812159 271.9221,29.7907338 275.245823,29.230608 C277.61031,28.7990356 278.75895,27.7981551 278.75895,26.2463312 C278.75895,24.7006289 277.674463,23.4916143 275.704057,23.4916143 C272.444487,23.4916143 269.261289,26.6075052 267.990453,29.1540881 L267.837709,29.1540881 L267.837709,26.3993711 C267.837709,24.5996226 266.81432,23.4916143 265.088305,23.4916143 Z M316.257757,24.1802935 C317.824916,24.1802935 319.083532,25.4290985 319.083532,27.0115304 C319.083532,28.5939623 317.824916,29.8427673 316.257757,29.8427673 C314.687542,29.8427673 313.355609,28.5939623 313.355609,27.0115304 C313.355609,25.4290985 314.687542,24.1802935 316.257757,24.1802935 Z M314.73031,25.0220126 C314.692112,25.0552994 314.653938,25.1000629 314.653938,25.1750524 L314.653938,28.7714885 C314.653938,28.9704403 314.809737,29.0775681 315.0358,29.0775681 C315.261862,29.0775681 315.341313,28.9704403 315.341289,28.7714885 L315.341289,27.39413 L316.02864,27.39413 L317.02148,28.9245283 C317.125346,29.0867505 317.198639,29.0775681 317.403341,29.0775681 C317.580525,29.0775681 317.785178,29.034717 317.785203,28.9245283 C317.785203,28.85413 317.751599,28.7561845 317.708831,28.6949686 L316.792363,27.3176101 C317.385012,27.2472117 317.861575,26.9503145 317.861575,26.1698113 C317.861575,25.2668763 317.29339,25.0220126 316.257757,25.0220126 L314.883055,25.0220126 C314.800573,25.0220126 314.768509,24.9887258 314.73031,25.0220126 Z M315.341289,25.557652 L316.181384,25.557652 C316.627399,25.557652 317.174224,25.5943816 317.174224,26.0932914 C317.174224,26.687086 316.706826,26.7819706 316.181384,26.7819706 L315.341289,26.7819706 L315.341289,25.557652 Z M5.42243437,26.3228512 L12.0668258,26.3228512 L12.0668258,44.3050314 C12.0668258,47.2158515 14.4801909,49.6614256 17.4892601,49.6614256 L24.0572792,49.6614256 L24.0572792,56.0125786 C24.0572797,58.9142138 26.5531265,61.2924528 29.5560859,61.2924528 L48.1909308,61.2924528 L48.1909308,67.7201258 C48.1909308,68.9964804 47.0728401,70.0157233 45.7470167,70.0157233 L5.42243437,70.0157233 C4.0874463,70.0157233 3.0548926,68.996478 3.0548926,67.7201258 L3.0548926,28.6184486 C3.0548926,27.3451572 4.0874463,26.3228512 5.42243437,26.3228512 Z M15.1217184,26.3228512 L24.0572792,26.3228512 L24.0572792,46.6771488 L17.4892601,46.6771488 C16.1634368,46.6771488 15.1217184,45.5844444 15.1217184,44.3050314 L15.1217184,26.3228512 Z M27.1121718,26.3228512 L45.7470167,26.3228512 C47.0728401,26.3228512 48.1909308,27.3451572 48.1909308,28.6184486 L48.1909308,46.6771488 L27.1121718,46.6771488 L27.1121718,26.3228512 Z M240.190931,28.1593291 C247.098043,28.1593291 249.584726,34.7247379 249.584726,40.3259958 C249.584726,45.9272512 247.098043,52.4926625 240.190931,52.4926625 C233.283811,52.4926625 230.873508,45.9272537 230.873508,40.3259958 C230.873508,34.7247355 233.283819,28.1593291 240.190931,28.1593291 Z M294.338902,28.1593291 C294.740095,28.1318456 295.125158,28.1440252 295.560859,28.1593291 C301.759236,28.1593291 304.572792,33.6014256 304.572792,38.336478 L285.937947,38.336478 C286.1241,33.6046774 288.321179,28.5715842 294.338902,28.1593291 Z M27.1121718,49.6614256 L48.1909308,49.6614256 L48.1909308,58.3081761 L29.5560859,58.3081761 C28.2394272,58.3081761 27.1121718,57.2889308 27.1121718,56.0125786 L27.1121718,49.6614256 Z" id="path2985"></path>
        </g>
    </g>
</svg>