<svg height="140" viewBox="0 0 400 140" width="400" xmlns="http://www.w3.org/2000/svg"><path d="m0 0h17.3228544c8.6438227 0 14.0264068 4.8580624 14.0264068 11.1612446.0936995 3.8682554-1.9826839 7.4655391-5.3825841 9.3251957 4.721358 1.4440214 7.9389885 5.802458 7.9221038 10.7307834 0 7.757087-6.0032103 12.9270142-15.8001295 12.9270142h-18.0886514zm17.5121031 18.0969413c4.1062559 0 6.447658-1.7569846 6.447658-5.6091733 0-3.85218873-2.3414021-5.55207132-6.447658-5.55207132h-10.12260294v11.16124462zm1.8528765 19.1115999c4.04464 0 6.8261553-2.0205323 6.8261553-6.0572044s-2.8035209-6.1143064-6.8261553-6.1143064h-11.96227605v12.1715108zm17.6045268-8.8288476c0-10.5946171 6.949387-16.3970587 15.0386671-16.3970587 3.9610186 0 7.3278843 1.8799735 9.7309023 4.0893817l2.4778371-3.4612597h4.7224144v31.533481h-7.2266583v-3.9005058c-2.0245206 2.1435212-5.1845332 4.5330202-9.9201509 4.5330202-7.3939013 0-14.8494184-5.8024416-14.8494184-16.3970587zm24.7695694 2.3323971v-4.6032997c0-4.5418051-3.8553914-7.9459628-8.5337944-7.9459628-4.9248664 0-8.9695065 3.2767763-8.9695065 10.2168654 0 6.9400892 4.0182333 10.2168654 9.0179189 10.2168654 4.6035838 0 8.4589752-3.3426632 8.4589752-7.8844683zm74.5903802-18.1013338h-8.846275l-12.930525 14.6225043v-27.2332612h-7.204652v44.1442379h7.204652v-14.6093269l12.930525 14.6093269h8.846275l-14.030808-15.7645443zm18.097454 0h-8.846275l-13.986797 15.7689367 13.995599 15.7645443h8.846275l-14.03961-15.7645443zm41.423452-12.6107569-13.137379 28.1512856-13.168186-28.1512856h-7.922037v44.1442379h7.187048v-29.8379909l10.562716 22.7749128h6.698523l10.562716-22.7749128v29.8379909h7.138636v-44.1442379zm12.345174 28.3796936c0-10.5946171 6.949387-16.3970587 15.038667-16.3970587 3.961019 0 7.327884 1.8799735 9.730902 4.0893817l2.495442-3.4612597h4.726815v31.533481h-7.213454v-3.9005058c-2.02012 2.1435212-5.180132 4.5330202-9.920151 4.5330202-7.398303 0-14.849419-5.8024416-14.849419-16.3970587zm24.769569 2.3323971v-4.6032997c0-4.5418051-3.855391-7.9459628-8.529393-7.9459628-4.929267 0-8.973908 3.2767763-8.973908 10.2168654 0 6.9400892 4.044641 10.2168654 9.035524 10.2168654 4.621188 0 8.47658-3.3426632 8.47658-7.8844683zm12.309966-18.1013338h4.709211l2.482238 3.4612597c2.147752-2.4597785 4.251493-3.9532154 7.455517-3.9532154h5.334172v6.8346701h-8.071676c-2.979566 0-4.70481 1.3968027-4.70481 4.7482508v20.4249459h-7.204652zm90.381641 23.4074272v-17.2272339h-5.875511v-6.1801933h5.875511v-6.10112899l7.266268-4.20358563v10.30471462h7.07702v6.1801933h-7.07702v16.0939789c0 2.0776342 1.201509 3.0264059 3.600126 3.0264059h3.160013v6.2329029h-5.307765c-5.180132 0-8.718642-2.2094082-8.718642-8.1260538zm-14.730588-2.6003372c-1.192707 3.1713572-3.815781 5.2709538-8.164099 5.2709538-5.056901 0-8.595411-3.1537873-8.907891-8.3456768h24.206224v-2.2313704c0-10.1509785-6.443256-16.142296-15.403961-16.142296-8.40176 0-15.795661 6.557945-15.795661 16.3970587s6.320025 16.3970587 15.795661 16.3970587c7.358693 0 12.411192-3.5754636 14.611758-10.0411669-1.896888-.3865366-4.062245-.8389601-6.342031-1.313346zm-8.291732-15.5712759c4.55077 0 8.150896 2.5871598 8.59541 7.2519539h-17.252436c.884627-4.6032996 4.361521-7.2519539 8.657026-7.2519539zm-14.677775-5.2358141h-8.846274l-12.943729 14.5697947v-27.1805516h-7.204652v44.1442379h7.204652v-14.5654023l12.930525 14.5654023h8.859478l-14.044011-15.7645443zm-208.9657336 25.7925338c-5.246149 0-9.1631563-3.5930335-9.1631563-10.0235971s3.9170073-10.0279895 9.1631563-10.0279895c4.5287645 0 7.4379126 2.2489402 8.4589751 5.749732 1.6460233-.3294346 4.9996855-1.0014812 6.4124485-1.3177384-1.571204-6.7643907-7.0858216-10.7966703-14.9374406-10.7966703-9.0971393 0-16.1741591 6.6194394-16.1741591 16.3970587 0 9.7776192 7.0770198 16.3970587 16.1741591 16.3970587 7.684376 0 13.0801636-3.8785435 14.9022316-10.8098477-1.43917-.3206497-4.7664253-.9883039-6.394844-1.3177385-1.170701 3.6106034-3.9038038 5.7497321-8.4413706 5.7497321z" transform="translate(30 48)"/></svg>