<svg height="140" viewBox="0 0 400 140" width="400" xmlns="http://www.w3.org/2000/svg"><g fill="none" fill-rule="nonzero"><g transform="translate(33 30)"><g fill="#231815"><path d="m65.4384 42.5000892h-1.5616c0 5.6419936-2.3296 10.7298628-6.1184 14.4576086-3.7888 3.7025583-8.9856 5.9946182-14.7456 5.9946182s-10.9824-2.2920599-14.7456-5.9946182-6.0928-8.7904276-6.1184-14.4576086c0-5.6419936 2.3296-10.7298629 6.1184-14.4576086 3.7888-3.7025583 8.9856-5.9946182 14.7456-5.9946182s10.9824 2.2920599 14.7456 5.9946182 6.1184 8.7904275 6.1184 14.4576086h1.5616 1.5616c0-6.4983677-2.688-12.392236-7.04-16.6237312-4.3264-4.2566826-10.3424-6.9013671-16.9728-6.876358-6.6048 0-12.6208 2.6448628-16.9472 6.876358-4.352 4.2566827-7.04 10.150551-7.04 16.6237312 0 6.4983676 2.688 12.3922359 7.04 16.6237311 4.3264 4.2566827 10.3424 6.8761797 16.9472 6.8761797 6.6304 0 12.6208-2.6446845 16.9728-6.8761797 4.352-4.2566827 7.04-10.150551 7.04-16.6237311z"/><path d="m25 43.1009818c0 .0757363.4595745 4.0392707 2.8085106 8.2552594 1.1744681 2.1206171 2.8085107 4.2917251 5.1319149 6.0589061 2.2978724 1.7671809 5.2851064 3.1051893 9.012766 3.4838709l1.0468085.1009818v-36h-1.8638298v34.9901823h.9446809l.1021276-.9088359c-3.4212766-.3786816-6.0255319-1.5399719-8.093617-3.1051893-3.0893617-2.3478261-4.9021277-5.6044881-5.9489362-8.3057504-.5106383-1.3380084-.8425532-2.5497896-1.0212766-3.4081346-.1021276-.4291725-.1531915-.7826087-.2042553-1.0098177-.0255319-.1262272-.0255319-.2019635-.0510638-.2524544v-.0757363-.0252455z"/><path d="m60.1818182 45.3083392c-.935065 3.2039243-2.3636364 5.6510161-3.974026 7.5178696-2.4155844 2.8255081-5.2727273 4.3644009-7.5064935 5.2221444-1.1168831.4288717-2.1038961.6811493-2.7792208.8325158v-15.4646111h15.1948052v-1.8416258h-15.1948052v-16.5746321h-1.9220779v36l1.038961-.100911c.0779221 0 3.2727273-.302733 6.987013-2.3209531 1.8701299-1.00911 3.8441559-2.4723195 5.6363637-4.540995 1.7922078-2.0686756 3.3506493-4.7680449 4.3376623-8.199019z"/></g><path d="m84.1647093 43h-2.8352906c0 10.3189858-4.2146213 19.6491745-11.0601879 26.4186321-6.8455667 6.7694575-16.2709924 10.9528302-26.7436876 10.9528302-10.4471521 0-19.898121-4.1833727-26.7436877-10.9528302-6.8455666-6.7694576-11.06018785-16.0996463-11.06018785-26.4186321s4.21462125-19.6491745 11.06018785-26.4186321c6.8455667-6.76945752 16.2965356-10.95283016 26.7436877-10.95283016 10.447152 0 19.8981209 4.18337264 26.7436876 10.95283016 6.8455666 6.7694576 11.0601879 16.0996463 11.0601879 26.4186321h2.8352906 2.8352907c0-11.865566-4.8787434-22.6409198-12.7460364-30.3991745-7.867293-7.78360852-18.7486788-12.6008255-30.7539636-12.6008255s-22.8866706 4.81721698-30.7539636 12.6008255c-7.86729301 7.7836085-12.7460364 18.5336085-12.7460364 30.3991745s4.87874339 22.6409198 12.7460364 30.3991745c7.867293 7.7836085 18.7486788 12.6008255 30.7539636 12.6008255s22.8866706-4.817217 30.7539636-12.6008255 12.7460364-18.5336085 12.7460364-30.3991745z" fill="#d50739"/></g><g transform="translate(131 47)"><path d="m4.25925926 6.71428571c.48148148.46428572.74074074 1.03571429.74074074 1.67857143 0 .67857143-.25925926 1.25-.74074074 1.71428576-.48148148.4642857-1.07407407.7142857-1.74074074.7142857s-1.25925926-.25-1.77777778-.7142857c-.48148148-.46428576-.74074074-1.03571433-.74074074-1.71428576 0-.64285714.25925926-1.21428571.74074074-1.67857143.51851852-.5 1.07407407-.71428571 1.77777778-.71428571.66666667 0 1.25925926.25 1.74074074.71428571m0 40.28571429h-3.51851852v-31.0714286h3.51851852z" fill="#a3a39f"/><path d="m14.4751131 26.8741259c0 .9440559.0361991 1.7482517.1447964 2.4475524s.2895928 1.3286714.6153846 1.8531469c.2895928.5594405.760181.979021 1.3755656 1.2937063s1.4117647.4895105 2.4253394.4895105 1.8099547-.1748252 2.4253394-.4895105c.6153846-.3146853 1.0859728-.7342658 1.3755656-1.2937063.2895927-.5594406.5067873-1.1888112.6153846-1.8531469.1085973-.6993007.1447964-1.5034965.1447964-2.4475524v-10.8741259h3.4027149v11.2237762c0 2.7622378-.6153846 4.93007-1.8823529 6.4685315-1.2307693 1.5384615-3.2941177 2.3076923-6.1176471 2.3076923s-4.8506787-.7692308-6.1176471-2.3076923c-1.2307692-1.5384615-1.8823529-3.7062937-1.8823529-6.4685315v-11.2237762h3.438914v10.8741259z" fill="#a3a39f"/><path d="m36.6516393 17.6527051h.0737705c.5532787-.8376964 1.2540984-1.4659686 2.1024591-1.9546248.8483606-.4537522 1.807377-.6980803 2.8032786-.6980803 1.2172132 0 2.3237705.2792321 3.3565574.8726003.9959017.5933683 1.7704918 1.3612566 2.3237705 2.373473.5901639-1.0471204 1.4385246-1.8499127 2.545082-2.408377 1.1065574-.5584642 2.3237705-.8376963 3.6147541-.8376963 1.2540983 0 2.3237705.2094241 3.1721311.6631763.8483607.4537521 1.5491804 1.0471204 2.0286885 1.8150087.4795082.7678883.8483607 1.6055846 1.0327869 2.582897.1844263.9773124.295082 1.9895288.295082 3.1064573v11.8324607h-3.5040984v-11.3089005c0-.8376964-.0368852-1.5357766-.1106557-2.1291449-.0737705-.5933682-.2213115-1.1518324-.4426229-1.7102967-.2213115-.5235602-.6270492-.9773124-1.1434427-1.2914485-.5163934-.3141361-1.2172131-.4886562-2.0655737-.4886562-.9590164 0-1.7336066.1745201-2.3237705.5933683-.590164.3839441-1.0327869.9075043-1.3647541 1.5357766-.295082.6631762-.5163935 1.3263525-.6270492 2.0593368-.1106558.7329843-.147541 1.5357766-.147541 2.408377v10.2966841h-3.5040984v-11.0296684c0-.7329843-.0368852-1.4310646-.1106557-2.0942409-.0737705-.6631762-.2213115-1.2565445-.4795082-1.8499127s-.6270492-1.0471204-1.1434426-1.3961606c-.5163935-.3490401-1.1434426-.5235602-1.954918-.5235602-.9590164 0-1.7704919.2094241-2.397541.6282723-.6270492.4188481-1.1065574.9424084-1.4016394 1.6404886-.2950819.6631763-.5163934 1.3961606-.6270492 2.1640489-.1106557.7678883-.1475409 1.5706806-.1475409 2.443281v10.052356h-3.5040984v-19.4415358h3.5040984v2.0942409z" fill="#a3a39f"/><path d="m69.3873874 18.4311512h.0720721c.8288288-1.1196388 1.8378378-1.9503386 3.027027-2.564334 1.1891892-.5778781 2.4864865-.8668172 3.8918919-.8668172s2.7387387.2889391 3.9279279.8668172 2.1981982 1.3724605 3.0630631 2.3476298c.8288288 1.0112866 1.4774774 2.1309255 1.9459459 3.4311512s.6846847 2.6365688.6846847 4.0090293c0 1.4446953-.2162162 2.7810384-.6486486 4.0812641-.4324325 1.3002258-1.0810811 2.4198646-1.90991 3.3950339-.8288288.9751693-1.8738738 1.7697517-3.063063 2.275395-1.1891892.5417608-2.5225225.8306998-4 .8306998-1.3693694 0-2.6666667-.288939-3.8558559-.8668171-1.2252252-.5778781-2.1981982-1.4085779-3.027027-2.4920994h-.0720721v14.1218962h-3.4234234v-31.4221219h3.4234234v2.8532731zm3.6756757.3250565c-.8288289.3972912-1.5135136.9029345-2.0540541 1.5891648-1.1891892 1.4085778-1.8018018 3.0699774-1.8018018 5.0564334 0 2.0948081.5765766 3.9006772 1.7657658 5.4176072 1.1891892 1.4808126 2.7747747 2.2392776 4.7927928 2.2392776 2.0900901 0 3.7477477-.7223476 4.9369369-2.2031602 1.1891892-1.4808127 1.7657658-3.2866817 1.7657658-5.4176072 0-2.0948082-.6126126-3.8284425-1.8378379-5.200903-1.2252252-1.3724605-2.8468468-2.0586907-4.9009009-2.0586907-.9369369 0-1.8378378.1805869-2.6666666.5778781" fill="#a3a39f"/><g fill="#3f3d39"><path d="m95.4642857 36h-3.3928571v-16.7414248h-2.0714286v-3.1345646h2.0714286v-7.1240106h3.3928571v7.1240106h3.5357143v3.1345646h-3.5357143z"/><path d="m108.45098 17.6223776h.071896c.718954-.9090909 1.366013-1.5734266 1.977124-1.993007s1.437908-.6293706 2.444444-.6293706c.934641 0 1.941177.3146853 3.055556.9090909l-1.617647 3.006993-.251634-.1748252c-.359477-.2447552-.647059-.4195804-.898693-.5244755s-.539216-.1748252-.898693-.1748252c-.898692 0-1.581699.2447553-2.120915.6993007-.539215.4545455-.93464 1.0839161-1.186274 1.8181819-.251634.7342657-.431373 1.5034965-.503268 2.2377622-.071896.7342657-.107843 1.5734266-.107843 2.4475524v9.7552448h-3.415033v-19.4755245h3.415033v2.0979021z"/><path d="m137 35.4642857h-3.417266v-2.75h-.071943c-1.726618 2.2142857-4.028777 3.2857143-6.906474 3.2857143-1.438849 0-2.733813-.2857143-3.920864-.8214286-1.18705-.5357143-2.230216-1.3214285-3.057554-2.3214285s-1.47482-2.1071429-1.942446-3.3571429-.683453-2.5714286-.683453-3.9642857c0-1.4285714.215827-2.7857143.647482-4.0714286s1.079137-2.3928571 1.906475-3.3571428c.827338-.9642858 1.870503-1.75 3.057554-2.2857143 1.18705-.5357143 2.517985-.8214286 3.992806-.8214286 1.366906 0 2.625899.2857143 3.84892.8928571 1.187051.6071429 2.194245 1.4285715 3.021583 2.5h.071943v-2.8571428h3.417266v19.9285714zm-12.661871-16.75c-.827338.3928572-1.510791.8928572-2.050359 1.5714286-1.187051 1.3928571-1.798561 3.0357143-1.798561 5 0 2.0714286.575539 3.8571428 1.76259 5.3571428 1.18705 1.4642858 2.769784 2.2142858 4.784172 2.2142858 2.086331 0 3.741007-.7142858 4.928058-2.1785715 1.18705-1.4642857 1.76259-3.25 1.76259-5.3571428 0-2.0714286-.611511-3.7857143-1.834533-5.1428572-1.223021-1.3571428-2.841726-2.0357143-4.892086-2.0357143-.971223 0-1.834532.1785715-2.661871.5714286"/><path d="m158.612613 32.6283988h-.072072c-.828829 1.0876133-1.837838 1.9214501-3.027027 2.5015106-1.18919.5800604-2.486487.8700906-3.891892.8700906-1.441442 0-2.738739-.2900302-3.927928-.8338369-1.189189-.5438066-2.234235-1.3413897-3.063063-2.3564954-.828829-1.0151058-1.477478-2.1389728-1.945946-3.407855-.468469-1.2688822-.684685-2.6102719-.684685-4.0241692 0-1.4501511.216216-2.8277946.648649-4.1329305.432432-1.305136 1.081081-2.429003 1.90991-3.407855.828828-.978852 1.873873-1.776435 3.063063-2.3202417 1.189189-.5438066 2.522522-.8338368 4.036036-.8338368 1.369369 0 2.666666.2900302 3.855856.9063444 1.225225.6163142 2.198198 1.450151 2.990991 2.5377643h.072072v-18.1268882h3.423423v35.4561934h-3.423423v-2.8277946zm-9.261262-14.2114804c-.792792.3987916-1.513513.9063444-2.054054 1.5951662-1.189189 1.4138973-1.801802 3.081571-1.801802 5.0755287 0 2.102719.576577 3.9154078 1.765766 5.4380665 1.189189 1.4864048 2.774775 2.2477341 4.792793 2.2477341 2.09009 0 3.747748-.7250755 4.936937-2.2114804 1.189189-1.4864048 1.765766-3.2990936 1.765766-5.4380664 0-2.1027191-.612613-3.8429003-1.837838-5.2205438s-2.846847-2.0664653-4.900901-2.0664653c-.936937 0-1.837838.1812689-2.666667.5800604"/><path d="m171.253731 5.71856287c.485075.46706587.746269 1.04191617.746269 1.68862276 0 .68263473-.261194 1.25748503-.746269 1.7245509-.485074.46706587-1.082089.71856287-1.753731.71856287s-1.268657-.251497-1.753731-.71856287c-.485075-.46706587-.746269-1.04191617-.746269-1.7245509 0-.64670659.261194-1.22155689.746269-1.68862276.485074-.50299401 1.082089-.71856287 1.753731-.71856287s1.268657.25149701 1.753731.71856287m0 29.28143713h-3.544776v-20.011976h3.544776z"/><path d="m181.436242 17.8970332h.071588c1.431767-1.9197208 3.328859-2.8970332 5.691275-2.8970332 1.324385 0 2.434005.2094241 3.328859.6631763.894855.4537521 1.574944 1.0471204 2.111857 1.8150087.501119.7678883.85906 1.6404886 1.073826 2.6527051.17897 1.0122164.286353 2.1291448.286353 3.3158813v11.5532286h-3.400447v-10.9598604c0-.9424084-.035795-1.7452007-.143177-2.4083769-.071589-.6631763-.250559-1.2565445-.536913-1.8150088-.286353-.5584642-.680089-.9773124-1.288591-1.2914485-.608501-.3141361-1.324384-.4537522-2.255033-.4537522-1.10962 0-2.004474.2443281-2.684564.6980803-.680089.4537522-1.181208 1.0471204-1.503356 1.7452007-.322147.7329843-.536912 1.5008726-.644295 2.3385689-.107382.8376964-.143177 1.8150088-.143177 2.8970332v9.2146597h-3.400447v-19.4415358h3.400447v2.373473z"/><path d="m218.963964 34.7508494c0 2.1019252-.108108 3.7689694-.324324 5.0011325-.216217 1.2321631-.792793 2.4643261-1.693694 3.6602491s-2.054054 2.0656852-3.423423 2.6817667c-1.36937.6160816-2.810811.9060023-4.360361.9060023-2.846847 0-5.189189-.8335221-7.027027-2.5368063-1.837838-1.7032843-2.774775-3.9501699-2.846847-6.7406569h3.423424c.036036 1.8120045.648648 3.2978483 1.837838 4.4212911 1.189189 1.1234428 2.738738 1.6670441 4.576576 1.6670441 1.297297 0 2.342342-.2174405 3.207207-.6523216s1.513514-1.0147225 1.981982-1.8120045c.468469-.7610419.792793-1.6670442.972973-2.6455266.18018-1.0147226.288289-2.1381654.288289-3.3340884v-2.391846h-.072072c-.792793 1.0147226-1.801802 1.8482447-3.063064 2.4643262-1.225225.6160815-2.522522.9060023-3.891891.9060023-1.441442 0-2.738739-.2899208-3.891892-.8335221-1.18919-.5436014-2.198199-1.3408834-3.063063-2.3193658-.864865-.9784825-1.513514-2.1019253-1.945946-3.4065685-.432433-1.2684032-.648649-2.6092866-.648649-4.0226501 0-1.4496036.216216-2.790487.684685-4.0951302.468468-1.3046433 1.117117-2.4280861 1.945946-3.4428086.864864-1.0147226 1.873874-1.7757645 3.063063-2.3556059 1.189189-.5798415 2.522522-.8697622 3.963964-.8697622 1.405405 0 2.666666.2899207 3.855856.9060023 1.189189.6160815 2.162162 1.4496036 2.990991 2.5368063h.072072v-2.8992072h3.423423v19.207248zm-12.648649-15.98188c-.828829.398641-1.513513.9060023-2.054054 1.594564-1.189189 1.4133635-1.801802 3.0804077-1.801802 5.0736127 0 2.1019252.576577 3.9139298 1.765766 5.4360136 1.189189 1.4858437 2.774775 2.2468856 4.792793 2.2468856 2.09009 0 3.747748-.7248018 4.936937-2.2106455s1.765766-3.2978483 1.765766-5.4360136c0-2.1019253-.612613-3.8414496-1.837838-5.2185731-1.225225-1.3771234-2.846847-2.0656851-4.900901-2.0656851-.972973 0-1.873874.1812004-2.666667.5798414"/></g></g></g></svg>