<svg height="140" viewBox="0 0 400 140" width="400" xmlns="http://www.w3.org/2000/svg"><g fill="none" fill-rule="evenodd" transform="translate(25 50)"><path d="m91.2214125 2.50724638c-.1677902-.33816425-.3355805-.50724638-.8389507-.50724638h-.5033707c-.5033705 0-.6711605.16908213-.838951.50724638l-14.9333249 32.63285052c-.3355805.6763285.1677902 1.1835745.8389507 1.1835745h4.1947543c.8389509 0 1.1745312-.507246 1.3423214-1.0144926l2.3490624-5.2415456h14.4299544l2.3490624 5.2415456c.3355805.6763286.6711612 1.0144926 1.3423212 1.0144926h4.194755c.67116 0 1.174531-.6763283.83895-1.1835745zm-6.0404462 22.31884072 4.6981248-10.652174h.1677902l4.8659148 10.652174zm51.8471627-22.31884072h-4.362544c-.503371 0-.838951.50724638-.838951.84541062v20.120773l-20.134821-21.47343h-1.174531c-.50337 0-.838951.33816426-.838951.84541063v32.63285047c0 .5072463.503371.8454103.838951.8454103h4.362544c.503371 0 .838951-.5072462.838951-.8454103v-20.7971017l20.134821 22.3188406h1.174531c.50337 0 .838951-.3381643.838951-.8454105v-32.8019325c.16779-.33816424-.335581-.84541062-.838951-.84541062zm21.644932 0c-.16779-.33816425-.335581-.50724638-.838951-.50724638h-.503371c-.50337 0-.67116.16908213-.83895.50724638l-14.933326 32.63285052c-.33558.6763283.167791 1.1835745.838951 1.1835745h4.194754c.838951 0 1.174531-.5072462 1.342322-1.0144926l2.349062-5.0724637h14.429955l2.349062 5.241546c.33558.6763284.671161 1.0144927 1.342321 1.0144927h4.194755c.67116 0 1.174531-.6763286.838951-1.183575zm-6.040446 22.31884072 4.698124-10.652174h.16779l4.865915 10.652174zm47.149037 3.0434781c-.33558-.3381643-.838951-.3381643-1.174531 0-2.013482 1.6908213-4.530335 2.7053142-7.382768 2.7053142-6.208236 0-10.73857-5.0724637-10.73857-11.1594204 0-6.0869565 4.530334-11.32850247 10.73857-11.32850247 2.684643 0 5.369286 1.01449276 7.382768 2.87439617.33558.3381642.838951.3381642 1.174531 0l2.852433-3.04347827c.33558-.33816427.33558-1.01449276 0-1.35265703-3.188013-2.87439613-6.711607-4.5652174-11.577522-4.5652174-9.564039 0-17.282387 7.77777781-17.282387 17.415459 0 9.6376813 7.718348 17.4154591 17.282387 17.4154591 4.362545 0 8.389509-1.5217393 11.745312-4.7342997.335581-.3381643.503371-1.0144926 0-1.3526569zm22.651673-25.8695652c-9.56404 0-17.282387 7.77777781-17.282387 17.415459 0 9.6376813 7.718347 17.4154591 17.282387 17.4154591s17.282387-7.7777778 17.282387-17.4154591c0-9.63768119-7.550557-17.415459-17.282387-17.415459zm0 28.5748794c-6.040446 0-11.074151-5.072464-11.074151-11.1594204 0-6.0869565 5.033705-11.15942035 11.074151-11.15942035s11.074151 5.07246385 11.074151 11.15942035c0 6.2560386-5.033705 11.1594204-11.074151 11.1594204zm50.16926-28.06763302h-4.362545c-.503368 0-.838948.50724638-.838948.84541062v20.120773l-20.302613-21.47343h-1.174531c-.503369 0-.838949.33816426-.838949.84541063v32.63285047c0 .5072463.503369.8454103.838949.8454103h4.362545c.503371 0 .838951-.5072462.838951-.8454103v-20.7971017l20.134821 22.3188406h1.174531c.503369 0 .838951-.3381643.838951-.8454105v-32.8019325c.167789-.33816424-.167791-.84541062-.671162-.84541062zm19.29587 0h-11.409732c-.503371 0-.838951.50724638-.838951.84541062v32.1256041c0 .5072463.33558.8454103.838951.8454103h11.409732c9.228459 0 16.946808-7.6086954 16.946808-17.0772945-.167791-9.1304348-7.718349-16.73913052-16.946808-16.73913052zm-.67116 28.06763272h-5.537076v-22.1497583h5.537076c6.208236 0 10.73857 4.7342995 10.73857 10.9903382.167791 6.4251207-4.530334 11.1594201-10.73857 11.1594201zm49.66589 4.5652178-14.765534-32.63285052c-.167791-.33816425-.335582-.50724638-.838951-.50724638h-.503371c-.503372 0-.671161.16908213-.838949.50724638l-14.933328 32.63285052c-.335578.6763285.167791 1.1835745.838953 1.1835745h4.194752c.838951 0 1.174531-.507246 1.342322-1.0144926l2.349062-5.2415459h14.429957l2.349062 5.2415459c.335578.6763286.671158 1.0144926 1.34232 1.0144926h4.194754c.67116.1690824 1.174531-.507246.838951-1.1835745zm-20.805981-10.3140098 4.698125-10.652174h.167791l4.865916 10.652174z" fill="#3eb049" fill-rule="nonzero"/><path d="m347.428571 40.9286256c0-.1427482-.142856-.2854966-.285714-.2854966h-.571428v.713742h.571428c.142858-.1427486.285714-.2854968.285714-.4282454z"/><path d="m346.5 45c1.428572 0 2.5-1.0714289 2.5-2.5 0-1.4285716-1.071428-2.5-2.5-2.5-1.42857 0-2.5 1.0714284-2.5 2.5 0 1.4285711 1.25 2.5 2.5 2.5zm-1.071428-3.7499999 1.428571-.1785717c.535714 0 1.071429.3571429 1.071429 1.0714287 0 .5357143-.357142.8928572-.714287.8928572.178572.3571427.357145.7142856.357145.8928568 0 .1785717 0 .1785717-.178573.1785717h-.357142s-.178572 0-.178572-.1785717l-.357143-1.0714285h-.535715v1.0714285s0 .1785717-.178572.1785717h-.17857c-.178571 0-.178571 0-.178571-.1785717z"/><g fill="#3eb049" fill-rule="nonzero"><path d="m346.133332 43.8823529h.266667c.133334 0 .133334 0 .133334-.1176472v-.5882351h.400001l.266666.7058823s0 .1176471.133333.1176471h.266668c.133334 0 .133334-.1176471.133334-.1176471-.133334-.2352941-.266668-.3529414-.266668-.5882354.133334-.1176469.533333-.2352941.533333-.5882352 0-.4705881-.399999-.7058823-.8-.7058823h-1.066668c-.133332 0-.133332 0-.133332.1176469l.133332 1.764706c-.133332 0-.133332 0 0 0zm.266667-1.6470587h.533335c.133332 0 .266666.1176469.266666.2352939s-.133334.2352942-.266666.2352942h-.533335z"/><path d="m347 45c1.588235 0 3-1.4117646 3-3s-1.411765-3-3-3-3 1.4117646-3 3 1.411765 3 3 3zm0-5.4705884c1.411765 0 2.470588 1.0588239 2.470588 2.4705885 0 1.4117647-1.058823 2.4705881-2.470588 2.4705881-1.411763 0-2.470585-1.0588234-2.470585-2.4705881 0-1.4117646 1.235294-2.4705885 2.470585-2.4705885z"/><path d="m77.1904763 45.3599999c1.6791977 0 3.0225564.3400001 3.8621553 1.0200001.8395991.6800003 1.3433582 1.7000002 1.3433582 2.8899999 0 .6800003-.1679196 1.3600001-.3358395 1.8699999-.1679196.5100003-.671679.8500001-1.0075187 1.1900002-.5037594.34-1.007519.51-1.679198.6800001-.6716792.17-1.5112781.17-2.3508772.17h-1.3433584v4.5899998h-1.679198v-12.0699999c.5037594-.1699998 1.0075187-.1699998 1.679198-.1699998.5037593-.1700003 1.0075189-.1700003 1.5112783-.1700003zm0 1.5300002h-1.679198v4.76h1.3433583c.5037593 0 1.1754385 0 1.5112783-.1700002.5037591 0 .8395988-.1699998 1.1754386-.3400001.3358395-.1699997.5037591-.5099998.6716792-.6799998.1679196-.34.3358395-.6800001.3358395-1.1900001 0-.5099998-.1679199-.8499999-.3358395-1.1899997-.1679201-.34-.5037596-.5100003-.6716792-.6800001-.3358398-.17-.6716795-.3399998-1.007519-.3399998-.3358395-.1700002-.8395991-.1700002-1.3433582-.1700002zm15.4486213 6.29c0 .6800001-.1679196 1.3599999-.3358395 2.04-.1679198.51-.5037596 1.0199998-.8395991 1.5299999-.3358395.34-.8395991.6800001-1.3433582 1.0199999-.5037594.17-1.1754386.34-1.6791979.34-.5037596 0-1.1754386-.17-1.6791982-.34-.5037594-.17-1.0075188-.5100001-1.3433583-1.0199999-.3358397-.34-.6716794-.8500001-.8395991-1.5299999-.1679198-.5100003-.3358395-1.1900002-.3358395-2.04 0-.6800003.1679197-1.3600002.3358395-2.0400003.1679197-.5099998.5037594-1.0199998.8395991-1.5299996.3358395-.3400003.8395989-.6800004 1.3433583-1.0200002.5037596-.17 1.1754386-.34 1.6791982-.34.5037593 0 1.1754385.17 1.6791979.34.5037591.1700001 1.0075187.5100001 1.3433582 1.0200002.3358395.34.6716793.8499998.8395991 1.5299996.1679199.6800001.3358395 1.36.3358395 2.0400003zm-1.6791979 0c0-1.0200001-.1679197-1.87-.6716793-2.3800001-.5037593-.68-1.0075187-.8499998-1.8471175-.8499998-.8395991 0-1.3433587.34-1.8471179.8499998-.5037593.6799999-.6716794 1.36-.6716794 2.3800001 0 1.0199999.1679201 1.8699997.6716794 2.3799998.5037592.68 1.0075188.8500001 1.8471179.8500001.8395988 0 1.3433582-.3399998 1.8471175-.8500001.3358395-.5100001.6716793-1.3599999.6716793-2.3799998zm11.5864663 4.5899998c-.33584-.8500001-.671679-1.87-1.007519-2.8899999-.33584-1.0199998-.671679-2.21-1.007519-3.4000001-.335839 1.1900001-.6716789 2.3800003-1.0075184 3.4000001-.3358398 1.0199999-.6716795 2.0399998-1.007519 2.8899999h-1.3433582c-.5037594-1.1899999-1.007519-2.5499998-1.5112784-4.08-.5037593-1.5299999-1.0075187-3.2299999-1.5112783-5.0999999h1.6791982c.1679199.5100001.3358395 1.1899999.3358395 1.87.1679199.6799998.3358395 1.3599999.5037596 1.87.1679196.6800001.3358395 1.1900001.5037594 1.87.1679196.68.3358395 1.1899998.5037591 1.5300001.1679201-.51.3358397-1.1900001.5037596-1.7000002.1679199-.68.3358395-1.1899999.5037594-1.8699999.1679196-.6800001.3358397-1.1899999.5037593-1.8699998.1679199-.68.3358398-1.1900001.3358398-1.7000002h1.3433584c.16792.5100001.16792 1.0200002.335839 1.7000002.16792.6799999.33584 1.1899997.50376 1.8699998.16792.68.335839 1.1899999.503759 1.8699999.16792.6799999.33584 1.1900002.50376 1.7000002l.503759-1.5300001c.16792-.5100001.335839-1.1899999.50376-1.87.167919-.6799999.335839-1.3599999.503759-1.87.16792-.6800001.335839-1.1900001.335839-1.87h1.679198c-.503759 1.87-1.007518 3.3999999-1.511278 5.0999999-.503759 1.5300002-1.007518 2.8900001-1.511278 4.08zm5.709273-4.5899998c0-.8500001.16792-1.53.33584-2.21.167919-.6799999.503759-1.1900002 1.007519-1.53.335839-.34.839598-.68 1.343358-.8500001.503759-.17 1.007519-.34 1.511278-.34 1.175439 0 2.182957.34 2.854636 1.1900001.67168.8500001 1.007519 1.87 1.007519 3.57v.6799998h-6.213032c0 1.0199999.335839 1.6999999.839599 2.21.503759.5100001 1.175438.6800001 2.182957.6800001.50376 0 1.007519 0 1.511278-.17.33584-.1700001.671679-.1700001.8396-.3399998l.167919 1.3599999c-.167919.1699998-.503759.1699998-1.007519.3399998-.503759.17-1.007518.17-1.679198.17-.839599 0-1.511278-.17-2.015037-.34-.50376-.1699998-1.007519-.5099999-1.343358-1.0199999-.33584-.3400001-.67168-.8499999-.8396-1.5300002-.335839-.5099998-.503759-1.1899996-.503759-1.8699997zm6.213033-.8500001c0-.6799999-.16792-1.3599999-.50376-1.87-.335839-.5099998-.839599-.6800001-1.511278-.6800001-.33584 0-.671679 0-1.007519.1700003-.335839.1699998-.503759.34-.671679.5099998-.16792.17-.33584.5100001-.503759.8500001-.16792.34-.16792.6799998-.16792 1.0199999zm7.55639-3.91h1.007519c.16792 0 .33584 0 .50376.17h.335839l-.335839 1.3600002c-.16792 0-.33584-.1700003-.671679-.1700003-.33584 0-.67168-.1699997-1.175439-.1699997-.33584 0-.671679 0-.839599.1699997-.33584 0-.503759.1700003-.503759.1700003v7.6499997h-1.679198v-8.8399998c.335839-.1700001.839599-.3400001 1.511278-.3400001zm3.022557 4.7600001c0-.8500001.16792-1.53.33584-2.21.167919-.6799999.503759-1.1900002 1.007518-1.53.33584-.34.839599-.68 1.343359-.8500001.503759-.17 1.007519-.34 1.511278-.34 1.175438 0 2.182957.34 2.854636 1.1900001.67168.8500001 1.007519 1.87 1.007519 3.57v.6799998h-6.213032c0 1.0199999.335839 1.6999999.839599 2.21.503759.5100001 1.175438.6800001 2.182957.6800001.503759 0 1.007519 0 1.511278-.17.33584-.1700001.671679-.1700001.839599-.3399998l.16792 1.3599999c-.16792.1699998-.503759.1699998-1.007519.3399998-.503759.17-1.007519.17-1.679198.17-.839599 0-1.511278-.17-2.015037-.34-.50376-.1699998-1.007519-.5099999-1.343359-1.0199999-.335839-.3400001-.671679-.8499999-.839599-1.5300002-.335839-.5099998-.503759-1.1899996-.503759-1.8699997zm6.213033-.8500001c0-.6799999-.16792-1.3599999-.50376-1.87-.33584-.5099998-.839599-.6800001-1.511278-.6800001-.33584 0-.671679 0-1.007519.1700003-.33584.1699998-.503759.34-.671679.5099998-.16792.17-.33584.5100001-.50376.8500001-.167919.34-.167919.6799998-.167919 1.0199999zm10.075188-7.99 1.679198-.34v13.4300001c-.33584.1699998-.8396.1699998-1.511279.3399998-.503759.17-1.175438.17-2.015037.17-.67168 0-1.343359-.17-1.847118-.34-.503759-.1699998-1.007519-.5099999-1.511278-1.0199999-.33584-.3400001-.671679-.8499999-.8396-1.5300002-.167919-.5099998-.335839-1.1899996-.335839-2.0399997 0-.6800001.16792-1.36.335839-1.8700003.167921-.5099998.50376-1.0199998.8396-1.5299996.335839-.3400003.839599-.6800004 1.343358-1.0200002.503759-.17 1.007519-.34 1.679198-.34.503759 0 1.007519 0 1.343358.17.33584.17.671679.3400001.8396.3400001zm0 6.12c-.167921-.1699998-.50376-.34-.8396-.5099998-.335839-.1700003-.839599-.1700003-1.175438-.1700003-.50376 0-.839599 0-1.175439.3400001-.335839.1700002-.671679.34-.839599.68l-.503759 1.0199999c-.16792.3400001-.16792.8500001-.16792 1.3600002 0 1.0199999.33584 1.8699997.839599 2.55.503759.5099998 1.175439.8499999 2.015038.8499999h1.175438c.33584 0 .503759-.17.67168-.17zm10.411027-1.5300002c.16792-.1699997.503759-.3399998.839599-.3399998.335839-.17.839599-.17 1.343358-.17.67168 0 1.175439.17 1.679198.3400001.50376.1699997 1.007519.5099998 1.343359 1.0199998.335839.3400001.671679.8500001.839599 1.5300002.167919.5099998.335839 1.1899997.335839 1.87 0 .6800001-.16792 1.3599999-.335839 2.04-.16792.51-.50376 1.0199998-.839599 1.5299999-.33584.34-.839599.6800001-1.511278 1.0199999-.50376.17-1.175439.34-1.847118.34-.67168 0-1.343359 0-2.015038-.17-.503759-.17-1.007519-.17-1.511278-.34v-13.0899996l1.679198-.34zm0 7.3100001c.16792 0 .33584.1700001.671679.1700001h1.175439c.839599 0 1.511278-.3399998 2.015037-.8500001.50376-.5100001.839599-1.3599999.839599-2.5499998 0-.5100003 0-.8500001-.167919-1.36-.16792-.34-.16792-.8500001-.50376-1.0200001-.16792-.3399998-.503759-.51-.839599-.6799998-.335839-.1700003-.671679-.34-1.175439-.34-.503759 0-.839599 0-1.175438.1699997-.33584.1700003-.671679.3400001-.839599.5100003zm7.724311 3.2299999c.167919 0 .33584.1700003.503759.1700003h.671679c.67168 0 1.175439-.1700003 1.511279-.5100003.335839-.3399998.671679-.6799998 1.007518-1.3599999-.671679-1.3599999-1.343358-2.8899999-2.015037-4.42-.671679-1.53-1.175439-3.2299999-1.511279-4.7599999h1.679199c.167919.5100001.335839 1.0200002.503759 1.7000002.16792.6799999.33584 1.1899997.671679 1.8699998.16792.6800003.50376 1.3600001.671679 1.8699999.33584.6799999.50376 1.1900002.839599 1.87.50376-1.1900001.839599-2.3799998 1.175439-3.7399999.335839-1.1899999.671679-2.3800001 1.007519-3.74h1.679198c-.33584 1.7-.839599 3.3999999-1.343359 4.9299999-.503759 1.5300001-1.007519 3.0600001-1.679198 4.42-.16792.5099998-.503759 1.0200001-.671679 1.3599999-.16792.34-.503759.6800001-.839599 1.0200001-.335839.17-.671679.5100001-1.007519.5100001-.335839.1699997-.839599.1699997-1.343358.1699997h-.671679c-.16792 0-.33584 0-.33584-.1699997 0-.1700003-.167919 0-.167919-.1700003zm19.646616-1.5299999c-.839599 0-1.679198-.17-2.518797-.34-.671679-.3400001-1.343358-.6800001-1.847117-1.1899999-.50376-.5100001-.8396-1.1899999-1.175439-2.04-.33584-.8499999-.33584-1.7-.33584-2.7199999 0-1.0200001.16792-1.8700002.50376-2.7200003.335839-.8499996.671679-1.5299997 1.343358-2.0399997.503759-.5100001 1.175439-1.0199999 1.847118-1.1900001.671679-.3400001 1.511278-.3400001 2.350877-.3400001.503759 0 1.007519 0 1.343359.1700003.335839 0 .839598.1699998 1.007518.34.33584.1699998.50376.1699998.671679.3399998.16792.17.33584.17.33584.17l-.671679 1.87c-.33584-.1699998-.671679-.34-1.175439-.5099998-.503759-.1700003-1.007519-.1700003-1.679198-.1700003-.503759 0-1.007519.1700003-1.511278.3400001-.503759.1700002-.839599.51-1.175439.8500001-.335839.34-.671679.8500001-.839599 1.3599999-.167919.51-.335839 1.1900001-.335839 1.8699999 0 .6800001 0 1.1900002.16792 1.7.167919.5100001.335839 1.0199999.671679 1.3599999.335839.34.671679.6800003 1.175438.8500001.50376.1700003 1.007519.34 1.679199.34.839598 0 1.343358 0 1.847117-.1699997.50376-.1700003.839599-.3400001 1.175439-.5100003l.839599 1.5300001c-.16792.1699998-.33584.1699998-.50376.3400001-.167919.1699998-.503759.1699998-.839599.3399998-.335839.17-.671679.17-1.175438.17zm14.105263-4.7599998c0 .6800001-.167919 1.3599999-.335839 2.04-.16792.6799998-.50376 1.1899999-.839599 1.5299999-.33584.34-.839599.6800001-1.343359 1.0199999-.503759.17-1.175438.34-1.847117.34-.67168 0-1.175439-.17-1.847118-.34-.50376-.17-1.007519-.5100001-1.343359-1.0199999-.335839-.34-.671679-1.0199999-.839598-1.5299999-.167921-.6800001-.33584-1.1900002-.33584-2.04 0-.6800003.167919-1.3600002.33584-2.0400003.167919-.5099998.503759-1.0199998.839598-1.5299996.33584-.3400003.839599-.6800004 1.343359-1.0200002.503759-.17 1.175438-.34 1.679198-.34.671679 0 1.175438.17 1.847117.34.50376.1700001 1.007519.5100001 1.343359 1.0200002.33584.34.671679.8499998.839599 1.5299996.16792.6800001.503759 1.1900002.503759 2.0400003zm-2.182957 0c0-.8500001-.16792-1.7000002-.50376-2.21-.335839-.5100001-1.007518-.8500001-1.679197-.8500001-.67168 0-1.175439.34-1.679198.8500001-.33584.5099998-.50376 1.1899999-.50376 2.21 0 .8499998.16792 1.6999999.50376 2.2099997.335839.5100001 1.007518.8500001 1.679198.8500001.671679 0 1.175438-.34 1.679197-.8500001.16792-.68.50376-1.3599999.50376-2.2099997zm4.533834-4.42c.33584-.1700001 1.007519-.1700001 1.511279-.3400001.671679-.17 1.343358-.17 2.182957-.17.671679 0 1.343359.17 1.847118.34.503759.1700001.839599.5100001 1.175438.8500001.33584.3399998.50376.8500001.67168 1.3599999.167919.5100001.167919 1.0199999.167919 1.6999998v5.2700001h-2.182957v-4.9299999c0-.51 0-.8500001-.16792-1.1899999 0-.34-.167919-.68-.335839-.8500001-.16792-.17-.33584-.34-.671679-.5099998-.16792-.1700002-.50376-.1700002-.839599-.1700002h-.839599c-.33584 0-.50376 0-.67168.1700002v7.4799997h-2.182957v-9.0099998zm10.243108-2.7200001 2.182958-.34v2.72h3.190476v1.7h-3.190476v3.7400002c0 .6799998.167919 1.1899996.335839 1.5299996.16792.3400003.671679.5100001 1.175439.5100001.335839 0 .671679 0 1.007518-.1699998.33584 0 .50376-.1700002.67168-.1700002l.335839 1.6999999c-.167919.1700003-.503759.1700003-1.007519.3400001-.503759.17-.839598.17-1.343358.17-.671679 0-1.175438-.17-1.679198-.3399998-.503759-.1700003-.839599-.5100003-1.007518-.8500001-.33584-.3400001-.50376-.6800001-.50376-1.1900002-.16792-.5099998-.16792-1.0199998-.16792-1.6999999zm9.907268-.1699998c0 .3399998-.167919.6799998-.335839 1.0199999-.33584.1700002-.50376.34-.839599.34-.33584 0-.671679-.1699998-1.007519-.34-.33584-.1699998-.33584-.5100001-.33584-1.0199999 0-.34.16792-.6800001.33584-1.0200001.33584-.17.503759-.3399998 1.007519-.3399998.335839 0 .671679.1699998.839599.3399998s.335839.5099998.335839 1.0200001zm-.335839 11.8999997h-2.182958v-9.1799999h2.182958zm2.854636-9.0099998c.33584-.1700001 1.007519-.1700001 1.511279-.3400001.503759-.17 1.343358-.17 2.182957-.17.671679 0 1.343358.17 1.847118.34.503759.1700001.839599.5100001 1.175438.8500001.33584.3399998.50376.8500001.67168 1.3599999.167919.5100001.167919 1.0199999.167919 1.6999998v5.2700001h-2.182957v-4.9299999c0-.51 0-.8500001-.16792-1.1899999 0-.34-.16792-.68-.33584-.8500001-.167919-.17-.335839-.34-.671678-.5099998-.167921-.1700002-.50376-.1700002-.8396-.1700002h-.839599c-.335839 0-.503759 0-.671679.1700002v7.4799997h-2.182957v-9.0099998zm17.96742 8.67c-.33584.1699998-1.007521.1699998-1.511278.3399998-.671681.17-1.34336.17-2.182959.17-.671679 0-1.343358-.17-1.847117-.34-.50376-.1699998-.839599-.5099999-1.175439-.8499999-.335839-.34-.50376-.8500001-.671679-1.3600002-.16792-.5099998-.16792-1.0199998-.16792-1.6999999v-5.0999999h2.182957v4.7599999c0 1.0200001.16792 1.6999999.50376 2.0399999.335839.3400003.839599.6800004 1.511278.6800004h.839599c.335839 0 .50376 0 .671678-.1700003v-7.4799999h2.182959v9.0100001zm10.243108 0c-.335842.1699998-1.00752.1699998-1.511281.3399998-.671678.17-1.343357.17-2.182956.17-.671678 0-1.343359-.17-1.847117-.34-.50376-.1699998-.839599-.5099999-1.175439-.8499999-.335839-.34-.50376-.8500001-.671681-1.3600002-.167918-.5099998-.167918-1.0199998-.167918-1.6999999v-5.0999999h2.182956v4.7599999c0 1.0200001.167921 1.6999999.50376 2.0399999.33584.3400003.8396.6800004 1.511278.6800004h.8396c.335839 0 .50376 0 .671678-.1700003v-7.4799999h2.182959v9.0100001zm8.060149-4.5900001c0-1.0200001-.167921-1.7000002-.335839-2.04-.167921-.5099998-.671679-.68-1.34336-.68h-.839599c-.335839 0-.503758 0-.671678.1700002v7.4799997h-2.182957v-9.0099998c.335839-.1700001 1.007518-.1700001 1.679196-.3400001.671681-.17 1.34336-.17 2.015038-.17.671681 0 1.175439 0 1.511278.17.335842.17.671681.3400001 1.00752.6800001.167919-.1700003.33584-.1700003.50376-.34.167919-.1700001.33584-.1700001.671679-.3400001.167918-.17.50376-.17.839599-.17.33584 0 .503758-.1699998.8396-.1699998.671678 0 1.343357.1699998 1.679196.3399998.50376.17.839599.5099998 1.00752.8499999.335839.3400003.503758.8500001.503758 1.3600001.167921.5099998.167921 1.0200001.167921 1.7v5.2699999h-2.182957v-4.9299999c0-1.0199999-.167921-1.6999999-.335841-2.04-.167919-.51-.671679-.6799998-1.343357-.6799998-.33584 0-.671679 0-1.007521.1699998-.335839.1700002-.503757.1700002-.671678.34.167921.34.167921.6799998.167921 1.0199999v6.12h-2.182959v-4.7599999zm21.661655 4.9299999c-.167921-.5100001-.335839-1.0199999-.50376-1.3599999l-.50376-1.53h-5.037594l-.50376 1.53c-.167919.5099998-.335839 1.0200001-.503758 1.3599999h-2.350877c.503758-1.3599999.839599-2.5499998 1.343357-3.5699999.50376-1.0199999.839599-2.2100001 1.175439-3.0600002.335839-1.0199998.839599-1.8699999 1.175438-2.8899998.33584-.8499999.8396-1.7 1.175439-2.7199998h2.015038c.335839.8499998.839599 1.6999999 1.175438 2.7199998.33584.8500001.8396 1.87 1.175439 2.8899998.335839 1.0200002.839599 2.0400003 1.175439 3.0600002.335839 1.0200001.839599 2.38 1.343359 3.5699999zm-3.694237-9.8599999c-.335839.68-.50376 1.3599999-.839599 2.21s-.671679 1.8699999-1.007518 2.8900001h4.030076c-.335842-1.0200002-.671681-2.04-1.00752-2.8900001-.50376-.8500001-.8396-1.7-1.175439-2.21zm7.556392.8500001c.335839-.1700001 1.007518-.1700001 1.511278-.3400001.671678-.17 1.343359-.17 2.182956-.17.671681 0 1.343359.17 1.84712.34.503757.1700001.839599.5100001 1.175438.8500001.335839.3399998.503758.8500001.671679 1.3599999.16792.5100001.16792 1.0199999.16792 1.6999998v5.2700001h-2.182958v-4.9299999c0-.51 0-.8500001-.167919-1.1899999 0-.34-.167921-.68-.335841-.8500001-.167919-.17-.33584-.34-.671679-.5099998-.167918-.1700002-.50376-.1700002-.839599-.1700002h-.8396c-.335839 0-.503757 0-.671678.1700002v7.4799997h-2.182956v-9.0099998zm13.433584-.5100001c.671677 0 1.343357.17 1.679197.34.50376.1700001.839599.3399998 1.175438.6799999.33584.3400003.50376.6800003.671681 1.1900001.167919.5100001.167919 1.0199999.167919 1.5299999v5.61c-.33584 0-.8396.17-1.511278.34-.671679.17-1.34336.17-2.182957.17-.503762 0-1.007517 0-1.51128-.17-.503758-.17-.839597-.34-1.175438-.5099998-.33584-.1700003-.503758-.5100003-.671679-.8500001-.167918-.3400001-.335839-.8499999-.335839-1.3599999 0-.5100003.167921-1.0200001.335839-1.3599999.167921-.3400001.50376-.6800001.839599-.8500001.33584-.1700001.671679-.3400001 1.175439-.5100003.50376-.1699998 1.007518-.1699998 1.511278-.1699998h.671678c.335842 0 .50376 0 .8396.1699998v-.5099999c0-.17 0-.51-.167919-.6799998 0-.1700003-.167921-.34-.335839-.5100001-.167921-.17-.335842-.34-.503762-.34-.167919-.1699998-.503758-.1699998-.839597-.1699998-.50376 0-1.007518 0-1.34336.1699998-.335839 0-.671678.17-1.007518.17l-.335839-1.7000002c.335839-.1699997.671679-.1699997 1.175439-.3399998.50376-.17 1.175436-.34 1.679198-.34zm.167919 7.9899999c.671678 0 1.175441 0 1.511278-.1699997v-2.3800003c-.167919 0-.335837 0-.503758-.1699998h-1.343359c-.167921 0-.50376.1699998-.671679.1699998-.167918.1700003-.335839.1700003-.50376.34-.167921.1700001-.167921.3400001-.167921.6799999 0 .5100003.167921.8500001.503763 1.0200003.167918.3400001.671676.5099998 1.175436.5099998zm9.403509 1.7c-.671679 0-1.175439 0-1.511278-.17l-1.007518-.5100001c-.167921-.1699998-.335842-.5099998-.50376-.8499998-.167921-.3399998-.167921-.8500001-.167921-1.1899999v-10.7099998l2.182959-.34v11.2199995c0 .1700001.167918.3400003.167918.5100001.167921.1700003.167921.1700003.50376.34.167921 0 .33584.1700001.671679.1700001zm9.739348-9.5199999c-1.007518 3.5699999-2.015038 6.6299998-3.190477 9.5199999-.167918.5100001-.503758 1.0200001-.671678 1.3600001-.167919.3400001-.50376.6799999-.8396 1.0199999-.335839.1699998-.671678.5099998-1.00752.5099998-.335837.1700003-.839597.1700003-1.343357.1700003-.335839 0-.671678 0-1.007518-.1700003-.335839 0-.50376-.1699997-.671678-.1699997l.335839-1.7c.503758.1699998.839599.1699998 1.175439.1699998.503757 0 1.007517-.1699998 1.343357-.3399998.335839-.34.50376-.6800001.839599-1.1900001-.671681-1.36-1.343357-2.7199999-1.847117-4.25-.671679-1.53-1.175439-3.2299999-1.679199-4.9299999h2.182959l.503758 1.5300002c.167918.5099998.335839 1.1899996.50376 1.6999999.167921.5099999.335839 1.1899999.671678 1.6999998.167919.5100003.50376 1.1900001.671681 1.6999999.335839-1.0199999.671679-2.2099998 1.007518-3.3999997.335839-1.1900001.671678-2.3800002.839599-3.4000001h2.182957zm1.679198-2.38 2.182957-.34v2.72h3.190476v1.7h-3.190476v3.7400002c0 .6799998.16792 1.1899996.335841 1.5299996.167919.3400003.671679.5100001 1.175439.5100001.335839 0 .671676 0 1.007518-.1699998.335839 0 .50376-.1700002.671678-.1700002l.335839 1.6999999c-.16792.1700003-.503757.1700003-1.007517.3400001-.335842.17-.8396.17-1.34336.17-.671678 0-1.175438-.17-1.679196-.3399998-.50376-.1700003-.839602-.5100003-1.00752-.8500001-.335839-.3400001-.503758-.6800001-.503758-1.1900002-.167921-.5099998-.167921-1.0199998-.167921-1.6999999zm9.907269-.1699998c0 .3399998-.167921.6799998-.335839 1.0199999-.335842.1700002-.50376.34-.839599.34-.33584 0-.671681-.1699998-1.007521-.34-.335839-.1699998-.335839-.5100001-.335839-1.0199999 0-.34.167921-.6800001.335839-1.0200001.33584-.17.50376-.3399998 1.007521-.3399998.335839 0 .671678.1699998.839599.3399998.167918.17.335839.5099998.335839 1.0200001zm-.335839 11.8999997h-2.182959v-9.1799999h2.182959zm2.350877-4.5899998c0-.6800003.167918-1.3600002.335839-1.87.167919-.5100001.503758-1.1900001.8396-1.5300002.335839-.51.839597-.8500001 1.343357-1.0199998.50376-.1700001 1.175438-.3400001 1.847117-.3400001.839599 0 1.679198.17 2.518798.5099998l-.50376 1.7000002c-.167919-.17-.503758-.17-.8396-.3399998-.335839 0-.671678-.1700002-1.007517-.1700002-.8396 0-1.511278.34-1.847118.8500001-.50376.5099998-.67168 1.1899999-.67168 2.21 0 .8499998.16792 1.6999999.67168 2.2099997.33584.5100001 1.175439.8500001 2.015038.8500001.33584 0 .671677 0 1.007518-.1699997.335839 0 .671679-.1700003.839597-.3400001l.335842 1.7c-.167921.1699998-.50376.1699998-1.007518.3399998-.503762.17-1.00752.17-1.51128.17-.839597 0-1.511278-.17-2.015036-.34-.503762-.1699998-1.00752-.5099999-1.51128-1.0199999-.335839-.5099998-.671679-1.0200001-.839597-1.5300002.167918-.5099998 0-1.1899996 0-1.8699997zm11.250626 3.0599998c.50376 0 1.007518 0 1.175438-.1699997.33584-.1700003.33584-.3400001.33584-.6800004 0-.34-.167921-.5099998-.33584-.68l-1.343359-.6799999-1.007518-.5099998c-.335839-.1700002-.671678-.34-.839599-.51-.167921-.1700001-.335839-.5100003-.50376-.8500001-.167919-.3400001-.167919-.6800001-.167919-1.0200002 0-.8499996.33584-1.5299996 1.007518-2.0399997.671679-.5100001 1.511278-.6800001 2.518798-.6800001.503758 0 1.00752 0 1.511278.17.50376.1700001.839599.1700001 1.175439.3399998l-.33584 1.7000002c-.16792-.17-.50376-.17-.839599-.3399998-.335839-.1700002-.839599-.1700002-1.175439-.1700002-.503757 0-.839599 0-1.00752.1700002-.335839.1699998-.335839.3399998-.335839.6799999v.34c0 .1699998.167921.1699998.335839.34.167921.1699998.335842.1699998.503763.3399998.167918.1700001.503757.1700001.839597.3400001.50376.1699998 1.007518.34 1.343359.51.335839.1700001.671679.3400001.839597.6800001.167921.1699998.335842.5099998.50376.8499999.167921.3399998.167921.6799998.167921 1.0199998 0 .8500001-.335839 1.5300002-1.00752 2.0400003-.671679.5099998-1.511276.6799998-2.686714.6799998-.839602 0-1.51128 0-2.015041-.17-.503757-.17-.839599-.17-1.007517-.34l.335839-1.7c.335839.1700003.671678.1700003 1.175439.34.50376.1700001.335839 0 .839599 0z"/><g><path d="m7.07840237 37.9402392c-1.00803044 2.0145262-1.8480558 4.029052-2.35207101 6.0435782 2.18406591.6715088 4.36813188 1.0072629 6.72020284 1.1751401 0-1.6787716.1680051-3.5254204.3360102-5.2041921-1.6800507-.5036315-3.36010144-1.1751403-4.70414203-2.0145262z"/><path d="m11.4465342 45.4947116h-.168005c-2.18406596-.1678769-4.53613697-.6715085-6.72020293-1.1751398h-.16800505v-.1678774c.67202028-2.1824032 1.51204564-4.196929 2.52007605-6.2114552l.1680051-.167877c1.51204564.839386 3.02409133 1.5108945 4.53613693 2.1824032h.1680051v.167877c-.1680051 1.6787718-.3360102 3.3575435-.3360102 5.0363151zm-6.55219777-1.5108942c2.01606084.5036313 4.03212174 1.0072629 6.21618767 1.1751401 0-1.6787716.1680051-3.1896663.3360101-4.7005608-1.51204562-.6715087-2.85608619-1.3430172-4.36813183-2.014526-.84002537 1.5108947-1.68005071 3.5254205-2.18406594 5.5399467z"/><path d="m15.9826712 15.2768221c-1.1760355 0-2.5200761.1678771-3.8641167.3357543.1680051 1.3430173.3360102 2.5181575.6720203 3.8611748 1.0080304-1.5108945 2.0160609-2.8539118 3.1920964-4.1969291zm-10.58431954 30.8893983c1.68005071 2.5181575 3.86411662 4.8684379 6.21618764 6.7150867-.3360101-2.014526-.3360101-3.861175-.5040152-5.8757008-1.84805582-.1678769-3.6961116-.5036315-5.71217244-.8393859z"/><path d="m11.9505495 53.3849385-.3360102-.3357542c-2.352071-2.014526-4.53613693-4.1969292-6.21618764-6.8829639l-.33601016-.5036313.50401523.1678769c1.84805577.5036316 3.86411664.8393859 5.71217247 1.0072634h.168005v.1678769c0 1.8466488.1680051 3.8611748.5040153 5.8757008zm-6.04818264-7.0508409c1.51204564 2.1824032 3.36010144 4.1969292 5.37616234 6.043578-.1680051-1.8466488-.3360102-3.5254205-.3360102-5.2041919-1.6800507-.1678774-3.36010143-.3357543-5.04015214-.8393861z"/><path d="m20.6868132 1.67877165c-2.352071.83938584-4.5361369 1.84664882-6.5521978 3.18966614 1.5120456.16787719 3.0240913.50363149 4.5361369 1.007263.5040152-1.51089451 1.1760355-2.85391181 2.0160609-4.19692914zm9.5762892-1.67877165c-1.1760355 0-2.352071 0-3.3601016.16787717 1.5120458 1.17514015 3.0240913 2.35028032 4.5361371 3.69329765l1.1760355 1.00726297-1.1760355 1.17514014c-1.0080306.83938587-1.8480558 1.84664887-2.8560864 3.02178903l-.5040152.50363146c.6720203 0 1.3440406-.16787716 2.1840661-.16787716 11.2563396 0 20.3286136 9.06536694 20.3286136 20.31313724 0 11.2477698-9.072274 20.3131369-20.3286136 20.3131369-3.8641168 0-7.5602285-1.1751403-10.5843196-3.0217891-1.5120457.1678774-3.0240913.3357544-4.536137.3357544h-2.1840659c0 2.3502804.3360101 4.7005605.6720203 7.2187181 4.704142 3.189666 10.4163144 5.0363151 16.6325022 5.0363151 16.464497 0 29.7368976-13.2622963 29.7368976-29.7142585 0-16.6198393-13.2724006-29.8821354-29.7368976-29.8821354z"/><path d="m26.3989856 7.05084093c.6720203-.67150865 1.1760355-1.3430173 1.8480558-2.01452595-1.3440406-1.17514016-2.8560862-2.35028033-4.3681319-3.18966616-1.0080304 1.67877165-1.8480557 3.18966616-2.520076 5.03631498 1.3440404.50363148 2.6880811 1.007263 3.8641166 1.67877165.6720203-1.007263 1.0080304-1.34301735 1.1760355-1.51089452zm-16.80050716 8.89748977c-2.18406594.3357544-4.36813187 1.007263-6.38419272 1.6787717.84002534 2.1824031 1.84805578 4.1969291 3.19209635 6.211455 1.34404059-1.0072629 2.85608621-1.8466487 4.36813193-2.6860345-.5040153-1.6787717-.84002542-3.5254205-1.17603556-5.2041922z"/><path d="m6.238377 24.1743118-.16800507-.1678772c-1.1760355-2.0145259-2.35207098-4.0290519-3.19209637-6.2114551v-.1678771h.16800509c2.01606085-.8393859 4.20012681-1.3430173 6.38419272-1.6787717h.16800509v.1678772c.16800505 1.6787716.50401524 3.5254205 1.00803044 5.2041921v.1678772h-.1680051c-1.51204563.8393858-2.85608623 1.6787717-4.2001268 2.6860346zm-2.68808114-6.3793323c.84002536 2.014526 1.8480558 4.029052 2.85608621 5.7078237l4.03212173-2.5181575c-.3360101-1.5108945-.67202029-3.1896662-1.00803043-4.8684378-2.01606087.5036315-4.03212171 1.007263-5.88017751 1.6787716z"/><path d="m5.73436177 27.1961009c-1.68005071 1.3430173-3.02409128 2.6860345-4.53613692 4.1969292 1.51204564 1.3430172 3.19209637 2.5181573 4.87214708 3.6932976.84002534-1.3430175 1.68005073-2.8539117 2.68808115-4.029052-1.00803042-1.3430172-2.01606085-2.5181575-3.02409131-3.8611748z"/><path d="m6.238377 35.4220821-.16800507-.1678774c-1.68005071-1.1751401-3.36010144-2.3502802-4.87214708-3.6932977l-.16800507-.1678769.16800507-.1678774c1.3440406-1.5108942 2.85608621-3.0217889 4.53613692-4.3648062h.16800509l.16800507.1678772c1.00803044 1.3430173 2.01606085 2.6860348 3.02409131 3.8611746l.16800506.1678774-.16800506.167877c-1.00803046 1.3430175-1.84805578 2.6860347-2.68808117 4.029052zm-4.70414201-4.029052c1.51204566 1.1751401 3.0240913 2.3502801 4.53613697 3.357543.67202027-1.3430172 1.51204561-2.5181571 2.52007605-3.8611748-1.00803044-1.1751398-2.01606085-2.3502801-2.85608621-3.5254204-1.51204564 1.3430174-2.85608624 2.6860347-4.20012681 4.0290522z"/><path d="m13.29459 40.7941511c-.168005 1.5108945-.3360101 3.0217891-.3360101 4.5326836h4.5361369c-1.6800507-1.1751401-3.0240913-2.8539117-4.2001268-4.5326836z"/><path d="m15.1426458 45.6625891h-2.352071v-.1678775c0-1.5108942.1680051-3.189666.3360102-4.7005605v-.3357544l.3360101.1678772c1.1760355 1.6787717 2.5200761 3.1896663 4.0321217 4.5326836l.3360102.3357541h-.5040152c-.6720203.1678775-1.3440406.1678775-2.184066.1678775zm-2.0160608-.5036316h3.6961115c-1.3440405-1.1751401-2.520076-2.3502804-3.5281065-3.8611748 0 1.3430172 0 2.6860347-.168005 3.8611748z"/><path d="m17.6627219 8.39385826c-1.8480558-.50363146-3.6961116-.83938581-5.7121725-1.17514016-.168005 2.014526-.168005 3.8611748 0 5.8757008 1.5120457-.1678772 3.0240914-.3357543 4.536137-.3357543.3360101-1.5108945.6720203-2.85391185 1.1760355-4.36480634zm2.6880811.83938584c-.3360101 1.1751402-.6720202 2.1824032-1.0080304 3.3575433 1.3440406-.8393858 2.6880812-1.5108945 4.2001268-2.014526-1.0080304-.5036315-2.1840659-.83938579-3.1920964-1.3430173z"/><g transform="translate(.526205 33.050507)"><path d="m.33601014.69280267c.33601015 2.85391181 1.17603551 5.70782362 2.352071 8.22598109.6720203-1.67877165 1.34404057-3.3575433 2.18406596-5.03631493-1.68005073-1.007263-3.19209638-2.01452601-4.53613696-3.18966616z"/><path d="m2.68808114 9.42241527-.16800507-.50363151c-1.1760355-2.68603463-2.01606085-5.37206928-2.352071-8.22598109v-.5036315l.33601015.33575433c1.34404057 1.17514016 2.85608622 2.18240316 4.36813188 3.18966614l.16800505.16787719h-.16800505c-.84002539 1.67877163-1.51204566 3.35754328-2.01606089 5.03631493zm-2.18406592-8.22598111c.33601014 2.51815748 1.00803043 4.86843778 2.01606085 7.21871811.6720203-1.67877163 1.17603553-3.02178898 2.01606087-4.53268344-1.34404057-.83938587-2.68808115-1.67877168-4.03212172-2.68603467z"/></g><path d="m9.43047337 8.56173545c-1.8480558 1.67877165-3.36010144 3.69329765-4.53613694 5.87570075 1.34404057-.3357543 3.0240913-.6715086 4.53613694-1.007263-.16800507-1.6787716-.16800507-3.1896661 0-4.86843775z"/><g transform="translate(7.246408 22.977878)"><path d="m.33601014 2.87520583c.84002536 1.17514016 1.51204565 2.18240316 2.52007607 3.18966611 0-1.84664881.33601016-3.69329763 1.00803044-5.37206927-1.34404058.50363149-2.352071 1.34301732-3.52810651 2.18240316z"/><path d="m3.0240913 6.40062629-.33601016-.33575435c-.84002535-1.00726295-1.68005071-2.01452595-2.52007607-3.18966611l-.16800507-.16787717.16800507-.16787718c1.1760355-.83938582 2.18406594-1.51089448 3.36010144-2.18240314l.5040152-.33575433-.16800506.50363149c-.50401521 1.67877167-.84002535 3.52542049-.84002535 5.3720693zm-2.35207101-3.52542046 2.01606085 2.51815746c.16800507-1.51089446.33601016-3.02178898.84002537-4.36480629-1.00803044.5036315-2.01606086 1.17514017-2.85608622 1.84664883z"/></g><g transform="translate(7.246408 31.896661)"><path d="m.67202029 4.19692912c1.1760355.67150867 2.52007608 1.34301733 3.86411665 1.84664881-.84002534-1.67877165-1.34404057-3.52542044-1.51204564-5.53994643-.84002536 1.34301732-1.68005073 2.51815748-2.35207101 3.69329762z"/><path d="m5.04015215 6.54720945-.50401521-.16787717c-1.34404057-.50363149-2.68808115-1.17514016-3.86411665-1.84664881l-.16800507-.16787719.16800507-.16787716c.67202028-1.17514014 1.51204565-2.51815747 2.35207101-3.52542046l.16800507-.50363149v.50363149c.33601014 1.84664883.84002534 3.69329762 1.51204564 5.37206927zm-4.03212172-2.35028033c1.00803043.50363151 2.18406594 1.17514016 3.19209638 1.51089451-.6720203-1.51089451-1.00803044-3.02178898-1.3440406-4.53268347-.67202027 1.00726299-1.34404056 2.01452596-1.84805578 3.02178896z"/></g><g transform="translate(0 19.620334)"><path d="m4.55832629 5.56124046c-1.00803043-1.51089447-1.8480558-3.02178898-2.52007607-4.70056063-.84002537 2.68603465-1.34404058 5.3720693-1.34404058 8.22598112 1.17603551-1.17514014 2.52007608-2.35028031 3.86411665-3.52542049z"/><path d="m.35819949 9.75816962v-.50363151c0-2.85391182.50401522-5.70782363 1.34404057-8.39385828l.33601016-.50363149.16800507.50363149c.67202027 1.67877165 1.51204564 3.18966616 2.52007607 4.70056063l.16800507.16787718-.16800507.16787716c-1.34404057 1.17514014-2.68808114 2.35028031-3.86411665 3.52542047zm1.68005073-8.22598112c-.6720203 2.35028033-1.17603551 4.70056063-1.17603551 7.21871812 1.17603551-1.17514016 2.18406594-2.18240316 3.52810651-3.18966616-1.00803045-1.34301733-1.68005073-2.68603463-2.352071-4.02905196z"/></g></g></g></g></svg>