<svg xmlns="http://www.w3.org/2000/svg" width="16" height="16" viewBox="0 0 16 16"><defs><clipPath id="9ilsb"><path fill="#fff" d="M.5 25a9.5 9.5 0 1 0 0-19 9.5 9.5 0 0 0 0 19z"/></clipPath><clipPath id="9ilsc"><path fill="#fff" d="M0 32c8.837 0 16-7.163 16-16S8.837 0 0 0s-16 7.163-16 16 7.163 16 16 16z"/></clipPath><clipPath id="9ilsa"><path d="M0 0h16v16H0z"/></clipPath></defs><g><g><g/><g clip-path="url(#9ilsa)"><path fill="none" stroke="currentColor" stroke-miterlimit="20" stroke-width="4" d="M.5 25a9.5 9.5 0 1 0 0-19 9.5 9.5 0 0 0 0 19z" clip-path="url(&quot;#9ilsb&quot;)"/></g><g clip-path="url(#9ilsa)"><path d="M2 16a2 2 0 1 0 0-4 2 2 0 0 0 0 4z"/></g><g clip-path="url(#9ilsa)"><path fill="none" stroke="currentColor" stroke-miterlimit="20" stroke-width="4" d="M0 32c8.837 0 16-7.163 16-16S8.837 0 0 0s-16 7.163-16 16 7.163 16 16 16z" clip-path="url(&quot;#9ilsc&quot;)"/></g></g></g></svg>
