<svg width="238" height="40" viewBox="0 0 238 40" xmlns="http://www.w3.org/2000/svg" xmlns:xlink="http://www.w3.org/1999/xlink"><title>extraHop</title><g id="customers" stroke="none" stroke-width="1" fill="none" fill-rule="evenodd"><g id="Logos" transform="translate(-324.000000, -45.000000)" fill="#29a3a0" fill-rule="nonzero"><g id="extraHop" transform="translate(324.000000, 45.000000)"><path d="M28.0183525 21.0916539C28.52967 26.8295639 30.3896798 30.9917785 33.4872262 31.2890795L45.9515155 31.2073217C45.3586836 36.6182007 43.372697 39.7249965 41.19404 39.9628374L26.9142032 40H26.9067928C24.5651071 39.7993218 23.372033 35.9046782 23.4905994 31.0809688 23.6536281 26.1457715 24.6466215 21.6119307 27.0624112 21.2180068L28.0183525 21.0916539zM234.190443 7.4083735C235.008799 7.62275972 235.768592 8.01903212 236.413563 8.56784756 236.982041 9.05351577 237.407401 9.68575076 237.643689 10.396249 237.889589 11.1671258 238.009703 11.9727859 237.999388 12.7820898V24.2802075C238.009703 25.0895114 237.889589 25.8951715 237.643689 26.6660484 237.421402 27.3833759 236.993595 28.0192489 236.413563 28.4944498 235.768592 29.0432652 235.008799 29.4395376 234.190443 29.6539238 233.049768 29.9409632 231.875897 30.0734493 230.700146 30.0478477L230.752019 29.9735224H228.158379v0C227.587779 29.9735224 226.965305 29.8917646 226.216855 29.854602 225.468405 29.8174394 224.586568 29.6910864 223.556522 29.572166V38.8405259H218.161753V7.41580603L222.726558 7.13337004C223.956684 7.13337004 225.068243 7.01444962 225.979722 7.01444962H230.78166C231.930786 6.98319911 233.078513 7.11583198 234.190443 7.4083735zM147.607354 7.14080257H154.395279C155.576265 7.11687504 156.753775 7.27735419 157.885576 7.61648423 158.755546 7.89372184 159.563457 8.33801094 160.264314 8.92460881 160.875103 9.47377929 161.349614 10.1584019 161.650058 10.9239583 161.941338 11.7137607 162.089408 12.5494554 162.087294 13.3915569V29.5052733C160.301366 29.6241937 158.760003 29.7059515 157.529877 29.7877093 156.299751 29.8694671 155.188191 29.9066297 154.276712 29.9066297H149.474774C148.325648 29.9378802 147.177922 29.8052473 146.065991 29.5127058 145.252926 29.2847118 144.495911 28.8898885 143.842872 28.3532318 143.282191 27.8606212 142.858371 27.2306744 142.612746 26.5248304 142.366845 25.7539536 142.246731 24.9482934 142.257047 24.1389895V21.3294947C142.246731 20.5201908 142.366845 19.7145307 142.612746 18.9436539 142.837004 18.2272775 143.264457 17.5919318 143.842872 17.1152525 144.496556 16.5812496 145.253527 16.1889802 146.065991 15.9632109 147.17683 15.6643103 148.325119 15.5291086 149.474774 15.5618545H152.290726v0C152.727939 15.5618545 153.239256 15.6436123 153.876551 15.6807749 154.513845 15.7179376 155.462376 15.8442905 156.692502 15.9632109V15.0564428C156.696196 14.5584241 156.656523 14.0610331 156.573936 13.5699376 156.509331 13.1221772 156.3335 12.6979006 156.062618 12.3361382 155.750468 11.9604276 155.343591 11.675533 154.884365 11.5111279 154.233491 11.2888737 153.548707 11.1832077 152.861326 11.1989618L144.435704 11.1543666 143.99849 10.7158476V9.60096867C143.924908 8.8730375 144.223239 8.15714253 144.791403 7.69824202 145.659094 7.25047595 146.635113 7.0572655 147.607354 7.14080257zM200.762138 7.1779652H206.156908C207.308455 7.14721242 208.458557 7.27983156 209.573101 7.57188907 210.38585 7.80068675 211.142708 8.19542789 211.796221 8.73136313 212.355385 9.22531305 212.778916 9.85483019 213.026347 10.5597645 213.272247 11.3306413 213.392361 12.1363015 213.382046 12.9456054v11.022436C213.392361 24.7773453 213.272247 25.5830055 213.026347 26.3538823 212.795687 27.0671471 212.369363 27.7008148 211.796221 28.1822837 211.142708 28.7182189 210.38585 29.11296 209.573101 29.3417577 208.458557 29.6338152 207.308455 29.7664344 206.156908 29.7356816H200.762138C199.613012 29.7669321 198.465286 29.6342992 197.353355 29.3417577 196.540998 29.1119669 195.784334 28.7173268 195.130236 28.1822837 194.56316 27.6953597 194.138084 27.063546 193.90011 26.3538823 193.654209 25.5830055 193.534095 24.7773453 193.544411 23.9680414V12.9456054C193.534095 12.1363015 193.654209 11.3306413 193.90011 10.5597645 194.13363 9.8479018 194.55946 9.21496706 195.130236 8.73136313 195.784334 8.19632002 196.540998 7.80167985 197.353355 7.57188907 198.465286 7.27934756 199.613012 7.14671468 200.762138 7.1779652zM172.402546 1.68532848 172.365494 13.0645258H183.192085L183.229137 1.68532848H188.861039L188.823987 29.7356816H183.192085V17.405121H172.365494V29.698519H166.726181L166.770643 1.68532848H172.402546zM118.454849 1.20964682V7.09620741H124.761097V11.1543666H118.454849L118.491901 22.4518061C118.483844 22.8784291 118.498686 23.3051778 118.536363 23.7302006 118.567639 24.0988389 118.689877 24.4538786 118.892062 24.7633217 119.125692 25.0710098 119.441846 25.3056108 119.803541 25.4396816 120.381641 25.6174392 120.985129 25.6978098 121.589447 25.6775224H124.798149L125.235363 26.1160414V27.2309203C125.311547 27.9613679 125.012958 28.6806813 124.44245 29.1410795 123.573322 29.5846908 122.598496 29.7776652 121.626499 29.698519H120.277807C119.129235 29.7091163 117.983922 29.5742651 116.869024 29.2971626 116.057184 29.069797 115.300525 28.6776893 114.645904 28.145121 114.088227 27.6498624 113.664975 27.0207614 113.415778 26.3167196 113.171009 25.5455787 113.050922 24.7401033 113.060079 23.9308788V11.1543666H109.888429V7.53472644L113.060079 7.29688561 114.408771 1.20964682H118.454849zM82.4106732 1.64816585C83.3826701 1.56901963 84.3574962 1.76199404 85.2266244 2.2056053 85.7916092 2.66919746 86.0844077 3.38799671 86.0047162 4.11576449v0V5.46848422L85.5675027 5.90700325H74.0295132C72.48074 5.90700325 71.4136427 6.18200671 70.8578629 6.77660879v0H70.8726837C70.2752929 7.45344358 69.9736332 8.34238206 70.0353087 9.24420742v0V10.2773285C70.0045599 11.0861203 70.2679192 11.8785573 70.7763485 12.5070863 71.250614 13.1091209 72.2065553 13.421287 73.5922997 13.421287v0H81.0768016v4.0209966H73.5774789C72.1917345 17.4422836 71.2728451 17.7172871 70.7615277 18.3564843 70.2481837 18.9822986 69.9841834 19.7766645 70.0204879 20.5862421v0V22.3328857C70.0018468 23.1567443 70.3019464 23.9558478 70.8578629 24.5626435 71.4136427 25.1572456 72.48074 25.4396816 74.0295132 25.4396816v0H85.5897339L86.0269474 25.8782006V27.2309203C86.0910126 27.9595407 85.7947114 28.6733424 85.2340348 29.1410795 84.3649066 29.5846908 83.3900805 29.7776652 82.4180836 29.698519v0H71.5914923C70.441837 29.7312649 69.293548 29.5960632 68.1827092 29.2971626 67.3702449 29.0713933 66.6132743 28.6791239 65.9595898 28.145121 65.3729761 27.6714863 64.9375871 27.0358324 64.7072326 26.3167196 64.4624633 25.5455787 64.3423769 24.7401033 64.3515335 23.9308788v0V11.4368026C64.3334759 11.2911906 64.3334759 11.1438955 64.3515335 10.9982836v0V7.41580603C64.3412182 6.60650215 64.461332 5.800842 64.7072326 5.02996518 64.9452066 4.32030142 65.3702831 3.6884878 65.9373586 3.20156379 66.5813236 2.65124921 67.3414761 2.25478959 68.160478 2.04208973 69.2724088 1.74954821 70.4201349 1.61691534 71.5692611 1.64816585v0zM139.952413 6.89552921 139.915361 10.9239583H134.520591V29.7059515H129.125822V7.29688561L133.409032 7.02188215C134.483539 6.97728699 135.350556 6.89552921 136.069365 6.89552921H139.952413zM87.397871 7.02188215 93.4669869 7.05904478 97.5130642 15.413204 101.596193 7.05904478H107.665309L101.596193 17.9179653 108.339656 29.6539238H102.47062L97.5130642 20.4673217 92.555508 29.6539238H86.6790624L93.4669869 17.8808026 87.397871 7.02188215zM51.8131402 5.30496865C54.191878 5.30496865 55.7851135 10.2401659 55.4664664 16.9666019 55.1478193 24.1241245 52.6875672 28.3012041 50.0716967 28.5390449L34.2060348 28.6653979C31.5827539 28.4201245 30.2785239 24.1241245 30.4341422 18.7950033 30.634223 13.3469618 31.7013203 8.33000673 34.3616531 7.85432506L51.1832564 5.42388906C51.3847751 5.34799062 51.5978999 5.30775321 51.8131402 5.30496865zM229.781257 10.990851H223.51947V25.9153632H229.447789C230.052406 25.9420967 230.656983 25.8615813 231.233695 25.6775224 231.608417 25.5687101 231.931815 25.3287338 232.145173 25.0011625 232.351804 24.6939267 232.474453 24.3376944 232.500873 23.9680414 232.555684 23.5715416 232.582921 23.1716971 232.582395 22.7714047L232.523104 22.8085674V12.7077645v0C232.524066 12.3814071 232.425837 12.0625063 232.241509 11.7935638 232.038789 11.5222116 231.764005 11.3135761 231.448596 11.1915292 230.905663 11.042846 230.343848 10.9752268 229.781257 10.990851zM156.573936 19.99164H150.304739C149.804002 19.9839617 149.304795 20.0490523 148.822659 20.1848857 148.498773 20.2877388 148.210855 20.4811165 147.992695 20.7423251 147.805922 20.9519428 147.680295 21.2090901 147.629585 21.4855777 147.584687 21.7883246 147.559931 22.0937333 147.555481 22.3997784V23.3957369C147.561764 23.7016913 147.58651 24.0069834 147.629585 24.3099376 147.66836 24.6055571 147.794875 24.8826493 147.992695 25.1052179 148.221118 25.3546998 148.505676 25.5458206 148.822659 25.6626574 149.303678 25.8045588 149.803424 25.8722259 150.304739 25.8633356L156.573936 25.8782006V19.99164zM204.452516 11.1989618H202.548044C201.199352 11.1989618 200.250821 11.3922074 199.732093 11.8307265 199.182842 12.3725196 198.910001 13.1360182 198.991053 13.9044012V22.9349203C198.9188 23.7000047 199.190487 24.4575505 199.732093 25.0011625 200.556392 25.5331926 201.53525 25.7714381 202.510992 25.6775224H204.415464C205.764157 25.6775224 206.712688 25.4768442 207.231416 25.0383252 207.77946 24.4988299 208.052286 23.7381068 207.972455 22.9720829v-9.030519C208.042612 13.1767462 207.771236 12.4200683 207.231416 11.8753216 206.407117 11.3432916 205.428259 11.1050461 204.452516 11.1989618zM22.3049357 9.20704479C23.6906801 9.20704479 24.6466215 12.0685673 24.4465407 16.0078061 24.24646 20.1848857 22.8162532 22.6153217 21.3119424 22.7714047L12.0267138 22.8531625C10.5446342 22.6970795 9.72949046 20.1848857 9.84805683 17.0855224 9.96662319 13.986159 10.5890966 10.9982836 12.1452802 10.7158476L21.9492366 9.28880258C22.0620066 9.240534 22.1824629 9.212847 22.3049357 9.20704479zM8.69203475.0130101353C9.68502807.0130101353 10.3223223 2.04208973 10.1741143 4.7475292 10.0236833 7.55677627 9.12539482 9.24783284 8.06160832 9.46486894L7.95099496 9.48204826v0H1.48912798C.444261872 9.4374531-.0670555843 7.65364686.00704839481 5.46848422.081152374 3.28332157.525776249 1.20964682 1.59287355 1.00896862L8.45490202.0130101353C8.5330002-.00433671175 8.61393657-.00433671175 8.69203475.0130101353z" id="Combined-Shape"/></g></g></g></svg>