<svg viewBox="0 0 32 32" xmlns="http://www.w3.org/2000/svg"><g fill="#fff"><rect height="23.99" opacity=".4" rx="1.67" width="32" y="2.79"/><path d="m26.43 16.07v6.65l-2.5-.82-2.49.82v-6.65a1.11 1.11 0 0 1 .58 0c.31.15.46.79.8.87s.75-.44 1.11-.44.77.5 1.07.5.5-.72.81-.87a1.15 1.15 0 0 1 .62-.06z" opacity=".4"/><path d="m28.41 14.27c-.16.32-.81.32-1 .59s-.11.93-.41 1.14a.9.9 0 0 1 -.6.07 1.15 1.15 0 0 0 -.59 0c-.31.15-.45.79-.81.87s-.74-.44-1.1-.44-.77.52-1.11.44-.49-.72-.8-.87a1.11 1.11 0 0 0 -.58 0 .92.92 0 0 1 -.61-.07c-.28-.21-.12-.86-.35-1.14s-.87-.27-1-.59.26-.82.18-1.17-.67-.62-.67-1 .59-.65.67-1-.33-.87-.18-1.18.82-.32 1-.59.07-.93.35-1.14.87.06 1.19-.09.46-.79.8-.87.75.44 1.11.44.77-.52 1.1-.44.5.73.81.87.95-.1 1.19.13.13.86.35 1.14.87.27 1 .59-.26.82-.18 1.18.67.61.67 1-.6.64-.67 1 .39.86.24 1.13z"/><rect height="1.62" rx=".17" width="13.32" x="3.1" y="7.26"/><rect height="1.62" rx=".21" width="13.32" x="3.1" y="12.51"/><rect height="1.62" rx=".21" width="13.32" x="3.1" y="16.16"/><rect height="1.62" rx=".21" width="13.32" x="3.1" y="19.8"/></g></svg>