<svg viewBox="0 0 32 32" xmlns="http://www.w3.org/2000/svg"><g fill="#fff"><path d="m28.32 1.51v21.25l-9 9h-14.32a1.33 1.33 0 0 1 -1.32-1.32v-29a1.32 1.32 0 0 1 1.32-1.25h22a1.32 1.32 0 0 1 1.32 1.32z" opacity=".4"/><path d="m19.29 31.81v-7.73a1.33 1.33 0 0 1 1.32-1.32h7.71z" opacity=".4"/><rect height="1.62" rx=".2" width="18.66" x="6.67" y="5.24"/><rect height="1.62" rx=".21" width="13.32" x="6.67" y="10.36"/><rect height="1.62" rx=".25" width="18.66" x="6.67" y="13.97"/><rect height="1.62" rx=".25" width="18.66" x="6.67" y="17.59"/></g></svg>