<svg viewBox="0 0 32 32" xmlns="http://www.w3.org/2000/svg"><g fill="#fff"><path d="m30.18 11.36h-18.69a1.8 1.8 0 0 0 -1.8 1.8v14.09a1.81 1.81 0 0 0 1.8 1.8h18.69a1.81 1.81 0 0 0 1.8-1.8v-14.09a1.8 1.8 0 0 0 -1.8-1.8z" opacity=".5"/><path d="m22.29 10.36v-5.58a1.8 1.8 0 0 0 -1.8-1.78h-18.69a1.8 1.8 0 0 0 -1.8 1.78v14.09a1.81 1.81 0 0 0 1.8 1.8h6.91v-7.51a2.8 2.8 0 0 1 2.8-2.8z" opacity=".3"/><path d="m17.32 20.2v-4.49a.43.43 0 0 1 .64-.37l3.9 2.25 3.89 2.25a.42.42 0 0 1 0 .73l-3.89 2.25-3.86 2.25a.43.43 0 0 1 -.64-.37z"/></g></svg>